<svg width="1440" height="892" viewBox="0 0 1440 892" fill="none" xmlns="http://www.w3.org/2000/svg">
<g clip-path="url(#clip0_1379_2)">
<g opacity="0.02">
<path d="M869.738 155.896L860.221 155.89L860.198 190.787L869.716 190.794L869.712 197.139L879.229 197.145L879.223 206.662L888.741 206.669L888.735 216.186L895.08 216.19L895.102 181.292L885.585 181.286L885.589 174.941L879.244 174.937L879.25 165.42L869.732 165.413L869.738 155.896Z" fill="white"/>
<path d="M930.016 155.935L939.533 155.941L939.511 190.839L929.993 190.833L929.989 197.178L920.471 197.172L920.465 206.689L910.948 206.683L910.942 216.201L904.597 216.197L904.619 181.299L914.137 181.305L914.141 174.96L920.486 174.964L920.492 165.446L930.009 165.452L930.016 155.935Z" fill="white"/>
<path d="M917.285 219.377L917.279 228.895L952.177 228.917L952.183 219.4L958.528 219.404L958.534 209.886L968.052 209.893L968.058 200.375L977.576 200.381L977.58 194.036L942.682 194.014L942.676 203.531L936.331 203.527L936.327 209.872L926.809 209.866L926.803 219.384L917.285 219.377Z" fill="white"/>
<path d="M977.535 263.832L977.529 273.349L942.631 273.327L942.638 263.809L936.293 263.805L936.299 254.287L926.781 254.281L926.787 244.764L917.27 244.758L917.274 238.412L952.172 238.435L952.165 247.953L958.51 247.957L958.506 254.302L968.024 254.308L968.018 263.825L977.535 263.832Z" fill="white"/>
<path d="M929.916 311.389L939.434 311.395L939.456 276.497L929.938 276.491L929.943 270.146L920.425 270.14L920.431 260.622L910.914 260.616L910.92 251.099L904.575 251.094L904.552 285.992L914.07 285.998L914.066 292.343L920.411 292.348L920.405 301.865L929.922 301.871L929.916 311.389Z" fill="white"/>
<path d="M869.639 311.35L860.121 311.344L860.144 276.446L869.661 276.452L869.665 270.107L879.183 270.113L879.189 260.596L888.707 260.602L888.713 251.084L895.058 251.088L895.035 285.986L885.518 285.98L885.514 292.325L879.169 292.321L879.162 301.838L869.645 301.832L869.639 311.35Z" fill="white"/>
<path d="M822.119 203.453L822.125 193.936L857.023 193.958L857.017 203.476L863.362 203.48L863.356 212.997L872.873 213.003L872.867 222.521L882.385 222.527L882.381 228.872L847.483 228.85L847.489 219.332L841.144 219.328L841.148 212.983L831.63 212.977L831.636 203.459L822.119 203.453Z" fill="white"/>
<path d="M882.369 247.908L882.375 238.39L847.477 238.368L847.471 247.885L841.126 247.881L841.12 257.399L831.602 257.393L831.596 266.91L822.079 266.904L822.074 273.249L856.972 273.272L856.978 263.754L863.323 263.758L863.328 257.413L872.845 257.419L872.851 247.902L882.369 247.908Z" fill="white"/>
<rect x="895.072" y="228.881" width="9.5176" height="9.5176" transform="rotate(0.0369024 895.072 228.881)" fill="white"/>
<path d="M1227.05 156.126L1217.53 156.12L1217.51 191.017L1227.03 191.024L1227.02 197.369L1236.54 197.375L1236.54 206.892L1246.05 206.899L1246.05 216.416L1252.39 216.42L1252.41 181.522L1242.9 181.516L1242.9 175.171L1236.56 175.167L1236.56 165.649L1227.04 165.643L1227.05 156.126Z" fill="white"/>
<path d="M1287.33 156.165L1296.85 156.171L1296.82 191.069L1287.31 191.063L1287.3 197.408L1277.78 197.402L1277.78 206.919L1268.26 206.913L1268.25 216.431L1261.91 216.427L1261.93 181.529L1271.45 181.535L1271.45 175.19L1277.8 175.194L1277.8 165.676L1287.32 165.682L1287.33 156.165Z" fill="white"/>
<path d="M1274.6 219.607L1274.59 229.125L1309.49 229.147L1309.5 219.63L1315.84 219.634L1315.85 210.116L1325.36 210.123L1325.37 200.605L1334.89 200.611L1334.89 194.266L1299.99 194.243L1299.99 203.761L1293.64 203.757L1293.64 210.102L1284.12 210.096L1284.12 219.614L1274.6 219.607Z" fill="white"/>
<path d="M1334.85 264.062L1334.84 273.579L1299.94 273.557L1299.95 264.039L1293.61 264.035L1293.61 254.517L1284.09 254.511L1284.1 244.994L1274.58 244.987L1274.59 238.642L1309.48 238.665L1309.48 248.183L1315.82 248.187L1315.82 254.532L1325.34 254.538L1325.33 264.055L1334.85 264.062Z" fill="white"/>
<path d="M1287.23 311.619L1296.75 311.625L1296.77 276.727L1287.25 276.721L1287.26 270.376L1277.74 270.37L1277.74 260.852L1268.23 260.846L1268.23 251.329L1261.89 251.324L1261.86 286.222L1271.38 286.228L1271.38 292.573L1277.72 292.578L1277.72 302.095L1287.23 302.101L1287.23 311.619Z" fill="white"/>
<path d="M1226.95 311.58L1217.43 311.574L1217.46 276.676L1226.97 276.682L1226.98 270.337L1236.5 270.343L1236.5 260.825L1246.02 260.832L1246.03 251.314L1252.37 251.318L1252.35 286.216L1242.83 286.21L1242.83 292.555L1236.48 292.551L1236.47 302.068L1226.96 302.062L1226.95 311.58Z" fill="white"/>
<path d="M1179.43 203.683L1179.44 194.166L1214.34 194.188L1214.33 203.706L1220.67 203.71L1220.67 213.227L1230.19 213.233L1230.18 222.751L1239.7 222.757L1239.69 229.102L1204.8 229.08L1204.8 219.562L1198.46 219.558L1198.46 213.213L1188.94 213.207L1188.95 203.689L1179.43 203.683Z" fill="white"/>
<path d="M1239.68 248.138L1239.69 238.62L1204.79 238.598L1204.78 248.115L1198.44 248.111L1198.43 257.629L1188.91 257.623L1188.91 267.14L1179.39 267.134L1179.39 273.479L1214.28 273.502L1214.29 263.984L1220.64 263.988L1220.64 257.643L1230.16 257.649L1230.16 248.132L1239.68 248.138Z" fill="white"/>
<rect x="1252.38" y="229.111" width="9.5176" height="9.5176" transform="rotate(0.0369024 1252.38 229.111)" fill="white"/>
<path d="M1048.51 -22.6618L1038.99 -22.668L1038.97 12.2299L1048.49 12.236L1048.48 18.5811L1058 18.5872L1057.99 28.1048L1067.51 28.1109L1067.51 37.6285L1073.85 37.6326L1073.87 2.73476L1064.36 2.72863L1064.36 -3.61643L1058.02 -3.62052L1058.02 -13.1381L1048.5 -13.1442L1048.51 -22.6618Z" fill="white"/>
<path d="M1108.79 -22.6228L1118.3 -22.6167L1118.28 12.2811L1108.76 12.275L1108.76 18.6201L1099.24 18.6139L1099.24 28.1315L1089.72 28.1254L1089.71 37.643L1083.37 37.6389L1083.39 2.74108L1092.91 2.74721L1092.91 -3.59786L1099.26 -3.59377L1099.26 -13.1114L1108.78 -13.1052L1108.79 -22.6228Z" fill="white"/>
<path d="M1096.06 40.8193L1096.05 50.3369L1130.95 50.3594L1130.95 40.8418L1137.3 40.8459L1137.31 31.3283L1146.82 31.3344L1146.83 21.8168L1156.35 21.823L1156.35 15.4779L1121.45 15.4554L1121.45 24.973L1115.1 24.9689L1115.1 31.314L1105.58 31.3079L1105.57 40.8254L1096.06 40.8193Z" fill="white"/>
<path d="M1156.31 85.2734L1156.3 94.791L1121.4 94.7685L1121.41 85.2509L1115.06 85.2469L1115.07 75.7293L1105.55 75.7231L1105.56 66.2055L1096.04 66.1994L1096.05 59.8543L1130.94 59.8768L1130.94 69.3944L1137.28 69.3985L1137.28 75.7436L1146.8 75.7497L1146.79 85.2673L1156.31 85.2734Z" fill="white"/>
<path d="M1108.69 132.831L1118.21 132.837L1118.23 97.9396L1108.71 97.9334L1108.71 91.5884L1099.2 91.5822L1099.2 82.0646L1089.68 82.0585L1089.69 72.5409L1083.35 72.5368L1083.32 107.435L1092.84 107.441L1092.84 113.786L1099.18 113.79L1099.18 123.308L1108.69 123.314L1108.69 132.831Z" fill="white"/>
<path d="M1048.41 132.792L1038.89 132.786L1038.92 97.8883L1048.43 97.8944L1048.44 91.5494L1057.95 91.5555L1057.96 82.0379L1067.48 82.044L1067.48 72.5264L1073.83 72.5305L1073.81 107.428L1064.29 107.422L1064.29 113.767L1057.94 113.763L1057.93 123.281L1048.42 123.275L1048.41 132.792Z" fill="white"/>
<path d="M1000.89 24.8955L1000.9 15.3779L1035.79 15.4004L1035.79 24.918L1042.13 24.9221L1042.13 34.4397L1051.64 34.4458L1051.64 43.9634L1061.16 43.9695L1061.15 50.3146L1026.25 50.2921L1026.26 40.7745L1019.92 40.7704L1019.92 34.4254L1010.4 34.4192L1010.41 24.9017L1000.89 24.8955Z" fill="white"/>
<path d="M1061.14 69.3501L1061.15 59.8325L1026.25 59.81L1026.24 69.3276L1019.9 69.3236L1019.89 78.8411L1010.37 78.835L1010.37 88.3526L1000.85 88.3465L1000.85 94.6916L1035.74 94.714L1035.75 85.1964L1042.09 85.2005L1042.1 78.8555L1051.62 78.8616L1051.62 69.344L1061.14 69.3501Z" fill="white"/>
<rect x="1073.84" y="50.3228" width="9.5176" height="9.5176" transform="rotate(0.0369024 1073.84 50.3228)" fill="white"/>
<path d="M1048.28 334.668L1038.76 334.662L1038.74 369.559L1048.26 369.566L1048.25 375.911L1057.77 375.917L1057.76 385.434L1067.28 385.441L1067.28 394.958L1073.62 394.962L1073.64 360.064L1064.13 360.058L1064.13 353.713L1057.78 353.709L1057.79 344.191L1048.27 344.185L1048.28 334.668Z" fill="white"/>
<path d="M1108.56 334.706L1118.07 334.712L1118.05 369.61L1108.53 369.604L1108.53 375.949L1099.01 375.943L1099.01 385.461L1089.49 385.455L1089.48 394.972L1083.14 394.968L1083.16 360.07L1092.68 360.076L1092.68 353.731L1099.03 353.735L1099.03 344.218L1108.55 344.224L1108.56 334.706Z" fill="white"/>
<path d="M1095.83 398.149L1095.82 407.667L1130.72 407.689L1130.72 398.171L1137.07 398.175L1137.08 388.658L1146.59 388.664L1146.6 379.146L1156.12 379.153L1156.12 372.807L1121.22 372.785L1121.22 382.303L1114.87 382.299L1114.87 388.644L1105.35 388.637L1105.34 398.155L1095.83 398.149Z" fill="white"/>
<path d="M1156.08 442.603L1156.07 452.121L1121.17 452.098L1121.18 442.581L1114.83 442.576L1114.84 433.059L1105.32 433.053L1105.33 423.535L1095.81 423.529L1095.81 417.184L1130.71 417.206L1130.71 426.724L1137.05 426.728L1137.05 433.073L1146.56 433.079L1146.56 442.597L1156.08 442.603Z" fill="white"/>
<path d="M1108.46 490.16L1117.97 490.167L1118 455.269L1108.48 455.263L1108.48 448.917L1098.97 448.911L1098.97 439.394L1089.45 439.388L1089.46 429.87L1083.12 429.866L1083.09 464.764L1092.61 464.77L1092.61 471.115L1098.95 471.119L1098.95 480.637L1108.46 480.643L1108.46 490.16Z" fill="white"/>
<path d="M1048.18 490.122L1038.66 490.116L1038.68 455.218L1048.2 455.224L1048.21 448.879L1057.72 448.885L1057.73 439.367L1067.25 439.374L1067.25 429.856L1073.6 429.86L1073.58 464.758L1064.06 464.752L1064.05 471.097L1057.71 471.093L1057.7 480.61L1048.19 480.604L1048.18 490.122Z" fill="white"/>
<path d="M1000.66 382.225L1000.67 372.708L1035.56 372.73L1035.56 382.248L1041.9 382.252L1041.9 391.769L1051.41 391.775L1051.41 401.293L1060.93 401.299L1060.92 407.644L1026.02 407.622L1026.03 398.104L1019.68 398.1L1019.69 391.755L1010.17 391.749L1010.18 382.231L1000.66 382.225Z" fill="white"/>
<path d="M1060.91 426.68L1060.92 417.162L1026.02 417.14L1026.01 426.657L1019.67 426.653L1019.66 436.171L1010.14 436.165L1010.14 445.682L1000.62 445.676L1000.62 452.021L1035.51 452.044L1035.52 442.526L1041.86 442.53L1041.87 436.185L1051.39 436.191L1051.39 426.674L1060.91 426.68Z" fill="white"/>
<rect x="1073.61" y="407.652" width="9.5176" height="9.5176" transform="rotate(0.0369024 1073.61 407.652)" fill="white"/>
<path fill-rule="evenodd" clip-rule="evenodd" d="M1068.58 156.024L1089.04 156.037L1089.03 164.219L1097.21 164.224L1097.21 172.406L1105.39 172.411L1105.38 180.593L1113.57 180.598L1113.56 188.78L1121.74 188.785L1121.74 196.967L1129.92 196.973L1129.91 205.154L1138.1 205.16L1138.09 213.341L1146.27 213.347L1146.27 221.528L1154.45 221.534L1154.43 246.079L1146.25 246.074L1146.25 254.255L1138.06 254.25L1138.06 262.432L1129.88 262.427L1129.87 270.609L1121.69 270.603L1121.69 278.785L1113.5 278.78L1113.5 286.962L1105.32 286.956L1105.31 295.138L1097.13 295.133L1097.12 303.315L1088.94 303.309L1088.94 311.491L1068.48 311.478L1068.49 299.206L1084.85 299.216L1084.86 291.034L1093.04 291.039L1093.05 282.858L1101.23 282.863L1101.23 274.681L1109.42 274.686L1109.42 266.505L1117.6 266.51L1117.61 258.328L1125.79 258.333L1125.79 250.152L1133.98 250.157L1133.98 241.975L1142.16 241.98L1142.17 225.617L1133.99 225.611L1134 217.43L1125.82 217.424L1125.82 209.243L1117.64 209.237L1117.64 201.055L1109.46 201.05L1109.47 192.868L1101.29 192.863L1101.29 184.681L1093.11 184.676L1093.11 176.494L1084.93 176.489L1084.94 168.307L1068.57 168.297L1068.58 156.024Z" fill="white"/>
<path fill-rule="evenodd" clip-rule="evenodd" d="M1089.04 156.038L1068.58 156.024L1068.58 164.206L1060.4 164.201L1060.39 172.383L1052.21 172.377L1052.2 180.559L1044.02 180.554L1044.02 188.736L1035.83 188.731L1035.83 196.912L1027.65 196.907L1027.64 205.089L1019.46 205.083L1019.45 213.265L1011.27 213.26L1011.27 221.442L1003.09 221.436L1003.07 245.982L1011.25 245.987L1011.25 254.169L1019.43 254.174L1019.42 262.356L1027.6 262.362L1027.6 270.543L1035.78 270.548L1035.78 278.73L1043.96 278.735L1043.95 286.917L1052.13 286.922L1052.13 295.104L1060.31 295.11L1060.31 303.291L1068.49 303.297L1068.48 311.478L1088.94 311.491L1088.94 299.219L1072.58 299.208L1072.59 291.026L1064.4 291.021L1064.41 282.84L1056.23 282.834L1056.23 274.652L1048.05 274.647L1048.06 266.465L1039.87 266.46L1039.88 258.278L1031.7 258.273L1031.7 250.091L1023.52 250.086L1023.53 241.904L1015.35 241.899L1015.36 225.535L1023.54 225.541L1023.54 217.359L1031.72 217.364L1031.73 209.182L1039.91 209.188L1039.92 201.006L1048.1 201.011L1048.1 192.829L1056.29 192.834L1056.29 184.653L1064.47 184.658L1064.48 176.476L1072.66 176.481L1072.67 168.3L1089.03 168.31L1089.04 156.038Z" fill="white"/>
<rect x="1068.54" y="225.569" width="20.4545" height="20.4545" transform="rotate(0.0369024 1068.54 225.569)" fill="white"/>
<path d="M150.572 162.455L141.055 162.449L141.032 197.347L150.55 197.353L150.546 203.698L160.063 203.704L160.057 213.222L169.575 213.228L169.569 222.746L175.914 222.75L175.936 187.852L166.419 187.846L166.423 181.501L160.078 181.497L160.084 171.979L150.566 171.973L150.572 162.455Z" fill="white"/>
<path d="M210.85 162.494L220.367 162.5L220.345 197.398L210.827 197.392L210.823 203.737L201.305 203.731L201.299 213.249L191.782 213.243L191.776 222.76L185.431 222.756L185.453 187.858L194.971 187.864L194.975 181.519L201.32 181.523L201.326 172.006L210.843 172.012L210.85 162.494Z" fill="white"/>
<path d="M198.119 225.937L198.113 235.455L233.011 235.477L233.017 225.959L239.362 225.964L239.368 216.446L248.886 216.452L248.892 206.934L258.41 206.941L258.414 200.596L223.516 200.573L223.51 210.091L217.165 210.087L217.161 216.432L207.643 216.426L207.637 225.943L198.119 225.937Z" fill="white"/>
<path d="M258.369 270.391L258.363 279.909L223.465 279.886L223.472 270.369L217.127 270.365L217.133 260.847L207.615 260.841L207.621 251.323L198.104 251.317L198.108 244.972L233.006 244.994L232.999 254.512L239.344 254.516L239.34 260.861L248.858 260.867L248.852 270.385L258.369 270.391Z" fill="white"/>
<path d="M210.75 317.948L220.268 317.954L220.29 283.056L210.772 283.05L210.777 276.705L201.259 276.699L201.265 267.181L191.747 267.175L191.754 257.658L185.409 257.654L185.386 292.551L194.904 292.558L194.9 298.903L201.245 298.907L201.239 308.424L210.756 308.43L210.75 317.948Z" fill="white"/>
<path d="M150.473 317.909L140.955 317.903L140.978 283.005L150.495 283.012L150.499 276.667L160.017 276.673L160.023 267.155L169.541 267.161L169.547 257.644L175.892 257.648L175.869 292.546L166.352 292.539L166.348 298.884L160.003 298.88L159.996 308.398L150.479 308.392L150.473 317.909Z" fill="white"/>
<path d="M102.953 210.013L102.959 200.495L137.857 200.518L137.851 210.035L144.196 210.039L144.19 219.557L153.707 219.563L153.701 229.081L163.219 229.087L163.215 235.432L128.317 235.409L128.323 225.892L121.978 225.888L121.982 219.543L112.464 219.536L112.47 210.019L102.953 210.013Z" fill="white"/>
<path d="M163.203 254.467L163.209 244.95L128.311 244.927L128.305 254.445L121.96 254.441L121.954 263.958L112.436 263.952L112.43 273.47L102.912 273.464L102.908 279.809L137.806 279.831L137.812 270.314L144.157 270.318L144.162 263.973L153.679 263.979L153.685 254.461L163.203 254.467Z" fill="white"/>
<rect x="175.906" y="235.44" width="9.5176" height="9.5176" transform="rotate(0.0369024 175.906 235.44)" fill="white"/>
<path d="M507.885 162.686L498.367 162.68L498.345 197.578L507.862 197.584L507.858 203.929L517.376 203.935L517.37 213.453L526.887 213.459L526.881 222.977L533.226 222.981L533.249 188.083L523.731 188.077L523.735 181.732L517.39 181.728L517.396 172.21L507.879 172.204L507.885 162.686Z" fill="white"/>
<path d="M568.162 162.725L577.68 162.731L577.657 197.629L568.14 197.623L568.136 203.968L558.618 203.962L558.612 213.48L549.094 213.474L549.088 222.991L542.743 222.987L542.765 188.089L552.283 188.095L552.287 181.75L558.632 181.754L558.638 172.237L568.156 172.243L568.162 162.725Z" fill="white"/>
<path d="M555.432 226.168L555.426 235.686L590.324 235.708L590.33 226.19L596.675 226.195L596.681 216.677L606.199 216.683L606.205 207.165L615.722 207.172L615.726 200.827L580.829 200.804L580.822 210.322L574.477 210.318L574.473 216.663L564.956 216.656L564.95 226.174L555.432 226.168Z" fill="white"/>
<path d="M615.682 270.622L615.676 280.14L580.778 280.117L580.784 270.6L574.439 270.595L574.445 261.078L564.928 261.072L564.934 251.554L555.416 251.548L555.42 245.203L590.318 245.225L590.312 254.743L596.657 254.747L596.653 261.092L606.17 261.098L606.164 270.616L615.682 270.622Z" fill="white"/>
<path d="M568.062 318.179L577.58 318.185L577.603 283.287L568.085 283.281L568.089 276.936L558.571 276.93L558.578 267.412L549.06 267.406L549.066 257.889L542.721 257.884L542.699 292.782L552.216 292.788L552.212 299.134L558.557 299.138L558.551 308.655L568.069 308.661L568.062 318.179Z" fill="white"/>
<path d="M507.785 318.14L498.268 318.134L498.29 283.236L507.808 283.243L507.812 276.897L517.329 276.904L517.335 267.386L526.853 267.392L526.859 257.875L533.204 257.879L533.182 292.777L523.664 292.77L523.66 299.115L517.315 299.111L517.309 308.629L507.791 308.623L507.785 318.14Z" fill="white"/>
<path d="M460.265 210.244L460.271 200.726L495.169 200.749L495.163 210.266L501.508 210.27L501.502 219.788L511.02 219.794L511.014 229.312L520.531 229.318L520.527 235.663L485.629 235.64L485.635 226.123L479.29 226.119L479.294 219.774L469.777 219.767L469.783 210.25L460.265 210.244Z" fill="white"/>
<path d="M520.515 254.698L520.521 245.181L485.624 245.158L485.618 254.676L479.272 254.672L479.266 264.189L469.749 264.183L469.743 273.701L460.225 273.695L460.221 280.04L495.119 280.062L495.125 270.545L501.47 270.549L501.474 264.204L510.992 264.21L510.998 254.692L520.515 254.698Z" fill="white"/>
<rect x="533.219" y="235.671" width="9.5176" height="9.5176" transform="rotate(0.0369024 533.219 235.671)" fill="white"/>
<path d="M329.344 -16.1018L319.826 -16.1079L319.804 18.7899L329.321 18.7961L329.317 25.1411L338.835 25.1473L338.829 34.6649L348.346 34.671L348.34 44.1886L354.685 44.1927L354.708 9.29482L345.19 9.28869L345.194 2.94363L338.849 2.93954L338.855 -6.57806L329.338 -6.58419L329.344 -16.1018Z" fill="white"/>
<path d="M389.621 -16.0628L399.139 -16.0566L399.116 18.8412L389.599 18.8351L389.595 25.1801L380.077 25.174L380.071 34.6916L370.553 34.6855L370.547 44.2031L364.202 44.199L364.224 9.30113L373.742 9.30726L373.746 2.9622L380.091 2.96629L380.097 -6.55131L389.615 -6.54518L389.621 -16.0628Z" fill="white"/>
<path d="M376.891 47.3794L376.885 56.897L411.783 56.9194L411.789 47.4019L418.134 47.4059L418.14 37.8883L427.658 37.8945L427.664 28.3769L437.181 28.383L437.185 22.0379L402.287 22.0155L402.281 31.5331L395.936 31.529L395.932 37.874L386.415 37.8679L386.408 47.3855L376.891 47.3794Z" fill="white"/>
<path d="M437.141 91.8335L437.135 101.351L402.237 101.329L402.243 91.811L395.898 91.8069L395.904 82.2893L386.387 82.2832L386.393 72.7656L376.875 72.7595L376.879 66.4144L411.777 66.4369L411.771 75.9545L418.116 75.9586L418.112 82.3036L427.629 82.3098L427.623 91.8273L437.141 91.8335Z" fill="white"/>
<path d="M389.521 139.391L399.039 139.397L399.062 104.499L389.544 104.493L389.548 98.1479L380.03 98.1418L380.037 88.6242L370.519 88.6181L370.525 79.1005L364.18 79.0964L364.158 113.994L373.675 114L373.671 120.345L380.016 120.35L380.01 129.867L389.528 129.873L389.521 139.391Z" fill="white"/>
<path d="M329.244 139.352L319.727 139.346L319.749 104.448L329.267 104.454L329.271 98.1094L338.788 98.1155L338.794 88.5979L348.312 88.6041L348.318 79.0865L354.663 79.0906L354.641 113.988L345.123 113.982L345.119 120.327L338.774 120.323L338.768 129.841L329.25 129.835L329.244 139.352Z" fill="white"/>
<path d="M281.724 31.4556L281.73 21.938L316.628 21.9605L316.622 31.4781L322.967 31.4821L322.961 40.9997L332.479 41.0059L332.473 50.5235L341.99 50.5296L341.986 56.8747L307.088 56.8522L307.094 47.3346L300.749 47.3305L300.753 40.9854L291.236 40.9793L291.242 31.4617L281.724 31.4556Z" fill="white"/>
<path d="M341.974 75.9102L341.98 66.3926L307.083 66.3701L307.076 75.8877L300.731 75.8836L300.725 85.4012L291.208 85.3951L291.202 94.9127L281.684 94.9065L281.68 101.252L316.578 101.274L316.584 91.7565L322.929 91.7606L322.933 85.4155L332.451 85.4216L332.457 75.904L341.974 75.9102Z" fill="white"/>
<rect x="354.678" y="56.8828" width="9.5176" height="9.5176" transform="rotate(0.0369024 354.678 56.8828)" fill="white"/>
<path fill-rule="evenodd" clip-rule="evenodd" d="M890.035 -22.7656L910.49 -22.7525L910.484 -14.5708L918.666 -14.5655L918.661 -6.3835L926.843 -6.37823L926.838 1.80345L935.019 1.80872L935.014 9.99047L943.196 9.99574L943.191 18.1777L951.373 18.183L951.367 26.3647L959.549 26.37L959.544 34.5516L967.725 34.5569L967.72 42.7387L975.902 42.744L975.886 67.2894L967.704 67.2841L967.699 75.4658L959.518 75.4605L959.512 83.6426L951.331 83.6374L951.325 91.8191L943.144 91.8138L943.138 99.9956L934.956 99.9903L934.951 108.172L926.769 108.167L926.764 116.348L918.582 116.343L918.577 124.525L910.395 124.52L910.39 132.702L889.935 132.689L889.943 120.416L906.307 120.426L906.312 112.244L914.494 112.25L914.499 104.068L922.681 104.073L922.686 95.8915L930.868 95.8967L930.874 87.715L939.055 87.7203L939.061 79.5385L947.242 79.5437L947.247 71.362L955.429 71.3673L955.434 63.1852L963.616 63.1905L963.627 46.827L955.445 46.8217L955.45 38.64L947.268 38.6347L947.274 30.4531L939.092 30.4478L939.097 22.2658L930.916 22.2605L930.921 14.0788L922.739 14.0735L922.744 5.89182L914.562 5.88655L914.568 -2.29543L906.386 -2.3007L906.391 -10.4824L890.027 -10.4929L890.035 -22.7656Z" fill="white"/>
<path fill-rule="evenodd" clip-rule="evenodd" d="M910.49 -22.752L890.036 -22.7651L890.03 -14.5834L881.848 -14.5887L881.843 -6.40692L873.661 -6.41219L873.656 1.76961L865.474 1.76434L865.469 9.94638L857.287 9.94111L857.282 18.1228L849.1 18.1175L849.095 26.2993L840.913 26.294L840.908 34.4757L832.726 34.4705L832.721 42.6522L824.539 42.6469L824.523 67.1923L832.705 67.1976L832.7 75.3794L840.882 75.3846L840.877 83.5667L849.058 83.5719L849.053 91.7536L857.234 91.7589L857.229 99.9406L865.411 99.9459L865.406 108.128L873.588 108.133L873.583 116.315L881.764 116.32L881.759 124.502L889.941 124.507L889.935 132.689L910.39 132.702L910.398 120.429L894.034 120.419L894.039 112.237L885.858 112.232L885.863 104.05L877.681 104.045L877.686 95.8628L869.504 95.8576L869.51 87.6758L861.328 87.6705L861.333 79.4888L853.152 79.4836L853.157 71.3019L844.975 71.2966L844.98 63.1146L836.798 63.1093L836.809 46.7458L844.991 46.7511L844.996 38.5694L853.178 38.5746L853.183 30.3928L861.365 30.3981L861.37 22.2164L869.552 22.2217L869.557 14.0397L877.739 14.0449L877.744 5.86313L885.926 5.8684L885.931 -2.31334L894.113 -2.30807L894.118 -10.4898L910.482 -10.4793L910.49 -22.752Z" fill="white"/>
<rect x="889.992" y="46.7798" width="20.4545" height="20.4545" transform="rotate(0.0369024 889.992 46.7798)" fill="white"/>
<path fill-rule="evenodd" clip-rule="evenodd" d="M1247.35 -22.5356L1267.8 -22.5225L1267.8 -14.3408L1275.98 -14.3356L1275.97 -6.1535L1284.16 -6.14823L1284.15 2.03345L1292.33 2.03872L1292.33 10.2205L1300.51 10.2257L1300.5 18.4077L1308.69 18.413L1308.68 26.5947L1316.86 26.6L1316.86 34.7816L1325.04 34.7869L1325.03 42.9687L1333.21 42.9739L1333.2 67.5193L1325.02 67.514L1325.01 75.6958L1316.83 75.6905L1316.82 83.8726L1308.64 83.8674L1308.64 92.0491L1300.46 92.0438L1300.45 100.226L1292.27 100.22L1292.26 108.402L1284.08 108.397L1284.08 116.579L1275.89 116.573L1275.89 124.755L1267.71 124.75L1267.7 132.932L1247.25 132.919L1247.26 120.646L1263.62 120.656L1263.62 112.474L1271.81 112.48L1271.81 104.298L1279.99 104.303L1280 96.1214L1288.18 96.1267L1288.19 87.945L1296.37 87.9503L1296.37 79.7685L1304.55 79.7738L1304.56 71.5921L1312.74 71.5973L1312.75 63.4152L1320.93 63.4205L1320.94 47.057L1312.76 47.0517L1312.76 38.87L1304.58 38.8647L1304.59 30.6831L1296.4 30.6778L1296.41 22.4958L1288.23 22.4905L1288.23 14.3088L1280.05 14.3035L1280.06 6.12182L1271.88 6.11655L1271.88 -2.06551L1263.7 -2.07078L1263.7 -10.2524L1247.34 -10.263L1247.35 -22.5356Z" fill="white"/>
<path fill-rule="evenodd" clip-rule="evenodd" d="M1267.8 -22.522L1247.35 -22.5351L1247.34 -14.3534L1239.16 -14.3587L1239.16 -6.17697L1230.97 -6.18224L1230.97 1.9995L1222.79 1.99423L1222.78 10.1763L1214.6 10.1711L1214.59 18.3529L1206.41 18.3476L1206.41 26.5293L1198.23 26.5241L1198.22 34.7058L1190.04 34.7005L1190.03 42.8821L1181.85 42.8769L1181.84 67.4222L1190.02 67.4275L1190.01 75.6094L1198.19 75.6146L1198.19 83.7966L1206.37 83.8019L1206.37 91.9836L1214.55 91.9889L1214.54 100.171L1222.72 100.176L1222.72 108.358L1230.9 108.363L1230.9 116.545L1239.08 116.55L1239.07 124.732L1247.25 124.737L1247.25 132.919L1267.7 132.932L1267.71 120.659L1251.35 120.649L1251.35 112.467L1243.17 112.462L1243.18 104.28L1234.99 104.275L1235 96.0928L1226.82 96.0875L1226.82 87.9058L1218.64 87.9005L1218.65 79.7188L1210.46 79.7135L1210.47 71.5318L1202.29 71.5266L1202.29 63.3446L1194.11 63.3393L1194.12 46.9759L1202.3 46.9811L1202.31 38.7994L1210.49 38.8047L1210.5 30.6229L1218.68 30.6282L1218.68 22.4464L1226.86 22.4516L1226.87 14.2695L1235.05 14.2748L1235.06 6.09308L1243.24 6.09835L1243.24 -2.08339L1251.43 -2.07812L1251.43 -10.2598L1267.79 -10.2493L1267.8 -22.522Z" fill="white"/>
<rect x="1247.3" y="47.0098" width="20.4545" height="20.4545" transform="rotate(0.0369024 1247.3 47.0098)" fill="white"/>
<path fill-rule="evenodd" clip-rule="evenodd" d="M889.844 334.53L910.298 334.543L910.293 342.725L918.475 342.73L918.47 350.912L926.652 350.918L926.646 359.099L934.828 359.105L934.823 367.286L943.005 367.292L943 375.474L951.181 375.479L951.176 383.661L959.358 383.666L959.352 391.848L967.534 391.853L967.529 400.035L975.711 400.04L975.695 424.585L967.513 424.58L967.507 432.762L959.326 432.756L959.321 440.938L951.139 440.933L951.134 449.115L942.952 449.11L942.947 457.291L934.765 457.286L934.759 465.468L926.578 465.463L926.572 473.644L918.391 473.639L918.386 481.821L910.204 481.816L910.198 489.998L889.744 489.985L889.752 477.712L906.115 477.722L906.121 469.54L914.302 469.546L914.308 461.364L922.489 461.369L922.495 453.187L930.677 453.193L930.682 445.011L938.864 445.016L938.869 436.834L947.051 436.84L947.056 428.658L955.237 428.663L955.243 420.481L963.425 420.486L963.435 404.123L955.253 404.118L955.259 395.936L947.077 395.931L947.082 387.749L938.901 387.744L938.906 379.562L930.724 379.556L930.729 371.375L922.547 371.369L922.553 363.188L914.371 363.182L914.376 355L906.194 354.995L906.2 346.814L889.836 346.803L889.844 334.53Z" fill="white"/>
<path fill-rule="evenodd" clip-rule="evenodd" d="M910.299 334.544L889.844 334.531L889.839 342.713L881.657 342.707L881.652 350.889L873.47 350.884L873.465 359.065L865.283 359.06L865.278 367.242L857.096 367.237L857.091 375.419L848.909 375.413L848.904 383.595L840.722 383.59L840.717 391.772L832.535 391.766L832.53 399.948L824.347 399.943L824.332 424.488L832.514 424.494L832.509 432.675L840.69 432.681L840.685 440.863L848.867 440.868L848.861 449.05L857.043 449.055L857.038 457.236L865.22 457.242L865.214 465.423L873.397 465.429L873.391 473.611L881.573 473.616L881.567 481.798L889.749 481.803L889.744 489.985L910.199 489.998L910.206 477.725L893.843 477.715L893.848 469.533L885.667 469.528L885.672 461.346L877.49 461.341L877.495 453.159L869.313 453.153L869.318 444.972L861.137 444.966L861.142 436.785L852.96 436.78L852.966 428.598L844.784 428.593L844.789 420.41L836.607 420.405L836.617 404.042L844.8 404.047L844.805 395.865L852.987 395.87L852.992 387.689L861.174 387.694L861.179 379.512L869.361 379.518L869.366 371.336L877.548 371.341L877.553 363.159L885.735 363.164L885.74 354.983L893.922 354.988L893.927 346.806L910.291 346.817L910.299 334.544Z" fill="white"/>
<rect x="889.799" y="404.076" width="20.4545" height="20.4545" transform="rotate(0.0369024 889.799 404.076)" fill="white"/>
<path fill-rule="evenodd" clip-rule="evenodd" d="M1247.12 334.795L1267.58 334.808L1267.57 342.99L1275.75 342.995L1275.75 351.177L1283.93 351.182L1283.93 359.364L1292.11 359.369L1292.1 367.551L1300.28 367.556L1300.28 375.738L1308.46 375.743L1308.46 383.925L1316.64 383.93L1316.63 392.112L1324.81 392.117L1324.81 400.299L1332.99 400.304L1332.97 424.85L1324.79 424.845L1324.79 433.026L1316.61 433.021L1316.6 441.203L1308.42 441.198L1308.41 449.38L1300.23 449.374L1300.23 457.556L1292.04 457.551L1292.04 465.732L1283.86 465.727L1283.85 473.909L1275.67 473.904L1275.66 482.085L1267.48 482.08L1267.48 490.262L1247.02 490.249L1247.03 477.976L1263.39 477.987L1263.4 469.805L1271.58 469.81L1271.59 461.628L1279.77 461.634L1279.77 453.452L1287.96 453.457L1287.96 445.275L1296.14 445.281L1296.15 437.099L1304.33 437.104L1304.34 428.922L1312.52 428.928L1312.52 420.746L1320.7 420.751L1320.71 404.387L1312.53 404.382L1312.54 396.2L1304.36 396.195L1304.36 388.014L1296.18 388.008L1296.19 379.826L1288 379.821L1288.01 371.639L1279.83 371.634L1279.83 363.452L1271.65 363.447L1271.66 355.265L1263.47 355.26L1263.48 347.078L1247.12 347.068L1247.12 334.795Z" fill="white"/>
<path fill-rule="evenodd" clip-rule="evenodd" d="M1267.58 334.809L1247.12 334.795L1247.12 342.977L1238.94 342.972L1238.93 351.154L1230.75 351.148L1230.74 359.33L1222.56 359.325L1222.56 367.507L1214.38 367.502L1214.37 375.683L1206.19 375.678L1206.18 383.86L1198 383.855L1198 392.036L1189.81 392.031L1189.81 400.213L1181.63 400.208L1181.61 424.753L1189.79 424.758L1189.79 432.94L1197.97 432.945L1197.96 441.127L1206.15 441.133L1206.14 449.314L1214.32 449.32L1214.32 457.501L1222.5 457.506L1222.49 465.688L1230.68 465.693L1230.67 473.875L1238.85 473.881L1238.85 482.062L1247.03 482.068L1247.02 490.249L1267.48 490.263L1267.49 477.99L1251.12 477.979L1251.13 469.798L1242.95 469.792L1242.95 461.611L1234.77 461.605L1234.77 453.423L1226.59 453.418L1226.6 445.236L1218.42 445.231L1218.42 437.05L1210.24 437.044L1210.25 428.863L1202.06 428.857L1202.07 420.675L1193.89 420.67L1193.9 404.306L1202.08 404.312L1202.08 396.13L1210.27 396.135L1210.27 387.954L1218.45 387.959L1218.46 379.777L1226.64 379.782L1226.65 371.6L1234.83 371.605L1234.83 363.424L1243.01 363.429L1243.02 355.247L1251.2 355.253L1251.21 347.071L1267.57 347.081L1267.58 334.809Z" fill="white"/>
<rect x="1247.08" y="404.34" width="20.4545" height="20.4545" transform="rotate(0.0369024 1247.08 404.34)" fill="white"/>
<path d="M329.113 341.227L319.596 341.221L319.573 376.119L329.091 376.125L329.087 382.47L338.604 382.476L338.598 391.994L348.116 392L348.11 401.518L354.455 401.522L354.477 366.624L344.96 366.618L344.964 360.273L338.619 360.269L338.625 350.751L329.107 350.745L329.113 341.227Z" fill="white"/>
<path d="M389.391 341.266L398.908 341.272L398.886 376.17L389.368 376.164L389.364 382.509L379.846 382.503L379.84 392.021L370.323 392.015L370.317 401.532L363.972 401.528L363.994 366.63L373.512 366.636L373.516 360.291L379.861 360.295L379.867 350.778L389.384 350.784L389.391 341.266Z" fill="white"/>
<path d="M376.66 404.708L376.654 414.226L411.552 414.249L411.558 404.731L417.903 404.735L417.909 395.217L427.427 395.224L427.433 385.706L436.951 385.712L436.955 379.367L402.057 379.345L402.051 388.862L395.706 388.858L395.702 395.203L386.184 395.197L386.178 404.715L376.66 404.708Z" fill="white"/>
<path d="M436.91 449.163L436.904 458.681L402.006 458.658L402.013 449.141L395.668 449.137L395.674 439.619L386.156 439.613L386.162 430.095L376.645 430.089L376.649 423.744L411.547 423.766L411.54 433.284L417.885 433.288L417.881 439.633L427.399 439.639L427.393 449.157L436.91 449.163Z" fill="white"/>
<path d="M389.291 496.72L398.809 496.726L398.831 461.828L389.313 461.822L389.318 455.477L379.8 455.471L379.806 445.953L370.289 445.947L370.295 436.43L363.95 436.426L363.927 471.323L373.445 471.329L373.441 477.675L379.786 477.679L379.78 487.196L389.297 487.202L389.291 496.72Z" fill="white"/>
<path d="M329.014 496.681L319.496 496.675L319.519 461.777L329.036 461.784L329.04 455.439L338.558 455.445L338.564 445.927L348.082 445.933L348.088 436.416L354.433 436.42L354.41 471.318L344.893 471.311L344.889 477.656L338.544 477.652L338.537 487.17L329.02 487.164L329.014 496.681Z" fill="white"/>
<path d="M281.494 388.785L281.5 379.267L316.398 379.29L316.392 388.807L322.737 388.811L322.731 398.329L332.248 398.335L332.242 407.853L341.76 407.859L341.756 414.204L306.858 414.181L306.864 404.664L300.519 404.66L300.523 398.315L291.005 398.308L291.011 388.791L281.494 388.785Z" fill="white"/>
<path d="M341.744 433.239L341.75 423.722L306.852 423.699L306.846 433.217L300.501 433.213L300.495 442.73L290.977 442.724L290.971 452.242L281.454 452.236L281.449 458.581L316.347 458.603L316.353 449.086L322.698 449.09L322.703 442.745L332.22 442.751L332.226 433.233L341.744 433.239Z" fill="white"/>
<rect x="354.447" y="414.212" width="9.5176" height="9.5176" transform="rotate(0.0369024 354.447 414.212)" fill="white"/>
<path fill-rule="evenodd" clip-rule="evenodd" d="M349.414 162.583L369.869 162.597L369.863 170.778L378.045 170.784L378.04 178.966L386.222 178.971L386.217 187.153L394.398 187.158L394.393 195.34L402.575 195.345L402.57 203.527L410.752 203.532L410.747 211.714L418.928 211.719L418.923 219.901L427.104 219.906L427.099 228.088L435.281 228.093L435.265 252.639L427.083 252.633L427.078 260.815L418.897 260.81L418.891 268.992L410.71 268.987L410.704 277.168L402.523 277.163L402.517 285.345L394.335 285.34L394.33 293.521L386.148 293.516L386.143 301.698L377.961 301.693L377.956 309.874L369.774 309.869L369.769 318.051L349.314 318.038L349.322 305.765L365.686 305.776L365.691 297.594L373.873 297.599L373.878 289.417L382.06 289.422L382.065 281.241L390.247 281.246L390.253 273.064L398.434 273.069L398.44 264.888L406.621 264.893L406.627 256.711L414.808 256.717L414.813 248.534L422.995 248.54L423.006 232.176L414.824 232.171L414.829 223.989L406.648 223.984L406.653 215.802L398.471 215.797L398.476 207.615L390.295 207.61L390.3 199.428L382.118 199.423L382.123 191.241L373.941 191.236L373.947 183.054L365.765 183.048L365.77 174.867L349.406 174.856L349.414 162.583Z" fill="white"/>
<path fill-rule="evenodd" clip-rule="evenodd" d="M369.869 162.597L349.415 162.584L349.409 170.766L341.227 170.76L341.222 178.942L333.04 178.937L333.035 187.119L324.853 187.113L324.848 195.295L316.666 195.29L316.661 203.472L308.479 203.467L308.474 211.648L300.292 211.643L300.287 219.825L292.105 219.82L292.1 228.001L283.918 227.996L283.902 252.541L292.084 252.547L292.079 260.728L300.261 260.734L300.255 268.916L308.437 268.921L308.432 277.103L316.613 277.108L316.608 285.29L324.79 285.295L324.785 293.477L332.967 293.482L332.961 301.664L341.143 301.669L341.138 309.851L349.32 309.856L349.314 318.038L369.769 318.051L369.777 305.778L353.413 305.768L353.418 297.586L345.237 297.581L345.242 289.399L337.06 289.394L337.065 281.212L328.883 281.207L328.889 273.025L320.707 273.02L320.712 264.838L312.531 264.833L312.536 256.651L304.354 256.646L304.359 248.464L296.177 248.458L296.188 232.095L304.37 232.1L304.375 223.918L312.557 223.924L312.562 215.742L320.744 215.747L320.749 207.566L328.931 207.571L328.936 199.389L337.118 199.394L337.123 191.212L345.305 191.218L345.31 183.036L353.492 183.041L353.497 174.859L369.861 174.87L369.869 162.597Z" fill="white"/>
<rect x="349.369" y="232.129" width="20.4545" height="20.4545" transform="rotate(0.0369024 349.369 232.129)" fill="white"/>
<path d="M683.16 -24.3684L673.643 -24.3745L673.62 10.5233L683.138 10.5295L683.134 16.8745L692.651 16.8807L692.645 26.3983L702.163 26.4044L702.157 35.922L708.502 35.9261L708.524 1.02822L699.006 1.02209L699.011 -5.32298L692.666 -5.32706L692.672 -14.8447L683.154 -14.8508L683.16 -24.3684Z" fill="white"/>
<path d="M743.437 -24.3294L752.955 -24.3232L752.933 10.5746L743.415 10.5685L743.411 16.9135L733.893 16.9074L733.887 26.425L724.37 26.4189L724.363 35.9365L718.018 35.9324L718.041 1.03453L727.558 1.04066L727.563 -5.3044L733.908 -5.30031L733.914 -14.8179L743.431 -14.8118L743.437 -24.3294Z" fill="white"/>
<path d="M730.707 39.1128L730.701 48.6304L765.599 48.6528L765.605 39.1353L771.95 39.1393L771.956 29.6217L781.474 29.6279L781.48 20.1103L790.998 20.1164L791.002 13.7713L756.104 13.7489L756.098 23.2665L749.753 23.2624L749.749 29.6074L740.231 29.6013L740.225 39.1189L730.707 39.1128Z" fill="white"/>
<path d="M790.957 83.5669L790.951 93.0845L756.053 93.062L756.059 83.5444L749.714 83.5403L749.721 74.0227L740.203 74.0166L740.209 64.499L730.691 64.4929L730.696 58.1478L765.593 58.1703L765.587 67.6879L771.932 67.692L771.928 74.037L781.446 74.0432L781.44 83.5607L790.957 83.5669Z" fill="white"/>
<path d="M743.338 131.124L752.855 131.13L752.878 96.2325L743.36 96.2264L743.364 89.8813L733.847 89.8752L733.853 80.3576L724.335 80.3515L724.342 70.8339L717.996 70.8298L717.974 105.728L727.492 105.734L727.487 112.079L733.833 112.083L733.826 121.601L743.344 121.607L743.338 131.124Z" fill="white"/>
<path d="M683.061 131.086L673.543 131.08L673.565 96.1817L683.083 96.1879L683.087 89.8428L692.605 89.8489L692.611 80.3313L702.128 80.3375L702.135 70.8199L708.48 70.824L708.457 105.722L698.94 105.716L698.935 112.061L692.59 112.057L692.584 121.574L683.067 121.568L683.061 131.086Z" fill="white"/>
<path d="M635.541 23.189L635.547 13.6714L670.445 13.6939L670.439 23.2115L676.784 23.2155L676.778 32.7331L686.295 32.7393L686.289 42.2569L695.807 42.263L695.802 48.6081L660.905 48.5856L660.911 39.068L654.566 39.0639L654.57 32.7188L645.052 32.7127L645.058 23.1951L635.541 23.189Z" fill="white"/>
<path d="M695.791 67.6436L695.797 58.126L660.899 58.1035L660.893 67.6211L654.548 67.617L654.542 77.1346L645.024 77.1285L645.018 86.6461L635.5 86.6399L635.496 92.985L670.394 93.0075L670.4 83.4899L676.745 83.494L676.749 77.1489L686.267 77.155L686.273 67.6374L695.791 67.6436Z" fill="white"/>
<rect x="708.494" y="48.6162" width="9.5176" height="9.5176" transform="rotate(0.0369024 708.494 48.6162)" fill="white"/>
<path d="M682.965 332.926L673.447 332.92L673.425 367.818L682.942 367.824L682.938 374.169L692.456 374.175L692.45 383.693L701.967 383.699L701.961 393.216L708.306 393.22L708.329 358.323L698.811 358.317L698.815 351.971L692.47 351.967L692.476 342.45L682.959 342.444L682.965 332.926Z" fill="white"/>
<path d="M743.242 332.965L752.76 332.971L752.737 367.869L743.22 367.863L743.216 374.208L733.698 374.202L733.692 383.719L724.174 383.713L724.168 393.231L717.823 393.227L717.846 358.329L727.363 358.335L727.367 351.99L733.712 351.994L733.718 342.477L743.236 342.483L743.242 332.965Z" fill="white"/>
<path d="M730.512 396.407L730.506 405.925L765.404 405.947L765.41 396.43L771.755 396.434L771.761 386.916L781.279 386.922L781.285 377.405L790.802 377.411L790.806 371.066L755.909 371.043L755.902 380.561L749.557 380.557L749.553 386.902L740.036 386.896L740.03 396.413L730.512 396.407Z" fill="white"/>
<path d="M790.762 440.862L790.756 450.379L755.858 450.357L755.864 440.839L749.519 440.835L749.525 431.318L740.008 431.312L740.014 421.794L730.496 421.788L730.5 415.443L765.398 415.465L765.392 424.983L771.737 424.987L771.733 431.332L781.251 431.338L781.244 440.856L790.762 440.862Z" fill="white"/>
<path d="M743.143 488.419L752.66 488.425L752.683 453.527L743.165 453.521L743.169 447.176L733.652 447.17L733.658 437.652L724.14 437.646L724.146 428.128L717.801 428.124L717.779 463.022L727.296 463.028L727.292 469.373L733.637 469.377L733.631 478.895L743.149 478.901L743.143 488.419Z" fill="white"/>
<path d="M682.865 488.38L673.348 488.374L673.37 453.476L682.888 453.482L682.892 447.137L692.409 447.143L692.416 437.626L701.933 437.632L701.939 428.114L708.284 428.118L708.262 463.016L698.744 463.01L698.74 469.355L692.395 469.351L692.389 478.869L682.871 478.863L682.865 488.38Z" fill="white"/>
<path d="M635.345 380.483L635.352 370.966L670.249 370.988L670.243 380.506L676.588 380.51L676.582 390.028L686.1 390.034L686.094 399.551L695.611 399.557L695.607 405.902L660.709 405.88L660.715 396.362L654.37 396.358L654.374 390.013L644.857 390.007L644.863 380.49L635.345 380.483Z" fill="white"/>
<path d="M695.595 424.938L695.602 415.42L660.704 415.398L660.698 424.916L654.353 424.911L654.346 434.429L644.829 434.423L644.823 443.941L635.305 443.934L635.301 450.279L670.199 450.302L670.205 440.784L676.55 440.788L676.554 434.443L686.072 434.449L686.078 424.932L695.595 424.938Z" fill="white"/>
<rect x="708.299" y="405.911" width="9.5176" height="9.5176" transform="rotate(0.0369024 708.299 405.911)" fill="white"/>
<path fill-rule="evenodd" clip-rule="evenodd" d="M703.266 154.282L723.72 154.295L723.715 162.477L731.897 162.482L731.892 170.664L740.074 170.67L740.068 178.851L748.25 178.857L748.245 187.038L756.427 187.044L756.421 195.226L764.603 195.231L764.598 203.413L772.78 203.418L772.774 211.6L780.956 211.605L780.95 219.787L789.133 219.792L789.117 244.337L780.935 244.332L780.929 252.514L772.748 252.508L772.743 260.69L764.561 260.685L764.556 268.867L756.374 268.862L756.369 277.043L748.187 277.038L748.181 285.22L740 285.215L739.994 293.396L731.813 293.391L731.807 301.573L723.626 301.568L723.62 309.75L703.166 309.737L703.174 297.464L719.537 297.474L719.543 289.292L727.724 289.297L727.729 281.116L735.911 281.121L735.916 272.939L744.099 272.945L744.104 264.763L752.286 264.768L752.291 256.586L760.473 256.592L760.478 248.41L768.659 248.415L768.664 240.233L776.847 240.238L776.857 223.875L768.675 223.87L768.68 215.688L760.499 215.683L760.504 207.501L752.323 207.496L752.328 199.314L744.146 199.308L744.151 191.127L735.969 191.121L735.974 182.94L727.793 182.934L727.798 174.752L719.616 174.747L719.622 166.565L703.258 166.555L703.266 154.282Z" fill="white"/>
<path fill-rule="evenodd" clip-rule="evenodd" d="M723.721 154.296L703.266 154.283L703.261 162.464L695.079 162.459L695.074 170.641L686.892 170.636L686.887 178.817L678.705 178.812L678.7 186.994L670.518 186.989L670.513 195.171L662.331 195.165L662.326 203.347L654.144 203.342L654.139 211.524L645.957 211.518L645.952 219.7L637.769 219.695L637.753 244.24L645.936 244.246L645.93 252.427L654.112 252.432L654.107 260.615L662.289 260.62L662.283 268.802L670.465 268.807L670.46 276.988L678.642 276.994L678.636 285.175L686.818 285.181L686.813 293.363L694.995 293.368L694.989 301.55L703.171 301.555L703.166 309.737L723.62 309.75L723.628 297.477L707.265 297.467L707.27 289.285L699.088 289.28L699.094 281.098L690.912 281.093L690.917 272.911L682.735 272.905L682.74 264.724L674.559 264.718L674.564 256.537L666.382 256.532L666.388 248.35L658.206 248.345L658.211 240.162L650.029 240.157L650.039 223.794L658.222 223.799L658.227 215.617L666.409 215.622L666.414 207.441L674.596 207.446L674.601 199.264L682.783 199.27L682.788 191.087L690.97 191.093L690.975 182.911L699.157 182.916L699.162 174.735L707.344 174.74L707.349 166.558L723.713 166.569L723.721 154.296Z" fill="white"/>
<rect x="703.221" y="223.828" width="20.4545" height="20.4545" transform="rotate(0.0369024 703.221 223.828)" fill="white"/>
<path fill-rule="evenodd" clip-rule="evenodd" d="M170.875 -16.2036L191.329 -16.1904L191.324 -8.0088L199.506 -8.00353L199.501 0.178527L207.683 0.183796L207.678 8.36542L215.859 8.37068L215.854 16.5525L224.036 16.5578L224.031 24.7398L232.213 24.7451L232.207 32.9267L240.389 32.932L240.384 41.1137L248.565 41.119L248.56 49.3007L256.742 49.306L256.726 73.8513L248.544 73.8461L248.539 82.0278L240.357 82.0226L240.352 90.2047L232.17 90.1994L232.165 98.3811L223.983 98.3758L223.978 106.558L215.796 106.552L215.791 114.734L207.609 114.729L207.604 122.91L199.422 122.905L199.417 131.087L191.235 131.082L191.23 139.264L170.775 139.251L170.783 126.978L187.147 126.988L187.152 118.806L195.334 118.812L195.339 110.63L203.52 110.635L203.526 102.453L211.708 102.459L211.713 94.277L219.895 94.2823L219.9 86.1005L228.082 86.1058L228.087 77.9241L236.269 77.9294L236.274 69.7472L244.456 69.7525L244.467 53.3891L236.285 53.3838L236.29 45.202L228.108 45.1968L228.114 37.0152L219.932 37.0099L219.937 28.8278L211.755 28.8225L211.761 20.6407L203.578 20.6355L203.584 12.4538L195.402 12.4486L195.408 4.26652L187.226 4.26125L187.231 -3.92039L170.867 -3.93093L170.875 -16.2036Z" fill="white"/>
<path fill-rule="evenodd" clip-rule="evenodd" d="M191.33 -16.1899L170.876 -16.2031L170.87 -8.02139L162.688 -8.02666L162.683 0.155066L154.501 0.149797L154.496 8.33161L146.314 8.32634L146.309 16.5084L138.127 16.5031L138.122 24.6848L129.94 24.6795L129.935 32.8613L121.753 32.8561L121.748 41.0377L113.566 41.0325L113.561 49.2142L105.379 49.2089L105.363 73.7543L113.545 73.7596L113.54 81.9415L121.722 81.9468L121.716 90.1287L129.898 90.1339L129.893 98.3157L138.074 98.321L138.069 106.503L146.251 106.508L146.246 114.69L154.428 114.695L154.423 122.877L162.604 122.882L162.599 131.064L170.78 131.069L170.775 139.251L191.23 139.264L191.238 126.991L174.874 126.981L174.879 118.799L166.698 118.794L166.703 110.612L158.521 110.607L158.526 102.425L150.344 102.42L150.349 94.2378L142.168 94.2325L142.173 86.0509L133.992 86.0457L133.997 77.8639L125.815 77.8586L125.82 69.6767L117.638 69.6714L117.649 53.3078L125.831 53.313L125.836 45.1314L134.018 45.1366L134.023 36.9548L142.205 36.9601L142.21 28.7784L150.392 28.7837L150.397 20.6017L158.579 20.6069L158.584 12.4251L166.766 12.4304L166.771 4.24866L174.953 4.25393L174.958 -3.92779L191.322 -3.91725L191.33 -16.1899Z" fill="white"/>
<rect x="170.83" y="53.3418" width="20.4545" height="20.4545" transform="rotate(0.0369024 170.83 53.3418)" fill="white"/>
<path fill-rule="evenodd" clip-rule="evenodd" d="M528.184 -15.9736L548.638 -15.9605L548.633 -7.77881L556.815 -7.77354L556.809 0.408515L564.992 0.413784L564.986 8.59539L573.168 8.60066L573.162 16.7825L581.345 16.7878L581.339 24.9698L589.521 24.9751L589.516 33.1567L597.697 33.162L597.692 41.3437L605.874 41.349L605.869 49.5307L614.05 49.5359L614.035 74.0813L605.853 74.0761L605.847 82.2578L597.666 82.2525L597.661 90.4347L589.479 90.4294L589.474 98.6111L581.292 98.6059L581.287 106.788L573.104 106.782L573.099 114.964L564.917 114.959L564.912 123.141L556.731 123.135L556.725 131.317L548.544 131.312L548.538 139.494L528.084 139.481L528.092 127.208L544.455 127.218L544.46 119.036L552.642 119.042L552.647 110.86L560.829 110.865L560.834 102.683L569.017 102.689L569.022 94.507L577.204 94.5123L577.209 86.3305L585.391 86.3358L585.396 78.1541L593.577 78.1594L593.582 69.9772L601.765 69.9825L601.775 53.6191L593.593 53.6138L593.598 45.432L585.417 45.4268L585.422 37.2451L577.241 37.2399L577.246 29.0578L569.064 29.0525L569.069 20.8707L560.887 20.8654L560.892 12.6838L552.711 12.6786L552.716 4.49651L544.534 4.49124L544.539 -3.69041L528.176 -3.70094L528.184 -15.9736Z" fill="white"/>
<path fill-rule="evenodd" clip-rule="evenodd" d="M548.641 -15.96L528.186 -15.9731L528.181 -7.79151L519.999 -7.79678L519.993 0.384961L511.812 0.379691L511.806 8.56143L503.625 8.55616L503.619 16.7383L495.437 16.733L495.432 24.9147L487.251 24.9095L487.245 33.0912L479.064 33.0859L479.058 41.2677L470.877 41.2624L470.871 49.4441L462.689 49.4388L462.673 73.9842L470.856 73.9895L470.85 82.1714L479.032 82.1766L479.027 90.3586L487.208 90.3638L487.203 98.5456L495.385 98.5509L495.379 106.732L503.562 106.738L503.556 114.92L511.738 114.925L511.733 123.107L519.914 123.112L519.909 131.294L528.091 131.299L528.086 139.481L548.54 139.494L548.548 127.221L532.184 127.211L532.19 119.029L524.008 119.024L524.013 110.842L515.832 110.837L515.837 102.655L507.655 102.649L507.66 94.4677L499.479 94.4624L499.484 86.2808L491.302 86.2755L491.307 78.0938L483.126 78.0885L483.131 69.9066L474.949 69.9013L474.959 53.5377L483.141 53.543L483.147 45.3613L491.328 45.3665L491.334 37.1848L499.515 37.1901L499.521 29.0083L507.702 29.0136L507.708 20.8315L515.889 20.8368L515.895 12.655L524.076 12.6603L524.082 4.47854L532.263 4.48381L532.269 -3.69781L548.633 -3.68727L548.641 -15.96Z" fill="white"/>
<rect x="528.141" y="53.5718" width="20.4545" height="20.4545" transform="rotate(0.0369024 528.141 53.5718)" fill="white"/>
<path fill-rule="evenodd" clip-rule="evenodd" d="M170.609 341.16L191.064 341.173L191.059 349.355L199.241 349.36L199.235 357.542L207.417 357.547L207.412 365.729L215.593 365.735L215.588 373.916L223.77 373.921L223.765 382.104L231.947 382.109L231.942 390.29L240.123 390.296L240.118 398.477L248.299 398.483L248.294 406.664L256.476 406.67L256.461 431.215L248.278 431.21L248.273 439.392L240.092 439.386L240.086 447.568L231.905 447.563L231.899 455.745L223.718 455.74L223.712 463.921L215.53 463.916L215.525 472.098L207.343 472.092L207.338 480.274L199.156 480.269L199.151 488.451L190.969 488.445L190.964 496.628L170.51 496.614L170.518 484.342L186.881 484.352L186.886 476.17L195.068 476.175L195.073 467.994L203.255 467.999L203.26 459.817L211.442 459.822L211.448 451.641L219.629 451.646L219.635 443.464L227.816 443.469L227.822 435.288L236.003 435.293L236.008 427.111L244.191 427.116L244.201 410.753L236.019 410.747L236.024 402.566L227.843 402.56L227.848 394.379L219.666 394.374L219.672 386.191L211.49 386.186L211.495 378.005L203.313 377.999L203.318 369.818L195.137 369.812L195.142 361.63L186.96 361.625L186.965 353.443L170.601 353.433L170.609 341.16Z" fill="white"/>
<path fill-rule="evenodd" clip-rule="evenodd" d="M191.064 341.173L170.61 341.16L170.605 349.342L162.422 349.337L162.417 357.519L154.236 357.513L154.23 365.695L146.049 365.69L146.043 373.872L137.862 373.866L137.856 382.048L129.675 382.043L129.669 390.225L121.488 390.219L121.482 398.401L113.301 398.396L113.295 406.578L105.113 406.572L105.097 431.118L113.279 431.123L113.274 439.305L121.456 439.31L121.451 447.492L129.632 447.497L129.627 455.679L137.809 455.684L137.803 463.866L145.985 463.871L145.98 472.053L154.162 472.058L154.157 480.24L162.338 480.245L162.333 488.427L170.515 488.432L170.51 496.614L190.964 496.627L190.972 484.355L174.608 484.344L174.614 476.162L166.432 476.157L166.437 467.975L158.255 467.97L158.261 459.788L150.079 459.783L150.084 451.601L141.902 451.596L141.908 443.414L133.726 443.409L133.731 435.227L125.549 435.222L125.555 427.04L117.373 427.035L117.383 410.671L125.565 410.676L125.571 402.495L133.752 402.5L133.758 394.318L141.939 394.324L141.945 386.142L150.126 386.147L150.132 377.965L158.314 377.97L158.319 369.789L166.5 369.794L166.506 361.612L174.687 361.617L174.692 353.435L191.057 353.446L191.064 341.173Z" fill="white"/>
<rect x="170.564" y="410.705" width="20.4545" height="20.4545" transform="rotate(0.0369024 170.564 410.705)" fill="white"/>
<path fill-rule="evenodd" clip-rule="evenodd" d="M527.957 341.355L548.412 341.368L548.406 349.55L556.588 349.555L556.583 357.737L564.765 357.742L564.76 365.924L572.941 365.929L572.936 374.111L581.118 374.116L581.113 382.298L589.295 382.304L589.289 390.485L597.471 390.49L597.465 398.672L605.647 398.677L605.642 406.859L613.824 406.865L613.808 431.41L605.626 431.405L605.621 439.586L597.439 439.581L597.434 447.763L589.252 447.758L589.247 455.94L581.065 455.934L581.06 464.116L572.878 464.111L572.872 472.293L564.691 472.287L564.685 480.469L556.504 480.464L556.499 488.645L548.317 488.64L548.312 496.822L527.857 496.809L527.865 484.537L544.229 484.547L544.234 476.365L552.415 476.37L552.421 468.188L560.602 468.194L560.608 460.012L568.79 460.017L568.795 451.835L576.977 451.841L576.982 443.659L585.164 443.664L585.169 435.483L593.35 435.488L593.356 427.306L601.538 427.311L601.549 410.948L593.366 410.942L593.372 402.761L585.19 402.755L585.195 394.574L577.014 394.568L577.019 386.386L568.837 386.381L568.843 378.199L560.66 378.194L560.666 370.012L552.484 370.007L552.489 361.825L544.307 361.82L544.313 353.638L527.949 353.628L527.957 341.355Z" fill="white"/>
<path fill-rule="evenodd" clip-rule="evenodd" d="M548.412 341.369L527.958 341.355L527.952 349.537L519.77 349.532L519.765 357.714L511.583 357.708L511.578 365.89L503.396 365.885L503.391 374.067L495.209 374.062L495.204 382.243L487.022 382.238L487.017 390.42L478.835 390.415L478.83 398.596L470.648 398.591L470.643 406.773L462.461 406.767L462.445 431.313L470.627 431.318L470.622 439.5L478.804 439.505L478.798 447.687L486.98 447.693L486.975 455.874L495.156 455.88L495.151 464.061L503.333 464.066L503.328 472.248L511.51 472.253L511.504 480.435L519.686 480.441L519.681 488.622L527.863 488.628L527.857 496.809L548.312 496.823L548.32 484.55L531.956 484.539L531.961 476.358L523.78 476.352L523.785 468.171L515.603 468.165L515.608 459.983L507.426 459.978L507.432 451.796L499.25 451.791L499.255 443.61L491.074 443.604L491.079 435.422L482.897 435.417L482.902 427.235L474.72 427.23L474.731 410.866L482.913 410.872L482.918 402.69L491.1 402.695L491.105 394.513L499.287 394.519L499.292 386.337L507.474 386.342L507.479 378.16L515.661 378.165L515.666 369.984L523.848 369.989L523.853 361.807L532.035 361.812L532.04 353.631L548.404 353.641L548.412 341.369Z" fill="white"/>
<rect x="527.912" y="410.9" width="20.4545" height="20.4545" transform="rotate(0.0369024 527.912 410.9)" fill="white"/>
</g>
<g opacity="0.02">
<path d="M864.738 729.896L855.221 729.89L855.198 764.787L864.716 764.794L864.712 771.139L874.229 771.145L874.223 780.662L883.741 780.669L883.735 790.186L890.08 790.19L890.102 755.292L880.585 755.286L880.589 748.941L874.244 748.937L874.25 739.42L864.732 739.413L864.738 729.896Z" fill="white"/>
<path d="M925.016 729.935L934.533 729.941L934.511 764.839L924.993 764.833L924.989 771.178L915.471 771.172L915.465 780.689L905.948 780.683L905.942 790.201L899.597 790.197L899.619 755.299L909.137 755.305L909.141 748.96L915.486 748.964L915.492 739.446L925.009 739.452L925.016 729.935Z" fill="white"/>
<path d="M912.285 793.377L912.279 802.895L947.177 802.917L947.183 793.4L953.528 793.404L953.534 783.886L963.052 783.893L963.058 774.375L972.576 774.381L972.58 768.036L937.682 768.014L937.676 777.531L931.331 777.527L931.327 783.872L921.809 783.866L921.803 793.384L912.285 793.377Z" fill="white"/>
<path d="M972.535 837.832L972.529 847.349L937.631 847.327L937.638 837.809L931.293 837.805L931.299 828.287L921.781 828.281L921.787 818.764L912.27 818.758L912.274 812.412L947.172 812.435L947.165 821.953L953.51 821.957L953.506 828.302L963.024 828.308L963.018 837.825L972.535 837.832Z" fill="white"/>
<path d="M924.916 885.389L934.434 885.395L934.456 850.497L924.938 850.491L924.943 844.146L915.425 844.14L915.431 834.622L905.914 834.616L905.92 825.099L899.575 825.094L899.552 859.992L909.07 859.998L909.066 866.343L915.411 866.348L915.405 875.865L924.922 875.871L924.916 885.389Z" fill="white"/>
<path d="M864.639 885.35L855.121 885.344L855.144 850.446L864.661 850.452L864.665 844.107L874.183 844.113L874.189 834.596L883.707 834.602L883.713 825.084L890.058 825.088L890.035 859.986L880.518 859.98L880.514 866.325L874.169 866.321L874.162 875.838L864.645 875.832L864.639 885.35Z" fill="white"/>
<path d="M817.119 777.453L817.125 767.936L852.023 767.958L852.017 777.476L858.362 777.48L858.356 786.997L867.873 787.003L867.867 796.521L877.385 796.527L877.381 802.872L842.483 802.85L842.489 793.332L836.144 793.328L836.148 786.983L826.63 786.977L826.636 777.459L817.119 777.453Z" fill="white"/>
<path d="M877.369 821.908L877.375 812.39L842.477 812.368L842.471 821.885L836.126 821.881L836.12 831.399L826.602 831.393L826.596 840.91L817.079 840.904L817.074 847.249L851.972 847.272L851.978 837.754L858.323 837.758L858.328 831.413L867.845 831.419L867.851 821.902L877.369 821.908Z" fill="white"/>
<rect x="890.072" y="802.881" width="9.5176" height="9.5176" transform="rotate(0.0369024 890.072 802.881)" fill="white"/>
<path d="M1222.05 730.126L1212.53 730.12L1212.51 765.017L1222.03 765.024L1222.02 771.369L1231.54 771.375L1231.54 780.892L1241.05 780.899L1241.05 790.416L1247.39 790.42L1247.41 755.522L1237.9 755.516L1237.9 749.171L1231.56 749.167L1231.56 739.649L1222.04 739.643L1222.05 730.126Z" fill="white"/>
<path d="M1282.33 730.165L1291.85 730.171L1291.82 765.069L1282.31 765.063L1282.3 771.408L1272.78 771.402L1272.78 780.919L1263.26 780.913L1263.25 790.431L1256.91 790.427L1256.93 755.529L1266.45 755.535L1266.45 749.19L1272.8 749.194L1272.8 739.676L1282.32 739.682L1282.33 730.165Z" fill="white"/>
<path d="M1269.6 793.607L1269.59 803.125L1304.49 803.147L1304.5 793.63L1310.84 793.634L1310.85 784.116L1320.36 784.123L1320.37 774.605L1329.89 774.611L1329.89 768.266L1294.99 768.243L1294.99 777.761L1288.64 777.757L1288.64 784.102L1279.12 784.096L1279.12 793.614L1269.6 793.607Z" fill="white"/>
<path d="M1329.85 838.062L1329.84 847.579L1294.94 847.557L1294.95 838.039L1288.61 838.035L1288.61 828.517L1279.09 828.511L1279.1 818.994L1269.58 818.987L1269.59 812.642L1304.48 812.665L1304.48 822.183L1310.82 822.187L1310.82 828.532L1320.34 828.538L1320.33 838.055L1329.85 838.062Z" fill="white"/>
<path d="M1282.23 885.619L1291.75 885.625L1291.77 850.727L1282.25 850.721L1282.26 844.376L1272.74 844.37L1272.74 834.852L1263.23 834.846L1263.23 825.329L1256.89 825.324L1256.86 860.222L1266.38 860.228L1266.38 866.573L1272.72 866.578L1272.72 876.095L1282.23 876.101L1282.23 885.619Z" fill="white"/>
<path d="M1221.95 885.58L1212.43 885.574L1212.46 850.676L1221.97 850.682L1221.98 844.337L1231.5 844.343L1231.5 834.825L1241.02 834.832L1241.03 825.314L1247.37 825.318L1247.35 860.216L1237.83 860.21L1237.83 866.555L1231.48 866.551L1231.47 876.068L1221.96 876.062L1221.95 885.58Z" fill="white"/>
<path d="M1174.43 777.683L1174.44 768.166L1209.34 768.188L1209.33 777.706L1215.67 777.71L1215.67 787.227L1225.19 787.233L1225.18 796.751L1234.7 796.757L1234.69 803.102L1199.8 803.08L1199.8 793.562L1193.46 793.558L1193.46 787.213L1183.94 787.207L1183.95 777.689L1174.43 777.683Z" fill="white"/>
<path d="M1234.68 822.138L1234.69 812.62L1199.79 812.598L1199.78 822.115L1193.44 822.111L1193.43 831.629L1183.91 831.623L1183.91 841.14L1174.39 841.134L1174.39 847.479L1209.28 847.502L1209.29 837.984L1215.64 837.988L1215.64 831.643L1225.16 831.649L1225.16 822.132L1234.68 822.138Z" fill="white"/>
<rect x="1247.38" y="803.111" width="9.5176" height="9.5176" transform="rotate(0.0369024 1247.38 803.111)" fill="white"/>
<path d="M1043.51 551.338L1033.99 551.332L1033.97 586.23L1043.49 586.236L1043.48 592.581L1053 592.587L1052.99 602.105L1062.51 602.111L1062.51 611.629L1068.85 611.633L1068.87 576.735L1059.36 576.729L1059.36 570.384L1053.02 570.379L1053.02 560.862L1043.5 560.856L1043.51 551.338Z" fill="white"/>
<path d="M1103.79 551.377L1113.3 551.383L1113.28 586.281L1103.76 586.275L1103.76 592.62L1094.24 592.614L1094.24 602.132L1084.72 602.125L1084.71 611.643L1078.37 611.639L1078.39 576.741L1087.91 576.747L1087.91 570.402L1094.26 570.406L1094.26 560.889L1103.78 560.895L1103.79 551.377Z" fill="white"/>
<path d="M1091.06 614.819L1091.05 624.337L1125.95 624.359L1125.95 614.842L1132.3 614.846L1132.31 605.328L1141.82 605.334L1141.83 595.817L1151.35 595.823L1151.35 589.478L1116.45 589.455L1116.45 598.973L1110.1 598.969L1110.1 605.314L1100.58 605.308L1100.57 614.825L1091.06 614.819Z" fill="white"/>
<path d="M1151.31 659.273L1151.3 668.791L1116.4 668.769L1116.41 659.251L1110.06 659.247L1110.07 649.729L1100.55 649.723L1100.56 640.206L1091.04 640.199L1091.05 633.854L1125.94 633.877L1125.94 643.394L1132.28 643.399L1132.28 649.744L1141.8 649.75L1141.79 659.267L1151.31 659.273Z" fill="white"/>
<path d="M1103.69 706.831L1113.21 706.837L1113.23 671.94L1103.71 671.933L1103.71 665.588L1094.2 665.582L1094.2 656.065L1084.68 656.059L1084.69 646.541L1078.35 646.537L1078.32 681.435L1087.84 681.441L1087.84 687.786L1094.18 687.79L1094.18 697.308L1103.69 697.314L1103.69 706.831Z" fill="white"/>
<path d="M1043.41 706.792L1033.89 706.786L1033.92 671.888L1043.43 671.894L1043.44 665.549L1052.95 665.555L1052.96 656.038L1062.48 656.044L1062.48 646.526L1068.83 646.531L1068.81 681.428L1059.29 681.422L1059.29 687.767L1052.94 687.763L1052.93 697.281L1043.42 697.275L1043.41 706.792Z" fill="white"/>
<path d="M995.89 598.896L995.896 589.378L1030.79 589.4L1030.79 598.918L1037.13 598.922L1037.13 608.44L1046.64 608.446L1046.64 617.963L1056.16 617.97L1056.15 624.315L1021.25 624.292L1021.26 614.775L1014.92 614.77L1014.92 608.425L1005.4 608.419L1005.41 598.902L995.89 598.896Z" fill="white"/>
<path d="M1056.14 643.35L1056.15 633.833L1021.25 633.81L1021.24 643.328L1014.9 643.324L1014.89 652.841L1005.37 652.835L1005.37 662.353L995.85 662.346L995.846 668.692L1030.74 668.714L1030.75 659.196L1037.09 659.201L1037.1 652.855L1046.62 652.862L1046.62 643.344L1056.14 643.35Z" fill="white"/>
<rect x="1068.84" y="624.323" width="9.5176" height="9.5176" transform="rotate(0.0369024 1068.84 624.323)" fill="white"/>
<path fill-rule="evenodd" clip-rule="evenodd" d="M1063.58 730.024L1084.04 730.037L1084.03 738.219L1092.21 738.224L1092.21 746.406L1100.39 746.411L1100.38 754.593L1108.57 754.598L1108.56 762.78L1116.74 762.785L1116.74 770.967L1124.92 770.973L1124.91 779.154L1133.1 779.16L1133.09 787.341L1141.27 787.347L1141.27 795.528L1149.45 795.534L1149.43 820.079L1141.25 820.074L1141.25 828.255L1133.06 828.25L1133.06 836.432L1124.88 836.427L1124.87 844.609L1116.69 844.603L1116.69 852.785L1108.5 852.78L1108.5 860.962L1100.32 860.956L1100.31 869.138L1092.13 869.133L1092.12 877.315L1083.94 877.309L1083.94 885.491L1063.48 885.478L1063.49 873.206L1079.85 873.216L1079.86 865.034L1088.04 865.039L1088.05 856.858L1096.23 856.863L1096.23 848.681L1104.42 848.686L1104.42 840.505L1112.6 840.51L1112.61 832.328L1120.79 832.333L1120.79 824.152L1128.98 824.157L1128.98 815.975L1137.16 815.98L1137.17 799.617L1128.99 799.611L1129 791.43L1120.82 791.424L1120.82 783.243L1112.64 783.237L1112.64 775.055L1104.46 775.05L1104.47 766.868L1096.29 766.863L1096.29 758.681L1088.11 758.676L1088.11 750.494L1079.93 750.489L1079.94 742.307L1063.57 742.297L1063.58 730.024Z" fill="white"/>
<path fill-rule="evenodd" clip-rule="evenodd" d="M1084.04 730.038L1063.58 730.024L1063.58 738.206L1055.4 738.201L1055.39 746.383L1047.21 746.377L1047.2 754.559L1039.02 754.554L1039.02 762.736L1030.83 762.731L1030.83 770.912L1022.65 770.907L1022.64 779.089L1014.46 779.083L1014.45 787.265L1006.27 787.26L1006.27 795.442L998.086 795.436L998.07 819.982L1006.25 819.987L1006.25 828.169L1014.43 828.174L1014.42 836.356L1022.6 836.362L1022.6 844.543L1030.78 844.548L1030.78 852.73L1038.96 852.735L1038.95 860.917L1047.13 860.922L1047.13 869.104L1055.31 869.11L1055.31 877.291L1063.49 877.297L1063.48 885.478L1083.94 885.491L1083.94 873.219L1067.58 873.208L1067.59 865.026L1059.4 865.021L1059.41 856.84L1051.23 856.834L1051.23 848.652L1043.05 848.647L1043.06 840.465L1034.87 840.46L1034.88 832.278L1026.7 832.273L1026.7 824.091L1018.52 824.086L1018.53 815.904L1010.35 815.899L1010.36 799.535L1018.54 799.541L1018.54 791.359L1026.72 791.364L1026.73 783.182L1034.91 783.188L1034.92 775.006L1043.1 775.011L1043.1 766.829L1051.29 766.834L1051.29 758.653L1059.47 758.658L1059.48 750.476L1067.66 750.481L1067.67 742.3L1084.03 742.31L1084.04 730.038Z" fill="white"/>
<rect x="1063.54" y="799.569" width="20.4545" height="20.4545" transform="rotate(0.0369024 1063.54 799.569)" fill="white"/>
<path d="M145.568 736.458L136.051 736.452L136.028 771.35L145.546 771.356L145.542 777.701L155.059 777.707L155.053 787.224L164.571 787.231L164.565 796.748L170.91 796.752L170.932 761.854L161.415 761.848L161.419 755.503L155.074 755.499L155.08 745.982L145.562 745.975L145.568 736.458Z" fill="white"/>
<path d="M205.846 736.497L215.363 736.503L215.341 771.401L205.823 771.395L205.819 777.74L196.302 777.734L196.295 787.251L186.778 787.245L186.772 796.763L180.427 796.759L180.449 761.861L189.967 761.867L189.971 755.522L196.316 755.526L196.322 746.008L205.84 746.014L205.846 736.497Z" fill="white"/>
<path d="M193.116 799.939L193.109 809.457L228.007 809.48L228.013 799.962L234.358 799.966L234.365 790.448L243.882 790.455L243.888 780.937L253.406 780.943L253.41 774.598L218.512 774.576L218.506 784.093L212.161 784.089L212.157 790.434L202.639 790.428L202.633 799.946L193.116 799.939Z" fill="white"/>
<path d="M253.366 844.394L253.359 853.911L218.462 853.889L218.468 844.371L212.123 844.367L212.129 834.849L202.611 834.843L202.617 825.326L193.1 825.32L193.104 818.974L228.002 818.997L227.995 828.515L234.341 828.519L234.336 834.864L243.854 834.87L243.848 844.387L253.366 844.394Z" fill="white"/>
<path d="M205.746 891.95L215.264 891.957L215.286 857.059L205.769 857.053L205.773 850.708L196.255 850.701L196.261 841.184L186.744 841.178L186.75 831.66L180.405 831.656L180.382 866.554L189.9 866.56L189.896 872.905L196.241 872.909L196.235 882.427L205.752 882.433L205.746 891.95Z" fill="white"/>
<path d="M145.469 891.912L135.951 891.906L135.974 857.008L145.491 857.014L145.495 850.669L155.013 850.675L155.019 841.158L164.537 841.164L164.543 831.646L170.888 831.65L170.865 866.548L161.348 866.542L161.344 872.887L154.999 872.883L154.992 882.4L145.475 882.394L145.469 891.912Z" fill="white"/>
<path d="M97.9489 784.015L97.9551 774.498L132.853 774.52L132.847 784.038L139.192 784.042L139.186 793.559L148.703 793.565L148.697 803.083L158.215 803.089L158.211 809.434L123.313 809.412L123.319 799.894L116.974 799.89L116.978 793.545L107.46 793.539L107.467 784.021L97.9489 784.015Z" fill="white"/>
<path d="M158.199 828.47L158.205 818.952L123.307 818.93L123.301 828.447L116.956 828.443L116.95 837.961L107.432 837.955L107.426 847.472L97.9086 847.466L97.9045 853.811L132.802 853.834L132.808 844.316L139.154 844.32L139.158 837.975L148.675 837.981L148.681 828.464L158.199 828.47Z" fill="white"/>
<rect x="170.902" y="809.443" width="9.5176" height="9.5176" transform="rotate(0.0369024 170.902 809.443)" fill="white"/>
<path d="M502.881 736.689L493.363 736.683L493.341 771.58L502.858 771.587L502.854 777.932L512.372 777.938L512.366 787.455L521.883 787.462L521.877 796.979L528.222 796.983L528.245 762.085L518.727 762.079L518.731 755.734L512.386 755.73L512.392 746.212L502.875 746.206L502.881 736.689Z" fill="white"/>
<path d="M563.158 736.728L572.676 736.734L572.653 771.632L563.136 771.626L563.132 777.971L553.614 777.965L553.608 787.482L544.09 787.476L544.084 796.994L537.739 796.99L537.762 762.092L547.279 762.098L547.283 755.753L553.628 755.757L553.634 746.239L563.152 746.245L563.158 736.728Z" fill="white"/>
<path d="M550.428 800.17L550.422 809.688L585.32 809.71L585.326 800.193L591.671 800.197L591.677 790.679L601.195 790.685L601.201 781.168L610.718 781.174L610.722 774.829L575.825 774.806L575.818 784.324L569.473 784.32L569.469 790.665L559.952 790.659L559.946 800.177L550.428 800.17Z" fill="white"/>
<path d="M610.678 844.624L610.672 854.142L575.774 854.12L575.78 844.602L569.435 844.598L569.441 835.08L559.924 835.074L559.93 825.557L550.412 825.55L550.416 819.205L585.314 819.228L585.308 828.745L591.653 828.75L591.649 835.095L601.167 835.101L601.16 844.618L610.678 844.624Z" fill="white"/>
<path d="M563.059 892.181L572.576 892.188L572.599 857.29L563.081 857.284L563.085 850.938L553.568 850.932L553.574 841.415L544.056 841.409L544.062 831.891L537.717 831.887L537.695 866.785L547.212 866.791L547.208 873.136L553.553 873.14L553.547 882.658L563.065 882.664L563.059 892.181Z" fill="white"/>
<path d="M502.781 892.143L493.264 892.137L493.286 857.239L502.804 857.245L502.808 850.9L512.325 850.906L512.332 841.388L521.849 841.395L521.855 831.877L528.2 831.881L528.178 866.779L518.66 866.773L518.656 873.118L512.311 873.114L512.305 882.631L502.787 882.625L502.781 892.143Z" fill="white"/>
<path d="M455.261 784.246L455.268 774.729L490.165 774.751L490.159 784.269L496.504 784.273L496.498 793.79L506.016 793.796L506.01 803.314L515.527 803.32L515.523 809.665L480.625 809.643L480.631 800.125L474.286 800.121L474.291 793.776L464.773 793.77L464.779 784.252L455.261 784.246Z" fill="white"/>
<path d="M515.511 828.701L515.518 819.183L480.62 819.161L480.614 828.678L474.269 828.674L474.262 838.192L464.745 838.186L464.739 847.703L455.221 847.697L455.217 854.042L490.115 854.065L490.121 844.547L496.466 844.551L496.47 838.206L505.988 838.212L505.994 828.695L515.511 828.701Z" fill="white"/>
<rect x="528.215" y="809.674" width="9.5176" height="9.5176" transform="rotate(0.0369024 528.215 809.674)" fill="white"/>
<path d="M324.34 557.901L314.822 557.895L314.8 592.793L324.317 592.799L324.313 599.144L333.831 599.15L333.825 608.668L343.342 608.674L343.336 618.192L349.681 618.196L349.704 583.298L340.186 583.292L340.19 576.947L333.845 576.942L333.851 567.425L324.334 567.419L324.34 557.901Z" fill="white"/>
<path d="M384.617 557.94L394.135 557.946L394.112 592.844L384.595 592.838L384.591 599.183L375.073 599.177L375.067 608.695L365.549 608.688L365.543 618.206L359.198 618.202L359.221 583.304L368.738 583.31L368.742 576.965L375.087 576.969L375.093 567.452L384.611 567.458L384.617 557.94Z" fill="white"/>
<path d="M371.887 621.382L371.881 630.9L406.779 630.922L406.785 621.405L413.13 621.409L413.136 611.891L422.654 611.897L422.66 602.38L432.177 602.386L432.181 596.041L397.284 596.018L397.277 605.536L390.932 605.532L390.928 611.877L381.411 611.871L381.405 621.388L371.887 621.382Z" fill="white"/>
<path d="M432.137 665.836L432.131 675.354L397.233 675.332L397.239 665.814L390.894 665.81L390.9 656.292L381.383 656.286L381.389 646.769L371.871 646.762L371.875 640.417L406.773 640.44L406.767 649.957L413.112 649.961L413.108 656.307L422.626 656.313L422.619 665.83L432.137 665.836Z" fill="white"/>
<path d="M384.518 713.394L394.035 713.4L394.058 678.502L384.54 678.496L384.544 672.151L375.027 672.145L375.033 662.627L365.515 662.621L365.521 653.103L359.176 653.099L359.154 687.997L368.671 688.003L368.667 694.348L375.012 694.352L375.006 703.87L384.524 703.876L384.518 713.394Z" fill="white"/>
<path d="M324.24 713.355L314.723 713.349L314.745 678.451L324.263 678.457L324.267 672.112L333.784 672.118L333.791 662.601L343.308 662.607L343.314 653.089L349.659 653.094L349.637 687.991L340.119 687.985L340.115 694.33L333.77 694.326L333.764 703.844L324.246 703.838L324.24 713.355Z" fill="white"/>
<path d="M276.72 605.459L276.727 595.941L311.624 595.963L311.618 605.481L317.963 605.485L317.957 615.003L327.475 615.009L327.469 624.526L336.986 624.533L336.982 630.878L302.084 630.855L302.09 621.338L295.745 621.333L295.749 614.988L286.232 614.982L286.238 605.465L276.72 605.459Z" fill="white"/>
<path d="M336.97 649.913L336.977 640.396L302.079 640.373L302.073 649.891L295.728 649.887L295.721 659.404L286.204 659.398L286.198 668.916L276.68 668.909L276.676 675.255L311.574 675.277L311.58 665.759L317.925 665.764L317.929 659.418L327.447 659.425L327.453 649.907L336.97 649.913Z" fill="white"/>
<rect x="349.674" y="630.886" width="9.5176" height="9.5176" transform="rotate(0.0369024 349.674 630.886)" fill="white"/>
<path fill-rule="evenodd" clip-rule="evenodd" d="M885.035 551.234L905.49 551.248L905.484 559.429L913.666 559.435L913.661 567.616L921.843 567.622L921.838 575.803L930.019 575.809L930.014 583.99L938.196 583.996L938.191 592.178L946.373 592.183L946.367 600.365L954.549 600.37L954.544 608.552L962.725 608.557L962.72 616.739L970.902 616.744L970.886 641.289L962.704 641.284L962.699 649.466L954.518 649.461L954.512 657.643L946.331 657.637L946.325 665.819L938.144 665.814L938.138 673.996L929.956 673.99L929.951 682.172L921.769 682.167L921.764 690.348L913.582 690.343L913.577 698.525L905.395 698.52L905.39 706.702L884.935 706.689L884.943 694.416L901.307 694.426L901.312 686.244L909.494 686.25L909.499 678.068L917.681 678.073L917.686 669.891L925.868 669.897L925.874 661.715L934.055 661.72L934.061 653.538L942.242 653.544L942.247 645.362L950.429 645.367L950.434 637.185L958.616 637.19L958.627 620.827L950.445 620.822L950.45 612.64L942.268 612.635L942.274 604.453L934.092 604.448L934.097 596.266L925.916 596.261L925.921 588.079L917.739 588.074L917.744 579.892L909.562 579.887L909.568 571.705L901.386 571.699L901.391 563.518L885.027 563.507L885.035 551.234Z" fill="white"/>
<path fill-rule="evenodd" clip-rule="evenodd" d="M905.49 551.248L885.036 551.235L885.03 559.417L876.848 559.411L876.843 567.593L868.661 567.588L868.656 575.77L860.474 575.764L860.469 583.946L852.287 583.941L852.282 592.123L844.1 592.118L844.095 600.299L835.913 600.294L835.908 608.476L827.726 608.47L827.721 616.652L819.539 616.647L819.523 641.192L827.705 641.198L827.7 649.379L835.882 649.385L835.877 657.567L844.058 657.572L844.053 665.754L852.234 665.759L852.229 673.941L860.411 673.946L860.406 682.128L868.588 682.133L868.583 690.315L876.764 690.32L876.759 698.502L884.941 698.507L884.935 706.689L905.39 706.702L905.398 694.429L889.034 694.419L889.039 686.237L880.858 686.232L880.863 678.05L872.681 678.045L872.686 669.863L864.504 669.858L864.51 661.676L856.328 661.671L856.333 653.489L848.152 653.484L848.157 645.302L839.975 645.297L839.98 637.115L831.798 637.109L831.809 620.746L839.991 620.751L839.996 612.569L848.178 612.575L848.183 604.393L856.365 604.398L856.37 596.216L864.552 596.222L864.557 588.04L872.739 588.045L872.744 579.863L880.926 579.868L880.931 571.687L889.113 571.692L889.118 563.51L905.482 563.521L905.49 551.248Z" fill="white"/>
<rect x="884.992" y="620.78" width="20.4545" height="20.4545" transform="rotate(0.0369024 884.992 620.78)" fill="white"/>
<path fill-rule="evenodd" clip-rule="evenodd" d="M1242.35 551.464L1262.8 551.477L1262.8 559.659L1270.98 559.664L1270.97 567.846L1279.16 567.851L1279.15 576.033L1287.33 576.038L1287.33 584.22L1295.51 584.225L1295.5 592.407L1303.69 592.413L1303.68 600.594L1311.86 600.599L1311.86 608.781L1320.04 608.786L1320.03 616.968L1328.21 616.973L1328.2 641.519L1320.02 641.514L1320.01 649.695L1311.83 649.69L1311.82 657.872L1303.64 657.867L1303.64 666.049L1295.46 666.043L1295.45 674.225L1287.27 674.22L1287.26 682.402L1279.08 682.396L1279.08 690.578L1270.89 690.573L1270.89 698.754L1262.71 698.749L1262.7 706.931L1242.25 706.918L1242.26 694.645L1258.62 694.656L1258.62 686.474L1266.81 686.479L1266.81 678.297L1274.99 678.303L1275 670.121L1283.18 670.126L1283.19 661.945L1291.37 661.95L1291.37 653.768L1299.55 653.773L1299.56 645.592L1307.74 645.597L1307.75 637.415L1315.93 637.42L1315.94 621.056L1307.76 621.051L1307.76 612.87L1299.58 612.864L1299.59 604.683L1291.4 604.677L1291.41 596.495L1283.23 596.49L1283.23 588.308L1275.05 588.303L1275.06 580.121L1266.88 580.116L1266.88 571.934L1258.7 571.929L1258.7 563.747L1242.34 563.737L1242.35 551.464Z" fill="white"/>
<path fill-rule="evenodd" clip-rule="evenodd" d="M1262.8 551.478L1242.35 551.464L1242.34 559.646L1234.16 559.641L1234.16 567.823L1225.97 567.817L1225.97 575.999L1217.79 575.994L1217.78 584.176L1209.6 584.171L1209.59 592.352L1201.41 592.347L1201.41 600.529L1193.23 600.524L1193.22 608.705L1185.04 608.7L1185.03 616.882L1176.85 616.876L1176.84 641.422L1185.02 641.427L1185.01 649.609L1193.19 649.614L1193.19 657.796L1201.37 657.801L1201.37 665.983L1209.55 665.988L1209.54 674.17L1217.72 674.175L1217.72 682.357L1225.9 682.362L1225.9 690.544L1234.08 690.55L1234.07 698.731L1242.25 698.737L1242.25 706.918L1262.7 706.932L1262.71 694.659L1246.35 694.648L1246.35 686.467L1238.17 686.461L1238.18 678.28L1229.99 678.274L1230 670.092L1221.82 670.087L1221.82 661.905L1213.64 661.9L1213.65 653.718L1205.46 653.713L1205.47 645.531L1197.29 645.526L1197.29 637.344L1189.11 637.339L1189.12 620.975L1197.3 620.981L1197.31 612.799L1205.49 612.804L1205.5 604.622L1213.68 604.628L1213.68 596.446L1221.86 596.451L1221.87 588.269L1230.05 588.274L1230.06 580.093L1238.24 580.098L1238.24 571.916L1246.43 571.921L1246.43 563.74L1262.79 563.75L1262.8 551.478Z" fill="white"/>
<rect x="1242.3" y="621.009" width="20.4545" height="20.4545" transform="rotate(0.0369024 1242.3 621.009)" fill="white"/>
<path fill-rule="evenodd" clip-rule="evenodd" d="M344.412 736.586L364.867 736.6L364.861 744.781L373.043 744.787L373.038 752.969L381.22 752.974L381.215 761.156L389.396 761.161L389.391 769.343L397.573 769.348L397.568 777.53L405.75 777.535L405.745 785.717L413.926 785.722L413.921 793.904L422.102 793.909L422.097 802.091L430.279 802.096L430.263 826.642L422.081 826.636L422.076 834.818L413.895 834.813L413.889 842.995L405.708 842.989L405.702 851.171L397.521 851.166L397.516 859.348L389.333 859.342L389.328 867.524L381.146 867.519L381.141 875.701L372.959 875.695L372.954 883.877L364.772 883.872L364.767 892.054L344.312 892.041L344.32 879.768L360.684 879.779L360.689 871.596L368.871 871.602L368.876 863.42L377.058 863.425L377.063 855.244L385.245 855.249L385.251 847.067L393.432 847.072L393.438 838.891L401.619 838.896L401.625 830.714L409.806 830.719L409.811 822.537L417.993 822.543L418.004 806.179L409.822 806.174L409.827 797.992L401.646 797.987L401.651 789.805L393.469 789.8L393.475 781.618L385.293 781.613L385.298 773.431L377.116 773.426L377.121 765.244L368.939 765.239L368.945 757.057L360.763 757.051L360.768 748.87L344.404 748.859L344.412 736.586Z" fill="white"/>
<path fill-rule="evenodd" clip-rule="evenodd" d="M364.867 736.6L344.413 736.587L344.407 744.769L336.225 744.763L336.22 752.945L328.038 752.94L328.033 761.122L319.851 761.116L319.846 769.298L311.664 769.293L311.659 777.475L303.477 777.47L303.472 785.651L295.29 785.646L295.285 793.828L287.103 793.823L287.098 802.004L278.916 801.999L278.9 826.544L287.082 826.55L287.077 834.731L295.259 834.737L295.254 842.919L303.435 842.924L303.43 851.106L311.611 851.111L311.606 859.293L319.788 859.298L319.783 867.48L327.965 867.485L327.96 875.667L336.141 875.672L336.136 883.854L344.318 883.859L344.312 892.041L364.767 892.054L364.775 879.781L348.411 879.771L348.416 871.589L340.235 871.584L340.24 863.402L332.058 863.397L332.063 855.215L323.881 855.21L323.887 847.028L315.705 847.023L315.71 838.841L307.529 838.836L307.534 830.654L299.352 830.649L299.357 822.467L291.175 822.461L291.186 806.098L299.368 806.103L299.373 797.921L307.555 797.927L307.56 789.745L315.742 789.75L315.747 781.568L323.929 781.574L323.934 773.392L332.116 773.397L332.121 765.215L340.303 765.221L340.308 757.039L348.49 757.044L348.495 748.862L364.859 748.873L364.867 736.6Z" fill="white"/>
<rect x="344.367" y="806.132" width="20.4545" height="20.4545" transform="rotate(0.0369024 344.367 806.132)" fill="white"/>
<path d="M678.16 549.632L668.643 549.625L668.62 584.523L678.138 584.529L678.134 590.875L687.651 590.881L687.645 600.398L697.163 600.404L697.157 609.922L703.502 609.926L703.524 575.028L694.006 575.022L694.011 568.677L687.666 568.673L687.672 559.155L678.154 559.149L678.16 549.632Z" fill="white"/>
<path d="M738.437 549.671L747.955 549.677L747.933 584.575L738.415 584.568L738.411 590.914L728.893 590.907L728.887 600.425L719.37 600.419L719.363 609.936L713.018 609.932L713.041 575.035L722.558 575.041L722.563 568.696L728.908 568.7L728.914 559.182L738.431 559.188L738.437 549.671Z" fill="white"/>
<path d="M725.707 613.113L725.701 622.63L760.599 622.653L760.605 613.135L766.95 613.139L766.956 603.622L776.474 603.628L776.48 594.11L785.998 594.116L786.002 587.771L751.104 587.749L751.098 597.266L744.753 597.262L744.749 603.607L735.231 603.601L735.225 613.119L725.707 613.113Z" fill="white"/>
<path d="M785.957 657.567L785.951 667.084L751.053 667.062L751.059 657.544L744.714 657.54L744.721 648.023L735.203 648.017L735.209 638.499L725.691 638.493L725.696 632.148L760.593 632.17L760.587 641.688L766.932 641.692L766.928 648.037L776.446 648.043L776.44 657.561L785.957 657.567Z" fill="white"/>
<path d="M738.338 705.124L747.855 705.13L747.878 670.233L738.36 670.226L738.364 663.881L728.847 663.875L728.853 654.358L719.335 654.351L719.342 644.834L712.996 644.83L712.974 679.728L722.492 679.734L722.487 686.079L728.833 686.083L728.826 695.601L738.344 695.607L738.338 705.124Z" fill="white"/>
<path d="M678.061 705.086L668.543 705.08L668.565 670.182L678.083 670.188L678.087 663.843L687.605 663.849L687.611 654.331L697.128 654.337L697.135 644.82L703.48 644.824L703.457 679.722L693.94 679.716L693.935 686.061L687.59 686.057L687.584 695.574L678.067 695.568L678.061 705.086Z" fill="white"/>
<path d="M630.541 597.189L630.547 587.671L665.445 587.694L665.439 597.211L671.784 597.216L671.778 606.733L681.295 606.739L681.289 616.257L690.807 616.263L690.802 622.608L655.905 622.586L655.911 613.068L649.566 613.064L649.57 606.719L640.052 606.713L640.058 597.195L630.541 597.189Z" fill="white"/>
<path d="M690.791 641.644L690.797 632.126L655.899 632.104L655.893 641.621L649.548 641.617L649.542 651.135L640.024 651.128L640.018 660.646L630.5 660.64L630.496 666.985L665.394 667.007L665.4 657.49L671.745 657.494L671.749 651.149L681.267 651.155L681.273 641.637L690.791 641.644Z" fill="white"/>
<rect x="703.494" y="622.616" width="9.5176" height="9.5176" transform="rotate(0.0369024 703.494 622.616)" fill="white"/>
<path fill-rule="evenodd" clip-rule="evenodd" d="M698.264 728.285L718.718 728.298L718.713 736.48L726.895 736.485L726.89 744.667L735.072 744.672L735.066 752.854L743.248 752.859L743.243 761.041L751.425 761.046L751.419 769.228L759.601 769.233L759.596 777.415L767.778 777.42L767.772 785.602L775.954 785.607L775.948 793.789L784.131 793.794L784.115 818.34L775.933 818.334L775.927 826.516L767.746 826.511L767.741 834.693L759.559 834.688L759.554 842.869L751.372 842.864L751.367 851.046L743.185 851.041L743.179 859.222L734.998 859.217L734.992 867.399L726.811 867.394L726.805 875.575L718.624 875.57L718.618 883.752L698.164 883.739L698.172 871.466L714.535 871.477L714.541 863.295L722.722 863.3L722.728 855.118L730.909 855.124L730.915 846.942L739.097 846.947L739.102 838.765L747.284 838.771L747.289 830.589L755.471 830.594L755.476 822.412L763.657 822.418L763.663 814.236L771.845 814.241L771.855 797.877L763.673 797.872L763.678 789.69L755.497 789.685L755.502 781.503L747.321 781.498L747.326 773.316L739.144 773.311L739.149 765.129L730.967 765.124L730.973 756.942L722.791 756.937L722.796 748.755L714.614 748.75L714.62 740.568L698.256 740.557L698.264 728.285Z" fill="white"/>
<path fill-rule="evenodd" clip-rule="evenodd" d="M718.719 728.298L698.264 728.285L698.259 736.467L690.077 736.462L690.072 744.643L681.89 744.638L681.885 752.82L673.703 752.815L673.698 760.997L665.516 760.991L665.511 769.173L657.329 769.168L657.324 777.35L649.142 777.344L649.137 785.526L640.955 785.521L640.95 793.703L632.767 793.697L632.751 818.243L640.934 818.248L640.928 826.43L649.11 826.435L649.105 834.617L657.287 834.622L657.281 842.804L665.463 842.809L665.458 850.991L673.64 850.996L673.634 859.178L681.816 859.183L681.811 867.365L689.993 867.37L689.987 875.552L698.169 875.557L698.164 883.739L718.618 883.752L718.626 871.48L702.263 871.469L702.268 863.287L694.086 863.282L694.092 855.1L685.91 855.095L685.915 846.913L677.733 846.908L677.738 838.726L669.557 838.721L669.562 830.539L661.38 830.534L661.386 822.352L653.204 822.347L653.209 814.165L645.027 814.16L645.037 797.796L653.22 797.801L653.225 789.62L661.407 789.625L661.412 781.443L669.594 781.449L669.599 773.267L677.781 773.272L677.786 765.09L685.968 765.095L685.973 756.914L694.155 756.919L694.16 748.737L702.342 748.742L702.347 740.56L718.711 740.571L718.719 728.298Z" fill="white"/>
<rect x="698.219" y="797.83" width="20.4545" height="20.4545" transform="rotate(0.0369024 698.219 797.83)" fill="white"/>
<path fill-rule="evenodd" clip-rule="evenodd" d="M165.871 557.799L186.326 557.812L186.32 565.994L194.502 565.999L194.497 574.181L202.679 574.187L202.674 582.368L210.855 582.374L210.85 590.555L219.032 590.561L219.027 598.743L227.209 598.748L227.204 606.93L235.385 606.935L235.38 615.117L243.561 615.122L243.556 623.304L251.738 623.309L251.722 647.854L243.54 647.849L243.535 656.031L235.353 656.025L235.348 664.208L227.167 664.202L227.161 672.384L218.98 672.379L218.974 680.561L210.792 680.555L210.787 688.737L202.605 688.732L202.6 696.913L194.418 696.908L194.413 705.09L186.231 705.085L186.226 713.267L165.771 713.253L165.779 700.981L182.143 700.991L182.148 692.809L190.33 692.815L190.335 684.633L198.517 684.638L198.522 676.456L206.704 676.462L206.709 668.28L214.891 668.285L214.896 660.103L223.078 660.109L223.083 651.927L231.265 651.932L231.27 643.75L239.452 643.755L239.463 627.392L231.281 627.387L231.286 619.205L223.104 619.2L223.11 611.018L214.928 611.013L214.933 602.831L206.751 602.825L206.757 594.644L198.574 594.638L198.58 586.457L190.398 586.452L190.404 578.269L182.222 578.264L182.227 570.083L165.863 570.072L165.871 557.799Z" fill="white"/>
<path fill-rule="evenodd" clip-rule="evenodd" d="M186.326 557.813L165.872 557.8L165.866 565.982L157.684 565.976L157.679 574.158L149.497 574.153L149.492 582.335L141.31 582.329L141.305 590.511L133.123 590.506L133.118 598.688L124.936 598.682L124.931 606.864L116.749 606.859L116.744 615.041L108.562 615.035L108.557 623.217L100.375 623.212L100.359 647.757L108.541 647.763L108.536 655.944L116.718 655.95L116.713 664.132L124.894 664.137L124.889 672.319L133.07 672.324L133.065 680.505L141.247 680.511L141.242 688.693L149.424 688.698L149.419 696.88L157.6 696.885L157.595 705.067L165.777 705.072L165.771 713.254L186.226 713.267L186.234 700.994L169.87 700.984L169.875 692.802L161.694 692.797L161.699 684.615L153.517 684.61L153.523 676.428L145.34 676.423L145.346 668.241L137.164 668.235L137.169 660.054L128.988 660.049L128.993 651.867L120.811 651.862L120.817 643.68L112.634 643.674L112.645 627.311L120.827 627.316L120.832 619.134L129.014 619.14L129.019 610.958L137.201 610.963L137.206 602.781L145.388 602.787L145.393 594.605L153.575 594.61L153.58 586.428L161.762 586.433L161.767 578.252L169.949 578.257L169.954 570.075L186.318 570.086L186.326 557.813Z" fill="white"/>
<rect x="165.826" y="627.345" width="20.4545" height="20.4545" transform="rotate(0.0369024 165.826 627.345)" fill="white"/>
<path fill-rule="evenodd" clip-rule="evenodd" d="M523.182 558.029L543.636 558.042L543.631 566.224L551.813 566.229L551.808 574.411L559.99 574.416L559.984 582.598L568.166 582.603L568.16 590.785L576.343 590.79L576.337 598.972L584.519 598.978L584.514 607.159L592.696 607.164L592.69 615.346L600.872 615.351L600.867 623.533L609.049 623.538L609.033 648.084L600.851 648.078L600.845 656.26L592.664 656.255L592.659 664.437L584.477 664.432L584.472 672.614L576.29 672.608L576.285 680.79L568.103 680.785L568.097 688.966L559.916 688.961L559.91 697.143L551.729 697.138L551.723 705.319L543.542 705.314L543.536 713.496L523.082 713.483L523.09 701.21L539.453 701.221L539.459 693.039L547.64 693.044L547.645 684.862L555.827 684.868L555.832 676.686L564.015 676.691L564.02 668.509L572.202 668.515L572.207 660.333L580.389 660.338L580.394 652.157L588.575 652.162L588.581 643.98L596.763 643.985L596.773 627.621L588.591 627.616L588.597 619.434L580.415 619.429L580.42 611.248L572.239 611.242L572.244 603.06L564.062 603.055L564.067 594.873L555.885 594.868L555.89 586.686L547.709 586.681L547.714 578.499L539.532 578.494L539.537 570.312L523.174 570.301L523.182 558.029Z" fill="white"/>
<path fill-rule="evenodd" clip-rule="evenodd" d="M543.639 558.042L523.184 558.029L523.179 566.211L514.997 566.206L514.991 574.387L506.81 574.382L506.804 582.564L498.623 582.559L498.617 590.741L490.436 590.735L490.43 598.917L482.249 598.912L482.243 607.094L474.062 607.088L474.056 615.27L465.875 615.265L465.869 623.447L457.687 623.441L457.671 647.987L465.854 647.992L465.848 656.174L474.03 656.179L474.025 664.361L482.206 664.366L482.201 672.548L490.383 672.553L490.377 680.735L498.56 680.74L498.554 688.922L506.736 688.927L506.731 697.109L514.912 697.114L514.907 705.296L523.089 705.301L523.084 713.483L543.538 713.496L543.546 701.224L527.182 701.213L527.188 693.031L519.006 693.026L519.011 684.844L510.83 684.839L510.835 676.657L502.653 676.652L502.658 668.47L494.477 668.465L494.482 660.283L486.3 660.278L486.305 652.096L478.124 652.091L478.129 643.909L469.947 643.904L469.957 627.54L478.139 627.545L478.145 619.364L486.326 619.369L486.332 611.187L494.513 611.193L494.519 603.011L502.7 603.016L502.706 594.834L510.888 594.839L510.893 586.657L519.074 586.663L519.08 578.481L527.261 578.486L527.267 570.305L543.631 570.315L543.639 558.042Z" fill="white"/>
<rect x="523.139" y="627.574" width="20.4545" height="20.4545" transform="rotate(0.0369024 523.139 627.574)" fill="white"/>
</g>
</g>
<defs>
<clipPath id="clip0_1379_2">
<rect width="1440" height="892" fill="white"/>
</clipPath>
</defs>
</svg>
