<svg width="222" height="117" viewBox="0 0 222 117" fill="none" xmlns="http://www.w3.org/2000/svg">
<g clip-path="url(#clip0_1243_140)">
<rect width="73.7894" height="25.2458" transform="matrix(1 0 0 -1 114.404 86.4277)" fill="#E62C20"/>
<rect width="73.7894" height="25.2458" transform="matrix(1 0 0 -1 193.52 86.4277)" fill="#9C4A9A"/>
<rect width="73.7894" height="25.2458" transform="matrix(1 0 0 -1 195.096 25.2832)" fill="#9C4A9A"/>
<rect width="73.7894" height="25.2458" transform="matrix(1 0 0 -1 77.1211 117)" fill="#488267"/>
<rect width="72.213" height="25.2458" transform="matrix(1 0 0 -1 157.812 117)" fill="#F69722"/>
<rect width="73.7894" height="25.2458" transform="matrix(1 0 0 -1 -0.417969 55.8555)" fill="#F69722"/>
<rect width="73.7894" height="25.2458" transform="matrix(1 0 0 -1 157.814 55.8555)" fill="#488267"/>
<rect width="73.7894" height="25.2458" transform="matrix(1 0 0 -1 78.6973 55.8555)" fill="#9C4A9A"/>
</g>
<defs>
<clipPath id="clip0_1243_140">
<rect width="222" height="117" fill="white" transform="translate(222 117) rotate(180)"/>
</clipPath>
</defs>
</svg>
