<svg width="766" height="436" viewBox="0 0 766 436" fill="none" xmlns="http://www.w3.org/2000/svg">
<g clip-path="url(#clip0_1475_2)">
<rect width="73.7894" height="25.2458" transform="matrix(-1 0 0 1 106.021 152.861)" fill="#9C4A9A"/>
<rect width="73.7894" height="25.2458" transform="matrix(-1 0 0 1 26.9062 152.861)" fill="#F69722"/>
<rect width="73.7894" height="25.2458" transform="matrix(-1 0 0 1 143.305 122.289)" fill="#488267"/>
<rect width="73.7894" height="25.2458" transform="matrix(-1 0 0 1 64.1895 122.289)" fill="#E62C20"/>
<rect width="73.7894" height="25.2458" transform="matrix(-1 0 0 1 107.596 30.5723)" fill="#E62C20"/>
<rect width="73.7894" height="25.2458" transform="matrix(-1 0 0 1 28.4805 30.5723)" fill="#9C4A9A"/>
<rect width="73.7894" height="25.2458" transform="matrix(-1 0 0 1 185.137 91.7168)" fill="#E62C20"/>
<rect width="73.7894" height="25.2458" transform="matrix(-1 0 0 1 26.9043 91.7168)" fill="#9C4A9A"/>
<rect width="73.7894" height="25.2458" transform="matrix(-1 0 0 1 106.021 91.7168)" fill="#F69722"/>
<rect width="73.7894" height="25.2458" transform="matrix(-1 0 0 1 144.879 0)" fill="#488267"/>
<rect width="72.213" height="25.2458" transform="matrix(-1 0 0 1 64.1875 0)" fill="#F69722"/>
<rect width="73.7894" height="25.2458" transform="matrix(-1 0 0 1 64.1855 61.1445)" fill="#488267"/>
<rect width="73.7894" height="25.2458" transform="matrix(-1 0 0 1 143.303 61.1445)" fill="#9C4A9A"/>
</g>
<g clip-path="url(#clip1_1475_2)">
<rect width="73.7894" height="25.2458" transform="matrix(1 0 0 -1 658.404 405.428)" fill="#E62C20"/>
<rect width="73.7894" height="25.2458" transform="matrix(1 0 0 -1 737.52 405.428)" fill="#9C4A9A"/>
<rect width="73.7894" height="25.2458" transform="matrix(1 0 0 -1 739.096 344.283)" fill="#9C4A9A"/>
<rect width="73.7894" height="25.2458" transform="matrix(1 0 0 -1 621.121 436)" fill="#488267"/>
<rect width="72.213" height="25.2458" transform="matrix(1 0 0 -1 701.812 436)" fill="#F69722"/>
<rect width="73.7894" height="25.2458" transform="matrix(1 0 0 -1 543.582 374.855)" fill="#F69722"/>
<rect width="73.7894" height="25.2458" transform="matrix(1 0 0 -1 701.814 374.855)" fill="#488267"/>
<rect width="73.7894" height="25.2458" transform="matrix(1 0 0 -1 622.697 374.855)" fill="#9C4A9A"/>
</g>
<defs>
<clipPath id="clip0_1475_2">
<rect width="222" height="178" fill="white"/>
</clipPath>
<clipPath id="clip1_1475_2">
<rect width="222" height="117" fill="white" transform="translate(766 436) rotate(180)"/>
</clipPath>
</defs>
</svg>
