<svg width="1440" height="62" viewBox="0 0 1440 62" fill="none" xmlns="http://www.w3.org/2000/svg">
<path d="M1440 30L1063 30" stroke="#EEEEEE" stroke-width="5" stroke-linejoin="round"/>
<path d="M1073.84 60H1077.18V46.5307H1073.84V44.0817H1070.5V40.4083H1067.16V36.7348H1064.94V50.2041H1068.28V52.6531H1070.5V56.3265H1073.84V60Z" fill="#D9D9D9"/>
<path d="M1052.69 60H1049.36V46.5307H1052.69V44.0817H1056.03V40.4083H1059.37V36.7348H1061.6V50.2041H1058.26V52.6531H1056.03V56.3265H1052.69V60Z" fill="#D9D9D9"/>
<path d="M1057.15 35.5104V31.8369L1044.9 31.8369V35.5104H1042.68V39.1838H1039.34V42.8573H1036V45.3062L1048.24 45.3062V41.6328H1050.47V39.1838H1053.81V35.5104H1057.15Z" fill="#D9D9D9"/>
<path d="M1036 18.3668V14.6934L1048.24 14.6934V18.3668H1050.47L1050.47 22.0403L1053.81 22.0403L1053.81 25.7137H1057.15V28.1627L1044.9 28.1627V24.4892L1042.68 24.4892V22.0403L1039.34 22.0403V18.3668H1036Z" fill="#D9D9D9"/>
<path d="M1052.69 0L1049.36 0V13.4693L1052.69 13.4693V15.9183H1056.03V19.5917H1059.37V23.2652H1061.6V9.79587H1058.26V7.3469H1056.03V3.67345L1052.69 3.67345V0Z" fill="#D9D9D9"/>
<path d="M1073.84 0L1077.18 0V13.4693L1073.84 13.4693V15.9183H1070.5V19.5917H1067.16V23.2652H1064.94V9.79587H1068.28V7.3469H1070.5V3.67345L1073.84 3.67345V0Z" fill="#D9D9D9"/>
<path d="M1090.54 41.6322V45.3057L1078.29 45.3057V41.6322H1076.07V37.9588H1072.73V34.2853H1069.39V31.8363L1081.63 31.8363V35.5098H1083.86V37.9588H1087.2V41.6322H1090.54Z" fill="#D9D9D9"/>
<path d="M1069.39 24.4896L1069.39 28.1631L1081.63 28.1631L1081.63 24.4896L1083.86 24.4896L1083.86 20.8162L1087.2 20.8162L1087.2 17.1427L1090.54 17.1427L1090.54 14.6938L1078.29 14.6938L1078.29 18.3672L1076.07 18.3672L1076.07 20.8162L1072.73 20.8162L1072.73 24.4896L1069.39 24.4896Z" fill="#D9D9D9"/>
<rect x="1064.94" y="31.8369" width="3.33899" height="3.67345" transform="rotate(180 1064.94 31.8369)" fill="#D9D9D9"/>
<path d="M0 32H377" stroke="#EEEEEE" stroke-width="5" stroke-linejoin="round"/>
<path d="M365.897 2L362.518 2V15.4693H365.897V17.9183H369.276V21.5917L372.656 21.5917V25.2652H374.909V11.7959H371.529V9.3469H369.276V5.67345L365.897 5.67345V2Z" fill="#D9D9D9"/>
<path d="M387.3 2L390.68 2V15.4693H387.3V17.9183H383.921V21.5917L380.542 21.5917V25.2652H378.289V11.7959H381.668V9.3469H383.921V5.67345L387.3 5.67345V2Z" fill="#D9D9D9"/>
<path d="M382.793 26.4896V30.1631L395.184 30.1631V26.4896H397.437V22.8162H400.816V19.1427L404.196 19.1427V16.6938L391.805 16.6938V20.3672H389.552V22.8162H386.172V26.4896H382.793Z" fill="#D9D9D9"/>
<path d="M404.195 43.6332V47.3066H391.804V43.6332H389.551V39.9597H386.172V36.2863L382.793 36.2863V33.8373L395.184 33.8373V37.5108H397.437V39.9597H400.816V43.6332H404.195Z" fill="#D9D9D9"/>
<path d="M387.3 62H390.68V48.5307H387.3V46.0817H383.921V42.4083H380.542V38.7348H378.289V52.2041H381.668V54.6531H383.921V58.3265H387.3L387.3 62Z" fill="#D9D9D9"/>
<path d="M365.897 62H362.518V48.5307H365.897V46.0817H369.276V42.4083H372.656V38.7348H374.909V52.2041H371.529V54.6531H369.276V58.3265H365.897V62Z" fill="#D9D9D9"/>
<path d="M349 20.3673V16.6938L361.391 16.6938V20.3673H363.644V24.0407H367.023V27.7142L370.403 27.7142V30.1632L358.012 30.1632V26.4897H355.759V24.0407H352.379V20.3673H349Z" fill="#D9D9D9"/>
<path d="M370.402 37.5104L370.402 33.8369L358.011 33.8369L358.011 37.5104L355.758 37.5104L355.758 41.1838L352.379 41.1838L352.379 44.8573L349 44.8573L349 47.3062L361.391 47.3062L361.391 43.6328L363.644 43.6328L363.644 41.1838L367.023 41.1838L367.023 37.5104L370.402 37.5104Z" fill="#D9D9D9"/>
<rect x="374.91" y="30.1631" width="3.37936" height="3.67345" fill="#D9D9D9"/>
<path d="M451.874 49V14H468.724C471.991 14 474.808 14.5333 477.174 15.6C479.574 16.6667 481.424 18.2 482.724 20.2C484.024 22.1667 484.674 24.5 484.674 27.2C484.674 29.9 484.024 32.2333 482.724 34.2C481.424 36.1667 479.574 37.7 477.174 38.8C474.808 39.8667 471.991 40.4 468.724 40.4H458.424L463.674 35.35V49H451.874ZM463.674 36.65L458.424 31.3H467.974C469.608 31.3 470.808 30.9333 471.574 30.2C472.374 29.4667 472.774 28.4667 472.774 27.2C472.774 25.9333 472.374 24.9333 471.574 24.2C470.808 23.4667 469.608 23.1 467.974 23.1H458.424L463.674 17.75V36.65ZM544.638 49.8C541.805 49.8 539.172 49.35 536.738 48.45C534.338 47.55 532.255 46.2833 530.488 44.65C528.722 42.9833 527.338 41.0333 526.338 38.8C525.372 36.5667 524.888 34.1333 524.888 31.5C524.888 28.8333 525.372 26.4 526.338 24.2C527.338 21.9667 528.722 20.0333 530.488 18.4C532.255 16.7333 534.338 15.45 536.738 14.55C539.172 13.65 541.805 13.2 544.638 13.2C547.505 13.2 550.138 13.65 552.538 14.55C554.938 15.45 557.022 16.7333 558.788 18.4C560.555 20.0333 561.922 21.9667 562.888 24.2C563.888 26.4 564.388 28.8333 564.388 31.5C564.388 34.1333 563.888 36.5667 562.888 38.8C561.922 41.0333 560.555 42.9833 558.788 44.65C557.022 46.2833 554.938 47.55 552.538 48.45C550.138 49.35 547.505 49.8 544.638 49.8ZM544.638 40.25C545.738 40.25 546.755 40.05 547.688 39.65C548.655 39.25 549.488 38.6833 550.188 37.95C550.922 37.1833 551.488 36.2667 551.888 35.2C552.288 34.1 552.488 32.8667 552.488 31.5C552.488 30.1333 552.288 28.9167 551.888 27.85C551.488 26.75 550.922 25.8333 550.188 25.1C549.488 24.3333 548.655 23.75 547.688 23.35C546.755 22.95 545.738 22.75 544.638 22.75C543.538 22.75 542.505 22.95 541.538 23.35C540.605 23.75 539.772 24.3333 539.038 25.1C538.338 25.8333 537.788 26.75 537.388 27.85C536.988 28.9167 536.788 30.1333 536.788 31.5C536.788 32.8667 536.988 34.1 537.388 35.2C537.788 36.2667 538.338 37.1833 539.038 37.95C539.772 38.6833 540.605 39.25 541.538 39.65C542.505 40.05 543.538 40.25 544.638 40.25ZM626.73 49.8C621.363 49.8 617.18 48.35 614.18 45.45C611.18 42.55 609.68 38.4833 609.68 33.25V14H621.48V32.9C621.48 35.5667 621.963 37.4667 622.93 38.6C623.897 39.7 625.197 40.25 626.83 40.25C628.497 40.25 629.797 39.7 630.73 38.6C631.697 37.4667 632.18 35.5667 632.18 32.9V14H643.78V33.25C643.78 38.4833 642.28 42.55 639.28 45.45C636.28 48.35 632.097 49.8 626.73 49.8ZM659.739 41.5L659.089 28.55L672.289 14H685.139L670.339 30.3L663.789 37L659.739 41.5ZM649.189 49V14H660.789V49H649.189ZM672.189 49L661.889 35.4L669.539 27.3L685.839 49H672.189ZM702.412 49V14H719.262C722.528 14 725.345 14.5333 727.712 15.6C730.112 16.6667 731.962 18.2 733.262 20.2C734.562 22.1667 735.212 24.5 735.212 27.2C735.212 29.9 734.562 32.2333 733.262 34.2C731.962 36.1667 730.112 37.7 727.712 38.8C725.345 39.8667 722.528 40.4 719.262 40.4H708.962L714.212 35.35V49H702.412ZM714.212 36.65L708.962 31.3H718.512C720.145 31.3 721.345 30.9333 722.112 30.2C722.912 29.4667 723.312 28.4667 723.312 27.2C723.312 25.9333 722.912 24.9333 722.112 24.2C721.345 23.4667 720.145 23.1 718.512 23.1H708.962L714.212 17.75V36.65ZM739.081 49V14H755.931C759.198 14 762.015 14.5333 764.381 15.6C766.781 16.6667 768.631 18.2 769.931 20.2C771.231 22.1667 771.881 24.5 771.881 27.2C771.881 29.9 771.231 32.2333 769.931 34.2C768.631 36.1333 766.781 37.6167 764.381 38.65C762.015 39.6833 759.198 40.2 755.931 40.2H745.631L750.881 35.35V49H739.081ZM760.031 49L751.431 36.25H763.931L772.631 49H760.031ZM750.881 36.65L745.631 31.3H755.181C756.815 31.3 758.015 30.9333 758.781 30.2C759.581 29.4667 759.981 28.4667 759.981 27.2C759.981 25.9333 759.581 24.9333 758.781 24.2C758.015 23.4667 756.815 23.1 755.181 23.1H745.631L750.881 17.75V36.65ZM787.137 27H802.737V35.5H787.137V27ZM787.937 40.1H805.437V49H776.337V14H804.787V22.9H787.937V40.1ZM852.363 49V14H869.213C872.479 14 875.296 14.5333 877.663 15.6C880.063 16.6667 881.913 18.2 883.213 20.2C884.513 22.1667 885.163 24.5 885.163 27.2C885.163 29.9 884.513 32.2333 883.213 34.2C881.913 36.1333 880.063 37.6167 877.663 38.65C875.296 39.6833 872.479 40.2 869.213 40.2H858.913L864.163 35.35V49H852.363ZM873.313 49L864.713 36.25H877.213L885.913 49H873.313ZM864.163 36.65L858.913 31.3H868.463C870.096 31.3 871.296 30.9333 872.063 30.2C872.863 29.4667 873.263 28.4667 873.263 27.2C873.263 25.9333 872.863 24.9333 872.063 24.2C871.296 23.4667 870.096 23.1 868.463 23.1H858.913L864.163 17.75V36.65ZM941.727 27H957.327V35.5H941.727V27ZM942.527 40.1H960.027V49H930.927V14H959.377V22.9H942.527V40.1ZM964.57 49V14H981.42C984.686 14 987.503 14.5333 989.87 15.6C992.27 16.6667 994.12 18.2 995.42 20.2C996.72 22.1667 997.37 24.5 997.37 27.2C997.37 29.9 996.72 32.2333 995.42 34.2C994.12 36.1333 992.27 37.6167 989.87 38.65C987.503 39.6833 984.686 40.2 981.42 40.2H971.12L976.37 35.35V49H964.57ZM985.52 49L976.92 36.25H989.42L998.12 49H985.52ZM976.37 36.65L971.12 31.3H980.67C982.303 31.3 983.503 30.9333 984.27 30.2C985.07 29.4667 985.47 28.4667 985.47 27.2C985.47 25.9333 985.07 24.9333 984.27 24.2C983.503 23.4667 982.303 23.1 980.67 23.1H971.12L976.37 17.75V36.65Z" fill="#EEEEEE"/>
<path d="M489.033 49V14H505.883C509.149 14 511.966 14.5333 514.333 15.6C516.733 16.6667 518.583 18.2 519.883 20.2C521.183 22.1667 521.833 24.5 521.833 27.2C521.833 29.9 521.183 32.2333 519.883 34.2C518.583 36.1333 516.733 37.6167 514.333 38.65C511.966 39.6833 509.149 40.2 505.883 40.2H495.583L500.833 35.35V49H489.033ZM509.983 49L501.383 36.25H513.883L522.583 49H509.983ZM500.833 36.65L495.583 31.3H505.133C506.766 31.3 507.966 30.9333 508.733 30.2C509.533 29.4667 509.933 28.4667 509.933 27.2C509.933 25.9333 509.533 24.9333 508.733 24.2C507.966 23.4667 506.766 23.1 505.133 23.1H495.583L500.833 17.75V36.65Z" fill="#4A8068"/>
<path d="M568.671 49V14H585.921C589.821 14 593.255 14.7167 596.221 16.15C599.188 17.55 601.505 19.55 603.171 22.15C604.838 24.75 605.671 27.85 605.671 31.45C605.671 35.0833 604.838 38.2167 603.171 40.85C601.505 43.45 599.188 45.4667 596.221 46.9C593.255 48.3 589.821 49 585.921 49H568.671ZM580.471 39.8H585.421C587.088 39.8 588.538 39.4833 589.771 38.85C591.038 38.2167 592.021 37.2833 592.721 36.05C593.421 34.7833 593.771 33.25 593.771 31.45C593.771 29.6833 593.421 28.1833 592.721 26.95C592.021 25.7167 591.038 24.7833 589.771 24.15C588.538 23.5167 587.088 23.2 585.421 23.2H580.471V39.8Z" fill="#9C4A9A"/>
<path d="M828.33 49.8C825.497 49.8 822.863 49.35 820.43 48.45C818.03 47.55 815.947 46.2833 814.18 44.65C812.413 42.9833 811.03 41.0333 810.03 38.8C809.063 36.5667 808.58 34.1333 808.58 31.5C808.58 28.8333 809.063 26.4 810.03 24.2C811.03 21.9667 812.413 20.0333 814.18 18.4C815.947 16.7333 818.03 15.45 820.43 14.55C822.863 13.65 825.497 13.2 828.33 13.2C831.197 13.2 833.83 13.65 836.23 14.55C838.63 15.45 840.713 16.7333 842.48 18.4C844.247 20.0333 845.613 21.9667 846.58 24.2C847.58 26.4 848.08 28.8333 848.08 31.5C848.08 34.1333 847.58 36.5667 846.58 38.8C845.613 41.0333 844.247 42.9833 842.48 44.65C840.713 46.2833 838.63 47.55 836.23 48.45C833.83 49.35 831.197 49.8 828.33 49.8ZM828.33 40.25C829.43 40.25 830.447 40.05 831.38 39.65C832.347 39.25 833.18 38.6833 833.88 37.95C834.613 37.1833 835.18 36.2667 835.58 35.2C835.98 34.1 836.18 32.8667 836.18 31.5C836.18 30.1333 835.98 28.9167 835.58 27.85C835.18 26.75 834.613 25.8333 833.88 25.1C833.18 24.3333 832.347 23.75 831.38 23.35C830.447 22.95 829.43 22.75 828.33 22.75C827.23 22.75 826.197 22.95 825.23 23.35C824.297 23.75 823.463 24.3333 822.73 25.1C822.03 25.8333 821.48 26.75 821.08 27.85C820.68 28.9167 820.48 30.1333 820.48 31.5C820.48 32.8667 820.68 34.1 821.08 35.2C821.48 36.2667 822.03 37.1833 822.73 37.95C823.463 38.6833 824.297 39.25 825.23 39.65C826.197 40.05 827.23 40.25 828.33 40.25Z" fill="#E62C20"/>
<path d="M889.619 49V14H906.869C910.769 14 914.202 14.7167 917.169 16.15C920.135 17.55 922.452 19.55 924.119 22.15C925.785 24.75 926.619 27.85 926.619 31.45C926.619 35.0833 925.785 38.2167 924.119 40.85C922.452 43.45 920.135 45.4667 917.169 46.9C914.202 48.3 910.769 49 906.869 49H889.619ZM901.419 39.8H906.369C908.035 39.8 909.485 39.4833 910.719 38.85C911.985 38.2167 912.969 37.2833 913.669 36.05C914.369 34.7833 914.719 33.25 914.719 31.45C914.719 29.6833 914.369 28.1833 913.669 26.95C912.969 25.7167 911.985 24.7833 910.719 24.15C909.485 23.5167 908.035 23.2 906.369 23.2H901.419V39.8Z" fill="#F69722"/>
<path d="M494.001 37H511.678V17H494.001V37Z" fill="#4A8068"/>
<path d="M576.001 42H593.678V22H576.001V42Z" fill="#9C4A9A"/>
<path d="M820.001 41H837.678V21H820.001V41Z" fill="#E62C20"/>
<path d="M896 42H918V22H896V42Z" fill="#F69722"/>
</svg>
