<svg width="729" height="163" viewBox="0 0 729 163" fill="none" xmlns="http://www.w3.org/2000/svg">
<g clip-path="url(#clip0_1246_2029)">
<path d="M134.879 150.69V147.109H148.009V150.69H150.397V154.271H153.978V157.853H157.559V160.24H144.428V156.659H142.041V154.271H138.46V150.69H134.879Z" fill="#E62C20"/>
<path d="M158.755 155.465H162.336V142.334H158.755V139.947H155.174V136.366H151.593V132.785H149.205V145.915H152.786V148.303H155.174V151.884H158.755V155.465Z" fill="#E62C20"/>
<path d="M175.466 132.785H179.047V145.916H175.466V148.303H171.885V151.884H168.304V155.465H165.916V142.335H169.497V139.947H171.885V136.366H175.466V132.785Z" fill="#E62C20"/>
<path d="M193.369 150.69V147.109H180.239V150.69H177.851V154.271H174.27V157.853H170.689V160.24H183.82V156.659H186.207V154.271H189.788V150.69H193.369Z" fill="#E62C20"/>
<rect x="162.332" y="163.821" width="3.58105" height="3.58105" transform="rotate(-90 162.332 163.821)" fill="#E62C20"/>
<path d="M3.01172 150.689V147.108H16.1423V150.689H18.5296V154.27H22.1107V157.851H25.6917V160.238H12.5612V156.657H10.1738V154.27H6.59277V150.689H3.01172Z" fill="#EEEEEE"/>
<path d="M26.8857 155.464H30.4668V142.333H26.8857V139.946H23.3047V136.365H19.7236V132.784H17.3363V145.914H20.9173V148.302H23.3047V151.883H26.8857V155.464Z" fill="#EEEEEE"/>
<path d="M43.5947 132.784H47.1758V145.914H43.5947V148.302H40.0137V151.883H36.4326V155.464H34.0452V142.333H37.6263V139.946H40.0137V136.365H43.5947V132.784Z" fill="#EEEEEE"/>
<path d="M61.5 150.689V147.108H48.3695V150.689H45.9821V154.27H42.401V157.851H38.82V160.238H51.9505V156.657H54.3379V154.27H57.9189V150.689H61.5Z" fill="#EEEEEE"/>
<rect x="30.4668" y="163.82" width="3.58105" height="3.58105" transform="rotate(-90 30.4668 163.82)" fill="#EEEEEE"/>
<path fill-rule="evenodd" clip-rule="evenodd" d="M68.9453 165.895V158.199H72.0236V155.12H75.1016V152.042H78.1797V148.963H81.2598V145.885H84.3379V142.806H87.4161V139.728H90.4941V136.649H93.5723V133.571H102.808V136.65H105.887V139.728H108.966V142.806H112.043V145.885H115.124V148.963H118.202V152.042H121.278V155.12H124.356V158.199H127.436V165.895H122.818V159.738H119.738V156.66H116.66V153.581H113.584V150.502H110.506V147.424H107.426V144.346H104.348V141.268H101.269V138.188H95.1118V141.267H92.0338V144.346H88.9556V147.424H85.8774V150.502H82.7974V153.581H79.7192V156.659H76.6413V159.738H73.563V165.895H68.9453Z" fill="#EEEEEE"/>
<path fill-rule="evenodd" clip-rule="evenodd" d="M68.9453 158.199V165.895H72.0236V168.974H75.1016V172.052H78.1797V175.131H81.2598V178.209H84.3359V181.287H87.4141V184.366H90.4941V187.444H93.5723V190.523H102.808V187.444H105.887V184.366H108.963V181.288H112.043V178.209H115.122V175.131H118.202V172.052H121.278V168.974H124.356V165.895H127.436V158.199H122.818V164.356H119.738V167.434H116.66V170.513H113.584V173.591H110.504V176.67H107.426V179.748H104.346V182.827H101.269V185.905H95.1118V182.827H92.0317V179.748H88.9536V176.669H85.8774V173.591H82.7974V170.513H79.7192V167.435H76.6413V164.356H73.563V158.199H68.9453Z" fill="#EEEEEE"/>
<rect x="95.1113" y="165.895" width="7.69613" height="7.69613" transform="rotate(-90 95.1113 165.895)" fill="#EEEEEE"/>
<path d="M398.607 150.69V147.109H411.738V150.69H414.125V154.271H417.706V157.852H421.287V160.239H408.157V156.658H405.77V154.271H402.188V150.69H398.607Z" fill="#EEEEEE"/>
<path d="M422.481 155.465H426.062V142.334H422.481V139.947H418.9V136.366H415.319V132.785H412.932V145.915H416.513V148.303H418.9V151.884H422.481V155.465Z" fill="#EEEEEE"/>
<path d="M439.194 132.785H442.775V145.915H439.194V148.303H435.613V151.884H432.032V155.465H429.645V142.334H433.226V139.947H435.613V136.366H439.194V132.785Z" fill="#EEEEEE"/>
<path d="M457.098 150.69V147.109H443.967V150.69H441.58V154.271H437.999V157.852H434.418V160.239H447.548V156.658H449.936V154.271H453.517V150.69H457.098Z" fill="#EEEEEE"/>
<rect x="426.062" y="163.82" width="3.58105" height="3.58105" transform="rotate(-90 426.062 163.82)" fill="#EEEEEE"/>
<path d="M266.74 150.69V147.109H279.871V150.69H282.258V154.271H285.839V157.853H289.42V160.24H276.29V156.659H273.902V154.271H270.321V150.69H266.74Z" fill="#EEEEEE"/>
<path d="M290.616 155.465H294.197V142.335H290.616V139.947H287.035V136.366H283.454V132.785H281.067V145.916H284.648V148.303H287.035V151.884H290.616V155.465Z" fill="#EEEEEE"/>
<path d="M307.327 132.785H310.908V145.916H307.327V148.303H303.746V151.884H300.165V155.465H297.778V142.335H301.359V139.947H303.746V136.366H307.327V132.785Z" fill="#EEEEEE"/>
<path d="M325.23 150.69V147.109H312.1V150.69H309.713V154.271H306.132V157.853H302.55V160.24H315.681V156.659H318.068V154.271H321.649V150.69H325.23Z" fill="#EEEEEE"/>
<rect x="294.195" y="163.821" width="3.58105" height="3.58105" transform="rotate(-90 294.195 163.821)" fill="#EEEEEE"/>
<path fill-rule="evenodd" clip-rule="evenodd" d="M332.674 165.895V158.199H335.752V155.12H338.83V152.042H341.91V148.963H344.988V145.885H348.066V142.806H351.145V139.728H354.223V136.649H357.303V133.571H366.538V136.65H369.616V139.728H372.694V142.806H375.772V145.885H378.852V148.963H381.93V152.041H385.008V155.12H388.086V158.198H391.165V165.895H386.547V159.738H383.469V156.659H380.391V153.581H377.313V150.502H374.234V147.424H371.154V144.346H368.076V141.268H364.998V138.189H358.84V141.267H355.762V144.346H352.684V147.424H349.606V150.502H346.528V153.581H343.448V156.659H340.37V159.738H337.292V165.895H332.674Z" fill="#9C4A9A"/>
<path fill-rule="evenodd" clip-rule="evenodd" d="M332.674 158.199V165.895H335.752V168.973H338.83V172.052H341.91V175.13H344.988V178.208H348.066V181.287H351.143V184.365H354.223V187.444H357.303V190.522H366.538V187.444H369.616V184.365H372.694V181.287H375.772V178.209H378.852V175.13H381.93V172.052H385.008V168.973H388.086V165.895H391.165V158.199H386.547V164.355H383.469V167.434H380.391V170.513H377.313V173.591H374.234V176.669H371.154V179.748H368.076V182.826H364.998V185.905H358.84V182.826H355.76V179.748H352.684V176.669H349.606V173.591H346.528V170.513H343.448V167.434H340.37V164.355H337.292V158.199H332.674Z" fill="#9C4A9A"/>
<rect x="358.84" y="165.895" width="7.69613" height="7.69613" transform="rotate(-90 358.84 165.895)" fill="#9C4A9A"/>
<path fill-rule="evenodd" clip-rule="evenodd" d="M200.807 165.895V158.199H203.885V155.12H206.963V152.042H210.043V148.963H213.121V145.885H216.197V142.806H219.277V139.728H222.355V136.65H225.436V133.571H234.671V136.65H237.749V139.728H240.827V142.806H243.905V145.885H246.985V148.963H250.063V152.042H253.139V155.12H256.219V158.199H259.297V165.895H254.68V159.738H251.602V156.66H248.521V153.581H245.445V150.502H242.367V147.424H239.287V144.346H236.209V141.268H233.131V138.189H226.973V141.268H223.895V144.346H220.815V147.424H217.739V150.502H214.661V153.581H211.581V156.659H208.502V159.738H205.424V165.895H200.807Z" fill="#EEEEEE"/>
<path fill-rule="evenodd" clip-rule="evenodd" d="M200.807 158.199V165.895H203.885V168.974H206.963V172.052H210.043V175.13H213.121V178.209H216.197V181.287H219.275V184.366H222.355V187.444H225.436V190.522H234.671V187.444H237.749V184.366H240.827V181.287H243.905V178.209H246.985V175.13H250.063V172.052H253.139V168.974H256.219V165.895H259.297V158.199H254.68V164.356H251.602V167.434H248.521V170.513H245.445V173.591H242.367V176.669H239.287V179.748H236.209V182.826H233.131V185.905H226.973V182.826H223.893V179.748H220.815V176.669H217.739V173.591H214.661V170.513H211.581V167.434H208.502V164.356H205.424V158.199H200.807Z" fill="#EEEEEE"/>
<rect x="226.973" y="165.895" width="7.69613" height="7.69613" transform="rotate(-90 226.973 165.895)" fill="#EEEEEE"/>
<path d="M134.879 40.5859V44.167H148.009V40.5859H150.397V37.0049H153.978V33.4238H157.559V31.0365H144.428V34.6175H142.041V37.0049H138.46V40.5859H134.879Z" fill="#F69722"/>
<path d="M134.879 17.9058V14.3247H148.009V17.9058H150.397V21.4868H153.978V25.0679H157.559V27.4552H144.428V23.8742H142.041V21.4868H138.46V17.9058H134.879Z" fill="#F69722"/>
<path d="M158.755 22.6802H162.336V9.54964H158.755V7.16227H155.174V3.58122H151.593V0.000163476H149.205V13.1307H152.786V15.5181H155.174V19.0991H158.755V22.6802Z" fill="#F69722"/>
<path d="M175.466 0.000488281L179.047 0.000488281V13.131H175.466V15.5184H171.885V19.0994H168.304V22.6805H165.916V9.54997H169.497V7.1626H171.885V3.58154H175.466V0.000488281Z" fill="#F69722"/>
<path d="M193.369 17.9058V14.3247H180.239V17.9058H177.851V21.4868H174.27V25.0679H170.689V27.4552H183.82V23.8742H186.207V21.4868H189.788V17.9058H193.369Z" fill="#F69722"/>
<path d="M193.369 40.5859V44.167H180.239V40.5859H177.851V37.0049H174.27V33.4238H170.689V31.0365H183.82V34.6175H186.207V37.0049H189.788V40.5859H193.369Z" fill="#F69722"/>
<path d="M152.784 58.4912L149.203 58.4912L149.203 45.3607L152.784 45.3607L152.784 42.9733L156.365 42.9733L156.365 39.3923L159.946 39.3923L159.946 35.8112L162.334 35.8112L162.334 48.9417L158.753 48.9417L158.753 51.3291L156.365 51.3291L156.365 54.9102L152.784 54.9102L152.784 58.4912Z" fill="#F69722"/>
<path d="M169.495 35.811L165.914 35.811L165.914 48.9416L169.495 48.9416L169.495 51.3289L173.076 51.3289L173.076 54.91L176.657 54.91L176.657 58.4911L179.045 58.4911L179.045 45.3605L175.464 45.3605L175.464 42.9731L173.076 42.9731L173.076 39.3921L169.495 39.3921L169.495 35.811Z" fill="#F69722"/>
<rect x="162.332" y="31.0361" width="3.58105" height="3.58105" transform="rotate(-90 162.332 31.0361)" fill="#F69722"/>
<path d="M3.01172 40.5859V44.167H16.1423V40.5859H18.5296V37.0049H22.1107V33.4238H25.6917V31.0365H12.5612V34.6175H10.1738V37.0049H6.59277V40.5859H3.01172Z" fill="#488267"/>
<path d="M3.01172 17.9058V14.3247H16.1423V17.9058H18.5296V21.4868H22.1107V25.0679H25.6917V27.4552H12.5612V23.8742H10.1738V21.4868H6.59277V17.9058H3.01172Z" fill="#488267"/>
<path d="M26.8857 22.6807H30.4668V9.55013H26.8857V7.16276H23.3047V3.58171H19.7236V0.000651758H17.3363V13.1312H20.9173V15.5186H23.3047V19.0996H26.8857V22.6807Z" fill="#488267"/>
<path d="M43.5947 0.000488281L47.1758 0.000488281V13.131H43.5947V15.5184H40.0137V19.0994H36.4326V22.6805H34.0452V9.54997H37.6263V7.1626H40.0137V3.58154H43.5947V0.000488281Z" fill="#488267"/>
<path d="M61.5 17.9058V14.3247H48.3695V17.9058H45.9821V21.4868H42.401V25.0679H38.82V27.4552H51.9505V23.8742H54.3379V21.4868H57.9189V17.9058H61.5Z" fill="#488267"/>
<path d="M61.5 40.5859V44.167H48.3695V40.5859H45.9821V37.0049H42.401V33.4238H38.82V31.0365H51.9505V34.6175H54.3379V37.0049H57.9189V40.5859H61.5Z" fill="#488267"/>
<path d="M20.917 58.4912L17.3359 58.4912L17.3359 45.3607L20.917 45.3607L20.917 42.9733L24.498 42.9733L24.498 39.3923L28.0791 39.3923L28.0791 35.8112L30.4665 35.8112L30.4665 48.9417L26.8854 48.9417L26.8854 51.3291L24.498 51.3291L24.498 54.9102L20.917 54.9102L20.917 58.4912Z" fill="#488267"/>
<path d="M37.6279 35.811L34.0469 35.811L34.0469 48.9416L37.6279 48.9416L37.6279 51.3289L41.209 51.3289L41.209 54.91L44.79 54.91L44.79 58.4911L47.1774 58.4911L47.1774 45.3605L43.5964 45.3605L43.5964 42.9731L41.209 42.9731L41.209 39.3921L37.6279 39.3921L37.6279 35.811Z" fill="#488267"/>
<rect x="30.4668" y="31.0361" width="3.58105" height="3.58105" transform="rotate(-90 30.4668 31.0361)" fill="#488267"/>
<path fill-rule="evenodd" clip-rule="evenodd" d="M68.9453 33.1113V25.4152H72.0236V22.3366H75.1016V19.2578H78.1797V16.1797H81.2598V13.1011H84.3379V10.0225H87.4161V6.94445H90.4941V3.86572H93.5723V0.787596H102.808V3.86628H105.887V6.94445H108.966V10.0225H112.043V13.1011H115.124V16.1797H118.202V19.2583H121.278V22.3364H124.356V25.4152H127.436V33.1113H122.818V26.9541H119.738V23.876H116.66V20.7974H113.584V17.7187H110.506V14.6401H107.426V11.5621H104.348V8.48395H101.269V5.40527H95.1118V8.4834H92.0338V11.5621H88.9556V14.6401H85.8774V17.7187H82.7974V20.7974H79.7192V23.8755H76.6413V26.9543H73.563V33.1113H68.9453Z" fill="#EEEEEE"/>
<path fill-rule="evenodd" clip-rule="evenodd" d="M68.9453 25.4155V33.1117H72.0236V36.1901H75.1016V39.269H78.1797V42.3472H81.2598V45.4258H84.3359V48.5039H87.4141V51.582H90.4941V54.6606H93.5723V57.7393H102.808V54.6608H105.887V51.582H108.963V48.5039H112.043V45.4258H115.122V42.3472H118.202V39.2681H121.278V36.1899H124.356V33.1117H127.436V25.4155H122.818V31.5723H119.738V34.6504H116.66V37.7295H113.584V40.8081H110.504V43.8862H107.426V46.9644H104.346V50.0431H101.269V53.1216H95.1118V50.043H92.0317V46.9644H88.9536V43.8862H85.8774V40.8081H82.7974V37.7295H79.7192V34.6514H76.6413V31.5724H73.563V25.4155H68.9453Z" fill="#EEEEEE"/>
<rect x="95.1113" y="33.1113" width="7.69613" height="7.69613" transform="rotate(-90 95.1113 33.1113)" fill="#EEEEEE"/>
<path d="M398.607 40.5859V44.167H411.738V40.5859H414.125V37.0049H417.706V33.4238H421.287V31.0365H408.157V34.6175H405.77V37.0049H402.188V40.5859H398.607Z" fill="#F69722"/>
<path d="M398.607 17.9058V14.3247H411.738V17.9058H414.125V21.4868H417.706V25.0679H421.287V27.4552H408.157V23.8742H405.77V21.4868H402.188V17.9058H398.607Z" fill="#F69722"/>
<path d="M422.481 22.6807H426.062V9.55013H422.481V7.16276H418.9V3.58171H415.319V0.000651758H412.932V13.1312H416.513V15.5186H418.9V19.0996H422.481V22.6807Z" fill="#F69722"/>
<path d="M439.194 0.000488281L442.775 0.000488281V13.131H439.194V15.5184H435.613V19.0994H432.032V22.6805H429.645V9.54997H433.226V7.1626H435.613V3.58154H439.194V0.000488281Z" fill="#F69722"/>
<path d="M457.098 17.9058V14.3247H443.967V17.9058H441.58V21.4868H437.999V25.0679H434.418V27.4552H447.548V23.8742H449.936V21.4868H453.517V17.9058H457.098Z" fill="#F69722"/>
<path d="M457.1 40.5859V44.167H443.969V40.5859H441.582V37.0049H438.001V33.4238H434.42V31.0365H447.55V34.6175H449.938V37.0049H453.519V40.5859H457.1Z" fill="#F69722"/>
<path d="M416.513 58.4912L412.932 58.4912L412.932 45.3607L416.513 45.3607L416.513 42.9733L420.094 42.9733L420.094 39.3923L423.675 39.3923L423.675 35.8112L426.062 35.8112L426.062 48.9417L422.481 48.9417L422.481 51.3291L420.094 51.3291L420.094 54.9102L416.513 54.9102L416.513 58.4912Z" fill="#F69722"/>
<path d="M433.224 35.811L429.643 35.811L429.643 48.9416L433.224 48.9416L433.224 51.3289L436.805 51.3289L436.805 54.91L440.386 54.91L440.386 58.4911L442.773 58.4911L442.773 45.3605L439.192 45.3605L439.192 42.9731L436.805 42.9731L436.805 39.3921L433.224 39.3921L433.224 35.811Z" fill="#F69722"/>
<rect x="426.062" y="31.0361" width="3.58105" height="3.58105" transform="rotate(-90 426.062 31.0361)" fill="#F69722"/>
<path d="M266.74 40.5859V44.167H279.871V40.5859H282.258V37.0049H285.839V33.4238H289.42V31.0365H276.29V34.6175H273.902V37.0049H270.321V40.5859H266.74Z" fill="#E62C20"/>
<path d="M266.74 17.9058V14.3247H279.871V17.9058H282.258V21.4868H285.839V25.0679H289.42V27.4552H276.29V23.8742H273.902V21.4868H270.321V17.9058H266.74Z" fill="#E62C20"/>
<path d="M290.616 22.6807H294.197V9.55013H290.616V7.16276H287.035V3.58171H283.454V0.000651758H281.067V13.1312H284.648V15.5186H287.035V19.0996H290.616V22.6807Z" fill="#E62C20"/>
<path d="M307.327 0.000488281L310.908 0.000488281V13.131H307.327V15.5184H303.746V19.0994H300.165V22.6805H297.778V9.54997H301.359V7.1626H303.746V3.58154H307.327V0.000488281Z" fill="#E62C20"/>
<path d="M325.23 17.9058V14.3247H312.1V17.9058H309.713V21.4868H306.132V25.0679H302.55V27.4552H315.681V23.8742H318.068V21.4868H321.649V17.9058H325.23Z" fill="#E62C20"/>
<path d="M325.23 40.5859V44.167H312.1V40.5859H309.713V37.0049H306.132V33.4238H302.55V31.0365H315.681V34.6175H318.068V37.0049H321.649V40.5859H325.23Z" fill="#E62C20"/>
<path d="M284.646 58.4912L281.064 58.4912L281.064 45.3607L284.646 45.3607L284.646 42.9733L288.227 42.9733L288.227 39.3923L291.808 39.3923L291.808 35.8112L294.195 35.8112L294.195 48.9417L290.614 48.9417L290.614 51.3291L288.227 51.3291L288.227 54.9102L284.646 54.9102L284.646 58.4912Z" fill="#E62C20"/>
<path d="M301.356 35.811L297.775 35.811L297.775 48.9416L301.356 48.9416L301.356 51.3289L304.938 51.3289L304.938 54.91L308.519 54.91L308.519 58.4911L310.906 58.4911L310.906 45.3605L307.325 45.3605L307.325 42.9731L304.938 42.9731L304.938 39.3921L301.356 39.3921L301.356 35.811Z" fill="#E62C20"/>
<rect x="294.195" y="31.0361" width="3.58105" height="3.58105" transform="rotate(-90 294.195 31.0361)" fill="#E62C20"/>
<path fill-rule="evenodd" clip-rule="evenodd" d="M332.674 33.1113V25.4152H335.752V22.3364H338.83V19.2578H341.91V16.1797H344.988V13.1011H348.066V10.0226H351.145V6.94434H354.223V3.86572H357.303V0.787596H366.538V3.86629H369.616V6.94434H372.694V10.0225H375.772V13.1011H378.852V16.1797H381.93V19.2578H385.008V22.3364H388.086V25.4152H391.165V33.1113H386.547V26.9541H383.469V23.8755H380.391V20.7974H377.313V17.7187H374.234V14.6401H371.154V11.562H368.076V8.48397H364.998V5.40527H358.84V8.4834H355.762V11.562H352.684V14.6403H349.606V17.7187H346.528V20.7974H343.448V23.8755H340.37V26.9541H337.292V33.1113H332.674Z" fill="#EEEEEE"/>
<path fill-rule="evenodd" clip-rule="evenodd" d="M332.674 25.415V33.1112H335.752V36.1895H338.83V39.2681H341.91V42.3467H344.988V45.4248H348.066V48.5034H351.143V51.582H354.223V54.6602H357.303V57.7388H366.538V54.6604H369.616V51.582H372.694V48.5039H375.772V45.4253H378.852V42.3467H381.93V39.2679H385.008V36.1895H388.086V33.1112H391.165V25.415H386.547V31.5718H383.469V34.6502H380.391V37.729H377.313V40.8076H374.234V43.8862H371.154V46.9644H368.076V50.0427H364.998V53.1211H358.84V50.0425H355.76V46.9644H352.684V43.8857H349.606V40.8071H346.528V37.729H343.448V34.6504H340.37V31.5718H337.292V25.415H332.674Z" fill="#EEEEEE"/>
<rect x="358.84" y="33.1113" width="7.69613" height="7.69613" transform="rotate(-90 358.84 33.1113)" fill="#EEEEEE"/>
<path fill-rule="evenodd" clip-rule="evenodd" d="M200.807 33.1108V25.4147H203.885V22.3359H206.963V19.2573H210.043V16.1792H213.121V13.1006H216.197V10.022H219.277V6.94385H222.355V3.86572H225.436V0.787107H234.671V3.8658H237.749V6.94385H240.827V10.022H243.905V13.1006H246.985V16.1792H250.063V19.2578H253.139V22.3359H256.219V25.4147H259.297V33.1108H254.68V26.9536H251.602V23.8755H248.521V20.7969H245.445V17.7183H242.367V14.6396H239.287V11.5615H236.209V8.48348H233.131V5.40478H226.973V8.4834H223.895V11.5615H220.815V14.6396H217.739V17.7183H214.661V20.7969H211.581V23.875H208.502V26.9536H205.424V33.1108H200.807Z" fill="#EEEEEE"/>
<path fill-rule="evenodd" clip-rule="evenodd" d="M200.807 25.415V33.1112H203.885V36.1899H206.963V39.2681H210.043V42.3467H213.121V45.4253H216.197V48.5034H219.275V51.582H222.355V54.6602H225.436V57.7388H234.671V54.6604H237.749V51.582H240.827V48.5034H243.905V45.4253H246.985V42.3467H250.063V39.2681H253.139V36.1899H256.219V33.1112H259.297V25.415H254.68V31.5723H251.602V34.6504H248.521V37.729H245.445V40.8076H242.367V43.8857H239.287V46.9644H236.209V50.0427H233.131V53.1211H226.973V50.0425H223.893V46.9644H220.815V43.8857H217.739V40.8076H214.661V37.729H211.581V34.6504H208.502V31.5723H205.424V25.415H200.807Z" fill="#EEEEEE"/>
<rect x="226.973" y="33.1113" width="7.69613" height="7.69613" transform="rotate(-90 226.973 33.1113)" fill="#EEEEEE"/>
<path d="M66.1328 107.149V110.73H79.2633V107.149H81.6507V103.568H85.2318V99.9868H88.8128V97.5994H75.6823V101.181H73.2949V103.568H69.7139V107.149H66.1328Z" fill="#9C4A9A"/>
<path d="M66.1328 84.4688V80.8877H79.2633V84.4688H81.6507V88.0498H85.2318V91.6309H88.8128V94.0182H75.6823V90.4372H73.2949V88.0498H69.7139V84.4688H66.1328Z" fill="#9C4A9A"/>
<path d="M90.0088 89.2432H93.5898V76.1126H90.0088V73.7253H86.4277V70.1442H82.8467V66.5632H80.4593V79.6937H84.0404V82.0811H86.4277V85.6621H90.0088V89.2432Z" fill="#9C4A9A"/>
<path d="M106.72 66.5635H110.301V79.694H106.72V82.0814H103.139V85.6624H99.5576V89.2435H97.1702V76.113H100.751V73.7256H103.139V70.1445H106.72V66.5635Z" fill="#9C4A9A"/>
<path d="M124.623 84.4688V80.8877H111.493V84.4688H109.105V88.0498H105.524V91.6309H101.943V94.0182H115.074V90.4372H117.461V88.0498H121.042V84.4688H124.623Z" fill="#9C4A9A"/>
<path d="M124.623 107.149V110.73H111.493V107.149H109.105V103.568H105.524V99.9868H101.943V97.5994H115.074V101.181H117.461V103.568H121.042V107.149H124.623Z" fill="#9C4A9A"/>
<path d="M84.0381 125.054L80.457 125.054L80.457 111.924L84.0381 111.924L84.0381 109.536L87.6191 109.536L87.6191 105.955L91.2002 105.955L91.2002 102.374L93.5876 102.374L93.5876 115.505L90.0065 115.505L90.0065 117.892L87.6191 117.892L87.6191 121.473L84.0381 121.473L84.0381 125.054Z" fill="#9C4A9A"/>
<path d="M100.749 102.374L97.168 102.374L97.168 115.505L100.749 115.505L100.749 117.892L104.33 117.892L104.33 121.473L107.911 121.473L107.911 125.054L110.299 125.054L110.299 111.924L106.717 111.924L106.717 109.536L104.33 109.536L104.33 105.955L100.749 105.955L100.749 102.374Z" fill="#9C4A9A"/>
<rect x="93.5879" y="97.5991" width="3.58105" height="3.58105" transform="rotate(-90 93.5879 97.5991)" fill="#9C4A9A"/>
<path fill-rule="evenodd" clip-rule="evenodd" d="M0 99.6738L0 91.9777H3.07813V88.8989H6.15625V85.8203H9.23633V82.7422H12.3145V79.6636H15.3925V76.5852H18.4707V73.5068H21.5488V70.4282H24.6289V67.3496H33.8643V70.4282H36.942V73.5068H40.02V76.5854H43.0981V79.6636H46.1782V82.7422H49.2563V85.8208H52.3325V88.8989H55.4126V91.9772H58.4907V99.6733H53.873V93.5166H50.7949V90.4385H47.7148V87.3599H44.6387V84.2812H41.5605V81.2031H38.4805V78.1245H35.4023V75.0459H32.3243V71.9673H26.1665V75.0459H23.0884V78.1245H20.0102V81.2029H16.9321V84.2812H13.854V87.3599H10.7739V90.438H7.6958V93.5166H4.61768V99.6738H0Z" fill="#EEEEEE"/>
<path fill-rule="evenodd" clip-rule="evenodd" d="M0 91.9775L0 99.6737H3.07813V102.752H6.15625V105.831H9.23633V108.909H12.3145V111.987H15.3906V115.066H18.4688V118.144H21.5488V121.223H24.6289V124.301H33.8643V121.223H36.942V118.144H40.02V115.066H43.0981V111.988H46.1761V108.909H49.2563V105.831H52.3325V102.752H55.4126V99.6737H58.4907V91.9775H53.873V98.1343H50.7949V101.213H47.7148V104.292H44.6387V107.37H41.5585V110.448H38.4805V113.526H35.4023V116.605H32.3243V119.684H26.1665V116.605H23.0864V113.526H20.0083V110.448H16.9321V107.37H13.854V104.292H10.7739V101.213H7.6958V98.1343H4.61768V91.9775H0Z" fill="#EEEEEE"/>
<rect x="26.168" y="99.6733" width="7.69613" height="7.69613" transform="rotate(-90 26.168 99.6733)" fill="#EEEEEE"/>
<path fill-rule="evenodd" clip-rule="evenodd" d="M395.357 99.6733V91.9772H398.436V88.8984H401.514V85.8198H404.594V82.7417H407.672V79.6631H410.75V76.5846H413.828V73.5063H416.906V70.4277H419.986V67.3491H429.222V70.4283H432.299V73.5063H435.377V76.5845H438.456V79.6631H441.536V82.7417H444.614V85.8203H447.69V88.8984H450.77V91.9772H453.848V99.6733H449.23V93.5161H446.152V90.438H443.072V87.3594H439.996V84.2808H436.918V81.2021H433.838V78.124H430.76V75.046H427.682V71.9668H421.524V75.0454H418.446V78.124H415.368V81.2023H412.29V84.2808H409.211V87.3594H406.131V90.4375H403.053V93.5161H399.975V99.6733H395.357Z" fill="#4A8068"/>
<path fill-rule="evenodd" clip-rule="evenodd" d="M395.357 91.9775V99.6737H398.436V102.752H401.514V105.831H404.594V108.909H407.672V111.988H410.748V115.066H413.826V118.145H416.906V121.223H419.986V124.302H429.222V121.223H432.299V118.145H435.377V115.066H438.456V111.988H441.534V108.909H444.614V105.831H447.69V102.752H450.77V99.6737H453.848V91.9775H449.23V98.1348H446.152V101.213H443.072V104.292H439.996V107.37H436.916V110.449H433.838V113.527H430.76V116.605H427.682V119.684H421.524V116.605H418.444V113.527H415.366V110.448H412.29V107.37H409.211V104.292H406.131V101.213H403.053V98.1348H399.975V91.9775H395.357Z" fill="#4A8068"/>
<rect x="421.523" y="99.6733" width="7.69613" height="7.69613" transform="rotate(-90 421.523 99.6733)" fill="#4A8068"/>
<path d="M329.514 107.149V110.73H342.644V107.149H345.032V103.568H348.613V99.9868H352.194V97.5994H339.063V101.181H336.676V103.568H333.095V107.149H329.514Z" fill="#F69722"/>
<path d="M329.514 84.4688V80.8877H342.644V84.4688H345.032V88.0498H348.613V91.6309H352.194V94.0182H339.063V90.4372H336.676V88.0498H333.095V84.4688H329.514Z" fill="#F69722"/>
<path d="M353.39 89.2437H356.971V76.1131H353.39V73.7257H349.809V70.1447H346.228V66.5636H343.84V79.6942H347.421V82.0815H349.809V85.6626H353.39V89.2437Z" fill="#F69722"/>
<path d="M370.101 66.5635H373.682V79.694H370.101V82.0814H366.52V85.6624H362.938V89.2435H360.551V76.113H364.132V73.7256H366.52V70.1445H370.101V66.5635Z" fill="#F69722"/>
<path d="M388.004 84.4688V80.8877H374.873V84.4688H372.486V88.0498H368.905V91.6309H365.324V94.0182H378.454V90.4372H380.842V88.0498H384.423V84.4688H388.004Z" fill="#F69722"/>
<path d="M388.006 107.149V110.73H374.875V107.149H372.488V103.568H368.907V99.9868H365.326V97.5994H378.456V101.181H380.844V103.568H384.425V107.149H388.006Z" fill="#F69722"/>
<path d="M347.419 125.054L343.838 125.054L343.838 111.924L347.419 111.924L347.419 109.536L351 109.536L351 105.955L354.581 105.955L354.581 102.374L356.968 102.374L356.968 115.505L353.387 115.505L353.387 117.892L351 117.892L351 121.473L347.419 121.473L347.419 125.054Z" fill="#F69722"/>
<path d="M364.13 102.374L360.549 102.374L360.549 115.505L364.13 115.505L364.13 117.892L367.711 117.892L367.711 121.473L371.292 121.473L371.292 125.054L373.679 125.054L373.679 111.924L370.098 111.924L370.098 109.536L367.711 109.536L367.711 105.955L364.13 105.955L364.13 102.374Z" fill="#F69722"/>
<rect x="356.969" y="97.5991" width="3.58105" height="3.58105" transform="rotate(-90 356.969 97.5991)" fill="#F69722"/>
<path d="M197.822 107.149V110.73H210.953V107.149H213.34V103.568H216.921V99.9868H220.502V97.5994H207.372V101.181H204.984V103.568H201.403V107.149H197.822Z" fill="#4A8068"/>
<path d="M197.822 84.4692V80.8882H210.953V84.4692H213.34V88.0503H216.921V91.6313H220.502V94.0187H207.372V90.4377H204.984V88.0503H201.403V84.4692H197.822Z" fill="#4A8068"/>
<path d="M221.698 89.2437H225.279V76.1131H221.698V73.7257H218.117V70.1447H214.536V66.5636H212.149V79.6942H215.73V82.0815H218.117V85.6626H221.698V89.2437Z" fill="#4A8068"/>
<path d="M238.409 66.5635H241.99V79.694H238.409V82.0814H234.828V85.6624H231.247V89.2435H228.86V76.113H232.441V73.7256H234.828V70.1445H238.409V66.5635Z" fill="#4A8068"/>
<path d="M256.312 84.4692V80.8882H243.182V84.4692H240.795V88.0503H237.214V91.6313H233.632V94.0187H246.763V90.4377H249.15V88.0503H252.731V84.4692H256.312Z" fill="#4A8068"/>
<path d="M256.312 107.149V110.73H243.182V107.149H240.795V103.568H237.214V99.9868H233.632V97.5994H246.763V101.181H249.15V103.568H252.731V107.149H256.312Z" fill="#4A8068"/>
<path d="M215.728 125.054L212.146 125.054L212.146 111.924L215.728 111.924L215.728 109.536L219.309 109.536L219.309 105.955L222.89 105.955L222.89 102.374L225.277 102.374L225.277 115.505L221.696 115.505L221.696 117.892L219.309 117.892L219.309 121.473L215.728 121.473L215.728 125.054Z" fill="#4A8068"/>
<path d="M232.438 102.374L228.857 102.374L228.857 115.505L232.438 115.505L232.438 117.892L236.02 117.892L236.02 121.473L239.601 121.473L239.601 125.054L241.988 125.054L241.988 111.924L238.407 111.924L238.407 109.536L236.02 109.536L236.02 105.955L232.438 105.955L232.438 102.374Z" fill="#4A8068"/>
<rect x="225.277" y="97.5991" width="3.58105" height="3.58105" transform="rotate(-90 225.277 97.5991)" fill="#4A8068"/>
<path fill-rule="evenodd" clip-rule="evenodd" d="M263.67 99.6733V91.9772H266.748V88.8984H269.826V85.8198H272.906V82.7417H275.984V79.6631H279.061V76.5845H282.141V73.5063H285.219V70.4277H288.299V67.3491H297.534V70.4283H300.612V73.5063H303.69V76.5845H306.768V79.6631H309.848V82.7417H312.926V85.8198H316.002V88.8984H319.083V91.9772H322.161V99.6733H317.543V93.5161H314.465V90.4375H311.385V87.3594H308.309V84.2808H305.23V81.2021H302.15V78.124H299.072V75.046H295.994V71.9668H289.836V75.0454H286.758V78.124H283.678V81.2021H280.602V84.2808H277.524V87.3594H274.444V90.4375H271.366V93.5161H268.288V99.6733H263.67Z" fill="#EEEEEE"/>
<path fill-rule="evenodd" clip-rule="evenodd" d="M263.67 91.9775V99.6737H266.748V102.752H269.826V105.831H272.906V108.909H275.984V111.988H279.061V115.066H282.139V118.145H285.219V121.223H288.299V124.302H297.534V121.223H300.612V118.145H303.69V115.066H306.768V111.988H309.848V108.909H312.926V105.831H316.002V102.752H319.083V99.6737H322.161V91.9775H317.543V98.1348H314.465V101.213H311.385V104.292H308.309V107.37H305.23V110.449H302.15V113.527H299.072V116.605H295.994V119.684H289.836V116.605H286.756V113.527H283.678V110.448H280.602V107.37H277.524V104.292H274.444V101.213H271.366V98.1348H268.288V91.9775H263.67Z" fill="#EEEEEE"/>
<rect x="289.836" y="99.6733" width="7.69613" height="7.69613" transform="rotate(-90 289.836 99.6733)" fill="#EEEEEE"/>
<path fill-rule="evenodd" clip-rule="evenodd" d="M131.977 99.6738V91.9777H135.055V88.8994H138.135V85.8208H141.213V82.7417H144.289V79.6636H147.367V76.5854H150.447V73.5068H153.525V70.4287H156.605V67.3496H165.841V70.4287H168.917V73.5068H171.997V76.5854H175.077V79.6636H178.155V82.7426H181.233V85.8208H184.309V88.8994H187.389V91.9777H190.467V99.6738H185.85V93.5171H182.771V90.4385H179.691V87.3602H176.615V84.2812H173.537V81.2031H170.459V78.1245H167.379V75.0464H164.299V71.9673H158.143V75.0464H155.065V78.1245H151.985V81.2031H148.907V84.2812H145.831V87.3594H142.752V90.4385H139.672V93.5171H136.594V99.6738H131.977Z" fill="#EEEEEE"/>
<path fill-rule="evenodd" clip-rule="evenodd" d="M131.977 91.9771V99.6732H135.055V102.751H138.135V105.831H141.213V108.909H144.289V111.987H147.367V115.066H150.447V118.144H153.525V121.222H156.605V124.301H165.841V121.222H168.917V118.144H171.997V115.066H175.077V111.987H178.155V108.909H181.233V105.831H184.309V102.751H187.389V99.6732H190.467V91.9771H185.85V98.1338H182.771V101.213H179.691V104.291H176.615V107.37H173.537V110.448H170.459V113.526H167.379V116.604H164.299V119.683H158.143V116.604H155.065V113.526H151.985V110.448H148.907V107.37H145.831V104.291H142.752V101.213H139.672V98.1338H136.594V91.9771H131.977Z" fill="#EEEEEE"/>
<rect x="158.145" y="99.6733" width="7.69613" height="7.69613" transform="rotate(-90 158.145 99.6733)" fill="#EEEEEE"/>
<path d="M682.308 0.0180664L678.727 0.0180664V13.1486H682.308V15.536L685.889 15.536V19.117H689.47V22.6981L691.857 22.6981V9.56755H688.276V7.18018L685.889 7.18018V3.59912L682.308 3.59912V0.0180664Z" fill="#E62C20"/>
<path d="M704.987 0.0180664L708.568 0.0180664V13.1486H704.987V15.536L701.406 15.536V19.117H697.825V22.6981L695.438 22.6981V9.56755H699.019V7.18018L701.406 7.18018V3.59912L704.987 3.59912V0.0180664Z" fill="#E62C20"/>
<path d="M700.213 23.8926V27.4736L713.343 27.4736V23.8926L715.731 23.8926V20.3115H719.312V16.7305H722.893V14.3431L709.762 14.3431V17.9242H707.375V20.3115H703.794V23.8926H700.213Z" fill="#E62C20"/>
<path d="M722.893 40.604V44.1851H709.762V40.604H707.375V37.0229H703.794V33.4419H700.213V31.0545L713.343 31.0545V34.6356H715.73V37.0229H719.312V40.604H722.893Z" fill="#E62C20"/>
<path d="M704.987 58.5078H708.568V45.3773H704.987V42.9899H701.406V39.4089H697.825V35.8278H695.438V48.9583H699.019V51.3457H701.406V54.9268H704.987V58.5078Z" fill="#E62C20"/>
<path d="M682.308 58.5078H678.727V45.3773H682.308V42.9899H685.889V39.4089H689.47V35.8278H691.857V48.9583H688.276V51.3457H685.889V54.9268H682.308V58.5078Z" fill="#E62C20"/>
<path d="M664.402 17.9233L664.402 14.3423L677.533 14.3423L677.533 17.9233L679.92 17.9233L679.92 21.5044L683.501 21.5044L683.501 25.0854L687.082 25.0854L687.082 27.4728L673.952 27.4728L673.952 23.8918L671.564 23.8918L671.564 21.5044L667.983 21.5044L667.983 17.9233L664.402 17.9233Z" fill="#E62C20"/>
<path d="M687.082 34.6348L687.082 31.0537L673.951 31.0537L673.951 34.6348L671.564 34.6348L671.564 38.2158L667.983 38.2158L667.983 41.7969L664.402 41.7969L664.402 44.1842L677.533 44.1842L677.533 40.6032L679.92 40.6032L679.92 38.2158L683.501 38.2158L683.501 34.6348L687.082 34.6348Z" fill="#E62C20"/>
<rect x="691.855" y="27.4717" width="3.58105" height="3.58105" fill="#E62C20"/>
<path d="M550.446 0.0170898L546.865 0.0170898V13.1476H550.446V15.535L554.027 15.535V19.116H557.608V22.6971L559.996 22.6971V9.56657H556.415V7.1792L554.027 7.1792V3.59814L550.446 3.59814V0.0170898Z" fill="#EEEEEE"/>
<path d="M573.126 0.0170898L576.707 0.0170898V13.1476H573.126V15.535L569.545 15.535V19.116H565.964V22.6971L563.576 22.6971V9.56657H567.158V7.1792L569.545 7.1792V3.59814L573.126 3.59814V0.0170898Z" fill="#EEEEEE"/>
<path d="M568.352 23.8916V27.4727L581.482 27.4727V23.8916L583.869 23.8916V20.3105H587.451V16.7295H591.032V14.3421L577.901 14.3421V17.9232H575.514V20.3105H571.933V23.8916H568.352Z" fill="#EEEEEE"/>
<path d="M591.031 40.603V44.1841H577.901V40.603H575.513V37.022H571.932V33.4409H568.351V31.0535L581.482 31.0535V34.6346H583.869V37.022H587.45V40.603H591.031Z" fill="#EEEEEE"/>
<path d="M573.126 58.5068H576.707V45.3763H573.126V42.9889H569.545V39.4079H565.964V35.8268H563.576V48.9574H567.158V51.3447H569.545V54.9258H573.126V58.5068Z" fill="#EEEEEE"/>
<path d="M550.446 58.5068H546.865V45.3763H550.446V42.9889H554.027V39.4079H557.608V35.8268H559.996V48.9574H556.415V51.3447H554.027V54.9258H550.446V58.5068Z" fill="#EEEEEE"/>
<path d="M532.541 17.9224L532.541 14.3413L545.672 14.3413L545.672 17.9224L548.059 17.9224L548.059 21.5034L551.64 21.5034L551.64 25.0845L555.221 25.0845L555.221 27.4718L542.09 27.4718L542.09 23.8908L539.703 23.8908L539.703 21.5034L536.122 21.5034L536.122 17.9224L532.541 17.9224Z" fill="#EEEEEE"/>
<path d="M555.221 34.6338L555.221 31.0527L542.09 31.0527L542.09 34.6338L539.703 34.6338L539.703 38.2148L536.122 38.2148L536.122 41.7959L532.541 41.7959L532.541 44.1833L545.671 44.1833L545.671 40.6022L548.059 40.6022L548.059 38.2148L551.64 38.2148L551.64 34.6338L555.221 34.6338Z" fill="#EEEEEE"/>
<rect x="559.996" y="27.4736" width="3.58105" height="3.58105" fill="#EEEEEE"/>
<path fill-rule="evenodd" clip-rule="evenodd" d="M492.004 0L499.7 0V3.07813L502.778 3.07813V6.15674H505.858V9.23584H508.936V12.3142L512.014 12.3142V15.3927H515.093V18.4712H518.171V21.5498H521.249V24.6284H524.329V33.8638H521.249V36.9419H518.171V40.0205L515.093 40.0205V43.0988H512.014V46.1773H508.936V49.2559H505.858V52.3345H502.778V55.4116H499.7V58.49H492.004V53.8723H498.16V50.7939H501.24V47.7168H504.318V44.6382H507.396V41.5596H510.475V38.4811H513.553V35.4028L516.631 35.4028V32.3242H519.711V26.1675H516.631V23.0889H513.553V20.0104H510.475V16.9319H507.396V13.8535H504.318V10.7744H501.24V7.6958L498.16 7.6958V4.61768L492.004 4.61768V0Z" fill="#9C4A9A"/>
<path fill-rule="evenodd" clip-rule="evenodd" d="M499.701 0L492.005 0L492.005 3.07861L488.927 3.07861V6.15723H485.847V9.23584H482.769V12.3143L479.691 12.3143V15.3931H476.613V18.4702H473.535V21.5498H470.455V24.6284H467.376V33.8638H470.455V36.9419H473.535V40.0205L476.613 40.0205V43.0972H479.691V46.1775H482.769V49.2559H485.847V52.3345H488.927V55.4116H492.005V58.4902H499.701V53.8725H493.545V50.7939H490.465V47.7168H487.387V44.6382H484.309V41.5598H481.23V38.4795H478.152V35.4028L475.072 35.4028V32.3242H471.994V26.1675H475.072V23.0879H478.152V20.0107H481.23V16.932H484.309V13.8535H487.387V10.7749H490.465V7.69629L493.545 7.69629V4.61768L499.701 4.61768V0Z" fill="#9C4A9A"/>
<rect x="492.004" y="26.1675" width="7.69613" height="7.69613" fill="#9C4A9A"/>
<path fill-rule="evenodd" clip-rule="evenodd" d="M623.867 0L631.563 0V3.07861L634.641 3.07861L634.641 6.15723H637.721V9.23584H640.799V12.3143L643.877 12.3143V15.3911H646.956V18.4712H650.034V21.5498H653.114V24.6284H656.192V33.8638H653.114V36.9419H650.034V40.0186L646.956 40.0186V43.0991H643.877V46.1775H640.799V49.2559H637.721V52.333H634.641V55.4116H631.563V58.4902H623.867V53.8725H630.023V50.7939H633.104V47.7153H636.182V44.6382H639.26V41.5598H642.338V38.4814H645.416V35.4009L648.496 35.4009V32.3242H651.574V26.1675H648.496V23.0889H645.416V20.0088H642.338V16.932H639.26V13.8535H636.182V10.7749H633.104V7.69629L630.023 7.69629V4.61768L623.867 4.61768V0Z" fill="#EEEEEE"/>
<path fill-rule="evenodd" clip-rule="evenodd" d="M631.564 0L623.868 0V3.07813L620.791 3.07813V6.15674H617.71V9.23584H614.632V12.3142L611.554 12.3142V15.3911H608.476V18.4697H605.398V21.5498H602.318V24.6284H599.24V33.8638H602.318V36.9419H605.398V40.0205L608.476 40.0205V43.0986H611.554V46.1773H614.632V49.2559H617.71V52.333H620.791V55.4116H623.868V58.49H631.564V53.8723H625.408V50.7939H622.328V47.7153H619.25V44.6382H616.172V41.5596H613.094V38.481H610.016V35.4028L606.936 35.4028V32.3242H603.857V26.1675H606.936V23.0874H610.016V20.0088H613.094V16.9319H616.172V13.8535H619.25V10.7744H622.328V7.6958L625.408 7.6958V4.61768L631.564 4.61768V0Z" fill="#EEEEEE"/>
<rect x="623.869" y="26.167" width="7.69613" height="7.69613" fill="#EEEEEE"/>
<path d="M682.308 132.802H678.727V145.933H682.308V148.32H685.889V151.901H689.47V155.482H691.857V142.352H688.276V139.964H685.889V136.383H682.308V132.802Z" fill="#F69722"/>
<path d="M704.987 132.802H708.568V145.933H704.987V148.32H701.406V151.901H697.825V155.482H695.438V142.352H699.019V139.964H701.406V136.383H704.987V132.802Z" fill="#F69722"/>
<path d="M700.213 156.677V160.258H713.343V156.677H715.731V153.096H719.312V149.515H722.893V147.127H709.762V150.708H707.375V153.096H703.794V156.677H700.213Z" fill="#F69722"/>
<path d="M664.402 150.708L664.402 147.126L677.533 147.126L677.533 150.708L679.92 150.708L679.92 154.289L683.501 154.289L683.501 157.87L687.082 157.87L687.082 160.257L673.952 160.257L673.952 156.676L671.564 156.676L671.564 154.289L667.983 154.289L667.983 150.708L664.402 150.708Z" fill="#F69722"/>
<rect x="691.855" y="160.255" width="3.58105" height="3.58105" fill="#F69722"/>
<path d="M550.446 132.801H546.865V145.932H550.446V148.319H554.027V151.9H557.608V155.481H559.996V142.351H556.415V139.963H554.027V136.382H550.446V132.801Z" fill="#E62C20"/>
<path d="M573.126 132.801H576.707V145.932H573.126V148.319H569.545V151.9H565.964V155.481H563.576V142.351H567.158V139.963H569.545V136.382H573.126V132.801Z" fill="#E62C20"/>
<path d="M568.352 156.676V160.257H581.482V156.676H583.869V153.095H587.451V149.514H591.032V147.126H577.901V150.707H575.514V153.095H571.933V156.676H568.352Z" fill="#E62C20"/>
<path d="M532.541 150.707L532.541 147.125L545.672 147.125L545.672 150.707L548.059 150.707L548.059 154.288L551.64 154.288L551.64 157.869L555.221 157.869L555.221 160.256L542.09 160.256L542.09 156.675L539.703 156.675L539.703 154.288L536.122 154.288L536.122 150.707L532.541 150.707Z" fill="#E62C20"/>
<rect x="559.996" y="160.258" width="3.58105" height="3.58105" fill="#E62C20"/>
<path fill-rule="evenodd" clip-rule="evenodd" d="M492.004 132.784H499.7V135.863H502.778V138.941H505.858V142.02H508.936V145.099H512.014V148.177H515.093V151.256H518.171V154.334H521.249V157.413H524.329V166.648H521.249V169.727H518.171V172.805H515.093V175.883H512.014V178.962H508.936V182.041H505.858V185.119H502.778V188.196H499.7V191.275H492.004V186.657H498.16V183.578H501.24V180.501H504.318V177.423H507.396V174.344H510.475V171.266H513.553V168.187H516.631V165.109H519.711V158.952H516.631V155.874H513.553V152.795H510.475V149.716H507.396V146.638H504.318V143.559H501.24V140.48H498.16V137.402H492.004V132.784Z" fill="#EEEEEE"/>
<path fill-rule="evenodd" clip-rule="evenodd" d="M499.701 132.784H492.005L492.005 135.863H488.927V138.941H485.847V142.02H482.769V145.099H479.691V148.177H476.613V151.254H473.535V154.334H470.455V157.413H467.376V166.648H470.455V169.726H473.535V172.805H476.613V175.881H479.691V178.962H482.769V182.04H485.847V185.119H488.927V188.196H492.005V191.274H499.701V186.657H493.545V183.578H490.465V180.501H487.387V177.422H484.309V174.344H481.23V171.264H478.152V168.187H475.072V165.108H471.994V158.952H475.072V155.872H478.152V152.795H481.23V149.716H484.309V146.638H487.387V143.559H490.465V140.48H493.545V137.402H499.701V132.784Z" fill="#EEEEEE"/>
<rect x="492.004" y="158.952" width="7.69613" height="7.69613" fill="#EEEEEE"/>
<path fill-rule="evenodd" clip-rule="evenodd" d="M623.867 132.784H631.563V135.863H634.641L634.641 138.941H637.721V142.02H640.799V145.099H643.877V148.175H646.956V151.255H650.034V154.334H653.114V157.413H656.192V166.648H653.114V169.726H650.034V172.803H646.956V175.883H643.877V178.962H640.799V182.04H637.721V185.117H634.641V188.196H631.563V191.274H623.867V186.657H630.023V183.578H633.104V180.5H636.182V177.422H639.26V174.344H642.338V171.266H645.416V168.185H648.496V165.108H651.574V158.952H648.496V155.873H645.416V152.793H642.338V149.716H639.26V146.638H636.182V143.559H633.104V140.48H630.023V137.402H623.867V132.784Z" fill="#EEEEEE"/>
<path fill-rule="evenodd" clip-rule="evenodd" d="M631.564 132.784H623.868V135.863H620.791V138.941H617.71V142.02H614.632V145.099H611.554V148.175H608.476V151.254H605.398V154.334H602.318V157.413H599.24V166.648H602.318V169.726H605.398V172.805H608.476V175.883H611.554V178.962H614.632V182.04H617.71V185.117H620.791V188.196H623.868V191.274H631.564V186.657H625.408V183.578H622.328V180.5H619.25V177.422H616.172V174.344H613.094V171.266H610.016V168.187H606.936V165.108H603.857V158.952H606.936V155.872H610.016V152.793H613.094V149.716H616.172V146.638H619.25V143.559H622.328V140.48H625.408V137.402H631.564V132.784Z" fill="#EEEEEE"/>
<rect x="623.869" y="158.951" width="7.69613" height="7.69613" fill="#EEEEEE"/>
<path d="M487.673 66.2383H484.092V79.3688H487.673V81.7562H491.254V85.3372H494.835V88.9183H497.222V75.7878H493.641V73.4004H491.254V69.8193H487.673L487.673 66.2383Z" fill="#F69722"/>
<path d="M510.353 66.2383H513.934V79.3688H510.353V81.7562H506.771V85.3372H503.19V88.9183H500.803V75.7878H504.384V73.4004H506.771V69.8193H510.353V66.2383Z" fill="#F69722"/>
<path d="M505.578 90.1128V93.6938H518.709V90.1128H521.096V86.5317H524.677V82.9507H528.258V80.5633H515.128V84.1444H512.74V86.5317H509.159V90.1128H505.578Z" fill="#F69722"/>
<path d="M528.258 106.824V110.405H515.127V106.824H512.74V103.243H509.159V99.6621H505.578V97.2747H518.708V100.856H521.096V103.243H524.677V106.824H528.258Z" fill="#F69722"/>
<path d="M510.353 124.728H513.934V111.597H510.353V109.21H506.771V105.629H503.19V102.048H500.803V115.179H504.384V117.566H506.771V121.147H510.353L510.353 124.728Z" fill="#F69722"/>
<path d="M487.673 124.729H484.092V111.599H487.673V109.212H491.254V105.631H494.835V102.049H497.222V115.18H493.641V117.567H491.254V121.148H487.673V124.729Z" fill="#F69722"/>
<path d="M469.768 84.1436L469.768 80.5625L482.898 80.5625L482.898 84.1436L485.285 84.1436L485.285 87.7246L488.867 87.7246L488.867 91.3057L492.448 91.3057L492.448 93.693L479.317 93.693L479.317 90.112L476.93 90.112L476.93 87.7246L473.349 87.7246L473.349 84.1436L469.768 84.1436Z" fill="#F69722"/>
<path d="M492.447 100.855L492.447 97.2739L479.317 97.2739L479.317 100.855L476.929 100.855L476.929 104.436L473.348 104.436L473.348 108.017L469.767 108.017L469.767 110.404L482.898 110.404L482.898 106.823L485.285 106.823L485.285 104.436L488.866 104.436L488.866 100.855L492.447 100.855Z" fill="#F69722"/>
<rect x="497.223" y="93.6924" width="3.58105" height="3.58105" fill="#F69722"/>
<path d="M619.36 66.2383H615.779V79.3688H619.36V81.7562H622.941V85.3372H626.522V88.9183H628.91V75.7878H625.329V73.4004H622.941V69.8193H619.36V66.2383Z" fill="#4A8068"/>
<path d="M642.04 66.2383H645.621V79.3688H642.04V81.7562H638.459V85.3372H634.878V88.9183H632.491V75.7878H636.072V73.4004H638.459V69.8193H642.04V66.2383Z" fill="#4A8068"/>
<path d="M637.266 90.1128V93.6938H650.396V90.1128H652.784V86.5317H656.365V82.9507H659.946V80.5633H646.815V84.1444H644.428V86.5317H640.847V90.1128H637.266Z" fill="#4A8068"/>
<path d="M659.945 106.824V110.405H646.815V106.824H644.427V103.243H640.846V99.6621H637.265V97.2747H650.396V100.856H652.783V103.243H656.364V106.824H659.945Z" fill="#4A8068"/>
<path d="M642.04 124.728H645.621V111.597H642.04V109.21H638.459V105.629H634.878V102.048H632.491V115.179H636.072V117.566H638.459V121.147H642.04V124.728Z" fill="#4A8068"/>
<path d="M619.36 124.728H615.779V111.597H619.36V109.21H622.941V105.629H626.522V102.048H628.91V115.179H625.329V117.566H622.941V121.147H619.36V124.728Z" fill="#4A8068"/>
<path d="M601.455 84.144L601.455 80.563L614.586 80.563L614.586 84.144L616.973 84.144L616.973 87.7251L620.554 87.7251L620.554 91.3062L624.135 91.3062L624.135 93.6935L611.005 93.6935L611.005 90.1125L608.617 90.1125L608.617 87.7251L605.036 87.7251L605.036 84.144L601.455 84.144Z" fill="#4A8068"/>
<path d="M624.135 100.855L624.135 97.2739L611.004 97.2739L611.004 100.855L608.617 100.855L608.617 104.436L605.036 104.436L605.036 108.017L601.455 108.017L601.455 110.404L614.585 110.404L614.585 106.823L616.973 106.823L616.973 104.436L620.554 104.436L620.554 100.855L624.135 100.855Z" fill="#4A8068"/>
<rect x="628.91" y="93.6934" width="3.58105" height="3.58105" fill="#4A8068"/>
<path fill-rule="evenodd" clip-rule="evenodd" d="M561.008 66.2217H568.704V69.3003H571.782L571.782 72.3784H574.862V75.4575H577.94V78.536H581.018V81.6133H584.096V84.6929H587.174V87.7715H590.254V90.8501H593.333V100.085H590.254V103.164H587.174V106.242H584.096V109.321H581.018V112.399H577.94V115.478H574.862V118.555H571.782V121.633H568.704V124.712H561.008V120.094H567.164V117.016H570.244V113.937H573.322V110.86H576.4V107.781H579.479V104.703H582.557V101.625H585.637V98.5459H588.715V92.3892H585.637V89.3105H582.557V86.231H579.479V83.1537H576.4V80.0752H573.322V76.9961H570.244V73.918H567.164V70.8394H561.008V66.2217Z" fill="#EEEEEE"/>
<path fill-rule="evenodd" clip-rule="evenodd" d="M568.705 66.2217H561.009V69.3003H557.931V72.3789H554.851V75.4575H551.773V78.536H548.695V81.6133H545.617V84.6919H542.539V87.7715H539.458V90.8501H536.38V100.085H539.458V103.164H542.539V106.242H545.617V109.319H548.695V112.399H551.773V115.478H554.851V118.555H557.931V121.633H561.009V124.712H568.705V120.094H562.549V117.016H559.469V113.937H556.391V110.86H553.313V107.781H550.234V104.702H547.156V101.625H544.076V98.5459H540.998V92.3892H544.076V89.3096H547.156V86.231H550.234V83.1537H553.313V80.0752H556.391V76.9966H559.469V73.918H562.549V70.8394H568.705V66.2217Z" fill="#EEEEEE"/>
<rect x="561.008" y="92.3887" width="7.69613" height="7.69613" fill="#EEEEEE"/>
<path fill-rule="evenodd" clip-rule="evenodd" d="M692.699 66.2217H700.395V69.3003H703.473L703.473 72.3789H706.553V75.4575H709.631V78.5344H712.709V81.6128H715.788V84.6929H718.866V87.7715H721.946V90.8501H725.024V100.085H721.946V103.162H718.866V106.24H715.788V109.321H712.709V112.399H709.631V115.478H706.553V118.555H703.473V121.633H700.395V124.712H692.699V120.094H698.855V117.016H701.936V113.937H705.014V110.86H708.092V107.781H711.17V104.703H714.248V101.623H717.328V98.5444H720.406V92.3892H717.328V89.3105H714.248V86.2305H711.17V83.152H708.092V80.0752H705.014V76.9966H701.936V73.918H698.855V70.8394H692.699V66.2217Z" fill="#EEEEEE"/>
<path fill-rule="evenodd" clip-rule="evenodd" d="M700.395 66.2217H692.698V69.3003H689.621V72.3789H686.541V75.4575H683.462V78.5344H680.384V81.6128H677.306V84.6919H674.228V87.7715H671.148V90.8501H668.07V100.085H671.148V103.162H674.228V106.242H677.306V109.321H680.384V112.399H683.462V115.478H686.541V118.555H689.621V121.633H692.698V124.712H700.395V120.094H694.238V117.016H691.158V113.937H688.08V110.86H685.002V107.781H681.924V104.703H678.846V101.625H675.766V98.5444H672.687V92.3892H675.766V89.3096H678.846V86.2305H681.924V83.152H685.002V80.0752H688.08V76.9966H691.158V73.918H694.238V70.8394H700.395V66.2217Z" fill="#EEEEEE"/>
<rect x="692.699" y="92.3892" width="7.69613" height="7.69613" fill="#EEEEEE"/>
</g>
<defs>
<clipPath id="clip0_1246_2029">
<rect width="729" height="163" fill="white"/>
</clipPath>
</defs>
</svg>
