<svg width="238" height="44" viewBox="0 0 238 44" fill="none" xmlns="http://www.w3.org/2000/svg">
<path d="M36.2551 35V9.8H48.3871C50.7391 9.8 52.7671 10.184 54.4711 10.952C56.1991 11.72 57.5311 12.824 58.4671 14.264C59.4031 15.68 59.8711 17.36 59.8711 19.304C59.8711 21.248 59.4031 22.928 58.4671 24.344C57.5311 25.76 56.1991 26.864 54.4711 27.656C52.7671 28.424 50.7391 28.808 48.3871 28.808H40.9711L44.7511 25.172V35H36.2551ZM44.7511 26.108L40.9711 22.256H47.8471C49.0231 22.256 49.8871 21.992 50.4391 21.464C51.0151 20.936 51.3031 20.216 51.3031 19.304C51.3031 18.392 51.0151 17.672 50.4391 17.144C49.8871 16.616 49.0231 16.352 47.8471 16.352H40.9711L44.7511 12.5V26.108ZM103.045 35.576C101.005 35.576 99.1093 35.252 97.3573 34.604C95.6293 33.956 94.1293 33.044 92.8573 31.868C91.5853 30.668 90.5893 29.264 89.8693 27.656C89.1733 26.048 88.8253 24.296 88.8253 22.4C88.8253 20.48 89.1733 18.728 89.8693 17.144C90.5893 15.536 91.5853 14.144 92.8573 12.968C94.1293 11.768 95.6293 10.844 97.3573 10.196C99.1093 9.548 101.005 9.224 103.045 9.224C105.109 9.224 107.005 9.548 108.733 10.196C110.461 10.844 111.961 11.768 113.233 12.968C114.505 14.144 115.489 15.536 116.185 17.144C116.905 18.728 117.265 20.48 117.265 22.4C117.265 24.296 116.905 26.048 116.185 27.656C115.489 29.264 114.505 30.668 113.233 31.868C111.961 33.044 110.461 33.956 108.733 34.604C107.005 35.252 105.109 35.576 103.045 35.576ZM103.045 28.7C103.837 28.7 104.569 28.556 105.241 28.268C105.937 27.98 106.537 27.572 107.041 27.044C107.569 26.492 107.977 25.832 108.265 25.064C108.553 24.272 108.697 23.384 108.697 22.4C108.697 21.416 108.553 20.54 108.265 19.772C107.977 18.98 107.569 18.32 107.041 17.792C106.537 17.24 105.937 16.82 105.241 16.532C104.569 16.244 103.837 16.1 103.045 16.1C102.253 16.1 101.509 16.244 100.813 16.532C100.141 16.82 99.5413 17.24 99.0133 17.792C98.5093 18.32 98.1133 18.98 97.8253 19.772C97.5373 20.54 97.3933 21.416 97.3933 22.4C97.3933 23.384 97.5373 24.272 97.8253 25.064C98.1133 25.832 98.5093 26.492 99.0133 27.044C99.5413 27.572 100.141 27.98 100.813 28.268C101.509 28.556 102.253 28.7 103.045 28.7ZM162.151 35.576C158.287 35.576 155.275 34.532 153.115 32.444C150.955 30.356 149.875 27.428 149.875 23.66V9.8H158.371V23.408C158.371 25.328 158.719 26.696 159.415 27.512C160.111 28.304 161.047 28.7 162.223 28.7C163.423 28.7 164.359 28.304 165.031 27.512C165.727 26.696 166.075 25.328 166.075 23.408V9.8H174.427V23.66C174.427 27.428 173.347 30.356 171.187 32.444C169.027 34.532 166.015 35.576 162.151 35.576ZM185.918 29.6L185.45 20.276L194.954 9.8H204.206L193.55 21.536L188.834 26.36L185.918 29.6ZM178.322 35V9.8H186.674V35H178.322ZM194.882 35L187.466 25.208L192.974 19.376L204.71 35H194.882Z" fill="#EEEEEE"/>
<path d="M63.009 35V9.8H75.141C77.493 9.8 79.521 10.184 81.225 10.952C82.953 11.72 84.285 12.824 85.221 14.264C86.157 15.68 86.625 17.36 86.625 19.304C86.625 21.248 86.157 22.928 85.221 24.344C84.285 25.736 82.953 26.804 81.225 27.548C79.521 28.292 77.493 28.664 75.141 28.664H67.725L71.505 25.172V35H63.009ZM78.093 35L71.901 25.82H80.901L87.165 35H78.093ZM71.505 26.108L67.725 22.256H74.601C75.777 22.256 76.641 21.992 77.193 21.464C77.769 20.936 78.057 20.216 78.057 19.304C78.057 18.392 77.769 17.672 77.193 17.144C76.641 16.616 75.777 16.352 74.601 16.352H67.725L71.505 12.5V26.108Z" fill="#4A8068"/>
<path d="M120.349 35V9.8H132.769C135.577 9.8 138.049 10.316 140.185 11.348C142.321 12.356 143.989 13.796 145.189 15.668C146.389 17.54 146.989 19.772 146.989 22.364C146.989 24.98 146.389 27.236 145.189 29.132C143.989 31.004 142.321 32.456 140.185 33.488C138.049 34.496 135.577 35 132.769 35H120.349ZM128.845 28.376H132.409C133.609 28.376 134.653 28.148 135.541 27.692C136.453 27.236 137.161 26.564 137.665 25.676C138.169 24.764 138.421 23.66 138.421 22.364C138.421 21.092 138.169 20.012 137.665 19.124C137.161 18.236 136.453 17.564 135.541 17.108C134.653 16.652 133.609 16.424 132.409 16.424H128.845V28.376Z" fill="#9C4A9A"/>
<path d="M126 29.5V16H139.5L142 27.5L126 29.5Z" fill="#9C4A9A"/>
<path d="M70 23.5V15H81V23.5H70Z" fill="#4A8068"/>
<path d="M9.18341 7H7.34668L7.34668 13.7347H9.18341L9.18341 14.9591H11.0201L11.0201 16.7959H12.8569L12.8569 18.6326H14.0814L14.0814 11.8979H12.2446V10.6735H11.0201V8.83673H9.18341V7Z" fill="#D9D9D9"/>
<path d="M20.8166 7H22.6533V13.7347H20.8166V14.9591H18.9799V16.7959H17.1431V18.6326H15.9186L15.9186 11.8979H17.7554V10.6735H18.9799V8.83673H20.8166V7Z" fill="#D9D9D9"/>
<path d="M18.3672 19.2448V21.0816H25.1019V19.2448H26.3264V17.4081H28.1631V15.5714H29.9998V14.3469H23.2651V16.1836H22.0407V17.4081H20.2039V19.2448H18.3672Z" fill="#D9D9D9"/>
<path d="M30 27.8165V29.6532H23.2653V27.8165H22.0408V25.9798H20.2041V24.1431H18.3673V22.9186H25.102V24.7553H26.3265V25.9798H28.1633V27.8165H30Z" fill="#D9D9D9"/>
<path d="M20.8166 37H22.6533V30.2653H20.8166V29.0409H18.9799V27.2041H17.1431V25.3674H15.9186L15.9186 32.1021H17.7554V33.3265H18.9799V35.1633H20.8166V37Z" fill="#D9D9D9"/>
<path d="M9.18341 37H7.34668L7.34668 30.2653H9.18341L9.18341 29.0409H11.0201V27.2041H12.8569V25.3674H14.0814L14.0814 32.1021H12.2446V33.3265H11.0201V35.1633H9.18341V37Z" fill="#D9D9D9"/>
<path d="M0 16.1837L0 14.347H6.73469L6.73469 16.1837H7.95918L7.95918 18.0204H9.79592L9.79592 19.8571H11.6327V21.0816H4.89796L4.89796 19.2449H3.67347L3.67347 18.0204H1.83673L1.83673 16.1837H0Z" fill="#D9D9D9"/>
<path d="M11.6328 24.7552L11.6328 22.9184L4.89812 22.9184L4.89812 24.7552L3.67363 24.7552L3.67363 26.5919L1.8369 26.5919L1.8369 28.4286L0.00016245 28.4286L0.00016258 29.6531L6.73486 29.6531L6.73486 27.8164L7.95934 27.8164L7.95934 26.5919L9.79608 26.5919L9.79608 24.7552L11.6328 24.7552Z" fill="#D9D9D9"/>
<rect x="14.082" y="21.0816" width="1.83673" height="1.83673" fill="#D9D9D9"/>
<path d="M228.817 38H230.653V31.2653H228.817V30.0409H226.98V28.2041H225.143V26.3674H223.919V33.1021H225.755V34.3265H226.98V36.1633H228.817V38Z" fill="#D9D9D9"/>
<path d="M217.183 38H215.347V31.2653H217.183V30.0409H219.02V28.2041H220.857V26.3674H222.081V33.1021H220.245V34.3265H219.02V36.1633H217.183V38Z" fill="#D9D9D9"/>
<path d="M219.633 25.7552V23.9184L212.898 23.9184V25.7552H211.674V27.5919H209.837V29.4286H208V30.6531L214.735 30.6531V28.8164H215.959V27.5919H217.796V25.7552H219.633Z" fill="#D9D9D9"/>
<path d="M208 17.1835V15.3468L214.735 15.3468V17.1835H215.959V19.0202H217.796V20.8569H219.633V22.0814L212.898 22.0814V20.2447H211.673V19.0202H209.837V17.1835H208Z" fill="#D9D9D9"/>
<path d="M217.183 8L215.347 8V14.7347H217.183V15.9591H219.02V17.7959H220.857V19.6326H222.081V12.8979H220.245V11.6735H219.02V9.83673L217.183 9.83673V8Z" fill="#D9D9D9"/>
<path d="M228.817 8H230.653V14.7347H228.817V15.9591H226.98V17.7959H225.143V19.6326H223.919V12.8979H225.755V11.6735H226.98V9.83673L228.817 9.83673V8Z" fill="#D9D9D9"/>
<path d="M238 28.8163V30.653L231.265 30.653V28.8163H230.041V26.9796H228.204V25.1429H226.367V23.9184L233.102 23.9184V25.7551H234.327V26.9796H236.163V28.8163H238Z" fill="#D9D9D9"/>
<path d="M226.367 20.2448L226.367 22.0816L233.102 22.0816L233.102 20.2448L234.326 20.2448L234.326 18.4081L236.163 18.4081L236.163 16.5714L238 16.5714L238 15.3469L231.265 15.3469L231.265 17.1836L230.041 17.1836L230.041 18.4081L228.204 18.4081L228.204 20.2448L226.367 20.2448Z" fill="#D9D9D9"/>
<rect x="223.918" y="23.9184" width="1.83673" height="1.83673" transform="rotate(180 223.918 23.9184)" fill="#D9D9D9"/>
</svg>
