<svg width="580" height="60" viewBox="0 0 580 60" fill="none" xmlns="http://www.w3.org/2000/svg">
<path d="M579.998 30L34.6297 30" stroke="#EEEEEE" stroke-width="5" stroke-linejoin="round"/>
<path d="M38.8407 60H42.1797V46.5307H38.8407V44.0817H35.5017V40.4083H32.1627V36.7348H29.9367L29.9367 50.2041H33.2757V52.6531H35.5017V56.3265H38.8407V60Z" fill="#D9D9D9"/>
<path d="M17.6925 60H14.3535L14.3535 46.5307H17.6925V44.0817H21.0315V40.4083H24.3705V36.7348H26.5965L26.5965 50.2041H23.2575V52.6531H21.0315V56.3265H17.6925V60Z" fill="#D9D9D9"/>
<path d="M22.1445 35.5104V31.8369L9.90157 31.8369V35.5104H7.67558L7.67558 39.1838H4.33659L4.33659 42.8573H0.9976V45.3062L13.2406 45.3062L13.2406 41.6328H15.4666V39.1838H18.8055V35.5104H22.1445Z" fill="#D9D9D9"/>
<path d="M0.998047 18.3668L0.998047 14.6934L13.241 14.6934V18.3668H15.467L15.467 22.0403L18.806 22.0403L18.806 25.7137H22.145V28.1627L9.90202 28.1627L9.90202 24.4892L7.67602 24.4892V22.0403L4.33704 22.0403L4.33704 18.3668H0.998047Z" fill="#D9D9D9"/>
<path d="M17.6925 0L14.3535 0L14.3535 13.4693L17.6925 13.4693V15.9183H21.0315V19.5917H24.3705L24.3705 23.2652H26.5965L26.5965 9.79587H23.2575V7.3469H21.0315V3.67345L17.6925 3.67345V0Z" fill="#D9D9D9"/>
<path d="M38.8407 0L42.1797 0V13.4693L38.8407 13.4693V15.9183H35.5017L35.5017 19.5917H32.1627L32.1627 23.2652H29.9367L29.9367 9.79587H33.2757V7.3469H35.5017V3.67345L38.8407 3.67345V0Z" fill="#D9D9D9"/>
<path d="M55.5352 41.6327V45.3062L43.2922 45.3062V41.6327H41.0662V37.9593H37.7272V34.2858H34.3882V31.8368L46.6312 31.8368V35.5103H48.8572V37.9593H52.1962V41.6327H55.5352Z" fill="#D9D9D9"/>
<path d="M34.3867 24.4896L34.3867 28.1631L46.6297 28.1631L46.6297 24.4896L48.8557 24.4896L48.8557 20.8162L52.1947 20.8162L52.1947 17.1427L55.5336 17.1427L55.5336 14.6938L43.2907 14.6938L43.2907 18.3672L41.0647 18.3672L41.0647 20.8162L37.7257 20.8162L37.7257 24.4896L34.3867 24.4896Z" fill="#D9D9D9"/>
<rect x="29.9355" y="31.8369" width="3.33899" height="3.67345" transform="rotate(180 29.9355 31.8369)" fill="#D9D9D9"/>
</svg>
