<svg width="586" height="60" viewBox="0 0 586 60" fill="none" xmlns="http://www.w3.org/2000/svg">
<path d="M0 30L551.962 30" stroke="#EEEEEE" stroke-width="5" stroke-linejoin="round"/>
<path d="M547.7 0L544.32 0V13.4693H547.7V15.9183L551.079 15.9183V19.5917L554.458 19.5917V23.2652H556.711V9.79587H553.332V7.3469H551.079V3.67345L547.7 3.67345V0Z" fill="#D9D9D9"/>
<path d="M569.103 0L572.482 0V13.4693H569.103V15.9183L565.724 15.9183V19.5917L562.344 19.5917V23.2652H560.091V9.79587H563.471V7.3469H565.724V3.67345L569.103 3.67345V0Z" fill="#D9D9D9"/>
<path d="M564.596 24.4896V28.1631L576.987 28.1631V24.4896H579.24V20.8162H582.619V17.1427L585.998 17.1427V14.6938L573.607 14.6938V18.3672H571.354V20.8162H567.975V24.4896H564.596Z" fill="#D9D9D9"/>
<path d="M585.998 41.6332V45.3066H573.607V41.6332H571.354V37.9597H567.975V34.2863L564.595 34.2863V31.8373L576.986 31.8373V35.5108H579.239V37.9597H582.619V41.6332H585.998Z" fill="#D9D9D9"/>
<path d="M569.103 60H572.482V46.5307H569.103V44.0817H565.724V40.4083H562.344V36.7348H560.091V50.2041H563.471V52.6531H565.724L565.724 56.3265H569.103V60Z" fill="#D9D9D9"/>
<path d="M547.7 60H544.32V46.5307H547.7V44.0817H551.079V40.4083H554.458V36.7348H556.711V50.2041H553.332V52.6531H551.079V56.3265H547.7V60Z" fill="#D9D9D9"/>
<path d="M530.803 18.3673V14.6938L543.194 14.6938V18.3673H545.447V22.0407H548.826V25.7142L552.205 25.7142V28.1632L539.814 28.1632V24.4897H537.561V22.0407H534.182V18.3673H530.803Z" fill="#D9D9D9"/>
<path d="M552.205 35.5104L552.205 31.8369L539.814 31.8369L539.814 35.5104L537.561 35.5104L537.561 39.1838L534.182 39.1838L534.182 42.8573L530.802 42.8573L530.802 45.3062L543.193 45.3062L543.193 41.6328L545.446 41.6328L545.446 39.1838L548.826 39.1838L548.826 35.5104L552.205 35.5104Z" fill="#D9D9D9"/>
<rect x="556.713" y="28.1631" width="3.37936" height="3.67345" fill="#D9D9D9"/>
</svg>
