<svg width="152" height="29" viewBox="0 0 152 29" fill="none" xmlns="http://www.w3.org/2000/svg">
<rect width="152" height="29" fill="#4A8068"/>
<path d="M19.28 22V8H24.52C25.7067 8 26.7267 8.19333 27.58 8.58C28.4333 8.95333 29.0867 9.5 29.54 10.22C30.0067 10.9267 30.24 11.7867 30.24 12.8C30.24 13.7867 30.0067 14.64 29.54 15.36C29.0867 16.0667 28.4333 16.6133 27.58 17C26.7267 17.3867 25.7067 17.58 24.52 17.58H20.1L20.76 16.88V22H19.28ZM20.76 17L20.1 16.28H24.48C25.88 16.28 26.94 15.98 27.66 15.38C28.3933 14.7667 28.76 13.9067 28.76 12.8C28.76 11.68 28.3933 10.8133 27.66 10.2C26.94 9.58667 25.88 9.28 24.48 9.28H20.1L20.76 8.58V17ZM33.4402 22V8H38.6802C39.8668 8 40.8868 8.19333 41.7402 8.58C42.5935 8.95333 43.2468 9.5 43.7002 10.22C44.1668 10.9267 44.4002 11.7867 44.4002 12.8C44.4002 13.7867 44.1668 14.64 43.7002 15.36C43.2468 16.0667 42.5935 16.6133 41.7402 17C40.8868 17.3733 39.8668 17.56 38.6802 17.56H34.2602L34.9202 16.88V22H33.4402ZM43.0002 22L39.4002 16.92H41.0002L44.6202 22H43.0002ZM34.9202 17L34.2602 16.3H38.6402C40.0402 16.3 41.1002 15.9933 41.8202 15.38C42.5535 14.7667 42.9202 13.9067 42.9202 12.8C42.9202 11.68 42.5535 10.8133 41.8202 10.2C41.1002 9.58667 40.0402 9.28 38.6402 9.28H34.2602L34.9202 8.58V17ZM49.2133 14.26H56.6133V15.52H49.2133V14.26ZM49.3733 20.72H57.7933V22H47.8933V8H57.4933V9.28H49.3733V20.72ZM67.3531 22.12C66.2998 22.12 65.3198 21.9467 64.4131 21.6C63.5198 21.24 62.7398 20.74 62.0731 20.1C61.4198 19.4467 60.9065 18.6933 60.5331 17.84C60.1731 16.9733 59.9931 16.0267 59.9931 15C59.9931 13.9733 60.1731 13.0333 60.5331 12.18C60.9065 11.3133 61.4198 10.56 62.0731 9.92C62.7398 9.26667 63.5198 8.76667 64.4131 8.42C65.3065 8.06 66.2865 7.88 67.3531 7.88C68.4065 7.88 69.3798 8.06 70.2731 8.42C71.1665 8.76667 71.9398 9.26 72.5931 9.9C73.2598 10.54 73.7731 11.2933 74.1331 12.16C74.5065 13.0267 74.6931 13.9733 74.6931 15C74.6931 16.0267 74.5065 16.9733 74.1331 17.84C73.7731 18.7067 73.2598 19.46 72.5931 20.1C71.9398 20.74 71.1665 21.24 70.2731 21.6C69.3798 21.9467 68.4065 22.12 67.3531 22.12ZM67.3531 20.8C68.1931 20.8 68.9665 20.66 69.6731 20.38C70.3931 20.0867 71.0131 19.68 71.5331 19.16C72.0665 18.6267 72.4798 18.0133 72.7731 17.32C73.0665 16.6133 73.2131 15.84 73.2131 15C73.2131 14.16 73.0665 13.3933 72.7731 12.7C72.4798 11.9933 72.0665 11.38 71.5331 10.86C71.0131 10.3267 70.3931 9.92 69.6731 9.64C68.9665 9.34667 68.1931 9.2 67.3531 9.2C66.5131 9.2 65.7331 9.34667 65.0131 9.64C64.2931 9.92 63.6665 10.3267 63.1331 10.86C62.6131 11.38 62.1998 11.9933 61.8931 12.7C61.5998 13.3933 61.4531 14.16 61.4531 15C61.4531 15.8267 61.5998 16.5933 61.8931 17.3C62.1998 18.0067 62.6131 18.6267 63.1331 19.16C63.6665 19.68 64.2931 20.0867 65.0131 20.38C65.7331 20.66 66.5131 20.8 67.3531 20.8ZM78.0105 22V8H83.2505C84.4371 8 85.4571 8.19333 86.3105 8.58C87.1638 8.95333 87.8171 9.5 88.2705 10.22C88.7371 10.9267 88.9705 11.7867 88.9705 12.8C88.9705 13.7867 88.7371 14.64 88.2705 15.36C87.8171 16.0667 87.1638 16.6133 86.3105 17C85.4571 17.3733 84.4371 17.56 83.2505 17.56H78.8305L79.4905 16.88V22H78.0105ZM87.5705 22L83.9705 16.92H85.5705L89.1905 22H87.5705ZM79.4905 17L78.8305 16.3H83.2105C84.6105 16.3 85.6705 15.9933 86.3905 15.38C87.1238 14.7667 87.4905 13.9067 87.4905 12.8C87.4905 11.68 87.1238 10.8133 86.3905 10.2C85.6705 9.58667 84.6105 9.28 83.2105 9.28H78.8305L79.4905 8.58V17ZM92.4636 22V8H98.1636C99.6569 8 100.964 8.3 102.084 8.9C103.217 9.48667 104.097 10.3067 104.724 11.36C105.35 12.4133 105.664 13.6267 105.664 15C105.664 16.3733 105.35 17.5867 104.724 18.64C104.097 19.6933 103.217 20.52 102.084 21.12C100.964 21.7067 99.6569 22 98.1636 22H92.4636ZM93.9436 20.72H98.0836C99.3236 20.72 100.397 20.48 101.304 20C102.224 19.5067 102.937 18.8333 103.444 17.98C103.95 17.1133 104.204 16.12 104.204 15C104.204 13.8667 103.95 12.8733 103.444 12.02C102.937 11.1667 102.224 10.5 101.304 10.02C100.397 9.52667 99.3236 9.28 98.0836 9.28H93.9436V20.72ZM110.307 14.26H117.707V15.52H110.307V14.26ZM110.467 20.72H118.887V22H108.987V8H118.587V9.28H110.467V20.72ZM122.366 22V8H127.606C128.793 8 129.813 8.19333 130.666 8.58C131.519 8.95333 132.173 9.5 132.626 10.22C133.093 10.9267 133.326 11.7867 133.326 12.8C133.326 13.7867 133.093 14.64 132.626 15.36C132.173 16.0667 131.519 16.6133 130.666 17C129.813 17.3733 128.793 17.56 127.606 17.56H123.186L123.846 16.88V22H122.366ZM131.926 22L128.326 16.92H129.926L133.546 22H131.926ZM123.846 17L123.186 16.3H127.566C128.966 16.3 130.026 15.9933 130.746 15.38C131.479 14.7667 131.846 13.9067 131.846 12.8C131.846 11.68 131.479 10.8133 130.746 10.2C130.026 9.58667 128.966 9.28 127.566 9.28H123.186L123.846 8.58V17Z" fill="white"/>
</svg>
