<svg width="238" height="61" viewBox="0 0 238 61" fill="none" xmlns="http://www.w3.org/2000/svg">
<path d="M3.07656 48V13H19.9266C23.1932 13 26.0099 13.5333 28.3766 14.6C30.7766 15.6667 32.6266 17.2 33.9266 19.2C35.2266 21.1667 35.8766 23.5 35.8766 26.2C35.8766 28.9 35.2266 31.2333 33.9266 33.2C32.6266 35.1667 30.7766 36.7 28.3766 37.8C26.0099 38.8667 23.1932 39.4 19.9266 39.4H9.62656L14.8766 34.35V48H3.07656ZM14.8766 35.65L9.62656 30.3H19.1766C20.8099 30.3 22.0099 29.9333 22.7766 29.2C23.5766 28.4667 23.9766 27.4667 23.9766 26.2C23.9766 24.9333 23.5766 23.9333 22.7766 23.2C22.0099 22.4667 20.8099 22.1 19.1766 22.1H9.62656L14.8766 16.75V35.65ZM95.8406 48.8C93.0073 48.8 90.374 48.35 87.9406 47.45C85.5406 46.55 83.4573 45.2833 81.6906 43.65C79.924 41.9833 78.5406 40.0333 77.5406 37.8C76.574 35.5667 76.0906 33.1333 76.0906 30.5C76.0906 27.8333 76.574 25.4 77.5406 23.2C78.5406 20.9667 79.924 19.0333 81.6906 17.4C83.4573 15.7333 85.5406 14.45 87.9406 13.55C90.374 12.65 93.0073 12.2 95.8406 12.2C98.7073 12.2 101.341 12.65 103.741 13.55C106.141 14.45 108.224 15.7333 109.991 17.4C111.757 19.0333 113.124 20.9667 114.091 23.2C115.091 25.4 115.591 27.8333 115.591 30.5C115.591 33.1333 115.091 35.5667 114.091 37.8C113.124 40.0333 111.757 41.9833 109.991 43.65C108.224 45.2833 106.141 46.55 103.741 47.45C101.341 48.35 98.7073 48.8 95.8406 48.8ZM95.8406 39.25C96.9406 39.25 97.9573 39.05 98.8906 38.65C99.8573 38.25 100.691 37.6833 101.391 36.95C102.124 36.1833 102.691 35.2667 103.091 34.2C103.491 33.1 103.691 31.8667 103.691 30.5C103.691 29.1333 103.491 27.9167 103.091 26.85C102.691 25.75 102.124 24.8333 101.391 24.1C100.691 23.3333 99.8573 22.75 98.8906 22.35C97.9573 21.95 96.9406 21.75 95.8406 21.75C94.7406 21.75 93.7073 21.95 92.7406 22.35C91.8073 22.75 90.974 23.3333 90.2406 24.1C89.5406 24.8333 88.9906 25.75 88.5906 26.85C88.1906 27.9167 87.9906 29.1333 87.9906 30.5C87.9906 31.8667 88.1906 33.1 88.5906 34.2C88.9906 35.2667 89.5406 36.1833 90.2406 36.95C90.974 37.6833 91.8073 38.25 92.7406 38.65C93.7073 39.05 94.7406 39.25 95.8406 39.25ZM177.932 48.8C172.565 48.8 168.382 47.35 165.382 44.45C162.382 41.55 160.882 37.4833 160.882 32.25V13H172.682V31.9C172.682 34.5667 173.165 36.4667 174.132 37.6C175.099 38.7 176.399 39.25 178.032 39.25C179.699 39.25 180.999 38.7 181.932 37.6C182.899 36.4667 183.382 34.5667 183.382 31.9V13H194.982V32.25C194.982 37.4833 193.482 41.55 190.482 44.45C187.482 47.35 183.299 48.8 177.932 48.8ZM210.941 40.5L210.291 27.55L223.491 13H236.341L221.541 29.3L214.991 36L210.941 40.5ZM200.391 48V13H211.991V48H200.391ZM223.391 48L213.091 34.4L220.741 26.3L237.041 48H223.391Z" fill="#EEEEEE"/>
<path d="M40.2348 48V13H57.0848C60.3514 13 63.1681 13.5333 65.5348 14.6C67.9348 15.6667 69.7848 17.2 71.0848 19.2C72.3848 21.1667 73.0348 23.5 73.0348 26.2C73.0348 28.9 72.3848 31.2333 71.0848 33.2C69.7848 35.1333 67.9348 36.6167 65.5348 37.65C63.1681 38.6833 60.3514 39.2 57.0848 39.2H46.7848L52.0348 34.35V48H40.2348ZM61.1848 48L52.5848 35.25H65.0848L73.7848 48H61.1848ZM52.0348 35.65L46.7848 30.3H56.3348C57.9681 30.3 59.1681 29.9333 59.9348 29.2C60.7348 28.4667 61.1348 27.4667 61.1348 26.2C61.1348 24.9333 60.7348 23.9333 59.9348 23.2C59.1681 22.4667 57.9681 22.1 56.3348 22.1H46.7848L52.0348 16.75V35.65Z" fill="#4A8068"/>
<path d="M119.873 48V13H137.123C141.023 13 144.457 13.7167 147.423 15.15C150.39 16.55 152.707 18.55 154.373 21.15C156.04 23.75 156.873 26.85 156.873 30.45C156.873 34.0833 156.04 37.2167 154.373 39.85C152.707 42.45 150.39 44.4667 147.423 45.9C144.457 47.3 141.023 48 137.123 48H119.873ZM131.673 38.8H136.623C138.29 38.8 139.74 38.4833 140.973 37.85C142.24 37.2167 143.223 36.2833 143.923 35.05C144.623 33.7833 144.973 32.25 144.973 30.45C144.973 28.6833 144.623 27.1833 143.923 25.95C143.223 24.7167 142.24 23.7833 140.973 23.15C139.74 22.5167 138.29 22.2 136.623 22.2H131.673V38.8Z" fill="#9C4A9A"/>
<path d="M45.9989 36H63.6758V16H45.9989V36Z" fill="#4A8068"/>
<path d="M127.999 41H145.676V21H127.999V41Z" fill="#9C4A9A"/>
</svg>
