<svg width="1440" height="62" viewBox="0 0 1440 62" fill="none" xmlns="http://www.w3.org/2000/svg">
<path d="M1440 30L894.63 30" stroke="#EEEEEE" stroke-width="5" stroke-linejoin="round"/>
<path d="M898.841 60H902.18V46.5307H898.841V44.0817H895.502V40.4083H892.163V36.7348H889.937V50.2041H893.276V52.6531H895.502V56.3265H898.841V60Z" fill="#D9D9D9"/>
<path d="M877.693 60H874.354V46.5307H877.693V44.0817H881.031V40.4083H884.37V36.7348H886.596V50.2041H883.257V52.6531H881.031V56.3265H877.693L877.693 60Z" fill="#D9D9D9"/>
<path d="M882.145 35.5104V31.8369L869.902 31.8369V35.5104H867.676V39.1838H864.337V42.8573H860.998V45.3062L873.241 45.3062V41.6328H875.467V39.1838H878.806V35.5104H882.145Z" fill="#D9D9D9"/>
<path d="M860.998 18.3668V14.6934L873.241 14.6934V18.3668H875.467V22.0403L878.806 22.0403V25.7137H882.145V28.1627L869.902 28.1627V24.4892L867.676 24.4892V22.0403L864.337 22.0403V18.3668H860.998Z" fill="#D9D9D9"/>
<path d="M877.693 0L874.354 0V13.4693L877.693 13.4693V15.9183H881.031V19.5917H884.37V23.2652H886.596V9.79587H883.257V7.3469H881.031V3.67345L877.693 3.67345V0Z" fill="#D9D9D9"/>
<path d="M898.841 0L902.18 0V13.4693L898.841 13.4693V15.9183H895.502V19.5917H892.163V23.2652H889.937V9.79587H893.276V7.3469H895.502V3.67345L898.841 3.67345L898.841 0Z" fill="#D9D9D9"/>
<path d="M915.535 41.6327V45.3062L903.292 45.3062V41.6327H901.066V37.9593H897.727V34.2858H894.388V31.8368L906.631 31.8368L906.631 35.5103H908.857V37.9593H912.196V41.6327H915.535Z" fill="#D9D9D9"/>
<path d="M894.387 24.4896L894.387 28.1631L906.63 28.1631L906.63 24.4896L908.856 24.4896L908.856 20.8162L912.195 20.8162L912.195 17.1427L915.534 17.1427L915.534 14.6938L903.291 14.6938L903.291 18.3672L901.065 18.3672L901.065 20.8162L897.726 20.8162L897.726 24.4896L894.387 24.4896Z" fill="#D9D9D9"/>
<rect x="889.936" y="31.8369" width="3.33899" height="3.67345" transform="rotate(180 889.936 31.8369)" fill="#D9D9D9"/>
<path d="M0 32L551.962 32" stroke="#EEEEEE" stroke-width="5" stroke-linejoin="round"/>
<path d="M547.7 2L544.32 2V15.4693H547.7V17.9183H551.079V21.5917L554.458 21.5917V25.2652H556.711V11.7959H553.332V9.3469H551.079V5.67345L547.7 5.67345V2Z" fill="#D9D9D9"/>
<path d="M569.103 2L572.482 2V15.4693H569.103V17.9183H565.724V21.5917L562.344 21.5917V25.2652H560.091V11.7959H563.471V9.3469H565.724V5.67345L569.103 5.67345V2Z" fill="#D9D9D9"/>
<path d="M564.596 26.4896V30.1631L576.987 30.1631V26.4896H579.24V22.8162H582.619V19.1427L585.998 19.1427V16.6938L573.607 16.6938V20.3672H571.354V22.8162H567.975V26.4896H564.596Z" fill="#D9D9D9"/>
<path d="M585.998 43.6332V47.3066H573.607V43.6332H571.354V39.9597H567.975V36.2863L564.595 36.2863V33.8373L576.986 33.8373V37.5108H579.239V39.9597H582.619V43.6332H585.998Z" fill="#D9D9D9"/>
<path d="M569.103 62H572.482V48.5307H569.103V46.0817H565.724V42.4083H562.344V38.7348H560.091V52.2041H563.471V54.6531H565.724L565.724 58.3265H569.103V62Z" fill="#D9D9D9"/>
<path d="M547.7 62H544.32V48.5307H547.7V46.0817H551.079V42.4083H554.458V38.7348H556.711V52.2041H553.332V54.6531H551.079V58.3265H547.7V62Z" fill="#D9D9D9"/>
<path d="M530.803 20.3673V16.6938L543.194 16.6938V20.3673H545.447V24.0407H548.826V27.7142L552.205 27.7142V30.1632L539.814 30.1632V26.4897H537.561V24.0407H534.182V20.3673H530.803Z" fill="#D9D9D9"/>
<path d="M552.205 37.5104L552.205 33.8369L539.814 33.8369L539.814 37.5104L537.561 37.5104L537.561 41.1838L534.182 41.1838L534.182 44.8573L530.802 44.8573L530.802 47.3062L543.193 47.3062L543.193 43.6328L545.446 43.6328L545.446 41.1838L548.826 41.1838L548.826 37.5104L552.205 37.5104Z" fill="#D9D9D9"/>
<rect x="556.713" y="30.1631" width="3.37936" height="3.67345" fill="#D9D9D9"/>
<path d="M609.077 49V14H625.927C629.193 14 632.01 14.5333 634.377 15.6C636.777 16.6667 638.627 18.2 639.927 20.2C641.227 22.1667 641.877 24.5 641.877 27.2C641.877 29.9 641.227 32.2333 639.927 34.2C638.627 36.1667 636.777 37.7 634.377 38.8C632.01 39.8667 629.193 40.4 625.927 40.4H615.627L620.877 35.35V49H609.077ZM620.877 36.65L615.627 31.3H625.177C626.81 31.3 628.01 30.9333 628.777 30.2C629.577 29.4667 629.977 28.4667 629.977 27.2C629.977 25.9333 629.577 24.9333 628.777 24.2C628.01 23.4667 626.81 23.1 625.177 23.1H615.627L620.877 17.75V36.65ZM701.841 49.8C699.007 49.8 696.374 49.35 693.941 48.45C691.541 47.55 689.457 46.2833 687.691 44.65C685.924 42.9833 684.541 41.0333 683.541 38.8C682.574 36.5667 682.091 34.1333 682.091 31.5C682.091 28.8333 682.574 26.4 683.541 24.2C684.541 21.9667 685.924 20.0333 687.691 18.4C689.457 16.7333 691.541 15.45 693.941 14.55C696.374 13.65 699.007 13.2 701.841 13.2C704.707 13.2 707.341 13.65 709.741 14.55C712.141 15.45 714.224 16.7333 715.991 18.4C717.757 20.0333 719.124 21.9667 720.091 24.2C721.091 26.4 721.591 28.8333 721.591 31.5C721.591 34.1333 721.091 36.5667 720.091 38.8C719.124 41.0333 717.757 42.9833 715.991 44.65C714.224 46.2833 712.141 47.55 709.741 48.45C707.341 49.35 704.707 49.8 701.841 49.8ZM701.841 40.25C702.941 40.25 703.957 40.05 704.891 39.65C705.857 39.25 706.691 38.6833 707.391 37.95C708.124 37.1833 708.691 36.2667 709.091 35.2C709.491 34.1 709.691 32.8667 709.691 31.5C709.691 30.1333 709.491 28.9167 709.091 27.85C708.691 26.75 708.124 25.8333 707.391 25.1C706.691 24.3333 705.857 23.75 704.891 23.35C703.957 22.95 702.941 22.75 701.841 22.75C700.741 22.75 699.707 22.95 698.741 23.35C697.807 23.75 696.974 24.3333 696.241 25.1C695.541 25.8333 694.991 26.75 694.591 27.85C694.191 28.9167 693.991 30.1333 693.991 31.5C693.991 32.8667 694.191 34.1 694.591 35.2C694.991 36.2667 695.541 37.1833 696.241 37.95C696.974 38.6833 697.807 39.25 698.741 39.65C699.707 40.05 700.741 40.25 701.841 40.25ZM783.932 49.8C778.565 49.8 774.382 48.35 771.382 45.45C768.382 42.55 766.882 38.4833 766.882 33.25V14H778.682V32.9C778.682 35.5667 779.165 37.4667 780.132 38.6C781.099 39.7 782.399 40.25 784.032 40.25C785.699 40.25 786.999 39.7 787.932 38.6C788.899 37.4667 789.382 35.5667 789.382 32.9V14H800.982V33.25C800.982 38.4833 799.482 42.55 796.482 45.45C793.482 48.35 789.299 49.8 783.932 49.8ZM816.941 41.5L816.291 28.55L829.491 14H842.341L827.541 30.3L820.991 37L816.941 41.5ZM806.391 49V14H817.991V49H806.391ZM829.391 49L819.091 35.4L826.741 27.3L843.041 49H829.391Z" fill="#EEEEEE"/>
<path d="M646.235 49V14H663.085C666.351 14 669.168 14.5333 671.535 15.6C673.935 16.6667 675.785 18.2 677.085 20.2C678.385 22.1667 679.035 24.5 679.035 27.2C679.035 29.9 678.385 32.2333 677.085 34.2C675.785 36.1333 673.935 37.6167 671.535 38.65C669.168 39.6833 666.351 40.2 663.085 40.2H652.785L658.035 35.35V49H646.235ZM667.185 49L658.585 36.25H671.085L679.785 49H667.185ZM658.035 36.65L652.785 31.3H662.335C663.968 31.3 665.168 30.9333 665.935 30.2C666.735 29.4667 667.135 28.4667 667.135 27.2C667.135 25.9333 666.735 24.9333 665.935 24.2C665.168 23.4667 663.968 23.1 662.335 23.1H652.785L658.035 17.75V36.65Z" fill="#4A8068"/>
<path d="M725.873 49V14H743.123C747.023 14 750.457 14.7167 753.423 16.15C756.39 17.55 758.707 19.55 760.373 22.15C762.04 24.75 762.873 27.85 762.873 31.45C762.873 35.0833 762.04 38.2167 760.373 40.85C758.707 43.45 756.39 45.4667 753.423 46.9C750.457 48.3 747.023 49 743.123 49H725.873ZM737.673 39.8H742.623C744.29 39.8 745.74 39.4833 746.973 38.85C748.24 38.2167 749.223 37.2833 749.923 36.05C750.623 34.7833 750.973 33.25 750.973 31.45C750.973 29.6833 750.623 28.1833 749.923 26.95C749.223 25.7167 748.24 24.7833 746.973 24.15C745.74 23.5167 744.29 23.2 742.623 23.2H737.673V39.8Z" fill="#9C4A9A"/>
<path d="M651.999 37H669.676V17H651.999V37Z" fill="#4A8068"/>
<path d="M733.999 42H751.676V22H733.999V42Z" fill="#9C4A9A"/>
</svg>
