<svg width="32" height="38" viewBox="0 0 32 38" fill="none" xmlns="http://www.w3.org/2000/svg">
<path fill-rule="evenodd" clip-rule="evenodd" d="M23.5 4C23.7504 4 23.9906 4.11288 24.1677 4.31379C24.3448 4.51471 24.4443 4.78722 24.4443 5.07136V30.3405L30.3859 23.5973C30.5632 23.3961 30.8037 23.2831 31.0545 23.2831C31.3053 23.2831 31.5458 23.3961 31.7231 23.5973C31.9004 23.7985 32 24.0713 32 24.3558C32 24.6403 31.9004 24.9132 31.7231 25.1144L24.1686 33.6852C24.0809 33.785 23.9766 33.8642 23.8619 33.9182C23.7472 33.9722 23.6242 34 23.5 34C23.3758 34 23.2528 33.9722 23.1381 33.9182C23.0234 33.8642 22.9191 33.785 22.8314 33.6852L15.2769 25.1144C15.0996 24.9132 15 24.6403 15 24.3558C15 24.0713 15.0996 23.7985 15.2769 23.5973C15.4542 23.3961 15.6947 23.2831 15.9455 23.2831C16.1963 23.2831 16.4368 23.3961 16.6141 23.5973L22.5557 30.3405V5.07136C22.5557 4.78722 22.6552 4.51471 22.8323 4.31379C23.0094 4.11288 23.2496 4 23.5 4Z" fill="#EEEEEE"/>
<path d="M1.98011 15H0.502841L4.77557 3.36364H6.23011L10.5028 15H9.02557L5.5483 5.20455H5.45739L1.98011 15ZM2.52557 10.4545H8.48011V11.7045H2.52557V10.4545ZM1.52273 34V32.9773L7.79545 23.6136H1.45455V22.3636H9.47727V23.3864L3.20455 32.75H9.54545V34H1.52273Z" fill="#EEEEEE"/>
</svg>
