<svg width="19" height="19" viewBox="0 0 19 19" fill="none" xmlns="http://www.w3.org/2000/svg">
<path d="M2.1407 0.0610409C1.35021 0.270945 0.644576 0.842596 0.287293 1.57503C-0.0253298 2.20474 -0.00746559 1.66435 0.00593253 9.61837L0.0193307 16.8042L0.135448 17.1034C0.465935 17.952 1.05992 18.546 1.90847 18.8765L2.20769 18.9926H9.46501H16.7223L17.0349 18.8943C17.9058 18.6174 18.6249 17.8984 18.9017 17.0275L19 16.7149V9.45759V2.20027L18.8839 1.90105C18.5534 1.04803 17.9639 0.458517 17.1109 0.128031L16.8116 0.0119133L9.59899 0.00298119C3.41799 -0.00595093 2.3506 0.00298309 2.1407 0.0610409ZM6.07082 6.73777C6.22266 6.80476 6.68266 7.23797 7.88849 8.4438L9.50967 10.0605L11.1264 8.4438C12.0196 7.55952 12.819 6.79583 12.9039 6.75117C13.0021 6.69758 13.1584 6.67078 13.3281 6.67078C13.6675 6.66631 13.9266 6.80476 14.1097 7.08166C14.3285 7.41214 14.3375 7.74263 14.132 8.09545C14.074 8.1937 13.145 9.1539 12.0687 10.2257C10.5994 11.6951 10.0635 12.1997 9.91161 12.2667C9.66151 12.3828 9.36229 12.3828 9.13005 12.2757C9.00947 12.2176 8.27257 11.512 6.89257 10.123C4.90071 8.12224 4.82926 8.04185 4.78013 7.82748C4.60149 7.05933 5.36071 6.41621 6.07082 6.73777Z" fill="#EEEEEE"/>
</svg>
