<svg width="1440" height="83" viewBox="0 0 1440 83" fill="none" xmlns="http://www.w3.org/2000/svg">
<g opacity="0.1">
<path d="M81.8341 26.2333V28.548H90.645V26.2333H92.247V23.9186H94.65V21.6039H97.053V20.0608H88.2421V22.3755H86.6401V23.9186H84.2371V26.2333H81.8341Z" fill="#EEEEEE"/>
<path d="M81.8341 11.5735V9.25883H90.645V11.5735H92.247V13.8882H94.65V16.2029H97.053V17.7461H88.2421V15.4314H86.6401V13.8882H84.2371V11.5735H81.8341Z" fill="#EEEEEE"/>
<path d="M97.854 14.6598H100.257V6.17253H97.854V4.6294H95.451V2.3147H93.048V0H91.4461V8.48723H93.8491V10.0304H95.451V12.3451H97.854V14.6598Z" fill="#EEEEEE"/>
<path d="M109.068 7.80852e-05H111.471V8.48731H109.068V10.0304H106.665V12.3451H104.262V14.6598H102.66V6.17261H105.063V4.62948H106.665V2.31478H109.068V7.80852e-05Z" fill="#EEEEEE"/>
<path d="M121.083 11.5736V9.25887H112.272V11.5736H110.67V13.8883H108.267V16.203H105.864V17.7461H114.675V15.4314H116.277V13.8883H118.68V11.5736H121.083Z" fill="#EEEEEE"/>
<path d="M121.083 26.2334V28.5481H112.272V26.2334H110.67V23.9187H108.267V21.604H105.864V20.0609H114.675V22.3756H116.277V23.9187H118.68V26.2334H121.083Z" fill="#EEEEEE"/>
<path d="M93.849 37.8068H91.4461V29.3196H93.849V27.7765H96.252V25.4618H98.655V23.1471H100.257V31.6343H97.854V33.1774H96.252V35.4921H93.849V37.8068Z" fill="#EEEEEE"/>
<path d="M105.063 23.147H102.66V31.6342H105.063V33.1774L107.466 33.1774V35.4921H109.869V37.8068H111.471V29.3195L109.068 29.3195V27.7764H107.466V25.4617H105.063V23.147Z" fill="#EEEEEE"/>
<path d="M100.257 20.0607V17.746H102.66V20.0607H100.257Z" fill="#EEEEEE"/>
<path d="M-12 26.2333V28.548H-3.18904V26.2333H-1.58705V23.9186H0.81594V21.6039H3.21893V20.0608H-5.59203V22.3755H-7.19402V23.9186H-9.59701V26.2333H-12Z" fill="#EEEEEE"/>
<path d="M-12 11.5736V9.25887H-3.18904V11.5736H-1.58705V13.8883H0.81594V16.203H3.21893V17.7461H-5.59203V15.4314H-7.19402V13.8883H-9.59701V11.5736H-12Z" fill="#EEEEEE"/>
<path d="M4.01995 14.6598H6.42294V6.17261H4.01995V4.62948H1.61696V2.31478H-0.78603V7.91549e-05H-2.38802V8.48731H0.014967V10.0304H1.61696V12.3451H4.01995V14.6598Z" fill="#EEEEEE"/>
<path d="M15.2339 7.80852e-05H17.6369V8.48731H15.2339V10.0304H12.8309V12.3451H10.4279V14.6598H8.82593V6.17261H11.2289V4.62948H12.8309V2.31478H15.2339V7.80852e-05Z" fill="#EEEEEE"/>
<path d="M27.2488 11.5736V9.25887H18.4379V11.5736H16.8359V13.8883H14.4329V16.203H12.0299V17.7461H20.8409V15.4314H22.4429V13.8883H24.8459V11.5736H27.2488Z" fill="#EEEEEE"/>
<path d="M27.2488 26.2333V28.548H18.4379V26.2333H16.8359V23.9186H14.4329V21.6039H12.0299V20.0608H20.8409V22.3755H22.4429V23.9186H24.8459V26.2333H27.2488Z" fill="#EEEEEE"/>
<path d="M0.0149527 37.8068H-2.38804L-2.38804 29.3196H0.0149527V27.7765H2.41794V25.4618H4.82093V23.1471H6.42292V31.6343H4.01993V33.1774H2.41794V35.4921H0.0149527V37.8068Z" fill="#EEEEEE"/>
<path d="M11.2289 23.147H8.82591L8.82591 31.6342H11.2289V33.1774L13.6319 33.1774V35.4921H16.0349V37.8068H17.6369V29.3195L15.2339 29.3195V27.7764H13.6319V25.4617H11.2289V23.147Z" fill="#EEEEEE"/>
<path d="M6.42294 20.0607V17.746H8.82593V20.0607H6.42294Z" fill="#EEEEEE"/>
<path d="M34.917 21.5188V16.5443H36.9827V14.5544H39.0486V12.5645H41.1142V10.5747H43.1799V8.58485H45.2458V6.59497H47.3114V4.60522H49.3771V2.6155H51.4429V0.625545H57.6401V2.6155H59.7057V4.60518H61.7716V6.59501H63.8373V8.58481H65.9029V10.5748H67.9688V12.5646H70.0344V14.5544H72.1001V16.5441H74.166V21.5187H71.0674V17.5391H69.0015V15.5493H66.9359V13.5595H64.8702V11.5696H62.8043V9.57976H60.7387V7.58992H58.673V5.60024H56.6071V3.61029H52.4757V5.60024H50.41V7.58996H48.3444V9.57972H46.2785V11.5696H44.2128V13.5595H42.1472V15.5493H40.0813V17.5391H38.0156V21.5188H34.917Z" fill="#EEEEEE"/>
<path d="M34.917 16.5443V21.5188L36.9827 21.5186V23.5086H39.0485V25.4984H41.1142V27.4882H43.1799V29.478H45.2458V31.4678H47.3114V33.4576H49.3771V35.4475H51.4429V37.4374H57.6401V35.4475H59.7057V33.4576H61.7716V31.4678H63.8373V29.4781H65.9029V27.4882H67.9687V25.4983H70.0344V23.5086H72.1001V21.5187L74.166 21.5187V16.5441L71.0672 16.5441V20.5238H69.0015V22.5136H66.9359V24.5034H64.8701V26.4933H62.8043V28.4831H60.7387V30.4729H58.673V32.4628H56.6071V34.4526H52.4757V32.4627H50.41V30.4729H48.3444V28.4831H46.2785V26.4933H44.2128V24.5034H42.1471V22.5136H40.0813V20.5239H38.0156V16.5441L34.917 16.5443Z" fill="#EEEEEE"/>
<path d="M52.4758 21.5188V16.5442H57.6401V21.5188H52.4758Z" fill="#EEEEEE"/>
<path d="M128.751 21.5189V16.5443H130.816V14.5544H132.882V12.5646H134.948V10.5749H137.014V8.58494H139.079V6.5951H141.145V4.6053H143.211V2.61555H145.276V0.625674H151.474V2.61559H153.539V4.60527H155.605V6.5951H157.671V8.5849H159.737V10.5749H161.802V12.5647H163.868V14.5544H165.934V16.5443H168V21.5188H164.901V17.5392H162.835V15.5494H160.77V13.5596H158.704V11.5696H156.638V9.57985H154.572V7.59001H152.507V5.60033H150.441V3.61042H146.309V5.60029H144.244V7.59005H142.178V9.57985H140.112V11.5697H138.047V13.5596H135.981V15.5494H133.915V17.5392H131.849V21.5189H128.751Z" fill="#EEEEEE"/>
<path d="M128.751 16.5443V21.5189L130.817 21.5188V23.5087H132.882V25.4985H134.948V27.4883H137.014V29.4781H139.08V31.468H141.145V33.4578H143.211V35.4476H145.277V37.4375H151.474V35.4476H153.54V33.4577H155.606V31.468H157.671V29.4782H159.737V27.4883H161.803V25.4985H163.868V23.5087H165.934V21.5188L168 21.5188V16.5443L164.901 16.5442V20.5239H162.835V22.5137H160.77V24.5036H158.704V26.4935H156.638V28.4832H154.573V30.473H152.507V32.4629H150.441V34.4528H146.31V32.4629H144.244V30.473H142.178V28.4832H140.112V26.4934H138.047V24.5036H135.981V22.5138H133.915V20.5239H131.85V16.5442L128.751 16.5443Z" fill="#EEEEEE"/>
<path d="M146.31 21.5189V16.5443H151.474V21.5189H146.31Z" fill="#EEEEEE"/>
<path d="M34.9172 71.4265V73.7412H43.7281V71.4265H45.3301V69.1118H47.7331V66.7971H50.1361V65.2539H41.3251V67.5686H39.7232V69.1118H37.3202V71.4265H34.9172Z" fill="#EEEEEE"/>
<path d="M34.9172 56.7666V54.4519H43.7281V56.7666H45.3301V59.0813H47.7331V61.396H50.1361V62.9392H41.3251V60.6245H39.7232V59.0813H37.3202V56.7666H34.9172Z" fill="#EEEEEE"/>
<path d="M50.9371 59.8529H53.3401V51.3657H50.9371V49.8225H48.5341V47.5078H46.1312V45.1931H44.5292V53.6804H46.9321V55.2235H48.5341V57.5382H50.9371V59.8529Z" fill="#EEEEEE"/>
<path d="M62.151 45.1932H64.554V53.6804H62.151V55.2235H59.748V57.5382H57.345V59.8529H55.743V51.3657H58.146V49.8226H59.748V47.5079H62.151V45.1932Z" fill="#EEEEEE"/>
<path d="M74.166 56.7667V54.452H65.355V56.7667H63.753V59.0814H61.35V61.3961H58.947V62.9392H67.758V60.6245H69.36V59.0814H71.763V56.7667H74.166Z" fill="#EEEEEE"/>
<path d="M74.166 71.4265V73.7412H65.355V71.4265H63.753V69.1118H61.35V66.7971H58.947V65.254H67.758V67.5687H69.36V69.1118H71.763V71.4265H74.166Z" fill="#EEEEEE"/>
<path d="M46.9321 82.9999H44.5291V74.5127H46.9321V72.9696H49.3351V70.6549H51.7381V68.3402H53.34V76.8274H50.9371V78.3705H49.3351V80.6852H46.9321V82.9999Z" fill="#EEEEEE"/>
<path d="M58.1462 68.3401H55.7432V76.8273H58.1462V78.3705H60.5492V80.6852H62.9522V82.9999H64.5542V74.5126L62.1512 74.5126V72.9695H60.5492V70.6548H58.1462V68.3401Z" fill="#EEEEEE"/>
<path d="M53.3402 65.2539V62.9392H55.7432V65.2539H53.3402Z" fill="#EEEEEE"/>
<path d="M-12 66.7121V61.7375H-9.93433V59.7476H-7.86849V57.7577H-5.80282V55.7679H-3.73716V53.7781H-1.67131V51.7882H0.394414V49.7984H2.46002V47.8087H4.52592V45.8188H10.7231V47.8087H12.7887V49.7984H14.8545V51.7882H16.9202V53.778H18.9859V55.768H21.0517V57.7578H23.1174V59.7476H25.183V61.7374H27.2489V66.7119H24.1503V62.7324H22.0844V60.7425H20.0188V58.7527H17.9531V56.7628H15.8873V54.773H13.8216V52.7831H11.7559V50.7935H9.69009V48.8035H5.55861V50.7934H3.49301V52.7832H1.42728V54.7729H-0.638565V56.7628H-2.70423V58.7527H-4.7699V60.7424H-6.83574V62.7323H-8.90141V66.7121H-12Z" fill="#EEEEEE"/>
<path d="M-12 61.7375V66.7121L-9.93433 66.7119V68.7019H-7.86861V70.6917H-5.80282V72.6815H-3.73716V74.6713H-1.67131V76.6611H0.394414V78.6509H2.46002V80.6408H4.52581V82.6307H10.723V80.6408H12.7887V78.6509H14.8545V76.6611H16.9202V74.6714H18.9859V72.6815H21.0516V70.6916H23.1174V68.7018H25.183V66.712L27.2489 66.7119V61.7374L24.1502 61.7374V65.7171H22.0844V67.7068H20.0188V69.6967H17.953V71.6866H15.8873V73.6764H13.8216V75.6662H11.7559V77.656H9.69009V79.6459H5.55861V77.656H3.49301V75.6662H1.42728V73.6764H-0.638565V71.6866H-2.70423V69.6967H-4.77002V67.7069H-6.83574V65.7172H-8.90141V61.7373L-12 61.7375Z" fill="#EEEEEE"/>
<path d="M5.5587 66.712V61.7375H10.723V66.712H5.5587Z" fill="#EEEEEE"/>
<path d="M128.751 71.4265V73.7412H137.562V71.4265H139.164V69.1118H141.567V66.7971H143.97V65.2539H135.159V67.5686H133.557V69.1118H131.154V71.4265H128.751Z" fill="#EEEEEE"/>
<path d="M128.751 56.7668V54.4521H137.562V56.7668H139.164V59.0815H141.567V61.3962H143.97V62.9393H135.159V60.6246H133.557V59.0815H131.154V56.7668H128.751Z" fill="#EEEEEE"/>
<path d="M144.771 59.853H147.174V51.3657H144.771V49.8226H142.368V47.5079H139.965V45.1932H138.363V53.6804H140.766V55.2236H142.368V57.5383H144.771V59.853Z" fill="#EEEEEE"/>
<path d="M155.985 45.1932H158.388V53.6805H155.985V55.2236H153.582V57.5383H151.179V59.853H149.577V51.3658H151.98V49.8226H153.582V47.5079H155.985V45.1932Z" fill="#EEEEEE"/>
<path d="M168 56.7668V54.4521H159.189V56.7668H157.587V59.0815H155.184V61.3962H152.781V62.9393H161.592V60.6246H163.194V59.0815H165.597V56.7668H168Z" fill="#EEEEEE"/>
<path d="M168 71.4265V73.7412H159.189V71.4265H157.587V69.1118H155.184V66.7971H152.781V65.254H161.592V67.5687H163.194V69.1118H165.597V71.4265H168Z" fill="#EEEEEE"/>
<path d="M140.766 83H138.363V74.5128H140.766V72.9696H143.169V70.6549H145.572V68.3402H147.174V76.8275H144.771V78.3706H143.169V80.6853H140.766V83Z" fill="#EEEEEE"/>
<path d="M151.98 68.3401H149.577V76.8274H151.98V78.3705H154.383V80.6852H156.786V82.9999H158.388V74.5127H155.985V72.9695H154.383V70.6548H151.98V68.3401Z" fill="#EEEEEE"/>
<path d="M147.174 65.2539V62.9392H149.577V65.2539H147.174Z" fill="#EEEEEE"/>
<path d="M81.834 66.712V61.7374H83.8997V59.7475H85.9655V57.7577H88.0312V55.7679H90.0969V53.778H92.1627V51.7882H94.2284V49.7984H96.294V47.8086H98.3597V45.8187H104.557V47.8087H106.623V49.7983H108.688V51.7882H110.754V53.7779H112.82V55.7679H114.886V57.7577H116.951V59.7475H119.017V61.7373H121.083V66.7119H117.984V62.7323H115.918V60.7425H113.853V58.7527H111.787V56.7627H109.721V54.7729H107.656V52.7831H105.59V50.7934H103.524V48.8034H99.3926V50.7934H97.327V52.7831H95.2612V54.7729H93.1955V56.7628H91.1298V58.7527H89.0641V60.7424H86.9983V62.7323H84.9326V66.712H81.834Z" fill="#EEEEEE"/>
<path d="M81.834 61.7374V66.712L83.8997 66.7118V68.7017H85.9656V70.6915H88.0313V72.6813H90.0969V74.6712H92.1628V76.661H94.2284V78.6508H96.2941V80.6406H98.3598V82.6305H104.557V80.6406H106.623V78.6508H108.689V76.661H110.754V74.6712H112.82V72.6813H114.886V70.6915H116.951V68.7017H119.017V66.7118L121.083 66.7119V61.7373L117.984 61.7372V65.717H115.919V67.7067H113.853V69.6966H111.787V71.6865H109.721V73.6763H107.656V75.666H105.59V77.6559H103.524V79.6458H99.3927V77.6559H97.327V75.6661H95.2614V73.6763H93.1955V71.6864H91.1298V69.6966H89.0642V67.7068H86.9983V65.717H84.9327V61.7372L81.834 61.7374Z" fill="#EEEEEE"/>
<path d="M99.3928 66.7119V61.7374H104.557V66.7119H99.3928Z" fill="#EEEEEE"/>
</g>
<g opacity="0.1">
<path d="M264.834 26.2333V28.548H273.645V26.2333H275.247V23.9186H277.65V21.6039H280.053V20.0608H271.242V22.3755H269.64V23.9186H267.237V26.2333H264.834Z" fill="#EEEEEE"/>
<path d="M264.834 11.5735V9.25883H273.645V11.5735H275.247V13.8882H277.65V16.2029H280.053V17.7461H271.242V15.4314H269.64V13.8882H267.237V11.5735H264.834Z" fill="#EEEEEE"/>
<path d="M280.854 14.6598H283.257V6.17253H280.854V4.6294H278.451V2.3147H276.048V0H274.446V8.48723H276.849V10.0304H278.451V12.3451H280.854V14.6598Z" fill="#EEEEEE"/>
<path d="M292.068 7.80852e-05H294.471V8.48731H292.068V10.0304H289.665V12.3451H287.262V14.6598H285.66V6.17261H288.063V4.62948H289.665V2.31478H292.068V7.80852e-05Z" fill="#EEEEEE"/>
<path d="M304.083 11.5736V9.25887H295.272V11.5736H293.67V13.8883H291.267V16.203H288.864V17.7461H297.675V15.4314H299.277V13.8883H301.68V11.5736H304.083Z" fill="#EEEEEE"/>
<path d="M304.083 26.2334V28.5481H295.272V26.2334H293.67V23.9187H291.267V21.604H288.864V20.0609H297.675V22.3756H299.277V23.9187H301.68V26.2334H304.083Z" fill="#EEEEEE"/>
<path d="M276.849 37.8068H274.446V29.3196H276.849V27.7765H279.252V25.4618H281.655V23.1471H283.257V31.6343H280.854V33.1774H279.252V35.4921H276.849V37.8068Z" fill="#EEEEEE"/>
<path d="M288.063 23.147H285.66V31.6342H288.063V33.1774L290.466 33.1774V35.4921H292.869V37.8068H294.471V29.3195L292.068 29.3195V27.7764H290.466V25.4617H288.063V23.147Z" fill="#EEEEEE"/>
<path d="M283.257 20.0607V17.746H285.66V20.0607H283.257Z" fill="#EEEEEE"/>
<path d="M171 26.2333V28.548H179.811V26.2333H181.413V23.9186H183.816V21.6039H186.219V20.0608H177.408V22.3755H175.806V23.9186H173.403V26.2333H171Z" fill="#EEEEEE"/>
<path d="M171 11.5736V9.25887H179.811V11.5736H181.413V13.8883H183.816V16.203H186.219V17.7461H177.408V15.4314H175.806V13.8883H173.403V11.5736H171Z" fill="#EEEEEE"/>
<path d="M187.02 14.6598H189.423V6.17261H187.02V4.62948H184.617V2.31478H182.214V7.91549e-05H180.612V8.48731H183.015V10.0304H184.617V12.3451H187.02V14.6598Z" fill="#EEEEEE"/>
<path d="M198.234 7.80852e-05H200.637V8.48731H198.234V10.0304H195.831V12.3451H193.428V14.6598H191.826V6.17261H194.229V4.62948H195.831V2.31478H198.234V7.80852e-05Z" fill="#EEEEEE"/>
<path d="M210.249 11.5736V9.25887H201.438V11.5736H199.836V13.8883H197.433V16.203H195.03V17.7461H203.841V15.4314H205.443V13.8883H207.846V11.5736H210.249Z" fill="#EEEEEE"/>
<path d="M210.249 26.2333V28.548H201.438V26.2333H199.836V23.9186H197.433V21.6039H195.03V20.0608H203.841V22.3755H205.443V23.9186H207.846V26.2333H210.249Z" fill="#EEEEEE"/>
<path d="M183.015 37.8068H180.612L180.612 29.3196H183.015V27.7765H185.418V25.4618H187.821V23.1471H189.423V31.6343H187.02V33.1774H185.418V35.4921H183.015V37.8068Z" fill="#EEEEEE"/>
<path d="M194.229 23.147H191.826L191.826 31.6342H194.229V33.1774L196.632 33.1774V35.4921H199.035V37.8068H200.637V29.3195L198.234 29.3195V27.7764H196.632V25.4617H194.229V23.147Z" fill="#EEEEEE"/>
<path d="M189.423 20.0607V17.746H191.826V20.0607H189.423Z" fill="#EEEEEE"/>
<path d="M217.917 21.5188V16.5443H219.983V14.5544H222.049V12.5645H224.114V10.5747H226.18V8.58485H228.246V6.59497H230.311V4.60522H232.377V2.6155H234.443V0.625545H240.64V2.6155H242.706V4.60518H244.772V6.59501H246.837V8.58481H248.903V10.5748H250.969V12.5646H253.034V14.5544H255.1V16.5441H257.166V21.5187H254.067V17.5391H252.002V15.5493H249.936V13.5595H247.87V11.5696H245.804V9.57976H243.739V7.58992H241.673V5.60024H239.607V3.61029H235.476V5.60024H233.41V7.58996H231.344V9.57972H229.279V11.5696H227.213V13.5595H225.147V15.5493H223.081V17.5391H221.016V21.5188H217.917Z" fill="#EEEEEE"/>
<path d="M217.917 16.5443V21.5188L219.983 21.5186V23.5086H222.048V25.4984H224.114V27.4882H226.18V29.478H228.246V31.4678H230.311V33.4576H232.377V35.4475H234.443V37.4374H240.64V35.4475H242.706V33.4576H244.772V31.4678H246.837V29.4781H248.903V27.4882H250.969V25.4983H253.034V23.5086H255.1V21.5187L257.166 21.5187V16.5441L254.067 16.5441V20.5238H252.002V22.5136H249.936V24.5034H247.87V26.4933H245.804V28.4831H243.739V30.4729H241.673V32.4628H239.607V34.4526H235.476V32.4627H233.41V30.4729H231.344V28.4831H229.279V26.4933H227.213V24.5034H225.147V22.5136H223.081V20.5239H221.016V16.5441L217.917 16.5443Z" fill="#EEEEEE"/>
<path d="M235.476 21.5188V16.5442H240.64V21.5188H235.476Z" fill="#EEEEEE"/>
<path d="M311.751 21.5189V16.5443H313.816V14.5544H315.882V12.5646H317.948V10.5749H320.014V8.58494H322.079V6.5951H324.145V4.6053H326.211V2.61555H328.276V0.625674H334.474V2.61559H336.539V4.60527H338.605V6.5951H340.671V8.5849H342.737V10.5749H344.802V12.5647H346.868V14.5544H348.934V16.5443H351V21.5188H347.901V17.5392H345.835V15.5494H343.77V13.5596H341.704V11.5696H339.638V9.57985H337.572V7.59001H335.507V5.60033H333.441V3.61042H329.309V5.60029H327.244V7.59005H325.178V9.57985H323.112V11.5697H321.047V13.5596H318.981V15.5494H316.915V17.5392H314.849V21.5189H311.751Z" fill="#EEEEEE"/>
<path d="M311.751 16.5443V21.5189L313.817 21.5188V23.5087H315.882V25.4985H317.948V27.4883H320.014V29.4781H322.08V31.468H324.145V33.4578H326.211V35.4476H328.277V37.4375H334.474V35.4476H336.54V33.4577H338.606V31.468H340.671V29.4782H342.737V27.4883H344.803V25.4985H346.868V23.5087H348.934V21.5188L351 21.5188V16.5443L347.901 16.5442V20.5239H345.835V22.5137H343.77V24.5036H341.704V26.4935H339.638V28.4832H337.573V30.473H335.507V32.4629H333.441V34.4528H329.31V32.4629H327.244V30.473H325.178V28.4832H323.112V26.4934H321.047V24.5036H318.981V22.5138H316.915V20.5239H314.85V16.5442L311.751 16.5443Z" fill="#EEEEEE"/>
<path d="M329.31 21.5189V16.5443H334.474V21.5189H329.31Z" fill="#EEEEEE"/>
<path d="M217.917 71.4265V73.7412H226.728V71.4265H228.33V69.1118H230.733V66.7971H233.136V65.2539H224.325V67.5686H222.723V69.1118H220.32V71.4265H217.917Z" fill="#EEEEEE"/>
<path d="M217.917 56.7666V54.4519H226.728V56.7666H228.33V59.0813H230.733V61.396H233.136V62.9392H224.325V60.6245H222.723V59.0813H220.32V56.7666H217.917Z" fill="#EEEEEE"/>
<path d="M233.937 59.8529H236.34V51.3657H233.937V49.8225H231.534V47.5078H229.131V45.1931H227.529V53.6804H229.932V55.2235H231.534V57.5382H233.937V59.8529Z" fill="#EEEEEE"/>
<path d="M245.151 45.1932H247.554V53.6804H245.151V55.2235H242.748V57.5382H240.345V59.8529H238.743V51.3657H241.146V49.8226H242.748V47.5079H245.151V45.1932Z" fill="#EEEEEE"/>
<path d="M257.166 56.7667V54.452H248.355V56.7667H246.753V59.0814H244.35V61.3961H241.947V62.9392H250.758V60.6245H252.36V59.0814H254.763V56.7667H257.166Z" fill="#EEEEEE"/>
<path d="M257.166 71.4265V73.7412H248.355V71.4265H246.753V69.1118H244.35V66.7971H241.947V65.254H250.758V67.5687H252.36V69.1118H254.763V71.4265H257.166Z" fill="#EEEEEE"/>
<path d="M229.932 82.9999H227.529V74.5127H229.932V72.9696H232.335V70.6549H234.738V68.3402H236.34V76.8274H233.937V78.3705H232.335V80.6852H229.932V82.9999Z" fill="#EEEEEE"/>
<path d="M241.146 68.3401H238.743V76.8273H241.146V78.3705H243.549V80.6852H245.952V82.9999H247.554V74.5126L245.151 74.5126V72.9695H243.549V70.6548H241.146V68.3401Z" fill="#EEEEEE"/>
<path d="M236.34 65.2539V62.9392H238.743V65.2539H236.34Z" fill="#EEEEEE"/>
<path d="M171 66.7121V61.7375H173.066V59.7476H175.132V57.7577H177.197V55.7679H179.263V53.7781H181.329V51.7882H183.394V49.7984H185.46V47.8087H187.526V45.8188H193.723V47.8087H195.789V49.7984H197.855V51.7882H199.92V53.778H201.986V55.768H204.052V57.7578H206.117V59.7476H208.183V61.7374H210.249V66.7119H207.15V62.7324H205.084V60.7425H203.019V58.7527H200.953V56.7628H198.887V54.773H196.822V52.7831H194.756V50.7935H192.69V48.8035H188.559V50.7934H186.493V52.7832H184.427V54.7729H182.361V56.7628H180.296V58.7527H178.23V60.7424H176.164V62.7323H174.099V66.7121H171Z" fill="#EEEEEE"/>
<path d="M171 61.7375V66.7121L173.066 66.7119V68.7019H175.131V70.6917H177.197V72.6815H179.263V74.6713H181.329V76.6611H183.394V78.6509H185.46V80.6408H187.526V82.6307H193.723V80.6408H195.789V78.6509H197.855V76.6611H199.92V74.6714H201.986V72.6815H204.052V70.6916H206.117V68.7018H208.183V66.712L210.249 66.7119V61.7374L207.15 61.7374V65.7171H205.084V67.7068H203.019V69.6967H200.953V71.6866H198.887V73.6764H196.822V75.6662H194.756V77.656H192.69V79.6459H188.559V77.656H186.493V75.6662H184.427V73.6764H182.361V71.6866H180.296V69.6967H178.23V67.7069H176.164V65.7172H174.099V61.7373L171 61.7375Z" fill="#EEEEEE"/>
<path d="M188.559 66.712V61.7375H193.723V66.712H188.559Z" fill="#EEEEEE"/>
<path d="M311.751 71.4265V73.7412H320.562V71.4265H322.164V69.1118H324.567V66.7971H326.97V65.2539H318.159V67.5686H316.557V69.1118H314.154V71.4265H311.751Z" fill="#EEEEEE"/>
<path d="M311.751 56.7668V54.4521H320.562V56.7668H322.164V59.0815H324.567V61.3962H326.97V62.9393H318.159V60.6246H316.557V59.0815H314.154V56.7668H311.751Z" fill="#EEEEEE"/>
<path d="M327.771 59.853H330.174V51.3657H327.771V49.8226H325.368V47.5079H322.965V45.1932H321.363V53.6804H323.766V55.2236H325.368V57.5383H327.771V59.853Z" fill="#EEEEEE"/>
<path d="M338.985 45.1932H341.388V53.6805H338.985V55.2236H336.582V57.5383H334.179V59.853H332.577V51.3658H334.98V49.8226H336.582V47.5079H338.985V45.1932Z" fill="#EEEEEE"/>
<path d="M351 56.7668V54.4521H342.189V56.7668H340.587V59.0815H338.184V61.3962H335.781V62.9393H344.592V60.6246H346.194V59.0815H348.597V56.7668H351Z" fill="#EEEEEE"/>
<path d="M351 71.4265V73.7412H342.189V71.4265H340.587V69.1118H338.184V66.7971H335.781V65.254H344.592V67.5687H346.194V69.1118H348.597V71.4265H351Z" fill="#EEEEEE"/>
<path d="M323.766 83H321.363V74.5128H323.766V72.9696H326.169V70.6549H328.572V68.3402H330.174V76.8275H327.771V78.3706H326.169V80.6853H323.766V83Z" fill="#EEEEEE"/>
<path d="M334.98 68.3401H332.577V76.8274H334.98V78.3705H337.383V80.6852H339.786V82.9999H341.388V74.5127H338.985V72.9695H337.383V70.6548H334.98V68.3401Z" fill="#EEEEEE"/>
<path d="M330.174 65.2539V62.9392H332.577V65.2539H330.174Z" fill="#EEEEEE"/>
<path d="M264.834 66.712V61.7374H266.9V59.7475H268.965V57.7577H271.031V55.7679H273.097V53.778H275.163V51.7882H277.228V49.7984H279.294V47.8086H281.36V45.8187H287.557V47.8087H289.623V49.7983H291.688V51.7882H293.754V53.7779H295.82V55.7679H297.886V57.7577H299.951V59.7475H302.017V61.7373H304.083V66.7119H300.984V62.7323H298.918V60.7425H296.853V58.7527H294.787V56.7627H292.721V54.7729H290.656V52.7831H288.59V50.7934H286.524V48.8034H282.393V50.7934H280.327V52.7831H278.261V54.7729H276.195V56.7628H274.13V58.7527H272.064V60.7424H269.998V62.7323H267.933V66.712H264.834Z" fill="#EEEEEE"/>
<path d="M264.834 61.7374V66.712L266.9 66.7118V68.7017H268.966V70.6915H271.031V72.6813H273.097V74.6712H275.163V76.661H277.228V78.6508H279.294V80.6406H281.36V82.6305H287.557V80.6406H289.623V78.6508H291.689V76.661H293.754V74.6712H295.82V72.6813H297.886V70.6915H299.951V68.7017H302.017V66.7118L304.083 66.7119V61.7373L300.984 61.7372V65.717H298.919V67.7067H296.853V69.6966H294.787V71.6865H292.721V73.6763H290.656V75.666H288.59V77.6559H286.524V79.6458H282.393V77.6559H280.327V75.6661H278.261V73.6763H276.196V71.6864H274.13V69.6966H272.064V67.7068H269.998V65.717H267.933V61.7372L264.834 61.7374Z" fill="#EEEEEE"/>
<path d="M282.393 66.7119V61.7374H287.557V66.7119H282.393Z" fill="#EEEEEE"/>
</g>
<g opacity="0.1">
<path d="M448.834 26.2333V28.548H457.645V26.2333H459.247V23.9186H461.65V21.6039H464.053V20.0608H455.242V22.3755H453.64V23.9186H451.237V26.2333H448.834Z" fill="#EEEEEE"/>
<path d="M448.834 11.5735V9.25883H457.645V11.5735H459.247V13.8882H461.65V16.2029H464.053V17.7461H455.242V15.4314H453.64V13.8882H451.237V11.5735H448.834Z" fill="#EEEEEE"/>
<path d="M464.854 14.6598H467.257V6.17253H464.854V4.6294H462.451V2.3147H460.048V0H458.446V8.48723H460.849V10.0304H462.451V12.3451H464.854V14.6598Z" fill="#EEEEEE"/>
<path d="M476.068 7.80852e-05H478.471V8.48731H476.068V10.0304H473.665V12.3451H471.262V14.6598H469.66V6.17261H472.063V4.62948H473.665V2.31478H476.068V7.80852e-05Z" fill="#EEEEEE"/>
<path d="M488.083 11.5736V9.25887H479.272V11.5736H477.67V13.8883H475.267V16.203H472.864V17.7461H481.675V15.4314H483.277V13.8883H485.68V11.5736H488.083Z" fill="#EEEEEE"/>
<path d="M488.083 26.2334V28.5481H479.272V26.2334H477.67V23.9187H475.267V21.604H472.864V20.0609H481.675V22.3756H483.277V23.9187H485.68V26.2334H488.083Z" fill="#EEEEEE"/>
<path d="M460.849 37.8068H458.446V29.3196H460.849V27.7765H463.252V25.4618H465.655V23.1471H467.257V31.6343H464.854V33.1774H463.252V35.4921H460.849V37.8068Z" fill="#EEEEEE"/>
<path d="M472.063 23.147H469.66V31.6342H472.063V33.1774L474.466 33.1774V35.4921H476.869V37.8068H478.471V29.3195L476.068 29.3195V27.7764H474.466V25.4617H472.063V23.147Z" fill="#EEEEEE"/>
<path d="M467.257 20.0607V17.746H469.66V20.0607H467.257Z" fill="#EEEEEE"/>
<path d="M355 26.2333V28.548H363.811V26.2333H365.413V23.9186H367.816V21.6039H370.219V20.0608H361.408V22.3755H359.806V23.9186H357.403V26.2333H355Z" fill="#EEEEEE"/>
<path d="M355 11.5736V9.25887H363.811V11.5736H365.413V13.8883H367.816V16.203H370.219V17.7461H361.408V15.4314H359.806V13.8883H357.403V11.5736H355Z" fill="#EEEEEE"/>
<path d="M371.02 14.6598H373.423V6.17261H371.02V4.62948H368.617V2.31478H366.214V7.91549e-05H364.612V8.48731H367.015V10.0304H368.617V12.3451H371.02V14.6598Z" fill="#EEEEEE"/>
<path d="M382.234 7.80852e-05H384.637V8.48731H382.234V10.0304H379.831V12.3451H377.428V14.6598H375.826V6.17261H378.229V4.62948H379.831V2.31478H382.234V7.80852e-05Z" fill="#EEEEEE"/>
<path d="M394.249 11.5736V9.25887H385.438V11.5736H383.836V13.8883H381.433V16.203H379.03V17.7461H387.841V15.4314H389.443V13.8883H391.846V11.5736H394.249Z" fill="#EEEEEE"/>
<path d="M394.249 26.2333V28.548H385.438V26.2333H383.836V23.9186H381.433V21.6039H379.03V20.0608H387.841V22.3755H389.443V23.9186H391.846V26.2333H394.249Z" fill="#EEEEEE"/>
<path d="M367.015 37.8068H364.612L364.612 29.3196H367.015V27.7765H369.418V25.4618H371.821V23.1471H373.423V31.6343H371.02V33.1774H369.418V35.4921H367.015V37.8068Z" fill="#EEEEEE"/>
<path d="M378.229 23.147H375.826L375.826 31.6342H378.229V33.1774L380.632 33.1774V35.4921H383.035V37.8068H384.637V29.3195L382.234 29.3195V27.7764H380.632V25.4617H378.229V23.147Z" fill="#EEEEEE"/>
<path d="M373.423 20.0607V17.746H375.826V20.0607H373.423Z" fill="#EEEEEE"/>
<path d="M401.917 21.5188V16.5443H403.983V14.5544H406.049V12.5645H408.114V10.5747H410.18V8.58485H412.246V6.59497H414.311V4.60522H416.377V2.6155H418.443V0.625545H424.64V2.6155H426.706V4.60518H428.772V6.59501H430.837V8.58481H432.903V10.5748H434.969V12.5646H437.034V14.5544H439.1V16.5441H441.166V21.5187H438.067V17.5391H436.002V15.5493H433.936V13.5595H431.87V11.5696H429.804V9.57976H427.739V7.58992H425.673V5.60024H423.607V3.61029H419.476V5.60024H417.41V7.58996H415.344V9.57972H413.279V11.5696H411.213V13.5595H409.147V15.5493H407.081V17.5391H405.016V21.5188H401.917Z" fill="#EEEEEE"/>
<path d="M401.917 16.5443V21.5188L403.983 21.5186V23.5086H406.048V25.4984H408.114V27.4882H410.18V29.478H412.246V31.4678H414.311V33.4576H416.377V35.4475H418.443V37.4374H424.64V35.4475H426.706V33.4576H428.772V31.4678H430.837V29.4781H432.903V27.4882H434.969V25.4983H437.034V23.5086H439.1V21.5187L441.166 21.5187V16.5441L438.067 16.5441V20.5238H436.002V22.5136H433.936V24.5034H431.87V26.4933H429.804V28.4831H427.739V30.4729H425.673V32.4628H423.607V34.4526H419.476V32.4627H417.41V30.4729H415.344V28.4831H413.279V26.4933H411.213V24.5034H409.147V22.5136H407.081V20.5239H405.016V16.5441L401.917 16.5443Z" fill="#EEEEEE"/>
<path d="M419.476 21.5188V16.5442H424.64V21.5188H419.476Z" fill="#EEEEEE"/>
<path d="M495.751 21.5189V16.5443H497.816V14.5544H499.882V12.5646H501.948V10.5749H504.014V8.58494H506.079V6.5951H508.145V4.6053H510.211V2.61555H512.276V0.625674H518.474V2.61559H520.539V4.60527H522.605V6.5951H524.671V8.5849H526.737V10.5749H528.802V12.5647H530.868V14.5544H532.934V16.5443H535V21.5188H531.901V17.5392H529.835V15.5494H527.77V13.5596H525.704V11.5696H523.638V9.57985H521.572V7.59001H519.507V5.60033H517.441V3.61042H513.309V5.60029H511.244V7.59005H509.178V9.57985H507.112V11.5697H505.047V13.5596H502.981V15.5494H500.915V17.5392H498.849V21.5189H495.751Z" fill="#EEEEEE"/>
<path d="M495.751 16.5443V21.5189L497.817 21.5188V23.5087H499.882V25.4985H501.948V27.4883H504.014V29.4781H506.08V31.468H508.145V33.4578H510.211V35.4476H512.277V37.4375H518.474V35.4476H520.54V33.4577H522.606V31.468H524.671V29.4782H526.737V27.4883H528.803V25.4985H530.868V23.5087H532.934V21.5188L535 21.5188V16.5443L531.901 16.5442V20.5239H529.835V22.5137H527.77V24.5036H525.704V26.4935H523.638V28.4832H521.573V30.473H519.507V32.4629H517.441V34.4528H513.31V32.4629H511.244V30.473H509.178V28.4832H507.112V26.4934H505.047V24.5036H502.981V22.5138H500.915V20.5239H498.85V16.5442L495.751 16.5443Z" fill="#EEEEEE"/>
<path d="M513.31 21.5189V16.5443H518.474V21.5189H513.31Z" fill="#EEEEEE"/>
<path d="M401.917 71.4265V73.7412H410.728V71.4265H412.33V69.1118H414.733V66.7971H417.136V65.2539H408.325V67.5686H406.723V69.1118H404.32V71.4265H401.917Z" fill="#EEEEEE"/>
<path d="M401.917 56.7666V54.4519H410.728V56.7666H412.33V59.0813H414.733V61.396H417.136V62.9392H408.325V60.6245H406.723V59.0813H404.32V56.7666H401.917Z" fill="#EEEEEE"/>
<path d="M417.937 59.8529H420.34V51.3657H417.937V49.8225H415.534V47.5078H413.131V45.1931H411.529V53.6804H413.932V55.2235H415.534V57.5382H417.937V59.8529Z" fill="#EEEEEE"/>
<path d="M429.151 45.1932H431.554V53.6804H429.151V55.2235H426.748V57.5382H424.345V59.8529H422.743V51.3657H425.146V49.8226H426.748V47.5079H429.151V45.1932Z" fill="#EEEEEE"/>
<path d="M441.166 56.7667V54.452H432.355V56.7667H430.753V59.0814H428.35V61.3961H425.947V62.9392H434.758V60.6245H436.36V59.0814H438.763V56.7667H441.166Z" fill="#EEEEEE"/>
<path d="M441.166 71.4265V73.7412H432.355V71.4265H430.753V69.1118H428.35V66.7971H425.947V65.254H434.758V67.5687H436.36V69.1118H438.763V71.4265H441.166Z" fill="#EEEEEE"/>
<path d="M413.932 82.9999H411.529V74.5127H413.932V72.9696H416.335V70.6549H418.738V68.3402H420.34V76.8274H417.937V78.3705H416.335V80.6852H413.932V82.9999Z" fill="#EEEEEE"/>
<path d="M425.146 68.3401H422.743V76.8273H425.146V78.3705H427.549V80.6852H429.952V82.9999H431.554V74.5126L429.151 74.5126V72.9695H427.549V70.6548H425.146V68.3401Z" fill="#EEEEEE"/>
<path d="M420.34 65.2539V62.9392H422.743V65.2539H420.34Z" fill="#EEEEEE"/>
<path d="M355 66.7121V61.7375H357.066V59.7476H359.132V57.7577H361.197V55.7679H363.263V53.7781H365.329V51.7882H367.394V49.7984H369.46V47.8087H371.526V45.8188H377.723V47.8087H379.789V49.7984H381.855V51.7882H383.92V53.778H385.986V55.768H388.052V57.7578H390.117V59.7476H392.183V61.7374H394.249V66.7119H391.15V62.7324H389.084V60.7425H387.019V58.7527H384.953V56.7628H382.887V54.773H380.822V52.7831H378.756V50.7935H376.69V48.8035H372.559V50.7934H370.493V52.7832H368.427V54.7729H366.361V56.7628H364.296V58.7527H362.23V60.7424H360.164V62.7323H358.099V66.7121H355Z" fill="#EEEEEE"/>
<path d="M355 61.7375V66.7121L357.066 66.7119V68.7019H359.131V70.6917H361.197V72.6815H363.263V74.6713H365.329V76.6611H367.394V78.6509H369.46V80.6408H371.526V82.6307H377.723V80.6408H379.789V78.6509H381.855V76.6611H383.92V74.6714H385.986V72.6815H388.052V70.6916H390.117V68.7018H392.183V66.712L394.249 66.7119V61.7374L391.15 61.7374V65.7171H389.084V67.7068H387.019V69.6967H384.953V71.6866H382.887V73.6764H380.822V75.6662H378.756V77.656H376.69V79.6459H372.559V77.656H370.493V75.6662H368.427V73.6764H366.361V71.6866H364.296V69.6967H362.23V67.7069H360.164V65.7172H358.099V61.7373L355 61.7375Z" fill="#EEEEEE"/>
<path d="M372.559 66.712V61.7375H377.723V66.712H372.559Z" fill="#EEEEEE"/>
<path d="M495.751 71.4265V73.7412H504.562V71.4265H506.164V69.1118H508.567V66.7971H510.97V65.2539H502.159V67.5686H500.557V69.1118H498.154V71.4265H495.751Z" fill="#EEEEEE"/>
<path d="M495.751 56.7668V54.4521H504.562V56.7668H506.164V59.0815H508.567V61.3962H510.97V62.9393H502.159V60.6246H500.557V59.0815H498.154V56.7668H495.751Z" fill="#EEEEEE"/>
<path d="M511.771 59.853H514.174V51.3657H511.771V49.8226H509.368V47.5079H506.965V45.1932H505.363V53.6804H507.766V55.2236H509.368V57.5383H511.771V59.853Z" fill="#EEEEEE"/>
<path d="M522.985 45.1932H525.388V53.6805H522.985V55.2236H520.582V57.5383H518.179V59.853H516.577V51.3658H518.98V49.8226H520.582V47.5079H522.985V45.1932Z" fill="#EEEEEE"/>
<path d="M535 56.7668V54.4521H526.189V56.7668H524.587V59.0815H522.184V61.3962H519.781V62.9393H528.592V60.6246H530.194V59.0815H532.597V56.7668H535Z" fill="#EEEEEE"/>
<path d="M535 71.4265V73.7412H526.189V71.4265H524.587V69.1118H522.184V66.7971H519.781V65.254H528.592V67.5687H530.194V69.1118H532.597V71.4265H535Z" fill="#EEEEEE"/>
<path d="M507.766 83H505.363V74.5128H507.766V72.9696H510.169V70.6549H512.572V68.3402H514.174V76.8275H511.771V78.3706H510.169V80.6853H507.766V83Z" fill="#EEEEEE"/>
<path d="M518.98 68.3401H516.577V76.8274H518.98V78.3705H521.383V80.6852H523.786V82.9999H525.388V74.5127H522.985V72.9695H521.383V70.6548H518.98V68.3401Z" fill="#EEEEEE"/>
<path d="M514.174 65.2539V62.9392H516.577V65.2539H514.174Z" fill="#EEEEEE"/>
<path d="M448.834 66.712V61.7374H450.9V59.7475H452.965V57.7577H455.031V55.7679H457.097V53.778H459.163V51.7882H461.228V49.7984H463.294V47.8086H465.36V45.8187H471.557V47.8087H473.623V49.7983H475.688V51.7882H477.754V53.7779H479.82V55.7679H481.886V57.7577H483.951V59.7475H486.017V61.7373H488.083V66.7119H484.984V62.7323H482.918V60.7425H480.853V58.7527H478.787V56.7627H476.721V54.7729H474.656V52.7831H472.59V50.7934H470.524V48.8034H466.393V50.7934H464.327V52.7831H462.261V54.7729H460.195V56.7628H458.13V58.7527H456.064V60.7424H453.998V62.7323H451.933V66.712H448.834Z" fill="#EEEEEE"/>
<path d="M448.834 61.7374V66.712L450.9 66.7118V68.7017H452.966V70.6915H455.031V72.6813H457.097V74.6712H459.163V76.661H461.228V78.6508H463.294V80.6406H465.36V82.6305H471.557V80.6406H473.623V78.6508H475.689V76.661H477.754V74.6712H479.82V72.6813H481.886V70.6915H483.951V68.7017H486.017V66.7118L488.083 66.7119V61.7373L484.984 61.7372V65.717H482.919V67.7067H480.853V69.6966H478.787V71.6865H476.721V73.6763H474.656V75.666H472.59V77.6559H470.524V79.6458H466.393V77.6559H464.327V75.6661H462.261V73.6763H460.196V71.6864H458.13V69.6966H456.064V67.7068H453.998V65.717H451.933V61.7372L448.834 61.7374Z" fill="#EEEEEE"/>
<path d="M466.393 66.7119V61.7374H471.557V66.7119H466.393Z" fill="#EEEEEE"/>
</g>
<g opacity="0.1">
<path d="M631.834 26.2333V28.548H640.645V26.2333H642.247V23.9186H644.65V21.6039H647.053V20.0608H638.242V22.3755H636.64V23.9186H634.237V26.2333H631.834Z" fill="#EEEEEE"/>
<path d="M631.834 11.5735V9.25883H640.645V11.5735H642.247V13.8882H644.65V16.2029H647.053V17.7461H638.242V15.4314H636.64V13.8882H634.237V11.5735H631.834Z" fill="#EEEEEE"/>
<path d="M647.854 14.6598H650.257V6.17253H647.854V4.6294H645.451V2.3147H643.048V0H641.446V8.48723H643.849V10.0304H645.451V12.3451H647.854V14.6598Z" fill="#EEEEEE"/>
<path d="M659.068 7.80852e-05H661.471V8.48731H659.068V10.0304H656.665V12.3451H654.262V14.6598H652.66V6.17261H655.063V4.62948H656.665V2.31478H659.068V7.80852e-05Z" fill="#EEEEEE"/>
<path d="M671.083 11.5736V9.25887H662.272V11.5736H660.67V13.8883H658.267V16.203H655.864V17.7461H664.675V15.4314H666.277V13.8883H668.68V11.5736H671.083Z" fill="#EEEEEE"/>
<path d="M671.083 26.2334V28.5481H662.272V26.2334H660.67V23.9187H658.267V21.604H655.864V20.0609H664.675V22.3756H666.277V23.9187H668.68V26.2334H671.083Z" fill="#EEEEEE"/>
<path d="M643.849 37.8068H641.446V29.3196H643.849V27.7765H646.252V25.4618H648.655V23.1471H650.257V31.6343H647.854V33.1774H646.252V35.4921H643.849V37.8068Z" fill="#EEEEEE"/>
<path d="M655.063 23.147H652.66V31.6342H655.063V33.1774L657.466 33.1774V35.4921H659.869V37.8068H661.471V29.3195L659.068 29.3195V27.7764H657.466V25.4617H655.063V23.147Z" fill="#EEEEEE"/>
<path d="M650.257 20.0607V17.746H652.66V20.0607H650.257Z" fill="#EEEEEE"/>
<path d="M538 26.2333V28.548H546.811V26.2333H548.413V23.9186H550.816V21.6039H553.219V20.0608H544.408V22.3755H542.806V23.9186H540.403V26.2333H538Z" fill="#EEEEEE"/>
<path d="M538 11.5736V9.25887H546.811V11.5736H548.413V13.8883H550.816V16.203H553.219V17.7461H544.408V15.4314H542.806V13.8883H540.403V11.5736H538Z" fill="#EEEEEE"/>
<path d="M554.02 14.6598H556.423V6.17261H554.02V4.62948H551.617V2.31478H549.214V7.91549e-05H547.612V8.48731H550.015V10.0304H551.617V12.3451H554.02V14.6598Z" fill="#EEEEEE"/>
<path d="M565.234 7.80852e-05H567.637V8.48731H565.234V10.0304H562.831V12.3451H560.428V14.6598H558.826V6.17261H561.229V4.62948H562.831V2.31478H565.234V7.80852e-05Z" fill="#EEEEEE"/>
<path d="M577.249 11.5736V9.25887H568.438V11.5736H566.836V13.8883H564.433V16.203H562.03V17.7461H570.841V15.4314H572.443V13.8883H574.846V11.5736H577.249Z" fill="#EEEEEE"/>
<path d="M577.249 26.2333V28.548H568.438V26.2333H566.836V23.9186H564.433V21.6039H562.03V20.0608H570.841V22.3755H572.443V23.9186H574.846V26.2333H577.249Z" fill="#EEEEEE"/>
<path d="M550.015 37.8068H547.612L547.612 29.3196H550.015V27.7765H552.418V25.4618H554.821V23.1471H556.423V31.6343H554.02V33.1774H552.418V35.4921H550.015V37.8068Z" fill="#EEEEEE"/>
<path d="M561.229 23.147H558.826L558.826 31.6342H561.229V33.1774L563.632 33.1774V35.4921H566.035V37.8068H567.637V29.3195L565.234 29.3195V27.7764H563.632V25.4617H561.229V23.147Z" fill="#EEEEEE"/>
<path d="M556.423 20.0607V17.746H558.826V20.0607H556.423Z" fill="#EEEEEE"/>
<path d="M584.917 21.5188V16.5443H586.983V14.5544H589.049V12.5645H591.114V10.5747H593.18V8.58485H595.246V6.59497H597.311V4.60522H599.377V2.6155H601.443V0.625545H607.64V2.6155H609.706V4.60518H611.772V6.59501H613.837V8.58481H615.903V10.5748H617.969V12.5646H620.034V14.5544H622.1V16.5441H624.166V21.5187H621.067V17.5391H619.002V15.5493H616.936V13.5595H614.87V11.5696H612.804V9.57976H610.739V7.58992H608.673V5.60024H606.607V3.61029H602.476V5.60024H600.41V7.58996H598.344V9.57972H596.279V11.5696H594.213V13.5595H592.147V15.5493H590.081V17.5391H588.016V21.5188H584.917Z" fill="#EEEEEE"/>
<path d="M584.917 16.5443V21.5188L586.983 21.5186V23.5086H589.048V25.4984H591.114V27.4882H593.18V29.478H595.246V31.4678H597.311V33.4576H599.377V35.4475H601.443V37.4374H607.64V35.4475H609.706V33.4576H611.772V31.4678H613.837V29.4781H615.903V27.4882H617.969V25.4983H620.034V23.5086H622.1V21.5187L624.166 21.5187V16.5441L621.067 16.5441V20.5238H619.002V22.5136H616.936V24.5034H614.87V26.4933H612.804V28.4831H610.739V30.4729H608.673V32.4628H606.607V34.4526H602.476V32.4627H600.41V30.4729H598.344V28.4831H596.279V26.4933H594.213V24.5034H592.147V22.5136H590.081V20.5239H588.016V16.5441L584.917 16.5443Z" fill="#EEEEEE"/>
<path d="M602.476 21.5188V16.5442H607.64V21.5188H602.476Z" fill="#EEEEEE"/>
<path d="M678.751 21.5189V16.5443H680.816V14.5544H682.882V12.5646H684.948V10.5749H687.014V8.58494H689.079V6.5951H691.145V4.6053H693.211V2.61555H695.276V0.625674H701.474V2.61559H703.539V4.60527H705.605V6.5951H707.671V8.5849H709.737V10.5749H711.802V12.5647H713.868V14.5544H715.934V16.5443H718V21.5188H714.901V17.5392H712.835V15.5494H710.77V13.5596H708.704V11.5696H706.638V9.57985H704.572V7.59001H702.507V5.60033H700.441V3.61042H696.309V5.60029H694.244V7.59005H692.178V9.57985H690.112V11.5697H688.047V13.5596H685.981V15.5494H683.915V17.5392H681.849V21.5189H678.751Z" fill="#EEEEEE"/>
<path d="M678.751 16.5443V21.5189L680.817 21.5188V23.5087H682.882V25.4985H684.948V27.4883H687.014V29.4781H689.08V31.468H691.145V33.4578H693.211V35.4476H695.277V37.4375H701.474V35.4476H703.54V33.4577H705.606V31.468H707.671V29.4782H709.737V27.4883H711.803V25.4985H713.868V23.5087H715.934V21.5188L718 21.5188V16.5443L714.901 16.5442V20.5239H712.835V22.5137H710.77V24.5036H708.704V26.4935H706.638V28.4832H704.573V30.473H702.507V32.4629H700.441V34.4528H696.31V32.4629H694.244V30.473H692.178V28.4832H690.112V26.4934H688.047V24.5036H685.981V22.5138H683.915V20.5239H681.85V16.5442L678.751 16.5443Z" fill="#EEEEEE"/>
<path d="M696.31 21.5189V16.5443H701.474V21.5189H696.31Z" fill="#EEEEEE"/>
<path d="M584.917 71.4265V73.7412H593.728V71.4265H595.33V69.1118H597.733V66.7971H600.136V65.2539H591.325V67.5686H589.723V69.1118H587.32V71.4265H584.917Z" fill="#EEEEEE"/>
<path d="M584.917 56.7666V54.4519H593.728V56.7666H595.33V59.0813H597.733V61.396H600.136V62.9392H591.325V60.6245H589.723V59.0813H587.32V56.7666H584.917Z" fill="#EEEEEE"/>
<path d="M600.937 59.8529H603.34V51.3657H600.937V49.8225H598.534V47.5078H596.131V45.1931H594.529V53.6804H596.932V55.2235H598.534V57.5382H600.937V59.8529Z" fill="#EEEEEE"/>
<path d="M612.151 45.1932H614.554V53.6804H612.151V55.2235H609.748V57.5382H607.345V59.8529H605.743V51.3657H608.146V49.8226H609.748V47.5079H612.151V45.1932Z" fill="#EEEEEE"/>
<path d="M624.166 56.7667V54.452H615.355V56.7667H613.753V59.0814H611.35V61.3961H608.947V62.9392H617.758V60.6245H619.36V59.0814H621.763V56.7667H624.166Z" fill="#EEEEEE"/>
<path d="M624.166 71.4265V73.7412H615.355V71.4265H613.753V69.1118H611.35V66.7971H608.947V65.254H617.758V67.5687H619.36V69.1118H621.763V71.4265H624.166Z" fill="#EEEEEE"/>
<path d="M596.932 82.9999H594.529V74.5127H596.932V72.9696H599.335V70.6549H601.738V68.3402H603.34V76.8274H600.937V78.3705H599.335V80.6852H596.932V82.9999Z" fill="#EEEEEE"/>
<path d="M608.146 68.3401H605.743V76.8273H608.146V78.3705H610.549V80.6852H612.952V82.9999H614.554V74.5126L612.151 74.5126V72.9695H610.549V70.6548H608.146V68.3401Z" fill="#EEEEEE"/>
<path d="M603.34 65.2539V62.9392H605.743V65.2539H603.34Z" fill="#EEEEEE"/>
<path d="M538 66.7121V61.7375H540.066V59.7476H542.132V57.7577H544.197V55.7679H546.263V53.7781H548.329V51.7882H550.394V49.7984H552.46V47.8087H554.526V45.8188H560.723V47.8087H562.789V49.7984H564.855V51.7882H566.92V53.778H568.986V55.768H571.052V57.7578H573.117V59.7476H575.183V61.7374H577.249V66.7119H574.15V62.7324H572.084V60.7425H570.019V58.7527H567.953V56.7628H565.887V54.773H563.822V52.7831H561.756V50.7935H559.69V48.8035H555.559V50.7934H553.493V52.7832H551.427V54.7729H549.361V56.7628H547.296V58.7527H545.23V60.7424H543.164V62.7323H541.099V66.7121H538Z" fill="#EEEEEE"/>
<path d="M538 61.7375V66.7121L540.066 66.7119V68.7019H542.131V70.6917H544.197V72.6815H546.263V74.6713H548.329V76.6611H550.394V78.6509H552.46V80.6408H554.526V82.6307H560.723V80.6408H562.789V78.6509H564.855V76.6611H566.92V74.6714H568.986V72.6815H571.052V70.6916H573.117V68.7018H575.183V66.712L577.249 66.7119V61.7374L574.15 61.7374V65.7171H572.084V67.7068H570.019V69.6967H567.953V71.6866H565.887V73.6764H563.822V75.6662H561.756V77.656H559.69V79.6459H555.559V77.656H553.493V75.6662H551.427V73.6764H549.361V71.6866H547.296V69.6967H545.23V67.7069H543.164V65.7172H541.099V61.7373L538 61.7375Z" fill="#EEEEEE"/>
<path d="M555.559 66.712V61.7375H560.723V66.712H555.559Z" fill="#EEEEEE"/>
<path d="M678.751 71.4265V73.7412H687.562V71.4265H689.164V69.1118H691.567V66.7971H693.97V65.2539H685.159V67.5686H683.557V69.1118H681.154V71.4265H678.751Z" fill="#EEEEEE"/>
<path d="M678.751 56.7668V54.4521H687.562V56.7668H689.164V59.0815H691.567V61.3962H693.97V62.9393H685.159V60.6246H683.557V59.0815H681.154V56.7668H678.751Z" fill="#EEEEEE"/>
<path d="M694.771 59.853H697.174V51.3657H694.771V49.8226H692.368V47.5079H689.965V45.1932H688.363V53.6804H690.766V55.2236H692.368V57.5383H694.771V59.853Z" fill="#EEEEEE"/>
<path d="M705.985 45.1932H708.388V53.6805H705.985V55.2236H703.582V57.5383H701.179V59.853H699.577V51.3658H701.98V49.8226H703.582V47.5079H705.985V45.1932Z" fill="#EEEEEE"/>
<path d="M718 56.7668V54.4521H709.189V56.7668H707.587V59.0815H705.184V61.3962H702.781V62.9393H711.592V60.6246H713.194V59.0815H715.597V56.7668H718Z" fill="#EEEEEE"/>
<path d="M718 71.4265V73.7412H709.189V71.4265H707.587V69.1118H705.184V66.7971H702.781V65.254H711.592V67.5687H713.194V69.1118H715.597V71.4265H718Z" fill="#EEEEEE"/>
<path d="M690.766 83H688.363V74.5128H690.766V72.9696H693.169V70.6549H695.572V68.3402H697.174V76.8275H694.771V78.3706H693.169V80.6853H690.766V83Z" fill="#EEEEEE"/>
<path d="M701.98 68.3401H699.577V76.8274H701.98V78.3705H704.383V80.6852H706.786V82.9999H708.388V74.5127H705.985V72.9695H704.383V70.6548H701.98V68.3401Z" fill="#EEEEEE"/>
<path d="M697.174 65.2539V62.9392H699.577V65.2539H697.174Z" fill="#EEEEEE"/>
<path d="M631.834 66.712V61.7374H633.9V59.7475H635.965V57.7577H638.031V55.7679H640.097V53.778H642.163V51.7882H644.228V49.7984H646.294V47.8086H648.36V45.8187H654.557V47.8087H656.623V49.7983H658.688V51.7882H660.754V53.7779H662.82V55.7679H664.886V57.7577H666.951V59.7475H669.017V61.7373H671.083V66.7119H667.984V62.7323H665.918V60.7425H663.853V58.7527H661.787V56.7627H659.721V54.7729H657.656V52.7831H655.59V50.7934H653.524V48.8034H649.393V50.7934H647.327V52.7831H645.261V54.7729H643.195V56.7628H641.13V58.7527H639.064V60.7424H636.998V62.7323H634.933V66.712H631.834Z" fill="#EEEEEE"/>
<path d="M631.834 61.7374V66.712L633.9 66.7118V68.7017H635.966V70.6915H638.031V72.6813H640.097V74.6712H642.163V76.661H644.228V78.6508H646.294V80.6406H648.36V82.6305H654.557V80.6406H656.623V78.6508H658.689V76.661H660.754V74.6712H662.82V72.6813H664.886V70.6915H666.951V68.7017H669.017V66.7118L671.083 66.7119V61.7373L667.984 61.7372V65.717H665.919V67.7067H663.853V69.6966H661.787V71.6865H659.721V73.6763H657.656V75.666H655.59V77.6559H653.524V79.6458H649.393V77.6559H647.327V75.6661H645.261V73.6763H643.196V71.6864H641.13V69.6966H639.064V67.7068H636.998V65.717H634.933V61.7372L631.834 61.7374Z" fill="#EEEEEE"/>
<path d="M649.393 66.7119V61.7374H654.557V66.7119H649.393Z" fill="#EEEEEE"/>
</g>
<g opacity="0.1">
<path d="M815.834 26.2333V28.548H824.645V26.2333H826.247V23.9186H828.65V21.6039H831.053V20.0608H822.242V22.3755H820.64V23.9186H818.237V26.2333H815.834Z" fill="#EEEEEE"/>
<path d="M815.834 11.5735V9.25883H824.645V11.5735H826.247V13.8882H828.65V16.2029H831.053V17.7461H822.242V15.4314H820.64V13.8882H818.237V11.5735H815.834Z" fill="#EEEEEE"/>
<path d="M831.854 14.6598H834.257V6.17253H831.854V4.6294H829.451V2.3147H827.048V0H825.446V8.48723H827.849V10.0304H829.451V12.3451H831.854V14.6598Z" fill="#EEEEEE"/>
<path d="M843.068 7.80852e-05H845.471V8.48731H843.068V10.0304H840.665V12.3451H838.262V14.6598H836.66V6.17261H839.063V4.62948H840.665V2.31478H843.068V7.80852e-05Z" fill="#EEEEEE"/>
<path d="M855.083 11.5736V9.25887H846.272V11.5736H844.67V13.8883H842.267V16.203H839.864V17.7461H848.675V15.4314H850.277V13.8883H852.68V11.5736H855.083Z" fill="#EEEEEE"/>
<path d="M855.083 26.2334V28.5481H846.272V26.2334H844.67V23.9187H842.267V21.604H839.864V20.0609H848.675V22.3756H850.277V23.9187H852.68V26.2334H855.083Z" fill="#EEEEEE"/>
<path d="M827.849 37.8068H825.446V29.3196H827.849V27.7765H830.252V25.4618H832.655V23.1471H834.257V31.6343H831.854V33.1774H830.252V35.4921H827.849V37.8068Z" fill="#EEEEEE"/>
<path d="M839.063 23.147H836.66V31.6342H839.063V33.1774L841.466 33.1774V35.4921H843.869V37.8068H845.471V29.3195L843.068 29.3195V27.7764H841.466V25.4617H839.063V23.147Z" fill="#EEEEEE"/>
<path d="M834.257 20.0607V17.746H836.66V20.0607H834.257Z" fill="#EEEEEE"/>
<path d="M722 26.2333V28.548H730.811V26.2333H732.413V23.9186H734.816V21.6039H737.219V20.0608H728.408V22.3755H726.806V23.9186H724.403V26.2333H722Z" fill="#EEEEEE"/>
<path d="M722 11.5736V9.25887H730.811V11.5736H732.413V13.8883H734.816V16.203H737.219V17.7461H728.408V15.4314H726.806V13.8883H724.403V11.5736H722Z" fill="#EEEEEE"/>
<path d="M738.02 14.6598H740.423V6.17261H738.02V4.62948H735.617V2.31478H733.214V7.91549e-05H731.612V8.48731H734.015V10.0304H735.617V12.3451H738.02V14.6598Z" fill="#EEEEEE"/>
<path d="M749.234 7.80852e-05H751.637V8.48731H749.234V10.0304H746.831V12.3451H744.428V14.6598H742.826V6.17261H745.229V4.62948H746.831V2.31478H749.234V7.80852e-05Z" fill="#EEEEEE"/>
<path d="M761.249 11.5736V9.25887H752.438V11.5736H750.836V13.8883H748.433V16.203H746.03V17.7461H754.841V15.4314H756.443V13.8883H758.846V11.5736H761.249Z" fill="#EEEEEE"/>
<path d="M761.249 26.2333V28.548H752.438V26.2333H750.836V23.9186H748.433V21.6039H746.03V20.0608H754.841V22.3755H756.443V23.9186H758.846V26.2333H761.249Z" fill="#EEEEEE"/>
<path d="M734.015 37.8068H731.612L731.612 29.3196H734.015V27.7765H736.418V25.4618H738.821V23.1471H740.423V31.6343H738.02V33.1774H736.418V35.4921H734.015V37.8068Z" fill="#EEEEEE"/>
<path d="M745.229 23.147H742.826L742.826 31.6342H745.229V33.1774L747.632 33.1774V35.4921H750.035V37.8068H751.637V29.3195L749.234 29.3195V27.7764H747.632V25.4617H745.229V23.147Z" fill="#EEEEEE"/>
<path d="M740.423 20.0607V17.746H742.826V20.0607H740.423Z" fill="#EEEEEE"/>
<path d="M768.917 21.5188V16.5443H770.983V14.5544H773.049V12.5645H775.114V10.5747H777.18V8.58485H779.246V6.59497H781.311V4.60522H783.377V2.6155H785.443V0.625545H791.64V2.6155H793.706V4.60518H795.772V6.59501H797.837V8.58481H799.903V10.5748H801.969V12.5646H804.034V14.5544H806.1V16.5441H808.166V21.5187H805.067V17.5391H803.002V15.5493H800.936V13.5595H798.87V11.5696H796.804V9.57976H794.739V7.58992H792.673V5.60024H790.607V3.61029H786.476V5.60024H784.41V7.58996H782.344V9.57972H780.279V11.5696H778.213V13.5595H776.147V15.5493H774.081V17.5391H772.016V21.5188H768.917Z" fill="#EEEEEE"/>
<path d="M768.917 16.5443V21.5188L770.983 21.5186V23.5086H773.048V25.4984H775.114V27.4882H777.18V29.478H779.246V31.4678H781.311V33.4576H783.377V35.4475H785.443V37.4374H791.64V35.4475H793.706V33.4576H795.772V31.4678H797.837V29.4781H799.903V27.4882H801.969V25.4983H804.034V23.5086H806.1V21.5187L808.166 21.5187V16.5441L805.067 16.5441V20.5238H803.002V22.5136H800.936V24.5034H798.87V26.4933H796.804V28.4831H794.739V30.4729H792.673V32.4628H790.607V34.4526H786.476V32.4627H784.41V30.4729H782.344V28.4831H780.279V26.4933H778.213V24.5034H776.147V22.5136H774.081V20.5239H772.016V16.5441L768.917 16.5443Z" fill="#EEEEEE"/>
<path d="M786.476 21.5188V16.5442H791.64V21.5188H786.476Z" fill="#EEEEEE"/>
<path d="M862.751 21.5189V16.5443H864.816V14.5544H866.882V12.5646H868.948V10.5749H871.014V8.58494H873.079V6.5951H875.145V4.6053H877.211V2.61555H879.276V0.625674H885.474V2.61559H887.539V4.60527H889.605V6.5951H891.671V8.5849H893.737V10.5749H895.802V12.5647H897.868V14.5544H899.934V16.5443H902V21.5188H898.901V17.5392H896.835V15.5494H894.77V13.5596H892.704V11.5696H890.638V9.57985H888.572V7.59001H886.507V5.60033H884.441V3.61042H880.309V5.60029H878.244V7.59005H876.178V9.57985H874.112V11.5697H872.047V13.5596H869.981V15.5494H867.915V17.5392H865.849V21.5189H862.751Z" fill="#EEEEEE"/>
<path d="M862.751 16.5443V21.5189L864.817 21.5188V23.5087H866.882V25.4985H868.948V27.4883H871.014V29.4781H873.08V31.468H875.145V33.4578H877.211V35.4476H879.277V37.4375H885.474V35.4476H887.54V33.4577H889.606V31.468H891.671V29.4782H893.737V27.4883H895.803V25.4985H897.868V23.5087H899.934V21.5188L902 21.5188V16.5443L898.901 16.5442V20.5239H896.835V22.5137H894.77V24.5036H892.704V26.4935H890.638V28.4832H888.573V30.473H886.507V32.4629H884.441V34.4528H880.31V32.4629H878.244V30.473H876.178V28.4832H874.112V26.4934H872.047V24.5036H869.981V22.5138H867.915V20.5239H865.85V16.5442L862.751 16.5443Z" fill="#EEEEEE"/>
<path d="M880.31 21.5189V16.5443H885.474V21.5189H880.31Z" fill="#EEEEEE"/>
<path d="M768.917 71.4265V73.7412H777.728V71.4265H779.33V69.1118H781.733V66.7971H784.136V65.2539H775.325V67.5686H773.723V69.1118H771.32V71.4265H768.917Z" fill="#EEEEEE"/>
<path d="M768.917 56.7666V54.4519H777.728V56.7666H779.33V59.0813H781.733V61.396H784.136V62.9392H775.325V60.6245H773.723V59.0813H771.32V56.7666H768.917Z" fill="#EEEEEE"/>
<path d="M784.937 59.8529H787.34V51.3657H784.937V49.8225H782.534V47.5078H780.131V45.1931H778.529V53.6804H780.932V55.2235H782.534V57.5382H784.937V59.8529Z" fill="#EEEEEE"/>
<path d="M796.151 45.1932H798.554V53.6804H796.151V55.2235H793.748V57.5382H791.345V59.8529H789.743V51.3657H792.146V49.8226H793.748V47.5079H796.151V45.1932Z" fill="#EEEEEE"/>
<path d="M808.166 56.7667V54.452H799.355V56.7667H797.753V59.0814H795.35V61.3961H792.947V62.9392H801.758V60.6245H803.36V59.0814H805.763V56.7667H808.166Z" fill="#EEEEEE"/>
<path d="M808.166 71.4265V73.7412H799.355V71.4265H797.753V69.1118H795.35V66.7971H792.947V65.254H801.758V67.5687H803.36V69.1118H805.763V71.4265H808.166Z" fill="#EEEEEE"/>
<path d="M780.932 82.9999H778.529V74.5127H780.932V72.9696H783.335V70.6549H785.738V68.3402H787.34V76.8274H784.937V78.3705H783.335V80.6852H780.932V82.9999Z" fill="#EEEEEE"/>
<path d="M792.146 68.3401H789.743V76.8273H792.146V78.3705H794.549V80.6852H796.952V82.9999H798.554V74.5126L796.151 74.5126V72.9695H794.549V70.6548H792.146V68.3401Z" fill="#EEEEEE"/>
<path d="M787.34 65.2539V62.9392H789.743V65.2539H787.34Z" fill="#EEEEEE"/>
<path d="M722 66.7121V61.7375H724.066V59.7476H726.132V57.7577H728.197V55.7679H730.263V53.7781H732.329V51.7882H734.394V49.7984H736.46V47.8087H738.526V45.8188H744.723V47.8087H746.789V49.7984H748.855V51.7882H750.92V53.778H752.986V55.768H755.052V57.7578H757.117V59.7476H759.183V61.7374H761.249V66.7119H758.15V62.7324H756.084V60.7425H754.019V58.7527H751.953V56.7628H749.887V54.773H747.822V52.7831H745.756V50.7935H743.69V48.8035H739.559V50.7934H737.493V52.7832H735.427V54.7729H733.361V56.7628H731.296V58.7527H729.23V60.7424H727.164V62.7323H725.099V66.7121H722Z" fill="#EEEEEE"/>
<path d="M722 61.7375V66.7121L724.066 66.7119V68.7019H726.131V70.6917H728.197V72.6815H730.263V74.6713H732.329V76.6611H734.394V78.6509H736.46V80.6408H738.526V82.6307H744.723V80.6408H746.789V78.6509H748.855V76.6611H750.92V74.6714H752.986V72.6815H755.052V70.6916H757.117V68.7018H759.183V66.712L761.249 66.7119V61.7374L758.15 61.7374V65.7171H756.084V67.7068H754.019V69.6967H751.953V71.6866H749.887V73.6764H747.822V75.6662H745.756V77.656H743.69V79.6459H739.559V77.656H737.493V75.6662H735.427V73.6764H733.361V71.6866H731.296V69.6967H729.23V67.7069H727.164V65.7172H725.099V61.7373L722 61.7375Z" fill="#EEEEEE"/>
<path d="M739.559 66.712V61.7375H744.723V66.712H739.559Z" fill="#EEEEEE"/>
<path d="M862.751 71.4265V73.7412H871.562V71.4265H873.164V69.1118H875.567V66.7971H877.97V65.2539H869.159V67.5686H867.557V69.1118H865.154V71.4265H862.751Z" fill="#EEEEEE"/>
<path d="M862.751 56.7668V54.4521H871.562V56.7668H873.164V59.0815H875.567V61.3962H877.97V62.9393H869.159V60.6246H867.557V59.0815H865.154V56.7668H862.751Z" fill="#EEEEEE"/>
<path d="M878.771 59.853H881.174V51.3657H878.771V49.8226H876.368V47.5079H873.965V45.1932H872.363V53.6804H874.766V55.2236H876.368V57.5383H878.771V59.853Z" fill="#EEEEEE"/>
<path d="M889.985 45.1932H892.388V53.6805H889.985V55.2236H887.582V57.5383H885.179V59.853H883.577V51.3658H885.98V49.8226H887.582V47.5079H889.985V45.1932Z" fill="#EEEEEE"/>
<path d="M902 56.7668V54.4521H893.189V56.7668H891.587V59.0815H889.184V61.3962H886.781V62.9393H895.592V60.6246H897.194V59.0815H899.597V56.7668H902Z" fill="#EEEEEE"/>
<path d="M902 71.4265V73.7412H893.189V71.4265H891.587V69.1118H889.184V66.7971H886.781V65.254H895.592V67.5687H897.194V69.1118H899.597V71.4265H902Z" fill="#EEEEEE"/>
<path d="M874.766 83H872.363V74.5128H874.766V72.9696H877.169V70.6549H879.572V68.3402H881.174V76.8275H878.771V78.3706H877.169V80.6853H874.766V83Z" fill="#EEEEEE"/>
<path d="M885.98 68.3401H883.577V76.8274H885.98V78.3705H888.383V80.6852H890.786V82.9999H892.388V74.5127H889.985V72.9695H888.383V70.6548H885.98V68.3401Z" fill="#EEEEEE"/>
<path d="M881.174 65.2539V62.9392H883.577V65.2539H881.174Z" fill="#EEEEEE"/>
<path d="M815.834 66.712V61.7374H817.9V59.7475H819.965V57.7577H822.031V55.7679H824.097V53.778H826.163V51.7882H828.228V49.7984H830.294V47.8086H832.36V45.8187H838.557V47.8087H840.623V49.7983H842.688V51.7882H844.754V53.7779H846.82V55.7679H848.886V57.7577H850.951V59.7475H853.017V61.7373H855.083V66.7119H851.984V62.7323H849.918V60.7425H847.853V58.7527H845.787V56.7627H843.721V54.7729H841.656V52.7831H839.59V50.7934H837.524V48.8034H833.393V50.7934H831.327V52.7831H829.261V54.7729H827.195V56.7628H825.13V58.7527H823.064V60.7424H820.998V62.7323H818.933V66.712H815.834Z" fill="#EEEEEE"/>
<path d="M815.834 61.7374V66.712L817.9 66.7118V68.7017H819.966V70.6915H822.031V72.6813H824.097V74.6712H826.163V76.661H828.228V78.6508H830.294V80.6406H832.36V82.6305H838.557V80.6406H840.623V78.6508H842.689V76.661H844.754V74.6712H846.82V72.6813H848.886V70.6915H850.951V68.7017H853.017V66.7118L855.083 66.7119V61.7373L851.984 61.7372V65.717H849.919V67.7067H847.853V69.6966H845.787V71.6865H843.721V73.6763H841.656V75.666H839.59V77.6559H837.524V79.6458H833.393V77.6559H831.327V75.6661H829.261V73.6763H827.196V71.6864H825.13V69.6966H823.064V67.7068H820.998V65.717H818.933V61.7372L815.834 61.7374Z" fill="#EEEEEE"/>
<path d="M833.393 66.7119V61.7374H838.557V66.7119H833.393Z" fill="#EEEEEE"/>
</g>
<g opacity="0.1">
<path d="M998.834 26.2333V28.548H1007.65V26.2333H1009.25V23.9186H1011.65V21.6039H1014.05V20.0608H1005.24V22.3755H1003.64V23.9186H1001.24V26.2333H998.834Z" fill="#EEEEEE"/>
<path d="M998.834 11.5735V9.25883H1007.65V11.5735H1009.25V13.8882H1011.65V16.2029H1014.05V17.7461H1005.24V15.4314H1003.64V13.8882H1001.24V11.5735H998.834Z" fill="#EEEEEE"/>
<path d="M1014.85 14.6598H1017.26V6.17253H1014.85V4.6294H1012.45V2.3147H1010.05V0H1008.45V8.48723H1010.85V10.0304H1012.45V12.3451H1014.85V14.6598Z" fill="#EEEEEE"/>
<path d="M1026.07 7.80852e-05H1028.47V8.48731H1026.07V10.0304H1023.66V12.3451H1021.26V14.6598H1019.66V6.17261H1022.06V4.62948H1023.66V2.31478H1026.07V7.80852e-05Z" fill="#EEEEEE"/>
<path d="M1038.08 11.5736V9.25887H1029.27V11.5736H1027.67V13.8883H1025.27V16.203H1022.86V17.7461H1031.67V15.4314H1033.28V13.8883H1035.68V11.5736H1038.08Z" fill="#EEEEEE"/>
<path d="M1038.08 26.2334V28.5481H1029.27V26.2334H1027.67V23.9187H1025.27V21.604H1022.86V20.0609H1031.67V22.3756H1033.28V23.9187H1035.68V26.2334H1038.08Z" fill="#EEEEEE"/>
<path d="M1010.85 37.8068H1008.45V29.3196H1010.85V27.7765H1013.25V25.4618H1015.66V23.1471H1017.26V31.6343H1014.85V33.1774H1013.25V35.4921H1010.85V37.8068Z" fill="#EEEEEE"/>
<path d="M1022.06 23.147H1019.66V31.6342H1022.06V33.1774L1024.47 33.1774V35.4921H1026.87V37.8068H1028.47V29.3195L1026.07 29.3195V27.7764H1024.47V25.4617H1022.06V23.147Z" fill="#EEEEEE"/>
<path d="M1017.26 20.0607V17.746H1019.66V20.0607H1017.26Z" fill="#EEEEEE"/>
<path d="M905 26.2333V28.548H913.811V26.2333H915.413V23.9186H917.816V21.6039H920.219V20.0608H911.408V22.3755H909.806V23.9186H907.403V26.2333H905Z" fill="#EEEEEE"/>
<path d="M905 11.5736V9.25887H913.811V11.5736H915.413V13.8883H917.816V16.203H920.219V17.7461H911.408V15.4314H909.806V13.8883H907.403V11.5736H905Z" fill="#EEEEEE"/>
<path d="M921.02 14.6598H923.423V6.17261H921.02V4.62948H918.617V2.31478H916.214V7.91549e-05H914.612V8.48731H917.015V10.0304H918.617V12.3451H921.02V14.6598Z" fill="#EEEEEE"/>
<path d="M932.234 7.80852e-05H934.637V8.48731H932.234V10.0304H929.831V12.3451H927.428V14.6598H925.826V6.17261H928.229V4.62948H929.831V2.31478H932.234V7.80852e-05Z" fill="#EEEEEE"/>
<path d="M944.249 11.5736V9.25887H935.438V11.5736H933.836V13.8883H931.433V16.203H929.03V17.7461H937.841V15.4314H939.443V13.8883H941.846V11.5736H944.249Z" fill="#EEEEEE"/>
<path d="M944.249 26.2333V28.548H935.438V26.2333H933.836V23.9186H931.433V21.6039H929.03V20.0608H937.841V22.3755H939.443V23.9186H941.846V26.2333H944.249Z" fill="#EEEEEE"/>
<path d="M917.015 37.8068H914.612L914.612 29.3196H917.015V27.7765H919.418V25.4618H921.821V23.1471H923.423V31.6343H921.02V33.1774H919.418V35.4921H917.015V37.8068Z" fill="#EEEEEE"/>
<path d="M928.229 23.147H925.826L925.826 31.6342H928.229V33.1774L930.632 33.1774V35.4921H933.035V37.8068H934.637V29.3195L932.234 29.3195V27.7764H930.632V25.4617H928.229V23.147Z" fill="#EEEEEE"/>
<path d="M923.423 20.0607V17.746H925.826V20.0607H923.423Z" fill="#EEEEEE"/>
<path d="M951.917 21.5188V16.5443H953.983V14.5544H956.049V12.5645H958.114V10.5747H960.18V8.58485H962.246V6.59497H964.311V4.60522H966.377V2.6155H968.443V0.625545H974.64V2.6155H976.706V4.60518H978.772V6.59501H980.837V8.58481H982.903V10.5748H984.969V12.5646H987.034V14.5544H989.1V16.5441H991.166V21.5187H988.067V17.5391H986.002V15.5493H983.936V13.5595H981.87V11.5696H979.804V9.57976H977.739V7.58992H975.673V5.60024H973.607V3.61029H969.476V5.60024H967.41V7.58996H965.344V9.57972H963.279V11.5696H961.213V13.5595H959.147V15.5493H957.081V17.5391H955.016V21.5188H951.917Z" fill="#EEEEEE"/>
<path d="M951.917 16.5443V21.5188L953.983 21.5186V23.5086H956.048V25.4984H958.114V27.4882H960.18V29.478H962.246V31.4678H964.311V33.4576H966.377V35.4475H968.443V37.4374H974.64V35.4475H976.706V33.4576H978.772V31.4678H980.837V29.4781H982.903V27.4882H984.969V25.4983H987.034V23.5086H989.1V21.5187L991.166 21.5187V16.5441L988.067 16.5441V20.5238H986.002V22.5136H983.936V24.5034H981.87V26.4933H979.804V28.4831H977.739V30.4729H975.673V32.4628H973.607V34.4526H969.476V32.4627H967.41V30.4729H965.344V28.4831H963.279V26.4933H961.213V24.5034H959.147V22.5136H957.081V20.5239H955.016V16.5441L951.917 16.5443Z" fill="#EEEEEE"/>
<path d="M969.476 21.5188V16.5442H974.64V21.5188H969.476Z" fill="#EEEEEE"/>
<path d="M1045.75 21.5189V16.5443H1047.82V14.5544H1049.88V12.5646H1051.95V10.5749H1054.01V8.58494H1056.08V6.5951H1058.15V4.6053H1060.21V2.61555H1062.28V0.625674H1068.47V2.61559H1070.54V4.60527H1072.61V6.5951H1074.67V8.5849H1076.74V10.5749H1078.8V12.5647H1080.87V14.5544H1082.93V16.5443H1085V21.5188H1081.9V17.5392H1079.84V15.5494H1077.77V13.5596H1075.7V11.5696H1073.64V9.57985H1071.57V7.59001H1069.51V5.60033H1067.44V3.61042H1063.31V5.60029H1061.24V7.59005H1059.18V9.57985H1057.11V11.5697H1055.05V13.5596H1052.98V15.5494H1050.92V17.5392H1048.85V21.5189H1045.75Z" fill="#EEEEEE"/>
<path d="M1045.75 16.5443V21.5189L1047.82 21.5188V23.5087H1049.88V25.4985H1051.95V27.4883H1054.01V29.4781H1056.08V31.468H1058.15V33.4578H1060.21V35.4476H1062.28V37.4375H1068.47V35.4476H1070.54V33.4577H1072.61V31.468H1074.67V29.4782H1076.74V27.4883H1078.8V25.4985H1080.87V23.5087H1082.93V21.5188L1085 21.5188V16.5443L1081.9 16.5442V20.5239H1079.84V22.5137H1077.77V24.5036H1075.7V26.4935H1073.64V28.4832H1071.57V30.473H1069.51V32.4629H1067.44V34.4528H1063.31V32.4629H1061.24V30.473H1059.18V28.4832H1057.11V26.4934H1055.05V24.5036H1052.98V22.5138H1050.92V20.5239H1048.85V16.5442L1045.75 16.5443Z" fill="#EEEEEE"/>
<path d="M1063.31 21.5189V16.5443H1068.47V21.5189H1063.31Z" fill="#EEEEEE"/>
<path d="M951.917 71.4265V73.7412H960.728V71.4265H962.33V69.1118H964.733V66.7971H967.136V65.2539H958.325V67.5686H956.723V69.1118H954.32V71.4265H951.917Z" fill="#EEEEEE"/>
<path d="M951.917 56.7666V54.4519H960.728V56.7666H962.33V59.0813H964.733V61.396H967.136V62.9392H958.325V60.6245H956.723V59.0813H954.32V56.7666H951.917Z" fill="#EEEEEE"/>
<path d="M967.937 59.8529H970.34V51.3657H967.937V49.8225H965.534V47.5078H963.131V45.1931H961.529V53.6804H963.932V55.2235H965.534V57.5382H967.937V59.8529Z" fill="#EEEEEE"/>
<path d="M979.151 45.1932H981.554V53.6804H979.151V55.2235H976.748V57.5382H974.345V59.8529H972.743V51.3657H975.146V49.8226H976.748V47.5079H979.151V45.1932Z" fill="#EEEEEE"/>
<path d="M991.166 56.7667V54.452H982.355V56.7667H980.753V59.0814H978.35V61.3961H975.947V62.9392H984.758V60.6245H986.36V59.0814H988.763V56.7667H991.166Z" fill="#EEEEEE"/>
<path d="M991.166 71.4265V73.7412H982.355V71.4265H980.753V69.1118H978.35V66.7971H975.947V65.254H984.758V67.5687H986.36V69.1118H988.763V71.4265H991.166Z" fill="#EEEEEE"/>
<path d="M963.932 82.9999H961.529V74.5127H963.932V72.9696H966.335V70.6549H968.738V68.3402H970.34V76.8274H967.937V78.3705H966.335V80.6852H963.932V82.9999Z" fill="#EEEEEE"/>
<path d="M975.146 68.3401H972.743V76.8273H975.146V78.3705H977.549V80.6852H979.952V82.9999H981.554V74.5126L979.151 74.5126V72.9695H977.549V70.6548H975.146V68.3401Z" fill="#EEEEEE"/>
<path d="M970.34 65.2539V62.9392H972.743V65.2539H970.34Z" fill="#EEEEEE"/>
<path d="M905 66.7121V61.7375H907.066V59.7476H909.132V57.7577H911.197V55.7679H913.263V53.7781H915.329V51.7882H917.394V49.7984H919.46V47.8087H921.526V45.8188H927.723V47.8087H929.789V49.7984H931.855V51.7882H933.92V53.778H935.986V55.768H938.052V57.7578H940.117V59.7476H942.183V61.7374H944.249V66.7119H941.15V62.7324H939.084V60.7425H937.019V58.7527H934.953V56.7628H932.887V54.773H930.822V52.7831H928.756V50.7935H926.69V48.8035H922.559V50.7934H920.493V52.7832H918.427V54.7729H916.361V56.7628H914.296V58.7527H912.23V60.7424H910.164V62.7323H908.099V66.7121H905Z" fill="#EEEEEE"/>
<path d="M905 61.7375V66.7121L907.066 66.7119V68.7019H909.131V70.6917H911.197V72.6815H913.263V74.6713H915.329V76.6611H917.394V78.6509H919.46V80.6408H921.526V82.6307H927.723V80.6408H929.789V78.6509H931.855V76.6611H933.92V74.6714H935.986V72.6815H938.052V70.6916H940.117V68.7018H942.183V66.712L944.249 66.7119V61.7374L941.15 61.7374V65.7171H939.084V67.7068H937.019V69.6967H934.953V71.6866H932.887V73.6764H930.822V75.6662H928.756V77.656H926.69V79.6459H922.559V77.656H920.493V75.6662H918.427V73.6764H916.361V71.6866H914.296V69.6967H912.23V67.7069H910.164V65.7172H908.099V61.7373L905 61.7375Z" fill="#EEEEEE"/>
<path d="M922.559 66.712V61.7375H927.723V66.712H922.559Z" fill="#EEEEEE"/>
<path d="M1045.75 71.4265V73.7412H1054.56V71.4265H1056.16V69.1118H1058.57V66.7971H1060.97V65.2539H1052.16V67.5686H1050.56V69.1118H1048.15V71.4265H1045.75Z" fill="#EEEEEE"/>
<path d="M1045.75 56.7668V54.4521H1054.56V56.7668H1056.16V59.0815H1058.57V61.3962H1060.97V62.9393H1052.16V60.6246H1050.56V59.0815H1048.15V56.7668H1045.75Z" fill="#EEEEEE"/>
<path d="M1061.77 59.853H1064.17V51.3657H1061.77V49.8226H1059.37V47.5079H1056.97V45.1932H1055.36V53.6804H1057.77V55.2236H1059.37V57.5383H1061.77V59.853Z" fill="#EEEEEE"/>
<path d="M1072.99 45.1932H1075.39V53.6805H1072.99V55.2236H1070.58V57.5383H1068.18V59.853H1066.58V51.3658H1068.98V49.8226H1070.58V47.5079H1072.99V45.1932Z" fill="#EEEEEE"/>
<path d="M1085 56.7668V54.4521H1076.19V56.7668H1074.59V59.0815H1072.18V61.3962H1069.78V62.9393H1078.59V60.6246H1080.19V59.0815H1082.6V56.7668H1085Z" fill="#EEEEEE"/>
<path d="M1085 71.4265V73.7412H1076.19V71.4265H1074.59V69.1118H1072.18V66.7971H1069.78V65.254H1078.59V67.5687H1080.19V69.1118H1082.6V71.4265H1085Z" fill="#EEEEEE"/>
<path d="M1057.77 83H1055.36V74.5128H1057.77V72.9696H1060.17V70.6549H1062.57V68.3402H1064.17V76.8275H1061.77V78.3706H1060.17V80.6853H1057.77V83Z" fill="#EEEEEE"/>
<path d="M1068.98 68.3401H1066.58V76.8274H1068.98V78.3705H1071.38V80.6852H1073.79V82.9999H1075.39V74.5127H1072.99V72.9695H1071.38V70.6548H1068.98V68.3401Z" fill="#EEEEEE"/>
<path d="M1064.17 65.2539V62.9392H1066.58V65.2539H1064.17Z" fill="#EEEEEE"/>
<path d="M998.834 66.712V61.7374H1000.9V59.7475H1002.97V57.7577H1005.03V55.7679H1007.1V53.778H1009.16V51.7882H1011.23V49.7984H1013.29V47.8086H1015.36V45.8187H1021.56V47.8087H1023.62V49.7983H1025.69V51.7882H1027.75V53.7779H1029.82V55.7679H1031.89V57.7577H1033.95V59.7475H1036.02V61.7373H1038.08V66.7119H1034.98V62.7323H1032.92V60.7425H1030.85V58.7527H1028.79V56.7627H1026.72V54.7729H1024.66V52.7831H1022.59V50.7934H1020.52V48.8034H1016.39V50.7934H1014.33V52.7831H1012.26V54.7729H1010.2V56.7628H1008.13V58.7527H1006.06V60.7424H1004V62.7323H1001.93V66.712H998.834Z" fill="#EEEEEE"/>
<path d="M998.834 61.7374V66.712L1000.9 66.7118V68.7017H1002.97V70.6915H1005.03V72.6813H1007.1V74.6712H1009.16V76.661H1011.23V78.6508H1013.29V80.6406H1015.36V82.6305H1021.56V80.6406H1023.62V78.6508H1025.69V76.661H1027.75V74.6712H1029.82V72.6813H1031.89V70.6915H1033.95V68.7017H1036.02V66.7118L1038.08 66.7119V61.7373L1034.98 61.7372V65.717H1032.92V67.7067H1030.85V69.6966H1028.79V71.6865H1026.72V73.6763H1024.66V75.666H1022.59V77.6559H1020.52V79.6458H1016.39V77.6559H1014.33V75.6661H1012.26V73.6763H1010.2V71.6864H1008.13V69.6966H1006.06V67.7068H1004V65.717H1001.93V61.7372L998.834 61.7374Z" fill="#EEEEEE"/>
<path d="M1016.39 66.7119V61.7374H1021.56V66.7119H1016.39Z" fill="#EEEEEE"/>
</g>
<g opacity="0.1">
<path d="M1182.83 26.2333V28.548H1191.65V26.2333H1193.25V23.9186H1195.65V21.6039H1198.05V20.0608H1189.24V22.3755H1187.64V23.9186H1185.24V26.2333H1182.83Z" fill="#EEEEEE"/>
<path d="M1182.83 11.5735V9.25883H1191.65V11.5735H1193.25V13.8882H1195.65V16.2029H1198.05V17.7461H1189.24V15.4314H1187.64V13.8882H1185.24V11.5735H1182.83Z" fill="#EEEEEE"/>
<path d="M1198.85 14.6598H1201.26V6.17253H1198.85V4.6294H1196.45V2.3147H1194.05V0H1192.45V8.48723H1194.85V10.0304H1196.45V12.3451H1198.85V14.6598Z" fill="#EEEEEE"/>
<path d="M1210.07 7.80852e-05H1212.47V8.48731H1210.07V10.0304H1207.66V12.3451H1205.26V14.6598H1203.66V6.17261H1206.06V4.62948H1207.66V2.31478H1210.07V7.80852e-05Z" fill="#EEEEEE"/>
<path d="M1222.08 11.5736V9.25887H1213.27V11.5736H1211.67V13.8883H1209.27V16.203H1206.86V17.7461H1215.67V15.4314H1217.28V13.8883H1219.68V11.5736H1222.08Z" fill="#EEEEEE"/>
<path d="M1222.08 26.2334V28.5481H1213.27V26.2334H1211.67V23.9187H1209.27V21.604H1206.86V20.0609H1215.67V22.3756H1217.28V23.9187H1219.68V26.2334H1222.08Z" fill="#EEEEEE"/>
<path d="M1194.85 37.8068H1192.45V29.3196H1194.85V27.7765H1197.25V25.4618H1199.66V23.1471H1201.26V31.6343H1198.85V33.1774H1197.25V35.4921H1194.85V37.8068Z" fill="#EEEEEE"/>
<path d="M1206.06 23.147H1203.66V31.6342H1206.06V33.1774L1208.47 33.1774V35.4921H1210.87V37.8068H1212.47V29.3195L1210.07 29.3195V27.7764H1208.47V25.4617H1206.06V23.147Z" fill="#EEEEEE"/>
<path d="M1201.26 20.0607V17.746H1203.66V20.0607H1201.26Z" fill="#EEEEEE"/>
<path d="M1089 26.2333V28.548H1097.81V26.2333H1099.41V23.9186H1101.82V21.6039H1104.22V20.0608H1095.41V22.3755H1093.81V23.9186H1091.4V26.2333H1089Z" fill="#EEEEEE"/>
<path d="M1089 11.5736V9.25887H1097.81V11.5736H1099.41V13.8883H1101.82V16.203H1104.22V17.7461H1095.41V15.4314H1093.81V13.8883H1091.4V11.5736H1089Z" fill="#EEEEEE"/>
<path d="M1105.02 14.6598H1107.42V6.17261H1105.02V4.62948H1102.62V2.31478H1100.21V7.91549e-05H1098.61V8.48731H1101.01V10.0304H1102.62V12.3451H1105.02V14.6598Z" fill="#EEEEEE"/>
<path d="M1116.23 7.80852e-05H1118.64V8.48731H1116.23V10.0304H1113.83V12.3451H1111.43V14.6598H1109.83V6.17261H1112.23V4.62948H1113.83V2.31478H1116.23V7.80852e-05Z" fill="#EEEEEE"/>
<path d="M1128.25 11.5736V9.25887H1119.44V11.5736H1117.84V13.8883H1115.43V16.203H1113.03V17.7461H1121.84V15.4314H1123.44V13.8883H1125.85V11.5736H1128.25Z" fill="#EEEEEE"/>
<path d="M1128.25 26.2333V28.548H1119.44V26.2333H1117.84V23.9186H1115.43V21.6039H1113.03V20.0608H1121.84V22.3755H1123.44V23.9186H1125.85V26.2333H1128.25Z" fill="#EEEEEE"/>
<path d="M1101.01 37.8068H1098.61L1098.61 29.3196H1101.01V27.7765H1103.42V25.4618H1105.82V23.1471H1107.42V31.6343H1105.02V33.1774H1103.42V35.4921H1101.01V37.8068Z" fill="#EEEEEE"/>
<path d="M1112.23 23.147H1109.83L1109.83 31.6342H1112.23V33.1774L1114.63 33.1774V35.4921H1117.03V37.8068H1118.64V29.3195L1116.23 29.3195V27.7764H1114.63V25.4617H1112.23V23.147Z" fill="#EEEEEE"/>
<path d="M1107.42 20.0607V17.746H1109.83V20.0607H1107.42Z" fill="#EEEEEE"/>
<path d="M1135.92 21.5188V16.5443H1137.98V14.5544H1140.05V12.5645H1142.11V10.5747H1144.18V8.58485H1146.25V6.59497H1148.31V4.60522H1150.38V2.6155H1152.44V0.625545H1158.64V2.6155H1160.71V4.60518H1162.77V6.59501H1164.84V8.58481H1166.9V10.5748H1168.97V12.5646H1171.03V14.5544H1173.1V16.5441H1175.17V21.5187H1172.07V17.5391H1170V15.5493H1167.94V13.5595H1165.87V11.5696H1163.8V9.57976H1161.74V7.58992H1159.67V5.60024H1157.61V3.61029H1153.48V5.60024H1151.41V7.58996H1149.34V9.57972H1147.28V11.5696H1145.21V13.5595H1143.15V15.5493H1141.08V17.5391H1139.02V21.5188H1135.92Z" fill="#EEEEEE"/>
<path d="M1135.92 16.5443V21.5188L1137.98 21.5186V23.5086H1140.05V25.4984H1142.11V27.4882H1144.18V29.478H1146.25V31.4678H1148.31V33.4576H1150.38V35.4475H1152.44V37.4374H1158.64V35.4475H1160.71V33.4576H1162.77V31.4678H1164.84V29.4781H1166.9V27.4882H1168.97V25.4983H1171.03V23.5086H1173.1V21.5187L1175.17 21.5187V16.5441L1172.07 16.5441V20.5238H1170V22.5136H1167.94V24.5034H1165.87V26.4933H1163.8V28.4831H1161.74V30.4729H1159.67V32.4628H1157.61V34.4526H1153.48V32.4627H1151.41V30.4729H1149.34V28.4831H1147.28V26.4933H1145.21V24.5034H1143.15V22.5136H1141.08V20.5239H1139.02V16.5441L1135.92 16.5443Z" fill="#EEEEEE"/>
<path d="M1153.48 21.5188V16.5442H1158.64V21.5188H1153.48Z" fill="#EEEEEE"/>
<path d="M1229.75 21.5189V16.5443H1231.82V14.5544H1233.88V12.5646H1235.95V10.5749H1238.01V8.58494H1240.08V6.5951H1242.15V4.6053H1244.21V2.61555H1246.28V0.625674H1252.47V2.61559H1254.54V4.60527H1256.61V6.5951H1258.67V8.5849H1260.74V10.5749H1262.8V12.5647H1264.87V14.5544H1266.93V16.5443H1269V21.5188H1265.9V17.5392H1263.84V15.5494H1261.77V13.5596H1259.7V11.5696H1257.64V9.57985H1255.57V7.59001H1253.51V5.60033H1251.44V3.61042H1247.31V5.60029H1245.24V7.59005H1243.18V9.57985H1241.11V11.5697H1239.05V13.5596H1236.98V15.5494H1234.92V17.5392H1232.85V21.5189H1229.75Z" fill="#EEEEEE"/>
<path d="M1229.75 16.5443V21.5189L1231.82 21.5188V23.5087H1233.88V25.4985H1235.95V27.4883H1238.01V29.4781H1240.08V31.468H1242.15V33.4578H1244.21V35.4476H1246.28V37.4375H1252.47V35.4476H1254.54V33.4577H1256.61V31.468H1258.67V29.4782H1260.74V27.4883H1262.8V25.4985H1264.87V23.5087H1266.93V21.5188L1269 21.5188V16.5443L1265.9 16.5442V20.5239H1263.84V22.5137H1261.77V24.5036H1259.7V26.4935H1257.64V28.4832H1255.57V30.473H1253.51V32.4629H1251.44V34.4528H1247.31V32.4629H1245.24V30.473H1243.18V28.4832H1241.11V26.4934H1239.05V24.5036H1236.98V22.5138H1234.92V20.5239H1232.85V16.5442L1229.75 16.5443Z" fill="#EEEEEE"/>
<path d="M1247.31 21.5189V16.5443H1252.47V21.5189H1247.31Z" fill="#EEEEEE"/>
<path d="M1135.92 71.4265V73.7412H1144.73V71.4265H1146.33V69.1118H1148.73V66.7971H1151.14V65.2539H1142.33V67.5686H1140.72V69.1118H1138.32V71.4265H1135.92Z" fill="#EEEEEE"/>
<path d="M1135.92 56.7666V54.4519H1144.73V56.7666H1146.33V59.0813H1148.73V61.396H1151.14V62.9392H1142.33V60.6245H1140.72V59.0813H1138.32V56.7666H1135.92Z" fill="#EEEEEE"/>
<path d="M1151.94 59.8529H1154.34V51.3657H1151.94V49.8225H1149.53V47.5078H1147.13V45.1931H1145.53V53.6804H1147.93V55.2235H1149.53V57.5382H1151.94V59.8529Z" fill="#EEEEEE"/>
<path d="M1163.15 45.1932H1165.55V53.6804H1163.15V55.2235H1160.75V57.5382H1158.35V59.8529H1156.74V51.3657H1159.15V49.8226H1160.75V47.5079H1163.15V45.1932Z" fill="#EEEEEE"/>
<path d="M1175.17 56.7667V54.452H1166.36V56.7667H1164.75V59.0814H1162.35V61.3961H1159.95V62.9392H1168.76V60.6245H1170.36V59.0814H1172.76V56.7667H1175.17Z" fill="#EEEEEE"/>
<path d="M1175.17 71.4265V73.7412H1166.36V71.4265H1164.75V69.1118H1162.35V66.7971H1159.95V65.254H1168.76V67.5687H1170.36V69.1118H1172.76V71.4265H1175.17Z" fill="#EEEEEE"/>
<path d="M1147.93 82.9999H1145.53V74.5127H1147.93V72.9696H1150.34V70.6549H1152.74V68.3402H1154.34V76.8274H1151.94V78.3705H1150.34V80.6852H1147.93V82.9999Z" fill="#EEEEEE"/>
<path d="M1159.15 68.3401H1156.74V76.8273H1159.15V78.3705H1161.55V80.6852H1163.95V82.9999H1165.55V74.5126L1163.15 74.5126V72.9695H1161.55V70.6548H1159.15V68.3401Z" fill="#EEEEEE"/>
<path d="M1154.34 65.2539V62.9392H1156.74V65.2539H1154.34Z" fill="#EEEEEE"/>
<path d="M1089 66.7121V61.7375H1091.07V59.7476H1093.13V57.7577H1095.2V55.7679H1097.26V53.7781H1099.33V51.7882H1101.39V49.7984H1103.46V47.8087H1105.53V45.8188H1111.72V47.8087H1113.79V49.7984H1115.85V51.7882H1117.92V53.778H1119.99V55.768H1122.05V57.7578H1124.12V59.7476H1126.18V61.7374H1128.25V66.7119H1125.15V62.7324H1123.08V60.7425H1121.02V58.7527H1118.95V56.7628H1116.89V54.773H1114.82V52.7831H1112.76V50.7935H1110.69V48.8035H1106.56V50.7934H1104.49V52.7832H1102.43V54.7729H1100.36V56.7628H1098.3V58.7527H1096.23V60.7424H1094.16V62.7323H1092.1V66.7121H1089Z" fill="#EEEEEE"/>
<path d="M1089 61.7375V66.7121L1091.07 66.7119V68.7019H1093.13V70.6917H1095.2V72.6815H1097.26V74.6713H1099.33V76.6611H1101.39V78.6509H1103.46V80.6408H1105.53V82.6307H1111.72V80.6408H1113.79V78.6509H1115.85V76.6611H1117.92V74.6714H1119.99V72.6815H1122.05V70.6916H1124.12V68.7018H1126.18V66.712L1128.25 66.7119V61.7374L1125.15 61.7374V65.7171H1123.08V67.7068H1121.02V69.6967H1118.95V71.6866H1116.89V73.6764H1114.82V75.6662H1112.76V77.656H1110.69V79.6459H1106.56V77.656H1104.49V75.6662H1102.43V73.6764H1100.36V71.6866H1098.3V69.6967H1096.23V67.7069H1094.16V65.7172H1092.1V61.7373L1089 61.7375Z" fill="#EEEEEE"/>
<path d="M1106.56 66.712V61.7375H1111.72V66.712H1106.56Z" fill="#EEEEEE"/>
<path d="M1229.75 71.4265V73.7412H1238.56V71.4265H1240.16V69.1118H1242.57V66.7971H1244.97V65.2539H1236.16V67.5686H1234.56V69.1118H1232.15V71.4265H1229.75Z" fill="#EEEEEE"/>
<path d="M1229.75 56.7668V54.4521H1238.56V56.7668H1240.16V59.0815H1242.57V61.3962H1244.97V62.9393H1236.16V60.6246H1234.56V59.0815H1232.15V56.7668H1229.75Z" fill="#EEEEEE"/>
<path d="M1245.77 59.853H1248.17V51.3657H1245.77V49.8226H1243.37V47.5079H1240.97V45.1932H1239.36V53.6804H1241.77V55.2236H1243.37V57.5383H1245.77V59.853Z" fill="#EEEEEE"/>
<path d="M1256.99 45.1932H1259.39V53.6805H1256.99V55.2236H1254.58V57.5383H1252.18V59.853H1250.58V51.3658H1252.98V49.8226H1254.58V47.5079H1256.99V45.1932Z" fill="#EEEEEE"/>
<path d="M1269 56.7668V54.4521H1260.19V56.7668H1258.59V59.0815H1256.18V61.3962H1253.78V62.9393H1262.59V60.6246H1264.19V59.0815H1266.6V56.7668H1269Z" fill="#EEEEEE"/>
<path d="M1269 71.4265V73.7412H1260.19V71.4265H1258.59V69.1118H1256.18V66.7971H1253.78V65.254H1262.59V67.5687H1264.19V69.1118H1266.6V71.4265H1269Z" fill="#EEEEEE"/>
<path d="M1241.77 83H1239.36V74.5128H1241.77V72.9696H1244.17V70.6549H1246.57V68.3402H1248.17V76.8275H1245.77V78.3706H1244.17V80.6853H1241.77V83Z" fill="#EEEEEE"/>
<path d="M1252.98 68.3401H1250.58V76.8274H1252.98V78.3705H1255.38V80.6852H1257.79V82.9999H1259.39V74.5127H1256.99V72.9695H1255.38V70.6548H1252.98V68.3401Z" fill="#EEEEEE"/>
<path d="M1248.17 65.2539V62.9392H1250.58V65.2539H1248.17Z" fill="#EEEEEE"/>
<path d="M1182.83 66.712V61.7374H1184.9V59.7475H1186.97V57.7577H1189.03V55.7679H1191.1V53.778H1193.16V51.7882H1195.23V49.7984H1197.29V47.8086H1199.36V45.8187H1205.56V47.8087H1207.62V49.7983H1209.69V51.7882H1211.75V53.7779H1213.82V55.7679H1215.89V57.7577H1217.95V59.7475H1220.02V61.7373H1222.08V66.7119H1218.98V62.7323H1216.92V60.7425H1214.85V58.7527H1212.79V56.7627H1210.72V54.7729H1208.66V52.7831H1206.59V50.7934H1204.52V48.8034H1200.39V50.7934H1198.33V52.7831H1196.26V54.7729H1194.2V56.7628H1192.13V58.7527H1190.06V60.7424H1188V62.7323H1185.93V66.712H1182.83Z" fill="#EEEEEE"/>
<path d="M1182.83 61.7374V66.712L1184.9 66.7118V68.7017H1186.97V70.6915H1189.03V72.6813H1191.1V74.6712H1193.16V76.661H1195.23V78.6508H1197.29V80.6406H1199.36V82.6305H1205.56V80.6406H1207.62V78.6508H1209.69V76.661H1211.75V74.6712H1213.82V72.6813H1215.89V70.6915H1217.95V68.7017H1220.02V66.7118L1222.08 66.7119V61.7373L1218.98 61.7372V65.717H1216.92V67.7067H1214.85V69.6966H1212.79V71.6865H1210.72V73.6763H1208.66V75.666H1206.59V77.6559H1204.52V79.6458H1200.39V77.6559H1198.33V75.6661H1196.26V73.6763H1194.2V71.6864H1192.13V69.6966H1190.06V67.7068H1188V65.717H1185.93V61.7372L1182.83 61.7374Z" fill="#EEEEEE"/>
<path d="M1200.39 66.7119V61.7374H1205.56V66.7119H1200.39Z" fill="#EEEEEE"/>
</g>
<g opacity="0.1">
<path d="M1365.83 26.2333V28.548H1374.65V26.2333H1376.25V23.9186H1378.65V21.6039H1381.05V20.0608H1372.24V22.3755H1370.64V23.9186H1368.24V26.2333H1365.83Z" fill="#EEEEEE"/>
<path d="M1365.83 11.5735V9.25883H1374.65V11.5735H1376.25V13.8882H1378.65V16.2029H1381.05V17.7461H1372.24V15.4314H1370.64V13.8882H1368.24V11.5735H1365.83Z" fill="#EEEEEE"/>
<path d="M1381.85 14.6598H1384.26V6.17253H1381.85V4.6294H1379.45V2.3147H1377.05V0H1375.45V8.48723H1377.85V10.0304H1379.45V12.3451H1381.85V14.6598Z" fill="#EEEEEE"/>
<path d="M1393.07 7.80852e-05H1395.47V8.48731H1393.07V10.0304H1390.66V12.3451H1388.26V14.6598H1386.66V6.17261H1389.06V4.62948H1390.66V2.31478H1393.07V7.80852e-05Z" fill="#EEEEEE"/>
<path d="M1405.08 11.5736V9.25887H1396.27V11.5736H1394.67V13.8883H1392.27V16.203H1389.86V17.7461H1398.67V15.4314H1400.28V13.8883H1402.68V11.5736H1405.08Z" fill="#EEEEEE"/>
<path d="M1405.08 26.2334V28.5481H1396.27V26.2334H1394.67V23.9187H1392.27V21.604H1389.86V20.0609H1398.67V22.3756H1400.28V23.9187H1402.68V26.2334H1405.08Z" fill="#EEEEEE"/>
<path d="M1377.85 37.8068H1375.45V29.3196H1377.85V27.7765H1380.25V25.4618H1382.66V23.1471H1384.26V31.6343H1381.85V33.1774H1380.25V35.4921H1377.85V37.8068Z" fill="#EEEEEE"/>
<path d="M1389.06 23.147H1386.66V31.6342H1389.06V33.1774L1391.47 33.1774V35.4921H1393.87V37.8068H1395.47V29.3195L1393.07 29.3195V27.7764H1391.47V25.4617H1389.06V23.147Z" fill="#EEEEEE"/>
<path d="M1384.26 20.0607V17.746H1386.66V20.0607H1384.26Z" fill="#EEEEEE"/>
<path d="M1272 26.2333V28.548H1280.81V26.2333H1282.41V23.9186H1284.82V21.6039H1287.22V20.0608H1278.41V22.3755H1276.81V23.9186H1274.4V26.2333H1272Z" fill="#EEEEEE"/>
<path d="M1272 11.5736V9.25887H1280.81V11.5736H1282.41V13.8883H1284.82V16.203H1287.22V17.7461H1278.41V15.4314H1276.81V13.8883H1274.4V11.5736H1272Z" fill="#EEEEEE"/>
<path d="M1288.02 14.6598H1290.42V6.17261H1288.02V4.62948H1285.62V2.31478H1283.21V7.91549e-05H1281.61V8.48731H1284.01V10.0304H1285.62V12.3451H1288.02V14.6598Z" fill="#EEEEEE"/>
<path d="M1299.23 7.80852e-05H1301.64V8.48731H1299.23V10.0304H1296.83V12.3451H1294.43V14.6598H1292.83V6.17261H1295.23V4.62948H1296.83V2.31478H1299.23V7.80852e-05Z" fill="#EEEEEE"/>
<path d="M1311.25 11.5736V9.25887H1302.44V11.5736H1300.84V13.8883H1298.43V16.203H1296.03V17.7461H1304.84V15.4314H1306.44V13.8883H1308.85V11.5736H1311.25Z" fill="#EEEEEE"/>
<path d="M1311.25 26.2333V28.548H1302.44V26.2333H1300.84V23.9186H1298.43V21.6039H1296.03V20.0608H1304.84V22.3755H1306.44V23.9186H1308.85V26.2333H1311.25Z" fill="#EEEEEE"/>
<path d="M1284.01 37.8068H1281.61L1281.61 29.3196H1284.01V27.7765H1286.42V25.4618H1288.82V23.1471H1290.42V31.6343H1288.02V33.1774H1286.42V35.4921H1284.01V37.8068Z" fill="#EEEEEE"/>
<path d="M1295.23 23.147H1292.83L1292.83 31.6342H1295.23V33.1774L1297.63 33.1774V35.4921H1300.03V37.8068H1301.64V29.3195L1299.23 29.3195V27.7764H1297.63V25.4617H1295.23V23.147Z" fill="#EEEEEE"/>
<path d="M1290.42 20.0607V17.746H1292.83V20.0607H1290.42Z" fill="#EEEEEE"/>
<path d="M1318.92 21.5188V16.5443H1320.98V14.5544H1323.05V12.5645H1325.11V10.5747H1327.18V8.58485H1329.25V6.59497H1331.31V4.60522H1333.38V2.6155H1335.44V0.625545H1341.64V2.6155H1343.71V4.60518H1345.77V6.59501H1347.84V8.58481H1349.9V10.5748H1351.97V12.5646H1354.03V14.5544H1356.1V16.5441H1358.17V21.5187H1355.07V17.5391H1353V15.5493H1350.94V13.5595H1348.87V11.5696H1346.8V9.57976H1344.74V7.58992H1342.67V5.60024H1340.61V3.61029H1336.48V5.60024H1334.41V7.58996H1332.34V9.57972H1330.28V11.5696H1328.21V13.5595H1326.15V15.5493H1324.08V17.5391H1322.02V21.5188H1318.92Z" fill="#EEEEEE"/>
<path d="M1318.92 16.5443V21.5188L1320.98 21.5186V23.5086H1323.05V25.4984H1325.11V27.4882H1327.18V29.478H1329.25V31.4678H1331.31V33.4576H1333.38V35.4475H1335.44V37.4374H1341.64V35.4475H1343.71V33.4576H1345.77V31.4678H1347.84V29.4781H1349.9V27.4882H1351.97V25.4983H1354.03V23.5086H1356.1V21.5187L1358.17 21.5187V16.5441L1355.07 16.5441V20.5238H1353V22.5136H1350.94V24.5034H1348.87V26.4933H1346.8V28.4831H1344.74V30.4729H1342.67V32.4628H1340.61V34.4526H1336.48V32.4627H1334.41V30.4729H1332.34V28.4831H1330.28V26.4933H1328.21V24.5034H1326.15V22.5136H1324.08V20.5239H1322.02V16.5441L1318.92 16.5443Z" fill="#EEEEEE"/>
<path d="M1336.48 21.5188V16.5442H1341.64V21.5188H1336.48Z" fill="#EEEEEE"/>
<path d="M1412.75 21.5189V16.5443H1414.82V14.5544H1416.88V12.5646H1418.95V10.5749H1421.01V8.58494H1423.08V6.5951H1425.15V4.6053H1427.21V2.61555H1429.28V0.625674H1435.47V2.61559H1437.54V4.60527H1439.61V6.5951H1441.67V8.5849H1443.74V10.5749H1445.8V12.5647H1447.87V14.5544H1449.93V16.5443H1452V21.5188H1448.9V17.5392H1446.84V15.5494H1444.77V13.5596H1442.7V11.5696H1440.64V9.57985H1438.57V7.59001H1436.51V5.60033H1434.44V3.61042H1430.31V5.60029H1428.24V7.59005H1426.18V9.57985H1424.11V11.5697H1422.05V13.5596H1419.98V15.5494H1417.92V17.5392H1415.85V21.5189H1412.75Z" fill="#EEEEEE"/>
<path d="M1412.75 16.5443V21.5189L1414.82 21.5188V23.5087H1416.88V25.4985H1418.95V27.4883H1421.01V29.4781H1423.08V31.468H1425.15V33.4578H1427.21V35.4476H1429.28V37.4375H1435.47V35.4476H1437.54V33.4577H1439.61V31.468H1441.67V29.4782H1443.74V27.4883H1445.8V25.4985H1447.87V23.5087H1449.93V21.5188L1452 21.5188V16.5443L1448.9 16.5442V20.5239H1446.84V22.5137H1444.77V24.5036H1442.7V26.4935H1440.64V28.4832H1438.57V30.473H1436.51V32.4629H1434.44V34.4528H1430.31V32.4629H1428.24V30.473H1426.18V28.4832H1424.11V26.4934H1422.05V24.5036H1419.98V22.5138H1417.92V20.5239H1415.85V16.5442L1412.75 16.5443Z" fill="#EEEEEE"/>
<path d="M1430.31 21.5189V16.5443H1435.47V21.5189H1430.31Z" fill="#EEEEEE"/>
<path d="M1318.92 71.4265V73.7412H1327.73V71.4265H1329.33V69.1118H1331.73V66.7971H1334.14V65.2539H1325.33V67.5686H1323.72V69.1118H1321.32V71.4265H1318.92Z" fill="#EEEEEE"/>
<path d="M1318.92 56.7666V54.4519H1327.73V56.7666H1329.33V59.0813H1331.73V61.396H1334.14V62.9392H1325.33V60.6245H1323.72V59.0813H1321.32V56.7666H1318.92Z" fill="#EEEEEE"/>
<path d="M1334.94 59.8529H1337.34V51.3657H1334.94V49.8225H1332.53V47.5078H1330.13V45.1931H1328.53V53.6804H1330.93V55.2235H1332.53V57.5382H1334.94V59.8529Z" fill="#EEEEEE"/>
<path d="M1346.15 45.1932H1348.55V53.6804H1346.15V55.2235H1343.75V57.5382H1341.35V59.8529H1339.74V51.3657H1342.15V49.8226H1343.75V47.5079H1346.15V45.1932Z" fill="#EEEEEE"/>
<path d="M1358.17 56.7667V54.452H1349.36V56.7667H1347.75V59.0814H1345.35V61.3961H1342.95V62.9392H1351.76V60.6245H1353.36V59.0814H1355.76V56.7667H1358.17Z" fill="#EEEEEE"/>
<path d="M1358.17 71.4265V73.7412H1349.36V71.4265H1347.75V69.1118H1345.35V66.7971H1342.95V65.254H1351.76V67.5687H1353.36V69.1118H1355.76V71.4265H1358.17Z" fill="#EEEEEE"/>
<path d="M1330.93 82.9999H1328.53V74.5127H1330.93V72.9696H1333.34V70.6549H1335.74V68.3402H1337.34V76.8274H1334.94V78.3705H1333.34V80.6852H1330.93V82.9999Z" fill="#EEEEEE"/>
<path d="M1342.15 68.3401H1339.74V76.8273H1342.15V78.3705H1344.55V80.6852H1346.95V82.9999H1348.55V74.5126L1346.15 74.5126V72.9695H1344.55V70.6548H1342.15V68.3401Z" fill="#EEEEEE"/>
<path d="M1337.34 65.2539V62.9392H1339.74V65.2539H1337.34Z" fill="#EEEEEE"/>
<path d="M1272 66.7121V61.7375H1274.07V59.7476H1276.13V57.7577H1278.2V55.7679H1280.26V53.7781H1282.33V51.7882H1284.39V49.7984H1286.46V47.8087H1288.53V45.8188H1294.72V47.8087H1296.79V49.7984H1298.85V51.7882H1300.92V53.778H1302.99V55.768H1305.05V57.7578H1307.12V59.7476H1309.18V61.7374H1311.25V66.7119H1308.15V62.7324H1306.08V60.7425H1304.02V58.7527H1301.95V56.7628H1299.89V54.773H1297.82V52.7831H1295.76V50.7935H1293.69V48.8035H1289.56V50.7934H1287.49V52.7832H1285.43V54.7729H1283.36V56.7628H1281.3V58.7527H1279.23V60.7424H1277.16V62.7323H1275.1V66.7121H1272Z" fill="#EEEEEE"/>
<path d="M1272 61.7375V66.7121L1274.07 66.7119V68.7019H1276.13V70.6917H1278.2V72.6815H1280.26V74.6713H1282.33V76.6611H1284.39V78.6509H1286.46V80.6408H1288.53V82.6307H1294.72V80.6408H1296.79V78.6509H1298.85V76.6611H1300.92V74.6714H1302.99V72.6815H1305.05V70.6916H1307.12V68.7018H1309.18V66.712L1311.25 66.7119V61.7374L1308.15 61.7374V65.7171H1306.08V67.7068H1304.02V69.6967H1301.95V71.6866H1299.89V73.6764H1297.82V75.6662H1295.76V77.656H1293.69V79.6459H1289.56V77.656H1287.49V75.6662H1285.43V73.6764H1283.36V71.6866H1281.3V69.6967H1279.23V67.7069H1277.16V65.7172H1275.1V61.7373L1272 61.7375Z" fill="#EEEEEE"/>
<path d="M1289.56 66.712V61.7375H1294.72V66.712H1289.56Z" fill="#EEEEEE"/>
<path d="M1412.75 71.4265V73.7412H1421.56V71.4265H1423.16V69.1118H1425.57V66.7971H1427.97V65.2539H1419.16V67.5686H1417.56V69.1118H1415.15V71.4265H1412.75Z" fill="#EEEEEE"/>
<path d="M1412.75 56.7668V54.4521H1421.56V56.7668H1423.16V59.0815H1425.57V61.3962H1427.97V62.9393H1419.16V60.6246H1417.56V59.0815H1415.15V56.7668H1412.75Z" fill="#EEEEEE"/>
<path d="M1428.77 59.853H1431.17V51.3657H1428.77V49.8226H1426.37V47.5079H1423.97V45.1932H1422.36V53.6804H1424.77V55.2236H1426.37V57.5383H1428.77V59.853Z" fill="#EEEEEE"/>
<path d="M1439.99 45.1932H1442.39V53.6805H1439.99V55.2236H1437.58V57.5383H1435.18V59.853H1433.58V51.3658H1435.98V49.8226H1437.58V47.5079H1439.99V45.1932Z" fill="#EEEEEE"/>
<path d="M1452 56.7668V54.4521H1443.19V56.7668H1441.59V59.0815H1439.18V61.3962H1436.78V62.9393H1445.59V60.6246H1447.19V59.0815H1449.6V56.7668H1452Z" fill="#EEEEEE"/>
<path d="M1452 71.4265V73.7412H1443.19V71.4265H1441.59V69.1118H1439.18V66.7971H1436.78V65.254H1445.59V67.5687H1447.19V69.1118H1449.6V71.4265H1452Z" fill="#EEEEEE"/>
<path d="M1424.77 83H1422.36V74.5128H1424.77V72.9696H1427.17V70.6549H1429.57V68.3402H1431.17V76.8275H1428.77V78.3706H1427.17V80.6853H1424.77V83Z" fill="#EEEEEE"/>
<path d="M1435.98 68.3401H1433.58V76.8274H1435.98V78.3705H1438.38V80.6852H1440.79V82.9999H1442.39V74.5127H1439.99V72.9695H1438.38V70.6548H1435.98V68.3401Z" fill="#EEEEEE"/>
<path d="M1431.17 65.2539V62.9392H1433.58V65.2539H1431.17Z" fill="#EEEEEE"/>
<path d="M1365.83 66.712V61.7374H1367.9V59.7475H1369.97V57.7577H1372.03V55.7679H1374.1V53.778H1376.16V51.7882H1378.23V49.7984H1380.29V47.8086H1382.36V45.8187H1388.56V47.8087H1390.62V49.7983H1392.69V51.7882H1394.75V53.7779H1396.82V55.7679H1398.89V57.7577H1400.95V59.7475H1403.02V61.7373H1405.08V66.7119H1401.98V62.7323H1399.92V60.7425H1397.85V58.7527H1395.79V56.7627H1393.72V54.7729H1391.66V52.7831H1389.59V50.7934H1387.52V48.8034H1383.39V50.7934H1381.33V52.7831H1379.26V54.7729H1377.2V56.7628H1375.13V58.7527H1373.06V60.7424H1371V62.7323H1368.93V66.712H1365.83Z" fill="#EEEEEE"/>
<path d="M1365.83 61.7374V66.712L1367.9 66.7118V68.7017H1369.97V70.6915H1372.03V72.6813H1374.1V74.6712H1376.16V76.661H1378.23V78.6508H1380.29V80.6406H1382.36V82.6305H1388.56V80.6406H1390.62V78.6508H1392.69V76.661H1394.75V74.6712H1396.82V72.6813H1398.89V70.6915H1400.95V68.7017H1403.02V66.7118L1405.08 66.7119V61.7373L1401.98 61.7372V65.717H1399.92V67.7067H1397.85V69.6966H1395.79V71.6865H1393.72V73.6763H1391.66V75.666H1389.59V77.6559H1387.52V79.6458H1383.39V77.6559H1381.33V75.6661H1379.26V73.6763H1377.2V71.6864H1375.13V69.6966H1373.06V67.7068H1371V65.717H1368.93V61.7372L1365.83 61.7374Z" fill="#EEEEEE"/>
<path d="M1383.39 66.7119V61.7374H1388.56V66.7119H1383.39Z" fill="#EEEEEE"/>
</g>
</svg>
