<svg width="334" height="118" viewBox="0 0 334 118" fill="none" xmlns="http://www.w3.org/2000/svg">
<g filter="url(#filter0_d_838_8)">
<path d="M4.22819 47V13.4H20.4042C23.5402 13.4 26.2442 13.912 28.5162 14.936C30.8202 15.96 32.5962 17.432 33.8442 19.352C35.0922 21.24 35.7162 23.48 35.7162 26.072C35.7162 28.664 35.0922 30.904 33.8442 32.792C32.5962 34.648 30.8202 36.072 28.5162 37.064C26.2442 38.056 23.5402 38.552 20.4042 38.552H10.5162L15.5562 33.896V47H4.22819ZM24.3402 47L16.0842 34.76H28.0842L36.4362 47H24.3402ZM15.5562 35.144L10.5162 30.008H19.6842C21.2522 30.008 22.4042 29.656 23.1402 28.952C23.9082 28.248 24.2922 27.288 24.2922 26.072C24.2922 24.856 23.9082 23.896 23.1402 23.192C22.4042 22.488 21.2522 22.136 19.6842 22.136H10.5162L15.5562 17V35.144Z" fill="#E62C20"/>
<path d="M36.3458 47L51.0338 13.4H62.1698L76.8578 47H65.1458L54.2978 18.776H58.7138L47.8658 47H36.3458ZM45.0818 41.144L47.9618 32.984H63.4178L66.2978 41.144H45.0818ZM78.6657 47V13.4H87.9777L105.066 33.848H100.746V13.4H111.786V47H102.474L85.3857 26.552H89.7057V47H78.6657ZM134.668 47.768C131.948 47.768 129.436 47.352 127.132 46.52C124.86 45.656 122.876 44.44 121.18 42.872C119.516 41.304 118.22 39.448 117.292 37.304C116.364 35.16 115.9 32.792 115.9 30.2C115.9 27.608 116.364 25.24 117.292 23.096C118.22 20.952 119.532 19.096 121.228 17.528C122.924 15.96 124.924 14.76 127.228 13.928C129.564 13.064 132.124 12.632 134.908 12.632C138.236 12.632 141.196 13.192 143.788 14.312C146.412 15.432 148.572 17.032 150.268 19.112L143.02 25.496C141.964 24.28 140.812 23.368 139.564 22.76C138.348 22.12 136.988 21.8 135.484 21.8C134.236 21.8 133.1 21.992 132.076 22.376C131.084 22.76 130.236 23.32 129.532 24.056C128.828 24.792 128.284 25.672 127.9 26.696C127.516 27.72 127.324 28.888 127.324 30.2C127.324 31.448 127.516 32.6 127.9 33.656C128.284 34.68 128.828 35.56 129.532 36.296C130.236 37.032 131.068 37.608 132.028 38.024C133.02 38.408 134.124 38.6 135.34 38.6C136.62 38.6 137.868 38.392 139.084 37.976C140.3 37.528 141.596 36.776 142.972 35.72L149.308 43.496C147.26 44.872 144.924 45.928 142.3 46.664C139.676 47.4 137.132 47.768 134.668 47.768ZM139.468 42.056V29.288H149.308V43.496L139.468 42.056ZM164.262 39.8L163.638 27.368L176.31 13.4H188.646L174.438 29.048L168.15 35.48L164.262 39.8ZM154.134 47V13.4H165.27V47H154.134ZM176.214 47L166.326 33.944L173.67 26.168L189.318 47H176.214ZM185.502 47L200.19 13.4H211.326L226.014 47H214.302L203.454 18.776H207.87L197.022 47H185.502ZM194.238 41.144L197.118 32.984H212.574L215.454 41.144H194.238ZM227.822 47V13.4H239.15V47H227.822ZM240.955 47L255.643 13.4H266.779L281.467 47H269.755L258.907 18.776H263.323L252.475 47H240.955ZM249.691 41.144L252.571 32.984H268.027L270.907 41.144H249.691ZM283.275 47V13.4H292.587L309.675 33.848H305.355V13.4H316.395V47H307.083L289.995 26.552H294.315V47H283.275ZM73.3067 106L87.9948 72.4H99.1308L113.819 106H102.107L91.2588 77.776H95.6748L84.8268 106H73.3067ZM82.0428 100.144L84.9228 91.984H100.379L103.259 100.144H82.0428ZM132.534 106.768C129.846 106.768 127.35 106.352 125.046 105.52C122.774 104.656 120.79 103.44 119.094 101.872C117.43 100.304 116.134 98.448 115.206 96.304C114.278 94.16 113.814 91.792 113.814 89.2C113.814 86.608 114.278 84.24 115.206 82.096C116.134 79.952 117.43 78.096 119.094 76.528C120.79 74.96 122.774 73.76 125.046 72.928C127.35 72.064 129.846 71.632 132.534 71.632C135.83 71.632 138.742 72.208 141.27 73.36C143.83 74.512 145.942 76.176 147.606 78.352L140.454 84.736C139.462 83.488 138.358 82.528 137.142 81.856C135.958 81.152 134.614 80.8 133.11 80.8C131.926 80.8 130.854 80.992 129.894 81.376C128.934 81.76 128.102 82.32 127.398 83.056C126.726 83.792 126.198 84.688 125.814 85.744C125.43 86.768 125.238 87.92 125.238 89.2C125.238 90.48 125.43 91.648 125.814 92.704C126.198 93.728 126.726 94.608 127.398 95.344C128.102 96.08 128.934 96.64 129.894 97.024C130.854 97.408 131.926 97.6 133.11 97.6C134.614 97.6 135.958 97.264 137.142 96.592C138.358 95.888 139.462 94.912 140.454 93.664L147.606 100.048C145.942 102.192 143.83 103.856 141.27 105.04C138.742 106.192 135.83 106.768 132.534 106.768ZM146.76 106L161.448 72.4H172.584L187.272 106H175.56L164.712 77.776H169.128L158.28 106H146.76ZM155.496 100.144L158.376 91.984H173.832L176.712 100.144H155.496ZM189.08 106V72.4H205.256C208.392 72.4 211.096 72.912 213.368 73.936C215.672 74.96 217.448 76.432 218.696 78.352C219.944 80.24 220.568 82.48 220.568 85.072C220.568 87.664 219.944 89.904 218.696 91.792C217.448 93.648 215.672 95.072 213.368 96.064C211.096 97.056 208.392 97.552 205.256 97.552H195.368L200.408 92.896V106H189.08ZM209.192 106L200.936 93.76H212.936L221.288 106H209.192ZM200.408 94.144L195.368 89.008H204.536C206.104 89.008 207.256 88.656 207.992 87.952C208.76 87.248 209.144 86.288 209.144 85.072C209.144 83.856 208.76 82.896 207.992 82.192C207.256 81.488 206.104 81.136 204.536 81.136H195.368L200.408 76V94.144ZM221.197 106L235.885 72.4H247.021L261.709 106H249.997L239.149 77.776H243.565L232.717 106H221.197ZM229.933 100.144L232.813 91.984H248.269L251.149 100.144H229.933Z" fill="white"/>
<ellipse cx="20" cy="27.5" rx="9" ry="8.5" fill="#E62C20"/>
<path d="M172.783 72H161.5L147 105.5H187.317L172.783 72Z" fill="#9C4A9A" stroke="#9C4A9A"/>
<path d="M246.783 72H235.5L221 105.5H261.317L246.783 72Z" fill="#4A8068" stroke="#4A8068"/>
<path d="M211.783 13H200.5L186 46.5H226.317L211.783 13Z" fill="#F69722" stroke="#F69722"/>
</g>
<defs>
<filter id="filter0_d_838_8" x="0.228188" y="12.5" width="320.167" height="102.268" filterUnits="userSpaceOnUse" color-interpolation-filters="sRGB">
<feFlood flood-opacity="0" result="BackgroundImageFix"/>
<feColorMatrix in="SourceAlpha" type="matrix" values="0 0 0 0 0 0 0 0 0 0 0 0 0 0 0 0 0 0 127 0" result="hardAlpha"/>
<feOffset dy="4"/>
<feGaussianBlur stdDeviation="2"/>
<feComposite in2="hardAlpha" operator="out"/>
<feColorMatrix type="matrix" values="0 0 0 0 0 0 0 0 0 0 0 0 0 0 0 0 0 0 0.25 0"/>
<feBlend mode="normal" in2="BackgroundImageFix" result="effect1_dropShadow_838_8"/>
<feBlend mode="normal" in="SourceGraphic" in2="effect1_dropShadow_838_8" result="shape"/>
</filter>
</defs>
</svg>
