<svg width="526" height="59" viewBox="0 0 526 59" fill="none" xmlns="http://www.w3.org/2000/svg">
<g filter="url(#filter0_d_99_103)">
<path d="M4.736 47V13.4H20.912C24.048 13.4 26.752 13.912 29.024 14.936C31.328 15.96 33.104 17.432 34.352 19.352C35.6 21.24 36.224 23.48 36.224 26.072C36.224 28.664 35.6 30.904 34.352 32.792C33.104 34.648 31.328 36.072 29.024 37.064C26.752 38.056 24.048 38.552 20.912 38.552H11.024L16.064 33.896V47H4.736ZM24.848 47L16.592 34.76H28.592L36.944 47H24.848ZM16.064 35.144L11.024 30.008H20.192C21.76 30.008 22.912 29.656 23.648 28.952C24.416 28.248 24.8 27.288 24.8 26.072C24.8 24.856 24.416 23.896 23.648 23.192C22.912 22.488 21.76 22.136 20.192 22.136H11.024L16.064 17V35.144Z" fill="#E62C20"/>
<path d="M36.8536 47L51.5416 13.4H62.6776L77.3656 47H65.6536L54.8056 18.776H59.2216L48.3736 47H36.8536ZM45.5896 41.144L48.4696 32.984H63.9256L66.8056 41.144H45.5896ZM79.1735 47V13.4H88.4855L105.574 33.848H101.254V13.4H112.294V47H102.982L85.8935 26.552H90.2135V47H79.1735ZM135.176 47.768C132.456 47.768 129.944 47.352 127.64 46.52C125.368 45.656 123.384 44.44 121.688 42.872C120.024 41.304 118.728 39.448 117.8 37.304C116.872 35.16 116.408 32.792 116.408 30.2C116.408 27.608 116.872 25.24 117.8 23.096C118.728 20.952 120.04 19.096 121.736 17.528C123.432 15.96 125.432 14.76 127.736 13.928C130.072 13.064 132.632 12.632 135.416 12.632C138.744 12.632 141.704 13.192 144.296 14.312C146.92 15.432 149.08 17.032 150.776 19.112L143.528 25.496C142.472 24.28 141.32 23.368 140.072 22.76C138.856 22.12 137.496 21.8 135.992 21.8C134.744 21.8 133.608 21.992 132.584 22.376C131.592 22.76 130.744 23.32 130.04 24.056C129.336 24.792 128.792 25.672 128.408 26.696C128.024 27.72 127.832 28.888 127.832 30.2C127.832 31.448 128.024 32.6 128.408 33.656C128.792 34.68 129.336 35.56 130.04 36.296C130.744 37.032 131.576 37.608 132.536 38.024C133.528 38.408 134.632 38.6 135.848 38.6C137.128 38.6 138.376 38.392 139.592 37.976C140.808 37.528 142.104 36.776 143.48 35.72L149.816 43.496C147.768 44.872 145.432 45.928 142.808 46.664C140.184 47.4 137.64 47.768 135.176 47.768ZM139.976 42.056V29.288H149.816V43.496L139.976 42.056ZM164.77 39.8L164.146 27.368L176.818 13.4H189.154L174.946 29.048L168.658 35.48L164.77 39.8ZM154.642 47V13.4H165.778V47H154.642ZM176.722 47L166.834 33.944L174.178 26.168L189.826 47H176.722ZM186.01 47L200.698 13.4H211.834L226.522 47H214.81L203.962 18.776H208.378L197.53 47H186.01ZM194.746 41.144L197.626 32.984H213.082L215.962 41.144H194.746ZM228.33 47V13.4H239.658V47H228.33ZM241.463 47L256.151 13.4H267.287L281.975 47H270.263L259.415 18.776H263.831L252.983 47H241.463ZM250.199 41.144L253.079 32.984H268.535L271.415 41.144H250.199ZM283.783 47V13.4H293.095L310.183 33.848H305.863V13.4H316.903V47H307.591L290.503 26.552H294.823V47H283.783ZM333.104 47L347.792 13.4H358.928L373.616 47H361.904L351.056 18.776H355.472L344.624 47H333.104ZM341.84 41.144L344.72 32.984H360.176L363.056 41.144H341.84ZM392.331 47.768C389.643 47.768 387.147 47.352 384.843 46.52C382.571 45.656 380.587 44.44 378.891 42.872C377.227 41.304 375.931 39.448 375.003 37.304C374.075 35.16 373.611 32.792 373.611 30.2C373.611 27.608 374.075 25.24 375.003 23.096C375.931 20.952 377.227 19.096 378.891 17.528C380.587 15.96 382.571 14.76 384.843 13.928C387.147 13.064 389.643 12.632 392.331 12.632C395.627 12.632 398.539 13.208 401.067 14.36C403.627 15.512 405.739 17.176 407.403 19.352L400.251 25.736C399.259 24.488 398.155 23.528 396.939 22.856C395.755 22.152 394.411 21.8 392.907 21.8C391.723 21.8 390.651 21.992 389.691 22.376C388.731 22.76 387.899 23.32 387.195 24.056C386.523 24.792 385.995 25.688 385.611 26.744C385.227 27.768 385.035 28.92 385.035 30.2C385.035 31.48 385.227 32.648 385.611 33.704C385.995 34.728 386.523 35.608 387.195 36.344C387.899 37.08 388.731 37.64 389.691 38.024C390.651 38.408 391.723 38.6 392.907 38.6C394.411 38.6 395.755 38.264 396.939 37.592C398.155 36.888 399.259 35.912 400.251 34.664L407.403 41.048C405.739 43.192 403.627 44.856 401.067 46.04C398.539 47.192 395.627 47.768 392.331 47.768ZM406.557 47L421.245 13.4H432.381L447.069 47H435.357L424.509 18.776H428.925L418.077 47H406.557ZM415.293 41.144L418.173 32.984H433.629L436.509 41.144H415.293ZM448.877 47V13.4H465.053C468.189 13.4 470.893 13.912 473.165 14.936C475.469 15.96 477.245 17.432 478.493 19.352C479.741 21.24 480.365 23.48 480.365 26.072C480.365 28.664 479.741 30.904 478.493 32.792C477.245 34.648 475.469 36.072 473.165 37.064C470.893 38.056 468.189 38.552 465.053 38.552H455.165L460.205 33.896V47H448.877ZM468.989 47L460.733 34.76H472.733L481.085 47H468.989ZM460.205 35.144L455.165 30.008H464.333C465.901 30.008 467.053 29.656 467.789 28.952C468.557 28.248 468.941 27.288 468.941 26.072C468.941 24.856 468.557 23.896 467.789 23.192C467.053 22.488 465.901 22.136 464.333 22.136H455.165L460.205 17V35.144ZM480.994 47L495.682 13.4H506.818L521.506 47H509.794L498.946 18.776H503.362L492.514 47H480.994ZM489.73 41.144L492.61 32.984H508.066L510.946 41.144H489.73Z" fill="white"/>
<ellipse cx="20" cy="24.5" rx="9" ry="8.5" fill="#E62C20"/>
<path d="M432.783 13H421.5L407 46.5H447.317L432.783 13Z" fill="#9C4A9A" stroke="#9C4A9A" stroke-width="0.5"/>
<path d="M506.783 14H495.5L481 47.5H521.317L506.783 14Z" fill="#4A8068" stroke="#4A8068" stroke-width="0.5"/>
<path d="M266.783 13H255.5L241 46.5H281.317L266.783 13Z" fill="#F69722" stroke="#F69722" stroke-width="0.5"/>
</g>
<defs>
<filter id="filter0_d_99_103" x="0.736023" y="12.6318" width="524.962" height="43.1362" filterUnits="userSpaceOnUse" color-interpolation-filters="sRGB">
<feFlood flood-opacity="0" result="BackgroundImageFix"/>
<feColorMatrix in="SourceAlpha" type="matrix" values="0 0 0 0 0 0 0 0 0 0 0 0 0 0 0 0 0 0 127 0" result="hardAlpha"/>
<feOffset dy="4"/>
<feGaussianBlur stdDeviation="2"/>
<feComposite in2="hardAlpha" operator="out"/>
<feColorMatrix type="matrix" values="0 0 0 0 0 0 0 0 0 0 0 0 0 0 0 0 0 0 0.25 0"/>
<feBlend mode="normal" in2="BackgroundImageFix" result="effect1_dropShadow_99_103"/>
<feBlend mode="normal" in="SourceGraphic" in2="effect1_dropShadow_99_103" result="shape"/>
</filter>
</defs>
</svg>
