<svg width="336" height="336" viewBox="0 0 336 336" fill="none" xmlns="http://www.w3.org/2000/svg">
<g opacity="0.02">
<path d="M53.8591 174.138L44.3076 174.132L44.2851 209.154L53.8365 209.16L53.8324 215.528L63.3839 215.534L63.3777 225.086L72.9292 225.092L72.923 234.643L79.2906 234.647L79.3132 199.625L69.7617 199.619L69.7658 193.252L63.3982 193.248L63.4044 183.696L53.8529 183.69L53.8591 174.138Z" fill="#EEEEEE"/>
<path d="M114.35 174.176L123.901 174.183L123.879 209.205L114.327 209.198L114.323 215.566L104.772 215.56L104.766 225.111L95.2142 225.105L95.2081 234.657L88.8404 234.653L88.863 199.631L98.4144 199.637L98.4185 193.269L104.786 193.273L104.792 183.722L114.344 183.728L114.35 174.176Z" fill="#EEEEEE"/>
<path d="M101.574 237.845L101.567 247.396L136.589 247.419L136.596 237.868L142.963 237.872L142.969 228.32L152.521 228.326L152.527 218.775L162.078 218.781L162.082 212.413L127.06 212.391L127.054 221.942L120.687 221.938L120.683 228.306L111.131 228.3L111.125 237.851L101.574 237.845Z" fill="#EEEEEE"/>
<path d="M162.038 282.458L162.032 292.009L127.01 291.987L127.016 282.435L120.649 282.431L120.655 272.88L111.103 272.874L111.11 263.322L101.558 263.316L101.562 256.948L136.584 256.971L136.578 266.522L142.946 266.526L142.942 272.894L152.493 272.9L152.487 282.452L162.038 282.458Z" fill="#EEEEEE"/>
<path d="M114.249 330.183L123.801 330.189L123.823 295.167L114.272 295.161L114.276 288.794L104.725 288.788L104.731 279.236L95.1792 279.23L95.1854 269.678L88.8178 269.674L88.7952 304.696L98.3467 304.703L98.3425 311.07L104.71 311.074L104.704 320.626L114.255 320.632L114.249 330.183Z" fill="#EEEEEE"/>
<path d="M53.7556 330.145L44.2041 330.139L44.2267 295.117L53.7781 295.123L53.7822 288.755L63.3337 288.761L63.3398 279.21L72.8913 279.216L72.8974 269.665L79.265 269.669L79.2425 304.691L69.691 304.685L69.6869 311.052L63.3193 311.048L63.3132 320.6L53.7617 320.593L53.7556 330.145Z" fill="#EEEEEE"/>
<path d="M6.07002 221.864L6.07617 212.312L41.0982 212.335L41.092 221.887L47.4596 221.891L47.4535 231.442L57.0049 231.448L56.9988 241L66.5502 241.006L66.5461 247.373L31.5241 247.351L31.5303 237.799L25.1627 237.795L25.1668 231.428L15.6153 231.422L15.6215 221.87L6.07002 221.864Z" fill="#EEEEEE"/>
<path d="M66.5339 266.477L66.54 256.925L31.5181 256.903L31.5119 266.454L25.1443 266.45L25.1381 276.002L15.5867 275.995L15.5805 285.547L6.02906 285.541L6.02496 291.908L41.0469 291.931L41.0531 282.379L47.4207 282.384L47.4248 276.016L56.9763 276.022L56.9824 266.471L66.5339 266.477Z" fill="#EEEEEE"/>
<rect x="79.2812" y="247.383" width="9.55145" height="9.55145" transform="rotate(0.0369024 79.2812 247.383)" fill="#EEEEEE"/>
<path d="M221.967 6.03057L212.416 6.02441L212.393 41.0464L221.945 41.0526L221.941 47.4202L231.492 47.4263L231.486 56.9778L241.038 56.9839L241.031 66.5354L247.399 66.5395L247.422 31.5175L237.87 31.5114L237.874 25.1437L231.507 25.1396L231.513 15.5882L221.961 15.582L221.967 6.03057Z" fill="#EEEEEE"/>
<path d="M282.458 6.07051L292.01 6.07666L291.987 41.0986L282.436 41.0925L282.432 47.4601L272.88 47.454L272.874 57.0054L263.323 56.9993L263.316 66.5507L256.949 66.5466L256.971 31.5246L266.523 31.5308L266.527 25.1632L272.895 25.1673L272.901 15.6158L282.452 15.622L282.458 6.07051Z" fill="#EEEEEE"/>
<path d="M269.682 69.7386L269.676 79.29L304.698 79.3126L304.704 69.7611L311.072 69.7652L311.078 60.2138L320.629 60.2199L320.635 50.6685L330.187 50.6746L330.191 44.307L295.169 44.2845L295.163 53.8359L288.795 53.8318L288.791 60.1994L279.24 60.1933L279.233 69.7447L269.682 69.7386Z" fill="#EEEEEE"/>
<path d="M330.147 114.351L330.141 123.902L295.119 123.88L295.125 114.328L288.757 114.324L288.763 104.773L279.212 104.767L279.218 95.2152L269.667 95.209L269.671 88.8414L304.693 88.864L304.686 98.4154L311.054 98.4195L311.05 104.787L320.601 104.793L320.595 114.345L330.147 114.351Z" fill="#EEEEEE"/>
<path d="M282.358 162.077L291.909 162.083L291.932 127.062L282.38 127.055L282.384 120.688L272.833 120.682L272.839 111.13L263.288 111.124L263.294 101.573L256.926 101.568L256.904 136.59L266.455 136.597L266.451 142.964L272.819 142.968L272.812 152.52L282.364 152.526L282.358 162.077Z" fill="#EEEEEE"/>
<path d="M221.866 162.038L212.314 162.032L212.337 127.01L221.888 127.016L221.893 120.648L231.444 120.654L231.45 111.103L241.002 111.109L241.008 101.558L247.375 101.562L247.353 136.584L237.801 136.578L237.797 142.945L231.43 142.941L231.424 152.493L221.872 152.486L221.866 162.038Z" fill="#EEEEEE"/>
<path d="M174.178 53.7575L174.185 44.2061L209.207 44.2286L209.2 53.7801L215.568 53.7842L215.562 63.3356L225.113 63.3418L225.107 72.8932L234.659 72.8994L234.655 79.267L199.633 79.2444L199.639 69.693L193.271 69.6889L193.275 63.3213L183.724 63.3151L183.73 53.7637L174.178 53.7575Z" fill="#EEEEEE"/>
<path d="M234.642 98.3703L234.648 88.8188L199.626 88.7963L199.62 98.3477L193.253 98.3436L193.247 107.895L183.695 107.889L183.689 117.44L174.137 117.434L174.133 123.802L209.155 123.824L209.161 114.273L215.529 114.277L215.533 107.909L225.085 107.916L225.091 98.3641L234.642 98.3703Z" fill="#EEEEEE"/>
<rect x="247.39" y="79.2764" width="9.55145" height="9.55145" transform="rotate(0.0369024 247.39 79.2764)" fill="#EEEEEE"/>
<path fill-rule="evenodd" clip-rule="evenodd" d="M241.907 174.15L262.434 174.164L262.429 182.374L270.641 182.379L270.635 190.59L278.846 190.595L278.841 198.806L287.054 198.811L287.049 207.022L295.26 207.027L295.254 215.238L303.464 215.243L303.458 223.454L311.67 223.46L311.665 231.671L319.875 231.676L319.869 239.887L328.081 239.892L328.065 264.525L319.853 264.52L319.847 272.73L311.637 272.725L311.631 280.937L303.421 280.932L303.416 289.143L295.203 289.137L295.198 297.348L286.988 297.342L286.982 305.553L278.772 305.548L278.766 313.759L270.557 313.753L270.551 321.965L262.34 321.96L262.335 330.17L241.807 330.157L241.815 317.841L258.238 317.851L258.243 309.641L266.453 309.646L266.458 301.434L274.669 301.44L274.674 293.229L282.884 293.234L282.89 285.023L291.102 285.029L291.107 276.818L299.318 276.824L299.323 268.613L307.534 268.618L307.539 260.406L315.751 260.411L315.762 243.99L307.55 243.985L307.556 235.773L299.346 235.768L299.351 227.557L291.139 227.552L291.145 219.341L282.935 219.335L282.941 211.125L274.73 211.12L274.735 202.909L266.522 202.903L266.527 194.693L258.316 194.687L258.322 186.477L241.899 186.467L241.907 174.15Z" fill="#EEEEEE"/>
<path fill-rule="evenodd" clip-rule="evenodd" d="M262.436 174.165L241.908 174.151L241.903 182.362L233.692 182.356L233.687 190.567L225.476 190.562L225.47 198.772L217.26 198.767L217.255 206.979L209.044 206.974L209.039 215.184L200.827 215.179L200.822 223.389L192.61 223.384L192.605 231.595L184.395 231.59L184.389 239.8L176.179 239.795L176.163 264.428L184.372 264.433L184.367 272.644L192.577 272.65L192.572 280.861L200.784 280.866L200.778 289.076L208.988 289.082L208.983 297.293L217.198 297.298L217.192 305.509L225.404 305.514L225.398 313.725L233.608 313.731L233.602 321.941L241.813 321.947L241.808 330.158L262.335 330.171L262.343 317.855L245.921 317.844L245.927 309.633L237.717 309.628L237.723 301.417L229.511 301.412L229.517 293.201L221.302 293.195L221.307 284.984L213.097 284.979L213.103 276.768L204.891 276.763L204.896 268.552L196.686 268.547L196.691 260.336L188.482 260.331L188.493 243.909L196.703 243.914L196.708 235.703L204.919 235.708L204.924 227.498L213.136 227.503L213.141 219.293L221.352 219.298L221.358 211.086L229.568 211.091L229.574 202.881L237.784 202.886L237.789 194.675L246.001 194.681L246.006 186.47L262.428 186.481L262.436 174.165Z" fill="#EEEEEE"/>
<rect x="241.863" y="243.944" width="20.5272" height="20.5272" transform="rotate(0.0369024 241.863 243.944)" fill="#EEEEEE"/>
<path fill-rule="evenodd" clip-rule="evenodd" d="M73.7951 6.04297L94.3224 6.05619L94.3171 14.2672L102.527 14.2725L102.522 22.4831L110.736 22.4884L110.731 30.6999L118.939 30.7052L118.933 38.9148L127.147 38.92L127.141 47.1324L135.352 47.1376L135.346 55.3474L143.558 55.3527L143.552 63.5651L151.763 63.5704L151.758 71.78L159.968 71.7853L159.952 96.418L151.741 96.4127L151.735 104.623L143.525 104.618L143.52 112.83L135.308 112.824L135.303 121.035L127.091 121.03L127.086 129.24L118.875 129.235L118.87 137.446L110.66 137.44L110.654 145.651L102.444 145.646L102.439 153.858L94.227 153.853L94.2217 162.063L73.6944 162.05L73.7024 149.733L90.1248 149.744L90.1301 141.534L98.3406 141.539L98.3459 133.327L106.556 133.332L106.562 125.121L114.772 125.127L114.778 116.916L122.989 116.921L122.994 108.711L131.206 108.716L131.211 100.505L139.422 100.511L139.427 92.2985L147.638 92.3038L147.649 75.8841L139.439 75.8789L139.444 67.6664L131.233 67.6611L131.239 59.4513L123.027 59.4461L123.033 51.2337L114.822 51.2285L114.828 43.0189L106.614 43.0136L106.62 34.8021L98.4122 34.7968L98.4175 26.5862L90.203 26.5809L90.2083 18.3699L73.7872 18.3593L73.7951 6.04297Z" fill="#EEEEEE"/>
<path fill-rule="evenodd" clip-rule="evenodd" d="M94.3223 6.05713L73.795 6.04391L73.7897 14.2541L65.58 14.2488L65.5747 22.4593L57.3633 22.454L57.3581 30.6663L49.1465 30.661L49.1413 38.8716L40.9309 38.8664L40.9256 47.077L32.7149 47.0717L32.7096 55.2825L24.4981 55.2772L24.4928 63.4876L16.2813 63.4823L16.276 71.6927L8.06549 71.6874L8.04963 96.3201L16.2601 96.3254L16.2548 104.538L24.4691 104.543L24.4638 112.754L32.6732 112.76L32.6679 120.969L40.8795 120.974L40.8742 129.186L49.0843 129.191L49.079 137.401L57.2902 137.406L57.2849 145.618L65.4955 145.623L65.4902 153.834L73.6996 153.839L73.6943 162.051L94.2216 162.064L94.2295 149.748L77.8092 149.737L77.8145 141.525L69.6039 141.52L69.6092 133.309L61.398 133.304L61.4033 125.093L53.1932 125.087L53.1984 116.877L44.9869 116.872L44.9922 108.661L36.7828 108.655L36.7881 100.446L28.5738 100.441L28.5791 92.2295L20.3686 92.2242L20.3792 75.8013L28.5897 75.8066L28.595 67.5962L36.8065 67.6015L36.8118 59.3907L45.0233 59.396L45.0286 51.1854L53.2393 51.1906L53.2446 42.98L61.455 42.9853L61.4602 34.773L69.6718 34.7783L69.677 26.5678L77.8884 26.573L77.8937 18.3629L94.3143 18.3735L94.3223 6.05713Z" fill="#EEEEEE"/>
<rect x="73.751" y="75.8364" width="20.5272" height="20.5272" transform="rotate(0.0369024 73.751 75.8364)" fill="#EEEEEE"/>
</g>
</svg>
