<svg width="1259" height="63" viewBox="0 0 1259 63" fill="none" xmlns="http://www.w3.org/2000/svg">
<path d="M0 33L256.73 33" stroke="#EEEEEE" stroke-width="5" stroke-linejoin="round"/>
<path d="M245.367 3L241.693 3V16.4693H245.367V18.9183H249.04V22.5917H252.714V26.2652H255.162V12.7959L251.489 12.7959V10.3469H249.04V6.67345H245.367V3Z" fill="#D9D9D9"/>
<path d="M268.631 3L272.305 3V16.4693H268.631V18.9183H264.958V22.5917H261.284V26.2652H258.836V12.7959L262.509 12.7959V10.3469H264.958V6.67345H268.631V3Z" fill="#D9D9D9"/>
<path d="M263.734 27.4896V31.1631H277.203V27.4896H279.652V23.8162H283.326V20.1427H286.999V17.6938H273.53V21.3672H271.081V23.8162H267.408V27.4896H263.734Z" fill="#D9D9D9"/>
<path d="M287 44.6332V48.3066H273.531V44.6332H271.082V40.9597H267.409V37.2863H263.735V34.8373H277.204V38.5108H279.653V40.9597H283.327V44.6332H287Z" fill="#D9D9D9"/>
<path d="M268.631 63H272.305V49.5307H268.631V47.0817H264.958V43.4083H261.284V39.7348H258.836V53.2041H262.509V55.6531H264.958V59.3265H268.631L268.631 63Z" fill="#D9D9D9"/>
<path d="M245.367 63H241.693V49.5307H245.367V47.0817H249.04V43.4083H252.714V39.7348H255.162V53.2041H251.489V55.6531H249.04V59.3265H245.367V63Z" fill="#D9D9D9"/>
<path d="M227 21.3673V17.6938H240.469V21.3673H242.918V25.0407H246.591V28.7142H250.265V31.1632H236.796V27.4897H234.347V25.0407H230.673V21.3673H227Z" fill="#D9D9D9"/>
<path d="M250.266 38.5104L250.266 34.8369L236.797 34.8369L236.797 38.5104L234.348 38.5104L234.348 42.1838L230.674 42.1838L230.674 45.8573L227.001 45.8573L227.001 48.3062L240.47 48.3062L240.47 44.6328L242.919 44.6328L242.919 42.1838L246.592 42.1838L246.592 38.5104L250.266 38.5104Z" fill="#D9D9D9"/>
<rect x="255.164" y="31.1631" width="3.6734" height="3.67345" fill="#D9D9D9"/>
<path d="M1258 29.8022L1007 28.7036" stroke="#EEEEEE" stroke-width="5" stroke-linejoin="round"/>
<path d="M1019.63 60H1023.31V46.5307H1019.63V44.0817H1015.96V40.4083H1012.29V36.7348H1009.84V50.2041H1013.51V52.6531H1015.96V56.3265H1019.63V60Z" fill="#D9D9D9"/>
<path d="M996.367 60H992.693V46.5307H996.367V44.0817H1000.04V40.4083H1003.71V36.7348H1006.16V50.2041H1002.49V52.6531H1000.04V56.3265H996.367V60Z" fill="#D9D9D9"/>
<path d="M1001.27 35.5104V31.8369L987.796 31.8369V35.5104H985.347V39.1838H981.674V42.8573H978V45.3062L991.47 45.3062V41.6328H993.919V39.1838H997.592V35.5104H1001.27Z" fill="#D9D9D9"/>
<path d="M978 18.3668V14.6934L991.469 14.6934V18.3668H993.918L993.918 22.0403L997.592 22.0403V25.7137H1001.27V28.1627L987.796 28.1627V24.4892L985.347 24.4892V22.0403L981.673 22.0403V18.3668H978Z" fill="#D9D9D9"/>
<path d="M996.367 0L992.693 0V13.4693L996.367 13.4693V15.9183H1000.04V19.5917H1003.71V23.2652H1006.16V9.79587H1002.49V7.3469H1000.04V3.67345L996.367 3.67345V0Z" fill="#D9D9D9"/>
<path d="M1019.63 0L1023.31 0V13.4693L1019.63 13.4693V15.9183H1015.96V19.5917H1012.29V23.2652H1009.84V9.79587H1013.51V7.3469H1015.96V3.67345L1019.63 3.67345V0Z" fill="#D9D9D9"/>
<path d="M1038 41.6327V45.3062L1024.53 45.3062V41.6327H1022.08V37.9593H1018.41V34.2858H1014.73V31.8368L1028.2 31.8368V35.5103H1030.65V37.9593H1034.33V41.6327H1038Z" fill="#D9D9D9"/>
<path d="M1014.73 24.4896L1014.73 28.1631L1028.2 28.1631L1028.2 24.4896L1030.65 24.4896L1030.65 20.8162L1034.33 20.8162L1034.33 17.1427L1038 17.1427L1038 14.6938L1024.53 14.6938L1024.53 18.3672L1022.08 18.3672L1022.08 20.8162L1018.41 20.8162L1018.41 24.4896L1014.73 24.4896Z" fill="#D9D9D9"/>
<rect x="1009.84" y="31.8369" width="3.67347" height="3.67345" transform="rotate(180 1009.84 31.8369)" fill="#D9D9D9"/>
<path d="M316.176 44.512C314.299 44.512 312.485 44.2987 310.736 43.872C308.987 43.4453 307.547 42.8907 306.416 42.208L308.848 36.704C309.915 37.3227 311.099 37.824 312.4 38.208C313.723 38.5707 315.003 38.752 316.24 38.752C316.965 38.752 317.531 38.7093 317.936 38.624C318.363 38.5173 318.672 38.3787 318.864 38.208C319.056 38.016 319.152 37.792 319.152 37.536C319.152 37.1307 318.928 36.8107 318.48 36.576C318.032 36.3413 317.435 36.1493 316.688 36C315.963 35.8293 315.163 35.6587 314.288 35.488C313.413 35.296 312.528 35.0507 311.632 34.752C310.757 34.4533 309.947 34.0587 309.2 33.568C308.475 33.0773 307.888 32.4373 307.44 31.648C306.992 30.8373 306.768 29.8347 306.768 28.64C306.768 27.2533 307.152 25.9947 307.92 24.864C308.709 23.712 309.872 22.7947 311.408 22.112C312.965 21.4293 314.896 21.088 317.2 21.088C318.715 21.088 320.208 21.248 321.68 21.568C323.152 21.888 324.475 22.3787 325.648 23.04L323.376 28.512C322.267 27.9573 321.189 27.5413 320.144 27.264C319.12 26.9867 318.117 26.848 317.136 26.848C316.411 26.848 315.835 26.912 315.408 27.04C314.981 27.168 314.672 27.3387 314.48 27.552C314.309 27.7653 314.224 28 314.224 28.256C314.224 28.64 314.448 28.9493 314.896 29.184C315.344 29.3973 315.931 29.5787 316.656 29.728C317.403 29.8773 318.213 30.0373 319.088 30.208C319.984 30.3787 320.869 30.6133 321.744 30.912C322.619 31.2107 323.419 31.6053 324.144 32.096C324.891 32.5867 325.488 33.2267 325.936 34.016C326.384 34.8053 326.608 35.7867 326.608 36.96C326.608 38.3253 326.213 39.584 325.424 40.736C324.656 41.8667 323.504 42.784 321.968 43.488C320.432 44.1707 318.501 44.512 316.176 44.512ZM335.767 29.92H345.751V35.36H335.767V29.92ZM336.279 38.304H347.479V44H328.855V21.6H347.063V27.296H336.279V38.304ZM350.387 44V21.6H356.595L365.555 36.224H362.291L370.995 21.6H377.203L377.267 44H370.387L370.323 31.968H371.411L365.458 41.984H362.131L355.923 31.968H357.267V44H350.387ZM380.918 44V21.6H388.47V44H380.918ZM392.105 44V21.6H398.313L409.705 35.232H406.825V21.6H414.185V44H407.977L396.585 30.368H399.465V44H392.105ZM443.605 44V21.6H454.389C456.48 21.6 458.283 21.9413 459.797 22.624C461.333 23.3067 462.517 24.288 463.349 25.568C464.181 26.8267 464.597 28.32 464.597 30.048C464.597 31.776 464.181 33.2693 463.349 34.528C462.517 35.7653 461.333 36.7147 459.797 37.376C458.283 38.0373 456.48 38.368 454.389 38.368H447.797L451.157 35.264V44H443.605ZM457.013 44L451.509 35.84H459.509L465.077 44H457.013ZM451.157 36.096L447.797 32.672H453.909C454.955 32.672 455.723 32.4373 456.213 31.968C456.725 31.4987 456.981 30.8587 456.981 30.048C456.981 29.2373 456.725 28.5973 456.213 28.128C455.723 27.6587 454.955 27.424 453.909 27.424H447.797L451.157 24V36.096ZM483.955 29.92H493.939V35.36H483.955V29.92ZM484.467 38.304H495.667V44H477.043V21.6H495.251V27.296H484.467V38.304ZM535.732 44.512C532.297 44.512 529.62 43.584 527.7 41.728C525.78 39.872 524.82 37.2693 524.82 33.92V21.6H532.372V33.696C532.372 35.4027 532.681 36.6187 533.3 37.344C533.918 38.048 534.75 38.4 535.796 38.4C536.862 38.4 537.694 38.048 538.292 37.344C538.91 36.6187 539.22 35.4027 539.22 33.696V21.6H546.644V33.92C546.644 37.2693 545.684 39.872 543.764 41.728C541.844 43.584 539.166 44.512 535.732 44.512ZM556.857 39.2L556.441 30.912L564.889 21.6H573.113L563.641 32.032L559.449 36.32L556.857 39.2ZM550.105 44V21.6H557.529V44H550.105ZM564.825 44L558.233 35.296L563.129 30.112L573.561 44H564.825ZM608.707 44.512C606.83 44.512 605.017 44.2987 603.267 43.872C601.518 43.4453 600.078 42.8907 598.947 42.208L601.379 36.704C602.446 37.3227 603.63 37.824 604.931 38.208C606.254 38.5707 607.534 38.752 608.771 38.752C609.497 38.752 610.062 38.7093 610.467 38.624C610.894 38.5173 611.203 38.3787 611.395 38.208C611.587 38.016 611.683 37.792 611.683 37.536C611.683 37.1307 611.459 36.8107 611.011 36.576C610.563 36.3413 609.966 36.1493 609.219 36C608.494 35.8293 607.694 35.6587 606.819 35.488C605.945 35.296 605.059 35.0507 604.163 34.752C603.289 34.4533 602.478 34.0587 601.731 33.568C601.006 33.0773 600.419 32.4373 599.971 31.648C599.523 30.8373 599.299 29.8347 599.299 28.64C599.299 27.2533 599.683 25.9947 600.451 24.864C601.241 23.712 602.403 22.7947 603.939 22.112C605.497 21.4293 607.427 21.088 609.731 21.088C611.246 21.088 612.739 21.248 614.211 21.568C615.683 21.888 617.006 22.3787 618.179 23.04L615.907 28.512C614.798 27.9573 613.721 27.5413 612.675 27.264C611.651 26.9867 610.649 26.848 609.667 26.848C608.942 26.848 608.366 26.912 607.939 27.04C607.513 27.168 607.203 27.3387 607.011 27.552C606.841 27.7653 606.755 28 606.755 28.256C606.755 28.64 606.979 28.9493 607.427 29.184C607.875 29.3973 608.462 29.5787 609.187 29.728C609.934 29.8773 610.745 30.0373 611.619 30.208C612.515 30.3787 613.401 30.6133 614.275 30.912C615.15 31.2107 615.95 31.6053 616.675 32.096C617.422 32.5867 618.019 33.2267 618.467 34.016C618.915 34.8053 619.139 35.7867 619.139 36.96C619.139 38.3253 618.745 39.584 617.955 40.736C617.187 41.8667 616.035 42.784 614.499 43.488C612.963 44.1707 611.033 44.512 608.707 44.512ZM621.387 44V21.6H628.939V44H621.387ZM648.92 39.2L648.504 30.912L656.952 21.6H665.176L655.704 32.032L651.512 36.32L648.92 39.2ZM642.168 44V21.6H649.592V44H642.168ZM656.888 44L650.296 35.296L655.192 30.112L665.624 44H656.888ZM673.549 29.92H683.533V35.36H673.549V29.92ZM674.061 38.304H685.261V44H666.637V21.6H684.845V27.296H674.061V38.304ZM693.519 44L686.351 21.6H694.127L699.919 40.512H696.015L702.159 21.6H709.103L714.831 40.512H711.087L717.135 21.6H724.303L717.135 44H709.039L704.367 28.512H706.543L701.615 44H693.519ZM725.98 44V21.6H733.532V44H725.98ZM797.513 44.512C794.078 44.512 791.401 43.584 789.481 41.728C787.561 39.872 786.601 37.2693 786.601 33.92V21.6H794.153V33.696C794.153 35.4027 794.462 36.6187 795.081 37.344C795.699 38.048 796.531 38.4 797.577 38.4C798.643 38.4 799.475 38.048 800.073 37.344C800.691 36.6187 801.001 35.4027 801.001 33.696V21.6H808.425V33.92C808.425 37.2693 807.465 39.872 805.545 41.728C803.625 43.584 800.947 44.512 797.513 44.512ZM820.239 44.512C818.361 44.512 816.548 44.2987 814.799 43.872C813.049 43.4453 811.609 42.8907 810.479 42.208L812.911 36.704C813.977 37.3227 815.161 37.824 816.463 38.208C817.785 38.5707 819.065 38.752 820.303 38.752C821.028 38.752 821.593 38.7093 821.999 38.624C822.425 38.5173 822.735 38.3787 822.927 38.208C823.119 38.016 823.215 37.792 823.215 37.536C823.215 37.1307 822.991 36.8107 822.543 36.576C822.095 36.3413 821.497 36.1493 820.751 36C820.025 35.8293 819.225 35.6587 818.351 35.488C817.476 35.296 816.591 35.0507 815.695 34.752C814.82 34.4533 814.009 34.0587 813.263 33.568C812.537 33.0773 811.951 32.4373 811.503 31.648C811.055 30.8373 810.831 29.8347 810.831 28.64C810.831 27.2533 811.215 25.9947 811.983 24.864C812.772 23.712 813.935 22.7947 815.471 22.112C817.028 21.4293 818.959 21.088 821.263 21.088C822.777 21.088 824.271 21.248 825.743 21.568C827.215 21.888 828.537 22.3787 829.711 23.04L827.439 28.512C826.329 27.9573 825.252 27.5413 824.207 27.264C823.183 26.9867 822.18 26.848 821.199 26.848C820.473 26.848 819.897 26.912 819.47 27.04C819.044 27.168 818.735 27.3387 818.543 27.552C818.372 27.7653 818.286 28 818.286 28.256C818.286 28.64 818.511 28.9493 818.959 29.184C819.407 29.3973 819.993 29.5787 820.719 29.728C821.465 29.8773 822.276 30.0373 823.151 30.208C824.047 30.3787 824.932 30.6133 825.807 30.912C826.681 31.2107 827.481 31.6053 828.207 32.096C828.953 32.5867 829.551 33.2267 829.999 34.016C830.447 34.8053 830.671 35.7867 830.671 36.96C830.671 38.3253 830.276 39.584 829.487 40.736C828.719 41.8667 827.567 42.784 826.031 43.488C824.495 44.1707 822.564 44.512 820.239 44.512ZM873.227 21.6H880.779V44H873.227V21.6ZM866.251 44H858.699V21.6H866.251V44ZM873.739 35.744H865.739V29.536H873.739V35.744ZM881.986 44L891.778 21.6H899.202L908.994 44H901.186L893.954 25.184H896.898L889.666 44H881.986ZM887.81 40.096L889.73 34.656H900.034L901.954 40.096H887.81ZM908.892 44L918.684 21.6H926.108L935.9 44H928.092L920.86 25.184H923.804L916.572 44H908.892ZM914.716 40.096L916.636 34.656H926.94L928.86 40.096H914.716ZM937.105 44V21.6H943.313L954.705 35.232H951.825V21.6H959.185V44H952.977L941.585 30.368H944.465V44H937.105Z" fill="#EEEEEE"/>
<path d="M415.392 44L425.184 21.6H432.608L442.4 44H434.592L427.36 25.184H430.304L423.072 44H415.392ZM421.216 40.096L423.136 34.656H433.44L435.36 40.096H421.216ZM737.168 44V21.6H747.952C750.042 21.6 751.845 21.9413 753.36 22.624C754.896 23.3067 756.08 24.288 756.912 25.568C757.744 26.8267 758.16 28.32 758.16 30.048C758.16 31.776 757.744 33.2693 756.912 34.528C756.08 35.7653 754.896 36.7147 753.36 37.376C751.845 38.0373 750.042 38.368 747.952 38.368H741.36L744.72 35.264V44H737.168ZM750.576 44L745.072 35.84H753.072L758.64 44H750.576ZM744.72 36.096L741.36 32.672H747.472C748.517 32.672 749.285 32.4373 749.776 31.968C750.288 31.4987 750.544 30.8587 750.544 30.048C750.544 29.2373 750.288 28.5973 749.776 28.128C749.285 27.6587 748.517 27.424 747.472 27.424H741.36L744.72 24V36.096Z" fill="#4A8068"/>
<path d="M498.574 44V21.6H509.614C512.11 21.6 514.307 22.0587 516.206 22.976C518.105 23.872 519.587 25.152 520.654 26.816C521.721 28.48 522.254 30.464 522.254 32.768C522.254 35.0933 521.721 37.0987 520.654 38.784C519.587 40.448 518.105 41.7387 516.206 42.656C514.307 43.552 512.11 44 509.614 44H498.574ZM506.126 38.112H509.294C510.361 38.112 511.289 37.9093 512.078 37.504C512.889 37.0987 513.518 36.5013 513.966 35.712C514.414 34.9013 514.638 33.92 514.638 32.768C514.638 31.6373 514.414 30.6773 513.966 29.888C513.518 29.0987 512.889 28.5013 512.078 28.096C511.289 27.6907 510.361 27.488 509.294 27.488H506.126V38.112ZM830.486 44L840.278 21.6H847.702L857.494 44H849.686L842.454 25.184H845.398L838.166 44H830.486ZM836.31 40.096L838.23 34.656H848.534L850.454 40.096H836.31Z" fill="#9C4A9A"/>
<path d="M572.142 44L581.934 21.6H589.358L599.15 44H591.342L584.11 25.184H587.054L579.822 44H572.142ZM577.966 40.096L579.886 34.656H590.19L592.11 40.096H577.966Z" fill="#E62C20"/>
<path d="M758.579 44L768.372 21.6H775.796L785.588 44H777.78L770.548 25.184H773.492L766.26 44H758.579ZM764.404 40.096L766.324 34.656H776.628L778.548 40.096H764.404Z" fill="#F69722"/>
<path d="M595 44H576L584 25L595 44Z" fill="#E62C20"/>
<path d="M782 44H763L771 26L782 44Z" fill="#F69722"/>
<path d="M429 25L436.5 44H429H421L429 25Z" fill="#4A8068"/>
<path d="M756 29L742.5 36.5L740 23.5L756 29Z" fill="#4A8068"/>
<path d="M502 26H517V39.5H502V26Z" fill="#9C4A9A"/>
<path d="M854 44H836L844.5 26L854 44Z" fill="#9C4A9A"/>
</svg>
