<svg width="531" height="45" viewBox="0 0 531 45" fill="none" xmlns="http://www.w3.org/2000/svg">
<path d="M79.9131 44V12.5H95.0781C98.0181 12.5 100.553 12.98 102.683 13.94C104.843 14.9 106.508 16.28 107.678 18.08C108.848 19.85 109.433 21.95 109.433 24.38C109.433 26.81 108.848 28.91 107.678 30.68C106.508 32.45 104.843 33.83 102.683 34.82C100.553 35.78 98.0181 36.26 95.0781 36.26H85.8081L90.5331 31.715V44H79.9131ZM90.5331 32.885L85.8081 28.07H94.4031C95.8731 28.07 96.9531 27.74 97.6431 27.08C98.3631 26.42 98.7231 25.52 98.7231 24.38C98.7231 23.24 98.3631 22.34 97.6431 21.68C96.9531 21.02 95.8731 20.69 94.4031 20.69H85.8081L90.5331 15.875V32.885ZM107.914 44L121.684 12.5H132.124L145.894 44H134.914L124.744 17.54H128.884L118.714 44H107.914ZM116.104 38.51L118.804 30.86H133.294L135.994 38.51H116.104ZM159.334 44.72C156.694 44.72 154.144 44.42 151.684 43.82C149.224 43.22 147.199 42.44 145.609 41.48L149.029 33.74C150.529 34.61 152.194 35.315 154.024 35.855C155.884 36.365 157.684 36.62 159.424 36.62C160.444 36.62 161.239 36.56 161.809 36.44C162.409 36.29 162.844 36.095 163.114 35.855C163.384 35.585 163.519 35.27 163.519 34.91C163.519 34.34 163.204 33.89 162.574 33.56C161.944 33.23 161.104 32.96 160.054 32.75C159.034 32.51 157.909 32.27 156.679 32.03C155.449 31.76 154.204 31.415 152.944 30.995C151.714 30.575 150.574 30.02 149.524 29.33C148.504 28.64 147.679 27.74 147.049 26.63C146.419 25.49 146.104 24.08 146.104 22.4C146.104 20.45 146.644 18.68 147.724 17.09C148.834 15.47 150.469 14.18 152.629 13.22C154.819 12.26 157.534 11.78 160.774 11.78C162.904 11.78 165.004 12.005 167.074 12.455C169.144 12.905 171.004 13.595 172.654 14.525L169.459 22.22C167.899 21.44 166.384 20.855 164.914 20.465C163.474 20.075 162.064 19.88 160.684 19.88C159.664 19.88 158.854 19.97 158.254 20.15C157.654 20.33 157.219 20.57 156.949 20.87C156.709 21.17 156.589 21.5 156.589 21.86C156.589 22.4 156.904 22.835 157.534 23.165C158.164 23.465 158.989 23.72 160.009 23.93C161.059 24.14 162.199 24.365 163.429 24.605C164.689 24.845 165.934 25.175 167.164 25.595C168.394 26.015 169.519 26.57 170.539 27.26C171.589 27.95 172.429 28.85 173.059 29.96C173.689 31.07 174.004 32.45 174.004 34.1C174.004 36.02 173.449 37.79 172.339 39.41C171.259 41 169.639 42.29 167.479 43.28C165.319 44.24 162.604 44.72 159.334 44.72ZM173.744 44L187.514 12.5H197.954L211.724 44H200.744L190.574 17.54H194.714L184.544 44H173.744ZM181.934 38.51L184.634 30.86H199.124L201.824 38.51H181.934ZM260.44 44V12.5H275.605C278.545 12.5 281.08 12.98 283.21 13.94C285.37 14.9 287.035 16.28 288.205 18.08C289.375 19.85 289.96 21.95 289.96 24.38C289.96 26.81 289.375 28.91 288.205 30.68C287.035 32.42 285.37 33.755 283.21 34.685C281.08 35.615 278.545 36.08 275.605 36.08H266.335L271.06 31.715V44H260.44ZM279.295 44L271.555 32.525H282.805L290.635 44H279.295ZM271.06 32.885L266.335 28.07H274.93C276.4 28.07 277.48 27.74 278.17 27.08C278.89 26.42 279.25 25.52 279.25 24.38C279.25 23.24 278.89 22.34 278.17 21.68C277.48 21.02 276.4 20.69 274.93 20.69H266.335L271.06 15.875V32.885ZM290.551 44L304.321 12.5H314.761L328.531 44H317.551L307.381 17.54H311.521L301.351 44H290.551ZM298.741 38.51L301.441 30.86H315.931L318.631 38.51H298.741ZM339.721 37.25L339.136 25.595L351.016 12.5H362.581L349.261 27.17L343.366 33.2L339.721 37.25ZM330.226 44V12.5H340.666V44H330.226ZM350.926 44L341.656 31.76L348.541 24.47L363.211 44H350.926ZM370.274 44V30.185L372.704 36.53L358.394 12.5H369.599L379.274 28.925H372.749L382.514 12.5H392.774L378.554 36.53L380.894 30.185V44H370.274ZM388.681 44L402.451 12.5H412.891L426.661 44H415.681L405.511 17.54H409.651L399.481 44H388.681ZM396.871 38.51L399.571 30.86H414.061L416.761 38.51H396.871ZM433.613 44V20.735H424.388V12.5H453.458V20.735H444.233V44H433.613Z" fill="#EEEEEE"/>
<path d="M213.419 44V12.5H228.584C231.524 12.5 234.059 12.98 236.189 13.94C238.349 14.9 240.014 16.28 241.184 18.08C242.354 19.85 242.939 21.95 242.939 24.38C242.939 26.81 242.354 28.91 241.184 30.68C240.014 32.42 238.349 33.755 236.189 34.685C234.059 35.615 231.524 36.08 228.584 36.08H219.314L224.039 31.715V44H213.419ZM232.274 44L224.534 32.525H235.784L243.614 44H232.274ZM224.039 32.885L219.314 28.07H227.909C229.379 28.07 230.459 27.74 231.149 27.08C231.869 26.42 232.229 25.52 232.229 24.38C232.229 23.24 231.869 22.34 231.149 21.68C230.459 21.02 229.379 20.69 227.909 20.69H219.314L224.039 15.875V32.885Z" fill="#4A8068"/>
<path d="M108 44H146L132 12H121.5L108 44Z" fill="#F69722"/>
<path d="M388.5 44H427L413 12H402L388.5 44Z" fill="#9C4A9A"/>
<path d="M290 44H328.5L314.5 12H303.5L290 44Z" fill="#E62C20"/>
<ellipse cx="226.5" cy="27" rx="6.5" ry="8" fill="#4A8068"/>
</svg>
