<svg width="203" height="19" viewBox="0 0 203 19" fill="none" xmlns="http://www.w3.org/2000/svg">
<path d="M0.368 18V1.2H8.456C10.024 1.2 11.376 1.456 12.512 1.968C13.664 2.48 14.552 3.216 15.176 4.176C15.8 5.12 16.112 6.24 16.112 7.536C16.112 8.832 15.8 9.952 15.176 10.896C14.552 11.84 13.664 12.576 12.512 13.104C11.376 13.616 10.024 13.872 8.456 13.872H3.512L6.032 11.448V18H0.368ZM6.032 12.072L3.512 9.504H8.096C8.88 9.504 9.456 9.328 9.824 8.976C10.208 8.624 10.4 8.144 10.4 7.536C10.4 6.928 10.208 6.448 9.824 6.096C9.456 5.744 8.88 5.568 8.096 5.568H3.512L6.032 3V12.072ZM43.8039 18.384C42.3959 18.384 41.0359 18.224 39.7239 17.904C38.4119 17.584 37.3319 17.168 36.4839 16.656L38.3079 12.528C39.1079 12.992 39.9959 13.368 40.9719 13.656C41.9639 13.928 42.9239 14.064 43.8519 14.064C44.3959 14.064 44.8199 14.032 45.1239 13.968C45.4439 13.888 45.6759 13.784 45.8199 13.656C45.9639 13.512 46.0359 13.344 46.0359 13.152C46.0359 12.848 45.8679 12.608 45.5319 12.432C45.1959 12.256 44.7479 12.112 44.1879 12C43.6439 11.872 43.0439 11.744 42.3879 11.616C41.7319 11.472 41.0679 11.288 40.3959 11.064C39.7399 10.84 39.1319 10.544 38.5719 10.176C38.0279 9.808 37.5879 9.328 37.2519 8.736C36.9159 8.128 36.7479 7.376 36.7479 6.48C36.7479 5.44 37.0359 4.496 37.6119 3.648C38.2039 2.784 39.0759 2.096 40.2279 1.584C41.3959 1.072 42.8439 0.816 44.5719 0.816C45.7079 0.816 46.8279 0.935999 47.9319 1.176C49.0359 1.416 50.0279 1.784 50.9079 2.28L49.2039 6.384C48.3719 5.968 47.5639 5.656 46.7799 5.448C46.0119 5.24 45.2599 5.136 44.5239 5.136C43.9799 5.136 43.5479 5.184 43.2279 5.28C42.9079 5.376 42.6759 5.504 42.5319 5.664C42.4039 5.824 42.3399 6 42.3399 6.192C42.3399 6.48 42.5079 6.712 42.8439 6.888C43.1799 7.048 43.6199 7.184 44.1639 7.296C44.7239 7.408 45.3319 7.528 45.9879 7.656C46.6599 7.784 47.3239 7.96 47.9799 8.184C48.6359 8.408 49.2359 8.704 49.7799 9.072C50.3399 9.44 50.7879 9.92 51.1239 10.512C51.4599 11.104 51.6279 11.84 51.6279 12.72C51.6279 13.744 51.3319 14.688 50.7399 15.552C50.1639 16.4 49.2999 17.088 48.1479 17.616C46.9959 18.128 45.5479 18.384 43.8039 18.384ZM51.4893 18L58.8333 1.2H64.4013L71.7453 18H65.8893L60.4653 3.888H62.6733L57.2493 18H51.4893ZM55.8573 15.072L57.2973 10.992H65.0253L66.4653 15.072H55.8573ZM97.7274 18V1.2H105.815C107.383 1.2 108.735 1.456 109.871 1.968C111.023 2.48 111.911 3.216 112.535 4.176C113.159 5.12 113.471 6.24 113.471 7.536C113.471 8.832 113.159 9.952 112.535 10.896C111.911 11.824 111.023 12.536 109.871 13.032C108.735 13.528 107.383 13.776 105.815 13.776H100.871L103.391 11.448V18H97.7274ZM107.783 18L103.655 11.88H109.655L113.831 18H107.783ZM103.391 12.072L100.871 9.504H105.455C106.239 9.504 106.815 9.328 107.183 8.976C107.567 8.624 107.759 8.144 107.759 7.536C107.759 6.928 107.567 6.448 107.183 6.096C106.815 5.744 106.239 5.568 105.455 5.568H100.871L103.391 3V12.072ZM140.01 14.4L139.698 8.184L146.034 1.2H152.202L145.098 9.024L141.954 12.24L140.01 14.4ZM134.946 18V1.2H140.514V18H134.946ZM145.986 18L141.042 11.472L144.714 7.584L152.538 18H145.986ZM156.305 18V10.632L157.601 14.016L149.969 1.2H155.945L161.105 9.96H157.625L162.833 1.2H168.305L160.721 14.016L161.969 10.632V18H156.305ZM192.008 18V5.592H187.088V1.2H202.592V5.592H197.672V18H192.008Z" fill="#D9D9D9"/>
<path d="M16.3799 18L23.7239 1.2H29.2919L36.6359 18H30.7799L25.3559 3.888H27.5639L22.1399 18H16.3799ZM20.7479 15.072L22.1879 10.992H29.9159L31.3559 15.072H20.7479Z" fill="#F69722"/>
<path d="M72.6493 18V1.2H80.7373C82.3053 1.2 83.6573 1.456 84.7933 1.968C85.9453 2.48 86.8333 3.216 87.4573 4.176C88.0813 5.12 88.3933 6.24 88.3933 7.536C88.3933 8.832 88.0813 9.952 87.4573 10.896C86.8333 11.824 85.9453 12.536 84.7933 13.032C83.6573 13.528 82.3053 13.776 80.7373 13.776H75.7933L78.3133 11.448V18H72.6493ZM82.7053 18L78.5773 11.88H84.5773L88.7533 18H82.7053ZM78.3133 12.072L75.7933 9.504H80.3773C81.1613 9.504 81.7373 9.328 82.1053 8.976C82.4893 8.624 82.6813 8.144 82.6813 7.536C82.6813 6.928 82.4893 6.448 82.1053 6.096C81.7373 5.744 81.1613 5.568 80.3773 5.568H75.7933L78.3133 3V12.072Z" fill="#4A8068"/>
<path d="M113.786 18L121.13 1.2H126.698L134.042 18H128.186L122.762 3.888H124.97L119.546 18H113.786ZM118.154 15.072L119.594 10.992H127.322L128.762 15.072H118.154Z" fill="#E62C20"/>
<path d="M167.2 18L174.544 1.2H180.112L187.456 18H181.6L176.176 3.888H178.384L172.96 18H167.2ZM171.568 15.072L173.008 10.992H180.736L182.176 15.072H171.568Z" fill="#9C4A9A"/>
</svg>
