<svg width="291" height="64" viewBox="0 0 291 64" fill="none" xmlns="http://www.w3.org/2000/svg">
<g filter="url(#filter0_d_2108_4)">
<path d="M13.3259 21.448C11.6832 21.448 10.0965 21.2613 8.56588 20.888C7.03521 20.5147 5.77521 20.0293 4.78588 19.432L6.91388 14.616C7.84721 15.1573 8.88321 15.596 10.0219 15.932C11.1792 16.2493 12.2992 16.408 13.3819 16.408C14.0165 16.408 14.5112 16.3707 14.8659 16.296C15.2392 16.2027 15.5099 16.0813 15.6779 15.932C15.8459 15.764 15.9299 15.568 15.9299 15.344C15.9299 14.9893 15.7339 14.7093 15.3419 14.504C14.9499 14.2987 14.4272 14.1307 13.7739 14C13.1392 13.8507 12.4392 13.7013 11.6739 13.552C10.9085 13.384 10.1339 13.1693 9.34988 12.908C8.58454 12.6467 7.87521 12.3013 7.22188 11.872C6.58721 11.4427 6.07388 10.8827 5.68188 10.192C5.28988 9.48267 5.09388 8.60533 5.09388 7.56C5.09388 6.34667 5.42988 5.24533 6.10188 4.256C6.79254 3.248 7.80988 2.44533 9.15388 1.848C10.5165 1.25067 12.2059 0.951999 14.2219 0.951999C15.5472 0.951999 16.8539 1.092 18.1419 1.372C19.4299 1.652 20.5872 2.08133 21.6139 2.66L19.6259 7.448C18.6552 6.96267 17.7125 6.59867 16.7979 6.356C15.9019 6.11333 15.0245 5.992 14.1659 5.992C13.5312 5.992 13.0272 6.048 12.6539 6.16C12.2805 6.272 12.0099 6.42133 11.8419 6.608C11.6925 6.79467 11.6179 7 11.6179 7.224C11.6179 7.56 11.8139 7.83067 12.2059 8.036C12.5979 8.22267 13.1112 8.38133 13.7459 8.512C14.3992 8.64267 15.1085 8.78267 15.8739 8.932C16.6579 9.08133 17.4325 9.28667 18.1979 9.548C18.9632 9.80933 19.6632 10.1547 20.2979 10.584C20.9512 11.0133 21.4739 11.5733 21.8659 12.264C22.2579 12.9547 22.4539 13.8133 22.4539 14.84C22.4539 16.0347 22.1085 17.136 21.4179 18.144C20.7459 19.1333 19.7379 19.936 18.3939 20.552C17.0499 21.1493 15.3605 21.448 13.3259 21.448ZM30.4682 8.68H39.2042V13.44H30.4682V8.68ZM30.9162 16.016H40.7162V21H24.4202V1.4H40.3522V6.384H30.9162V16.016ZM43.2601 21V1.4H48.6921L56.5321 14.196H53.6761L61.2921 1.4H66.7241L66.7801 21H60.7601L60.7041 10.472H61.6561L56.4481 19.236H53.5361L48.1041 10.472H49.2801V21H43.2601ZM69.9749 21V1.4H76.5829V21H69.9749ZM79.764 21V1.4H85.196L95.164 13.328H92.644V1.4H99.084V21H93.652L83.684 9.072H86.204V21H79.764ZM124.826 21V1.4H134.262C136.092 1.4 137.669 1.69867 138.994 2.296C140.338 2.89333 141.374 3.752 142.102 4.872C142.83 5.97333 143.194 7.28 143.194 8.792C143.194 10.304 142.83 11.6107 142.102 12.712C141.374 13.7947 140.338 14.6253 138.994 15.204C137.669 15.7827 136.092 16.072 134.262 16.072H128.494L131.434 13.356V21H124.826ZM136.558 21L131.742 13.86H138.742L143.614 21H136.558ZM131.434 14.084L128.494 11.088H133.842C134.757 11.088 135.429 10.8827 135.858 10.472C136.306 10.0613 136.53 9.50133 136.53 8.792C136.53 8.08267 136.306 7.52267 135.858 7.112C135.429 6.70133 134.757 6.496 133.842 6.496H128.494L131.434 3.5V14.084ZM160.132 8.68H168.868V13.44H160.132V8.68ZM160.58 16.016H170.38V21H154.084V1.4H170.016V6.384H160.58V16.016ZM205.437 21.448C202.432 21.448 200.089 20.636 198.409 19.012C196.729 17.388 195.889 15.1107 195.889 12.18V1.4H202.497V11.984C202.497 13.4773 202.768 14.5413 203.309 15.176C203.85 15.792 204.578 16.1 205.493 16.1C206.426 16.1 207.154 15.792 207.677 15.176C208.218 14.5413 208.489 13.4773 208.489 11.984V1.4H214.985V12.18C214.985 15.1107 214.145 17.388 212.465 19.012C210.785 20.636 208.442 21.448 205.437 21.448ZM223.922 16.8L223.558 9.548L230.95 1.4H238.146L229.858 10.528L226.19 14.28L223.922 16.8ZM218.014 21V1.4H224.51V21H218.014ZM230.894 21L225.126 13.384L229.41 8.848L238.538 21H230.894ZM269.291 21.448C267.648 21.448 266.061 21.2613 264.531 20.888C263 20.5147 261.74 20.0293 260.751 19.432L262.879 14.616C263.812 15.1573 264.848 15.596 265.987 15.932C267.144 16.2493 268.264 16.408 269.347 16.408C269.981 16.408 270.476 16.3707 270.831 16.296C271.204 16.2027 271.475 16.0813 271.643 15.932C271.811 15.764 271.895 15.568 271.895 15.344C271.895 14.9893 271.699 14.7093 271.307 14.504C270.915 14.2987 270.392 14.1307 269.739 14C269.104 13.8507 268.404 13.7013 267.639 13.552C266.873 13.384 266.099 13.1693 265.315 12.908C264.549 12.6467 263.84 12.3013 263.187 11.872C262.552 11.4427 262.039 10.8827 261.647 10.192C261.255 9.48267 261.059 8.60533 261.059 7.56C261.059 6.34667 261.395 5.24533 262.067 4.256C262.757 3.248 263.775 2.44533 265.119 1.848C266.481 1.25067 268.171 0.951999 270.187 0.951999C271.512 0.951999 272.819 1.092 274.107 1.372C275.395 1.652 276.552 2.08133 277.579 2.66L275.591 7.448C274.62 6.96267 273.677 6.59867 272.763 6.356C271.867 6.11333 270.989 5.992 270.131 5.992C269.496 5.992 268.992 6.048 268.619 6.16C268.245 6.272 267.975 6.42133 267.807 6.608C267.657 6.79467 267.583 7 267.583 7.224C267.583 7.56 267.779 7.83067 268.171 8.036C268.563 8.22267 269.076 8.38133 269.711 8.512C270.364 8.64267 271.073 8.78267 271.839 8.932C272.623 9.08133 273.397 9.28667 274.163 9.548C274.928 9.80933 275.628 10.1547 276.263 10.584C276.916 11.0133 277.439 11.5733 277.831 12.264C278.223 12.9547 278.419 13.8133 278.419 14.84C278.419 16.0347 278.073 17.136 277.383 18.144C276.711 19.1333 275.703 19.936 274.359 20.552C273.015 21.1493 271.325 21.448 269.291 21.448ZM280.385 21V1.4H286.993V21H280.385ZM13.7169 50.8L13.3529 43.548L20.7449 35.4H27.9409L19.6529 44.528L15.9849 48.28L13.7169 50.8ZM7.80889 55V35.4H14.3049V55H7.80889ZM20.6889 55L14.9209 47.384L19.2049 42.848L28.3329 55H20.6889ZM35.267 42.68H44.003V47.44H35.267V42.68ZM35.715 50.016H45.515V55H29.219V35.4H45.151V40.384H35.715V50.016ZM52.7415 55L46.4695 35.4H53.2735L58.3415 51.948H54.9255L60.3015 35.4H66.3775L71.3895 51.948H68.1135L73.4055 35.4H79.6775L73.4055 55H66.3215L62.2335 41.448H64.1375L59.8255 55H52.7415ZM81.1448 55V35.4H87.7528V55H81.1448ZM143.736 55.448C140.73 55.448 138.388 54.636 136.708 53.012C135.028 51.388 134.188 49.1107 134.188 46.18V35.4H140.796V45.984C140.796 47.4773 141.066 48.5413 141.608 49.176C142.149 49.792 142.877 50.1 143.792 50.1C144.725 50.1 145.453 49.792 145.976 49.176C146.517 48.5413 146.788 47.4773 146.788 45.984V35.4H153.284V46.18C153.284 49.1107 152.444 51.388 150.764 53.012C149.084 54.636 146.741 55.448 143.736 55.448ZM163.621 55.448C161.978 55.448 160.391 55.2613 158.861 54.888C157.33 54.5147 156.07 54.0293 155.081 53.432L157.209 48.616C158.142 49.1573 159.178 49.596 160.317 49.932C161.474 50.2493 162.594 50.408 163.677 50.408C164.311 50.408 164.806 50.3707 165.161 50.296C165.534 50.2027 165.805 50.0813 165.973 49.932C166.141 49.764 166.225 49.568 166.225 49.344C166.225 48.9893 166.029 48.7093 165.637 48.504C165.245 48.2987 164.722 48.1307 164.069 48C163.434 47.8507 162.734 47.7013 161.969 47.552C161.203 47.384 160.429 47.1693 159.645 46.908C158.879 46.6467 158.17 46.3013 157.517 45.872C156.882 45.4427 156.369 44.8827 155.977 44.192C155.585 43.4827 155.389 42.6053 155.389 41.56C155.389 40.3467 155.725 39.2453 156.397 38.256C157.087 37.248 158.105 36.4453 159.449 35.848C160.811 35.2507 162.501 34.952 164.517 34.952C165.842 34.952 167.149 35.092 168.437 35.372C169.725 35.652 170.882 36.0813 171.909 36.66L169.921 41.448C168.95 40.9627 168.007 40.5987 167.093 40.356C166.197 40.1133 165.319 39.992 164.461 39.992C163.826 39.992 163.322 40.048 162.949 40.16C162.575 40.272 162.305 40.4213 162.137 40.608C161.987 40.7947 161.913 41 161.913 41.224C161.913 41.56 162.109 41.8307 162.501 42.036C162.893 42.2227 163.406 42.3813 164.041 42.512C164.694 42.6427 165.403 42.7827 166.169 42.932C166.953 43.0813 167.727 43.2867 168.493 43.548C169.258 43.8093 169.958 44.1547 170.593 44.584C171.246 45.0133 171.769 45.5733 172.161 46.264C172.553 46.9547 172.749 47.8133 172.749 48.84C172.749 50.0347 172.403 51.136 171.713 52.144C171.041 53.1333 170.033 53.936 168.689 54.552C167.345 55.1493 165.655 55.448 163.621 55.448ZM209.986 35.4H216.594V55H209.986V35.4ZM203.882 55H197.274V35.4H203.882V55ZM210.434 47.776H203.434V42.344H210.434V47.776ZM217.65 55L226.218 35.4H232.714L241.282 55H234.45L228.122 38.536H230.698L224.37 55H217.65ZM222.746 51.584L224.426 46.824H233.442L235.122 51.584H222.746ZM241.193 55L249.761 35.4H256.257L264.825 55H257.993L251.665 38.536H254.241L247.913 55H241.193ZM246.289 51.584L247.969 46.824H256.985L258.665 51.584H246.289ZM265.879 55V35.4H271.311L281.279 47.328H278.759V35.4H285.199V55H279.767L269.799 43.072H272.319V55H265.879Z" fill="#EEEEEE"/>
<path d="M100.14 21L108.708 1.4H115.204L123.772 21H116.94L110.612 4.536H113.188L106.86 21H100.14ZM105.236 17.584L106.916 12.824H115.932L117.612 17.584H105.236ZM90.9339 55V35.4H100.37C102.199 35.4 103.777 35.6987 105.102 36.296C106.446 36.8933 107.482 37.752 108.21 38.872C108.938 39.9733 109.302 41.28 109.302 42.792C109.302 44.304 108.938 45.6107 108.21 46.712C107.482 47.7947 106.446 48.6253 105.102 49.204C103.777 49.7827 102.199 50.072 100.37 50.072H94.6019L97.5419 47.356V55H90.9339ZM102.666 55L97.8499 47.86H104.85L109.722 55H102.666ZM97.5419 48.084L94.6019 45.088H99.9499C100.865 45.088 101.537 44.8827 101.966 44.472C102.414 44.0613 102.638 43.5013 102.638 42.792C102.638 42.0827 102.414 41.5227 101.966 41.112C101.537 40.7013 100.865 40.496 99.9499 40.496H94.6019L97.5419 37.5V48.084Z" fill="#4A8068"/>
<path d="M172.924 21V1.4H182.584C184.768 1.4 186.691 1.80133 188.352 2.604C190.013 3.388 191.311 4.508 192.244 5.964C193.177 7.42 193.644 9.156 193.644 11.172C193.644 13.2067 193.177 14.9613 192.244 16.436C191.311 17.892 190.013 19.0213 188.352 19.824C186.691 20.608 184.768 21 182.584 21H172.924ZM179.532 15.848H182.304C183.237 15.848 184.049 15.6707 184.74 15.316C185.449 14.9613 186 14.4387 186.392 13.748C186.784 13.0387 186.98 12.18 186.98 11.172C186.98 10.1827 186.784 9.34267 186.392 8.652C186 7.96133 185.449 7.43867 184.74 7.084C184.049 6.72933 183.237 6.552 182.304 6.552H179.532V15.848ZM172.587 55L181.155 35.4H187.651L196.219 55H189.387L183.059 38.536H185.635L179.307 55H172.587ZM177.683 51.584L179.363 46.824H188.379L190.059 51.584H177.683Z" fill="#9C4A9A"/>
<path d="M237.296 21L245.864 1.4H252.36L260.928 21H254.096L247.768 4.536H250.344L244.016 21H237.296ZM242.392 17.584L244.072 12.824H253.088L254.768 17.584H242.392Z" fill="#E62C20"/>
<path d="M109.669 55L118.237 35.4H124.733L133.301 55H126.469L120.141 38.536H122.717L116.389 55H109.669ZM114.765 51.584L116.445 46.824H125.461L127.141 51.584H114.765Z" fill="#F69722"/>
</g>
<defs>
<filter id="filter0_d_2108_4" x="0.785156" y="0.952148" width="290.207" height="62.4961" filterUnits="userSpaceOnUse" color-interpolation-filters="sRGB">
<feFlood flood-opacity="0" result="BackgroundImageFix"/>
<feColorMatrix in="SourceAlpha" type="matrix" values="0 0 0 0 0 0 0 0 0 0 0 0 0 0 0 0 0 0 127 0" result="hardAlpha"/>
<feOffset dy="4"/>
<feGaussianBlur stdDeviation="2"/>
<feComposite in2="hardAlpha" operator="out"/>
<feColorMatrix type="matrix" values="0 0 0 0 0 0 0 0 0 0 0 0 0 0 0 0 0 0 0.25 0"/>
<feBlend mode="normal" in2="BackgroundImageFix" result="effect1_dropShadow_2108_4"/>
<feBlend mode="normal" in="SourceGraphic" in2="effect1_dropShadow_2108_4" result="shape"/>
</filter>
</defs>
</svg>
