<svg width="654" height="24" viewBox="0 0 654 24" fill="none" xmlns="http://www.w3.org/2000/svg">
<path d="M10.176 23.512C8.29867 23.512 6.48533 23.2987 4.736 22.872C2.98667 22.4453 1.54667 21.8907 0.416 21.208L2.848 15.704C3.91467 16.3227 5.09867 16.824 6.4 17.208C7.72267 17.5707 9.00267 17.752 10.24 17.752C10.9653 17.752 11.5307 17.7093 11.936 17.624C12.3627 17.5173 12.672 17.3787 12.864 17.208C13.056 17.016 13.152 16.792 13.152 16.536C13.152 16.1307 12.928 15.8107 12.48 15.576C12.032 15.3413 11.4347 15.1493 10.688 15C9.96267 14.8293 9.16267 14.6587 8.288 14.488C7.41333 14.296 6.528 14.0507 5.632 13.752C4.75733 13.4533 3.94667 13.0587 3.2 12.568C2.47467 12.0773 1.888 11.4373 1.44 10.648C0.992 9.83733 0.768 8.83467 0.768 7.64C0.768 6.25333 1.152 4.99467 1.92 3.864C2.70933 2.712 3.872 1.79467 5.408 1.112C6.96533 0.429333 8.896 0.0879993 11.2 0.0879993C12.7147 0.0879993 14.208 0.247999 15.68 0.567999C17.152 0.887999 18.4747 1.37867 19.648 2.04L17.376 7.512C16.2667 6.95733 15.1893 6.54133 14.144 6.264C13.12 5.98667 12.1173 5.848 11.136 5.848C10.4107 5.848 9.83467 5.912 9.408 6.04C8.98133 6.168 8.672 6.33867 8.48 6.552C8.30933 6.76533 8.224 7 8.224 7.256C8.224 7.64 8.448 7.94933 8.896 8.184C9.344 8.39733 9.93067 8.57867 10.656 8.728C11.4027 8.87733 12.2133 9.03733 13.088 9.208C13.984 9.37867 14.8693 9.61333 15.744 9.912C16.6187 10.2107 17.4187 10.6053 18.144 11.096C18.8907 11.5867 19.488 12.2267 19.936 13.016C20.384 13.8053 20.608 14.7867 20.608 15.96C20.608 17.3253 20.2133 18.584 19.424 19.736C18.656 20.8667 17.504 21.784 15.968 22.488C14.432 23.1707 12.5013 23.512 10.176 23.512ZM29.7673 8.92H39.7513V14.36H29.7673V8.92ZM30.2793 17.304H41.4793V23H22.8553V0.599998H41.0633V6.296H30.2793V17.304ZM44.3865 23V0.599998H50.5945L59.5545 15.224H56.2905L64.9945 0.599998H71.2025L71.2665 23H64.3865L64.3225 10.968H65.4105L59.4585 20.984H56.1305L49.9225 10.968H51.2665V23H44.3865ZM74.9178 23V0.599998H82.4698V23H74.9178ZM86.1053 23V0.599998H92.3133L103.705 14.232H100.825V0.599998H108.185V23H101.977L90.5853 9.368H93.4653V23H86.1053ZM137.605 23V0.599998H148.389C150.48 0.599998 152.283 0.941332 153.797 1.624C155.333 2.30667 156.517 3.288 157.349 4.568C158.181 5.82667 158.597 7.32 158.597 9.048C158.597 10.776 158.181 12.2693 157.349 13.528C156.517 14.7653 155.333 15.7147 153.797 16.376C152.283 17.0373 150.48 17.368 148.389 17.368H141.797L145.157 14.264V23H137.605ZM151.013 23L145.509 14.84H153.509L159.077 23H151.013ZM145.157 15.096L141.797 11.672H147.909C148.955 11.672 149.723 11.4373 150.213 10.968C150.725 10.4987 150.981 9.85867 150.981 9.048C150.981 8.23733 150.725 7.59733 150.213 7.128C149.723 6.65867 148.955 6.424 147.909 6.424H141.797L145.157 3V15.096ZM177.955 8.92H187.939V14.36H177.955V8.92ZM178.467 17.304H189.667V23H171.043V0.599998H189.251V6.296H178.467V17.304ZM229.732 23.512C226.297 23.512 223.62 22.584 221.7 20.728C219.78 18.872 218.82 16.2693 218.82 12.92V0.599998H226.372V12.696C226.372 14.4027 226.681 15.6187 227.3 16.344C227.918 17.048 228.75 17.4 229.796 17.4C230.862 17.4 231.694 17.048 232.292 16.344C232.91 15.6187 233.22 14.4027 233.22 12.696V0.599998H240.644V12.92C240.644 16.2693 239.684 18.872 237.764 20.728C235.844 22.584 233.166 23.512 229.732 23.512ZM250.857 18.2L250.441 9.912L258.889 0.599998H267.113L257.641 11.032L253.449 15.32L250.857 18.2ZM244.105 23V0.599998H251.529V23H244.105ZM258.825 23L252.233 14.296L257.129 9.112L267.561 23H258.825ZM302.707 23.512C300.83 23.512 299.017 23.2987 297.267 22.872C295.518 22.4453 294.078 21.8907 292.947 21.208L295.379 15.704C296.446 16.3227 297.63 16.824 298.931 17.208C300.254 17.5707 301.534 17.752 302.771 17.752C303.497 17.752 304.062 17.7093 304.467 17.624C304.894 17.5173 305.203 17.3787 305.395 17.208C305.587 17.016 305.683 16.792 305.683 16.536C305.683 16.1307 305.459 15.8107 305.011 15.576C304.563 15.3413 303.966 15.1493 303.219 15C302.494 14.8293 301.694 14.6587 300.819 14.488C299.945 14.296 299.059 14.0507 298.163 13.752C297.289 13.4533 296.478 13.0587 295.731 12.568C295.006 12.0773 294.419 11.4373 293.971 10.648C293.523 9.83733 293.299 8.83467 293.299 7.64C293.299 6.25333 293.683 4.99467 294.451 3.864C295.241 2.712 296.403 1.79467 297.939 1.112C299.497 0.429333 301.427 0.0879993 303.731 0.0879993C305.246 0.0879993 306.739 0.247999 308.211 0.567999C309.683 0.887999 311.006 1.37867 312.179 2.04L309.907 7.512C308.798 6.95733 307.721 6.54133 306.675 6.264C305.651 5.98667 304.649 5.848 303.667 5.848C302.942 5.848 302.366 5.912 301.939 6.04C301.513 6.168 301.203 6.33867 301.011 6.552C300.841 6.76533 300.755 7 300.755 7.256C300.755 7.64 300.979 7.94933 301.427 8.184C301.875 8.39733 302.462 8.57867 303.187 8.728C303.934 8.87733 304.745 9.03733 305.619 9.208C306.515 9.37867 307.401 9.61333 308.275 9.912C309.15 10.2107 309.95 10.6053 310.675 11.096C311.422 11.5867 312.019 12.2267 312.467 13.016C312.915 13.8053 313.139 14.7867 313.139 15.96C313.139 17.3253 312.745 18.584 311.955 19.736C311.187 20.8667 310.035 21.784 308.499 22.488C306.963 23.1707 305.033 23.512 302.707 23.512ZM315.387 23V0.599998H322.939V23H315.387ZM342.92 18.2L342.504 9.912L350.952 0.599998H359.176L349.704 11.032L345.512 15.32L342.92 18.2ZM336.168 23V0.599998H343.592V23H336.168ZM350.888 23L344.296 14.296L349.192 9.112L359.624 23H350.888ZM367.549 8.92H377.533V14.36H367.549V8.92ZM368.061 17.304H379.261V23H360.637V0.599998H378.845V6.296H368.061V17.304ZM387.519 23L380.351 0.599998H388.127L393.919 19.512H390.015L396.159 0.599998H403.103L408.831 19.512H405.087L411.135 0.599998H418.303L411.135 23H403.039L398.367 7.512H400.543L395.615 23H387.519ZM419.98 23V0.599998H427.532V23H419.98ZM491.513 23.512C488.078 23.512 485.401 22.584 483.481 20.728C481.561 18.872 480.601 16.2693 480.601 12.92V0.599998H488.153V12.696C488.153 14.4027 488.462 15.6187 489.081 16.344C489.699 17.048 490.531 17.4 491.577 17.4C492.643 17.4 493.475 17.048 494.073 16.344C494.691 15.6187 495.001 14.4027 495.001 12.696V0.599998H502.425V12.92C502.425 16.2693 501.465 18.872 499.545 20.728C497.625 22.584 494.947 23.512 491.513 23.512ZM514.239 23.512C512.361 23.512 510.548 23.2987 508.799 22.872C507.049 22.4453 505.609 21.8907 504.479 21.208L506.911 15.704C507.977 16.3227 509.161 16.824 510.463 17.208C511.785 17.5707 513.065 17.752 514.303 17.752C515.028 17.752 515.593 17.7093 515.999 17.624C516.425 17.5173 516.735 17.3787 516.927 17.208C517.119 17.016 517.215 16.792 517.215 16.536C517.215 16.1307 516.991 15.8107 516.543 15.576C516.095 15.3413 515.497 15.1493 514.751 15C514.025 14.8293 513.225 14.6587 512.351 14.488C511.476 14.296 510.591 14.0507 509.695 13.752C508.82 13.4533 508.009 13.0587 507.263 12.568C506.537 12.0773 505.951 11.4373 505.503 10.648C505.055 9.83733 504.831 8.83467 504.831 7.64C504.831 6.25333 505.215 4.99467 505.983 3.864C506.772 2.712 507.935 1.79467 509.471 1.112C511.028 0.429333 512.959 0.0879993 515.263 0.0879993C516.777 0.0879993 518.271 0.247999 519.743 0.567999C521.215 0.887999 522.537 1.37867 523.711 2.04L521.439 7.512C520.329 6.95733 519.252 6.54133 518.207 6.264C517.183 5.98667 516.18 5.848 515.199 5.848C514.473 5.848 513.897 5.912 513.47 6.04C513.044 6.168 512.735 6.33867 512.543 6.552C512.372 6.76533 512.286 7 512.286 7.256C512.286 7.64 512.511 7.94933 512.959 8.184C513.407 8.39733 513.993 8.57867 514.719 8.728C515.465 8.87733 516.276 9.03733 517.151 9.208C518.047 9.37867 518.932 9.61333 519.807 9.912C520.681 10.2107 521.481 10.6053 522.207 11.096C522.953 11.5867 523.551 12.2267 523.999 13.016C524.447 13.8053 524.671 14.7867 524.671 15.96C524.671 17.3253 524.276 18.584 523.487 19.736C522.719 20.8667 521.567 21.784 520.031 22.488C518.495 23.1707 516.564 23.512 514.239 23.512ZM567.227 0.599998H574.779V23H567.227V0.599998ZM560.251 23H552.699V0.599998H560.251V23ZM567.739 14.744H559.739V8.536H567.739V14.744ZM575.986 23L585.778 0.599998H593.202L602.994 23H595.186L587.954 4.184H590.898L583.666 23H575.986ZM581.81 19.096L583.73 13.656H594.034L595.954 19.096H581.81ZM602.892 23L612.684 0.599998H620.108L629.9 23H622.092L614.86 4.184H617.804L610.572 23H602.892ZM608.716 19.096L610.636 13.656H620.94L622.86 19.096H608.716ZM631.105 23V0.599998H637.313L648.705 14.232H645.825V0.599998H653.185V23H646.977L635.585 9.368H638.465V23H631.105Z" fill="#EEEEEE"/>
<path d="M109.392 23L119.184 0.599998H126.608L136.4 23H128.592L121.36 4.184H124.304L117.072 23H109.392ZM115.216 19.096L117.136 13.656H127.44L129.36 19.096H115.216ZM431.168 23V0.599998H441.952C444.042 0.599998 445.845 0.941332 447.36 1.624C448.896 2.30667 450.08 3.288 450.912 4.568C451.744 5.82667 452.16 7.32 452.16 9.048C452.16 10.776 451.744 12.2693 450.912 13.528C450.08 14.7653 448.896 15.7147 447.36 16.376C445.845 17.0373 444.042 17.368 441.952 17.368H435.36L438.72 14.264V23H431.168ZM444.576 23L439.072 14.84H447.072L452.64 23H444.576ZM438.72 15.096L435.36 11.672H441.472C442.517 11.672 443.285 11.4373 443.776 10.968C444.288 10.4987 444.544 9.85867 444.544 9.048C444.544 8.23733 444.288 7.59733 443.776 7.128C443.285 6.65867 442.517 6.424 441.472 6.424H435.36L438.72 3V15.096Z" fill="#4A8068"/>
<path d="M192.574 23V0.599998H203.614C206.11 0.599998 208.307 1.05867 210.206 1.976C212.105 2.872 213.587 4.152 214.654 5.816C215.721 7.48 216.254 9.464 216.254 11.768C216.254 14.0933 215.721 16.0987 214.654 17.784C213.587 19.448 212.105 20.7387 210.206 21.656C208.307 22.552 206.11 23 203.614 23H192.574ZM200.126 17.112H203.294C204.361 17.112 205.289 16.9093 206.078 16.504C206.889 16.0987 207.518 15.5013 207.966 14.712C208.414 13.9013 208.638 12.92 208.638 11.768C208.638 10.6373 208.414 9.67733 207.966 8.888C207.518 8.09867 206.889 7.50133 206.078 7.096C205.289 6.69067 204.361 6.488 203.294 6.488H200.126V17.112ZM524.486 23L534.278 0.599998H541.702L551.494 23H543.686L536.454 4.184H539.398L532.166 23H524.486ZM530.31 19.096L532.23 13.656H542.534L544.454 19.096H530.31Z" fill="#9C4A9A"/>
<path d="M266.142 23L275.934 0.599998H283.358L293.15 23H285.342L278.11 4.184H281.054L273.822 23H266.142ZM271.966 19.096L273.886 13.656H284.19L286.11 19.096H271.966Z" fill="#E62C20"/>
<path d="M452.579 23L462.372 0.599998H469.796L479.588 23H471.78L464.548 4.184H467.492L460.26 23H452.579ZM458.404 19.096L460.324 13.656H470.628L472.548 19.096H458.404Z" fill="#F69722"/>
</svg>
