<svg width="204" height="29" viewBox="0 0 204 29" fill="none" xmlns="http://www.w3.org/2000/svg">
<path d="M0 19.8427L0 21.5935H6.41962V19.8427H7.58682V18.0919H9.33763V16.3411H11.0884V15.1739H4.66881V16.9247H3.50161L3.50161 18.0919H1.7508L1.7508 19.8427H0Z" fill="#4A8068"/>
<path d="M0 8.75413L0 7.00333H6.41962V8.75413H7.58682V10.5049H9.33763V12.2557H11.0884V13.4229H4.66881V11.6721H3.50161L3.50161 10.5049H1.7508L1.7508 8.75413H0Z" fill="#4A8068"/>
<path d="M11.672 11.0885L13.4229 11.0885L13.4229 4.66888L11.672 4.66888L11.672 3.50168L9.92124 3.50168L9.92124 1.75088L8.17044 1.75088L8.17044 7.06345e-05L7.00323 7.06485e-05L7.00323 6.41969L8.75404 6.41969L8.75404 7.58689L9.92124 7.58689L9.92124 9.3377L11.672 9.3377L11.672 11.0885Z" fill="#4A8068"/>
<path d="M19.8425 -2.08781e-08L21.5933 0L21.5933 6.41962L19.8425 6.41962L19.8425 7.58682L18.0917 7.58682L18.0917 9.33763L16.3408 9.33763L16.3408 11.0884L15.1736 11.0884L15.1736 4.66881L16.9244 4.66881L16.9244 3.50161L18.0917 3.50161L18.0917 1.7508L19.8425 1.7508L19.8425 -2.08781e-08Z" fill="#4A8068"/>
<path d="M28.5967 8.75413V7.00333L22.1771 7.00333V8.75413H21.0099V10.5049L19.2591 10.5049V12.2557L17.5082 12.2557V13.4229L23.9279 13.4229V11.6721H25.0951V10.5049H26.8459V8.75413H28.5967Z" fill="#4A8068"/>
<path d="M28.5967 19.8427V21.5935H22.1771V19.8427H21.0099V18.0919H19.2591V16.3411H17.5082V15.1739H23.9279V16.9247H25.0951V18.0919H26.8459V19.8427H28.5967Z" fill="#4A8068"/>
<path d="M8.75471 28.5965L7.00391 28.5965L7.00391 22.1769L8.75471 22.1769L8.75471 21.0097L10.5055 21.0097L10.5055 19.2589L12.2563 19.2589L12.2563 17.5081L13.4235 17.5081L13.4235 23.9277L11.6727 23.9277L11.6727 25.0949L10.5055 25.0949L10.5055 26.8457L8.75471 26.8457L8.75471 28.5965Z" fill="#4A8068"/>
<path d="M16.9246 17.508L15.1738 17.508L15.1738 23.9276L16.9246 23.9276L16.9246 25.0948L18.6754 25.0948L18.6754 26.8457L20.4262 26.8457L20.4262 28.5965L21.5934 28.5965L21.5934 22.1768L19.8426 22.1768L19.8426 21.0096L18.6754 21.0096L18.6754 19.2588L16.9246 19.2588L16.9246 17.508Z" fill="#4A8068"/>
<rect x="13.4229" y="15.1734" width="1.7508" height="1.7508" transform="rotate(-90 13.4229 15.1734)" fill="#DF3727"/>
<path d="M35.0801 19.8427V21.5935H41.4997V19.8427H42.6669V18.0919H44.4177V16.3411H46.1685V15.1739H39.7489V16.9247H38.5817V18.0919H36.8309V19.8427H35.0801Z" fill="#F69722"/>
<path d="M35.0801 8.75413V7.00333H41.4997V8.75413H42.6669V10.5049H44.4177V12.2557H46.1685V13.4229H39.7489V11.6721H38.5817V10.5049H36.8309V8.75413H35.0801Z" fill="#F69722"/>
<path d="M46.7521 11.0885L48.5029 11.0885L48.5029 4.66888L46.7521 4.66888L46.7521 3.50168L45.0013 3.50168L45.0013 1.75088L43.2505 1.75088L43.2505 7.06345e-05L42.0833 7.06485e-05L42.0833 6.41969L43.8341 6.41969L43.8341 7.58689L45.0013 7.58689L45.0013 9.3377L46.7521 9.3377L46.7521 11.0885Z" fill="#F69722"/>
<path d="M54.9225 -2.08781e-08L56.6733 0L56.6733 6.41962L54.9225 6.41962L54.9225 7.58682L53.1717 7.58682L53.1717 9.33763L51.4209 9.33763L51.4209 11.0884L50.2537 11.0884L50.2537 4.66881L52.0045 4.66881L52.0045 3.50161L53.1717 3.50161L53.1717 1.7508L54.9225 1.7508L54.9225 -2.08781e-08Z" fill="#F69722"/>
<path d="M63.6768 8.75413V7.00333L57.2571 7.00333V8.75413H56.0899V10.5049L54.3391 10.5049V12.2557L52.5883 12.2557V13.4229L59.0079 13.4229V11.6721H60.1751V10.5049H61.926V8.75413H63.6768Z" fill="#F69722"/>
<path d="M63.6768 19.8427V21.5935H57.2571V19.8427H56.0899V18.0919H54.3391V16.3411H52.5883V15.1739H59.0079V16.9247H60.1751V18.0919H61.926V19.8427H63.6768Z" fill="#F69722"/>
<path d="M43.8343 28.5965L42.0835 28.5965L42.0835 22.1769L43.8343 22.1769L43.8343 21.0097L45.5851 21.0097L45.5851 19.2589L47.3359 19.2589L47.3359 17.5081L48.5031 17.5081L48.5031 23.9277L46.7523 23.9277L46.7523 25.0949L45.5851 25.0949L45.5851 26.8457L43.8343 26.8457L43.8343 28.5965Z" fill="#F69722"/>
<path d="M52.0047 17.508L50.2539 17.508L50.2539 23.9276L52.0047 23.9276L52.0047 25.0948L53.7555 25.0948L53.7555 26.8456L55.5063 26.8456L55.5063 28.5964L56.6735 28.5964L56.6735 22.1768L54.9227 22.1768L54.9227 21.0096L53.7555 21.0096L53.7555 19.2588L52.0047 19.2588L52.0047 17.508Z" fill="#F69722"/>
<rect x="48.5029" y="15.1733" width="1.7508" height="1.7508" transform="rotate(-90 48.5029 15.1733)" fill="#4A8068"/>
<path d="M70.1621 19.8427V21.5935H76.5817V19.8427H77.7489V18.0919H79.4997V16.3411H81.2505V15.1739H74.8309V16.9247H73.6637V18.0919H71.9129V19.8427H70.1621Z" fill="#E62C20"/>
<path d="M70.1621 8.75416V7.00336H76.5817V8.75416H77.7489V10.505H79.4997V12.2558H81.2505V13.423H74.8309V11.6722H73.6637V10.505H71.9129V8.75416H70.1621Z" fill="#E62C20"/>
<path d="M81.8342 11.0885L83.585 11.0885L83.585 4.66891L81.8342 4.66891L81.8342 3.50171L80.0834 3.50171L80.0834 1.75091L78.3325 1.75091L78.3325 0.000101152L77.1653 0.000101166L77.1653 6.41972L78.9161 6.41972L78.9161 7.58692L80.0834 7.58692L80.0834 9.33773L81.8342 9.33773L81.8342 11.0885Z" fill="#E62C20"/>
<path d="M90.0046 3.04967e-05L91.7554 3.05176e-05L91.7554 6.41965L90.0046 6.41965L90.0046 7.58685L88.2538 7.58685L88.2538 9.33766L86.503 9.33766L86.503 11.0885L85.3358 11.0885L85.3358 4.66884L87.0866 4.66884L87.0866 3.50164L88.2538 3.50164L88.2538 1.75084L90.0046 1.75084L90.0046 3.04967e-05Z" fill="#E62C20"/>
<path d="M98.7588 8.75416V7.00336L92.3392 7.00336V8.75416H91.172V10.505L89.4212 10.505V12.2558L87.6704 12.2558V13.423L94.09 13.423V11.6722H95.2572V10.505H97.008V8.75416H98.7588Z" fill="#E62C20"/>
<path d="M98.7588 19.8427V21.5935H92.3392V19.8427H91.172V18.0919H89.4212V16.3411H87.6704V15.1739H94.09V16.9247H95.2572V18.0919H97.008V19.8427H98.7588Z" fill="#E62C20"/>
<path d="M78.9163 28.5966L77.1655 28.5966L77.1655 22.1769L78.9163 22.1769L78.9163 21.0097L80.6671 21.0097L80.6671 19.2589L82.4179 19.2589L82.4179 17.5081L83.5851 17.5081L83.5851 23.9277L81.8343 23.9277L81.8343 25.0949L80.6671 25.0949L80.6671 26.8458L78.9163 26.8458L78.9163 28.5966Z" fill="#E62C20"/>
<path d="M87.0863 17.5081L85.3354 17.5081L85.3354 23.9277L87.0863 23.9277L87.0863 25.0949L88.8371 25.0949L88.8371 26.8457L90.5879 26.8457L90.5879 28.5965L91.7551 28.5965L91.7551 22.1769L90.0043 22.1769L90.0043 21.0097L88.8371 21.0097L88.8371 19.2589L87.0863 19.2589L87.0863 17.5081Z" fill="#E62C20"/>
<rect x="83.5845" y="15.1734" width="1.7508" height="1.7508" transform="rotate(-90 83.5845 15.1734)" fill="#F69722"/>
<path d="M105.241 19.8427V21.5935H111.661V19.8427H112.828V18.0919H114.579V16.3411H116.33V15.1739H109.91V16.9247H108.743V18.0919H106.992V19.8427H105.241Z" fill="#9C4A9A"/>
<path d="M105.241 8.75416V7.00336H111.661V8.75416H112.828V10.505H114.579V12.2558H116.33V13.423H109.91V11.6722H108.743V10.505H106.992V8.75416H105.241Z" fill="#9C4A9A"/>
<path d="M116.914 11.0885L118.665 11.0885L118.665 4.66891L116.914 4.66891L116.914 3.50171L115.163 3.50171L115.163 1.75091L113.412 1.75091L113.412 0.000101152L112.245 0.000101166L112.245 6.41972L113.996 6.41972L113.996 7.58692L115.163 7.58692L115.163 9.33773L116.914 9.33773L116.914 11.0885Z" fill="#9C4A9A"/>
<path d="M125.084 3.04967e-05L126.834 3.05176e-05L126.834 6.41965L125.084 6.41965L125.084 7.58685L123.333 7.58685L123.333 9.33766L121.582 9.33766L121.582 11.0885L120.415 11.0885L120.415 4.66884L122.166 4.66884L122.166 3.50164L123.333 3.50164L123.333 1.75084L125.084 1.75084L125.084 3.04967e-05Z" fill="#9C4A9A"/>
<path d="M133.838 8.75416V7.00336L127.418 7.00336V8.75416H126.251V10.505L124.5 10.505V12.2558L122.749 12.2558V13.423L129.169 13.423V11.6722H130.336V10.505H132.087V8.75416H133.838Z" fill="#9C4A9A"/>
<path d="M133.838 19.8427V21.5935H127.418V19.8427H126.251V18.0919H124.5V16.3411H122.749V15.1739H129.169V16.9247H130.336V18.0919H132.087V19.8427H133.838Z" fill="#9C4A9A"/>
<path d="M113.995 28.5966L112.245 28.5966L112.245 22.1769L113.995 22.1769L113.995 21.0097L115.746 21.0097L115.746 19.2589L117.497 19.2589L117.497 17.5081L118.664 17.5081L118.664 23.9277L116.913 23.9277L116.913 25.0949L115.746 25.0949L115.746 26.8458L113.995 26.8458L113.995 28.5966Z" fill="#9C4A9A"/>
<path d="M122.166 17.5081L120.415 17.5081L120.415 23.9277L122.166 23.9277L122.166 25.0949L123.917 25.0949L123.917 26.8457L125.667 26.8457L125.667 28.5965L126.835 28.5965L126.835 22.1769L125.084 22.1769L125.084 21.0097L123.917 21.0097L123.917 19.2589L122.166 19.2589L122.166 17.5081Z" fill="#9C4A9A"/>
<rect x="118.665" y="15.1734" width="1.7508" height="1.7508" transform="rotate(-90 118.665 15.1734)" fill="#DF3727"/>
<path d="M140.323 19.8427V21.5935H146.743V19.8427H147.91V18.0919H149.661V16.3411H151.412V15.1739H144.992V16.9247H143.825V18.0919H142.074V19.8427H140.323Z" fill="#F69722"/>
<path d="M140.323 8.7541V7.0033H146.743V8.7541H147.91V10.5049H149.661V12.2557H151.412V13.4229H144.992V11.6721H143.825V10.5049H142.074V8.7541H140.323Z" fill="#F69722"/>
<path d="M151.995 11.0885L153.746 11.0885L153.746 4.66888L151.995 4.66888L151.995 3.50168L150.244 3.50168L150.244 1.75088L148.494 1.75088L148.494 7.06345e-05L147.326 7.06485e-05L147.326 6.41969L149.077 6.41969L149.077 7.58689L150.244 7.58689L150.244 9.3377L151.995 9.3377L151.995 11.0885Z" fill="#F69722"/>
<path d="M160.166 -3.05385e-05L161.917 -3.05176e-05L161.917 6.41959L160.166 6.41959L160.166 7.58679L158.415 7.58679L158.415 9.33759L156.664 9.33759L156.664 11.0884L155.497 11.0884L155.497 4.66878L157.248 4.66878L157.248 3.50158L158.415 3.50158L158.415 1.75077L160.166 1.75077L160.166 -3.05385e-05Z" fill="#F69722"/>
<path d="M168.92 8.7541V7.0033L162.5 7.0033V8.7541H161.333V10.5049L159.582 10.5049V12.2557L157.831 12.2557V13.4229L164.251 13.4229V11.6721H165.418V10.5049H167.169V8.7541H168.92Z" fill="#F69722"/>
<path d="M168.92 19.8427V21.5935H162.5V19.8427H161.333V18.0919H159.582V16.3411H157.831V15.1739H164.251V16.9247H165.418V18.0919H167.169V19.8427H168.92Z" fill="#F69722"/>
<path d="M149.077 28.5965L147.327 28.5965L147.327 22.1769L149.077 22.1769L149.077 21.0097L150.828 21.0097L150.828 19.2589L152.579 19.2589L152.579 17.5081L153.746 17.5081L153.746 23.9277L151.995 23.9277L151.995 25.0949L150.828 25.0949L150.828 26.8457L149.077 26.8457L149.077 28.5965Z" fill="#F69722"/>
<path d="M157.248 17.508L155.497 17.508L155.497 23.9276L157.248 23.9276L157.248 25.0948L158.999 25.0948L158.999 26.8456L160.749 26.8456L160.749 28.5964L161.917 28.5964L161.917 22.1768L160.166 22.1768L160.166 21.0096L158.999 21.0096L158.999 19.2588L157.248 19.2588L157.248 17.508Z" fill="#F69722"/>
<rect x="153.746" y="15.1734" width="1.7508" height="1.7508" transform="rotate(-90 153.746 15.1734)" fill="#4A8068"/>
<path d="M175.403 19.8427V21.5935H181.823V19.8427H182.99V18.0919H184.741V16.3411H186.492V15.1739H180.072V16.9247H178.905V18.0919H177.154V19.8427H175.403Z" fill="#E62C20"/>
<path d="M175.403 8.75416V7.00336H181.823V8.75416H182.99V10.505H184.741V12.2558H186.492V13.423H180.072V11.6722H178.905V10.505H177.154V8.75416H175.403Z" fill="#E62C20"/>
<path d="M187.075 11.0885L188.826 11.0885L188.826 4.66891L187.075 4.66891L187.075 3.50171L185.325 3.50171L185.325 1.75091L183.574 1.75091L183.574 0.000101152L182.407 0.000101166L182.407 6.41972L184.157 6.41972L184.157 7.58692L185.325 7.58692L185.325 9.33773L187.075 9.33773L187.075 11.0885Z" fill="#E62C20"/>
<path d="M195.246 3.04967e-05L196.997 3.05176e-05L196.997 6.41965L195.246 6.41965L195.246 7.58685L193.495 7.58685L193.495 9.33766L191.744 9.33766L191.744 11.0885L190.577 11.0885L190.577 4.66884L192.328 4.66884L192.328 3.50164L193.495 3.50164L193.495 1.75084L195.246 1.75084L195.246 3.04967e-05Z" fill="#E62C20"/>
<path d="M204 8.75416V7.00336L197.58 7.00336V8.75416H196.413V10.505L194.662 10.505V12.2558L192.912 12.2558V13.423L199.331 13.423V11.6722H200.498V10.505H202.249V8.75416H204Z" fill="#E62C20"/>
<path d="M204 19.8427V21.5935H197.58V19.8427H196.413V18.0919H194.662V16.3411H192.912V15.1739H199.331V16.9247H200.498V18.0919H202.249V19.8427H204Z" fill="#E62C20"/>
<path d="M184.158 28.5966L182.407 28.5966L182.407 22.1769L184.158 22.1769L184.158 21.0097L185.908 21.0097L185.908 19.2589L187.659 19.2589L187.659 17.5081L188.826 17.5081L188.826 23.9277L187.076 23.9277L187.076 25.0949L185.908 25.0949L185.908 26.8458L184.158 26.8458L184.158 28.5966Z" fill="#E62C20"/>
<path d="M192.328 17.5081L190.577 17.5081L190.577 23.9277L192.328 23.9277L192.328 25.0949L194.079 25.0949L194.079 26.8457L195.83 26.8457L195.83 28.5965L196.997 28.5965L196.997 22.1769L195.246 22.1769L195.246 21.0097L194.079 21.0097L194.079 19.2589L192.328 19.2589L192.328 17.5081Z" fill="#E62C20"/>
<rect x="188.826" y="15.1734" width="1.7508" height="1.7508" transform="rotate(-90 188.826 15.1734)" fill="#F69722"/>
</svg>
