<svg width="596" height="84" viewBox="0 0 596 84" fill="none" xmlns="http://www.w3.org/2000/svg">
<path d="M0 57.8749L0 62.9814H18.7239V57.8749H22.1283V52.7684H27.2348V47.6619H32.3414V44.2575H13.6174L13.6174 49.364H10.2131V52.7684H5.10653L5.10653 57.8749H0Z" fill="#4A8068"/>
<path d="M0 25.5328L0 20.4263H18.7239V25.5328H22.1283V30.6393H27.2348V35.7459H32.3414V39.1502H13.6174L13.6174 34.0437H10.2131V30.6393H5.10653L5.10653 25.5328H0Z" fill="#4A8068"/>
<path d="M34.0439 32.3418L39.1504 32.3418L39.1504 13.6179L34.0439 13.6179L34.0439 10.2135L28.9373 10.2135L28.9373 5.10697L23.8308 5.10697L23.8308 0.000442688L20.4264 0.000442728L20.4264 18.7244L25.533 18.7244L25.533 22.1287L28.9373 22.1287L28.9373 27.2353L34.0439 27.2353L34.0439 32.3418Z" fill="#4A8068"/>
<path d="M57.8739 -6.08948e-08L62.9805 0L62.9805 18.7239L57.8739 18.7239L57.8739 22.1283L52.7674 22.1283L52.7674 27.2348L47.6609 27.2348L47.6609 32.3414L44.2565 32.3414L44.2565 13.6174L49.3631 13.6174L49.3631 10.2131L52.7674 10.2131L52.7674 5.10653L57.8739 5.10653L57.8739 -6.08948e-08Z" fill="#4A8068"/>
<path d="M83.4062 25.5328V20.4263L64.6823 20.4263V25.5328H61.278V30.6393H56.1714V35.7459H51.0649V39.1502H69.7888V34.0437H73.1932V30.6393H78.2997V25.5328H83.4062Z" fill="#4A8068"/>
<path d="M83.4062 57.8749V62.9814H64.6823V57.8749H61.278V52.7684H56.1714V47.6619H51.0649V44.2575H69.7888V49.364H73.1932V52.7684H78.2997V57.8749H83.4062Z" fill="#4A8068"/>
<path d="M25.5323 83.4067L20.4258 83.4067L20.4258 64.6828L25.5323 64.6828L25.5323 61.2784L30.6388 61.2784L30.6388 56.1719L35.7454 56.1719L35.7454 51.0654L39.1497 51.0654L39.1497 69.7893L34.0432 69.7893L34.0432 73.1937L30.6388 73.1937L30.6388 78.3002L25.5323 78.3002L25.5323 83.4067Z" fill="#4A8068"/>
<path d="M49.3624 51.0654L44.2559 51.0654L44.2559 69.7894L49.3624 69.7894L49.3624 73.1937L54.4689 73.1937L54.4689 78.3003L59.5755 78.3003L59.5755 83.4068L62.9798 83.4068L62.9798 64.6828L57.8733 64.6828L57.8733 61.2785L54.4689 61.2785L54.4689 56.172L49.3624 56.172L49.3624 51.0654Z" fill="#4A8068"/>
<rect x="39.1504" y="44.2559" width="5.10653" height="5.10653" transform="rotate(-90 39.1504 44.2559)" fill="#DF3727"/>
<path d="M102.32 57.8749V62.9814H121.044V57.8749H124.449V52.7684H129.555V47.6619H134.662V44.2575H115.938V49.364H112.533V52.7684H107.427V57.8749H102.32Z" fill="#F69722"/>
<path d="M102.32 25.5333V20.4268H121.044V25.5333H124.449V30.6398H129.555V35.7463H134.662V39.1507H115.938V34.0442H112.533V30.6398H107.427V25.5333H102.32Z" fill="#F69722"/>
<path d="M136.364 32.3418L141.471 32.3418L141.471 13.6179L136.364 13.6179L136.364 10.2135L131.258 10.2135L131.258 5.10697L126.151 5.10697L126.151 0.000442688L122.747 0.000442728L122.747 18.7244L127.853 18.7244L127.853 22.1287L131.258 22.1287L131.258 27.2353L136.364 27.2353L136.364 32.3418Z" fill="#F69722"/>
<path d="M160.194 0.00048822L165.301 0.000488281L165.301 18.7244L160.194 18.7244L160.194 22.1288L155.088 22.1288L155.088 27.2353L149.981 27.2353L149.981 32.3418L146.577 32.3418L146.577 13.6179L151.683 13.6179L151.683 10.2135L155.088 10.2135L155.088 5.10702L160.194 5.10702L160.194 0.00048822Z" fill="#F69722"/>
<path d="M185.727 25.5333V20.4268L167.003 20.4268V25.5333H163.598V30.6398H158.492V35.7463H153.385V39.1507H172.109V34.0442H175.514V30.6398H180.62V25.5333H185.727Z" fill="#F69722"/>
<path d="M185.727 57.8749V62.9814H167.003V57.8749H163.598V52.7684H158.492V47.6619H153.385V44.2575H172.109V49.364H175.514V52.7684H180.62V57.8749H185.727Z" fill="#F69722"/>
<path d="M127.853 83.4072L122.746 83.4072L122.746 64.6833L127.853 64.6833L127.853 61.2789L132.959 61.2789L132.959 56.1724L138.066 56.1724L138.066 51.0659L141.47 51.0659L141.47 69.7898L136.364 69.7898L136.364 73.1942L132.959 73.1942L132.959 78.3007L127.853 78.3007L127.853 83.4072Z" fill="#F69722"/>
<path d="M151.683 51.0654L146.576 51.0654L146.576 69.7894L151.683 69.7894L151.683 73.1937L156.789 73.1937L156.789 78.3003L161.896 78.3003L161.896 83.4068L165.3 83.4068L165.3 64.6828L160.194 64.6828L160.194 61.2785L156.789 61.2785L156.789 56.172L151.683 56.172L151.683 51.0654Z" fill="#F69722"/>
<rect x="141.471" y="44.2563" width="5.10653" height="5.10653" transform="rotate(-90 141.471 44.2563)" fill="#4A8068"/>
<path d="M204.639 57.8749V62.9814H223.363V57.8749H226.767V52.7684H231.873V47.6619H236.98V44.2575H218.256V49.364H214.852V52.7684H209.745V57.8749H204.639Z" fill="#E62C20"/>
<path d="M204.639 25.5333V20.4268H223.363V25.5333H226.767V30.6398H231.873V35.7463H236.98V39.1507H218.256V34.0442H214.852V30.6398H209.745V25.5333H204.639Z" fill="#E62C20"/>
<path d="M238.683 32.3418L243.789 32.3418L243.789 13.6179L238.683 13.6179L238.683 10.2135L233.576 10.2135L233.576 5.10697L228.469 5.10697L228.469 0.000442688L225.065 0.000442728L225.065 18.7244L230.172 18.7244L230.172 22.1287L233.576 22.1287L233.576 27.2353L238.683 27.2353L238.683 32.3418Z" fill="#E62C20"/>
<path d="M262.513 0.00048822L267.619 0.000488281L267.619 18.7244L262.513 18.7244L262.513 22.1288L257.406 22.1288L257.406 27.2353L252.3 27.2353L252.3 32.3418L248.895 32.3418L248.895 13.6179L254.002 13.6179L254.002 10.2135L257.406 10.2135L257.406 5.10702L262.513 5.10702L262.513 0.00048822Z" fill="#E62C20"/>
<path d="M288.045 25.5333V20.4268L269.321 20.4268V25.5333H265.917V30.6398H260.81V35.7463H255.704V39.1507H274.428V34.0442H277.832V30.6398H282.938V25.5333H288.045Z" fill="#E62C20"/>
<path d="M288.045 57.8749V62.9814H269.321V57.8749H265.917V52.7684H260.81V47.6619H255.704V44.2575H274.428V49.364H277.832V52.7684H282.938V57.8749H288.045Z" fill="#E62C20"/>
<path d="M230.171 83.4072L225.064 83.4072L225.064 64.6833L230.171 64.6833L230.171 61.2789L235.278 61.2789L235.278 56.1724L240.384 56.1724L240.384 51.0659L243.788 51.0659L243.788 69.7898L238.682 69.7898L238.682 73.1942L235.278 73.1942L235.278 78.3007L230.171 78.3007L230.171 83.4072Z" fill="#E62C20"/>
<path d="M254.001 51.0654L248.895 51.0654L248.895 69.7894L254.001 69.7894L254.001 73.1937L259.108 73.1937L259.108 78.3003L264.214 78.3003L264.214 83.4068L267.618 83.4068L267.618 64.6828L262.512 64.6828L262.512 61.2785L259.108 61.2785L259.108 56.172L254.001 56.172L254.001 51.0654Z" fill="#E62C20"/>
<rect x="243.787" y="44.2563" width="5.10653" height="5.10653" transform="rotate(-90 243.787 44.2563)" fill="#F69722"/>
<path d="M306.955 57.8749V62.9814H325.679V57.8749H329.083V52.7684H334.19V47.6619H339.296V44.2575H320.572V49.364H317.168V52.7684H312.062V57.8749H306.955Z" fill="#9C4A9A"/>
<path d="M306.955 25.5333V20.4268H325.679V25.5333H329.083V30.6398H334.19V35.7463H339.296V39.1507H320.572V34.0442H317.168V30.6398H312.062V25.5333H306.955Z" fill="#9C4A9A"/>
<path d="M340.999 32.3418L346.105 32.3418L346.105 13.6179L340.999 13.6179L340.999 10.2135L335.892 10.2135L335.892 5.10697L330.786 5.10697L330.786 0.000442688L327.382 0.000442728L327.382 18.7244L332.488 18.7244L332.488 22.1287L335.892 22.1287L335.892 27.2353L340.999 27.2353L340.999 32.3418Z" fill="#9C4A9A"/>
<path d="M364.829 0.00048822L369.936 0.000488281L369.936 18.7244L364.829 18.7244L364.829 22.1288L359.722 22.1288L359.722 27.2353L354.616 27.2353L354.616 32.3418L351.212 32.3418L351.212 13.6179L356.318 13.6179L356.318 10.2135L359.722 10.2135L359.722 5.10702L364.829 5.10702L364.829 0.00048822Z" fill="#9C4A9A"/>
<path d="M390.361 25.5333V20.4268L371.637 20.4268V25.5333H368.233V30.6398H363.127V35.7463H358.02V39.1507H376.744V34.0442H380.148V30.6398H385.255V25.5333H390.361Z" fill="#9C4A9A"/>
<path d="M390.361 57.8749V62.9814H371.637V57.8749H368.233V52.7684H363.127V47.6619H358.02V44.2575H376.744V49.364H380.148V52.7684H385.255V57.8749H390.361Z" fill="#9C4A9A"/>
<path d="M332.487 83.4072L327.381 83.4072L327.381 64.6833L332.487 64.6833L332.487 61.2789L337.594 61.2789L337.594 56.1724L342.7 56.1724L342.7 51.0659L346.105 51.0659L346.105 69.7898L340.998 69.7898L340.998 73.1942L337.594 73.1942L337.594 78.3007L332.487 78.3007L332.487 83.4072Z" fill="#9C4A9A"/>
<path d="M356.317 51.0654L351.211 51.0654L351.211 69.7894L356.317 69.7894L356.317 73.1937L361.424 73.1937L361.424 78.3003L366.531 78.3003L366.531 83.4068L369.935 83.4068L369.935 64.6828L364.828 64.6828L364.828 61.2785L361.424 61.2785L361.424 56.172L356.317 56.172L356.317 51.0654Z" fill="#9C4A9A"/>
<rect x="346.105" y="44.2563" width="5.10653" height="5.10653" transform="rotate(-90 346.105 44.2563)" fill="#DF3727"/>
<path d="M409.275 57.8749V62.9814H427.999V57.8749H431.404V52.7684H436.51V47.6619H441.617V44.2575H422.893V49.364H419.488V52.7684H414.382V57.8749H409.275Z" fill="#F69722"/>
<path d="M409.275 25.5328V20.4263H427.999V25.5328H431.404V30.6393H436.51V35.7459H441.617V39.1502H422.893V34.0437H419.488V30.6393H414.382V25.5328H409.275Z" fill="#F69722"/>
<path d="M443.319 32.3418L448.426 32.3418L448.426 13.6179L443.319 13.6179L443.319 10.2135L438.213 10.2135L438.213 5.10697L433.106 5.10697L433.106 0.000442688L429.702 0.000442728L429.702 18.7244L434.808 18.7244L434.808 22.1287L438.213 22.1287L438.213 27.2353L443.319 27.2353L443.319 32.3418Z" fill="#F69722"/>
<path d="M467.149 -6.08948e-08L472.256 0L472.256 18.7239L467.149 18.7239L467.149 22.1283L462.043 22.1283L462.043 27.2348L456.936 27.2348L456.936 32.3414L453.532 32.3414L453.532 13.6174L458.638 13.6174L458.638 10.2131L462.043 10.2131L462.043 5.10653L467.149 5.10653L467.149 -6.08948e-08Z" fill="#F69722"/>
<path d="M492.682 25.5328V20.4263L473.958 20.4263V25.5328H470.553V30.6393H465.447V35.7459H460.34V39.1502H479.064V34.0437H482.469V30.6393H487.575V25.5328H492.682Z" fill="#F69722"/>
<path d="M492.682 57.8749V62.9814H473.958V57.8749H470.553V52.7684H465.447V47.6619H460.34V44.2575H479.064V49.364H482.469V52.7684H487.575V57.8749H492.682Z" fill="#F69722"/>
<path d="M434.808 83.4067L429.701 83.4067L429.701 64.6828L434.808 64.6828L434.808 61.2784L439.914 61.2784L439.914 56.1719L445.021 56.1719L445.021 51.0654L448.425 51.0654L448.425 69.7893L443.319 69.7893L443.319 73.1937L439.914 73.1937L439.914 78.3002L434.808 78.3002L434.808 83.4067Z" fill="#F69722"/>
<path d="M458.638 51.0654L453.531 51.0654L453.531 69.7894L458.638 69.7894L458.638 73.1937L463.744 73.1937L463.744 78.3003L468.851 78.3003L468.851 83.4068L472.255 83.4068L472.255 64.6828L467.149 64.6828L467.149 61.2785L463.744 61.2785L463.744 56.172L458.638 56.172L458.638 51.0654Z" fill="#F69722"/>
<rect x="448.426" y="44.2559" width="5.10653" height="5.10653" transform="rotate(-90 448.426 44.2559)" fill="#4A8068"/>
<path d="M511.596 57.8749V62.9814H530.32V57.8749H533.724V52.7684H538.831V47.6619H543.937V44.2575H525.213V49.364H521.809V52.7684H516.702V57.8749H511.596Z" fill="#E62C20"/>
<path d="M511.596 25.5333V20.4268H530.32V25.5333H533.724V30.6398H538.831V35.7463H543.937V39.1507H525.213V34.0442H521.809V30.6398H516.702V25.5333H511.596Z" fill="#E62C20"/>
<path d="M545.64 32.3418L550.746 32.3418L550.746 13.6179L545.64 13.6179L545.64 10.2135L540.533 10.2135L540.533 5.10697L535.427 5.10697L535.427 0.000442688L532.022 0.000442728L532.022 18.7244L537.129 18.7244L537.129 22.1287L540.533 22.1287L540.533 27.2353L545.64 27.2353L545.64 32.3418Z" fill="#E62C20"/>
<path d="M569.47 0.00048822L574.576 0.000488281L574.576 18.7244L569.47 18.7244L569.47 22.1288L564.363 22.1288L564.363 27.2353L559.257 27.2353L559.257 32.3418L555.852 32.3418L555.852 13.6179L560.959 13.6179L560.959 10.2135L564.363 10.2135L564.363 5.10702L569.47 5.10702L569.47 0.00048822Z" fill="#E62C20"/>
<path d="M595.002 25.5333V20.4268L576.278 20.4268V25.5333H572.874V30.6398H567.767V35.7463H562.661V39.1507H581.385V34.0442H584.789V30.6398H589.895V25.5333H595.002Z" fill="#E62C20"/>
<path d="M595.002 57.8749V62.9814H576.278V57.8749H572.874V52.7684H567.767V47.6619H562.661V44.2575H581.385V49.364H584.789V52.7684H589.895V57.8749H595.002Z" fill="#E62C20"/>
<path d="M537.128 83.4072L532.021 83.4072L532.021 64.6833L537.128 64.6833L537.128 61.2789L542.235 61.2789L542.235 56.1724L547.341 56.1724L547.341 51.0659L550.745 51.0659L550.745 69.7898L545.639 69.7898L545.639 73.1942L542.235 73.1942L542.235 78.3007L537.128 78.3007L537.128 83.4072Z" fill="#E62C20"/>
<path d="M560.958 51.0654L555.852 51.0654L555.852 69.7894L560.958 69.7894L560.958 73.1937L566.065 73.1937L566.065 78.3003L571.171 78.3003L571.171 83.4068L574.576 83.4068L574.576 64.6828L569.469 64.6828L569.469 61.2785L566.065 61.2785L566.065 56.172L560.958 56.172L560.958 51.0654Z" fill="#E62C20"/>
<rect x="550.746" y="44.2563" width="5.10653" height="5.10653" transform="rotate(-90 550.746 44.2563)" fill="#F69722"/>
</svg>
