<svg width="242" height="957" viewBox="0 0 242 957" fill="none" xmlns="http://www.w3.org/2000/svg">
<path d="M127.411 246.338H241.199V0H127.411V246.338Z" fill="#4A8068"/>
<path d="M0.80127 246.179H115.114V82.998H0.80127V246.179Z" fill="#F69722"/>
<path d="M115.391 0H-0.000106812V73.0382H115.391V0Z" fill="#9C4A9A"/>
<path d="M0 330H242V256.298H0V330Z" fill="#E62C20"/>
<rect y="15" width="242" height="294" fill="#171717"/>
<path d="M120.458 161.024C117.386 161.024 114.271 160.683 111.114 160C107.956 159.317 105.183 158.315 102.794 156.992L107.914 145.856C109.834 146.965 111.839 147.797 113.93 148.352C116.02 148.864 118.004 149.12 119.882 149.12C121.588 149.12 122.996 148.821 124.106 148.224C125.215 147.627 125.77 146.752 125.77 145.6C125.77 144.96 125.578 144.405 125.194 143.936C124.81 143.424 124.127 143.04 123.146 142.784C122.207 142.528 120.82 142.4 118.986 142.4H105.994L108.234 115.2H137.994V126.592H113.546L121.162 120.128L119.818 137.472L112.202 131.008H122.634C127.071 131.008 130.612 131.648 133.258 132.928C135.946 134.208 137.887 135.936 139.082 138.112C140.319 140.245 140.938 142.635 140.938 145.28C140.938 147.925 140.212 150.464 138.762 152.896C137.354 155.285 135.135 157.248 132.106 158.784C129.119 160.277 125.236 161.024 120.458 161.024Z" fill="#EEEEEE"/>
<path d="M55.3103 209.157L54.9583 202.053L64.5903 191.717H71.5663L61.9663 202.117L58.4463 205.797L55.3103 209.157ZM49.6463 214.117V191.717H55.9183V214.117H49.6463ZM64.6863 214.117L57.3903 204.869L61.5183 200.453L72.0463 214.117H64.6863ZM83.669 214.117V210.885L83.253 210.085V204.133C83.253 203.173 82.9543 202.437 82.357 201.925C81.781 201.391 80.853 201.125 79.573 201.125C78.741 201.125 77.8983 201.263 77.045 201.541C76.1917 201.797 75.4663 202.159 74.869 202.629L72.821 198.501C73.8023 197.861 74.9757 197.37 76.341 197.029C77.7277 196.666 79.1037 196.485 80.469 196.485C83.285 196.485 85.461 197.135 86.997 198.437C88.5543 199.717 89.333 201.733 89.333 204.485V214.117H83.669ZM78.549 214.405C77.1623 214.405 75.989 214.17 75.029 213.701C74.069 213.231 73.333 212.591 72.821 211.781C72.3303 210.97 72.085 210.063 72.085 209.061C72.085 207.994 72.3517 207.077 72.885 206.309C73.4397 205.519 74.2823 204.922 75.413 204.517C76.5437 204.09 78.005 203.877 79.797 203.877H83.893V207.045H80.629C79.6477 207.045 78.9543 207.205 78.549 207.525C78.165 207.845 77.973 208.271 77.973 208.805C77.973 209.338 78.1757 209.765 78.581 210.085C78.9863 210.405 79.541 210.565 80.245 210.565C80.9063 210.565 81.5037 210.405 82.037 210.085C82.5917 209.743 82.997 209.231 83.253 208.549L84.085 210.789C83.765 211.983 83.1357 212.89 82.197 213.509C81.2797 214.106 80.0637 214.405 78.549 214.405ZM100.915 214.405C98.6961 214.405 96.9681 213.861 95.7308 212.773C94.4934 211.663 93.8748 209.999 93.8748 207.781V192.901H99.9548V207.717C99.9548 208.335 100.125 208.826 100.467 209.189C100.808 209.53 101.245 209.701 101.779 209.701C102.504 209.701 103.123 209.519 103.635 209.157L105.139 213.413C104.627 213.754 103.997 213.999 103.251 214.149C102.504 214.319 101.725 214.405 100.915 214.405ZM91.3468 201.957V197.413H103.923V201.957H91.3468ZM116.071 214.405C114.023 214.405 112.231 214.021 110.695 213.253C109.181 212.463 107.997 211.397 107.143 210.053C106.311 208.687 105.895 207.141 105.895 205.413C105.895 203.685 106.301 202.149 107.111 200.805C107.943 199.439 109.085 198.383 110.535 197.637C111.986 196.869 113.618 196.485 115.431 196.485C117.138 196.485 118.695 196.837 120.103 197.541C121.511 198.223 122.631 199.237 123.463 200.581C124.295 201.925 124.711 203.557 124.711 205.477C124.711 205.69 124.701 205.935 124.679 206.213C124.658 206.49 124.637 206.746 124.615 206.981H110.887V203.781H121.383L119.079 204.677C119.101 203.887 118.951 203.205 118.631 202.629C118.333 202.053 117.906 201.605 117.351 201.285C116.818 200.965 116.189 200.805 115.463 200.805C114.738 200.805 114.098 200.965 113.543 201.285C113.01 201.605 112.594 202.063 112.295 202.661C111.997 203.237 111.847 203.919 111.847 204.709V205.637C111.847 206.49 112.018 207.226 112.359 207.845C112.722 208.463 113.234 208.943 113.895 209.285C114.557 209.605 115.346 209.765 116.263 209.765C117.117 209.765 117.842 209.647 118.439 209.413C119.058 209.157 119.666 208.773 120.263 208.261L123.463 211.589C122.631 212.506 121.607 213.21 120.391 213.701C119.175 214.17 117.735 214.405 116.071 214.405ZM135.995 220.613C134.331 220.613 132.741 220.421 131.227 220.037C129.733 219.653 128.453 219.087 127.387 218.341L129.595 214.085C130.32 214.661 131.216 215.109 132.283 215.429C133.371 215.77 134.427 215.941 135.451 215.941C137.093 215.941 138.277 215.578 139.003 214.853C139.728 214.149 140.091 213.114 140.091 211.749V209.701L140.411 204.837L140.379 199.941V196.773H146.171V210.949C146.171 214.234 145.285 216.666 143.515 218.245C141.744 219.823 139.237 220.613 135.995 220.613ZM134.939 213.221C133.403 213.221 131.984 212.879 130.683 212.197C129.403 211.493 128.368 210.522 127.579 209.285C126.811 208.026 126.427 206.543 126.427 204.837C126.427 203.13 126.811 201.658 127.579 200.421C128.368 199.162 129.403 198.191 130.683 197.509C131.984 196.826 133.403 196.485 134.939 196.485C136.411 196.485 137.669 196.783 138.715 197.381C139.76 197.957 140.549 198.863 141.083 200.101C141.637 201.338 141.915 202.917 141.915 204.837C141.915 206.757 141.637 208.335 141.083 209.573C140.549 210.81 139.76 211.727 138.715 212.325C137.669 212.922 136.411 213.221 134.939 213.221ZM136.379 208.389C137.104 208.389 137.744 208.239 138.299 207.941C138.875 207.642 139.323 207.226 139.643 206.693C139.984 206.159 140.155 205.541 140.155 204.837C140.155 204.133 139.984 203.514 139.643 202.981C139.323 202.447 138.875 202.042 138.299 201.765C137.744 201.466 137.104 201.317 136.379 201.317C135.653 201.317 135.003 201.466 134.427 201.765C133.851 202.042 133.392 202.447 133.051 202.981C132.731 203.514 132.571 204.133 132.571 204.837C132.571 205.541 132.731 206.159 133.051 206.693C133.392 207.226 133.851 207.642 134.427 207.941C135.003 208.239 135.653 208.389 136.379 208.389ZM158.781 214.405C156.882 214.405 155.197 214.021 153.725 213.253C152.253 212.485 151.09 211.429 150.237 210.085C149.405 208.719 148.989 207.162 148.989 205.413C148.989 203.663 149.405 202.117 150.237 200.773C151.09 199.429 152.253 198.383 153.725 197.637C155.197 196.869 156.882 196.485 158.781 196.485C160.68 196.485 162.365 196.869 163.837 197.637C165.33 198.383 166.493 199.429 167.325 200.773C168.157 202.117 168.573 203.663 168.573 205.413C168.573 207.162 168.157 208.719 167.325 210.085C166.493 211.429 165.33 212.485 163.837 213.253C162.365 214.021 160.68 214.405 158.781 214.405ZM158.781 209.573C159.485 209.573 160.104 209.413 160.637 209.093C161.192 208.773 161.629 208.303 161.949 207.685C162.269 207.045 162.429 206.287 162.429 205.413C162.429 204.538 162.269 203.802 161.949 203.205C161.629 202.586 161.192 202.117 160.637 201.797C160.104 201.477 159.485 201.317 158.781 201.317C158.098 201.317 157.48 201.477 156.925 201.797C156.392 202.117 155.954 202.586 155.613 203.205C155.293 203.802 155.133 204.538 155.133 205.413C155.133 206.287 155.293 207.045 155.613 207.685C155.954 208.303 156.392 208.773 156.925 209.093C157.48 209.413 158.098 209.573 158.781 209.573ZM171.39 214.117V196.773H177.182V201.829L176.318 200.389C176.83 199.087 177.662 198.117 178.814 197.477C179.966 196.815 181.363 196.485 183.006 196.485V201.957C182.728 201.914 182.483 201.893 182.27 201.893C182.078 201.871 181.864 201.861 181.63 201.861C180.392 201.861 179.39 202.202 178.622 202.885C177.854 203.546 177.47 204.634 177.47 206.149V214.117H171.39ZM185.515 214.117V196.773H191.595V214.117H185.515ZM188.555 194.853C187.445 194.853 186.549 194.543 185.867 193.925C185.184 193.306 184.843 192.538 184.843 191.621C184.843 190.703 185.184 189.935 185.867 189.317C186.549 188.698 187.445 188.389 188.555 188.389C189.664 188.389 190.56 188.687 191.243 189.285C191.925 189.861 192.267 190.607 192.267 191.525C192.267 192.485 191.925 193.285 191.243 193.925C190.581 194.543 189.685 194.853 188.555 194.853Z" fill="#EEEEEE"/>
<rect y="330" width="242" height="294" fill="#171717"/>
<path d="M76.3048 475.693V436.141L82.7688 442.285H68.6248V430.893H91.4088V475.693H76.3048ZM96.8468 475.693V466.413L113.039 451.437C114.063 450.456 114.809 449.603 115.279 448.877C115.791 448.152 116.132 447.512 116.303 446.957C116.473 446.36 116.559 445.805 116.559 445.293C116.559 444.184 116.196 443.331 115.471 442.733C114.745 442.093 113.657 441.773 112.207 441.773C110.884 441.773 109.625 442.136 108.431 442.861C107.236 443.544 106.297 444.568 105.615 445.933L94.2228 440.237C95.8441 437.165 98.2761 434.669 101.519 432.749C104.761 430.829 108.793 429.869 113.615 429.869C117.156 429.869 120.292 430.445 123.023 431.597C125.753 432.749 127.887 434.371 129.423 436.461C130.959 438.552 131.727 441.027 131.727 443.885C131.727 445.336 131.535 446.787 131.151 448.237C130.809 449.688 130.084 451.224 128.975 452.845C127.865 454.424 126.223 456.195 124.047 458.157L111.887 469.229L109.519 463.981H132.751V475.693H96.8468ZM156.136 476.717C152.168 476.717 148.648 475.8 145.576 473.965C142.547 472.131 140.158 469.464 138.408 465.965C136.702 462.467 135.848 458.243 135.848 453.293C135.848 448.344 136.702 444.12 138.408 440.621C140.158 437.123 142.547 434.456 145.576 432.621C148.648 430.787 152.168 429.869 156.136 429.869C160.104 429.869 163.603 430.787 166.632 432.621C169.704 434.456 172.094 437.123 173.8 440.621C175.55 444.12 176.424 448.344 176.424 453.293C176.424 458.243 175.55 462.467 173.8 465.965C172.094 469.464 169.704 472.131 166.632 473.965C163.603 475.8 160.104 476.717 156.136 476.717ZM156.136 464.621C157.118 464.621 157.992 464.28 158.76 463.597C159.528 462.915 160.126 461.741 160.552 460.077C161.022 458.413 161.256 456.152 161.256 453.293C161.256 450.392 161.022 448.131 160.552 446.509C160.126 444.845 159.528 443.672 158.76 442.989C157.992 442.307 157.118 441.965 156.136 441.965C155.155 441.965 154.28 442.307 153.512 442.989C152.744 443.672 152.126 444.845 151.656 446.509C151.23 448.131 151.016 450.392 151.016 453.293C151.016 456.152 151.23 458.413 151.656 460.077C152.126 461.741 152.744 462.915 153.512 463.597C154.28 464.28 155.155 464.621 156.136 464.621Z" fill="#EEEEEE"/>
<path d="M60.2273 528.387V511.011H53.3473V505.987H73.4113V511.011H66.5633V528.387H60.2273ZM82.8218 528.675C80.7738 528.675 78.9818 528.291 77.4458 527.523C75.9312 526.734 74.7472 525.667 73.8938 524.323C73.0618 522.958 72.6458 521.411 72.6458 519.683C72.6458 517.955 73.0512 516.419 73.8618 515.075C74.6938 513.71 75.8352 512.654 77.2858 511.907C78.7365 511.139 80.3685 510.755 82.1818 510.755C83.8885 510.755 85.4458 511.107 86.8538 511.811C88.2618 512.494 89.3818 513.507 90.2138 514.851C91.0458 516.195 91.4618 517.827 91.4618 519.747C91.4618 519.96 91.4512 520.206 91.4298 520.483C91.4085 520.76 91.3872 521.016 91.3658 521.251H77.6378V518.051H88.1338L85.8298 518.947C85.8512 518.158 85.7018 517.475 85.3818 516.899C85.0832 516.323 84.6565 515.875 84.1018 515.555C83.5685 515.235 82.9392 515.075 82.2138 515.075C81.4885 515.075 80.8485 515.235 80.2938 515.555C79.7605 515.875 79.3445 516.334 79.0458 516.931C78.7472 517.507 78.5978 518.19 78.5978 518.979V519.907C78.5978 520.76 78.7685 521.496 79.1098 522.115C79.4725 522.734 79.9845 523.214 80.6458 523.555C81.3072 523.875 82.0965 524.035 83.0138 524.035C83.8672 524.035 84.5925 523.918 85.1898 523.683C85.8085 523.427 86.4165 523.043 87.0138 522.531L90.2138 525.859C89.3818 526.776 88.3578 527.48 87.1418 527.971C85.9258 528.44 84.4858 528.675 82.8218 528.675ZM105.561 510.755C106.905 510.755 108.121 511.032 109.209 511.587C110.297 512.12 111.15 512.952 111.769 514.083C112.409 515.214 112.729 516.675 112.729 518.467V528.387H106.649V519.459C106.649 518.222 106.393 517.326 105.881 516.771C105.39 516.195 104.697 515.907 103.801 515.907C103.161 515.907 102.574 516.056 102.041 516.355C101.508 516.632 101.092 517.07 100.793 517.667C100.494 518.264 100.345 519.043 100.345 520.003V528.387H94.2651V511.043H100.057V515.971L98.9371 514.531C99.5984 513.272 100.505 512.334 101.657 511.715C102.809 511.075 104.11 510.755 105.561 510.755ZM127.138 528.387V525.155L126.722 524.355V518.403C126.722 517.443 126.424 516.707 125.826 516.195C125.25 515.662 124.322 515.395 123.042 515.395C122.21 515.395 121.368 515.534 120.514 515.811C119.661 516.067 118.936 516.43 118.338 516.899L116.29 512.771C117.272 512.131 118.445 511.64 119.81 511.299C121.197 510.936 122.573 510.755 123.938 510.755C126.754 510.755 128.93 511.406 130.466 512.707C132.024 513.987 132.802 516.003 132.802 518.755V528.387H127.138ZM122.018 528.675C120.632 528.675 119.458 528.44 118.498 527.971C117.538 527.502 116.802 526.862 116.29 526.051C115.8 525.24 115.554 524.334 115.554 523.331C115.554 522.264 115.821 521.347 116.354 520.579C116.909 519.79 117.752 519.192 118.882 518.787C120.013 518.36 121.474 518.147 123.266 518.147H127.362V521.315H124.098C123.117 521.315 122.424 521.475 122.018 521.795C121.634 522.115 121.442 522.542 121.442 523.075C121.442 523.608 121.645 524.035 122.05 524.355C122.456 524.675 123.01 524.835 123.714 524.835C124.376 524.835 124.973 524.675 125.506 524.355C126.061 524.014 126.466 523.502 126.722 522.819L127.554 525.059C127.234 526.254 126.605 527.16 125.666 527.779C124.749 528.376 123.533 528.675 122.018 528.675ZM147.936 510.755C149.28 510.755 150.496 511.032 151.584 511.587C152.672 512.12 153.525 512.952 154.144 514.083C154.784 515.214 155.104 516.675 155.104 518.467V528.387H149.024V519.459C149.024 518.222 148.768 517.326 148.256 516.771C147.765 516.195 147.072 515.907 146.176 515.907C145.536 515.907 144.949 516.056 144.416 516.355C143.883 516.632 143.467 517.07 143.168 517.667C142.869 518.264 142.72 519.043 142.72 520.003V528.387H136.64V511.043H142.432V515.971L141.312 514.531C141.973 513.272 142.88 512.334 144.032 511.715C145.184 511.075 146.485 510.755 147.936 510.755ZM166.665 528.675C164.447 528.675 162.719 528.131 161.481 527.043C160.244 525.934 159.625 524.27 159.625 522.051V507.171H165.705V521.987C165.705 522.606 165.876 523.096 166.217 523.459C166.559 523.8 166.996 523.971 167.529 523.971C168.255 523.971 168.873 523.79 169.385 523.427L170.889 527.683C170.377 528.024 169.748 528.27 169.001 528.419C168.255 528.59 167.476 528.675 166.665 528.675ZM157.097 516.227V511.683H169.673V516.227H157.097ZM179.538 528.675C178.066 528.675 176.626 528.504 175.218 528.163C173.831 527.822 172.711 527.395 171.858 526.883L173.682 522.723C174.492 523.214 175.442 523.608 176.53 523.907C177.618 524.184 178.684 524.323 179.73 524.323C180.754 524.323 181.458 524.216 181.842 524.003C182.247 523.79 182.45 523.502 182.45 523.139C182.45 522.798 182.258 522.552 181.874 522.403C181.511 522.232 181.02 522.104 180.402 522.019C179.804 521.934 179.143 521.838 178.418 521.731C177.692 521.624 176.956 521.486 176.21 521.315C175.484 521.123 174.812 520.846 174.194 520.483C173.596 520.099 173.116 519.587 172.754 518.947C172.391 518.307 172.21 517.496 172.21 516.515C172.21 515.406 172.53 514.424 173.17 513.571C173.831 512.696 174.791 512.014 176.05 511.523C177.308 511.011 178.844 510.755 180.658 510.755C181.874 510.755 183.1 510.883 184.338 511.139C185.596 511.374 186.652 511.736 187.506 512.227L185.682 516.355C184.828 515.864 183.975 515.534 183.122 515.363C182.268 515.171 181.458 515.075 180.69 515.075C179.666 515.075 178.94 515.192 178.514 515.427C178.108 515.662 177.906 515.95 177.906 516.291C177.906 516.632 178.087 516.899 178.45 517.091C178.812 517.262 179.292 517.4 179.89 517.507C180.508 517.592 181.18 517.688 181.906 517.795C182.631 517.88 183.356 518.019 184.082 518.211C184.828 518.403 185.5 518.691 186.098 519.075C186.716 519.438 187.207 519.939 187.57 520.579C187.932 521.198 188.114 521.998 188.114 522.979C188.114 524.046 187.783 525.006 187.122 525.859C186.482 526.712 185.522 527.395 184.242 527.907C182.983 528.419 181.415 528.675 179.538 528.675Z" fill="#EEEEEE"/>
<path d="M113.788 710H7.62939e-06L7.62939e-06 956.338H113.788L113.788 710Z" fill="#F69722"/>
<path d="M241.199 728.82H126.886L126.886 892.001H241.199L241.199 728.82Z" fill="#F69722"/>
<path d="M125.808 956.338H241.198V883.3H125.808L125.808 956.338Z" fill="#9C4A9A"/>
<path d="M242 644.999H0V718.701H242V644.999Z" fill="#E62C20"/>
<rect y="644.999" width="242" height="294" fill="#171717"/>
<path d="M64.6593 790.693V781.413L80.8513 766.437C81.8753 765.455 82.622 764.602 83.0913 763.877C83.6033 763.151 83.9446 762.511 84.1153 761.957C84.286 761.359 84.3713 760.805 84.3713 760.293C84.3713 759.183 84.0086 758.33 83.2833 757.733C82.558 757.093 81.47 756.773 80.0193 756.773C78.6966 756.773 77.438 757.135 76.2433 757.861C75.0486 758.543 74.11 759.567 73.4273 760.933L62.0353 755.237C63.6566 752.165 66.0886 749.669 69.3313 747.749C72.5739 745.829 76.606 744.869 81.4273 744.869C84.9686 744.869 88.1046 745.445 90.8353 746.597C93.566 747.749 95.6993 749.37 97.2353 751.461C98.7713 753.551 99.5393 756.026 99.5393 758.885C99.5393 760.335 99.3473 761.786 98.9633 763.237C98.622 764.687 97.8966 766.223 96.7873 767.845C95.678 769.423 94.0353 771.194 91.8593 773.157L79.6993 784.229L77.3313 778.981H100.563V790.693H64.6593ZM119.789 791.717C116.717 791.717 113.602 791.375 110.445 790.693C107.287 790.01 104.514 789.007 102.125 787.685L107.245 776.549C109.165 777.658 111.17 778.49 113.261 779.045C115.351 779.557 117.335 779.813 119.213 779.813C120.919 779.813 122.327 779.514 123.437 778.917C124.546 778.319 125.101 777.445 125.101 776.293C125.101 775.653 124.909 775.098 124.525 774.629C124.141 774.117 123.458 773.733 122.477 773.477C121.538 773.221 120.151 773.093 118.317 773.093H105.325L107.565 745.893H137.325V757.285H112.877L120.493 750.821L119.149 768.165L111.533 761.701H121.965C126.402 761.701 129.943 762.341 132.589 763.621C135.277 764.901 137.218 766.629 138.413 768.805C139.65 770.938 140.269 773.327 140.269 775.973C140.269 778.618 139.543 781.157 138.093 783.589C136.685 785.978 134.466 787.941 131.437 789.477C128.45 790.97 124.567 791.717 119.789 791.717ZM164.79 791.717C160.523 791.717 156.768 790.906 153.526 789.285C150.326 787.621 147.808 785.167 145.974 781.925C144.182 778.639 143.286 774.565 143.286 769.701C143.286 764.453 144.331 759.994 146.422 756.325C148.512 752.613 151.414 749.775 155.126 747.813C158.88 745.85 163.211 744.869 168.118 744.869C170.763 744.869 173.302 745.189 175.734 745.829C178.208 746.426 180.299 747.279 182.006 748.389L176.566 758.949C175.243 758.01 173.899 757.391 172.534 757.093C171.211 756.751 169.846 756.581 168.438 756.581C165.408 756.581 162.976 757.498 161.142 759.333C159.35 761.125 158.454 763.749 158.454 767.205C158.454 767.845 158.454 768.485 158.454 769.125C158.454 769.722 158.454 770.341 158.454 770.981L154.998 768.485C155.851 767.034 156.854 765.818 158.006 764.837C159.158 763.813 160.523 763.045 162.102 762.533C163.68 761.978 165.515 761.701 167.606 761.701C170.336 761.701 172.854 762.298 175.158 763.493C177.504 764.645 179.382 766.287 180.79 768.421C182.24 770.554 182.966 773.093 182.966 776.037C182.966 779.237 182.155 782.01 180.534 784.357C178.912 786.703 176.715 788.517 173.942 789.797C171.211 791.077 168.16 791.717 164.79 791.717ZM163.766 781.285C164.662 781.285 165.451 781.114 166.134 780.773C166.859 780.389 167.414 779.855 167.798 779.173C168.182 778.49 168.374 777.679 168.374 776.741C168.374 775.333 167.947 774.223 167.094 773.413C166.24 772.559 165.131 772.133 163.766 772.133C162.87 772.133 162.08 772.325 161.398 772.709C160.715 773.093 160.16 773.626 159.734 774.309C159.35 774.991 159.158 775.802 159.158 776.741C159.158 777.679 159.35 778.49 159.734 779.173C160.16 779.855 160.715 780.389 161.398 780.773C162.08 781.114 162.87 781.285 163.766 781.285Z" fill="#EEEEEE"/>
<path d="M60.6781 843.386V820.986H70.9181C72.9661 820.986 74.7261 821.317 76.1981 821.978C77.6914 822.64 78.8434 823.6 79.6541 824.858C80.4647 826.096 80.8701 827.568 80.8701 829.274C80.8701 830.96 80.4647 832.421 79.6541 833.658C78.8434 834.896 77.6914 835.856 76.1981 836.538C74.7261 837.2 72.9661 837.53 70.9181 837.53H64.1981L67.0141 834.778V843.386H60.6781ZM67.0141 835.45L64.1981 832.538H70.5341C71.8567 832.538 72.8381 832.25 73.4781 831.674C74.1394 831.098 74.4701 830.298 74.4701 829.274C74.4701 828.229 74.1394 827.418 73.4781 826.842C72.8381 826.266 71.8567 825.978 70.5341 825.978H64.1981L67.0141 823.066V835.45ZM83.7963 843.386V826.042H89.5883V831.098L88.7243 829.658C89.2363 828.357 90.0683 827.386 91.2203 826.746C92.3723 826.085 93.7697 825.754 95.4123 825.754V831.226C95.135 831.184 94.8897 831.162 94.6763 831.162C94.4843 831.141 94.271 831.13 94.0363 831.13C92.799 831.13 91.7963 831.472 91.0283 832.154C90.2603 832.816 89.8763 833.904 89.8763 835.418V843.386H83.7963ZM106.469 843.674C104.57 843.674 102.885 843.29 101.413 842.522C99.9411 841.754 98.7784 840.698 97.9251 839.354C97.0931 837.989 96.6771 836.432 96.6771 834.682C96.6771 832.933 97.0931 831.386 97.9251 830.042C98.7784 828.698 99.9411 827.653 101.413 826.906C102.885 826.138 104.57 825.754 106.469 825.754C108.368 825.754 110.053 826.138 111.525 826.906C113.018 827.653 114.181 828.698 115.013 830.042C115.845 831.386 116.261 832.933 116.261 834.682C116.261 836.432 115.845 837.989 115.013 839.354C114.181 840.698 113.018 841.754 111.525 842.522C110.053 843.29 108.368 843.674 106.469 843.674ZM106.469 838.842C107.173 838.842 107.792 838.682 108.325 838.362C108.88 838.042 109.317 837.573 109.637 836.954C109.957 836.314 110.117 835.557 110.117 834.682C110.117 833.808 109.957 833.072 109.637 832.474C109.317 831.856 108.88 831.386 108.325 831.066C107.792 830.746 107.173 830.586 106.469 830.586C105.786 830.586 105.168 830.746 104.613 831.066C104.08 831.386 103.642 831.856 103.301 832.474C102.981 833.072 102.821 833.808 102.821 834.682C102.821 835.557 102.981 836.314 103.301 836.954C103.642 837.573 104.08 838.042 104.613 838.362C105.168 838.682 105.786 838.842 106.469 838.842ZM126.63 843.674C125.051 843.674 123.611 843.312 122.31 842.586C121.03 841.84 120.006 840.805 119.238 839.482C118.47 838.138 118.086 836.538 118.086 834.682C118.086 832.848 118.47 831.269 119.238 829.946C120.006 828.602 121.03 827.568 122.31 826.842C123.611 826.117 125.051 825.754 126.63 825.754C128.123 825.754 129.382 826.074 130.406 826.714C131.451 827.354 132.24 828.336 132.774 829.658C133.307 830.981 133.574 832.656 133.574 834.682C133.574 836.752 133.318 838.448 132.806 839.77C132.294 841.093 131.526 842.074 130.502 842.714C129.478 843.354 128.187 843.674 126.63 843.674ZM127.91 838.842C128.592 838.842 129.2 838.682 129.734 838.362C130.288 838.042 130.726 837.573 131.046 836.954C131.366 836.314 131.526 835.557 131.526 834.682C131.526 833.808 131.366 833.072 131.046 832.474C130.726 831.856 130.288 831.386 129.734 831.066C129.2 830.746 128.592 830.586 127.91 830.586C127.206 830.586 126.576 830.746 126.022 831.066C125.488 831.386 125.062 831.856 124.742 832.474C124.422 833.072 124.262 833.808 124.262 834.682C124.262 835.557 124.422 836.314 124.742 836.954C125.062 837.573 125.488 838.042 126.022 838.362C126.576 838.682 127.206 838.842 127.91 838.842ZM131.718 843.386V840.41L131.75 834.682L131.43 828.954V819.642H137.51V843.386H131.718ZM148.717 843.674C147.309 843.674 146.04 843.397 144.909 842.842C143.8 842.288 142.925 841.424 142.285 840.25C141.667 839.056 141.357 837.552 141.357 835.738V826.042H147.437V834.746C147.437 836.09 147.683 837.05 148.173 837.626C148.685 838.202 149.4 838.49 150.317 838.49C150.915 838.49 151.459 838.352 151.949 838.074C152.44 837.797 152.835 837.36 153.133 836.762C153.432 836.144 153.581 835.354 153.581 834.394V826.042H159.661V843.386H153.869V838.49L154.989 839.866C154.392 841.146 153.528 842.106 152.397 842.746C151.267 843.365 150.04 843.674 148.717 843.674ZM168.634 840.186L168.794 832.922L175.866 826.042H183.066L175.226 834.138L172.122 836.634L168.634 840.186ZM163.578 843.386V819.642H169.658V843.386H163.578ZM176.314 843.386L171.002 836.73L174.778 832.058L183.674 843.386H176.314Z" fill="#EEEEEE"/>
</svg>
