<svg width="1108" height="333" viewBox="0 0 1108 333" fill="none" xmlns="http://www.w3.org/2000/svg">
<path d="M127.41 246.338H241.198V-0.00012207H127.41V246.338Z" fill="#4A8068"/>
<path d="M0.800781 246.179H115.113V82.998H0.800781V246.179Z" fill="#F69722"/>
<path d="M115.391 0H-0.000106812V73.0382H115.391V0Z" fill="#9C4A9A"/>
<path d="M0 330H242V256.298H0V330Z" fill="#E62C20"/>
<path d="M980.59 83.6621H866.802V330H980.59V83.6621Z" fill="#F69722"/>
<path d="M1107.2 83.8208H992.887V247.002H1107.2V83.8208Z" fill="#E62C20"/>
<path d="M992.609 330H1108V256.962H992.609V330Z" fill="#4A8068"/>
<path d="M1108 0L866 0V73.7022H1108V0Z" fill="#F69722"/>
<path d="M498.41 246.338H612.198V-0.00012207H498.41V246.338Z" fill="#4A8068"/>
<path d="M371.801 246.179H486.113V82.998H371.801V246.179Z" fill="#9C4A9A"/>
<path d="M486.391 0H371V73.0382H486.391V0Z" fill="#4A8068"/>
<path d="M371 330H613V256.298H371V330Z" fill="#F69722"/>
<path d="M850.41 246.338H964.198V-0.00012207H850.41V246.338Z" fill="#E62C20"/>
<path d="M723.801 246.179H838.113V82.998H723.801V246.179Z" fill="#4A8068"/>
<path d="M838.391 0H723V73.0382H838.391V0Z" fill="#E62C20"/>
<path d="M723 330H965V256.298H723V330Z" fill="#9C4A9A"/>
<rect x="36" width="333" height="333" fill="#171717"/>
<path d="M159.216 186.4V166.9L197.826 111H229.286L192.106 166.9L177.806 162.61H248.266V186.4H159.216ZM206.406 202V186.4L207.316 162.61V148.7H236.176V202H206.406Z" fill="#EEEEEE"/>
<path d="M121.013 266.8L120.573 257.92L132.613 245H141.333L129.333 258L124.933 262.6L121.013 266.8ZM113.933 273V245H121.773V273H113.933ZM132.733 273L123.613 261.44L128.773 255.92L141.933 273H132.733ZM156.461 273V268.96L155.941 267.96V260.52C155.941 259.32 155.568 258.4 154.821 257.76C154.101 257.093 152.941 256.76 151.341 256.76C150.301 256.76 149.248 256.933 148.181 257.28C147.115 257.6 146.208 258.053 145.461 258.64L142.901 253.48C144.128 252.68 145.595 252.067 147.301 251.64C149.035 251.187 150.755 250.96 152.461 250.96C155.981 250.96 158.701 251.773 160.621 253.4C162.568 255 163.541 257.52 163.541 260.96V273H156.461ZM150.061 273.36C148.328 273.36 146.861 273.067 145.661 272.48C144.461 271.893 143.541 271.093 142.901 270.08C142.288 269.067 141.981 267.933 141.981 266.68C141.981 265.347 142.315 264.2 142.981 263.24C143.675 262.253 144.728 261.507 146.141 261C147.555 260.467 149.381 260.2 151.621 260.2H156.741V264.16H152.661C151.435 264.16 150.568 264.36 150.061 264.76C149.581 265.16 149.341 265.693 149.341 266.36C149.341 267.027 149.595 267.56 150.101 267.96C150.608 268.36 151.301 268.56 152.181 268.56C153.008 268.56 153.755 268.36 154.421 267.96C155.115 267.533 155.621 266.893 155.941 266.04L156.981 268.84C156.581 270.333 155.795 271.467 154.621 272.24C153.475 272.987 151.955 273.36 150.061 273.36ZM178.018 273.36C175.245 273.36 173.085 272.68 171.538 271.32C169.992 269.933 169.218 267.853 169.218 265.08V246.48H176.818V265C176.818 265.773 177.032 266.387 177.458 266.84C177.885 267.267 178.432 267.48 179.098 267.48C180.005 267.48 180.778 267.253 181.418 266.8L183.298 272.12C182.658 272.547 181.872 272.853 180.938 273.04C180.005 273.253 179.032 273.36 178.018 273.36ZM166.058 257.8V252.12H181.778V257.8H166.058ZM196.964 273.36C194.404 273.36 192.164 272.88 190.244 271.92C188.351 270.933 186.871 269.6 185.804 267.92C184.764 266.213 184.244 264.28 184.244 262.12C184.244 259.96 184.751 258.04 185.764 256.36C186.804 254.653 188.231 253.333 190.044 252.4C191.857 251.44 193.897 250.96 196.164 250.96C198.297 250.96 200.244 251.4 202.004 252.28C203.764 253.133 205.164 254.4 206.204 256.08C207.244 257.76 207.764 259.8 207.764 262.2C207.764 262.467 207.751 262.773 207.724 263.12C207.697 263.467 207.671 263.787 207.644 264.08H190.484V260.08H203.604L200.724 261.2C200.751 260.213 200.564 259.36 200.164 258.64C199.791 257.92 199.257 257.36 198.564 256.96C197.897 256.56 197.111 256.36 196.204 256.36C195.297 256.36 194.497 256.56 193.804 256.96C193.137 257.36 192.617 257.933 192.244 258.68C191.871 259.4 191.684 260.253 191.684 261.24V262.4C191.684 263.467 191.897 264.387 192.324 265.16C192.777 265.933 193.417 266.533 194.244 266.96C195.071 267.36 196.057 267.56 197.204 267.56C198.271 267.56 199.177 267.413 199.924 267.12C200.697 266.8 201.457 266.32 202.204 265.68L206.204 269.84C205.164 270.987 203.884 271.867 202.364 272.48C200.844 273.067 199.044 273.36 196.964 273.36ZM221.868 281.12C219.788 281.12 217.801 280.88 215.908 280.4C214.041 279.92 212.441 279.213 211.108 278.28L213.868 272.96C214.775 273.68 215.895 274.24 217.228 274.64C218.588 275.067 219.908 275.28 221.188 275.28C223.241 275.28 224.721 274.827 225.628 273.92C226.535 273.04 226.988 271.747 226.988 270.04V267.48L227.388 261.4L227.348 255.28V251.32H234.588V269.04C234.588 273.147 233.481 276.187 231.268 278.16C229.055 280.133 225.921 281.12 221.868 281.12ZM220.548 271.88C218.628 271.88 216.855 271.453 215.228 270.6C213.628 269.72 212.335 268.507 211.348 266.96C210.388 265.387 209.908 263.533 209.908 261.4C209.908 259.267 210.388 257.427 211.348 255.88C212.335 254.307 213.628 253.093 215.228 252.24C216.855 251.387 218.628 250.96 220.548 250.96C222.388 250.96 223.961 251.333 225.268 252.08C226.575 252.8 227.561 253.933 228.228 255.48C228.921 257.027 229.268 259 229.268 261.4C229.268 263.8 228.921 265.773 228.228 267.32C227.561 268.867 226.575 270.013 225.268 270.76C223.961 271.507 222.388 271.88 220.548 271.88ZM222.348 265.84C223.255 265.84 224.055 265.653 224.748 265.28C225.468 264.907 226.028 264.387 226.428 263.72C226.855 263.053 227.068 262.28 227.068 261.4C227.068 260.52 226.855 259.747 226.428 259.08C226.028 258.413 225.468 257.907 224.748 257.56C224.055 257.187 223.255 257 222.348 257C221.441 257 220.628 257.187 219.908 257.56C219.188 257.907 218.615 258.413 218.188 259.08C217.788 259.747 217.588 260.52 217.588 261.4C217.588 262.28 217.788 263.053 218.188 263.72C218.615 264.387 219.188 264.907 219.908 265.28C220.628 265.653 221.441 265.84 222.348 265.84ZM250.351 273.36C247.978 273.36 245.871 272.88 244.031 271.92C242.191 270.96 240.738 269.64 239.671 267.96C238.631 266.253 238.111 264.307 238.111 262.12C238.111 259.933 238.631 258 239.671 256.32C240.738 254.64 242.191 253.333 244.031 252.4C245.871 251.44 247.978 250.96 250.351 250.96C252.725 250.96 254.831 251.44 256.671 252.4C258.538 253.333 259.991 254.64 261.031 256.32C262.071 258 262.591 259.933 262.591 262.12C262.591 264.307 262.071 266.253 261.031 267.96C259.991 269.64 258.538 270.96 256.671 271.92C254.831 272.88 252.725 273.36 250.351 273.36ZM250.351 267.32C251.231 267.32 252.005 267.12 252.671 266.72C253.365 266.32 253.911 265.733 254.311 264.96C254.711 264.16 254.911 263.213 254.911 262.12C254.911 261.027 254.711 260.107 254.311 259.36C253.911 258.587 253.365 258 252.671 257.6C252.005 257.2 251.231 257 250.351 257C249.498 257 248.725 257.2 248.031 257.6C247.365 258 246.818 258.587 246.391 259.36C245.991 260.107 245.791 261.027 245.791 262.12C245.791 263.213 245.991 264.16 246.391 264.96C246.818 265.733 247.365 266.32 248.031 266.72C248.725 267.12 249.498 267.32 250.351 267.32ZM266.112 273V251.32H273.352V257.64L272.272 255.84C272.912 254.213 273.952 253 275.392 252.2C276.832 251.373 278.579 250.96 280.632 250.96V257.8C280.285 257.747 279.979 257.72 279.712 257.72C279.472 257.693 279.205 257.68 278.912 257.68C277.365 257.68 276.112 258.107 275.152 258.96C274.192 259.787 273.712 261.147 273.712 263.04V273H266.112ZM283.768 273V251.32H291.368V273H283.768ZM287.568 248.92C286.181 248.92 285.061 248.533 284.208 247.76C283.355 246.987 282.928 246.027 282.928 244.88C282.928 243.733 283.355 242.773 284.208 242C285.061 241.227 286.181 240.84 287.568 240.84C288.955 240.84 290.075 241.213 290.928 241.96C291.781 242.68 292.208 243.613 292.208 244.76C292.208 245.96 291.781 246.96 290.928 247.76C290.101 248.533 288.981 248.92 287.568 248.92Z" fill="#EEEEEE"/>
<rect x="389" width="333" height="333" fill="#171717"/>
<path d="M517.503 205.08C508.836 205.08 501.209 203.433 494.623 200.14C488.123 196.76 483.009 191.777 479.283 185.19C475.643 178.517 473.823 170.24 473.823 160.36C473.823 149.7 475.946 140.643 480.193 133.19C484.439 125.65 490.333 119.887 497.873 115.9C505.499 111.913 514.296 109.92 524.263 109.92C529.636 109.92 534.793 110.57 539.733 111.87C544.759 113.083 549.006 114.817 552.473 117.07L541.423 138.52C538.736 136.613 536.006 135.357 533.233 134.75C530.546 134.057 527.773 133.71 524.913 133.71C518.759 133.71 513.819 135.573 510.093 139.3C506.453 142.94 504.633 148.27 504.633 155.29C504.633 156.59 504.633 157.89 504.633 159.19C504.633 160.403 504.633 161.66 504.633 162.96L497.613 157.89C499.346 154.943 501.383 152.473 503.723 150.48C506.063 148.4 508.836 146.84 512.043 145.8C515.249 144.673 518.976 144.11 523.223 144.11C528.769 144.11 533.883 145.323 538.563 147.75C543.329 150.09 547.143 153.427 550.003 157.76C552.949 162.093 554.423 167.25 554.423 173.23C554.423 179.73 552.776 185.363 549.483 190.13C546.189 194.897 541.726 198.58 536.093 201.18C530.546 203.78 524.349 205.08 517.503 205.08ZM515.423 183.89C517.243 183.89 518.846 183.543 520.233 182.85C521.706 182.07 522.833 180.987 523.613 179.6C524.393 178.213 524.783 176.567 524.783 174.66C524.783 171.8 523.916 169.547 522.183 167.9C520.449 166.167 518.196 165.3 515.423 165.3C513.603 165.3 511.999 165.69 510.613 166.47C509.226 167.25 508.099 168.333 507.233 169.72C506.453 171.107 506.063 172.753 506.063 174.66C506.063 176.567 506.453 178.213 507.233 179.6C508.099 180.987 509.226 182.07 510.613 182.85C511.999 183.543 513.603 183.89 515.423 183.89ZM603.45 205.08C594.783 205.08 587.157 203.433 580.57 200.14C574.07 196.76 568.957 191.777 565.23 185.19C561.59 178.517 559.77 170.24 559.77 160.36C559.77 149.7 561.893 140.643 566.14 133.19C570.387 125.65 576.28 119.887 583.82 115.9C591.447 111.913 600.243 109.92 610.21 109.92C615.583 109.92 620.74 110.57 625.68 111.87C630.707 113.083 634.953 114.817 638.42 117.07L627.37 138.52C624.683 136.613 621.953 135.357 619.18 134.75C616.493 134.057 613.72 133.71 610.86 133.71C604.707 133.71 599.767 135.573 596.04 139.3C592.4 142.94 590.58 148.27 590.58 155.29C590.58 156.59 590.58 157.89 590.58 159.19C590.58 160.403 590.58 161.66 590.58 162.96L583.56 157.89C585.293 154.943 587.33 152.473 589.67 150.48C592.01 148.4 594.783 146.84 597.99 145.8C601.197 144.673 604.923 144.11 609.17 144.11C614.717 144.11 619.83 145.323 624.51 147.75C629.277 150.09 633.09 153.427 635.95 157.76C638.897 162.093 640.37 167.25 640.37 173.23C640.37 179.73 638.723 185.363 635.43 190.13C632.137 194.897 627.673 198.58 622.04 201.18C616.493 203.78 610.297 205.08 603.45 205.08ZM601.37 183.89C603.19 183.89 604.793 183.543 606.18 182.85C607.653 182.07 608.78 180.987 609.56 179.6C610.34 178.213 610.73 176.567 610.73 174.66C610.73 171.8 609.863 169.547 608.13 167.9C606.397 166.167 604.143 165.3 601.37 165.3C599.55 165.3 597.947 165.69 596.56 166.47C595.173 167.25 594.047 168.333 593.18 169.72C592.4 171.107 592.01 172.753 592.01 174.66C592.01 176.567 592.4 178.213 593.18 179.6C594.047 180.987 595.173 182.07 596.56 182.85C597.947 183.543 599.55 183.89 601.37 183.89Z" fill="#EEEEEE"/>
<path d="M480.033 273V251.28H471.433V245H496.513V251.28H487.953V273H480.033ZM508.277 273.36C505.717 273.36 503.477 272.88 501.557 271.92C499.663 270.933 498.183 269.6 497.117 267.92C496.077 266.213 495.557 264.28 495.557 262.12C495.557 259.96 496.063 258.04 497.077 256.36C498.117 254.653 499.543 253.333 501.357 252.4C503.17 251.44 505.21 250.96 507.477 250.96C509.61 250.96 511.557 251.4 513.317 252.28C515.077 253.133 516.477 254.4 517.517 256.08C518.557 257.76 519.077 259.8 519.077 262.2C519.077 262.467 519.063 262.773 519.037 263.12C519.01 263.467 518.983 263.787 518.957 264.08H501.797V260.08H514.917L512.037 261.2C512.063 260.213 511.877 259.36 511.477 258.64C511.103 257.92 510.57 257.36 509.877 256.96C509.21 256.56 508.423 256.36 507.517 256.36C506.61 256.36 505.81 256.56 505.117 256.96C504.45 257.36 503.93 257.933 503.557 258.68C503.183 259.4 502.997 260.253 502.997 261.24V262.4C502.997 263.467 503.21 264.387 503.637 265.16C504.09 265.933 504.73 266.533 505.557 266.96C506.383 267.36 507.37 267.56 508.517 267.56C509.583 267.56 510.49 267.413 511.237 267.12C512.01 266.8 512.77 266.32 513.517 265.68L517.517 269.84C516.477 270.987 515.197 271.867 513.677 272.48C512.157 273.067 510.357 273.36 508.277 273.36ZM536.701 250.96C538.381 250.96 539.901 251.307 541.261 252C542.621 252.667 543.687 253.707 544.461 255.12C545.261 256.533 545.661 258.36 545.661 260.6V273H538.061V261.84C538.061 260.293 537.741 259.173 537.101 258.48C536.487 257.76 535.621 257.4 534.501 257.4C533.701 257.4 532.967 257.587 532.301 257.96C531.634 258.307 531.114 258.853 530.741 259.6C530.367 260.347 530.181 261.32 530.181 262.52V273H522.581V251.32H529.821V257.48L528.421 255.68C529.247 254.107 530.381 252.933 531.821 252.16C533.261 251.36 534.887 250.96 536.701 250.96ZM563.672 273V268.96L563.152 267.96V260.52C563.152 259.32 562.779 258.4 562.032 257.76C561.312 257.093 560.152 256.76 558.552 256.76C557.512 256.76 556.459 256.933 555.392 257.28C554.326 257.6 553.419 258.053 552.672 258.64L550.112 253.48C551.339 252.68 552.806 252.067 554.512 251.64C556.246 251.187 557.966 250.96 559.672 250.96C563.192 250.96 565.912 251.773 567.832 253.4C569.779 255 570.752 257.52 570.752 260.96V273H563.672ZM557.272 273.36C555.539 273.36 554.072 273.067 552.872 272.48C551.672 271.893 550.752 271.093 550.112 270.08C549.499 269.067 549.192 267.933 549.192 266.68C549.192 265.347 549.526 264.2 550.192 263.24C550.886 262.253 551.939 261.507 553.352 261C554.766 260.467 556.592 260.2 558.832 260.2H563.952V264.16H559.872C558.646 264.16 557.779 264.36 557.272 264.76C556.792 265.16 556.552 265.693 556.552 266.36C556.552 267.027 556.806 267.56 557.312 267.96C557.819 268.36 558.512 268.56 559.392 268.56C560.219 268.56 560.966 268.36 561.632 267.96C562.326 267.533 562.832 266.893 563.152 266.04L564.192 268.84C563.792 270.333 563.006 271.467 561.832 272.24C560.686 272.987 559.166 273.36 557.272 273.36ZM589.669 250.96C591.349 250.96 592.869 251.307 594.229 252C595.589 252.667 596.656 253.707 597.429 255.12C598.229 256.533 598.629 258.36 598.629 260.6V273H591.029V261.84C591.029 260.293 590.709 259.173 590.069 258.48C589.456 257.76 588.589 257.4 587.469 257.4C586.669 257.4 585.936 257.587 585.269 257.96C584.603 258.307 584.083 258.853 583.709 259.6C583.336 260.347 583.149 261.32 583.149 262.52V273H575.549V251.32H582.789V257.48L581.389 255.68C582.216 254.107 583.349 252.933 584.789 252.16C586.229 251.36 587.856 250.96 589.669 250.96ZM613.081 273.36C610.308 273.36 608.148 272.68 606.601 271.32C605.054 269.933 604.281 267.853 604.281 265.08V246.48H611.881V265C611.881 265.773 612.094 266.387 612.521 266.84C612.948 267.267 613.494 267.48 614.161 267.48C615.068 267.48 615.841 267.253 616.481 266.8L618.361 272.12C617.721 272.547 616.934 272.853 616.001 273.04C615.068 273.253 614.094 273.36 613.081 273.36ZM601.121 257.8V252.12H616.841V257.8H601.121ZM629.172 273.36C627.332 273.36 625.532 273.147 623.772 272.72C622.038 272.293 620.638 271.76 619.572 271.12L621.852 265.92C622.865 266.533 624.052 267.027 625.412 267.4C626.772 267.747 628.105 267.92 629.412 267.92C630.692 267.92 631.572 267.787 632.052 267.52C632.558 267.253 632.812 266.893 632.812 266.44C632.812 266.013 632.572 265.707 632.092 265.52C631.638 265.307 631.025 265.147 630.252 265.04C629.505 264.933 628.678 264.813 627.772 264.68C626.865 264.547 625.945 264.373 625.012 264.16C624.105 263.92 623.265 263.573 622.492 263.12C621.745 262.64 621.145 262 620.692 261.2C620.238 260.4 620.012 259.387 620.012 258.16C620.012 256.773 620.412 255.547 621.212 254.48C622.038 253.387 623.238 252.533 624.812 251.92C626.385 251.28 628.305 250.96 630.572 250.96C632.092 250.96 633.625 251.12 635.172 251.44C636.745 251.733 638.065 252.187 639.132 252.8L636.852 257.96C635.785 257.347 634.718 256.933 633.652 256.72C632.585 256.48 631.572 256.36 630.612 256.36C629.332 256.36 628.425 256.507 627.892 256.8C627.385 257.093 627.132 257.453 627.132 257.88C627.132 258.307 627.358 258.64 627.812 258.88C628.265 259.093 628.865 259.267 629.612 259.4C630.385 259.507 631.225 259.627 632.132 259.76C633.038 259.867 633.945 260.04 634.852 260.28C635.785 260.52 636.625 260.88 637.372 261.36C638.145 261.813 638.758 262.44 639.212 263.24C639.665 264.013 639.892 265.013 639.892 266.24C639.892 267.573 639.478 268.773 638.652 269.84C637.852 270.907 636.652 271.76 635.052 272.4C633.478 273.04 631.518 273.36 629.172 273.36Z" fill="#EEEEEE"/>
<rect x="742" width="333" height="333" fill="#171717"/>
<path d="M819.559 204.08C813.319 204.08 806.992 203.387 800.579 202C794.166 200.613 788.532 198.577 783.679 195.89L794.079 173.27C797.979 175.523 802.052 177.213 806.299 178.34C810.632 179.38 814.706 179.9 818.519 179.9C821.986 179.9 824.802 179.337 826.969 178.21C829.222 176.997 830.349 175.22 830.349 172.88C830.349 170.887 829.526 169.37 827.879 168.33C826.232 167.203 823.459 166.64 819.559 166.64H807.469V147.79L830.999 123.87L833.729 134.14H788.359V111H856.219V129.85L832.689 153.77L817.999 145.45H826.059C837.499 145.45 846.209 148.007 852.189 153.12C858.169 158.233 861.159 164.82 861.159 172.88C861.159 178.08 859.686 183.063 856.739 187.83C853.879 192.597 849.372 196.497 843.219 199.53C837.152 202.563 829.266 204.08 819.559 204.08ZM899.573 204.08C893.333 204.08 887.006 203.387 880.593 202C874.18 200.613 868.546 198.577 863.693 195.89L874.093 173.27C877.993 175.523 882.066 177.213 886.313 178.34C890.56 179.38 894.59 179.9 898.403 179.9C901.87 179.9 904.73 179.293 906.983 178.08C909.236 176.867 910.363 175.09 910.363 172.75C910.363 171.45 909.973 170.323 909.193 169.37C908.413 168.33 907.026 167.55 905.033 167.03C903.126 166.51 900.31 166.25 896.583 166.25H870.193L874.743 111H935.193V134.14H885.533L901.003 121.01L898.273 156.24L882.803 143.11H903.993C913.006 143.11 920.2 144.41 925.573 147.01C931.033 149.61 934.976 153.12 937.403 157.54C939.916 161.873 941.173 166.727 941.173 172.1C941.173 177.473 939.7 182.63 936.753 187.57C933.893 192.423 929.386 196.41 923.233 199.53C917.166 202.563 909.28 204.08 899.573 204.08ZM988.511 204.08C980.451 204.08 973.301 202.217 967.061 198.49C960.908 194.763 956.055 189.347 952.501 182.24C949.035 175.133 947.301 166.553 947.301 156.5C947.301 146.447 949.035 137.867 952.501 130.76C956.055 123.653 960.908 118.237 967.061 114.51C973.301 110.783 980.451 108.92 988.511 108.92C996.571 108.92 1003.68 110.783 1009.83 114.51C1016.07 118.237 1020.92 123.653 1024.39 130.76C1027.94 137.867 1029.72 146.447 1029.72 156.5C1029.72 166.553 1027.94 175.133 1024.39 182.24C1020.92 189.347 1016.07 194.763 1009.83 198.49C1003.68 202.217 996.571 204.08 988.511 204.08ZM988.511 179.51C990.505 179.51 992.281 178.817 993.841 177.43C995.401 176.043 996.615 173.66 997.481 170.28C998.435 166.9 998.911 162.307 998.911 156.5C998.911 150.607 998.435 146.013 997.481 142.72C996.615 139.34 995.401 136.957 993.841 135.57C992.281 134.183 990.505 133.49 988.511 133.49C986.518 133.49 984.741 134.183 983.181 135.57C981.621 136.957 980.365 139.34 979.411 142.72C978.545 146.013 978.111 150.607 978.111 156.5C978.111 162.307 978.545 166.9 979.411 170.28C980.365 173.66 981.621 176.043 983.181 177.43C984.741 178.817 986.518 179.51 988.511 179.51Z" fill="#EEEEEE"/>
<path d="M833.097 273V245H845.897C848.457 245 850.657 245.413 852.497 246.24C854.364 247.067 855.804 248.267 856.817 249.84C857.83 251.387 858.337 253.227 858.337 255.36C858.337 257.467 857.83 259.293 856.817 260.84C855.804 262.387 854.364 263.587 852.497 264.44C850.657 265.267 848.457 265.68 845.897 265.68H837.497L841.017 262.24V273H833.097ZM841.017 263.08L837.497 259.44H845.417C847.07 259.44 848.297 259.08 849.097 258.36C849.924 257.64 850.337 256.64 850.337 255.36C850.337 254.053 849.924 253.04 849.097 252.32C848.297 251.6 847.07 251.24 845.417 251.24H837.497L841.017 247.6V263.08ZM861.995 273V251.32H869.235V257.64L868.155 255.84C868.795 254.213 869.835 253 871.275 252.2C872.715 251.373 874.461 250.96 876.515 250.96V257.8C876.168 257.747 875.861 257.72 875.595 257.72C875.355 257.693 875.088 257.68 874.795 257.68C873.248 257.68 871.995 258.107 871.035 258.96C870.075 259.787 869.595 261.147 869.595 263.04V273H861.995ZM890.336 273.36C887.962 273.36 885.856 272.88 884.016 271.92C882.176 270.96 880.722 269.64 879.656 267.96C878.616 266.253 878.096 264.307 878.096 262.12C878.096 259.933 878.616 258 879.656 256.32C880.722 254.64 882.176 253.333 884.016 252.4C885.856 251.44 887.962 250.96 890.336 250.96C892.709 250.96 894.816 251.44 896.656 252.4C898.522 253.333 899.976 254.64 901.016 256.32C902.056 258 902.576 259.933 902.576 262.12C902.576 264.307 902.056 266.253 901.016 267.96C899.976 269.64 898.522 270.96 896.656 271.92C894.816 272.88 892.709 273.36 890.336 273.36ZM890.336 267.32C891.216 267.32 891.989 267.12 892.656 266.72C893.349 266.32 893.896 265.733 894.296 264.96C894.696 264.16 894.896 263.213 894.896 262.12C894.896 261.027 894.696 260.107 894.296 259.36C893.896 258.587 893.349 258 892.656 257.6C891.989 257.2 891.216 257 890.336 257C889.482 257 888.709 257.2 888.016 257.6C887.349 258 886.802 258.587 886.376 259.36C885.976 260.107 885.776 261.027 885.776 262.12C885.776 263.213 885.976 264.16 886.376 264.96C886.802 265.733 887.349 266.32 888.016 266.72C888.709 267.12 889.482 267.32 890.336 267.32ZM915.536 273.36C913.563 273.36 911.763 272.907 910.136 272C908.536 271.067 907.256 269.773 906.296 268.12C905.336 266.44 904.856 264.44 904.856 262.12C904.856 259.827 905.336 257.853 906.296 256.2C907.256 254.52 908.536 253.227 910.136 252.32C911.763 251.413 913.563 250.96 915.536 250.96C917.403 250.96 918.976 251.36 920.256 252.16C921.563 252.96 922.55 254.187 923.216 255.84C923.883 257.493 924.216 259.587 924.216 262.12C924.216 264.707 923.896 266.827 923.256 268.48C922.616 270.133 921.656 271.36 920.376 272.16C919.096 272.96 917.483 273.36 915.536 273.36ZM917.136 267.32C917.99 267.32 918.75 267.12 919.416 266.72C920.11 266.32 920.656 265.733 921.056 264.96C921.456 264.16 921.656 263.213 921.656 262.12C921.656 261.027 921.456 260.107 921.056 259.36C920.656 258.587 920.11 258 919.416 257.6C918.75 257.2 917.99 257 917.136 257C916.256 257 915.47 257.2 914.776 257.6C914.11 258 913.576 258.587 913.176 259.36C912.776 260.107 912.576 261.027 912.576 262.12C912.576 263.213 912.776 264.16 913.176 264.96C913.576 265.733 914.11 266.32 914.776 266.72C915.47 267.12 916.256 267.32 917.136 267.32ZM921.896 273V269.28L921.936 262.12L921.536 254.96V243.32H929.136V273H921.896ZM943.146 273.36C941.386 273.36 939.799 273.013 938.386 272.32C936.999 271.627 935.906 270.547 935.106 269.08C934.333 267.587 933.946 265.707 933.946 263.44V251.32H941.546V262.2C941.546 263.88 941.853 265.08 942.466 265.8C943.106 266.52 943.999 266.88 945.146 266.88C945.893 266.88 946.573 266.707 947.186 266.36C947.799 266.013 948.293 265.467 948.666 264.72C949.039 263.947 949.226 262.96 949.226 261.76V251.32H956.826V273H949.586V266.88L950.986 268.6C950.239 270.2 949.159 271.4 947.746 272.2C946.333 272.973 944.799 273.36 943.146 273.36ZM968.041 269L968.241 259.92L977.081 251.32H986.081L976.281 261.44L972.401 264.56L968.041 269ZM961.721 273V243.32H969.321V273H961.721ZM977.641 273L971.001 264.68L975.721 258.84L986.841 273H977.641Z" fill="#EEEEEE"/>
</svg>
