<svg width="242" height="957" viewBox="0 0 242 957" fill="none" xmlns="http://www.w3.org/2000/svg">
<path d="M127.411 576.338H241.199V330H127.411V576.338Z" fill="#4A8068"/>
<path d="M0.80127 576.179H115.114V412.998H0.80127V576.179Z" fill="#F69722"/>
<path d="M115.391 330H-0.000106812V403.038H115.391V330Z" fill="#9C4A9A"/>
<path d="M0 660H242V586.298H0V660Z" fill="#9C4A9A"/>
<path d="M127.411 246.338H241.199V0H127.411V246.338Z" fill="#4A8068"/>
<path d="M0.80127 246.179H115.114V82.998H0.80127V246.179Z" fill="#F69722"/>
<path d="M115.391 0H-0.000106812V73.0382H115.391V0Z" fill="#9C4A9A"/>
<path d="M0 330H242V256.298H0V330Z" fill="#E62C20"/>
<rect y="15" width="242" height="294" fill="#171717"/>
<path d="M99.5003 152.32V142.72L118.508 115.2H133.996L115.692 142.72L108.652 140.608H143.34V152.32H99.5003ZM122.732 160V152.32L123.18 140.608V133.76H137.388V160H122.732Z" fill="#EEEEEE"/>
<path d="M55.3103 209.157L54.9583 202.053L64.5903 191.717H71.5663L61.9663 202.117L58.4463 205.797L55.3103 209.157ZM49.6463 214.117V191.717H55.9183V214.117H49.6463ZM64.6863 214.117L57.3903 204.869L61.5183 200.453L72.0463 214.117H64.6863ZM83.669 214.117V210.885L83.253 210.085V204.133C83.253 203.173 82.9543 202.437 82.357 201.925C81.781 201.391 80.853 201.125 79.573 201.125C78.741 201.125 77.8983 201.263 77.045 201.541C76.1917 201.797 75.4663 202.159 74.869 202.629L72.821 198.501C73.8023 197.861 74.9757 197.37 76.341 197.029C77.7277 196.666 79.1037 196.485 80.469 196.485C83.285 196.485 85.461 197.135 86.997 198.437C88.5543 199.717 89.333 201.733 89.333 204.485V214.117H83.669ZM78.549 214.405C77.1623 214.405 75.989 214.17 75.029 213.701C74.069 213.231 73.333 212.591 72.821 211.781C72.3303 210.97 72.085 210.063 72.085 209.061C72.085 207.994 72.3517 207.077 72.885 206.309C73.4397 205.519 74.2823 204.922 75.413 204.517C76.5437 204.09 78.005 203.877 79.797 203.877H83.893V207.045H80.629C79.6477 207.045 78.9543 207.205 78.549 207.525C78.165 207.845 77.973 208.271 77.973 208.805C77.973 209.338 78.1757 209.765 78.581 210.085C78.9863 210.405 79.541 210.565 80.245 210.565C80.9063 210.565 81.5037 210.405 82.037 210.085C82.5917 209.743 82.997 209.231 83.253 208.549L84.085 210.789C83.765 211.983 83.1357 212.89 82.197 213.509C81.2797 214.106 80.0637 214.405 78.549 214.405ZM100.915 214.405C98.6961 214.405 96.9681 213.861 95.7308 212.773C94.4934 211.663 93.8748 209.999 93.8748 207.781V192.901H99.9548V207.717C99.9548 208.335 100.125 208.826 100.467 209.189C100.808 209.53 101.245 209.701 101.779 209.701C102.504 209.701 103.123 209.519 103.635 209.157L105.139 213.413C104.627 213.754 103.997 213.999 103.251 214.149C102.504 214.319 101.725 214.405 100.915 214.405ZM91.3468 201.957V197.413H103.923V201.957H91.3468ZM116.071 214.405C114.023 214.405 112.231 214.021 110.695 213.253C109.181 212.463 107.997 211.397 107.143 210.053C106.311 208.687 105.895 207.141 105.895 205.413C105.895 203.685 106.301 202.149 107.111 200.805C107.943 199.439 109.085 198.383 110.535 197.637C111.986 196.869 113.618 196.485 115.431 196.485C117.138 196.485 118.695 196.837 120.103 197.541C121.511 198.223 122.631 199.237 123.463 200.581C124.295 201.925 124.711 203.557 124.711 205.477C124.711 205.69 124.701 205.935 124.679 206.213C124.658 206.49 124.637 206.746 124.615 206.981H110.887V203.781H121.383L119.079 204.677C119.101 203.887 118.951 203.205 118.631 202.629C118.333 202.053 117.906 201.605 117.351 201.285C116.818 200.965 116.189 200.805 115.463 200.805C114.738 200.805 114.098 200.965 113.543 201.285C113.01 201.605 112.594 202.063 112.295 202.661C111.997 203.237 111.847 203.919 111.847 204.709V205.637C111.847 206.49 112.018 207.226 112.359 207.845C112.722 208.463 113.234 208.943 113.895 209.285C114.557 209.605 115.346 209.765 116.263 209.765C117.117 209.765 117.842 209.647 118.439 209.413C119.058 209.157 119.666 208.773 120.263 208.261L123.463 211.589C122.631 212.506 121.607 213.21 120.391 213.701C119.175 214.17 117.735 214.405 116.071 214.405ZM135.995 220.613C134.331 220.613 132.741 220.421 131.227 220.037C129.733 219.653 128.453 219.087 127.387 218.341L129.595 214.085C130.32 214.661 131.216 215.109 132.283 215.429C133.371 215.77 134.427 215.941 135.451 215.941C137.093 215.941 138.277 215.578 139.003 214.853C139.728 214.149 140.091 213.114 140.091 211.749V209.701L140.411 204.837L140.379 199.941V196.773H146.171V210.949C146.171 214.234 145.285 216.666 143.515 218.245C141.744 219.823 139.237 220.613 135.995 220.613ZM134.939 213.221C133.403 213.221 131.984 212.879 130.683 212.197C129.403 211.493 128.368 210.522 127.579 209.285C126.811 208.026 126.427 206.543 126.427 204.837C126.427 203.13 126.811 201.658 127.579 200.421C128.368 199.162 129.403 198.191 130.683 197.509C131.984 196.826 133.403 196.485 134.939 196.485C136.411 196.485 137.669 196.783 138.715 197.381C139.76 197.957 140.549 198.863 141.083 200.101C141.637 201.338 141.915 202.917 141.915 204.837C141.915 206.757 141.637 208.335 141.083 209.573C140.549 210.81 139.76 211.727 138.715 212.325C137.669 212.922 136.411 213.221 134.939 213.221ZM136.379 208.389C137.104 208.389 137.744 208.239 138.299 207.941C138.875 207.642 139.323 207.226 139.643 206.693C139.984 206.159 140.155 205.541 140.155 204.837C140.155 204.133 139.984 203.514 139.643 202.981C139.323 202.447 138.875 202.042 138.299 201.765C137.744 201.466 137.104 201.317 136.379 201.317C135.653 201.317 135.003 201.466 134.427 201.765C133.851 202.042 133.392 202.447 133.051 202.981C132.731 203.514 132.571 204.133 132.571 204.837C132.571 205.541 132.731 206.159 133.051 206.693C133.392 207.226 133.851 207.642 134.427 207.941C135.003 208.239 135.653 208.389 136.379 208.389ZM158.781 214.405C156.882 214.405 155.197 214.021 153.725 213.253C152.253 212.485 151.09 211.429 150.237 210.085C149.405 208.719 148.989 207.162 148.989 205.413C148.989 203.663 149.405 202.117 150.237 200.773C151.09 199.429 152.253 198.383 153.725 197.637C155.197 196.869 156.882 196.485 158.781 196.485C160.68 196.485 162.365 196.869 163.837 197.637C165.33 198.383 166.493 199.429 167.325 200.773C168.157 202.117 168.573 203.663 168.573 205.413C168.573 207.162 168.157 208.719 167.325 210.085C166.493 211.429 165.33 212.485 163.837 213.253C162.365 214.021 160.68 214.405 158.781 214.405ZM158.781 209.573C159.485 209.573 160.104 209.413 160.637 209.093C161.192 208.773 161.629 208.303 161.949 207.685C162.269 207.045 162.429 206.287 162.429 205.413C162.429 204.538 162.269 203.802 161.949 203.205C161.629 202.586 161.192 202.117 160.637 201.797C160.104 201.477 159.485 201.317 158.781 201.317C158.098 201.317 157.48 201.477 156.925 201.797C156.392 202.117 155.954 202.586 155.613 203.205C155.293 203.802 155.133 204.538 155.133 205.413C155.133 206.287 155.293 207.045 155.613 207.685C155.954 208.303 156.392 208.773 156.925 209.093C157.48 209.413 158.098 209.573 158.781 209.573ZM171.39 214.117V196.773H177.182V201.829L176.318 200.389C176.83 199.087 177.662 198.117 178.814 197.477C179.966 196.815 181.363 196.485 183.006 196.485V201.957C182.728 201.914 182.483 201.893 182.27 201.893C182.078 201.871 181.864 201.861 181.63 201.861C180.392 201.861 179.39 202.202 178.622 202.885C177.854 203.546 177.47 204.634 177.47 206.149V214.117H171.39ZM185.515 214.117V196.773H191.595V214.117H185.515ZM188.555 194.853C187.445 194.853 186.549 194.543 185.867 193.925C185.184 193.306 184.843 192.538 184.843 191.621C184.843 190.703 185.184 189.935 185.867 189.317C186.549 188.698 187.445 188.389 188.555 188.389C189.664 188.389 190.56 188.687 191.243 189.285C191.925 189.861 192.267 190.607 192.267 191.525C192.267 192.485 191.925 193.285 191.243 193.925C190.581 194.543 189.685 194.853 188.555 194.853Z" fill="#EEEEEE"/>
<rect y="330" width="242" height="294" fill="#171717"/>
<path d="M102.428 476.717C98.1618 476.717 94.4071 475.907 91.1645 474.285C87.9645 472.621 85.4471 470.168 83.6125 466.925C81.8205 463.64 80.9245 459.565 80.9245 454.701C80.9245 449.453 81.9698 444.995 84.0605 441.325C86.1511 437.613 89.0525 434.776 92.7645 432.813C96.5191 430.851 100.85 429.869 105.756 429.869C108.402 429.869 110.94 430.189 113.372 430.829C115.847 431.427 117.938 432.28 119.644 433.389L114.204 443.949C112.882 443.011 111.538 442.392 110.172 442.093C108.85 441.752 107.484 441.581 106.076 441.581C103.047 441.581 100.615 442.499 98.7805 444.333C96.9885 446.125 96.0925 448.749 96.0925 452.205C96.0925 452.845 96.0925 453.485 96.0925 454.125C96.0925 454.723 96.0925 455.341 96.0925 455.981L92.6365 453.485C93.4898 452.035 94.4925 450.819 95.6445 449.837C96.7965 448.813 98.1618 448.045 99.7405 447.533C101.319 446.979 103.154 446.701 105.244 446.701C107.975 446.701 110.492 447.299 112.796 448.493C115.143 449.645 117.02 451.288 118.428 453.421C119.879 455.555 120.604 458.093 120.604 461.037C120.604 464.237 119.794 467.011 118.172 469.357C116.551 471.704 114.354 473.517 111.58 474.797C108.85 476.077 105.799 476.717 102.428 476.717ZM101.404 466.285C102.3 466.285 103.09 466.115 103.772 465.773C104.498 465.389 105.052 464.856 105.436 464.173C105.82 463.491 106.012 462.68 106.012 461.741C106.012 460.333 105.586 459.224 104.732 458.413C103.879 457.56 102.77 457.133 101.404 457.133C100.508 457.133 99.7191 457.325 99.0365 457.709C98.3538 458.093 97.7991 458.627 97.3725 459.309C96.9885 459.992 96.7965 460.803 96.7965 461.741C96.7965 462.68 96.9885 463.491 97.3725 464.173C97.7991 464.856 98.3538 465.389 99.0365 465.773C99.7191 466.115 100.508 466.285 101.404 466.285ZM144.741 476.717C140.474 476.717 136.72 475.907 133.477 474.285C130.277 472.621 127.76 470.168 125.925 466.925C124.133 463.64 123.237 459.565 123.237 454.701C123.237 449.453 124.282 444.995 126.373 441.325C128.464 437.613 131.365 434.776 135.077 432.813C138.832 430.851 143.162 429.869 148.069 429.869C150.714 429.869 153.253 430.189 155.685 430.829C158.16 431.427 160.25 432.28 161.957 433.389L156.517 443.949C155.194 443.011 153.85 442.392 152.485 442.093C151.162 441.752 149.797 441.581 148.389 441.581C145.36 441.581 142.928 442.499 141.093 444.333C139.301 446.125 138.405 448.749 138.405 452.205C138.405 452.845 138.405 453.485 138.405 454.125C138.405 454.723 138.405 455.341 138.405 455.981L134.949 453.485C135.802 452.035 136.805 450.819 137.957 449.837C139.109 448.813 140.474 448.045 142.053 447.533C143.632 446.979 145.466 446.701 147.557 446.701C150.288 446.701 152.805 447.299 155.109 448.493C157.456 449.645 159.333 451.288 160.741 453.421C162.192 455.555 162.917 458.093 162.917 461.037C162.917 464.237 162.106 467.011 160.485 469.357C158.864 471.704 156.666 473.517 153.893 474.797C151.162 476.077 148.112 476.717 144.741 476.717ZM143.717 466.285C144.613 466.285 145.402 466.115 146.085 465.773C146.81 465.389 147.365 464.856 147.749 464.173C148.133 463.491 148.325 462.68 148.325 461.741C148.325 460.333 147.898 459.224 147.045 458.413C146.192 457.56 145.082 457.133 143.717 457.133C142.821 457.133 142.032 457.325 141.349 457.709C140.666 458.093 140.112 458.627 139.685 459.309C139.301 459.992 139.109 460.803 139.109 461.741C139.109 462.68 139.301 463.491 139.685 464.173C140.112 464.856 140.666 465.389 141.349 465.773C142.032 466.115 142.821 466.285 143.717 466.285Z" fill="#EEEEEE"/>
<path d="M60.2273 528.387V511.011H53.3473V505.987H73.4113V511.011H66.5633V528.387H60.2273ZM82.8218 528.675C80.7738 528.675 78.9818 528.291 77.4458 527.523C75.9312 526.734 74.7472 525.667 73.8938 524.323C73.0618 522.958 72.6458 521.411 72.6458 519.683C72.6458 517.955 73.0512 516.419 73.8618 515.075C74.6938 513.71 75.8352 512.654 77.2858 511.907C78.7365 511.139 80.3685 510.755 82.1818 510.755C83.8885 510.755 85.4458 511.107 86.8538 511.811C88.2618 512.494 89.3818 513.507 90.2138 514.851C91.0458 516.195 91.4618 517.827 91.4618 519.747C91.4618 519.96 91.4512 520.206 91.4298 520.483C91.4085 520.76 91.3872 521.016 91.3658 521.251H77.6378V518.051H88.1338L85.8298 518.947C85.8512 518.158 85.7018 517.475 85.3818 516.899C85.0832 516.323 84.6565 515.875 84.1018 515.555C83.5685 515.235 82.9392 515.075 82.2138 515.075C81.4885 515.075 80.8485 515.235 80.2938 515.555C79.7605 515.875 79.3445 516.334 79.0458 516.931C78.7472 517.507 78.5978 518.19 78.5978 518.979V519.907C78.5978 520.76 78.7685 521.496 79.1098 522.115C79.4725 522.734 79.9845 523.214 80.6458 523.555C81.3072 523.875 82.0965 524.035 83.0138 524.035C83.8672 524.035 84.5925 523.918 85.1898 523.683C85.8085 523.427 86.4165 523.043 87.0138 522.531L90.2138 525.859C89.3818 526.776 88.3578 527.48 87.1418 527.971C85.9258 528.44 84.4858 528.675 82.8218 528.675ZM105.561 510.755C106.905 510.755 108.121 511.032 109.209 511.587C110.297 512.12 111.15 512.952 111.769 514.083C112.409 515.214 112.729 516.675 112.729 518.467V528.387H106.649V519.459C106.649 518.222 106.393 517.326 105.881 516.771C105.39 516.195 104.697 515.907 103.801 515.907C103.161 515.907 102.574 516.056 102.041 516.355C101.508 516.632 101.092 517.07 100.793 517.667C100.494 518.264 100.345 519.043 100.345 520.003V528.387H94.2651V511.043H100.057V515.971L98.9371 514.531C99.5984 513.272 100.505 512.334 101.657 511.715C102.809 511.075 104.11 510.755 105.561 510.755ZM127.138 528.387V525.155L126.722 524.355V518.403C126.722 517.443 126.424 516.707 125.826 516.195C125.25 515.662 124.322 515.395 123.042 515.395C122.21 515.395 121.368 515.534 120.514 515.811C119.661 516.067 118.936 516.43 118.338 516.899L116.29 512.771C117.272 512.131 118.445 511.64 119.81 511.299C121.197 510.936 122.573 510.755 123.938 510.755C126.754 510.755 128.93 511.406 130.466 512.707C132.024 513.987 132.802 516.003 132.802 518.755V528.387H127.138ZM122.018 528.675C120.632 528.675 119.458 528.44 118.498 527.971C117.538 527.502 116.802 526.862 116.29 526.051C115.8 525.24 115.554 524.334 115.554 523.331C115.554 522.264 115.821 521.347 116.354 520.579C116.909 519.79 117.752 519.192 118.882 518.787C120.013 518.36 121.474 518.147 123.266 518.147H127.362V521.315H124.098C123.117 521.315 122.424 521.475 122.018 521.795C121.634 522.115 121.442 522.542 121.442 523.075C121.442 523.608 121.645 524.035 122.05 524.355C122.456 524.675 123.01 524.835 123.714 524.835C124.376 524.835 124.973 524.675 125.506 524.355C126.061 524.014 126.466 523.502 126.722 522.819L127.554 525.059C127.234 526.254 126.605 527.16 125.666 527.779C124.749 528.376 123.533 528.675 122.018 528.675ZM147.936 510.755C149.28 510.755 150.496 511.032 151.584 511.587C152.672 512.12 153.525 512.952 154.144 514.083C154.784 515.214 155.104 516.675 155.104 518.467V528.387H149.024V519.459C149.024 518.222 148.768 517.326 148.256 516.771C147.765 516.195 147.072 515.907 146.176 515.907C145.536 515.907 144.949 516.056 144.416 516.355C143.883 516.632 143.467 517.07 143.168 517.667C142.869 518.264 142.72 519.043 142.72 520.003V528.387H136.64V511.043H142.432V515.971L141.312 514.531C141.973 513.272 142.88 512.334 144.032 511.715C145.184 511.075 146.485 510.755 147.936 510.755ZM166.665 528.675C164.447 528.675 162.719 528.131 161.481 527.043C160.244 525.934 159.625 524.27 159.625 522.051V507.171H165.705V521.987C165.705 522.606 165.876 523.096 166.217 523.459C166.559 523.8 166.996 523.971 167.529 523.971C168.255 523.971 168.873 523.79 169.385 523.427L170.889 527.683C170.377 528.024 169.748 528.27 169.001 528.419C168.255 528.59 167.476 528.675 166.665 528.675ZM157.097 516.227V511.683H169.673V516.227H157.097ZM179.538 528.675C178.066 528.675 176.626 528.504 175.218 528.163C173.831 527.822 172.711 527.395 171.858 526.883L173.682 522.723C174.492 523.214 175.442 523.608 176.53 523.907C177.618 524.184 178.684 524.323 179.73 524.323C180.754 524.323 181.458 524.216 181.842 524.003C182.247 523.79 182.45 523.502 182.45 523.139C182.45 522.798 182.258 522.552 181.874 522.403C181.511 522.232 181.02 522.104 180.402 522.019C179.804 521.934 179.143 521.838 178.418 521.731C177.692 521.624 176.956 521.486 176.21 521.315C175.484 521.123 174.812 520.846 174.194 520.483C173.596 520.099 173.116 519.587 172.754 518.947C172.391 518.307 172.21 517.496 172.21 516.515C172.21 515.406 172.53 514.424 173.17 513.571C173.831 512.696 174.791 512.014 176.05 511.523C177.308 511.011 178.844 510.755 180.658 510.755C181.874 510.755 183.1 510.883 184.338 511.139C185.596 511.374 186.652 511.736 187.506 512.227L185.682 516.355C184.828 515.864 183.975 515.534 183.122 515.363C182.268 515.171 181.458 515.075 180.69 515.075C179.666 515.075 178.94 515.192 178.514 515.427C178.108 515.662 177.906 515.95 177.906 516.291C177.906 516.632 178.087 516.899 178.45 517.091C178.812 517.262 179.292 517.4 179.89 517.507C180.508 517.592 181.18 517.688 181.906 517.795C182.631 517.88 183.356 518.019 184.082 518.211C184.828 518.403 185.5 518.691 186.098 519.075C186.716 519.438 187.207 519.939 187.57 520.579C187.932 521.198 188.114 521.998 188.114 522.979C188.114 524.046 187.783 525.006 187.122 525.859C186.482 526.712 185.522 527.395 184.242 527.907C182.983 528.419 181.415 528.675 179.538 528.675Z" fill="#EEEEEE"/>
<path d="M113.788 710H7.62939e-06L7.62939e-06 956.338H113.788L113.788 710Z" fill="#F69722"/>
<path d="M241.199 728.82H126.886L126.886 892.001H241.199L241.199 728.82Z" fill="#F69722"/>
<path d="M125.808 956.338H241.198V883.3H125.808L125.808 956.338Z" fill="#9C4A9A"/>
<path d="M242 644.999H0V718.701H242V644.999Z" fill="#E62C20"/>
<rect y="644.999" width="242" height="294" fill="#171717"/>
<path d="M77.3485 791.717C74.2765 791.717 71.1618 791.375 68.0045 790.693C64.8471 790.01 62.0738 789.007 59.6845 787.685L64.8045 776.549C66.7245 777.658 68.7298 778.49 70.8205 779.045C72.9538 779.557 74.9591 779.813 76.8365 779.813C78.5431 779.813 79.9298 779.535 80.9965 778.981C82.1058 778.383 82.6605 777.509 82.6605 776.357C82.6605 775.375 82.2551 774.629 81.4445 774.117C80.6338 773.562 79.2685 773.285 77.3485 773.285H71.3965V764.005L82.9805 752.229L84.3245 757.285H61.9885V745.893H95.3965V755.173L83.8125 766.949L76.5805 762.853H80.5485C86.1805 762.853 90.4685 764.111 93.4125 766.629C96.3565 769.146 97.8285 772.389 97.8285 776.357C97.8285 778.917 97.1031 781.37 95.6525 783.717C94.2445 786.063 92.0258 787.983 88.9965 789.477C86.0098 790.97 82.1271 791.717 77.3485 791.717ZM116.74 791.717C113.668 791.717 110.553 791.375 107.396 790.693C104.239 790.01 101.465 789.007 99.076 787.685L104.196 776.549C106.116 777.658 108.121 778.49 110.212 779.045C112.303 779.557 114.287 779.813 116.164 779.813C117.871 779.813 119.279 779.514 120.388 778.917C121.497 778.319 122.052 777.445 122.052 776.293C122.052 775.653 121.86 775.098 121.476 774.629C121.092 774.117 120.409 773.733 119.428 773.477C118.489 773.221 117.103 773.093 115.268 773.093H102.276L104.516 745.893H134.276V757.285H109.828L117.444 750.821L116.1 768.165L108.484 761.701H118.916C123.353 761.701 126.895 762.341 129.54 763.621C132.228 764.901 134.169 766.629 135.364 768.805C136.601 770.938 137.22 773.327 137.22 775.973C137.22 778.618 136.495 781.157 135.044 783.589C133.636 785.978 131.417 787.941 128.388 789.477C125.401 790.97 121.519 791.717 116.74 791.717ZM160.525 791.717C156.557 791.717 153.037 790.799 149.965 788.965C146.936 787.13 144.546 784.463 142.797 780.965C141.09 777.466 140.237 773.242 140.237 768.293C140.237 763.343 141.09 759.119 142.797 755.621C144.546 752.122 146.936 749.455 149.965 747.621C153.037 745.786 156.557 744.869 160.525 744.869C164.493 744.869 167.992 745.786 171.021 747.621C174.093 749.455 176.482 752.122 178.189 755.621C179.938 759.119 180.813 763.343 180.813 768.293C180.813 773.242 179.938 777.466 178.189 780.965C176.482 784.463 174.093 787.13 171.021 788.965C167.992 790.799 164.493 791.717 160.525 791.717ZM160.525 779.621C161.506 779.621 162.381 779.279 163.149 778.597C163.917 777.914 164.514 776.741 164.941 775.077C165.41 773.413 165.645 771.151 165.645 768.293C165.645 765.391 165.41 763.13 164.941 761.509C164.514 759.845 163.917 758.671 163.149 757.989C162.381 757.306 161.506 756.965 160.525 756.965C159.544 756.965 158.669 757.306 157.901 757.989C157.133 758.671 156.514 759.845 156.045 761.509C155.618 763.13 155.405 765.391 155.405 768.293C155.405 771.151 155.618 773.413 156.045 775.077C156.514 776.741 157.133 777.914 157.901 778.597C158.669 779.279 159.544 779.621 160.525 779.621Z" fill="#EEEEEE"/>
<path d="M60.6781 843.386V820.986H70.9181C72.9661 820.986 74.7261 821.317 76.1981 821.978C77.6914 822.64 78.8434 823.6 79.6541 824.858C80.4647 826.096 80.8701 827.568 80.8701 829.274C80.8701 830.96 80.4647 832.421 79.6541 833.658C78.8434 834.896 77.6914 835.856 76.1981 836.538C74.7261 837.2 72.9661 837.53 70.9181 837.53H64.1981L67.0141 834.778V843.386H60.6781ZM67.0141 835.45L64.1981 832.538H70.5341C71.8567 832.538 72.8381 832.25 73.4781 831.674C74.1394 831.098 74.4701 830.298 74.4701 829.274C74.4701 828.229 74.1394 827.418 73.4781 826.842C72.8381 826.266 71.8567 825.978 70.5341 825.978H64.1981L67.0141 823.066V835.45ZM83.7963 843.386V826.042H89.5883V831.098L88.7243 829.658C89.2363 828.357 90.0683 827.386 91.2203 826.746C92.3723 826.085 93.7697 825.754 95.4123 825.754V831.226C95.135 831.184 94.8897 831.162 94.6763 831.162C94.4843 831.141 94.271 831.13 94.0363 831.13C92.799 831.13 91.7963 831.472 91.0283 832.154C90.2603 832.816 89.8763 833.904 89.8763 835.418V843.386H83.7963ZM106.469 843.674C104.57 843.674 102.885 843.29 101.413 842.522C99.9411 841.754 98.7784 840.698 97.9251 839.354C97.0931 837.989 96.6771 836.432 96.6771 834.682C96.6771 832.933 97.0931 831.386 97.9251 830.042C98.7784 828.698 99.9411 827.653 101.413 826.906C102.885 826.138 104.57 825.754 106.469 825.754C108.368 825.754 110.053 826.138 111.525 826.906C113.018 827.653 114.181 828.698 115.013 830.042C115.845 831.386 116.261 832.933 116.261 834.682C116.261 836.432 115.845 837.989 115.013 839.354C114.181 840.698 113.018 841.754 111.525 842.522C110.053 843.29 108.368 843.674 106.469 843.674ZM106.469 838.842C107.173 838.842 107.792 838.682 108.325 838.362C108.88 838.042 109.317 837.573 109.637 836.954C109.957 836.314 110.117 835.557 110.117 834.682C110.117 833.808 109.957 833.072 109.637 832.474C109.317 831.856 108.88 831.386 108.325 831.066C107.792 830.746 107.173 830.586 106.469 830.586C105.786 830.586 105.168 830.746 104.613 831.066C104.08 831.386 103.642 831.856 103.301 832.474C102.981 833.072 102.821 833.808 102.821 834.682C102.821 835.557 102.981 836.314 103.301 836.954C103.642 837.573 104.08 838.042 104.613 838.362C105.168 838.682 105.786 838.842 106.469 838.842ZM126.63 843.674C125.051 843.674 123.611 843.312 122.31 842.586C121.03 841.84 120.006 840.805 119.238 839.482C118.47 838.138 118.086 836.538 118.086 834.682C118.086 832.848 118.47 831.269 119.238 829.946C120.006 828.602 121.03 827.568 122.31 826.842C123.611 826.117 125.051 825.754 126.63 825.754C128.123 825.754 129.382 826.074 130.406 826.714C131.451 827.354 132.24 828.336 132.774 829.658C133.307 830.981 133.574 832.656 133.574 834.682C133.574 836.752 133.318 838.448 132.806 839.77C132.294 841.093 131.526 842.074 130.502 842.714C129.478 843.354 128.187 843.674 126.63 843.674ZM127.91 838.842C128.592 838.842 129.2 838.682 129.734 838.362C130.288 838.042 130.726 837.573 131.046 836.954C131.366 836.314 131.526 835.557 131.526 834.682C131.526 833.808 131.366 833.072 131.046 832.474C130.726 831.856 130.288 831.386 129.734 831.066C129.2 830.746 128.592 830.586 127.91 830.586C127.206 830.586 126.576 830.746 126.022 831.066C125.488 831.386 125.062 831.856 124.742 832.474C124.422 833.072 124.262 833.808 124.262 834.682C124.262 835.557 124.422 836.314 124.742 836.954C125.062 837.573 125.488 838.042 126.022 838.362C126.576 838.682 127.206 838.842 127.91 838.842ZM131.718 843.386V840.41L131.75 834.682L131.43 828.954V819.642H137.51V843.386H131.718ZM148.717 843.674C147.309 843.674 146.04 843.397 144.909 842.842C143.8 842.288 142.925 841.424 142.285 840.25C141.667 839.056 141.357 837.552 141.357 835.738V826.042H147.437V834.746C147.437 836.09 147.683 837.05 148.173 837.626C148.685 838.202 149.4 838.49 150.317 838.49C150.915 838.49 151.459 838.352 151.949 838.074C152.44 837.797 152.835 837.36 153.133 836.762C153.432 836.144 153.581 835.354 153.581 834.394V826.042H159.661V843.386H153.869V838.49L154.989 839.866C154.392 841.146 153.528 842.106 152.397 842.746C151.267 843.365 150.04 843.674 148.717 843.674ZM168.634 840.186L168.794 832.922L175.866 826.042H183.066L175.226 834.138L172.122 836.634L168.634 840.186ZM163.578 843.386V819.642H169.658V843.386H163.578ZM176.314 843.386L171.002 836.73L174.778 832.058L183.674 843.386H176.314Z" fill="#EEEEEE"/>
</svg>
