<svg width="1108" height="333" viewBox="0 0 1108 333" fill="none" xmlns="http://www.w3.org/2000/svg">
<path d="M127.41 246.338H241.198V-0.00012207H127.41V246.338Z" fill="#4A8068"/>
<path d="M0.800781 246.179H115.113V82.998H0.800781V246.179Z" fill="#F69722"/>
<path d="M115.391 0H-0.000106812V73.0382H115.391V0Z" fill="#9C4A9A"/>
<path d="M0 330H242V256.298H0V330Z" fill="#E62C20"/>
<path d="M980.59 83.6621H866.802V330H980.59V83.6621Z" fill="#F69722"/>
<path d="M1107.2 83.8208H992.887V247.002H1107.2V83.8208Z" fill="#E62C20"/>
<path d="M992.609 330H1108V256.962H992.609V330Z" fill="#4A8068"/>
<path d="M1108 0L866 0V73.7022H1108V0Z" fill="#F69722"/>
<path d="M498.41 246.338H612.198V-0.00012207H498.41V246.338Z" fill="#4A8068"/>
<path d="M371.801 246.179H486.113V82.998H371.801V246.179Z" fill="#9C4A9A"/>
<path d="M486.391 0H371V73.0382H486.391V0Z" fill="#4A8068"/>
<path d="M371 330H613V256.298H371V330Z" fill="#F69722"/>
<path d="M850.41 246.338H964.198V-0.00012207H850.41V246.338Z" fill="#E62C20"/>
<path d="M723.801 246.179H838.113V82.998H723.801V246.179Z" fill="#4A8068"/>
<path d="M838.391 0H723V73.0382H838.391V0Z" fill="#E62C20"/>
<path d="M723 330H965V256.298H723V330Z" fill="#9C4A9A"/>
<rect x="36" width="333" height="333" fill="#171717"/>
<path d="M197.786 204.08C191.546 204.08 185.219 203.387 178.806 202C172.393 200.613 166.759 198.577 161.906 195.89L172.306 173.27C176.206 175.523 180.279 177.213 184.526 178.34C188.773 179.38 192.803 179.9 196.616 179.9C200.083 179.9 202.943 179.293 205.196 178.08C207.449 176.867 208.576 175.09 208.576 172.75C208.576 171.45 208.186 170.323 207.406 169.37C206.626 168.33 205.239 167.55 203.246 167.03C201.339 166.51 198.523 166.25 194.796 166.25H168.406L172.956 111H233.406V134.14H183.746L199.216 121.01L196.486 156.24L181.016 143.11H202.206C211.219 143.11 218.413 144.41 223.786 147.01C229.246 149.61 233.189 153.12 235.616 157.54C238.129 161.873 239.386 166.727 239.386 172.1C239.386 177.473 237.913 182.63 234.966 187.57C232.106 192.423 227.599 196.41 221.446 199.53C215.379 202.563 207.493 204.08 197.786 204.08Z" fill="#EEEEEE"/>
<path d="M121.013 266.8L120.573 257.92L132.613 245H141.333L129.333 258L124.933 262.6L121.013 266.8ZM113.933 273V245H121.773V273H113.933ZM132.733 273L123.613 261.44L128.773 255.92L141.933 273H132.733ZM156.461 273V268.96L155.941 267.96V260.52C155.941 259.32 155.568 258.4 154.821 257.76C154.101 257.093 152.941 256.76 151.341 256.76C150.301 256.76 149.248 256.933 148.181 257.28C147.115 257.6 146.208 258.053 145.461 258.64L142.901 253.48C144.128 252.68 145.595 252.067 147.301 251.64C149.035 251.187 150.755 250.96 152.461 250.96C155.981 250.96 158.701 251.773 160.621 253.4C162.568 255 163.541 257.52 163.541 260.96V273H156.461ZM150.061 273.36C148.328 273.36 146.861 273.067 145.661 272.48C144.461 271.893 143.541 271.093 142.901 270.08C142.288 269.067 141.981 267.933 141.981 266.68C141.981 265.347 142.315 264.2 142.981 263.24C143.675 262.253 144.728 261.507 146.141 261C147.555 260.467 149.381 260.2 151.621 260.2H156.741V264.16H152.661C151.435 264.16 150.568 264.36 150.061 264.76C149.581 265.16 149.341 265.693 149.341 266.36C149.341 267.027 149.595 267.56 150.101 267.96C150.608 268.36 151.301 268.56 152.181 268.56C153.008 268.56 153.755 268.36 154.421 267.96C155.115 267.533 155.621 266.893 155.941 266.04L156.981 268.84C156.581 270.333 155.795 271.467 154.621 272.24C153.475 272.987 151.955 273.36 150.061 273.36ZM178.018 273.36C175.245 273.36 173.085 272.68 171.538 271.32C169.992 269.933 169.218 267.853 169.218 265.08V246.48H176.818V265C176.818 265.773 177.032 266.387 177.458 266.84C177.885 267.267 178.432 267.48 179.098 267.48C180.005 267.48 180.778 267.253 181.418 266.8L183.298 272.12C182.658 272.547 181.872 272.853 180.938 273.04C180.005 273.253 179.032 273.36 178.018 273.36ZM166.058 257.8V252.12H181.778V257.8H166.058ZM196.964 273.36C194.404 273.36 192.164 272.88 190.244 271.92C188.351 270.933 186.871 269.6 185.804 267.92C184.764 266.213 184.244 264.28 184.244 262.12C184.244 259.96 184.751 258.04 185.764 256.36C186.804 254.653 188.231 253.333 190.044 252.4C191.857 251.44 193.897 250.96 196.164 250.96C198.297 250.96 200.244 251.4 202.004 252.28C203.764 253.133 205.164 254.4 206.204 256.08C207.244 257.76 207.764 259.8 207.764 262.2C207.764 262.467 207.751 262.773 207.724 263.12C207.697 263.467 207.671 263.787 207.644 264.08H190.484V260.08H203.604L200.724 261.2C200.751 260.213 200.564 259.36 200.164 258.64C199.791 257.92 199.257 257.36 198.564 256.96C197.897 256.56 197.111 256.36 196.204 256.36C195.297 256.36 194.497 256.56 193.804 256.96C193.137 257.36 192.617 257.933 192.244 258.68C191.871 259.4 191.684 260.253 191.684 261.24V262.4C191.684 263.467 191.897 264.387 192.324 265.16C192.777 265.933 193.417 266.533 194.244 266.96C195.071 267.36 196.057 267.56 197.204 267.56C198.271 267.56 199.177 267.413 199.924 267.12C200.697 266.8 201.457 266.32 202.204 265.68L206.204 269.84C205.164 270.987 203.884 271.867 202.364 272.48C200.844 273.067 199.044 273.36 196.964 273.36ZM221.868 281.12C219.788 281.12 217.801 280.88 215.908 280.4C214.041 279.92 212.441 279.213 211.108 278.28L213.868 272.96C214.775 273.68 215.895 274.24 217.228 274.64C218.588 275.067 219.908 275.28 221.188 275.28C223.241 275.28 224.721 274.827 225.628 273.92C226.535 273.04 226.988 271.747 226.988 270.04V267.48L227.388 261.4L227.348 255.28V251.32H234.588V269.04C234.588 273.147 233.481 276.187 231.268 278.16C229.055 280.133 225.921 281.12 221.868 281.12ZM220.548 271.88C218.628 271.88 216.855 271.453 215.228 270.6C213.628 269.72 212.335 268.507 211.348 266.96C210.388 265.387 209.908 263.533 209.908 261.4C209.908 259.267 210.388 257.427 211.348 255.88C212.335 254.307 213.628 253.093 215.228 252.24C216.855 251.387 218.628 250.96 220.548 250.96C222.388 250.96 223.961 251.333 225.268 252.08C226.575 252.8 227.561 253.933 228.228 255.48C228.921 257.027 229.268 259 229.268 261.4C229.268 263.8 228.921 265.773 228.228 267.32C227.561 268.867 226.575 270.013 225.268 270.76C223.961 271.507 222.388 271.88 220.548 271.88ZM222.348 265.84C223.255 265.84 224.055 265.653 224.748 265.28C225.468 264.907 226.028 264.387 226.428 263.72C226.855 263.053 227.068 262.28 227.068 261.4C227.068 260.52 226.855 259.747 226.428 259.08C226.028 258.413 225.468 257.907 224.748 257.56C224.055 257.187 223.255 257 222.348 257C221.441 257 220.628 257.187 219.908 257.56C219.188 257.907 218.615 258.413 218.188 259.08C217.788 259.747 217.588 260.52 217.588 261.4C217.588 262.28 217.788 263.053 218.188 263.72C218.615 264.387 219.188 264.907 219.908 265.28C220.628 265.653 221.441 265.84 222.348 265.84ZM250.351 273.36C247.978 273.36 245.871 272.88 244.031 271.92C242.191 270.96 240.738 269.64 239.671 267.96C238.631 266.253 238.111 264.307 238.111 262.12C238.111 259.933 238.631 258 239.671 256.32C240.738 254.64 242.191 253.333 244.031 252.4C245.871 251.44 247.978 250.96 250.351 250.96C252.725 250.96 254.831 251.44 256.671 252.4C258.538 253.333 259.991 254.64 261.031 256.32C262.071 258 262.591 259.933 262.591 262.12C262.591 264.307 262.071 266.253 261.031 267.96C259.991 269.64 258.538 270.96 256.671 271.92C254.831 272.88 252.725 273.36 250.351 273.36ZM250.351 267.32C251.231 267.32 252.005 267.12 252.671 266.72C253.365 266.32 253.911 265.733 254.311 264.96C254.711 264.16 254.911 263.213 254.911 262.12C254.911 261.027 254.711 260.107 254.311 259.36C253.911 258.587 253.365 258 252.671 257.6C252.005 257.2 251.231 257 250.351 257C249.498 257 248.725 257.2 248.031 257.6C247.365 258 246.818 258.587 246.391 259.36C245.991 260.107 245.791 261.027 245.791 262.12C245.791 263.213 245.991 264.16 246.391 264.96C246.818 265.733 247.365 266.32 248.031 266.72C248.725 267.12 249.498 267.32 250.351 267.32ZM266.112 273V251.32H273.352V257.64L272.272 255.84C272.912 254.213 273.952 253 275.392 252.2C276.832 251.373 278.579 250.96 280.632 250.96V257.8C280.285 257.747 279.979 257.72 279.712 257.72C279.472 257.693 279.205 257.68 278.912 257.68C277.365 257.68 276.112 258.107 275.152 258.96C274.192 259.787 273.712 261.147 273.712 263.04V273H266.112ZM283.768 273V251.32H291.368V273H283.768ZM287.568 248.92C286.181 248.92 285.061 248.533 284.208 247.76C283.355 246.987 282.928 246.027 282.928 244.88C282.928 243.733 283.355 242.773 284.208 242C285.061 241.227 286.181 240.84 287.568 240.84C288.955 240.84 290.075 241.213 290.928 241.96C291.781 242.68 292.208 243.613 292.208 244.76C292.208 245.96 291.781 246.96 290.928 247.76C290.101 248.533 288.981 248.92 287.568 248.92Z" fill="#EEEEEE"/>
<rect x="389" width="333" height="333" fill="#171717"/>
<path d="M469.531 202V121.66L482.661 134.14H453.931V111H500.211V202H469.531ZM511.257 202V183.15L544.147 152.73C546.227 150.737 547.744 149.003 548.697 147.53C549.737 146.057 550.431 144.757 550.777 143.63C551.124 142.417 551.297 141.29 551.297 140.25C551.297 137.997 550.561 136.263 549.087 135.05C547.614 133.75 545.404 133.1 542.457 133.1C539.771 133.1 537.214 133.837 534.787 135.31C532.361 136.697 530.454 138.777 529.067 141.55L505.927 129.98C509.221 123.74 514.161 118.67 520.747 114.77C527.334 110.87 535.524 108.92 545.317 108.92C552.511 108.92 558.881 110.09 564.427 112.43C569.974 114.77 574.307 118.063 577.427 122.31C580.547 126.557 582.107 131.583 582.107 137.39C582.107 140.337 581.717 143.283 580.937 146.23C580.244 149.177 578.771 152.297 576.517 155.59C574.264 158.797 570.927 162.393 566.507 166.38L541.807 188.87L536.997 178.21H584.187V202H511.257ZM631.689 204.08C623.629 204.08 616.479 202.217 610.239 198.49C604.086 194.763 599.232 189.347 595.679 182.24C592.212 175.133 590.479 166.553 590.479 156.5C590.479 146.447 592.212 137.867 595.679 130.76C599.232 123.653 604.086 118.237 610.239 114.51C616.479 110.783 623.629 108.92 631.689 108.92C639.749 108.92 646.856 110.783 653.009 114.51C659.249 118.237 664.102 123.653 667.569 130.76C671.122 137.867 672.899 146.447 672.899 156.5C672.899 166.553 671.122 175.133 667.569 182.24C664.102 189.347 659.249 194.763 653.009 198.49C646.856 202.217 639.749 204.08 631.689 204.08ZM631.689 179.51C633.682 179.51 635.459 178.817 637.019 177.43C638.579 176.043 639.792 173.66 640.659 170.28C641.612 166.9 642.089 162.307 642.089 156.5C642.089 150.607 641.612 146.013 640.659 142.72C639.792 139.34 638.579 136.957 637.019 135.57C635.459 134.183 633.682 133.49 631.689 133.49C629.696 133.49 627.919 134.183 626.359 135.57C624.799 136.957 623.542 139.34 622.589 142.72C621.722 146.013 621.289 150.607 621.289 156.5C621.289 162.307 621.722 166.9 622.589 170.28C623.542 173.66 624.799 176.043 626.359 177.43C627.919 178.817 629.696 179.51 631.689 179.51Z" fill="#EEEEEE"/>
<path d="M480.033 273V251.28H471.433V245H496.513V251.28H487.953V273H480.033ZM508.277 273.36C505.717 273.36 503.477 272.88 501.557 271.92C499.663 270.933 498.183 269.6 497.117 267.92C496.077 266.213 495.557 264.28 495.557 262.12C495.557 259.96 496.063 258.04 497.077 256.36C498.117 254.653 499.543 253.333 501.357 252.4C503.17 251.44 505.21 250.96 507.477 250.96C509.61 250.96 511.557 251.4 513.317 252.28C515.077 253.133 516.477 254.4 517.517 256.08C518.557 257.76 519.077 259.8 519.077 262.2C519.077 262.467 519.063 262.773 519.037 263.12C519.01 263.467 518.983 263.787 518.957 264.08H501.797V260.08H514.917L512.037 261.2C512.063 260.213 511.877 259.36 511.477 258.64C511.103 257.92 510.57 257.36 509.877 256.96C509.21 256.56 508.423 256.36 507.517 256.36C506.61 256.36 505.81 256.56 505.117 256.96C504.45 257.36 503.93 257.933 503.557 258.68C503.183 259.4 502.997 260.253 502.997 261.24V262.4C502.997 263.467 503.21 264.387 503.637 265.16C504.09 265.933 504.73 266.533 505.557 266.96C506.383 267.36 507.37 267.56 508.517 267.56C509.583 267.56 510.49 267.413 511.237 267.12C512.01 266.8 512.77 266.32 513.517 265.68L517.517 269.84C516.477 270.987 515.197 271.867 513.677 272.48C512.157 273.067 510.357 273.36 508.277 273.36ZM536.701 250.96C538.381 250.96 539.901 251.307 541.261 252C542.621 252.667 543.687 253.707 544.461 255.12C545.261 256.533 545.661 258.36 545.661 260.6V273H538.061V261.84C538.061 260.293 537.741 259.173 537.101 258.48C536.487 257.76 535.621 257.4 534.501 257.4C533.701 257.4 532.967 257.587 532.301 257.96C531.634 258.307 531.114 258.853 530.741 259.6C530.367 260.347 530.181 261.32 530.181 262.52V273H522.581V251.32H529.821V257.48L528.421 255.68C529.247 254.107 530.381 252.933 531.821 252.16C533.261 251.36 534.887 250.96 536.701 250.96ZM563.672 273V268.96L563.152 267.96V260.52C563.152 259.32 562.779 258.4 562.032 257.76C561.312 257.093 560.152 256.76 558.552 256.76C557.512 256.76 556.459 256.933 555.392 257.28C554.326 257.6 553.419 258.053 552.672 258.64L550.112 253.48C551.339 252.68 552.806 252.067 554.512 251.64C556.246 251.187 557.966 250.96 559.672 250.96C563.192 250.96 565.912 251.773 567.832 253.4C569.779 255 570.752 257.52 570.752 260.96V273H563.672ZM557.272 273.36C555.539 273.36 554.072 273.067 552.872 272.48C551.672 271.893 550.752 271.093 550.112 270.08C549.499 269.067 549.192 267.933 549.192 266.68C549.192 265.347 549.526 264.2 550.192 263.24C550.886 262.253 551.939 261.507 553.352 261C554.766 260.467 556.592 260.2 558.832 260.2H563.952V264.16H559.872C558.646 264.16 557.779 264.36 557.272 264.76C556.792 265.16 556.552 265.693 556.552 266.36C556.552 267.027 556.806 267.56 557.312 267.96C557.819 268.36 558.512 268.56 559.392 268.56C560.219 268.56 560.966 268.36 561.632 267.96C562.326 267.533 562.832 266.893 563.152 266.04L564.192 268.84C563.792 270.333 563.006 271.467 561.832 272.24C560.686 272.987 559.166 273.36 557.272 273.36ZM589.669 250.96C591.349 250.96 592.869 251.307 594.229 252C595.589 252.667 596.656 253.707 597.429 255.12C598.229 256.533 598.629 258.36 598.629 260.6V273H591.029V261.84C591.029 260.293 590.709 259.173 590.069 258.48C589.456 257.76 588.589 257.4 587.469 257.4C586.669 257.4 585.936 257.587 585.269 257.96C584.603 258.307 584.083 258.853 583.709 259.6C583.336 260.347 583.149 261.32 583.149 262.52V273H575.549V251.32H582.789V257.48L581.389 255.68C582.216 254.107 583.349 252.933 584.789 252.16C586.229 251.36 587.856 250.96 589.669 250.96ZM613.081 273.36C610.308 273.36 608.148 272.68 606.601 271.32C605.054 269.933 604.281 267.853 604.281 265.08V246.48H611.881V265C611.881 265.773 612.094 266.387 612.521 266.84C612.948 267.267 613.494 267.48 614.161 267.48C615.068 267.48 615.841 267.253 616.481 266.8L618.361 272.12C617.721 272.547 616.934 272.853 616.001 273.04C615.068 273.253 614.094 273.36 613.081 273.36ZM601.121 257.8V252.12H616.841V257.8H601.121ZM629.172 273.36C627.332 273.36 625.532 273.147 623.772 272.72C622.038 272.293 620.638 271.76 619.572 271.12L621.852 265.92C622.865 266.533 624.052 267.027 625.412 267.4C626.772 267.747 628.105 267.92 629.412 267.92C630.692 267.92 631.572 267.787 632.052 267.52C632.558 267.253 632.812 266.893 632.812 266.44C632.812 266.013 632.572 265.707 632.092 265.52C631.638 265.307 631.025 265.147 630.252 265.04C629.505 264.933 628.678 264.813 627.772 264.68C626.865 264.547 625.945 264.373 625.012 264.16C624.105 263.92 623.265 263.573 622.492 263.12C621.745 262.64 621.145 262 620.692 261.2C620.238 260.4 620.012 259.387 620.012 258.16C620.012 256.773 620.412 255.547 621.212 254.48C622.038 253.387 623.238 252.533 624.812 251.92C626.385 251.28 628.305 250.96 630.572 250.96C632.092 250.96 633.625 251.12 635.172 251.44C636.745 251.733 638.065 252.187 639.132 252.8L636.852 257.96C635.785 257.347 634.718 256.933 633.652 256.72C632.585 256.48 631.572 256.36 630.612 256.36C629.332 256.36 628.425 256.507 627.892 256.8C627.385 257.093 627.132 257.453 627.132 257.88C627.132 258.307 627.358 258.64 627.812 258.88C628.265 259.093 628.865 259.267 629.612 259.4C630.385 259.507 631.225 259.627 632.132 259.76C633.038 259.867 633.945 260.04 634.852 260.28C635.785 260.52 636.625 260.88 637.372 261.36C638.145 261.813 638.758 262.44 639.212 263.24C639.665 264.013 639.892 265.013 639.892 266.24C639.892 267.573 639.478 268.773 638.652 269.84C637.852 270.907 636.652 271.76 635.052 272.4C633.478 273.04 631.518 273.36 629.172 273.36Z" fill="#EEEEEE"/>
<rect x="742" width="333" height="333" fill="#171717"/>
<path d="M789.876 202V183.15L822.766 152.73C824.846 150.737 826.363 149.003 827.316 147.53C828.356 146.057 829.05 144.757 829.396 143.63C829.743 142.417 829.916 141.29 829.916 140.25C829.916 137.997 829.18 136.263 827.706 135.05C826.233 133.75 824.023 133.1 821.076 133.1C818.39 133.1 815.833 133.837 813.406 135.31C810.98 136.697 809.073 138.777 807.686 141.55L784.546 129.98C787.84 123.74 792.78 118.67 799.366 114.77C805.953 110.87 814.143 108.92 823.936 108.92C831.13 108.92 837.5 110.09 843.046 112.43C848.593 114.77 852.926 118.063 856.046 122.31C859.166 126.557 860.726 131.583 860.726 137.39C860.726 140.337 860.336 143.283 859.556 146.23C858.863 149.177 857.39 152.297 855.136 155.59C852.883 158.797 849.546 162.393 845.126 166.38L820.426 188.87L815.616 178.21H862.806V202H789.876ZM901.858 204.08C895.618 204.08 889.291 203.387 882.878 202C876.465 200.613 870.831 198.577 865.978 195.89L876.378 173.27C880.278 175.523 884.351 177.213 888.598 178.34C892.845 179.38 896.875 179.9 900.688 179.9C904.155 179.9 907.015 179.293 909.268 178.08C911.521 176.867 912.648 175.09 912.648 172.75C912.648 171.45 912.258 170.323 911.478 169.37C910.698 168.33 909.311 167.55 907.318 167.03C905.411 166.51 902.595 166.25 898.868 166.25H872.478L877.028 111H937.478V134.14H887.818L903.288 121.01L900.558 156.24L885.088 143.11H906.278C915.291 143.11 922.485 144.41 927.858 147.01C933.318 149.61 937.261 153.12 939.688 157.54C942.201 161.873 943.458 166.727 943.458 172.1C943.458 177.473 941.985 182.63 939.038 187.57C936.178 192.423 931.671 196.41 925.518 199.53C919.451 202.563 911.565 204.08 901.858 204.08ZM993.266 204.08C984.6 204.08 976.973 202.433 970.386 199.14C963.886 195.76 958.773 190.777 955.046 184.19C951.406 177.517 949.586 169.24 949.586 159.36C949.586 148.7 951.71 139.643 955.956 132.19C960.203 124.65 966.096 118.887 973.636 114.9C981.263 110.913 990.06 108.92 1000.03 108.92C1005.4 108.92 1010.56 109.57 1015.5 110.87C1020.52 112.083 1024.77 113.817 1028.24 116.07L1017.19 137.52C1014.5 135.613 1011.77 134.357 1009 133.75C1006.31 133.057 1003.54 132.71 1000.68 132.71C994.523 132.71 989.583 134.573 985.856 138.3C982.216 141.94 980.396 147.27 980.396 154.29C980.396 155.59 980.396 156.89 980.396 158.19C980.396 159.403 980.396 160.66 980.396 161.96L973.376 156.89C975.11 153.943 977.146 151.473 979.486 149.48C981.826 147.4 984.6 145.84 987.806 144.8C991.013 143.673 994.74 143.11 998.986 143.11C1004.53 143.11 1009.65 144.323 1014.33 146.75C1019.09 149.09 1022.91 152.427 1025.77 156.76C1028.71 161.093 1030.19 166.25 1030.19 172.23C1030.19 178.73 1028.54 184.363 1025.25 189.13C1021.95 193.897 1017.49 197.58 1011.86 200.18C1006.31 202.78 1000.11 204.08 993.266 204.08ZM991.186 182.89C993.006 182.89 994.61 182.543 995.996 181.85C997.47 181.07 998.596 179.987 999.376 178.6C1000.16 177.213 1000.55 175.567 1000.55 173.66C1000.55 170.8 999.68 168.547 997.946 166.9C996.213 165.167 993.96 164.3 991.186 164.3C989.366 164.3 987.763 164.69 986.376 165.47C984.99 166.25 983.863 167.333 982.996 168.72C982.216 170.107 981.826 171.753 981.826 173.66C981.826 175.567 982.216 177.213 982.996 178.6C983.863 179.987 984.99 181.07 986.376 181.85C987.763 182.543 989.366 182.89 991.186 182.89Z" fill="#EEEEEE"/>
<path d="M833.097 273V245H845.897C848.457 245 850.657 245.413 852.497 246.24C854.364 247.067 855.804 248.267 856.817 249.84C857.83 251.387 858.337 253.227 858.337 255.36C858.337 257.467 857.83 259.293 856.817 260.84C855.804 262.387 854.364 263.587 852.497 264.44C850.657 265.267 848.457 265.68 845.897 265.68H837.497L841.017 262.24V273H833.097ZM841.017 263.08L837.497 259.44H845.417C847.07 259.44 848.297 259.08 849.097 258.36C849.924 257.64 850.337 256.64 850.337 255.36C850.337 254.053 849.924 253.04 849.097 252.32C848.297 251.6 847.07 251.24 845.417 251.24H837.497L841.017 247.6V263.08ZM861.995 273V251.32H869.235V257.64L868.155 255.84C868.795 254.213 869.835 253 871.275 252.2C872.715 251.373 874.461 250.96 876.515 250.96V257.8C876.168 257.747 875.861 257.72 875.595 257.72C875.355 257.693 875.088 257.68 874.795 257.68C873.248 257.68 871.995 258.107 871.035 258.96C870.075 259.787 869.595 261.147 869.595 263.04V273H861.995ZM890.336 273.36C887.962 273.36 885.856 272.88 884.016 271.92C882.176 270.96 880.722 269.64 879.656 267.96C878.616 266.253 878.096 264.307 878.096 262.12C878.096 259.933 878.616 258 879.656 256.32C880.722 254.64 882.176 253.333 884.016 252.4C885.856 251.44 887.962 250.96 890.336 250.96C892.709 250.96 894.816 251.44 896.656 252.4C898.522 253.333 899.976 254.64 901.016 256.32C902.056 258 902.576 259.933 902.576 262.12C902.576 264.307 902.056 266.253 901.016 267.96C899.976 269.64 898.522 270.96 896.656 271.92C894.816 272.88 892.709 273.36 890.336 273.36ZM890.336 267.32C891.216 267.32 891.989 267.12 892.656 266.72C893.349 266.32 893.896 265.733 894.296 264.96C894.696 264.16 894.896 263.213 894.896 262.12C894.896 261.027 894.696 260.107 894.296 259.36C893.896 258.587 893.349 258 892.656 257.6C891.989 257.2 891.216 257 890.336 257C889.482 257 888.709 257.2 888.016 257.6C887.349 258 886.802 258.587 886.376 259.36C885.976 260.107 885.776 261.027 885.776 262.12C885.776 263.213 885.976 264.16 886.376 264.96C886.802 265.733 887.349 266.32 888.016 266.72C888.709 267.12 889.482 267.32 890.336 267.32ZM915.536 273.36C913.563 273.36 911.763 272.907 910.136 272C908.536 271.067 907.256 269.773 906.296 268.12C905.336 266.44 904.856 264.44 904.856 262.12C904.856 259.827 905.336 257.853 906.296 256.2C907.256 254.52 908.536 253.227 910.136 252.32C911.763 251.413 913.563 250.96 915.536 250.96C917.403 250.96 918.976 251.36 920.256 252.16C921.563 252.96 922.55 254.187 923.216 255.84C923.883 257.493 924.216 259.587 924.216 262.12C924.216 264.707 923.896 266.827 923.256 268.48C922.616 270.133 921.656 271.36 920.376 272.16C919.096 272.96 917.483 273.36 915.536 273.36ZM917.136 267.32C917.99 267.32 918.75 267.12 919.416 266.72C920.11 266.32 920.656 265.733 921.056 264.96C921.456 264.16 921.656 263.213 921.656 262.12C921.656 261.027 921.456 260.107 921.056 259.36C920.656 258.587 920.11 258 919.416 257.6C918.75 257.2 917.99 257 917.136 257C916.256 257 915.47 257.2 914.776 257.6C914.11 258 913.576 258.587 913.176 259.36C912.776 260.107 912.576 261.027 912.576 262.12C912.576 263.213 912.776 264.16 913.176 264.96C913.576 265.733 914.11 266.32 914.776 266.72C915.47 267.12 916.256 267.32 917.136 267.32ZM921.896 273V269.28L921.936 262.12L921.536 254.96V243.32H929.136V273H921.896ZM943.146 273.36C941.386 273.36 939.799 273.013 938.386 272.32C936.999 271.627 935.906 270.547 935.106 269.08C934.333 267.587 933.946 265.707 933.946 263.44V251.32H941.546V262.2C941.546 263.88 941.853 265.08 942.466 265.8C943.106 266.52 943.999 266.88 945.146 266.88C945.893 266.88 946.573 266.707 947.186 266.36C947.799 266.013 948.293 265.467 948.666 264.72C949.039 263.947 949.226 262.96 949.226 261.76V251.32H956.826V273H949.586V266.88L950.986 268.6C950.239 270.2 949.159 271.4 947.746 272.2C946.333 272.973 944.799 273.36 943.146 273.36ZM968.041 269L968.241 259.92L977.081 251.32H986.081L976.281 261.44L972.401 264.56L968.041 269ZM961.721 273V243.32H969.321V273H961.721ZM977.641 273L971.001 264.68L975.721 258.84L986.841 273H977.641Z" fill="#EEEEEE"/>
</svg>
