<svg width="1260" height="61" viewBox="0 0 1260 61" fill="none" xmlns="http://www.w3.org/2000/svg">
<path d="M480.944 48V13H492.744V48H480.944ZM498.424 48V13H508.124L525.924 34.3H521.424V13H532.924V48H523.224L505.424 26.7H509.924V48H498.424ZM549.61 27.9H565.01V36.8H549.61V27.9ZM550.41 48H538.61V13H567.06V21.9H550.41V48ZM613.17 48V13H630.02C633.287 13 636.104 13.5333 638.47 14.6C640.87 15.6667 642.72 17.2 644.02 19.2C645.32 21.1667 645.97 23.5 645.97 26.2C645.97 28.9 645.32 31.2333 644.02 33.2C642.72 35.1333 640.87 36.6167 638.47 37.65C636.104 38.6833 633.287 39.2 630.02 39.2H619.72L624.97 34.35V48H613.17ZM634.12 48L625.52 35.25H638.02L646.72 48H634.12ZM624.97 35.65L619.72 30.3H629.27C630.904 30.3 632.104 29.9333 632.87 29.2C633.67 28.4667 634.07 27.4667 634.07 26.2C634.07 24.9333 633.67 23.9333 632.87 23.2C632.104 22.4667 630.904 22.1 629.27 22.1H619.72L624.97 16.75V35.65ZM650.426 48V13H660.126L674.126 35.85H669.026L682.626 13H692.326L692.426 48H681.676L681.576 29.2H683.276L673.976 44.85H668.776L659.076 29.2H661.176V48H650.426ZM751.464 48.8C748.531 48.8 745.698 48.4667 742.964 47.8C740.231 47.1333 737.981 46.2667 736.214 45.2L740.014 36.6C741.681 37.5667 743.531 38.35 745.564 38.95C747.631 39.5167 749.631 39.8 751.564 39.8C752.698 39.8 753.581 39.7333 754.214 39.6C754.881 39.4333 755.364 39.2167 755.664 38.95C755.964 38.65 756.114 38.3 756.114 37.9C756.114 37.2667 755.764 36.7667 755.064 36.4C754.364 36.0333 753.431 35.7333 752.264 35.5C751.131 35.2333 749.881 34.9667 748.514 34.7C747.148 34.4 745.764 34.0167 744.364 33.55C742.998 33.0833 741.731 32.4667 740.564 31.7C739.431 30.9333 738.514 29.9333 737.814 28.7C737.114 27.4333 736.764 25.8667 736.764 24C736.764 21.8333 737.364 19.8667 738.564 18.1C739.798 16.3 741.614 14.8667 744.014 13.8C746.448 12.7333 749.464 12.2 753.064 12.2C755.431 12.2 757.764 12.45 760.064 12.95C762.364 13.45 764.431 14.2167 766.264 15.25L762.714 23.8C760.981 22.9333 759.298 22.2833 757.664 21.85C756.064 21.4167 754.498 21.2 752.964 21.2C751.831 21.2 750.931 21.3 750.264 21.5C749.598 21.7 749.114 21.9667 748.814 22.3C748.548 22.6333 748.414 23 748.414 23.4C748.414 24 748.764 24.4833 749.464 24.85C750.164 25.1833 751.081 25.4667 752.214 25.7C753.381 25.9333 754.648 26.1833 756.014 26.45C757.414 26.7167 758.798 27.0833 760.164 27.55C761.531 28.0167 762.781 28.6333 763.914 29.4C765.081 30.1667 766.014 31.1667 766.714 32.4C767.414 33.6333 767.764 35.1667 767.764 37C767.764 39.1333 767.148 41.1 765.914 42.9C764.714 44.6667 762.914 46.1 760.514 47.2C758.114 48.2667 755.098 48.8 751.464 48.8ZM771.276 48V13H783.076V48H771.276Z" fill="#EEEEEE"/>
<path d="M589.138 48.8C586.304 48.8 583.671 48.35 581.238 47.45C578.838 46.55 576.754 45.2833 574.988 43.65C573.221 41.9833 571.838 40.0333 570.838 37.8C569.871 35.5667 569.388 33.1333 569.388 30.5C569.388 27.8333 569.871 25.4 570.838 23.2C571.838 20.9667 573.221 19.0333 574.988 17.4C576.754 15.7333 578.838 14.45 581.238 13.55C583.671 12.65 586.304 12.2 589.138 12.2C592.004 12.2 594.638 12.65 597.038 13.55C599.438 14.45 601.521 15.7333 603.288 17.4C605.054 19.0333 606.421 20.9667 607.388 23.2C608.388 25.4 608.888 27.8333 608.888 30.5C608.888 33.1333 608.388 35.5667 607.388 37.8C606.421 40.0333 605.054 41.9833 603.288 43.65C601.521 45.2833 599.438 46.55 597.038 47.45C594.638 48.35 592.004 48.8 589.138 48.8ZM589.138 39.25C590.238 39.25 591.254 39.05 592.188 38.65C593.154 38.25 593.988 37.6833 594.688 36.95C595.421 36.1833 595.988 35.2667 596.388 34.2C596.788 33.1 596.988 31.8667 596.988 30.5C596.988 29.1333 596.788 27.9167 596.388 26.85C595.988 25.75 595.421 24.8333 594.688 24.1C593.988 23.3333 593.154 22.75 592.188 22.35C591.254 21.95 590.238 21.75 589.138 21.75C588.038 21.75 587.004 21.95 586.038 22.35C585.104 22.75 584.271 23.3333 583.538 24.1C582.838 24.8333 582.288 25.75 581.888 26.85C581.488 27.9167 581.288 29.1333 581.288 30.5C581.288 31.8667 581.488 33.1 581.888 34.2C582.288 35.2667 582.838 36.1833 583.538 36.95C584.271 37.6833 585.104 38.25 586.038 38.65C587.004 39.05 588.038 39.25 589.138 39.25Z" fill="#E62C20"/>
<path d="M694.331 48L709.631 13H721.231L736.531 48H724.331L713.031 18.6H717.631L706.331 48H694.331ZM703.431 41.9L706.431 33.4H722.531L725.531 41.9H703.431Z" fill="#4A8068"/>
<path d="M579.5 39V21.5H599.5V39H579.5Z" fill="#E62C20"/>
<path d="M702.5 48L715 22L729.5 48H702.5Z" fill="#4A8068"/>
<path d="M1260 30L870 30" stroke="#EEEEEE" stroke-width="5" stroke-linejoin="round"/>
<path d="M877.633 60H881.307V46.5307H877.633V44.0817H873.96V40.4083H870.286V36.7348H867.837V50.2041H871.511V52.6531H873.96V56.3265H877.633V60Z" fill="#D9D9D9"/>
<path d="M854.367 60H850.693V46.5307H854.367V44.0817H858.04V40.4083H861.714V36.7348H864.163V50.2041H860.489V52.6531H858.04V56.3265H854.367V60Z" fill="#D9D9D9"/>
<path d="M859.266 35.5104V31.8369L845.796 31.8369V35.5104H843.347V39.1838H839.674V42.8573H836V45.3062L849.47 45.3062V41.6328H851.919V39.1838H855.592V35.5104H859.266Z" fill="#D9D9D9"/>
<path d="M836 18.3668V14.6934L849.469 14.6934V18.3668H851.918L851.918 22.0403L855.592 22.0403V25.7137H859.265V28.1627L845.796 28.1627V24.4892L843.347 24.4892V22.0403L839.673 22.0403V18.3668H836Z" fill="#D9D9D9"/>
<path d="M854.367 0L850.693 0V13.4693L854.367 13.4693V15.9183H858.04V19.5917H861.714V23.2652H864.163V9.79587H860.489V7.3469H858.04V3.67345L854.367 3.67345V0Z" fill="#D9D9D9"/>
<path d="M877.633 0L881.307 0V13.4693L877.633 13.4693V15.9183H873.96V19.5917H870.286V23.2652H867.837V9.79587H871.511V7.3469H873.96V3.67345L877.633 3.67345V0Z" fill="#D9D9D9"/>
<path d="M896 41.6327V45.3062L882.531 45.3062V41.6327H880.082V37.9593H876.408V34.2858H872.735V31.8368L886.204 31.8368L886.204 35.5103H888.653V37.9593H892.327V41.6327H896Z" fill="#D9D9D9"/>
<path d="M872.734 24.4896L872.734 28.1631L886.204 28.1631L886.204 24.4896L888.653 24.4896L888.653 20.8162L892.326 20.8162L892.326 17.1427L896 17.1427L896 14.6938L882.53 14.6938L882.53 18.3672L880.081 18.3672L880.081 20.8162L876.408 20.8162L876.408 24.4896L872.734 24.4896Z" fill="#D9D9D9"/>
<rect x="867.836" y="31.8369" width="3.67347" height="3.67345" transform="rotate(180 867.836 31.8369)" fill="#D9D9D9"/>
<path d="M0 30L390 30" stroke="#EEEEEE" stroke-width="5" stroke-linejoin="round"/>
<path d="M382.367 0L378.693 0V13.4693H382.367V15.9183L386.04 15.9183V19.5917L389.714 19.5917V23.2652H392.163V9.79587H388.489V7.3469H386.04V3.67345L382.367 3.67345V0Z" fill="#D9D9D9"/>
<path d="M405.633 0L409.307 0V13.4693H405.633V15.9183L401.96 15.9183V19.5917L398.286 19.5917V23.2652H395.837V9.79587H399.511V7.3469H401.96L401.96 3.67345L405.633 3.67345V0Z" fill="#D9D9D9"/>
<path d="M400.734 24.4896V28.1631L414.204 28.1631V24.4896H416.653V20.8162H420.326V17.1427L424 17.1427V14.6938L410.53 14.6938V18.3672H408.081V20.8162H404.408V24.4896H400.734Z" fill="#D9D9D9"/>
<path d="M424 41.6332V45.3066H410.531V41.6332H408.082V37.9597H404.408V34.2863L400.735 34.2863V31.8373L414.204 31.8373V35.5108H416.653V37.9597H420.327V41.6332H424Z" fill="#D9D9D9"/>
<path d="M405.633 60H409.307V46.5307H405.633V44.0817H401.96V40.4083H398.286V36.7348H395.837V50.2041H399.511V52.6531H401.96V56.3265H405.633V60Z" fill="#D9D9D9"/>
<path d="M382.367 60H378.693V46.5307H382.367V44.0817H386.04V40.4083H389.714V36.7348H392.163V50.2041H388.489V52.6531H386.04V56.3265H382.367V60Z" fill="#D9D9D9"/>
<path d="M364 18.3673V14.6938L377.469 14.6938V18.3673H379.918V22.0407H383.592V25.7142L387.265 25.7142V28.1632L373.796 28.1632V24.4897H371.347V22.0407H367.673V18.3673H364Z" fill="#D9D9D9"/>
<path d="M387.266 35.5104L387.266 31.8369L373.796 31.8369L373.796 35.5104L371.347 35.5104L371.347 39.1838L367.674 39.1838L367.674 42.8573L364 42.8573L364 45.3062L377.47 45.3062L377.47 41.6328L379.919 41.6328L379.919 39.1838L383.592 39.1838L383.592 35.5104L387.266 35.5104Z" fill="#D9D9D9"/>
<rect x="392.164" y="28.1631" width="3.67347" height="3.67345" fill="#D9D9D9"/>
</svg>
