<svg width="308" height="44" viewBox="0 0 308 44" fill="none" xmlns="http://www.w3.org/2000/svg">
<path d="M45.2395 35V9.8H53.7355V35H45.2395ZM57.8254 35V9.8H64.8094L77.6254 25.136H74.3854V9.8H82.6654V35H75.6814L62.8654 19.664H66.1054V35H57.8254ZM94.679 20.528H105.767V26.936H94.679V20.528ZM95.255 35H86.759V9.8H107.243V16.208H95.255V35ZM140.443 35V9.8H152.575C154.927 9.8 156.955 10.184 158.659 10.952C160.387 11.72 161.719 12.824 162.655 14.264C163.591 15.68 164.059 17.36 164.059 19.304C164.059 21.248 163.591 22.928 162.655 24.344C161.719 25.736 160.387 26.804 158.659 27.548C156.955 28.292 154.927 28.664 152.575 28.664H145.159L148.939 25.172V35H140.443ZM155.527 35L149.335 25.82H158.335L164.599 35H155.527ZM148.939 26.108L145.159 22.256H152.035C153.211 22.256 154.075 21.992 154.627 21.464C155.203 20.936 155.491 20.216 155.491 19.304C155.491 18.392 155.203 17.672 154.627 17.144C154.075 16.616 153.211 16.352 152.035 16.352H145.159L148.939 12.5V26.108ZM167.267 35V9.8H174.251L184.331 26.252H180.659L190.451 9.8H197.435L197.507 35H189.767L189.695 21.464H190.919L184.223 32.732H180.479L173.495 21.464H175.007V35H167.267ZM240.014 35.576C237.902 35.576 235.862 35.336 233.894 34.856C231.926 34.376 230.306 33.752 229.034 32.984L231.77 26.792C232.97 27.488 234.302 28.052 235.766 28.484C237.254 28.892 238.694 29.096 240.086 29.096C240.902 29.096 241.538 29.048 241.994 28.952C242.474 28.832 242.822 28.676 243.038 28.484C243.254 28.268 243.362 28.016 243.362 27.728C243.362 27.272 243.11 26.912 242.606 26.648C242.102 26.384 241.43 26.168 240.59 26C239.774 25.808 238.874 25.616 237.89 25.424C236.906 25.208 235.91 24.932 234.902 24.596C233.918 24.26 233.006 23.816 232.166 23.264C231.35 22.712 230.69 21.992 230.186 21.104C229.682 20.192 229.43 19.064 229.43 17.72C229.43 16.16 229.862 14.744 230.726 13.472C231.614 12.176 232.922 11.144 234.65 10.376C236.402 9.608 238.574 9.224 241.166 9.224C242.87 9.224 244.55 9.404 246.206 9.764C247.862 10.124 249.35 10.676 250.67 11.42L248.114 17.576C246.866 16.952 245.654 16.484 244.478 16.172C243.326 15.86 242.198 15.704 241.094 15.704C240.278 15.704 239.63 15.776 239.15 15.92C238.67 16.064 238.322 16.256 238.106 16.496C237.914 16.736 237.818 17 237.818 17.288C237.818 17.72 238.07 18.068 238.574 18.332C239.078 18.572 239.738 18.776 240.554 18.944C241.394 19.112 242.306 19.292 243.29 19.484C244.298 19.676 245.294 19.94 246.278 20.276C247.262 20.612 248.162 21.056 248.978 21.608C249.818 22.16 250.49 22.88 250.994 23.768C251.498 24.656 251.75 25.76 251.75 27.08C251.75 28.616 251.306 30.032 250.418 31.328C249.554 32.6 248.258 33.632 246.53 34.424C244.802 35.192 242.63 35.576 240.014 35.576ZM254.279 35V9.8H262.775V35H254.279Z" fill="#EEEEEE"/>
<path d="M123.139 35.576C121.099 35.576 119.203 35.252 117.451 34.604C115.723 33.956 114.223 33.044 112.951 31.868C111.679 30.668 110.683 29.264 109.963 27.656C109.267 26.048 108.919 24.296 108.919 22.4C108.919 20.48 109.267 18.728 109.963 17.144C110.683 15.536 111.679 14.144 112.951 12.968C114.223 11.768 115.723 10.844 117.451 10.196C119.203 9.548 121.099 9.224 123.139 9.224C125.203 9.224 127.099 9.548 128.827 10.196C130.555 10.844 132.055 11.768 133.327 12.968C134.599 14.144 135.583 15.536 136.279 17.144C136.999 18.728 137.359 20.48 137.359 22.4C137.359 24.296 136.999 26.048 136.279 27.656C135.583 29.264 134.599 30.668 133.327 31.868C132.055 33.044 130.555 33.956 128.827 34.604C127.099 35.252 125.203 35.576 123.139 35.576ZM123.139 28.7C123.931 28.7 124.663 28.556 125.335 28.268C126.031 27.98 126.631 27.572 127.135 27.044C127.663 26.492 128.071 25.832 128.359 25.064C128.647 24.272 128.791 23.384 128.791 22.4C128.791 21.416 128.647 20.54 128.359 19.772C128.071 18.98 127.663 18.32 127.135 17.792C126.631 17.24 126.031 16.82 125.335 16.532C124.663 16.244 123.931 16.1 123.139 16.1C122.347 16.1 121.603 16.244 120.907 16.532C120.235 16.82 119.635 17.24 119.107 17.792C118.603 18.32 118.207 18.98 117.919 19.772C117.631 20.54 117.487 21.416 117.487 22.4C117.487 23.384 117.631 24.272 117.919 25.064C118.207 25.832 118.603 26.492 119.107 27.044C119.635 27.572 120.235 27.98 120.907 28.268C121.603 28.556 122.347 28.7 123.139 28.7Z" fill="#E62C20"/>
<path d="M198.878 35L209.895 9.8H218.247L229.263 35H220.479L212.343 13.832H215.655L207.519 35H198.878ZM205.431 30.608L207.591 24.488H219.183L221.343 30.608H205.431Z" fill="#4A8068"/>
<path d="M129 29H114V16.1667L129 15V29Z" fill="#E62C20"/>
<path d="M204 35H224L213.5 16L204 35Z" fill="#4A8068"/>
<path d="M9.18341 6H7.34668L7.34668 12.7347H9.18341L9.18341 13.9591H11.0201L11.0201 15.7959H12.8569L12.8569 17.6326H14.0814L14.0814 10.8979H12.2446V9.67345H11.0201V7.83673H9.18341V6Z" fill="#D9D9D9"/>
<path d="M20.8166 6H22.6533V12.7347H20.8166V13.9591H18.9799V15.7959H17.1431V17.6326H15.9186L15.9186 10.8979H17.7554V9.67345H18.9799V7.83673H20.8166V6Z" fill="#D9D9D9"/>
<path d="M18.3672 18.2448V20.0815H25.1019V18.2448H26.3264V16.4081H28.1631V14.5714H29.9998V13.3469H23.2651V15.1836H22.0407V16.4081H20.2039V18.2448H18.3672Z" fill="#D9D9D9"/>
<path d="M30 26.8165V28.6532H23.2653V26.8165H22.0408V24.9797H20.2041V23.143H18.3673V21.9185H25.102V23.7553H26.3265V24.9797H28.1633V26.8165H30Z" fill="#D9D9D9"/>
<path d="M20.8166 36H22.6533V29.2653H20.8166V28.0409H18.9799V26.2041H17.1431V24.3674H15.9186L15.9186 31.1021H17.7554V32.3265H18.9799V34.1633H20.8166V36Z" fill="#D9D9D9"/>
<path d="M9.18341 36H7.34668L7.34668 29.2653H9.18341L9.18341 28.0409H11.0201V26.2041H12.8569V24.3674H14.0814L14.0814 31.1021H12.2446V32.3265H11.0201V34.1633H9.18341V36Z" fill="#D9D9D9"/>
<path d="M0 15.1836L0 13.3469H6.73469L6.73469 15.1836H7.95918L7.95918 17.0204H9.79592L9.79592 18.8571H11.6327V20.0816H4.89796L4.89796 18.2449H3.67347L3.67347 17.0204H1.83673L1.83673 15.1836H0Z" fill="#D9D9D9"/>
<path d="M11.6328 23.7552L11.6328 21.9185L4.89812 21.9185L4.89812 23.7552L3.67363 23.7552L3.67363 25.5919L1.8369 25.5919L1.8369 27.4286L0.00016245 27.4286L0.00016258 28.6531L6.73486 28.6531L6.73486 26.8164L7.95934 26.8164L7.95934 25.5919L9.79608 25.5919L9.79608 23.7552L11.6328 23.7552Z" fill="#D9D9D9"/>
<rect x="14.082" y="20.0815" width="1.83673" height="1.83673" fill="#D9D9D9"/>
<path d="M298.817 36H300.653V29.2653H298.817V28.0409H296.98V26.2041H295.143V24.3674H293.919V31.1021H295.755V32.3265H296.98V34.1633H298.817V36Z" fill="#D9D9D9"/>
<path d="M287.183 36H285.347V29.2653H287.183V28.0409H289.02V26.2041H290.857V24.3674H292.081V31.1021H290.245V32.3265H289.02V34.1633H287.183V36Z" fill="#D9D9D9"/>
<path d="M289.633 23.7552V21.9185L282.898 21.9185V23.7552H281.674V25.5919H279.837V27.4286H278V28.6531L284.735 28.6531V26.8164H285.959V25.5919H287.796V23.7552H289.633Z" fill="#D9D9D9"/>
<path d="M278 15.1835V13.3468L284.735 13.3468V15.1835H285.959L285.959 17.0203H287.796V18.857H289.633V20.0815L282.898 20.0815V18.2447H281.673V17.0203H279.837V15.1835H278Z" fill="#D9D9D9"/>
<path d="M287.183 6L285.347 6V12.7347H287.183V13.9591H289.02V15.7959H290.857V17.6326H292.081V10.8979H290.245V9.67345H289.02V7.83673H287.183V6Z" fill="#D9D9D9"/>
<path d="M298.817 6L300.653 6V12.7347H298.817V13.9591H296.98V15.7959H295.143V17.6326H293.919V10.8979H295.755V9.67345H296.98V7.83673H298.817V6Z" fill="#D9D9D9"/>
<path d="M308 26.8164V28.6531L301.265 28.6531V26.8164H300.041V24.9796H298.204V23.1429H296.367V21.9184L303.102 21.9184V23.7551H304.327V24.9796H306.163V26.8164H308Z" fill="#D9D9D9"/>
<path d="M296.367 18.2448L296.367 20.0815L303.102 20.0815L303.102 18.2448L304.326 18.2448L304.326 16.4081L306.163 16.4081L306.163 14.5714L308 14.5714L308 13.3469L301.265 13.3469L301.265 15.1836L300.041 15.1836L300.041 16.4081L298.204 16.4081L298.204 18.2448L296.367 18.2448Z" fill="#D9D9D9"/>
<rect x="293.918" y="21.9185" width="1.83673" height="1.83673" transform="rotate(180 293.918 21.9185)" fill="#D9D9D9"/>
</svg>
