<svg width="202" height="44" viewBox="0 0 202 44" fill="none" xmlns="http://www.w3.org/2000/svg">
<path d="M52.9595 35V16.388H45.5795V9.8H68.8355V16.388H61.4555V35H52.9595Z" fill="#E62C20"/>
<path d="M78.8182 19.16H90.0502V25.28H78.8182V19.16ZM79.3942 28.592H91.9942V35H71.0422V9.8H91.5262V16.208H79.3942V28.592ZM126.877 35L137.893 9.8H146.245L157.261 35H148.477L140.341 13.832H143.653L135.517 35H126.877ZM133.429 30.608L135.589 24.488H147.181L149.341 30.608H133.429Z" fill="#EEEEEE"/>
<path d="M95.2649 35V9.8H102.249L112.329 26.252H108.657L118.449 9.8H125.433L125.505 35H117.765L117.693 21.464H118.917L112.221 32.732H108.477L101.493 21.464H103.005V35H95.2649Z" fill="#4A8068"/>
<path d="M118 35H103V24L118 23V35Z" fill="#4A8068"/>
<path d="M9.18341 7H7.34668L7.34668 13.7347H9.18341L9.18341 14.9591H11.0201L11.0201 16.7959H12.8569L12.8569 18.6326H14.0814L14.0814 11.8979H12.2446V10.6735H11.0201V8.83673H9.18341V7Z" fill="#D9D9D9"/>
<path d="M20.8166 7H22.6533V13.7347H20.8166V14.9591H18.9799V16.7959H17.1431V18.6326H15.9186L15.9186 11.8979H17.7554V10.6735H18.9799V8.83673H20.8166V7Z" fill="#D9D9D9"/>
<path d="M18.3672 19.2448V21.0816H25.1019V19.2448H26.3264V17.4081H28.1631V15.5714H29.9998V14.3469H23.2651V16.1836H22.0407V17.4081H20.2039V19.2448H18.3672Z" fill="#D9D9D9"/>
<path d="M30 27.8165V29.6532H23.2653V27.8165H22.0408V25.9798H20.2041V24.1431H18.3673V22.9186H25.102V24.7553H26.3265V25.9798H28.1633V27.8165H30Z" fill="#D9D9D9"/>
<path d="M20.8166 37H22.6533V30.2653H20.8166V29.0409H18.9799V27.2041H17.1431V25.3674H15.9186L15.9186 32.1021H17.7554V33.3265H18.9799V35.1633H20.8166V37Z" fill="#D9D9D9"/>
<path d="M9.18341 37H7.34668L7.34668 30.2653H9.18341L9.18341 29.0409H11.0201V27.2041H12.8569V25.3674H14.0814L14.0814 32.1021H12.2446V33.3265H11.0201V35.1633H9.18341V37Z" fill="#D9D9D9"/>
<path d="M0 16.1837L0 14.347H6.73469L6.73469 16.1837H7.95918L7.95918 18.0204H9.79592L9.79592 19.8571H11.6327V21.0816H4.89796L4.89796 19.2449H3.67347L3.67347 18.0204H1.83673L1.83673 16.1837H0Z" fill="#D9D9D9"/>
<path d="M11.6328 24.7552L11.6328 22.9184L4.89812 22.9184L4.89812 24.7552L3.67363 24.7552L3.67363 26.5919L1.8369 26.5919L1.8369 28.4286L0.00016245 28.4286L0.00016258 29.6531L6.73486 29.6531L6.73486 27.8164L7.95934 27.8164L7.95934 26.5919L9.79608 26.5919L9.79608 24.7552L11.6328 24.7552Z" fill="#D9D9D9"/>
<rect x="14.082" y="21.0816" width="1.83673" height="1.83673" fill="#D9D9D9"/>
<path d="M192.817 38H194.653V31.2653H192.817V30.0409H190.98V28.2041H189.143V26.3674H187.919V33.1021H189.755V34.3265H190.98V36.1633H192.817V38Z" fill="#D9D9D9"/>
<path d="M181.183 38H179.347V31.2653H181.183V30.0409H183.02V28.2041H184.857V26.3674H186.081V33.1021H184.245V34.3265H183.02V36.1633H181.183V38Z" fill="#D9D9D9"/>
<path d="M183.633 25.7552V23.9184L176.898 23.9184V25.7552H175.674V27.5919H173.837V29.4286H172V30.6531L178.735 30.6531V28.8164H179.959V27.5919H181.796V25.7552H183.633Z" fill="#D9D9D9"/>
<path d="M172 17.1835V15.3468L178.735 15.3468V17.1835H179.959V19.0202H181.796V20.8569H183.633V22.0814L176.898 22.0814V20.2447H175.673V19.0202H173.837V17.1835H172Z" fill="#D9D9D9"/>
<path d="M181.183 8L179.347 8V14.7347H181.183V15.9591H183.02V17.7959H184.857V19.6326H186.081V12.8979H184.245V11.6735H183.02V9.83673L181.183 9.83673V8Z" fill="#D9D9D9"/>
<path d="M192.817 8H194.653V14.7347H192.817V15.9591H190.98V17.7959H189.143V19.6326H187.919V12.8979H189.755V11.6735H190.98V9.83673L192.817 9.83673V8Z" fill="#D9D9D9"/>
<path d="M202 28.8163V30.653L195.265 30.653V28.8163H194.041V26.9796H192.204V25.1429H190.367V23.9184L197.102 23.9184V25.7551H198.327V26.9796H200.163V28.8163H202Z" fill="#D9D9D9"/>
<path d="M190.367 20.2448L190.367 22.0816L197.102 22.0816L197.102 20.2448L198.326 20.2448L198.326 18.4081L200.163 18.4081L200.163 16.5714L202 16.5714L202 15.3469L195.265 15.3469L195.265 17.1836L194.041 17.1836L194.041 18.4081L192.204 18.4081L192.204 20.2448L190.367 20.2448Z" fill="#D9D9D9"/>
<rect x="187.918" y="23.9184" width="1.83673" height="1.83673" transform="rotate(180 187.918 23.9184)" fill="#D9D9D9"/>
</svg>
