<svg width="1259" height="63" viewBox="0 0 1259 63" fill="none" xmlns="http://www.w3.org/2000/svg">
<path d="M0 33L256.73 33" stroke="#EEEEEE" stroke-width="5" stroke-linejoin="round"/>
<path d="M245.367 3L241.693 3V16.4693H245.367V18.9183H249.04V22.5917H252.714V26.2652H255.162V12.7959L251.489 12.7959V10.3469H249.04V6.67345H245.367V3Z" fill="#D9D9D9"/>
<path d="M268.631 3L272.305 3V16.4693H268.631V18.9183H264.958V22.5917H261.284V26.2652H258.836V12.7959L262.509 12.7959V10.3469H264.958V6.67345H268.631V3Z" fill="#D9D9D9"/>
<path d="M263.734 27.4896V31.1631H277.203V27.4896H279.652V23.8162H283.326V20.1427H286.999V17.6938H273.53V21.3672H271.081V23.8162H267.408V27.4896H263.734Z" fill="#D9D9D9"/>
<path d="M287 44.6332V48.3066H273.531V44.6332H271.082V40.9597H267.409V37.2863H263.735V34.8373H277.204V38.5108H279.653V40.9597H283.327V44.6332H287Z" fill="#D9D9D9"/>
<path d="M268.631 63H272.305V49.5307H268.631V47.0817H264.958V43.4083H261.284V39.7348H258.836V53.2041H262.509V55.6531H264.958V59.3265H268.631L268.631 63Z" fill="#D9D9D9"/>
<path d="M245.367 63H241.693V49.5307H245.367V47.0817H249.04V43.4083H252.714V39.7348H255.162V53.2041H251.489V55.6531H249.04V59.3265H245.367V63Z" fill="#D9D9D9"/>
<path d="M227 21.3673V17.6938H240.469V21.3673H242.918V25.0407H246.591V28.7142H250.265V31.1632H236.796V27.4897H234.347V25.0407H230.673V21.3673H227Z" fill="#D9D9D9"/>
<path d="M250.266 38.5104L250.266 34.8369L236.797 34.8369L236.797 38.5104L234.348 38.5104L234.348 42.1838L230.674 42.1838L230.674 45.8573L227.001 45.8573L227.001 48.3062L240.47 48.3062L240.47 44.6328L242.919 44.6328L242.919 42.1838L246.592 42.1838L246.592 38.5104L250.266 38.5104Z" fill="#D9D9D9"/>
<rect x="255.164" y="31.1631" width="3.6734" height="3.67345" fill="#D9D9D9"/>
<path d="M1258 29.8022L1007 28.7036" stroke="#EEEEEE" stroke-width="5" stroke-linejoin="round"/>
<path d="M1019.63 60H1023.31V46.5307H1019.63V44.0817H1015.96V40.4083H1012.29V36.7348H1009.84V50.2041H1013.51V52.6531H1015.96V56.3265H1019.63V60Z" fill="#D9D9D9"/>
<path d="M996.367 60H992.693V46.5307H996.367V44.0817H1000.04V40.4083H1003.71V36.7348H1006.16V50.2041H1002.49V52.6531H1000.04V56.3265H996.367V60Z" fill="#D9D9D9"/>
<path d="M1001.27 35.5104V31.8369L987.796 31.8369V35.5104H985.347V39.1838H981.674V42.8573H978V45.3062L991.47 45.3062V41.6328H993.919V39.1838H997.592V35.5104H1001.27Z" fill="#D9D9D9"/>
<path d="M978 18.3668V14.6934L991.469 14.6934V18.3668H993.918L993.918 22.0403L997.592 22.0403V25.7137H1001.27V28.1627L987.796 28.1627V24.4892L985.347 24.4892V22.0403L981.673 22.0403V18.3668H978Z" fill="#D9D9D9"/>
<path d="M996.367 0L992.693 0V13.4693L996.367 13.4693V15.9183H1000.04V19.5917H1003.71V23.2652H1006.16V9.79587H1002.49V7.3469H1000.04V3.67345L996.367 3.67345V0Z" fill="#D9D9D9"/>
<path d="M1019.63 0L1023.31 0V13.4693L1019.63 13.4693V15.9183H1015.96V19.5917H1012.29V23.2652H1009.84V9.79587H1013.51V7.3469H1015.96V3.67345L1019.63 3.67345V0Z" fill="#D9D9D9"/>
<path d="M1038 41.6327V45.3062L1024.53 45.3062V41.6327H1022.08V37.9593H1018.41V34.2858H1014.73V31.8368L1028.2 31.8368V35.5103H1030.65V37.9593H1034.33V41.6327H1038Z" fill="#D9D9D9"/>
<path d="M1014.73 24.4896L1014.73 28.1631L1028.2 28.1631L1028.2 24.4896L1030.65 24.4896L1030.65 20.8162L1034.33 20.8162L1034.33 17.1427L1038 17.1427L1038 14.6938L1024.53 14.6938L1024.53 18.3672L1022.08 18.3672L1022.08 20.8162L1018.41 20.8162L1018.41 24.4896L1014.73 24.4896Z" fill="#D9D9D9"/>
<rect x="1009.84" y="31.8369" width="3.67347" height="3.67345" transform="rotate(180 1009.84 31.8369)" fill="#D9D9D9"/>
<path d="M332.576 37.2L332.16 28.912L340.608 19.6H348.832L339.36 30.032L335.168 34.32L332.576 37.2ZM325.824 42V19.6H333.248V42H325.824ZM340.544 42L333.952 33.296L338.848 28.112L349.28 42H340.544ZM361.224 42.512C359.411 42.512 357.726 42.224 356.168 41.648C354.632 41.072 353.299 40.2613 352.168 39.216C351.038 38.1493 350.152 36.9013 349.512 35.472C348.894 34.0427 348.584 32.4853 348.584 30.8C348.584 29.0933 348.894 27.536 349.512 26.128C350.152 24.6987 351.038 23.4613 352.168 22.416C353.299 21.3493 354.632 20.528 356.168 19.952C357.726 19.376 359.411 19.088 361.224 19.088C363.059 19.088 364.744 19.376 366.28 19.952C367.816 20.528 369.15 21.3493 370.28 22.416C371.411 23.4613 372.286 24.6987 372.904 26.128C373.544 27.536 373.864 29.0933 373.864 30.8C373.864 32.4853 373.544 34.0427 372.904 35.472C372.286 36.9013 371.411 38.1493 370.28 39.216C369.15 40.2613 367.816 41.072 366.28 41.648C364.744 42.224 363.059 42.512 361.224 42.512ZM361.224 36.4C361.928 36.4 362.579 36.272 363.176 36.016C363.795 35.76 364.328 35.3973 364.776 34.928C365.246 34.4373 365.608 33.8507 365.864 33.168C366.12 32.464 366.248 31.6747 366.248 30.8C366.248 29.9253 366.12 29.1467 365.864 28.464C365.608 27.76 365.246 27.1733 364.776 26.704C364.328 26.2133 363.795 25.84 363.176 25.584C362.579 25.328 361.928 25.2 361.224 25.2C360.52 25.2 359.859 25.328 359.24 25.584C358.643 25.84 358.11 26.2133 357.64 26.704C357.192 27.1733 356.84 27.76 356.584 28.464C356.328 29.1467 356.2 29.9253 356.2 30.8C356.2 31.6747 356.328 32.464 356.584 33.168C356.84 33.8507 357.192 34.4373 357.64 34.928C358.11 35.3973 358.643 35.76 359.24 36.016C359.859 36.272 360.52 36.4 361.224 36.4ZM376.605 42V19.6H384.157V36.144H394.269V42H376.605ZM422.137 42V19.6H434.105C437.198 19.6 439.481 20.1547 440.953 21.264C442.425 22.352 443.161 23.7493 443.161 25.456C443.161 26.5867 442.841 27.6 442.201 28.496C441.582 29.3707 440.675 30.064 439.481 30.576C438.286 31.088 436.814 31.344 435.065 31.344L435.705 29.616C437.454 29.616 438.958 29.8613 440.217 30.352C441.497 30.8427 442.478 31.5573 443.161 32.496C443.865 33.4133 444.217 34.5227 444.217 35.824C444.217 37.7653 443.406 39.28 441.785 40.368C440.185 41.456 437.838 42 434.745 42H422.137ZM429.561 36.72H434.105C434.937 36.72 435.555 36.5707 435.961 36.272C436.387 35.9733 436.601 35.536 436.601 34.96C436.601 34.384 436.387 33.9467 435.961 33.648C435.555 33.3493 434.937 33.2 434.105 33.2H429.049V28.208H433.081C433.934 28.208 434.553 28.0693 434.937 27.792C435.342 27.4933 435.545 27.0773 435.545 26.544C435.545 25.9893 435.342 25.5733 434.937 25.296C434.553 25.0187 433.934 24.88 433.081 24.88H429.561V36.72ZM458.631 42.512C456.817 42.512 455.132 42.224 453.575 41.648C452.039 41.072 450.705 40.2613 449.575 39.216C448.444 38.1493 447.559 36.9013 446.919 35.472C446.3 34.0427 445.991 32.4853 445.991 30.8C445.991 29.0933 446.3 27.536 446.919 26.128C447.559 24.6987 448.444 23.4613 449.575 22.416C450.705 21.3493 452.039 20.528 453.575 19.952C455.132 19.376 456.817 19.088 458.631 19.088C460.465 19.088 462.151 19.376 463.687 19.952C465.223 20.528 466.556 21.3493 467.687 22.416C468.817 23.4613 469.692 24.6987 470.311 26.128C470.951 27.536 471.271 29.0933 471.271 30.8C471.271 32.4853 470.951 34.0427 470.311 35.472C469.692 36.9013 468.817 38.1493 467.687 39.216C466.556 40.2613 465.223 41.072 463.687 41.648C462.151 42.224 460.465 42.512 458.631 42.512ZM458.631 36.4C459.335 36.4 459.985 36.272 460.583 36.016C461.201 35.76 461.735 35.3973 462.183 34.928C462.652 34.4373 463.015 33.8507 463.271 33.168C463.527 32.464 463.655 31.6747 463.655 30.8C463.655 29.9253 463.527 29.1467 463.271 28.464C463.015 27.76 462.652 27.1733 462.183 26.704C461.735 26.2133 461.201 25.84 460.583 25.584C459.985 25.328 459.335 25.2 458.631 25.2C457.927 25.2 457.265 25.328 456.647 25.584C456.049 25.84 455.516 26.2133 455.047 26.704C454.599 27.1733 454.247 27.76 453.991 28.464C453.735 29.1467 453.607 29.9253 453.607 30.8C453.607 31.6747 453.735 32.464 453.991 33.168C454.247 33.8507 454.599 34.4373 455.047 34.928C455.516 35.3973 456.049 35.76 456.647 36.016C457.265 36.272 457.927 36.4 458.631 36.4ZM474.012 42V19.6H484.796C486.886 19.6 488.689 19.9413 490.204 20.624C491.74 21.3067 492.924 22.288 493.756 23.568C494.588 24.8267 495.004 26.32 495.004 28.048C495.004 29.776 494.588 31.2693 493.756 32.528C492.924 33.7653 491.74 34.7147 490.204 35.376C488.689 36.0373 486.886 36.368 484.796 36.368H478.204L481.564 33.264V42H474.012ZM487.42 42L481.916 33.84H489.916L495.484 42H487.42ZM481.564 34.096L478.204 30.672H484.316C485.361 30.672 486.129 30.4373 486.62 29.968C487.132 29.4987 487.388 28.8587 487.388 28.048C487.388 27.2373 487.132 26.5973 486.62 26.128C486.129 25.6587 485.361 25.424 484.316 25.424H478.204L481.564 22V34.096ZM531.989 42.512C530.111 42.512 528.298 42.2987 526.549 41.872C524.799 41.4453 523.359 40.8907 522.229 40.208L524.661 34.704C525.727 35.3227 526.911 35.824 528.213 36.208C529.535 36.5707 530.815 36.752 532.053 36.752C532.778 36.752 533.343 36.7093 533.749 36.624C534.175 36.5173 534.485 36.3787 534.677 36.208C534.869 36.016 534.965 35.792 534.965 35.536C534.965 35.1307 534.741 34.8107 534.293 34.576C533.845 34.3413 533.247 34.1493 532.501 34C531.775 33.8293 530.975 33.6587 530.101 33.488C529.226 33.296 528.341 33.0507 527.445 32.752C526.57 32.4533 525.759 32.0587 525.013 31.568C524.287 31.0773 523.701 30.4373 523.253 29.648C522.805 28.8373 522.581 27.8347 522.581 26.64C522.581 25.2533 522.965 23.9947 523.733 22.864C524.522 21.712 525.685 20.7947 527.221 20.112C528.778 19.4293 530.709 19.088 533.013 19.088C534.527 19.088 536.021 19.248 537.493 19.568C538.965 19.888 540.287 20.3787 541.461 21.04L539.189 26.512C538.079 25.9573 537.002 25.5413 535.957 25.264C534.933 24.9867 533.93 24.848 532.949 24.848C532.223 24.848 531.647 24.912 531.22 25.04C530.794 25.168 530.485 25.3387 530.293 25.552C530.122 25.7653 530.036 26 530.036 26.256C530.036 26.64 530.261 26.9493 530.709 27.184C531.157 27.3973 531.743 27.5787 532.469 27.728C533.215 27.8773 534.026 28.0373 534.901 28.208C535.797 28.3787 536.682 28.6133 537.557 28.912C538.431 29.2107 539.231 29.6053 539.957 30.096C540.703 30.5867 541.301 31.2267 541.749 32.016C542.197 32.8053 542.421 33.7867 542.421 34.96C542.421 36.3253 542.026 37.584 541.237 38.736C540.469 39.8667 539.317 40.784 537.781 41.488C536.245 42.1707 534.314 42.512 531.989 42.512ZM544.668 42V19.6H552.22V42H544.668ZM572.201 37.2L571.785 28.912L580.233 19.6H588.457L578.985 30.032L574.793 34.32L572.201 37.2ZM565.449 42V19.6H572.873V42H565.449ZM580.169 42L573.577 33.296L578.473 28.112L588.905 42H580.169ZM589.918 42V19.6H600.702C602.792 19.6 604.595 19.9413 606.11 20.624C607.646 21.3067 608.83 22.288 609.662 23.568C610.494 24.8267 610.91 26.32 610.91 28.048C610.91 29.776 610.494 31.2693 609.662 32.528C608.83 33.7653 607.646 34.7147 606.11 35.376C604.595 36.0373 602.792 36.368 600.702 36.368H594.11L597.47 33.264V42H589.918ZM603.326 42L597.822 33.84H605.822L611.39 42H603.326ZM597.47 34.096L594.11 30.672H600.222C601.267 30.672 602.035 30.4373 602.526 29.968C603.038 29.4987 603.294 28.8587 603.294 28.048C603.294 27.2373 603.038 26.5973 602.526 26.128C602.035 25.6587 601.267 25.424 600.222 25.424H594.11L597.47 22V34.096ZM620.674 27.92H630.658V33.36H620.674V27.92ZM621.186 36.304H632.386V42H613.762V19.6H631.97V25.296H621.186V36.304ZM669.426 42.512C667.549 42.512 665.735 42.2987 663.986 41.872C662.237 41.4453 660.797 40.8907 659.666 40.208L662.098 34.704C663.165 35.3227 664.349 35.824 665.65 36.208C666.973 36.5707 668.253 36.752 669.49 36.752C670.215 36.752 670.781 36.7093 671.186 36.624C671.613 36.5173 671.922 36.3787 672.114 36.208C672.306 36.016 672.402 35.792 672.402 35.536C672.402 35.1307 672.178 34.8107 671.73 34.576C671.282 34.3413 670.685 34.1493 669.938 34C669.213 33.8293 668.413 33.6587 667.538 33.488C666.663 33.296 665.778 33.0507 664.882 32.752C664.007 32.4533 663.197 32.0587 662.45 31.568C661.725 31.0773 661.138 30.4373 660.69 29.648C660.242 28.8373 660.018 27.8347 660.018 26.64C660.018 25.2533 660.402 23.9947 661.17 22.864C661.959 21.712 663.122 20.7947 664.658 20.112C666.215 19.4293 668.146 19.088 670.45 19.088C671.965 19.088 673.458 19.248 674.93 19.568C676.402 19.888 677.725 20.3787 678.898 21.04L676.626 26.512C675.517 25.9573 674.439 25.5413 673.394 25.264C672.37 24.9867 671.367 24.848 670.386 24.848C669.661 24.848 669.085 24.912 668.658 25.04C668.231 25.168 667.922 25.3387 667.73 25.552C667.559 25.7653 667.474 26 667.474 26.256C667.474 26.64 667.698 26.9493 668.146 27.184C668.594 27.3973 669.181 27.5787 669.906 27.728C670.653 27.8773 671.463 28.0373 672.338 28.208C673.234 28.3787 674.119 28.6133 674.994 28.912C675.869 29.2107 676.669 29.6053 677.394 30.096C678.141 30.5867 678.738 31.2267 679.186 32.016C679.634 32.8053 679.858 33.7867 679.858 34.96C679.858 36.3253 679.463 37.584 678.674 38.736C677.906 39.8667 676.754 40.784 675.218 41.488C673.682 42.1707 671.751 42.512 669.426 42.512ZM682.105 42V19.6H689.657V42H682.105ZM712.48 42V19.6H718.688L727.648 34.224H724.384L733.088 19.6H739.296L739.36 42H732.48L732.416 29.968H733.504L727.552 39.984H724.224L718.016 29.968H719.36V42H712.48ZM783.321 19.6H790.873V42H783.321V19.6ZM776.345 42H768.793V19.6H776.345V42ZM783.833 33.744H775.833V27.536H783.833V33.744ZM828.645 42.512C826.767 42.512 824.954 42.2987 823.205 41.872C821.455 41.4453 820.015 40.8907 818.885 40.208L821.317 34.704C822.383 35.3227 823.567 35.824 824.869 36.208C826.191 36.5707 827.471 36.752 828.709 36.752C829.434 36.752 829.999 36.7093 830.405 36.624C830.831 36.5173 831.141 36.3787 831.333 36.208C831.525 36.016 831.621 35.792 831.621 35.536C831.621 35.1307 831.397 34.8107 830.949 34.576C830.501 34.3413 829.903 34.1493 829.157 34C828.431 33.8293 827.631 33.6587 826.757 33.488C825.882 33.296 824.997 33.0507 824.101 32.752C823.226 32.4533 822.415 32.0587 821.669 31.568C820.943 31.0773 820.357 30.4373 819.909 29.648C819.461 28.8373 819.237 27.8347 819.237 26.64C819.237 25.2533 819.621 23.9947 820.389 22.864C821.178 21.712 822.341 20.7947 823.877 20.112C825.434 19.4293 827.365 19.088 829.669 19.088C831.183 19.088 832.677 19.248 834.149 19.568C835.621 19.888 836.943 20.3787 838.117 21.04L835.845 26.512C834.735 25.9573 833.658 25.5413 832.613 25.264C831.589 24.9867 830.586 24.848 829.605 24.848C828.879 24.848 828.303 24.912 827.877 25.04C827.45 25.168 827.141 25.3387 826.949 25.552C826.778 25.7653 826.693 26 826.693 26.256C826.693 26.64 826.917 26.9493 827.365 27.184C827.813 27.3973 828.399 27.5787 829.125 27.728C829.871 27.8773 830.682 28.0373 831.557 28.208C832.453 28.3787 833.338 28.6133 834.213 28.912C835.087 29.2107 835.887 29.6053 836.613 30.096C837.359 30.5867 837.957 31.2267 838.405 32.016C838.853 32.8053 839.077 33.7867 839.077 34.96C839.077 36.3253 838.682 37.584 837.893 38.736C837.125 39.8667 835.973 40.784 834.437 41.488C832.901 42.1707 830.97 42.512 828.645 42.512ZM841.324 42V19.6H848.876V42H841.324ZM860.864 42.512C858.986 42.512 857.173 42.2987 855.424 41.872C853.674 41.4453 852.234 40.8907 851.104 40.208L853.536 34.704C854.602 35.3227 855.786 35.824 857.088 36.208C858.41 36.5707 859.69 36.752 860.928 36.752C861.653 36.752 862.218 36.7093 862.624 36.624C863.05 36.5173 863.36 36.3787 863.552 36.208C863.744 36.016 863.84 35.792 863.84 35.536C863.84 35.1307 863.616 34.8107 863.168 34.576C862.72 34.3413 862.122 34.1493 861.376 34C860.65 33.8293 859.85 33.6587 858.976 33.488C858.101 33.296 857.216 33.0507 856.32 32.752C855.445 32.4533 854.634 32.0587 853.888 31.568C853.162 31.0773 852.576 30.4373 852.128 29.648C851.68 28.8373 851.456 27.8347 851.456 26.64C851.456 25.2533 851.84 23.9947 852.608 22.864C853.397 21.712 854.56 20.7947 856.096 20.112C857.653 19.4293 859.584 19.088 861.888 19.088C863.402 19.088 864.896 19.248 866.368 19.568C867.84 19.888 869.162 20.3787 870.336 21.04L868.064 26.512C866.954 25.9573 865.877 25.5413 864.832 25.264C863.808 24.9867 862.805 24.848 861.824 24.848C861.098 24.848 860.522 24.912 860.095 25.04C859.669 25.168 859.36 25.3387 859.168 25.552C858.997 25.7653 858.911 26 858.911 26.256C858.911 26.64 859.136 26.9493 859.584 27.184C860.032 27.3973 860.618 27.5787 861.344 27.728C862.09 27.8773 862.901 28.0373 863.776 28.208C864.672 28.3787 865.557 28.6133 866.432 28.912C867.306 29.2107 868.106 29.6053 868.832 30.096C869.578 30.5867 870.176 31.2267 870.624 32.016C871.072 32.8053 871.296 33.7867 871.296 34.96C871.296 36.3253 870.901 37.584 870.112 38.736C869.344 39.8667 868.192 40.784 866.656 41.488C865.12 42.1707 863.189 42.512 860.864 42.512ZM879.207 42L872.039 19.6H879.815L885.607 38.512H881.703L887.847 19.6H894.791L900.519 38.512H896.775L902.823 19.6H909.991L902.823 42H894.727L890.055 26.512H892.231L887.303 42H879.207Z" fill="#EEEEEE"/>
<path d="M393.923 42L403.715 19.6H411.139L420.931 42H413.123L405.891 23.184H408.835L401.603 42H393.923ZM399.747 38.096L401.667 32.656H411.971L413.891 38.096H399.747Z" fill="#4A8068"/>
<path d="M495.423 42L505.215 19.6H512.639L522.431 42H514.623L507.391 23.184H510.335L503.103 42H495.423ZM501.247 38.096L503.167 32.656H513.471L515.391 38.096H501.247ZM909.704 42L919.497 19.6H926.921L936.713 42H928.905L921.673 23.184H924.617L917.385 42H909.704ZM915.529 38.096L917.449 32.656H927.753L929.673 38.096H915.529Z" fill="#E62C20"/>
<path d="M632.861 42L642.653 19.6H650.077L659.869 42H652.061L644.829 23.184H647.773L640.541 42H632.861ZM638.685 38.096L640.605 32.656H650.909L652.829 38.096H638.685ZM740.579 42L750.372 19.6H757.796L767.588 42H759.78L752.548 23.184H755.492L748.26 42H740.579ZM746.404 38.096L748.324 32.656H758.628L760.548 38.096H746.404Z" fill="#F69722"/>
<path d="M792.079 42L801.872 19.6H809.296L819.088 42H811.28L804.048 23.184H806.992L799.76 42H792.079ZM797.904 38.096L799.824 32.656H810.128L812.048 38.096H797.904Z" fill="#9C4A9A"/>
<path d="M520.5 42H501.5L509.5 23L520.5 42Z" fill="#E62C20"/>
<path d="M764 42H745L753 24L764 42Z" fill="#F69722"/>
<path d="M415.5 42H400L408 23.5L415.5 42Z" fill="#4A8068"/>
<path d="M659 42H639.5L647.5 22L659 42Z" fill="#F69722"/>
<path d="M931 42H912L921.5 24L931 42Z" fill="#E62C20"/>
<path d="M816 42H798L806.5 24L816 42Z" fill="#9C4A9A"/>
</svg>
