<svg width="1260" height="61" viewBox="0 0 1260 61" fill="none" xmlns="http://www.w3.org/2000/svg">
<ellipse cx="579.5" cy="30.5" rx="10.5" ry="9.5" fill="#F69722"/>
<path d="M469.994 48V13H481.794V48H469.994ZM487.474 48V13H497.174L514.974 34.3H510.474V13H521.974V48H512.274L494.474 26.7H498.974V48H487.474ZM538.66 27.9H554.06V36.8H538.66V27.9ZM539.46 48H527.66V13H556.11V21.9H539.46V48ZM620.37 48.8C617.537 48.8 614.92 48.3667 612.52 47.5C610.153 46.6 608.087 45.3333 606.32 43.7C604.587 42.0667 603.237 40.1333 602.27 37.9C601.303 35.6667 600.82 33.2 600.82 30.5C600.82 27.8 601.303 25.3333 602.27 23.1C603.237 20.8667 604.603 18.9333 606.37 17.3C608.137 15.6667 610.22 14.4167 612.62 13.55C615.053 12.65 617.72 12.2 620.62 12.2C624.087 12.2 627.17 12.7833 629.87 13.95C632.603 15.1167 634.853 16.7833 636.62 18.95L629.07 25.6C627.97 24.3333 626.77 23.3833 625.47 22.75C624.203 22.0833 622.787 21.75 621.22 21.75C619.92 21.75 618.737 21.95 617.67 22.35C616.637 22.75 615.753 23.3333 615.02 24.1C614.287 24.8667 613.72 25.7833 613.32 26.85C612.92 27.9167 612.72 29.1333 612.72 30.5C612.72 31.8 612.92 33 613.32 34.1C613.72 35.1667 614.287 36.0833 615.02 36.85C615.753 37.6167 616.62 38.2167 617.62 38.65C618.653 39.05 619.803 39.25 621.07 39.25C622.403 39.25 623.703 39.0333 624.97 38.6C626.237 38.1333 627.587 37.35 629.02 36.25L635.62 44.35C633.487 45.7833 631.053 46.8833 628.32 47.65C625.587 48.4167 622.937 48.8 620.37 48.8ZM625.37 42.85V29.55H635.62V44.35L625.37 42.85ZM640.648 48V13H657.498C660.765 13 663.581 13.5333 665.948 14.6C668.348 15.6667 670.198 17.2 671.498 19.2C672.798 21.1667 673.448 23.5 673.448 26.2C673.448 28.9 672.798 31.2333 671.498 33.2C670.198 35.1333 668.348 36.6167 665.948 37.65C663.581 38.6833 660.765 39.2 657.498 39.2H647.198L652.448 34.35V48H640.648ZM661.598 48L652.998 35.25H665.498L674.198 48H661.598ZM652.448 35.65L647.198 30.3H656.748C658.381 30.3 659.581 29.9333 660.348 29.2C661.148 28.4667 661.548 27.4667 661.548 26.2C661.548 24.9333 661.148 23.9333 660.348 23.2C659.581 22.4667 658.381 22.1 656.748 22.1H647.198L652.448 16.75V35.65ZM674.104 48L689.404 13H701.004L716.304 48H704.104L692.804 18.6H697.404L686.104 48H674.104ZM683.204 41.9L686.204 33.4H702.304L705.304 41.9H683.204ZM729.187 27.9H744.587V36.8H729.187V27.9ZM729.987 48H718.187V13H746.637V21.9H729.987V48ZM750.365 48V13H762.165V48H750.365ZM780.895 48.8C777.962 48.8 775.128 48.4667 772.395 47.8C769.662 47.1333 767.412 46.2667 765.645 45.2L769.445 36.6C771.112 37.5667 772.962 38.35 774.995 38.95C777.062 39.5167 779.062 39.8 780.995 39.8C782.128 39.8 783.012 39.7333 783.645 39.6C784.312 39.4333 784.795 39.2167 785.095 38.95C785.395 38.65 785.545 38.3 785.545 37.9C785.545 37.2667 785.195 36.7667 784.495 36.4C783.795 36.0333 782.862 35.7333 781.695 35.5C780.562 35.2333 779.312 34.9667 777.945 34.7C776.578 34.4 775.195 34.0167 773.795 33.55C772.428 33.0833 771.162 32.4667 769.995 31.7C768.862 30.9333 767.945 29.9333 767.245 28.7C766.545 27.4333 766.195 25.8667 766.195 24C766.195 21.8333 766.795 19.8667 767.995 18.1C769.228 16.3 771.045 14.8667 773.445 13.8C775.878 12.7333 778.895 12.2 782.495 12.2C784.862 12.2 787.195 12.45 789.495 12.95C791.795 13.45 793.862 14.2167 795.695 15.25L792.145 23.8C790.412 22.9333 788.728 22.2833 787.095 21.85C785.495 21.4167 783.928 21.2 782.395 21.2C781.262 21.2 780.362 21.3 779.695 21.5C779.028 21.7 778.545 21.9667 778.245 22.3C777.978 22.6333 777.845 23 777.845 23.4C777.845 24 778.195 24.4833 778.895 24.85C779.595 25.1833 780.512 25.4667 781.645 25.7C782.812 25.9333 784.078 26.1833 785.445 26.45C786.845 26.7167 788.228 27.0833 789.595 27.55C790.962 28.0167 792.212 28.6333 793.345 29.4C794.512 30.1667 795.445 31.1667 796.145 32.4C796.845 33.6333 797.195 35.1667 797.195 37C797.195 39.1333 796.578 41.1 795.345 42.9C794.145 44.6667 792.345 46.1 789.945 47.2C787.545 48.2667 784.528 48.8 780.895 48.8Z" fill="#EEEEEE"/>
<path d="M578.187 48.8C575.354 48.8 572.721 48.35 570.287 47.45C567.887 46.55 565.804 45.2833 564.037 43.65C562.271 41.9833 560.887 40.0333 559.887 37.8C558.921 35.5667 558.437 33.1333 558.437 30.5C558.437 27.8333 558.921 25.4 559.887 23.2C560.887 20.9667 562.271 19.0333 564.037 17.4C565.804 15.7333 567.887 14.45 570.287 13.55C572.721 12.65 575.354 12.2 578.187 12.2C581.054 12.2 583.687 12.65 586.087 13.55C588.487 14.45 590.571 15.7333 592.337 17.4C594.104 19.0333 595.471 20.9667 596.437 23.2C597.437 25.4 597.937 27.8333 597.937 30.5C597.937 33.1333 597.437 35.5667 596.437 37.8C595.471 40.0333 594.104 41.9833 592.337 43.65C590.571 45.2833 588.487 46.55 586.087 47.45C583.687 48.35 581.054 48.8 578.187 48.8ZM578.187 39.25C579.287 39.25 580.304 39.05 581.237 38.65C582.204 38.25 583.037 37.6833 583.737 36.95C584.471 36.1833 585.037 35.2667 585.437 34.2C585.837 33.1 586.037 31.8667 586.037 30.5C586.037 29.1333 585.837 27.9167 585.437 26.85C585.037 25.75 584.471 24.8333 583.737 24.1C583.037 23.3333 582.204 22.75 581.237 22.35C580.304 21.95 579.287 21.75 578.187 21.75C577.087 21.75 576.054 21.95 575.087 22.35C574.154 22.75 573.321 23.3333 572.587 24.1C571.887 24.8333 571.337 25.75 570.937 26.85C570.537 27.9167 570.337 29.1333 570.337 30.5C570.337 31.8667 570.537 33.1 570.937 34.2C571.337 35.2667 571.887 36.1833 572.587 36.95C573.321 37.6833 574.154 38.25 575.087 38.65C576.054 39.05 577.087 39.25 578.187 39.25Z" fill="#F69722"/>
<path d="M1260 30L870 30" stroke="#EEEEEE" stroke-width="5" stroke-linejoin="round"/>
<path d="M877.633 60H881.307V46.5307H877.633V44.0817H873.96V40.4083H870.286V36.7348H867.837V50.2041H871.511V52.6531H873.96V56.3265H877.633V60Z" fill="#D9D9D9"/>
<path d="M854.367 60H850.693V46.5307H854.367V44.0817H858.04V40.4083H861.714V36.7348H864.163V50.2041H860.489V52.6531H858.04V56.3265H854.367V60Z" fill="#D9D9D9"/>
<path d="M859.266 35.5104V31.8369L845.796 31.8369V35.5104H843.347V39.1838H839.674V42.8573H836V45.3062L849.47 45.3062V41.6328H851.919V39.1838H855.592V35.5104H859.266Z" fill="#D9D9D9"/>
<path d="M836 18.3668V14.6934L849.469 14.6934V18.3668H851.918L851.918 22.0403L855.592 22.0403V25.7137H859.265V28.1627L845.796 28.1627V24.4892L843.347 24.4892V22.0403L839.673 22.0403V18.3668H836Z" fill="#D9D9D9"/>
<path d="M854.367 0L850.693 0V13.4693L854.367 13.4693V15.9183H858.04V19.5917H861.714V23.2652H864.163V9.79587H860.489V7.3469H858.04V3.67345L854.367 3.67345V0Z" fill="#D9D9D9"/>
<path d="M877.633 0L881.307 0V13.4693L877.633 13.4693V15.9183H873.96V19.5917H870.286V23.2652H867.837V9.79587H871.511V7.3469H873.96V3.67345L877.633 3.67345V0Z" fill="#D9D9D9"/>
<path d="M896 41.6327V45.3062L882.531 45.3062V41.6327H880.082V37.9593H876.408V34.2858H872.735V31.8368L886.204 31.8368L886.204 35.5103H888.653V37.9593H892.327V41.6327H896Z" fill="#D9D9D9"/>
<path d="M872.734 24.4896L872.734 28.1631L886.204 28.1631L886.204 24.4896L888.653 24.4896L888.653 20.8162L892.326 20.8162L892.326 17.1427L896 17.1427L896 14.6938L882.53 14.6938L882.53 18.3672L880.081 18.3672L880.081 20.8162L876.408 20.8162L876.408 24.4896L872.734 24.4896Z" fill="#D9D9D9"/>
<rect x="867.836" y="31.8369" width="3.67347" height="3.67345" transform="rotate(180 867.836 31.8369)" fill="#D9D9D9"/>
<path d="M0 30L390 30" stroke="#EEEEEE" stroke-width="5" stroke-linejoin="round"/>
<path d="M382.367 0L378.693 0V13.4693H382.367V15.9183L386.04 15.9183V19.5917L389.714 19.5917V23.2652H392.163V9.79587H388.489V7.3469H386.04V3.67345L382.367 3.67345V0Z" fill="#D9D9D9"/>
<path d="M405.633 0L409.307 0V13.4693H405.633V15.9183L401.96 15.9183V19.5917L398.286 19.5917V23.2652H395.837V9.79587H399.511V7.3469H401.96L401.96 3.67345L405.633 3.67345V0Z" fill="#D9D9D9"/>
<path d="M400.734 24.4896V28.1631L414.204 28.1631V24.4896H416.653V20.8162H420.326V17.1427L424 17.1427V14.6938L410.53 14.6938V18.3672H408.081V20.8162H404.408V24.4896H400.734Z" fill="#D9D9D9"/>
<path d="M424 41.6332V45.3066H410.531V41.6332H408.082V37.9597H404.408V34.2863L400.735 34.2863V31.8373L414.204 31.8373V35.5108H416.653V37.9597H420.327V41.6332H424Z" fill="#D9D9D9"/>
<path d="M405.633 60H409.307V46.5307H405.633V44.0817H401.96V40.4083H398.286V36.7348H395.837V50.2041H399.511V52.6531H401.96V56.3265H405.633V60Z" fill="#D9D9D9"/>
<path d="M382.367 60H378.693V46.5307H382.367V44.0817H386.04V40.4083H389.714V36.7348H392.163V50.2041H388.489V52.6531H386.04V56.3265H382.367V60Z" fill="#D9D9D9"/>
<path d="M364 18.3673V14.6938L377.469 14.6938V18.3673H379.918V22.0407H383.592V25.7142L387.265 25.7142V28.1632L373.796 28.1632V24.4897H371.347V22.0407H367.673V18.3673H364Z" fill="#D9D9D9"/>
<path d="M387.266 35.5104L387.266 31.8369L373.796 31.8369L373.796 35.5104L371.347 35.5104L371.347 39.1838L367.674 39.1838L367.674 42.8573L364 42.8573L364 45.3062L377.47 45.3062L377.47 41.6328L379.919 41.6328L379.919 39.1838L383.592 39.1838L383.592 35.5104L387.266 35.5104Z" fill="#D9D9D9"/>
<rect x="392.164" y="28.1631" width="3.67347" height="3.67345" fill="#D9D9D9"/>
</svg>
