<svg width="1261" height="61" viewBox="0 0 1261 61" fill="none" xmlns="http://www.w3.org/2000/svg">
<path d="M450.245 48.8C447.311 48.8 444.478 48.4667 441.745 47.8C439.011 47.1333 436.761 46.2667 434.995 45.2L438.795 36.6C440.461 37.5667 442.311 38.35 444.345 38.95C446.411 39.5167 448.411 39.8 450.345 39.8C451.478 39.8 452.361 39.7333 452.995 39.6C453.661 39.4333 454.145 39.2167 454.445 38.95C454.745 38.65 454.895 38.3 454.895 37.9C454.895 37.2667 454.545 36.7667 453.845 36.4C453.145 36.0333 452.211 35.7333 451.045 35.5C449.911 35.2333 448.661 34.9667 447.295 34.7C445.928 34.4 444.545 34.0167 443.145 33.55C441.778 33.0833 440.511 32.4667 439.345 31.7C438.211 30.9333 437.295 29.9333 436.595 28.7C435.895 27.4333 435.545 25.8667 435.545 24C435.545 21.8333 436.145 19.8667 437.345 18.1C438.578 16.3 440.395 14.8667 442.795 13.8C445.228 12.7333 448.245 12.2 451.845 12.2C454.211 12.2 456.545 12.45 458.845 12.95C461.145 13.45 463.211 14.2167 465.045 15.25L461.495 23.8C459.761 22.9333 458.078 22.2833 456.445 21.85C454.845 21.4167 453.278 21.2 451.745 21.2C450.611 21.2 449.711 21.3 449.045 21.5C448.378 21.7 447.895 21.9667 447.595 22.3C447.328 22.6333 447.195 23 447.195 23.4C447.195 24 447.545 24.4833 448.245 24.85C448.945 25.1833 449.861 25.4667 450.995 25.7C452.161 25.9333 453.428 26.1833 454.795 26.45C456.195 26.7167 457.578 27.0833 458.945 27.55C460.311 28.0167 461.561 28.6333 462.695 29.4C463.861 30.1667 464.795 31.1667 465.495 32.4C466.195 33.6333 466.545 35.1667 466.545 37C466.545 39.1333 465.928 41.1 464.695 42.9C463.495 44.6667 461.695 46.1 459.295 47.2C456.895 48.2667 453.878 48.8 450.245 48.8ZM480.606 40.5L479.956 27.55L493.156 13H506.006L491.206 29.3L484.656 36L480.606 40.5ZM470.056 48V13H481.656V48H470.056ZM493.056 48L482.756 34.4L490.406 26.3L506.706 48H493.056ZM519.088 26H534.688V34.5H519.088V26ZM519.888 39.1H537.388V48H508.288V13H536.738V21.9H519.888V39.1ZM541.931 48V13H551.631L565.631 35.85H560.531L574.131 13H583.831L583.931 48H573.181L573.081 29.2H574.781L565.481 44.85H560.281L550.581 29.2H552.681V48H541.931ZM585.836 48L601.136 13H612.736L628.036 48H615.836L604.536 18.6H609.136L597.836 48H585.836ZM594.936 41.9L597.936 33.4H614.036L617.036 41.9H594.936ZM644.91 48V13H661.76C665.026 13 667.843 13.5333 670.21 14.6C672.61 15.6667 674.46 17.2 675.76 19.2C677.06 21.1667 677.71 23.5 677.71 26.2C677.71 28.9 677.06 31.2333 675.76 33.2C674.46 35.1667 672.61 36.7 670.21 37.8C667.843 38.8667 665.026 39.4 661.76 39.4H651.46L656.71 34.35V48H644.91ZM656.71 35.65L651.46 30.3H661.01C662.643 30.3 663.843 29.9333 664.61 29.2C665.41 28.4667 665.81 27.4667 665.81 26.2C665.81 24.9333 665.41 23.9333 664.61 23.2C663.843 22.4667 662.643 22.1 661.01 22.1H651.46L656.71 16.75V35.65ZM676.022 48L691.322 13H702.922L718.222 48H706.022L694.722 18.6H699.322L688.022 48H676.022ZM685.122 41.9L688.122 33.4H704.222L707.222 41.9H685.122ZM733.155 48.8C730.222 48.8 727.388 48.4667 724.655 47.8C721.922 47.1333 719.672 46.2667 717.905 45.2L721.705 36.6C723.372 37.5667 725.222 38.35 727.255 38.95C729.322 39.5167 731.322 39.8 733.255 39.8C734.388 39.8 735.272 39.7333 735.905 39.6C736.572 39.4333 737.055 39.2167 737.355 38.95C737.655 38.65 737.805 38.3 737.805 37.9C737.805 37.2667 737.455 36.7667 736.755 36.4C736.055 36.0333 735.122 35.7333 733.955 35.5C732.822 35.2333 731.572 34.9667 730.205 34.7C728.838 34.4 727.455 34.0167 726.055 33.55C724.688 33.0833 723.422 32.4667 722.255 31.7C721.122 30.9333 720.205 29.9333 719.505 28.7C718.805 27.4333 718.455 25.8667 718.455 24C718.455 21.8333 719.055 19.8667 720.255 18.1C721.488 16.3 723.305 14.8667 725.705 13.8C728.138 12.7333 731.155 12.2 734.755 12.2C737.122 12.2 739.455 12.45 741.755 12.95C744.055 13.45 746.122 14.2167 747.955 15.25L744.405 23.8C742.672 22.9333 740.988 22.2833 739.355 21.85C737.755 21.4167 736.188 21.2 734.655 21.2C733.522 21.2 732.622 21.3 731.955 21.5C731.288 21.7 730.805 21.9667 730.505 22.3C730.238 22.6333 730.105 23 730.105 23.4C730.105 24 730.455 24.4833 731.155 24.85C731.855 25.1833 732.772 25.4667 733.905 25.7C735.072 25.9333 736.338 26.1833 737.705 26.45C739.105 26.7167 740.488 27.0833 741.855 27.55C743.222 28.0167 744.472 28.6333 745.605 29.4C746.772 30.1667 747.705 31.1667 748.405 32.4C749.105 33.6333 749.455 35.1667 749.455 37C749.455 39.1333 748.838 41.1 747.605 42.9C746.405 44.6667 744.605 46.1 742.205 47.2C739.805 48.2667 736.788 48.8 733.155 48.8ZM749.166 48L764.466 13H776.066L791.366 48H779.166L767.866 18.6H772.466L761.166 48H749.166ZM758.266 41.9L761.266 33.4H777.366L780.366 41.9H758.266Z" fill="#EEEEEE"/>
<path d="M793.249 48V13H810.099C813.366 13 816.183 13.5333 818.549 14.6C820.949 15.6667 822.799 17.2 824.099 19.2C825.399 21.1667 826.049 23.5 826.049 26.2C826.049 28.9 825.399 31.2333 824.099 33.2C822.799 35.1333 820.949 36.6167 818.549 37.65C816.183 38.6833 813.366 39.2 810.099 39.2H799.799L805.049 34.35V48H793.249ZM814.199 48L805.599 35.25H818.099L826.799 48H814.199ZM805.049 35.65L799.799 30.3H809.349C810.983 30.3 812.183 29.9333 812.949 29.2C813.749 28.4667 814.149 27.4667 814.149 26.2C814.149 24.9333 813.749 23.9333 812.949 23.2C812.183 22.4667 810.983 22.1 809.349 22.1H799.799L805.049 16.75V35.65Z" fill="#E62C20"/>
<path d="M551.747 13H542.287H542V48H572.929L584 47.8571V13H574.109L563.215 31.2857L551.747 13Z" fill="#488267"/>
<path d="M676 48H718.5L703 13H690.675L676 48Z" fill="#9C4A9A"/>
<path d="M586 48H628.5L613 13H600.675L586 48Z" fill="#F69722"/>
<ellipse cx="808.5" cy="27.5" rx="10.5" ry="9.5" fill="#E62C20"/>
<path d="M1261 31L901 31" stroke="#EEEEEE" stroke-width="5" stroke-linejoin="round"/>
<path d="M906.633 61H910.307V47.5307H906.633V45.0817H902.96V41.4083H899.286V37.7348H896.837V51.2041H900.511V53.6531H902.96V57.3265H906.633V61Z" fill="#D9D9D9"/>
<path d="M883.367 61H879.693V47.5307H883.367V45.0817H887.04V41.4083H890.714V37.7348H893.163V51.2041H889.489V53.6531H887.04V57.3265H883.367V61Z" fill="#D9D9D9"/>
<path d="M888.266 36.5104V32.8369L874.796 32.8369V36.5104H872.347V40.1838H868.674V43.8573H865V46.3062L878.47 46.3062V42.6328H880.919V40.1838H884.592V36.5104H888.266Z" fill="#D9D9D9"/>
<path d="M865 19.3668V15.6934L878.469 15.6934V19.3668H880.918L880.918 23.0403L884.592 23.0403V26.7137H888.265V29.1627L874.796 29.1627V25.4892L872.347 25.4892V23.0403L868.673 23.0403V19.3668H865Z" fill="#D9D9D9"/>
<path d="M883.367 1L879.693 1V14.4693L883.367 14.4693V16.9183H887.04V20.5917H890.714V24.2652H893.163V10.7959H889.489V8.3469H887.04V4.67345H883.367V1Z" fill="#D9D9D9"/>
<path d="M906.633 1L910.307 1V14.4693L906.633 14.4693V16.9183H902.96V20.5917H899.286V24.2652H896.837V10.7959H900.511V8.3469H902.96V4.67345H906.633V1Z" fill="#D9D9D9"/>
<path d="M925 42.6327V46.3062L911.531 46.3062V42.6327H909.082V38.9593H905.408V35.2858H901.735V32.8368L915.204 32.8368L915.204 36.5103H917.653V38.9593H921.327V42.6327H925Z" fill="#D9D9D9"/>
<path d="M901.734 25.4896L901.734 29.1631L915.204 29.1631L915.204 25.4896L917.653 25.4896L917.653 21.8162L921.326 21.8162L921.326 18.1427L925 18.1427L925 15.6938L911.53 15.6938L911.53 19.3672L909.081 19.3672L909.081 21.8162L905.408 21.8162L905.408 25.4896L901.734 25.4896Z" fill="#D9D9D9"/>
<rect x="896.836" y="32.8369" width="3.67347" height="3.67345" transform="rotate(180 896.836 32.8369)" fill="#D9D9D9"/>
<path d="M0 31L360 31" stroke="#EEEEEE" stroke-width="5" stroke-linejoin="round"/>
<path d="M354.367 1L350.693 1V14.4693L354.367 14.4693V16.9183L358.04 16.9183V20.5917H361.714V24.2652L364.163 24.2652V10.7959L360.489 10.7959V8.3469H358.04V4.67345L354.367 4.67345V1Z" fill="#D9D9D9"/>
<path d="M377.633 1L381.307 1V14.4693L377.633 14.4693V16.9183L373.96 16.9183V20.5917H370.286V24.2652L367.837 24.2652V10.7959L371.511 10.7959V8.3469H373.96V4.67345L377.633 4.67345V1Z" fill="#D9D9D9"/>
<path d="M372.734 25.4896V29.1631L386.204 29.1631V25.4896H388.653V21.8162H392.326V18.1427L396 18.1427V15.6938L382.53 15.6938V19.3672H380.081V21.8162L376.408 21.8162V25.4896H372.734Z" fill="#D9D9D9"/>
<path d="M396 42.6332V46.3066L382.531 46.3066V42.6332H380.082V38.9597H376.408V35.2863L372.735 35.2863V32.8373L386.204 32.8373V36.5108H388.653V38.9597H392.327V42.6332H396Z" fill="#D9D9D9"/>
<path d="M377.633 61H381.307V47.5307H377.633V45.0817H373.96V41.4083H370.286V37.7348L367.837 37.7348V51.2041L371.511 51.2041V53.6531L373.96 53.6531V57.3265H377.633V61Z" fill="#D9D9D9"/>
<path d="M354.367 61H350.693V47.5307H354.367V45.0817H358.04V41.4083H361.714V37.7348L364.163 37.7348V51.2041L360.489 51.2041V53.6531L358.04 53.6531V57.3265H354.367V61Z" fill="#D9D9D9"/>
<path d="M336 19.3673V15.6938L349.469 15.6938V19.3673H351.918V23.0407H355.592V26.7142L359.265 26.7142V29.1632L345.796 29.1632V25.4897H343.347V23.0407L339.673 23.0407V19.3673H336Z" fill="#D9D9D9"/>
<path d="M359.266 36.5104L359.266 32.8369L345.796 32.8369L345.796 36.5104L343.347 36.5104L343.347 40.1838L339.674 40.1838L339.674 43.8573L336 43.8573L336 46.3062L349.47 46.3062L349.47 42.6328L351.919 42.6328L351.919 40.1838L355.592 40.1838L355.592 36.5104L359.266 36.5104Z" fill="#D9D9D9"/>
<rect x="364.164" y="29.1631" width="3.67347" height="3.67345" fill="#D9D9D9"/>
</svg>
