<svg width="308" height="34" viewBox="0 0 308 34" fill="none" xmlns="http://www.w3.org/2000/svg">
<path d="M52.1481 27.448C50.5055 27.448 48.9188 27.2613 47.3881 26.888C45.8575 26.5147 44.5975 26.0293 43.6081 25.432L45.7361 20.616C46.6695 21.1573 47.7055 21.596 48.8441 21.932C50.0015 22.2493 51.1215 22.408 52.2041 22.408C52.8388 22.408 53.3335 22.3707 53.6881 22.296C54.0615 22.2027 54.3321 22.0813 54.5001 21.932C54.6681 21.764 54.7521 21.568 54.7521 21.344C54.7521 20.9893 54.5561 20.7093 54.1641 20.504C53.7721 20.2987 53.2495 20.1307 52.5961 20C51.9615 19.8507 51.2615 19.7013 50.4961 19.552C49.7308 19.384 48.9561 19.1693 48.1721 18.908C47.4068 18.6467 46.6975 18.3013 46.0441 17.872C45.4095 17.4427 44.8961 16.8827 44.5041 16.192C44.1121 15.4827 43.9161 14.6053 43.9161 13.56C43.9161 12.3467 44.2521 11.2453 44.9241 10.256C45.6148 9.248 46.6321 8.44533 47.9761 7.848C49.3388 7.25067 51.0281 6.952 53.0441 6.952C54.3695 6.952 55.6761 7.092 56.9641 7.372C58.2521 7.652 59.4095 8.08133 60.4361 8.66L58.4481 13.448C57.4775 12.9627 56.5348 12.5987 55.6201 12.356C54.7241 12.1133 53.8468 11.992 52.9881 11.992C52.3535 11.992 51.8495 12.048 51.4761 12.16C51.1028 12.272 50.8321 12.4213 50.6641 12.608C50.5148 12.7947 50.4401 13 50.4401 13.224C50.4401 13.56 50.6361 13.8307 51.0281 14.036C51.4201 14.2227 51.9335 14.3813 52.5681 14.512C53.2215 14.6427 53.9308 14.7827 54.6961 14.932C55.4801 15.0813 56.2548 15.2867 57.0201 15.548C57.7855 15.8093 58.4855 16.1547 59.1201 16.584C59.7735 17.0133 60.2961 17.5733 60.6881 18.264C61.0801 18.9547 61.2761 19.8133 61.2761 20.84C61.2761 22.0347 60.9308 23.136 60.2401 24.144C59.5681 25.1333 58.5601 25.936 57.2161 26.552C55.8721 27.1493 54.1828 27.448 52.1481 27.448ZM69.1505 22.8L68.7865 15.548L76.1785 7.4H83.3745L75.0865 16.528L71.4185 20.28L69.1505 22.8ZM63.2425 27V7.4H69.7385V27H63.2425ZM76.1225 27L70.3545 19.384L74.6385 14.848L83.7665 27H76.1225ZM90.7006 14.68H99.4366V19.44H90.7006V14.68ZM91.1486 22.016H100.949V27H84.6526V7.4H100.585V12.384H91.1486V22.016ZM161.16 27V7.4H170.596C172.426 7.4 174.003 7.69867 175.328 8.296C176.672 8.89333 177.708 9.752 178.436 10.872C179.164 11.9733 179.528 13.28 179.528 14.792C179.528 16.304 179.164 17.6107 178.436 18.712C177.708 19.8133 176.672 20.672 175.328 21.288C174.003 21.8853 172.426 22.184 170.596 22.184H164.828L167.768 19.356V27H161.16ZM167.768 20.084L164.828 17.088H170.176C171.091 17.088 171.763 16.8827 172.192 16.472C172.64 16.0613 172.864 15.5013 172.864 14.792C172.864 14.0827 172.64 13.5227 172.192 13.112C171.763 12.7013 171.091 12.496 170.176 12.496H164.828L167.768 9.5V20.084ZM211.836 27.448C210.193 27.448 208.606 27.2613 207.076 26.888C205.545 26.5147 204.285 26.0293 203.296 25.432L205.424 20.616C206.357 21.1573 207.393 21.596 208.532 21.932C209.689 22.2493 210.809 22.408 211.892 22.408C212.526 22.408 213.021 22.3707 213.376 22.296C213.749 22.2027 214.02 22.0813 214.188 21.932C214.356 21.764 214.44 21.568 214.44 21.344C214.44 20.9893 214.244 20.7093 213.852 20.504C213.46 20.2987 212.937 20.1307 212.284 20C211.649 19.8507 210.949 19.7013 210.184 19.552C209.418 19.384 208.644 19.1693 207.86 18.908C207.094 18.6467 206.385 18.3013 205.732 17.872C205.097 17.4427 204.584 16.8827 204.192 16.192C203.8 15.4827 203.604 14.6053 203.604 13.56C203.604 12.3467 203.94 11.2453 204.612 10.256C205.302 9.248 206.32 8.44533 207.664 7.848C209.026 7.25067 210.716 6.952 212.732 6.952C214.057 6.952 215.364 7.092 216.652 7.372C217.94 7.652 219.097 8.08133 220.124 8.66L218.136 13.448C217.165 12.9627 216.222 12.5987 215.308 12.356C214.412 12.1133 213.534 11.992 212.676 11.992C212.041 11.992 211.537 12.048 211.164 12.16C210.79 12.272 210.52 12.4213 210.352 12.608C210.202 12.7947 210.128 13 210.128 13.224C210.128 13.56 210.324 13.8307 210.716 14.036C211.108 14.2227 211.621 14.3813 212.256 14.512C212.909 14.6427 213.618 14.7827 214.384 14.932C215.168 15.0813 215.942 15.2867 216.708 15.548C217.473 15.8093 218.173 16.1547 218.808 16.584C219.461 17.0133 219.984 17.5733 220.376 18.264C220.768 18.9547 220.964 19.8133 220.964 20.84C220.964 22.0347 220.618 23.136 219.928 24.144C219.256 25.1333 218.248 25.936 216.904 26.552C215.56 27.1493 213.87 27.448 211.836 27.448ZM220.802 27L229.37 7.4H235.866L244.434 27H237.602L231.274 10.536H233.85L227.522 27H220.802ZM225.898 23.584L227.578 18.824H236.594L238.274 23.584H225.898Z" fill="#EEEEEE"/>
<path d="M103.492 27V7.4H108.924L116.764 20.196H113.908L121.524 7.4H126.956L127.012 27H120.992L120.936 16.472H121.888L116.68 25.236H113.768L108.336 16.472H109.512V27H103.492Z" fill="#4A8068"/>
<path d="M128.079 27L136.647 7.4H143.143L151.711 27H144.879L138.551 10.536H141.127L134.799 27H128.079ZM133.175 23.584L134.855 18.824H143.871L145.551 23.584H133.175Z" fill="#F69722"/>
<path d="M179.841 27L188.409 7.4H194.905L203.473 27H196.641L190.313 10.536H192.889L186.561 27H179.841ZM184.937 23.584L186.617 18.824H195.633L197.313 23.584H184.937Z" fill="#9C4A9A"/>
<path d="M245.489 27V7.4H254.925C256.754 7.4 258.331 7.69867 259.657 8.296C261.001 8.89333 262.037 9.752 262.765 10.872C263.493 11.9733 263.857 13.28 263.857 14.792C263.857 16.304 263.493 17.6107 262.765 18.712C262.037 19.7947 261.001 20.6253 259.657 21.204C258.331 21.7827 256.754 22.072 254.925 22.072H249.157L252.097 19.356V27H245.489ZM257.221 27L252.405 19.86H259.405L264.277 27H257.221ZM252.097 20.084L249.157 17.088H254.505C255.419 17.088 256.091 16.8827 256.521 16.472C256.969 16.0613 257.193 15.5013 257.193 14.792C257.193 14.0827 256.969 13.5227 256.521 13.112C256.091 12.7013 255.419 12.496 254.505 12.496H249.157L252.097 9.5V20.084Z" fill="#E62C20"/>
<path d="M251 18.5V12L258 11L259 18L251 18.5Z" fill="#E62C20"/>
<path d="M147 27H132L140 13L147 27Z" fill="#F69722"/>
<path d="M182 27H202L191.5 8L182 27Z" fill="#9C4A9A"/>
<path d="M108.5 27V18H123V27H108.5Z" fill="#4A8068"/>
<path d="M9.18341 2H7.34668L7.34668 8.73466H9.18341L9.18341 9.95914H11.0201L11.0201 11.7959H12.8569L12.8569 13.6326H14.0814L14.0814 6.89793H12.2446V5.67345H11.0201V3.83673H9.18341V2Z" fill="#D9D9D9"/>
<path d="M20.8166 2H22.6533V8.73466H20.8166V9.95914H18.9799V11.7959H17.1431V13.6326H15.9186L15.9186 6.89793H17.7554V5.67345H18.9799V3.83673H20.8166V2Z" fill="#D9D9D9"/>
<path d="M18.3672 14.2448V16.0815H25.1019V14.2448H26.3264V12.4081H28.1631V10.5714H29.9998V9.34688H23.2651V11.1836H22.0407V12.4081H20.2039V14.2448H18.3672Z" fill="#D9D9D9"/>
<path d="M30 22.8166V24.6533H23.2653V22.8166H22.0408V20.9799H20.2041V19.1431H18.3673V17.9187H25.102V19.7554H26.3265V20.9799H28.1633V22.8166H30Z" fill="#D9D9D9"/>
<path d="M20.8166 32H22.6533V25.2653H20.8166V24.0409H18.9799V22.2041H17.1431V20.3674H15.9186L15.9186 27.1021H17.7554V28.3265H18.9799V30.1633H20.8166V32Z" fill="#D9D9D9"/>
<path d="M9.18341 32H7.34668L7.34668 25.2653H9.18341L9.18341 24.0409H11.0201V22.2041H12.8569V20.3674H14.0814L14.0814 27.1021H12.2446V28.3265H11.0201V30.1633H9.18341V32Z" fill="#D9D9D9"/>
<path d="M0 11.1836L0 9.34692H6.73469L6.73469 11.1836H7.95918L7.95918 13.0204H9.79592L9.79592 14.8571H11.6327V16.0816H4.89796L4.89796 14.2449H3.67347L3.67347 13.0204H1.83673L1.83673 11.1836H0Z" fill="#D9D9D9"/>
<path d="M11.6328 19.7552L11.6328 17.9185L4.89812 17.9185L4.89812 19.7552L3.67363 19.7552L3.67363 21.5919L1.8369 21.5919L1.8369 23.4286L0.00016245 23.4286L0.00016258 24.6531L6.73486 24.6531L6.73486 22.8164L7.95934 22.8164L7.95934 21.5919L9.79608 21.5919L9.79608 19.7552L11.6328 19.7552Z" fill="#D9D9D9"/>
<rect x="14.082" y="16.0815" width="1.83673" height="1.83673" fill="#D9D9D9"/>
<path d="M298.817 33H300.653V26.2653H298.817V25.0409H296.98V23.2041H295.143V21.3674H293.919V28.1021H295.755V29.3265H296.98V31.1633H298.817V33Z" fill="#D9D9D9"/>
<path d="M287.183 33H285.347V26.2653H287.183V25.0409H289.02V23.2041H290.857V21.3674H292.081V28.1021H290.245V29.3265H289.02V31.1633H287.183V33Z" fill="#D9D9D9"/>
<path d="M289.633 20.7552V18.9185L282.898 18.9185V20.7552H281.674V22.5919H279.837V24.4286H278V25.6531L284.735 25.6531V23.8164H285.959V22.5919H287.796V20.7552H289.633Z" fill="#D9D9D9"/>
<path d="M278 12.1834V10.3467L284.735 10.3467V12.1834H285.959L285.959 14.0201L287.796 14.0201V15.8569H289.633V17.0813L282.898 17.0813V15.2446L281.673 15.2446V14.0201L279.837 14.0201V12.1834H278Z" fill="#D9D9D9"/>
<path d="M287.183 3L285.347 3V9.73466H287.183V10.9591H289.02V12.7959H290.857V14.6326H292.081V7.89793H290.245V6.67345H289.02V4.83673H287.183V3Z" fill="#D9D9D9"/>
<path d="M298.817 3L300.653 3V9.73466H298.817V10.9591H296.98V12.7959H295.143V14.6326H293.919V7.89793H295.755V6.67345H296.98V4.83673H298.817V3Z" fill="#D9D9D9"/>
<path d="M308 23.8164V25.6531L301.265 25.6531V23.8164H300.041V21.9796H298.204V20.1429H296.367V18.9184L303.102 18.9184V20.7551H304.327V21.9796H306.163V23.8164H308Z" fill="#D9D9D9"/>
<path d="M296.367 15.2448L296.367 17.0815L303.102 17.0815L303.102 15.2448L304.326 15.2448L304.326 13.4081L306.163 13.4081L306.163 11.5714L308 11.5714L308 10.3469L301.265 10.3469L301.265 12.1836L300.041 12.1836L300.041 13.4081L298.204 13.4081L298.204 15.2448L296.367 15.2448Z" fill="#D9D9D9"/>
<rect x="293.918" y="18.9185" width="1.83673" height="1.83673" transform="rotate(180 293.918 18.9185)" fill="#D9D9D9"/>
</svg>
