<svg width="308" height="44" viewBox="0 0 308 44" fill="none" xmlns="http://www.w3.org/2000/svg">
<path d="M37.4954 35V9.8H45.9914V35H37.4954ZM50.0813 35V9.8H57.0653L69.8813 25.136H66.6413V9.8H74.9213V35H67.9373L55.1213 19.664H58.3613V35H50.0813ZM86.9349 20.528H98.0229V26.936H86.9349V20.528ZM87.5109 35H79.0149V9.8H99.4989V16.208H87.5109V35ZM145.766 35.576C143.726 35.576 141.842 35.264 140.114 34.64C138.41 33.992 136.922 33.08 135.65 31.904C134.402 30.728 133.43 29.336 132.734 27.728C132.038 26.12 131.69 24.344 131.69 22.4C131.69 20.456 132.038 18.68 132.734 17.072C133.43 15.464 134.414 14.072 135.686 12.896C136.958 11.72 138.458 10.82 140.186 10.196C141.938 9.548 143.858 9.224 145.946 9.224C148.442 9.224 150.662 9.644 152.606 10.484C154.574 11.324 156.194 12.524 157.466 14.084L152.03 18.872C151.238 17.96 150.374 17.276 149.438 16.82C148.526 16.34 147.506 16.1 146.378 16.1C145.442 16.1 144.59 16.244 143.822 16.532C143.078 16.82 142.442 17.24 141.914 17.792C141.386 18.344 140.978 19.004 140.69 19.772C140.402 20.54 140.258 21.416 140.258 22.4C140.258 23.336 140.402 24.2 140.69 24.992C140.978 25.76 141.386 26.42 141.914 26.972C142.442 27.524 143.066 27.956 143.786 28.268C144.53 28.556 145.358 28.7 146.27 28.7C147.23 28.7 148.166 28.544 149.078 28.232C149.99 27.896 150.962 27.332 151.994 26.54L156.746 32.372C155.21 33.404 153.458 34.196 151.49 34.748C149.522 35.3 147.614 35.576 145.766 35.576ZM149.366 31.292V21.716H156.746V32.372L149.366 31.292ZM160.366 35V9.8H172.498C174.85 9.8 176.878 10.184 178.582 10.952C180.31 11.72 181.642 12.824 182.578 14.264C183.514 15.68 183.982 17.36 183.982 19.304C183.982 21.248 183.514 22.928 182.578 24.344C181.642 25.736 180.31 26.804 178.582 27.548C176.878 28.292 174.85 28.664 172.498 28.664H165.082L168.862 25.172V35H160.366ZM175.45 35L169.258 25.82H178.258L184.522 35H175.45ZM168.862 26.108L165.082 22.256H171.958C173.134 22.256 173.998 21.992 174.55 21.464C175.126 20.936 175.414 20.216 175.414 19.304C175.414 18.392 175.126 17.672 174.55 17.144C173.998 16.616 173.134 16.352 171.958 16.352H165.082L168.862 12.5V26.108ZM224.115 20.528H235.203V26.936H224.115V20.528ZM224.691 35H216.195V9.8H236.679V16.208H224.691V35ZM239.363 35V9.8H247.859V35H239.363ZM261.344 35.576C259.232 35.576 257.192 35.336 255.224 34.856C253.256 34.376 251.636 33.752 250.364 32.984L253.1 26.792C254.3 27.488 255.632 28.052 257.096 28.484C258.584 28.892 260.024 29.096 261.416 29.096C262.232 29.096 262.868 29.048 263.324 28.952C263.804 28.832 264.152 28.676 264.368 28.484C264.584 28.268 264.692 28.016 264.692 27.728C264.692 27.272 264.44 26.912 263.936 26.648C263.432 26.384 262.76 26.168 261.92 26C261.104 25.808 260.204 25.616 259.22 25.424C258.236 25.208 257.24 24.932 256.232 24.596C255.248 24.26 254.336 23.816 253.496 23.264C252.68 22.712 252.02 21.992 251.516 21.104C251.012 20.192 250.76 19.064 250.76 17.72C250.76 16.16 251.192 14.744 252.056 13.472C252.944 12.176 254.252 11.144 255.98 10.376C257.732 9.608 259.904 9.224 262.496 9.224C264.2 9.224 265.88 9.404 267.536 9.764C269.192 10.124 270.68 10.676 272 11.42L269.444 17.576C268.196 16.952 266.984 16.484 265.808 16.172C264.656 15.86 263.528 15.704 262.424 15.704C261.608 15.704 260.96 15.776 260.48 15.92C260 16.064 259.652 16.256 259.436 16.496C259.244 16.736 259.148 17 259.148 17.288C259.148 17.72 259.4 18.068 259.904 18.332C260.408 18.572 261.068 18.776 261.884 18.944C262.724 19.112 263.636 19.292 264.62 19.484C265.628 19.676 266.624 19.94 267.608 20.276C268.592 20.612 269.492 21.056 270.308 21.608C271.148 22.16 271.82 22.88 272.324 23.768C272.828 24.656 273.08 25.76 273.08 27.08C273.08 28.616 272.636 30.032 271.748 31.328C270.884 32.6 269.588 33.632 267.86 34.424C266.132 35.192 263.96 35.576 261.344 35.576Z" fill="#EEEEEE"/>
<path d="M115.395 35.576C113.355 35.576 111.459 35.252 109.707 34.604C107.979 33.956 106.479 33.044 105.207 31.868C103.935 30.668 102.939 29.264 102.219 27.656C101.523 26.048 101.175 24.296 101.175 22.4C101.175 20.48 101.523 18.728 102.219 17.144C102.939 15.536 103.935 14.144 105.207 12.968C106.479 11.768 107.979 10.844 109.707 10.196C111.459 9.548 113.355 9.224 115.395 9.224C117.459 9.224 119.355 9.548 121.083 10.196C122.811 10.844 124.311 11.768 125.583 12.968C126.855 14.144 127.839 15.536 128.535 17.144C129.255 18.728 129.615 20.48 129.615 22.4C129.615 24.296 129.255 26.048 128.535 27.656C127.839 29.264 126.855 30.668 125.583 31.868C124.311 33.044 122.811 33.956 121.083 34.604C119.355 35.252 117.459 35.576 115.395 35.576ZM115.395 28.7C116.187 28.7 116.919 28.556 117.591 28.268C118.287 27.98 118.887 27.572 119.391 27.044C119.919 26.492 120.327 25.832 120.615 25.064C120.903 24.272 121.047 23.384 121.047 22.4C121.047 21.416 120.903 20.54 120.615 19.772C120.327 18.98 119.919 18.32 119.391 17.792C118.887 17.24 118.287 16.82 117.591 16.532C116.919 16.244 116.187 16.1 115.395 16.1C114.603 16.1 113.859 16.244 113.163 16.532C112.491 16.82 111.891 17.24 111.363 17.792C110.859 18.32 110.463 18.98 110.175 19.772C109.887 20.54 109.743 21.416 109.743 22.4C109.743 23.384 109.887 24.272 110.175 25.064C110.463 25.832 110.859 26.492 111.363 27.044C111.891 27.572 112.491 27.98 113.163 28.268C113.859 28.556 114.603 28.7 115.395 28.7Z" fill="#F69722"/>
<path d="M184.455 35L195.471 9.8H203.823L214.839 35H206.055L197.919 13.832H201.231L193.095 35H184.455ZM191.007 30.608L193.167 24.488H204.759L206.919 30.608H191.007Z" fill="#9C4A9A"/>
<path d="M122 29H107V16.1667L122 15V29Z" fill="#F69722"/>
<path d="M190 35H210L199.5 16L190 35Z" fill="#9C4A9A"/>
<path d="M9.18341 5H7.34668L7.34668 11.7347H9.18341L9.18341 12.9591H11.0201L11.0201 14.7959H12.8569L12.8569 16.6326H14.0814L14.0814 9.89793H12.2446V8.67345H11.0201V6.83673H9.18341V5Z" fill="#D9D9D9"/>
<path d="M20.8166 5H22.6533V11.7347H20.8166V12.9591H18.9799V14.7959H17.1431V16.6326H15.9186L15.9186 9.89793H17.7554V8.67345H18.9799V6.83673H20.8166V5Z" fill="#D9D9D9"/>
<path d="M18.3672 17.2448V19.0815H25.1019V17.2448H26.3264V15.4081H28.1631V13.5714H29.9998V12.3469H23.2651V14.1836H22.0407V15.4081H20.2039V17.2448H18.3672Z" fill="#D9D9D9"/>
<path d="M30 25.8165V27.6532H23.2653V25.8165H22.0408V23.9797H20.2041V22.143H18.3673V20.9185H25.102V22.7553H26.3265V23.9797H28.1633V25.8165H30Z" fill="#D9D9D9"/>
<path d="M20.8166 35H22.6533V28.2653H20.8166V27.0409H18.9799V25.2041H17.1431V23.3674H15.9186L15.9186 30.1021H17.7554V31.3265H18.9799V33.1633H20.8166V35Z" fill="#D9D9D9"/>
<path d="M9.18341 35H7.34668L7.34668 28.2653H9.18341L9.18341 27.0409H11.0201V25.2041H12.8569V23.3674H14.0814L14.0814 30.1021H12.2446V31.3265H11.0201V33.1633H9.18341V35Z" fill="#D9D9D9"/>
<path d="M0 14.1836L0 12.3469H6.73469L6.73469 14.1836H7.95918L7.95918 16.0204H9.79592L9.79592 17.8571H11.6327V19.0816H4.89796L4.89796 17.2449H3.67347L3.67347 16.0204H1.83673L1.83673 14.1836H0Z" fill="#D9D9D9"/>
<path d="M11.6328 22.7552L11.6328 20.9185L4.89812 20.9185L4.89812 22.7552L3.67363 22.7552L3.67363 24.5919L1.8369 24.5919L1.8369 26.4286L0.00016245 26.4286L0.00016258 27.6531L6.73486 27.6531L6.73486 25.8164L7.95934 25.8164L7.95934 24.5919L9.79608 24.5919L9.79608 22.7552L11.6328 22.7552Z" fill="#D9D9D9"/>
<rect x="14.082" y="19.0815" width="1.83673" height="1.83673" fill="#D9D9D9"/>
<path d="M298.817 36H300.653V29.2653H298.817V28.0409H296.98V26.2041H295.143V24.3674H293.919V31.1021H295.755V32.3265H296.98V34.1633H298.817V36Z" fill="#D9D9D9"/>
<path d="M287.183 36H285.347V29.2653H287.183V28.0409H289.02V26.2041H290.857V24.3674H292.081V31.1021H290.245V32.3265H289.02V34.1633H287.183V36Z" fill="#D9D9D9"/>
<path d="M289.633 23.7552V21.9185L282.898 21.9185V23.7552H281.674V25.5919H279.837V27.4286H278V28.6531L284.735 28.6531V26.8164H285.959V25.5919H287.796V23.7552H289.633Z" fill="#D9D9D9"/>
<path d="M278 15.1835V13.3468L284.735 13.3468V15.1835H285.959L285.959 17.0203H287.796V18.857H289.633V20.0815L282.898 20.0815V18.2447H281.673V17.0203H279.837V15.1835H278Z" fill="#D9D9D9"/>
<path d="M287.183 6L285.347 6V12.7347H287.183V13.9591H289.02V15.7959H290.857V17.6326H292.081V10.8979H290.245V9.67345H289.02V7.83673H287.183V6Z" fill="#D9D9D9"/>
<path d="M298.817 6L300.653 6V12.7347H298.817V13.9591H296.98V15.7959H295.143V17.6326H293.919V10.8979H295.755V9.67345H296.98V7.83673H298.817V6Z" fill="#D9D9D9"/>
<path d="M308 26.8164V28.6531L301.265 28.6531V26.8164H300.041V24.9796H298.204V23.1429H296.367V21.9184L303.102 21.9184V23.7551H304.327V24.9796H306.163V26.8164H308Z" fill="#D9D9D9"/>
<path d="M296.367 18.2448L296.367 20.0815L303.102 20.0815L303.102 18.2448L304.326 18.2448L304.326 16.4081L306.163 16.4081L306.163 14.5714L308 14.5714L308 13.3469L301.265 13.3469L301.265 15.1836L300.041 15.1836L300.041 16.4081L298.204 16.4081L298.204 18.2448L296.367 18.2448Z" fill="#D9D9D9"/>
<rect x="293.918" y="21.9185" width="1.83673" height="1.83673" transform="rotate(180 293.918 21.9185)" fill="#D9D9D9"/>
</svg>
