<svg width="233" height="692" viewBox="0 0 233 692" fill="none" xmlns="http://www.w3.org/2000/svg">
<rect width="233" height="173" fill="#4A8068"/>
<path d="M61.977 77V51.8H73.497C75.801 51.8 77.781 52.172 79.437 52.916C81.117 53.66 82.413 54.74 83.325 56.156C84.237 57.548 84.693 59.204 84.693 61.124C84.693 63.02 84.237 64.664 83.325 66.056C82.413 67.448 81.117 68.528 79.437 69.296C77.781 70.04 75.801 70.412 73.497 70.412H65.937L69.105 67.316V77H61.977ZM69.105 68.072L65.937 64.796H73.065C74.553 64.796 75.657 64.472 76.377 63.824C77.121 63.176 77.493 62.276 77.493 61.124C77.493 59.948 77.121 59.036 76.377 58.388C75.657 57.74 74.553 57.416 73.065 57.416H65.937L69.105 54.14V68.072ZM87.9851 77V57.488H94.5011V63.176L93.5291 61.556C94.1051 60.092 95.0411 59 96.3371 58.28C97.6331 57.536 99.2051 57.164 101.053 57.164V63.32C100.741 63.272 100.465 63.248 100.225 63.248C100.009 63.224 99.7691 63.212 99.5051 63.212C98.1131 63.212 96.9851 63.596 96.1211 64.364C95.2571 65.108 94.8251 66.332 94.8251 68.036V77H87.9851ZM114.632 77V73.364L114.164 72.464V65.768C114.164 64.688 113.828 63.86 113.156 63.284C112.508 62.684 111.464 62.384 110.024 62.384C109.088 62.384 108.14 62.54 107.18 62.852C106.22 63.14 105.404 63.548 104.732 64.076L102.428 59.432C103.532 58.712 104.852 58.16 106.388 57.776C107.948 57.368 109.496 57.164 111.032 57.164C114.2 57.164 116.648 57.896 118.376 59.36C120.128 60.8 121.004 63.068 121.004 66.164V77H114.632ZM108.872 77.324C107.312 77.324 105.992 77.06 104.912 76.532C103.832 76.004 103.004 75.284 102.428 74.372C101.876 73.46 101.6 72.44 101.6 71.312C101.6 70.112 101.9 69.08 102.5 68.216C103.124 67.328 104.072 66.656 105.344 66.2C106.616 65.72 108.26 65.48 110.276 65.48H114.884V69.044H111.212C110.108 69.044 109.328 69.224 108.872 69.584C108.44 69.944 108.224 70.424 108.224 71.024C108.224 71.624 108.452 72.104 108.908 72.464C109.364 72.824 109.988 73.004 110.78 73.004C111.524 73.004 112.196 72.824 112.796 72.464C113.42 72.08 113.876 71.504 114.164 70.736L115.1 73.256C114.74 74.6 114.032 75.62 112.976 76.316C111.944 76.988 110.576 77.324 108.872 77.324ZM137.597 77.324C135.941 77.324 134.525 76.964 133.349 76.244C132.173 75.5 131.273 74.396 130.649 72.932C130.049 71.444 129.749 69.548 129.749 67.244C129.749 64.916 130.037 63.02 130.613 61.556C131.189 60.068 132.053 58.964 133.205 58.244C134.381 57.524 135.845 57.164 137.597 57.164C139.373 57.164 140.981 57.584 142.421 58.424C143.885 59.24 145.037 60.404 145.877 61.916C146.741 63.404 147.173 65.18 147.173 67.244C147.173 69.308 146.741 71.096 145.877 72.608C145.037 74.12 143.885 75.284 142.421 76.1C140.981 76.916 139.373 77.324 137.597 77.324ZM125.321 83.984V57.488H131.837V60.8L131.801 67.244L132.161 73.724V83.984H125.321ZM136.157 71.888C136.925 71.888 137.609 71.708 138.209 71.348C138.833 70.988 139.325 70.46 139.685 69.764C140.069 69.068 140.261 68.228 140.261 67.244C140.261 66.26 140.069 65.42 139.685 64.724C139.325 64.028 138.833 63.5 138.209 63.14C137.609 62.78 136.925 62.6 136.157 62.6C135.389 62.6 134.693 62.78 134.069 63.14C133.469 63.5 132.977 64.028 132.593 64.724C132.233 65.42 132.053 66.26 132.053 67.244C132.053 68.228 132.233 69.068 132.593 69.764C132.977 70.46 133.469 70.988 134.069 71.348C134.693 71.708 135.389 71.888 136.157 71.888ZM159.064 77.324C156.568 77.324 154.624 76.712 153.232 75.488C151.84 74.24 151.144 72.368 151.144 69.872V53.132H157.984V69.8C157.984 70.496 158.176 71.048 158.56 71.456C158.944 71.84 159.436 72.032 160.036 72.032C160.852 72.032 161.548 71.828 162.124 71.42L163.816 76.208C163.24 76.592 162.532 76.868 161.692 77.036C160.852 77.228 159.976 77.324 159.064 77.324ZM148.3 63.32V58.208H162.448V63.32H148.3ZM166.454 77V57.488H173.294V77H166.454ZM169.874 55.328C168.626 55.328 167.618 54.98 166.85 54.284C166.082 53.588 165.698 52.724 165.698 51.692C165.698 50.66 166.082 49.796 166.85 49.1C167.618 48.404 168.626 48.056 169.874 48.056C171.122 48.056 172.13 48.392 172.898 49.064C173.666 49.712 174.05 50.552 174.05 51.584C174.05 52.664 173.666 53.564 172.898 54.284C172.154 54.98 171.146 55.328 169.874 55.328Z" fill="white"/>
<path d="M59.457 81.5H175.526V83.3H59.457V81.5Z" fill="white"/>
<path d="M58.1022 101.36L57.9902 98.896L63.8622 92.8H66.1982L61.3182 97.984L60.1662 99.248L58.1022 101.36ZM56.2462 104V92.8H58.3262V104H56.2462ZM64.0542 104L59.7662 98.896L61.1422 97.376L66.4862 104H64.0542ZM71.3514 104.112C70.4021 104.112 69.5701 103.925 68.8554 103.552C68.1514 103.168 67.6021 102.645 67.2074 101.984C66.8234 101.323 66.6314 100.571 66.6314 99.728C66.6314 98.8747 66.8181 98.1227 67.1914 97.472C67.5754 96.8107 68.0981 96.2933 68.7594 95.92C69.4314 95.5467 70.1941 95.36 71.0474 95.36C71.8794 95.36 72.6208 95.5413 73.2714 95.904C73.9221 96.2667 74.4341 96.7787 74.8074 97.44C75.1808 98.1013 75.3674 98.88 75.3674 99.776C75.3674 99.8613 75.3621 99.9573 75.3514 100.064C75.3514 100.171 75.3461 100.272 75.3354 100.368H68.2154V99.04H74.2794L73.4954 99.456C73.5061 98.9653 73.4048 98.5333 73.1914 98.16C72.9781 97.7867 72.6848 97.4933 72.3114 97.28C71.9488 97.0667 71.5274 96.96 71.0474 96.96C70.5568 96.96 70.1248 97.0667 69.7514 97.28C69.3888 97.4933 69.1008 97.792 68.8874 98.176C68.6848 98.5493 68.5834 98.992 68.5834 99.504V99.824C68.5834 100.336 68.7008 100.789 68.9354 101.184C69.1701 101.579 69.5008 101.883 69.9274 102.096C70.3541 102.309 70.8448 102.416 71.3994 102.416C71.8794 102.416 72.3114 102.341 72.6954 102.192C73.0794 102.043 73.4208 101.808 73.7194 101.488L74.7914 102.72C74.4074 103.168 73.9221 103.515 73.3354 103.76C72.7594 103.995 72.0981 104.112 71.3514 104.112ZM78.9206 102.096L78.9686 99.584L83.4326 95.456H85.8326L82.0406 99.264L80.9846 100.144L78.9206 102.096ZM77.2886 104V92.128H79.2886V104H77.2886ZM83.7366 104L80.6166 100.144L81.8806 98.544L86.1686 104H83.7366ZM90.9202 104.112C90.1949 104.112 89.5549 103.979 89.0002 103.712C88.4455 103.435 88.0135 103.019 87.7042 102.464C87.3949 101.899 87.2402 101.189 87.2402 100.336V95.456H89.2402V100.064C89.2402 100.832 89.4109 101.408 89.7522 101.792C90.1042 102.165 90.6002 102.352 91.2402 102.352C91.7095 102.352 92.1149 102.256 92.4562 102.064C92.8082 101.872 93.0802 101.584 93.2722 101.2C93.4749 100.816 93.5762 100.341 93.5762 99.776V95.456H95.5762V104H93.6722V101.696L94.0082 102.4C93.7202 102.955 93.2989 103.381 92.7442 103.68C92.1895 103.968 91.5815 104.112 90.9202 104.112ZM103.459 104V102.272L103.347 101.904V98.88C103.347 98.2933 103.171 97.84 102.819 97.52C102.467 97.1893 101.933 97.024 101.219 97.024C100.739 97.024 100.264 97.0987 99.7948 97.248C99.3361 97.3973 98.9468 97.6053 98.6268 97.872L97.8428 96.416C98.3015 96.064 98.8455 95.8027 99.4748 95.632C100.115 95.4507 100.776 95.36 101.459 95.36C102.696 95.36 103.651 95.6587 104.323 96.256C105.005 96.8427 105.347 97.7547 105.347 98.992V104H103.459ZM100.771 104.112C100.131 104.112 99.5708 104.005 99.0908 103.792C98.6108 103.568 98.2375 103.264 97.9708 102.88C97.7148 102.485 97.5868 102.043 97.5868 101.552C97.5868 101.072 97.6988 100.64 97.9228 100.256C98.1575 99.872 98.5361 99.568 99.0588 99.344C99.5815 99.12 100.275 99.008 101.139 99.008H103.619V100.336H101.283C100.6 100.336 100.141 100.448 99.9068 100.672C99.6721 100.885 99.5548 101.152 99.5548 101.472C99.5548 101.835 99.6988 102.123 99.9868 102.336C100.275 102.549 100.675 102.656 101.187 102.656C101.677 102.656 102.115 102.544 102.499 102.32C102.893 102.096 103.176 101.765 103.347 101.328L103.683 102.528C103.491 103.029 103.144 103.419 102.643 103.696C102.152 103.973 101.528 104.112 100.771 104.112ZM111.13 104.112C110.191 104.112 109.466 103.872 108.954 103.392C108.442 102.901 108.186 102.181 108.186 101.232V93.568H110.186V101.184C110.186 101.589 110.287 101.904 110.49 102.128C110.703 102.352 110.996 102.464 111.37 102.464C111.818 102.464 112.191 102.347 112.49 102.112L113.05 103.536C112.815 103.728 112.527 103.872 112.186 103.968C111.844 104.064 111.492 104.112 111.13 104.112ZM106.778 97.12V95.52H112.474V97.12H106.778ZM119.959 104V102.272L119.847 101.904V98.88C119.847 98.2933 119.671 97.84 119.319 97.52C118.967 97.1893 118.433 97.024 117.719 97.024C117.239 97.024 116.764 97.0987 116.295 97.248C115.836 97.3973 115.447 97.6053 115.127 97.872L114.343 96.416C114.801 96.064 115.345 95.8027 115.975 95.632C116.615 95.4507 117.276 95.36 117.959 95.36C119.196 95.36 120.151 95.6587 120.823 96.256C121.505 96.8427 121.847 97.7547 121.847 98.992V104H119.959ZM117.271 104.112C116.631 104.112 116.071 104.005 115.591 103.792C115.111 103.568 114.737 103.264 114.471 102.88C114.215 102.485 114.087 102.043 114.087 101.552C114.087 101.072 114.199 100.64 114.423 100.256C114.657 99.872 115.036 99.568 115.559 99.344C116.081 99.12 116.775 99.008 117.639 99.008H120.119V100.336H117.783C117.1 100.336 116.641 100.448 116.407 100.672C116.172 100.885 116.055 101.152 116.055 101.472C116.055 101.835 116.199 102.123 116.487 102.336C116.775 102.549 117.175 102.656 117.687 102.656C118.177 102.656 118.615 102.544 118.999 102.32C119.393 102.096 119.676 101.765 119.847 101.328L120.183 102.528C119.991 103.029 119.644 103.419 119.143 103.696C118.652 103.973 118.028 104.112 117.271 104.112ZM129.262 95.36C129.944 95.36 130.552 95.4933 131.086 95.76C131.63 96.0267 132.056 96.4373 132.366 96.992C132.675 97.536 132.83 98.24 132.83 99.104V104H130.83V99.36C130.83 98.6027 130.648 98.0373 130.286 97.664C129.934 97.2907 129.438 97.104 128.798 97.104C128.328 97.104 127.912 97.2 127.55 97.392C127.187 97.584 126.904 97.872 126.702 98.256C126.51 98.6293 126.414 99.104 126.414 99.68V104H124.414V95.456H126.318V97.76L125.982 97.056C126.28 96.512 126.712 96.096 127.278 95.808C127.854 95.5093 128.515 95.36 129.262 95.36ZM140.493 107.216C140.077 107.216 139.661 107.147 139.245 107.008C138.829 106.869 138.482 106.677 138.205 106.432L139.005 104.96C139.207 105.141 139.437 105.285 139.693 105.392C139.949 105.499 140.21 105.552 140.477 105.552C140.839 105.552 141.133 105.461 141.357 105.28C141.581 105.099 141.789 104.795 141.981 104.368L142.477 103.248L142.637 103.008L145.869 95.456H147.789L143.789 104.688C143.522 105.328 143.223 105.835 142.893 106.208C142.573 106.581 142.21 106.843 141.805 106.992C141.41 107.141 140.973 107.216 140.493 107.216ZM142.253 104.304L138.397 95.456H140.477L143.613 102.832L142.253 104.304ZM154.037 104V102.272L153.925 101.904V98.88C153.925 98.2933 153.749 97.84 153.397 97.52C153.045 97.1893 152.512 97.024 151.797 97.024C151.317 97.024 150.842 97.0987 150.373 97.248C149.914 97.3973 149.525 97.6053 149.205 97.872L148.421 96.416C148.88 96.064 149.424 95.8027 150.053 95.632C150.693 95.4507 151.354 95.36 152.037 95.36C153.274 95.36 154.229 95.6587 154.901 96.256C155.584 96.8427 155.925 97.7547 155.925 98.992V104H154.037ZM151.349 104.112C150.709 104.112 150.149 104.005 149.669 103.792C149.189 103.568 148.816 103.264 148.549 102.88C148.293 102.485 148.165 102.043 148.165 101.552C148.165 101.072 148.277 100.64 148.501 100.256C148.736 99.872 149.114 99.568 149.637 99.344C150.16 99.12 150.853 99.008 151.717 99.008H154.197V100.336H151.861C151.178 100.336 150.72 100.448 150.485 100.672C150.25 100.885 150.133 101.152 150.133 101.472C150.133 101.835 150.277 102.123 150.565 102.336C150.853 102.549 151.253 102.656 151.765 102.656C152.256 102.656 152.693 102.544 153.077 102.32C153.472 102.096 153.754 101.765 153.925 101.328L154.261 102.528C154.069 103.029 153.722 103.419 153.221 103.696C152.73 103.973 152.106 104.112 151.349 104.112ZM163.34 95.36C164.022 95.36 164.63 95.4933 165.164 95.76C165.708 96.0267 166.134 96.4373 166.444 96.992C166.753 97.536 166.908 98.24 166.908 99.104V104H164.908V99.36C164.908 98.6027 164.726 98.0373 164.364 97.664C164.012 97.2907 163.516 97.104 162.876 97.104C162.406 97.104 161.99 97.2 161.628 97.392C161.265 97.584 160.982 97.872 160.78 98.256C160.588 98.6293 160.492 99.104 160.492 99.68V104H158.492V95.456H160.396V97.76L160.06 97.056C160.358 96.512 160.79 96.096 161.356 95.808C161.932 95.5093 162.593 95.36 163.34 95.36ZM173.332 107.216C172.543 107.216 171.77 107.109 171.012 106.896C170.266 106.693 169.652 106.395 169.172 106L170.068 104.496C170.442 104.805 170.911 105.051 171.476 105.232C172.052 105.424 172.634 105.52 173.22 105.52C174.159 105.52 174.847 105.301 175.284 104.864C175.722 104.437 175.94 103.792 175.94 102.928V101.408L176.1 99.472L176.036 97.536V95.456H177.94V102.704C177.94 104.251 177.546 105.387 176.756 106.112C175.967 106.848 174.826 107.216 173.332 107.216ZM173.076 103.616C172.266 103.616 171.53 103.445 170.868 103.104C170.218 102.752 169.7 102.267 169.316 101.648C168.943 101.029 168.756 100.304 168.756 99.472C168.756 98.6507 168.943 97.9307 169.316 97.312C169.7 96.6933 170.218 96.2133 170.868 95.872C171.53 95.5307 172.266 95.36 173.076 95.36C173.802 95.36 174.452 95.504 175.028 95.792C175.604 96.08 176.063 96.528 176.404 97.136C176.756 97.744 176.932 98.5227 176.932 99.472C176.932 100.421 176.756 101.205 176.404 101.824C176.063 102.432 175.604 102.885 175.028 103.184C174.452 103.472 173.802 103.616 173.076 103.616ZM173.38 101.92C173.882 101.92 174.33 101.819 174.724 101.616C175.119 101.403 175.423 101.115 175.636 100.752C175.86 100.379 175.972 99.952 175.972 99.472C175.972 98.992 175.86 98.5707 175.636 98.208C175.423 97.8347 175.119 97.552 174.724 97.36C174.33 97.1573 173.882 97.056 173.38 97.056C172.879 97.056 172.426 97.1573 172.02 97.36C171.626 97.552 171.316 97.8347 171.092 98.208C170.879 98.5707 170.772 98.992 170.772 99.472C170.772 99.952 170.879 100.379 171.092 100.752C171.316 101.115 171.626 101.403 172.02 101.616C172.426 101.819 172.879 101.92 173.38 101.92ZM70.2288 115.36C70.9115 115.36 71.5141 115.493 72.0368 115.76C72.5701 116.027 72.9861 116.437 73.2848 116.992C73.5835 117.536 73.7328 118.24 73.7328 119.104V124H71.7328V119.36C71.7328 118.603 71.5675 118.037 71.2368 117.664C70.9061 117.291 70.4315 117.104 69.8128 117.104C69.3755 117.104 68.9861 117.2 68.6448 117.392C68.3141 117.584 68.0528 117.867 67.8608 118.24C67.6795 118.613 67.5888 119.088 67.5888 119.664V124H65.5888V119.36C65.5888 118.603 65.4235 118.037 65.0928 117.664C64.7621 117.291 64.2875 117.104 63.6688 117.104C63.2315 117.104 62.8421 117.2 62.5008 117.392C62.1701 117.584 61.9088 117.867 61.7168 118.24C61.5355 118.613 61.4448 119.088 61.4448 119.664V124H59.4448V115.456H61.3488V117.728L61.0128 117.056C61.3008 116.501 61.7168 116.08 62.2608 115.792C62.8155 115.504 63.4448 115.36 64.1488 115.36C64.9488 115.36 65.6421 115.557 66.2288 115.952C66.8261 116.347 67.2208 116.944 67.4128 117.744L66.6288 117.472C66.9061 116.832 67.3648 116.32 68.0048 115.936C68.6448 115.552 69.3861 115.36 70.2288 115.36ZM80.3202 124.112C79.3709 124.112 78.5389 123.925 77.8242 123.552C77.1202 123.168 76.5709 122.645 76.1762 121.984C75.7922 121.323 75.6002 120.571 75.6002 119.728C75.6002 118.875 75.7869 118.123 76.1602 117.472C76.5442 116.811 77.0669 116.293 77.7282 115.92C78.4002 115.547 79.1629 115.36 80.0162 115.36C80.8482 115.36 81.5895 115.541 82.2402 115.904C82.8909 116.267 83.4029 116.779 83.7762 117.44C84.1495 118.101 84.3362 118.88 84.3362 119.776C84.3362 119.861 84.3309 119.957 84.3202 120.064C84.3202 120.171 84.3149 120.272 84.3042 120.368H77.1842V119.04H83.2482L82.4642 119.456C82.4749 118.965 82.3735 118.533 82.1602 118.16C81.9469 117.787 81.6535 117.493 81.2802 117.28C80.9175 117.067 80.4962 116.96 80.0162 116.96C79.5255 116.96 79.0935 117.067 78.7202 117.28C78.3575 117.493 78.0695 117.792 77.8562 118.176C77.6535 118.549 77.5522 118.992 77.5522 119.504V119.824C77.5522 120.336 77.6695 120.789 77.9042 121.184C78.1389 121.579 78.4695 121.883 78.8962 122.096C79.3229 122.309 79.8135 122.416 80.3682 122.416C80.8482 122.416 81.2802 122.341 81.6642 122.192C82.0482 122.043 82.3895 121.808 82.6882 121.488L83.7602 122.72C83.3762 123.168 82.8909 123.515 82.3042 123.76C81.7282 123.995 81.0669 124.112 80.3202 124.112ZM91.1053 115.36C91.788 115.36 92.396 115.493 92.9293 115.76C93.4733 116.027 93.9 116.437 94.2093 116.992C94.5186 117.536 94.6733 118.24 94.6733 119.104V124H92.6733V119.36C92.6733 118.603 92.492 118.037 92.1293 117.664C91.7773 117.291 91.2813 117.104 90.6413 117.104C90.172 117.104 89.756 117.2 89.3933 117.392C89.0306 117.584 88.748 117.872 88.5453 118.256C88.3533 118.629 88.2573 119.104 88.2573 119.68V124H86.2573V115.456H88.1613V117.76L87.8253 117.056C88.124 116.512 88.556 116.096 89.1213 115.808C89.6973 115.509 90.3586 115.36 91.1053 115.36ZM101.098 127.216C100.309 127.216 99.5354 127.109 98.7781 126.896C98.0314 126.693 97.4181 126.395 96.9381 126L97.8341 124.496C98.2074 124.805 98.6767 125.051 99.2421 125.232C99.8181 125.424 100.399 125.52 100.986 125.52C101.925 125.52 102.613 125.301 103.05 124.864C103.487 124.437 103.706 123.792 103.706 122.928V121.408L103.866 119.472L103.802 117.536V115.456H105.706V122.704C105.706 124.251 105.311 125.387 104.522 126.112C103.733 126.848 102.591 127.216 101.098 127.216ZM100.842 123.616C100.031 123.616 99.2954 123.445 98.6341 123.104C97.9834 122.752 97.4661 122.267 97.0821 121.648C96.7087 121.029 96.5221 120.304 96.5221 119.472C96.5221 118.651 96.7087 117.931 97.0821 117.312C97.4661 116.693 97.9834 116.213 98.6341 115.872C99.2954 115.531 100.031 115.36 100.842 115.36C101.567 115.36 102.218 115.504 102.794 115.792C103.37 116.08 103.829 116.528 104.17 117.136C104.522 117.744 104.698 118.523 104.698 119.472C104.698 120.421 104.522 121.205 104.17 121.824C103.829 122.432 103.37 122.885 102.794 123.184C102.218 123.472 101.567 123.616 100.842 123.616ZM101.146 121.92C101.647 121.92 102.095 121.819 102.49 121.616C102.885 121.403 103.189 121.115 103.402 120.752C103.626 120.379 103.738 119.952 103.738 119.472C103.738 118.992 103.626 118.571 103.402 118.208C103.189 117.835 102.885 117.552 102.49 117.36C102.095 117.157 101.647 117.056 101.146 117.056C100.645 117.056 100.191 117.157 99.7861 117.36C99.3914 117.552 99.0821 117.835 98.8581 118.208C98.6447 118.571 98.5381 118.992 98.5381 119.472C98.5381 119.952 98.6447 120.379 98.8581 120.752C99.0821 121.115 99.3914 121.403 99.7861 121.616C100.191 121.819 100.645 121.92 101.146 121.92ZM113.183 115.36C113.866 115.36 114.474 115.493 115.007 115.76C115.551 116.027 115.978 116.437 116.287 116.992C116.597 117.536 116.751 118.24 116.751 119.104V124H114.751V119.36C114.751 118.603 114.57 118.037 114.207 117.664C113.855 117.291 113.359 117.104 112.719 117.104C112.25 117.104 111.834 117.2 111.471 117.392C111.109 117.584 110.826 117.872 110.623 118.256C110.431 118.629 110.335 119.104 110.335 119.68V124H108.335V112.128H110.335V117.76L109.903 117.056C110.202 116.512 110.634 116.096 111.199 115.808C111.775 115.509 112.437 115.36 113.183 115.36ZM124.553 124V122.272L124.441 121.904V118.88C124.441 118.293 124.265 117.84 123.913 117.52C123.561 117.189 123.027 117.024 122.313 117.024C121.833 117.024 121.358 117.099 120.889 117.248C120.43 117.397 120.041 117.605 119.721 117.872L118.937 116.416C119.395 116.064 119.939 115.803 120.569 115.632C121.209 115.451 121.87 115.36 122.553 115.36C123.79 115.36 124.745 115.659 125.417 116.256C126.099 116.843 126.441 117.755 126.441 118.992V124H124.553ZM121.865 124.112C121.225 124.112 120.665 124.005 120.185 123.792C119.705 123.568 119.331 123.264 119.065 122.88C118.809 122.485 118.681 122.043 118.681 121.552C118.681 121.072 118.793 120.64 119.017 120.256C119.251 119.872 119.63 119.568 120.153 119.344C120.675 119.12 121.369 119.008 122.233 119.008H124.713V120.336H122.377C121.694 120.336 121.235 120.448 121.001 120.672C120.766 120.885 120.649 121.152 120.649 121.472C120.649 121.835 120.793 122.123 121.081 122.336C121.369 122.549 121.769 122.656 122.281 122.656C122.771 122.656 123.209 122.544 123.593 122.32C123.987 122.096 124.27 121.765 124.441 121.328L124.777 122.528C124.585 123.029 124.238 123.419 123.737 123.696C123.246 123.973 122.622 124.112 121.865 124.112ZM131.647 124.112C130.933 124.112 130.245 124.021 129.583 123.84C128.933 123.648 128.415 123.419 128.031 123.152L128.799 121.632C129.183 121.877 129.642 122.08 130.175 122.24C130.709 122.4 131.242 122.48 131.775 122.48C132.405 122.48 132.858 122.395 133.135 122.224C133.423 122.053 133.567 121.824 133.567 121.536C133.567 121.301 133.471 121.125 133.279 121.008C133.087 120.88 132.837 120.784 132.527 120.72C132.218 120.656 131.871 120.597 131.487 120.544C131.114 120.491 130.735 120.421 130.351 120.336C129.978 120.24 129.637 120.107 129.327 119.936C129.018 119.755 128.767 119.515 128.575 119.216C128.383 118.917 128.287 118.523 128.287 118.032C128.287 117.488 128.442 117.019 128.751 116.624C129.061 116.219 129.493 115.909 130.047 115.696C130.613 115.472 131.279 115.36 132.047 115.36C132.623 115.36 133.205 115.424 133.791 115.552C134.378 115.68 134.863 115.861 135.247 116.096L134.479 117.616C134.074 117.371 133.663 117.205 133.247 117.12C132.842 117.024 132.437 116.976 132.031 116.976C131.423 116.976 130.97 117.067 130.671 117.248C130.383 117.429 130.239 117.659 130.239 117.936C130.239 118.192 130.335 118.384 130.527 118.512C130.719 118.64 130.97 118.741 131.279 118.816C131.589 118.891 131.93 118.955 132.303 119.008C132.687 119.051 133.066 119.12 133.439 119.216C133.813 119.312 134.154 119.445 134.463 119.616C134.783 119.776 135.039 120.005 135.231 120.304C135.423 120.603 135.519 120.992 135.519 121.472C135.519 122.005 135.359 122.469 135.039 122.864C134.73 123.259 134.287 123.568 133.711 123.792C133.135 124.005 132.447 124.112 131.647 124.112ZM137.242 124V115.456H139.242V124H137.242ZM138.25 114.048C137.876 114.048 137.567 113.931 137.322 113.696C137.087 113.461 136.97 113.179 136.97 112.848C136.97 112.507 137.087 112.224 137.322 112C137.567 111.765 137.876 111.648 138.25 111.648C138.623 111.648 138.927 111.76 139.162 111.984C139.407 112.197 139.53 112.469 139.53 112.8C139.53 113.152 139.412 113.451 139.178 113.696C138.943 113.931 138.634 114.048 138.25 114.048ZM141.867 124V112.128H143.867V124H141.867ZM148.124 122.096L148.172 119.584L152.636 115.456H155.036L151.244 119.264L150.188 120.144L148.124 122.096ZM146.492 124V112.128H148.492V124H146.492ZM152.94 124L149.82 120.144L151.084 118.544L155.372 124H152.94ZM161.771 124V122.272L161.659 121.904V118.88C161.659 118.293 161.483 117.84 161.131 117.52C160.779 117.189 160.246 117.024 159.531 117.024C159.051 117.024 158.577 117.099 158.107 117.248C157.649 117.397 157.259 117.605 156.939 117.872L156.155 116.416C156.614 116.064 157.158 115.803 157.787 115.632C158.427 115.451 159.089 115.36 159.771 115.36C161.009 115.36 161.963 115.659 162.635 116.256C163.318 116.843 163.659 117.755 163.659 118.992V124H161.771ZM159.083 124.112C158.443 124.112 157.883 124.005 157.403 123.792C156.923 123.568 156.55 123.264 156.283 122.88C156.027 122.485 155.899 122.043 155.899 121.552C155.899 121.072 156.011 120.64 156.235 120.256C156.47 119.872 156.849 119.568 157.371 119.344C157.894 119.12 158.587 119.008 159.451 119.008H161.931V120.336H159.595C158.913 120.336 158.454 120.448 158.219 120.672C157.985 120.885 157.867 121.152 157.867 121.472C157.867 121.835 158.011 122.123 158.299 122.336C158.587 122.549 158.987 122.656 159.499 122.656C159.99 122.656 160.427 122.544 160.811 122.32C161.206 122.096 161.489 121.765 161.659 121.328L161.995 122.528C161.803 123.029 161.457 123.419 160.955 123.696C160.465 123.973 159.841 124.112 159.083 124.112ZM171.074 115.36C171.757 115.36 172.365 115.493 172.898 115.76C173.442 116.027 173.869 116.437 174.178 116.992C174.487 117.536 174.642 118.24 174.642 119.104V124H172.642V119.36C172.642 118.603 172.461 118.037 172.098 117.664C171.746 117.291 171.25 117.104 170.61 117.104C170.141 117.104 169.725 117.2 169.362 117.392C168.999 117.584 168.717 117.872 168.514 118.256C168.322 118.629 168.226 119.104 168.226 119.68V124H166.226V115.456H168.13V117.76L167.794 117.056C168.093 116.512 168.525 116.096 169.09 115.808C169.666 115.509 170.327 115.36 171.074 115.36ZM88.6004 144.112C87.8858 144.112 87.1978 144.021 86.5364 143.84C85.8858 143.648 85.3684 143.419 84.9844 143.152L85.7524 141.632C86.1364 141.877 86.5951 142.08 87.1284 142.24C87.6618 142.4 88.1951 142.48 88.7284 142.48C89.3578 142.48 89.8111 142.395 90.0884 142.224C90.3764 142.053 90.5204 141.824 90.5204 141.536C90.5204 141.301 90.4244 141.125 90.2324 141.008C90.0404 140.88 89.7898 140.784 89.4804 140.72C89.1711 140.656 88.8244 140.597 88.4404 140.544C88.0671 140.491 87.6884 140.421 87.3044 140.336C86.9311 140.24 86.5898 140.107 86.2804 139.936C85.9711 139.755 85.7204 139.515 85.5284 139.216C85.3364 138.917 85.2404 138.523 85.2404 138.032C85.2404 137.488 85.3951 137.019 85.7044 136.624C86.0138 136.219 86.4458 135.909 87.0004 135.696C87.5658 135.472 88.2324 135.36 89.0004 135.36C89.5764 135.36 90.1578 135.424 90.7444 135.552C91.3311 135.68 91.8164 135.861 92.2004 136.096L91.4324 137.616C91.0271 137.371 90.6164 137.205 90.2004 137.12C89.7951 137.024 89.3898 136.976 88.9844 136.976C88.3764 136.976 87.9231 137.067 87.6244 137.248C87.3364 137.429 87.1924 137.659 87.1924 137.936C87.1924 138.192 87.2884 138.384 87.4804 138.512C87.6724 138.64 87.9231 138.741 88.2324 138.816C88.5418 138.891 88.8831 138.955 89.2564 139.008C89.6404 139.051 90.0191 139.12 90.3924 139.216C90.7658 139.312 91.1071 139.445 91.4164 139.616C91.7364 139.776 91.9924 140.005 92.1844 140.304C92.3764 140.603 92.4724 140.992 92.4724 141.472C92.4724 142.005 92.3124 142.469 91.9924 142.864C91.6831 143.259 91.2404 143.568 90.6644 143.792C90.0884 144.005 89.4004 144.112 88.6004 144.112ZM98.2108 144.112C97.2615 144.112 96.4295 143.925 95.7148 143.552C95.0108 143.168 94.4615 142.645 94.0668 141.984C93.6828 141.323 93.4908 140.571 93.4908 139.728C93.4908 138.875 93.6775 138.123 94.0508 137.472C94.4348 136.811 94.9575 136.293 95.6188 135.92C96.2908 135.547 97.0535 135.36 97.9068 135.36C98.7388 135.36 99.4801 135.541 100.131 135.904C100.781 136.267 101.293 136.779 101.667 137.44C102.04 138.101 102.227 138.88 102.227 139.776C102.227 139.861 102.221 139.957 102.211 140.064C102.211 140.171 102.205 140.272 102.195 140.368H95.0748V139.04H101.139L100.355 139.456C100.365 138.965 100.264 138.533 100.051 138.16C99.8375 137.787 99.5441 137.493 99.1708 137.28C98.8081 137.067 98.3868 136.96 97.9068 136.96C97.4161 136.96 96.9841 137.067 96.6108 137.28C96.2481 137.493 95.9601 137.792 95.7468 138.176C95.5441 138.549 95.4428 138.992 95.4428 139.504V139.824C95.4428 140.336 95.5601 140.789 95.7948 141.184C96.0295 141.579 96.3601 141.883 96.7868 142.096C97.2135 142.309 97.7041 142.416 98.2588 142.416C98.7388 142.416 99.1708 142.341 99.5548 142.192C99.9388 142.043 100.28 141.808 100.579 141.488L101.651 142.72C101.267 143.168 100.781 143.515 100.195 143.76C99.6188 143.995 98.9575 144.112 98.2108 144.112ZM106.788 144.112C106.073 144.112 105.385 144.021 104.724 143.84C104.073 143.648 103.556 143.419 103.172 143.152L103.94 141.632C104.324 141.877 104.783 142.08 105.316 142.24C105.849 142.4 106.383 142.48 106.916 142.48C107.545 142.48 107.999 142.395 108.276 142.224C108.564 142.053 108.708 141.824 108.708 141.536C108.708 141.301 108.612 141.125 108.42 141.008C108.228 140.88 107.977 140.784 107.668 140.72C107.359 140.656 107.012 140.597 106.628 140.544C106.255 140.491 105.876 140.421 105.492 140.336C105.119 140.24 104.777 140.107 104.468 139.936C104.159 139.755 103.908 139.515 103.716 139.216C103.524 138.917 103.428 138.523 103.428 138.032C103.428 137.488 103.583 137.019 103.892 136.624C104.201 136.219 104.633 135.909 105.188 135.696C105.753 135.472 106.42 135.36 107.188 135.36C107.764 135.36 108.345 135.424 108.932 135.552C109.519 135.68 110.004 135.861 110.388 136.096L109.62 137.616C109.215 137.371 108.804 137.205 108.388 137.12C107.983 137.024 107.577 136.976 107.172 136.976C106.564 136.976 106.111 137.067 105.812 137.248C105.524 137.429 105.38 137.659 105.38 137.936C105.38 138.192 105.476 138.384 105.668 138.512C105.86 138.64 106.111 138.741 106.42 138.816C106.729 138.891 107.071 138.955 107.444 139.008C107.828 139.051 108.207 139.12 108.58 139.216C108.953 139.312 109.295 139.445 109.604 139.616C109.924 139.776 110.18 140.005 110.372 140.304C110.564 140.603 110.66 140.992 110.66 141.472C110.66 142.005 110.5 142.469 110.18 142.864C109.871 143.259 109.428 143.568 108.852 143.792C108.276 144.005 107.588 144.112 106.788 144.112ZM115.998 144.112C115.273 144.112 114.633 143.979 114.078 143.712C113.524 143.435 113.092 143.019 112.782 142.464C112.473 141.899 112.318 141.189 112.318 140.336V135.456H114.318V140.064C114.318 140.832 114.489 141.408 114.83 141.792C115.182 142.165 115.678 142.352 116.318 142.352C116.788 142.352 117.193 142.256 117.534 142.064C117.886 141.872 118.158 141.584 118.35 141.2C118.553 140.816 118.654 140.341 118.654 139.776V135.456H120.654V144H118.75V141.696L119.086 142.4C118.798 142.955 118.377 143.381 117.822 143.68C117.268 143.968 116.66 144.112 115.998 144.112ZM128.537 144V142.272L128.425 141.904V138.88C128.425 138.293 128.249 137.84 127.897 137.52C127.545 137.189 127.012 137.024 126.297 137.024C125.817 137.024 125.342 137.099 124.873 137.248C124.414 137.397 124.025 137.605 123.705 137.872L122.921 136.416C123.38 136.064 123.924 135.803 124.553 135.632C125.193 135.451 125.854 135.36 126.537 135.36C127.774 135.36 128.729 135.659 129.401 136.256C130.084 136.843 130.425 137.755 130.425 138.992V144H128.537ZM125.849 144.112C125.209 144.112 124.649 144.005 124.169 143.792C123.689 143.568 123.316 143.264 123.049 142.88C122.793 142.485 122.665 142.043 122.665 141.552C122.665 141.072 122.777 140.64 123.001 140.256C123.236 139.872 123.614 139.568 124.137 139.344C124.66 139.12 125.353 139.008 126.217 139.008H128.697V140.336H126.361C125.678 140.336 125.22 140.448 124.985 140.672C124.75 140.885 124.633 141.152 124.633 141.472C124.633 141.835 124.777 142.123 125.065 142.336C125.353 142.549 125.753 142.656 126.265 142.656C126.756 142.656 127.193 142.544 127.577 142.32C127.972 142.096 128.254 141.765 128.425 141.328L128.761 142.528C128.569 143.029 128.222 143.419 127.721 143.696C127.23 143.973 126.606 144.112 125.849 144.112ZM136.208 144.112C135.269 144.112 134.544 143.872 134.032 143.392C133.52 142.901 133.264 142.181 133.264 141.232V133.568H135.264V141.184C135.264 141.589 135.365 141.904 135.568 142.128C135.781 142.352 136.074 142.464 136.448 142.464C136.896 142.464 137.269 142.347 137.568 142.112L138.128 143.536C137.893 143.728 137.605 143.872 137.264 143.968C136.922 144.064 136.57 144.112 136.208 144.112ZM131.856 137.12V135.52H137.552V137.12H131.856ZM143.389 144.112C142.664 144.112 142.024 143.979 141.469 143.712C140.914 143.435 140.482 143.019 140.173 142.464C139.864 141.899 139.709 141.189 139.709 140.336V135.456H141.709V140.064C141.709 140.832 141.88 141.408 142.221 141.792C142.573 142.165 143.069 142.352 143.709 142.352C144.178 142.352 144.584 142.256 144.925 142.064C145.277 141.872 145.549 141.584 145.741 141.2C145.944 140.816 146.045 140.341 146.045 139.776V135.456H148.045V144H146.141V141.696L146.477 142.4C146.189 142.955 145.768 143.381 145.213 143.68C144.658 143.968 144.05 144.112 143.389 144.112Z" fill="white"/>
<rect y="173" width="233" height="173" fill="#E62C20"/>
<path d="M68.61 276.36L68.498 273.896L74.37 267.8H76.706L71.826 272.984L70.674 274.248L68.61 276.36ZM66.754 279V267.8H68.834V279H66.754ZM74.562 279L70.274 273.896L71.65 272.376L76.994 279H74.562ZM81.8593 279.112C80.9099 279.112 80.0779 278.925 79.3633 278.552C78.6593 278.168 78.1099 277.645 77.7153 276.984C77.3313 276.323 77.1393 275.571 77.1393 274.728C77.1393 273.875 77.3259 273.123 77.6993 272.472C78.0833 271.811 78.6059 271.293 79.2673 270.92C79.9393 270.547 80.7019 270.36 81.5553 270.36C82.3873 270.36 83.1286 270.541 83.7793 270.904C84.4299 271.267 84.9419 271.779 85.3153 272.44C85.6886 273.101 85.8753 273.88 85.8753 274.776C85.8753 274.861 85.8699 274.957 85.8593 275.064C85.8593 275.171 85.8539 275.272 85.8433 275.368H78.7233V274.04H84.7873L84.0033 274.456C84.0139 273.965 83.9126 273.533 83.6993 273.16C83.4859 272.787 83.1926 272.493 82.8193 272.28C82.4566 272.067 82.0353 271.96 81.5553 271.96C81.0646 271.96 80.6326 272.067 80.2593 272.28C79.8966 272.493 79.6086 272.792 79.3953 273.176C79.1926 273.549 79.0913 273.992 79.0913 274.504V274.824C79.0913 275.336 79.2086 275.789 79.4433 276.184C79.6779 276.579 80.0086 276.883 80.4353 277.096C80.8619 277.309 81.3526 277.416 81.9073 277.416C82.3873 277.416 82.8193 277.341 83.2033 277.192C83.5873 277.043 83.9286 276.808 84.2273 276.488L85.2993 277.72C84.9153 278.168 84.4299 278.515 83.8433 278.76C83.2673 278.995 82.6059 279.112 81.8593 279.112ZM91.4124 279.112C90.687 279.112 90.047 278.979 89.4924 278.712C88.9377 278.435 88.5057 278.019 88.1964 277.464C87.887 276.899 87.7324 276.189 87.7324 275.336V270.456H89.7324V275.064C89.7324 275.832 89.903 276.408 90.2444 276.792C90.5964 277.165 91.0924 277.352 91.7324 277.352C92.2017 277.352 92.607 277.256 92.9484 277.064C93.3004 276.872 93.5724 276.584 93.7644 276.2C93.967 275.816 94.0684 275.341 94.0684 274.776V270.456H96.0684V279H94.1644V276.696L94.5004 277.4C94.2124 277.955 93.791 278.381 93.2364 278.68C92.6817 278.968 92.0737 279.112 91.4124 279.112ZM103.535 270.36C104.218 270.36 104.826 270.493 105.359 270.76C105.903 271.027 106.33 271.437 106.639 271.992C106.948 272.536 107.103 273.24 107.103 274.104V279H105.103V274.36C105.103 273.603 104.922 273.037 104.559 272.664C104.207 272.291 103.711 272.104 103.071 272.104C102.602 272.104 102.186 272.2 101.823 272.392C101.46 272.584 101.178 272.872 100.975 273.256C100.783 273.629 100.687 274.104 100.687 274.68V279H98.687V270.456H100.591V272.76L100.255 272.056C100.554 271.512 100.986 271.096 101.551 270.808C102.127 270.509 102.788 270.36 103.535 270.36ZM112.856 279.112C111.917 279.112 111.192 278.872 110.68 278.392C110.168 277.901 109.912 277.181 109.912 276.232V268.568H111.912V276.184C111.912 276.589 112.013 276.904 112.216 277.128C112.429 277.352 112.723 277.464 113.096 277.464C113.544 277.464 113.917 277.347 114.216 277.112L114.776 278.536C114.541 278.728 114.253 278.872 113.912 278.968C113.571 279.064 113.219 279.112 112.856 279.112ZM108.504 272.12V270.52H114.2V272.12H108.504ZM120.037 279.112C119.312 279.112 118.672 278.979 118.117 278.712C117.563 278.435 117.131 278.019 116.821 277.464C116.512 276.899 116.357 276.189 116.357 275.336V270.456H118.357V275.064C118.357 275.832 118.528 276.408 118.869 276.792C119.221 277.165 119.717 277.352 120.357 277.352C120.827 277.352 121.232 277.256 121.573 277.064C121.925 276.872 122.197 276.584 122.389 276.2C122.592 275.816 122.693 275.341 122.693 274.776V270.456H124.693V279H122.789V276.696L123.125 277.4C122.837 277.955 122.416 278.381 121.861 278.68C121.307 278.968 120.699 279.112 120.037 279.112ZM132.16 270.36C132.843 270.36 133.451 270.493 133.984 270.76C134.528 271.027 134.955 271.437 135.264 271.992C135.573 272.536 135.728 273.24 135.728 274.104V279H133.728V274.36C133.728 273.603 133.547 273.037 133.184 272.664C132.832 272.291 132.336 272.104 131.696 272.104C131.227 272.104 130.811 272.2 130.448 272.392C130.085 272.584 129.803 272.872 129.6 273.256C129.408 273.629 129.312 274.104 129.312 274.68V279H127.312V270.456H129.216V272.76L128.88 272.056C129.179 271.512 129.611 271.096 130.176 270.808C130.752 270.509 131.413 270.36 132.16 270.36ZM142.153 282.216C141.363 282.216 140.59 282.109 139.833 281.896C139.086 281.693 138.473 281.395 137.993 281L138.889 279.496C139.262 279.805 139.731 280.051 140.297 280.232C140.873 280.424 141.454 280.52 142.041 280.52C142.979 280.52 143.667 280.301 144.105 279.864C144.542 279.437 144.761 278.792 144.761 277.928V276.408L144.921 274.472L144.857 272.536V270.456H146.761V277.704C146.761 279.251 146.366 280.387 145.577 281.112C144.787 281.848 143.646 282.216 142.153 282.216ZM141.897 278.616C141.086 278.616 140.35 278.445 139.689 278.104C139.038 277.752 138.521 277.267 138.137 276.648C137.763 276.029 137.577 275.304 137.577 274.472C137.577 273.651 137.763 272.931 138.137 272.312C138.521 271.693 139.038 271.213 139.689 270.872C140.35 270.531 141.086 270.36 141.897 270.36C142.622 270.36 143.273 270.504 143.849 270.792C144.425 271.08 144.883 271.528 145.225 272.136C145.577 272.744 145.753 273.523 145.753 274.472C145.753 275.421 145.577 276.205 145.225 276.824C144.883 277.432 144.425 277.885 143.849 278.184C143.273 278.472 142.622 278.616 141.897 278.616ZM142.201 276.92C142.702 276.92 143.15 276.819 143.545 276.616C143.939 276.403 144.243 276.115 144.457 275.752C144.681 275.379 144.793 274.952 144.793 274.472C144.793 273.992 144.681 273.571 144.457 273.208C144.243 272.835 143.939 272.552 143.545 272.36C143.15 272.157 142.702 272.056 142.201 272.056C141.699 272.056 141.246 272.157 140.841 272.36C140.446 272.552 140.137 272.835 139.913 273.208C139.699 273.571 139.593 273.992 139.593 274.472C139.593 274.952 139.699 275.379 139.913 275.752C140.137 276.115 140.446 276.403 140.841 276.616C141.246 276.819 141.699 276.92 142.201 276.92ZM154.654 279V277.272L154.542 276.904V273.88C154.542 273.293 154.366 272.84 154.014 272.52C153.662 272.189 153.129 272.024 152.414 272.024C151.934 272.024 151.459 272.099 150.99 272.248C150.531 272.397 150.142 272.605 149.822 272.872L149.038 271.416C149.497 271.064 150.041 270.803 150.67 270.632C151.31 270.451 151.971 270.36 152.654 270.36C153.891 270.36 154.846 270.659 155.518 271.256C156.201 271.843 156.542 272.755 156.542 273.992V279H154.654ZM151.966 279.112C151.326 279.112 150.766 279.005 150.286 278.792C149.806 278.568 149.433 278.264 149.166 277.88C148.91 277.485 148.782 277.043 148.782 276.552C148.782 276.072 148.894 275.64 149.118 275.256C149.353 274.872 149.731 274.568 150.254 274.344C150.777 274.12 151.47 274.008 152.334 274.008H154.814V275.336H152.478C151.795 275.336 151.337 275.448 151.102 275.672C150.867 275.885 150.75 276.152 150.75 276.472C150.75 276.835 150.894 277.123 151.182 277.336C151.47 277.549 151.87 277.656 152.382 277.656C152.873 277.656 153.31 277.544 153.694 277.32C154.089 277.096 154.371 276.765 154.542 276.328L154.878 277.528C154.686 278.029 154.339 278.419 153.838 278.696C153.347 278.973 152.723 279.112 151.966 279.112ZM163.957 270.36C164.64 270.36 165.248 270.493 165.781 270.76C166.325 271.027 166.752 271.437 167.061 271.992C167.37 272.536 167.525 273.24 167.525 274.104V279H165.525V274.36C165.525 273.603 165.344 273.037 164.981 272.664C164.629 272.291 164.133 272.104 163.493 272.104C163.024 272.104 162.608 272.2 162.245 272.392C161.882 272.584 161.6 272.872 161.397 273.256C161.205 273.629 161.109 274.104 161.109 274.68V279H159.109V270.456H161.013V272.76L160.677 272.056C160.976 271.512 161.408 271.096 161.973 270.808C162.549 270.509 163.21 270.36 163.957 270.36Z" fill="white"/>
<path d="M97.37 224.8H104.498V250H97.37V224.8ZM87.65 250H80.522V224.8H87.65V250ZM97.874 240.172H87.146V234.268H97.874V240.172ZM109.202 250V230.488H116.042V250H109.202ZM112.622 228.328C111.374 228.328 110.366 227.98 109.598 227.284C108.83 226.588 108.446 225.724 108.446 224.692C108.446 223.66 108.83 222.796 109.598 222.1C110.366 221.404 111.374 221.056 112.622 221.056C113.87 221.056 114.878 221.392 115.646 222.064C116.414 222.712 116.798 223.552 116.798 224.584C116.798 225.664 116.414 226.564 115.646 227.284C114.902 227.98 113.894 228.328 112.622 228.328ZM129.199 250.324C126.703 250.324 124.759 249.712 123.367 248.488C121.975 247.24 121.279 245.368 121.279 242.872V226.132H128.119V242.8C128.119 243.496 128.311 244.048 128.695 244.456C129.079 244.84 129.571 245.032 130.171 245.032C130.987 245.032 131.683 244.828 132.259 244.42L133.951 249.208C133.375 249.592 132.667 249.868 131.827 250.036C130.987 250.228 130.111 250.324 129.199 250.324ZM118.435 236.32V231.208H132.583V236.32H118.435ZM148.505 250V246.364L148.037 245.464V238.768C148.037 237.688 147.701 236.86 147.029 236.284C146.381 235.684 145.337 235.384 143.897 235.384C142.961 235.384 142.013 235.54 141.053 235.852C140.093 236.14 139.277 236.548 138.605 237.076L136.301 232.432C137.405 231.712 138.725 231.16 140.261 230.776C141.821 230.368 143.369 230.164 144.905 230.164C148.073 230.164 150.521 230.896 152.249 232.36C154.001 233.8 154.877 236.068 154.877 239.164V250H148.505ZM142.745 250.324C141.185 250.324 139.865 250.06 138.785 249.532C137.705 249.004 136.877 248.284 136.301 247.372C135.749 246.46 135.473 245.44 135.473 244.312C135.473 243.112 135.773 242.08 136.373 241.216C136.997 240.328 137.945 239.656 139.217 239.2C140.489 238.72 142.133 238.48 144.149 238.48H148.757V242.044H145.085C143.981 242.044 143.201 242.224 142.745 242.584C142.313 242.944 142.097 243.424 142.097 244.024C142.097 244.624 142.325 245.104 142.781 245.464C143.237 245.824 143.861 246.004 144.653 246.004C145.397 246.004 146.069 245.824 146.669 245.464C147.293 245.08 147.749 244.504 148.037 243.736L148.973 246.256C148.613 247.6 147.905 248.62 146.849 249.316C145.817 249.988 144.449 250.324 142.745 250.324Z" fill="white"/>
<path d="M78.002 254.5H157.001V256.3H78.002V254.5Z" fill="white"/>
<rect y="346" width="233" height="173" fill="#F69722"/>
<path d="M69.4728 452V440.8H71.1848L76.0808 448.976H75.1848L80.0008 440.8H81.7128L81.7288 452H79.7608L79.7448 443.888H80.1608L76.0648 450.72H75.1368L70.9768 443.888H71.4568V452H69.4728ZM88.578 452.112C87.6287 452.112 86.7967 451.925 86.082 451.552C85.378 451.168 84.8287 450.645 84.434 449.984C84.05 449.323 83.858 448.571 83.858 447.728C83.858 446.875 84.0447 446.123 84.418 445.472C84.802 444.811 85.3247 444.293 85.986 443.92C86.658 443.547 87.4207 443.36 88.274 443.36C89.106 443.36 89.8473 443.541 90.498 443.904C91.1487 444.267 91.6607 444.779 92.034 445.44C92.4073 446.101 92.594 446.88 92.594 447.776C92.594 447.861 92.5887 447.957 92.578 448.064C92.578 448.171 92.5727 448.272 92.562 448.368H85.442V447.04H91.506L90.722 447.456C90.7327 446.965 90.6313 446.533 90.418 446.16C90.2047 445.787 89.9113 445.493 89.538 445.28C89.1753 445.067 88.754 444.96 88.274 444.96C87.7833 444.96 87.3513 445.067 86.978 445.28C86.6153 445.493 86.3273 445.792 86.114 446.176C85.9113 446.549 85.81 446.992 85.81 447.504V447.824C85.81 448.336 85.9273 448.789 86.162 449.184C86.3967 449.579 86.7273 449.883 87.154 450.096C87.5807 450.309 88.0713 450.416 88.626 450.416C89.106 450.416 89.538 450.341 89.922 450.192C90.306 450.043 90.6473 449.808 90.946 449.488L92.018 450.72C91.634 451.168 91.1487 451.515 90.562 451.76C89.986 451.995 89.3247 452.112 88.578 452.112ZM105.299 443.36C105.982 443.36 106.584 443.493 107.107 443.76C107.64 444.027 108.056 444.437 108.355 444.992C108.654 445.536 108.803 446.24 108.803 447.104V452H106.803V447.36C106.803 446.603 106.638 446.037 106.307 445.664C105.976 445.291 105.502 445.104 104.883 445.104C104.446 445.104 104.056 445.2 103.715 445.392C103.384 445.584 103.123 445.867 102.931 446.24C102.75 446.613 102.659 447.088 102.659 447.664V452H100.659V447.36C100.659 446.603 100.494 446.037 100.163 445.664C99.8325 445.291 99.3578 445.104 98.7391 445.104C98.3018 445.104 97.9125 445.2 97.5711 445.392C97.2405 445.584 96.9791 445.867 96.7871 446.24C96.6058 446.613 96.5151 447.088 96.5151 447.664V452H94.5151V443.456H96.4191V445.728L96.0831 445.056C96.3711 444.501 96.7871 444.08 97.3311 443.792C97.8858 443.504 98.5151 443.36 99.2191 443.36C100.019 443.36 100.712 443.557 101.299 443.952C101.896 444.347 102.291 444.944 102.483 445.744L101.699 445.472C101.976 444.832 102.435 444.32 103.075 443.936C103.715 443.552 104.456 443.36 105.299 443.36ZM116.095 452.112C115.402 452.112 114.767 451.952 114.191 451.632C113.626 451.312 113.172 450.832 112.831 450.192C112.5 449.541 112.335 448.72 112.335 447.728C112.335 446.725 112.495 445.904 112.815 445.264C113.146 444.624 113.594 444.149 114.159 443.84C114.724 443.52 115.37 443.36 116.095 443.36C116.938 443.36 117.679 443.541 118.319 443.904C118.97 444.267 119.482 444.773 119.855 445.424C120.239 446.075 120.431 446.843 120.431 447.728C120.431 448.613 120.239 449.387 119.855 450.048C119.482 450.699 118.97 451.205 118.319 451.568C117.679 451.931 116.938 452.112 116.095 452.112ZM111.359 455.104V443.456H113.263V445.472L113.199 447.744L113.359 450.016V455.104H111.359ZM115.871 450.4C116.351 450.4 116.778 450.293 117.151 450.08C117.535 449.867 117.839 449.557 118.063 449.152C118.287 448.747 118.399 448.272 118.399 447.728C118.399 447.173 118.287 446.699 118.063 446.304C117.839 445.899 117.535 445.589 117.151 445.376C116.778 445.163 116.351 445.056 115.871 445.056C115.391 445.056 114.959 445.163 114.575 445.376C114.191 445.589 113.887 445.899 113.663 446.304C113.439 446.699 113.327 447.173 113.327 447.728C113.327 448.272 113.439 448.747 113.663 449.152C113.887 449.557 114.191 449.867 114.575 450.08C114.959 450.293 115.391 450.4 115.871 450.4ZM125.944 452.112C125.218 452.112 124.578 451.979 124.024 451.712C123.469 451.435 123.037 451.019 122.728 450.464C122.418 449.899 122.264 449.189 122.264 448.336V443.456H124.264V448.064C124.264 448.832 124.434 449.408 124.776 449.792C125.128 450.165 125.624 450.352 126.264 450.352C126.733 450.352 127.138 450.256 127.48 450.064C127.832 449.872 128.104 449.584 128.296 449.2C128.498 448.816 128.6 448.341 128.6 447.776V443.456H130.6V452H128.696V449.696L129.032 450.4C128.744 450.955 128.322 451.381 127.768 451.68C127.213 451.968 126.605 452.112 125.944 452.112ZM138.066 443.36C138.749 443.36 139.357 443.493 139.89 443.76C140.434 444.027 140.861 444.437 141.17 444.992C141.48 445.536 141.634 446.24 141.634 447.104V452H139.634V447.36C139.634 446.603 139.453 446.037 139.09 445.664C138.738 445.291 138.242 445.104 137.602 445.104C137.133 445.104 136.717 445.2 136.354 445.392C135.992 445.584 135.709 445.872 135.506 446.256C135.314 446.629 135.218 447.104 135.218 447.68V452H133.218V443.456H135.122V445.76L134.786 445.056C135.085 444.512 135.517 444.096 136.082 443.808C136.658 443.509 137.32 443.36 138.066 443.36ZM144.719 455.216C144.303 455.216 143.887 455.147 143.471 455.008C143.055 454.869 142.708 454.677 142.431 454.432L143.231 452.96C143.434 453.141 143.663 453.285 143.919 453.392C144.175 453.499 144.436 453.552 144.703 453.552C145.066 453.552 145.359 453.461 145.583 453.28C145.807 453.099 146.015 452.795 146.207 452.368L146.703 451.248L146.863 451.008L150.095 443.456H152.015L148.015 452.688C147.748 453.328 147.45 453.835 147.119 454.208C146.799 454.581 146.436 454.843 146.031 454.992C145.636 455.141 145.199 455.216 144.719 455.216ZM146.479 452.304L142.623 443.456H144.703L147.839 450.832L146.479 452.304ZM158.264 452V450.272L158.152 449.904V446.88C158.152 446.293 157.976 445.84 157.624 445.52C157.272 445.189 156.738 445.024 156.024 445.024C155.544 445.024 155.069 445.099 154.6 445.248C154.141 445.397 153.752 445.605 153.432 445.872L152.648 444.416C153.106 444.064 153.65 443.803 154.28 443.632C154.92 443.451 155.581 443.36 156.264 443.36C157.501 443.36 158.456 443.659 159.128 444.256C159.81 444.843 160.152 445.755 160.152 446.992V452H158.264ZM155.576 452.112C154.936 452.112 154.376 452.005 153.896 451.792C153.416 451.568 153.042 451.264 152.776 450.88C152.52 450.485 152.392 450.043 152.392 449.552C152.392 449.072 152.504 448.64 152.728 448.256C152.962 447.872 153.341 447.568 153.864 447.344C154.386 447.12 155.08 447.008 155.944 447.008H158.424V448.336H156.088C155.405 448.336 154.946 448.448 154.712 448.672C154.477 448.885 154.36 449.152 154.36 449.472C154.36 449.835 154.504 450.123 154.792 450.336C155.08 450.549 155.48 450.656 155.992 450.656C156.482 450.656 156.92 450.544 157.304 450.32C157.698 450.096 157.981 449.765 158.152 449.328L158.488 450.528C158.296 451.029 157.949 451.419 157.448 451.696C156.957 451.973 156.333 452.112 155.576 452.112ZM162.718 452V443.456H164.718V452H162.718ZM163.726 442.048C163.353 442.048 163.044 441.931 162.798 441.696C162.564 441.461 162.446 441.179 162.446 440.848C162.446 440.507 162.564 440.224 162.798 440C163.044 439.765 163.353 439.648 163.726 439.648C164.1 439.648 164.404 439.76 164.638 439.984C164.884 440.197 165.006 440.469 165.006 440.8C165.006 441.152 164.889 441.451 164.654 441.696C164.42 441.931 164.11 442.048 163.726 442.048ZM89.1834 463.36C89.8661 463.36 90.4741 463.493 91.0074 463.76C91.5514 464.027 91.9781 464.437 92.2874 464.992C92.5968 465.536 92.7514 466.24 92.7514 467.104V472H90.7514V467.36C90.7514 466.603 90.5701 466.037 90.2074 465.664C89.8554 465.291 89.3594 465.104 88.7194 465.104C88.2501 465.104 87.8341 465.2 87.4714 465.392C87.1088 465.584 86.8261 465.872 86.6234 466.256C86.4314 466.629 86.3354 467.104 86.3354 467.68V472H84.3354V460.128H86.3354V465.76L85.9034 465.056C86.2021 464.512 86.6341 464.096 87.1994 463.808C87.7754 463.509 88.4368 463.36 89.1834 463.36ZM100.553 472V470.272L100.441 469.904V466.88C100.441 466.293 100.265 465.84 99.9126 465.52C99.5606 465.189 99.0272 465.024 98.3126 465.024C97.8326 465.024 97.3579 465.099 96.8886 465.248C96.4299 465.397 96.0406 465.605 95.7206 465.872L94.9366 464.416C95.3952 464.064 95.9392 463.803 96.5686 463.632C97.2086 463.451 97.8699 463.36 98.5526 463.36C99.7899 463.36 100.745 463.659 101.417 464.256C102.099 464.843 102.441 465.755 102.441 466.992V472H100.553ZM97.8646 472.112C97.2246 472.112 96.6646 472.005 96.1846 471.792C95.7046 471.568 95.3312 471.264 95.0646 470.88C94.8086 470.485 94.6806 470.043 94.6806 469.552C94.6806 469.072 94.7926 468.64 95.0166 468.256C95.2512 467.872 95.6299 467.568 96.1526 467.344C96.6752 467.12 97.3686 467.008 98.2326 467.008H100.713V468.336H98.3766C97.6939 468.336 97.2352 468.448 97.0006 468.672C96.7659 468.885 96.6486 469.152 96.6486 469.472C96.6486 469.835 96.7926 470.123 97.0806 470.336C97.3686 470.549 97.7686 470.656 98.2806 470.656C98.7712 470.656 99.2086 470.544 99.5926 470.32C99.9872 470.096 100.27 469.765 100.441 469.328L100.777 470.528C100.585 471.029 100.238 471.419 99.7366 471.696C99.2459 471.973 98.6219 472.112 97.8646 472.112ZM105.007 472V463.456H106.911V465.808L106.687 465.12C106.943 464.544 107.343 464.107 107.887 463.808C108.442 463.509 109.13 463.36 109.951 463.36V465.264C109.866 465.243 109.786 465.232 109.711 465.232C109.637 465.221 109.562 465.216 109.487 465.216C108.73 465.216 108.127 465.44 107.679 465.888C107.231 466.325 107.007 466.981 107.007 467.856V472H105.007ZM116.303 472V470.272L116.191 469.904V466.88C116.191 466.293 116.015 465.84 115.663 465.52C115.311 465.189 114.777 465.024 114.063 465.024C113.583 465.024 113.108 465.099 112.639 465.248C112.18 465.397 111.791 465.605 111.471 465.872L110.687 464.416C111.145 464.064 111.689 463.803 112.319 463.632C112.959 463.451 113.62 463.36 114.303 463.36C115.54 463.36 116.495 463.659 117.167 464.256C117.849 464.843 118.191 465.755 118.191 466.992V472H116.303ZM113.615 472.112C112.975 472.112 112.415 472.005 111.935 471.792C111.455 471.568 111.081 471.264 110.815 470.88C110.559 470.485 110.431 470.043 110.431 469.552C110.431 469.072 110.543 468.64 110.767 468.256C111.001 467.872 111.38 467.568 111.903 467.344C112.425 467.12 113.119 467.008 113.983 467.008H116.463V468.336H114.127C113.444 468.336 112.985 468.448 112.751 468.672C112.516 468.885 112.399 469.152 112.399 469.472C112.399 469.835 112.543 470.123 112.831 470.336C113.119 470.549 113.519 470.656 114.031 470.656C114.521 470.656 114.959 470.544 115.343 470.32C115.737 470.096 116.02 469.765 116.191 469.328L116.527 470.528C116.335 471.029 115.988 471.419 115.487 471.696C114.996 471.973 114.372 472.112 113.615 472.112ZM125.493 472.112C124.8 472.112 124.165 471.952 123.589 471.632C123.024 471.312 122.571 470.832 122.229 470.192C121.899 469.541 121.733 468.72 121.733 467.728C121.733 466.725 121.893 465.904 122.213 465.264C122.544 464.624 122.992 464.149 123.557 463.84C124.123 463.52 124.768 463.36 125.493 463.36C126.336 463.36 127.077 463.541 127.717 463.904C128.368 464.267 128.88 464.773 129.253 465.424C129.637 466.075 129.829 466.843 129.829 467.728C129.829 468.613 129.637 469.387 129.253 470.048C128.88 470.699 128.368 471.205 127.717 471.568C127.077 471.931 126.336 472.112 125.493 472.112ZM120.757 475.104V463.456H122.661V465.472L122.597 467.744L122.757 470.016V475.104H120.757ZM125.269 470.4C125.749 470.4 126.176 470.293 126.549 470.08C126.933 469.867 127.237 469.557 127.461 469.152C127.685 468.747 127.797 468.272 127.797 467.728C127.797 467.173 127.685 466.699 127.461 466.304C127.237 465.899 126.933 465.589 126.549 465.376C126.176 465.163 125.749 465.056 125.269 465.056C124.789 465.056 124.357 465.163 123.973 465.376C123.589 465.589 123.285 465.899 123.061 466.304C122.837 466.699 122.725 467.173 122.725 467.728C122.725 468.272 122.837 468.747 123.061 469.152C123.285 469.557 123.589 469.867 123.973 470.08C124.357 470.293 124.789 470.4 125.269 470.4ZM136.881 472V470.272L136.769 469.904V466.88C136.769 466.293 136.593 465.84 136.241 465.52C135.889 465.189 135.355 465.024 134.641 465.024C134.161 465.024 133.686 465.099 133.217 465.248C132.758 465.397 132.369 465.605 132.049 465.872L131.265 464.416C131.723 464.064 132.267 463.803 132.897 463.632C133.537 463.451 134.198 463.36 134.881 463.36C136.118 463.36 137.073 463.659 137.745 464.256C138.427 464.843 138.769 465.755 138.769 466.992V472H136.881ZM134.193 472.112C133.553 472.112 132.993 472.005 132.513 471.792C132.033 471.568 131.659 471.264 131.393 470.88C131.137 470.485 131.009 470.043 131.009 469.552C131.009 469.072 131.121 468.64 131.345 468.256C131.579 467.872 131.958 467.568 132.481 467.344C133.003 467.12 133.697 467.008 134.561 467.008H137.041V468.336H134.705C134.022 468.336 133.563 468.448 133.329 468.672C133.094 468.885 132.977 469.152 132.977 469.472C132.977 469.835 133.121 470.123 133.409 470.336C133.697 470.549 134.097 470.656 134.609 470.656C135.099 470.656 135.537 470.544 135.921 470.32C136.315 470.096 136.598 469.765 136.769 469.328L137.105 470.528C136.913 471.029 136.566 471.419 136.065 471.696C135.574 471.973 134.95 472.112 134.193 472.112ZM146.183 463.36C146.866 463.36 147.474 463.493 148.007 463.76C148.551 464.027 148.978 464.437 149.287 464.992C149.597 465.536 149.751 466.24 149.751 467.104V472H147.751V467.36C147.751 466.603 147.57 466.037 147.207 465.664C146.855 465.291 146.359 465.104 145.719 465.104C145.25 465.104 144.834 465.2 144.471 465.392C144.109 465.584 143.826 465.872 143.623 466.256C143.431 466.629 143.335 467.104 143.335 467.68V472H141.335V463.456H143.239V465.76L142.903 465.056C143.202 464.512 143.634 464.096 144.199 463.808C144.775 463.509 145.437 463.36 146.183 463.36Z" fill="white"/>
<path d="M18.5155 423L29.6395 397.8H36.6595L47.8195 423H40.4035L31.6915 401.292H34.4995L25.7875 423H18.5155ZM24.5995 418.104L26.4355 412.848H38.7475L40.5835 418.104H24.5995ZM61.7923 423.324C60.0403 423.324 58.5763 422.964 57.4003 422.244C56.2483 421.524 55.3843 420.42 54.8083 418.932C54.2323 417.444 53.9443 415.536 53.9443 413.208C53.9443 410.928 54.2443 409.044 54.8443 407.556C55.4683 406.068 56.3683 404.964 57.5443 404.244C58.7203 403.524 60.1363 403.164 61.7923 403.164C63.5683 403.164 65.1763 403.572 66.6163 404.388C68.0803 405.204 69.2323 406.368 70.0723 407.88C70.9363 409.368 71.3683 411.144 71.3683 413.208C71.3683 415.296 70.9363 417.096 70.0723 418.608C69.2323 420.096 68.0803 421.26 66.6163 422.1C65.1763 422.916 63.5683 423.324 61.7923 423.324ZM49.5163 423V396.288H56.3563V406.764L55.9963 413.208L56.0323 419.652V423H49.5163ZM60.3523 417.888C61.1203 417.888 61.8043 417.708 62.4043 417.348C63.0283 416.988 63.5203 416.46 63.8803 415.764C64.2643 415.044 64.4563 414.192 64.4563 413.208C64.4563 412.224 64.2643 411.396 63.8803 410.724C63.5203 410.028 63.0283 409.5 62.4043 409.14C61.8043 408.78 61.1203 408.6 60.3523 408.6C59.5843 408.6 58.8883 408.78 58.2643 409.14C57.6643 409.5 57.1723 410.028 56.7883 410.724C56.4283 411.396 56.2483 412.224 56.2483 413.208C56.2483 414.192 56.4283 415.044 56.7883 415.764C57.1723 416.46 57.6643 416.988 58.2643 417.348C58.8883 417.708 59.5843 417.888 60.3523 417.888ZM87.2556 403.164C88.7676 403.164 90.1356 403.476 91.3596 404.1C92.5836 404.7 93.5436 405.636 94.2396 406.908C94.9596 408.18 95.3196 409.824 95.3196 411.84V423H88.4796V412.956C88.4796 411.564 88.1916 410.556 87.6156 409.932C87.0636 409.284 86.2836 408.96 85.2756 408.96C84.5556 408.96 83.8956 409.128 83.2956 409.464C82.6956 409.776 82.2276 410.268 81.8916 410.94C81.5556 411.612 81.3876 412.488 81.3876 413.568V423H74.5476V396.288H81.3876V409.032L79.8036 407.412C80.5476 405.996 81.5676 404.94 82.8636 404.244C84.1596 403.524 85.6236 403.164 87.2556 403.164ZM99.614 423V403.488H106.454V423H99.614ZM103.034 401.328C101.786 401.328 100.778 400.98 100.01 400.284C99.242 399.588 98.858 398.724 98.858 397.692C98.858 396.66 99.242 395.796 100.01 395.1C100.778 394.404 101.786 394.056 103.034 394.056C104.282 394.056 105.29 394.392 106.058 395.064C106.826 395.712 107.21 396.552 107.21 397.584C107.21 398.664 106.826 399.564 106.058 400.284C105.314 400.98 104.306 401.328 103.034 401.328ZM123.175 423.324C121.519 423.324 120.103 422.964 118.927 422.244C117.751 421.5 116.851 420.396 116.227 418.932C115.627 417.444 115.327 415.548 115.327 413.244C115.327 410.916 115.615 409.02 116.191 407.556C116.767 406.068 117.631 404.964 118.783 404.244C119.959 403.524 121.423 403.164 123.175 403.164C124.951 403.164 126.559 403.584 127.999 404.424C129.463 405.24 130.615 406.404 131.455 407.916C132.319 409.404 132.751 411.18 132.751 413.244C132.751 415.308 132.319 417.096 131.455 418.608C130.615 420.12 129.463 421.284 127.999 422.1C126.559 422.916 124.951 423.324 123.175 423.324ZM110.899 429.984V403.488H117.415V406.8L117.379 413.244L117.739 419.724V429.984H110.899ZM121.735 417.888C122.503 417.888 123.187 417.708 123.787 417.348C124.411 416.988 124.903 416.46 125.263 415.764C125.647 415.068 125.839 414.228 125.839 413.244C125.839 412.26 125.647 411.42 125.263 410.724C124.903 410.028 124.411 409.5 123.787 409.14C123.187 408.78 122.503 408.6 121.735 408.6C120.967 408.6 120.271 408.78 119.647 409.14C119.047 409.5 118.555 410.028 118.171 410.724C117.811 411.42 117.631 412.26 117.631 413.244C117.631 414.228 117.811 415.068 118.171 415.764C118.555 416.46 119.047 416.988 119.647 417.348C120.271 417.708 120.967 417.888 121.735 417.888ZM135.93 423V403.488H142.446V409.176L141.474 407.556C142.05 406.092 142.986 405 144.282 404.28C145.578 403.536 147.15 403.164 148.998 403.164V409.32C148.686 409.272 148.41 409.248 148.17 409.248C147.954 409.224 147.714 409.212 147.45 409.212C146.058 409.212 144.93 409.596 144.066 410.364C143.202 411.108 142.77 412.332 142.77 414.036V423H135.93ZM162.577 423V419.364L162.109 418.464V411.768C162.109 410.688 161.773 409.86 161.101 409.284C160.453 408.684 159.409 408.384 157.969 408.384C157.033 408.384 156.085 408.54 155.125 408.852C154.165 409.14 153.349 409.548 152.677 410.076L150.373 405.432C151.477 404.712 152.797 404.16 154.333 403.776C155.893 403.368 157.441 403.164 158.977 403.164C162.145 403.164 164.593 403.896 166.321 405.36C168.073 406.8 168.949 409.068 168.949 412.164V423H162.577ZM156.817 423.324C155.257 423.324 153.937 423.06 152.857 422.532C151.777 422.004 150.949 421.284 150.373 420.372C149.821 419.46 149.545 418.44 149.545 417.312C149.545 416.112 149.845 415.08 150.445 414.216C151.069 413.328 152.017 412.656 153.289 412.2C154.561 411.72 156.205 411.48 158.221 411.48H162.829V415.044H159.157C158.053 415.044 157.273 415.224 156.817 415.584C156.385 415.944 156.169 416.424 156.169 417.024C156.169 417.624 156.397 418.104 156.853 418.464C157.309 418.824 157.933 419.004 158.725 419.004C159.469 419.004 160.141 418.824 160.741 418.464C161.365 418.08 161.821 417.504 162.109 416.736L163.045 419.256C162.685 420.6 161.977 421.62 160.921 422.316C159.889 422.988 158.521 423.324 156.817 423.324ZM176.263 430.308C175.231 430.308 174.187 430.14 173.131 429.804C172.099 429.492 171.259 429.072 170.611 428.544L172.987 423.756C173.395 424.116 173.863 424.392 174.391 424.584C174.943 424.8 175.483 424.908 176.011 424.908C176.755 424.908 177.343 424.74 177.775 424.404C178.207 424.068 178.579 423.54 178.891 422.82L179.791 420.552L180.331 419.868L186.955 403.488H193.471L185.047 423.792C184.375 425.472 183.595 426.78 182.707 427.716C181.843 428.676 180.871 429.348 179.791 429.732C178.735 430.116 177.559 430.308 176.263 430.308ZM178.927 423.828L170.323 403.488H177.343L183.679 419.256L178.927 423.828ZM206.487 423V419.364L206.019 418.464V411.768C206.019 410.688 205.683 409.86 205.011 409.284C204.363 408.684 203.319 408.384 201.879 408.384C200.943 408.384 199.995 408.54 199.035 408.852C198.075 409.14 197.259 409.548 196.587 410.076L194.283 405.432C195.387 404.712 196.707 404.16 198.243 403.776C199.803 403.368 201.351 403.164 202.887 403.164C206.055 403.164 208.503 403.896 210.231 405.36C211.983 406.8 212.859 409.068 212.859 412.164V423H206.487ZM200.727 423.324C199.167 423.324 197.847 423.06 196.767 422.532C195.687 422.004 194.859 421.284 194.283 420.372C193.731 419.46 193.455 418.44 193.455 417.312C193.455 416.112 193.755 415.08 194.355 414.216C194.979 413.328 195.927 412.656 197.199 412.2C198.471 411.72 200.115 411.48 202.131 411.48H206.739V415.044H203.067C201.963 415.044 201.183 415.224 200.727 415.584C200.295 415.944 200.079 416.424 200.079 417.024C200.079 417.624 200.307 418.104 200.763 418.464C201.219 418.824 201.843 419.004 202.635 419.004C203.379 419.004 204.051 418.824 204.651 418.464C205.275 418.08 205.731 417.504 206.019 416.736L206.955 419.256C206.595 420.6 205.887 421.62 204.831 422.316C203.799 422.988 202.431 423.324 200.727 423.324Z" fill="white"/>
<path d="M19.0195 427.5H214.983V429.3H19.0195V427.5Z" fill="white"/>
<rect y="519" width="233" height="173" fill="#9C4A9A"/>
<path d="M61.5163 622.36L61.4043 619.896L67.2763 613.8H69.6123L64.7323 618.984L63.5803 620.248L61.5163 622.36ZM59.6603 625V613.8H61.7403V625H59.6603ZM67.4683 625L63.1803 619.896L64.5563 618.376L69.9003 625H67.4683ZM74.7655 625.112C73.8162 625.112 72.9842 624.925 72.2695 624.552C71.5655 624.168 71.0162 623.645 70.6215 622.984C70.2375 622.323 70.0455 621.571 70.0455 620.728C70.0455 619.875 70.2322 619.123 70.6055 618.472C70.9895 617.811 71.5122 617.293 72.1735 616.92C72.8455 616.547 73.6082 616.36 74.4615 616.36C75.2935 616.36 76.0348 616.541 76.6855 616.904C77.3362 617.267 77.8482 617.779 78.2215 618.44C78.5948 619.101 78.7815 619.88 78.7815 620.776C78.7815 620.861 78.7762 620.957 78.7655 621.064C78.7655 621.171 78.7602 621.272 78.7495 621.368H71.6295V620.04H77.6935L76.9095 620.456C76.9202 619.965 76.8188 619.533 76.6055 619.16C76.3922 618.787 76.0988 618.493 75.7255 618.28C75.3628 618.067 74.9415 617.96 74.4615 617.96C73.9708 617.96 73.5388 618.067 73.1655 618.28C72.8028 618.493 72.5148 618.792 72.3015 619.176C72.0988 619.549 71.9975 619.992 71.9975 620.504V620.824C71.9975 621.336 72.1148 621.789 72.3495 622.184C72.5842 622.579 72.9148 622.883 73.3415 623.096C73.7682 623.309 74.2588 623.416 74.8135 623.416C75.2935 623.416 75.7255 623.341 76.1095 623.192C76.4935 623.043 76.8348 622.808 77.1335 622.488L78.2055 623.72C77.8215 624.168 77.3362 624.515 76.7495 624.76C76.1735 624.995 75.5122 625.112 74.7655 625.112ZM83.3426 625.112C82.628 625.112 81.94 625.021 81.2786 624.84C80.628 624.648 80.1106 624.419 79.7266 624.152L80.4946 622.632C80.8786 622.877 81.3373 623.08 81.8706 623.24C82.404 623.4 82.9373 623.48 83.4706 623.48C84.1 623.48 84.5533 623.395 84.8306 623.224C85.1186 623.053 85.2626 622.824 85.2626 622.536C85.2626 622.301 85.1666 622.125 84.9746 622.008C84.7826 621.88 84.532 621.784 84.2226 621.72C83.9133 621.656 83.5666 621.597 83.1826 621.544C82.8093 621.491 82.4306 621.421 82.0466 621.336C81.6733 621.24 81.332 621.107 81.0226 620.936C80.7133 620.755 80.4626 620.515 80.2706 620.216C80.0786 619.917 79.9826 619.523 79.9826 619.032C79.9826 618.488 80.1373 618.019 80.4466 617.624C80.756 617.219 81.188 616.909 81.7426 616.696C82.308 616.472 82.9746 616.36 83.7426 616.36C84.3186 616.36 84.9 616.424 85.4866 616.552C86.0733 616.68 86.5586 616.861 86.9426 617.096L86.1746 618.616C85.7693 618.371 85.3586 618.205 84.9426 618.12C84.5373 618.024 84.132 617.976 83.7266 617.976C83.1186 617.976 82.6653 618.067 82.3666 618.248C82.0786 618.429 81.9346 618.659 81.9346 618.936C81.9346 619.192 82.0306 619.384 82.2226 619.512C82.4146 619.64 82.6653 619.741 82.9746 619.816C83.284 619.891 83.6253 619.955 83.9986 620.008C84.3826 620.051 84.7613 620.12 85.1346 620.216C85.508 620.312 85.8493 620.445 86.1586 620.616C86.4786 620.776 86.7346 621.005 86.9266 621.304C87.1186 621.603 87.2146 621.992 87.2146 622.472C87.2146 623.005 87.0546 623.469 86.7346 623.864C86.4253 624.259 85.9826 624.568 85.4066 624.792C84.8306 625.005 84.1426 625.112 83.3426 625.112ZM92.953 625.112C92.0037 625.112 91.1717 624.925 90.457 624.552C89.753 624.168 89.2037 623.645 88.809 622.984C88.425 622.323 88.233 621.571 88.233 620.728C88.233 619.875 88.4197 619.123 88.793 618.472C89.177 617.811 89.6997 617.293 90.361 616.92C91.033 616.547 91.7957 616.36 92.649 616.36C93.481 616.36 94.2223 616.541 94.873 616.904C95.5237 617.267 96.0357 617.779 96.409 618.44C96.7823 619.101 96.969 619.88 96.969 620.776C96.969 620.861 96.9637 620.957 96.953 621.064C96.953 621.171 96.9477 621.272 96.937 621.368H89.817V620.04H95.881L95.097 620.456C95.1077 619.965 95.0063 619.533 94.793 619.16C94.5797 618.787 94.2863 618.493 93.913 618.28C93.5503 618.067 93.129 617.96 92.649 617.96C92.1583 617.96 91.7263 618.067 91.353 618.28C90.9903 618.493 90.7023 618.792 90.489 619.176C90.2863 619.549 90.185 619.992 90.185 620.504V620.824C90.185 621.336 90.3023 621.789 90.537 622.184C90.7717 622.579 91.1023 622.883 91.529 623.096C91.9557 623.309 92.4463 623.416 93.001 623.416C93.481 623.416 93.913 623.341 94.297 623.192C94.681 623.043 95.0223 622.808 95.321 622.488L96.393 623.72C96.009 624.168 95.5237 624.515 94.937 624.76C94.361 624.995 93.6997 625.112 92.953 625.112ZM98.0101 628.216C97.6368 628.216 97.2848 628.173 96.9541 628.088C96.6128 628.013 96.3248 627.891 96.0901 627.72L96.6661 626.232C96.9755 626.456 97.3648 626.568 97.8341 626.568C98.1968 626.568 98.4795 626.451 98.6821 626.216C98.8848 625.992 98.9861 625.656 98.9861 625.208V616.456H100.986V625.16C100.986 626.099 100.725 626.84 100.202 627.384C99.6901 627.939 98.9595 628.216 98.0101 628.216ZM99.9781 615.048C99.6048 615.048 99.2955 614.931 99.0501 614.696C98.8155 614.461 98.6981 614.179 98.6981 613.848C98.6981 613.507 98.8155 613.224 99.0501 613C99.2955 612.765 99.6048 612.648 99.9781 612.648C100.351 612.648 100.655 612.76 100.89 612.984C101.135 613.197 101.258 613.469 101.258 613.8C101.258 614.152 101.141 614.451 100.906 614.696C100.671 614.931 100.362 615.048 99.9781 615.048ZM108.873 625V623.272L108.761 622.904V619.88C108.761 619.293 108.585 618.84 108.233 618.52C107.881 618.189 107.348 618.024 106.633 618.024C106.153 618.024 105.678 618.099 105.209 618.248C104.75 618.397 104.361 618.605 104.041 618.872L103.257 617.416C103.716 617.064 104.26 616.803 104.889 616.632C105.529 616.451 106.19 616.36 106.873 616.36C108.11 616.36 109.065 616.659 109.737 617.256C110.42 617.843 110.761 618.755 110.761 619.992V625H108.873ZM106.185 625.112C105.545 625.112 104.985 625.005 104.505 624.792C104.025 624.568 103.652 624.264 103.385 623.88C103.129 623.485 103.001 623.043 103.001 622.552C103.001 622.072 103.113 621.64 103.337 621.256C103.572 620.872 103.95 620.568 104.473 620.344C104.996 620.12 105.689 620.008 106.553 620.008H109.033V621.336H106.697C106.014 621.336 105.556 621.448 105.321 621.672C105.086 621.885 104.969 622.152 104.969 622.472C104.969 622.835 105.113 623.123 105.401 623.336C105.689 623.549 106.089 623.656 106.601 623.656C107.092 623.656 107.529 623.544 107.913 623.32C108.308 623.096 108.59 622.765 108.761 622.328L109.097 623.528C108.905 624.029 108.558 624.419 108.057 624.696C107.566 624.973 106.942 625.112 106.185 625.112ZM118.176 616.36C118.858 616.36 119.466 616.493 120 616.76C120.544 617.027 120.97 617.437 121.28 617.992C121.589 618.536 121.744 619.24 121.744 620.104V625H119.744V620.36C119.744 619.603 119.562 619.037 119.2 618.664C118.848 618.291 118.352 618.104 117.712 618.104C117.242 618.104 116.826 618.2 116.464 618.392C116.101 618.584 115.818 618.872 115.616 619.256C115.424 619.629 115.328 620.104 115.328 620.68V625H113.328V613.128H115.328V618.76L114.896 618.056C115.194 617.512 115.626 617.096 116.192 616.808C116.768 616.509 117.429 616.36 118.176 616.36ZM127.497 625.112C126.558 625.112 125.833 624.872 125.321 624.392C124.809 623.901 124.553 623.181 124.553 622.232V614.568H126.553V622.184C126.553 622.589 126.654 622.904 126.857 623.128C127.07 623.352 127.363 623.464 127.737 623.464C128.185 623.464 128.558 623.347 128.857 623.112L129.417 624.536C129.182 624.728 128.894 624.872 128.553 624.968C128.211 625.064 127.859 625.112 127.497 625.112ZM123.145 618.12V616.52H128.841V618.12H123.145ZM134.797 625.112C133.847 625.112 133.015 624.925 132.301 624.552C131.597 624.168 131.047 623.645 130.653 622.984C130.269 622.323 130.077 621.571 130.077 620.728C130.077 619.875 130.263 619.123 130.637 618.472C131.021 617.811 131.543 617.293 132.205 616.92C132.877 616.547 133.639 616.36 134.493 616.36C135.325 616.36 136.066 616.541 136.717 616.904C137.367 617.267 137.879 617.779 138.253 618.44C138.626 619.101 138.813 619.88 138.813 620.776C138.813 620.861 138.807 620.957 138.797 621.064C138.797 621.171 138.791 621.272 138.781 621.368H131.661V620.04H137.725L136.941 620.456C136.951 619.965 136.85 619.533 136.637 619.16C136.423 618.787 136.13 618.493 135.757 618.28C135.394 618.067 134.973 617.96 134.493 617.96C134.002 617.96 133.57 618.067 133.197 618.28C132.834 618.493 132.546 618.792 132.333 619.176C132.13 619.549 132.029 619.992 132.029 620.504V620.824C132.029 621.336 132.146 621.789 132.381 622.184C132.615 622.579 132.946 622.883 133.373 623.096C133.799 623.309 134.29 623.416 134.845 623.416C135.325 623.416 135.757 623.341 136.141 623.192C136.525 623.043 136.866 622.808 137.165 622.488L138.237 623.72C137.853 624.168 137.367 624.515 136.781 624.76C136.205 624.995 135.543 625.112 134.797 625.112ZM140.734 625V616.456H142.638V618.808L142.414 618.12C142.67 617.544 143.07 617.107 143.614 616.808C144.169 616.509 144.857 616.36 145.678 616.36V618.264C145.593 618.243 145.513 618.232 145.438 618.232C145.363 618.221 145.289 618.216 145.214 618.216C144.457 618.216 143.854 618.44 143.406 618.888C142.958 619.325 142.734 619.981 142.734 620.856V625H140.734ZM152.029 625V623.272L151.917 622.904V619.88C151.917 619.293 151.741 618.84 151.389 618.52C151.037 618.189 150.504 618.024 149.789 618.024C149.309 618.024 148.834 618.099 148.365 618.248C147.906 618.397 147.517 618.605 147.197 618.872L146.413 617.416C146.872 617.064 147.416 616.803 148.045 616.632C148.685 616.451 149.346 616.36 150.029 616.36C151.266 616.36 152.221 616.659 152.893 617.256C153.576 617.843 153.917 618.755 153.917 619.992V625H152.029ZM149.341 625.112C148.701 625.112 148.141 625.005 147.661 624.792C147.181 624.568 146.808 624.264 146.541 623.88C146.285 623.485 146.157 623.043 146.157 622.552C146.157 622.072 146.269 621.64 146.493 621.256C146.728 620.872 147.106 620.568 147.629 620.344C148.152 620.12 148.845 620.008 149.709 620.008H152.189V621.336H149.853C149.17 621.336 148.712 621.448 148.477 621.672C148.242 621.885 148.125 622.152 148.125 622.472C148.125 622.835 148.269 623.123 148.557 623.336C148.845 623.549 149.245 623.656 149.757 623.656C150.248 623.656 150.685 623.544 151.069 623.32C151.464 623.096 151.746 622.765 151.917 622.328L152.253 623.528C152.061 624.029 151.714 624.419 151.213 624.696C150.722 624.973 150.098 625.112 149.341 625.112ZM161.748 625V623.272L161.636 622.904V619.88C161.636 619.293 161.46 618.84 161.108 618.52C160.756 618.189 160.223 618.024 159.508 618.024C159.028 618.024 158.553 618.099 158.084 618.248C157.625 618.397 157.236 618.605 156.916 618.872L156.132 617.416C156.591 617.064 157.135 616.803 157.764 616.632C158.404 616.451 159.065 616.36 159.748 616.36C160.985 616.36 161.94 616.659 162.612 617.256C163.295 617.843 163.636 618.755 163.636 619.992V625H161.748ZM159.06 625.112C158.42 625.112 157.86 625.005 157.38 624.792C156.9 624.568 156.527 624.264 156.26 623.88C156.004 623.485 155.876 623.043 155.876 622.552C155.876 622.072 155.988 621.64 156.212 621.256C156.447 620.872 156.825 620.568 157.348 620.344C157.871 620.12 158.564 620.008 159.428 620.008H161.908V621.336H159.572C158.889 621.336 158.431 621.448 158.196 621.672C157.961 621.885 157.844 622.152 157.844 622.472C157.844 622.835 157.988 623.123 158.276 623.336C158.564 623.549 158.964 623.656 159.476 623.656C159.967 623.656 160.404 623.544 160.788 623.32C161.183 623.096 161.465 622.765 161.636 622.328L161.972 623.528C161.78 624.029 161.433 624.419 160.932 624.696C160.441 624.973 159.817 625.112 159.06 625.112ZM171.051 616.36C171.733 616.36 172.341 616.493 172.875 616.76C173.419 617.027 173.845 617.437 174.155 617.992C174.464 618.536 174.619 619.24 174.619 620.104V625H172.619V620.36C172.619 619.603 172.437 619.037 172.075 618.664C171.723 618.291 171.227 618.104 170.587 618.104C170.117 618.104 169.701 618.2 169.339 618.392C168.976 618.584 168.693 618.872 168.491 619.256C168.299 619.629 168.203 620.104 168.203 620.68V625H166.203V616.456H168.107V618.76L167.771 618.056C168.069 617.512 168.501 617.096 169.067 616.808C169.643 616.509 170.304 616.36 171.051 616.36ZM98.3421 645.112C97.5207 645.112 96.7794 644.931 96.1181 644.568C95.4674 644.195 94.9554 643.683 94.5821 643.032C94.2087 642.381 94.0221 641.613 94.0221 640.728C94.0221 639.843 94.2087 639.075 94.5821 638.424C94.9554 637.773 95.4674 637.267 96.1181 636.904C96.7794 636.541 97.5207 636.36 98.3421 636.36C99.0567 636.36 99.6967 636.52 100.262 636.84C100.827 637.149 101.275 637.624 101.606 638.264C101.937 638.904 102.102 639.725 102.102 640.728C102.102 641.72 101.942 642.541 101.622 643.192C101.302 643.832 100.859 644.312 100.294 644.632C99.7287 644.952 99.0781 645.112 98.3421 645.112ZM98.5821 643.4C99.0621 643.4 99.4887 643.293 99.8621 643.08C100.246 642.867 100.55 642.557 100.774 642.152C101.009 641.747 101.126 641.272 101.126 640.728C101.126 640.173 101.009 639.699 100.774 639.304C100.55 638.899 100.246 638.589 99.8621 638.376C99.4887 638.163 99.0621 638.056 98.5821 638.056C98.1021 638.056 97.6701 638.163 97.2861 638.376C96.9127 638.589 96.6087 638.899 96.3741 639.304C96.1501 639.699 96.0381 640.173 96.0381 640.728C96.0381 641.272 96.1501 641.747 96.3741 642.152C96.6087 642.557 96.9127 642.867 97.2861 643.08C97.6701 643.293 98.1021 643.4 98.5821 643.4ZM101.174 645V642.984L101.254 640.712L101.094 638.44V633.128H103.078V645H101.174ZM109.326 645.112C108.601 645.112 107.961 644.979 107.406 644.712C106.852 644.435 106.42 644.019 106.11 643.464C105.801 642.899 105.646 642.189 105.646 641.336V636.456H107.646V641.064C107.646 641.832 107.817 642.408 108.158 642.792C108.51 643.165 109.006 643.352 109.646 643.352C110.116 643.352 110.521 643.256 110.862 643.064C111.214 642.872 111.486 642.584 111.678 642.2C111.881 641.816 111.982 641.341 111.982 640.776V636.456H113.982V645H112.078V642.696L112.414 643.4C112.126 643.955 111.705 644.381 111.15 644.68C110.596 644.968 109.988 645.112 109.326 645.112ZM121.449 636.36C122.132 636.36 122.74 636.493 123.273 636.76C123.817 637.027 124.244 637.437 124.553 637.992C124.862 638.536 125.017 639.24 125.017 640.104V645H123.017V640.36C123.017 639.603 122.836 639.037 122.473 638.664C122.121 638.291 121.625 638.104 120.985 638.104C120.516 638.104 120.1 638.2 119.737 638.392C119.374 638.584 119.092 638.872 118.889 639.256C118.697 639.629 118.601 640.104 118.601 640.68V645H116.601V636.456H118.505V638.76L118.169 638.056C118.468 637.512 118.9 637.096 119.465 636.808C120.041 636.509 120.702 636.36 121.449 636.36ZM127.554 645V636.456H129.554V645H127.554ZM128.562 635.048C128.189 635.048 127.88 634.931 127.634 634.696C127.4 634.461 127.282 634.179 127.282 633.848C127.282 633.507 127.4 633.224 127.634 633C127.88 632.765 128.189 632.648 128.562 632.648C128.936 632.648 129.24 632.76 129.474 632.984C129.72 633.197 129.842 633.469 129.842 633.8C129.842 634.152 129.725 634.451 129.49 634.696C129.256 634.931 128.946 635.048 128.562 635.048ZM137.443 645V643.272L137.331 642.904V639.88C137.331 639.293 137.155 638.84 136.803 638.52C136.451 638.189 135.918 638.024 135.203 638.024C134.723 638.024 134.249 638.099 133.779 638.248C133.321 638.397 132.931 638.605 132.611 638.872L131.827 637.416C132.286 637.064 132.83 636.803 133.459 636.632C134.099 636.451 134.761 636.36 135.443 636.36C136.681 636.36 137.635 636.659 138.307 637.256C138.99 637.843 139.331 638.755 139.331 639.992V645H137.443ZM134.755 645.112C134.115 645.112 133.555 645.005 133.075 644.792C132.595 644.568 132.222 644.264 131.955 643.88C131.699 643.485 131.571 643.043 131.571 642.552C131.571 642.072 131.683 641.64 131.907 641.256C132.142 640.872 132.521 640.568 133.043 640.344C133.566 640.12 134.259 640.008 135.123 640.008H137.603V641.336H135.267C134.585 641.336 134.126 641.448 133.891 641.672C133.657 641.885 133.539 642.152 133.539 642.472C133.539 642.835 133.683 643.123 133.971 643.336C134.259 643.549 134.659 643.656 135.171 643.656C135.662 643.656 136.099 643.544 136.483 643.32C136.878 643.096 137.161 642.765 137.331 642.328L137.667 643.528C137.475 644.029 137.129 644.419 136.627 644.696C136.137 644.973 135.513 645.112 134.755 645.112Z" fill="white"/>
<path d="M17.2995 596.504C15.4515 596.504 13.7715 596.192 12.2595 595.568C10.7715 594.92 9.53548 593.996 8.55148 592.796L12.4395 588.188C13.1115 589.052 13.8075 589.712 14.5275 590.168C15.2475 590.6 16.0035 590.816 16.7955 590.816C18.9075 590.816 19.9635 589.592 19.9635 587.144V576.308H11.2515V570.8H27.0195V586.712C27.0195 590 26.1915 592.46 24.5355 594.092C22.8795 595.7 20.4675 596.504 17.2995 596.504ZM43.4225 596V592.364L42.9545 591.464V584.768C42.9545 583.688 42.6185 582.86 41.9465 582.284C41.2985 581.684 40.2545 581.384 38.8145 581.384C37.8785 581.384 36.9305 581.54 35.9705 581.852C35.0105 582.14 34.1945 582.548 33.5225 583.076L31.2185 578.432C32.3225 577.712 33.6425 577.16 35.1785 576.776C36.7385 576.368 38.2865 576.164 39.8225 576.164C42.9905 576.164 45.4385 576.896 47.1665 578.36C48.9185 579.8 49.7945 582.068 49.7945 585.164V596H43.4225ZM37.6625 596.324C36.1025 596.324 34.7825 596.06 33.7025 595.532C32.6225 595.004 31.7945 594.284 31.2185 593.372C30.6665 592.46 30.3905 591.44 30.3905 590.312C30.3905 589.112 30.6905 588.08 31.2905 587.216C31.9145 586.328 32.8625 585.656 34.1345 585.2C35.4065 584.72 37.0505 584.48 39.0665 584.48H43.6745V588.044H40.0025C38.8985 588.044 38.1185 588.224 37.6625 588.584C37.2305 588.944 37.0145 589.424 37.0145 590.024C37.0145 590.624 37.2425 591.104 37.6985 591.464C38.1545 591.824 38.7785 592.004 39.5705 592.004C40.3145 592.004 40.9865 591.824 41.5865 591.464C42.2105 591.08 42.6665 590.504 42.9545 589.736L43.8905 592.256C43.5305 593.6 42.8225 594.62 41.7665 595.316C40.7345 595.988 39.3665 596.324 37.6625 596.324ZM63.8981 603.308C62.0261 603.308 60.2381 603.092 58.5341 602.66C56.8541 602.228 55.4141 601.592 54.2141 600.752L56.6981 595.964C57.5141 596.612 58.5221 597.116 59.7221 597.476C60.9461 597.86 62.1341 598.052 63.2861 598.052C65.1341 598.052 66.4661 597.644 67.2821 596.828C68.0981 596.036 68.5061 594.872 68.5061 593.336V591.032L68.8661 585.56L68.8301 580.052V576.488H75.3461V592.436C75.3461 596.132 74.3501 598.868 72.3581 600.644C70.3661 602.42 67.5461 603.308 63.8981 603.308ZM62.7101 594.992C60.9821 594.992 59.3861 594.608 57.9221 593.84C56.4821 593.048 55.3181 591.956 54.4301 590.564C53.5661 589.148 53.1341 587.48 53.1341 585.56C53.1341 583.64 53.5661 581.984 54.4301 580.592C55.3181 579.176 56.4821 578.084 57.9221 577.316C59.3861 576.548 60.9821 576.164 62.7101 576.164C64.3661 576.164 65.7821 576.5 66.9581 577.172C68.1341 577.82 69.0221 578.84 69.6221 580.232C70.2461 581.624 70.5581 583.4 70.5581 585.56C70.5581 587.72 70.2461 589.496 69.6221 590.888C69.0221 592.28 68.1341 593.312 66.9581 593.984C65.7821 594.656 64.3661 594.992 62.7101 594.992ZM64.3301 589.556C65.1461 589.556 65.8661 589.388 66.4901 589.052C67.1381 588.716 67.6421 588.248 68.0021 587.648C68.3861 587.048 68.5781 586.352 68.5781 585.56C68.5781 584.768 68.3861 584.072 68.0021 583.472C67.6421 582.872 67.1381 582.416 66.4901 582.104C65.8661 581.768 65.1461 581.6 64.3301 581.6C63.5141 581.6 62.7821 581.768 62.1341 582.104C61.4861 582.416 60.9701 582.872 60.5861 583.472C60.2261 584.072 60.0461 584.768 60.0461 585.56C60.0461 586.352 60.2261 587.048 60.5861 587.648C60.9701 588.248 61.4861 588.716 62.1341 589.052C62.7821 589.388 63.5141 589.556 64.3301 589.556ZM91.6569 596V592.364L91.1889 591.464V584.768C91.1889 583.688 90.8529 582.86 90.1809 582.284C89.5329 581.684 88.4889 581.384 87.0489 581.384C86.1129 581.384 85.1649 581.54 84.2049 581.852C83.2449 582.14 82.4289 582.548 81.7569 583.076L79.4529 578.432C80.5569 577.712 81.8769 577.16 83.4129 576.776C84.9729 576.368 86.5209 576.164 88.0569 576.164C91.2249 576.164 93.6729 576.896 95.4009 578.36C97.1529 579.8 98.0289 582.068 98.0289 585.164V596H91.6569ZM85.8969 596.324C84.3369 596.324 83.0169 596.06 81.9369 595.532C80.8569 595.004 80.0289 594.284 79.4529 593.372C78.9009 592.46 78.6249 591.44 78.6249 590.312C78.6249 589.112 78.9249 588.08 79.5249 587.216C80.1489 586.328 81.0969 585.656 82.3689 585.2C83.6409 584.72 85.2849 584.48 87.3009 584.48H91.9089V588.044H88.2369C87.1329 588.044 86.3529 588.224 85.8969 588.584C85.4649 588.944 85.2489 589.424 85.2489 590.024C85.2489 590.624 85.4769 591.104 85.9329 591.464C86.3889 591.824 87.0129 592.004 87.8049 592.004C88.5489 592.004 89.2209 591.824 89.8209 591.464C90.4449 591.08 90.9009 590.504 91.1889 589.736L92.1249 592.256C91.7649 593.6 91.0569 594.62 90.0009 595.316C88.9689 595.988 87.6009 596.324 85.8969 596.324ZM111.088 596.324C109.312 596.324 107.692 595.916 106.228 595.1C104.788 594.26 103.636 593.096 102.772 591.608C101.908 590.096 101.476 588.296 101.476 586.208C101.476 584.144 101.908 582.368 102.772 580.88C103.636 579.368 104.788 578.204 106.228 577.388C107.692 576.572 109.312 576.164 111.088 576.164C112.768 576.164 114.184 576.524 115.336 577.244C116.512 577.964 117.4 579.068 118 580.556C118.6 582.044 118.9 583.928 118.9 586.208C118.9 588.536 118.612 590.444 118.036 591.932C117.46 593.42 116.596 594.524 115.444 595.244C114.292 595.964 112.84 596.324 111.088 596.324ZM112.528 590.888C113.296 590.888 113.98 590.708 114.58 590.348C115.204 589.988 115.696 589.46 116.056 588.764C116.416 588.044 116.596 587.192 116.596 586.208C116.596 585.224 116.416 584.396 116.056 583.724C115.696 583.028 115.204 582.5 114.58 582.14C113.98 581.78 113.296 581.6 112.528 581.6C111.736 581.6 111.028 581.78 110.404 582.14C109.804 582.5 109.324 583.028 108.964 583.724C108.604 584.396 108.424 585.224 108.424 586.208C108.424 587.192 108.604 588.044 108.964 588.764C109.324 589.46 109.804 589.988 110.404 590.348C111.028 590.708 111.736 590.888 112.528 590.888ZM116.812 596V592.652L116.848 586.208L116.488 579.764V569.288H123.328V596H116.812ZM136.225 596.324C134.449 596.324 132.829 595.916 131.365 595.1C129.925 594.26 128.773 593.096 127.909 591.608C127.045 590.096 126.613 588.296 126.613 586.208C126.613 584.144 127.045 582.368 127.909 580.88C128.773 579.368 129.925 578.204 131.365 577.388C132.829 576.572 134.449 576.164 136.225 576.164C137.905 576.164 139.321 576.524 140.473 577.244C141.649 577.964 142.537 579.068 143.137 580.556C143.737 582.044 144.037 583.928 144.037 586.208C144.037 588.536 143.749 590.444 143.173 591.932C142.597 593.42 141.733 594.524 140.581 595.244C139.429 595.964 137.977 596.324 136.225 596.324ZM137.665 590.888C138.433 590.888 139.117 590.708 139.717 590.348C140.341 589.988 140.833 589.46 141.193 588.764C141.553 588.044 141.733 587.192 141.733 586.208C141.733 585.224 141.553 584.396 141.193 583.724C140.833 583.028 140.341 582.5 139.717 582.14C139.117 581.78 138.433 581.6 137.665 581.6C136.873 581.6 136.165 581.78 135.541 582.14C134.941 582.5 134.461 583.028 134.101 583.724C133.741 584.396 133.561 585.224 133.561 586.208C133.561 587.192 133.741 588.044 134.101 588.764C134.461 589.46 134.941 589.988 135.541 590.348C136.165 590.708 136.873 590.888 137.665 590.888ZM141.949 596V592.652L141.985 586.208L141.625 579.764V569.288H148.465V596H141.949ZM165.574 576.164C167.086 576.164 168.454 576.476 169.678 577.1C170.902 577.7 171.862 578.636 172.558 579.908C173.278 581.18 173.638 582.824 173.638 584.84V596H166.798V585.956C166.798 584.564 166.51 583.556 165.934 582.932C165.382 582.284 164.602 581.96 163.594 581.96C162.874 581.96 162.214 582.128 161.614 582.464C161.014 582.776 160.546 583.268 160.21 583.94C159.874 584.612 159.706 585.488 159.706 586.568V596H152.866V569.288H159.706V582.032L158.122 580.412C158.866 578.996 159.886 577.94 161.182 577.244C162.478 576.524 163.942 576.164 165.574 576.164ZM177.932 596V576.488H184.772V596H177.932ZM181.352 574.328C180.104 574.328 179.096 573.98 178.328 573.284C177.56 572.588 177.176 571.724 177.176 570.692C177.176 569.66 177.56 568.796 178.328 568.1C179.096 567.404 180.104 567.056 181.352 567.056C182.6 567.056 183.608 567.392 184.376 568.064C185.144 568.712 185.528 569.552 185.528 570.584C185.528 571.664 185.144 572.564 184.376 573.284C183.632 573.98 182.624 574.328 181.352 574.328ZM197.929 596.324C195.433 596.324 193.489 595.712 192.097 594.488C190.705 593.24 190.009 591.368 190.009 588.872V572.132H196.849V588.8C196.849 589.496 197.041 590.048 197.425 590.456C197.809 590.84 198.301 591.032 198.901 591.032C199.717 591.032 200.413 590.828 200.989 590.42L202.681 595.208C202.105 595.592 201.397 595.868 200.557 596.036C199.717 596.228 198.841 596.324 197.929 596.324ZM187.165 582.32V577.208H201.313V582.32H187.165ZM217.235 596V592.364L216.767 591.464V584.768C216.767 583.688 216.431 582.86 215.759 582.284C215.111 581.684 214.067 581.384 212.627 581.384C211.691 581.384 210.743 581.54 209.783 581.852C208.823 582.14 208.007 582.548 207.335 583.076L205.031 578.432C206.135 577.712 207.455 577.16 208.991 576.776C210.551 576.368 212.099 576.164 213.635 576.164C216.803 576.164 219.251 576.896 220.979 578.36C222.731 579.8 223.607 582.068 223.607 585.164V596H217.235ZM211.475 596.324C209.915 596.324 208.595 596.06 207.515 595.532C206.435 595.004 205.607 594.284 205.031 593.372C204.479 592.46 204.203 591.44 204.203 590.312C204.203 589.112 204.503 588.08 205.103 587.216C205.727 586.328 206.675 585.656 207.947 585.2C209.219 584.72 210.863 584.48 212.879 584.48H217.487V588.044H213.815C212.711 588.044 211.931 588.224 211.475 588.584C211.043 588.944 210.827 589.424 210.827 590.024C210.827 590.624 211.055 591.104 211.511 591.464C211.967 591.824 212.591 592.004 213.383 592.004C214.127 592.004 214.799 591.824 215.399 591.464C216.023 591.08 216.479 590.504 216.767 589.736L217.703 592.256C217.343 593.6 216.635 594.62 215.579 595.316C214.547 595.988 213.179 596.324 211.475 596.324Z" fill="white"/>
<path d="M9.27148 600.5H225.731V602.3H9.27148V600.5Z" fill="white"/>
</svg>
