<svg width="1262" height="61" viewBox="0 0 1262 61" fill="none" xmlns="http://www.w3.org/2000/svg">
<path d="M567.777 48V22.15H557.527V13H589.827V22.15H579.577V48H567.777Z" fill="#E62C20"/>
<path d="M603.692 26H619.292V34.5H603.692V26ZM604.492 39.1H621.992V48H592.892V13H621.342V21.9H604.492V39.1ZM626.535 48V13H636.235L650.235 35.85H645.135L658.735 13H668.435L668.535 48H657.785L657.685 29.2H659.385L650.085 44.85H644.885L635.185 29.2H637.285V48H626.535ZM670.44 48L685.74 13H697.34L712.64 48H700.44L689.14 18.6H693.74L682.44 48H670.44ZM679.54 41.9L682.54 33.4H698.64L701.64 41.9H679.54Z" fill="#EEEEEE"/>
<path d="M636.5 13H626.294H626V48H657.665H669V13H658.874L647.72 31.2857L636.5 13Z" fill="#488267"/>
<path d="M0 30L482 30" stroke="#EEEEEE" stroke-width="5" stroke-linejoin="round"/>
<path d="M468.367 0L464.693 0V13.4693H468.367V15.9183H472.04V19.5917H475.714V23.2652H478.163V9.79587H474.489V7.3469H472.04V3.67345L468.367 3.67345V0Z" fill="#D9D9D9"/>
<path d="M491.633 0L495.307 0V13.4693H491.633V15.9183H487.96V19.5917H484.286V23.2652H481.837V9.79587H485.511V7.3469H487.96V3.67345L491.633 3.67345V0Z" fill="#D9D9D9"/>
<path d="M486.734 24.4896V28.1631H500.204V24.4896H502.653V20.8162H506.326V17.1427H510V14.6938L496.53 14.6938V18.3672H494.081V20.8162H490.408V24.4896H486.734Z" fill="#D9D9D9"/>
<path d="M510 41.6332V45.3066H496.531V41.6332H494.082V37.9597H490.408V34.2863H486.735V31.8373H500.204V35.5108H502.653V37.9597H506.327V41.6332H510Z" fill="#D9D9D9"/>
<path d="M491.633 60H495.307V46.5307H491.633V44.0817H487.96V40.4083H484.286V36.7348H481.837V50.2041H485.511V52.6531H487.96V56.3265H491.633V60Z" fill="#D9D9D9"/>
<path d="M468.367 60H464.693V46.5307H468.367V44.0817H472.04V40.4083H475.714V36.7348H478.163V50.2041H474.489V52.6531H472.04V56.3265H468.367V60Z" fill="#D9D9D9"/>
<path d="M450 18.3673V14.6938H463.469V18.3673H465.918V22.0407H469.592V25.7142H473.265V28.1632H459.796V24.4897H457.347V22.0407H453.673V18.3673H450Z" fill="#D9D9D9"/>
<path d="M473.266 35.5104L473.266 31.8369L459.796 31.8369L459.796 35.5104L457.347 35.5104L457.347 39.1838L453.674 39.1838L453.674 42.8573L450 42.8573L450 45.3062L463.47 45.3062L463.47 41.6328L465.919 41.6328L465.919 39.1838L469.592 39.1838L469.592 35.5104L473.266 35.5104Z" fill="#D9D9D9"/>
<rect x="478.164" y="28.1631" width="3.67347" height="3.67345" fill="#D9D9D9"/>
<path d="M1261.99 28.0034L779.992 28.0035" stroke="#EEEEEE" stroke-width="5" stroke-linejoin="round"/>
<path d="M793.633 60H797.307V46.5307H793.633V44.0817H789.96V40.4083H786.286V36.7348H783.837V50.2041H787.511V52.6531H789.96V56.3265H793.633V60Z" fill="#D9D9D9"/>
<path d="M770.367 60H766.693V46.5307H770.367V44.0817H774.04V40.4083H777.714V36.7348H780.163V50.2041H776.489V52.6531H774.04V56.3265H770.367V60Z" fill="#D9D9D9"/>
<path d="M775.266 35.5104V31.8369L761.796 31.8369V35.5104H759.347V39.1838H755.674V42.8573H752V45.3062L765.47 45.3062V41.6328H767.919V39.1838H771.592V35.5104H775.266Z" fill="#D9D9D9"/>
<path d="M752 18.3668V14.6934L765.469 14.6934V18.3668H767.918L767.918 22.0403L771.592 22.0403V25.7137H775.265V28.1627L761.796 28.1627V24.4892L759.347 24.4892V22.0403L755.673 22.0403V18.3668H752Z" fill="#D9D9D9"/>
<path d="M770.367 0L766.693 0V13.4693L770.367 13.4693V15.9183H774.04V19.5917H777.714V23.2652H780.163V9.79587H776.489V7.3469H774.04V3.67345L770.367 3.67345V0Z" fill="#D9D9D9"/>
<path d="M793.633 0L797.307 0V13.4693L793.633 13.4693V15.9183H789.96V19.5917H786.286V23.2652H783.837V9.79587H787.511V7.3469H789.96V3.67345L793.633 3.67345V0Z" fill="#D9D9D9"/>
<path d="M812 41.6327V45.3062L798.531 45.3062V41.6327H796.082V37.9593H792.408V34.2858H788.735V31.8368L802.204 31.8368L802.204 35.5103H804.653V37.9593H808.327V41.6327H812Z" fill="#D9D9D9"/>
<path d="M788.734 24.4896L788.734 28.1631L802.204 28.1631L802.204 24.4896L804.653 24.4896L804.653 20.8162L808.326 20.8162L808.326 17.1427L812 17.1427L812 14.6938L798.53 14.6938L798.53 18.3672L796.081 18.3672L796.081 20.8162L792.408 20.8162L792.408 24.4896L788.734 24.4896Z" fill="#D9D9D9"/>
<rect x="783.836" y="31.8369" width="3.67347" height="3.67345" transform="rotate(180 783.836 31.8369)" fill="#D9D9D9"/>
</svg>
