<svg width="932" height="173" viewBox="0 0 932 173" fill="none" xmlns="http://www.w3.org/2000/svg">
<rect width="233" height="173" fill="#4A8068"/>
<path d="M61.977 77V51.8H73.497C75.801 51.8 77.781 52.172 79.437 52.916C81.117 53.66 82.413 54.74 83.325 56.156C84.237 57.548 84.693 59.204 84.693 61.124C84.693 63.02 84.237 64.664 83.325 66.056C82.413 67.448 81.117 68.528 79.437 69.296C77.781 70.04 75.801 70.412 73.497 70.412H65.937L69.105 67.316V77H61.977ZM69.105 68.072L65.937 64.796H73.065C74.553 64.796 75.657 64.472 76.377 63.824C77.121 63.176 77.493 62.276 77.493 61.124C77.493 59.948 77.121 59.036 76.377 58.388C75.657 57.74 74.553 57.416 73.065 57.416H65.937L69.105 54.14V68.072ZM87.9851 77V57.488H94.5011V63.176L93.5291 61.556C94.1051 60.092 95.0411 59 96.3371 58.28C97.6331 57.536 99.2051 57.164 101.053 57.164V63.32C100.741 63.272 100.465 63.248 100.225 63.248C100.009 63.224 99.7691 63.212 99.5051 63.212C98.1131 63.212 96.9851 63.596 96.1211 64.364C95.2571 65.108 94.8251 66.332 94.8251 68.036V77H87.9851ZM114.632 77V73.364L114.164 72.464V65.768C114.164 64.688 113.828 63.86 113.156 63.284C112.508 62.684 111.464 62.384 110.024 62.384C109.088 62.384 108.14 62.54 107.18 62.852C106.22 63.14 105.404 63.548 104.732 64.076L102.428 59.432C103.532 58.712 104.852 58.16 106.388 57.776C107.948 57.368 109.496 57.164 111.032 57.164C114.2 57.164 116.648 57.896 118.376 59.36C120.128 60.8 121.004 63.068 121.004 66.164V77H114.632ZM108.872 77.324C107.312 77.324 105.992 77.06 104.912 76.532C103.832 76.004 103.004 75.284 102.428 74.372C101.876 73.46 101.6 72.44 101.6 71.312C101.6 70.112 101.9 69.08 102.5 68.216C103.124 67.328 104.072 66.656 105.344 66.2C106.616 65.72 108.26 65.48 110.276 65.48H114.884V69.044H111.212C110.108 69.044 109.328 69.224 108.872 69.584C108.44 69.944 108.224 70.424 108.224 71.024C108.224 71.624 108.452 72.104 108.908 72.464C109.364 72.824 109.988 73.004 110.78 73.004C111.524 73.004 112.196 72.824 112.796 72.464C113.42 72.08 113.876 71.504 114.164 70.736L115.1 73.256C114.74 74.6 114.032 75.62 112.976 76.316C111.944 76.988 110.576 77.324 108.872 77.324ZM137.597 77.324C135.941 77.324 134.525 76.964 133.349 76.244C132.173 75.5 131.273 74.396 130.649 72.932C130.049 71.444 129.749 69.548 129.749 67.244C129.749 64.916 130.037 63.02 130.613 61.556C131.189 60.068 132.053 58.964 133.205 58.244C134.381 57.524 135.845 57.164 137.597 57.164C139.373 57.164 140.981 57.584 142.421 58.424C143.885 59.24 145.037 60.404 145.877 61.916C146.741 63.404 147.173 65.18 147.173 67.244C147.173 69.308 146.741 71.096 145.877 72.608C145.037 74.12 143.885 75.284 142.421 76.1C140.981 76.916 139.373 77.324 137.597 77.324ZM125.321 83.984V57.488H131.837V60.8L131.801 67.244L132.161 73.724V83.984H125.321ZM136.157 71.888C136.925 71.888 137.609 71.708 138.209 71.348C138.833 70.988 139.325 70.46 139.685 69.764C140.069 69.068 140.261 68.228 140.261 67.244C140.261 66.26 140.069 65.42 139.685 64.724C139.325 64.028 138.833 63.5 138.209 63.14C137.609 62.78 136.925 62.6 136.157 62.6C135.389 62.6 134.693 62.78 134.069 63.14C133.469 63.5 132.977 64.028 132.593 64.724C132.233 65.42 132.053 66.26 132.053 67.244C132.053 68.228 132.233 69.068 132.593 69.764C132.977 70.46 133.469 70.988 134.069 71.348C134.693 71.708 135.389 71.888 136.157 71.888ZM159.064 77.324C156.568 77.324 154.624 76.712 153.232 75.488C151.84 74.24 151.144 72.368 151.144 69.872V53.132H157.984V69.8C157.984 70.496 158.176 71.048 158.56 71.456C158.944 71.84 159.436 72.032 160.036 72.032C160.852 72.032 161.548 71.828 162.124 71.42L163.816 76.208C163.24 76.592 162.532 76.868 161.692 77.036C160.852 77.228 159.976 77.324 159.064 77.324ZM148.3 63.32V58.208H162.448V63.32H148.3ZM166.454 77V57.488H173.294V77H166.454ZM169.874 55.328C168.626 55.328 167.618 54.98 166.85 54.284C166.082 53.588 165.698 52.724 165.698 51.692C165.698 50.66 166.082 49.796 166.85 49.1C167.618 48.404 168.626 48.056 169.874 48.056C171.122 48.056 172.13 48.392 172.898 49.064C173.666 49.712 174.05 50.552 174.05 51.584C174.05 52.664 173.666 53.564 172.898 54.284C172.154 54.98 171.146 55.328 169.874 55.328Z" fill="white"/>
<path d="M59.457 81.5H175.526V83.3H59.457V81.5Z" fill="white"/>
<path d="M58.1022 101.36L57.9902 98.896L63.8622 92.8H66.1982L61.3182 97.984L60.1662 99.248L58.1022 101.36ZM56.2462 104V92.8H58.3262V104H56.2462ZM64.0542 104L59.7662 98.896L61.1422 97.376L66.4862 104H64.0542ZM71.3514 104.112C70.4021 104.112 69.5701 103.925 68.8554 103.552C68.1514 103.168 67.6021 102.645 67.2074 101.984C66.8234 101.323 66.6314 100.571 66.6314 99.728C66.6314 98.8747 66.8181 98.1227 67.1914 97.472C67.5754 96.8107 68.0981 96.2933 68.7594 95.92C69.4314 95.5467 70.1941 95.36 71.0474 95.36C71.8794 95.36 72.6208 95.5413 73.2714 95.904C73.9221 96.2667 74.4341 96.7787 74.8074 97.44C75.1808 98.1013 75.3674 98.88 75.3674 99.776C75.3674 99.8613 75.3621 99.9573 75.3514 100.064C75.3514 100.171 75.3461 100.272 75.3354 100.368H68.2154V99.04H74.2794L73.4954 99.456C73.5061 98.9653 73.4048 98.5333 73.1914 98.16C72.9781 97.7867 72.6848 97.4933 72.3114 97.28C71.9488 97.0667 71.5274 96.96 71.0474 96.96C70.5568 96.96 70.1248 97.0667 69.7514 97.28C69.3888 97.4933 69.1008 97.792 68.8874 98.176C68.6848 98.5493 68.5834 98.992 68.5834 99.504V99.824C68.5834 100.336 68.7008 100.789 68.9354 101.184C69.1701 101.579 69.5008 101.883 69.9274 102.096C70.3541 102.309 70.8448 102.416 71.3994 102.416C71.8794 102.416 72.3114 102.341 72.6954 102.192C73.0794 102.043 73.4208 101.808 73.7194 101.488L74.7914 102.72C74.4074 103.168 73.9221 103.515 73.3354 103.76C72.7594 103.995 72.0981 104.112 71.3514 104.112ZM78.9206 102.096L78.9686 99.584L83.4326 95.456H85.8326L82.0406 99.264L80.9846 100.144L78.9206 102.096ZM77.2886 104V92.128H79.2886V104H77.2886ZM83.7366 104L80.6166 100.144L81.8806 98.544L86.1686 104H83.7366ZM90.9202 104.112C90.1949 104.112 89.5549 103.979 89.0002 103.712C88.4455 103.435 88.0135 103.019 87.7042 102.464C87.3949 101.899 87.2402 101.189 87.2402 100.336V95.456H89.2402V100.064C89.2402 100.832 89.4109 101.408 89.7522 101.792C90.1042 102.165 90.6002 102.352 91.2402 102.352C91.7095 102.352 92.1149 102.256 92.4562 102.064C92.8082 101.872 93.0802 101.584 93.2722 101.2C93.4749 100.816 93.5762 100.341 93.5762 99.776V95.456H95.5762V104H93.6722V101.696L94.0082 102.4C93.7202 102.955 93.2989 103.381 92.7442 103.68C92.1895 103.968 91.5815 104.112 90.9202 104.112ZM103.459 104V102.272L103.347 101.904V98.88C103.347 98.2933 103.171 97.84 102.819 97.52C102.467 97.1893 101.933 97.024 101.219 97.024C100.739 97.024 100.264 97.0987 99.7948 97.248C99.3361 97.3973 98.9468 97.6053 98.6268 97.872L97.8428 96.416C98.3015 96.064 98.8455 95.8027 99.4748 95.632C100.115 95.4507 100.776 95.36 101.459 95.36C102.696 95.36 103.651 95.6587 104.323 96.256C105.005 96.8427 105.347 97.7547 105.347 98.992V104H103.459ZM100.771 104.112C100.131 104.112 99.5708 104.005 99.0908 103.792C98.6108 103.568 98.2375 103.264 97.9708 102.88C97.7148 102.485 97.5868 102.043 97.5868 101.552C97.5868 101.072 97.6988 100.64 97.9228 100.256C98.1575 99.872 98.5361 99.568 99.0588 99.344C99.5815 99.12 100.275 99.008 101.139 99.008H103.619V100.336H101.283C100.6 100.336 100.141 100.448 99.9068 100.672C99.6721 100.885 99.5548 101.152 99.5548 101.472C99.5548 101.835 99.6988 102.123 99.9868 102.336C100.275 102.549 100.675 102.656 101.187 102.656C101.677 102.656 102.115 102.544 102.499 102.32C102.893 102.096 103.176 101.765 103.347 101.328L103.683 102.528C103.491 103.029 103.144 103.419 102.643 103.696C102.152 103.973 101.528 104.112 100.771 104.112ZM111.13 104.112C110.191 104.112 109.466 103.872 108.954 103.392C108.442 102.901 108.186 102.181 108.186 101.232V93.568H110.186V101.184C110.186 101.589 110.287 101.904 110.49 102.128C110.703 102.352 110.996 102.464 111.37 102.464C111.818 102.464 112.191 102.347 112.49 102.112L113.05 103.536C112.815 103.728 112.527 103.872 112.186 103.968C111.844 104.064 111.492 104.112 111.13 104.112ZM106.778 97.12V95.52H112.474V97.12H106.778ZM119.959 104V102.272L119.847 101.904V98.88C119.847 98.2933 119.671 97.84 119.319 97.52C118.967 97.1893 118.433 97.024 117.719 97.024C117.239 97.024 116.764 97.0987 116.295 97.248C115.836 97.3973 115.447 97.6053 115.127 97.872L114.343 96.416C114.801 96.064 115.345 95.8027 115.975 95.632C116.615 95.4507 117.276 95.36 117.959 95.36C119.196 95.36 120.151 95.6587 120.823 96.256C121.505 96.8427 121.847 97.7547 121.847 98.992V104H119.959ZM117.271 104.112C116.631 104.112 116.071 104.005 115.591 103.792C115.111 103.568 114.737 103.264 114.471 102.88C114.215 102.485 114.087 102.043 114.087 101.552C114.087 101.072 114.199 100.64 114.423 100.256C114.657 99.872 115.036 99.568 115.559 99.344C116.081 99.12 116.775 99.008 117.639 99.008H120.119V100.336H117.783C117.1 100.336 116.641 100.448 116.407 100.672C116.172 100.885 116.055 101.152 116.055 101.472C116.055 101.835 116.199 102.123 116.487 102.336C116.775 102.549 117.175 102.656 117.687 102.656C118.177 102.656 118.615 102.544 118.999 102.32C119.393 102.096 119.676 101.765 119.847 101.328L120.183 102.528C119.991 103.029 119.644 103.419 119.143 103.696C118.652 103.973 118.028 104.112 117.271 104.112ZM129.262 95.36C129.944 95.36 130.552 95.4933 131.086 95.76C131.63 96.0267 132.056 96.4373 132.366 96.992C132.675 97.536 132.83 98.24 132.83 99.104V104H130.83V99.36C130.83 98.6027 130.648 98.0373 130.286 97.664C129.934 97.2907 129.438 97.104 128.798 97.104C128.328 97.104 127.912 97.2 127.55 97.392C127.187 97.584 126.904 97.872 126.702 98.256C126.51 98.6293 126.414 99.104 126.414 99.68V104H124.414V95.456H126.318V97.76L125.982 97.056C126.28 96.512 126.712 96.096 127.278 95.808C127.854 95.5093 128.515 95.36 129.262 95.36ZM140.493 107.216C140.077 107.216 139.661 107.147 139.245 107.008C138.829 106.869 138.482 106.677 138.205 106.432L139.005 104.96C139.207 105.141 139.437 105.285 139.693 105.392C139.949 105.499 140.21 105.552 140.477 105.552C140.839 105.552 141.133 105.461 141.357 105.28C141.581 105.099 141.789 104.795 141.981 104.368L142.477 103.248L142.637 103.008L145.869 95.456H147.789L143.789 104.688C143.522 105.328 143.223 105.835 142.893 106.208C142.573 106.581 142.21 106.843 141.805 106.992C141.41 107.141 140.973 107.216 140.493 107.216ZM142.253 104.304L138.397 95.456H140.477L143.613 102.832L142.253 104.304ZM154.037 104V102.272L153.925 101.904V98.88C153.925 98.2933 153.749 97.84 153.397 97.52C153.045 97.1893 152.512 97.024 151.797 97.024C151.317 97.024 150.842 97.0987 150.373 97.248C149.914 97.3973 149.525 97.6053 149.205 97.872L148.421 96.416C148.88 96.064 149.424 95.8027 150.053 95.632C150.693 95.4507 151.354 95.36 152.037 95.36C153.274 95.36 154.229 95.6587 154.901 96.256C155.584 96.8427 155.925 97.7547 155.925 98.992V104H154.037ZM151.349 104.112C150.709 104.112 150.149 104.005 149.669 103.792C149.189 103.568 148.816 103.264 148.549 102.88C148.293 102.485 148.165 102.043 148.165 101.552C148.165 101.072 148.277 100.64 148.501 100.256C148.736 99.872 149.114 99.568 149.637 99.344C150.16 99.12 150.853 99.008 151.717 99.008H154.197V100.336H151.861C151.178 100.336 150.72 100.448 150.485 100.672C150.25 100.885 150.133 101.152 150.133 101.472C150.133 101.835 150.277 102.123 150.565 102.336C150.853 102.549 151.253 102.656 151.765 102.656C152.256 102.656 152.693 102.544 153.077 102.32C153.472 102.096 153.754 101.765 153.925 101.328L154.261 102.528C154.069 103.029 153.722 103.419 153.221 103.696C152.73 103.973 152.106 104.112 151.349 104.112ZM163.34 95.36C164.022 95.36 164.63 95.4933 165.164 95.76C165.708 96.0267 166.134 96.4373 166.444 96.992C166.753 97.536 166.908 98.24 166.908 99.104V104H164.908V99.36C164.908 98.6027 164.726 98.0373 164.364 97.664C164.012 97.2907 163.516 97.104 162.876 97.104C162.406 97.104 161.99 97.2 161.628 97.392C161.265 97.584 160.982 97.872 160.78 98.256C160.588 98.6293 160.492 99.104 160.492 99.68V104H158.492V95.456H160.396V97.76L160.06 97.056C160.358 96.512 160.79 96.096 161.356 95.808C161.932 95.5093 162.593 95.36 163.34 95.36ZM173.332 107.216C172.543 107.216 171.77 107.109 171.012 106.896C170.266 106.693 169.652 106.395 169.172 106L170.068 104.496C170.442 104.805 170.911 105.051 171.476 105.232C172.052 105.424 172.634 105.52 173.22 105.52C174.159 105.52 174.847 105.301 175.284 104.864C175.722 104.437 175.94 103.792 175.94 102.928V101.408L176.1 99.472L176.036 97.536V95.456H177.94V102.704C177.94 104.251 177.546 105.387 176.756 106.112C175.967 106.848 174.826 107.216 173.332 107.216ZM173.076 103.616C172.266 103.616 171.53 103.445 170.868 103.104C170.218 102.752 169.7 102.267 169.316 101.648C168.943 101.029 168.756 100.304 168.756 99.472C168.756 98.6507 168.943 97.9307 169.316 97.312C169.7 96.6933 170.218 96.2133 170.868 95.872C171.53 95.5307 172.266 95.36 173.076 95.36C173.802 95.36 174.452 95.504 175.028 95.792C175.604 96.08 176.063 96.528 176.404 97.136C176.756 97.744 176.932 98.5227 176.932 99.472C176.932 100.421 176.756 101.205 176.404 101.824C176.063 102.432 175.604 102.885 175.028 103.184C174.452 103.472 173.802 103.616 173.076 103.616ZM173.38 101.92C173.882 101.92 174.33 101.819 174.724 101.616C175.119 101.403 175.423 101.115 175.636 100.752C175.86 100.379 175.972 99.952 175.972 99.472C175.972 98.992 175.86 98.5707 175.636 98.208C175.423 97.8347 175.119 97.552 174.724 97.36C174.33 97.1573 173.882 97.056 173.38 97.056C172.879 97.056 172.426 97.1573 172.02 97.36C171.626 97.552 171.316 97.8347 171.092 98.208C170.879 98.5707 170.772 98.992 170.772 99.472C170.772 99.952 170.879 100.379 171.092 100.752C171.316 101.115 171.626 101.403 172.02 101.616C172.426 101.819 172.879 101.92 173.38 101.92ZM70.2288 115.36C70.9115 115.36 71.5141 115.493 72.0368 115.76C72.5701 116.027 72.9861 116.437 73.2848 116.992C73.5835 117.536 73.7328 118.24 73.7328 119.104V124H71.7328V119.36C71.7328 118.603 71.5675 118.037 71.2368 117.664C70.9061 117.291 70.4315 117.104 69.8128 117.104C69.3755 117.104 68.9861 117.2 68.6448 117.392C68.3141 117.584 68.0528 117.867 67.8608 118.24C67.6795 118.613 67.5888 119.088 67.5888 119.664V124H65.5888V119.36C65.5888 118.603 65.4235 118.037 65.0928 117.664C64.7621 117.291 64.2875 117.104 63.6688 117.104C63.2315 117.104 62.8421 117.2 62.5008 117.392C62.1701 117.584 61.9088 117.867 61.7168 118.24C61.5355 118.613 61.4448 119.088 61.4448 119.664V124H59.4448V115.456H61.3488V117.728L61.0128 117.056C61.3008 116.501 61.7168 116.08 62.2608 115.792C62.8155 115.504 63.4448 115.36 64.1488 115.36C64.9488 115.36 65.6421 115.557 66.2288 115.952C66.8261 116.347 67.2208 116.944 67.4128 117.744L66.6288 117.472C66.9061 116.832 67.3648 116.32 68.0048 115.936C68.6448 115.552 69.3861 115.36 70.2288 115.36ZM80.3202 124.112C79.3709 124.112 78.5389 123.925 77.8242 123.552C77.1202 123.168 76.5709 122.645 76.1762 121.984C75.7922 121.323 75.6002 120.571 75.6002 119.728C75.6002 118.875 75.7869 118.123 76.1602 117.472C76.5442 116.811 77.0669 116.293 77.7282 115.92C78.4002 115.547 79.1629 115.36 80.0162 115.36C80.8482 115.36 81.5895 115.541 82.2402 115.904C82.8909 116.267 83.4029 116.779 83.7762 117.44C84.1495 118.101 84.3362 118.88 84.3362 119.776C84.3362 119.861 84.3309 119.957 84.3202 120.064C84.3202 120.171 84.3149 120.272 84.3042 120.368H77.1842V119.04H83.2482L82.4642 119.456C82.4749 118.965 82.3735 118.533 82.1602 118.16C81.9469 117.787 81.6535 117.493 81.2802 117.28C80.9175 117.067 80.4962 116.96 80.0162 116.96C79.5255 116.96 79.0935 117.067 78.7202 117.28C78.3575 117.493 78.0695 117.792 77.8562 118.176C77.6535 118.549 77.5522 118.992 77.5522 119.504V119.824C77.5522 120.336 77.6695 120.789 77.9042 121.184C78.1389 121.579 78.4695 121.883 78.8962 122.096C79.3229 122.309 79.8135 122.416 80.3682 122.416C80.8482 122.416 81.2802 122.341 81.6642 122.192C82.0482 122.043 82.3895 121.808 82.6882 121.488L83.7602 122.72C83.3762 123.168 82.8909 123.515 82.3042 123.76C81.7282 123.995 81.0669 124.112 80.3202 124.112ZM91.1053 115.36C91.788 115.36 92.396 115.493 92.9293 115.76C93.4733 116.027 93.9 116.437 94.2093 116.992C94.5186 117.536 94.6733 118.24 94.6733 119.104V124H92.6733V119.36C92.6733 118.603 92.492 118.037 92.1293 117.664C91.7773 117.291 91.2813 117.104 90.6413 117.104C90.172 117.104 89.756 117.2 89.3933 117.392C89.0306 117.584 88.748 117.872 88.5453 118.256C88.3533 118.629 88.2573 119.104 88.2573 119.68V124H86.2573V115.456H88.1613V117.76L87.8253 117.056C88.124 116.512 88.556 116.096 89.1213 115.808C89.6973 115.509 90.3586 115.36 91.1053 115.36ZM101.098 127.216C100.309 127.216 99.5354 127.109 98.7781 126.896C98.0314 126.693 97.4181 126.395 96.9381 126L97.8341 124.496C98.2074 124.805 98.6767 125.051 99.2421 125.232C99.8181 125.424 100.399 125.52 100.986 125.52C101.925 125.52 102.613 125.301 103.05 124.864C103.487 124.437 103.706 123.792 103.706 122.928V121.408L103.866 119.472L103.802 117.536V115.456H105.706V122.704C105.706 124.251 105.311 125.387 104.522 126.112C103.733 126.848 102.591 127.216 101.098 127.216ZM100.842 123.616C100.031 123.616 99.2954 123.445 98.6341 123.104C97.9834 122.752 97.4661 122.267 97.0821 121.648C96.7087 121.029 96.5221 120.304 96.5221 119.472C96.5221 118.651 96.7087 117.931 97.0821 117.312C97.4661 116.693 97.9834 116.213 98.6341 115.872C99.2954 115.531 100.031 115.36 100.842 115.36C101.567 115.36 102.218 115.504 102.794 115.792C103.37 116.08 103.829 116.528 104.17 117.136C104.522 117.744 104.698 118.523 104.698 119.472C104.698 120.421 104.522 121.205 104.17 121.824C103.829 122.432 103.37 122.885 102.794 123.184C102.218 123.472 101.567 123.616 100.842 123.616ZM101.146 121.92C101.647 121.92 102.095 121.819 102.49 121.616C102.885 121.403 103.189 121.115 103.402 120.752C103.626 120.379 103.738 119.952 103.738 119.472C103.738 118.992 103.626 118.571 103.402 118.208C103.189 117.835 102.885 117.552 102.49 117.36C102.095 117.157 101.647 117.056 101.146 117.056C100.645 117.056 100.191 117.157 99.7861 117.36C99.3914 117.552 99.0821 117.835 98.8581 118.208C98.6447 118.571 98.5381 118.992 98.5381 119.472C98.5381 119.952 98.6447 120.379 98.8581 120.752C99.0821 121.115 99.3914 121.403 99.7861 121.616C100.191 121.819 100.645 121.92 101.146 121.92ZM113.183 115.36C113.866 115.36 114.474 115.493 115.007 115.76C115.551 116.027 115.978 116.437 116.287 116.992C116.597 117.536 116.751 118.24 116.751 119.104V124H114.751V119.36C114.751 118.603 114.57 118.037 114.207 117.664C113.855 117.291 113.359 117.104 112.719 117.104C112.25 117.104 111.834 117.2 111.471 117.392C111.109 117.584 110.826 117.872 110.623 118.256C110.431 118.629 110.335 119.104 110.335 119.68V124H108.335V112.128H110.335V117.76L109.903 117.056C110.202 116.512 110.634 116.096 111.199 115.808C111.775 115.509 112.437 115.36 113.183 115.36ZM124.553 124V122.272L124.441 121.904V118.88C124.441 118.293 124.265 117.84 123.913 117.52C123.561 117.189 123.027 117.024 122.313 117.024C121.833 117.024 121.358 117.099 120.889 117.248C120.43 117.397 120.041 117.605 119.721 117.872L118.937 116.416C119.395 116.064 119.939 115.803 120.569 115.632C121.209 115.451 121.87 115.36 122.553 115.36C123.79 115.36 124.745 115.659 125.417 116.256C126.099 116.843 126.441 117.755 126.441 118.992V124H124.553ZM121.865 124.112C121.225 124.112 120.665 124.005 120.185 123.792C119.705 123.568 119.331 123.264 119.065 122.88C118.809 122.485 118.681 122.043 118.681 121.552C118.681 121.072 118.793 120.64 119.017 120.256C119.251 119.872 119.63 119.568 120.153 119.344C120.675 119.12 121.369 119.008 122.233 119.008H124.713V120.336H122.377C121.694 120.336 121.235 120.448 121.001 120.672C120.766 120.885 120.649 121.152 120.649 121.472C120.649 121.835 120.793 122.123 121.081 122.336C121.369 122.549 121.769 122.656 122.281 122.656C122.771 122.656 123.209 122.544 123.593 122.32C123.987 122.096 124.27 121.765 124.441 121.328L124.777 122.528C124.585 123.029 124.238 123.419 123.737 123.696C123.246 123.973 122.622 124.112 121.865 124.112ZM131.647 124.112C130.933 124.112 130.245 124.021 129.583 123.84C128.933 123.648 128.415 123.419 128.031 123.152L128.799 121.632C129.183 121.877 129.642 122.08 130.175 122.24C130.709 122.4 131.242 122.48 131.775 122.48C132.405 122.48 132.858 122.395 133.135 122.224C133.423 122.053 133.567 121.824 133.567 121.536C133.567 121.301 133.471 121.125 133.279 121.008C133.087 120.88 132.837 120.784 132.527 120.72C132.218 120.656 131.871 120.597 131.487 120.544C131.114 120.491 130.735 120.421 130.351 120.336C129.978 120.24 129.637 120.107 129.327 119.936C129.018 119.755 128.767 119.515 128.575 119.216C128.383 118.917 128.287 118.523 128.287 118.032C128.287 117.488 128.442 117.019 128.751 116.624C129.061 116.219 129.493 115.909 130.047 115.696C130.613 115.472 131.279 115.36 132.047 115.36C132.623 115.36 133.205 115.424 133.791 115.552C134.378 115.68 134.863 115.861 135.247 116.096L134.479 117.616C134.074 117.371 133.663 117.205 133.247 117.12C132.842 117.024 132.437 116.976 132.031 116.976C131.423 116.976 130.97 117.067 130.671 117.248C130.383 117.429 130.239 117.659 130.239 117.936C130.239 118.192 130.335 118.384 130.527 118.512C130.719 118.64 130.97 118.741 131.279 118.816C131.589 118.891 131.93 118.955 132.303 119.008C132.687 119.051 133.066 119.12 133.439 119.216C133.813 119.312 134.154 119.445 134.463 119.616C134.783 119.776 135.039 120.005 135.231 120.304C135.423 120.603 135.519 120.992 135.519 121.472C135.519 122.005 135.359 122.469 135.039 122.864C134.73 123.259 134.287 123.568 133.711 123.792C133.135 124.005 132.447 124.112 131.647 124.112ZM137.242 124V115.456H139.242V124H137.242ZM138.25 114.048C137.876 114.048 137.567 113.931 137.322 113.696C137.087 113.461 136.97 113.179 136.97 112.848C136.97 112.507 137.087 112.224 137.322 112C137.567 111.765 137.876 111.648 138.25 111.648C138.623 111.648 138.927 111.76 139.162 111.984C139.407 112.197 139.53 112.469 139.53 112.8C139.53 113.152 139.412 113.451 139.178 113.696C138.943 113.931 138.634 114.048 138.25 114.048ZM141.867 124V112.128H143.867V124H141.867ZM148.124 122.096L148.172 119.584L152.636 115.456H155.036L151.244 119.264L150.188 120.144L148.124 122.096ZM146.492 124V112.128H148.492V124H146.492ZM152.94 124L149.82 120.144L151.084 118.544L155.372 124H152.94ZM161.771 124V122.272L161.659 121.904V118.88C161.659 118.293 161.483 117.84 161.131 117.52C160.779 117.189 160.246 117.024 159.531 117.024C159.051 117.024 158.577 117.099 158.107 117.248C157.649 117.397 157.259 117.605 156.939 117.872L156.155 116.416C156.614 116.064 157.158 115.803 157.787 115.632C158.427 115.451 159.089 115.36 159.771 115.36C161.009 115.36 161.963 115.659 162.635 116.256C163.318 116.843 163.659 117.755 163.659 118.992V124H161.771ZM159.083 124.112C158.443 124.112 157.883 124.005 157.403 123.792C156.923 123.568 156.55 123.264 156.283 122.88C156.027 122.485 155.899 122.043 155.899 121.552C155.899 121.072 156.011 120.64 156.235 120.256C156.47 119.872 156.849 119.568 157.371 119.344C157.894 119.12 158.587 119.008 159.451 119.008H161.931V120.336H159.595C158.913 120.336 158.454 120.448 158.219 120.672C157.985 120.885 157.867 121.152 157.867 121.472C157.867 121.835 158.011 122.123 158.299 122.336C158.587 122.549 158.987 122.656 159.499 122.656C159.99 122.656 160.427 122.544 160.811 122.32C161.206 122.096 161.489 121.765 161.659 121.328L161.995 122.528C161.803 123.029 161.457 123.419 160.955 123.696C160.465 123.973 159.841 124.112 159.083 124.112ZM171.074 115.36C171.757 115.36 172.365 115.493 172.898 115.76C173.442 116.027 173.869 116.437 174.178 116.992C174.487 117.536 174.642 118.24 174.642 119.104V124H172.642V119.36C172.642 118.603 172.461 118.037 172.098 117.664C171.746 117.291 171.25 117.104 170.61 117.104C170.141 117.104 169.725 117.2 169.362 117.392C168.999 117.584 168.717 117.872 168.514 118.256C168.322 118.629 168.226 119.104 168.226 119.68V124H166.226V115.456H168.13V117.76L167.794 117.056C168.093 116.512 168.525 116.096 169.09 115.808C169.666 115.509 170.327 115.36 171.074 115.36ZM88.6004 144.112C87.8858 144.112 87.1978 144.021 86.5364 143.84C85.8858 143.648 85.3684 143.419 84.9844 143.152L85.7524 141.632C86.1364 141.877 86.5951 142.08 87.1284 142.24C87.6618 142.4 88.1951 142.48 88.7284 142.48C89.3578 142.48 89.8111 142.395 90.0884 142.224C90.3764 142.053 90.5204 141.824 90.5204 141.536C90.5204 141.301 90.4244 141.125 90.2324 141.008C90.0404 140.88 89.7898 140.784 89.4804 140.72C89.1711 140.656 88.8244 140.597 88.4404 140.544C88.0671 140.491 87.6884 140.421 87.3044 140.336C86.9311 140.24 86.5898 140.107 86.2804 139.936C85.9711 139.755 85.7204 139.515 85.5284 139.216C85.3364 138.917 85.2404 138.523 85.2404 138.032C85.2404 137.488 85.3951 137.019 85.7044 136.624C86.0138 136.219 86.4458 135.909 87.0004 135.696C87.5658 135.472 88.2324 135.36 89.0004 135.36C89.5764 135.36 90.1578 135.424 90.7444 135.552C91.3311 135.68 91.8164 135.861 92.2004 136.096L91.4324 137.616C91.0271 137.371 90.6164 137.205 90.2004 137.12C89.7951 137.024 89.3898 136.976 88.9844 136.976C88.3764 136.976 87.9231 137.067 87.6244 137.248C87.3364 137.429 87.1924 137.659 87.1924 137.936C87.1924 138.192 87.2884 138.384 87.4804 138.512C87.6724 138.64 87.9231 138.741 88.2324 138.816C88.5418 138.891 88.8831 138.955 89.2564 139.008C89.6404 139.051 90.0191 139.12 90.3924 139.216C90.7658 139.312 91.1071 139.445 91.4164 139.616C91.7364 139.776 91.9924 140.005 92.1844 140.304C92.3764 140.603 92.4724 140.992 92.4724 141.472C92.4724 142.005 92.3124 142.469 91.9924 142.864C91.6831 143.259 91.2404 143.568 90.6644 143.792C90.0884 144.005 89.4004 144.112 88.6004 144.112ZM98.2108 144.112C97.2615 144.112 96.4295 143.925 95.7148 143.552C95.0108 143.168 94.4615 142.645 94.0668 141.984C93.6828 141.323 93.4908 140.571 93.4908 139.728C93.4908 138.875 93.6775 138.123 94.0508 137.472C94.4348 136.811 94.9575 136.293 95.6188 135.92C96.2908 135.547 97.0535 135.36 97.9068 135.36C98.7388 135.36 99.4801 135.541 100.131 135.904C100.781 136.267 101.293 136.779 101.667 137.44C102.04 138.101 102.227 138.88 102.227 139.776C102.227 139.861 102.221 139.957 102.211 140.064C102.211 140.171 102.205 140.272 102.195 140.368H95.0748V139.04H101.139L100.355 139.456C100.365 138.965 100.264 138.533 100.051 138.16C99.8375 137.787 99.5441 137.493 99.1708 137.28C98.8081 137.067 98.3868 136.96 97.9068 136.96C97.4161 136.96 96.9841 137.067 96.6108 137.28C96.2481 137.493 95.9601 137.792 95.7468 138.176C95.5441 138.549 95.4428 138.992 95.4428 139.504V139.824C95.4428 140.336 95.5601 140.789 95.7948 141.184C96.0295 141.579 96.3601 141.883 96.7868 142.096C97.2135 142.309 97.7041 142.416 98.2588 142.416C98.7388 142.416 99.1708 142.341 99.5548 142.192C99.9388 142.043 100.28 141.808 100.579 141.488L101.651 142.72C101.267 143.168 100.781 143.515 100.195 143.76C99.6188 143.995 98.9575 144.112 98.2108 144.112ZM106.788 144.112C106.073 144.112 105.385 144.021 104.724 143.84C104.073 143.648 103.556 143.419 103.172 143.152L103.94 141.632C104.324 141.877 104.783 142.08 105.316 142.24C105.849 142.4 106.383 142.48 106.916 142.48C107.545 142.48 107.999 142.395 108.276 142.224C108.564 142.053 108.708 141.824 108.708 141.536C108.708 141.301 108.612 141.125 108.42 141.008C108.228 140.88 107.977 140.784 107.668 140.72C107.359 140.656 107.012 140.597 106.628 140.544C106.255 140.491 105.876 140.421 105.492 140.336C105.119 140.24 104.777 140.107 104.468 139.936C104.159 139.755 103.908 139.515 103.716 139.216C103.524 138.917 103.428 138.523 103.428 138.032C103.428 137.488 103.583 137.019 103.892 136.624C104.201 136.219 104.633 135.909 105.188 135.696C105.753 135.472 106.42 135.36 107.188 135.36C107.764 135.36 108.345 135.424 108.932 135.552C109.519 135.68 110.004 135.861 110.388 136.096L109.62 137.616C109.215 137.371 108.804 137.205 108.388 137.12C107.983 137.024 107.577 136.976 107.172 136.976C106.564 136.976 106.111 137.067 105.812 137.248C105.524 137.429 105.38 137.659 105.38 137.936C105.38 138.192 105.476 138.384 105.668 138.512C105.86 138.64 106.111 138.741 106.42 138.816C106.729 138.891 107.071 138.955 107.444 139.008C107.828 139.051 108.207 139.12 108.58 139.216C108.953 139.312 109.295 139.445 109.604 139.616C109.924 139.776 110.18 140.005 110.372 140.304C110.564 140.603 110.66 140.992 110.66 141.472C110.66 142.005 110.5 142.469 110.18 142.864C109.871 143.259 109.428 143.568 108.852 143.792C108.276 144.005 107.588 144.112 106.788 144.112ZM115.998 144.112C115.273 144.112 114.633 143.979 114.078 143.712C113.524 143.435 113.092 143.019 112.782 142.464C112.473 141.899 112.318 141.189 112.318 140.336V135.456H114.318V140.064C114.318 140.832 114.489 141.408 114.83 141.792C115.182 142.165 115.678 142.352 116.318 142.352C116.788 142.352 117.193 142.256 117.534 142.064C117.886 141.872 118.158 141.584 118.35 141.2C118.553 140.816 118.654 140.341 118.654 139.776V135.456H120.654V144H118.75V141.696L119.086 142.4C118.798 142.955 118.377 143.381 117.822 143.68C117.268 143.968 116.66 144.112 115.998 144.112ZM128.537 144V142.272L128.425 141.904V138.88C128.425 138.293 128.249 137.84 127.897 137.52C127.545 137.189 127.012 137.024 126.297 137.024C125.817 137.024 125.342 137.099 124.873 137.248C124.414 137.397 124.025 137.605 123.705 137.872L122.921 136.416C123.38 136.064 123.924 135.803 124.553 135.632C125.193 135.451 125.854 135.36 126.537 135.36C127.774 135.36 128.729 135.659 129.401 136.256C130.084 136.843 130.425 137.755 130.425 138.992V144H128.537ZM125.849 144.112C125.209 144.112 124.649 144.005 124.169 143.792C123.689 143.568 123.316 143.264 123.049 142.88C122.793 142.485 122.665 142.043 122.665 141.552C122.665 141.072 122.777 140.64 123.001 140.256C123.236 139.872 123.614 139.568 124.137 139.344C124.66 139.12 125.353 139.008 126.217 139.008H128.697V140.336H126.361C125.678 140.336 125.22 140.448 124.985 140.672C124.75 140.885 124.633 141.152 124.633 141.472C124.633 141.835 124.777 142.123 125.065 142.336C125.353 142.549 125.753 142.656 126.265 142.656C126.756 142.656 127.193 142.544 127.577 142.32C127.972 142.096 128.254 141.765 128.425 141.328L128.761 142.528C128.569 143.029 128.222 143.419 127.721 143.696C127.23 143.973 126.606 144.112 125.849 144.112ZM136.208 144.112C135.269 144.112 134.544 143.872 134.032 143.392C133.52 142.901 133.264 142.181 133.264 141.232V133.568H135.264V141.184C135.264 141.589 135.365 141.904 135.568 142.128C135.781 142.352 136.074 142.464 136.448 142.464C136.896 142.464 137.269 142.347 137.568 142.112L138.128 143.536C137.893 143.728 137.605 143.872 137.264 143.968C136.922 144.064 136.57 144.112 136.208 144.112ZM131.856 137.12V135.52H137.552V137.12H131.856ZM143.389 144.112C142.664 144.112 142.024 143.979 141.469 143.712C140.914 143.435 140.482 143.019 140.173 142.464C139.864 141.899 139.709 141.189 139.709 140.336V135.456H141.709V140.064C141.709 140.832 141.88 141.408 142.221 141.792C142.573 142.165 143.069 142.352 143.709 142.352C144.178 142.352 144.584 142.256 144.925 142.064C145.277 141.872 145.549 141.584 145.741 141.2C145.944 140.816 146.045 140.341 146.045 139.776V135.456H148.045V144H146.141V141.696L146.477 142.4C146.189 142.955 145.768 143.381 145.213 143.68C144.658 143.968 144.05 144.112 143.389 144.112Z" fill="white"/>
<rect x="233" width="233" height="173" fill="#E62C20"/>
<path d="M301.61 103.36L301.498 100.896L307.37 94.8H309.706L304.826 99.984L303.674 101.248L301.61 103.36ZM299.754 106V94.8H301.834V106H299.754ZM307.562 106L303.274 100.896L304.65 99.376L309.994 106H307.562ZM314.859 106.112C313.91 106.112 313.078 105.925 312.363 105.552C311.659 105.168 311.11 104.645 310.715 103.984C310.331 103.323 310.139 102.571 310.139 101.728C310.139 100.875 310.326 100.123 310.699 99.472C311.083 98.8107 311.606 98.2933 312.267 97.92C312.939 97.5467 313.702 97.36 314.555 97.36C315.387 97.36 316.129 97.5413 316.779 97.904C317.43 98.2667 317.942 98.7787 318.315 99.44C318.689 100.101 318.875 100.88 318.875 101.776C318.875 101.861 318.87 101.957 318.859 102.064C318.859 102.171 318.854 102.272 318.843 102.368H311.723V101.04H317.787L317.003 101.456C317.014 100.965 316.913 100.533 316.699 100.16C316.486 99.7867 316.193 99.4933 315.819 99.28C315.457 99.0667 315.035 98.96 314.555 98.96C314.065 98.96 313.633 99.0667 313.259 99.28C312.897 99.4933 312.609 99.792 312.395 100.176C312.193 100.549 312.091 100.992 312.091 101.504V101.824C312.091 102.336 312.209 102.789 312.443 103.184C312.678 103.579 313.009 103.883 313.435 104.096C313.862 104.309 314.353 104.416 314.907 104.416C315.387 104.416 315.819 104.341 316.203 104.192C316.587 104.043 316.929 103.808 317.227 103.488L318.299 104.72C317.915 105.168 317.43 105.515 316.843 105.76C316.267 105.995 315.606 106.112 314.859 106.112ZM324.412 106.112C323.687 106.112 323.047 105.979 322.492 105.712C321.938 105.435 321.506 105.019 321.196 104.464C320.887 103.899 320.732 103.189 320.732 102.336V97.456H322.732V102.064C322.732 102.832 322.903 103.408 323.244 103.792C323.596 104.165 324.092 104.352 324.732 104.352C325.202 104.352 325.607 104.256 325.948 104.064C326.3 103.872 326.572 103.584 326.764 103.2C326.967 102.816 327.068 102.341 327.068 101.776V97.456H329.068V106H327.164V103.696L327.5 104.4C327.212 104.955 326.791 105.381 326.236 105.68C325.682 105.968 325.074 106.112 324.412 106.112ZM336.535 97.36C337.218 97.36 337.826 97.4933 338.359 97.76C338.903 98.0267 339.33 98.4373 339.639 98.992C339.948 99.536 340.103 100.24 340.103 101.104V106H338.103V101.36C338.103 100.603 337.922 100.037 337.559 99.664C337.207 99.2907 336.711 99.104 336.071 99.104C335.602 99.104 335.186 99.2 334.823 99.392C334.46 99.584 334.178 99.872 333.975 100.256C333.783 100.629 333.687 101.104 333.687 101.68V106H331.687V97.456H333.591V99.76L333.255 99.056C333.554 98.512 333.986 98.096 334.551 97.808C335.127 97.5093 335.788 97.36 336.535 97.36ZM345.856 106.112C344.917 106.112 344.192 105.872 343.68 105.392C343.168 104.901 342.912 104.181 342.912 103.232V95.568H344.912V103.184C344.912 103.589 345.013 103.904 345.216 104.128C345.429 104.352 345.723 104.464 346.096 104.464C346.544 104.464 346.917 104.347 347.216 104.112L347.776 105.536C347.541 105.728 347.253 105.872 346.912 105.968C346.571 106.064 346.219 106.112 345.856 106.112ZM341.504 99.12V97.52H347.2V99.12H341.504ZM353.037 106.112C352.312 106.112 351.672 105.979 351.117 105.712C350.563 105.435 350.131 105.019 349.821 104.464C349.512 103.899 349.357 103.189 349.357 102.336V97.456H351.357V102.064C351.357 102.832 351.528 103.408 351.869 103.792C352.221 104.165 352.717 104.352 353.357 104.352C353.827 104.352 354.232 104.256 354.573 104.064C354.925 103.872 355.197 103.584 355.389 103.2C355.592 102.816 355.693 102.341 355.693 101.776V97.456H357.693V106H355.789V103.696L356.125 104.4C355.837 104.955 355.416 105.381 354.861 105.68C354.307 105.968 353.699 106.112 353.037 106.112ZM365.16 97.36C365.843 97.36 366.451 97.4933 366.984 97.76C367.528 98.0267 367.955 98.4373 368.264 98.992C368.573 99.536 368.728 100.24 368.728 101.104V106H366.728V101.36C366.728 100.603 366.547 100.037 366.184 99.664C365.832 99.2907 365.336 99.104 364.696 99.104C364.227 99.104 363.811 99.2 363.448 99.392C363.085 99.584 362.803 99.872 362.6 100.256C362.408 100.629 362.312 101.104 362.312 101.68V106H360.312V97.456H362.216V99.76L361.88 99.056C362.179 98.512 362.611 98.096 363.176 97.808C363.752 97.5093 364.413 97.36 365.16 97.36ZM375.153 109.216C374.363 109.216 373.59 109.109 372.833 108.896C372.086 108.693 371.473 108.395 370.993 108L371.889 106.496C372.262 106.805 372.731 107.051 373.297 107.232C373.873 107.424 374.454 107.52 375.041 107.52C375.979 107.52 376.667 107.301 377.105 106.864C377.542 106.437 377.761 105.792 377.761 104.928V103.408L377.921 101.472L377.857 99.536V97.456H379.761V104.704C379.761 106.251 379.366 107.387 378.577 108.112C377.787 108.848 376.646 109.216 375.153 109.216ZM374.897 105.616C374.086 105.616 373.35 105.445 372.689 105.104C372.038 104.752 371.521 104.267 371.137 103.648C370.763 103.029 370.577 102.304 370.577 101.472C370.577 100.651 370.763 99.9307 371.137 99.312C371.521 98.6933 372.038 98.2133 372.689 97.872C373.35 97.5307 374.086 97.36 374.897 97.36C375.622 97.36 376.273 97.504 376.849 97.792C377.425 98.08 377.883 98.528 378.225 99.136C378.577 99.744 378.753 100.523 378.753 101.472C378.753 102.421 378.577 103.205 378.225 103.824C377.883 104.432 377.425 104.885 376.849 105.184C376.273 105.472 375.622 105.616 374.897 105.616ZM375.201 103.92C375.702 103.92 376.15 103.819 376.545 103.616C376.939 103.403 377.243 103.115 377.457 102.752C377.681 102.379 377.793 101.952 377.793 101.472C377.793 100.992 377.681 100.571 377.457 100.208C377.243 99.8347 376.939 99.552 376.545 99.36C376.15 99.1573 375.702 99.056 375.201 99.056C374.699 99.056 374.246 99.1573 373.841 99.36C373.446 99.552 373.137 99.8347 372.913 100.208C372.699 100.571 372.593 100.992 372.593 101.472C372.593 101.952 372.699 102.379 372.913 102.752C373.137 103.115 373.446 103.403 373.841 103.616C374.246 103.819 374.699 103.92 375.201 103.92ZM387.654 106V104.272L387.542 103.904V100.88C387.542 100.293 387.366 99.84 387.014 99.52C386.662 99.1893 386.129 99.024 385.414 99.024C384.934 99.024 384.459 99.0987 383.99 99.248C383.531 99.3973 383.142 99.6053 382.822 99.872L382.038 98.416C382.497 98.064 383.041 97.8027 383.67 97.632C384.31 97.4507 384.971 97.36 385.654 97.36C386.891 97.36 387.846 97.6587 388.518 98.256C389.201 98.8427 389.542 99.7547 389.542 100.992V106H387.654ZM384.966 106.112C384.326 106.112 383.766 106.005 383.286 105.792C382.806 105.568 382.433 105.264 382.166 104.88C381.91 104.485 381.782 104.043 381.782 103.552C381.782 103.072 381.894 102.64 382.118 102.256C382.353 101.872 382.731 101.568 383.254 101.344C383.777 101.12 384.47 101.008 385.334 101.008H387.814V102.336H385.478C384.795 102.336 384.337 102.448 384.102 102.672C383.867 102.885 383.75 103.152 383.75 103.472C383.75 103.835 383.894 104.123 384.182 104.336C384.47 104.549 384.87 104.656 385.382 104.656C385.873 104.656 386.31 104.544 386.694 104.32C387.089 104.096 387.371 103.765 387.542 103.328L387.878 104.528C387.686 105.029 387.339 105.419 386.838 105.696C386.347 105.973 385.723 106.112 384.966 106.112ZM396.957 97.36C397.64 97.36 398.248 97.4933 398.781 97.76C399.325 98.0267 399.752 98.4373 400.061 98.992C400.37 99.536 400.525 100.24 400.525 101.104V106H398.525V101.36C398.525 100.603 398.344 100.037 397.981 99.664C397.629 99.2907 397.133 99.104 396.493 99.104C396.024 99.104 395.608 99.2 395.245 99.392C394.882 99.584 394.6 99.872 394.397 100.256C394.205 100.629 394.109 101.104 394.109 101.68V106H392.109V97.456H394.013V99.76L393.677 99.056C393.976 98.512 394.408 98.096 394.973 97.808C395.549 97.5093 396.21 97.36 396.957 97.36Z" fill="white"/>
<path d="M330.37 51.8H337.498V77H330.37V51.8ZM320.65 77H313.522V51.8H320.65V77ZM330.874 67.172H320.146V61.268H330.874V67.172ZM342.202 77V57.488H349.042V77H342.202ZM345.622 55.328C344.374 55.328 343.366 54.98 342.598 54.284C341.83 53.588 341.446 52.724 341.446 51.692C341.446 50.66 341.83 49.796 342.598 49.1C343.366 48.404 344.374 48.056 345.622 48.056C346.87 48.056 347.878 48.392 348.646 49.064C349.414 49.712 349.798 50.552 349.798 51.584C349.798 52.664 349.414 53.564 348.646 54.284C347.902 54.98 346.894 55.328 345.622 55.328ZM362.199 77.324C359.703 77.324 357.759 76.712 356.367 75.488C354.975 74.24 354.279 72.368 354.279 69.872V53.132H361.119V69.8C361.119 70.496 361.311 71.048 361.695 71.456C362.079 71.84 362.571 72.032 363.171 72.032C363.987 72.032 364.683 71.828 365.259 71.42L366.951 76.208C366.375 76.592 365.667 76.868 364.827 77.036C363.987 77.228 363.111 77.324 362.199 77.324ZM351.435 63.32V58.208H365.583V63.32H351.435ZM381.505 77V73.364L381.037 72.464V65.768C381.037 64.688 380.701 63.86 380.029 63.284C379.381 62.684 378.337 62.384 376.897 62.384C375.961 62.384 375.013 62.54 374.053 62.852C373.093 63.14 372.277 63.548 371.605 64.076L369.301 59.432C370.405 58.712 371.725 58.16 373.261 57.776C374.821 57.368 376.369 57.164 377.905 57.164C381.073 57.164 383.521 57.896 385.249 59.36C387.001 60.8 387.877 63.068 387.877 66.164V77H381.505ZM375.745 77.324C374.185 77.324 372.865 77.06 371.785 76.532C370.705 76.004 369.877 75.284 369.301 74.372C368.749 73.46 368.473 72.44 368.473 71.312C368.473 70.112 368.773 69.08 369.373 68.216C369.997 67.328 370.945 66.656 372.217 66.2C373.489 65.72 375.133 65.48 377.149 65.48H381.757V69.044H378.085C376.981 69.044 376.201 69.224 375.745 69.584C375.313 69.944 375.097 70.424 375.097 71.024C375.097 71.624 375.325 72.104 375.781 72.464C376.237 72.824 376.861 73.004 377.653 73.004C378.397 73.004 379.069 72.824 379.669 72.464C380.293 72.08 380.749 71.504 381.037 70.736L381.973 73.256C381.613 74.6 380.905 75.62 379.849 76.316C378.817 76.988 377.449 77.324 375.745 77.324Z" fill="white"/>
<path d="M311.002 81.5H390.001V83.3H311.002V81.5Z" fill="white"/>
<rect x="466" width="233" height="173" fill="#F69722"/>
<path d="M535.473 106V94.8H537.185L542.081 102.976H541.185L546.001 94.8H547.713L547.729 106H545.761L545.745 97.888H546.161L542.065 104.72H541.137L536.977 97.888H537.457V106H535.473ZM554.578 106.112C553.629 106.112 552.797 105.925 552.082 105.552C551.378 105.168 550.829 104.645 550.434 103.984C550.05 103.323 549.858 102.571 549.858 101.728C549.858 100.875 550.045 100.123 550.418 99.472C550.802 98.8107 551.325 98.2933 551.986 97.92C552.658 97.5467 553.421 97.36 554.274 97.36C555.106 97.36 555.847 97.5413 556.498 97.904C557.149 98.2667 557.661 98.7787 558.034 99.44C558.407 100.101 558.594 100.88 558.594 101.776C558.594 101.861 558.589 101.957 558.578 102.064C558.578 102.171 558.573 102.272 558.562 102.368H551.442V101.04H557.506L556.722 101.456C556.733 100.965 556.631 100.533 556.418 100.16C556.205 99.7867 555.911 99.4933 555.538 99.28C555.175 99.0667 554.754 98.96 554.274 98.96C553.783 98.96 553.351 99.0667 552.978 99.28C552.615 99.4933 552.327 99.792 552.114 100.176C551.911 100.549 551.81 100.992 551.81 101.504V101.824C551.81 102.336 551.927 102.789 552.162 103.184C552.397 103.579 552.727 103.883 553.154 104.096C553.581 104.309 554.071 104.416 554.626 104.416C555.106 104.416 555.538 104.341 555.922 104.192C556.306 104.043 556.647 103.808 556.946 103.488L558.018 104.72C557.634 105.168 557.149 105.515 556.562 105.76C555.986 105.995 555.325 106.112 554.578 106.112ZM571.299 97.36C571.982 97.36 572.584 97.4933 573.107 97.76C573.64 98.0267 574.056 98.4373 574.355 98.992C574.654 99.536 574.803 100.24 574.803 101.104V106H572.803V101.36C572.803 100.603 572.638 100.037 572.307 99.664C571.976 99.2907 571.502 99.104 570.883 99.104C570.446 99.104 570.056 99.2 569.715 99.392C569.384 99.584 569.123 99.8667 568.931 100.24C568.75 100.613 568.659 101.088 568.659 101.664V106H566.659V101.36C566.659 100.603 566.494 100.037 566.163 99.664C565.832 99.2907 565.358 99.104 564.739 99.104C564.302 99.104 563.912 99.2 563.571 99.392C563.24 99.584 562.979 99.8667 562.787 100.24C562.606 100.613 562.515 101.088 562.515 101.664V106H560.515V97.456H562.419V99.728L562.083 99.056C562.371 98.5013 562.787 98.08 563.331 97.792C563.886 97.504 564.515 97.36 565.219 97.36C566.019 97.36 566.712 97.5573 567.299 97.952C567.896 98.3467 568.291 98.944 568.483 99.744L567.699 99.472C567.976 98.832 568.435 98.32 569.075 97.936C569.715 97.552 570.456 97.36 571.299 97.36ZM582.095 106.112C581.402 106.112 580.767 105.952 580.191 105.632C579.626 105.312 579.172 104.832 578.831 104.192C578.5 103.541 578.335 102.72 578.335 101.728C578.335 100.725 578.495 99.904 578.815 99.264C579.146 98.624 579.594 98.1493 580.159 97.84C580.724 97.52 581.37 97.36 582.095 97.36C582.938 97.36 583.679 97.5413 584.319 97.904C584.97 98.2667 585.482 98.7733 585.855 99.424C586.239 100.075 586.431 100.843 586.431 101.728C586.431 102.613 586.239 103.387 585.855 104.048C585.482 104.699 584.97 105.205 584.319 105.568C583.679 105.931 582.938 106.112 582.095 106.112ZM577.359 109.104V97.456H579.263V99.472L579.199 101.744L579.359 104.016V109.104H577.359ZM581.871 104.4C582.351 104.4 582.778 104.293 583.151 104.08C583.535 103.867 583.839 103.557 584.063 103.152C584.287 102.747 584.399 102.272 584.399 101.728C584.399 101.173 584.287 100.699 584.063 100.304C583.839 99.8987 583.535 99.5893 583.151 99.376C582.778 99.1627 582.351 99.056 581.871 99.056C581.391 99.056 580.959 99.1627 580.575 99.376C580.191 99.5893 579.887 99.8987 579.663 100.304C579.439 100.699 579.327 101.173 579.327 101.728C579.327 102.272 579.439 102.747 579.663 103.152C579.887 103.557 580.191 103.867 580.575 104.08C580.959 104.293 581.391 104.4 581.871 104.4ZM591.944 106.112C591.218 106.112 590.578 105.979 590.024 105.712C589.469 105.435 589.037 105.019 588.728 104.464C588.418 103.899 588.264 103.189 588.264 102.336V97.456H590.264V102.064C590.264 102.832 590.434 103.408 590.776 103.792C591.128 104.165 591.624 104.352 592.264 104.352C592.733 104.352 593.138 104.256 593.48 104.064C593.832 103.872 594.104 103.584 594.296 103.2C594.498 102.816 594.6 102.341 594.6 101.776V97.456H596.6V106H594.696V103.696L595.032 104.4C594.744 104.955 594.322 105.381 593.768 105.68C593.213 105.968 592.605 106.112 591.944 106.112ZM604.066 97.36C604.749 97.36 605.357 97.4933 605.89 97.76C606.434 98.0267 606.861 98.4373 607.17 98.992C607.48 99.536 607.634 100.24 607.634 101.104V106H605.634V101.36C605.634 100.603 605.453 100.037 605.09 99.664C604.738 99.2907 604.242 99.104 603.602 99.104C603.133 99.104 602.717 99.2 602.354 99.392C601.992 99.584 601.709 99.872 601.506 100.256C601.314 100.629 601.218 101.104 601.218 101.68V106H599.218V97.456H601.122V99.76L600.786 99.056C601.085 98.512 601.517 98.096 602.082 97.808C602.658 97.5093 603.32 97.36 604.066 97.36ZM610.719 109.216C610.303 109.216 609.887 109.147 609.471 109.008C609.055 108.869 608.708 108.677 608.431 108.432L609.231 106.96C609.434 107.141 609.663 107.285 609.919 107.392C610.175 107.499 610.436 107.552 610.703 107.552C611.066 107.552 611.359 107.461 611.583 107.28C611.807 107.099 612.015 106.795 612.207 106.368L612.703 105.248L612.863 105.008L616.095 97.456H618.015L614.015 106.688C613.748 107.328 613.45 107.835 613.119 108.208C612.799 108.581 612.436 108.843 612.031 108.992C611.636 109.141 611.199 109.216 610.719 109.216ZM612.479 106.304L608.623 97.456H610.703L613.839 104.832L612.479 106.304ZM624.264 106V104.272L624.152 103.904V100.88C624.152 100.293 623.976 99.84 623.624 99.52C623.272 99.1893 622.738 99.024 622.024 99.024C621.544 99.024 621.069 99.0987 620.6 99.248C620.141 99.3973 619.752 99.6053 619.432 99.872L618.648 98.416C619.106 98.064 619.65 97.8027 620.28 97.632C620.92 97.4507 621.581 97.36 622.264 97.36C623.501 97.36 624.456 97.6587 625.128 98.256C625.81 98.8427 626.152 99.7547 626.152 100.992V106H624.264ZM621.576 106.112C620.936 106.112 620.376 106.005 619.896 105.792C619.416 105.568 619.042 105.264 618.776 104.88C618.52 104.485 618.392 104.043 618.392 103.552C618.392 103.072 618.504 102.64 618.728 102.256C618.962 101.872 619.341 101.568 619.864 101.344C620.386 101.12 621.08 101.008 621.944 101.008H624.424V102.336H622.088C621.405 102.336 620.946 102.448 620.712 102.672C620.477 102.885 620.36 103.152 620.36 103.472C620.36 103.835 620.504 104.123 620.792 104.336C621.08 104.549 621.48 104.656 621.992 104.656C622.482 104.656 622.92 104.544 623.304 104.32C623.698 104.096 623.981 103.765 624.152 103.328L624.488 104.528C624.296 105.029 623.949 105.419 623.448 105.696C622.957 105.973 622.333 106.112 621.576 106.112ZM628.718 106V97.456H630.718V106H628.718ZM629.726 96.048C629.353 96.048 629.044 95.9307 628.798 95.696C628.564 95.4613 628.446 95.1787 628.446 94.848C628.446 94.5067 628.564 94.224 628.798 94C629.044 93.7653 629.353 93.648 629.726 93.648C630.1 93.648 630.404 93.76 630.638 93.984C630.884 94.1973 631.006 94.4693 631.006 94.8C631.006 95.152 630.889 95.4507 630.654 95.696C630.42 95.9307 630.11 96.048 629.726 96.048ZM555.183 117.36C555.866 117.36 556.474 117.493 557.007 117.76C557.551 118.027 557.978 118.437 558.287 118.992C558.597 119.536 558.751 120.24 558.751 121.104V126H556.751V121.36C556.751 120.603 556.57 120.037 556.207 119.664C555.855 119.291 555.359 119.104 554.719 119.104C554.25 119.104 553.834 119.2 553.471 119.392C553.109 119.584 552.826 119.872 552.623 120.256C552.431 120.629 552.335 121.104 552.335 121.68V126H550.335V114.128H552.335V119.76L551.903 119.056C552.202 118.512 552.634 118.096 553.199 117.808C553.775 117.509 554.437 117.36 555.183 117.36ZM566.553 126V124.272L566.441 123.904V120.88C566.441 120.293 566.265 119.84 565.913 119.52C565.561 119.189 565.027 119.024 564.313 119.024C563.833 119.024 563.358 119.099 562.889 119.248C562.43 119.397 562.041 119.605 561.721 119.872L560.937 118.416C561.395 118.064 561.939 117.803 562.569 117.632C563.209 117.451 563.87 117.36 564.553 117.36C565.79 117.36 566.745 117.659 567.417 118.256C568.099 118.843 568.441 119.755 568.441 120.992V126H566.553ZM563.865 126.112C563.225 126.112 562.665 126.005 562.185 125.792C561.705 125.568 561.331 125.264 561.065 124.88C560.809 124.485 560.681 124.043 560.681 123.552C560.681 123.072 560.793 122.64 561.017 122.256C561.251 121.872 561.63 121.568 562.153 121.344C562.675 121.12 563.369 121.008 564.233 121.008H566.713V122.336H564.377C563.694 122.336 563.235 122.448 563.001 122.672C562.766 122.885 562.649 123.152 562.649 123.472C562.649 123.835 562.793 124.123 563.081 124.336C563.369 124.549 563.769 124.656 564.281 124.656C564.771 124.656 565.209 124.544 565.593 124.32C565.987 124.096 566.27 123.765 566.441 123.328L566.777 124.528C566.585 125.029 566.238 125.419 565.737 125.696C565.246 125.973 564.622 126.112 563.865 126.112ZM571.007 126V117.456H572.911V119.808L572.687 119.12C572.943 118.544 573.343 118.107 573.887 117.808C574.442 117.509 575.13 117.36 575.951 117.36V119.264C575.866 119.243 575.786 119.232 575.711 119.232C575.637 119.221 575.562 119.216 575.487 119.216C574.73 119.216 574.127 119.44 573.679 119.888C573.231 120.325 573.007 120.981 573.007 121.856V126H571.007ZM582.303 126V124.272L582.191 123.904V120.88C582.191 120.293 582.015 119.84 581.663 119.52C581.311 119.189 580.777 119.024 580.063 119.024C579.583 119.024 579.108 119.099 578.639 119.248C578.18 119.397 577.791 119.605 577.471 119.872L576.687 118.416C577.145 118.064 577.689 117.803 578.319 117.632C578.959 117.451 579.62 117.36 580.303 117.36C581.54 117.36 582.495 117.659 583.167 118.256C583.849 118.843 584.191 119.755 584.191 120.992V126H582.303ZM579.615 126.112C578.975 126.112 578.415 126.005 577.935 125.792C577.455 125.568 577.081 125.264 576.815 124.88C576.559 124.485 576.431 124.043 576.431 123.552C576.431 123.072 576.543 122.64 576.767 122.256C577.001 121.872 577.38 121.568 577.903 121.344C578.425 121.12 579.119 121.008 579.983 121.008H582.463V122.336H580.127C579.444 122.336 578.985 122.448 578.751 122.672C578.516 122.885 578.399 123.152 578.399 123.472C578.399 123.835 578.543 124.123 578.831 124.336C579.119 124.549 579.519 124.656 580.031 124.656C580.521 124.656 580.959 124.544 581.343 124.32C581.737 124.096 582.02 123.765 582.191 123.328L582.527 124.528C582.335 125.029 581.988 125.419 581.487 125.696C580.996 125.973 580.372 126.112 579.615 126.112ZM591.493 126.112C590.8 126.112 590.165 125.952 589.589 125.632C589.024 125.312 588.571 124.832 588.229 124.192C587.899 123.541 587.733 122.72 587.733 121.728C587.733 120.725 587.893 119.904 588.213 119.264C588.544 118.624 588.992 118.149 589.557 117.84C590.123 117.52 590.768 117.36 591.493 117.36C592.336 117.36 593.077 117.541 593.717 117.904C594.368 118.267 594.88 118.773 595.253 119.424C595.637 120.075 595.829 120.843 595.829 121.728C595.829 122.613 595.637 123.387 595.253 124.048C594.88 124.699 594.368 125.205 593.717 125.568C593.077 125.931 592.336 126.112 591.493 126.112ZM586.757 129.104V117.456H588.661V119.472L588.597 121.744L588.757 124.016V129.104H586.757ZM591.269 124.4C591.749 124.4 592.176 124.293 592.549 124.08C592.933 123.867 593.237 123.557 593.461 123.152C593.685 122.747 593.797 122.272 593.797 121.728C593.797 121.173 593.685 120.699 593.461 120.304C593.237 119.899 592.933 119.589 592.549 119.376C592.176 119.163 591.749 119.056 591.269 119.056C590.789 119.056 590.357 119.163 589.973 119.376C589.589 119.589 589.285 119.899 589.061 120.304C588.837 120.699 588.725 121.173 588.725 121.728C588.725 122.272 588.837 122.747 589.061 123.152C589.285 123.557 589.589 123.867 589.973 124.08C590.357 124.293 590.789 124.4 591.269 124.4ZM602.881 126V124.272L602.769 123.904V120.88C602.769 120.293 602.593 119.84 602.241 119.52C601.889 119.189 601.355 119.024 600.641 119.024C600.161 119.024 599.686 119.099 599.217 119.248C598.758 119.397 598.369 119.605 598.049 119.872L597.265 118.416C597.723 118.064 598.267 117.803 598.897 117.632C599.537 117.451 600.198 117.36 600.881 117.36C602.118 117.36 603.073 117.659 603.745 118.256C604.427 118.843 604.769 119.755 604.769 120.992V126H602.881ZM600.193 126.112C599.553 126.112 598.993 126.005 598.513 125.792C598.033 125.568 597.659 125.264 597.393 124.88C597.137 124.485 597.009 124.043 597.009 123.552C597.009 123.072 597.121 122.64 597.345 122.256C597.579 121.872 597.958 121.568 598.481 121.344C599.003 121.12 599.697 121.008 600.561 121.008H603.041V122.336H600.705C600.022 122.336 599.563 122.448 599.329 122.672C599.094 122.885 598.977 123.152 598.977 123.472C598.977 123.835 599.121 124.123 599.409 124.336C599.697 124.549 600.097 124.656 600.609 124.656C601.099 124.656 601.537 124.544 601.921 124.32C602.315 124.096 602.598 123.765 602.769 123.328L603.105 124.528C602.913 125.029 602.566 125.419 602.065 125.696C601.574 125.973 600.95 126.112 600.193 126.112ZM612.183 117.36C612.866 117.36 613.474 117.493 614.007 117.76C614.551 118.027 614.978 118.437 615.287 118.992C615.597 119.536 615.751 120.24 615.751 121.104V126H613.751V121.36C613.751 120.603 613.57 120.037 613.207 119.664C612.855 119.291 612.359 119.104 611.719 119.104C611.25 119.104 610.834 119.2 610.471 119.392C610.109 119.584 609.826 119.872 609.623 120.256C609.431 120.629 609.335 121.104 609.335 121.68V126H607.335V117.456H609.239V119.76L608.903 119.056C609.202 118.512 609.634 118.096 610.199 117.808C610.775 117.509 611.437 117.36 612.183 117.36Z" fill="white"/>
<path d="M484.516 77L495.64 51.8H502.66L513.82 77H506.404L497.692 55.292H500.5L491.788 77H484.516ZM490.6 72.104L492.436 66.848H504.748L506.584 72.104H490.6ZM527.792 77.324C526.04 77.324 524.576 76.964 523.4 76.244C522.248 75.524 521.384 74.42 520.808 72.932C520.232 71.444 519.944 69.536 519.944 67.208C519.944 64.928 520.244 63.044 520.844 61.556C521.468 60.068 522.368 58.964 523.544 58.244C524.72 57.524 526.136 57.164 527.792 57.164C529.568 57.164 531.176 57.572 532.616 58.388C534.08 59.204 535.232 60.368 536.072 61.88C536.936 63.368 537.368 65.144 537.368 67.208C537.368 69.296 536.936 71.096 536.072 72.608C535.232 74.096 534.08 75.26 532.616 76.1C531.176 76.916 529.568 77.324 527.792 77.324ZM515.516 77V50.288H522.356V60.764L521.996 67.208L522.032 73.652V77H515.516ZM526.352 71.888C527.12 71.888 527.804 71.708 528.404 71.348C529.028 70.988 529.52 70.46 529.88 69.764C530.264 69.044 530.456 68.192 530.456 67.208C530.456 66.224 530.264 65.396 529.88 64.724C529.52 64.028 529.028 63.5 528.404 63.14C527.804 62.78 527.12 62.6 526.352 62.6C525.584 62.6 524.888 62.78 524.264 63.14C523.664 63.5 523.172 64.028 522.788 64.724C522.428 65.396 522.248 66.224 522.248 67.208C522.248 68.192 522.428 69.044 522.788 69.764C523.172 70.46 523.664 70.988 524.264 71.348C524.888 71.708 525.584 71.888 526.352 71.888ZM553.256 57.164C554.768 57.164 556.136 57.476 557.36 58.1C558.584 58.7 559.544 59.636 560.24 60.908C560.96 62.18 561.32 63.824 561.32 65.84V77H554.48V66.956C554.48 65.564 554.192 64.556 553.616 63.932C553.064 63.284 552.284 62.96 551.276 62.96C550.556 62.96 549.896 63.128 549.296 63.464C548.696 63.776 548.228 64.268 547.892 64.94C547.556 65.612 547.388 66.488 547.388 67.568V77H540.548V50.288H547.388V63.032L545.804 61.412C546.548 59.996 547.568 58.94 548.864 58.244C550.16 57.524 551.624 57.164 553.256 57.164ZM565.614 77V57.488H572.454V77H565.614ZM569.034 55.328C567.786 55.328 566.778 54.98 566.01 54.284C565.242 53.588 564.858 52.724 564.858 51.692C564.858 50.66 565.242 49.796 566.01 49.1C566.778 48.404 567.786 48.056 569.034 48.056C570.282 48.056 571.29 48.392 572.058 49.064C572.826 49.712 573.21 50.552 573.21 51.584C573.21 52.664 572.826 53.564 572.058 54.284C571.314 54.98 570.306 55.328 569.034 55.328ZM589.175 77.324C587.519 77.324 586.103 76.964 584.927 76.244C583.751 75.5 582.851 74.396 582.227 72.932C581.627 71.444 581.327 69.548 581.327 67.244C581.327 64.916 581.615 63.02 582.191 61.556C582.767 60.068 583.631 58.964 584.783 58.244C585.959 57.524 587.423 57.164 589.175 57.164C590.951 57.164 592.559 57.584 593.999 58.424C595.463 59.24 596.615 60.404 597.455 61.916C598.319 63.404 598.751 65.18 598.751 67.244C598.751 69.308 598.319 71.096 597.455 72.608C596.615 74.12 595.463 75.284 593.999 76.1C592.559 76.916 590.951 77.324 589.175 77.324ZM576.899 83.984V57.488H583.415V60.8L583.379 67.244L583.739 73.724V83.984H576.899ZM587.735 71.888C588.503 71.888 589.187 71.708 589.787 71.348C590.411 70.988 590.903 70.46 591.263 69.764C591.647 69.068 591.839 68.228 591.839 67.244C591.839 66.26 591.647 65.42 591.263 64.724C590.903 64.028 590.411 63.5 589.787 63.14C589.187 62.78 588.503 62.6 587.735 62.6C586.967 62.6 586.271 62.78 585.647 63.14C585.047 63.5 584.555 64.028 584.171 64.724C583.811 65.42 583.631 66.26 583.631 67.244C583.631 68.228 583.811 69.068 584.171 69.764C584.555 70.46 585.047 70.988 585.647 71.348C586.271 71.708 586.967 71.888 587.735 71.888ZM601.93 77V57.488H608.446V63.176L607.474 61.556C608.05 60.092 608.986 59 610.282 58.28C611.578 57.536 613.15 57.164 614.998 57.164V63.32C614.686 63.272 614.41 63.248 614.17 63.248C613.954 63.224 613.714 63.212 613.45 63.212C612.058 63.212 610.93 63.596 610.066 64.364C609.202 65.108 608.77 66.332 608.77 68.036V77H601.93ZM628.577 77V73.364L628.109 72.464V65.768C628.109 64.688 627.773 63.86 627.101 63.284C626.453 62.684 625.409 62.384 623.969 62.384C623.033 62.384 622.085 62.54 621.125 62.852C620.165 63.14 619.349 63.548 618.677 64.076L616.373 59.432C617.477 58.712 618.797 58.16 620.333 57.776C621.893 57.368 623.441 57.164 624.977 57.164C628.145 57.164 630.593 57.896 632.321 59.36C634.073 60.8 634.949 63.068 634.949 66.164V77H628.577ZM622.817 77.324C621.257 77.324 619.937 77.06 618.857 76.532C617.777 76.004 616.949 75.284 616.373 74.372C615.821 73.46 615.545 72.44 615.545 71.312C615.545 70.112 615.845 69.08 616.445 68.216C617.069 67.328 618.017 66.656 619.289 66.2C620.561 65.72 622.205 65.48 624.221 65.48H628.829V69.044H625.157C624.053 69.044 623.273 69.224 622.817 69.584C622.385 69.944 622.169 70.424 622.169 71.024C622.169 71.624 622.397 72.104 622.853 72.464C623.309 72.824 623.933 73.004 624.725 73.004C625.469 73.004 626.141 72.824 626.741 72.464C627.365 72.08 627.821 71.504 628.109 70.736L629.045 73.256C628.685 74.6 627.977 75.62 626.921 76.316C625.889 76.988 624.521 77.324 622.817 77.324ZM642.263 84.308C641.231 84.308 640.187 84.14 639.131 83.804C638.099 83.492 637.259 83.072 636.611 82.544L638.987 77.756C639.395 78.116 639.863 78.392 640.391 78.584C640.943 78.8 641.483 78.908 642.011 78.908C642.755 78.908 643.343 78.74 643.775 78.404C644.207 78.068 644.579 77.54 644.891 76.82L645.791 74.552L646.331 73.868L652.955 57.488H659.471L651.047 77.792C650.375 79.472 649.595 80.78 648.707 81.716C647.843 82.676 646.871 83.348 645.791 83.732C644.735 84.116 643.559 84.308 642.263 84.308ZM644.927 77.828L636.323 57.488H643.343L649.679 73.256L644.927 77.828ZM672.487 77V73.364L672.019 72.464V65.768C672.019 64.688 671.683 63.86 671.011 63.284C670.363 62.684 669.319 62.384 667.879 62.384C666.943 62.384 665.995 62.54 665.035 62.852C664.075 63.14 663.259 63.548 662.587 64.076L660.283 59.432C661.387 58.712 662.707 58.16 664.243 57.776C665.803 57.368 667.351 57.164 668.887 57.164C672.055 57.164 674.503 57.896 676.231 59.36C677.983 60.8 678.859 63.068 678.859 66.164V77H672.487ZM666.727 77.324C665.167 77.324 663.847 77.06 662.767 76.532C661.687 76.004 660.859 75.284 660.283 74.372C659.731 73.46 659.455 72.44 659.455 71.312C659.455 70.112 659.755 69.08 660.355 68.216C660.979 67.328 661.927 66.656 663.199 66.2C664.471 65.72 666.115 65.48 668.131 65.48H672.739V69.044H669.067C667.963 69.044 667.183 69.224 666.727 69.584C666.295 69.944 666.079 70.424 666.079 71.024C666.079 71.624 666.307 72.104 666.763 72.464C667.219 72.824 667.843 73.004 668.635 73.004C669.379 73.004 670.051 72.824 670.651 72.464C671.275 72.08 671.731 71.504 672.019 70.736L672.955 73.256C672.595 74.6 671.887 75.62 670.831 76.316C669.799 76.988 668.431 77.324 666.727 77.324Z" fill="white"/>
<path d="M485.02 81.5H680.983V83.3H485.02V81.5Z" fill="white"/>
<rect x="699" width="233" height="173" fill="#9C4A9A"/>
<path d="M760.516 103.36L760.404 100.896L766.276 94.8H768.612L763.732 99.984L762.58 101.248L760.516 103.36ZM758.66 106V94.8H760.74V106H758.66ZM766.468 106L762.18 100.896L763.556 99.376L768.9 106H766.468ZM773.766 106.112C772.816 106.112 771.984 105.925 771.27 105.552C770.566 105.168 770.016 104.645 769.622 103.984C769.238 103.323 769.046 102.571 769.046 101.728C769.046 100.875 769.232 100.123 769.606 99.472C769.99 98.8107 770.512 98.2933 771.174 97.92C771.846 97.5467 772.608 97.36 773.462 97.36C774.294 97.36 775.035 97.5413 775.686 97.904C776.336 98.2667 776.848 98.7787 777.222 99.44C777.595 100.101 777.782 100.88 777.782 101.776C777.782 101.861 777.776 101.957 777.766 102.064C777.766 102.171 777.76 102.272 777.75 102.368H770.63V101.04H776.694L775.91 101.456C775.92 100.965 775.819 100.533 775.606 100.16C775.392 99.7867 775.099 99.4933 774.726 99.28C774.363 99.0667 773.942 98.96 773.462 98.96C772.971 98.96 772.539 99.0667 772.166 99.28C771.803 99.4933 771.515 99.792 771.302 100.176C771.099 100.549 770.998 100.992 770.998 101.504V101.824C770.998 102.336 771.115 102.789 771.35 103.184C771.584 103.579 771.915 103.883 772.342 104.096C772.768 104.309 773.259 104.416 773.814 104.416C774.294 104.416 774.726 104.341 775.11 104.192C775.494 104.043 775.835 103.808 776.134 103.488L777.206 104.72C776.822 105.168 776.336 105.515 775.75 105.76C775.174 105.995 774.512 106.112 773.766 106.112ZM782.343 106.112C781.628 106.112 780.94 106.021 780.279 105.84C779.628 105.648 779.111 105.419 778.727 105.152L779.495 103.632C779.879 103.877 780.337 104.08 780.871 104.24C781.404 104.4 781.937 104.48 782.471 104.48C783.1 104.48 783.553 104.395 783.831 104.224C784.119 104.053 784.263 103.824 784.263 103.536C784.263 103.301 784.167 103.125 783.975 103.008C783.783 102.88 783.532 102.784 783.223 102.72C782.913 102.656 782.567 102.597 782.183 102.544C781.809 102.491 781.431 102.421 781.047 102.336C780.673 102.24 780.332 102.107 780.023 101.936C779.713 101.755 779.463 101.515 779.271 101.216C779.079 100.917 778.983 100.523 778.983 100.032C778.983 99.488 779.137 99.0187 779.447 98.624C779.756 98.2187 780.188 97.9093 780.743 97.696C781.308 97.472 781.975 97.36 782.743 97.36C783.319 97.36 783.9 97.424 784.487 97.552C785.073 97.68 785.559 97.8613 785.943 98.096L785.175 99.616C784.769 99.3707 784.359 99.2053 783.943 99.12C783.537 99.024 783.132 98.976 782.727 98.976C782.119 98.976 781.665 99.0667 781.367 99.248C781.079 99.4293 780.935 99.6587 780.935 99.936C780.935 100.192 781.031 100.384 781.223 100.512C781.415 100.64 781.665 100.741 781.975 100.816C782.284 100.891 782.625 100.955 782.999 101.008C783.383 101.051 783.761 101.12 784.135 101.216C784.508 101.312 784.849 101.445 785.159 101.616C785.479 101.776 785.735 102.005 785.927 102.304C786.119 102.603 786.215 102.992 786.215 103.472C786.215 104.005 786.055 104.469 785.735 104.864C785.425 105.259 784.983 105.568 784.407 105.792C783.831 106.005 783.143 106.112 782.343 106.112ZM791.953 106.112C791.004 106.112 790.172 105.925 789.457 105.552C788.753 105.168 788.204 104.645 787.809 103.984C787.425 103.323 787.233 102.571 787.233 101.728C787.233 100.875 787.42 100.123 787.793 99.472C788.177 98.8107 788.7 98.2933 789.361 97.92C790.033 97.5467 790.796 97.36 791.649 97.36C792.481 97.36 793.222 97.5413 793.873 97.904C794.524 98.2667 795.036 98.7787 795.409 99.44C795.782 100.101 795.969 100.88 795.969 101.776C795.969 101.861 795.964 101.957 795.953 102.064C795.953 102.171 795.948 102.272 795.937 102.368H788.817V101.04H794.881L794.097 101.456C794.108 100.965 794.006 100.533 793.793 100.16C793.58 99.7867 793.286 99.4933 792.913 99.28C792.55 99.0667 792.129 98.96 791.649 98.96C791.158 98.96 790.726 99.0667 790.353 99.28C789.99 99.4933 789.702 99.792 789.489 100.176C789.286 100.549 789.185 100.992 789.185 101.504V101.824C789.185 102.336 789.302 102.789 789.537 103.184C789.772 103.579 790.102 103.883 790.529 104.096C790.956 104.309 791.446 104.416 792.001 104.416C792.481 104.416 792.913 104.341 793.297 104.192C793.681 104.043 794.022 103.808 794.321 103.488L795.393 104.72C795.009 105.168 794.524 105.515 793.937 105.76C793.361 105.995 792.7 106.112 791.953 106.112ZM797.01 109.216C796.637 109.216 796.285 109.173 795.954 109.088C795.613 109.013 795.325 108.891 795.09 108.72L795.666 107.232C795.975 107.456 796.365 107.568 796.834 107.568C797.197 107.568 797.479 107.451 797.682 107.216C797.885 106.992 797.986 106.656 797.986 106.208V97.456H799.986V106.16C799.986 107.099 799.725 107.84 799.202 108.384C798.69 108.939 797.959 109.216 797.01 109.216ZM798.978 96.048C798.605 96.048 798.295 95.9307 798.05 95.696C797.815 95.4613 797.698 95.1787 797.698 94.848C797.698 94.5067 797.815 94.224 798.05 94C798.295 93.7653 798.605 93.648 798.978 93.648C799.351 93.648 799.655 93.76 799.89 93.984C800.135 94.1973 800.258 94.4693 800.258 94.8C800.258 95.152 800.141 95.4507 799.906 95.696C799.671 95.9307 799.362 96.048 798.978 96.048ZM807.873 106V104.272L807.761 103.904V100.88C807.761 100.293 807.585 99.84 807.233 99.52C806.881 99.1893 806.348 99.024 805.633 99.024C805.153 99.024 804.678 99.0987 804.209 99.248C803.75 99.3973 803.361 99.6053 803.041 99.872L802.257 98.416C802.716 98.064 803.26 97.8027 803.889 97.632C804.529 97.4507 805.19 97.36 805.873 97.36C807.11 97.36 808.065 97.6587 808.737 98.256C809.42 98.8427 809.761 99.7547 809.761 100.992V106H807.873ZM805.185 106.112C804.545 106.112 803.985 106.005 803.505 105.792C803.025 105.568 802.652 105.264 802.385 104.88C802.129 104.485 802.001 104.043 802.001 103.552C802.001 103.072 802.113 102.64 802.337 102.256C802.572 101.872 802.95 101.568 803.473 101.344C803.996 101.12 804.689 101.008 805.553 101.008H808.033V102.336H805.697C805.014 102.336 804.556 102.448 804.321 102.672C804.086 102.885 803.969 103.152 803.969 103.472C803.969 103.835 804.113 104.123 804.401 104.336C804.689 104.549 805.089 104.656 805.601 104.656C806.092 104.656 806.529 104.544 806.913 104.32C807.308 104.096 807.59 103.765 807.761 103.328L808.097 104.528C807.905 105.029 807.558 105.419 807.057 105.696C806.566 105.973 805.942 106.112 805.185 106.112ZM817.176 97.36C817.858 97.36 818.466 97.4933 819 97.76C819.544 98.0267 819.97 98.4373 820.28 98.992C820.589 99.536 820.744 100.24 820.744 101.104V106H818.744V101.36C818.744 100.603 818.562 100.037 818.2 99.664C817.848 99.2907 817.352 99.104 816.712 99.104C816.242 99.104 815.826 99.2 815.464 99.392C815.101 99.584 814.818 99.872 814.616 100.256C814.424 100.629 814.328 101.104 814.328 101.68V106H812.328V94.128H814.328V99.76L813.896 99.056C814.194 98.512 814.626 98.096 815.192 97.808C815.768 97.5093 816.429 97.36 817.176 97.36ZM826.497 106.112C825.558 106.112 824.833 105.872 824.321 105.392C823.809 104.901 823.553 104.181 823.553 103.232V95.568H825.553V103.184C825.553 103.589 825.654 103.904 825.857 104.128C826.07 104.352 826.363 104.464 826.737 104.464C827.185 104.464 827.558 104.347 827.857 104.112L828.417 105.536C828.182 105.728 827.894 105.872 827.553 105.968C827.211 106.064 826.859 106.112 826.497 106.112ZM822.145 99.12V97.52H827.841V99.12H822.145ZM833.797 106.112C832.847 106.112 832.015 105.925 831.301 105.552C830.597 105.168 830.047 104.645 829.653 103.984C829.269 103.323 829.077 102.571 829.077 101.728C829.077 100.875 829.263 100.123 829.637 99.472C830.021 98.8107 830.543 98.2933 831.205 97.92C831.877 97.5467 832.639 97.36 833.493 97.36C834.325 97.36 835.066 97.5413 835.717 97.904C836.367 98.2667 836.879 98.7787 837.253 99.44C837.626 100.101 837.813 100.88 837.813 101.776C837.813 101.861 837.807 101.957 837.797 102.064C837.797 102.171 837.791 102.272 837.781 102.368H830.661V101.04H836.725L835.941 101.456C835.951 100.965 835.85 100.533 835.637 100.16C835.423 99.7867 835.13 99.4933 834.757 99.28C834.394 99.0667 833.973 98.96 833.493 98.96C833.002 98.96 832.57 99.0667 832.197 99.28C831.834 99.4933 831.546 99.792 831.333 100.176C831.13 100.549 831.029 100.992 831.029 101.504V101.824C831.029 102.336 831.146 102.789 831.381 103.184C831.615 103.579 831.946 103.883 832.373 104.096C832.799 104.309 833.29 104.416 833.845 104.416C834.325 104.416 834.757 104.341 835.141 104.192C835.525 104.043 835.866 103.808 836.165 103.488L837.237 104.72C836.853 105.168 836.367 105.515 835.781 105.76C835.205 105.995 834.543 106.112 833.797 106.112ZM839.734 106V97.456H841.638V99.808L841.414 99.12C841.67 98.544 842.07 98.1067 842.614 97.808C843.169 97.5093 843.857 97.36 844.678 97.36V99.264C844.593 99.2427 844.513 99.232 844.438 99.232C844.363 99.2213 844.289 99.216 844.214 99.216C843.457 99.216 842.854 99.44 842.406 99.888C841.958 100.325 841.734 100.981 841.734 101.856V106H839.734ZM851.029 106V104.272L850.917 103.904V100.88C850.917 100.293 850.741 99.84 850.389 99.52C850.037 99.1893 849.504 99.024 848.789 99.024C848.309 99.024 847.834 99.0987 847.365 99.248C846.906 99.3973 846.517 99.6053 846.197 99.872L845.413 98.416C845.872 98.064 846.416 97.8027 847.045 97.632C847.685 97.4507 848.346 97.36 849.029 97.36C850.266 97.36 851.221 97.6587 851.893 98.256C852.576 98.8427 852.917 99.7547 852.917 100.992V106H851.029ZM848.341 106.112C847.701 106.112 847.141 106.005 846.661 105.792C846.181 105.568 845.808 105.264 845.541 104.88C845.285 104.485 845.157 104.043 845.157 103.552C845.157 103.072 845.269 102.64 845.493 102.256C845.728 101.872 846.106 101.568 846.629 101.344C847.152 101.12 847.845 101.008 848.709 101.008H851.189V102.336H848.853C848.17 102.336 847.712 102.448 847.477 102.672C847.242 102.885 847.125 103.152 847.125 103.472C847.125 103.835 847.269 104.123 847.557 104.336C847.845 104.549 848.245 104.656 848.757 104.656C849.248 104.656 849.685 104.544 850.069 104.32C850.464 104.096 850.746 103.765 850.917 103.328L851.253 104.528C851.061 105.029 850.714 105.419 850.213 105.696C849.722 105.973 849.098 106.112 848.341 106.112ZM860.748 106V104.272L860.636 103.904V100.88C860.636 100.293 860.46 99.84 860.108 99.52C859.756 99.1893 859.223 99.024 858.508 99.024C858.028 99.024 857.553 99.0987 857.084 99.248C856.625 99.3973 856.236 99.6053 855.916 99.872L855.132 98.416C855.591 98.064 856.135 97.8027 856.764 97.632C857.404 97.4507 858.065 97.36 858.748 97.36C859.985 97.36 860.94 97.6587 861.612 98.256C862.295 98.8427 862.636 99.7547 862.636 100.992V106H860.748ZM858.06 106.112C857.42 106.112 856.86 106.005 856.38 105.792C855.9 105.568 855.527 105.264 855.26 104.88C855.004 104.485 854.876 104.043 854.876 103.552C854.876 103.072 854.988 102.64 855.212 102.256C855.447 101.872 855.825 101.568 856.348 101.344C856.871 101.12 857.564 101.008 858.428 101.008H860.908V102.336H858.572C857.889 102.336 857.431 102.448 857.196 102.672C856.961 102.885 856.844 103.152 856.844 103.472C856.844 103.835 856.988 104.123 857.276 104.336C857.564 104.549 857.964 104.656 858.476 104.656C858.967 104.656 859.404 104.544 859.788 104.32C860.183 104.096 860.465 103.765 860.636 103.328L860.972 104.528C860.78 105.029 860.433 105.419 859.932 105.696C859.441 105.973 858.817 106.112 858.06 106.112ZM870.051 97.36C870.733 97.36 871.341 97.4933 871.875 97.76C872.419 98.0267 872.845 98.4373 873.155 98.992C873.464 99.536 873.619 100.24 873.619 101.104V106H871.619V101.36C871.619 100.603 871.437 100.037 871.075 99.664C870.723 99.2907 870.227 99.104 869.587 99.104C869.117 99.104 868.701 99.2 868.339 99.392C867.976 99.584 867.693 99.872 867.491 100.256C867.299 100.629 867.203 101.104 867.203 101.68V106H865.203V97.456H867.107V99.76L866.771 99.056C867.069 98.512 867.501 98.096 868.067 97.808C868.643 97.5093 869.304 97.36 870.051 97.36ZM797.342 126.112C796.521 126.112 795.779 125.931 795.118 125.568C794.467 125.195 793.955 124.683 793.582 124.032C793.209 123.381 793.022 122.613 793.022 121.728C793.022 120.843 793.209 120.075 793.582 119.424C793.955 118.773 794.467 118.267 795.118 117.904C795.779 117.541 796.521 117.36 797.342 117.36C798.057 117.36 798.697 117.52 799.262 117.84C799.827 118.149 800.275 118.624 800.606 119.264C800.937 119.904 801.102 120.725 801.102 121.728C801.102 122.72 800.942 123.541 800.622 124.192C800.302 124.832 799.859 125.312 799.294 125.632C798.729 125.952 798.078 126.112 797.342 126.112ZM797.582 124.4C798.062 124.4 798.489 124.293 798.862 124.08C799.246 123.867 799.55 123.557 799.774 123.152C800.009 122.747 800.126 122.272 800.126 121.728C800.126 121.173 800.009 120.699 799.774 120.304C799.55 119.899 799.246 119.589 798.862 119.376C798.489 119.163 798.062 119.056 797.582 119.056C797.102 119.056 796.67 119.163 796.286 119.376C795.913 119.589 795.609 119.899 795.374 120.304C795.15 120.699 795.038 121.173 795.038 121.728C795.038 122.272 795.15 122.747 795.374 123.152C795.609 123.557 795.913 123.867 796.286 124.08C796.67 124.293 797.102 124.4 797.582 124.4ZM800.174 126V123.984L800.254 121.712L800.094 119.44V114.128H802.078V126H800.174ZM808.326 126.112C807.601 126.112 806.961 125.979 806.406 125.712C805.852 125.435 805.42 125.019 805.11 124.464C804.801 123.899 804.646 123.189 804.646 122.336V117.456H806.646V122.064C806.646 122.832 806.817 123.408 807.158 123.792C807.51 124.165 808.006 124.352 808.646 124.352C809.116 124.352 809.521 124.256 809.862 124.064C810.214 123.872 810.486 123.584 810.678 123.2C810.881 122.816 810.982 122.341 810.982 121.776V117.456H812.982V126H811.078V123.696L811.414 124.4C811.126 124.955 810.705 125.381 810.15 125.68C809.596 125.968 808.988 126.112 808.326 126.112ZM820.449 117.36C821.132 117.36 821.74 117.493 822.273 117.76C822.817 118.027 823.244 118.437 823.553 118.992C823.862 119.536 824.017 120.24 824.017 121.104V126H822.017V121.36C822.017 120.603 821.836 120.037 821.473 119.664C821.121 119.291 820.625 119.104 819.985 119.104C819.516 119.104 819.1 119.2 818.737 119.392C818.374 119.584 818.092 119.872 817.889 120.256C817.697 120.629 817.601 121.104 817.601 121.68V126H815.601V117.456H817.505V119.76L817.169 119.056C817.468 118.512 817.9 118.096 818.465 117.808C819.041 117.509 819.702 117.36 820.449 117.36ZM826.554 126V117.456H828.554V126H826.554ZM827.562 116.048C827.189 116.048 826.88 115.931 826.634 115.696C826.4 115.461 826.282 115.179 826.282 114.848C826.282 114.507 826.4 114.224 826.634 114C826.88 113.765 827.189 113.648 827.562 113.648C827.936 113.648 828.24 113.76 828.474 113.984C828.72 114.197 828.842 114.469 828.842 114.8C828.842 115.152 828.725 115.451 828.49 115.696C828.256 115.931 827.946 116.048 827.562 116.048ZM836.443 126V124.272L836.331 123.904V120.88C836.331 120.293 836.155 119.84 835.803 119.52C835.451 119.189 834.918 119.024 834.203 119.024C833.723 119.024 833.249 119.099 832.779 119.248C832.321 119.397 831.931 119.605 831.611 119.872L830.827 118.416C831.286 118.064 831.83 117.803 832.459 117.632C833.099 117.451 833.761 117.36 834.443 117.36C835.681 117.36 836.635 117.659 837.307 118.256C837.99 118.843 838.331 119.755 838.331 120.992V126H836.443ZM833.755 126.112C833.115 126.112 832.555 126.005 832.075 125.792C831.595 125.568 831.222 125.264 830.955 124.88C830.699 124.485 830.571 124.043 830.571 123.552C830.571 123.072 830.683 122.64 830.907 122.256C831.142 121.872 831.521 121.568 832.043 121.344C832.566 121.12 833.259 121.008 834.123 121.008H836.603V122.336H834.267C833.585 122.336 833.126 122.448 832.891 122.672C832.657 122.885 832.539 123.152 832.539 123.472C832.539 123.835 832.683 124.123 832.971 124.336C833.259 124.549 833.659 124.656 834.171 124.656C834.662 124.656 835.099 124.544 835.483 124.32C835.878 124.096 836.161 123.765 836.331 123.328L836.667 124.528C836.475 125.029 836.129 125.419 835.627 125.696C835.137 125.973 834.513 126.112 833.755 126.112Z" fill="white"/>
<path d="M716.299 77.504C714.451 77.504 712.771 77.192 711.259 76.568C709.771 75.92 708.535 74.996 707.551 73.796L711.439 69.188C712.111 70.052 712.807 70.712 713.527 71.168C714.247 71.6 715.003 71.816 715.795 71.816C717.907 71.816 718.963 70.592 718.963 68.144V57.308H710.251V51.8H726.019V67.712C726.019 71 725.191 73.46 723.535 75.092C721.879 76.7 719.467 77.504 716.299 77.504ZM742.423 77V73.364L741.955 72.464V65.768C741.955 64.688 741.619 63.86 740.947 63.284C740.299 62.684 739.255 62.384 737.815 62.384C736.879 62.384 735.931 62.54 734.971 62.852C734.011 63.14 733.195 63.548 732.523 64.076L730.219 59.432C731.323 58.712 732.643 58.16 734.179 57.776C735.739 57.368 737.287 57.164 738.823 57.164C741.991 57.164 744.439 57.896 746.167 59.36C747.919 60.8 748.795 63.068 748.795 66.164V77H742.423ZM736.663 77.324C735.103 77.324 733.783 77.06 732.703 76.532C731.623 76.004 730.795 75.284 730.219 74.372C729.667 73.46 729.391 72.44 729.391 71.312C729.391 70.112 729.691 69.08 730.291 68.216C730.915 67.328 731.863 66.656 733.135 66.2C734.407 65.72 736.051 65.48 738.067 65.48H742.675V69.044H739.003C737.899 69.044 737.119 69.224 736.663 69.584C736.231 69.944 736.015 70.424 736.015 71.024C736.015 71.624 736.243 72.104 736.699 72.464C737.155 72.824 737.779 73.004 738.571 73.004C739.315 73.004 739.987 72.824 740.587 72.464C741.211 72.08 741.667 71.504 741.955 70.736L742.891 73.256C742.531 74.6 741.823 75.62 740.767 76.316C739.735 76.988 738.367 77.324 736.663 77.324ZM762.898 84.308C761.026 84.308 759.238 84.092 757.534 83.66C755.854 83.228 754.414 82.592 753.214 81.752L755.698 76.964C756.514 77.612 757.522 78.116 758.722 78.476C759.946 78.86 761.134 79.052 762.286 79.052C764.134 79.052 765.466 78.644 766.282 77.828C767.098 77.036 767.506 75.872 767.506 74.336V72.032L767.866 66.56L767.83 61.052V57.488H774.346V73.436C774.346 77.132 773.35 79.868 771.358 81.644C769.366 83.42 766.546 84.308 762.898 84.308ZM761.71 75.992C759.982 75.992 758.386 75.608 756.922 74.84C755.482 74.048 754.318 72.956 753.43 71.564C752.566 70.148 752.134 68.48 752.134 66.56C752.134 64.64 752.566 62.984 753.43 61.592C754.318 60.176 755.482 59.084 756.922 58.316C758.386 57.548 759.982 57.164 761.71 57.164C763.366 57.164 764.782 57.5 765.958 58.172C767.134 58.82 768.022 59.84 768.622 61.232C769.246 62.624 769.558 64.4 769.558 66.56C769.558 68.72 769.246 70.496 768.622 71.888C768.022 73.28 767.134 74.312 765.958 74.984C764.782 75.656 763.366 75.992 761.71 75.992ZM763.33 70.556C764.146 70.556 764.866 70.388 765.49 70.052C766.138 69.716 766.642 69.248 767.002 68.648C767.386 68.048 767.578 67.352 767.578 66.56C767.578 65.768 767.386 65.072 767.002 64.472C766.642 63.872 766.138 63.416 765.49 63.104C764.866 62.768 764.146 62.6 763.33 62.6C762.514 62.6 761.782 62.768 761.134 63.104C760.486 63.416 759.97 63.872 759.586 64.472C759.226 65.072 759.046 65.768 759.046 66.56C759.046 67.352 759.226 68.048 759.586 68.648C759.97 69.248 760.486 69.716 761.134 70.052C761.782 70.388 762.514 70.556 763.33 70.556ZM790.657 77V73.364L790.189 72.464V65.768C790.189 64.688 789.853 63.86 789.181 63.284C788.533 62.684 787.489 62.384 786.049 62.384C785.113 62.384 784.165 62.54 783.205 62.852C782.245 63.14 781.429 63.548 780.757 64.076L778.453 59.432C779.557 58.712 780.877 58.16 782.413 57.776C783.973 57.368 785.521 57.164 787.057 57.164C790.225 57.164 792.673 57.896 794.401 59.36C796.153 60.8 797.029 63.068 797.029 66.164V77H790.657ZM784.897 77.324C783.337 77.324 782.017 77.06 780.937 76.532C779.857 76.004 779.029 75.284 778.453 74.372C777.901 73.46 777.625 72.44 777.625 71.312C777.625 70.112 777.925 69.08 778.525 68.216C779.149 67.328 780.097 66.656 781.369 66.2C782.641 65.72 784.285 65.48 786.301 65.48H790.909V69.044H787.237C786.133 69.044 785.353 69.224 784.897 69.584C784.465 69.944 784.249 70.424 784.249 71.024C784.249 71.624 784.477 72.104 784.933 72.464C785.389 72.824 786.013 73.004 786.805 73.004C787.549 73.004 788.221 72.824 788.821 72.464C789.445 72.08 789.901 71.504 790.189 70.736L791.125 73.256C790.765 74.6 790.057 75.62 789.001 76.316C787.969 76.988 786.601 77.324 784.897 77.324ZM810.088 77.324C808.312 77.324 806.692 76.916 805.228 76.1C803.788 75.26 802.636 74.096 801.772 72.608C800.908 71.096 800.476 69.296 800.476 67.208C800.476 65.144 800.908 63.368 801.772 61.88C802.636 60.368 803.788 59.204 805.228 58.388C806.692 57.572 808.312 57.164 810.088 57.164C811.768 57.164 813.184 57.524 814.336 58.244C815.512 58.964 816.4 60.068 817 61.556C817.6 63.044 817.9 64.928 817.9 67.208C817.9 69.536 817.612 71.444 817.036 72.932C816.46 74.42 815.596 75.524 814.444 76.244C813.292 76.964 811.84 77.324 810.088 77.324ZM811.528 71.888C812.296 71.888 812.98 71.708 813.58 71.348C814.204 70.988 814.696 70.46 815.056 69.764C815.416 69.044 815.596 68.192 815.596 67.208C815.596 66.224 815.416 65.396 815.056 64.724C814.696 64.028 814.204 63.5 813.58 63.14C812.98 62.78 812.296 62.6 811.528 62.6C810.736 62.6 810.028 62.78 809.404 63.14C808.804 63.5 808.324 64.028 807.964 64.724C807.604 65.396 807.424 66.224 807.424 67.208C807.424 68.192 807.604 69.044 807.964 69.764C808.324 70.46 808.804 70.988 809.404 71.348C810.028 71.708 810.736 71.888 811.528 71.888ZM815.812 77V73.652L815.848 67.208L815.488 60.764V50.288H822.328V77H815.812ZM835.225 77.324C833.449 77.324 831.829 76.916 830.365 76.1C828.925 75.26 827.773 74.096 826.909 72.608C826.045 71.096 825.613 69.296 825.613 67.208C825.613 65.144 826.045 63.368 826.909 61.88C827.773 60.368 828.925 59.204 830.365 58.388C831.829 57.572 833.449 57.164 835.225 57.164C836.905 57.164 838.321 57.524 839.473 58.244C840.649 58.964 841.537 60.068 842.137 61.556C842.737 63.044 843.037 64.928 843.037 67.208C843.037 69.536 842.749 71.444 842.173 72.932C841.597 74.42 840.733 75.524 839.581 76.244C838.429 76.964 836.977 77.324 835.225 77.324ZM836.665 71.888C837.433 71.888 838.117 71.708 838.717 71.348C839.341 70.988 839.833 70.46 840.193 69.764C840.553 69.044 840.733 68.192 840.733 67.208C840.733 66.224 840.553 65.396 840.193 64.724C839.833 64.028 839.341 63.5 838.717 63.14C838.117 62.78 837.433 62.6 836.665 62.6C835.873 62.6 835.165 62.78 834.541 63.14C833.941 63.5 833.461 64.028 833.101 64.724C832.741 65.396 832.561 66.224 832.561 67.208C832.561 68.192 832.741 69.044 833.101 69.764C833.461 70.46 833.941 70.988 834.541 71.348C835.165 71.708 835.873 71.888 836.665 71.888ZM840.949 77V73.652L840.985 67.208L840.625 60.764V50.288H847.465V77H840.949ZM864.574 57.164C866.086 57.164 867.454 57.476 868.678 58.1C869.902 58.7 870.862 59.636 871.558 60.908C872.278 62.18 872.638 63.824 872.638 65.84V77H865.798V66.956C865.798 65.564 865.51 64.556 864.934 63.932C864.382 63.284 863.602 62.96 862.594 62.96C861.874 62.96 861.214 63.128 860.614 63.464C860.014 63.776 859.546 64.268 859.21 64.94C858.874 65.612 858.706 66.488 858.706 67.568V77H851.866V50.288H858.706V63.032L857.122 61.412C857.866 59.996 858.886 58.94 860.182 58.244C861.478 57.524 862.942 57.164 864.574 57.164ZM876.932 77V57.488H883.772V77H876.932ZM880.352 55.328C879.104 55.328 878.096 54.98 877.328 54.284C876.56 53.588 876.176 52.724 876.176 51.692C876.176 50.66 876.56 49.796 877.328 49.1C878.096 48.404 879.104 48.056 880.352 48.056C881.6 48.056 882.608 48.392 883.376 49.064C884.144 49.712 884.528 50.552 884.528 51.584C884.528 52.664 884.144 53.564 883.376 54.284C882.632 54.98 881.624 55.328 880.352 55.328ZM896.929 77.324C894.433 77.324 892.489 76.712 891.097 75.488C889.705 74.24 889.009 72.368 889.009 69.872V53.132H895.849V69.8C895.849 70.496 896.041 71.048 896.425 71.456C896.809 71.84 897.301 72.032 897.901 72.032C898.717 72.032 899.413 71.828 899.989 71.42L901.681 76.208C901.105 76.592 900.397 76.868 899.557 77.036C898.717 77.228 897.841 77.324 896.929 77.324ZM886.165 63.32V58.208H900.313V63.32H886.165ZM916.235 77V73.364L915.767 72.464V65.768C915.767 64.688 915.431 63.86 914.759 63.284C914.111 62.684 913.067 62.384 911.627 62.384C910.691 62.384 909.743 62.54 908.783 62.852C907.823 63.14 907.007 63.548 906.335 64.076L904.031 59.432C905.135 58.712 906.455 58.16 907.991 57.776C909.551 57.368 911.099 57.164 912.635 57.164C915.803 57.164 918.251 57.896 919.979 59.36C921.731 60.8 922.607 63.068 922.607 66.164V77H916.235ZM910.475 77.324C908.915 77.324 907.595 77.06 906.515 76.532C905.435 76.004 904.607 75.284 904.031 74.372C903.479 73.46 903.203 72.44 903.203 71.312C903.203 70.112 903.503 69.08 904.103 68.216C904.727 67.328 905.675 66.656 906.947 66.2C908.219 65.72 909.863 65.48 911.879 65.48H916.487V69.044H912.815C911.711 69.044 910.931 69.224 910.475 69.584C910.043 69.944 909.827 70.424 909.827 71.024C909.827 71.624 910.055 72.104 910.511 72.464C910.967 72.824 911.591 73.004 912.383 73.004C913.127 73.004 913.799 72.824 914.399 72.464C915.023 72.08 915.479 71.504 915.767 70.736L916.703 73.256C916.343 74.6 915.635 75.62 914.579 76.316C913.547 76.988 912.179 77.324 910.475 77.324Z" fill="white"/>
<path d="M708.271 81.5H924.731V83.3H708.271V81.5Z" fill="white"/>
</svg>
