<svg width="224" height="79" viewBox="0 0 224 79" fill="none" xmlns="http://www.w3.org/2000/svg">
<g filter="url(#filter0_d_607_25)">
<path d="M4.15213 31V8.6H14.9361C17.0268 8.6 18.8295 8.94133 20.3441 9.624C21.8801 10.3067 23.0641 11.288 23.8961 12.568C24.7281 13.8267 25.1441 15.32 25.1441 17.048C25.1441 18.776 24.7281 20.2693 23.8961 21.528C23.0641 22.7653 21.8801 23.7147 20.3441 24.376C18.8295 25.0373 17.0268 25.368 14.9361 25.368H8.34413L11.7041 22.264V31H4.15213ZM17.5601 31L12.0561 22.84H20.0561L25.6241 31H17.5601ZM11.7041 23.096L8.34413 19.672H14.4561C15.5015 19.672 16.2695 19.4373 16.7601 18.968C17.2721 18.4987 17.5281 17.8587 17.5281 17.048C17.5281 16.2373 17.2721 15.5973 16.7601 15.128C16.2695 14.6587 15.5015 14.424 14.4561 14.424H8.34413L11.7041 11V23.096Z" fill="#E62C20"/>
<path d="M25.5639 31L35.3559 8.6H42.7799L52.5719 31H44.7639L37.5319 12.184H40.4759L33.2439 31H25.5639ZM31.3879 27.096L33.3079 21.656H43.6119L45.5319 27.096H31.3879ZM53.7771 31V8.6H59.9851L71.3771 22.232H68.4971V8.6H75.8571V31H69.6491L58.2571 17.368H61.1371V31H53.7771ZM91.1119 31.512C89.2985 31.512 87.6239 31.2347 86.0879 30.68C84.5732 30.104 83.2505 29.2933 82.1199 28.248C81.0105 27.2027 80.1465 25.9653 79.5279 24.536C78.9092 23.1067 78.5999 21.528 78.5999 19.8C78.5999 18.072 78.9092 16.4933 79.5279 15.064C80.1465 13.6347 81.0212 12.3973 82.1519 11.352C83.2825 10.3067 84.6159 9.50667 86.1519 8.952C87.7092 8.376 89.4159 8.088 91.2719 8.088C93.4905 8.088 95.4639 8.46133 97.1919 9.208C98.9412 9.95467 100.381 11.0213 101.512 12.408L96.6799 16.664C95.9759 15.8533 95.2079 15.2453 94.3759 14.84C93.5652 14.4133 92.6585 14.2 91.6559 14.2C90.8239 14.2 90.0665 14.328 89.3839 14.584C88.7225 14.84 88.1572 15.2133 87.6879 15.704C87.2185 16.1947 86.8559 16.7813 86.5999 17.464C86.3439 18.1467 86.2159 18.9253 86.2159 19.8C86.2159 20.632 86.3439 21.4 86.5999 22.104C86.8559 22.7867 87.2185 23.3733 87.6879 23.864C88.1572 24.3547 88.7119 24.7387 89.3519 25.016C90.0132 25.272 90.7492 25.4 91.5599 25.4C92.4132 25.4 93.2452 25.2613 94.0559 24.984C94.8665 24.6853 95.7305 24.184 96.6479 23.48L100.872 28.664C99.5065 29.5813 97.9492 30.2853 96.1999 30.776C94.4505 31.2667 92.7545 31.512 91.1119 31.512ZM94.3119 27.704V19.192H100.872V28.664L94.3119 27.704ZM110.842 26.2L110.426 17.912L118.874 8.6H127.098L117.626 19.032L113.434 23.32L110.842 26.2ZM104.09 31V8.6H111.514V31H104.09ZM118.81 31L112.218 22.296L117.114 17.112L127.546 31H118.81ZM125.001 31L134.793 8.6H142.217L152.009 31H144.201L136.969 12.184H139.913L132.681 31H125.001ZM130.825 27.096L132.745 21.656H143.049L144.969 27.096H130.825ZM153.215 31V8.6H160.767V31H153.215ZM161.97 31L171.762 8.6H179.186L188.978 31H181.17L173.938 12.184H176.882L169.65 31H161.97ZM167.794 27.096L169.714 21.656H180.018L181.938 27.096H167.794ZM190.183 31V8.6H196.391L207.783 22.232H204.903V8.6H212.263V31H206.055L194.663 17.368H197.543V31H190.183ZM50.2045 70L59.9965 47.6H67.4205L77.2125 70H69.4045L62.1725 51.184H65.1165L57.8845 70H50.2045ZM56.0285 66.096L57.9485 60.656H68.2525L70.1725 66.096H56.0285ZM89.6893 70.512C87.8973 70.512 86.2333 70.2347 84.6973 69.68C83.1826 69.104 81.8599 68.2933 80.7293 67.248C79.6199 66.2027 78.7559 64.9653 78.1373 63.536C77.5186 62.1067 77.2093 60.528 77.2093 58.8C77.2093 57.072 77.5186 55.4933 78.1373 54.064C78.7559 52.6347 79.6199 51.3973 80.7293 50.352C81.8599 49.3067 83.1826 48.5067 84.6973 47.952C86.2333 47.376 87.8973 47.088 89.6893 47.088C91.8866 47.088 93.8279 47.472 95.5133 48.24C97.2199 49.008 98.6279 50.1173 99.7373 51.568L94.9693 55.824C94.3079 54.992 93.5719 54.352 92.7613 53.904C91.9719 53.4347 91.0759 53.2 90.0733 53.2C89.2839 53.2 88.5693 53.328 87.9293 53.584C87.2893 53.84 86.7346 54.2133 86.2653 54.704C85.8173 55.1947 85.4653 55.792 85.2093 56.496C84.9533 57.1787 84.8253 57.9467 84.8253 58.8C84.8253 59.6533 84.9533 60.432 85.2093 61.136C85.4653 61.8187 85.8173 62.4053 86.2653 62.896C86.7346 63.3867 87.2893 63.76 87.9293 64.016C88.5693 64.272 89.2839 64.4 90.0733 64.4C91.0759 64.4 91.9719 64.176 92.7613 63.728C93.5719 63.2587 94.3079 62.608 94.9693 61.776L99.7373 66.032C98.6279 67.4613 97.2199 68.5707 95.5133 69.36C93.8279 70.128 91.8866 70.512 89.6893 70.512ZM99.1732 70L108.965 47.6H116.389L126.181 70H118.373L111.141 51.184H114.085L106.853 70H99.1732ZM104.997 66.096L106.917 60.656H117.221L119.141 66.096H104.997ZM127.387 70V47.6H138.171C140.261 47.6 142.064 47.9413 143.579 48.624C145.115 49.3067 146.299 50.288 147.131 51.568C147.963 52.8267 148.379 54.32 148.379 56.048C148.379 57.776 147.963 59.2693 147.131 60.528C146.299 61.7653 145.115 62.7147 143.579 63.376C142.064 64.0373 140.261 64.368 138.171 64.368H131.579L134.939 61.264V70H127.387ZM140.795 70L135.291 61.84H143.291L148.859 70H140.795ZM134.939 62.096L131.579 58.672H137.691C138.736 58.672 139.504 58.4373 139.995 57.968C140.507 57.4987 140.763 56.8587 140.763 56.048C140.763 55.2373 140.507 54.5973 139.995 54.128C139.504 53.6587 138.736 53.424 137.691 53.424H131.579L134.939 50V62.096ZM148.798 70L158.59 47.6H166.014L175.806 70H167.998L160.766 51.184H163.71L156.478 70H148.798ZM154.622 66.096L156.542 60.656H166.846L168.766 66.096H154.622Z" fill="white"/>
<ellipse cx="15" cy="16.5" rx="7" ry="6.5" fill="#E62C20"/>
<path d="M179.267 9H171.711L162 31H189L179.267 9Z" fill="#F69722" stroke="#F69722"/>
<path d="M116.267 48H108.711L99 70H126L116.267 48Z" fill="#9C4A9A" stroke="#9C4A9A"/>
<path d="M166.267 48H158.711L149 70H176L166.267 48Z" fill="#4A8068" stroke="#4A8068"/>
</g>
<defs>
<filter id="filter0_d_607_25" x="0.1521" y="8.088" width="216.111" height="70.424" filterUnits="userSpaceOnUse" color-interpolation-filters="sRGB">
<feFlood flood-opacity="0" result="BackgroundImageFix"/>
<feColorMatrix in="SourceAlpha" type="matrix" values="0 0 0 0 0 0 0 0 0 0 0 0 0 0 0 0 0 0 127 0" result="hardAlpha"/>
<feOffset dy="4"/>
<feGaussianBlur stdDeviation="2"/>
<feComposite in2="hardAlpha" operator="out"/>
<feColorMatrix type="matrix" values="0 0 0 0 0 0 0 0 0 0 0 0 0 0 0 0 0 0 0.25 0"/>
<feBlend mode="normal" in2="BackgroundImageFix" result="effect1_dropShadow_607_25"/>
<feBlend mode="normal" in="SourceGraphic" in2="effect1_dropShadow_607_25" result="shape"/>
</filter>
</defs>
</svg>
