<svg width="503" height="163" viewBox="0 0 503 163" fill="none" xmlns="http://www.w3.org/2000/svg">
<path d="M18.5323 19.1547H37.2207V29.9784H18.5323V19.1547ZM19.5032 43.5994H5.18347V1.03396H39.7085V11.8577H19.5032V43.5994Z" fill="#EEEEEE"/>
<path d="M57.3384 16.844H76.2695V27.1813H57.3384V16.844ZM58.3092 32.7756H79.546V43.5994H44.2322V1.03396H78.7572V11.8577H58.3092V32.7756Z" fill="#EEEEEE"/>
<path d="M100.895 44.5723C97.3355 44.5723 93.8972 44.1669 90.5802 43.3562C87.2632 42.5454 84.5327 41.4914 82.3888 40.1941L87.0003 29.7352C89.0228 30.9108 91.2679 31.8635 93.7354 32.5932C96.2433 33.2823 98.6704 33.6269 101.017 33.6269C102.392 33.6269 103.464 33.5458 104.232 33.3837C105.041 33.181 105.628 32.9175 105.992 32.5932C106.356 32.2283 106.538 31.8027 106.538 31.3162C106.538 30.546 106.113 29.9379 105.264 29.492C104.414 29.0461 103.282 28.6812 101.866 28.3974C100.491 28.0731 98.9738 27.7488 97.3153 27.4245C95.6568 27.0597 93.9781 26.5935 92.2791 26.0259C90.6206 25.4584 89.0835 24.7084 87.6677 23.7761C86.2924 22.8437 85.18 21.6275 84.3305 20.1276C83.481 18.5871 83.0563 16.6818 83.0563 14.4117C83.0563 11.7767 83.7844 9.38489 85.2406 7.23635C86.7373 5.04727 88.9419 3.30412 91.8544 2.00688C94.8073 0.709651 98.4681 0.0610352 102.837 0.0610352C105.709 0.0610352 108.54 0.365073 111.332 0.97315C114.123 1.58123 116.631 2.51361 118.856 3.77031L114.547 14.1684C112.444 13.1144 110.401 12.3239 108.419 11.7969C106.477 11.2699 104.576 11.0064 102.716 11.0064C101.34 11.0064 100.248 11.128 99.439 11.3713C98.63 11.6145 98.0434 11.9388 97.6794 12.3442C97.3557 12.7496 97.1939 13.1955 97.1939 13.682C97.1939 14.4117 97.6187 14.9995 98.4681 15.4454C99.3176 15.8508 100.43 16.1954 101.805 16.4791C103.221 16.7629 104.758 17.0669 106.417 17.3912C108.116 17.7156 109.794 18.1615 111.453 18.729C113.111 19.2966 114.628 20.0465 116.004 20.9789C117.42 21.9113 118.552 23.1274 119.402 24.6274C120.251 26.1273 120.676 27.9921 120.676 30.2217C120.676 32.8161 119.927 35.2079 118.431 37.397C116.975 39.5455 114.79 41.2887 111.878 42.6265C108.965 43.9237 105.304 44.5723 100.895 44.5723Z" fill="#EEEEEE"/>
<path d="M133.567 43.5994V12.1618H121.129V1.03396H160.326V12.1618H147.887V43.5994H133.567Z" fill="#EEEEEE"/>
<path d="M164.045 43.5994V1.03396H178.365V43.5994H164.045Z" fill="#EEEEEE"/>
<path d="M198.607 43.5994L180.647 1.03396H196.059L210.682 36.9713H201.519L216.567 1.03396H230.644L212.684 43.5994H198.607Z" fill="#EEEEEE"/>
<path d="M225.917 43.5994L244.484 1.03396H258.561L277.128 43.5994H262.323L248.61 7.84443H254.192L240.479 43.5994H225.917ZM236.96 36.1808L240.601 25.8435H260.139L263.779 36.1808H236.96Z" fill="#EEEEEE"/>
<path d="M279.414 43.5994V1.03396H293.733V32.4716H312.907V43.5994H279.414Z" fill="#EEEEEE"/>
<path d="M277.508 43.5207H225.637L244.453 1.1123H258.947L277.508 43.5207Z" fill="#E62C20"/>
<path d="M180.074 1.11263H231.946L213.13 43.521H198.636L180.074 1.11263Z" fill="#4A8068"/>
<path d="M27.1684 104.154C23.7282 104.154 20.551 103.627 17.637 102.573C14.7634 101.479 12.254 99.9383 10.109 97.952C8.00437 95.9656 6.36521 93.6143 5.19149 90.8983C4.01777 88.1822 3.43091 85.1823 3.43091 81.8987C3.43091 78.6151 4.01777 75.6152 5.19149 72.8992C6.36521 70.1831 8.0246 67.8318 10.1697 65.8455C12.3147 63.8591 14.8443 62.3389 17.7584 61.2849C20.7129 60.1903 23.9508 59.6431 27.4719 59.6431C31.6811 59.6431 35.4249 60.3525 38.7032 61.7713C42.022 63.1902 44.7539 65.2171 46.899 67.8521L37.7318 75.9395C36.3962 74.3991 34.9392 73.2437 33.3607 72.4735C31.8228 71.6627 30.1027 71.2573 28.2004 71.2573C26.622 71.2573 25.1852 71.5006 23.89 71.987C22.6354 72.4735 21.5628 73.1829 20.6724 74.1153C19.782 75.0477 19.094 76.1625 18.6083 77.4597C18.1226 78.757 17.8798 80.2366 17.8798 81.8987C17.8798 83.4797 18.1226 84.9391 18.6083 86.2769C19.094 87.5741 19.782 88.6889 20.6724 89.6213C21.5628 90.5537 22.6151 91.2834 23.8293 91.8104C25.084 92.2968 26.4803 92.5401 28.0183 92.5401C29.6372 92.5401 31.2157 92.2766 32.7536 91.7496C34.2916 91.182 35.9308 90.2294 37.6711 88.8916L45.6848 98.7424C43.0945 100.486 40.14 101.823 36.8212 102.756C33.5024 103.688 30.2848 104.154 27.1684 104.154ZM33.2393 96.9182V80.7434H45.6848V98.7424L33.2393 96.9182Z" fill="#EEEEEE"/>
<path d="M47.1755 103.181L65.7526 60.616H79.8373L98.4144 103.181H83.6013L69.8809 67.4265H75.4662L61.7458 103.181H47.1755ZM58.2246 95.7629L61.8672 85.4256H81.4157L85.0583 95.7629H58.2246Z" fill="#EEEEEE"/>
<path d="M100.701 103.181V60.616H121.646C126.381 60.616 130.55 61.4876 134.152 63.2307C137.754 64.9333 140.567 67.3657 142.591 70.5277C144.614 73.6897 145.626 77.4597 145.626 81.8379C145.626 86.2566 144.614 90.0672 142.591 93.2697C140.567 96.4318 137.754 98.8843 134.152 100.627C130.55 102.33 126.381 103.181 121.646 103.181H100.701ZM115.028 91.9928H121.039C123.062 91.9928 124.823 91.6077 126.32 90.8374C127.858 90.0672 129.052 88.9321 129.902 87.4322C130.752 85.8917 131.177 84.027 131.177 81.8379C131.177 79.6894 130.752 77.8651 129.902 76.3652C129.052 74.8653 127.858 73.7302 126.32 72.96C124.823 72.1897 123.062 71.8046 121.039 71.8046H115.028V91.9928Z" fill="#EEEEEE"/>
<path d="M160.714 104.154C157.395 104.154 154.4 103.627 151.729 102.573C149.058 101.479 146.832 99.8978 145.051 97.8303L152.761 88.7092C153.894 90.0875 155.007 91.1415 156.1 91.8712C157.193 92.5603 158.326 92.9049 159.5 92.9049C162.576 92.9049 164.114 91.1415 164.114 87.6146V71.4398H149.665V60.616H178.259V86.7633C178.259 92.6009 176.761 96.9588 173.766 99.837C170.771 102.715 166.421 104.154 160.714 104.154Z" fill="#EEEEEE"/>
<path d="M179.326 103.181L197.903 60.616H211.987L230.564 103.181H215.751L202.031 67.4265H207.616L193.896 103.181H179.326ZM190.375 95.7629L194.017 85.4256H213.566L217.208 95.7629H190.375Z" fill="#EEEEEE"/>
<path d="M260.413 60.616H274.741V103.181H260.413V60.616ZM247.179 103.181H232.851V60.616H247.179V103.181ZM261.385 87.493H246.207V75.6963H261.385V87.493Z" fill="#EEEEEE"/>
<path d="M299.845 103.181V60.616H311.623L328.621 88.4051H322.429L338.942 60.616H350.72L350.841 103.181H337.789L337.667 80.3177H339.731L328.439 99.3505H322.125L310.348 80.3177H312.898V103.181H299.845Z" fill="#EEEEEE"/>
<path d="M353.154 103.181L371.731 60.616H385.816L404.393 103.181H389.58L375.86 67.4265H381.445L367.725 103.181H353.154ZM364.203 95.7629L367.846 85.4256H387.394L391.037 95.7629H364.203Z" fill="#EEEEEE"/>
<path d="M406.68 103.181V60.616H427.625C432.36 60.616 436.529 61.4876 440.131 63.2307C443.733 64.9333 446.546 67.3657 448.569 70.5277C450.593 73.6897 451.605 77.4597 451.605 81.8379C451.605 86.2566 450.593 90.0672 448.569 93.2697C446.546 96.4318 443.733 98.8843 440.131 100.627C436.529 102.33 432.36 103.181 427.625 103.181H406.68ZM421.007 91.9928H427.017C429.041 91.9928 430.802 91.6077 432.299 90.8374C433.837 90.0672 435.031 88.9321 435.881 87.4322C436.731 85.8917 437.156 84.027 437.156 81.8379C437.156 79.6894 436.731 77.8651 435.881 76.3652C435.031 74.8653 433.837 73.7302 432.299 72.96C430.802 72.1897 429.041 71.8046 427.017 71.8046H421.007V91.9928Z" fill="#EEEEEE"/>
<path d="M451.629 103.181L470.207 60.616H484.291L502.868 103.181H488.055L474.335 67.4265H479.92L466.2 103.181H451.629ZM462.679 95.7629L466.321 85.4256H485.87L489.512 95.7629H462.679Z" fill="#EEEEEE"/>
<path d="M230.894 103.103H179.023L197.839 60.6943H212.332L230.894 103.103Z" fill="#E62C20"/>
<path d="M502.869 103.103H451.348L470.037 60.6943H484.432L502.869 103.103Z" fill="#F69722"/>
<path d="M98.7622 103.103H46.8908L65.6151 60.6943H80.291L98.7622 103.103Z" fill="#9C4A9A"/>
<path d="M311.505 60.519H299.939H299.589V103.453H337.399L350.934 103.278V60.519H338.843L325.524 82.9499L311.505 60.519Z" fill="#488267"/>
<path d="M113.439 93.9905L112.431 70.1577H134.095L136.614 92.2157L113.439 93.9905Z" fill="#EEEEEE"/>
<path d="M3.1202 161.719V152.972L18.505 138.855C19.4779 137.93 20.1874 137.125 20.6333 136.442C21.1198 135.758 21.4441 135.155 21.6062 134.632C21.7684 134.069 21.8495 133.546 21.8495 133.063C21.8495 132.017 21.5049 131.213 20.8157 130.65C20.1265 130.047 19.0928 129.745 17.7144 129.745C16.4577 129.745 15.2618 130.087 14.1267 130.771C12.9916 131.414 12.0997 132.379 11.4511 133.666L0.627014 128.297C2.16752 125.401 4.47827 123.049 7.55928 121.239C10.6403 119.429 14.4713 118.524 19.0522 118.524C22.417 118.524 25.3967 119.067 27.9912 120.153C30.5858 121.239 32.6127 122.767 34.0722 124.738C35.5316 126.709 36.2613 129.041 36.2613 131.736C36.2613 133.103 36.0789 134.471 35.714 135.838C35.3897 137.206 34.7005 138.654 33.6465 140.182C32.5925 141.67 31.0317 143.339 28.9642 145.189L17.4104 155.626L15.1604 150.679H37.2342V161.719H3.1202Z" fill="#EEEEEE"/>
<path d="M59.4539 162.685C55.6837 162.685 52.3392 161.82 49.4203 160.091C46.542 158.361 44.2718 155.847 42.6097 152.549C40.9881 149.251 40.1773 145.27 40.1773 140.604C40.1773 135.939 40.9881 131.957 42.6097 128.659C44.2718 125.361 46.542 122.847 49.4203 121.118C52.3392 119.389 55.6837 118.524 59.4539 118.524C63.2241 118.524 66.5483 119.389 69.4266 121.118C72.3455 122.847 74.6157 125.361 76.2373 128.659C77.8994 131.957 78.7305 135.939 78.7305 140.604C78.7305 145.27 77.8994 149.251 76.2373 152.549C74.6157 155.847 72.3455 158.361 69.4266 160.091C66.5483 161.82 63.2241 162.685 59.4539 162.685ZM59.4539 151.283C60.3863 151.283 61.2174 150.961 61.9471 150.317C62.6768 149.674 63.2443 148.568 63.6497 146.999C64.0957 145.431 64.3186 143.299 64.3186 140.604C64.3186 137.869 64.0957 135.738 63.6497 134.209C63.2443 132.641 62.6768 131.535 61.9471 130.891C61.2174 130.248 60.3863 129.926 59.4539 129.926C58.5215 129.926 57.6904 130.248 56.9607 130.891C56.231 131.535 55.6432 132.641 55.1972 134.209C54.7918 135.738 54.5891 137.869 54.5891 140.604C54.5891 143.299 54.7918 145.431 55.1972 146.999C55.6432 148.568 56.231 149.674 56.9607 150.317C57.6904 150.961 58.5215 151.283 59.4539 151.283Z" fill="#EEEEEE"/>
<path d="M81.626 161.719V152.972L97.0108 138.855C97.9837 137.93 98.6932 137.125 99.1391 136.442C99.6256 135.758 99.9499 135.155 100.112 134.632C100.274 134.069 100.355 133.546 100.355 133.063C100.355 132.017 100.011 131.213 99.3215 130.65C98.6324 130.047 97.5986 129.745 96.2203 129.745C94.9635 129.745 93.7676 130.087 92.6325 130.771C91.4974 131.414 90.6055 132.379 89.9569 133.666L79.1328 128.297C80.6733 125.401 82.9841 123.049 86.0651 121.239C89.1461 119.429 92.9771 118.524 97.5581 118.524C100.923 118.524 103.903 119.067 106.497 120.153C109.092 121.239 111.119 122.767 112.578 124.738C114.037 126.709 114.767 129.041 114.767 131.736C114.767 133.103 114.585 134.471 114.22 135.838C113.896 137.206 113.206 138.654 112.152 140.182C111.098 141.67 109.538 143.339 107.47 145.189L95.9162 155.626L93.6663 150.679H115.74V161.719H81.626Z" fill="#EEEEEE"/>
<path d="M118.622 161.719V152.972L134.007 138.855C134.98 137.93 135.689 137.125 136.135 136.442C136.622 135.758 136.946 135.155 137.108 134.632C137.271 134.069 137.352 133.546 137.352 133.063C137.352 132.017 137.007 131.213 136.318 130.65C135.629 130.047 134.595 129.745 133.217 129.745C131.96 129.745 130.764 130.087 129.629 130.771C128.494 131.414 127.602 132.379 126.953 133.666L116.129 128.297C117.67 125.401 119.98 123.049 123.061 121.239C126.142 119.429 129.973 118.524 134.554 118.524C137.919 118.524 140.899 119.067 143.493 120.153C146.088 121.239 148.115 122.767 149.574 124.738C151.034 126.709 151.763 129.041 151.763 131.736C151.763 133.103 151.581 134.471 151.216 135.838C150.892 137.206 150.203 138.654 149.149 140.182C148.095 141.67 146.534 143.339 144.466 145.189L132.913 155.626L130.663 150.679H152.736V161.719H118.622Z" fill="#EEEEEE"/>
<path d="M53.5498 154.624V125.183H70.0225V154.624H53.5498Z" fill="#EEEEEE"/>
</svg>
