<svg width="174" height="57" viewBox="0 0 174 57" fill="none" xmlns="http://www.w3.org/2000/svg">
<path d="M6.18485 6.59485H12.6397V10.3333H6.18485V6.59485ZM6.52017 15.0379H1.57422V0.336042H13.499V4.07452H6.52017V15.0379Z" fill="#171717"/>
<path d="M19.5883 5.79674H26.127V9.3672H19.5883V5.79674ZM19.9236 11.2994H27.2587V15.0379H15.0615V0.336042H26.9862V4.07452H19.9236V11.2994Z" fill="#171717"/>
<path d="M34.6326 15.374C33.4031 15.374 32.2155 15.234 31.0698 14.9539C29.9241 14.6739 28.9811 14.3098 28.2406 13.8618L29.8333 10.2493C30.5319 10.6554 31.3073 10.9844 32.1596 11.2364C33.0258 11.4745 33.8641 11.5935 34.6745 11.5935C35.1495 11.5935 35.5198 11.5655 35.7852 11.5095C36.0647 11.4395 36.2673 11.3485 36.393 11.2364C36.5187 11.1104 36.5816 10.9634 36.5816 10.7954C36.5816 10.5293 36.4349 10.3193 36.1415 10.1653C35.8481 10.0113 35.4569 9.88527 34.9679 9.78725C34.4929 9.67524 33.9689 9.56322 33.3961 9.45121C32.8233 9.32519 32.2434 9.16417 31.6566 8.96815C31.0838 8.77212 30.5529 8.51309 30.0639 8.19105C29.5888 7.86901 29.2046 7.44895 28.9112 6.93089C28.6178 6.39882 28.4711 5.74074 28.4711 4.95663C28.4711 4.04652 28.7226 3.22041 29.2256 2.47832C29.7425 1.72222 30.504 1.12014 31.5099 0.672086C32.5298 0.224029 33.7943 0 35.3032 0C36.2952 0 37.2732 0.105013 38.2373 0.31504C39.2013 0.525067 40.0675 0.847108 40.836 1.28116L39.348 4.87262C38.6215 4.50858 37.9159 4.23554 37.2313 4.05352C36.5607 3.8715 35.904 3.78048 35.2613 3.78048C34.7863 3.78048 34.409 3.82249 34.1296 3.9065C33.8502 3.99051 33.6476 4.10252 33.5218 4.24254C33.4101 4.38256 33.3542 4.53658 33.3542 4.7046C33.3542 4.95663 33.5009 5.15966 33.7943 5.31368C34.0877 5.4537 34.4719 5.57271 34.9469 5.67073C35.4359 5.76874 35.9669 5.87375 36.5397 5.98577C37.1265 6.09778 37.7063 6.2518 38.2792 6.44783C38.852 6.64385 39.3759 6.90288 39.851 7.22493C40.34 7.54697 40.7312 7.96702 41.0246 8.48509C41.318 9.00315 41.4647 9.64723 41.4647 10.4173C41.4647 11.3134 41.2062 12.1396 40.6893 12.8957C40.1863 13.6377 39.4318 14.2398 38.4259 14.7019C37.4199 15.1499 36.1555 15.374 34.6326 15.374Z" fill="#171717"/>
<path d="M45.9173 15.0379V4.17954H41.6211V0.336042H55.1595V4.17954H50.8633V15.0379H45.9173Z" fill="#171717"/>
<path d="M56.4442 15.0379V0.336042H61.3901V15.0379H56.4442Z" fill="#171717"/>
<path d="M68.3817 15.0379L62.1783 0.336042H67.5015L72.5522 12.7486H69.3877L74.5851 0.336042H79.4472L73.2438 15.0379H68.3817Z" fill="#171717"/>
<path d="M77.8145 15.0379L84.2275 0.336042H89.0896L95.5026 15.0379H90.389L85.6526 2.68834H87.5807L82.8443 15.0379H77.8145ZM81.6288 12.4756L82.8862 8.90514H89.6345L90.8919 12.4756H81.6288Z" fill="#171717"/>
<path d="M96.2919 15.0379V0.336042H101.238V11.1944H107.86V15.0379H96.2919Z" fill="#171717"/>
<path d="M95.6329 15.0109H77.7168L84.2158 0.36322H89.2218L95.6329 15.0109Z" fill="#E62C20"/>
<path d="M61.9804 0.363166H79.8965L73.3975 15.0108H68.3915L61.9804 0.363166Z" fill="#4A8068"/>
<path d="M9.16755 35.9533C7.97931 35.9533 6.88195 35.7712 5.87545 35.4072C4.88292 35.0291 4.01621 34.4971 3.27532 33.811C2.5484 33.1249 1.98224 32.3128 1.57684 31.3747C1.17145 30.4365 0.96875 29.4004 0.96875 28.2663C0.96875 27.1321 1.17145 26.096 1.57684 25.1579C1.98224 24.2198 2.55539 23.4076 3.29629 22.7216C4.03718 22.0355 4.91088 21.5104 5.91738 21.1464C6.93787 20.7683 8.0562 20.5793 9.27239 20.5793C10.7262 20.5793 12.0193 20.8243 13.1516 21.3144C14.2979 21.8044 15.2415 22.5045 15.9824 23.4146L12.8161 26.208C12.3548 25.6759 11.8516 25.2769 11.3064 25.0109C10.7752 24.7308 10.181 24.5908 9.52402 24.5908C8.97883 24.5908 8.48257 24.6748 8.03523 24.8428C7.60188 25.0109 7.23143 25.2559 6.92389 25.5779C6.61634 25.9 6.3787 26.285 6.21095 26.7331C6.0432 27.1811 5.95932 27.6922 5.95932 28.2663C5.95932 28.8123 6.0432 29.3164 6.21095 29.7785C6.3787 30.2265 6.61634 30.6116 6.92389 30.9336C7.23143 31.2557 7.59489 31.5077 8.01426 31.6897C8.44762 31.8577 8.9299 31.9417 9.46111 31.9417C10.0203 31.9417 10.5655 31.8507 11.0967 31.6687C11.6279 31.4727 12.194 31.1436 12.7951 30.6816L15.563 34.084C14.6684 34.6861 13.6479 35.1482 12.5016 35.4702C11.3553 35.7922 10.2439 35.9533 9.16755 35.9533ZM11.2644 33.4539V27.8672H15.563V34.084L11.2644 33.4539Z" fill="#171717"/>
<path d="M16.0779 35.6172L22.4944 20.9153H27.3591L33.7756 35.6172H28.6592L23.9202 23.2676H25.8494L21.1104 35.6172H16.0779ZM19.8942 33.0549L21.1524 29.4844H27.9043L29.1624 33.0549H19.8942Z" fill="#171717"/>
<path d="M34.5653 35.6172V20.9153H41.7996C43.4351 20.9153 44.875 21.2164 46.1191 21.8184C47.3633 22.4065 48.3348 23.2466 49.0338 24.3388C49.7328 25.4309 50.0822 26.7331 50.0822 28.2453C50.0822 29.7715 49.7328 31.0876 49.0338 32.1938C48.3348 33.2859 47.3633 34.133 46.1191 34.7351C44.875 35.3232 43.4351 35.6172 41.7996 35.6172H34.5653ZM39.514 31.7527H41.5899C42.2888 31.7527 42.8969 31.6197 43.4142 31.3537C43.9454 31.0876 44.3578 30.6956 44.6513 30.1775C44.9449 29.6454 45.0917 29.0014 45.0917 28.2453C45.0917 27.5032 44.9449 26.8731 44.6513 26.355C44.3578 25.837 43.9454 25.4449 43.4142 25.1789C42.8969 24.9128 42.2888 24.7798 41.5899 24.7798H39.514V31.7527Z" fill="#171717"/>
<path d="M55.2935 35.9533C54.1472 35.9533 53.1127 35.7712 52.1901 35.4072C51.2675 35.0291 50.4986 34.4831 49.8835 33.769L52.5466 30.6186C52.938 31.0946 53.3224 31.4587 53.6998 31.7107C54.0773 31.9487 54.4687 32.0678 54.8741 32.0678C55.9365 32.0678 56.4677 31.4587 56.4677 30.2405V24.6538H51.4771V20.9153H61.3535V29.9465C61.3535 31.9627 60.8362 33.4679 59.8018 34.4621C58.7673 35.4562 57.2645 35.9533 55.2935 35.9533Z" fill="#171717"/>
<path d="M61.7219 35.6172L68.1383 20.9153H73.0031L79.4195 35.6172H74.3032L69.5642 23.2676H71.4933L66.7544 35.6172H61.7219ZM65.5382 33.0549L66.7963 29.4844H73.5483L74.8064 33.0549H65.5382Z" fill="#171717"/>
<path d="M89.7291 20.9153H94.6778V35.6172H89.7291V20.9153ZM85.1579 35.6172H80.2093V20.9153H85.1579V35.6172ZM90.0646 30.1985H84.8224V26.124H90.0646V30.1985Z" fill="#171717"/>
<path d="M103.349 35.6172V20.9153H107.417L113.288 30.5136H111.149L116.853 20.9153H120.921L120.962 35.6172H116.454L116.412 27.7202H117.125L113.225 34.294H111.044L106.976 27.7202H107.857V35.6172H103.349Z" fill="#171717"/>
<path d="M121.761 35.6172L128.178 20.9153H133.043L139.459 35.6172H134.343L129.604 23.2676H131.533L126.794 35.6172H121.761ZM125.578 33.0549L126.836 29.4844H133.588L134.846 33.0549H125.578Z" fill="#171717"/>
<path d="M140.249 35.6172V20.9153H147.483C149.119 20.9153 150.559 21.2164 151.803 21.8184C153.047 22.4065 154.018 23.2466 154.717 24.3388C155.416 25.4309 155.766 26.7331 155.766 28.2453C155.766 29.7715 155.416 31.0876 154.717 32.1938C154.018 33.2859 153.047 34.133 151.803 34.7351C150.559 35.3232 149.119 35.6172 147.483 35.6172H140.249ZM145.197 31.7527H147.273C147.972 31.7527 148.58 31.6197 149.098 31.3537C149.629 31.0876 150.041 30.6956 150.335 30.1775C150.628 29.6454 150.775 29.0014 150.775 28.2453C150.775 27.5032 150.628 26.8731 150.335 26.355C150.041 25.837 149.629 25.4449 149.098 25.1789C148.58 24.9128 147.972 24.7798 147.273 24.7798H145.197V31.7527Z" fill="#171717"/>
<path d="M155.774 35.6172L162.191 20.9153H167.055L173.472 35.6172H168.356L163.617 23.2676H165.546L160.807 35.6172H155.774ZM159.591 33.0549L160.849 29.4844H167.601L168.859 33.0549H159.591Z" fill="#171717"/>
<path d="M79.5328 35.5901H61.6167L68.1157 20.9424H73.1217L79.5328 35.5901Z" fill="#E62C20"/>
<path d="M173.472 35.5901H155.677L162.132 20.9424H167.104L173.472 35.5901Z" fill="#F69722"/>
<path d="M33.8951 35.5901H15.979L22.4463 20.9424H27.5152L33.8951 35.5901Z" fill="#9C4A9A"/>
<path d="M107.376 20.8819H103.381H103.26V35.7112H116.319L120.994 35.6506V20.8819H116.818L112.218 28.6294L107.376 20.8819Z" fill="#488267"/>
<path d="M38.9647 32.4427L38.6167 24.2109H46.0994L46.9695 31.8297L38.9647 32.4427Z" fill="#171717"/>
<path d="M0.861133 55.836V52.8146L6.17495 47.9387C6.51101 47.6192 6.75604 47.3414 6.91007 47.1052C7.07809 46.8691 7.19011 46.6607 7.24612 46.4801C7.30213 46.2856 7.33013 46.105 7.33013 45.9383C7.33013 45.5771 7.21111 45.2993 6.97308 45.1048C6.73504 44.8965 6.37799 44.7923 5.90191 44.7923C5.46784 44.7923 5.05478 44.9104 4.66272 45.1465C4.27066 45.3688 3.96261 45.7022 3.73858 46.1467L0 44.2922C0.532082 43.292 1.33021 42.4793 2.39437 41.8542C3.45853 41.2291 4.78174 40.9165 6.36398 40.9165C7.52616 40.9165 8.55532 41.1041 9.45146 41.4791C10.3476 41.8542 11.0477 42.3821 11.5518 43.0628C12.0559 43.7435 12.3079 44.5492 12.3079 45.4799C12.3079 45.9522 12.2449 46.4245 12.1189 46.8968C12.0069 47.3692 11.7688 47.8693 11.4048 48.3971C11.0407 48.9111 10.5016 49.4876 9.78751 50.1266L5.7969 53.7315L5.01978 52.0228H12.644V55.836H0.861133Z" fill="#171717"/>
<path d="M20.3185 56.1694C19.0163 56.1694 17.8611 55.8708 16.853 55.2734C15.8588 54.6761 15.0747 53.8079 14.5006 52.6688C13.9405 51.5297 13.6605 50.1544 13.6605 48.543C13.6605 46.9316 13.9405 45.5563 14.5006 44.4172C15.0747 43.2781 15.8588 42.4099 16.853 41.8125C17.8611 41.2152 19.0163 40.9165 20.3185 40.9165C21.6207 40.9165 22.7689 41.2152 23.763 41.8125C24.7712 42.4099 25.5553 43.2781 26.1154 44.4172C26.6895 45.5563 26.9765 46.9316 26.9765 48.543C26.9765 50.1544 26.6895 51.5297 26.1154 52.6688C25.5553 53.8079 24.7712 54.6761 23.763 55.2734C22.7689 55.8708 21.6207 56.1694 20.3185 56.1694ZM20.3185 52.2312C20.6406 52.2312 20.9276 52.1201 21.1796 51.8978C21.4317 51.6755 21.6277 51.2935 21.7677 50.7517C21.9218 50.21 21.9988 49.4737 21.9988 48.543C21.9988 47.5984 21.9218 46.8621 21.7677 46.3342C21.6277 45.7925 21.4317 45.4104 21.1796 45.1882C20.9276 44.9659 20.6406 44.8548 20.3185 44.8548C19.9965 44.8548 19.7094 44.9659 19.4574 45.1882C19.2053 45.4104 19.0023 45.7925 18.8483 46.3342C18.7083 46.8621 18.6382 47.5984 18.6382 48.543C18.6382 49.4737 18.7083 50.21 18.8483 50.7517C19.0023 51.2935 19.2053 51.6755 19.4574 51.8978C19.7094 52.1201 19.9965 52.2312 20.3185 52.2312Z" fill="#171717"/>
<path d="M27.9766 55.836V52.8146L33.2905 47.9387C33.6265 47.6192 33.8716 47.3414 34.0256 47.1052C34.1936 46.8691 34.3056 46.6607 34.3616 46.4801C34.4176 46.2856 34.4456 46.105 34.4456 45.9383C34.4456 45.5771 34.3266 45.2993 34.0886 45.1048C33.8506 44.8965 33.4935 44.7923 33.0174 44.7923C32.5834 44.7923 32.1703 44.9104 31.7782 45.1465C31.3862 45.3688 31.0781 45.7022 30.8541 46.1467L27.1155 44.2922C27.6476 43.292 28.4457 42.4793 29.5099 41.8542C30.574 41.2291 31.8973 40.9165 33.4795 40.9165C34.6417 40.9165 35.6708 41.1041 36.567 41.4791C37.4631 41.8542 38.1632 42.3821 38.6673 43.0628C39.1714 43.7435 39.4234 44.5492 39.4234 45.4799C39.4234 45.9522 39.3604 46.4245 39.2344 46.8968C39.1224 47.3692 38.8843 47.8693 38.5203 48.3971C38.1562 48.9111 37.6171 49.4876 36.903 50.1266L32.9124 53.7315L32.1353 52.0228H39.7595V55.836H27.9766Z" fill="#171717"/>
<path d="M40.755 55.836V52.8146L46.0688 47.9387C46.4049 47.6192 46.6499 47.3414 46.8039 47.1052C46.972 46.8691 47.084 46.6607 47.14 46.4801C47.196 46.2856 47.224 46.105 47.224 45.9383C47.224 45.5771 47.105 45.2993 46.8669 45.1048C46.6289 44.8965 46.2718 44.7923 45.7958 44.7923C45.3617 44.7923 44.9486 44.9104 44.5566 45.1465C44.1645 45.3688 43.8565 45.7022 43.6324 46.1467L39.8939 44.2922C40.4259 43.292 41.2241 42.4793 42.2882 41.8542C43.3524 41.2291 44.6756 40.9165 46.2578 40.9165C47.42 40.9165 48.4492 41.1041 49.3453 41.4791C50.2415 41.8542 50.9416 42.3821 51.4456 43.0628C51.9497 43.7435 52.2018 44.5492 52.2018 45.4799C52.2018 45.9522 52.1387 46.4245 52.0127 46.8968C51.9007 47.3692 51.6627 47.8693 51.2986 48.3971C50.9346 48.9111 50.3955 49.4876 49.6814 50.1266L45.6908 53.7315L44.9136 52.0228H52.5378V55.836H40.755Z" fill="#171717"/>
<path d="M18.2793 53.3852V43.2166H23.9689V53.3852H18.2793Z" fill="#171717"/>
</svg>
