<svg width="56" height="418" viewBox="0 0 56 418" fill="none" xmlns="http://www.w3.org/2000/svg">
<path fill-rule="evenodd" clip-rule="evenodd" d="M0 373.368L0 413.107L0 417.954L0 417.954H4.84627V417.954H10.6618H15.5081V413.107L15.5081 401.476H10.6618L10.6618 413.107H4.84627L4.84627 373.368H10.6618L10.6618 380.153L10.6618 384.999H15.5081H20.3543L20.3543 389.361V394.207H25.2006V401.476H30.0469V394.207H34.8932V389.361H34.8931V384.999H39.7394H44.5856V380.153V373.368L44.5857 373.368L50.4012 373.368V413.107H44.5856V401.476H39.7394V413.107V417.954H44.5856H50.4012L55.2475 417.954V368.522L55.2474 368.522L44.5857 368.522V365.129L50.4012 365.129L55.2474 365.129L55.2475 365.129L55.2475 315.697H50.4012H44.5856H39.7394V320.544V332.175H44.5856V320.544H50.4012L50.4012 360.283L44.5857 360.283L44.5856 360.283L44.5856 353.498V348.652H39.7394L34.8932 348.652L34.8931 348.652V344.29H34.8932V339.444H30.0469V332.175H25.2006V339.444H20.3543V344.29V348.652H15.5081H10.6618L10.6618 353.498L10.6618 360.283H4.84627L4.84627 320.544H10.6618V332.175H15.5081V320.544L15.5081 315.697H10.6618H4.84627L0 315.697L0 320.544L0 360.283L0 365.129H4.84627L10.6618 365.129V368.522L0 368.522L0 373.368ZM39.7394 365.129H39.7394H34.8931H30.0468V360.283V353.498H25.2006V360.283V365.129H20.3543H15.5081V368.522H20.3543H25.2006V373.368V380.153L30.0468 380.153V373.368V368.522H34.8931H39.7394H39.7394V365.129ZM15.5081 380.153L15.5081 373.368H20.3543V380.153H15.5081ZM20.3543 360.283H15.5081V353.498H20.3543V360.283ZM30.0468 389.361H25.2006L25.2006 384.999L30.0468 384.999L30.0468 389.361ZM39.7394 380.153V373.368H34.8931V380.153H39.7394ZM30.0468 344.29H25.2006V348.652L30.0468 348.652V344.29ZM34.8931 353.498H34.8932H39.7394L39.7394 360.283H34.8931L34.8931 353.498Z" fill="#4A8068"/>
<path fill-rule="evenodd" clip-rule="evenodd" d="M0 163.04L0 202.779L0 207.625L0 207.625H4.84627V207.625H10.6618H15.5081V202.779L15.5081 191.148H10.6618L10.6618 202.779H4.84627L4.84627 163.04H10.6618L10.6618 169.825L10.6618 174.671H15.5081H20.3543L20.3543 179.032V183.879H25.2006V191.148H30.0469V183.879H34.8932V179.032H34.8931V174.671H39.7394H44.5856V169.825V163.04L44.5857 163.04L50.4012 163.04V202.779H44.5856V191.148H39.7394V202.779V207.625H44.5856H50.4012L55.2475 207.625V158.194L55.2474 158.194L44.5857 158.194V154.801H55.2474L55.2475 154.801L55.2475 105.369L50.4012 105.369H44.5856H39.7394V110.215V121.847H44.5856V110.215H50.4012L50.4012 149.955H44.5857V149.955H44.5856L44.5856 143.17V138.324H39.7394H34.8931V133.962H34.8932V129.116H30.0469V121.846H25.2006V129.116H20.3543V133.962V138.324H15.5081H10.6618L10.6618 143.17L10.6618 149.955H4.84627L4.84627 110.215H10.6618V121.846H15.5081V110.215L15.5081 105.369H10.6618H4.84627L0 105.369L0 110.215L0 149.955L0 154.801L10.6618 154.801V158.194L0 158.194L0 163.04ZM39.7394 154.801H39.7394H34.8931H30.0468V149.955V143.17L25.2006 143.17V149.955V154.801H20.3543H15.5081V158.194L20.3543 158.194H25.2006V163.04V169.825L30.0468 169.825V163.04V158.194H34.8931L39.7394 158.194H39.7394V154.801ZM15.5081 169.825L15.5081 163.04H20.3543V169.825H15.5081ZM20.3543 149.955H15.5081V143.17H20.3543V149.955ZM30.0468 179.032H25.2006L25.2006 174.671L30.0468 174.671L30.0468 179.032ZM39.7394 169.825V163.04H34.8931V169.825H39.7394ZM30.0468 133.962H25.2006V138.324L30.0468 138.324V133.962ZM39.7394 143.17L39.7394 149.955H34.8931L34.8931 143.17H39.7394Z" fill="#F69722"/>
<path fill-rule="evenodd" clip-rule="evenodd" d="M0 268.204L0 307.943L0 312.79L0 312.79H10.6618H15.5081V307.943L15.5081 296.312H10.6618L10.6618 307.943H4.84627L4.84627 268.204H10.6618V268.204L10.6618 274.989L10.6618 279.835H15.5081H20.3543L20.3543 284.197V289.043V289.043H25.2006V296.312H30.0469V289.043H34.8931H34.8932V284.197H34.8931V279.835H34.8932H39.7394H44.5856V274.989V268.204L44.5857 268.204L50.4012 268.204V307.943H44.5856V296.312H39.7394V307.943V312.79H44.5856H55.2474L55.2475 312.79V263.358H50.4012L44.5857 263.358V259.965L50.4012 259.965H55.2475L55.2475 210.533L55.2474 210.533H44.5856H39.7394V215.38V227.011H44.5856V215.38H50.4012L50.4012 255.119H44.5856L44.5856 248.334V243.488H39.7394H34.8932H34.8931V239.126H34.8932V234.28H34.8931H30.0469V227.011H25.2006V234.28H20.3543V239.126V243.488H15.5081H10.6618L10.6618 248.334L10.6618 255.119H4.84627L4.84627 215.38H10.6618V227.011H15.5081V215.38L15.5081 210.533H10.6618H0L0 215.38L0 255.119L0 259.965H4.84627L10.6618 259.965V263.358L4.84627 263.358H0L0 268.204ZM39.7394 259.965H39.7394H34.8931H30.0468V255.119V248.334L25.2006 248.334V255.119V259.965H20.3543H15.5081V263.358H20.3543H25.2006V268.204V274.989L30.0468 274.989V268.204V263.358H34.8931H39.7394H39.7394V259.965ZM15.5081 274.989L15.5081 268.204V268.204H20.3543V274.989H15.5081ZM20.3543 255.119H15.5081V248.334H20.3543V255.119ZM30.0468 284.197H25.2006L25.2006 279.835L30.0468 279.835L30.0468 284.197ZM34.8931 274.989H34.8932H39.7394V268.204H34.8931V274.989ZM30.0468 239.126H25.2006V243.488L30.0468 243.488V239.126ZM34.8931 248.334H34.8932H39.7394L39.7394 255.119H34.8931L34.8931 248.334Z" fill="#E62C20"/>
<path fill-rule="evenodd" clip-rule="evenodd" d="M0 57.8757L0 97.6151L0 102.461L0 102.461H4.84627V102.461H10.6618H15.5081V97.6151L15.5081 85.9841H10.6618L10.6618 97.6151H4.84627L4.84627 57.8757H10.6618L10.6618 64.6605L10.6618 69.5067H15.5081H20.3543L20.3543 73.8684V78.7147H25.2006V85.9841H30.0469V78.7147H34.8931H34.8932V73.8684H34.8931V69.5067H34.8932H39.7394H44.5856V64.6605V57.8757H44.5857H50.4012V97.6151H44.5856V85.9841H39.7394V97.6151V102.461H44.5856H55.2474V102.461H55.2475V53.0294H50.4012V53.0294H44.5857V49.637L50.4012 49.637H55.2475L55.2475 0.205078L55.2474 0.20507H44.5856H39.7394V5.05135V16.6824H44.5856V5.05135H50.4012L50.4012 44.7908H44.5857H44.5856L44.5856 38.006V33.1597H39.7394H34.8932H34.8931V28.7981H34.8932V23.9518H34.8931H30.0469V16.6824H25.2006V23.9518L20.3543 23.9518V28.7981V33.1597H15.5081H10.6618L10.6618 38.006L10.6618 44.7908H4.84627L4.84627 5.05135H10.6618V16.6824H15.5081V5.05135L15.5081 0.205078H10.6618H0L0 5.05135L0 44.7908L0 49.6371H4.84627L10.6618 49.637V53.0294H0L0 53.0295L0 57.8757ZM39.7394 49.637H39.7394L34.8931 49.637H30.0468V44.7908V38.006L25.2006 38.006V44.7908V49.637H20.3543L15.5081 49.637V53.0294H20.3543H25.2006V57.8757V64.6605H30.0468V57.8757V53.0294H34.8931H39.7394H39.7394V49.637ZM15.5081 64.6605L15.5081 57.8757H20.3543V64.6605H15.5081ZM20.3543 44.7908H15.5081V38.006H20.3543V44.7908ZM30.0468 73.8684H25.2006L25.2006 69.5067H30.0468L30.0468 73.8684ZM34.8931 64.6605H34.8932H39.7394V57.8757H34.8931V64.6605ZM30.0468 28.7981H25.2006V33.1597L30.0468 33.1597V28.7981ZM34.8931 38.006H34.8932H39.7394L39.7394 44.7908H34.8931L34.8931 38.006Z" fill="#9C4A9A"/>
</svg>
