<svg width="428" height="1117" viewBox="0 0 428 1117" fill="none" xmlns="http://www.w3.org/2000/svg">
<path d="M-263.931 543.579L65.2314 0V421.661L16.8251 179.184C-52.5195 282.754 -206.209 515.728 -223.996 559.508C-241.879 603.526 -263.931 664.048 -217.945 701.881C-171.959 739.715 -170.749 806.421 -165.908 849.232C-162.072 883.159 -22.145 891.229 25.1854 893.958L26.5064 894.035C-13.4288 896.69 -150.176 905.186 -179.22 894.035C-215.525 880.096 -180.431 787.504 -255.46 719.802C-315.484 665.641 -286.117 579.753 -263.931 543.579Z" fill="#EEEEEE" fill-opacity="0.1"/>
<path d="M400.242 543.2L77.3069 54.3364L84.2502 154.528C201.238 266.652 353.934 529.246 370.995 566.123C391.098 609.576 400.242 663.796 353.934 701.669C307.626 739.542 306.408 806.319 301.534 849.175C297.678 883.074 156.107 891.186 108.157 893.933L106.554 894.025C146.768 896.683 285.691 905.188 314.938 894.025C351.497 880.072 316.157 787.382 391.712 719.609C452.156 665.391 422.584 579.412 400.242 543.2Z" fill="#EEEEEE" fill-opacity="0.1"/>
<mask id="mask0_100_2" style="mask-type:alpha" maskUnits="userSpaceOnUse" x="-225" y="187" width="593" height="683">
<path d="M-221.744 600.458C-214.604 547.378 -69.4734 336.281 4.90428 231.077L72.791 504.519L95.5552 187.17C147.322 232.002 344.121 541.28 362.864 600.458C381.607 659.635 333.411 691.016 316.452 707.156C299.494 723.295 286.106 784.265 285.214 805.784C284.321 827.303 282.536 847.029 262.008 856.891C245.585 864.782 192.688 868.547 168.292 869.444V812.957C224.092 782.754 228.204 731.663 232.072 697.293L228.108 541.28C168.292 548.923 154.647 620.183 152.267 659.635V714.328C120.136 692.81 77.5511 714.926 67.4358 728.674L61.188 720.605C75.4685 709.845 105.815 670.394 72.791 631.839C46.372 600.996 5.53697 617.226 -9.33858 627.089C-17.9069 559.663 -53.8274 540.384 -87.1486 541.28V648.875C-87.1486 707.156 -53.0562 738.836 -21.8175 741.227V869.444C-41.1557 868.547 -85.9014 864.782 -110.178 856.891C-140.524 847.029 -139.632 838.959 -142.309 805.784C-144.987 772.609 -161.052 738.537 -189.613 707.156C-218.174 675.774 -230.67 666.808 -221.744 600.458Z" fill="url(#paint0_linear_100_2)"/>
</mask>
<g mask="url(#mask0_100_2)">
<path d="M-266.828 258.362C-247.973 346.354 -221.576 599.005 -266.828 905.671C-189.465 867.754 -169.763 824.818 -169.763 695.752C-179.819 608.841 -167.701 526.194 -49.4599 516.022C68.7812 505.85 72.7835 400.331 66.4819 346.245C44.4238 418.761 -0.217651 404.634 -61.0418 387.681C-46.2834 347.896 -38.2682 337.345 -23.0984 341.049C91.6755 369.071 74.9114 227.314 77.3025 150.943C48.3102 303.604 -187.233 192.763 -246.637 194.321C-294.161 195.568 -278.41 230.772 -266.828 258.362Z" fill="#EEEEEE" fill-opacity="0.1"/>
<path d="M-107.204 557.479C-78.108 531.645 18.672 526.08 60.0799 507.178C39.3757 634.771 -33.0877 602.55 -52.6414 619.305C-72.1952 636.06 -45.7401 701.789 -58.3925 763.653C-71.045 825.516 60.6598 779.377 142.895 790.718C217.659 801.029 244.115 726.277 214.209 704.367C184.303 682.457 8.3194 734.01 12.9203 704.367C16.601 680.653 7.5526 654.103 2.56831 643.793C37.0749 650.237 240.905 620.594 275.412 643.793C309.918 666.991 328.322 860.314 199.497 860.314C70.6725 860.314 -140.058 880.772 -140.058 816.494C-140.058 737.521 -134.253 581.494 -107.204 557.479Z" fill="#EEEEEE" fill-opacity="0.1"/>
<path d="M102.898 479.896C123.069 377.693 105.19 218.677 102.898 159.911C102.898 145.432 117.226 142.628 130.405 146.46C156.733 154.116 225.295 289.883 249.131 358.472C247.973 342.518 251.894 312.93 269.911 263.389C297.416 187.759 344.022 182.479 363.887 189.292C370.764 414.989 376.577 722.116 389.412 771.173C402.248 820.23 345.862 878.485 304.604 868.265C344.946 766.063 300.347 594.207 283.538 441.755L253.866 503.565L194.271 409.028L194.142 411.686C188.855 520.323 184.605 607.649 160.203 607.649C136.135 607.649 100.99 604.242 77.3046 607.649C78.8326 599.984 82.7278 582.098 102.898 479.896Z" fill="#EEEEEE" fill-opacity="0.1"/>
</g>
<path d="M210.138 573.587C206.174 573.583 202.248 576.163 198.586 581.179C194.923 586.196 191.595 593.55 188.792 602.823C185.988 612.096 183.764 623.106 182.247 635.223C180.73 647.341 179.949 660.329 179.949 673.445L179.949 778.873C187.955 778.873 195.634 768.349 201.296 749.616C206.957 730.883 210.138 705.476 210.138 678.983V573.587Z" fill="#EEEEEE" fill-opacity="0.1"/>
<path d="M143.721 809.071V1040.03C143.721 1050.14 142.16 1060.15 139.125 1069.49C136.091 1078.82 131.644 1087.31 126.037 1094.46C120.43 1101.6 113.774 1107.27 106.449 1111.14C99.1235 1115.01 91.2722 1117 83.3432 1117V886.041C83.3432 865.627 89.7045 846.05 101.028 831.615C112.351 817.181 127.708 809.071 143.721 809.071Z" fill="#EEEEEE" fill-opacity="0.1"/>
<path d="M-1.18268 730.578V1020.41C-1.18268 1033.09 0.37907 1045.65 3.41336 1057.37C6.44765 1069.09 10.895 1079.74 16.5017 1088.71C22.1083 1097.68 28.7645 1104.79 36.0899 1109.65C43.4153 1114.5 51.2665 1117 59.1955 1117V827.167C59.1955 801.55 52.8343 776.982 41.5112 758.868C30.1881 740.754 14.8306 730.578 -1.18268 730.578Z" fill="#EEEEEE" fill-opacity="0.1"/>
<path d="M116.551 784.918C131.557 784.918 143.721 772.754 143.721 757.748C143.721 742.742 131.557 730.578 116.551 730.578C101.545 730.578 89.3809 742.742 89.3809 757.748C89.3809 772.754 101.545 784.918 116.551 784.918Z" fill="#EEEEEE" fill-opacity="0.1"/>
<path d="M29.0064 700.386C45.6794 700.386 59.1955 686.869 59.1955 670.196C59.1955 653.523 45.6794 640.007 29.0064 640.007C12.3334 640.007 -1.18268 653.523 -1.18268 670.196C-1.18268 686.869 12.3334 700.386 29.0064 700.386Z" fill="#EEEEEE" fill-opacity="0.1"/>
<defs>
<linearGradient id="paint0_linear_100_2" x1="71.2692" y1="187.17" x2="71.2692" y2="869.444" gradientUnits="userSpaceOnUse">
<stop stop-color="#FCAA25"/>
<stop offset="0.291667" stop-color="#F5BD02"/>
<stop offset="1" stop-color="#F36334"/>
</linearGradient>
</defs>
</svg>
