<svg width="244" height="39" viewBox="0 0 244 39" fill="none" xmlns="http://www.w3.org/2000/svg">
<path d="M37.824 31V8.6H45.376V25.144H55.488V31H37.824ZM57.574 31V8.6H65.126V31H57.574ZM68.7615 31V8.6H74.9695L86.3615 22.232H83.4815V8.6H90.8415V31H84.6335L73.2415 17.368H76.1215V31H68.7615ZM94.4803 31V8.6H102.032V31H94.4803ZM105.668 31V8.6H111.876L120.836 23.224H117.572L126.276 8.6H132.484L132.548 31H125.668L125.604 18.968H126.692L120.74 28.984H117.412L111.204 18.968H112.548V31H105.668ZM133.767 31L143.559 8.6H150.983L160.775 31H152.967L145.735 12.184H148.679L141.447 31H133.767ZM139.591 27.096L141.511 21.656H151.815L153.735 27.096H139.591ZM170.332 31.512C168.455 31.512 166.642 31.2987 164.892 30.872C163.143 30.4453 161.703 29.8907 160.572 29.208L163.004 23.704C164.071 24.3227 165.255 24.824 166.556 25.208C167.879 25.5707 169.159 25.752 170.396 25.752C171.122 25.752 171.687 25.7093 172.092 25.624C172.519 25.5173 172.828 25.3787 173.02 25.208C173.212 25.016 173.308 24.792 173.308 24.536C173.308 24.1307 173.084 23.8107 172.636 23.576C172.188 23.3413 171.591 23.1493 170.844 23C170.119 22.8293 169.319 22.6587 168.444 22.488C167.57 22.296 166.684 22.0507 165.788 21.752C164.914 21.4533 164.103 21.0587 163.356 20.568C162.631 20.0773 162.044 19.4373 161.596 18.648C161.148 17.8373 160.924 16.8347 160.924 15.64C160.924 14.2533 161.308 12.9947 162.076 11.864C162.866 10.712 164.028 9.79467 165.564 9.112C167.122 8.42933 169.052 8.088 171.356 8.088C172.871 8.088 174.364 8.248 175.836 8.568C177.308 8.888 178.631 9.37867 179.804 10.04L177.532 15.512C176.423 14.9573 175.346 14.5413 174.3 14.264C173.276 13.9867 172.274 13.848 171.292 13.848C170.567 13.848 169.991 13.912 169.564 14.04C169.138 14.168 168.828 14.3387 168.636 14.552C168.466 14.7653 168.38 15 168.38 15.256C168.38 15.64 168.604 15.9493 169.052 16.184C169.5 16.3973 170.087 16.5787 170.812 16.728C171.559 16.8773 172.37 17.0373 173.244 17.208C174.14 17.3787 175.026 17.6133 175.9 17.912C176.775 18.2107 177.575 18.6053 178.3 19.096C179.047 19.5867 179.644 20.2267 180.092 21.016C180.54 21.8053 180.764 22.7867 180.764 23.96C180.764 25.3253 180.37 26.584 179.58 27.736C178.812 28.8667 177.66 29.784 176.124 30.488C174.588 31.1707 172.658 31.512 170.332 31.512ZM180.579 31L190.372 8.6H197.796L207.588 31H199.78L192.548 12.184H195.492L188.26 31H180.579ZM186.404 27.096L188.324 21.656H198.628L200.548 27.096H186.404Z" fill="white"/>
<path d="M112.289 8H104.202H104V31H125.805H134V8H125.805L119.341 20.1765L112.289 8Z" fill="#488267"/>
<path d="M180 31H208L197.756 8H189.956L180 31Z" fill="#FCAA25"/>
<path d="M224.572 6H222.857V12.2857H224.572V13.4285H226.286V15.1428H228V16.8571H229.143V10.5714H227.429V9.42855H226.286V7.71428H224.572V6Z" fill="#9C4A9A"/>
<path d="M235.428 6H237.143V12.2857H235.428V13.4285H233.714V15.1428H232V16.8571H230.857V10.5714H232.571V9.42855H233.714V7.71428H235.428V6Z" fill="#9C4A9A"/>
<path d="M233.143 17.4285V19.1428H239.429V17.4285H240.572V15.7143H242.286V14H244V12.8571H237.714V14.5714H236.572V15.7143H234.857V17.4285H233.143Z" fill="#9C4A9A"/>
<path d="M244 25.4288V27.1431H237.714V25.4288H236.571V23.7145H234.857V22.0002H233.143V20.8574H239.429V22.5717H240.571V23.7145H242.286V25.4288H244Z" fill="#9C4A9A"/>
<path d="M235.428 34H237.143V27.7143H235.428V26.5715H233.714V24.8572H232V23.1429H230.857V29.4286H232.571V30.5714H233.714V32.2857H235.428V34Z" fill="#9C4A9A"/>
<path d="M224.571 34H222.857V27.7143H224.571V26.5715H226.286V24.8572H228V23.1429H229.143V29.4286H227.428V30.5714H226.286V32.2857H224.571V34Z" fill="#9C4A9A"/>
<path d="M216 14.5715V12.8572H222.286V14.5715H223.429V16.2857H225.143V18H226.857V19.1429H220.571V17.4286H219.429V16.2857H217.714V14.5715H216Z" fill="#9C4A9A"/>
<path d="M226.857 22.5715L226.857 20.8572L220.572 20.8572L220.572 22.5715L219.429 22.5715L219.429 24.2857L217.715 24.2857L217.715 26L216 26L216 27.1429L222.286 27.1429L222.286 25.4286L223.429 25.4286L223.429 24.2857L225.143 24.2857L225.143 22.5715L226.857 22.5715Z" fill="#9C4A9A"/>
<path d="M8.57171 6H6.85742L6.85742 12.2857H8.57171V13.4285H10.286V15.1428H12.0003V16.8571H13.1431L13.1431 10.5714H11.4289V9.42855H10.286V7.71428H8.57171V6Z" fill="#9C4A9A"/>
<path d="M19.4285 6H21.1428V12.2857H19.4285V13.4285H17.7143V15.1428H16V16.8571H14.8571L14.8571 10.5714H16.5714V9.42855H17.7143V7.71428H19.4285V6Z" fill="#9C4A9A"/>
<path d="M17.1428 17.4285V19.1428H23.4285V17.4285H24.5714V15.7143H26.2857V14H28V12.8571H21.7142V14.5714H20.5714V15.7143H18.8571V17.4285H17.1428Z" fill="#9C4A9A"/>
<path d="M28 25.4288V27.1431H21.7143V25.4288H20.5714V23.7145H18.8571V22.0002H17.1429V20.8574H23.4286V22.5717H24.5714V23.7145H26.2857V25.4288H28Z" fill="#9C4A9A"/>
<path d="M19.4285 34H21.1428V27.7143H19.4285V26.5715H17.7143V24.8572H16V23.1429H14.8571L14.8571 29.4286H16.5714V30.5714H17.7143V32.2857H19.4285V34Z" fill="#9C4A9A"/>
<path d="M8.57122 34H6.85693L6.85693 27.7143H8.57122L8.57122 26.5715H10.2855L10.2855 24.8572H11.9998V23.1429H13.1426L13.1426 29.4286H11.4284V30.5714H10.2855V32.2857H8.57122V34Z" fill="#9C4A9A"/>
<path d="M0 14.5715L0 12.8572H6.28571L6.28571 14.5715H7.42857V16.2857H9.14286V18H10.8571V19.1429H4.57143L4.57143 17.4286H3.42857L3.42857 16.2857H1.71429L1.71429 14.5715H0Z" fill="#9C4A9A"/>
<path d="M10.8572 22.5715L10.8572 20.8572L4.57146 20.8572L4.57147 22.5715L3.42861 22.5715L3.42861 24.2857L1.71432 24.2857L1.71432 26L3.7433e-05 26L3.75544e-05 27.1429L6.28575 27.1429L6.28575 25.4286L7.42861 25.4286L7.42861 24.2857L9.14289 24.2857L9.14289 22.5715L10.8572 22.5715Z" fill="#9C4A9A"/>
</svg>
