<svg width="402" height="402" viewBox="0 0 402 402" fill="none" xmlns="http://www.w3.org/2000/svg">
<mask id="mask0_100_1732" style="mask-type:alpha" maskUnits="userSpaceOnUse" x="4" y="0" width="394" height="394">
<rect x="4" width="394" height="394" fill="#242424"/>
</mask>
<g mask="url(#mask0_100_1732)">
<rect x="305.812" y="3.99219" width="12.6535" height="12.6535" transform="rotate(-45 305.812 3.99219)" fill="#EEEEEE" fill-opacity="0.9"/>
<rect x="305.812" y="21.8877" width="12.6535" height="12.6535" transform="rotate(-45 305.812 21.8877)" fill="#EEEEEE" fill-opacity="0.9"/>
<rect x="305.812" y="39.7817" width="12.6535" height="12.6535" transform="rotate(-45 305.812 39.7817)" fill="#EEEEEE" fill-opacity="0.9"/>
<rect x="287.918" y="39.7822" width="12.6535" height="12.6535" transform="rotate(-45 287.918 39.7822)" fill="#EEEEEE" fill-opacity="0.9"/>
<rect x="270.022" y="39.7812" width="12.6535" height="12.6535" transform="rotate(-45 270.022 39.7812)" fill="#EEEEEE" fill-opacity="0.9"/>
<rect x="253.406" y="41.0601" width="12.6535" height="12.6535" transform="rotate(-45 253.406 41.0601)" fill="#EEEEEE" fill-opacity="0.9"/>
<rect x="235.511" y="41.0601" width="12.6535" height="12.6535" transform="rotate(-45 235.511 41.0601)" fill="#EEEEEE" fill-opacity="0.9"/>
<rect x="235.512" y="23.166" width="12.6535" height="12.6535" transform="rotate(-45 235.512 23.166)" fill="#EEEEEE" fill-opacity="0.9"/>
<rect x="236.79" y="6.54883" width="12.6535" height="12.6535" transform="rotate(-45 236.79 6.54883)" fill="#EEEEEE" fill-opacity="0.9"/>
<rect x="253.407" y="5.271" width="12.6535" height="12.6535" transform="rotate(-45 253.407 5.271)" fill="#EEEEEE" fill-opacity="0.9"/>
<rect x="271.301" y="5.27051" width="12.6535" height="12.6535" transform="rotate(-45 271.301 5.27051)" fill="#EEEEEE" fill-opacity="0.9"/>
<rect x="271.301" y="23.165" width="12.6535" height="12.6535" transform="rotate(-45 271.301 23.165)" fill="#EEEEEE" fill-opacity="0.9"/>
<rect x="289.196" y="5.27051" width="12.6535" height="12.6535" transform="rotate(-45 289.196 5.27051)" fill="#EEEEEE" fill-opacity="0.9"/>
<rect x="362.053" y="96.0229" width="12.6535" height="12.6535" transform="rotate(-45 362.053 96.0229)" fill="#EEEEEE" fill-opacity="0.9"/>
<rect x="362.053" y="113.917" width="12.6535" height="12.6535" transform="rotate(-45 362.053 113.917)" fill="#EEEEEE" fill-opacity="0.9"/>
<rect x="379.948" y="96.0229" width="12.6535" height="12.6535" transform="rotate(-45 379.948 96.0229)" fill="#EEEEEE" fill-opacity="0.9"/>
<rect x="397.843" y="96.0225" width="12.6535" height="12.6535" transform="rotate(-45 397.843 96.0225)" fill="#EEEEEE" fill-opacity="0.9"/>
<rect x="395.286" y="165.045" width="12.6535" height="12.6535" transform="rotate(-45 395.286 165.045)" fill="#EEEEEE" fill-opacity="0.9"/>
<rect x="378.67" y="166.324" width="12.6535" height="12.6535" transform="rotate(-45 378.67 166.324)" fill="#EEEEEE" fill-opacity="0.9"/>
<rect x="360.775" y="166.324" width="12.6535" height="12.6535" transform="rotate(-45 360.775 166.324)" fill="#EEEEEE" fill-opacity="0.9"/>
<rect x="360.775" y="148.429" width="12.6535" height="12.6535" transform="rotate(-45 360.775 148.429)" fill="#EEEEEE" fill-opacity="0.9"/>
<rect x="362.053" y="131.812" width="12.6535" height="12.6535" transform="rotate(-45 362.053 131.812)" fill="#EEEEEE" fill-opacity="0.9"/>
<rect x="378.67" y="130.534" width="12.6535" height="12.6535" transform="rotate(-45 378.67 130.534)" fill="#EEEEEE" fill-opacity="0.9"/>
<rect x="396.564" y="130.534" width="12.6535" height="12.6535" transform="rotate(-45 396.564 130.534)" fill="#EEEEEE" fill-opacity="0.9"/>
<rect x="396.565" y="148.429" width="12.6535" height="12.6535" transform="rotate(-45 396.565 148.429)" fill="#EEEEEE" fill-opacity="0.9"/>
<rect x="396.565" y="112.64" width="12.6535" height="12.6535" transform="rotate(-45 396.565 112.64)" fill="#EEEEEE" fill-opacity="0.9"/>
<rect x="351.828" y="356.775" width="12.6535" height="12.6535" transform="rotate(-45 351.828 356.775)" fill="#EEEEEE" fill-opacity="0.9"/>
<rect x="351.827" y="374.669" width="12.6535" height="12.6535" transform="rotate(-45 351.827 374.669)" fill="#EEEEEE" fill-opacity="0.9"/>
<rect x="369.722" y="356.774" width="12.6535" height="12.6535" transform="rotate(-45 369.722 356.774)" fill="#EEEEEE" fill-opacity="0.9"/>
<rect x="387.617" y="356.775" width="12.6535" height="12.6535" transform="rotate(-45 387.617 356.775)" fill="#EEEEEE" fill-opacity="0.9"/>
<rect x="351.828" y="392.564" width="12.6535" height="12.6535" transform="rotate(-45 351.828 392.564)" fill="#EEEEEE" fill-opacity="0.9"/>
<rect x="368.444" y="391.286" width="12.6535" height="12.6535" transform="rotate(-45 368.444 391.286)" fill="#EEEEEE" fill-opacity="0.9"/>
<rect x="386.339" y="391.287" width="12.6535" height="12.6535" transform="rotate(-45 386.339 391.287)" fill="#EEEEEE" fill-opacity="0.9"/>
<rect x="386.339" y="373.392" width="12.6535" height="12.6535" transform="rotate(-45 386.339 373.392)" fill="#EEEEEE" fill-opacity="0.9"/>
<rect x="101.301" y="106.249" width="12.6535" height="12.6535" transform="rotate(-45 101.301 106.249)" fill="#EEEEEE" fill-opacity="0.9"/>
<rect x="101.301" y="124.144" width="12.6535" height="12.6535" transform="rotate(-45 101.301 124.144)" fill="#EEEEEE" fill-opacity="0.9"/>
<rect x="119.196" y="106.249" width="12.6535" height="12.6535" transform="rotate(-45 119.196 106.249)" fill="#EEEEEE" fill-opacity="0.9"/>
<rect x="137.09" y="106.25" width="12.6535" height="12.6535" transform="rotate(-45 137.09 106.25)" fill="#EEEEEE" fill-opacity="0.9"/>
<rect x="154.985" y="106.25" width="12.6535" height="12.6535" transform="rotate(-45 154.985 106.25)" fill="#EEEEEE" fill-opacity="0.9"/>
<rect x="171.602" y="104.971" width="12.6535" height="12.6535" transform="rotate(-45 171.602 104.971)" fill="#EEEEEE" fill-opacity="0.9"/>
<rect x="171.602" y="122.866" width="12.6535" height="12.6535" transform="rotate(-45 171.602 122.866)" fill="#EEEEEE" fill-opacity="0.9"/>
<rect x="170.323" y="139.482" width="12.6535" height="12.6535" transform="rotate(-45 170.323 139.482)" fill="#EEEEEE" fill-opacity="0.9"/>
<rect x="170.324" y="157.376" width="12.6535" height="12.6535" transform="rotate(-45 170.324 157.376)" fill="#EEEEEE" fill-opacity="0.9"/>
<rect x="170.323" y="175.272" width="12.6535" height="12.6535" transform="rotate(-45 170.323 175.272)" fill="#EEEEEE" fill-opacity="0.9"/>
<rect x="152.429" y="175.271" width="12.6535" height="12.6535" transform="rotate(-45 152.429 175.271)" fill="#EEEEEE" fill-opacity="0.9"/>
<rect x="134.534" y="175.271" width="12.6535" height="12.6535" transform="rotate(-45 134.534 175.271)" fill="#EEEEEE" fill-opacity="0.9"/>
<rect x="117.917" y="176.55" width="12.6535" height="12.6535" transform="rotate(-45 117.917 176.55)" fill="#EEEEEE" fill-opacity="0.9"/>
<rect x="100.023" y="176.549" width="12.6535" height="12.6535" transform="rotate(-45 100.023 176.549)" fill="#EEEEEE" fill-opacity="0.9"/>
<rect x="100.023" y="158.655" width="12.6535" height="12.6535" transform="rotate(-45 100.023 158.655)" fill="#EEEEEE" fill-opacity="0.9"/>
<rect x="101.301" y="142.038" width="12.6535" height="12.6535" transform="rotate(-45 101.301 142.038)" fill="#EEEEEE" fill-opacity="0.9"/>
<rect x="117.918" y="140.76" width="12.6535" height="12.6535" transform="rotate(-45 117.918 140.76)" fill="#EEEEEE" fill-opacity="0.9"/>
<rect x="135.812" y="140.76" width="12.6535" height="12.6535" transform="rotate(-45 135.812 140.76)" fill="#EEEEEE" fill-opacity="0.9"/>
<rect x="135.812" y="158.655" width="12.6535" height="12.6535" transform="rotate(-45 135.812 158.655)" fill="#EEEEEE" fill-opacity="0.9"/>
<rect x="153.707" y="140.761" width="12.6535" height="12.6535" transform="rotate(-45 153.707 140.761)" fill="#EEEEEE" fill-opacity="0.9"/>
<rect x="135.812" y="122.865" width="12.6535" height="12.6535" transform="rotate(-45 135.812 122.865)" fill="#EEEEEE" fill-opacity="0.9"/>
<rect x="226.564" y="231.512" width="12.6535" height="12.6535" transform="rotate(-45 226.564 231.512)" fill="#EEEEEE" fill-opacity="0.9"/>
<rect x="226.565" y="249.407" width="12.6535" height="12.6535" transform="rotate(-45 226.565 249.407)" fill="#EEEEEE" fill-opacity="0.9"/>
<rect x="244.459" y="231.512" width="12.6535" height="12.6535" transform="rotate(-45 244.459 231.512)" fill="#EEEEEE" fill-opacity="0.9"/>
<rect x="262.354" y="231.512" width="12.6535" height="12.6535" transform="rotate(-45 262.354 231.512)" fill="#EEEEEE" fill-opacity="0.9"/>
<rect x="280.249" y="231.512" width="12.6535" height="12.6535" transform="rotate(-45 280.249 231.512)" fill="#EEEEEE" fill-opacity="0.9"/>
<rect x="296.865" y="230.234" width="12.6535" height="12.6535" transform="rotate(-45 296.865 230.234)" fill="#EEEEEE" fill-opacity="0.9"/>
<rect x="296.865" y="248.129" width="12.6535" height="12.6535" transform="rotate(-45 296.865 248.129)" fill="#EEEEEE" fill-opacity="0.9"/>
<rect x="295.587" y="264.746" width="12.6535" height="12.6535" transform="rotate(-45 295.587 264.746)" fill="#EEEEEE" fill-opacity="0.9"/>
<rect x="295.587" y="282.64" width="12.6535" height="12.6535" transform="rotate(-45 295.587 282.64)" fill="#EEEEEE" fill-opacity="0.9"/>
<rect x="295.587" y="300.535" width="12.6535" height="12.6535" transform="rotate(-45 295.587 300.535)" fill="#EEEEEE" fill-opacity="0.9"/>
<rect x="277.692" y="300.535" width="12.6535" height="12.6535" transform="rotate(-45 277.692 300.535)" fill="#EEEEEE" fill-opacity="0.9"/>
<rect x="259.797" y="300.535" width="12.6535" height="12.6535" transform="rotate(-45 259.797 300.535)" fill="#EEEEEE" fill-opacity="0.9"/>
<rect x="243.181" y="301.813" width="12.6535" height="12.6535" transform="rotate(-45 243.181 301.813)" fill="#EEEEEE" fill-opacity="0.9"/>
<rect x="225.286" y="301.813" width="12.6535" height="12.6535" transform="rotate(-45 225.286 301.813)" fill="#EEEEEE" fill-opacity="0.9"/>
<rect x="225.286" y="283.918" width="12.6535" height="12.6535" transform="rotate(-45 225.286 283.918)" fill="#EEEEEE" fill-opacity="0.9"/>
<rect x="226.564" y="267.302" width="12.6535" height="12.6535" transform="rotate(-45 226.564 267.302)" fill="#EEEEEE" fill-opacity="0.9"/>
<rect x="243.181" y="266.023" width="12.6535" height="12.6535" transform="rotate(-45 243.181 266.023)" fill="#EEEEEE" fill-opacity="0.9"/>
<rect x="261.076" y="266.023" width="12.6535" height="12.6535" transform="rotate(-45 261.076 266.023)" fill="#EEEEEE" fill-opacity="0.9"/>
<rect x="261.076" y="283.918" width="12.6535" height="12.6535" transform="rotate(-45 261.076 283.918)" fill="#EEEEEE" fill-opacity="0.9"/>
<rect x="278.971" y="266.023" width="12.6535" height="12.6535" transform="rotate(-45 278.971 266.023)" fill="#EEEEEE" fill-opacity="0.9"/>
<rect x="261.076" y="248.129" width="12.6535" height="12.6535" transform="rotate(-45 261.076 248.129)" fill="#EEEEEE" fill-opacity="0.9"/>
<rect x="46.3386" y="-2.39844" width="12.6535" height="12.6535" transform="rotate(-45 46.3386 -2.39844)" fill="#EEEEEE" fill-opacity="0.9"/>
<rect x="45.0607" y="14.2188" width="12.6535" height="12.6535" transform="rotate(-45 45.0607 14.2188)" fill="#EEEEEE" fill-opacity="0.9"/>
<rect x="45.0608" y="32.1128" width="12.6535" height="12.6535" transform="rotate(-45 45.0608 32.1128)" fill="#EEEEEE" fill-opacity="0.9"/>
<rect x="45.0607" y="50.0078" width="12.6535" height="12.6535" transform="rotate(-45 45.0607 50.0078)" fill="#EEEEEE" fill-opacity="0.9"/>
<rect x="27.1661" y="50.0073" width="12.6535" height="12.6535" transform="rotate(-45 27.1661 50.0073)" fill="#EEEEEE" fill-opacity="0.9"/>
<rect x="9.27136" y="50.0073" width="12.6535" height="12.6535" transform="rotate(-45 9.27136 50.0073)" fill="#EEEEEE" fill-opacity="0.9"/>
<rect x="-7.34558" y="51.2856" width="12.6535" height="12.6535" transform="rotate(-45 -7.34558 51.2856)" fill="#EEEEEE" fill-opacity="0.9"/>
<rect x="-7.34558" y="15.4961" width="12.6535" height="12.6535" transform="rotate(-45 -7.34558 15.4961)" fill="#EEEEEE" fill-opacity="0.9"/>
<rect x="10.5496" y="15.4966" width="12.6535" height="12.6535" transform="rotate(-45 10.5496 15.4966)" fill="#EEEEEE" fill-opacity="0.9"/>
<rect x="10.5493" y="33.3911" width="12.6535" height="12.6535" transform="rotate(-45 10.5493 33.3911)" fill="#EEEEEE" fill-opacity="0.9"/>
<rect x="28.444" y="15.4961" width="12.6535" height="12.6535" transform="rotate(-45 28.444 15.4961)" fill="#EEEEEE" fill-opacity="0.9"/>
<rect x="10.5492" y="-2.39844" width="12.6535" height="12.6535" transform="rotate(-45 10.5492 -2.39844)" fill="#EEEEEE" fill-opacity="0.9"/>
<rect x="1.60205" y="241.737" width="12.6535" height="12.6535" transform="rotate(-45 1.60205 241.737)" fill="#EEEEEE" fill-opacity="0.9"/>
<rect x="19.4967" y="241.737" width="12.6535" height="12.6535" transform="rotate(-45 19.4967 241.737)" fill="#EEEEEE" fill-opacity="0.9"/>
<rect x="36.1132" y="240.458" width="12.6535" height="12.6535" transform="rotate(-45 36.1132 240.458)" fill="#EEEEEE" fill-opacity="0.9"/>
<rect x="36.1133" y="258.354" width="12.6535" height="12.6535" transform="rotate(-45 36.1133 258.354)" fill="#EEEEEE" fill-opacity="0.9"/>
<rect x="34.8347" y="274.97" width="12.6535" height="12.6535" transform="rotate(-45 34.8347 274.97)" fill="#EEEEEE" fill-opacity="0.9"/>
<rect x="34.835" y="292.864" width="12.6535" height="12.6535" transform="rotate(-45 34.835 292.864)" fill="#EEEEEE" fill-opacity="0.9"/>
<rect x="34.8351" y="310.759" width="12.6535" height="12.6535" transform="rotate(-45 34.8351 310.759)" fill="#EEEEEE" fill-opacity="0.9"/>
<rect x="16.9403" y="310.759" width="12.6535" height="12.6535" transform="rotate(-45 16.9403 310.759)" fill="#EEEEEE" fill-opacity="0.9"/>
<rect x="-0.954834" y="310.759" width="12.6535" height="12.6535" transform="rotate(-45 -0.954834 310.759)" fill="#EEEEEE" fill-opacity="0.9"/>
<rect x="0.32373" y="276.248" width="12.6535" height="12.6535" transform="rotate(-45 0.32373 276.248)" fill="#EEEEEE" fill-opacity="0.9"/>
<rect x="0.323975" y="294.143" width="12.6535" height="12.6535" transform="rotate(-45 0.323975 294.143)" fill="#EEEEEE" fill-opacity="0.9"/>
<rect x="18.2185" y="276.249" width="12.6535" height="12.6535" transform="rotate(-45 18.2185 276.249)" fill="#EEEEEE" fill-opacity="0.9"/>
<rect x="0.323853" y="258.353" width="12.6535" height="12.6535" transform="rotate(-45 0.323853 258.353)" fill="#EEEEEE" fill-opacity="0.9"/>
<rect x="91.0763" y="367.001" width="12.6535" height="12.6535" transform="rotate(-45 91.0763 367.001)" fill="#EEEEEE" fill-opacity="0.9"/>
<rect x="91.0765" y="384.896" width="12.6535" height="12.6535" transform="rotate(-45 91.0765 384.896)" fill="#EEEEEE" fill-opacity="0.9"/>
<rect x="108.971" y="367.001" width="12.6535" height="12.6535" transform="rotate(-45 108.971 367.001)" fill="#EEEEEE" fill-opacity="0.9"/>
<rect x="126.866" y="367.001" width="12.6535" height="12.6535" transform="rotate(-45 126.866 367.001)" fill="#EEEEEE" fill-opacity="0.9"/>
<rect x="144.76" y="367.001" width="12.6535" height="12.6535" transform="rotate(-45 144.76 367.001)" fill="#EEEEEE" fill-opacity="0.9"/>
<rect x="161.377" y="365.723" width="12.6535" height="12.6535" transform="rotate(-45 161.377 365.723)" fill="#EEEEEE" fill-opacity="0.9"/>
<rect x="161.377" y="383.618" width="12.6535" height="12.6535" transform="rotate(-45 161.377 383.618)" fill="#EEEEEE" fill-opacity="0.9"/>
<rect x="160.099" y="400.234" width="12.6535" height="12.6535" transform="rotate(-45 160.099 400.234)" fill="#EEEEEE" fill-opacity="0.9"/>
<rect x="91.0759" y="402.79" width="12.6535" height="12.6535" transform="rotate(-45 91.0759 402.79)" fill="#EEEEEE" fill-opacity="0.9"/>
<rect x="107.693" y="401.512" width="12.6535" height="12.6535" transform="rotate(-45 107.693 401.512)" fill="#EEEEEE" fill-opacity="0.9"/>
<rect x="125.587" y="401.512" width="12.6535" height="12.6535" transform="rotate(-45 125.587 401.512)" fill="#EEEEEE" fill-opacity="0.9"/>
<rect x="143.482" y="401.512" width="12.6535" height="12.6535" transform="rotate(-45 143.482 401.512)" fill="#EEEEEE" fill-opacity="0.9"/>
<rect x="125.588" y="383.617" width="12.6535" height="12.6535" transform="rotate(-45 125.588 383.617)" fill="#EEEEEE" fill-opacity="0.9"/>
<path fill-rule="evenodd" clip-rule="evenodd" d="M359.496 236.624L335.211 260.91L335.211 260.91L344.158 269.857L359.497 285.196L368.444 276.248L353.105 260.91L368.444 245.571L359.496 236.624Z" fill="#EEEEEE" fill-opacity="0.9"/>
<path fill-rule="evenodd" clip-rule="evenodd" d="M374.835 221.286L399.121 197L408.068 205.947L408.068 205.947L423.406 221.286L414.459 230.233L399.121 214.895L383.782 230.233L374.835 221.286Z" fill="#EEEEEE" fill-opacity="0.9"/>
<path fill-rule="evenodd" clip-rule="evenodd" d="M424.685 301.812L400.399 326.098L391.452 317.15L391.452 317.15L376.114 301.812L385.061 292.864L400.4 308.203L415.738 292.865L424.685 301.812Z" fill="#EEEEEE" fill-opacity="0.9"/>
<path fill-rule="evenodd" clip-rule="evenodd" d="M391.451 237.902L400.399 228.955L409.346 237.902L401.677 245.571L417.016 260.91L424.685 253.241L433.632 262.188L424.685 271.135L417.016 263.466L401.677 278.804L409.346 286.474L400.399 295.421L391.452 286.474L399.121 278.805L383.782 263.466L376.113 271.135L367.166 262.188L376.113 253.241L383.782 260.91L399.121 245.571L391.451 237.902Z" fill="#EEEEEE" fill-opacity="0.9"/>
<path fill-rule="evenodd" clip-rule="evenodd" d="M108.97 -13.9025L84.6842 10.3832L84.6844 10.3834L84.6842 10.3836L108.97 34.6693L117.917 25.722L102.579 10.3834L117.917 -4.95517L108.97 -13.9025Z" fill="#EEEEEE" fill-opacity="0.9"/>
<path fill-rule="evenodd" clip-rule="evenodd" d="M189.496 35.9478L213.782 11.6621L204.835 2.71475L204.835 2.71479L189.496 -12.6237L180.549 -3.67632L195.887 11.6621L180.549 27.0004L189.496 35.9478Z" fill="#EEEEEE" fill-opacity="0.9"/>
<path fill-rule="evenodd" clip-rule="evenodd" d="M174.158 51.2861L149.872 75.5718L140.925 66.6244L140.925 66.6244L125.586 51.2858L134.534 42.3385L149.872 57.677L165.211 42.3387L174.158 51.2861Z" fill="#EEEEEE" fill-opacity="0.9"/>
<path fill-rule="evenodd" clip-rule="evenodd" d="M116.639 11.6616L125.587 2.71426L133.256 10.3834L148.594 -4.95511L140.925 -12.6242L149.873 -21.5716L158.82 -12.6242L151.15 -4.95483L166.489 10.3835L174.158 2.7143L183.105 11.6617L174.158 20.609L166.489 12.9398L151.151 28.278L158.82 35.947L149.872 44.8944L140.925 35.947L148.594 28.278L133.256 12.9399L125.587 20.609L116.639 11.6616Z" fill="#EEEEEE" fill-opacity="0.9"/>
<path fill-rule="evenodd" clip-rule="evenodd" d="M218.895 144.595L234.233 159.933L243.181 150.985L227.843 135.647L243.181 120.309L234.234 111.362L218.895 126.7L218.895 126.7L209.948 135.647L209.948 135.647L218.895 144.595Z" fill="#EEEEEE" fill-opacity="0.9"/>
<path fill-rule="evenodd" clip-rule="evenodd" d="M273.857 71.7373L298.143 96.023L289.196 104.97L273.858 89.6323L258.519 104.971L249.572 96.0234L264.91 80.6849L264.91 80.6846L273.857 71.7373Z" fill="#EEEEEE" fill-opacity="0.9"/>
<path fill-rule="evenodd" clip-rule="evenodd" d="M314.76 161.212L339.046 136.926L339.045 136.926L339.046 136.926L314.76 112.64L305.813 121.587L321.151 136.926L305.812 152.264L314.76 161.212Z" fill="#EEEEEE" fill-opacity="0.9"/>
<path fill-rule="evenodd" clip-rule="evenodd" d="M299.422 176.549L275.136 200.835L266.189 191.888L266.189 191.887L250.85 176.549L259.798 167.602L275.136 182.94L290.474 167.602L299.422 176.549Z" fill="#EEEEEE" fill-opacity="0.9"/>
<path fill-rule="evenodd" clip-rule="evenodd" d="M266.188 112.639L275.136 103.692L284.083 112.639L276.414 120.308L291.752 135.647L299.422 127.977L308.369 136.925L299.422 145.872L291.752 138.203L276.414 153.541L284.083 161.211L275.136 170.158L266.188 161.211L273.858 153.542L258.519 138.203L250.85 145.872L241.903 136.925L250.85 127.977L258.519 135.647L273.858 120.308L266.188 112.639Z" fill="#EEEEEE" fill-opacity="0.9"/>
<path fill-rule="evenodd" clip-rule="evenodd" d="M353.105 10.3837L368.444 25.7217L377.391 16.7744L362.053 1.43635L377.391 -13.9019L368.444 -22.8493L353.105 -7.51101L353.105 -7.5113L344.158 1.43605L344.158 1.43635L344.158 1.43638L353.105 10.3837L353.105 10.3837Z" fill="#EEEEEE" fill-opacity="0.9"/>
<path fill-rule="evenodd" clip-rule="evenodd" d="M433.632 42.3383L409.346 66.624L400.399 57.6767L400.399 57.6766L385.061 42.3382L394.008 33.3909L409.346 48.7292L424.685 33.391L433.632 42.3383Z" fill="#EEEEEE" fill-opacity="0.9"/>
<path fill-rule="evenodd" clip-rule="evenodd" d="M376.113 2.71387L385.06 -6.23349L392.729 1.43586L408.068 -13.9026L400.399 -21.5718L409.346 -30.5192L418.293 -21.5718L410.624 -13.9025L425.963 1.436L433.632 -6.23327L442.579 2.71409L433.632 11.6614L425.963 3.99217L410.624 19.3307L418.293 27L409.346 35.9473L400.399 27L408.068 19.3307L392.729 3.99209L385.06 11.6612L376.113 2.71387Z" fill="#EEEEEE" fill-opacity="0.9"/>
<path fill-rule="evenodd" clip-rule="evenodd" d="M225.286 370.835L201 395.121L201.001 395.121L201.001 395.121L225.286 419.407L234.234 410.459L218.895 395.121L234.233 379.782L225.286 370.835Z" fill="#EEEEEE" fill-opacity="0.9"/>
<path fill-rule="evenodd" clip-rule="evenodd" d="M240.624 355.497L264.91 331.211L264.91 331.212L264.91 331.212L289.196 355.497L280.249 364.445L264.91 349.106L249.572 364.444L240.624 355.497Z" fill="#EEEEEE" fill-opacity="0.9"/>
<path fill-rule="evenodd" clip-rule="evenodd" d="M305.813 420.686L330.099 396.4L330.099 396.4L330.099 396.4L305.813 372.114L296.866 381.062L312.204 396.4L296.866 411.738L305.813 420.686Z" fill="#EEEEEE" fill-opacity="0.9"/>
<path fill-rule="evenodd" clip-rule="evenodd" d="M257.241 372.113L266.188 363.166L275.136 372.113L267.467 379.782L282.805 395.121L290.474 387.452L299.422 396.4L290.474 405.347L282.805 397.678L267.467 413.016L275.136 420.685L266.189 429.632L257.241 420.685L264.911 413.016L249.572 397.677L241.903 405.346L232.956 396.399L241.903 387.452L249.572 395.121L264.91 379.783L257.241 372.113Z" fill="#EEEEEE" fill-opacity="0.9"/>
<path fill-rule="evenodd" clip-rule="evenodd" d="M-9.90202 104.97L14.3837 80.6839L23.331 89.6312L23.3308 89.6315L38.6693 104.97L29.722 113.917L14.3834 98.5789L-0.954665 113.917L-9.90202 104.97Z" fill="#EEEEEE" fill-opacity="0.9"/>
<path fill-rule="evenodd" clip-rule="evenodd" d="M55.286 170.158L79.5717 145.873L79.5714 145.872L79.5715 145.872L55.2858 121.587L46.3384 130.534L61.677 145.872L46.3386 161.211L55.286 170.158Z" fill="#EEEEEE" fill-opacity="0.9"/>
<path fill-rule="evenodd" clip-rule="evenodd" d="M39.9478 185.496L15.6621 209.782L15.662 209.782L15.6619 209.782L-8.62382 185.496L0.323536 176.549L15.662 191.887L31.0004 176.549L39.9478 185.496Z" fill="#EEEEEE" fill-opacity="0.9"/>
<path fill-rule="evenodd" clip-rule="evenodd" d="M-17.571 145.872L-8.62369 136.925L-0.954653 144.594L14.3836 129.255L6.71471 121.587L15.6621 112.639L24.6094 121.587L16.9404 129.256L32.2784 144.594L39.9475 136.925L48.8949 145.872L39.9475 154.819L32.2784 147.15L16.9403 162.488L24.6093 170.157L15.6619 179.105L6.71457 170.157L14.3836 162.488L-0.954464 147.15L-8.62369 154.819L-17.571 145.872Z" fill="#EEEEEE" fill-opacity="0.9"/>
<path fill-rule="evenodd" clip-rule="evenodd" d="M84.6849 278.805L100.023 294.143L108.97 285.195L93.6322 269.857L108.97 254.519L100.023 245.572L84.6849 260.91L84.6846 260.91L75.7372 269.857L75.7375 269.857L75.7374 269.857L84.6848 278.805L84.6849 278.805Z" fill="#EEEEEE" fill-opacity="0.9"/>
<path fill-rule="evenodd" clip-rule="evenodd" d="M148.595 214.895L163.933 230.233L154.985 239.18L139.647 223.843L124.309 239.181L115.362 230.233L130.7 214.895L130.7 214.895L139.647 205.947L139.647 205.948L148.595 214.895Z" fill="#EEEEEE" fill-opacity="0.9"/>
<path fill-rule="evenodd" clip-rule="evenodd" d="M180.549 295.421L204.835 271.135L204.835 271.135L204.835 271.135L180.55 246.849L171.602 255.797L186.941 271.135L171.602 286.474L180.549 295.421Z" fill="#EEEEEE" fill-opacity="0.9"/>
<path fill-rule="evenodd" clip-rule="evenodd" d="M140.926 335.045L140.926 335.045L131.978 326.098L131.978 326.097L116.64 310.759L125.587 301.812L140.926 317.15L156.264 301.812L165.211 310.759L149.873 326.097L140.926 335.045Z" fill="#EEEEEE" fill-opacity="0.9"/>
<path fill-rule="evenodd" clip-rule="evenodd" d="M107.692 271.135L116.639 262.187L124.309 269.857L139.647 254.519L131.978 246.85L140.925 237.902L149.873 246.85L142.204 254.519L157.542 269.857L165.211 262.188L174.158 271.136L165.211 280.083L157.542 272.413L142.203 287.752L149.873 295.421L140.925 304.368L131.978 295.421L139.647 287.752L124.309 272.413L116.639 280.082L107.692 271.135Z" fill="#EEEEEE" fill-opacity="0.9"/>
<path fill-rule="evenodd" clip-rule="evenodd" d="M14.3842 349.106L29.7222 364.444L20.7749 373.391L5.43688 358.053L-9.90145 373.392L-18.8488 364.444L-3.51048 349.106L-3.51084 349.106L5.43652 340.158L5.43688 340.159L14.3842 349.106Z" fill="#EEEEEE" fill-opacity="0.9"/>
<path fill-rule="evenodd" clip-rule="evenodd" d="M46.3388 429.632L70.6245 405.346L70.6245 405.346L70.6247 405.346L46.339 381.06L37.3917 390.008L52.73 405.346L37.3915 420.685L46.3388 429.632Z" fill="#EEEEEE" fill-opacity="0.9"/>
<path fill-rule="evenodd" clip-rule="evenodd" d="M-26.5184 405.346L-17.5711 396.398L-9.9018 404.068L5.43649 388.729L-2.23249 381.06L6.71487 372.113L15.6622 381.06L7.99324 388.729L23.3314 404.068L31.0006 396.398L39.948 405.346L31.0006 414.293L23.3314 406.624L7.99295 421.962L15.6622 429.632L6.71487 438.579L-2.23249 429.632L5.43678 421.962L-9.90177 406.624L-17.5711 414.293L-26.5184 405.346Z" fill="#EEEEEE" fill-opacity="0.9"/>
</g>
</svg>
