<svg width="236" height="78" viewBox="0 0 236 78" fill="none" xmlns="http://www.w3.org/2000/svg">
<path d="M57.2928 31V8.6H63.5008L72.4608 23.224H69.1968L77.9008 8.6H84.1088L84.1728 31H77.2928L77.2288 18.968H78.3168L72.3647 28.984H69.0368L62.8288 18.968H64.1728V31H57.2928ZM94.736 16.92H104.72V22.36H94.736V16.92ZM95.248 25.304H106.448V31H87.824V8.6H106.032V14.296H95.248V25.304ZM109.355 31V8.6H120.395C122.891 8.6 125.089 9.05867 126.987 9.976C128.886 10.872 130.369 12.152 131.435 13.816C132.502 15.48 133.035 17.464 133.035 19.768C133.035 22.0933 132.502 24.0987 131.435 25.784C130.369 27.448 128.886 28.7387 126.987 29.656C125.089 30.552 122.891 31 120.395 31H109.355ZM116.907 25.112H120.075C121.142 25.112 122.07 24.9093 122.859 24.504C123.67 24.0987 124.299 23.5013 124.747 22.712C125.195 21.9013 125.419 20.92 125.419 19.768C125.419 18.6373 125.195 17.6773 124.747 16.888C124.299 16.0987 123.67 15.5013 122.859 15.096C122.07 14.6907 121.142 14.488 120.075 14.488H116.907V25.112ZM135.793 31V8.6H143.345V31H135.793ZM144.548 31L154.34 8.6H161.764L171.556 31H163.748L156.516 12.184H159.46L152.228 31H144.548ZM150.372 27.096L152.292 21.656H162.596L164.516 27.096H150.372ZM37.824 70V47.6H48.608C50.6987 47.6 52.5013 47.9413 54.016 48.624C55.552 49.3067 56.736 50.288 57.568 51.568C58.4 52.8267 58.816 54.32 58.816 56.048C58.816 57.776 58.4 59.2693 57.568 60.528C56.736 61.7867 55.552 62.768 54.016 63.472C52.5013 64.1547 50.6987 64.496 48.608 64.496H42.016L45.376 61.264V70H37.824ZM45.376 62.096L42.016 58.672H48.128C49.1733 58.672 49.9413 58.4373 50.432 57.968C50.944 57.4987 51.2 56.8587 51.2 56.048C51.2 55.2373 50.944 54.5973 50.432 54.128C49.9413 53.6587 49.1733 53.424 48.128 53.424H42.016L45.376 50V62.096ZM57.7357 70L67.5278 47.6H74.9518L84.7438 70H76.9358L69.7038 51.184H72.6478L65.4158 70H57.7357ZM63.5598 66.096L65.4798 60.656H75.7838L77.7038 66.096H63.5598ZM114.657 70V53.456H108.097V47.6H128.769V53.456H122.209V70H114.657ZM130.73 70V47.6H136.938L148.33 61.232H145.45V47.6H152.81V70H146.602L135.21 56.368H138.09V70H130.73ZM163.361 55.92H173.345V61.36H163.361V55.92ZM163.873 64.304H175.073V70H156.449V47.6H174.657V53.296H163.873V64.304ZM177.98 70V47.6H188.764C190.855 47.6 192.658 47.9413 194.172 48.624C195.708 49.3067 196.892 50.288 197.724 51.568C198.556 52.8267 198.972 54.32 198.972 56.048C198.972 57.776 198.556 59.2693 197.724 60.528C196.892 61.7653 195.708 62.7147 194.172 63.376C192.658 64.0373 190.855 64.368 188.764 64.368H182.172L185.532 61.264V70H177.98ZM191.388 70L185.884 61.84H193.884L199.452 70H191.388ZM185.532 62.096L182.172 58.672H188.284C189.33 58.672 190.098 58.4373 190.588 57.968C191.1 57.4987 191.356 56.8587 191.356 56.048C191.356 55.2373 191.1 54.5973 190.588 54.128C190.098 53.6587 189.33 53.424 188.284 53.424H182.172L185.532 50V62.096Z" fill="white"/>
<path d="M85.949 70V47.6H96.733C98.8237 47.6 100.626 47.9413 102.141 48.624C103.677 49.3067 104.861 50.288 105.693 51.568C106.525 52.8267 106.941 54.32 106.941 56.048C106.941 57.776 106.525 59.2693 105.693 60.528C104.861 61.7653 103.677 62.7147 102.141 63.376C100.626 64.0373 98.8237 64.368 96.733 64.368H90.141L93.501 61.264V70H85.949ZM99.357 70L93.853 61.84H101.853L107.421 70H99.357ZM93.501 62.096L90.141 58.672H96.253C97.2983 58.672 98.0663 58.4373 98.557 57.968C99.069 57.4987 99.325 56.8587 99.325 56.048C99.325 55.2373 99.069 54.5973 98.557 54.128C98.0663 53.6587 97.2983 53.424 96.253 53.424H90.141L93.501 50V62.096Z" fill="#9C4A9A"/>
<path d="M63.6316 8H57.1886H57V31H77.3513H85V8H78.1281L70.9597 20.0163L63.6316 8Z" fill="#488267"/>
<path d="M57 70H85L74.7561 47H66.4621L57 70Z" fill="#FCAA25"/>
<ellipse cx="95" cy="56" rx="8" ry="7" fill="#9C4A9A"/>
<path d="M216.571 45H214.857V51.2857H216.571V52.4285H218.286V54.1428H220V55.8571H221.143V49.5714H219.429V48.4286H218.286V46.7143H216.571V45Z" fill="#E62C20"/>
<path d="M227.429 45H229.143V51.2857H227.429V52.4285H225.714V54.1428H224V55.8571H222.857V49.5714H224.572V48.4286H225.714V46.7143H227.429V45Z" fill="#E62C20"/>
<path d="M225.143 56.4285V58.1428H231.429V56.4285H232.572V54.7143H234.286V53H236V51.8571H229.714V53.5714H228.572V54.7143H226.857V56.4285H225.143Z" fill="#E62C20"/>
<path d="M236 64.4288V66.1431H229.714V64.4288H228.571V62.7145H226.857V61.0002H225.143V59.8574H231.429V61.5717H232.571V62.7145H234.286V64.4288H236Z" fill="#E62C20"/>
<path d="M227.429 73H229.143V66.7143H227.429V65.5715H225.714V63.8572H224V62.1429H222.857V68.4286H224.572V69.5714H225.714V71.2857H227.429V73Z" fill="#E62C20"/>
<path d="M216.571 73H214.857V66.7143H216.571V65.5715H218.286V63.8572H220V62.1429H221.143V68.4286H219.428V69.5714H218.286V71.2857H216.571V73Z" fill="#E62C20"/>
<path d="M208 53.5715V51.8572H214.286V53.5715H215.429V55.2857H217.143V57H218.857V58.1429H212.571V56.4286H211.429V55.2857H209.714V53.5715H208Z" fill="#E62C20"/>
<path d="M218.857 61.5715L218.857 59.8572L212.571 59.8572L212.571 61.5715L211.429 61.5715L211.429 63.2857L209.714 63.2857L209.714 65L208 65L208 66.1429L214.286 66.1429L214.286 64.4286L215.429 64.4286L215.429 63.2857L217.143 63.2857L217.143 61.5715L218.857 61.5715Z" fill="#E62C20"/>
<path d="M8.57146 45H6.85718L6.85718 51.2857H8.57146V52.4285H10.2857V54.1428H12V55.8571H13.1429L13.1429 49.5714H11.4286V48.4286H10.2857V46.7143H8.57146V45Z" fill="#E62C20"/>
<path d="M19.4285 45H21.1428V51.2857H19.4285V52.4285H17.7143V54.1428H16V55.8571H14.8571L14.8571 49.5714H16.5714V48.4286H17.7143V46.7143H19.4285V45Z" fill="#E62C20"/>
<path d="M17.1428 56.4285V58.1428H23.4285V56.4285H24.5714V54.7143H26.2857V53H28V51.8571H21.7142V53.5714H20.5714V54.7143H18.8571V56.4285H17.1428Z" fill="#E62C20"/>
<path d="M28 64.4288V66.1431H21.7143V64.4288H20.5714V62.7145H18.8571V61.0002H17.1429V59.8574H23.4286V61.5717H24.5714V62.7145H26.2857V64.4288H28Z" fill="#E62C20"/>
<path d="M19.4285 73H21.1428V66.7143H19.4285V65.5715H17.7143V63.8572H16V62.1429H14.8571L14.8571 68.4286H16.5714V69.5714H17.7143V71.2857H19.4285V73Z" fill="#E62C20"/>
<path d="M8.57122 73H6.85693L6.85693 66.7143H8.57122L8.57122 65.5715H10.2855L10.2855 63.8572H11.9998V62.1429H13.1426L13.1426 68.4286H11.4284V69.5714H10.2855V71.2857H8.57122V73Z" fill="#E62C20"/>
<path d="M0 53.5715L0 51.8572H6.28571L6.28571 53.5715H7.42857V55.2857H9.14286V57H10.8571V58.1429H4.57143L4.57143 56.4286H3.42857L3.42857 55.2857H1.71429L1.71429 53.5715H0Z" fill="#E62C20"/>
<path d="M10.8572 61.5715L10.8572 59.8572L4.57146 59.8572L4.57147 61.5715L3.42861 61.5715L3.42861 63.2857L1.71432 63.2857L1.71432 65L3.7433e-05 65L3.75544e-05 66.1429L6.28575 66.1429L6.28575 64.4286L7.42861 64.4286L7.42861 63.2857L9.14289 63.2857L9.14289 61.5715L10.8572 61.5715Z" fill="#E62C20"/>
</svg>
