<svg width="434" height="59" viewBox="0 0 434 59" fill="none" xmlns="http://www.w3.org/2000/svg">
<path d="M2.736 47V13.4H12.048L25.488 35.336H20.592L33.648 13.4H42.96L43.056 47H32.736L32.64 28.952H34.272L25.344 43.976H20.352L11.04 28.952H13.056V47H2.736ZM58.9009 25.88H73.8769V34.04H58.9009V25.88ZM59.6689 38.456H76.4689V47H48.5329V13.4H75.8449V21.944H59.6689V38.456ZM80.8298 47V13.4H97.3898C101.134 13.4 104.43 14.088 107.278 15.464C110.126 16.808 112.35 18.728 113.95 21.224C115.55 23.72 116.35 26.696 116.35 30.152C116.35 33.64 115.55 36.648 113.95 39.176C112.35 41.672 110.126 43.608 107.278 44.984C104.43 46.328 101.134 47 97.3898 47H80.8298ZM92.1578 38.168H96.9098C98.5098 38.168 99.9018 37.864 101.086 37.256C102.302 36.648 103.246 35.752 103.918 34.568C104.59 33.352 104.926 31.88 104.926 30.152C104.926 28.456 104.59 27.016 103.918 25.832C103.246 24.648 102.302 23.752 101.086 23.144C99.9018 22.536 98.5098 22.232 96.9098 22.232H92.1578V38.168ZM120.486 47V13.4H131.814V47H120.486ZM133.619 47L148.307 13.4H159.443L174.131 47H162.419L151.571 18.776H155.987L145.139 47H133.619ZM142.355 41.144L145.235 32.984H160.691L163.571 41.144H142.355ZM190.33 47V13.4H206.506C209.642 13.4 212.346 13.912 214.618 14.936C216.922 15.96 218.698 17.432 219.946 19.352C221.194 21.24 221.818 23.48 221.818 26.072C221.818 28.664 221.194 30.904 219.946 32.792C218.698 34.68 216.922 36.152 214.618 37.208C212.346 38.232 209.642 38.744 206.506 38.744H196.618L201.658 33.896V47H190.33ZM201.658 35.144L196.618 30.008H205.786C207.354 30.008 208.506 29.656 209.242 28.952C210.01 28.248 210.394 27.288 210.394 26.072C210.394 24.856 210.01 23.896 209.242 23.192C208.506 22.488 207.354 22.136 205.786 22.136H196.618L201.658 17V35.144ZM220.197 47L234.885 13.4H246.021L260.709 47H248.997L238.149 18.776H242.565L231.717 47H220.197ZM228.933 41.144L231.813 32.984H247.269L250.149 41.144H228.933ZM305.579 47V22.184H295.739V13.4H326.747V22.184H316.907V47H305.579ZM329.689 47V13.4H339.001L356.089 33.848H351.769V13.4H362.809V47H353.497L336.409 26.552H340.729V47H329.689ZM378.635 25.88H393.611V34.04H378.635V25.88ZM379.403 38.456H396.203V47H368.267V13.4H395.579V21.944H379.403V38.456ZM400.564 47V13.4H416.74C419.876 13.4 422.58 13.912 424.852 14.936C427.156 15.96 428.932 17.432 430.18 19.352C431.428 21.24 432.052 23.48 432.052 26.072C432.052 28.664 431.428 30.904 430.18 32.792C428.932 34.648 427.156 36.072 424.852 37.064C422.58 38.056 419.876 38.552 416.74 38.552H406.852L411.892 33.896V47H400.564ZM420.676 47L412.42 34.76H424.42L432.772 47H420.676ZM411.892 35.144L406.852 30.008H416.02C417.588 30.008 418.74 29.656 419.476 28.952C420.244 28.248 420.628 27.288 420.628 26.072C420.628 24.856 420.244 23.896 419.476 23.192C418.74 22.488 417.588 22.136 416.02 22.136H406.852L411.892 17V35.144Z" fill="white"/>
<path d="M262.517 47V13.4H278.693C281.829 13.4 284.533 13.912 286.805 14.936C289.109 15.96 290.885 17.432 292.133 19.352C293.381 21.24 294.005 23.48 294.005 26.072C294.005 28.664 293.381 30.904 292.133 32.792C290.885 34.648 289.109 36.072 286.805 37.064C284.533 38.056 281.829 38.552 278.693 38.552H268.805L273.845 33.896V47H262.517ZM282.629 47L274.373 34.76H286.373L294.725 47H282.629ZM273.845 35.144L268.805 30.008H277.973C279.541 30.008 280.693 29.656 281.429 28.952C282.197 28.248 282.581 27.288 282.581 26.072C282.581 24.856 282.197 23.896 281.429 23.192C280.693 22.488 279.541 22.136 277.973 22.136H268.805L273.845 17V35.144Z" fill="#9C4A9A"/>
<path d="M11.9474 13H2.28297H2V47H32.5269H44V13H33.6922L22.9395 30.7633L11.9474 13Z" fill="#488267"/>
<path d="M220 47H261L246 13H233.855L220 47Z" fill="#FCAA25"/>
<ellipse cx="274.5" cy="25.5" rx="8.5" ry="7.5" fill="#9C4A9A"/>
</svg>
