<svg width="1132" height="56" viewBox="0 0 1132 56" fill="none" xmlns="http://www.w3.org/2000/svg">
<path fill-rule="evenodd" clip-rule="evenodd" d="M44.5857 0L4.84629 0L1.86217e-05 0L0 0L0 4.84627H1.86217e-05V10.6618V15.5081H4.84629H16.4773V10.6618H4.84629V4.84627H44.5857V10.6618L37.8009 10.6618L32.9547 10.6618V15.5081V20.3543H28.593H23.7467V25.2006H16.4773V30.0469H23.7467V34.8932H28.593V34.8931H32.9547V39.7394V44.5856H37.801H44.5857L44.5857 44.5857L44.5857 50.4012H4.84631V44.5856H16.4774V39.7394H4.84631H3.72433e-05V44.5856V50.4012L1.86217e-05 55.2475H49.432L49.432 55.2474L49.432 44.5857H52.8244L52.8244 50.4012L52.8244 55.2474L52.8244 55.2475H102.256V50.4012V44.5856V39.7394H97.4101H85.779V44.5856H97.4101V50.4012H57.6706L57.6706 44.5857L57.6706 44.5856H64.4554H69.3017V39.7394L69.3017 34.8932L69.3017 34.8931H73.6633V34.8932H78.5096V30.0469H85.779V25.2006H78.5096V20.3543H73.6633H69.3017V15.5081V10.6618L64.4554 10.6618L57.6706 10.6618V4.84627H97.4101V10.6618H85.779V15.5081H97.4101H102.256V10.6618V4.84627L102.256 0L97.4101 0L57.6706 0L52.8244 0V4.84627L52.8244 10.6618H49.432L49.432 0L44.5857 0ZM52.8244 39.7394V39.7394V34.8931V30.0468H57.6706H64.4554V25.2006H57.6706H52.8244V20.3543V15.5081H49.432V20.3543V25.2006H44.5857H37.8009L37.801 30.0468H44.5857H49.432V34.8931V39.7394V39.7394H52.8244ZM37.8009 15.5081H44.5857V20.3543H37.8009V15.5081ZM57.6706 20.3543V15.5081H64.4554V20.3543H57.6706ZM28.593 30.0468V25.2006H32.9547L32.9547 30.0468H28.593ZM37.801 39.7394H44.5857V34.8931H37.801V39.7394ZM73.6633 30.0468V25.2006H69.3017L69.3017 30.0468H73.6633ZM64.4554 34.8931V34.8932V39.7394H57.6706V34.8931H64.4554Z" fill="#4A8068"/>
<path fill-rule="evenodd" clip-rule="evenodd" d="M254.914 0L215.174 0L210.328 0L210.328 0V4.84627H210.328V10.6618V15.5081H215.174H226.806V10.6618H215.174V4.84627H254.914V10.6618L248.129 10.6618L243.283 10.6618V15.5081V20.3543H238.921H234.075V25.2006H226.806V30.0469H234.075V34.8932H238.921V34.8931H243.283V39.7394V44.5856H248.129H254.914L254.914 44.5857L254.914 50.4012H215.174V44.5856H226.806V39.7394H215.174H210.328V44.5856V50.4012L210.328 55.2475H259.76L259.76 55.2474L259.76 44.5857H263.153V55.2474L263.153 55.2475H312.585L312.584 50.4012V44.5856V39.7394H307.738H296.107V44.5856H307.738V50.4012H267.999V44.5857H267.999V44.5856H274.784H279.63V39.7394V34.8931H283.992V34.8932H288.838V30.0469H296.107V25.2006H288.838V20.3543H283.992H279.63V15.5081V10.6618L274.784 10.6618L267.999 10.6618V4.84627H307.738V10.6618H296.107V15.5081H307.738H312.585V10.6618V4.84627L312.585 0L307.738 0L267.999 0L263.153 0L263.153 10.6618H259.76L259.76 0L254.914 0ZM263.153 39.7394V39.7394V34.8931V30.0468H267.999H274.784L274.784 25.2006H267.999H263.153V20.3543V15.5081H259.76L259.76 20.3543V25.2006H254.914H248.129L248.129 30.0468H254.914H259.76V34.8931L259.76 39.7394V39.7394H263.153ZM248.129 15.5081H254.914V20.3543H248.129V15.5081ZM267.999 20.3543V15.5081H274.784V20.3543H267.999ZM238.921 30.0468V25.2006H243.283L243.283 30.0468H238.921ZM248.129 39.7394H254.914V34.8931H248.129V39.7394ZM283.992 30.0468V25.2006H279.63L279.63 30.0468H283.992ZM274.784 39.7394H267.999V34.8931H274.784V39.7394Z" fill="#F69722"/>
<path fill-rule="evenodd" clip-rule="evenodd" d="M149.75 0L110.01 0L105.164 0L105.164 0V10.6618V15.5081H110.01H121.641V10.6618H110.01V4.84627H149.75V10.6618H149.75L142.965 10.6618L138.119 10.6618V15.5081V20.3543H133.757H128.911H128.911V25.2006H121.641V30.0469H128.911V34.8931V34.8932H133.757V34.8931H138.119V34.8932V39.7394V44.5856H142.965H149.75L149.75 44.5857L149.75 50.4012H110.01V44.5856H121.641V39.7394H110.01H105.164V44.5856V55.2474L105.164 55.2475H154.596V50.4012L154.596 44.5857H157.988L157.988 50.4012V55.2475H207.42L207.42 55.2474V44.5856V39.7394H202.574H190.943V44.5856H202.574V50.4012H162.835V44.5856H169.619H174.466V39.7394V34.8932V34.8931H178.827V34.8932H183.674V34.8931V30.0469H190.943V25.2006H183.674V20.3543H178.827H174.466V15.5081V10.6618L169.619 10.6618L162.835 10.6618V4.84627H202.574V10.6618H190.943V15.5081H202.574H207.42V10.6618V0L202.574 0L162.835 0L157.988 0V4.84627L157.988 10.6618H154.596L154.596 4.84627V0L149.75 0ZM157.988 39.7394V39.7394V34.8931V30.0468H162.835H169.619L169.619 25.2006H162.835H157.988V20.3543V15.5081H154.596V20.3543V25.2006H149.75H142.965L142.965 30.0468H149.75H154.596V34.8931V39.7394V39.7394H157.988ZM142.965 15.5081H149.75H149.75V20.3543H142.965V15.5081ZM162.835 20.3543V15.5081H169.619V20.3543H162.835ZM133.757 30.0468V25.2006H138.119L138.119 30.0468H133.757ZM142.965 34.8931V34.8932V39.7394H149.75V34.8931H142.965ZM178.827 30.0468V25.2006H174.466L174.466 30.0468H178.827ZM169.619 34.8931V34.8932V39.7394H162.835V34.8931H169.619Z" fill="#E62C20"/>
<path fill-rule="evenodd" clip-rule="evenodd" d="M360.078 0L320.339 0L315.492 0L315.492 0V4.84627H315.492V10.6618V15.5081H320.339H331.97V10.6618H320.339V4.84627H360.078V10.6618L353.293 10.6618L348.447 10.6618V15.5081V20.3543H344.085H339.239V25.2006H331.97V30.0469H339.239V34.8931V34.8932H344.085V34.8931H348.447V34.8932V39.7394V44.5856H353.293H360.078V44.5857V50.4012H320.339V44.5856H331.97V39.7394H320.339H315.492V44.5856V55.2474H315.492V55.2475H364.924V50.4012H364.924V44.5857H368.317L368.317 50.4012V55.2475H417.749L417.749 55.2474V44.5856V39.7394H412.902H401.271V44.5856H412.902V50.4012H373.163V44.5857V44.5856H379.948H384.794V39.7394V34.8932V34.8931H389.156V34.8932H394.002V34.8931V30.0469H401.271V25.2006H394.002L394.002 20.3543H389.156H384.794V15.5081V10.6618L379.948 10.6618L373.163 10.6618V4.84627H412.902V10.6618H401.271V15.5081H412.902H417.749V10.6618V0L412.902 0L373.163 0L368.317 0V4.84627L368.317 10.6618H364.924V0L364.924 0L360.078 0ZM368.317 39.7394V39.7394L368.317 34.8931V30.0468H373.163H379.948L379.948 25.2006H373.163H368.317V20.3543L368.317 15.5081H364.924V20.3543V25.2006H360.078H353.293V30.0468H360.078H364.924V34.8931V39.7394V39.7394H368.317ZM353.293 15.5081H360.078V20.3543H353.293V15.5081ZM373.163 20.3543V15.5081H379.948V20.3543H373.163ZM344.085 30.0468V25.2006H348.447V30.0468H344.085ZM353.293 34.8931V34.8932V39.7394H360.078V34.8931H353.293ZM389.156 30.0468V25.2006H384.794L384.794 30.0468H389.156ZM379.948 34.8931V34.8932V39.7394H373.163V34.8931H379.948Z" fill="#9C4A9A"/>
<path fill-rule="evenodd" clip-rule="evenodd" d="M465.334 0L425.595 0L420.749 0L420.749 0V4.84627H420.749V10.6618V15.5081H425.595H437.226V10.6618H425.595V4.84627H465.334V10.6618L458.55 10.6618L453.703 10.6618V15.5081V20.3543H449.342H444.495V25.2006H437.226V30.0469H444.495V34.8932H449.342V34.8931H453.703V39.7394V44.5856H458.55H465.334L465.334 44.5857L465.334 50.4012H425.595V44.5856H437.226V39.7394H425.595H420.749V44.5856V50.4012L420.749 55.2475H470.181L470.181 55.2474L470.181 44.5857H473.573L473.573 50.4012L473.573 55.2474L473.573 55.2475H523.005V50.4012V44.5856V39.7394H518.159H506.528V44.5856H518.159V50.4012H478.419L478.419 44.5857L478.419 44.5856H485.204H490.05V39.7394L490.05 34.8932L490.05 34.8931H494.412V34.8932H499.258V30.0469H506.528V25.2006H499.258V20.3543H494.412H490.05V15.5081V10.6618L485.204 10.6618L478.419 10.6618V4.84627H518.159V10.6618H506.528V15.5081H518.159H523.005V10.6618V4.84627L523.005 0L518.159 0L478.419 0L473.573 0V4.84627L473.573 10.6618H470.181L470.181 0L465.334 0ZM473.573 39.7394V39.7394V34.8931V30.0468H478.419H485.204V25.2006H478.419H473.573V20.3543V15.5081H470.181V20.3543V25.2006H465.334H458.55L458.55 30.0468H465.334H470.181V34.8931V39.7394V39.7394H473.573ZM458.55 15.5081H465.334V20.3543H458.55V15.5081ZM478.419 20.3543V15.5081H485.204V20.3543H478.419ZM449.342 30.0468V25.2006H453.703L453.703 30.0468H449.342ZM458.55 39.7394H465.334V34.8931H458.55V39.7394ZM494.412 30.0468V25.2006H490.05L490.05 30.0468H494.412ZM485.204 34.8931V34.8932V39.7394H478.419V34.8931H485.204Z" fill="#4A8068"/>
<path fill-rule="evenodd" clip-rule="evenodd" d="M675.663 0L635.923 0L631.077 0L631.077 0V4.84627H631.077V10.6618V15.5081H635.923H647.554V10.6618H635.923V4.84627H675.663V10.6618L668.878 10.6618L664.031 10.6618V15.5081V20.3543H659.67H654.824V25.2006H647.554V30.0469H654.824V34.8932H659.67V34.8931H664.031V39.7394V44.5856H668.878H675.663L675.663 44.5857L675.663 50.4012H635.923V44.5856H647.554V39.7394H635.923H631.077V44.5856V50.4012L631.077 55.2475H680.509L680.509 55.2474L680.509 44.5857H683.901V55.2474L683.901 55.2475H733.333L733.333 50.4012V44.5856V39.7394H728.487H716.856V44.5856H728.487V50.4012H688.747V44.5857H688.747V44.5856H695.532H700.378V39.7394V34.8931H704.74V34.8932H709.586V30.0469H716.856V25.2006H709.586V20.3543H704.74H700.378V15.5081V10.6618L695.532 10.6618L688.747 10.6618V4.84627H728.487V10.6618H716.856V15.5081H728.487H733.333V10.6618V4.84627L733.333 0L728.487 0L688.747 0L683.901 0L683.901 10.6618H680.509L680.509 0L675.663 0ZM683.901 39.7394V39.7394V34.8931V30.0468H688.747H695.532L695.532 25.2006H688.747H683.901V20.3543V15.5081H680.509L680.509 20.3543V25.2006H675.663H668.878L668.878 30.0468H675.663H680.509V34.8931L680.509 39.7394V39.7394H683.901ZM668.878 15.5081H675.663V20.3543H668.878V15.5081ZM688.747 20.3543V15.5081H695.532V20.3543H688.747ZM659.67 30.0468V25.2006H664.031L664.031 30.0468H659.67ZM668.878 39.7394H675.663V34.8931H668.878V39.7394ZM704.74 30.0468V25.2006H700.378L700.378 30.0468H704.74ZM695.532 39.7394H688.747V34.8931H695.532V39.7394Z" fill="#F69722"/>
<path fill-rule="evenodd" clip-rule="evenodd" d="M570.498 0L530.759 0L525.913 0L525.913 0V10.6618V15.5081H530.759H542.39V10.6618H530.759V4.84627H570.498V10.6618H570.498L563.714 10.6618L558.867 10.6618V15.5081V20.3543H554.506H549.659H549.659V25.2006H542.39V30.0469H549.659V34.8931V34.8932H554.506V34.8931H558.867V34.8932V39.7394V44.5856H563.714H570.498L570.498 44.5857L570.498 50.4012H530.759V44.5856H542.39V39.7394H530.759H525.913V44.5856V55.2474L525.913 55.2475H575.345V50.4012L575.345 44.5857H578.737L578.737 50.4012V55.2475H628.169L628.169 55.2474V44.5856V39.7394H623.323H611.692V44.5856H623.323V50.4012H583.583V44.5856H590.368H595.214V39.7394V34.8932V34.8931H599.576V34.8932H604.422V34.8931V30.0469H611.692V25.2006H604.422V20.3543H599.576H595.214V15.5081V10.6618L590.368 10.6618L583.583 10.6618V4.84627H623.323V10.6618H611.692V15.5081H623.323H628.169V10.6618V0L623.323 0L583.583 0L578.737 0V4.84627L578.737 10.6618H575.345L575.345 4.84627V0L570.498 0ZM578.737 39.7394V39.7394V34.8931V30.0468H583.583H590.368L590.368 25.2006H583.583H578.737V20.3543V15.5081H575.345V20.3543V25.2006H570.498H563.714L563.714 30.0468H570.498H575.345V34.8931V39.7394V39.7394H578.737ZM563.714 15.5081H570.498H570.498V20.3543H563.714V15.5081ZM583.583 20.3543V15.5081H590.368V20.3543H583.583ZM554.506 30.0468V25.2006H558.867L558.867 30.0468H554.506ZM563.714 34.8931V34.8932V39.7394H570.498V34.8931H563.714ZM599.576 30.0468V25.2006H595.214L595.214 30.0468H599.576ZM590.368 34.8931V34.8932V39.7394H583.583V34.8931H590.368Z" fill="#E62C20"/>
<path fill-rule="evenodd" clip-rule="evenodd" d="M780.827 0L741.087 0L736.241 0L736.241 0V4.84627H736.241V10.6618V15.5081H741.087H752.718V10.6618H741.087V4.84627H780.827V10.6618L774.042 10.6618L769.196 10.6618V15.5081V20.3543H764.834H759.988V25.2006H752.718V30.0469H759.988V34.8931V34.8932H764.834V34.8931H769.196V34.8932V39.7394V44.5856H774.042H780.827V44.5857V50.4012H741.087V44.5856H752.718V39.7394H741.087H736.241V44.5856V55.2474H736.241V55.2475H785.673V50.4012H785.673V44.5857H789.065L789.065 50.4012V55.2475H838.497L838.497 55.2474V44.5856V39.7394H833.651H822.02V44.5856H833.651V50.4012H793.912V44.5857V44.5856H800.696H805.543V39.7394V34.8932V34.8931H809.904V34.8932H814.751V34.8931V30.0469H822.02V25.2006H814.751L814.751 20.3543H809.904H805.543V15.5081V10.6618L800.696 10.6618L793.912 10.6618V4.84627H833.651V10.6618H822.02V15.5081H833.651H838.497V10.6618V0L833.651 0L793.912 0L789.065 0V4.84627L789.065 10.6618H785.673V0L785.673 0L780.827 0ZM789.065 39.7394V39.7394L789.065 34.8931V30.0468H793.912H800.696L800.696 25.2006H793.912H789.065V20.3543L789.065 15.5081H785.673V20.3543V25.2006H780.827H774.042V30.0468H780.827H785.673V34.8931V39.7394V39.7394H789.065ZM774.042 15.5081H780.827V20.3543H774.042V15.5081ZM793.912 20.3543V15.5081H800.696V20.3543H793.912ZM764.834 30.0468V25.2006H769.196V30.0468H764.834ZM774.042 34.8931V34.8932V39.7394H780.827V34.8931H774.042ZM809.904 30.0468V25.2006H805.543L805.543 30.0468H809.904ZM800.696 34.8931V34.8932V39.7394H793.912V34.8931H800.696Z" fill="#9C4A9A"/>
<path fill-rule="evenodd" clip-rule="evenodd" d="M886.083 0L846.344 0L841.497 0L841.497 0V4.84627H841.497V10.6618V15.5081H846.344H857.975V10.6618H846.344V4.84627H886.083V10.6618L879.298 10.6618L874.452 10.6618V15.5081V20.3543H870.09H865.244V25.2006H857.975V30.0469H865.244V34.8932H870.09V34.8931H874.452V39.7394V44.5856H879.298H886.083L886.083 44.5857L886.083 50.4012H846.344V44.5856H857.975V39.7394H846.344H841.497V44.5856V50.4012L841.497 55.2475H890.929L890.929 55.2474L890.929 44.5857H894.322L894.322 50.4012L894.322 55.2474L894.322 55.2475H943.754V50.4012V44.5856V39.7394H938.907H927.276V44.5856H938.907V50.4012H899.168L899.168 44.5857L899.168 44.5856H905.953H910.799V39.7394L910.799 34.8932L910.799 34.8931H915.161V34.8932H920.007V30.0469H927.276V25.2006H920.007V20.3543H915.161H910.799V15.5081V10.6618L905.953 10.6618L899.168 10.6618V4.84627H938.907V10.6618H927.276V15.5081H938.907H943.754V10.6618V4.84627L943.754 0L938.907 0L899.168 0L894.322 0V4.84627L894.322 10.6618H890.929L890.929 0L886.083 0ZM894.322 39.7394V39.7394V34.8931V30.0468H899.168H905.953V25.2006H899.168H894.322V20.3543V15.5081H890.929V20.3543V25.2006H886.083H879.298L879.298 30.0468H886.083H890.929V34.8931V39.7394V39.7394H894.322ZM879.298 15.5081H886.083V20.3543H879.298V15.5081ZM899.168 20.3543V15.5081H905.953V20.3543H899.168ZM870.09 30.0468V25.2006H874.452L874.452 30.0468H870.09ZM879.298 39.7394H886.083V34.8931H879.298V39.7394ZM915.161 30.0468V25.2006H910.799L910.799 30.0468H915.161ZM905.953 34.8931V34.8932V39.7394H899.168V34.8931H905.953Z" fill="#4A8068"/>
<path fill-rule="evenodd" clip-rule="evenodd" d="M1096.41 0L1056.67 0L1051.83 0L1051.83 0V4.84627H1051.83V10.6618V15.5081H1056.67H1068.3V10.6618H1056.67V4.84627H1096.41V10.6618L1089.63 10.6618L1084.78 10.6618V15.5081V20.3543H1080.42H1075.57V25.2006H1068.3V30.0469H1075.57V34.8932H1080.42V34.8931H1084.78V39.7394V44.5856H1089.63H1096.41L1096.41 44.5857L1096.41 50.4012H1056.67V44.5856H1068.3V39.7394H1056.67H1051.83V44.5856V50.4012L1051.83 55.2475H1101.26L1101.26 55.2474L1101.26 44.5857H1104.65V55.2474L1104.65 55.2475H1154.08L1154.08 50.4012V44.5856V39.7394H1149.24H1137.6V44.5856H1149.24V50.4012H1109.5V44.5857H1109.5V44.5856H1116.28H1121.13V39.7394V34.8931H1125.49V34.8932H1130.34V30.0469H1137.6V25.2006H1130.34V20.3543H1125.49H1121.13V15.5081V10.6618L1116.28 10.6618L1109.5 10.6618V4.84627H1149.24V10.6618H1137.6V15.5081H1149.24H1154.08V10.6618V4.84627L1154.08 0L1149.24 0L1109.5 0L1104.65 0L1104.65 10.6618H1101.26L1101.26 0L1096.41 0ZM1104.65 39.7394V39.7394V34.8931V30.0468H1109.5H1116.28L1116.28 25.2006H1109.5H1104.65V20.3543V15.5081H1101.26L1101.26 20.3543V25.2006H1096.41H1089.63L1089.63 30.0468H1096.41H1101.26V34.8931L1101.26 39.7394V39.7394H1104.65ZM1089.63 15.5081H1096.41V20.3543H1089.63V15.5081ZM1109.5 20.3543V15.5081H1116.28V20.3543H1109.5ZM1080.42 30.0468V25.2006H1084.78L1084.78 30.0468H1080.42ZM1089.63 39.7394H1096.41V34.8931H1089.63V39.7394ZM1125.49 30.0468V25.2006H1121.13L1121.13 30.0468H1125.49ZM1116.28 39.7394H1109.5V34.8931H1116.28V39.7394Z" fill="#F69722"/>
<path fill-rule="evenodd" clip-rule="evenodd" d="M991.247 0L951.508 0L946.661 0L946.661 0V10.6618V15.5081H951.508H963.139V10.6618H951.508V4.84627H991.247V10.6618H991.247L984.462 10.6618L979.616 10.6618V15.5081V20.3543H975.254H970.408H970.408V25.2006H963.139V30.0469H970.408V34.8931V34.8932H975.254V34.8931H979.616V34.8932V39.7394V44.5856H984.462H991.247L991.247 44.5857L991.247 50.4012H951.508V44.5856H963.139V39.7394H951.508H946.661V44.5856V55.2474L946.661 55.2475H996.093V50.4012L996.093 44.5857H999.486L999.486 50.4012V55.2475H1048.92L1048.92 55.2474V44.5856V39.7394H1044.07H1032.44V44.5856H1044.07V50.4012H1004.33V44.5856H1011.12H1015.96V39.7394V34.8932V34.8931H1020.32V34.8932H1025.17V34.8931V30.0469H1032.44V25.2006H1025.17V20.3543H1020.32H1015.96V15.5081V10.6618L1011.12 10.6618L1004.33 10.6618V4.84627H1044.07V10.6618H1032.44V15.5081H1044.07H1048.92V10.6618V0L1044.07 0L1004.33 0L999.486 0V4.84627L999.486 10.6618H996.093L996.093 4.84627V0L991.247 0ZM999.486 39.7394V39.7394V34.8931V30.0468H1004.33H1011.12L1011.12 25.2006H1004.33H999.486V20.3543V15.5081H996.093V20.3543V25.2006H991.247H984.462L984.462 30.0468H991.247H996.093V34.8931V39.7394V39.7394H999.486ZM984.462 15.5081H991.247H991.247V20.3543H984.462V15.5081ZM1004.33 20.3543V15.5081H1011.12V20.3543H1004.33ZM975.254 30.0468V25.2006H979.616L979.616 30.0468H975.254ZM984.462 34.8931V34.8932V39.7394H991.247V34.8931H984.462ZM1020.32 30.0468V25.2006H1015.96L1015.96 30.0468H1020.32ZM1011.12 34.8931V34.8932V39.7394H1004.33V34.8931H1011.12Z" fill="#E62C20"/>
</svg>