<svg width="104" height="56" viewBox="0 0 104 56" fill="none" xmlns="http://www.w3.org/2000/svg">
<path fill-rule="evenodd" clip-rule="evenodd" d="M45.4985 0L5.75904 0L0.912786 0L0.912768 0V10.6618V15.5081H5.75904H17.3901V10.6618H5.75904V4.84627H45.4985V10.6618H45.4984L38.7137 10.6618L33.8674 10.6618V15.5081V20.3543H29.5058H24.6595H24.6595V25.2006H17.3901V30.0469H24.6595V34.8931V34.8932H29.5058V34.8931H33.8674V34.8932V39.7394V44.5856H38.7137H45.4984L45.4984 44.5857L45.4984 50.4012H5.75902V44.5856H17.3901V39.7394H5.75902H0.91275V44.5856V55.2474L0.912768 55.2475H50.3447V50.4012L50.3447 44.5857H53.7371L53.7371 50.4012V55.2475H103.169L103.169 55.2474V44.5856V39.7394H98.3228H86.6917V44.5856H98.3228V50.4012H58.5834V44.5856H65.3681H70.2144V39.7394V34.8932V34.8931H74.5761V34.8932H79.4223V34.8931V30.0469H86.6917V25.2006H79.4223V20.3543H74.5761H70.2144V15.5081V10.6618L65.3681 10.6618L58.5833 10.6618V4.84627H98.3228V10.6618H86.6917V15.5081H98.3228H103.169V10.6618V0L98.3228 0L58.5833 0L53.7371 0V4.84627L53.7371 10.6618H50.3447L50.3448 4.84627V0L45.4985 0ZM53.7371 39.7394V39.7394V34.8931V30.0468H58.5834H65.3681L65.3681 25.2006H58.5833H53.7371V20.3543V15.5081H50.3447V20.3543V25.2006H45.4985H38.7137L38.7137 30.0468H45.4984H50.3447V34.8931V39.7394V39.7394H53.7371ZM38.7137 15.5081H45.4984H45.4985V20.3543H38.7137V15.5081ZM58.5833 20.3543V15.5081H65.3681V20.3543H58.5833ZM29.5058 30.0468V25.2006H33.8674L33.8674 30.0468H29.5058ZM38.7137 34.8931V34.8932V39.7394H45.4984V34.8931H38.7137ZM74.5761 30.0468V25.2006H70.2144L70.2144 30.0468H74.5761ZM65.3681 34.8931V34.8932V39.7394H58.5834V34.8931H65.3681Z" fill="#E62C20"/>
</svg>
