<svg width="1389" height="892" viewBox="0 0 1389 892" fill="none" xmlns="http://www.w3.org/2000/svg">
<g clip-path="url(#clip0_1871_5)">
<g opacity="0.02">
<path d="M818.738 155.896L809.221 155.89L809.198 190.787L818.716 190.794L818.712 197.139L828.229 197.145L828.223 206.662L837.741 206.669L837.735 216.186L844.08 216.19L844.102 181.292L834.585 181.286L834.589 174.941L828.244 174.937L828.25 165.42L818.732 165.413L818.738 155.896Z" fill="white"/>
<path d="M879.016 155.934L888.533 155.94L888.511 190.838L878.993 190.832L878.989 197.177L869.471 197.171L869.465 206.689L859.948 206.683L859.942 216.2L853.597 216.196L853.619 181.298L863.137 181.304L863.141 174.959L869.486 174.963L869.492 165.446L879.009 165.452L879.016 155.934Z" fill="white"/>
<path d="M866.285 219.377L866.279 228.895L901.177 228.917L901.183 219.399L907.528 219.404L907.534 209.886L917.052 209.892L917.058 200.374L926.576 200.381L926.58 194.036L891.682 194.013L891.676 203.531L885.331 203.527L885.327 209.872L875.809 209.865L875.803 219.383L866.285 219.377Z" fill="white"/>
<path d="M926.535 263.831L926.529 273.349L891.631 273.326L891.638 263.809L885.293 263.804L885.299 254.287L875.781 254.281L875.787 244.763L866.27 244.757L866.274 238.412L901.172 238.434L901.165 247.952L907.51 247.956L907.506 254.301L917.024 254.307L917.018 263.825L926.535 263.831Z" fill="white"/>
<path d="M878.916 311.388L888.434 311.395L888.456 276.497L878.938 276.491L878.943 270.145L869.425 270.139L869.431 260.622L859.914 260.616L859.92 251.098L853.575 251.094L853.552 285.992L863.07 285.998L863.066 292.343L869.411 292.347L869.405 301.865L878.922 301.871L878.916 311.388Z" fill="white"/>
<path d="M818.639 311.35L809.121 311.344L809.144 276.446L818.661 276.452L818.665 270.107L828.183 270.113L828.189 260.596L837.707 260.602L837.713 251.084L844.058 251.088L844.035 285.986L834.518 285.98L834.514 292.325L828.169 292.321L828.162 301.838L818.645 301.832L818.639 311.35Z" fill="white"/>
<path d="M771.119 203.453L771.125 193.936L806.023 193.958L806.017 203.476L812.362 203.48L812.356 212.997L821.873 213.003L821.867 222.521L831.385 222.527L831.381 228.872L796.483 228.85L796.489 219.332L790.144 219.328L790.148 212.983L780.63 212.977L780.636 203.459L771.119 203.453Z" fill="white"/>
<path d="M831.369 247.908L831.375 238.391L796.477 238.368L796.471 247.886L790.126 247.882L790.12 257.399L780.602 257.393L780.596 266.911L771.079 266.905L771.074 273.25L805.972 273.272L805.978 263.755L812.323 263.759L812.328 257.414L821.845 257.42L821.851 247.902L831.369 247.908Z" fill="white"/>
<rect x="844.072" y="228.881" width="9.5176" height="9.5176" transform="rotate(0.0369024 844.072 228.881)" fill="white"/>
<path d="M1176.05 156.125L1166.53 156.119L1166.51 191.017L1176.03 191.023L1176.02 197.368L1185.54 197.374L1185.54 206.892L1195.05 206.898L1195.05 216.416L1201.39 216.42L1201.41 181.522L1191.9 181.516L1191.9 175.171L1185.56 175.167L1185.56 165.649L1176.04 165.643L1176.05 156.125Z" fill="white"/>
<path d="M1236.33 156.164L1245.85 156.17L1245.82 191.068L1236.31 191.062L1236.3 197.407L1226.78 197.401L1226.78 206.918L1217.26 206.912L1217.25 216.43L1210.91 216.426L1210.93 181.528L1220.45 181.534L1220.45 175.189L1226.8 175.193L1226.8 165.675L1236.32 165.681L1236.33 156.164Z" fill="white"/>
<path d="M1223.6 219.606L1223.59 229.124L1258.49 229.147L1258.5 219.629L1264.84 219.633L1264.85 210.115L1274.36 210.122L1274.37 200.604L1283.89 200.61L1283.89 194.265L1248.99 194.243L1248.99 203.76L1242.64 203.756L1242.64 210.101L1233.12 210.095L1233.12 219.613L1223.6 219.606Z" fill="white"/>
<path d="M1283.85 264.061L1283.84 273.578L1248.94 273.556L1248.95 264.038L1242.61 264.034L1242.61 254.516L1233.09 254.51L1233.1 244.993L1223.58 244.987L1223.59 238.641L1258.48 238.664L1258.48 248.182L1264.82 248.186L1264.82 254.531L1274.34 254.537L1274.33 264.054L1283.85 264.061Z" fill="white"/>
<path d="M1236.23 311.618L1245.75 311.624L1245.77 276.726L1236.25 276.72L1236.26 270.375L1226.74 270.369L1226.74 260.851L1217.23 260.845L1217.23 251.328L1210.89 251.323L1210.86 286.221L1220.38 286.227L1220.38 292.572L1226.72 292.577L1226.72 302.094L1236.23 302.1L1236.23 311.618Z" fill="white"/>
<path d="M1175.95 311.579L1166.43 311.573L1166.46 276.675L1175.97 276.682L1175.98 270.336L1185.5 270.343L1185.5 260.825L1195.02 260.831L1195.03 251.314L1201.37 251.318L1201.35 286.215L1191.83 286.209L1191.83 292.554L1185.48 292.55L1185.47 302.068L1175.96 302.062L1175.95 311.579Z" fill="white"/>
<path d="M1128.43 203.683L1128.44 194.165L1163.34 194.188L1163.33 203.705L1169.67 203.709L1169.67 213.227L1179.19 213.233L1179.18 222.751L1188.7 222.757L1188.69 229.102L1153.8 229.079L1153.8 219.562L1147.46 219.558L1147.46 213.212L1137.94 213.206L1137.95 203.689L1128.43 203.683Z" fill="white"/>
<path d="M1188.68 248.137L1188.69 238.619L1153.79 238.597L1153.78 248.114L1147.44 248.11L1147.43 257.628L1137.91 257.622L1137.91 267.139L1128.39 267.133L1128.39 273.478L1163.28 273.501L1163.29 263.983L1169.64 263.987L1169.64 257.642L1179.16 257.648L1179.16 248.131L1188.68 248.137Z" fill="white"/>
<rect x="1201.38" y="229.11" width="9.5176" height="9.5176" transform="rotate(0.0369024 1201.38 229.11)" fill="white"/>
<path d="M997.51 -22.6618L987.992 -22.668L987.97 12.2299L997.487 12.236L997.483 18.5811L1007 18.5872L1006.99 28.1048L1016.51 28.1109L1016.51 37.6285L1022.85 37.6326L1022.87 2.73476L1013.36 2.72863L1013.36 -3.61643L1007.02 -3.62052L1007.02 -13.1381L997.504 -13.1442L997.51 -22.6618Z" fill="white"/>
<path d="M1057.79 -22.6228L1067.3 -22.6167L1067.28 12.2811L1057.76 12.275L1057.76 18.6201L1048.24 18.6139L1048.24 28.1315L1038.72 28.1254L1038.71 37.643L1032.37 37.6389L1032.39 2.74108L1041.91 2.74721L1041.91 -3.59786L1048.26 -3.59377L1048.26 -13.1114L1057.78 -13.1052L1057.79 -22.6228Z" fill="white"/>
<path d="M1045.06 40.8193L1045.05 50.3369L1079.95 50.3594L1079.95 40.8418L1086.3 40.8459L1086.31 31.3283L1095.82 31.3344L1095.83 21.8168L1105.35 21.823L1105.35 15.4779L1070.45 15.4554L1070.45 24.973L1064.1 24.9689L1064.1 31.314L1054.58 31.3079L1054.57 40.8254L1045.06 40.8193Z" fill="white"/>
<path d="M1105.31 85.2734L1105.3 94.791L1070.4 94.7685L1070.41 85.2509L1064.06 85.2469L1064.07 75.7293L1054.55 75.7231L1054.56 66.2055L1045.04 66.1994L1045.05 59.8543L1079.94 59.8768L1079.94 69.3944L1086.28 69.3985L1086.28 75.7436L1095.8 75.7497L1095.79 85.2673L1105.31 85.2734Z" fill="white"/>
<path d="M1057.69 132.831L1067.21 132.837L1067.23 97.9391L1057.71 97.9329L1057.71 91.5879L1048.2 91.5817L1048.2 82.0642L1038.68 82.058L1038.69 72.5404L1032.35 72.5363L1032.32 107.434L1041.84 107.44L1041.84 113.785L1048.18 113.789L1048.18 123.307L1057.69 123.313L1057.69 132.831Z" fill="white"/>
<path d="M997.41 132.792L987.893 132.786L987.915 97.8883L997.433 97.8944L997.437 91.5494L1006.95 91.5555L1006.96 82.0379L1016.48 82.044L1016.48 72.5264L1022.83 72.5305L1022.81 107.428L1013.29 107.422L1013.29 113.767L1006.94 113.763L1006.93 123.281L997.416 123.275L997.41 132.792Z" fill="white"/>
<path d="M949.89 24.8955L949.896 15.3779L984.794 15.4004L984.788 24.918L991.133 24.9221L991.127 34.4397L1000.64 34.4458L1000.64 43.9634L1010.16 43.9695L1010.15 50.3146L975.254 50.2921L975.26 40.7745L968.915 40.7704L968.919 34.4254L959.402 34.4192L959.408 24.9017L949.89 24.8955Z" fill="white"/>
<path d="M1010.14 69.3501L1010.15 59.8325L975.249 59.81L975.243 69.3276L968.897 69.3236L968.891 78.8411L959.374 78.835L959.368 88.3526L949.85 88.3465L949.846 94.6916L984.744 94.714L984.75 85.1964L991.095 85.2005L991.099 78.8555L1000.62 78.8616L1000.62 69.344L1010.14 69.3501Z" fill="white"/>
<rect x="1022.84" y="50.3228" width="9.5176" height="9.5176" transform="rotate(0.0369024 1022.84 50.3228)" fill="white"/>
<path d="M997.281 334.667L987.764 334.661L987.741 369.559L997.259 369.565L997.255 375.91L1006.77 375.916L1006.77 385.434L1016.28 385.44L1016.28 394.958L1022.62 394.962L1022.65 360.064L1013.13 360.058L1013.13 353.713L1006.79 353.709L1006.79 344.191L997.275 344.185L997.281 334.667Z" fill="white"/>
<path d="M1057.56 334.706L1067.08 334.712L1067.05 369.61L1057.54 369.604L1057.53 375.949L1048.01 375.943L1048.01 385.46L1038.49 385.454L1038.48 394.972L1032.14 394.968L1032.16 360.07L1041.68 360.076L1041.68 353.731L1048.03 353.735L1048.03 344.217L1057.55 344.223L1057.56 334.706Z" fill="white"/>
<path d="M1044.83 398.148L1044.82 407.666L1079.72 407.688L1079.73 398.171L1086.07 398.175L1086.08 388.657L1095.6 388.664L1095.6 379.146L1105.12 379.152L1105.12 372.807L1070.22 372.785L1070.22 382.302L1063.87 382.298L1063.87 388.643L1054.35 388.637L1054.35 398.155L1044.83 398.148Z" fill="white"/>
<path d="M1105.08 442.603L1105.07 452.12L1070.17 452.098L1070.18 442.58L1063.84 442.576L1063.84 433.058L1054.32 433.052L1054.33 423.535L1044.81 423.529L1044.82 417.183L1079.71 417.206L1079.71 426.724L1086.05 426.728L1086.05 433.073L1095.57 433.079L1095.56 442.596L1105.08 442.603Z" fill="white"/>
<path d="M1057.46 490.16L1066.98 490.166L1067 455.268L1057.48 455.262L1057.49 448.917L1047.97 448.911L1047.97 439.393L1038.46 439.387L1038.46 429.87L1032.12 429.865L1032.1 464.763L1041.61 464.769L1041.61 471.114L1047.95 471.119L1047.95 480.636L1057.47 480.642L1057.46 490.16Z" fill="white"/>
<path d="M997.182 490.121L987.664 490.115L987.687 455.217L997.204 455.224L997.208 448.878L1006.73 448.885L1006.73 439.367L1016.25 439.373L1016.26 429.856L1022.6 429.86L1022.58 464.757L1013.06 464.751L1013.06 471.096L1006.71 471.092L1006.71 480.61L997.188 480.604L997.182 490.121Z" fill="white"/>
<path d="M949.662 382.225L949.668 372.707L984.566 372.73L984.56 382.247L990.905 382.251L990.899 391.769L1000.42 391.775L1000.41 401.293L1009.93 401.299L1009.92 407.644L975.026 407.621L975.032 398.104L968.687 398.1L968.691 391.754L959.173 391.748L959.179 382.231L949.662 382.225Z" fill="white"/>
<path d="M1009.91 426.679L1009.92 417.161L975.02 417.139L975.014 426.656L968.669 426.652L968.663 436.17L959.145 436.164L959.139 445.681L949.621 445.675L949.617 452.02L984.515 452.043L984.521 442.525L990.866 442.529L990.871 436.184L1000.39 436.19L1000.39 426.673L1009.91 426.679Z" fill="white"/>
<rect x="1022.62" y="407.652" width="9.5176" height="9.5176" transform="rotate(0.0369024 1022.62 407.652)" fill="white"/>
<path fill-rule="evenodd" clip-rule="evenodd" d="M1017.58 156.023L1038.04 156.037L1038.03 164.218L1046.21 164.224L1046.21 172.406L1054.39 172.411L1054.38 180.593L1062.57 180.598L1062.56 188.78L1070.74 188.785L1070.74 196.967L1078.92 196.972L1078.91 205.154L1087.1 205.159L1087.09 213.341L1095.27 213.346L1095.27 221.528L1103.45 221.533L1103.43 246.079L1095.25 246.073L1095.25 254.255L1087.06 254.25L1087.06 262.432L1078.88 262.426L1078.87 270.608L1070.69 270.603L1070.69 278.785L1062.5 278.779L1062.5 286.961L1054.32 286.956L1054.31 295.138L1046.13 295.132L1046.12 303.314L1037.94 303.309L1037.94 311.491L1017.48 311.478L1017.49 299.205L1033.85 299.216L1033.86 291.033L1042.04 291.039L1042.05 282.857L1050.23 282.862L1050.23 274.681L1058.42 274.686L1058.42 266.504L1066.6 266.509L1066.61 258.328L1074.79 258.333L1074.79 250.151L1082.98 250.156L1082.98 241.974L1091.16 241.98L1091.17 225.616L1082.99 225.611L1083 217.429L1074.82 217.424L1074.82 209.242L1066.64 209.237L1066.64 201.055L1058.46 201.05L1058.47 192.868L1050.29 192.863L1050.29 184.681L1042.11 184.676L1042.11 176.494L1033.93 176.488L1033.94 168.307L1017.57 168.296L1017.58 156.023Z" fill="white"/>
<path fill-rule="evenodd" clip-rule="evenodd" d="M1038.04 156.037L1017.58 156.024L1017.58 164.206L1009.4 164.2L1009.39 172.382L1001.21 172.377L1001.2 180.559L993.021 180.553L993.016 188.735L984.834 188.73L984.829 196.912L976.647 196.907L976.642 205.088L968.46 205.083L968.455 213.265L960.273 213.26L960.268 221.441L952.086 221.436L952.07 245.981L960.252 245.987L960.247 254.168L968.429 254.174L968.423 262.356L976.605 262.361L976.6 270.543L984.781 270.548L984.776 278.73L992.958 278.735L992.953 286.917L1001.13 286.922L1001.13 295.104L1009.31 295.109L1009.31 303.291L1017.49 303.296L1017.48 311.478L1037.94 311.491L1037.94 299.218L1021.58 299.208L1021.59 291.026L1013.4 291.021L1013.41 282.839L1005.23 282.834L1005.23 274.652L997.051 274.647L997.056 266.465L988.875 266.459L988.88 258.278L980.699 258.273L980.704 250.091L972.522 250.086L972.527 241.904L964.345 241.898L964.356 225.535L972.538 225.54L972.543 217.358L980.725 217.364L980.73 209.182L988.912 209.187L988.917 201.005L997.099 201.011L997.104 192.829L1005.29 192.834L1005.29 184.652L1013.47 184.657L1013.48 176.476L1021.66 176.481L1021.67 168.299L1038.03 168.31L1038.04 156.037Z" fill="white"/>
<rect x="1017.54" y="225.569" width="20.4545" height="20.4545" transform="rotate(0.0369024 1017.54 225.569)" fill="white"/>
<path d="M99.5723 162.455L90.0547 162.449L90.0322 197.347L99.5498 197.353L99.5457 203.698L109.063 203.704L109.057 213.222L118.575 213.228L118.569 222.746L124.914 222.75L124.936 187.852L115.419 187.846L115.423 181.501L109.078 181.497L109.084 171.979L99.5662 171.973L99.5723 162.455Z" fill="white"/>
<path d="M159.85 162.494L169.367 162.5L169.345 197.398L159.827 197.392L159.823 203.737L150.305 203.731L150.299 213.248L140.782 213.242L140.776 222.76L134.431 222.756L134.453 187.858L143.971 187.864L143.975 181.519L150.32 181.523L150.326 172.005L159.843 172.011L159.85 162.494Z" fill="white"/>
<path d="M147.119 225.937L147.113 235.454L182.011 235.477L182.017 225.959L188.362 225.963L188.368 216.445L197.886 216.452L197.892 206.934L207.41 206.94L207.414 200.595L172.516 200.573L172.51 210.09L166.165 210.086L166.161 216.431L156.643 216.425L156.637 225.943L147.119 225.937Z" fill="white"/>
<path d="M207.369 270.391L207.363 279.908L172.465 279.886L172.472 270.368L166.127 270.364L166.133 260.846L156.615 260.84L156.621 251.323L147.104 251.317L147.108 244.972L182.006 244.994L181.999 254.512L188.344 254.516L188.34 260.861L197.858 260.867L197.852 270.384L207.369 270.391Z" fill="white"/>
<path d="M159.75 317.948L169.268 317.954L169.29 283.056L159.772 283.05L159.777 276.705L150.259 276.699L150.265 267.181L140.747 267.175L140.754 257.658L134.409 257.654L134.386 292.551L143.904 292.558L143.9 298.903L150.245 298.907L150.239 308.424L159.756 308.43L159.75 317.948Z" fill="white"/>
<path d="M99.4727 317.909L89.9551 317.903L89.9776 283.005L99.4951 283.012L99.4992 276.667L109.017 276.673L109.023 267.155L118.541 267.161L118.547 257.644L124.892 257.648L124.869 292.546L115.352 292.539L115.348 298.884L109.003 298.88L108.996 308.398L99.4788 308.392L99.4727 317.909Z" fill="white"/>
<path d="M51.9529 210.013L51.959 200.495L86.8568 200.518L86.8507 210.035L93.1958 210.039L93.1896 219.557L102.707 219.563L102.701 229.081L112.219 229.087L112.215 235.432L77.3168 235.409L77.3229 225.892L70.9778 225.888L70.9819 219.543L61.4643 219.536L61.4704 210.019L51.9529 210.013Z" fill="white"/>
<path d="M112.203 254.467L112.209 244.949L77.3111 244.927L77.305 254.444L70.9599 254.44L70.9538 263.958L61.4362 263.952L61.4301 273.469L51.9125 273.463L51.9084 279.808L86.8063 279.831L86.8124 270.313L93.1574 270.317L93.1615 263.972L102.679 263.978L102.685 254.461L112.203 254.467Z" fill="white"/>
<rect x="124.906" y="235.44" width="9.5176" height="9.5176" transform="rotate(0.0369024 124.906 235.44)" fill="white"/>
<path d="M456.885 162.686L447.367 162.68L447.345 197.578L456.862 197.584L456.858 203.929L466.376 203.935L466.37 213.452L475.887 213.459L475.881 222.976L482.226 222.98L482.249 188.082L472.731 188.076L472.735 181.731L466.39 181.727L466.396 172.21L456.879 172.203L456.885 162.686Z" fill="white"/>
<path d="M517.162 162.724L526.68 162.73L526.657 197.628L517.14 197.622L517.136 203.967L507.618 203.961L507.612 213.479L498.094 213.473L498.088 222.99L491.743 222.986L491.765 188.088L501.283 188.094L501.287 181.749L507.632 181.753L507.638 172.236L517.156 172.242L517.162 162.724Z" fill="white"/>
<path d="M504.432 226.167L504.426 235.685L539.324 235.707L539.33 226.189L545.675 226.194L545.681 216.676L555.199 216.682L555.205 207.164L564.722 207.171L564.726 200.826L529.829 200.803L529.822 210.321L523.477 210.317L523.473 216.662L513.956 216.656L513.95 226.173L504.432 226.167Z" fill="white"/>
<path d="M564.682 270.621L564.676 280.139L529.778 280.116L529.784 270.599L523.439 270.595L523.445 261.077L513.928 261.071L513.934 251.553L504.416 251.547L504.42 245.202L539.318 245.224L539.312 254.742L545.657 254.746L545.653 261.091L555.17 261.097L555.164 270.615L564.682 270.621Z" fill="white"/>
<path d="M517.062 318.178L526.58 318.185L526.603 283.287L517.085 283.281L517.089 276.936L507.571 276.929L507.578 267.412L498.06 267.406L498.066 257.888L491.721 257.884L491.699 292.782L501.216 292.788L501.212 299.133L507.557 299.137L507.551 308.655L517.069 308.661L517.062 318.178Z" fill="white"/>
<path d="M456.785 318.14L447.268 318.134L447.29 283.236L456.808 283.242L456.812 276.897L466.329 276.903L466.335 267.386L475.853 267.392L475.859 257.874L482.204 257.878L482.182 292.776L472.664 292.77L472.66 299.115L466.315 299.111L466.309 308.628L456.791 308.622L456.785 318.14Z" fill="white"/>
<path d="M409.265 210.243L409.271 200.726L444.169 200.748L444.163 210.266L450.508 210.27L450.502 219.787L460.02 219.793L460.014 229.311L469.531 229.317L469.527 235.662L434.629 235.64L434.635 226.122L428.29 226.118L428.294 219.773L418.777 219.767L418.783 210.249L409.265 210.243Z" fill="white"/>
<path d="M469.515 254.697L469.521 245.18L434.624 245.157L434.618 254.675L428.272 254.671L428.266 264.188L418.749 264.182L418.743 273.7L409.225 273.694L409.221 280.039L444.119 280.061L444.125 270.544L450.47 270.548L450.474 264.203L459.992 264.209L459.998 254.691L469.515 254.697Z" fill="white"/>
<rect x="482.219" y="235.671" width="9.5176" height="9.5176" transform="rotate(0.0369024 482.219 235.671)" fill="white"/>
<path d="M278.344 -16.1018L268.826 -16.1079L268.804 18.7899L278.321 18.7961L278.317 25.1411L287.835 25.1473L287.829 34.6649L297.346 34.671L297.34 44.1886L303.685 44.1927L303.708 9.29482L294.19 9.28869L294.194 2.94363L287.849 2.93954L287.855 -6.57806L278.338 -6.58419L278.344 -16.1018Z" fill="white"/>
<path d="M338.621 -16.0628L348.139 -16.0566L348.116 18.8412L338.599 18.8351L338.595 25.1801L329.077 25.174L329.071 34.6916L319.553 34.6855L319.547 44.2031L313.202 44.199L313.224 9.30113L322.742 9.30726L322.746 2.9622L329.091 2.96629L329.097 -6.55131L338.615 -6.54518L338.621 -16.0628Z" fill="white"/>
<path d="M325.891 47.3794L325.885 56.897L360.783 56.9194L360.789 47.4019L367.134 47.4059L367.14 37.8883L376.658 37.8945L376.664 28.3769L386.181 28.383L386.185 22.0379L351.287 22.0155L351.281 31.5331L344.936 31.529L344.932 37.874L335.415 37.8679L335.408 47.3855L325.891 47.3794Z" fill="white"/>
<path d="M386.141 91.8335L386.135 101.351L351.237 101.329L351.243 91.811L344.898 91.8069L344.904 82.2893L335.387 82.2832L335.393 72.7656L325.875 72.7595L325.879 66.4144L360.777 66.4369L360.771 75.9545L367.116 75.9586L367.112 82.3036L376.629 82.3098L376.623 91.8273L386.141 91.8335Z" fill="white"/>
<path d="M338.521 139.391L348.039 139.397L348.062 104.5L338.544 104.493L338.548 98.1484L329.03 98.1423L329.037 88.6247L319.519 88.6186L319.525 79.101L313.18 79.0969L313.158 113.995L322.675 114.001L322.671 120.346L329.016 120.35L329.01 129.868L338.528 129.874L338.521 139.391Z" fill="white"/>
<path d="M278.244 139.352L268.727 139.346L268.749 104.448L278.267 104.454L278.271 98.1089L287.788 98.1151L287.794 88.5975L297.312 88.6036L297.318 79.086L303.663 79.0901L303.641 113.988L294.123 113.982L294.119 120.327L287.774 120.323L287.768 129.84L278.25 129.834L278.244 139.352Z" fill="white"/>
<path d="M230.724 31.4556L230.73 21.938L265.628 21.9605L265.622 31.4781L271.967 31.4821L271.961 40.9997L281.479 41.0059L281.473 50.5235L290.99 50.5296L290.986 56.8747L256.088 56.8522L256.094 47.3346L249.749 47.3305L249.753 40.9854L240.236 40.9793L240.242 31.4617L230.724 31.4556Z" fill="white"/>
<path d="M290.974 75.9102L290.98 66.3926L256.083 66.3701L256.076 75.8877L249.731 75.8836L249.725 85.4012L240.208 85.3951L240.202 94.9127L230.684 94.9065L230.68 101.252L265.578 101.274L265.584 91.7565L271.929 91.7606L271.933 85.4155L281.451 85.4216L281.457 75.904L290.974 75.9102Z" fill="white"/>
<rect x="303.678" y="56.8828" width="9.5176" height="9.5176" transform="rotate(0.0369024 303.678 56.8828)" fill="white"/>
<path fill-rule="evenodd" clip-rule="evenodd" d="M839.035 -22.7661L859.49 -22.7529L859.484 -14.5712L867.666 -14.566L867.661 -6.38399L875.843 -6.37872L875.838 1.80297L884.019 1.80823L884.014 9.98998L892.196 9.99525L892.191 18.1772L900.373 18.1825L900.367 26.3642L908.549 26.3695L908.544 34.5511L916.725 34.5564L916.72 42.7382L924.902 42.7435L924.886 67.2889L916.704 67.2836L916.699 75.4653L908.518 75.4601L908.512 83.6421L900.331 83.6369L900.325 91.8186L892.144 91.8133L892.138 99.9951L883.956 99.9898L883.951 108.172L875.769 108.166L875.764 116.348L867.582 116.343L867.577 124.524L859.395 124.519L859.39 132.701L838.935 132.688L838.943 120.415L855.307 120.426L855.312 112.244L863.494 112.249L863.499 104.067L871.681 104.073L871.686 95.891L879.868 95.8962L879.874 87.7145L888.055 87.7198L888.061 79.538L896.242 79.5432L896.247 71.3616L904.429 71.3668L904.434 63.1847L912.616 63.19L912.627 46.8265L904.445 46.8212L904.45 38.6395L896.268 38.6343L896.274 30.4526L888.092 30.4473L888.097 22.2653L879.916 22.26L879.921 14.0783L871.739 14.073L871.744 5.89133L863.562 5.88606L863.568 -2.29592L855.386 -2.30119L855.391 -10.4829L839.027 -10.4934L839.035 -22.7661Z" fill="white"/>
<path fill-rule="evenodd" clip-rule="evenodd" d="M859.49 -22.7524L839.036 -22.7656L839.03 -14.5839L830.848 -14.5891L830.843 -6.40741L822.661 -6.41268L822.656 1.76912L814.474 1.76385L814.469 9.94589L806.287 9.94062L806.282 18.1223L798.1 18.117L798.095 26.2988L789.913 26.2936L789.908 34.4752L781.726 34.47L781.721 42.6517L773.539 42.6464L773.523 67.1918L781.705 67.1971L781.7 75.3789L789.882 75.3841L789.877 83.5662L798.058 83.5715L798.053 91.7531L806.234 91.7584L806.229 99.9401L814.411 99.9454L814.406 108.127L822.588 108.132L822.583 116.314L830.764 116.32L830.759 124.501L838.941 124.507L838.935 132.688L859.39 132.702L859.398 120.429L843.034 120.418L843.039 112.237L834.858 112.231L834.863 104.05L826.681 104.044L826.686 95.8623L818.504 95.8571L818.51 87.6753L810.328 87.67L810.333 79.4884L802.152 79.4831L802.157 71.3014L793.975 71.2961L793.98 63.1141L785.798 63.1088L785.809 46.7453L793.991 46.7506L793.996 38.5689L802.178 38.5742L802.183 30.3924L810.365 30.3976L810.37 22.2159L818.552 22.2212L818.557 14.0392L826.739 14.0444L826.744 5.86264L834.926 5.86791L834.931 -2.31383L843.113 -2.30856L843.118 -10.4903L859.482 -10.4798L859.49 -22.7524Z" fill="white"/>
<rect x="838.992" y="46.7793" width="20.4545" height="20.4545" transform="rotate(0.0369024 838.992 46.7793)" fill="white"/>
<path fill-rule="evenodd" clip-rule="evenodd" d="M1196.35 -22.5366L1216.8 -22.5234L1216.79 -14.3418L1224.98 -14.3365L1224.97 -6.15448L1233.15 -6.14921L1233.15 2.03248L1241.33 2.03775L1241.32 10.2195L1249.51 10.2248L1249.5 18.4068L1257.68 18.412L1257.68 26.5937L1265.86 26.599L1265.85 34.7807L1274.04 34.7859L1274.03 42.9677L1282.21 42.973L1282.2 67.5183L1274.01 67.5131L1274.01 75.6948L1265.83 75.6896L1265.82 83.8717L1257.64 83.8664L1257.64 92.0481L1249.45 92.0429L1249.45 100.225L1241.27 100.219L1241.26 108.401L1233.08 108.396L1233.07 116.578L1224.89 116.572L1224.89 124.754L1216.71 124.749L1216.7 132.931L1196.25 132.918L1196.25 120.645L1212.62 120.655L1212.62 112.473L1220.8 112.479L1220.81 104.297L1228.99 104.302L1229 96.1204L1237.18 96.1257L1237.18 87.944L1245.37 87.9493L1245.37 79.7675L1253.55 79.7728L1253.56 71.5911L1261.74 71.5964L1261.74 63.4142L1269.93 63.4195L1269.94 47.056L1261.76 47.0507L1261.76 38.869L1253.58 38.8638L1253.58 30.6821L1245.4 30.6768L1245.41 22.4948L1237.23 22.4896L1237.23 14.3078L1229.05 14.3025L1229.05 6.12085L1220.87 6.11558L1220.88 -2.06649L1212.7 -2.07176L1212.7 -10.2534L1196.34 -10.2639L1196.35 -22.5366Z" fill="white"/>
<path fill-rule="evenodd" clip-rule="evenodd" d="M1216.8 -22.5229L1196.35 -22.5361L1196.34 -14.3544L1188.16 -14.3597L1188.15 -6.17795L1179.97 -6.18322L1179.97 1.99852L1171.78 1.99325L1171.78 10.1753L1163.6 10.1701L1163.59 18.3519L1155.41 18.3466L1155.41 26.5284L1147.22 26.5231L1147.22 34.7048L1139.04 34.6996L1139.03 42.8812L1130.85 42.8759L1130.83 67.4213L1139.02 67.4265L1139.01 75.6084L1147.19 75.6137L1147.19 83.7956L1155.37 83.8009L1155.36 91.9826L1163.54 91.9879L1163.54 100.17L1171.72 100.175L1171.72 108.357L1179.9 108.362L1179.89 116.544L1188.07 116.549L1188.07 124.731L1196.25 124.736L1196.25 132.918L1216.7 132.931L1216.71 120.658L1200.34 120.648L1200.35 112.466L1192.17 112.461L1192.17 104.279L1183.99 104.274L1184 96.0918L1175.81 96.0865L1175.82 87.9048L1167.64 87.8995L1167.64 79.7178L1159.46 79.7126L1159.47 71.5309L1151.29 71.5256L1151.29 63.3436L1143.11 63.3383L1143.12 46.9749L1151.3 46.9802L1151.31 38.7984L1159.49 38.8037L1159.49 30.6219L1167.68 30.6272L1167.68 22.4454L1175.86 22.4507L1175.87 14.2686L1184.05 14.2738L1184.05 6.0921L1192.24 6.09737L1192.24 -2.08437L1200.42 -2.0791L1200.43 -10.2608L1216.79 -10.2503L1216.8 -22.5229Z" fill="white"/>
<rect x="1196.3" y="47.0088" width="20.4545" height="20.4545" transform="rotate(0.0369024 1196.3 47.0088)" fill="white"/>
<path fill-rule="evenodd" clip-rule="evenodd" d="M838.844 334.53L859.298 334.543L859.293 342.725L867.475 342.73L867.47 350.912L875.652 350.918L875.646 359.099L883.828 359.105L883.823 367.286L892.005 367.292L892 375.474L900.181 375.479L900.176 383.661L908.358 383.666L908.352 391.848L916.534 391.853L916.529 400.035L924.711 400.04L924.695 424.585L916.513 424.58L916.507 432.762L908.326 432.756L908.321 440.938L900.139 440.933L900.134 449.115L891.952 449.11L891.947 457.291L883.765 457.286L883.759 465.468L875.578 465.463L875.572 473.644L867.391 473.639L867.386 481.821L859.204 481.816L859.198 489.998L838.744 489.985L838.752 477.712L855.115 477.722L855.121 469.54L863.302 469.546L863.308 461.364L871.489 461.369L871.495 453.187L879.677 453.193L879.682 445.011L887.864 445.016L887.869 436.834L896.051 436.84L896.056 428.658L904.237 428.663L904.243 420.481L912.425 420.486L912.435 404.123L904.253 404.118L904.259 395.936L896.077 395.931L896.082 387.749L887.901 387.744L887.906 379.562L879.724 379.556L879.729 371.375L871.547 371.369L871.553 363.188L863.371 363.182L863.376 355L855.194 354.995L855.2 346.814L838.836 346.803L838.844 334.53Z" fill="white"/>
<path fill-rule="evenodd" clip-rule="evenodd" d="M859.299 334.544L838.844 334.531L838.839 342.713L830.657 342.707L830.652 350.889L822.47 350.884L822.465 359.065L814.283 359.06L814.278 367.242L806.096 367.237L806.091 375.419L797.909 375.413L797.904 383.595L789.722 383.59L789.717 391.772L781.535 391.766L781.53 399.948L773.347 399.943L773.332 424.488L781.514 424.494L781.509 432.675L789.69 432.681L789.685 440.863L797.867 440.868L797.861 449.05L806.043 449.055L806.038 457.236L814.22 457.242L814.214 465.423L822.397 465.429L822.391 473.611L830.573 473.616L830.567 481.798L838.749 481.803L838.744 489.985L859.199 489.998L859.206 477.725L842.843 477.715L842.848 469.533L834.667 469.528L834.672 461.346L826.49 461.341L826.495 453.159L818.313 453.153L818.318 444.972L810.137 444.966L810.142 436.785L801.96 436.78L801.966 428.598L793.784 428.593L793.789 420.41L785.607 420.405L785.617 404.042L793.8 404.047L793.805 395.865L801.987 395.87L801.992 387.689L810.174 387.694L810.179 379.512L818.361 379.518L818.366 371.336L826.548 371.341L826.553 363.159L834.735 363.164L834.74 354.983L842.922 354.988L842.927 346.806L859.291 346.817L859.299 334.544Z" fill="white"/>
<rect x="838.799" y="404.076" width="20.4545" height="20.4545" transform="rotate(0.0369024 838.799 404.076)" fill="white"/>
<path fill-rule="evenodd" clip-rule="evenodd" d="M1196.12 334.795L1216.58 334.808L1216.57 342.99L1224.75 342.995L1224.75 351.177L1232.93 351.182L1232.93 359.364L1241.11 359.369L1241.1 367.551L1249.28 367.556L1249.28 375.738L1257.46 375.743L1257.46 383.925L1265.64 383.93L1265.63 392.112L1273.81 392.117L1273.81 400.299L1281.99 400.304L1281.97 424.85L1273.79 424.845L1273.79 433.026L1265.61 433.021L1265.6 441.203L1257.42 441.198L1257.41 449.38L1249.23 449.374L1249.23 457.556L1241.04 457.551L1241.04 465.732L1232.86 465.727L1232.85 473.909L1224.67 473.904L1224.66 482.085L1216.48 482.08L1216.48 490.262L1196.02 490.249L1196.03 477.976L1212.39 477.987L1212.4 469.805L1220.58 469.81L1220.59 461.628L1228.77 461.634L1228.77 453.452L1236.96 453.457L1236.96 445.275L1245.14 445.281L1245.15 437.099L1253.33 437.104L1253.34 428.922L1261.52 428.928L1261.52 420.746L1269.7 420.751L1269.71 404.387L1261.53 404.382L1261.54 396.2L1253.36 396.195L1253.36 388.014L1245.18 388.008L1245.19 379.826L1237 379.821L1237.01 371.639L1228.83 371.634L1228.83 363.452L1220.65 363.447L1220.66 355.265L1212.47 355.26L1212.48 347.078L1196.12 347.068L1196.12 334.795Z" fill="white"/>
<path fill-rule="evenodd" clip-rule="evenodd" d="M1216.58 334.809L1196.12 334.795L1196.12 342.977L1187.94 342.972L1187.93 351.154L1179.75 351.148L1179.74 359.33L1171.56 359.325L1171.56 367.507L1163.38 367.502L1163.37 375.683L1155.19 375.678L1155.18 383.86L1147 383.855L1147 392.036L1138.81 392.031L1138.81 400.213L1130.63 400.208L1130.61 424.753L1138.79 424.758L1138.79 432.94L1146.97 432.945L1146.96 441.127L1155.15 441.133L1155.14 449.314L1163.32 449.32L1163.32 457.501L1171.5 457.506L1171.49 465.688L1179.68 465.693L1179.67 473.875L1187.85 473.881L1187.85 482.062L1196.03 482.068L1196.02 490.249L1216.48 490.263L1216.49 477.99L1200.12 477.979L1200.13 469.798L1191.95 469.792L1191.95 461.611L1183.77 461.605L1183.77 453.423L1175.59 453.418L1175.6 445.236L1167.42 445.231L1167.42 437.05L1159.24 437.044L1159.25 428.863L1151.06 428.857L1151.07 420.675L1142.89 420.67L1142.9 404.306L1151.08 404.312L1151.08 396.13L1159.27 396.135L1159.27 387.954L1167.45 387.959L1167.46 379.777L1175.64 379.782L1175.65 371.6L1183.83 371.605L1183.83 363.424L1192.01 363.429L1192.02 355.247L1200.2 355.253L1200.21 347.071L1216.57 347.081L1216.58 334.809Z" fill="white"/>
<rect x="1196.08" y="404.341" width="20.4545" height="20.4545" transform="rotate(0.0369024 1196.08 404.341)" fill="white"/>
<path d="M278.113 341.227L268.596 341.221L268.573 376.119L278.091 376.125L278.087 382.47L287.604 382.476L287.598 391.993L297.116 392L297.11 401.517L303.455 401.521L303.477 366.623L293.96 366.617L293.964 360.272L287.619 360.268L287.625 350.751L278.107 350.744L278.113 341.227Z" fill="white"/>
<path d="M338.391 341.265L347.908 341.271L347.886 376.169L338.368 376.163L338.364 382.508L328.846 382.502L328.84 392.02L319.323 392.014L319.317 401.531L312.972 401.527L312.994 366.629L322.512 366.635L322.516 360.29L328.861 360.294L328.867 350.777L338.384 350.783L338.391 341.265Z" fill="white"/>
<path d="M325.66 404.708L325.654 414.226L360.552 414.248L360.558 404.73L366.903 404.735L366.909 395.217L376.427 395.223L376.433 385.705L385.951 385.712L385.955 379.367L351.057 379.344L351.051 388.862L344.706 388.858L344.702 395.203L335.184 395.197L335.178 404.714L325.66 404.708Z" fill="white"/>
<path d="M385.91 449.162L385.904 458.68L351.006 458.657L351.013 449.14L344.668 449.136L344.674 439.618L335.156 439.612L335.162 430.094L325.645 430.088L325.649 423.743L360.547 423.765L360.54 433.283L366.885 433.287L366.881 439.632L376.399 439.638L376.393 449.156L385.91 449.162Z" fill="white"/>
<path d="M338.291 496.719L347.809 496.726L347.831 461.828L338.313 461.822L338.318 455.477L328.8 455.47L328.806 445.953L319.289 445.947L319.295 436.429L312.95 436.425L312.927 471.323L322.445 471.329L322.441 477.674L328.786 477.678L328.78 487.196L338.297 487.202L338.291 496.719Z" fill="white"/>
<path d="M278.014 496.681L268.496 496.675L268.519 461.777L278.036 461.783L278.04 455.438L287.558 455.444L287.564 445.927L297.082 445.933L297.088 436.415L303.433 436.419L303.41 471.317L293.893 471.311L293.889 477.656L287.544 477.652L287.537 487.169L278.02 487.163L278.014 496.681Z" fill="white"/>
<path d="M230.494 388.784L230.5 379.267L265.398 379.289L265.392 388.807L271.737 388.811L271.731 398.328L281.248 398.334L281.242 407.852L290.76 407.858L290.756 414.203L255.858 414.181L255.864 404.663L249.519 404.659L249.523 398.314L240.005 398.308L240.011 388.79L230.494 388.784Z" fill="white"/>
<path d="M290.744 433.238L290.75 423.721L255.852 423.698L255.846 433.216L249.501 433.212L249.495 442.729L239.977 442.723L239.971 452.241L230.454 452.235L230.449 458.58L265.347 458.602L265.353 449.085L271.698 449.089L271.703 442.744L281.22 442.75L281.226 433.232L290.744 433.238Z" fill="white"/>
<rect x="303.447" y="414.212" width="9.5176" height="9.5176" transform="rotate(0.0369024 303.447 414.212)" fill="white"/>
<path fill-rule="evenodd" clip-rule="evenodd" d="M298.416 162.583L318.87 162.596L318.865 170.778L327.047 170.783L327.042 178.965L335.224 178.97L335.219 187.152L343.4 187.157L343.395 195.339L351.577 195.345L351.572 203.526L359.754 203.532L359.748 211.713L367.93 211.719L367.925 219.9L376.106 219.906L376.101 228.087L384.283 228.093L384.267 252.638L376.085 252.633L376.08 260.814L367.899 260.809L367.893 268.991L359.712 268.986L359.706 277.168L351.525 277.163L351.519 285.344L343.337 285.339L343.332 293.521L335.15 293.515L335.145 301.697L326.963 301.692L326.958 309.874L318.776 309.868L318.771 318.051L298.316 318.037L298.324 305.765L314.688 305.775L314.693 297.593L322.875 297.598L322.88 289.417L331.062 289.422L331.067 281.24L339.249 281.245L339.255 273.064L347.436 273.069L347.442 264.887L355.623 264.893L355.629 256.711L363.81 256.716L363.815 248.534L371.997 248.539L372.008 232.176L363.826 232.17L363.831 223.989L355.649 223.984L355.655 215.802L347.473 215.796L347.478 207.615L339.297 207.609L339.302 199.427L331.12 199.422L331.125 191.24L322.943 191.235L322.949 183.053L314.767 183.048L314.772 174.866L298.408 174.856L298.416 162.583Z" fill="white"/>
<path fill-rule="evenodd" clip-rule="evenodd" d="M318.871 162.597L298.417 162.584L298.411 170.765L290.229 170.76L290.224 178.942L282.042 178.937L282.037 187.118L273.855 187.113L273.85 195.295L265.668 195.29L265.663 203.472L257.481 203.466L257.476 211.648L249.294 211.643L249.289 219.824L241.107 219.819L241.102 228.001L232.92 227.996L232.904 252.541L241.086 252.546L241.081 260.728L249.263 260.733L249.257 268.915L257.439 268.921L257.434 277.102L265.615 277.108L265.61 285.289L273.792 285.294L273.787 293.476L281.969 293.481L281.963 301.663L290.145 301.669L290.14 309.851L298.322 309.856L298.316 318.037L318.771 318.051L318.779 305.778L302.415 305.767L302.42 297.586L294.239 297.58L294.244 289.399L286.062 289.393L286.067 281.211L277.885 281.206L277.891 273.024L269.709 273.019L269.714 264.837L261.533 264.832L261.538 256.651L253.356 256.645L253.361 248.463L245.179 248.458L245.19 232.095L253.372 232.1L253.377 223.918L261.559 223.923L261.564 215.742L269.746 215.747L269.751 207.565L277.933 207.57L277.938 199.388L286.12 199.394L286.125 191.212L294.307 191.217L294.312 183.035L302.494 183.041L302.499 174.859L318.863 174.869L318.871 162.597Z" fill="white"/>
<rect x="298.371" y="232.129" width="20.4545" height="20.4545" transform="rotate(0.0369024 298.371 232.129)" fill="white"/>
<path d="M632.162 -24.3684L622.645 -24.3745L622.622 10.5233L632.14 10.5295L632.136 16.8745L641.653 16.8807L641.647 26.3983L651.165 26.4044L651.158 35.922L657.504 35.9261L657.526 1.02822L648.008 1.02209L648.013 -5.32298L641.667 -5.32706L641.674 -14.8447L632.156 -14.8508L632.162 -24.3684Z" fill="white"/>
<path d="M692.439 -24.3294L701.957 -24.3232L701.935 10.5746L692.417 10.5685L692.413 16.9135L682.895 16.9074L682.889 26.425L673.372 26.4189L673.365 35.9365L667.02 35.9324L667.043 1.03453L676.56 1.04066L676.565 -5.3044L682.91 -5.30031L682.916 -14.8179L692.433 -14.8118L692.439 -24.3294Z" fill="white"/>
<path d="M679.709 39.1128L679.703 48.6304L714.601 48.6528L714.607 39.1353L720.952 39.1393L720.958 29.6217L730.476 29.6279L730.482 20.1103L740 20.1164L740.004 13.7713L705.106 13.7489L705.1 23.2665L698.755 23.2624L698.751 29.6074L689.233 29.6013L689.227 39.1189L679.709 39.1128Z" fill="white"/>
<path d="M739.959 83.5669L739.953 93.0845L705.055 93.062L705.061 83.5444L698.716 83.5403L698.722 74.0227L689.205 74.0166L689.211 64.499L679.693 64.4929L679.698 58.1478L714.595 58.1703L714.589 67.6879L720.934 67.692L720.93 74.037L730.448 74.0432L730.442 83.5607L739.959 83.5669Z" fill="white"/>
<path d="M692.34 131.125L701.857 131.131L701.88 96.233L692.362 96.2269L692.366 89.8818L682.849 89.8757L682.855 80.3581L673.337 80.352L673.343 70.8344L666.998 70.8303L666.976 105.728L676.494 105.734L676.489 112.079L682.834 112.083L682.828 121.601L692.346 121.607L692.34 131.125Z" fill="white"/>
<path d="M632.063 131.085L622.545 131.079L622.567 96.1813L632.085 96.1874L632.089 89.8423L641.607 89.8485L641.613 80.3309L651.13 80.337L651.137 70.8194L657.482 70.8235L657.459 105.721L647.942 105.715L647.937 112.06L641.592 112.056L641.586 121.574L632.069 121.568L632.063 131.085Z" fill="white"/>
<path d="M584.543 23.189L584.549 13.6714L619.447 13.6939L619.441 23.2115L625.786 23.2155L625.779 32.7331L635.297 32.7393L635.291 42.2569L644.809 42.263L644.804 48.6081L609.907 48.5856L609.913 39.068L603.568 39.0639L603.572 32.7188L594.054 32.7127L594.06 23.1951L584.543 23.189Z" fill="white"/>
<path d="M644.793 67.6436L644.799 58.126L609.901 58.1035L609.895 67.6211L603.55 67.617L603.544 77.1346L594.026 77.1285L594.02 86.6461L584.502 86.6399L584.498 92.985L619.396 93.0075L619.402 83.4899L625.747 83.494L625.751 77.1489L635.269 77.155L635.275 67.6374L644.793 67.6436Z" fill="white"/>
<rect x="657.496" y="48.6162" width="9.5176" height="9.5176" transform="rotate(0.0369024 657.496 48.6162)" fill="white"/>
<path d="M631.965 332.925L622.447 332.919L622.425 367.817L631.942 367.823L631.938 374.168L641.456 374.174L641.45 383.692L650.967 383.698L650.961 393.215L657.306 393.22L657.329 358.322L647.811 358.316L647.815 351.97L641.47 351.966L641.476 342.449L631.959 342.443L631.965 332.925Z" fill="white"/>
<path d="M692.242 332.964L701.76 332.97L701.737 367.868L692.22 367.861L692.216 374.207L682.698 374.2L682.692 383.718L673.174 383.712L673.168 393.229L666.823 393.225L666.846 358.328L676.363 358.334L676.367 351.989L682.712 351.993L682.718 342.475L692.236 342.481L692.242 332.964Z" fill="white"/>
<path d="M679.512 396.406L679.506 405.924L714.404 405.946L714.41 396.429L720.755 396.433L720.761 386.915L730.279 386.921L730.285 377.404L739.802 377.41L739.806 371.065L704.909 371.042L704.902 380.56L698.557 380.556L698.553 386.901L689.036 386.895L689.03 396.412L679.512 396.406Z" fill="white"/>
<path d="M739.762 440.86L739.756 450.378L704.858 450.355L704.864 440.838L698.519 440.834L698.525 431.316L689.008 431.31L689.014 421.792L679.496 421.786L679.5 415.441L714.398 415.464L714.392 424.981L720.737 424.985L720.733 431.33L730.251 431.337L730.244 440.854L739.762 440.86Z" fill="white"/>
<path d="M692.143 488.418L701.66 488.424L701.683 453.526L692.165 453.52L692.169 447.175L682.652 447.169L682.658 437.651L673.14 437.645L673.146 428.127L666.801 428.123L666.779 463.021L676.296 463.027L676.292 469.372L682.637 469.376L682.631 478.894L692.149 478.9L692.143 488.418Z" fill="white"/>
<path d="M631.865 488.379L622.348 488.373L622.37 453.475L631.888 453.481L631.892 447.136L641.409 447.142L641.416 437.625L650.933 437.631L650.939 428.113L657.284 428.117L657.262 463.015L647.744 463.009L647.74 469.354L641.395 469.35L641.389 478.868L631.871 478.862L631.865 488.379Z" fill="white"/>
<path d="M584.345 380.482L584.352 370.965L619.249 370.987L619.243 380.505L625.588 380.509L625.582 390.027L635.1 390.033L635.094 399.55L644.611 399.556L644.607 405.902L609.709 405.879L609.715 396.361L603.37 396.357L603.374 390.012L593.857 390.006L593.863 380.489L584.345 380.482Z" fill="white"/>
<path d="M644.595 424.937L644.602 415.419L609.704 415.396L609.698 424.914L603.353 424.91L603.346 434.428L593.829 434.421L593.823 443.939L584.305 443.933L584.301 450.278L619.199 450.3L619.205 440.783L625.55 440.787L625.554 434.442L635.072 434.448L635.078 424.93L644.595 424.937Z" fill="white"/>
<rect x="657.299" y="405.91" width="9.5176" height="9.5176" transform="rotate(0.0369024 657.299 405.91)" fill="white"/>
<path fill-rule="evenodd" clip-rule="evenodd" d="M652.268 154.282L672.722 154.295L672.717 162.477L680.899 162.482L680.894 170.664L689.076 170.67L689.07 178.851L697.252 178.857L697.246 187.038L705.429 187.044L705.423 195.226L713.605 195.231L713.6 203.413L721.781 203.418L721.776 211.6L729.958 211.605L729.952 219.787L738.135 219.792L738.119 244.337L729.937 244.332L729.931 252.514L721.75 252.508L721.745 260.69L713.563 260.685L713.558 268.867L705.376 268.862L705.371 277.043L697.188 277.038L697.183 285.22L689.001 285.215L688.996 293.396L680.815 293.391L680.809 301.573L672.628 301.568L672.622 309.75L652.168 309.737L652.176 297.464L668.539 297.474L668.544 289.292L676.726 289.297L676.731 281.116L684.913 281.121L684.918 272.939L693.101 272.945L693.106 264.763L701.288 264.768L701.293 256.586L709.475 256.592L709.48 248.41L717.661 248.415L717.666 240.233L725.849 240.238L725.859 223.875L717.677 223.87L717.682 215.688L709.501 215.683L709.506 207.501L701.325 207.496L701.33 199.314L693.148 199.308L693.153 191.127L684.971 191.121L684.976 182.94L676.795 182.934L676.8 174.752L668.618 174.747L668.624 166.565L652.26 166.555L652.268 154.282Z" fill="white"/>
<path fill-rule="evenodd" clip-rule="evenodd" d="M672.723 154.296L652.268 154.283L652.263 162.464L644.081 162.459L644.076 170.641L635.894 170.636L635.889 178.817L627.707 178.812L627.702 186.994L619.52 186.989L619.514 195.171L611.333 195.165L611.327 203.347L603.146 203.342L603.141 211.524L594.959 211.518L594.954 219.7L586.771 219.695L586.755 244.24L594.938 244.246L594.932 252.427L603.114 252.432L603.109 260.615L611.291 260.62L611.285 268.802L619.467 268.807L619.462 276.988L627.644 276.994L627.638 285.175L635.82 285.181L635.815 293.363L643.997 293.368L643.991 301.55L652.173 301.555L652.168 309.737L672.622 309.75L672.63 297.477L656.267 297.467L656.272 289.285L648.09 289.28L648.096 281.098L639.914 281.093L639.919 272.911L631.737 272.905L631.742 264.724L623.561 264.718L623.566 256.537L615.384 256.532L615.39 248.35L607.208 248.345L607.213 240.162L599.031 240.157L599.041 223.794L607.224 223.799L607.229 215.617L615.411 215.622L615.416 207.441L623.598 207.446L623.603 199.264L631.785 199.27L631.79 191.087L639.972 191.093L639.977 182.911L648.159 182.916L648.164 174.735L656.346 174.74L656.351 166.558L672.715 166.569L672.723 154.296Z" fill="white"/>
<rect x="652.223" y="223.828" width="20.4545" height="20.4545" transform="rotate(0.0369024 652.223 223.828)" fill="white"/>
<path fill-rule="evenodd" clip-rule="evenodd" d="M119.875 -16.2036L140.329 -16.1904L140.324 -8.0088L148.506 -8.00353L148.501 0.178527L156.683 0.183796L156.678 8.36542L164.859 8.37068L164.854 16.5525L173.036 16.5578L173.031 24.7398L181.213 24.7451L181.207 32.9267L189.389 32.932L189.384 41.1137L197.565 41.119L197.56 49.3007L205.742 49.306L205.726 73.8513L197.544 73.8461L197.539 82.0278L189.357 82.0226L189.352 90.2047L181.17 90.1994L181.165 98.3811L172.983 98.3758L172.978 106.558L164.796 106.552L164.791 114.734L156.609 114.729L156.604 122.91L148.422 122.905L148.417 131.087L140.235 131.082L140.23 139.264L119.775 139.251L119.783 126.978L136.147 126.988L136.152 118.806L144.334 118.812L144.339 110.63L152.52 110.635L152.526 102.453L160.708 102.459L160.713 94.277L168.895 94.2823L168.9 86.1005L177.082 86.1058L177.087 77.9241L185.269 77.9294L185.274 69.7472L193.456 69.7525L193.467 53.3891L185.285 53.3838L185.29 45.202L177.108 45.1968L177.114 37.0152L168.932 37.0099L168.937 28.8278L160.755 28.8225L160.761 20.6407L152.578 20.6355L152.584 12.4538L144.402 12.4486L144.408 4.26652L136.226 4.26125L136.231 -3.92039L119.867 -3.93093L119.875 -16.2036Z" fill="white"/>
<path fill-rule="evenodd" clip-rule="evenodd" d="M140.33 -16.1899L119.876 -16.2031L119.87 -8.02139L111.688 -8.02666L111.683 0.155066L103.501 0.149797L103.496 8.33161L95.3142 8.32634L95.309 16.5084L87.1271 16.5031L87.1218 24.6848L78.9402 24.6795L78.9349 32.8613L70.7531 32.8561L70.7479 41.0377L62.5662 41.0325L62.561 49.2142L54.3786 49.2089L54.3628 73.7543L62.5452 73.7596L62.5399 81.9415L70.7217 81.9468L70.7165 90.1287L78.898 90.1339L78.8928 98.3157L87.0742 98.321L87.0689 106.503L95.2511 106.508L95.2458 114.69L103.428 114.695L103.423 122.877L111.604 122.882L111.599 131.064L119.78 131.069L119.775 139.251L140.23 139.264L140.238 126.991L123.874 126.981L123.879 118.799L115.698 118.794L115.703 110.612L107.521 110.607L107.526 102.425L99.3442 102.42L99.3495 94.2378L91.1681 94.2325L91.1734 86.0509L82.9918 86.0457L82.997 77.8639L74.8152 77.8586L74.8205 69.6767L66.6381 69.6714L66.6487 53.3078L74.831 53.313L74.8363 45.1314L83.0179 45.1366L83.0232 36.9548L91.2049 36.9601L91.2102 28.7784L99.3919 28.7837L99.3971 20.6017L107.579 20.6069L107.584 12.4251L115.766 12.4304L115.771 4.24866L123.953 4.25393L123.958 -3.92779L140.322 -3.91725L140.33 -16.1899Z" fill="white"/>
<rect x="119.83" y="53.3418" width="20.4545" height="20.4545" transform="rotate(0.0369024 119.83 53.3418)" fill="white"/>
<path fill-rule="evenodd" clip-rule="evenodd" d="M477.184 -15.9741L497.638 -15.9609L497.633 -7.7793L505.815 -7.77403L505.809 0.408026L513.992 0.413296L513.986 8.5949L522.168 8.60017L522.162 16.782L530.345 16.7873L530.339 24.9693L538.521 24.9746L538.516 33.1562L546.697 33.1615L546.692 41.3432L554.874 41.3485L554.869 49.5302L563.05 49.5355L563.035 74.0808L554.853 74.0756L554.847 82.2573L546.666 82.2521L546.661 90.4342L538.479 90.4289L538.474 98.6106L530.292 98.6054L530.287 106.787L522.104 106.782L522.099 114.964L513.917 114.958L513.912 123.14L505.731 123.135L505.725 131.317L497.544 131.311L497.538 139.493L477.084 139.48L477.092 127.207L493.455 127.218L493.46 119.036L501.642 119.041L501.647 110.859L509.829 110.865L509.834 102.683L518.017 102.688L518.022 94.5065L526.204 94.5118L526.209 86.3301L534.391 86.3353L534.396 78.1536L542.577 78.1589L542.582 69.9767L550.765 69.982L550.775 53.6186L542.593 53.6133L542.598 45.4315L534.417 45.4263L534.422 37.2447L526.241 37.2394L526.246 29.0573L518.064 29.052L518.069 20.8702L509.887 20.865L509.892 12.6833L501.711 12.6781L501.716 4.49602L493.534 4.49075L493.539 -3.69089L477.176 -3.70143L477.184 -15.9741Z" fill="white"/>
<path fill-rule="evenodd" clip-rule="evenodd" d="M497.641 -15.9604L477.186 -15.9736L477.181 -7.792L468.999 -7.79727L468.993 0.384473L460.812 0.379203L460.806 8.56094L452.625 8.55567L452.619 16.7378L444.437 16.7325L444.432 24.9143L436.251 24.909L436.245 33.0907L428.064 33.0854L428.058 41.2672L419.877 41.2619L419.871 49.4436L411.689 49.4383L411.673 73.9837L419.856 73.989L419.85 82.1709L428.032 82.1762L428.027 90.3581L436.208 90.3633L436.203 98.5451L444.385 98.5504L444.379 106.732L452.562 106.737L452.556 114.919L460.738 114.924L460.733 123.106L468.914 123.112L468.909 131.293L477.091 131.299L477.086 139.48L497.54 139.493L497.548 127.221L481.184 127.21L481.19 119.029L473.008 119.023L473.013 110.841L464.832 110.836L464.837 102.654L456.655 102.649L456.66 94.4672L448.479 94.4619L448.484 86.2803L440.302 86.275L440.307 78.0933L432.126 78.088L432.131 69.9061L423.949 69.9008L423.959 53.5373L432.141 53.5425L432.147 45.3608L440.328 45.366L440.334 37.1843L448.515 37.1896L448.521 29.0078L456.702 29.0131L456.708 20.831L464.889 20.8363L464.895 12.6545L473.076 12.6598L473.082 4.47805L481.263 4.48332L481.269 -3.6983L497.633 -3.68776L497.641 -15.9604Z" fill="white"/>
<rect x="477.141" y="53.5713" width="20.4545" height="20.4545" transform="rotate(0.0369024 477.141 53.5713)" fill="white"/>
<path fill-rule="evenodd" clip-rule="evenodd" d="M119.609 341.159L140.064 341.172L140.059 349.354L148.241 349.359L148.235 357.541L156.417 357.546L156.412 365.728L164.593 365.734L164.588 373.915L172.77 373.92L172.765 382.103L180.947 382.108L180.942 390.289L189.123 390.295L189.118 398.476L197.299 398.482L197.294 406.663L205.476 406.669L205.461 431.214L197.278 431.209L197.273 439.391L189.092 439.385L189.086 447.567L180.905 447.562L180.899 455.744L172.718 455.739L172.712 463.92L164.53 463.915L164.525 472.097L156.343 472.091L156.338 480.273L148.156 480.268L148.151 488.45L139.969 488.444L139.964 496.627L119.51 496.613L119.518 484.341L135.881 484.351L135.886 476.169L144.068 476.174L144.073 467.993L152.255 467.998L152.26 459.816L160.442 459.821L160.448 451.64L168.629 451.645L168.635 443.463L176.816 443.469L176.822 435.287L185.003 435.292L185.008 427.11L193.191 427.115L193.201 410.752L185.019 410.746L185.024 402.565L176.843 402.559L176.848 394.378L168.666 394.373L168.672 386.19L160.49 386.185L160.495 378.004L152.313 377.998L152.318 369.817L144.137 369.811L144.142 361.629L135.96 361.624L135.965 353.442L119.601 353.432L119.609 341.159Z" fill="white"/>
<path fill-rule="evenodd" clip-rule="evenodd" d="M140.064 341.173L119.61 341.16L119.605 349.341L111.422 349.336L111.417 357.518L103.236 357.513L103.23 365.694L95.0487 365.689L95.0435 373.871L86.8616 373.866L86.8563 382.048L78.6746 382.042L78.6693 390.224L70.4877 390.219L70.4824 398.401L62.3007 398.395L62.2954 406.577L54.113 406.572L54.0972 431.117L62.2794 431.123L62.2742 439.304L70.4559 439.309L70.4506 447.491L78.6322 447.497L78.627 455.679L86.8086 455.684L86.8034 463.865L94.9853 463.871L94.9801 472.052L103.162 472.058L103.157 480.24L111.338 480.245L111.333 488.427L119.515 488.432L119.51 496.614L139.964 496.627L139.972 484.354L123.608 484.344L123.614 476.162L115.432 476.157L115.437 467.975L107.255 467.97L107.261 459.788L99.0787 459.782L99.084 451.601L90.9023 451.595L90.9076 443.414L82.726 443.408L82.7312 435.227L74.5495 435.221L74.5548 427.039L66.3725 427.034L66.3831 410.671L74.5654 410.676L74.5707 402.494L82.7524 402.499L82.7577 394.318L90.9394 394.323L90.9446 386.141L99.1264 386.147L99.1316 377.964L107.314 377.97L107.319 369.788L115.5 369.793L115.506 361.611L123.687 361.617L123.692 353.435L140.057 353.446L140.064 341.173Z" fill="white"/>
<rect x="119.564" y="410.705" width="20.4545" height="20.4545" transform="rotate(0.0369024 119.564 410.705)" fill="white"/>
<path fill-rule="evenodd" clip-rule="evenodd" d="M476.957 341.354L497.412 341.368L497.406 349.549L505.588 349.555L505.583 357.737L513.765 357.742L513.76 365.924L521.941 365.929L521.936 374.111L530.118 374.116L530.113 382.298L538.295 382.303L538.289 390.485L546.471 390.49L546.465 398.672L554.647 398.677L554.642 406.859L562.824 406.864L562.808 431.409L554.626 431.404L554.621 439.586L546.439 439.581L546.434 447.763L538.252 447.757L538.247 455.939L530.065 455.934L530.06 464.116L521.878 464.11L521.872 472.292L513.691 472.287L513.685 480.469L505.504 480.463L505.499 488.645L497.317 488.64L497.312 496.822L476.857 496.809L476.865 484.536L493.229 484.547L493.234 476.364L501.415 476.37L501.421 468.188L509.602 468.193L509.608 460.011L517.79 460.017L517.795 451.835L525.977 451.84L525.982 443.659L534.164 443.664L534.169 435.482L542.35 435.487L542.356 427.305L550.538 427.311L550.549 410.947L542.366 410.942L542.372 402.76L534.19 402.755L534.195 394.573L526.014 394.568L526.019 386.386L517.837 386.381L517.843 378.199L509.66 378.194L509.666 370.012L501.484 370.007L501.489 361.825L493.307 361.819L493.313 353.638L476.949 353.627L476.957 341.354Z" fill="white"/>
<path fill-rule="evenodd" clip-rule="evenodd" d="M497.412 341.368L476.958 341.355L476.952 349.537L468.77 349.531L468.765 357.713L460.583 357.708L460.578 365.89L452.396 365.884L452.391 374.066L444.209 374.061L444.204 382.243L436.022 382.238L436.017 390.419L427.835 390.414L427.83 398.596L419.648 398.591L419.643 406.772L411.461 406.767L411.445 431.312L419.627 431.318L419.622 439.499L427.804 439.505L427.798 447.687L435.98 447.692L435.975 455.874L444.156 455.879L444.151 464.061L452.333 464.066L452.328 472.248L460.51 472.253L460.504 480.435L468.686 480.44L468.681 488.622L476.863 488.627L476.857 496.809L497.312 496.822L497.32 484.549L480.956 484.539L480.961 476.357L472.78 476.352L472.785 468.17L464.603 468.165L464.608 459.983L456.426 459.978L456.432 451.796L448.25 451.791L448.255 443.609L440.074 443.604L440.079 435.422L431.897 435.417L431.902 427.235L423.72 427.229L423.731 410.866L431.913 410.871L431.918 402.689L440.1 402.695L440.105 394.513L448.287 394.518L448.292 386.336L456.474 386.342L456.479 378.16L464.661 378.165L464.666 369.983L472.848 369.988L472.853 361.807L481.035 361.812L481.04 353.63L497.404 353.641L497.412 341.368Z" fill="white"/>
<rect x="476.912" y="410.9" width="20.4545" height="20.4545" transform="rotate(0.0369024 476.912 410.9)" fill="white"/>
</g>
<g opacity="0.02">
<path d="M813.738 729.896L804.221 729.89L804.198 764.787L813.716 764.794L813.712 771.139L823.229 771.145L823.223 780.662L832.741 780.669L832.735 790.186L839.08 790.19L839.102 755.292L829.585 755.286L829.589 748.941L823.244 748.937L823.25 739.42L813.732 739.413L813.738 729.896Z" fill="white"/>
<path d="M874.016 729.934L883.533 729.94L883.511 764.838L873.993 764.832L873.989 771.177L864.471 771.171L864.465 780.689L854.948 780.683L854.942 790.2L848.597 790.196L848.619 755.298L858.137 755.304L858.141 748.959L864.486 748.963L864.492 739.446L874.009 739.452L874.016 729.934Z" fill="white"/>
<path d="M861.285 793.377L861.279 802.895L896.177 802.917L896.183 793.399L902.528 793.404L902.534 783.886L912.052 783.892L912.058 774.374L921.576 774.381L921.58 768.036L886.682 768.013L886.676 777.531L880.331 777.527L880.327 783.872L870.809 783.865L870.803 793.383L861.285 793.377Z" fill="white"/>
<path d="M921.535 837.831L921.529 847.349L886.631 847.326L886.638 837.809L880.293 837.804L880.299 828.287L870.781 828.281L870.787 818.763L861.27 818.757L861.274 812.412L896.172 812.434L896.165 821.952L902.51 821.956L902.506 828.301L912.024 828.307L912.018 837.825L921.535 837.831Z" fill="white"/>
<path d="M873.916 885.388L883.434 885.395L883.456 850.497L873.938 850.491L873.943 844.145L864.425 844.139L864.431 834.622L854.914 834.616L854.92 825.098L848.575 825.094L848.552 859.992L858.07 859.998L858.066 866.343L864.411 866.347L864.405 875.865L873.922 875.871L873.916 885.388Z" fill="white"/>
<path d="M813.639 885.35L804.121 885.344L804.144 850.446L813.661 850.452L813.665 844.107L823.183 844.113L823.189 834.596L832.707 834.602L832.713 825.084L839.058 825.088L839.035 859.986L829.518 859.98L829.514 866.325L823.169 866.321L823.162 875.838L813.645 875.832L813.639 885.35Z" fill="white"/>
<path d="M766.119 777.453L766.125 767.936L801.023 767.958L801.017 777.476L807.362 777.48L807.356 786.997L816.873 787.003L816.867 796.521L826.385 796.527L826.381 802.872L791.483 802.85L791.489 793.332L785.144 793.328L785.148 786.983L775.63 786.977L775.636 777.459L766.119 777.453Z" fill="white"/>
<path d="M826.369 821.908L826.375 812.391L791.477 812.368L791.471 821.886L785.126 821.882L785.12 831.399L775.602 831.393L775.596 840.911L766.079 840.905L766.074 847.25L800.972 847.272L800.978 837.755L807.323 837.759L807.328 831.414L816.845 831.42L816.851 821.902L826.369 821.908Z" fill="white"/>
<rect x="839.072" y="802.881" width="9.5176" height="9.5176" transform="rotate(0.0369024 839.072 802.881)" fill="white"/>
<path d="M1171.05 730.125L1161.53 730.119L1161.51 765.017L1171.03 765.023L1171.02 771.368L1180.54 771.374L1180.54 780.892L1190.05 780.898L1190.05 790.416L1196.39 790.42L1196.41 755.522L1186.9 755.516L1186.9 749.171L1180.56 749.167L1180.56 739.649L1171.04 739.643L1171.05 730.125Z" fill="white"/>
<path d="M1231.33 730.164L1240.85 730.17L1240.82 765.068L1231.31 765.062L1231.3 771.407L1221.78 771.401L1221.78 780.918L1212.26 780.912L1212.25 790.43L1205.91 790.426L1205.93 755.528L1215.45 755.534L1215.45 749.189L1221.8 749.193L1221.8 739.675L1231.32 739.681L1231.33 730.164Z" fill="white"/>
<path d="M1218.6 793.606L1218.59 803.124L1253.49 803.147L1253.5 793.629L1259.84 793.633L1259.85 784.115L1269.36 784.122L1269.37 774.604L1278.89 774.61L1278.89 768.265L1243.99 768.243L1243.99 777.76L1237.64 777.756L1237.64 784.101L1228.12 784.095L1228.12 793.613L1218.6 793.606Z" fill="white"/>
<path d="M1278.85 838.061L1278.84 847.578L1243.94 847.556L1243.95 838.038L1237.61 838.034L1237.61 828.516L1228.09 828.51L1228.1 818.993L1218.58 818.987L1218.59 812.641L1253.48 812.664L1253.48 822.182L1259.82 822.186L1259.82 828.531L1269.34 828.537L1269.33 838.054L1278.85 838.061Z" fill="white"/>
<path d="M1231.23 885.618L1240.75 885.624L1240.77 850.726L1231.25 850.72L1231.26 844.375L1221.74 844.369L1221.74 834.851L1212.23 834.845L1212.23 825.328L1205.89 825.323L1205.86 860.221L1215.38 860.227L1215.38 866.572L1221.72 866.577L1221.72 876.094L1231.23 876.1L1231.23 885.618Z" fill="white"/>
<path d="M1170.95 885.579L1161.43 885.573L1161.46 850.675L1170.97 850.682L1170.98 844.336L1180.5 844.343L1180.5 834.825L1190.02 834.831L1190.03 825.314L1196.37 825.318L1196.35 860.215L1186.83 860.209L1186.83 866.554L1180.48 866.55L1180.47 876.068L1170.96 876.062L1170.95 885.579Z" fill="white"/>
<path d="M1123.43 777.683L1123.44 768.165L1158.34 768.188L1158.33 777.705L1164.67 777.709L1164.67 787.227L1174.19 787.233L1174.18 796.751L1183.7 796.757L1183.69 803.102L1148.8 803.079L1148.8 793.562L1142.46 793.558L1142.46 787.212L1132.94 787.206L1132.95 777.689L1123.43 777.683Z" fill="white"/>
<path d="M1183.68 822.137L1183.69 812.619L1148.79 812.597L1148.78 822.114L1142.44 822.11L1142.43 831.628L1132.91 831.622L1132.91 841.139L1123.39 841.133L1123.39 847.478L1158.28 847.501L1158.29 837.983L1164.64 837.987L1164.64 831.642L1174.16 831.648L1174.16 822.131L1183.68 822.137Z" fill="white"/>
<rect x="1196.38" y="803.11" width="9.5176" height="9.5176" transform="rotate(0.0369024 1196.38 803.11)" fill="white"/>
<path d="M992.51 551.338L982.992 551.332L982.97 586.23L992.487 586.236L992.483 592.581L1002 592.587L1001.99 602.105L1011.51 602.111L1011.51 611.629L1017.85 611.633L1017.87 576.735L1008.36 576.729L1008.36 570.384L1002.02 570.379L1002.02 560.862L992.504 560.856L992.51 551.338Z" fill="white"/>
<path d="M1052.79 551.377L1062.3 551.383L1062.28 586.281L1052.76 586.275L1052.76 592.62L1043.24 592.613L1043.24 602.131L1033.72 602.125L1033.71 611.643L1027.37 611.638L1027.39 576.741L1036.91 576.747L1036.91 570.402L1043.26 570.406L1043.26 560.888L1052.78 560.894L1052.79 551.377Z" fill="white"/>
<path d="M1040.06 614.819L1040.05 624.337L1074.95 624.359L1074.95 614.842L1081.3 614.846L1081.31 605.328L1090.82 605.334L1090.83 595.817L1100.35 595.823L1100.35 589.478L1065.45 589.455L1065.45 598.973L1059.1 598.969L1059.1 605.314L1049.58 605.308L1049.57 614.825L1040.06 614.819Z" fill="white"/>
<path d="M1100.31 659.273L1100.3 668.791L1065.4 668.769L1065.41 659.251L1059.06 659.247L1059.07 649.729L1049.55 649.723L1049.56 640.206L1040.04 640.199L1040.05 633.854L1074.94 633.877L1074.94 643.394L1081.28 643.399L1081.28 649.744L1090.8 649.75L1090.79 659.267L1100.31 659.273Z" fill="white"/>
<path d="M1052.69 706.831L1062.21 706.837L1062.23 671.939L1052.71 671.933L1052.71 665.588L1043.2 665.582L1043.2 656.064L1033.68 656.058L1033.69 646.54L1027.35 646.536L1027.32 681.434L1036.84 681.44L1036.84 687.785L1043.18 687.789L1043.18 697.307L1052.69 697.313L1052.69 706.831Z" fill="white"/>
<path d="M992.41 706.792L982.893 706.786L982.915 671.888L992.433 671.894L992.437 665.549L1001.95 665.555L1001.96 656.038L1011.48 656.044L1011.48 646.526L1017.83 646.531L1017.81 681.428L1008.29 681.422L1008.29 687.767L1001.94 687.763L1001.93 697.281L992.416 697.275L992.41 706.792Z" fill="white"/>
<path d="M944.89 598.896L944.896 589.378L979.794 589.4L979.788 598.918L986.133 598.922L986.127 608.44L995.645 608.446L995.639 617.963L1005.16 617.97L1005.15 624.315L970.254 624.292L970.26 614.775L963.915 614.77L963.919 608.425L954.402 608.419L954.408 598.902L944.89 598.896Z" fill="white"/>
<path d="M1005.14 643.35L1005.15 633.832L970.249 633.81L970.243 643.327L963.897 643.323L963.891 652.841L954.374 652.835L954.368 662.352L944.85 662.346L944.846 668.691L979.744 668.714L979.75 659.196L986.095 659.2L986.099 652.855L995.617 652.861L995.623 643.343L1005.14 643.35Z" fill="white"/>
<rect x="1017.84" y="624.323" width="9.5176" height="9.5176" transform="rotate(0.0369024 1017.84 624.323)" fill="white"/>
<path fill-rule="evenodd" clip-rule="evenodd" d="M1012.58 730.023L1033.04 730.037L1033.03 738.218L1041.21 738.224L1041.21 746.406L1049.39 746.411L1049.38 754.593L1057.57 754.598L1057.56 762.78L1065.74 762.785L1065.74 770.967L1073.92 770.972L1073.91 779.154L1082.1 779.159L1082.09 787.341L1090.27 787.346L1090.27 795.528L1098.45 795.533L1098.43 820.079L1090.25 820.073L1090.25 828.255L1082.06 828.25L1082.06 836.432L1073.88 836.426L1073.87 844.608L1065.69 844.603L1065.69 852.785L1057.5 852.779L1057.5 860.961L1049.32 860.956L1049.31 869.138L1041.13 869.132L1041.12 877.314L1032.94 877.309L1032.94 885.491L1012.48 885.478L1012.49 873.205L1028.85 873.216L1028.86 865.033L1037.04 865.039L1037.05 856.857L1045.23 856.862L1045.23 848.681L1053.42 848.686L1053.42 840.504L1061.6 840.509L1061.61 832.328L1069.79 832.333L1069.79 824.151L1077.98 824.156L1077.98 815.974L1086.16 815.98L1086.17 799.616L1077.99 799.611L1078 791.429L1069.82 791.424L1069.82 783.242L1061.64 783.237L1061.64 775.055L1053.46 775.05L1053.47 766.868L1045.29 766.863L1045.29 758.681L1037.11 758.676L1037.11 750.494L1028.93 750.488L1028.94 742.307L1012.57 742.296L1012.58 730.023Z" fill="white"/>
<path fill-rule="evenodd" clip-rule="evenodd" d="M1033.04 730.037L1012.58 730.024L1012.58 738.206L1004.4 738.2L1004.39 746.382L996.208 746.377L996.203 754.559L988.021 754.553L988.016 762.735L979.834 762.73L979.829 770.912L971.647 770.907L971.642 779.088L963.46 779.083L963.455 787.265L955.273 787.26L955.268 795.441L947.086 795.436L947.07 819.981L955.252 819.987L955.247 828.168L963.429 828.174L963.423 836.356L971.605 836.361L971.6 844.543L979.781 844.548L979.776 852.73L987.958 852.735L987.953 860.917L996.135 860.922L996.129 869.104L1004.31 869.109L1004.31 877.291L1012.49 877.296L1012.48 885.478L1032.94 885.491L1032.94 873.218L1016.58 873.208L1016.59 865.026L1008.4 865.021L1008.41 856.839L1000.23 856.834L1000.23 848.652L992.051 848.647L992.056 840.465L983.875 840.459L983.88 832.278L975.699 832.273L975.704 824.091L967.522 824.086L967.527 815.904L959.345 815.898L959.356 799.535L967.538 799.54L967.543 791.358L975.725 791.364L975.73 783.182L983.912 783.187L983.917 775.005L992.099 775.011L992.104 766.829L1000.29 766.834L1000.29 758.652L1008.47 758.657L1008.48 750.476L1016.66 750.481L1016.67 742.299L1033.03 742.31L1033.04 730.037Z" fill="white"/>
<rect x="1012.54" y="799.569" width="20.4545" height="20.4545" transform="rotate(0.0369024 1012.54 799.569)" fill="white"/>
<path d="M94.5684 736.457L85.0508 736.451L85.0283 771.349L94.5459 771.355L94.5418 777.7L104.059 777.706L104.053 787.224L113.571 787.23L113.565 796.748L119.91 796.752L119.932 761.854L110.415 761.848L110.419 755.503L104.074 755.499L104.08 745.981L94.5622 745.975L94.5684 736.457Z" fill="white"/>
<path d="M154.846 736.496L164.363 736.502L164.341 771.4L154.823 771.394L154.819 777.739L145.302 777.733L145.295 787.25L135.778 787.244L135.772 796.762L129.427 796.758L129.449 761.86L138.967 761.866L138.971 755.521L145.316 755.525L145.322 746.007L154.84 746.013L154.846 736.496Z" fill="white"/>
<path d="M142.116 799.938L142.109 809.456L177.007 809.479L177.013 799.961L183.358 799.965L183.365 790.447L192.882 790.454L192.888 780.936L202.406 780.942L202.41 774.597L167.512 774.575L167.506 784.092L161.161 784.088L161.157 790.433L151.639 790.427L151.633 799.945L142.116 799.938Z" fill="white"/>
<path d="M202.366 844.393L202.359 853.91L167.462 853.888L167.468 844.37L161.123 844.366L161.129 834.848L151.611 834.842L151.617 825.325L142.1 825.319L142.104 818.973L177.002 818.996L176.995 828.514L183.341 828.518L183.336 834.863L192.854 834.869L192.848 844.386L202.366 844.393Z" fill="white"/>
<path d="M154.746 891.95L164.264 891.956L164.286 857.058L154.769 857.052L154.773 850.707L145.255 850.701L145.261 841.183L135.744 841.177L135.75 831.66L129.405 831.655L129.382 866.553L138.9 866.559L138.896 872.905L145.241 872.909L145.235 882.426L154.752 882.432L154.746 891.95Z" fill="white"/>
<path d="M94.4688 891.911L84.9512 891.905L84.9736 857.007L94.4912 857.014L94.4953 850.668L104.013 850.675L104.019 841.157L113.537 841.163L113.543 831.646L119.888 831.65L119.865 866.547L110.348 866.541L110.344 872.886L103.999 872.882L103.992 882.4L94.4749 882.394L94.4688 891.911Z" fill="white"/>
<path d="M46.9489 784.015L46.9551 774.497L81.8529 774.52L81.8468 784.037L88.1919 784.041L88.1857 793.559L97.7033 793.565L97.6972 803.083L107.215 803.089L107.211 809.434L72.3128 809.411L72.319 799.894L65.9739 799.89L65.978 793.545L56.4604 793.538L56.4665 784.021L46.9489 784.015Z" fill="white"/>
<path d="M107.199 828.469L107.205 818.951L72.3072 818.929L72.3011 828.446L65.956 828.442L65.9499 837.96L56.4323 837.954L56.4262 847.471L46.9086 847.465L46.9045 853.81L81.8023 853.833L81.8085 844.315L88.1535 844.319L88.1576 837.974L97.6752 837.98L97.6814 828.463L107.199 828.469Z" fill="white"/>
<rect x="119.902" y="809.442" width="9.5176" height="9.5176" transform="rotate(0.0369024 119.902 809.442)" fill="white"/>
<path d="M451.883 736.689L442.365 736.683L442.343 771.58L451.86 771.587L451.856 777.932L461.374 777.938L461.368 787.455L470.885 787.462L470.879 796.979L477.224 796.983L477.247 762.085L467.729 762.079L467.733 755.734L461.388 755.73L461.394 746.212L451.877 746.206L451.883 736.689Z" fill="white"/>
<path d="M512.16 736.727L521.678 736.733L521.655 771.631L512.138 771.625L512.134 777.97L502.616 777.964L502.61 787.482L493.092 787.476L493.086 796.993L486.741 796.989L486.764 762.091L496.281 762.097L496.285 755.752L502.63 755.756L502.636 746.239L512.154 746.245L512.16 736.727Z" fill="white"/>
<path d="M499.43 800.17L499.424 809.688L534.322 809.71L534.328 800.192L540.673 800.196L540.679 790.679L550.197 790.685L550.203 781.167L559.72 781.174L559.724 774.828L524.827 774.806L524.82 784.324L518.475 784.32L518.471 790.665L508.954 790.658L508.948 800.176L499.43 800.17Z" fill="white"/>
<path d="M559.68 844.624L559.674 854.142L524.776 854.119L524.782 844.602L518.437 844.597L518.443 835.08L508.926 835.074L508.932 825.556L499.414 825.55L499.418 819.205L534.316 819.227L534.31 828.745L540.655 828.749L540.651 835.094L550.168 835.1L550.162 844.618L559.68 844.624Z" fill="white"/>
<path d="M512.061 892.181L521.578 892.188L521.601 857.29L512.083 857.284L512.087 850.938L502.569 850.932L502.576 841.415L493.058 841.409L493.064 831.891L486.719 831.887L486.697 866.785L496.214 866.791L496.21 873.136L502.555 873.14L502.549 882.658L512.067 882.664L512.061 892.181Z" fill="white"/>
<path d="M451.783 892.143L442.266 892.137L442.288 857.239L451.806 857.245L451.81 850.9L461.327 850.906L461.334 841.388L470.851 841.395L470.857 831.877L477.202 831.881L477.18 866.779L467.662 866.773L467.658 873.118L461.313 873.114L461.307 882.631L451.789 882.625L451.783 892.143Z" fill="white"/>
<path d="M404.263 784.246L404.27 774.729L439.167 774.751L439.161 784.269L445.506 784.273L445.5 793.79L455.018 793.796L455.012 803.314L464.529 803.32L464.525 809.665L429.627 809.643L429.633 800.125L423.288 800.121L423.292 793.776L413.775 793.77L413.781 784.252L404.263 784.246Z" fill="white"/>
<path d="M464.513 828.7L464.52 819.183L429.622 819.16L429.616 828.678L423.27 828.674L423.264 838.191L413.747 838.185L413.741 847.703L404.223 847.697L404.219 854.042L439.117 854.064L439.123 844.547L445.468 844.551L445.472 838.206L454.99 838.212L454.996 828.694L464.513 828.7Z" fill="white"/>
<rect x="477.217" y="809.674" width="9.5176" height="9.5176" transform="rotate(0.0369024 477.217 809.674)" fill="white"/>
<path d="M273.342 557.901L263.824 557.895L263.802 592.792L273.319 592.799L273.315 599.144L282.833 599.15L282.827 608.667L292.344 608.673L292.338 618.191L298.683 618.195L298.706 583.297L289.188 583.291L289.192 576.946L282.847 576.942L282.853 567.424L273.336 567.418L273.342 557.901Z" fill="white"/>
<path d="M333.619 557.939L343.137 557.945L343.114 592.843L333.597 592.837L333.593 599.182L324.075 599.176L324.069 608.694L314.551 608.687L314.545 618.205L308.2 618.201L308.223 583.303L317.74 583.309L317.744 576.964L324.089 576.968L324.095 567.451L333.613 567.457L333.619 557.939Z" fill="white"/>
<path d="M320.889 621.382L320.883 630.899L355.781 630.922L355.787 621.404L362.132 621.408L362.138 611.891L371.656 611.897L371.662 602.379L381.179 602.385L381.183 596.04L346.286 596.018L346.279 605.536L339.934 605.531L339.93 611.876L330.413 611.87L330.407 621.388L320.889 621.382Z" fill="white"/>
<path d="M381.139 665.836L381.133 675.354L346.235 675.331L346.241 665.813L339.896 665.809L339.902 656.292L330.385 656.286L330.391 646.768L320.873 646.762L320.877 640.417L355.775 640.439L355.769 649.957L362.114 649.961L362.11 656.306L371.627 656.312L371.621 665.83L381.139 665.836Z" fill="white"/>
<path d="M333.52 713.393L343.037 713.399L343.06 678.502L333.542 678.495L333.546 672.15L324.028 672.144L324.035 662.627L314.517 662.621L314.523 653.103L308.178 653.099L308.156 687.997L317.673 688.003L317.669 694.348L324.014 694.352L324.008 703.87L333.526 703.876L333.52 713.393Z" fill="white"/>
<path d="M273.242 713.355L263.725 713.349L263.747 678.451L273.265 678.457L273.269 672.112L282.786 672.118L282.792 662.6L292.31 662.607L292.316 653.089L298.661 653.093L298.639 687.991L289.121 687.985L289.117 694.33L282.772 694.326L282.766 703.843L273.248 703.837L273.242 713.355Z" fill="white"/>
<path d="M225.722 605.458L225.729 595.94L260.626 595.963L260.62 605.481L266.965 605.485L266.959 615.002L276.477 615.008L276.471 624.526L285.988 624.532L285.984 630.877L251.086 630.855L251.092 621.337L244.747 621.333L244.751 614.988L235.234 614.982L235.24 605.464L225.722 605.458Z" fill="white"/>
<path d="M285.972 649.912L285.979 640.395L251.081 640.372L251.075 649.89L244.729 649.886L244.723 659.403L235.206 659.397L235.2 668.915L225.682 668.908L225.678 675.254L260.576 675.276L260.582 665.758L266.927 665.763L266.931 659.417L276.449 659.424L276.455 649.906L285.972 649.912Z" fill="white"/>
<rect x="298.676" y="630.886" width="9.5176" height="9.5176" transform="rotate(0.0369024 298.676 630.886)" fill="white"/>
<path fill-rule="evenodd" clip-rule="evenodd" d="M834.035 551.233L854.49 551.247L854.484 559.428L862.666 559.434L862.661 567.616L870.843 567.621L870.838 575.802L879.019 575.808L879.014 583.989L887.196 583.995L887.191 592.177L895.373 592.182L895.367 600.364L903.549 600.369L903.544 608.551L911.725 608.556L911.72 616.738L919.902 616.743L919.886 641.288L911.704 641.283L911.699 649.465L903.518 649.46L903.512 657.642L895.331 657.636L895.325 665.818L887.144 665.813L887.138 673.995L878.956 673.989L878.951 682.171L870.769 682.166L870.764 690.347L862.582 690.342L862.577 698.524L854.395 698.519L854.39 706.701L833.935 706.688L833.943 694.415L850.307 694.426L850.312 686.243L858.494 686.249L858.499 678.067L866.681 678.072L866.686 669.89L874.868 669.896L874.874 661.714L883.055 661.719L883.061 653.537L891.242 653.543L891.247 645.361L899.429 645.366L899.434 637.184L907.616 637.19L907.627 620.826L899.445 620.821L899.45 612.639L891.268 612.634L891.274 604.452L883.092 604.447L883.097 596.265L874.916 596.26L874.921 588.078L866.739 588.073L866.744 579.891L858.562 579.886L858.568 571.704L850.386 571.698L850.391 563.517L834.027 563.506L834.035 551.233Z" fill="white"/>
<path fill-rule="evenodd" clip-rule="evenodd" d="M854.49 551.247L834.036 551.234L834.03 559.416L825.848 559.41L825.843 567.592L817.661 567.587L817.656 575.769L809.474 575.763L809.469 583.945L801.287 583.94L801.282 592.122L793.1 592.117L793.095 600.298L784.913 600.293L784.908 608.475L776.726 608.469L776.721 616.651L768.539 616.646L768.523 641.191L776.705 641.197L776.7 649.378L784.882 649.384L784.877 657.566L793.058 657.571L793.053 665.753L801.234 665.758L801.229 673.94L809.411 673.945L809.406 682.127L817.588 682.132L817.583 690.314L825.764 690.319L825.759 698.501L833.941 698.506L833.935 706.688L854.39 706.701L854.398 694.428L838.034 694.418L838.039 686.236L829.858 686.231L829.863 678.049L821.681 678.044L821.686 669.862L813.504 669.857L813.51 661.675L805.328 661.67L805.333 653.488L797.152 653.483L797.157 645.301L788.975 645.296L788.98 637.114L780.798 637.108L780.809 620.745L788.991 620.75L788.996 612.568L797.178 612.574L797.183 604.392L805.365 604.397L805.37 596.215L813.552 596.221L813.557 588.039L821.739 588.044L821.744 579.862L829.926 579.867L829.931 571.686L838.113 571.691L838.118 563.509L854.482 563.52L854.49 551.247Z" fill="white"/>
<rect x="833.992" y="620.779" width="20.4545" height="20.4545" transform="rotate(0.0369024 833.992 620.779)" fill="white"/>
<path fill-rule="evenodd" clip-rule="evenodd" d="M1191.35 551.464L1211.8 551.477L1211.79 559.659L1219.98 559.664L1219.97 567.846L1228.15 567.851L1228.15 576.033L1236.33 576.038L1236.32 584.22L1244.51 584.225L1244.5 592.407L1252.68 592.413L1252.68 600.594L1260.86 600.599L1260.85 608.781L1269.04 608.786L1269.03 616.968L1277.21 616.973L1277.2 641.519L1269.01 641.514L1269.01 649.695L1260.83 649.69L1260.82 657.872L1252.64 657.867L1252.64 666.049L1244.45 666.043L1244.45 674.225L1236.27 674.22L1236.26 682.402L1228.08 682.396L1228.07 690.578L1219.89 690.573L1219.89 698.754L1211.71 698.749L1211.7 706.931L1191.25 706.918L1191.25 694.645L1207.62 694.656L1207.62 686.474L1215.8 686.479L1215.81 678.297L1223.99 678.303L1224 670.121L1232.18 670.126L1232.18 661.945L1240.37 661.95L1240.37 653.768L1248.55 653.773L1248.56 645.592L1256.74 645.597L1256.74 637.415L1264.93 637.42L1264.94 621.056L1256.76 621.051L1256.76 612.87L1248.58 612.864L1248.58 604.683L1240.4 604.677L1240.41 596.495L1232.23 596.49L1232.23 588.308L1224.05 588.303L1224.05 580.121L1215.87 580.116L1215.88 571.934L1207.7 571.929L1207.7 563.747L1191.34 563.737L1191.35 551.464Z" fill="white"/>
<path fill-rule="evenodd" clip-rule="evenodd" d="M1211.8 551.478L1191.35 551.464L1191.34 559.646L1183.16 559.641L1183.15 567.823L1174.97 567.817L1174.97 575.999L1166.78 575.994L1166.78 584.176L1158.6 584.171L1158.59 592.352L1150.41 592.347L1150.41 600.529L1142.22 600.524L1142.22 608.705L1134.04 608.7L1134.03 616.882L1125.85 616.876L1125.83 641.422L1134.02 641.427L1134.01 649.609L1142.19 649.614L1142.19 657.796L1150.37 657.801L1150.36 665.983L1158.54 665.988L1158.54 674.17L1166.72 674.175L1166.72 682.357L1174.9 682.362L1174.89 690.544L1183.07 690.55L1183.07 698.731L1191.25 698.737L1191.25 706.918L1211.7 706.932L1211.71 694.659L1195.34 694.648L1195.35 686.467L1187.17 686.461L1187.17 678.28L1178.99 678.274L1179 670.092L1170.81 670.087L1170.82 661.905L1162.64 661.9L1162.64 653.718L1154.46 653.713L1154.47 645.531L1146.29 645.526L1146.29 637.344L1138.11 637.339L1138.12 620.975L1146.3 620.981L1146.31 612.799L1154.49 612.804L1154.49 604.622L1162.68 604.628L1162.68 596.446L1170.86 596.451L1170.87 588.269L1179.05 588.274L1179.05 580.093L1187.24 580.098L1187.24 571.916L1195.42 571.921L1195.43 563.74L1211.79 563.75L1211.8 551.478Z" fill="white"/>
<rect x="1191.3" y="621.01" width="20.4545" height="20.4545" transform="rotate(0.0369024 1191.3 621.01)" fill="white"/>
<path fill-rule="evenodd" clip-rule="evenodd" d="M293.412 736.586L313.867 736.599L313.861 744.781L322.043 744.786L322.038 752.968L330.22 752.973L330.215 761.155L338.396 761.16L338.391 769.342L346.573 769.347L346.568 777.529L354.75 777.535L354.745 785.716L362.926 785.722L362.921 793.903L371.102 793.909L371.097 802.09L379.279 802.096L379.263 826.641L371.081 826.636L371.076 834.817L362.895 834.812L362.889 842.994L354.708 842.989L354.702 851.171L346.521 851.166L346.516 859.347L338.333 859.342L338.328 867.524L330.146 867.518L330.141 875.7L321.959 875.695L321.954 883.877L313.772 883.871L313.767 892.053L293.312 892.04L293.32 879.768L309.684 879.778L309.689 871.596L317.871 871.601L317.876 863.42L326.058 863.425L326.063 855.243L334.245 855.248L334.251 847.067L342.432 847.072L342.438 838.89L350.619 838.895L350.625 830.714L358.806 830.719L358.811 822.537L366.993 822.542L367.004 806.179L358.822 806.173L358.827 797.992L350.646 797.986L350.651 789.805L342.469 789.799L342.475 781.617L334.293 781.612L334.298 773.43L326.116 773.425L326.121 765.243L317.939 765.238L317.945 757.056L309.763 757.051L309.768 748.869L293.404 748.859L293.412 736.586Z" fill="white"/>
<path fill-rule="evenodd" clip-rule="evenodd" d="M313.867 736.6L293.413 736.586L293.407 744.768L285.225 744.763L285.22 752.945L277.038 752.939L277.033 761.121L268.851 761.116L268.846 769.298L260.664 769.293L260.659 777.474L252.477 777.469L252.472 785.651L244.29 785.646L244.285 793.827L236.103 793.822L236.098 802.004L227.916 801.999L227.9 826.544L236.082 826.549L236.077 834.731L244.259 834.736L244.254 842.918L252.435 842.924L252.43 851.105L260.611 851.11L260.606 859.292L268.788 859.297L268.783 867.479L276.965 867.484L276.96 875.666L285.141 875.672L285.136 883.853L293.318 883.859L293.312 892.04L313.767 892.054L313.775 879.781L297.411 879.77L297.416 871.589L289.235 871.583L289.24 863.402L281.058 863.396L281.063 855.214L272.881 855.209L272.887 847.027L264.705 847.022L264.71 838.84L256.529 838.835L256.534 830.654L248.352 830.648L248.357 822.466L240.175 822.461L240.186 806.097L248.368 806.103L248.373 797.921L256.555 797.926L256.56 789.744L264.742 789.75L264.747 781.568L272.929 781.573L272.934 773.391L281.116 773.396L281.121 765.215L289.303 765.22L289.308 757.038L297.49 757.044L297.495 748.862L313.859 748.872L313.867 736.6Z" fill="white"/>
<rect x="293.367" y="806.132" width="20.4545" height="20.4545" transform="rotate(0.0369024 293.367 806.132)" fill="white"/>
<path d="M627.162 549.631L617.645 549.625L617.622 584.523L627.14 584.529L627.136 590.874L636.653 590.88L636.647 600.398L646.165 600.404L646.158 609.921L652.504 609.926L652.526 575.028L643.008 575.022L643.013 568.677L636.667 568.672L636.674 559.155L627.156 559.149L627.162 549.631Z" fill="white"/>
<path d="M687.439 549.67L696.957 549.676L696.935 584.574L687.417 584.567L687.413 590.913L677.895 590.906L677.889 600.424L668.372 600.418L668.365 609.935L662.02 609.931L662.043 575.034L671.56 575.04L671.565 568.695L677.91 568.699L677.916 559.181L687.433 559.187L687.439 549.67Z" fill="white"/>
<path d="M674.709 613.112L674.703 622.63L709.601 622.652L709.607 613.135L715.952 613.139L715.958 603.621L725.476 603.627L725.482 594.11L735 594.116L735.004 587.771L700.106 587.748L700.1 597.266L693.755 597.262L693.751 603.607L684.233 603.601L684.227 613.118L674.709 613.112Z" fill="white"/>
<path d="M734.959 657.566L734.953 667.084L700.055 667.062L700.061 657.544L693.716 657.54L693.722 648.022L684.205 648.016L684.211 638.499L674.693 638.492L674.698 632.147L709.595 632.17L709.589 641.687L715.934 641.691L715.93 648.037L725.448 648.043L725.442 657.56L734.959 657.566Z" fill="white"/>
<path d="M687.34 705.124L696.857 705.13L696.88 670.232L687.362 670.226L687.366 663.881L677.849 663.875L677.855 654.357L668.337 654.351L668.343 644.833L661.998 644.829L661.976 679.727L671.494 679.733L671.489 686.078L677.834 686.082L677.828 695.6L687.346 695.606L687.34 705.124Z" fill="white"/>
<path d="M627.063 705.085L617.545 705.079L617.567 670.181L627.085 670.187L627.089 663.842L636.607 663.848L636.613 654.331L646.13 654.337L646.137 644.819L652.482 644.823L652.459 679.721L642.942 679.715L642.937 686.06L636.592 686.056L636.586 695.574L627.069 695.568L627.063 705.085Z" fill="white"/>
<path d="M579.543 597.188L579.549 587.671L614.447 587.693L614.441 597.211L620.786 597.215L620.779 606.733L630.297 606.739L630.291 616.256L639.809 616.263L639.804 622.608L604.907 622.585L604.913 613.067L598.568 613.063L598.572 606.718L589.054 606.712L589.06 597.195L579.543 597.188Z" fill="white"/>
<path d="M639.793 641.643L639.799 632.125L604.901 632.103L604.895 641.62L598.55 641.616L598.544 651.134L589.026 651.127L589.02 660.645L579.502 660.639L579.498 666.984L614.396 667.007L614.402 657.489L620.747 657.493L620.751 651.148L630.269 651.154L630.275 641.636L639.793 641.643Z" fill="white"/>
<rect x="652.496" y="622.616" width="9.5176" height="9.5176" transform="rotate(0.0369024 652.496 622.616)" fill="white"/>
<path fill-rule="evenodd" clip-rule="evenodd" d="M647.264 728.284L667.718 728.297L667.713 736.479L675.895 736.484L675.89 744.666L684.072 744.672L684.066 752.853L692.248 752.859L692.243 761.04L700.425 761.046L700.419 769.228L708.601 769.233L708.596 777.415L716.778 777.42L716.772 785.601L724.954 785.607L724.948 793.789L733.131 793.794L733.115 818.339L724.933 818.334L724.927 826.516L716.746 826.51L716.741 834.692L708.559 834.687L708.554 842.869L700.372 842.864L700.367 851.045L692.185 851.04L692.179 859.222L683.998 859.217L683.992 867.398L675.811 867.393L675.805 875.575L667.624 875.569L667.618 883.752L647.164 883.739L647.172 871.466L663.535 871.476L663.541 863.294L671.722 863.299L671.728 855.118L679.909 855.123L679.915 846.941L688.097 846.947L688.102 838.765L696.284 838.77L696.289 830.588L704.471 830.594L704.476 822.412L712.657 822.417L712.663 814.235L720.845 814.24L720.855 797.877L712.673 797.872L712.678 789.69L704.497 789.685L704.502 781.503L696.321 781.498L696.326 773.316L688.144 773.31L688.149 765.129L679.967 765.123L679.973 756.942L671.791 756.936L671.796 748.754L663.614 748.749L663.62 740.567L647.256 740.557L647.264 728.284Z" fill="white"/>
<path fill-rule="evenodd" clip-rule="evenodd" d="M667.719 728.298L647.264 728.285L647.259 736.466L639.077 736.461L639.072 744.643L630.89 744.638L630.885 752.819L622.703 752.814L622.698 760.996L614.516 760.991L614.511 769.173L606.329 769.167L606.324 777.349L598.142 777.344L598.137 785.526L589.955 785.52L589.95 793.702L581.767 793.697L581.751 818.242L589.934 818.247L589.928 826.429L598.11 826.434L598.105 834.617L606.287 834.622L606.281 842.804L614.463 842.809L614.458 850.99L622.64 850.996L622.634 859.177L630.816 859.183L630.811 867.365L638.993 867.37L638.987 875.552L647.169 875.557L647.164 883.739L667.618 883.752L667.626 871.479L651.263 871.469L651.268 863.287L643.086 863.282L643.092 855.1L634.91 855.095L634.915 846.913L626.733 846.907L626.738 838.726L618.557 838.72L618.562 830.539L610.38 830.533L610.386 822.352L602.204 822.347L602.209 814.164L594.027 814.159L594.037 797.796L602.22 797.801L602.225 789.619L610.407 789.624L610.412 781.443L618.594 781.448L618.599 773.266L626.781 773.271L626.786 765.089L634.968 765.095L634.973 756.913L643.155 756.918L643.16 748.736L651.342 748.742L651.347 740.56L667.711 740.571L667.719 728.298Z" fill="white"/>
<rect x="647.219" y="797.83" width="20.4545" height="20.4545" transform="rotate(0.0369024 647.219 797.83)" fill="white"/>
<path fill-rule="evenodd" clip-rule="evenodd" d="M114.873 557.799L135.328 557.812L135.322 565.994L143.504 565.999L143.499 574.181L151.681 574.186L151.676 582.368L159.857 582.373L159.852 590.555L168.034 590.56L168.029 598.742L176.211 598.748L176.205 606.929L184.387 606.934L184.382 615.116L192.563 615.121L192.558 623.303L200.74 623.308L200.724 647.854L192.542 647.848L192.537 656.03L184.355 656.025L184.35 664.207L176.168 664.202L176.163 672.384L167.981 672.378L167.976 680.56L159.794 680.555L159.789 688.737L151.607 688.731L151.602 696.913L143.42 696.908L143.415 705.089L135.233 705.084L135.228 713.266L114.773 713.253L114.781 700.98L131.145 700.991L131.15 692.809L139.332 692.814L139.337 684.632L147.519 684.638L147.524 676.456L155.706 676.461L155.711 668.279L163.893 668.285L163.898 660.103L172.08 660.108L172.085 651.927L180.267 651.932L180.272 643.75L188.454 643.755L188.465 627.391L180.283 627.386L180.288 619.204L172.106 619.199L172.112 611.018L163.93 611.012L163.935 602.83L155.753 602.825L155.759 594.643L147.576 594.638L147.582 586.456L139.4 586.451L139.406 578.269L131.224 578.264L131.229 570.082L114.865 570.072L114.873 557.799Z" fill="white"/>
<path fill-rule="evenodd" clip-rule="evenodd" d="M135.328 557.812L114.874 557.799L114.868 565.981L106.686 565.976L106.681 574.158L98.4993 574.152L98.494 582.334L90.3123 582.329L90.307 590.511L82.1251 590.506L82.1199 598.687L73.9382 598.682L73.9329 606.864L65.7512 606.858L65.7459 615.04L57.5643 615.035L57.559 623.217L49.3767 623.211L49.3609 647.757L57.5432 647.762L57.5379 655.944L65.7198 655.949L65.7145 664.131L73.8961 664.136L73.8908 672.318L82.0722 672.323L82.0669 680.505L90.2491 680.51L90.2439 688.692L98.4259 688.697L98.4207 696.879L106.602 696.885L106.597 705.066L114.779 705.072L114.773 713.253L135.228 713.266L135.236 700.994L118.872 700.983L118.877 692.802L110.696 692.796L110.701 684.615L102.519 684.609L102.524 676.427L94.3423 676.422L94.3475 668.24L86.1661 668.235L86.1714 660.053L77.9898 660.048L77.9951 651.866L69.8133 651.861L69.8185 643.679L61.6362 643.674L61.6467 627.31L69.8291 627.315L69.8343 619.134L78.016 619.139L78.0212 610.957L86.203 610.963L86.2083 602.781L94.3899 602.786L94.3952 594.604L102.577 594.609L102.582 586.428L110.764 586.433L110.769 578.251L118.951 578.256L118.956 570.075L135.32 570.085L135.328 557.812Z" fill="white"/>
<rect x="114.828" y="627.345" width="20.4545" height="20.4545" transform="rotate(0.0369024 114.828 627.345)" fill="white"/>
<path fill-rule="evenodd" clip-rule="evenodd" d="M472.182 558.028L492.636 558.041L492.631 566.223L500.813 566.228L500.808 574.41L508.99 574.416L508.984 582.597L517.166 582.603L517.16 590.784L525.343 590.79L525.337 598.972L533.519 598.977L533.514 607.159L541.696 607.164L541.69 615.346L549.872 615.351L549.867 623.533L558.049 623.538L558.033 648.083L549.851 648.078L549.845 656.26L541.664 656.254L541.659 664.437L533.477 664.431L533.472 672.613L525.29 672.608L525.285 680.79L517.103 680.784L517.097 688.966L508.916 688.961L508.91 697.142L500.729 697.137L500.723 705.319L492.542 705.314L492.536 713.496L472.082 713.483L472.09 701.21L488.453 701.22L488.459 693.038L496.64 693.044L496.645 684.862L504.827 684.867L504.832 676.685L513.015 676.691L513.02 668.509L521.202 668.514L521.207 660.332L529.389 660.338L529.394 652.156L537.575 652.161L537.581 643.979L545.763 643.984L545.773 627.621L537.591 627.616L537.597 619.434L529.415 619.429L529.42 611.247L521.239 611.242L521.244 603.06L513.062 603.054L513.067 594.873L504.885 594.867L504.89 586.686L496.709 586.681L496.714 578.498L488.532 578.493L488.537 570.312L472.174 570.301L472.182 558.028Z" fill="white"/>
<path fill-rule="evenodd" clip-rule="evenodd" d="M492.639 558.042L472.184 558.029L472.179 566.21L463.997 566.205L463.991 574.387L455.81 574.382L455.804 582.563L447.623 582.558L447.617 590.74L439.436 590.735L439.43 598.917L431.249 598.911L431.243 607.093L423.062 607.088L423.056 615.27L414.875 615.264L414.869 623.446L406.687 623.441L406.671 647.986L414.854 647.991L414.848 656.173L423.03 656.179L423.025 664.361L431.206 664.366L431.201 672.548L439.383 672.553L439.377 680.734L447.56 680.74L447.554 688.921L455.736 688.927L455.731 697.109L463.912 697.114L463.907 705.296L472.089 705.301L472.084 713.483L492.538 713.496L492.546 701.223L476.182 701.213L476.188 693.031L468.006 693.026L468.011 684.844L459.83 684.839L459.835 676.657L451.653 676.651L451.658 668.47L443.477 668.464L443.482 660.283L435.3 660.277L435.305 652.096L427.124 652.09L427.129 643.909L418.947 643.903L418.957 627.54L427.139 627.545L427.145 619.363L435.326 619.368L435.332 611.187L443.513 611.192L443.519 603.01L451.7 603.016L451.706 594.833L459.888 594.839L459.893 586.657L468.074 586.662L468.08 578.48L476.261 578.486L476.267 570.304L492.631 570.315L492.639 558.042Z" fill="white"/>
<rect x="472.139" y="627.574" width="20.4545" height="20.4545" transform="rotate(0.0369024 472.139 627.574)" fill="white"/>
</g>
</g>
<defs>
<clipPath id="clip0_1871_5">
<rect width="1440" height="892" fill="white" transform="translate(-51)"/>
</clipPath>
</defs>
</svg>
