<svg width="220" height="61" viewBox="0 0 220 61" fill="none" xmlns="http://www.w3.org/2000/svg">
<path d="M10.5867 48V22.15H0.336719V13H32.6367V22.15H22.3867V48H10.5867Z" fill="#4A8068"/>
<path d="M46.5016 26H62.1016V34.5H46.5016V26ZM47.3016 39.1H64.8016V48H35.7016V13H64.1516V21.9H47.3016V39.1ZM69.3441 48V13H79.0441L96.8441 34.3H92.3441V13H103.844V48H94.1441L76.3441 26.7H80.8441V48H69.3441ZM105.73 48L121.03 13H132.63L147.93 48H135.73L124.43 18.6H129.03L117.73 48H105.73ZM114.83 41.9L117.83 33.4H133.93L136.93 41.9H114.83ZM149.813 48V13H159.513L177.313 34.3H172.813V13H184.313V48H174.613L156.813 26.7H161.313V48H149.813ZM197.598 48V22.15H187.348V13H219.648V22.15H209.398V48H197.598Z" fill="#EEEEEE"/>
<path d="M106 48H148.5L133 13H120.675L106 48Z" fill="#9C4A9A"/>
</svg>
