<svg width="283" height="39" viewBox="0 0 283 39" fill="none" xmlns="http://www.w3.org/2000/svg">
<path d="M1.824 31V8.6H12.608C14.6987 8.6 16.5013 8.94133 18.016 9.624C19.552 10.3067 20.736 11.288 21.568 12.568C22.4 13.8267 22.816 15.32 22.816 17.048C22.816 18.776 22.4 20.2693 21.568 21.528C20.736 22.7867 19.552 23.768 18.016 24.472C16.5013 25.1547 14.6987 25.496 12.608 25.496H6.016L9.376 22.264V31H1.824ZM9.376 23.096L6.016 19.672H12.128C13.1733 19.672 13.9413 19.4373 14.432 18.968C14.944 18.4987 15.2 17.8587 15.2 17.048C15.2 16.2373 14.944 15.5973 14.432 15.128C13.9413 14.6587 13.1733 14.424 12.128 14.424H6.016L9.376 11V23.096ZM32.2048 16.92H42.1888V22.36H32.2048V16.92ZM32.7168 25.304H43.9168V31H25.2928V8.6H43.5008V14.296H32.7168V25.304ZM46.824 31V8.6H53.032L64.424 22.232H61.544V8.6H68.904V31H62.696L51.304 17.368H54.184V31H46.824ZM77.4068 31V14.456H70.8468V8.6H91.5188V14.456H84.9588V31H77.4068ZM127.614 31.512C125.736 31.512 123.923 31.2987 122.174 30.872C120.424 30.4453 118.984 29.8907 117.854 29.208L120.286 23.704C121.352 24.3227 122.536 24.824 123.838 25.208C125.16 25.5707 126.44 25.752 127.678 25.752C128.403 25.752 128.968 25.7093 129.374 25.624C129.8 25.5173 130.11 25.3787 130.302 25.208C130.494 25.016 130.59 24.792 130.59 24.536C130.59 24.1307 130.366 23.8107 129.918 23.576C129.47 23.3413 128.872 23.1493 128.126 23C127.4 22.8293 126.6 22.6587 125.726 22.488C124.851 22.296 123.966 22.0507 123.07 21.752C122.195 21.4533 121.384 21.0587 120.638 20.568C119.912 20.0773 119.326 19.4373 118.878 18.648C118.43 17.8373 118.206 16.8347 118.206 15.64C118.206 14.2533 118.59 12.9947 119.358 11.864C120.147 10.712 121.31 9.79467 122.846 9.112C124.403 8.42933 126.334 8.088 128.638 8.088C130.152 8.088 131.646 8.248 133.118 8.568C134.59 8.888 135.912 9.37867 137.086 10.04L134.814 15.512C133.704 14.9573 132.627 14.5413 131.582 14.264C130.558 13.9867 129.555 13.848 128.574 13.848C127.848 13.848 127.272 13.912 126.845 14.04C126.419 14.168 126.11 14.3387 125.918 14.552C125.747 14.7653 125.661 15 125.661 15.256C125.661 15.64 125.886 15.9493 126.334 16.184C126.782 16.3973 127.368 16.5787 128.094 16.728C128.84 16.8773 129.651 17.0373 130.526 17.208C131.422 17.3787 132.307 17.6133 133.182 17.912C134.056 18.2107 134.856 18.6053 135.582 19.096C136.328 19.5867 136.926 20.2267 137.374 21.016C137.822 21.8053 138.046 22.7867 138.046 23.96C138.046 25.3253 137.651 26.584 136.862 27.736C136.094 28.8667 134.942 29.784 133.406 30.488C131.87 31.1707 129.939 31.512 127.614 31.512ZM154.751 31V14.456H148.191V8.6H168.863V14.456H162.303V31H154.751ZM177.736 16.92H187.72V22.36H177.736V16.92ZM178.248 25.304H189.448V31H170.824V8.6H189.032V14.296H178.248V25.304ZM223.001 31V14.456H216.441V8.6H237.113V14.456H230.553V31H223.001ZM245.986 16.92H255.97V22.36H245.986V16.92ZM246.498 25.304H257.698V31H239.074V8.6H257.282V14.296H246.498V25.304Z" fill="#D9D9D9"/>
<path d="M91.0482 31L100.84 8.6H108.264L118.056 31H110.248L103.016 12.184H105.96L98.7283 31H91.0482ZM96.8723 27.096L98.7923 21.656H109.096L111.016 27.096H96.8723Z" fill="#9C4A9A"/>
<path d="M189.923 31L199.715 8.6H207.139L216.931 31H209.123L201.891 12.184H204.835L197.603 31H189.923ZM195.747 27.096L197.667 21.656H207.971L209.891 27.096H195.747Z" fill="#E62C20"/>
<path d="M260.605 31V8.6H271.389C273.48 8.6 275.283 8.94133 276.797 9.624C278.333 10.3067 279.517 11.288 280.349 12.568C281.181 13.8267 281.597 15.32 281.597 17.048C281.597 18.776 281.181 20.2693 280.349 21.528C279.517 22.7653 278.333 23.7147 276.797 24.376C275.283 25.0373 273.48 25.368 271.389 25.368H264.797L268.157 22.264V31H260.605ZM274.013 31L268.509 22.84H276.509L282.077 31H274.013ZM268.157 23.096L264.797 19.672H270.909C271.955 19.672 272.723 19.4373 273.213 18.968C273.725 18.4987 273.981 17.8587 273.981 17.048C273.981 16.2373 273.725 15.5973 273.213 15.128C272.723 14.6587 271.955 14.424 270.909 14.424H264.797L268.157 11V23.096Z" fill="#4A8068"/>
<path d="M266 13.5V21L274 20.5V13.5H266Z" fill="#4A8068"/>
<path d="M196 31L203.7 15L210 31H196Z" fill="#E62C20"/>
<path d="M96 31L104.8 13L112 31H96Z" fill="#9C4A9A"/>
</svg>
