<svg width="337" height="89" viewBox="0 0 337 89" fill="none" xmlns="http://www.w3.org/2000/svg">
<path d="M13.7756 0L11.0205 0V10.102H13.7756V11.9388H16.5307V14.6939H19.2858V17.449H21.1225V7.34694H18.3674V5.5102L16.5307 5.5102V2.7551L13.7756 2.7551V0Z" fill="#E62C20"/>
<path d="M31.2244 0L33.9795 0V10.102H31.2244V11.9388H28.4693V14.6939H25.7142V17.449H23.8775V7.34694H26.6326V5.5102L28.4693 5.5102V2.7551L31.2244 2.7551V0Z" fill="#E62C20"/>
<path d="M27.5508 18.3675V21.1226H37.6528V18.3675H39.4896V15.6124H42.2447V12.8573H44.9998V11.0205L34.8977 11.0205V13.7756H33.061V15.6124H30.3059V18.3675H27.5508Z" fill="#E62C20"/>
<path d="M45 31.2244V33.9795H34.898V31.2244H33.0612V28.4693H30.3061V25.7142H27.551V23.8775H37.6531V26.6326H39.4898V28.4693H42.2449V31.2244H45Z" fill="#E62C20"/>
<path d="M31.2244 45H33.9795V34.898H31.2244V33.0612H28.4693V30.3061H25.7142V27.551H23.8775V37.6531H26.6326V39.4898H28.4693V42.2449H31.2244V45Z" fill="#E62C20"/>
<path d="M13.7756 45H11.0205V34.898H13.7756V33.0612H16.5307V30.3061H19.2858V27.551H21.1225V37.6531H18.3674V39.4898H16.5307V42.2449H13.7756V45Z" fill="#E62C20"/>
<path d="M-1.46213e-07 13.7756L0 11.0205L10.102 11.0205L10.102 13.7756L11.9388 13.7756L11.9388 16.5307L14.6939 16.5307L14.6939 19.2858L17.449 19.2858L17.449 21.1225L7.34694 21.1225L7.34694 18.3674L5.5102 18.3674L5.5102 16.5307L2.7551 16.5307L2.7551 13.7756L-1.46213e-07 13.7756Z" fill="#E62C20"/>
<path d="M17.4492 26.6325L17.4492 23.8774L7.34718 23.8774L7.34718 26.6325L5.51044 26.6325L5.51044 29.3876L2.75534 29.3876L2.75534 32.1428L0.000237968 32.1428L0.00023806 33.9795L10.1023 33.9795L10.1023 31.2244L11.939 31.2244L11.939 29.3876L14.6941 29.3876L14.6941 26.6325L17.4492 26.6325Z" fill="#E62C20"/>
<rect x="21.1221" y="21.1226" width="2.7551" height="2.7551" fill="#E62C20"/>
<path d="M76.959 51H75.3672V56.8367H76.959V57.898H78.5509V59.4898H80.1427V61.0816H81.2039V55.2449H79.6121V54.1837H78.5509V52.5918H76.959V51Z" fill="#F69722"/>
<path d="M87.041 51H88.6328V56.8367H87.041V57.898H85.4491V59.4898H83.8573V61.0816H82.7961V55.2449H84.3879V54.1837H85.4491V52.5918H87.041V51Z" fill="#F69722"/>
<path d="M84.918 61.6123V63.2041H90.7547V61.6123H91.8159V60.0204H93.4078V58.4286H94.9996V57.3674H89.1629V58.9592H88.1016V60.0204H86.5098V61.6123H84.918Z" fill="#F69722"/>
<path d="M95 69.041V70.6328H89.1633V69.041H88.102V67.4491H86.5102V65.8573H84.9184V64.7961H90.7551V66.3879H91.8163V67.4491H93.4082V69.041H95Z" fill="#F69722"/>
<path d="M87.041 77H88.6328V71.1633H87.041V70.102H85.4491V68.5102H83.8573V66.9184H82.7961V72.7551H84.3879V73.8163H85.4491V75.4082H87.041V77Z" fill="#F69722"/>
<path d="M76.959 77H75.3672V71.1633H76.959V70.102H78.5509V68.5102H80.1427V66.9184H81.2039V72.7551H79.6121V73.8163H78.5509V75.4082H76.959V77Z" fill="#F69722"/>
<path d="M69 58.959L69 57.3672L74.8367 57.3672L74.8367 58.959L75.898 58.959L75.898 60.5509L77.4898 60.5509L77.4898 62.1427L79.0816 62.1427L79.0816 63.2039L73.2449 63.2039L73.2449 61.6121L72.1837 61.6121L72.1837 60.5509L70.5918 60.5509L70.5918 58.959L69 58.959Z" fill="#F69722"/>
<path d="M79.082 66.3877L79.082 64.7959L73.2453 64.7959L73.2453 66.3877L72.1841 66.3877L72.1841 67.9796L70.5922 67.9796L70.5922 69.5714L69.0004 69.5714L69.0004 70.6326L74.8371 70.6326L74.8371 69.0408L75.8984 69.0408L75.8984 67.9796L77.4902 67.9796L77.4902 66.3877L79.082 66.3877Z" fill="#F69722"/>
<rect x="81.2041" y="63.2041" width="1.59184" height="1.59184" fill="#F69722"/>
<path d="M167.326 4H165.061V12.3061H167.326V13.8163H169.591V16.0816H171.856V18.3469H173.367V10.0408H171.101V8.53061H169.591V6.26531H167.326V4Z" fill="#9C4A9A"/>
<path d="M181.674 4H183.939V12.3061H181.674V13.8163H179.409V16.0816H177.144V18.3469H175.633V10.0408H177.899V8.53061H179.409V6.26531H181.674V4Z" fill="#9C4A9A"/>
<path d="M178.653 19.1019V21.3672H186.959V19.1019H188.47V16.8366H190.735V14.5713H193V13.0611L184.694 13.0611V15.3264H183.184V16.8366H180.919V19.1019H178.653Z" fill="#9C4A9A"/>
<path d="M193 29.6737V31.939H184.694V29.6737H183.184V27.4084H180.918V25.143H178.653V23.6328H186.959V25.8981H188.469V27.4084H190.735V29.6737H193Z" fill="#9C4A9A"/>
<path d="M181.674 41H183.939V32.6939H181.674V31.1837H179.409V28.9184H177.144V26.6531H175.633V34.9592H177.899V36.4694H179.409V38.7347H181.674V41Z" fill="#9C4A9A"/>
<path d="M167.326 41H165.061V32.6939H167.326V31.1837H169.591V28.9184H171.856V26.6531H173.367V34.9592H171.101V36.4694H169.591V38.7347H167.326V41Z" fill="#9C4A9A"/>
<path d="M156 15.3263L156 13.061L164.306 13.061L164.306 15.3263L165.816 15.3263L165.816 17.5916L168.082 17.5916L168.082 19.857L170.347 19.857L170.347 21.3672L162.041 21.3672L162.041 19.1019L160.531 19.1019L160.531 17.5916L158.265 17.5916L158.265 15.3263L156 15.3263Z" fill="#9C4A9A"/>
<path d="M170.347 25.8981L170.347 23.6328L162.041 23.6328L162.041 25.8981L160.53 25.8981L160.53 28.1634L158.265 28.1634L158.265 30.4287L156 30.4287L156 31.9389L164.306 31.9389L164.306 29.6736L165.816 29.6736L165.816 28.1634L168.081 28.1634L168.081 25.8981L170.347 25.8981Z" fill="#9C4A9A"/>
<rect x="173.367" y="21.3677" width="2.26531" height="2.26531" fill="#9C4A9A"/>
<path d="M261.857 47H259.285V56.4286H261.857V58.1429H264.428V60.7143H266.999V63.2857H268.714V53.8571H266.142V52.1429H264.428V49.5714H261.857V47Z" fill="#E62C20"/>
<path d="M278.143 47H280.715V56.4286H278.143V58.1429H275.572V60.7143H273.001V63.2857H271.286V53.8571H273.858L273.858 52.1429H275.572V49.5714H278.143V47Z" fill="#E62C20"/>
<path d="M274.715 64.1429V66.7144H284.143V64.1429H285.858V61.5715H288.429V59.0001H291.001V57.2858H281.572V59.8572H279.858V61.5715H277.286L277.286 64.1429H274.715Z" fill="#E62C20"/>
<path d="M291 76.1429V78.7144H281.571V76.1429H279.857V73.5715H277.286V71.0001H274.714V69.2858H284.143V71.8572H285.857V73.5715H288.429V76.1429H291Z" fill="#E62C20"/>
<path d="M278.143 89H280.715V79.5714H278.143V77.8571H275.572V75.2857H273.001V72.7143H271.286V82.1429H273.858V83.8571H275.572V86.4286H278.143V89Z" fill="#E62C20"/>
<path d="M261.857 89H259.285V79.5714H261.857V77.8571H264.428V75.2857H266.999V72.7143H268.714V82.1429H266.142L266.142 83.8571H264.428V86.4286H261.857V89Z" fill="#E62C20"/>
<path d="M249 59.8571L249 57.2856L258.429 57.2856L258.429 59.8571L260.143 59.8571L260.143 62.4285L262.714 62.4285L262.714 64.9999L265.286 64.9999L265.286 66.7142L255.857 66.7142L255.857 64.1428L254.143 64.1428L254.143 62.4285L251.571 62.4285L251.571 59.8571L249 59.8571Z" fill="#E62C20"/>
<path d="M265.285 71.8571L265.285 69.2856L255.857 69.2856L255.857 71.8571L254.142 71.8571L254.142 74.4285L251.571 74.4285L251.571 76.9999L248.999 76.9999L248.999 78.7142L258.428 78.7142L258.428 76.1428L260.142 76.1428L260.142 74.4285L262.714 74.4285L262.714 71.8571L265.285 71.8571Z" fill="#E62C20"/>
<rect x="268.714" y="66.7144" width="2.57143" height="2.57143" fill="#E62C20"/>
<path d="M322.428 7H321.143V11.7143H322.428V12.5714H323.714V13.8571H325V15.1429H325.857L325.857 10.4286H324.571V9.57143H323.714V8.28571H322.428V7Z" fill="#4A8068"/>
<path d="M330.572 7H331.857V11.7143H330.572V12.5714H329.286V13.8571H328V15.1429H327.143V10.4286H328.429V9.57143H329.286V8.28571H330.572V7Z" fill="#4A8068"/>
<path d="M328.857 15.5712V16.8569H333.572V15.5712H334.429V14.2855H335.715V12.9998H337V12.1426H332.286V13.4284H331.429L331.429 14.2855H330.143V15.5712H328.857Z" fill="#4A8068"/>
<path d="M337 21.5712V22.8569H332.286V21.5712H331.429V20.2855H330.143V18.9998H328.857V18.1426H333.571V19.4284H334.429V20.2855H335.714V21.5712H337Z" fill="#4A8068"/>
<path d="M330.572 28H331.857V23.2857H330.572V22.4286H329.286V21.1429H328V19.8571H327.143L327.143 24.5714H328.429V25.4286H329.286V26.7143H330.572V28Z" fill="#4A8068"/>
<path d="M322.428 28H321.143V23.2857H322.428V22.4286H323.714V21.1429H325V19.8571H325.857V24.5714H324.571V25.4286H323.714V26.7143H322.428V28Z" fill="#4A8068"/>
<path d="M316 13.4288L316 12.1431L320.714 12.1431L320.714 13.4288L321.571 13.4288L321.571 14.7145L322.857 14.7145L322.857 16.0002L324.143 16.0002L324.143 16.8574L319.429 16.8574L319.429 15.5716L318.571 15.5716L318.571 14.7145L317.286 14.7145L317.286 13.4288L316 13.4288Z" fill="#4A8068"/>
<path d="M324.143 19.4288L324.143 18.1431L319.428 18.1431L319.428 19.4288L318.571 19.4288L318.571 20.7145L317.285 20.7145L317.285 22.0002L316 22.0002L316 22.8574L320.714 22.8574L320.714 21.5716L321.571 21.5716L321.571 20.7145L322.857 20.7145L322.857 19.4288L324.143 19.4288Z" fill="#4A8068"/>
<rect x="325.857" y="16.8574" width="1.28571" height="1.28571" fill="#4A8068"/>
<path d="M32.352 65.024C28.5973 65.024 24.9707 64.5973 21.472 63.744C17.9733 62.8907 15.0933 61.7813 12.832 60.416L17.696 49.408C19.8293 50.6453 22.1973 51.648 24.8 52.416C27.4453 53.1413 30.0053 53.504 32.48 53.504C33.9307 53.504 35.0613 53.4187 35.872 53.248C36.7253 53.0347 37.344 52.7573 37.728 52.416C38.112 52.032 38.304 51.584 38.304 51.072C38.304 50.2613 37.856 49.6213 36.96 49.152C36.064 48.6827 34.8693 48.2987 33.376 48C31.9253 47.6587 30.3253 47.3173 28.576 46.976C26.8267 46.592 25.056 46.1013 23.264 45.504C21.5147 44.9067 19.8933 44.1173 18.4 43.136C16.9493 42.1547 15.776 40.8747 14.88 39.296C13.984 37.6747 13.536 35.6693 13.536 33.28C13.536 30.5067 14.304 27.9893 15.84 25.728C17.4187 23.424 19.744 21.5893 22.816 20.224C25.9307 18.8587 29.792 18.176 34.4 18.176C37.4293 18.176 40.416 18.496 43.36 19.136C46.304 19.776 48.9493 20.7573 51.296 22.08L46.752 33.024C44.5333 31.9147 42.3787 31.0827 40.288 30.528C38.24 29.9733 36.2347 29.696 34.272 29.696C32.8213 29.696 31.6693 29.824 30.816 30.08C29.9627 30.336 29.344 30.6773 28.96 31.104C28.6187 31.5307 28.448 32 28.448 32.512C28.448 33.28 28.896 33.8987 29.792 34.368C30.688 34.7947 31.8613 35.1573 33.312 35.456C34.8053 35.7547 36.4267 36.0747 38.176 36.416C39.968 36.7573 41.7387 37.2267 43.488 37.824C45.2373 38.4213 46.8373 39.2107 48.288 40.192C49.7813 41.1733 50.976 42.4533 51.872 44.032C52.768 45.6107 53.216 47.5733 53.216 49.92C53.216 52.6507 52.4267 55.168 50.848 57.472C49.312 59.7333 47.008 61.568 43.936 62.976C40.864 64.3413 37.0027 65.024 32.352 65.024ZM57.7105 64V19.2H72.8145V64H57.7105ZM80.0855 64V19.2H92.5015L115.286 46.464H109.526V19.2H124.246V64H111.83L89.0455 36.736H94.8055V64H80.0855ZM155.011 65.024C151.384 65.024 148.014 64.448 144.899 63.296C141.827 62.144 139.16 60.5227 136.899 58.432C134.638 56.2987 132.867 53.8027 131.587 50.944C130.35 48.0853 129.731 44.9707 129.731 41.6C129.731 38.1867 130.35 35.072 131.587 32.256C132.867 29.3973 134.638 26.9227 136.899 24.832C139.16 22.6987 141.827 21.056 144.899 19.904C148.014 18.752 151.384 18.176 155.011 18.176C158.68 18.176 162.051 18.752 165.123 19.904C168.195 21.056 170.862 22.6987 173.123 24.832C175.384 26.9227 177.134 29.3973 178.371 32.256C179.651 35.072 180.291 38.1867 180.291 41.6C180.291 44.9707 179.651 48.0853 178.371 50.944C177.134 53.8027 175.384 56.2987 173.123 58.432C170.862 60.5227 168.195 62.144 165.123 63.296C162.051 64.448 158.68 65.024 155.011 65.024ZM155.011 52.8C156.419 52.8 157.72 52.544 158.915 52.032C160.152 51.52 161.219 50.7947 162.115 49.856C163.054 48.8747 163.779 47.7013 164.291 46.336C164.803 44.928 165.059 43.3493 165.059 41.6C165.059 39.8507 164.803 38.2933 164.291 36.928C163.779 35.52 163.054 34.3467 162.115 33.408C161.219 32.4267 160.152 31.68 158.915 31.168C157.72 30.656 156.419 30.4 155.011 30.4C153.603 30.4 152.28 30.656 151.043 31.168C149.848 31.68 148.782 32.4267 147.843 33.408C146.947 34.3467 146.243 35.52 145.731 36.928C145.219 38.2933 144.963 39.8507 144.963 41.6C144.963 43.3493 145.219 44.928 145.731 46.336C146.243 47.7013 146.947 48.8747 147.843 49.856C148.782 50.7947 149.848 51.52 151.043 52.032C152.28 52.544 153.603 52.8 155.011 52.8ZM185.773 64V19.2H207.341C211.522 19.2 215.128 19.8827 218.157 21.248C221.229 22.6133 223.597 24.576 225.261 27.136C226.925 29.6533 227.757 32.64 227.757 36.096C227.757 39.552 226.925 42.5387 225.261 45.056C223.597 47.5733 221.229 49.536 218.157 50.944C215.128 52.3093 211.522 52.992 207.341 52.992H194.157L200.877 46.528V64H185.773ZM200.877 48.192L194.157 41.344H206.381C208.472 41.344 210.008 40.8747 210.989 39.936C212.013 38.9973 212.525 37.7173 212.525 36.096C212.525 34.4747 212.013 33.1947 210.989 32.256C210.008 31.3173 208.472 30.848 206.381 30.848H194.157L200.877 24V48.192ZM250.04 65.024C246.285 65.024 242.658 64.5973 239.16 63.744C235.661 62.8907 232.781 61.7813 230.52 60.416L235.384 49.408C237.517 50.6453 239.885 51.648 242.488 52.416C245.133 53.1413 247.693 53.504 250.168 53.504C251.618 53.504 252.749 53.4187 253.56 53.248C254.413 53.0347 255.032 52.7573 255.416 52.416C255.8 52.032 255.992 51.584 255.992 51.072C255.992 50.2613 255.544 49.6213 254.648 49.152C253.752 48.6827 252.557 48.2987 251.064 48C249.613 47.6587 248.013 47.3173 246.264 46.976C244.514 46.592 242.744 46.1013 240.952 45.504C239.202 44.9067 237.581 44.1173 236.088 43.136C234.637 42.1547 233.464 40.8747 232.568 39.296C231.672 37.6747 231.224 35.6693 231.224 33.28C231.224 30.5067 231.992 27.9893 233.528 25.728C235.106 23.424 237.432 21.5893 240.504 20.224C243.618 18.8587 247.48 18.176 252.088 18.176C255.117 18.176 258.104 18.496 261.048 19.136C263.992 19.776 266.637 20.7573 268.984 22.08L264.44 33.024C262.221 31.9147 260.066 31.0827 257.976 30.528C255.928 29.9733 253.922 29.696 251.96 29.696C250.509 29.696 249.357 29.824 248.503 30.08C247.65 30.336 247.032 30.6773 246.648 31.104C246.306 31.5307 246.135 32 246.135 32.512C246.135 33.28 246.584 33.8987 247.48 34.368C248.376 34.7947 249.549 35.1573 251 35.456C252.493 35.7547 254.114 36.0747 255.864 36.416C257.656 36.7573 259.426 37.2267 261.176 37.824C262.925 38.4213 264.525 39.2107 265.976 40.192C267.469 41.1733 268.664 42.4533 269.56 44.032C270.456 45.6107 270.904 47.5733 270.904 49.92C270.904 52.6507 270.114 55.168 268.536 57.472C267 59.7333 264.696 61.568 261.624 62.976C258.552 64.3413 254.69 65.024 250.04 65.024ZM275.398 64V19.2H290.502V64H275.398ZM314.477 65.024C310.722 65.024 307.096 64.5973 303.597 63.744C300.098 62.8907 297.218 61.7813 294.957 60.416L299.821 49.408C301.954 50.6453 304.322 51.648 306.925 52.416C309.57 53.1413 312.13 53.504 314.605 53.504C316.056 53.504 317.186 53.4187 317.997 53.248C318.85 53.0347 319.469 52.7573 319.853 52.416C320.237 52.032 320.429 51.584 320.429 51.072C320.429 50.2613 319.981 49.6213 319.085 49.152C318.189 48.6827 316.994 48.2987 315.501 48C314.05 47.6587 312.45 47.3173 310.701 46.976C308.952 46.592 307.181 46.1013 305.389 45.504C303.64 44.9067 302.018 44.1173 300.525 43.136C299.074 42.1547 297.901 40.8747 297.005 39.296C296.109 37.6747 295.661 35.6693 295.661 33.28C295.661 30.5067 296.429 27.9893 297.965 25.728C299.544 23.424 301.869 21.5893 304.941 20.224C308.056 18.8587 311.917 18.176 316.525 18.176C319.554 18.176 322.541 18.496 325.485 19.136C328.429 19.776 331.074 20.7573 333.421 22.08L328.877 33.024C326.658 31.9147 324.504 31.0827 322.413 30.528C320.365 29.9733 318.36 29.696 316.397 29.696C314.946 29.696 313.794 29.824 312.941 30.08C312.088 30.336 311.469 30.6773 311.085 31.104C310.744 31.5307 310.573 32 310.573 32.512C310.573 33.28 311.021 33.8987 311.917 34.368C312.813 34.7947 313.986 35.1573 315.437 35.456C316.93 35.7547 318.552 36.0747 320.301 36.416C322.093 36.7573 323.864 37.2267 325.613 37.824C327.362 38.4213 328.962 39.2107 330.413 40.192C331.906 41.1733 333.101 42.4533 333.997 44.032C334.893 45.6107 335.341 47.5733 335.341 49.92C335.341 52.6507 334.552 55.168 332.973 57.472C331.437 59.7333 329.133 61.568 326.061 62.976C322.989 64.3413 319.128 65.024 314.477 65.024Z" fill="#EEEEEE"/>
<path d="M12 72H336.173V75.2H12V72Z" fill="#EEEEEE"/>
</svg>
