<svg width="440" height="42" viewBox="0 0 440 42" fill="none" xmlns="http://www.w3.org/2000/svg">
<path fill-rule="evenodd" clip-rule="evenodd" d="M415.046 2.41379H24.9544C12.7566 2.41379 2.86832 10.7351 2.86832 21C2.86832 31.2649 12.7566 39.5862 24.9544 39.5862H415.046C427.243 39.5862 437.132 31.2649 437.132 21C437.132 10.7351 427.243 2.41379 415.046 2.41379ZM24.9544 0C11.1725 0 0 9.40202 0 21C0 32.598 11.1725 42 24.9544 42H415.046C428.828 42 440 32.598 440 21C440 9.40202 428.828 0 415.046 0H24.9544Z" fill="url(#paint0_linear_1966_2565)"/>
<path d="M41.0337 25.875L40.8587 22.025L50.0337 12.5H53.6837L46.0587 20.6L44.2587 22.575L41.0337 25.875ZM38.1337 30V12.5H41.3837V30H38.1337ZM50.3337 30L43.6337 22.025L45.7837 19.65L54.1337 30H50.3337ZM61.4606 30.175C60.094 30.175 58.8773 29.8833 57.8106 29.3C56.744 28.7 55.9023 27.8833 55.2856 26.85C54.669 25.8167 54.3606 24.6417 54.3606 23.325C54.3606 21.9917 54.669 20.8167 55.2856 19.8C55.9023 18.7667 56.744 17.9583 57.8106 17.375C58.8773 16.7917 60.094 16.5 61.4606 16.5C62.844 16.5 64.069 16.7917 65.1356 17.375C66.219 17.9583 67.0606 18.7583 67.6606 19.775C68.2773 20.7917 68.5856 21.975 68.5856 23.325C68.5856 24.6417 68.2773 25.8167 67.6606 26.85C67.0606 27.8833 66.219 28.7 65.1356 29.3C64.069 29.8833 62.844 30.175 61.4606 30.175ZM61.4606 27.5C62.2273 27.5 62.9106 27.3333 63.5106 27C64.1106 26.6667 64.5773 26.1833 64.9106 25.55C65.2606 24.9167 65.4356 24.175 65.4356 23.325C65.4356 22.4583 65.2606 21.7167 64.9106 21.1C64.5773 20.4667 64.1106 19.9833 63.5106 19.65C62.9106 19.3167 62.2356 19.15 61.4856 19.15C60.719 19.15 60.0356 19.3167 59.4356 19.65C58.8523 19.9833 58.3856 20.4667 58.0356 21.1C57.6856 21.7167 57.5106 22.4583 57.5106 23.325C57.5106 24.175 57.6856 24.9167 58.0356 25.55C58.3856 26.1833 58.8523 26.6667 59.4356 27C60.0356 27.3333 60.7106 27.5 61.4606 27.5ZM71.5739 30V11.45H74.6989V30H71.5739ZM87.0255 30V27.3L86.8505 26.725V22C86.8505 21.0833 86.5755 20.375 86.0255 19.875C85.4755 19.3583 84.6422 19.1 83.5255 19.1C82.7755 19.1 82.0338 19.2167 81.3005 19.45C80.5838 19.6833 79.9755 20.0083 79.4755 20.425L78.2505 18.15C78.9672 17.6 79.8172 17.1917 80.8005 16.925C81.8005 16.6417 82.8338 16.5 83.9005 16.5C85.8338 16.5 87.3255 16.9667 88.3755 17.9C89.4422 18.8167 89.9755 20.2417 89.9755 22.175V30H87.0255ZM82.8255 30.175C81.8255 30.175 80.9505 30.0083 80.2005 29.675C79.4505 29.325 78.8672 28.85 78.4505 28.25C78.0505 27.6333 77.8505 26.9417 77.8505 26.175C77.8505 25.425 78.0255 24.75 78.3755 24.15C78.7422 23.55 79.3338 23.075 80.1505 22.725C80.9672 22.375 82.0505 22.2 83.4005 22.2H87.2755V24.275H83.6255C82.5588 24.275 81.8422 24.45 81.4755 24.8C81.1088 25.1333 80.9255 25.55 80.9255 26.05C80.9255 26.6167 81.1505 27.0667 81.6005 27.4C82.0505 27.7333 82.6755 27.9 83.4755 27.9C84.2422 27.9 84.9255 27.725 85.5255 27.375C86.1422 27.025 86.5838 26.5083 86.8505 25.825L87.3755 27.7C87.0755 28.4833 86.5338 29.0917 85.7505 29.525C84.9838 29.9583 84.0088 30.175 82.8255 30.175ZM101.386 30.175C100.253 30.175 99.2444 29.925 98.361 29.425C97.4777 28.925 96.7777 28.175 96.261 27.175C95.761 26.1583 95.511 24.875 95.511 23.325C95.511 21.7583 95.7694 20.475 96.286 19.475C96.8194 18.475 97.5277 17.7333 98.411 17.25C99.311 16.75 100.303 16.5 101.386 16.5C102.703 16.5 103.861 16.7833 104.861 17.35C105.878 17.9167 106.678 18.7083 107.261 19.725C107.861 20.7417 108.161 21.9417 108.161 23.325C108.161 24.7083 107.861 25.9083 107.261 26.925C106.678 27.9417 105.878 28.7417 104.861 29.325C103.861 29.8917 102.703 30.175 101.386 30.175ZM93.986 30V11.45H97.111V19.75L96.861 23.3L96.961 26.85V30H93.986ZM101.036 27.5C101.786 27.5 102.453 27.3333 103.036 27C103.636 26.6667 104.111 26.1833 104.461 25.55C104.811 24.9167 104.986 24.175 104.986 23.325C104.986 22.4583 104.811 21.7167 104.461 21.1C104.111 20.4667 103.636 19.9833 103.036 19.65C102.453 19.3167 101.786 19.15 101.036 19.15C100.286 19.15 99.611 19.3167 99.011 19.65C98.411 19.9833 97.936 20.4667 97.586 21.1C97.236 21.7167 97.061 22.4583 97.061 23.325C97.061 24.175 97.236 24.9167 97.586 25.55C97.936 26.1833 98.411 26.6667 99.011 27C99.611 27.3333 100.286 27.5 101.036 27.5ZM117.125 30.175C115.758 30.175 114.541 29.8833 113.475 29.3C112.408 28.7 111.566 27.8833 110.95 26.85C110.333 25.8167 110.025 24.6417 110.025 23.325C110.025 21.9917 110.333 20.8167 110.95 19.8C111.566 18.7667 112.408 17.9583 113.475 17.375C114.541 16.7917 115.758 16.5 117.125 16.5C118.508 16.5 119.733 16.7917 120.8 17.375C121.883 17.9583 122.725 18.7583 123.325 19.775C123.941 20.7917 124.25 21.975 124.25 23.325C124.25 24.6417 123.941 25.8167 123.325 26.85C122.725 27.8833 121.883 28.7 120.8 29.3C119.733 29.8833 118.508 30.175 117.125 30.175ZM117.125 27.5C117.891 27.5 118.575 27.3333 119.175 27C119.775 26.6667 120.241 26.1833 120.575 25.55C120.925 24.9167 121.1 24.175 121.1 23.325C121.1 22.4583 120.925 21.7167 120.575 21.1C120.241 20.4667 119.775 19.9833 119.175 19.65C118.575 19.3167 117.9 19.15 117.15 19.15C116.383 19.15 115.7 19.3167 115.1 19.65C114.516 19.9833 114.05 20.4667 113.7 21.1C113.35 21.7167 113.175 22.4583 113.175 23.325C113.175 24.175 113.35 24.9167 113.7 25.55C114.05 26.1833 114.516 26.6667 115.1 27C115.7 27.3333 116.375 27.5 117.125 27.5ZM127.238 30V16.65H130.213V20.325L129.863 19.25C130.263 18.35 130.888 17.6667 131.738 17.2C132.605 16.7333 133.68 16.5 134.963 16.5V19.475C134.83 19.4417 134.705 19.425 134.588 19.425C134.471 19.4083 134.355 19.4 134.238 19.4C133.055 19.4 132.113 19.75 131.413 20.45C130.713 21.1333 130.363 22.1583 130.363 23.525V30H127.238ZM144.887 30V27.3L144.712 26.725V22C144.712 21.0833 144.437 20.375 143.887 19.875C143.337 19.3583 142.503 19.1 141.387 19.1C140.637 19.1 139.895 19.2167 139.162 19.45C138.445 19.6833 137.837 20.0083 137.337 20.425L136.112 18.15C136.828 17.6 137.678 17.1917 138.662 16.925C139.662 16.6417 140.695 16.5 141.762 16.5C143.695 16.5 145.187 16.9667 146.237 17.9C147.303 18.8167 147.837 20.2417 147.837 22.175V30H144.887ZM140.687 30.175C139.687 30.175 138.812 30.0083 138.062 29.675C137.312 29.325 136.728 28.85 136.312 28.25C135.912 27.6333 135.712 26.9417 135.712 26.175C135.712 25.425 135.887 24.75 136.237 24.15C136.603 23.55 137.195 23.075 138.012 22.725C138.828 22.375 139.912 22.2 141.262 22.2H145.137V24.275H141.487C140.42 24.275 139.703 24.45 139.337 24.8C138.97 25.1333 138.787 25.55 138.787 26.05C138.787 26.6167 139.012 27.0667 139.462 27.4C139.912 27.7333 140.537 27.9 141.337 27.9C142.103 27.9 142.787 27.725 143.387 27.375C144.003 27.025 144.445 26.5083 144.712 25.825L145.237 27.7C144.937 28.4833 144.395 29.0917 143.612 29.525C142.845 29.9583 141.87 30.175 140.687 30.175ZM155.972 30.175C154.856 30.175 153.781 30.0333 152.747 29.75C151.731 29.45 150.922 29.0917 150.322 28.675L151.522 26.3C152.122 26.6833 152.839 27 153.672 27.25C154.506 27.5 155.339 27.625 156.172 27.625C157.156 27.625 157.864 27.4917 158.297 27.225C158.747 26.9583 158.972 26.6 158.972 26.15C158.972 25.7833 158.822 25.5083 158.522 25.325C158.222 25.125 157.831 24.975 157.347 24.875C156.864 24.775 156.322 24.6833 155.722 24.6C155.139 24.5167 154.547 24.4083 153.947 24.275C153.364 24.125 152.831 23.9167 152.347 23.65C151.864 23.3667 151.472 22.9917 151.172 22.525C150.872 22.0583 150.722 21.4417 150.722 20.675C150.722 19.825 150.964 19.0917 151.447 18.475C151.931 17.8417 152.606 17.3583 153.472 17.025C154.356 16.675 155.397 16.5 156.597 16.5C157.497 16.5 158.406 16.6 159.322 16.8C160.239 17 160.997 17.2833 161.597 17.65L160.397 20.025C159.764 19.6417 159.122 19.3833 158.472 19.25C157.839 19.1 157.206 19.025 156.572 19.025C155.622 19.025 154.914 19.1667 154.447 19.45C153.997 19.7333 153.772 20.0917 153.772 20.525C153.772 20.925 153.922 21.225 154.222 21.425C154.522 21.625 154.914 21.7833 155.397 21.9C155.881 22.0167 156.414 22.1167 156.997 22.2C157.597 22.2667 158.189 22.375 158.772 22.525C159.356 22.675 159.889 22.8833 160.372 23.15C160.872 23.4 161.272 23.7583 161.572 24.225C161.872 24.6917 162.022 25.3 162.022 26.05C162.022 26.8833 161.772 27.6083 161.272 28.225C160.789 28.8417 160.097 29.325 159.197 29.675C158.297 30.0083 157.222 30.175 155.972 30.175ZM164.714 30V16.65H167.839V30H164.714ZM166.289 14.45C165.705 14.45 165.222 14.2667 164.839 13.9C164.472 13.5333 164.289 13.0917 164.289 12.575C164.289 12.0417 164.472 11.6 164.839 11.25C165.222 10.8833 165.705 10.7 166.289 10.7C166.872 10.7 167.347 10.875 167.714 11.225C168.097 11.5583 168.289 11.9833 168.289 12.5C168.289 13.05 168.105 13.5167 167.739 13.9C167.372 14.2667 166.889 14.45 166.289 14.45ZM182.049 25.875L181.874 22.025L191.049 12.5H194.699L187.074 20.6L185.274 22.575L182.049 25.875ZM179.149 30V12.5H182.399V30H179.149ZM191.349 30L184.649 22.025L186.799 19.65L195.149 30H191.349ZM196.818 30V16.65H199.793V20.325L199.443 19.25C199.843 18.35 200.468 17.6667 201.318 17.2C202.185 16.7333 203.26 16.5 204.543 16.5V19.475C204.41 19.4417 204.285 19.425 204.168 19.425C204.051 19.4083 203.935 19.4 203.818 19.4C202.635 19.4 201.693 19.75 200.993 20.45C200.293 21.1333 199.943 22.1583 199.943 23.525V30H196.818ZM213.347 30.175C211.864 30.175 210.564 29.8833 209.447 29.3C208.347 28.7 207.489 27.8833 206.872 26.85C206.272 25.8167 205.972 24.6417 205.972 23.325C205.972 21.9917 206.264 20.8167 206.847 19.8C207.447 18.7667 208.264 17.9583 209.297 17.375C210.347 16.7917 211.539 16.5 212.872 16.5C214.172 16.5 215.33 16.7833 216.347 17.35C217.364 17.9167 218.164 18.7167 218.747 19.75C219.33 20.7833 219.622 22 219.622 23.4C219.622 23.5333 219.614 23.6833 219.597 23.85C219.597 24.0167 219.589 24.175 219.572 24.325H208.447V22.25H217.922L216.697 22.9C216.714 22.1333 216.555 21.4583 216.222 20.875C215.889 20.2917 215.43 19.8333 214.847 19.5C214.28 19.1667 213.622 19 212.872 19C212.105 19 211.43 19.1667 210.847 19.5C210.28 19.8333 209.83 20.3 209.497 20.9C209.18 21.4833 209.022 22.175 209.022 22.975V23.475C209.022 24.275 209.205 24.9833 209.572 25.6C209.939 26.2167 210.455 26.6917 211.122 27.025C211.789 27.3583 212.555 27.525 213.422 27.525C214.172 27.525 214.847 27.4083 215.447 27.175C216.047 26.9417 216.58 26.575 217.047 26.075L218.722 28C218.122 28.7 217.364 29.2417 216.447 29.625C215.547 29.9917 214.514 30.175 213.347 30.175ZM230.483 30V27.3L230.308 26.725V22C230.308 21.0833 230.033 20.375 229.483 19.875C228.933 19.3583 228.099 19.1 226.983 19.1C226.233 19.1 225.491 19.2167 224.758 19.45C224.041 19.6833 223.433 20.0083 222.933 20.425L221.708 18.15C222.424 17.6 223.274 17.1917 224.258 16.925C225.258 16.6417 226.291 16.5 227.358 16.5C229.291 16.5 230.783 16.9667 231.833 17.9C232.899 18.8167 233.433 20.2417 233.433 22.175V30H230.483ZM226.283 30.175C225.283 30.175 224.408 30.0083 223.658 29.675C222.908 29.325 222.324 28.85 221.908 28.25C221.508 27.6333 221.308 26.9417 221.308 26.175C221.308 25.425 221.483 24.75 221.833 24.15C222.199 23.55 222.791 23.075 223.608 22.725C224.424 22.375 225.508 22.2 226.858 22.2H230.733V24.275H227.083C226.016 24.275 225.299 24.45 224.933 24.8C224.566 25.1333 224.383 25.55 224.383 26.05C224.383 26.6167 224.608 27.0667 225.058 27.4C225.508 27.7333 226.133 27.9 226.933 27.9C227.699 27.9 228.383 27.725 228.983 27.375C229.599 27.025 230.041 26.5083 230.308 25.825L230.833 27.7C230.533 28.4833 229.991 29.0917 229.208 29.525C228.441 29.9583 227.466 30.175 226.283 30.175ZM241.568 30.175C240.451 30.175 239.376 30.0333 238.343 29.75C237.326 29.45 236.518 29.0917 235.918 28.675L237.118 26.3C237.718 26.6833 238.435 27 239.268 27.25C240.101 27.5 240.935 27.625 241.768 27.625C242.751 27.625 243.46 27.4917 243.893 27.225C244.343 26.9583 244.568 26.6 244.568 26.15C244.568 25.7833 244.418 25.5083 244.118 25.325C243.818 25.125 243.426 24.975 242.943 24.875C242.46 24.775 241.918 24.6833 241.318 24.6C240.735 24.5167 240.143 24.4083 239.543 24.275C238.96 24.125 238.426 23.9167 237.943 23.65C237.46 23.3667 237.068 22.9917 236.768 22.525C236.468 22.0583 236.318 21.4417 236.318 20.675C236.318 19.825 236.56 19.0917 237.043 18.475C237.526 17.8417 238.201 17.3583 239.068 17.025C239.951 16.675 240.993 16.5 242.193 16.5C243.093 16.5 244.001 16.6 244.918 16.8C245.835 17 246.593 17.2833 247.193 17.65L245.993 20.025C245.36 19.6417 244.718 19.3833 244.068 19.25C243.435 19.1 242.801 19.025 242.168 19.025C241.218 19.025 240.51 19.1667 240.043 19.45C239.593 19.7333 239.368 20.0917 239.368 20.525C239.368 20.925 239.518 21.225 239.818 21.425C240.118 21.625 240.51 21.7833 240.993 21.9C241.476 22.0167 242.01 22.1167 242.593 22.2C243.193 22.2667 243.785 22.375 244.368 22.525C244.951 22.675 245.485 22.8833 245.968 23.15C246.468 23.4 246.868 23.7583 247.168 24.225C247.468 24.6917 247.618 25.3 247.618 26.05C247.618 26.8833 247.368 27.6083 246.868 28.225C246.385 28.8417 245.693 29.325 244.793 29.675C243.893 30.0083 242.818 30.175 241.568 30.175ZM250.309 30V16.65H253.434V30H250.309ZM251.884 14.45C251.301 14.45 250.818 14.2667 250.434 13.9C250.068 13.5333 249.884 13.0917 249.884 12.575C249.884 12.0417 250.068 11.6 250.434 11.25C250.818 10.8833 251.301 10.7 251.884 10.7C252.468 10.7 252.943 10.875 253.309 11.225C253.693 11.5583 253.884 11.9833 253.884 12.5C253.884 13.05 253.701 13.5167 253.334 13.9C252.968 14.2667 252.484 14.45 251.884 14.45ZM264.745 30V12.5H267.42L275.07 25.275H273.67L281.195 12.5H283.87L283.895 30H280.82L280.795 17.325H281.445L275.045 28H273.595L267.095 17.325H267.845V30H264.745ZM296.547 30V27.3L296.372 26.725V22C296.372 21.0833 296.097 20.375 295.547 19.875C294.997 19.3583 294.164 19.1 293.047 19.1C292.297 19.1 291.555 19.2167 290.822 19.45C290.105 19.6833 289.497 20.0083 288.997 20.425L287.772 18.15C288.489 17.6 289.339 17.1917 290.322 16.925C291.322 16.6417 292.355 16.5 293.422 16.5C295.355 16.5 296.847 16.9667 297.897 17.9C298.964 18.8167 299.497 20.2417 299.497 22.175V30H296.547ZM292.347 30.175C291.347 30.175 290.472 30.0083 289.722 29.675C288.972 29.325 288.389 28.85 287.972 28.25C287.572 27.6333 287.372 26.9417 287.372 26.175C287.372 25.425 287.547 24.75 287.897 24.15C288.264 23.55 288.855 23.075 289.672 22.725C290.489 22.375 291.572 22.2 292.922 22.2H296.797V24.275H293.147C292.08 24.275 291.364 24.45 290.997 24.8C290.63 25.1333 290.447 25.55 290.447 26.05C290.447 26.6167 290.672 27.0667 291.122 27.4C291.572 27.7333 292.197 27.9 292.997 27.9C293.764 27.9 294.447 27.725 295.047 27.375C295.664 27.025 296.105 26.5083 296.372 25.825L296.897 27.7C296.597 28.4833 296.055 29.0917 295.272 29.525C294.505 29.9583 293.53 30.175 292.347 30.175ZM311.083 16.5C312.149 16.5 313.099 16.7083 313.933 17.125C314.783 17.5417 315.449 18.1833 315.933 19.05C316.416 19.9 316.658 21 316.658 22.35V30H313.533V22.75C313.533 21.5667 313.249 20.6833 312.683 20.1C312.133 19.5167 311.358 19.225 310.358 19.225C309.624 19.225 308.974 19.375 308.408 19.675C307.841 19.975 307.399 20.425 307.083 21.025C306.783 21.6083 306.633 22.35 306.633 23.25V30H303.508V11.45H306.633V20.25L305.958 19.15C306.424 18.3 307.099 17.65 307.983 17.2C308.883 16.7333 309.916 16.5 311.083 16.5ZM328.847 30V27.3L328.672 26.725V22C328.672 21.0833 328.397 20.375 327.847 19.875C327.297 19.3583 326.463 19.1 325.347 19.1C324.597 19.1 323.855 19.2167 323.122 19.45C322.405 19.6833 321.797 20.0083 321.297 20.425L320.072 18.15C320.788 17.6 321.638 17.1917 322.622 16.925C323.622 16.6417 324.655 16.5 325.722 16.5C327.655 16.5 329.147 16.9667 330.197 17.9C331.263 18.8167 331.797 20.2417 331.797 22.175V30H328.847ZM324.647 30.175C323.647 30.175 322.772 30.0083 322.022 29.675C321.272 29.325 320.688 28.85 320.272 28.25C319.872 27.6333 319.672 26.9417 319.672 26.175C319.672 25.425 319.847 24.75 320.197 24.15C320.563 23.55 321.155 23.075 321.972 22.725C322.788 22.375 323.872 22.2 325.222 22.2H329.097V24.275H325.447C324.38 24.275 323.663 24.45 323.297 24.8C322.93 25.1333 322.747 25.55 322.747 26.05C322.747 26.6167 322.972 27.0667 323.422 27.4C323.872 27.7333 324.497 27.9 325.297 27.9C326.063 27.9 326.747 27.725 327.347 27.375C327.963 27.025 328.405 26.5083 328.672 25.825L329.197 27.7C328.897 28.4833 328.355 29.0917 327.572 29.525C326.805 29.9583 325.83 30.175 324.647 30.175ZM339.932 30.175C338.816 30.175 337.741 30.0333 336.707 29.75C335.691 29.45 334.882 29.0917 334.282 28.675L335.482 26.3C336.082 26.6833 336.799 27 337.632 27.25C338.466 27.5 339.299 27.625 340.132 27.625C341.116 27.625 341.824 27.4917 342.257 27.225C342.707 26.9583 342.932 26.6 342.932 26.15C342.932 25.7833 342.782 25.5083 342.482 25.325C342.182 25.125 341.791 24.975 341.307 24.875C340.824 24.775 340.282 24.6833 339.682 24.6C339.099 24.5167 338.507 24.4083 337.907 24.275C337.324 24.125 336.791 23.9167 336.307 23.65C335.824 23.3667 335.432 22.9917 335.132 22.525C334.832 22.0583 334.682 21.4417 334.682 20.675C334.682 19.825 334.924 19.0917 335.407 18.475C335.891 17.8417 336.566 17.3583 337.432 17.025C338.316 16.675 339.357 16.5 340.557 16.5C341.457 16.5 342.366 16.6 343.282 16.8C344.199 17 344.957 17.2833 345.557 17.65L344.357 20.025C343.724 19.6417 343.082 19.3833 342.432 19.25C341.799 19.1 341.166 19.025 340.532 19.025C339.582 19.025 338.874 19.1667 338.407 19.45C337.957 19.7333 337.732 20.0917 337.732 20.525C337.732 20.925 337.882 21.225 338.182 21.425C338.482 21.625 338.874 21.7833 339.357 21.9C339.841 22.0167 340.374 22.1167 340.957 22.2C341.557 22.2667 342.149 22.375 342.732 22.525C343.316 22.675 343.849 22.8833 344.332 23.15C344.832 23.4 345.232 23.7583 345.532 24.225C345.832 24.6917 345.982 25.3 345.982 26.05C345.982 26.8833 345.732 27.6083 345.232 28.225C344.749 28.8417 344.057 29.325 343.157 29.675C342.257 30.0083 341.182 30.175 339.932 30.175ZM348.674 30V16.65H351.799V30H348.674ZM350.249 14.45C349.665 14.45 349.182 14.2667 348.799 13.9C348.432 13.5333 348.249 13.0917 348.249 12.575C348.249 12.0417 348.432 11.6 348.799 11.25C349.182 10.8833 349.665 10.7 350.249 10.7C350.832 10.7 351.307 10.875 351.674 11.225C352.057 11.5583 352.249 11.9833 352.249 12.5C352.249 13.05 352.065 13.5167 351.699 13.9C351.332 14.2667 350.849 14.45 350.249 14.45ZM360.025 30.175C358.908 30.175 357.833 30.0333 356.8 29.75C355.783 29.45 354.975 29.0917 354.375 28.675L355.575 26.3C356.175 26.6833 356.892 27 357.725 27.25C358.558 27.5 359.392 27.625 360.225 27.625C361.208 27.625 361.917 27.4917 362.35 27.225C362.8 26.9583 363.025 26.6 363.025 26.15C363.025 25.7833 362.875 25.5083 362.575 25.325C362.275 25.125 361.883 24.975 361.4 24.875C360.917 24.775 360.375 24.6833 359.775 24.6C359.192 24.5167 358.6 24.4083 358 24.275C357.417 24.125 356.883 23.9167 356.4 23.65C355.917 23.3667 355.525 22.9917 355.225 22.525C354.925 22.0583 354.775 21.4417 354.775 20.675C354.775 19.825 355.017 19.0917 355.5 18.475C355.983 17.8417 356.658 17.3583 357.525 17.025C358.408 16.675 359.45 16.5 360.65 16.5C361.55 16.5 362.458 16.6 363.375 16.8C364.292 17 365.05 17.2833 365.65 17.65L364.45 20.025C363.817 19.6417 363.175 19.3833 362.525 19.25C361.892 19.1 361.258 19.025 360.625 19.025C359.675 19.025 358.967 19.1667 358.5 19.45C358.05 19.7333 357.825 20.0917 357.825 20.525C357.825 20.925 357.975 21.225 358.275 21.425C358.575 21.625 358.967 21.7833 359.45 21.9C359.933 22.0167 360.467 22.1167 361.05 22.2C361.65 22.2667 362.242 22.375 362.825 22.525C363.408 22.675 363.942 22.8833 364.425 23.15C364.925 23.4 365.325 23.7583 365.625 24.225C365.925 24.6917 366.075 25.3 366.075 26.05C366.075 26.8833 365.825 27.6083 365.325 28.225C364.842 28.8417 364.15 29.325 363.25 29.675C362.35 30.0083 361.275 30.175 360.025 30.175ZM371.472 30L366.572 16.65H369.522L373.722 28.425H372.322L376.722 16.65H379.347L383.622 28.425H382.247L386.572 16.65H389.347L384.422 30H381.422L377.522 19.575H378.447L374.472 30H371.472ZM399.306 30V27.3L399.131 26.725V22C399.131 21.0833 398.856 20.375 398.306 19.875C397.756 19.3583 396.922 19.1 395.806 19.1C395.056 19.1 394.314 19.2167 393.581 19.45C392.864 19.6833 392.256 20.0083 391.756 20.425L390.531 18.15C391.247 17.6 392.097 17.1917 393.081 16.925C394.081 16.6417 395.114 16.5 396.181 16.5C398.114 16.5 399.606 16.9667 400.656 17.9C401.722 18.8167 402.256 20.2417 402.256 22.175V30H399.306ZM395.106 30.175C394.106 30.175 393.231 30.0083 392.481 29.675C391.731 29.325 391.147 28.85 390.731 28.25C390.331 27.6333 390.131 26.9417 390.131 26.175C390.131 25.425 390.306 24.75 390.656 24.15C391.022 23.55 391.614 23.075 392.431 22.725C393.247 22.375 394.331 22.2 395.681 22.2H399.556V24.275H395.906C394.839 24.275 394.122 24.45 393.756 24.8C393.389 25.1333 393.206 25.55 393.206 26.05C393.206 26.6167 393.431 27.0667 393.881 27.4C394.331 27.7333 394.956 27.9 395.756 27.9C396.522 27.9 397.206 27.725 397.806 27.375C398.422 27.025 398.864 26.5083 399.131 25.825L399.656 27.7C399.356 28.4833 398.814 29.0917 398.031 29.525C397.264 29.9583 396.289 30.175 395.106 30.175Z" fill="#EEEEEE"/>
<defs>
<linearGradient id="paint0_linear_1966_2565" x1="-8.19566e-07" y1="21" x2="440" y2="21" gradientUnits="userSpaceOnUse">
<stop stop-color="#EEEEEE"/>
<stop offset="0.510417" stop-opacity="0.1"/>
<stop offset="1" stop-color="#EEEEEE"/>
</linearGradient>
</defs>
</svg>
