<svg width="404" height="78" viewBox="0 0 404 78" fill="none" xmlns="http://www.w3.org/2000/svg">
<path d="M3.648 62V17.2H25.216C29.3973 17.2 33.0027 17.8827 36.032 19.248C39.104 20.6133 41.472 22.576 43.136 25.136C44.8 27.6533 45.632 30.64 45.632 34.096C45.632 37.552 44.8 40.5387 43.136 43.056C41.472 45.5733 39.104 47.536 36.032 48.944C33.0027 50.3093 29.3973 50.992 25.216 50.992H12.032L18.752 44.528V62H3.648ZM18.752 46.192L12.032 39.344H24.256C26.3467 39.344 27.8827 38.8747 28.864 37.936C29.888 36.9973 30.4 35.7173 30.4 34.096C30.4 32.4747 29.888 31.1947 28.864 30.256C27.8827 29.3173 26.3467 28.848 24.256 28.848H12.032L18.752 22V46.192ZM112.722 33.84H132.69V44.72H112.722V33.84ZM113.746 50.608H136.146V62H98.898V17.2H135.314V28.592H113.746V50.608ZM215.398 62V17.2H236.966C241.147 17.2 244.753 17.8827 247.782 19.248C250.854 20.6133 253.222 22.576 254.886 25.136C256.55 27.6533 257.382 30.64 257.382 34.096C257.382 37.552 256.55 40.5387 254.886 43.056C253.222 45.5307 250.854 47.4293 247.782 48.752C244.753 50.0747 241.147 50.736 236.966 50.736H223.782L230.502 44.528V62H215.398ZM242.214 62L231.206 45.68H247.206L258.342 62H242.214ZM230.502 46.192L223.782 39.344H236.006C238.097 39.344 239.633 38.8747 240.614 37.936C241.638 36.9973 242.15 35.7173 242.15 34.096C242.15 32.4747 241.638 31.1947 240.614 30.256C239.633 29.3173 238.097 28.848 236.006 28.848H223.782L230.502 22V46.192ZM329.785 33.84H349.753V44.72H329.785V33.84ZM330.809 50.608H353.209V62H315.961V17.2H352.377V28.592H330.809V50.608ZM359.023 62V17.2H380.591C384.772 17.2 388.378 17.8827 391.407 19.248C394.479 20.6133 396.847 22.576 398.511 25.136C400.175 27.6533 401.007 30.64 401.007 34.096C401.007 37.552 400.175 40.5387 398.511 43.056C396.847 45.5307 394.479 47.4293 391.407 48.752C388.378 50.0747 384.772 50.736 380.591 50.736H367.407L374.127 44.528V62H359.023ZM385.839 62L374.831 45.68H390.831L401.967 62H385.839ZM374.127 46.192L367.407 39.344H379.631C381.722 39.344 383.258 38.8747 384.239 37.936C385.263 36.9973 385.775 35.7173 385.775 34.096C385.775 32.4747 385.263 31.1947 384.239 30.256C383.258 29.3173 381.722 28.848 379.631 28.848H367.407L374.127 22V46.192Z" fill="#EEEEEE"/>
<path d="M51.2105 62V17.2H72.7785C76.9598 17.2 80.5652 17.8827 83.5945 19.248C86.6665 20.6133 89.0345 22.576 90.6985 25.136C92.3625 27.6533 93.1945 30.64 93.1945 34.096C93.1945 37.552 92.3625 40.5387 90.6985 43.056C89.0345 45.5307 86.6665 47.4293 83.5945 48.752C80.5652 50.0747 76.9598 50.736 72.7785 50.736H59.5945L66.3145 44.528V62H51.2105ZM78.0265 62L67.0185 45.68H83.0185L94.1545 62H78.0265ZM66.3145 46.192L59.5945 39.344H71.8185C73.9092 39.344 75.4452 38.8747 76.4265 37.936C77.4505 36.9973 77.9625 35.7173 77.9625 34.096C77.9625 32.4747 77.4505 31.1947 76.4265 30.256C75.4452 29.3173 73.9092 28.848 71.8185 28.848H59.5945L66.3145 22V46.192Z" fill="#4A8068"/>
<path d="M184.636 63.024C181.009 63.024 177.639 62.448 174.524 61.296C171.452 60.144 168.785 58.5227 166.524 56.432C164.263 54.2987 162.492 51.8027 161.212 48.944C159.975 46.0853 159.356 42.9707 159.356 39.6C159.356 36.1867 159.975 33.072 161.212 30.256C162.492 27.3973 164.263 24.9227 166.524 22.832C168.785 20.6987 171.452 19.056 174.524 17.904C177.639 16.752 181.009 16.176 184.636 16.176C188.305 16.176 191.676 16.752 194.748 17.904C197.82 19.056 200.487 20.6987 202.748 22.832C205.009 24.9227 206.759 27.3973 207.996 30.256C209.276 33.072 209.916 36.1867 209.916 39.6C209.916 42.9707 209.276 46.0853 207.996 48.944C206.759 51.8027 205.009 54.2987 202.748 56.432C200.487 58.5227 197.82 60.144 194.748 61.296C191.676 62.448 188.305 63.024 184.636 63.024ZM184.636 50.8C186.044 50.8 187.345 50.544 188.54 50.032C189.777 49.52 190.844 48.7947 191.74 47.856C192.679 46.8747 193.404 45.7013 193.916 44.336C194.428 42.928 194.684 41.3493 194.684 39.6C194.684 37.8507 194.428 36.2933 193.916 34.928C193.404 33.52 192.679 32.3467 191.74 31.408C190.844 30.4267 189.777 29.68 188.54 29.168C187.345 28.656 186.044 28.4 184.636 28.4C183.228 28.4 181.905 28.656 180.668 29.168C179.473 29.68 178.407 30.4267 177.468 31.408C176.572 32.3467 175.868 33.52 175.356 34.928C174.844 36.2933 174.588 37.8507 174.588 39.6C174.588 41.3493 174.844 42.928 175.356 44.336C175.868 45.7013 176.572 46.8747 177.468 47.856C178.407 48.7947 179.473 49.52 180.668 50.032C181.905 50.544 183.228 50.8 184.636 50.8Z" fill="#F69722"/>
<path d="M263.086 62V17.2H285.166C290.158 17.2 294.552 18.1173 298.35 19.952C302.147 21.744 305.112 24.304 307.246 27.632C309.379 30.96 310.446 34.928 310.446 39.536C310.446 44.1867 309.379 48.1973 307.246 51.568C305.112 54.896 302.147 57.4773 298.35 59.312C294.552 61.104 290.158 62 285.166 62H263.086ZM278.19 50.224H284.526C286.659 50.224 288.515 49.8187 290.094 49.008C291.715 48.1973 292.974 47.0027 293.87 45.424C294.766 43.8027 295.214 41.84 295.214 39.536C295.214 37.2747 294.766 35.3547 293.87 33.776C292.974 32.1973 291.715 31.0027 290.094 30.192C288.515 29.3813 286.659 28.976 284.526 28.976H278.19V50.224Z" fill="#9C4A9A"/>
<path d="M64.5 40.5V27.5H83.5V40.5H64.5Z" fill="#4A8068"/>
<path d="M168.5 49.5V29L200 26V53.5L168.5 49.5Z" fill="#F69722"/>
<path d="M271.5 54.5V26.5L300.5 28.5L302 52L271.5 54.5Z" fill="#9C4A9A"/>
</svg>
