<svg width="28" height="28" viewBox="0 0 28 28" fill="none" xmlns="http://www.w3.org/2000/svg">
<rect x="12.4453" width="3.11111" height="3.11111" fill="white"/>
<rect x="9.33398" y="3.11133" width="3.11111" height="3.11111" fill="white"/>
<rect x="15.5547" y="3.11133" width="3.11111" height="3.11111" fill="white"/>
<rect x="18.666" y="6.22217" width="3.11111" height="3.11111" fill="white"/>
<rect x="21.7793" y="9.3335" width="3.11111" height="3.11111" fill="white"/>
<rect x="24.8887" y="12" width="3.11111" height="3.11111" fill="white"/>
<rect x="21.7793" y="15.1113" width="3.11111" height="3.11111" fill="white"/>
<rect x="18.666" y="17.7778" width="3.11111" height="3.11111" fill="white"/>
<rect x="15.5547" y="20.8892" width="3.11111" height="3.11111" fill="white"/>
<rect x="12.4453" y="24" width="3.11111" height="3.11111" fill="white"/>
<rect x="9.33398" y="20.8892" width="3.11111" height="3.11111" fill="white"/>
<rect x="6.2207" y="17.7778" width="3.11111" height="3.11111" fill="white"/>
<rect x="3.11133" y="15.1113" width="3.11111" height="3.11111" fill="white"/>
<rect y="12" width="3.11111" height="3.11111" fill="white"/>
<rect x="3.11133" y="8.88867" width="3.11111" height="3.11111" fill="white"/>
<rect x="6.2207" y="6.22217" width="3.11111" height="3.11111" fill="white"/>
<rect x="9.33398" y="8.88867" width="3.11111" height="3.11111" fill="#4A8068"/>
<rect x="12.4453" y="12" width="3.11111" height="3.11111" fill="#4A8068"/>
<rect x="9.33398" y="15.1113" width="3.11111" height="3.11111" fill="#4A8068"/>
<rect x="15.5547" y="15.1113" width="3.11111" height="3.11111" fill="#4A8068"/>
<rect x="15.5547" y="8.88867" width="3.11111" height="3.11111" fill="#4A8068"/>
</svg>
