<svg width="488" height="307" viewBox="0 0 488 307" fill="none" xmlns="http://www.w3.org/2000/svg">
<path d="M172.04 19L174.84 5H179.56L177.5 15.34H183.82L183.08 19H172.04ZM184.244 19L186.424 8.06H190.924L188.744 19H184.244ZM189.164 7.18C188.377 7.18 187.75 6.97333 187.284 6.56C186.83 6.14667 186.604 5.64 186.604 5.04C186.604 4.33333 186.864 3.74667 187.384 3.28C187.917 2.81333 188.617 2.58 189.484 2.58C190.27 2.58 190.89 2.77333 191.344 3.16C191.81 3.54667 192.044 4.04 192.044 4.64C192.044 5.38667 191.777 6 191.244 6.48C190.724 6.94667 190.03 7.18 189.164 7.18ZM200.248 7.86C201.154 7.86 201.928 8.05333 202.568 8.44C203.221 8.81333 203.681 9.38 203.948 10.14C204.228 10.8867 204.254 11.8267 204.028 12.96L202.828 19H198.308L199.408 13.5C199.528 12.9 199.501 12.4467 199.328 12.14C199.154 11.82 198.828 11.66 198.348 11.66C197.841 11.66 197.414 11.8333 197.068 12.18C196.721 12.5133 196.474 13.0333 196.328 13.74L195.268 19H190.748L192.928 8.06H197.188L196.568 11.12L196.048 10.28C196.568 9.44 197.208 8.82667 197.968 8.44C198.741 8.05333 199.501 7.86 200.248 7.86ZM204.791 19L206.971 8.06H211.471L209.291 19H204.791ZM209.711 7.18C208.924 7.18 208.297 6.97333 207.831 6.56C207.377 6.14667 207.151 5.64 207.151 5.04C207.151 4.33333 207.411 3.74667 207.931 3.28C208.464 2.81333 209.164 2.58 210.031 2.58C210.817 2.58 211.437 2.77333 211.891 3.16C212.357 3.54667 212.591 4.04 212.591 4.64C212.591 5.38667 212.324 6 211.791 6.48C211.271 6.94667 210.577 7.18 209.711 7.18ZM227.695 7.86C228.535 7.86 229.268 8.05333 229.895 8.44C230.521 8.81333 230.975 9.38 231.255 10.14C231.535 10.8867 231.561 11.8267 231.335 12.96L230.135 19H225.615L226.715 13.54C226.848 12.8867 226.821 12.4133 226.635 12.12C226.448 11.8133 226.175 11.66 225.815 11.66C225.401 11.66 225.041 11.8067 224.735 12.1C224.428 12.38 224.201 12.8733 224.055 13.58L222.975 19H218.455L219.555 13.54C219.688 12.8867 219.661 12.4133 219.475 12.12C219.288 11.8133 219.015 11.66 218.655 11.66C218.241 11.66 217.875 11.8133 217.555 12.12C217.248 12.4133 217.021 12.9267 216.875 13.66L215.815 19H211.295L213.475 8.06H217.735L217.275 10.36L216.615 10.28C217.108 9.45333 217.715 8.84667 218.435 8.46C219.155 8.06 219.888 7.86 220.635 7.86C221.235 7.86 221.795 7.98 222.315 8.22C222.848 8.44667 223.295 8.8 223.655 9.28C224.015 9.74667 224.228 10.3467 224.295 11.08L223.115 10.7C223.581 9.80667 224.208 9.11333 224.995 8.62C225.781 8.11333 226.681 7.86 227.695 7.86ZM237.193 19.2C236.473 19.2 235.766 19.0067 235.073 18.62C234.38 18.22 233.806 17.6467 233.353 16.9C232.913 16.14 232.693 15.22 232.693 14.14C232.693 13.2333 232.846 12.4 233.153 11.64C233.46 10.88 233.88 10.22 234.413 9.66C234.96 9.08667 235.58 8.64667 236.273 8.34C236.98 8.02 237.726 7.86 238.513 7.86C239.366 7.86 240.106 8.03333 240.733 8.38C241.36 8.72667 241.806 9.31333 242.073 10.14C242.353 10.9533 242.38 12.08 242.153 13.52C241.966 14.6933 241.646 15.7067 241.193 16.56C240.753 17.4133 240.2 18.0667 239.533 18.52C238.866 18.9733 238.086 19.2 237.193 19.2ZM238.893 15.64C239.293 15.64 239.64 15.54 239.933 15.34C240.226 15.1267 240.453 14.8333 240.613 14.46C240.786 14.0867 240.873 13.6467 240.873 13.14C240.873 12.6333 240.726 12.22 240.433 11.9C240.153 11.58 239.76 11.42 239.253 11.42C238.866 11.42 238.52 11.5267 238.213 11.74C237.92 11.94 237.686 12.2267 237.513 12.6C237.353 12.9733 237.273 13.4133 237.273 13.92C237.273 14.4267 237.413 14.84 237.693 15.16C237.986 15.48 238.386 15.64 238.893 15.64ZM239.953 19L240.253 17.52L240.993 13.52L241.573 9.56L241.873 8.06H246.393L244.213 19H239.953ZM250.757 19.2C249.784 19.2 248.857 19.1067 247.977 18.92C247.11 18.72 246.437 18.48 245.957 18.2L247.517 15.12C248.064 15.4533 248.677 15.7067 249.357 15.88C250.05 16.04 250.704 16.12 251.317 16.12C251.824 16.12 252.17 16.0733 252.357 15.98C252.557 15.8733 252.657 15.7467 252.657 15.6C252.657 15.44 252.524 15.3267 252.257 15.26C251.99 15.18 251.644 15.1133 251.217 15.06C250.804 15.0067 250.364 14.9267 249.897 14.82C249.43 14.7133 248.984 14.56 248.557 14.36C248.144 14.1467 247.804 13.8533 247.537 13.48C247.27 13.1067 247.137 12.6133 247.137 12C247.137 11.0533 247.41 10.28 247.957 9.68C248.517 9.06667 249.264 8.61333 250.197 8.32C251.13 8.01333 252.164 7.86 253.297 7.86C254.097 7.86 254.864 7.93333 255.597 8.08C256.344 8.21333 257.004 8.41333 257.577 8.68L256.017 11.76C255.444 11.4267 254.87 11.2067 254.297 11.1C253.737 10.9933 253.224 10.94 252.757 10.94C252.237 10.94 251.877 11 251.677 11.12C251.477 11.2267 251.377 11.3467 251.377 11.48C251.377 11.64 251.51 11.76 251.777 11.84C252.044 11.92 252.384 11.9933 252.797 12.06C253.21 12.1133 253.65 12.1933 254.117 12.3C254.597 12.3933 255.044 12.5467 255.457 12.76C255.87 12.96 256.21 13.2467 256.477 13.62C256.744 13.9933 256.877 14.4867 256.877 15.1C256.877 16.0067 256.597 16.7667 256.037 17.38C255.49 17.9933 254.75 18.4533 253.817 18.76C252.897 19.0533 251.877 19.2 250.757 19.2ZM262.505 19.2C261.785 19.2 261.079 19.0067 260.385 18.62C259.692 18.22 259.119 17.6467 258.665 16.9C258.225 16.14 258.005 15.22 258.005 14.14C258.005 13.2333 258.159 12.4 258.465 11.64C258.772 10.88 259.192 10.22 259.725 9.66C260.272 9.08667 260.892 8.64667 261.585 8.34C262.292 8.02 263.039 7.86 263.825 7.86C264.679 7.86 265.419 8.03333 266.045 8.38C266.672 8.72667 267.119 9.31333 267.385 10.14C267.665 10.9533 267.692 12.08 267.465 13.52C267.279 14.6933 266.959 15.7067 266.505 16.56C266.065 17.4133 265.512 18.0667 264.845 18.52C264.179 18.9733 263.399 19.2 262.505 19.2ZM264.205 15.64C264.605 15.64 264.952 15.54 265.245 15.34C265.539 15.1267 265.765 14.8333 265.925 14.46C266.099 14.0867 266.185 13.6467 266.185 13.14C266.185 12.6333 266.039 12.22 265.745 11.9C265.465 11.58 265.072 11.42 264.565 11.42C264.179 11.42 263.832 11.5267 263.525 11.74C263.232 11.94 262.999 12.2267 262.825 12.6C262.665 12.9733 262.585 13.4133 262.585 13.92C262.585 14.4267 262.725 14.84 263.005 15.16C263.299 15.48 263.699 15.64 264.205 15.64ZM265.265 19L265.565 17.52L266.305 13.52L266.885 9.56L267.185 8.06H271.705L269.525 19H265.265Z" fill="#EEEEEE"/>
<path d="M1.29091 169V159.2H5.53291C6.41024 159.2 7.16624 159.345 7.80091 159.634C8.43557 159.914 8.92557 160.32 9.27091 160.852C9.61624 161.384 9.78891 162.019 9.78891 162.756C9.78891 163.484 9.61624 164.114 9.27091 164.646C8.92557 165.178 8.43557 165.589 7.80091 165.878C7.16624 166.158 6.41024 166.298 5.53291 166.298H2.55091L3.55891 165.276V169H1.29091ZM3.55891 165.528L2.55091 164.45H5.40691C6.10691 164.45 6.62957 164.301 6.97491 164.002C7.32024 163.703 7.49291 163.288 7.49291 162.756C7.49291 162.215 7.32024 161.795 6.97491 161.496C6.62957 161.197 6.10691 161.048 5.40691 161.048H2.55091L3.55891 159.97V165.528ZM14.9784 169.112C14.1198 169.112 13.3638 168.944 12.7104 168.608C12.0664 168.272 11.5671 167.815 11.2124 167.236C10.8578 166.648 10.6804 165.981 10.6804 165.234C10.6804 164.478 10.8531 163.811 11.1984 163.232C11.5531 162.644 12.0338 162.187 12.6404 161.86C13.2471 161.524 13.9331 161.356 14.6984 161.356C15.4358 161.356 16.0984 161.515 16.6864 161.832C17.2838 162.14 17.7551 162.588 18.1004 163.176C18.4458 163.755 18.6184 164.45 18.6184 165.262C18.6184 165.346 18.6138 165.444 18.6044 165.556C18.5951 165.659 18.5858 165.757 18.5764 165.85H12.4584V164.576H17.4284L16.5884 164.954C16.5884 164.562 16.5091 164.221 16.3504 163.932C16.1918 163.643 15.9724 163.419 15.6924 163.26C15.4124 163.092 15.0858 163.008 14.7124 163.008C14.3391 163.008 14.0078 163.092 13.7184 163.26C13.4384 163.419 13.2191 163.647 13.0604 163.946C12.9018 164.235 12.8224 164.581 12.8224 164.982V165.318C12.8224 165.729 12.9111 166.093 13.0884 166.41C13.2751 166.718 13.5318 166.956 13.8584 167.124C14.1944 167.283 14.5864 167.362 15.0344 167.362C15.4358 167.362 15.7858 167.301 16.0844 167.18C16.3924 167.059 16.6724 166.877 16.9244 166.634L18.0864 167.894C17.7411 168.286 17.3071 168.589 16.7844 168.804C16.2618 169.009 15.6598 169.112 14.9784 169.112ZM24.6505 161.356C25.2478 161.356 25.7798 161.477 26.2465 161.72C26.7225 161.953 27.0958 162.317 27.3665 162.812C27.6371 163.297 27.7725 163.923 27.7725 164.688V169H25.5885V165.024C25.5885 164.417 25.4531 163.969 25.1825 163.68C24.9211 163.391 24.5478 163.246 24.0625 163.246C23.7171 163.246 23.4045 163.321 23.1245 163.47C22.8538 163.61 22.6391 163.829 22.4805 164.128C22.3311 164.427 22.2565 164.809 22.2565 165.276V169H20.0725V161.468H22.1585V163.554L21.7665 162.924C22.0371 162.42 22.4245 162.033 22.9285 161.762C23.4325 161.491 24.0065 161.356 24.6505 161.356ZM32.9301 169.112C32.3048 169.112 31.7448 168.991 31.2501 168.748C30.7648 168.505 30.3868 168.137 30.1161 167.642C29.8455 167.138 29.7101 166.499 29.7101 165.724V161.468H31.8941V165.402C31.8941 166.027 32.0248 166.489 32.2861 166.788C32.5568 167.077 32.9348 167.222 33.4201 167.222C33.7561 167.222 34.0548 167.152 34.3161 167.012C34.5775 166.863 34.7828 166.639 34.9321 166.34C35.0815 166.032 35.1561 165.649 35.1561 165.192V161.468H37.3401V169H35.2681V166.928L35.6461 167.53C35.3941 168.053 35.0208 168.449 34.5261 168.72C34.0408 168.981 33.5088 169.112 32.9301 169.112ZM42.4435 169.112C41.5568 169.112 40.8661 168.888 40.3715 168.44C39.8768 167.983 39.6295 167.306 39.6295 166.41V159.802H41.8135V166.382C41.8135 166.699 41.8975 166.947 42.0655 167.124C42.2335 167.292 42.4621 167.376 42.7515 167.376C43.0968 167.376 43.3908 167.283 43.6335 167.096L44.2215 168.636C43.9975 168.795 43.7268 168.916 43.4095 169C43.1015 169.075 42.7795 169.112 42.4435 169.112ZM38.4675 163.316V161.636H43.6895V163.316H38.4675ZM48.6255 169.112C48.0001 169.112 47.4401 168.991 46.9455 168.748C46.4601 168.505 46.0821 168.137 45.8115 167.642C45.5408 167.138 45.4055 166.499 45.4055 165.724V161.468H47.5895V165.402C47.5895 166.027 47.7201 166.489 47.9815 166.788C48.2521 167.077 48.6301 167.222 49.1155 167.222C49.4515 167.222 49.7501 167.152 50.0115 167.012C50.2728 166.863 50.4781 166.639 50.6275 166.34C50.7768 166.032 50.8515 165.649 50.8515 165.192V161.468H53.0355V169H50.9635V166.928L51.3415 167.53C51.0895 168.053 50.7161 168.449 50.2215 168.72C49.7361 168.981 49.2041 169.112 48.6255 169.112ZM59.5108 169.112C58.8761 169.112 58.3208 168.972 57.8448 168.692C57.3688 168.412 56.9954 167.987 56.7248 167.418C56.4634 166.839 56.3328 166.111 56.3328 165.234C56.3328 164.347 56.4588 163.619 56.7108 163.05C56.9628 162.481 57.3268 162.056 57.8028 161.776C58.2788 161.496 58.8481 161.356 59.5108 161.356C60.2201 161.356 60.8548 161.519 61.4148 161.846C61.9841 162.163 62.4321 162.611 62.7588 163.19C63.0948 163.769 63.2628 164.45 63.2628 165.234C63.2628 166.027 63.0948 166.713 62.7588 167.292C62.4321 167.871 61.9841 168.319 61.4148 168.636C60.8548 168.953 60.2201 169.112 59.5108 169.112ZM55.0588 171.716V161.468H57.1448V163.008L57.1028 165.248L57.2428 167.474V171.716H55.0588ZM59.1328 167.32C59.4968 167.32 59.8188 167.236 60.0988 167.068C60.3881 166.9 60.6168 166.662 60.7848 166.354C60.9621 166.037 61.0508 165.663 61.0508 165.234C61.0508 164.795 60.9621 164.422 60.7848 164.114C60.6168 163.806 60.3881 163.568 60.0988 163.4C59.8188 163.232 59.4968 163.148 59.1328 163.148C58.7688 163.148 58.4421 163.232 58.1528 163.4C57.8634 163.568 57.6348 163.806 57.4668 164.114C57.2988 164.422 57.2148 164.795 57.2148 165.234C57.2148 165.663 57.2988 166.037 57.4668 166.354C57.6348 166.662 57.8634 166.9 58.1528 167.068C58.4421 167.236 58.7688 167.32 59.1328 167.32ZM69.2218 169V167.53L69.0818 167.208V164.576C69.0818 164.109 68.9371 163.745 68.6478 163.484C68.3678 163.223 67.9338 163.092 67.3458 163.092C66.9444 163.092 66.5478 163.157 66.1558 163.288C65.7731 163.409 65.4464 163.577 65.1758 163.792L64.3918 162.266C64.8024 161.977 65.2971 161.753 65.8758 161.594C66.4544 161.435 67.0424 161.356 67.6398 161.356C68.7878 161.356 69.6791 161.627 70.3138 162.168C70.9484 162.709 71.2658 163.554 71.2658 164.702V169H69.2218ZM66.9258 169.112C66.3378 169.112 65.8338 169.014 65.4138 168.818C64.9938 168.613 64.6718 168.337 64.4478 167.992C64.2238 167.647 64.1118 167.259 64.1118 166.83C64.1118 166.382 64.2191 165.99 64.4338 165.654C64.6578 165.318 65.0078 165.057 65.4838 164.87C65.9598 164.674 66.5804 164.576 67.3458 164.576H69.3478V165.85H67.5838C67.0704 165.85 66.7158 165.934 66.5198 166.102C66.3331 166.27 66.2398 166.48 66.2398 166.732C66.2398 167.012 66.3471 167.236 66.5618 167.404C66.7858 167.563 67.0891 167.642 67.4718 167.642C67.8358 167.642 68.1624 167.558 68.4518 167.39C68.7411 167.213 68.9511 166.956 69.0818 166.62L69.4178 167.628C69.2591 168.113 68.9698 168.482 68.5498 168.734C68.1298 168.986 67.5884 169.112 66.9258 169.112ZM77.8204 161.356C78.4177 161.356 78.9497 161.477 79.4164 161.72C79.8924 161.953 80.2657 162.317 80.5364 162.812C80.807 163.297 80.9424 163.923 80.9424 164.688V169H78.7584V165.024C78.7584 164.417 78.623 163.969 78.3524 163.68C78.091 163.391 77.7177 163.246 77.2324 163.246C76.887 163.246 76.5744 163.321 76.2944 163.47C76.0237 163.61 75.809 163.829 75.6504 164.128C75.501 164.427 75.4264 164.809 75.4264 165.276V169H73.2424V161.468H75.3284V163.554L74.9364 162.924C75.207 162.42 75.5944 162.033 76.0984 161.762C76.6024 161.491 77.1764 161.356 77.8204 161.356ZM87.0409 169V159.2H88.9169L93.0889 166.116H92.0949L96.1969 159.2H98.0589L98.0869 169H95.9589L95.9449 162.462H96.3369L93.0609 167.964H92.0389L88.6929 162.462H89.1689V169H87.0409ZM104.878 169V167.53L104.738 167.208V164.576C104.738 164.109 104.593 163.745 104.304 163.484C104.024 163.223 103.59 163.092 103.002 163.092C102.601 163.092 102.204 163.157 101.812 163.288C101.429 163.409 101.103 163.577 100.832 163.792L100.048 162.266C100.459 161.977 100.953 161.753 101.532 161.594C102.111 161.435 102.699 161.356 103.296 161.356C104.444 161.356 105.335 161.627 105.97 162.168C106.605 162.709 106.922 163.554 106.922 164.702V169H104.878ZM102.582 169.112C101.994 169.112 101.49 169.014 101.07 168.818C100.65 168.613 100.328 168.337 100.104 167.992C99.88 167.647 99.768 167.259 99.768 166.83C99.768 166.382 99.8753 165.99 100.09 165.654C100.314 165.318 100.664 165.057 101.14 164.87C101.616 164.674 102.237 164.576 103.002 164.576H105.004V165.85H103.24C102.727 165.85 102.372 165.934 102.176 166.102C101.989 166.27 101.896 166.48 101.896 166.732C101.896 167.012 102.003 167.236 102.218 167.404C102.442 167.563 102.745 167.642 103.128 167.642C103.492 167.642 103.819 167.558 104.108 167.39C104.397 167.213 104.607 166.956 104.738 166.62L105.074 167.628C104.915 168.113 104.626 168.482 104.206 168.734C103.786 168.986 103.245 169.112 102.582 169.112ZM111.433 169.112C110.789 169.112 110.168 169.037 109.571 168.888C108.983 168.729 108.516 168.533 108.171 168.3L108.899 166.732C109.244 166.947 109.65 167.124 110.117 167.264C110.593 167.395 111.059 167.46 111.517 167.46C112.021 167.46 112.375 167.399 112.581 167.278C112.795 167.157 112.903 166.989 112.903 166.774C112.903 166.597 112.819 166.466 112.651 166.382C112.492 166.289 112.277 166.219 112.007 166.172C111.736 166.125 111.437 166.079 111.111 166.032C110.793 165.985 110.471 165.925 110.145 165.85C109.818 165.766 109.519 165.645 109.249 165.486C108.978 165.327 108.759 165.113 108.591 164.842C108.432 164.571 108.353 164.221 108.353 163.792C108.353 163.316 108.488 162.896 108.759 162.532C109.039 162.168 109.44 161.883 109.963 161.678C110.485 161.463 111.111 161.356 111.839 161.356C112.352 161.356 112.875 161.412 113.407 161.524C113.939 161.636 114.382 161.799 114.737 162.014L114.009 163.568C113.645 163.353 113.276 163.209 112.903 163.134C112.539 163.05 112.184 163.008 111.839 163.008C111.353 163.008 110.999 163.073 110.775 163.204C110.551 163.335 110.439 163.503 110.439 163.708C110.439 163.895 110.518 164.035 110.677 164.128C110.845 164.221 111.064 164.296 111.335 164.352C111.605 164.408 111.899 164.459 112.217 164.506C112.543 164.543 112.87 164.604 113.197 164.688C113.523 164.772 113.817 164.893 114.079 165.052C114.349 165.201 114.569 165.411 114.737 165.682C114.905 165.943 114.989 166.289 114.989 166.718C114.989 167.185 114.849 167.6 114.569 167.964C114.289 168.319 113.883 168.599 113.351 168.804C112.828 169.009 112.189 169.112 111.433 169.112ZM120.956 169V167.53L120.816 167.208V164.576C120.816 164.109 120.671 163.745 120.382 163.484C120.102 163.223 119.668 163.092 119.08 163.092C118.679 163.092 118.282 163.157 117.89 163.288C117.507 163.409 117.181 163.577 116.91 163.792L116.126 162.266C116.537 161.977 117.031 161.753 117.61 161.594C118.189 161.435 118.777 161.356 119.374 161.356C120.522 161.356 121.413 161.627 122.048 162.168C122.683 162.709 123 163.554 123 164.702V169H120.956ZM118.66 169.112C118.072 169.112 117.568 169.014 117.148 168.818C116.728 168.613 116.406 168.337 116.182 167.992C115.958 167.647 115.846 167.259 115.846 166.83C115.846 166.382 115.953 165.99 116.168 165.654C116.392 165.318 116.742 165.057 117.218 164.87C117.694 164.674 118.315 164.576 119.08 164.576H121.082V165.85H119.318C118.805 165.85 118.45 165.934 118.254 166.102C118.067 166.27 117.974 166.48 117.974 166.732C117.974 167.012 118.081 167.236 118.296 167.404C118.52 167.563 118.823 167.642 119.206 167.642C119.57 167.642 119.897 167.558 120.186 167.39C120.475 167.213 120.685 166.956 120.816 166.62L121.152 167.628C120.993 168.113 120.704 168.482 120.284 168.734C119.864 168.986 119.323 169.112 118.66 169.112ZM129.096 169V159.2H133.338C134.215 159.2 134.971 159.345 135.606 159.634C136.24 159.914 136.73 160.32 137.076 160.852C137.421 161.384 137.594 162.019 137.594 162.756C137.594 163.484 137.421 164.114 137.076 164.646C136.73 165.178 136.24 165.589 135.606 165.878C134.971 166.158 134.215 166.298 133.338 166.298H130.356L131.364 165.276V169H129.096ZM131.364 165.528L130.356 164.45H133.212C133.912 164.45 134.434 164.301 134.78 164.002C135.125 163.703 135.298 163.288 135.298 162.756C135.298 162.215 135.125 161.795 134.78 161.496C134.434 161.197 133.912 161.048 133.212 161.048H130.356L131.364 159.97V165.528ZM144.11 169.168C143.335 169.168 142.616 169.042 141.954 168.79C141.3 168.538 140.731 168.183 140.245 167.726C139.77 167.269 139.396 166.732 139.126 166.116C138.864 165.5 138.734 164.828 138.734 164.1C138.734 163.372 138.864 162.7 139.126 162.084C139.396 161.468 139.774 160.931 140.26 160.474C140.745 160.017 141.314 159.662 141.968 159.41C142.621 159.158 143.33 159.032 144.096 159.032C144.87 159.032 145.579 159.158 146.224 159.41C146.877 159.662 147.442 160.017 147.918 160.474C148.403 160.931 148.781 161.468 149.052 162.084C149.322 162.691 149.458 163.363 149.458 164.1C149.458 164.828 149.322 165.505 149.052 166.13C148.781 166.746 148.403 167.283 147.918 167.74C147.442 168.188 146.877 168.538 146.224 168.79C145.579 169.042 144.875 169.168 144.11 169.168ZM144.096 167.236C144.534 167.236 144.936 167.161 145.3 167.012C145.673 166.863 146 166.648 146.28 166.368C146.56 166.088 146.774 165.757 146.924 165.374C147.082 164.991 147.162 164.567 147.162 164.1C147.162 163.633 147.082 163.209 146.924 162.826C146.774 162.443 146.56 162.112 146.28 161.832C146.009 161.552 145.687 161.337 145.314 161.188C144.94 161.039 144.534 160.964 144.096 160.964C143.657 160.964 143.251 161.039 142.878 161.188C142.514 161.337 142.192 161.552 141.912 161.832C141.632 162.112 141.412 162.443 141.254 162.826C141.104 163.209 141.03 163.633 141.03 164.1C141.03 164.557 141.104 164.982 141.254 165.374C141.412 165.757 141.627 166.088 141.898 166.368C142.178 166.648 142.504 166.863 142.878 167.012C143.251 167.161 143.657 167.236 144.096 167.236ZM39.1749 186V185.286L43.2489 181.296C43.6222 180.932 43.9022 180.615 44.0889 180.344C44.2756 180.064 44.4016 179.803 44.4669 179.56C44.5322 179.317 44.5649 179.089 44.5649 178.874C44.5649 178.305 44.3689 177.857 43.9769 177.53C43.5942 177.203 43.0249 177.04 42.2689 177.04C41.6902 177.04 41.1769 177.129 40.7289 177.306C40.2902 177.483 39.9122 177.759 39.5949 178.132L38.8809 177.516C39.2636 177.068 39.7536 176.723 40.3509 176.48C40.9482 176.237 41.6156 176.116 42.3529 176.116C43.0156 176.116 43.5896 176.223 44.0749 176.438C44.5602 176.643 44.9336 176.947 45.1949 177.348C45.4656 177.749 45.6009 178.221 45.6009 178.762C45.6009 179.079 45.5542 179.392 45.4609 179.7C45.3769 180.008 45.2182 180.335 44.9849 180.68C44.7609 181.016 44.4296 181.399 43.9909 181.828L40.2529 185.496L39.9729 185.104H46.0489V186H39.1749ZM49.0219 186V176.62L49.4699 177.096H46.7119V176.2H50.0299V186H49.0219ZM61.1886 186.084C60.4513 186.084 59.7653 185.963 59.1306 185.72C58.5053 185.468 57.9593 185.118 57.4926 184.67C57.0353 184.213 56.6759 183.685 56.4146 183.088C56.1626 182.481 56.0366 181.819 56.0366 181.1C56.0366 180.381 56.1626 179.723 56.4146 179.126C56.6759 178.519 57.0353 177.992 57.4926 177.544C57.9593 177.087 58.5053 176.737 59.1306 176.494C59.7559 176.242 60.4419 176.116 61.1886 176.116C61.9259 176.116 62.6073 176.242 63.2326 176.494C63.8579 176.737 64.3993 177.082 64.8566 177.53C65.3233 177.978 65.6826 178.505 65.9346 179.112C66.1959 179.719 66.3266 180.381 66.3266 181.1C66.3266 181.819 66.1959 182.481 65.9346 183.088C65.6826 183.695 65.3233 184.222 64.8566 184.67C64.3993 185.118 63.8579 185.468 63.2326 185.72C62.6073 185.963 61.9259 186.084 61.1886 186.084ZM61.1886 185.16C61.7766 185.16 62.3179 185.062 62.8126 184.866C63.3166 184.661 63.7506 184.376 64.1146 184.012C64.4879 183.639 64.7773 183.209 64.9826 182.724C65.1879 182.229 65.2906 181.688 65.2906 181.1C65.2906 180.512 65.1879 179.975 64.9826 179.49C64.7773 178.995 64.4879 178.566 64.1146 178.202C63.7506 177.829 63.3166 177.544 62.8126 177.348C62.3179 177.143 61.7766 177.04 61.1886 177.04C60.6006 177.04 60.0546 177.143 59.5506 177.348C59.0466 177.544 58.6079 177.829 58.2346 178.202C57.8706 178.566 57.5813 178.995 57.3666 179.49C57.1613 179.975 57.0586 180.512 57.0586 181.1C57.0586 181.679 57.1613 182.215 57.3666 182.71C57.5813 183.205 57.8706 183.639 58.2346 184.012C58.6079 184.376 59.0466 184.661 59.5506 184.866C60.0546 185.062 60.6006 185.16 61.1886 185.16ZM69.2227 184.096L69.2507 182.822L73.8287 178.65H75.0467L71.8127 181.744L71.2527 182.22L69.2227 184.096ZM68.4387 186V175.612H69.4327V186H68.4387ZM74.1367 186L71.0707 182.178L71.7147 181.408L75.3547 186H74.1367ZM79.1709 186.07C78.4803 186.07 77.9483 185.883 77.5749 185.51C77.2016 185.137 77.0149 184.609 77.0149 183.928V177.026H78.0089V183.872C78.0089 184.301 78.1163 184.633 78.3309 184.866C78.5549 185.099 78.8723 185.216 79.2829 185.216C79.7216 185.216 80.0856 185.09 80.3749 184.838L80.7249 185.552C80.5289 185.729 80.2909 185.86 80.0109 185.944C79.7403 186.028 79.4603 186.07 79.1709 186.07ZM75.6989 179.476V178.65H80.2489V179.476H75.6989ZM85.2707 186.07C84.5613 186.07 83.922 185.911 83.3527 185.594C82.7927 185.267 82.3493 184.824 82.0227 184.264C81.696 183.695 81.5327 183.046 81.5327 182.318C81.5327 181.581 81.696 180.932 82.0227 180.372C82.3493 179.812 82.7927 179.373 83.3527 179.056C83.9127 178.739 84.552 178.58 85.2707 178.58C85.9987 178.58 86.6427 178.739 87.2027 179.056C87.772 179.373 88.2153 179.812 88.5327 180.372C88.8593 180.932 89.0227 181.581 89.0227 182.318C89.0227 183.046 88.8593 183.695 88.5327 184.264C88.2153 184.824 87.772 185.267 87.2027 185.594C86.6333 185.911 85.9893 186.07 85.2707 186.07ZM85.2707 185.188C85.8027 185.188 86.274 185.071 86.6847 184.838C87.0953 184.595 87.4173 184.259 87.6507 183.83C87.8933 183.391 88.0147 182.887 88.0147 182.318C88.0147 181.739 87.8933 181.235 87.6507 180.806C87.4173 180.377 87.0953 180.045 86.6847 179.812C86.274 179.569 85.8073 179.448 85.2847 179.448C84.762 179.448 84.2953 179.569 83.8847 179.812C83.474 180.045 83.1473 180.377 82.9047 180.806C82.662 181.235 82.5407 181.739 82.5407 182.318C82.5407 182.887 82.662 183.391 82.9047 183.83C83.1473 184.259 83.474 184.595 83.8847 184.838C84.2953 185.071 84.7573 185.188 85.2707 185.188ZM94.846 186.07C94.202 186.07 93.6233 185.925 93.11 185.636C92.5967 185.337 92.1907 184.908 91.892 184.348C91.5933 183.788 91.444 183.111 91.444 182.318C91.444 181.515 91.5933 180.839 91.892 180.288C92.2 179.728 92.6107 179.303 93.124 179.014C93.6373 178.725 94.2113 178.58 94.846 178.58C95.546 178.58 96.1713 178.739 96.722 179.056C97.282 179.364 97.7207 179.798 98.038 180.358C98.3553 180.918 98.514 181.571 98.514 182.318C98.514 183.055 98.3553 183.709 98.038 184.278C97.7207 184.838 97.282 185.277 96.722 185.594C96.1713 185.911 95.546 186.07 94.846 186.07ZM91.052 186V175.612H92.046V180.82L91.906 182.304L92.004 183.788V186H91.052ZM94.776 185.188C95.2987 185.188 95.7653 185.071 96.176 184.838C96.5867 184.595 96.9133 184.259 97.156 183.83C97.3987 183.391 97.52 182.887 97.52 182.318C97.52 181.739 97.3987 181.235 97.156 180.806C96.9133 180.377 96.5867 180.045 96.176 179.812C95.7653 179.569 95.2987 179.448 94.776 179.448C94.2533 179.448 93.782 179.569 93.362 179.812C92.9513 180.045 92.6247 180.377 92.382 180.806C92.1487 181.235 92.032 181.739 92.032 182.318C92.032 182.887 92.1487 183.391 92.382 183.83C92.6247 184.259 92.9513 184.595 93.362 184.838C93.782 185.071 94.2533 185.188 94.776 185.188ZM103.662 186.07C102.897 186.07 102.225 185.911 101.646 185.594C101.068 185.267 100.615 184.824 100.288 184.264C99.9616 183.695 99.7983 183.046 99.7983 182.318C99.7983 181.59 99.9523 180.946 100.26 180.386C100.578 179.826 101.007 179.387 101.548 179.07C102.099 178.743 102.715 178.58 103.396 178.58C104.087 178.58 104.698 178.739 105.23 179.056C105.772 179.364 106.196 179.803 106.504 180.372C106.812 180.932 106.966 181.581 106.966 182.318C106.966 182.365 106.962 182.416 106.952 182.472C106.952 182.519 106.952 182.57 106.952 182.626H100.554V181.884H106.42L106.028 182.178C106.028 181.646 105.912 181.175 105.678 180.764C105.454 180.344 105.146 180.017 104.754 179.784C104.362 179.551 103.91 179.434 103.396 179.434C102.892 179.434 102.44 179.551 102.038 179.784C101.637 180.017 101.324 180.344 101.1 180.764C100.876 181.184 100.764 181.665 100.764 182.206V182.36C100.764 182.92 100.886 183.415 101.128 183.844C101.38 184.264 101.726 184.595 102.164 184.838C102.612 185.071 103.121 185.188 103.69 185.188C104.138 185.188 104.554 185.109 104.936 184.95C105.328 184.791 105.664 184.549 105.944 184.222L106.504 184.866C106.178 185.258 105.767 185.557 105.272 185.762C104.787 185.967 104.25 186.07 103.662 186.07ZM108.99 186V178.65H109.942V180.652L109.844 180.302C110.049 179.742 110.394 179.317 110.88 179.028C111.365 178.729 111.967 178.58 112.686 178.58V179.546C112.648 179.546 112.611 179.546 112.574 179.546C112.536 179.537 112.499 179.532 112.462 179.532C111.687 179.532 111.08 179.77 110.642 180.246C110.203 180.713 109.984 181.38 109.984 182.248V186H108.99ZM117.433 186V185.286L121.507 181.296C121.88 180.932 122.16 180.615 122.347 180.344C122.533 180.064 122.659 179.803 122.725 179.56C122.79 179.317 122.823 179.089 122.823 178.874C122.823 178.305 122.627 177.857 122.235 177.53C121.852 177.203 121.283 177.04 120.527 177.04C119.948 177.04 119.435 177.129 118.987 177.306C118.548 177.483 118.17 177.759 117.853 178.132L117.139 177.516C117.521 177.068 118.011 176.723 118.609 176.48C119.206 176.237 119.873 176.116 120.611 176.116C121.273 176.116 121.847 176.223 122.333 176.438C122.818 176.643 123.191 176.947 123.453 177.348C123.723 177.749 123.859 178.221 123.859 178.762C123.859 179.079 123.812 179.392 123.719 179.7C123.635 180.008 123.476 180.335 123.243 180.68C123.019 181.016 122.687 181.399 122.249 181.828L118.511 185.496L118.231 185.104H124.307V186H117.433ZM129.45 186.084C128.694 186.084 128.022 185.888 127.434 185.496C126.846 185.095 126.384 184.525 126.048 183.788C125.712 183.041 125.544 182.145 125.544 181.1C125.544 180.055 125.712 179.163 126.048 178.426C126.384 177.679 126.846 177.11 127.434 176.718C128.022 176.317 128.694 176.116 129.45 176.116C130.206 176.116 130.878 176.317 131.466 176.718C132.054 177.11 132.516 177.679 132.852 178.426C133.198 179.163 133.37 180.055 133.37 181.1C133.37 182.145 133.198 183.041 132.852 183.788C132.516 184.525 132.054 185.095 131.466 185.496C130.878 185.888 130.206 186.084 129.45 186.084ZM129.45 185.16C130.029 185.16 130.533 185.006 130.962 184.698C131.392 184.381 131.728 183.923 131.97 183.326C132.213 182.719 132.334 181.977 132.334 181.1C132.334 180.223 132.213 179.485 131.97 178.888C131.728 178.281 131.392 177.824 130.962 177.516C130.533 177.199 130.029 177.04 129.45 177.04C128.89 177.04 128.391 177.199 127.952 177.516C127.514 177.824 127.173 178.281 126.93 178.888C126.688 179.485 126.566 180.223 126.566 181.1C126.566 181.977 126.688 182.719 126.93 183.326C127.173 183.923 127.514 184.381 127.952 184.698C128.391 185.006 128.89 185.16 129.45 185.16ZM134.632 186V185.286L138.706 181.296C139.079 180.932 139.359 180.615 139.546 180.344C139.733 180.064 139.859 179.803 139.924 179.56C139.989 179.317 140.022 179.089 140.022 178.874C140.022 178.305 139.826 177.857 139.434 177.53C139.051 177.203 138.482 177.04 137.726 177.04C137.147 177.04 136.634 177.129 136.186 177.306C135.747 177.483 135.369 177.759 135.052 178.132L134.338 177.516C134.721 177.068 135.211 176.723 135.808 176.48C136.405 176.237 137.073 176.116 137.81 176.116C138.473 176.116 139.047 176.223 139.532 176.438C140.017 176.643 140.391 176.947 140.652 177.348C140.923 177.749 141.058 178.221 141.058 178.762C141.058 179.079 141.011 179.392 140.918 179.7C140.834 180.008 140.675 180.335 140.442 180.68C140.218 181.016 139.887 181.399 139.448 181.828L135.71 185.496L135.43 185.104H141.506V186H134.632ZM142.589 186V185.286L146.663 181.296C147.036 180.932 147.316 180.615 147.503 180.344C147.69 180.064 147.816 179.803 147.881 179.56C147.946 179.317 147.979 179.089 147.979 178.874C147.979 178.305 147.783 177.857 147.391 177.53C147.008 177.203 146.439 177.04 145.683 177.04C145.104 177.04 144.591 177.129 144.143 177.306C143.704 177.483 143.326 177.759 143.009 178.132L142.295 177.516C142.678 177.068 143.168 176.723 143.765 176.48C144.362 176.237 145.03 176.116 145.767 176.116C146.43 176.116 147.004 176.223 147.489 176.438C147.974 176.643 148.348 176.947 148.609 177.348C148.88 177.749 149.015 178.221 149.015 178.762C149.015 179.079 148.968 179.392 148.875 179.7C148.791 180.008 148.632 180.335 148.399 180.68C148.175 181.016 147.844 181.399 147.405 181.828L143.667 185.496L143.387 185.104H149.463V186H142.589Z" fill="white"/>
<rect x="217" y="47" width="9" height="260" rx="4.5" fill="#E62C20"/>
<path d="M293.162 72V62.2H297.404C298.281 62.2 299.037 62.3447 299.672 62.634C300.307 62.914 300.797 63.32 301.142 63.852C301.487 64.384 301.66 65.0187 301.66 65.756C301.66 66.484 301.487 67.114 301.142 67.646C300.797 68.178 300.307 68.5887 299.672 68.878C299.037 69.158 298.281 69.298 297.404 69.298H294.422L295.43 68.276V72H293.162ZM295.43 68.528L294.422 67.45H297.278C297.978 67.45 298.501 67.3007 298.846 67.002C299.191 66.7033 299.364 66.288 299.364 65.756C299.364 65.2147 299.191 64.7947 298.846 64.496C298.501 64.1973 297.978 64.048 297.278 64.048H294.422L295.43 62.97V68.528ZM306.85 72.112C305.991 72.112 305.235 71.944 304.582 71.608C303.938 71.272 303.438 70.8147 303.084 70.236C302.729 69.648 302.552 68.9807 302.552 68.234C302.552 67.478 302.724 66.8107 303.07 66.232C303.424 65.644 303.905 65.1867 304.512 64.86C305.118 64.524 305.804 64.356 306.57 64.356C307.307 64.356 307.97 64.5147 308.558 64.832C309.155 65.14 309.626 65.588 309.972 66.176C310.317 66.7547 310.49 67.45 310.49 68.262C310.49 68.346 310.485 68.444 310.476 68.556C310.466 68.6587 310.457 68.7567 310.448 68.85H304.33V67.576H309.3L308.46 67.954C308.46 67.562 308.38 67.2213 308.222 66.932C308.063 66.6427 307.844 66.4187 307.564 66.26C307.284 66.092 306.957 66.008 306.584 66.008C306.21 66.008 305.879 66.092 305.59 66.26C305.31 66.4187 305.09 66.6473 304.932 66.946C304.773 67.2353 304.694 67.5807 304.694 67.982V68.318C304.694 68.7287 304.782 69.0927 304.96 69.41C305.146 69.718 305.403 69.956 305.73 70.124C306.066 70.2827 306.458 70.362 306.906 70.362C307.307 70.362 307.657 70.3013 307.956 70.18C308.264 70.0587 308.544 69.8767 308.796 69.634L309.958 70.894C309.612 71.286 309.178 71.5893 308.656 71.804C308.133 72.0093 307.531 72.112 306.85 72.112ZM321.59 64.356C322.187 64.356 322.714 64.4773 323.172 64.72C323.638 64.9533 324.002 65.3173 324.264 65.812C324.534 66.2973 324.67 66.9227 324.67 67.688V72H322.486V68.024C322.486 67.4173 322.36 66.9693 322.108 66.68C321.856 66.3907 321.501 66.246 321.044 66.246C320.726 66.246 320.442 66.3207 320.19 66.47C319.938 66.61 319.742 66.8247 319.602 67.114C319.462 67.4033 319.392 67.772 319.392 68.22V72H317.208V68.024C317.208 67.4173 317.082 66.9693 316.83 66.68C316.587 66.3907 316.237 66.246 315.78 66.246C315.462 66.246 315.178 66.3207 314.926 66.47C314.674 66.61 314.478 66.8247 314.338 67.114C314.198 67.4033 314.128 67.772 314.128 68.22V72H311.944V64.468H314.03V66.526L313.638 65.924C313.899 65.4107 314.268 65.0233 314.744 64.762C315.229 64.4913 315.78 64.356 316.396 64.356C317.086 64.356 317.688 64.5333 318.202 64.888C318.724 65.2333 319.07 65.7653 319.238 66.484L318.468 66.274C318.72 65.686 319.121 65.2193 319.672 64.874C320.232 64.5287 320.871 64.356 321.59 64.356ZM331.079 72.112C330.416 72.112 329.847 71.972 329.371 71.692C328.895 71.412 328.531 70.9873 328.279 70.418C328.027 69.8393 327.901 69.1113 327.901 68.234C327.901 67.3473 328.032 66.6193 328.293 66.05C328.564 65.4807 328.937 65.056 329.413 64.776C329.889 64.496 330.444 64.356 331.079 64.356C331.788 64.356 332.423 64.5147 332.983 64.832C333.552 65.1493 334 65.5973 334.327 66.176C334.663 66.7547 334.831 67.4407 334.831 68.234C334.831 69.018 334.663 69.6993 334.327 70.278C334 70.8567 333.552 71.3093 332.983 71.636C332.423 71.9533 331.788 72.112 331.079 72.112ZM326.627 72V61.612H328.811V65.994L328.671 68.22L328.713 70.46V72H326.627ZM330.701 70.32C331.065 70.32 331.387 70.236 331.667 70.068C331.956 69.9 332.185 69.662 332.353 69.354C332.53 69.0367 332.619 68.6633 332.619 68.234C332.619 67.7953 332.53 67.422 332.353 67.114C332.185 66.806 331.956 66.568 331.667 66.4C331.387 66.232 331.065 66.148 330.701 66.148C330.337 66.148 330.01 66.232 329.721 66.4C329.432 66.568 329.203 66.806 329.035 67.114C328.867 67.422 328.783 67.7953 328.783 68.234C328.783 68.6633 328.867 69.0367 329.035 69.354C329.203 69.662 329.432 69.9 329.721 70.068C330.01 70.236 330.337 70.32 330.701 70.32ZM339.471 72.112C338.846 72.112 338.286 71.9907 337.791 71.748C337.306 71.5053 336.928 71.1367 336.657 70.642C336.386 70.138 336.251 69.4987 336.251 68.724V64.468H338.435V68.402C338.435 69.0273 338.566 69.4893 338.827 69.788C339.098 70.0773 339.476 70.222 339.961 70.222C340.297 70.222 340.596 70.152 340.857 70.012C341.118 69.8627 341.324 69.6387 341.473 69.34C341.622 69.032 341.697 68.6493 341.697 68.192V64.468H343.881V72H341.809V69.928L342.187 70.53C341.935 71.0527 341.562 71.4493 341.067 71.72C340.582 71.9813 340.05 72.112 339.471 72.112ZM347.71 70.46L347.766 67.8L351.28 64.468H353.884L350.51 67.898L349.376 68.822L347.71 70.46ZM345.904 72V61.612H348.088V72H345.904ZM351.518 72L348.97 68.836L350.342 67.142L354.164 72H351.518ZM359.63 72V70.53L359.49 70.208V67.576C359.49 67.1093 359.345 66.7453 359.056 66.484C358.776 66.2227 358.342 66.092 357.754 66.092C357.353 66.092 356.956 66.1573 356.564 66.288C356.181 66.4093 355.855 66.5773 355.584 66.792L354.8 65.266C355.211 64.9767 355.705 64.7527 356.284 64.594C356.863 64.4353 357.451 64.356 358.048 64.356C359.196 64.356 360.087 64.6267 360.722 65.168C361.357 65.7093 361.674 66.554 361.674 67.702V72H359.63ZM357.334 72.112C356.746 72.112 356.242 72.014 355.822 71.818C355.402 71.6127 355.08 71.3373 354.856 70.992C354.632 70.6467 354.52 70.2593 354.52 69.83C354.52 69.382 354.627 68.99 354.842 68.654C355.066 68.318 355.416 68.0567 355.892 67.87C356.368 67.674 356.989 67.576 357.754 67.576H359.756V68.85H357.992C357.479 68.85 357.124 68.934 356.928 69.102C356.741 69.27 356.648 69.48 356.648 69.732C356.648 70.012 356.755 70.236 356.97 70.404C357.194 70.5627 357.497 70.642 357.88 70.642C358.244 70.642 358.571 70.558 358.86 70.39C359.149 70.2127 359.359 69.956 359.49 69.62L359.826 70.628C359.667 71.1133 359.378 71.482 358.958 71.734C358.538 71.986 357.997 72.112 357.334 72.112ZM368.271 72V70.53L368.131 70.208V67.576C368.131 67.1093 367.986 66.7453 367.697 66.484C367.417 66.2227 366.983 66.092 366.395 66.092C365.993 66.092 365.597 66.1573 365.205 66.288C364.822 66.4093 364.495 66.5773 364.225 66.792L363.441 65.266C363.851 64.9767 364.346 64.7527 364.925 64.594C365.503 64.4353 366.091 64.356 366.689 64.356C367.837 64.356 368.728 64.6267 369.363 65.168C369.997 65.7093 370.315 66.554 370.315 67.702V72H368.271ZM365.975 72.112C365.387 72.112 364.883 72.014 364.463 71.818C364.043 71.6127 363.721 71.3373 363.497 70.992C363.273 70.6467 363.161 70.2593 363.161 69.83C363.161 69.382 363.268 68.99 363.483 68.654C363.707 68.318 364.057 68.0567 364.533 67.87C365.009 67.674 365.629 67.576 366.395 67.576H368.397V68.85H366.633C366.119 68.85 365.765 68.934 365.569 69.102C365.382 69.27 365.289 69.48 365.289 69.732C365.289 70.012 365.396 70.236 365.611 70.404C365.835 70.5627 366.138 70.642 366.521 70.642C366.885 70.642 367.211 70.558 367.501 70.39C367.79 70.2127 368 69.956 368.131 69.62L368.467 70.628C368.308 71.1133 368.019 71.482 367.599 71.734C367.179 71.986 366.637 72.112 365.975 72.112ZM376.869 64.356C377.467 64.356 377.999 64.4773 378.465 64.72C378.941 64.9533 379.315 65.3173 379.585 65.812C379.856 66.2973 379.991 66.9227 379.991 67.688V72H377.807V68.024C377.807 67.4173 377.672 66.9693 377.401 66.68C377.14 66.3907 376.767 66.246 376.281 66.246C375.936 66.246 375.623 66.3207 375.343 66.47C375.073 66.61 374.858 66.8293 374.699 67.128C374.55 67.4267 374.475 67.8093 374.475 68.276V72H372.291V64.468H374.377V66.554L373.985 65.924C374.256 65.42 374.643 65.0327 375.147 64.762C375.651 64.4913 376.225 64.356 376.869 64.356ZM386.09 72V62.2H387.966L392.138 69.116H391.144L395.246 62.2H397.108L397.136 72H395.008L394.994 65.462H395.386L392.11 70.964H391.088L387.742 65.462H388.218V72H386.09ZM403.927 72V70.53L403.787 70.208V67.576C403.787 67.1093 403.642 66.7453 403.353 66.484C403.073 66.2227 402.639 66.092 402.051 66.092C401.649 66.092 401.253 66.1573 400.861 66.288C400.478 66.4093 400.151 66.5773 399.881 66.792L399.097 65.266C399.507 64.9767 400.002 64.7527 400.581 64.594C401.159 64.4353 401.747 64.356 402.345 64.356C403.493 64.356 404.384 64.6267 405.019 65.168C405.653 65.7093 405.971 66.554 405.971 67.702V72H403.927ZM401.631 72.112C401.043 72.112 400.539 72.014 400.119 71.818C399.699 71.6127 399.377 71.3373 399.153 70.992C398.929 70.6467 398.817 70.2593 398.817 69.83C398.817 69.382 398.924 68.99 399.139 68.654C399.363 68.318 399.713 68.0567 400.189 67.87C400.665 67.674 401.285 67.576 402.051 67.576H404.053V68.85H402.289C401.775 68.85 401.421 68.934 401.225 69.102C401.038 69.27 400.945 69.48 400.945 69.732C400.945 70.012 401.052 70.236 401.267 70.404C401.491 70.5627 401.794 70.642 402.177 70.642C402.541 70.642 402.867 70.558 403.157 70.39C403.446 70.2127 403.656 69.956 403.787 69.62L404.123 70.628C403.964 71.1133 403.675 71.482 403.255 71.734C402.835 71.986 402.293 72.112 401.631 72.112ZM410.481 72.112C409.837 72.112 409.217 72.0373 408.619 71.888C408.031 71.7293 407.565 71.5333 407.219 71.3L407.947 69.732C408.293 69.9467 408.699 70.124 409.165 70.264C409.641 70.3947 410.108 70.46 410.565 70.46C411.069 70.46 411.424 70.3993 411.629 70.278C411.844 70.1567 411.951 69.9887 411.951 69.774C411.951 69.5967 411.867 69.466 411.699 69.382C411.541 69.2887 411.326 69.2187 411.055 69.172C410.785 69.1253 410.486 69.0787 410.159 69.032C409.842 68.9853 409.52 68.9247 409.193 68.85C408.867 68.766 408.568 68.6447 408.297 68.486C408.027 68.3273 407.807 68.1127 407.639 67.842C407.481 67.5713 407.401 67.2213 407.401 66.792C407.401 66.316 407.537 65.896 407.807 65.532C408.087 65.168 408.489 64.8833 409.011 64.678C409.534 64.4633 410.159 64.356 410.887 64.356C411.401 64.356 411.923 64.412 412.455 64.524C412.987 64.636 413.431 64.7993 413.785 65.014L413.057 66.568C412.693 66.3533 412.325 66.2087 411.951 66.134C411.587 66.05 411.233 66.008 410.887 66.008C410.402 66.008 410.047 66.0733 409.823 66.204C409.599 66.3347 409.487 66.5027 409.487 66.708C409.487 66.8947 409.567 67.0347 409.725 67.128C409.893 67.2213 410.113 67.296 410.383 67.352C410.654 67.408 410.948 67.4593 411.265 67.506C411.592 67.5433 411.919 67.604 412.245 67.688C412.572 67.772 412.866 67.8933 413.127 68.052C413.398 68.2013 413.617 68.4113 413.785 68.682C413.953 68.9433 414.037 69.2887 414.037 69.718C414.037 70.1847 413.897 70.6 413.617 70.964C413.337 71.3187 412.931 71.5987 412.399 71.804C411.877 72.0093 411.237 72.112 410.481 72.112ZM420.005 72V70.53L419.865 70.208V67.576C419.865 67.1093 419.72 66.7453 419.431 66.484C419.151 66.2227 418.717 66.092 418.129 66.092C417.728 66.092 417.331 66.1573 416.939 66.288C416.556 66.4093 416.23 66.5773 415.959 66.792L415.175 65.266C415.586 64.9767 416.08 64.7527 416.659 64.594C417.238 64.4353 417.826 64.356 418.423 64.356C419.571 64.356 420.462 64.6267 421.097 65.168C421.732 65.7093 422.049 66.554 422.049 67.702V72H420.005ZM417.709 72.112C417.121 72.112 416.617 72.014 416.197 71.818C415.777 71.6127 415.455 71.3373 415.231 70.992C415.007 70.6467 414.895 70.2593 414.895 69.83C414.895 69.382 415.002 68.99 415.217 68.654C415.441 68.318 415.791 68.0567 416.267 67.87C416.743 67.674 417.364 67.576 418.129 67.576H420.131V68.85H418.367C417.854 68.85 417.499 68.934 417.303 69.102C417.116 69.27 417.023 69.48 417.023 69.732C417.023 70.012 417.13 70.236 417.345 70.404C417.569 70.5627 417.872 70.642 418.255 70.642C418.619 70.642 418.946 70.558 419.235 70.39C419.524 70.2127 419.734 69.956 419.865 69.62L420.201 70.628C420.042 71.1133 419.753 71.482 419.333 71.734C418.913 71.986 418.372 72.112 417.709 72.112ZM428.144 72V62.2H432.386C433.264 62.2 434.02 62.3447 434.654 62.634C435.289 62.914 435.779 63.32 436.124 63.852C436.47 64.384 436.642 65.0187 436.642 65.756C436.642 66.484 436.47 67.114 436.124 67.646C435.779 68.178 435.289 68.5887 434.654 68.878C434.02 69.158 433.264 69.298 432.386 69.298H429.404L430.412 68.276V72H428.144ZM430.412 68.528L429.404 67.45H432.26C432.96 67.45 433.483 67.3007 433.828 67.002C434.174 66.7033 434.346 66.288 434.346 65.756C434.346 65.2147 434.174 64.7947 433.828 64.496C433.483 64.1973 432.96 64.048 432.26 64.048H429.404L430.412 62.97V68.528ZM443.158 72.168C442.384 72.168 441.665 72.042 441.002 71.79C440.349 71.538 439.78 71.1833 439.294 70.726C438.818 70.2687 438.445 69.732 438.174 69.116C437.913 68.5 437.782 67.828 437.782 67.1C437.782 66.372 437.913 65.7 438.174 65.084C438.445 64.468 438.823 63.9313 439.308 63.474C439.794 63.0167 440.363 62.662 441.016 62.41C441.67 62.158 442.379 62.032 443.144 62.032C443.919 62.032 444.628 62.158 445.272 62.41C445.926 62.662 446.49 63.0167 446.966 63.474C447.452 63.9313 447.83 64.468 448.1 65.084C448.371 65.6907 448.506 66.3627 448.506 67.1C448.506 67.828 448.371 68.5047 448.1 69.13C447.83 69.746 447.452 70.2827 446.966 70.74C446.49 71.188 445.926 71.538 445.272 71.79C444.628 72.042 443.924 72.168 443.158 72.168ZM443.144 70.236C443.583 70.236 443.984 70.1613 444.348 70.012C444.722 69.8627 445.048 69.648 445.328 69.368C445.608 69.088 445.823 68.7567 445.972 68.374C446.131 67.9913 446.21 67.5667 446.21 67.1C446.21 66.6333 446.131 66.2087 445.972 65.826C445.823 65.4433 445.608 65.112 445.328 64.832C445.058 64.552 444.736 64.3373 444.362 64.188C443.989 64.0387 443.583 63.964 443.144 63.964C442.706 63.964 442.3 64.0387 441.926 64.188C441.562 64.3373 441.24 64.552 440.96 64.832C440.68 65.112 440.461 65.4433 440.302 65.826C440.153 66.2087 440.078 66.6333 440.078 67.1C440.078 67.5573 440.153 67.982 440.302 68.374C440.461 68.7567 440.676 69.088 440.946 69.368C441.226 69.648 441.553 69.8627 441.926 70.012C442.3 70.1613 442.706 70.236 443.144 70.236ZM292.546 89V88.286L296.62 84.296C296.993 83.932 297.273 83.6147 297.46 83.344C297.647 83.064 297.773 82.8027 297.838 82.56C297.903 82.3173 297.936 82.0887 297.936 81.874C297.936 81.3047 297.74 80.8567 297.348 80.53C296.965 80.2033 296.396 80.04 295.64 80.04C295.061 80.04 294.548 80.1287 294.1 80.306C293.661 80.4833 293.283 80.7587 292.966 81.132L292.252 80.516C292.635 80.068 293.125 79.7227 293.722 79.48C294.319 79.2373 294.987 79.116 295.724 79.116C296.387 79.116 296.961 79.2233 297.446 79.438C297.931 79.6433 298.305 79.9467 298.566 80.348C298.837 80.7493 298.972 81.2207 298.972 81.762C298.972 82.0793 298.925 82.392 298.832 82.7C298.748 83.008 298.589 83.3347 298.356 83.68C298.132 84.016 297.801 84.3987 297.362 84.828L293.624 88.496L293.344 88.104H299.42V89H292.546ZM302.393 89V79.62L302.841 80.096H300.083V79.2H303.401V89H302.393ZM314.56 89.084C313.822 89.084 313.136 88.9627 312.502 88.72C311.876 88.468 311.33 88.118 310.864 87.67C310.406 87.2127 310.047 86.6853 309.786 86.088C309.534 85.4813 309.408 84.8187 309.408 84.1C309.408 83.3813 309.534 82.7233 309.786 82.126C310.047 81.5193 310.406 80.992 310.864 80.544C311.33 80.0867 311.876 79.7367 312.502 79.494C313.127 79.242 313.813 79.116 314.56 79.116C315.297 79.116 315.978 79.242 316.604 79.494C317.229 79.7367 317.77 80.082 318.228 80.53C318.694 80.978 319.054 81.5053 319.306 82.112C319.567 82.7187 319.698 83.3813 319.698 84.1C319.698 84.8187 319.567 85.4813 319.306 86.088C319.054 86.6947 318.694 87.222 318.228 87.67C317.77 88.118 317.229 88.468 316.604 88.72C315.978 88.9627 315.297 89.084 314.56 89.084ZM314.56 88.16C315.148 88.16 315.689 88.062 316.184 87.866C316.688 87.6607 317.122 87.376 317.486 87.012C317.859 86.6387 318.148 86.2093 318.354 85.724C318.559 85.2293 318.662 84.688 318.662 84.1C318.662 83.512 318.559 82.9753 318.354 82.49C318.148 81.9953 317.859 81.566 317.486 81.202C317.122 80.8287 316.688 80.544 316.184 80.348C315.689 80.1427 315.148 80.04 314.56 80.04C313.972 80.04 313.426 80.1427 312.922 80.348C312.418 80.544 311.979 80.8287 311.606 81.202C311.242 81.566 310.952 81.9953 310.738 82.49C310.532 82.9753 310.43 83.512 310.43 84.1C310.43 84.6787 310.532 85.2153 310.738 85.71C310.952 86.2047 311.242 86.6387 311.606 87.012C311.979 87.376 312.418 87.6607 312.922 87.866C313.426 88.062 313.972 88.16 314.56 88.16ZM322.594 87.096L322.622 85.822L327.2 81.65H328.418L325.184 84.744L324.624 85.22L322.594 87.096ZM321.81 89V78.612H322.804V89H321.81ZM327.508 89L324.442 85.178L325.086 84.408L328.726 89H327.508ZM332.542 89.07C331.851 89.07 331.319 88.8833 330.946 88.51C330.573 88.1367 330.386 87.6093 330.386 86.928V80.026H331.38V86.872C331.38 87.3013 331.487 87.6327 331.702 87.866C331.926 88.0993 332.243 88.216 332.654 88.216C333.093 88.216 333.457 88.09 333.746 87.838L334.096 88.552C333.9 88.7293 333.662 88.86 333.382 88.944C333.111 89.028 332.831 89.07 332.542 89.07ZM329.07 82.476V81.65H333.62V82.476H329.07ZM338.642 89.07C337.932 89.07 337.293 88.9113 336.724 88.594C336.164 88.2673 335.72 87.824 335.394 87.264C335.067 86.6947 334.904 86.046 334.904 85.318C334.904 84.5807 335.067 83.932 335.394 83.372C335.72 82.812 336.164 82.3733 336.724 82.056C337.284 81.7387 337.923 81.58 338.642 81.58C339.37 81.58 340.014 81.7387 340.574 82.056C341.143 82.3733 341.586 82.812 341.904 83.372C342.23 83.932 342.394 84.5807 342.394 85.318C342.394 86.046 342.23 86.6947 341.904 87.264C341.586 87.824 341.143 88.2673 340.574 88.594C340.004 88.9113 339.36 89.07 338.642 89.07ZM338.642 88.188C339.174 88.188 339.645 88.0713 340.056 87.838C340.466 87.5953 340.788 87.2593 341.022 86.83C341.264 86.3913 341.386 85.8873 341.386 85.318C341.386 84.7393 341.264 84.2353 341.022 83.806C340.788 83.3767 340.466 83.0453 340.056 82.812C339.645 82.5693 339.178 82.448 338.656 82.448C338.133 82.448 337.666 82.5693 337.256 82.812C336.845 83.0453 336.518 83.3767 336.276 83.806C336.033 84.2353 335.912 84.7393 335.912 85.318C335.912 85.8873 336.033 86.3913 336.276 86.83C336.518 87.2593 336.845 87.5953 337.256 87.838C337.666 88.0713 338.128 88.188 338.642 88.188ZM348.217 89.07C347.573 89.07 346.994 88.9253 346.481 88.636C345.968 88.3373 345.562 87.908 345.263 87.348C344.964 86.788 344.815 86.1113 344.815 85.318C344.815 84.5153 344.964 83.8387 345.263 83.288C345.571 82.728 345.982 82.3033 346.495 82.014C347.008 81.7247 347.582 81.58 348.217 81.58C348.917 81.58 349.542 81.7387 350.093 82.056C350.653 82.364 351.092 82.798 351.409 83.358C351.726 83.918 351.885 84.5713 351.885 85.318C351.885 86.0553 351.726 86.7087 351.409 87.278C351.092 87.838 350.653 88.2767 350.093 88.594C349.542 88.9113 348.917 89.07 348.217 89.07ZM344.423 89V78.612H345.417V83.82L345.277 85.304L345.375 86.788V89H344.423ZM348.147 88.188C348.67 88.188 349.136 88.0713 349.547 87.838C349.958 87.5953 350.284 87.2593 350.527 86.83C350.77 86.3913 350.891 85.8873 350.891 85.318C350.891 84.7393 350.77 84.2353 350.527 83.806C350.284 83.3767 349.958 83.0453 349.547 82.812C349.136 82.5693 348.67 82.448 348.147 82.448C347.624 82.448 347.153 82.5693 346.733 82.812C346.322 83.0453 345.996 83.3767 345.753 83.806C345.52 84.2353 345.403 84.7393 345.403 85.318C345.403 85.8873 345.52 86.3913 345.753 86.83C345.996 87.2593 346.322 87.5953 346.733 87.838C347.153 88.0713 347.624 88.188 348.147 88.188ZM357.033 89.07C356.268 89.07 355.596 88.9113 355.017 88.594C354.439 88.2673 353.986 87.824 353.659 87.264C353.333 86.6947 353.169 86.046 353.169 85.318C353.169 84.59 353.323 83.946 353.631 83.386C353.949 82.826 354.378 82.3873 354.919 82.07C355.47 81.7433 356.086 81.58 356.767 81.58C357.458 81.58 358.069 81.7387 358.601 82.056C359.143 82.364 359.567 82.8027 359.875 83.372C360.183 83.932 360.337 84.5807 360.337 85.318C360.337 85.3647 360.333 85.416 360.323 85.472C360.323 85.5187 360.323 85.57 360.323 85.626H353.925V84.884H359.791L359.399 85.178C359.399 84.646 359.283 84.1747 359.049 83.764C358.825 83.344 358.517 83.0173 358.125 82.784C357.733 82.5507 357.281 82.434 356.767 82.434C356.263 82.434 355.811 82.5507 355.409 82.784C355.008 83.0173 354.695 83.344 354.471 83.764C354.247 84.184 354.135 84.6647 354.135 85.206V85.36C354.135 85.92 354.257 86.4147 354.499 86.844C354.751 87.264 355.097 87.5953 355.535 87.838C355.983 88.0713 356.492 88.188 357.061 88.188C357.509 88.188 357.925 88.1087 358.307 87.95C358.699 87.7913 359.035 87.5487 359.315 87.222L359.875 87.866C359.549 88.258 359.138 88.5567 358.643 88.762C358.158 88.9673 357.621 89.07 357.033 89.07ZM362.361 89V81.65H363.313V83.652L363.215 83.302C363.42 82.742 363.765 82.3173 364.251 82.028C364.736 81.7293 365.338 81.58 366.057 81.58V82.546C366.019 82.546 365.982 82.546 365.945 82.546C365.907 82.5367 365.87 82.532 365.833 82.532C365.058 82.532 364.451 82.77 364.013 83.246C363.574 83.7127 363.355 84.38 363.355 85.248V89H362.361ZM370.804 89V88.286L374.878 84.296C375.251 83.932 375.531 83.6147 375.718 83.344C375.904 83.064 376.03 82.8027 376.096 82.56C376.161 82.3173 376.194 82.0887 376.194 81.874C376.194 81.3047 375.998 80.8567 375.606 80.53C375.223 80.2033 374.654 80.04 373.898 80.04C373.319 80.04 372.806 80.1287 372.358 80.306C371.919 80.4833 371.541 80.7587 371.224 81.132L370.51 80.516C370.892 80.068 371.382 79.7227 371.98 79.48C372.577 79.2373 373.244 79.116 373.982 79.116C374.644 79.116 375.218 79.2233 375.704 79.438C376.189 79.6433 376.562 79.9467 376.824 80.348C377.094 80.7493 377.23 81.2207 377.23 81.762C377.23 82.0793 377.183 82.392 377.09 82.7C377.006 83.008 376.847 83.3347 376.614 83.68C376.39 84.016 376.058 84.3987 375.62 84.828L371.882 88.496L371.602 88.104H377.678V89H370.804ZM382.822 89.084C382.066 89.084 381.394 88.888 380.806 88.496C380.218 88.0947 379.756 87.5253 379.42 86.788C379.084 86.0413 378.916 85.1453 378.916 84.1C378.916 83.0547 379.084 82.1633 379.42 81.426C379.756 80.6793 380.218 80.11 380.806 79.718C381.394 79.3167 382.066 79.116 382.822 79.116C383.578 79.116 384.25 79.3167 384.838 79.718C385.426 80.11 385.888 80.6793 386.224 81.426C386.569 82.1633 386.742 83.0547 386.742 84.1C386.742 85.1453 386.569 86.0413 386.224 86.788C385.888 87.5253 385.426 88.0947 384.838 88.496C384.25 88.888 383.578 89.084 382.822 89.084ZM382.822 88.16C383.4 88.16 383.904 88.006 384.334 87.698C384.763 87.3807 385.099 86.9233 385.342 86.326C385.584 85.7193 385.706 84.9773 385.706 84.1C385.706 83.2227 385.584 82.4853 385.342 81.888C385.099 81.2813 384.763 80.824 384.334 80.516C383.904 80.1987 383.4 80.04 382.822 80.04C382.262 80.04 381.762 80.1987 381.324 80.516C380.885 80.824 380.544 81.2813 380.302 81.888C380.059 82.4853 379.938 83.2227 379.938 84.1C379.938 84.9773 380.059 85.7193 380.302 86.326C380.544 86.9233 380.885 87.3807 381.324 87.698C381.762 88.006 382.262 88.16 382.822 88.16ZM388.003 89V88.286L392.077 84.296C392.45 83.932 392.73 83.6147 392.917 83.344C393.104 83.064 393.23 82.8027 393.295 82.56C393.36 82.3173 393.393 82.0887 393.393 81.874C393.393 81.3047 393.197 80.8567 392.805 80.53C392.422 80.2033 391.853 80.04 391.097 80.04C390.518 80.04 390.005 80.1287 389.557 80.306C389.118 80.4833 388.74 80.7587 388.423 81.132L387.709 80.516C388.092 80.068 388.582 79.7227 389.179 79.48C389.776 79.2373 390.444 79.116 391.181 79.116C391.844 79.116 392.418 79.2233 392.903 79.438C393.388 79.6433 393.762 79.9467 394.023 80.348C394.294 80.7493 394.429 81.2207 394.429 81.762C394.429 82.0793 394.382 82.392 394.289 82.7C394.205 83.008 394.046 83.3347 393.813 83.68C393.589 84.016 393.258 84.3987 392.819 84.828L389.081 88.496L388.801 88.104H394.877V89H388.003ZM395.96 89V88.286L400.034 84.296C400.407 83.932 400.687 83.6147 400.874 83.344C401.061 83.064 401.187 82.8027 401.252 82.56C401.317 82.3173 401.35 82.0887 401.35 81.874C401.35 81.3047 401.154 80.8567 400.762 80.53C400.379 80.2033 399.81 80.04 399.054 80.04C398.475 80.04 397.962 80.1287 397.514 80.306C397.075 80.4833 396.697 80.7587 396.38 81.132L395.666 80.516C396.049 80.068 396.539 79.7227 397.136 79.48C397.733 79.2373 398.401 79.116 399.138 79.116C399.801 79.116 400.375 79.2233 400.86 79.438C401.345 79.6433 401.719 79.9467 401.98 80.348C402.251 80.7493 402.386 81.2207 402.386 81.762C402.386 82.0793 402.339 82.392 402.246 82.7C402.162 83.008 402.003 83.3347 401.77 83.68C401.546 84.016 401.215 84.3987 400.776 84.828L397.038 88.496L396.758 88.104H402.834V89H395.96Z" fill="white"/>
<path d="M293.596 263V253.2H297.264C298.095 253.2 298.809 253.335 299.406 253.606C300.003 253.867 300.461 254.25 300.778 254.754C301.105 255.249 301.268 255.851 301.268 256.56C301.268 257.251 301.105 257.848 300.778 258.352C300.461 258.847 300.003 259.229 299.406 259.5C298.809 259.771 298.095 259.906 297.264 259.906H294.17L294.632 259.416V263H293.596ZM294.632 259.5L294.17 258.996H297.236C298.216 258.996 298.958 258.786 299.462 258.366C299.975 257.937 300.232 257.335 300.232 256.56C300.232 255.776 299.975 255.169 299.462 254.74C298.958 254.311 298.216 254.096 297.236 254.096H294.17L294.632 253.606V259.5ZM306.379 263.07C305.614 263.07 304.942 262.911 304.363 262.594C303.784 262.267 303.332 261.824 303.005 261.264C302.678 260.695 302.515 260.046 302.515 259.318C302.515 258.59 302.669 257.946 302.977 257.386C303.294 256.826 303.724 256.387 304.265 256.07C304.816 255.743 305.432 255.58 306.113 255.58C306.804 255.58 307.415 255.739 307.947 256.056C308.488 256.364 308.913 256.803 309.221 257.372C309.529 257.932 309.683 258.581 309.683 259.318C309.683 259.365 309.678 259.416 309.669 259.472C309.669 259.519 309.669 259.57 309.669 259.626H303.271V258.884H309.137L308.745 259.178C308.745 258.646 308.628 258.175 308.395 257.764C308.171 257.344 307.863 257.017 307.471 256.784C307.079 256.551 306.626 256.434 306.113 256.434C305.609 256.434 305.156 256.551 304.755 256.784C304.354 257.017 304.041 257.344 303.817 257.764C303.593 258.184 303.481 258.665 303.481 259.206V259.36C303.481 259.92 303.602 260.415 303.845 260.844C304.097 261.264 304.442 261.595 304.881 261.838C305.329 262.071 305.838 262.188 306.407 262.188C306.855 262.188 307.27 262.109 307.653 261.95C308.045 261.791 308.381 261.549 308.661 261.222L309.221 261.866C308.894 262.258 308.484 262.557 307.989 262.762C307.504 262.967 306.967 263.07 306.379 263.07ZM315.458 255.58C316.056 255.58 316.578 255.697 317.026 255.93C317.484 256.154 317.838 256.499 318.09 256.966C318.352 257.433 318.482 258.021 318.482 258.73V263H317.488V258.828C317.488 258.053 317.292 257.47 316.9 257.078C316.518 256.677 315.976 256.476 315.276 256.476C314.754 256.476 314.296 256.583 313.904 256.798C313.522 257.003 313.223 257.307 313.008 257.708C312.803 258.1 312.7 258.576 312.7 259.136V263H311.706V255.65H312.658V257.666L312.504 257.288C312.738 256.756 313.111 256.341 313.624 256.042C314.138 255.734 314.749 255.58 315.458 255.58ZM324.303 265.786C323.631 265.786 322.987 265.688 322.371 265.492C321.755 265.296 321.256 265.016 320.873 264.652L321.377 263.896C321.723 264.204 322.147 264.447 322.651 264.624C323.165 264.811 323.706 264.904 324.275 264.904C325.209 264.904 325.895 264.685 326.333 264.246C326.772 263.817 326.991 263.145 326.991 262.23V260.396L327.131 259.136L327.033 257.876V255.65H327.985V262.104C327.985 263.373 327.673 264.302 327.047 264.89C326.431 265.487 325.517 265.786 324.303 265.786ZM324.121 262.72C323.421 262.72 322.791 262.571 322.231 262.272C321.671 261.964 321.228 261.539 320.901 260.998C320.584 260.457 320.425 259.836 320.425 259.136C320.425 258.436 320.584 257.82 320.901 257.288C321.228 256.747 321.671 256.327 322.231 256.028C322.791 255.729 323.421 255.58 324.121 255.58C324.775 255.58 325.363 255.715 325.885 255.986C326.408 256.257 326.823 256.658 327.131 257.19C327.439 257.722 327.593 258.371 327.593 259.136C327.593 259.901 327.439 260.55 327.131 261.082C326.823 261.614 326.408 262.02 325.885 262.3C325.363 262.58 324.775 262.72 324.121 262.72ZM324.219 261.838C324.761 261.838 325.241 261.726 325.661 261.502C326.081 261.269 326.413 260.951 326.655 260.55C326.898 260.139 327.019 259.668 327.019 259.136C327.019 258.604 326.898 258.137 326.655 257.736C326.413 257.335 326.081 257.022 325.661 256.798C325.241 256.565 324.761 256.448 324.219 256.448C323.687 256.448 323.207 256.565 322.777 256.798C322.357 257.022 322.026 257.335 321.783 257.736C321.55 258.137 321.433 258.604 321.433 259.136C321.433 259.668 321.55 260.139 321.783 260.55C322.026 260.951 322.357 261.269 322.777 261.502C323.207 261.726 323.687 261.838 324.219 261.838ZM335.357 263V261.376L335.315 261.11V258.394C335.315 257.769 335.138 257.288 334.783 256.952C334.438 256.616 333.92 256.448 333.229 256.448C332.753 256.448 332.301 256.527 331.871 256.686C331.442 256.845 331.078 257.055 330.779 257.316L330.331 256.574C330.705 256.257 331.153 256.014 331.675 255.846C332.198 255.669 332.749 255.58 333.327 255.58C334.279 255.58 335.012 255.818 335.525 256.294C336.048 256.761 336.309 257.475 336.309 258.436V263H335.357ZM332.823 263.07C332.273 263.07 331.792 262.981 331.381 262.804C330.98 262.617 330.672 262.365 330.457 262.048C330.243 261.721 330.135 261.348 330.135 260.928C330.135 260.545 330.224 260.2 330.401 259.892C330.588 259.575 330.887 259.323 331.297 259.136C331.717 258.94 332.277 258.842 332.977 258.842H335.511V259.584H333.005C332.296 259.584 331.801 259.71 331.521 259.962C331.251 260.214 331.115 260.527 331.115 260.9C331.115 261.32 331.279 261.656 331.605 261.908C331.932 262.16 332.389 262.286 332.977 262.286C333.537 262.286 334.018 262.16 334.419 261.908C334.83 261.647 335.129 261.273 335.315 260.788L335.539 261.474C335.353 261.959 335.026 262.347 334.559 262.636C334.102 262.925 333.523 263.07 332.823 263.07ZM348.193 255.58C348.79 255.58 349.308 255.697 349.747 255.93C350.195 256.154 350.54 256.499 350.783 256.966C351.035 257.433 351.161 258.021 351.161 258.73V263H350.167V258.828C350.167 258.053 349.98 257.47 349.607 257.078C349.243 256.677 348.725 256.476 348.053 256.476C347.549 256.476 347.11 256.583 346.737 256.798C346.373 257.003 346.088 257.307 345.883 257.708C345.687 258.1 345.589 258.576 345.589 259.136V263H344.595V258.828C344.595 258.053 344.408 257.47 344.035 257.078C343.662 256.677 343.139 256.476 342.467 256.476C341.972 256.476 341.538 256.583 341.165 256.798C340.792 257.003 340.502 257.307 340.297 257.708C340.101 258.1 340.003 258.576 340.003 259.136V263H339.009V255.65H339.961V257.638L339.807 257.288C340.031 256.756 340.39 256.341 340.885 256.042C341.389 255.734 341.982 255.58 342.663 255.58C343.382 255.58 343.993 255.762 344.497 256.126C345.001 256.481 345.328 257.017 345.477 257.736L345.085 257.582C345.3 256.985 345.678 256.504 346.219 256.14C346.77 255.767 347.428 255.58 348.193 255.58ZM357.651 263.07C357.007 263.07 356.428 262.925 355.915 262.636C355.401 262.337 354.995 261.908 354.697 261.348C354.398 260.788 354.249 260.111 354.249 259.318C354.249 258.515 354.398 257.839 354.697 257.288C355.005 256.728 355.415 256.303 355.929 256.014C356.442 255.725 357.016 255.58 357.651 255.58C358.351 255.58 358.976 255.739 359.527 256.056C360.087 256.364 360.525 256.798 360.843 257.358C361.16 257.918 361.319 258.571 361.319 259.318C361.319 260.055 361.16 260.709 360.843 261.278C360.525 261.838 360.087 262.277 359.527 262.594C358.976 262.911 358.351 263.07 357.651 263.07ZM353.857 263V252.612H354.851V257.82L354.711 259.304L354.809 260.788V263H353.857ZM357.581 262.188C358.103 262.188 358.57 262.071 358.981 261.838C359.391 261.595 359.718 261.259 359.961 260.83C360.203 260.391 360.325 259.887 360.325 259.318C360.325 258.739 360.203 258.235 359.961 257.806C359.718 257.377 359.391 257.045 358.981 256.812C358.57 256.569 358.103 256.448 357.581 256.448C357.058 256.448 356.587 256.569 356.167 256.812C355.756 257.045 355.429 257.377 355.187 257.806C354.953 258.235 354.837 258.739 354.837 259.318C354.837 259.887 354.953 260.391 355.187 260.83C355.429 261.259 355.756 261.595 356.167 261.838C356.587 262.071 357.058 262.188 357.581 262.188ZM363.345 263V255.65H364.339V263H363.345ZM363.849 254.026C363.644 254.026 363.471 253.956 363.331 253.816C363.191 253.676 363.121 253.508 363.121 253.312C363.121 253.116 363.191 252.953 363.331 252.822C363.471 252.682 363.644 252.612 363.849 252.612C364.054 252.612 364.227 252.677 364.367 252.808C364.507 252.939 364.577 253.102 364.577 253.298C364.577 253.503 364.507 253.676 364.367 253.816C364.236 253.956 364.064 254.026 363.849 254.026ZM367.105 263V252.612H368.099V263H367.105ZM375.471 263V261.376L375.429 261.11V258.394C375.429 257.769 375.251 257.288 374.897 256.952C374.551 256.616 374.033 256.448 373.343 256.448C372.867 256.448 372.414 256.527 371.985 256.686C371.555 256.845 371.191 257.055 370.893 257.316L370.445 256.574C370.818 256.257 371.266 256.014 371.789 255.846C372.311 255.669 372.862 255.58 373.441 255.58C374.393 255.58 375.125 255.818 375.639 256.294C376.161 256.761 376.423 257.475 376.423 258.436V263H375.471ZM372.937 263.07C372.386 263.07 371.905 262.981 371.495 262.804C371.093 262.617 370.785 262.365 370.571 262.048C370.356 261.721 370.249 261.348 370.249 260.928C370.249 260.545 370.337 260.2 370.515 259.892C370.701 259.575 371 259.323 371.411 259.136C371.831 258.94 372.391 258.842 373.091 258.842H375.625V259.584H373.119C372.409 259.584 371.915 259.71 371.635 259.962C371.364 260.214 371.229 260.527 371.229 260.9C371.229 261.32 371.392 261.656 371.719 261.908C372.045 262.16 372.503 262.286 373.091 262.286C373.651 262.286 374.131 262.16 374.533 261.908C374.943 261.647 375.242 261.273 375.429 260.788L375.653 261.474C375.466 261.959 375.139 262.347 374.673 262.636C374.215 262.925 373.637 263.07 372.937 263.07ZM382.874 255.58C383.472 255.58 383.994 255.697 384.442 255.93C384.9 256.154 385.254 256.499 385.506 256.966C385.768 257.433 385.898 258.021 385.898 258.73V263H384.904V258.828C384.904 258.053 384.708 257.47 384.316 257.078C383.934 256.677 383.392 256.476 382.692 256.476C382.17 256.476 381.712 256.583 381.32 256.798C380.938 257.003 380.639 257.307 380.424 257.708C380.219 258.1 380.116 258.576 380.116 259.136V263H379.122V255.65H380.074V257.666L379.92 257.288C380.154 256.756 380.527 256.341 381.04 256.042C381.554 255.734 382.165 255.58 382.874 255.58ZM399.705 263.07C399.061 263.07 398.483 262.925 397.969 262.636C397.456 262.337 397.05 261.908 396.751 261.348C396.453 260.788 396.303 260.111 396.303 259.318C396.303 258.515 396.453 257.839 396.751 257.288C397.059 256.728 397.47 256.303 397.983 256.014C398.497 255.725 399.071 255.58 399.705 255.58C400.405 255.58 401.031 255.739 401.581 256.056C402.141 256.364 402.58 256.798 402.897 257.358C403.215 257.918 403.373 258.571 403.373 259.318C403.373 260.055 403.215 260.709 402.897 261.278C402.58 261.838 402.141 262.277 401.581 262.594C401.031 262.911 400.405 263.07 399.705 263.07ZM395.911 263V252.612H396.905V257.82L396.765 259.304L396.863 260.788V263H395.911ZM399.635 262.188C400.158 262.188 400.625 262.071 401.035 261.838C401.446 261.595 401.773 261.259 402.015 260.83C402.258 260.391 402.379 259.887 402.379 259.318C402.379 258.739 402.258 258.235 402.015 257.806C401.773 257.377 401.446 257.045 401.035 256.812C400.625 256.569 400.158 256.448 399.635 256.448C399.113 256.448 398.641 256.569 398.221 256.812C397.811 257.045 397.484 257.377 397.241 257.806C397.008 258.235 396.891 258.739 396.891 259.318C396.891 259.887 397.008 260.391 397.241 260.83C397.484 261.259 397.811 261.595 398.221 261.838C398.641 262.071 399.113 262.188 399.635 262.188ZM409.965 263V261.376L409.923 261.11V258.394C409.923 257.769 409.745 257.288 409.391 256.952C409.045 256.616 408.527 256.448 407.837 256.448C407.361 256.448 406.908 256.527 406.479 256.686C406.049 256.845 405.685 257.055 405.387 257.316L404.939 256.574C405.312 256.257 405.76 256.014 406.283 255.846C406.805 255.669 407.356 255.58 407.935 255.58C408.887 255.58 409.619 255.818 410.133 256.294C410.655 256.761 410.917 257.475 410.917 258.436V263H409.965ZM407.431 263.07C406.88 263.07 406.399 262.981 405.989 262.804C405.587 262.617 405.279 262.365 405.065 262.048C404.85 261.721 404.743 261.348 404.743 260.928C404.743 260.545 404.831 260.2 405.009 259.892C405.195 259.575 405.494 259.323 405.905 259.136C406.325 258.94 406.885 258.842 407.585 258.842H410.119V259.584H407.613C406.903 259.584 406.409 259.71 406.129 259.962C405.858 260.214 405.723 260.527 405.723 260.9C405.723 261.32 405.886 261.656 406.213 261.908C406.539 262.16 406.997 262.286 407.585 262.286C408.145 262.286 408.625 262.16 409.027 261.908C409.437 261.647 409.736 261.273 409.923 260.788L410.147 261.474C409.96 261.959 409.633 262.347 409.167 262.636C408.709 262.925 408.131 263.07 407.431 263.07ZM413.616 263V255.65H414.568V257.652L414.47 257.302C414.676 256.742 415.021 256.317 415.506 256.028C415.992 255.729 416.594 255.58 417.312 255.58V256.546C417.275 256.546 417.238 256.546 417.2 256.546C417.163 256.537 417.126 256.532 417.088 256.532C416.314 256.532 415.707 256.77 415.268 257.246C414.83 257.713 414.61 258.38 414.61 259.248V263H413.616ZM423.185 263V261.376L423.143 261.11V258.394C423.143 257.769 422.966 257.288 422.611 256.952C422.266 256.616 421.748 256.448 421.057 256.448C420.581 256.448 420.129 256.527 419.699 256.686C419.27 256.845 418.906 257.055 418.607 257.316L418.159 256.574C418.533 256.257 418.981 256.014 419.503 255.846C420.026 255.669 420.577 255.58 421.155 255.58C422.107 255.58 422.84 255.818 423.353 256.294C423.876 256.761 424.137 257.475 424.137 258.436V263H423.185ZM420.651 263.07C420.101 263.07 419.62 262.981 419.209 262.804C418.808 262.617 418.5 262.365 418.285 262.048C418.071 261.721 417.963 261.348 417.963 260.928C417.963 260.545 418.052 260.2 418.229 259.892C418.416 259.575 418.715 259.323 419.125 259.136C419.545 258.94 420.105 258.842 420.805 258.842H423.339V259.584H420.833C420.124 259.584 419.629 259.71 419.349 259.962C419.079 260.214 418.943 260.527 418.943 260.9C418.943 261.32 419.107 261.656 419.433 261.908C419.76 262.16 420.217 262.286 420.805 262.286C421.365 262.286 421.846 262.16 422.247 261.908C422.658 261.647 422.957 261.273 423.143 260.788L423.367 261.474C423.181 261.959 422.854 262.347 422.387 262.636C421.93 262.925 421.351 263.07 420.651 263.07ZM430.589 255.58C431.187 255.58 431.709 255.697 432.157 255.93C432.615 256.154 432.969 256.499 433.221 256.966C433.483 257.433 433.613 258.021 433.613 258.73V263H432.619V258.828C432.619 258.053 432.423 257.47 432.031 257.078C431.649 256.677 431.107 256.476 430.407 256.476C429.885 256.476 429.427 256.583 429.035 256.798C428.653 257.003 428.354 257.307 428.139 257.708C427.934 258.1 427.831 258.576 427.831 259.136V263H426.837V255.65H427.789V257.666L427.635 257.288C427.869 256.756 428.242 256.341 428.755 256.042C429.269 255.734 429.88 255.58 430.589 255.58ZM439.434 265.786C438.762 265.786 438.118 265.688 437.502 265.492C436.886 265.296 436.387 265.016 436.004 264.652L436.508 263.896C436.853 264.204 437.278 264.447 437.782 264.624C438.295 264.811 438.837 264.904 439.406 264.904C440.339 264.904 441.025 264.685 441.464 264.246C441.903 263.817 442.122 263.145 442.122 262.23V260.396L442.262 259.136L442.164 257.876V255.65H443.116V262.104C443.116 263.373 442.803 264.302 442.178 264.89C441.562 265.487 440.647 265.786 439.434 265.786ZM439.252 262.72C438.552 262.72 437.922 262.571 437.362 262.272C436.802 261.964 436.359 261.539 436.032 260.998C435.715 260.457 435.556 259.836 435.556 259.136C435.556 258.436 435.715 257.82 436.032 257.288C436.359 256.747 436.802 256.327 437.362 256.028C437.922 255.729 438.552 255.58 439.252 255.58C439.905 255.58 440.493 255.715 441.016 255.986C441.539 256.257 441.954 256.658 442.262 257.19C442.57 257.722 442.724 258.371 442.724 259.136C442.724 259.901 442.57 260.55 442.262 261.082C441.954 261.614 441.539 262.02 441.016 262.3C440.493 262.58 439.905 262.72 439.252 262.72ZM439.35 261.838C439.891 261.838 440.372 261.726 440.792 261.502C441.212 261.269 441.543 260.951 441.786 260.55C442.029 260.139 442.15 259.668 442.15 259.136C442.15 258.604 442.029 258.137 441.786 257.736C441.543 257.335 441.212 257.022 440.792 256.798C440.372 256.565 439.891 256.448 439.35 256.448C438.818 256.448 438.337 256.565 437.908 256.798C437.488 257.022 437.157 257.335 436.914 257.736C436.681 258.137 436.564 258.604 436.564 259.136C436.564 259.668 436.681 260.139 436.914 260.55C437.157 260.951 437.488 261.269 437.908 261.502C438.337 261.726 438.818 261.838 439.35 261.838ZM449.546 263V255.65H450.498V257.652L450.4 257.302C450.605 256.742 450.951 256.317 451.436 256.028C451.921 255.729 452.523 255.58 453.242 255.58V256.546C453.205 256.546 453.167 256.546 453.13 256.546C453.093 256.537 453.055 256.532 453.018 256.532C452.243 256.532 451.637 256.77 451.198 257.246C450.759 257.713 450.54 258.38 450.54 259.248V263H449.546ZM458.11 263.07C457.344 263.07 456.672 262.911 456.094 262.594C455.515 262.267 455.062 261.824 454.736 261.264C454.409 260.695 454.246 260.046 454.246 259.318C454.246 258.59 454.4 257.946 454.708 257.386C455.025 256.826 455.454 256.387 455.996 256.07C456.546 255.743 457.162 255.58 457.844 255.58C458.534 255.58 459.146 255.739 459.678 256.056C460.219 256.364 460.644 256.803 460.952 257.372C461.26 257.932 461.414 258.581 461.414 259.318C461.414 259.365 461.409 259.416 461.4 259.472C461.4 259.519 461.4 259.57 461.4 259.626H455.002V258.884H460.868L460.476 259.178C460.476 258.646 460.359 258.175 460.126 257.764C459.902 257.344 459.594 257.017 459.202 256.784C458.81 256.551 458.357 256.434 457.844 256.434C457.34 256.434 456.887 256.551 456.486 256.784C456.084 257.017 455.772 257.344 455.548 257.764C455.324 258.184 455.212 258.665 455.212 259.206V259.36C455.212 259.92 455.333 260.415 455.576 260.844C455.828 261.264 456.173 261.595 456.612 261.838C457.06 262.071 457.568 262.188 458.138 262.188C458.586 262.188 459.001 262.109 459.384 261.95C459.776 261.791 460.112 261.549 460.392 261.222L460.952 261.866C460.625 262.258 460.214 262.557 459.72 262.762C459.234 262.967 458.698 263.07 458.11 263.07ZM467.838 263V261.376L467.796 261.11V258.394C467.796 257.769 467.618 257.288 467.264 256.952C466.918 256.616 466.4 256.448 465.71 256.448C465.234 256.448 464.781 256.527 464.352 256.686C463.922 256.845 463.558 257.055 463.26 257.316L462.812 256.574C463.185 256.257 463.633 256.014 464.156 255.846C464.678 255.669 465.229 255.58 465.808 255.58C466.76 255.58 467.492 255.818 468.006 256.294C468.528 256.761 468.79 257.475 468.79 258.436V263H467.838ZM465.304 263.07C464.753 263.07 464.272 262.981 463.862 262.804C463.46 262.617 463.152 262.365 462.938 262.048C462.723 261.721 462.616 261.348 462.616 260.928C462.616 260.545 462.704 260.2 462.882 259.892C463.068 259.575 463.367 259.323 463.778 259.136C464.198 258.94 464.758 258.842 465.458 258.842H467.992V259.584H465.486C464.776 259.584 464.282 259.71 464.002 259.962C463.731 260.214 463.596 260.527 463.596 260.9C463.596 261.32 463.759 261.656 464.086 261.908C464.412 262.16 464.87 262.286 465.458 262.286C466.018 262.286 466.498 262.16 466.9 261.908C467.31 261.647 467.609 261.273 467.796 260.788L468.02 261.474C467.833 261.959 467.506 262.347 467.04 262.636C466.582 262.925 466.004 263.07 465.304 263.07ZM474.416 263.07C473.716 263.07 473.086 262.911 472.526 262.594C471.975 262.277 471.541 261.838 471.224 261.278C470.906 260.709 470.748 260.055 470.748 259.318C470.748 258.571 470.906 257.918 471.224 257.358C471.541 256.798 471.975 256.364 472.526 256.056C473.086 255.739 473.716 255.58 474.416 255.58C475.06 255.58 475.634 255.725 476.138 256.014C476.651 256.303 477.057 256.728 477.356 257.288C477.664 257.839 477.818 258.515 477.818 259.318C477.818 260.111 477.668 260.788 477.37 261.348C477.071 261.908 476.665 262.337 476.152 262.636C475.648 262.925 475.069 263.07 474.416 263.07ZM474.486 262.188C475.008 262.188 475.475 262.071 475.886 261.838C476.306 261.595 476.632 261.259 476.866 260.83C477.108 260.391 477.23 259.887 477.23 259.318C477.23 258.739 477.108 258.235 476.866 257.806C476.632 257.377 476.306 257.045 475.886 256.812C475.475 256.569 475.008 256.448 474.486 256.448C473.972 256.448 473.51 256.569 473.1 256.812C472.689 257.045 472.362 257.377 472.12 257.806C471.877 258.235 471.756 258.739 471.756 259.318C471.756 259.887 471.877 260.391 472.12 260.83C472.362 261.259 472.689 261.595 473.1 261.838C473.51 262.071 473.972 262.188 474.486 262.188ZM477.258 263V260.788L477.356 259.304L477.216 257.82V252.612H478.21V263H477.258ZM481.034 265.786C480.688 265.786 480.357 265.73 480.04 265.618C479.732 265.506 479.466 265.338 479.242 265.114L479.704 264.372C479.89 264.549 480.091 264.685 480.306 264.778C480.53 264.881 480.777 264.932 481.048 264.932C481.374 264.932 481.654 264.839 481.888 264.652C482.13 264.475 482.359 264.157 482.574 263.7L483.05 262.622L483.162 262.468L486.186 255.65H487.166L483.484 263.882C483.278 264.358 483.05 264.736 482.798 265.016C482.555 265.296 482.289 265.492 482 265.604C481.71 265.725 481.388 265.786 481.034 265.786ZM482.994 263.21L479.606 255.65H480.642L483.638 262.398L482.994 263.21ZM292.546 280V279.286L296.62 275.296C296.993 274.932 297.273 274.615 297.46 274.344C297.647 274.064 297.773 273.803 297.838 273.56C297.903 273.317 297.936 273.089 297.936 272.874C297.936 272.305 297.74 271.857 297.348 271.53C296.965 271.203 296.396 271.04 295.64 271.04C295.061 271.04 294.548 271.129 294.1 271.306C293.661 271.483 293.283 271.759 292.966 272.132L292.252 271.516C292.635 271.068 293.125 270.723 293.722 270.48C294.319 270.237 294.987 270.116 295.724 270.116C296.387 270.116 296.961 270.223 297.446 270.438C297.931 270.643 298.305 270.947 298.566 271.348C298.837 271.749 298.972 272.221 298.972 272.762C298.972 273.079 298.925 273.392 298.832 273.7C298.748 274.008 298.589 274.335 298.356 274.68C298.132 275.016 297.801 275.399 297.362 275.828L293.624 279.496L293.344 279.104H299.42V280H292.546ZM302.393 280V270.62L302.841 271.096H300.083V270.2H303.401V280H302.393ZM314.56 280.084C313.822 280.084 313.136 279.963 312.502 279.72C311.876 279.468 311.33 279.118 310.864 278.67C310.406 278.213 310.047 277.685 309.786 277.088C309.534 276.481 309.408 275.819 309.408 275.1C309.408 274.381 309.534 273.723 309.786 273.126C310.047 272.519 310.406 271.992 310.864 271.544C311.33 271.087 311.876 270.737 312.502 270.494C313.127 270.242 313.813 270.116 314.56 270.116C315.297 270.116 315.978 270.242 316.604 270.494C317.229 270.737 317.77 271.082 318.228 271.53C318.694 271.978 319.054 272.505 319.306 273.112C319.567 273.719 319.698 274.381 319.698 275.1C319.698 275.819 319.567 276.481 319.306 277.088C319.054 277.695 318.694 278.222 318.228 278.67C317.77 279.118 317.229 279.468 316.604 279.72C315.978 279.963 315.297 280.084 314.56 280.084ZM314.56 279.16C315.148 279.16 315.689 279.062 316.184 278.866C316.688 278.661 317.122 278.376 317.486 278.012C317.859 277.639 318.148 277.209 318.354 276.724C318.559 276.229 318.662 275.688 318.662 275.1C318.662 274.512 318.559 273.975 318.354 273.49C318.148 272.995 317.859 272.566 317.486 272.202C317.122 271.829 316.688 271.544 316.184 271.348C315.689 271.143 315.148 271.04 314.56 271.04C313.972 271.04 313.426 271.143 312.922 271.348C312.418 271.544 311.979 271.829 311.606 272.202C311.242 272.566 310.952 272.995 310.738 273.49C310.532 273.975 310.43 274.512 310.43 275.1C310.43 275.679 310.532 276.215 310.738 276.71C310.952 277.205 311.242 277.639 311.606 278.012C311.979 278.376 312.418 278.661 312.922 278.866C313.426 279.062 313.972 279.16 314.56 279.16ZM322.594 278.096L322.622 276.822L327.2 272.65H328.418L325.184 275.744L324.624 276.22L322.594 278.096ZM321.81 280V269.612H322.804V280H321.81ZM327.508 280L324.442 276.178L325.086 275.408L328.726 280H327.508ZM332.542 280.07C331.851 280.07 331.319 279.883 330.946 279.51C330.573 279.137 330.386 278.609 330.386 277.928V271.026H331.38V277.872C331.38 278.301 331.487 278.633 331.702 278.866C331.926 279.099 332.243 279.216 332.654 279.216C333.093 279.216 333.457 279.09 333.746 278.838L334.096 279.552C333.9 279.729 333.662 279.86 333.382 279.944C333.111 280.028 332.831 280.07 332.542 280.07ZM329.07 273.476V272.65H333.62V273.476H329.07ZM338.642 280.07C337.932 280.07 337.293 279.911 336.724 279.594C336.164 279.267 335.72 278.824 335.394 278.264C335.067 277.695 334.904 277.046 334.904 276.318C334.904 275.581 335.067 274.932 335.394 274.372C335.72 273.812 336.164 273.373 336.724 273.056C337.284 272.739 337.923 272.58 338.642 272.58C339.37 272.58 340.014 272.739 340.574 273.056C341.143 273.373 341.586 273.812 341.904 274.372C342.23 274.932 342.394 275.581 342.394 276.318C342.394 277.046 342.23 277.695 341.904 278.264C341.586 278.824 341.143 279.267 340.574 279.594C340.004 279.911 339.36 280.07 338.642 280.07ZM338.642 279.188C339.174 279.188 339.645 279.071 340.056 278.838C340.466 278.595 340.788 278.259 341.022 277.83C341.264 277.391 341.386 276.887 341.386 276.318C341.386 275.739 341.264 275.235 341.022 274.806C340.788 274.377 340.466 274.045 340.056 273.812C339.645 273.569 339.178 273.448 338.656 273.448C338.133 273.448 337.666 273.569 337.256 273.812C336.845 274.045 336.518 274.377 336.276 274.806C336.033 275.235 335.912 275.739 335.912 276.318C335.912 276.887 336.033 277.391 336.276 277.83C336.518 278.259 336.845 278.595 337.256 278.838C337.666 279.071 338.128 279.188 338.642 279.188ZM348.217 280.07C347.573 280.07 346.994 279.925 346.481 279.636C345.968 279.337 345.562 278.908 345.263 278.348C344.964 277.788 344.815 277.111 344.815 276.318C344.815 275.515 344.964 274.839 345.263 274.288C345.571 273.728 345.982 273.303 346.495 273.014C347.008 272.725 347.582 272.58 348.217 272.58C348.917 272.58 349.542 272.739 350.093 273.056C350.653 273.364 351.092 273.798 351.409 274.358C351.726 274.918 351.885 275.571 351.885 276.318C351.885 277.055 351.726 277.709 351.409 278.278C351.092 278.838 350.653 279.277 350.093 279.594C349.542 279.911 348.917 280.07 348.217 280.07ZM344.423 280V269.612H345.417V274.82L345.277 276.304L345.375 277.788V280H344.423ZM348.147 279.188C348.67 279.188 349.136 279.071 349.547 278.838C349.958 278.595 350.284 278.259 350.527 277.83C350.77 277.391 350.891 276.887 350.891 276.318C350.891 275.739 350.77 275.235 350.527 274.806C350.284 274.377 349.958 274.045 349.547 273.812C349.136 273.569 348.67 273.448 348.147 273.448C347.624 273.448 347.153 273.569 346.733 273.812C346.322 274.045 345.996 274.377 345.753 274.806C345.52 275.235 345.403 275.739 345.403 276.318C345.403 276.887 345.52 277.391 345.753 277.83C345.996 278.259 346.322 278.595 346.733 278.838C347.153 279.071 347.624 279.188 348.147 279.188ZM357.033 280.07C356.268 280.07 355.596 279.911 355.017 279.594C354.439 279.267 353.986 278.824 353.659 278.264C353.333 277.695 353.169 277.046 353.169 276.318C353.169 275.59 353.323 274.946 353.631 274.386C353.949 273.826 354.378 273.387 354.919 273.07C355.47 272.743 356.086 272.58 356.767 272.58C357.458 272.58 358.069 272.739 358.601 273.056C359.143 273.364 359.567 273.803 359.875 274.372C360.183 274.932 360.337 275.581 360.337 276.318C360.337 276.365 360.333 276.416 360.323 276.472C360.323 276.519 360.323 276.57 360.323 276.626H353.925V275.884H359.791L359.399 276.178C359.399 275.646 359.283 275.175 359.049 274.764C358.825 274.344 358.517 274.017 358.125 273.784C357.733 273.551 357.281 273.434 356.767 273.434C356.263 273.434 355.811 273.551 355.409 273.784C355.008 274.017 354.695 274.344 354.471 274.764C354.247 275.184 354.135 275.665 354.135 276.206V276.36C354.135 276.92 354.257 277.415 354.499 277.844C354.751 278.264 355.097 278.595 355.535 278.838C355.983 279.071 356.492 279.188 357.061 279.188C357.509 279.188 357.925 279.109 358.307 278.95C358.699 278.791 359.035 278.549 359.315 278.222L359.875 278.866C359.549 279.258 359.138 279.557 358.643 279.762C358.158 279.967 357.621 280.07 357.033 280.07ZM362.361 280V272.65H363.313V274.652L363.215 274.302C363.42 273.742 363.765 273.317 364.251 273.028C364.736 272.729 365.338 272.58 366.057 272.58V273.546C366.019 273.546 365.982 273.546 365.945 273.546C365.907 273.537 365.87 273.532 365.833 273.532C365.058 273.532 364.451 273.77 364.013 274.246C363.574 274.713 363.355 275.38 363.355 276.248V280H362.361ZM370.804 280V279.286L374.878 275.296C375.251 274.932 375.531 274.615 375.718 274.344C375.904 274.064 376.03 273.803 376.096 273.56C376.161 273.317 376.194 273.089 376.194 272.874C376.194 272.305 375.998 271.857 375.606 271.53C375.223 271.203 374.654 271.04 373.898 271.04C373.319 271.04 372.806 271.129 372.358 271.306C371.919 271.483 371.541 271.759 371.224 272.132L370.51 271.516C370.892 271.068 371.382 270.723 371.98 270.48C372.577 270.237 373.244 270.116 373.982 270.116C374.644 270.116 375.218 270.223 375.704 270.438C376.189 270.643 376.562 270.947 376.824 271.348C377.094 271.749 377.23 272.221 377.23 272.762C377.23 273.079 377.183 273.392 377.09 273.7C377.006 274.008 376.847 274.335 376.614 274.68C376.39 275.016 376.058 275.399 375.62 275.828L371.882 279.496L371.602 279.104H377.678V280H370.804ZM382.822 280.084C382.066 280.084 381.394 279.888 380.806 279.496C380.218 279.095 379.756 278.525 379.42 277.788C379.084 277.041 378.916 276.145 378.916 275.1C378.916 274.055 379.084 273.163 379.42 272.426C379.756 271.679 380.218 271.11 380.806 270.718C381.394 270.317 382.066 270.116 382.822 270.116C383.578 270.116 384.25 270.317 384.838 270.718C385.426 271.11 385.888 271.679 386.224 272.426C386.569 273.163 386.742 274.055 386.742 275.1C386.742 276.145 386.569 277.041 386.224 277.788C385.888 278.525 385.426 279.095 384.838 279.496C384.25 279.888 383.578 280.084 382.822 280.084ZM382.822 279.16C383.4 279.16 383.904 279.006 384.334 278.698C384.763 278.381 385.099 277.923 385.342 277.326C385.584 276.719 385.706 275.977 385.706 275.1C385.706 274.223 385.584 273.485 385.342 272.888C385.099 272.281 384.763 271.824 384.334 271.516C383.904 271.199 383.4 271.04 382.822 271.04C382.262 271.04 381.762 271.199 381.324 271.516C380.885 271.824 380.544 272.281 380.302 272.888C380.059 273.485 379.938 274.223 379.938 275.1C379.938 275.977 380.059 276.719 380.302 277.326C380.544 277.923 380.885 278.381 381.324 278.698C381.762 279.006 382.262 279.16 382.822 279.16ZM388.003 280V279.286L392.077 275.296C392.45 274.932 392.73 274.615 392.917 274.344C393.104 274.064 393.23 273.803 393.295 273.56C393.36 273.317 393.393 273.089 393.393 272.874C393.393 272.305 393.197 271.857 392.805 271.53C392.422 271.203 391.853 271.04 391.097 271.04C390.518 271.04 390.005 271.129 389.557 271.306C389.118 271.483 388.74 271.759 388.423 272.132L387.709 271.516C388.092 271.068 388.582 270.723 389.179 270.48C389.776 270.237 390.444 270.116 391.181 270.116C391.844 270.116 392.418 270.223 392.903 270.438C393.388 270.643 393.762 270.947 394.023 271.348C394.294 271.749 394.429 272.221 394.429 272.762C394.429 273.079 394.382 273.392 394.289 273.7C394.205 274.008 394.046 274.335 393.813 274.68C393.589 275.016 393.258 275.399 392.819 275.828L389.081 279.496L388.801 279.104H394.877V280H388.003ZM395.96 280V279.286L400.034 275.296C400.407 274.932 400.687 274.615 400.874 274.344C401.061 274.064 401.187 273.803 401.252 273.56C401.317 273.317 401.35 273.089 401.35 272.874C401.35 272.305 401.154 271.857 400.762 271.53C400.379 271.203 399.81 271.04 399.054 271.04C398.475 271.04 397.962 271.129 397.514 271.306C397.075 271.483 396.697 271.759 396.38 272.132L395.666 271.516C396.049 271.068 396.539 270.723 397.136 270.48C397.733 270.237 398.401 270.116 399.138 270.116C399.801 270.116 400.375 270.223 400.86 270.438C401.345 270.643 401.719 270.947 401.98 271.348C402.251 271.749 402.386 272.221 402.386 272.762C402.386 273.079 402.339 273.392 402.246 273.7C402.162 274.008 402.003 274.335 401.77 274.68C401.546 275.016 401.215 275.399 400.776 275.828L397.038 279.496L396.758 279.104H402.834V280H395.96Z" fill="#EEEEEE"/>
<rect x="257.111" y="63" width="2.77778" height="2.77778" fill="white"/>
<rect x="254.334" y="65.7778" width="2.77778" height="2.77778" fill="white"/>
<rect x="259.889" y="65.7778" width="2.77778" height="2.77778" fill="white"/>
<rect x="262.666" y="68.5557" width="2.77778" height="2.77778" fill="white"/>
<rect x="265.445" y="71.3335" width="2.77778" height="2.77778" fill="white"/>
<rect x="268.223" y="73.7144" width="2.77778" height="2.77778" fill="white"/>
<rect x="265.445" y="76.4922" width="2.77778" height="2.77778" fill="white"/>
<rect x="262.666" y="78.873" width="2.77778" height="2.77778" fill="white"/>
<rect x="259.889" y="81.6509" width="2.77778" height="2.77778" fill="white"/>
<rect x="257.111" y="84.4287" width="2.77778" height="2.77778" fill="white"/>
<rect x="254.334" y="81.6509" width="2.77778" height="2.77778" fill="white"/>
<rect x="251.555" y="78.873" width="2.77778" height="2.77778" fill="white"/>
<rect x="248.777" y="76.4922" width="2.77778" height="2.77778" fill="white"/>
<rect x="246" y="73.7144" width="2.77778" height="2.77778" fill="white"/>
<rect x="248.777" y="70.9365" width="2.77778" height="2.77778" fill="white"/>
<rect x="251.555" y="68.5557" width="2.77778" height="2.77778" fill="white"/>
<rect x="254.334" y="70.9365" width="2.77778" height="2.77778" fill="#E62C20"/>
<rect x="257.111" y="73.7144" width="2.77778" height="2.77778" fill="#E62C20"/>
<rect x="254.334" y="76.4922" width="2.77778" height="2.77778" fill="#E62C20"/>
<rect x="259.889" y="76.4922" width="2.77778" height="2.77778" fill="#E62C20"/>
<rect x="259.889" y="70.9365" width="2.77778" height="2.77778" fill="#E62C20"/>
<rect x="257.111" y="254" width="2.77778" height="2.77778" fill="white"/>
<rect x="254.334" y="256.778" width="2.77778" height="2.77778" fill="white"/>
<rect x="259.889" y="256.778" width="2.77778" height="2.77778" fill="white"/>
<rect x="262.666" y="259.556" width="2.77778" height="2.77778" fill="white"/>
<rect x="265.445" y="262.333" width="2.77778" height="2.77778" fill="white"/>
<rect x="268.223" y="264.714" width="2.77778" height="2.77778" fill="white"/>
<rect x="265.445" y="267.492" width="2.77778" height="2.77778" fill="white"/>
<rect x="262.666" y="269.873" width="2.77778" height="2.77778" fill="white"/>
<rect x="259.889" y="272.651" width="2.77778" height="2.77778" fill="white"/>
<rect x="257.111" y="275.429" width="2.77778" height="2.77778" fill="white"/>
<rect x="254.334" y="272.651" width="2.77778" height="2.77778" fill="white"/>
<rect x="251.555" y="269.873" width="2.77778" height="2.77778" fill="white"/>
<rect x="248.777" y="267.492" width="2.77778" height="2.77778" fill="white"/>
<rect x="246" y="264.714" width="2.77778" height="2.77778" fill="white"/>
<rect x="248.777" y="261.937" width="2.77778" height="2.77778" fill="white"/>
<rect x="251.555" y="259.556" width="2.77778" height="2.77778" fill="white"/>
<rect x="254.334" y="261.937" width="2.77778" height="2.77778" fill="#E62C20"/>
<rect x="257.111" y="264.714" width="2.77778" height="2.77778" fill="#E62C20"/>
<rect x="254.334" y="267.492" width="2.77778" height="2.77778" fill="#E62C20"/>
<rect x="259.889" y="267.492" width="2.77778" height="2.77778" fill="#E62C20"/>
<rect x="259.889" y="261.937" width="2.77778" height="2.77778" fill="#E62C20"/>
<rect x="182.111" y="160" width="2.77778" height="2.77778" fill="white"/>
<rect x="179.334" y="162.778" width="2.77778" height="2.77778" fill="white"/>
<rect x="184.889" y="162.778" width="2.77778" height="2.77778" fill="white"/>
<rect x="187.666" y="165.556" width="2.77778" height="2.77778" fill="white"/>
<rect x="190.445" y="168.333" width="2.77778" height="2.77778" fill="white"/>
<rect x="193.223" y="170.714" width="2.77778" height="2.77778" fill="white"/>
<rect x="190.445" y="173.492" width="2.77778" height="2.77778" fill="white"/>
<rect x="187.666" y="175.873" width="2.77778" height="2.77778" fill="white"/>
<rect x="184.889" y="178.651" width="2.77778" height="2.77778" fill="white"/>
<rect x="182.111" y="181.429" width="2.77778" height="2.77778" fill="white"/>
<rect x="179.334" y="178.651" width="2.77778" height="2.77778" fill="white"/>
<rect x="176.555" y="175.873" width="2.77778" height="2.77778" fill="white"/>
<rect x="173.777" y="173.492" width="2.77778" height="2.77778" fill="white"/>
<rect x="171" y="170.714" width="2.77778" height="2.77778" fill="white"/>
<rect x="173.777" y="167.937" width="2.77778" height="2.77778" fill="white"/>
<rect x="176.555" y="165.556" width="2.77778" height="2.77778" fill="white"/>
<rect x="179.334" y="167.937" width="2.77778" height="2.77778" fill="#E62C20"/>
<rect x="182.111" y="170.714" width="2.77778" height="2.77778" fill="#E62C20"/>
<rect x="179.334" y="173.492" width="2.77778" height="2.77778" fill="#E62C20"/>
<rect x="184.889" y="173.492" width="2.77778" height="2.77778" fill="#E62C20"/>
<rect x="184.889" y="167.937" width="2.77778" height="2.77778" fill="#E62C20"/>
</svg>
