<svg width="258" height="59" viewBox="0 0 258 59" fill="none" xmlns="http://www.w3.org/2000/svg">
<path d="M2.736 47V13.4H14.064V38.216H29.232V47H2.736ZM32.361 47V13.4H43.689V47H32.361ZM49.1423 47V13.4H58.4543L75.5423 33.848H71.2223V13.4H82.2623V47H72.9503L55.8623 26.552H60.1823V47H49.1423ZM87.7204 47V13.4H99.0484V47H87.7204ZM104.502 47V13.4H113.814L127.254 35.336H122.358L135.414 13.4H144.726L144.822 47H134.502L134.406 28.952H136.038L127.11 43.976H122.118L112.806 28.952H114.822V47H104.502ZM146.65 47L161.339 13.4H172.475L187.163 47H175.451L164.603 18.776H169.019L158.171 47H146.65ZM155.387 41.144L158.267 32.984H173.723L176.603 41.144H155.387ZM201.498 47.768C198.682 47.768 195.962 47.448 193.338 46.808C190.714 46.168 188.554 45.336 186.858 44.312L190.506 36.056C192.106 36.984 193.882 37.736 195.834 38.312C197.818 38.856 199.738 39.128 201.594 39.128C202.682 39.128 203.53 39.064 204.138 38.936C204.778 38.776 205.242 38.568 205.53 38.312C205.818 38.024 205.962 37.688 205.962 37.304C205.962 36.696 205.626 36.216 204.954 35.864C204.282 35.512 203.386 35.224 202.266 35C201.178 34.744 199.978 34.488 198.666 34.232C197.354 33.944 196.026 33.576 194.682 33.128C193.37 32.68 192.154 32.088 191.034 31.352C189.946 30.616 189.066 29.656 188.394 28.472C187.722 27.256 187.386 25.752 187.386 23.96C187.386 21.88 187.962 19.992 189.114 18.296C190.298 16.568 192.042 15.192 194.346 14.168C196.682 13.144 199.578 12.632 203.034 12.632C205.306 12.632 207.546 12.872 209.754 13.352C211.962 13.832 213.946 14.568 215.706 15.56L212.298 23.768C210.634 22.936 209.018 22.312 207.45 21.896C205.914 21.48 204.41 21.272 202.938 21.272C201.85 21.272 200.986 21.368 200.346 21.56C199.706 21.752 199.242 22.008 198.954 22.328C198.698 22.648 198.57 23 198.57 23.384C198.57 23.96 198.906 24.424 199.578 24.776C200.25 25.096 201.13 25.368 202.218 25.592C203.338 25.816 204.554 26.056 205.866 26.312C207.21 26.568 208.538 26.92 209.85 27.368C211.162 27.816 212.362 28.408 213.45 29.144C214.57 29.88 215.466 30.84 216.138 32.024C216.81 33.208 217.146 34.68 217.146 36.44C217.146 38.488 216.554 40.376 215.37 42.104C214.218 43.8 212.49 45.176 210.186 46.232C207.882 47.256 204.986 47.768 201.498 47.768ZM216.869 47L231.557 13.4H242.693L257.381 47H245.669L234.821 18.776H239.237L228.389 47H216.869ZM225.605 41.144L228.485 32.984H243.941L246.821 41.144H225.605Z" fill="white"/>
<path d="M114.158 13H102.296H102V47H133.981H146V13H133.981L124.5 31L114.158 13Z" fill="#488267"/>
<path d="M217 47H258L243 13H231.579L217 47Z" fill="#FCAA25"/>
</svg>
