<svg width="827" height="928" viewBox="0 0 827 928" fill="none" xmlns="http://www.w3.org/2000/svg">
<g opacity="0.15">
<rect x="645.74" y="786.125" width="15.8602" height="16.2806" fill="#EEEEEE" fill-opacity="0.05"/>
<rect x="629.88" y="802.405" width="15.8602" height="16.2806" fill="#EEEEEE" fill-opacity="0.05"/>
<rect x="661.6" y="802.405" width="15.8602" height="16.2806" fill="#EEEEEE" fill-opacity="0.05"/>
<rect x="677.46" y="818.686" width="15.8602" height="16.2806" fill="#EEEEEE" fill-opacity="0.05"/>
<rect x="693.32" y="834.966" width="15.8602" height="16.2806" fill="#EEEEEE" fill-opacity="0.05"/>
<rect x="709.181" y="848.922" width="15.8602" height="16.2806" fill="#EEEEEE" fill-opacity="0.05"/>
<rect x="693.32" y="865.201" width="15.8602" height="16.2806" fill="#EEEEEE" fill-opacity="0.05"/>
<rect x="677.461" y="879.157" width="15.8602" height="16.2806" fill="#EEEEEE" fill-opacity="0.05"/>
<rect x="661.6" y="895.437" width="15.8602" height="16.2806" fill="#EEEEEE" fill-opacity="0.05"/>
<rect x="645.74" y="911.718" width="15.8602" height="16.2806" fill="#EEEEEE" fill-opacity="0.05"/>
<rect x="629.879" y="895.437" width="15.8602" height="16.2806" fill="#EEEEEE" fill-opacity="0.05"/>
<rect x="614.02" y="879.157" width="15.8602" height="16.2806" fill="#EEEEEE" fill-opacity="0.05"/>
<rect x="598.159" y="865.201" width="15.8602" height="16.2806" fill="#EEEEEE" fill-opacity="0.05"/>
<rect x="582.299" y="848.922" width="15.8602" height="16.2806" fill="#EEEEEE" fill-opacity="0.05"/>
<rect x="598.159" y="832.639" width="15.8602" height="16.2806" fill="#EEEEEE" fill-opacity="0.05"/>
<rect x="614.02" y="818.686" width="15.8602" height="16.2806" fill="#EEEEEE" fill-opacity="0.05"/>
<rect x="629.879" y="832.639" width="15.8602" height="16.2806" fill="#EEEEEE" fill-opacity="0.05"/>
<rect x="645.74" y="848.922" width="15.8602" height="16.2806" fill="#EEEEEE" fill-opacity="0.05"/>
<rect x="629.879" y="865.202" width="15.8602" height="16.2806" fill="#EEEEEE" fill-opacity="0.05"/>
<rect x="661.6" y="865.202" width="15.8602" height="16.2806" fill="#EEEEEE" fill-opacity="0.05"/>
<rect x="661.6" y="832.639" width="15.8602" height="16.2806" fill="#EEEEEE" fill-opacity="0.05"/>
<rect x="645.74" y="330.265" width="15.8602" height="16.2806" fill="#EEEEEE" fill-opacity="0.05"/>
<rect x="629.88" y="346.545" width="15.8602" height="16.2806" fill="#EEEEEE" fill-opacity="0.05"/>
<rect x="661.6" y="346.545" width="15.8602" height="16.2806" fill="#EEEEEE" fill-opacity="0.05"/>
<rect x="677.46" y="362.826" width="15.8602" height="16.2806" fill="#EEEEEE" fill-opacity="0.05"/>
<rect x="693.32" y="379.107" width="15.8602" height="16.2806" fill="#EEEEEE" fill-opacity="0.05"/>
<rect x="709.181" y="393.062" width="15.8602" height="16.2806" fill="#EEEEEE" fill-opacity="0.05"/>
<rect x="693.32" y="409.343" width="15.8602" height="16.2806" fill="#EEEEEE" fill-opacity="0.05"/>
<rect x="677.46" y="423.296" width="15.8602" height="16.2806" fill="#EEEEEE" fill-opacity="0.05"/>
<rect x="661.6" y="439.579" width="15.8602" height="16.2806" fill="#EEEEEE" fill-opacity="0.05"/>
<rect x="645.74" y="455.858" width="15.8602" height="16.2806" fill="#EEEEEE" fill-opacity="0.05"/>
<rect x="629.879" y="439.579" width="15.8602" height="16.2806" fill="#EEEEEE" fill-opacity="0.05"/>
<rect x="614.02" y="423.296" width="15.8602" height="16.2806" fill="#EEEEEE" fill-opacity="0.05"/>
<rect x="598.159" y="409.342" width="15.8602" height="16.2806" fill="#EEEEEE" fill-opacity="0.05"/>
<rect x="582.299" y="393.062" width="15.8602" height="16.2806" fill="#EEEEEE" fill-opacity="0.05"/>
<rect x="598.159" y="376.782" width="15.8602" height="16.2806" fill="#EEEEEE" fill-opacity="0.05"/>
<rect x="614.019" y="362.826" width="15.8602" height="16.2806" fill="#EEEEEE" fill-opacity="0.05"/>
<rect x="629.879" y="376.782" width="15.8602" height="16.2806" fill="#EEEEEE" fill-opacity="0.05"/>
<rect x="645.74" y="393.062" width="15.8602" height="16.2806" fill="#EEEEEE" fill-opacity="0.05"/>
<rect x="629.88" y="409.342" width="15.8602" height="16.2806" fill="#EEEEEE" fill-opacity="0.05"/>
<rect x="661.6" y="409.342" width="15.8602" height="16.2806" fill="#EEEEEE" fill-opacity="0.05"/>
<rect x="661.6" y="376.782" width="15.8602" height="16.2806" fill="#EEEEEE" fill-opacity="0.05"/>
<rect x="645.74" y="558.195" width="15.8602" height="16.2806" fill="#EEEEEE" fill-opacity="0.05"/>
<rect x="629.88" y="574.476" width="15.8602" height="16.2806" fill="#EEEEEE" fill-opacity="0.05"/>
<rect x="661.6" y="574.476" width="15.8602" height="16.2806" fill="#EEEEEE" fill-opacity="0.05"/>
<rect x="677.46" y="590.756" width="15.8602" height="16.2806" fill="#EEEEEE" fill-opacity="0.05"/>
<rect x="693.32" y="607.037" width="15.8602" height="16.2806" fill="#EEEEEE" fill-opacity="0.05"/>
<rect x="709.18" y="620.991" width="15.8602" height="16.2806" fill="#EEEEEE" fill-opacity="0.05"/>
<rect x="693.32" y="637.273" width="15.8602" height="16.2806" fill="#EEEEEE" fill-opacity="0.05"/>
<rect x="677.46" y="651.228" width="15.8602" height="16.2806" fill="#EEEEEE" fill-opacity="0.05"/>
<rect x="661.6" y="667.508" width="15.8602" height="16.2806" fill="#EEEEEE" fill-opacity="0.05"/>
<rect x="645.74" y="683.789" width="15.8602" height="16.2806" fill="#EEEEEE" fill-opacity="0.05"/>
<rect x="629.88" y="667.508" width="15.8602" height="16.2806" fill="#EEEEEE" fill-opacity="0.05"/>
<rect x="614.019" y="651.228" width="15.8602" height="16.2806" fill="#EEEEEE" fill-opacity="0.05"/>
<rect x="598.159" y="637.273" width="15.8602" height="16.2806" fill="#EEEEEE" fill-opacity="0.05"/>
<rect x="582.298" y="620.991" width="15.8602" height="16.2806" fill="#EEEEEE" fill-opacity="0.05"/>
<rect x="598.159" y="604.71" width="15.8602" height="16.2806" fill="#EEEEEE" fill-opacity="0.05"/>
<rect x="614.02" y="590.756" width="15.8602" height="16.2806" fill="#EEEEEE" fill-opacity="0.05"/>
<rect x="629.88" y="604.71" width="15.8602" height="16.2806" fill="#EEEEEE" fill-opacity="0.05"/>
<rect x="645.74" y="620.991" width="15.8602" height="16.2806" fill="#EEEEEE" fill-opacity="0.05"/>
<rect x="629.88" y="637.273" width="15.8602" height="16.2806" fill="#EEEEEE" fill-opacity="0.05"/>
<rect x="661.6" y="637.273" width="15.8602" height="16.2806" fill="#EEEEEE" fill-opacity="0.05"/>
<rect x="661.6" y="604.711" width="15.8602" height="16.2806" fill="#EEEEEE" fill-opacity="0.05"/>
<rect x="645.739" y="102.336" width="15.8602" height="16.2806" fill="#EEEEEE" fill-opacity="0.05"/>
<rect x="629.879" y="118.618" width="15.8602" height="16.2806" fill="#EEEEEE" fill-opacity="0.05"/>
<rect x="661.599" y="118.618" width="15.8602" height="16.2806" fill="#EEEEEE" fill-opacity="0.05"/>
<rect x="677.459" y="134.898" width="15.8602" height="16.2806" fill="#EEEEEE" fill-opacity="0.05"/>
<rect x="693.32" y="151.179" width="15.8602" height="16.2806" fill="#EEEEEE" fill-opacity="0.05"/>
<rect x="709.18" y="165.134" width="15.8602" height="16.2806" fill="#EEEEEE" fill-opacity="0.05"/>
<rect x="693.32" y="181.414" width="15.8602" height="16.2806" fill="#EEEEEE" fill-opacity="0.05"/>
<rect x="677.46" y="195.37" width="15.8602" height="16.2806" fill="#EEEEEE" fill-opacity="0.05"/>
<rect x="661.599" y="211.65" width="15.8602" height="16.2806" fill="#EEEEEE" fill-opacity="0.05"/>
<rect x="645.739" y="227.93" width="15.8602" height="16.2806" fill="#EEEEEE" fill-opacity="0.05"/>
<rect x="629.879" y="211.65" width="15.8602" height="16.2806" fill="#EEEEEE" fill-opacity="0.05"/>
<rect x="614.019" y="195.37" width="15.8602" height="16.2806" fill="#EEEEEE" fill-opacity="0.05"/>
<rect x="598.158" y="181.414" width="15.8602" height="16.2806" fill="#EEEEEE" fill-opacity="0.05"/>
<rect x="582.298" y="165.134" width="15.8602" height="16.2806" fill="#EEEEEE" fill-opacity="0.05"/>
<rect x="598.158" y="148.854" width="15.8602" height="16.2806" fill="#EEEEEE" fill-opacity="0.05"/>
<rect x="614.019" y="134.899" width="15.8602" height="16.2806" fill="#EEEEEE" fill-opacity="0.05"/>
<rect x="629.879" y="148.854" width="15.8602" height="16.2806" fill="#EEEEEE" fill-opacity="0.05"/>
<rect x="645.739" y="165.134" width="15.8602" height="16.2806" fill="#EEEEEE" fill-opacity="0.05"/>
<rect x="629.879" y="181.414" width="15.8602" height="16.2806" fill="#EEEEEE" fill-opacity="0.05"/>
<rect x="661.599" y="181.414" width="15.8602" height="16.2806" fill="#EEEEEE" fill-opacity="0.05"/>
<rect x="661.599" y="148.854" width="15.8602" height="16.2806" fill="#EEEEEE" fill-opacity="0.05"/>
<rect x="405.57" y="786.125" width="15.8602" height="16.2806" fill="#EEEEEE" fill-opacity="0.05"/>
<rect x="389.71" y="802.405" width="15.8602" height="16.2806" fill="#EEEEEE" fill-opacity="0.05"/>
<rect x="421.43" y="802.405" width="15.8602" height="16.2806" fill="#EEEEEE" fill-opacity="0.05"/>
<rect x="437.29" y="818.687" width="15.8602" height="16.2806" fill="#EEEEEE" fill-opacity="0.05"/>
<rect x="453.15" y="834.967" width="15.8602" height="16.2806" fill="#EEEEEE" fill-opacity="0.05"/>
<rect x="469.011" y="848.921" width="15.8602" height="16.2806" fill="#EEEEEE" fill-opacity="0.05"/>
<rect x="453.15" y="865.202" width="15.8602" height="16.2806" fill="#EEEEEE" fill-opacity="0.05"/>
<rect x="437.29" y="879.158" width="15.8602" height="16.2806" fill="#EEEEEE" fill-opacity="0.05"/>
<rect x="421.43" y="895.438" width="15.8602" height="16.2806" fill="#EEEEEE" fill-opacity="0.05"/>
<rect x="405.569" y="911.719" width="15.8602" height="16.2806" fill="#EEEEEE" fill-opacity="0.05"/>
<rect x="389.709" y="895.438" width="15.8602" height="16.2806" fill="#EEEEEE" fill-opacity="0.05"/>
<rect x="373.849" y="879.158" width="15.8602" height="16.2806" fill="#EEEEEE" fill-opacity="0.05"/>
<rect x="357.989" y="865.202" width="15.8602" height="16.2806" fill="#EEEEEE" fill-opacity="0.05"/>
<rect x="342.129" y="848.921" width="15.8602" height="16.2806" fill="#EEEEEE" fill-opacity="0.05"/>
<rect x="357.989" y="832.64" width="15.8602" height="16.2806" fill="#EEEEEE" fill-opacity="0.05"/>
<rect x="373.849" y="818.687" width="15.8602" height="16.2806" fill="#EEEEEE" fill-opacity="0.05"/>
<rect x="389.709" y="832.641" width="15.8602" height="16.2806" fill="#EEEEEE" fill-opacity="0.05"/>
<rect x="405.569" y="848.922" width="15.8602" height="16.2806" fill="#EEEEEE" fill-opacity="0.05"/>
<rect x="389.709" y="865.202" width="15.8602" height="16.2806" fill="#EEEEEE" fill-opacity="0.05"/>
<rect x="421.43" y="865.202" width="15.8602" height="16.2806" fill="#EEEEEE" fill-opacity="0.05"/>
<rect x="421.43" y="832.641" width="15.8602" height="16.2806" fill="#EEEEEE" fill-opacity="0.05"/>
<rect x="405.569" y="330.266" width="15.8602" height="16.2806" fill="#EEEEEE" fill-opacity="0.05"/>
<rect x="389.709" y="346.546" width="15.8602" height="16.2806" fill="#EEEEEE" fill-opacity="0.05"/>
<rect x="421.43" y="346.546" width="15.8602" height="16.2806" fill="#EEEEEE" fill-opacity="0.05"/>
<rect x="437.29" y="362.827" width="15.8602" height="16.2806" fill="#EEEEEE" fill-opacity="0.05"/>
<rect x="453.15" y="379.108" width="15.8602" height="16.2806" fill="#EEEEEE" fill-opacity="0.05"/>
<rect x="469.011" y="393.062" width="15.8602" height="16.2806" fill="#EEEEEE" fill-opacity="0.05"/>
<rect x="453.15" y="409.344" width="15.8602" height="16.2806" fill="#EEEEEE" fill-opacity="0.05"/>
<rect x="437.29" y="423.297" width="15.8602" height="16.2806" fill="#EEEEEE" fill-opacity="0.05"/>
<rect x="421.43" y="439.579" width="15.8602" height="16.2806" fill="#EEEEEE" fill-opacity="0.05"/>
<rect x="405.569" y="455.859" width="15.8602" height="16.2806" fill="#EEEEEE" fill-opacity="0.05"/>
<rect x="389.709" y="439.579" width="15.8602" height="16.2806" fill="#EEEEEE" fill-opacity="0.05"/>
<rect x="373.849" y="423.297" width="15.8602" height="16.2806" fill="#EEEEEE" fill-opacity="0.05"/>
<rect x="357.988" y="409.343" width="15.8602" height="16.2806" fill="#EEEEEE" fill-opacity="0.05"/>
<rect x="342.129" y="393.062" width="15.8602" height="16.2806" fill="#EEEEEE" fill-opacity="0.05"/>
<rect x="357.988" y="376.782" width="15.8602" height="16.2806" fill="#EEEEEE" fill-opacity="0.05"/>
<rect x="373.849" y="362.827" width="15.8602" height="16.2806" fill="#EEEEEE" fill-opacity="0.05"/>
<rect x="389.709" y="376.782" width="15.8602" height="16.2806" fill="#EEEEEE" fill-opacity="0.05"/>
<rect x="405.569" y="393.062" width="15.8602" height="16.2806" fill="#EEEEEE" fill-opacity="0.05"/>
<rect x="389.709" y="409.343" width="15.8602" height="16.2806" fill="#EEEEEE" fill-opacity="0.05"/>
<rect x="421.43" y="409.344" width="15.8602" height="16.2806" fill="#EEEEEE" fill-opacity="0.05"/>
<rect x="421.43" y="376.782" width="15.8602" height="16.2806" fill="#EEEEEE" fill-opacity="0.05"/>
<rect x="405.569" y="558.196" width="15.8602" height="16.2806" fill="#EEEEEE" fill-opacity="0.05"/>
<rect x="389.709" y="574.476" width="15.8602" height="16.2806" fill="#EEEEEE" fill-opacity="0.05"/>
<rect x="421.43" y="574.476" width="15.8602" height="16.2806" fill="#EEEEEE" fill-opacity="0.05"/>
<rect x="437.29" y="590.756" width="15.8602" height="16.2806" fill="#EEEEEE" fill-opacity="0.05"/>
<rect x="453.15" y="607.038" width="15.8602" height="16.2806" fill="#EEEEEE" fill-opacity="0.05"/>
<rect x="469.01" y="620.992" width="15.8602" height="16.2806" fill="#EEEEEE" fill-opacity="0.05"/>
<rect x="453.15" y="637.273" width="15.8602" height="16.2806" fill="#EEEEEE" fill-opacity="0.05"/>
<rect x="437.29" y="651.228" width="15.8602" height="16.2806" fill="#EEEEEE" fill-opacity="0.05"/>
<rect x="421.43" y="667.507" width="15.8602" height="16.2806" fill="#EEEEEE" fill-opacity="0.05"/>
<rect x="405.569" y="683.79" width="15.8602" height="16.2806" fill="#EEEEEE" fill-opacity="0.05"/>
<rect x="389.709" y="667.507" width="15.8602" height="16.2806" fill="#EEEEEE" fill-opacity="0.05"/>
<rect x="373.849" y="651.228" width="15.8602" height="16.2806" fill="#EEEEEE" fill-opacity="0.05"/>
<rect x="357.988" y="637.273" width="15.8602" height="16.2806" fill="#EEEEEE" fill-opacity="0.05"/>
<rect x="342.128" y="620.992" width="15.8602" height="16.2806" fill="#EEEEEE" fill-opacity="0.05"/>
<rect x="357.989" y="604.711" width="15.8602" height="16.2806" fill="#EEEEEE" fill-opacity="0.05"/>
<rect x="373.849" y="590.756" width="15.8602" height="16.2806" fill="#EEEEEE" fill-opacity="0.05"/>
<rect x="389.709" y="604.711" width="15.8602" height="16.2806" fill="#EEEEEE" fill-opacity="0.05"/>
<rect x="405.569" y="620.992" width="15.8602" height="16.2806" fill="#EEEEEE" fill-opacity="0.05"/>
<rect x="389.709" y="637.273" width="15.8602" height="16.2806" fill="#EEEEEE" fill-opacity="0.05"/>
<rect x="421.43" y="637.273" width="15.8602" height="16.2806" fill="#EEEEEE" fill-opacity="0.05"/>
<rect x="421.43" y="604.711" width="15.8602" height="16.2806" fill="#EEEEEE" fill-opacity="0.05"/>
<rect x="405.569" y="102.336" width="15.8602" height="16.2806" fill="#EEEEEE" fill-opacity="0.05"/>
<rect x="389.71" y="118.618" width="15.8602" height="16.2806" fill="#EEEEEE" fill-opacity="0.05"/>
<rect x="421.43" y="118.617" width="15.8602" height="16.2806" fill="#EEEEEE" fill-opacity="0.05"/>
<rect x="437.29" y="134.897" width="15.8602" height="16.2806" fill="#EEEEEE" fill-opacity="0.05"/>
<rect x="453.151" y="151.179" width="15.8602" height="16.2806" fill="#EEEEEE" fill-opacity="0.05"/>
<rect x="469.011" y="165.134" width="15.8602" height="16.2806" fill="#EEEEEE" fill-opacity="0.05"/>
<rect x="453.15" y="181.413" width="15.8602" height="16.2806" fill="#EEEEEE" fill-opacity="0.05"/>
<rect x="437.29" y="195.37" width="15.8602" height="16.2806" fill="#EEEEEE" fill-opacity="0.05"/>
<rect x="421.43" y="211.649" width="15.8602" height="16.2806" fill="#EEEEEE" fill-opacity="0.05"/>
<rect x="405.569" y="227.93" width="15.8602" height="16.2806" fill="#EEEEEE" fill-opacity="0.05"/>
<rect x="389.71" y="211.65" width="15.8602" height="16.2806" fill="#EEEEEE" fill-opacity="0.05"/>
<rect x="373.85" y="195.369" width="15.8602" height="16.2806" fill="#EEEEEE" fill-opacity="0.05"/>
<rect x="357.989" y="181.413" width="15.8602" height="16.2806" fill="#EEEEEE" fill-opacity="0.05"/>
<rect x="342.129" y="165.134" width="15.8602" height="16.2806" fill="#EEEEEE" fill-opacity="0.05"/>
<rect x="357.989" y="148.853" width="15.8602" height="16.2806" fill="#EEEEEE" fill-opacity="0.05"/>
<rect x="373.849" y="134.898" width="15.8602" height="16.2806" fill="#EEEEEE" fill-opacity="0.05"/>
<rect x="389.709" y="148.853" width="15.8602" height="16.2806" fill="#EEEEEE" fill-opacity="0.05"/>
<rect x="405.57" y="165.133" width="15.8602" height="16.2806" fill="#EEEEEE" fill-opacity="0.05"/>
<rect x="389.71" y="181.413" width="15.8602" height="16.2806" fill="#EEEEEE" fill-opacity="0.05"/>
<rect x="421.43" y="181.413" width="15.8602" height="16.2806" fill="#EEEEEE" fill-opacity="0.05"/>
<rect x="421.43" y="148.853" width="15.8602" height="16.2806" fill="#EEEEEE" fill-opacity="0.05"/>
<rect x="165.4" y="786.125" width="15.8602" height="16.2806" fill="#EEEEEE" fill-opacity="0.05"/>
<rect x="149.54" y="802.405" width="15.8602" height="16.2806" fill="#EEEEEE" fill-opacity="0.05"/>
<rect x="181.261" y="802.405" width="15.8602" height="16.2806" fill="#EEEEEE" fill-opacity="0.05"/>
<rect x="197.121" y="818.687" width="15.8602" height="16.2806" fill="#EEEEEE" fill-opacity="0.05"/>
<rect x="212.981" y="834.967" width="15.8602" height="16.2806" fill="#EEEEEE" fill-opacity="0.05"/>
<rect x="228.842" y="848.922" width="15.8602" height="16.2806" fill="#EEEEEE" fill-opacity="0.05"/>
<rect x="212.981" y="865.202" width="15.8602" height="16.2806" fill="#EEEEEE" fill-opacity="0.05"/>
<rect x="197.121" y="879.158" width="15.8602" height="16.2806" fill="#EEEEEE" fill-opacity="0.05"/>
<rect x="181.26" y="895.438" width="15.8602" height="16.2806" fill="#EEEEEE" fill-opacity="0.05"/>
<rect x="165.401" y="911.719" width="15.8602" height="16.2806" fill="#EEEEEE" fill-opacity="0.05"/>
<rect x="149.54" y="895.438" width="15.8602" height="16.2806" fill="#EEEEEE" fill-opacity="0.05"/>
<rect x="133.68" y="879.158" width="15.8602" height="16.2806" fill="#EEEEEE" fill-opacity="0.05"/>
<rect x="117.819" y="865.202" width="15.8602" height="16.2806" fill="#EEEEEE" fill-opacity="0.05"/>
<rect x="101.96" y="848.922" width="15.8602" height="16.2806" fill="#EEEEEE" fill-opacity="0.05"/>
<rect x="117.82" y="832.641" width="15.8602" height="16.2806" fill="#EEEEEE" fill-opacity="0.05"/>
<rect x="133.68" y="818.687" width="15.8602" height="16.2806" fill="#EEEEEE" fill-opacity="0.05"/>
<rect x="149.54" y="832.641" width="15.8602" height="16.2806" fill="#EEEEEE" fill-opacity="0.05"/>
<rect x="165.401" y="848.922" width="15.8602" height="16.2806" fill="#EEEEEE" fill-opacity="0.05"/>
<rect x="149.54" y="865.202" width="15.8602" height="16.2806" fill="#EEEEEE" fill-opacity="0.05"/>
<rect x="181.26" y="865.202" width="15.8602" height="16.2806" fill="#EEEEEE" fill-opacity="0.05"/>
<rect x="181.261" y="832.641" width="15.8602" height="16.2806" fill="#EEEEEE" fill-opacity="0.05"/>
<rect x="165.401" y="330.266" width="15.8602" height="16.2806" fill="#EEEEEE" fill-opacity="0.05"/>
<rect x="149.54" y="346.546" width="15.8602" height="16.2806" fill="#EEEEEE" fill-opacity="0.05"/>
<rect x="181.261" y="346.546" width="15.8602" height="16.2806" fill="#EEEEEE" fill-opacity="0.05"/>
<rect x="197.121" y="362.827" width="15.8602" height="16.2806" fill="#EEEEEE" fill-opacity="0.05"/>
<rect x="212.981" y="379.107" width="15.8602" height="16.2806" fill="#EEEEEE" fill-opacity="0.05"/>
<rect x="228.842" y="393.062" width="15.8602" height="16.2806" fill="#EEEEEE" fill-opacity="0.05"/>
<rect x="212.981" y="409.343" width="15.8602" height="16.2806" fill="#EEEEEE" fill-opacity="0.05"/>
<rect x="197.121" y="423.297" width="15.8602" height="16.2806" fill="#EEEEEE" fill-opacity="0.05"/>
<rect x="181.261" y="439.579" width="15.8602" height="16.2806" fill="#EEEEEE" fill-opacity="0.05"/>
<rect x="165.401" y="455.859" width="15.8602" height="16.2806" fill="#EEEEEE" fill-opacity="0.05"/>
<rect x="149.54" y="439.579" width="15.8602" height="16.2806" fill="#EEEEEE" fill-opacity="0.05"/>
<rect x="133.68" y="423.297" width="15.8602" height="16.2806" fill="#EEEEEE" fill-opacity="0.05"/>
<rect x="117.82" y="409.342" width="15.8602" height="16.2806" fill="#EEEEEE" fill-opacity="0.05"/>
<rect x="101.959" y="393.062" width="15.8602" height="16.2806" fill="#EEEEEE" fill-opacity="0.05"/>
<rect x="117.82" y="376.782" width="15.8602" height="16.2806" fill="#EEEEEE" fill-opacity="0.05"/>
<rect x="133.68" y="362.827" width="15.8602" height="16.2806" fill="#EEEEEE" fill-opacity="0.05"/>
<rect x="149.54" y="376.782" width="15.8602" height="16.2806" fill="#EEEEEE" fill-opacity="0.05"/>
<rect x="165.401" y="393.062" width="15.8602" height="16.2806" fill="#EEEEEE" fill-opacity="0.05"/>
<rect x="149.541" y="409.342" width="15.8602" height="16.2806" fill="#EEEEEE" fill-opacity="0.05"/>
<rect x="181.26" y="409.343" width="15.8602" height="16.2806" fill="#EEEEEE" fill-opacity="0.05"/>
<rect x="181.261" y="376.782" width="15.8602" height="16.2806" fill="#EEEEEE" fill-opacity="0.05"/>
<rect x="165.4" y="558.196" width="15.8602" height="16.2806" fill="#EEEEEE" fill-opacity="0.05"/>
<rect x="149.54" y="574.476" width="15.8602" height="16.2806" fill="#EEEEEE" fill-opacity="0.05"/>
<rect x="181.26" y="574.477" width="15.8602" height="16.2806" fill="#EEEEEE" fill-opacity="0.05"/>
<rect x="197.121" y="590.756" width="15.8602" height="16.2806" fill="#EEEEEE" fill-opacity="0.05"/>
<rect x="212.981" y="607.038" width="15.8602" height="16.2806" fill="#EEEEEE" fill-opacity="0.05"/>
<rect x="228.841" y="620.992" width="15.8602" height="16.2806" fill="#EEEEEE" fill-opacity="0.05"/>
<rect x="212.981" y="637.273" width="15.8602" height="16.2806" fill="#EEEEEE" fill-opacity="0.05"/>
<rect x="197.121" y="651.228" width="15.8602" height="16.2806" fill="#EEEEEE" fill-opacity="0.05"/>
<rect x="181.26" y="667.507" width="15.8602" height="16.2806" fill="#EEEEEE" fill-opacity="0.05"/>
<rect x="165.4" y="683.79" width="15.8602" height="16.2806" fill="#EEEEEE" fill-opacity="0.05"/>
<rect x="149.54" y="667.509" width="15.8602" height="16.2806" fill="#EEEEEE" fill-opacity="0.05"/>
<rect x="133.68" y="651.228" width="15.8602" height="16.2806" fill="#EEEEEE" fill-opacity="0.05"/>
<rect x="117.82" y="637.273" width="15.8602" height="16.2806" fill="#EEEEEE" fill-opacity="0.05"/>
<rect x="101.959" y="620.993" width="15.8602" height="16.2806" fill="#EEEEEE" fill-opacity="0.05"/>
<rect x="117.82" y="604.711" width="15.8602" height="16.2806" fill="#EEEEEE" fill-opacity="0.05"/>
<rect x="133.68" y="590.756" width="15.8602" height="16.2806" fill="#EEEEEE" fill-opacity="0.05"/>
<rect x="149.54" y="604.711" width="15.8602" height="16.2806" fill="#EEEEEE" fill-opacity="0.05"/>
<rect x="165.4" y="620.993" width="15.8602" height="16.2806" fill="#EEEEEE" fill-opacity="0.05"/>
<rect x="149.54" y="637.273" width="15.8602" height="16.2806" fill="#EEEEEE" fill-opacity="0.05"/>
<rect x="181.261" y="637.273" width="15.8602" height="16.2806" fill="#EEEEEE" fill-opacity="0.05"/>
<rect x="181.261" y="604.711" width="15.8602" height="16.2806" fill="#EEEEEE" fill-opacity="0.05"/>
<rect x="165.401" y="102.336" width="15.8602" height="16.2806" fill="#EEEEEE" fill-opacity="0.05"/>
<rect x="149.54" y="118.617" width="15.8602" height="16.2806" fill="#EEEEEE" fill-opacity="0.05"/>
<rect x="181.261" y="118.617" width="15.8602" height="16.2806" fill="#EEEEEE" fill-opacity="0.05"/>
<rect x="197.121" y="134.897" width="15.8602" height="16.2806" fill="#EEEEEE" fill-opacity="0.05"/>
<rect x="212.981" y="151.179" width="15.8602" height="16.2806" fill="#EEEEEE" fill-opacity="0.05"/>
<rect x="228.842" y="165.133" width="15.8602" height="16.2806" fill="#EEEEEE" fill-opacity="0.05"/>
<rect x="212.981" y="181.413" width="15.8602" height="16.2806" fill="#EEEEEE" fill-opacity="0.05"/>
<rect x="197.121" y="195.369" width="15.8602" height="16.2806" fill="#EEEEEE" fill-opacity="0.05"/>
<rect x="181.261" y="211.65" width="15.8602" height="16.2806" fill="#EEEEEE" fill-opacity="0.05"/>
<rect x="165.401" y="227.93" width="15.8602" height="16.2806" fill="#EEEEEE" fill-opacity="0.05"/>
<rect x="149.541" y="211.649" width="15.8602" height="16.2806" fill="#EEEEEE" fill-opacity="0.05"/>
<rect x="133.68" y="195.369" width="15.8602" height="16.2806" fill="#EEEEEE" fill-opacity="0.05"/>
<rect x="117.82" y="181.413" width="15.8602" height="16.2806" fill="#EEEEEE" fill-opacity="0.05"/>
<rect x="101.96" y="165.133" width="15.8602" height="16.2806" fill="#EEEEEE" fill-opacity="0.05"/>
<rect x="117.82" y="148.853" width="15.8602" height="16.2806" fill="#EEEEEE" fill-opacity="0.05"/>
<rect x="133.68" y="134.897" width="15.8602" height="16.2806" fill="#EEEEEE" fill-opacity="0.05"/>
<rect x="149.54" y="148.853" width="15.8602" height="16.2806" fill="#EEEEEE" fill-opacity="0.05"/>
<rect x="165.401" y="165.133" width="15.8602" height="16.2806" fill="#EEEEEE" fill-opacity="0.05"/>
<rect x="149.54" y="181.413" width="15.8602" height="16.2806" fill="#EEEEEE" fill-opacity="0.05"/>
<rect x="181.261" y="181.413" width="15.8602" height="16.2806" fill="#EEEEEE" fill-opacity="0.05"/>
<rect x="181.261" y="148.853" width="15.8602" height="16.2806" fill="#EEEEEE" fill-opacity="0.05"/>
<path fill-rule="evenodd" clip-rule="evenodd" d="M475.808 700.069V727.979H491.668V700.069H518.857V683.789H491.668V683.789H475.808V683.789H475.808V700.069H475.808Z" fill="#EEEEEE" fill-opacity="0.05"/>
<path fill-rule="evenodd" clip-rule="evenodd" d="M546.046 683.789H589.096V700.07H589.095V727.981H573.235V700.07H546.046V683.789Z" fill="#EEEEEE" fill-opacity="0.05"/>
<path fill-rule="evenodd" clip-rule="evenodd" d="M589.096 786.125V758.216H573.235V786.125H546.047V802.406H573.235V802.406H589.096V802.406H589.096V786.125H589.096Z" fill="#EEEEEE" fill-opacity="0.05"/>
<path fill-rule="evenodd" clip-rule="evenodd" d="M518.858 802.406H475.809V786.126H475.809V758.216H491.669V786.126H518.858V802.406Z" fill="#EEEEEE" fill-opacity="0.05"/>
<path fill-rule="evenodd" clip-rule="evenodd" d="M546.047 714.024H561.907V730.305H548.313V758.215H561.907V774.496H546.047V760.541H518.857V774.496H502.997V758.216H516.592V730.305H502.997V714.024H518.857V727.98H546.047V714.024Z" fill="#EEEEEE" fill-opacity="0.05"/>
<path fill-rule="evenodd" clip-rule="evenodd" d="M518.858 227.929H475.809V227.93H475.808V272.12H491.668V244.209H518.858V227.929Z" fill="#EEEEEE" fill-opacity="0.05"/>
<path fill-rule="evenodd" clip-rule="evenodd" d="M546.048 227.929H589.097V244.209H589.097V272.12H573.236V244.209H546.048V227.929Z" fill="#EEEEEE" fill-opacity="0.05"/>
<path fill-rule="evenodd" clip-rule="evenodd" d="M546.046 346.546H589.095V346.546H589.095V302.356H573.235V330.266H546.046V346.546Z" fill="#EEEEEE" fill-opacity="0.05"/>
<path fill-rule="evenodd" clip-rule="evenodd" d="M518.857 346.546H475.808V330.266L475.808 302.355H491.668V330.266H518.857V346.546Z" fill="#EEEEEE" fill-opacity="0.05"/>
<path fill-rule="evenodd" clip-rule="evenodd" d="M546.047 258.165H561.907V274.446H548.312V302.355H561.907V318.636H546.047V304.681H518.858V318.636H502.998V302.355H516.592V274.446H502.997V258.165H518.858V272.12H546.047V258.165Z" fill="#EEEEEE" fill-opacity="0.05"/>
<path fill-rule="evenodd" clip-rule="evenodd" d="M475.808 472.14V500.049H491.668V472.14H518.857V455.86H491.668V455.858H475.808V455.86V472.14Z" fill="#EEEEEE" fill-opacity="0.05"/>
<path fill-rule="evenodd" clip-rule="evenodd" d="M589.095 455.858V500.049H573.235V472.14H546.046V455.86H573.235V455.858H589.095Z" fill="#EEEEEE" fill-opacity="0.05"/>
<path fill-rule="evenodd" clip-rule="evenodd" d="M546.046 574.476H589.095V574.476H589.095V530.286H573.235V558.195H546.046V574.476Z" fill="#EEEEEE" fill-opacity="0.05"/>
<path fill-rule="evenodd" clip-rule="evenodd" d="M518.857 574.476H475.808V558.195H475.808V530.286H491.668V558.195H518.857V574.476Z" fill="#EEEEEE" fill-opacity="0.05"/>
<path fill-rule="evenodd" clip-rule="evenodd" d="M502.997 486.095H518.858V500.049H546.047V486.095H561.907V502.375H548.312V530.286H561.907V546.567H546.047V532.611H518.857V546.567H502.997V530.286H516.592V502.375H502.997V486.095Z" fill="#EEEEEE" fill-opacity="0.05"/>
<path fill-rule="evenodd" clip-rule="evenodd" d="M475.808 0V44.1903H491.669V16.2814L518.858 16.2814V0.000769852L491.669 0.000769852V0L475.808 0Z" fill="#EEEEEE" fill-opacity="0.05"/>
<path fill-rule="evenodd" clip-rule="evenodd" d="M589.096 16.2814L589.096 44.1903H573.236V16.2814L546.047 16.2814V0.000769852L573.236 0.000769852V0L589.096 0V0.000769852H589.096V16.2814Z" fill="#EEEEEE" fill-opacity="0.05"/>
<path fill-rule="evenodd" clip-rule="evenodd" d="M546.046 118.617H589.096V102.336H589.095V74.4255H573.235V102.336H546.046V118.617Z" fill="#EEEEEE" fill-opacity="0.05"/>
<path fill-rule="evenodd" clip-rule="evenodd" d="M475.809 118.616H475.808V102.335H475.809V74.4254H491.669V102.335H518.858V118.616H491.669H475.809Z" fill="#EEEEEE" fill-opacity="0.05"/>
<path fill-rule="evenodd" clip-rule="evenodd" d="M546.047 30.2363H561.907V46.517H548.312V74.4267H561.907V90.7073H546.047V76.7529H518.857V90.7081H502.997V74.4274H516.592V46.5171H502.998V30.2365H518.858V44.1916H546.047V30.2363Z" fill="#EEEEEE" fill-opacity="0.05"/>
<path fill-rule="evenodd" clip-rule="evenodd" d="M713.712 683.789V727.979H729.573V700.069H756.762V683.789H729.573V683.789H713.712Z" fill="#EEEEEE" fill-opacity="0.05"/>
<path fill-rule="evenodd" clip-rule="evenodd" d="M783.95 683.789H826.999V683.789H827V727.98H811.139V700.069H783.95V683.789Z" fill="#EEEEEE" fill-opacity="0.05"/>
<path fill-rule="evenodd" clip-rule="evenodd" d="M783.95 802.406H827V802.406H827V758.216H811.14V786.126H783.95V802.406Z" fill="#EEEEEE" fill-opacity="0.05"/>
<path fill-rule="evenodd" clip-rule="evenodd" d="M756.761 802.406H713.712V802.406H713.711V758.216H729.571V786.126H756.761V802.406Z" fill="#EEEEEE" fill-opacity="0.05"/>
<path fill-rule="evenodd" clip-rule="evenodd" d="M783.95 714.024H799.81V730.305H786.216V758.215H799.81V774.496H783.95V760.541H756.761V774.496H740.9V758.216H754.495V730.306H740.9V714.025H756.761V727.98H783.95V714.024Z" fill="#EEEEEE" fill-opacity="0.05"/>
<path fill-rule="evenodd" clip-rule="evenodd" d="M756.762 227.93H713.712V227.93H713.712V272.12H729.572V244.21H756.762V227.93Z" fill="#EEEEEE" fill-opacity="0.05"/>
<path fill-rule="evenodd" clip-rule="evenodd" d="M783.95 227.93H826.999V244.21H826.999V272.12H811.139V244.21H783.95V227.93Z" fill="#EEEEEE" fill-opacity="0.05"/>
<path fill-rule="evenodd" clip-rule="evenodd" d="M783.95 346.547H826.999V346.546H826.999V302.356H811.139V330.266H783.95V346.547Z" fill="#EEEEEE" fill-opacity="0.05"/>
<path fill-rule="evenodd" clip-rule="evenodd" d="M756.762 346.546H713.712V346.546H713.712V302.356H729.572V330.266H756.762V346.546Z" fill="#EEEEEE" fill-opacity="0.05"/>
<path fill-rule="evenodd" clip-rule="evenodd" d="M783.95 258.165H799.811V274.446H786.216V302.356H799.81V318.637H783.95V304.681H756.761V318.636H740.901V302.355H754.495V274.446H740.901V258.165H756.761V272.12H783.95V258.165Z" fill="#EEEEEE" fill-opacity="0.05"/>
<path fill-rule="evenodd" clip-rule="evenodd" d="M713.712 472.14V500.049H729.572V472.14H756.761V455.859H729.572V455.858H713.712V455.859H713.712V472.14H713.712Z" fill="#EEEEEE" fill-opacity="0.05"/>
<path fill-rule="evenodd" clip-rule="evenodd" d="M826.999 455.858V500.049H811.139V472.14H783.95V455.859H811.139V455.858H826.999Z" fill="#EEEEEE" fill-opacity="0.05"/>
<path fill-rule="evenodd" clip-rule="evenodd" d="M783.951 574.475H827V574.475H827V530.284H811.14V558.194H783.951V574.475Z" fill="#EEEEEE" fill-opacity="0.05"/>
<path fill-rule="evenodd" clip-rule="evenodd" d="M713.712 558.194V530.284H729.572V558.194H756.761V574.475H729.572V574.475H713.712V574.475H713.712V558.194H713.712Z" fill="#EEEEEE" fill-opacity="0.05"/>
<path fill-rule="evenodd" clip-rule="evenodd" d="M740.901 486.093H756.761V500.049H783.951V486.093H799.811V502.374H786.216V530.284H799.811V546.565H783.95V532.61H756.761V546.565H740.901V530.284H754.495V502.373H740.901V486.093Z" fill="#EEEEEE" fill-opacity="0.05"/>
<path fill-rule="evenodd" clip-rule="evenodd" d="M713.711 0V44.1903H729.572V16.2814L756.761 16.2814V0.000769852L729.572 0.000769852V0L713.711 0Z" fill="#EEEEEE" fill-opacity="0.05"/>
<path fill-rule="evenodd" clip-rule="evenodd" d="M826.999 16.2814V44.1903H811.139V16.2814L783.95 16.2814V0.000769852L811.139 0.000769852V0L826.999 0V0.000769852H826.999V16.2814H826.999Z" fill="#EEEEEE" fill-opacity="0.05"/>
<path fill-rule="evenodd" clip-rule="evenodd" d="M783.95 118.616H826.999V118.615H827V74.4247H811.14V102.335H783.95V118.616Z" fill="#EEEEEE" fill-opacity="0.05"/>
<path fill-rule="evenodd" clip-rule="evenodd" d="M756.761 118.616H713.712V118.615H713.712V74.4246H729.572V102.335H756.761V118.616Z" fill="#EEEEEE" fill-opacity="0.05"/>
<path fill-rule="evenodd" clip-rule="evenodd" d="M783.95 30.2363H799.81V46.517H786.215V74.4267H799.81V90.7073H783.95V76.7517H756.76V90.7073H740.9V74.4267H754.495V46.5171H740.9V30.2364H756.761V44.1904H783.95V30.2363Z" fill="#EEEEEE" fill-opacity="0.05"/>
<path fill-rule="evenodd" clip-rule="evenodd" d="M280.954 683.789H237.904V683.789H237.904V727.98H253.764V700.069H280.954V683.789Z" fill="#EEEEEE" fill-opacity="0.05"/>
<path fill-rule="evenodd" clip-rule="evenodd" d="M308.142 683.789H351.191V683.79H351.191V727.981H335.331V700.07H308.142V683.789Z" fill="#EEEEEE" fill-opacity="0.05"/>
<path fill-rule="evenodd" clip-rule="evenodd" d="M308.142 802.406H351.191V802.406H351.192V758.216H335.331V786.126H308.142V802.406Z" fill="#EEEEEE" fill-opacity="0.05"/>
<path fill-rule="evenodd" clip-rule="evenodd" d="M280.954 802.406H237.904V786.126H237.904V758.216H253.765V786.126H280.954V802.406Z" fill="#EEEEEE" fill-opacity="0.05"/>
<path fill-rule="evenodd" clip-rule="evenodd" d="M308.142 714.024H324.003V730.305H310.408V758.215H324.002V774.496H308.142V760.541H280.953V774.496H265.093V758.215H278.688V730.306H265.094V714.025H280.954V727.98H308.142V714.024Z" fill="#EEEEEE" fill-opacity="0.05"/>
<path fill-rule="evenodd" clip-rule="evenodd" d="M237.904 227.93V272.12H253.765V244.211H280.954V227.93H253.765V227.93H237.904Z" fill="#EEEEEE" fill-opacity="0.05"/>
<path fill-rule="evenodd" clip-rule="evenodd" d="M308.143 227.93H351.192V244.21H351.192V272.12H335.331V244.21H308.143V227.93Z" fill="#EEEEEE" fill-opacity="0.05"/>
<path fill-rule="evenodd" clip-rule="evenodd" d="M308.142 346.546H351.191V346.546H351.192V302.355H335.331V330.266H308.142V346.546Z" fill="#EEEEEE" fill-opacity="0.05"/>
<path fill-rule="evenodd" clip-rule="evenodd" d="M280.954 346.546H237.904V346.546H237.904V302.356H253.764V330.266H280.954V346.546Z" fill="#EEEEEE" fill-opacity="0.05"/>
<path fill-rule="evenodd" clip-rule="evenodd" d="M308.143 258.165H324.003V274.446H310.409V302.356H324.003V318.636H308.143V304.682H280.954V318.636H265.094V302.356H278.688V274.446H265.094V258.165H280.954V272.12H308.143V258.165Z" fill="#EEEEEE" fill-opacity="0.05"/>
<path fill-rule="evenodd" clip-rule="evenodd" d="M237.905 472.14V500.049H253.765V472.14H280.954V455.859H253.765V455.858H237.905V455.859H237.904V472.14H237.905Z" fill="#EEEEEE" fill-opacity="0.05"/>
<path fill-rule="evenodd" clip-rule="evenodd" d="M351.192 472.14V500.049H335.332V472.14H308.143V455.859H335.332V455.858H351.192V455.859V472.14Z" fill="#EEEEEE" fill-opacity="0.05"/>
<path fill-rule="evenodd" clip-rule="evenodd" d="M351.193 574.475V530.284H335.332V558.194H308.143V574.475H335.332V574.475H351.193Z" fill="#EEEEEE" fill-opacity="0.05"/>
<path fill-rule="evenodd" clip-rule="evenodd" d="M237.905 558.194V530.284H253.765V558.194H280.954V574.475H253.765V574.475H237.905V574.475H237.905V558.194H237.905Z" fill="#EEEEEE" fill-opacity="0.05"/>
<path fill-rule="evenodd" clip-rule="evenodd" d="M265.094 486.093H280.954V500.049H308.143V486.094H324.003V502.375H310.409V530.285H324.003V546.566H308.142V532.61H280.954V546.566H265.094V530.285H278.688V502.374H265.094V486.093Z" fill="#EEEEEE" fill-opacity="0.05"/>
<path fill-rule="evenodd" clip-rule="evenodd" d="M237.904 0.000976562V44.1913H253.764V16.2825L280.953 16.2825V0.00182325L253.764 0.00182325V0.000976562L237.904 0.000976562Z" fill="#EEEEEE" fill-opacity="0.05"/>
<path fill-rule="evenodd" clip-rule="evenodd" d="M351.192 0V44.1903H335.331V16.2814L308.142 16.2814V0.000769852L335.331 0.000769852V0L351.192 0Z" fill="#EEEEEE" fill-opacity="0.05"/>
<path fill-rule="evenodd" clip-rule="evenodd" d="M351.191 118.616H351.192V102.335H351.191V74.4254H335.331V102.335H308.142V118.616H335.331H351.191Z" fill="#EEEEEE" fill-opacity="0.05"/>
<path fill-rule="evenodd" clip-rule="evenodd" d="M280.954 118.616H237.905V118.615H237.905V74.4246H253.765V102.335H280.954V118.616Z" fill="#EEEEEE" fill-opacity="0.05"/>
<path fill-rule="evenodd" clip-rule="evenodd" d="M308.143 30.2363H324.003V46.517H310.409V74.4267H324.003V90.7073H308.143V76.7517H280.954V90.7073H265.093V74.4267H278.688V46.517H265.093V30.2364H280.954V44.1904H308.143V30.2363Z" fill="#EEEEEE" fill-opacity="0.05"/>
<path fill-rule="evenodd" clip-rule="evenodd" d="M43.0495 683.789H0.000305176L0.000305176 700.069H0.000471739L0.000471739 727.98H15.8607V700.069H43.0495V683.789Z" fill="#EEEEEE" fill-opacity="0.05"/>
<path fill-rule="evenodd" clip-rule="evenodd" d="M70.2387 683.789H113.288V700.069H113.288V727.98H97.4277V700.069H70.2387V683.789Z" fill="#EEEEEE" fill-opacity="0.05"/>
<path fill-rule="evenodd" clip-rule="evenodd" d="M70.2392 802.406H113.288V802.406H113.289V758.216H97.4283V786.126H70.2392V802.406Z" fill="#EEEEEE" fill-opacity="0.05"/>
<path fill-rule="evenodd" clip-rule="evenodd" d="M43.0501 802.406H0.000902147V802.406H0.000366211L0.000366211 758.215H15.8606V786.126H43.0501V802.406Z" fill="#EEEEEE" fill-opacity="0.05"/>
<path fill-rule="evenodd" clip-rule="evenodd" d="M70.2392 714.023H86.0995V730.304H72.5049V758.215H86.0995V774.495H70.2393V760.54H43.0501V774.495H27.1899V758.215H40.7844V730.304H27.1898V714.023H43.0501V727.978H70.2392V714.023Z" fill="#EEEEEE" fill-opacity="0.05"/>
<path fill-rule="evenodd" clip-rule="evenodd" d="M43.0496 227.93H0.000353804V227.93H0L0 272.12H15.8602V244.21H43.0496V227.93Z" fill="#EEEEEE" fill-opacity="0.05"/>
<path fill-rule="evenodd" clip-rule="evenodd" d="M70.2385 227.93H113.288V244.211H113.288V272.121H97.4273V244.211H70.2385V227.93Z" fill="#EEEEEE" fill-opacity="0.05"/>
<path fill-rule="evenodd" clip-rule="evenodd" d="M70.238 346.547H113.287V330.266H113.287V302.356H97.4269V330.266H70.238V346.547Z" fill="#EEEEEE" fill-opacity="0.05"/>
<path fill-rule="evenodd" clip-rule="evenodd" d="M43.0492 346.546H0L0 346.546L0 330.266L0 302.355H15.8602V330.266H43.0492V346.546Z" fill="#EEEEEE" fill-opacity="0.05"/>
<path fill-rule="evenodd" clip-rule="evenodd" d="M70.2388 258.165H86.0991V274.446H72.5042V302.356H86.0988V318.637H70.2385V304.681H43.0497V318.636H27.1895V302.355H40.7837V274.446H27.1893V258.165H43.0495V272.12H70.2388V258.165Z" fill="#EEEEEE" fill-opacity="0.05"/>
<path fill-rule="evenodd" clip-rule="evenodd" d="M0.00012207 455.858L0.00012207 500.049H15.8604V472.14H43.0495V455.859H15.8604V455.858H0.00012207Z" fill="#EEEEEE" fill-opacity="0.05"/>
<path fill-rule="evenodd" clip-rule="evenodd" d="M70.2381 455.86H113.287V472.141H113.287V500.051H97.4271V472.141H70.2381V455.86Z" fill="#EEEEEE" fill-opacity="0.05"/>
<path fill-rule="evenodd" clip-rule="evenodd" d="M113.288 574.477V530.287H97.4275V558.196H70.2382V574.477H97.4275V574.477H113.288Z" fill="#EEEEEE" fill-opacity="0.05"/>
<path fill-rule="evenodd" clip-rule="evenodd" d="M43.0496 574.477H0.000366211L0.000366211 558.196H0.000813992L0.000813992 530.287H15.8611V558.196H43.0496V574.477Z" fill="#EEEEEE" fill-opacity="0.05"/>
<path fill-rule="evenodd" clip-rule="evenodd" d="M27.1895 486.095H43.0497V500.051H70.2386V486.096H86.0989V502.377H72.5046V530.286H86.0991V546.567H70.2388V532.612H43.0497V546.567H27.1895V530.286H40.7841V502.376H27.1895V486.095Z" fill="#EEEEEE" fill-opacity="0.05"/>
<path fill-rule="evenodd" clip-rule="evenodd" d="M0.000488281 0.000976562L0.000488281 44.1913H15.8607V16.2824L43.0502 16.2824V0.00178146L15.8607 0.00178146V0.000976562L0.000488281 0.000976562Z" fill="#EEEEEE" fill-opacity="0.05"/>
<path fill-rule="evenodd" clip-rule="evenodd" d="M113.288 16.2824V44.1913H97.4276V16.2824L70.2387 16.2824V0.0017569L97.4276 0.0017569V0.000976563L113.288 0.000976562V0.0017569H113.288V16.2824H113.288Z" fill="#EEEEEE" fill-opacity="0.05"/>
<path fill-rule="evenodd" clip-rule="evenodd" d="M70.2389 118.617H113.288V102.336H113.288V74.4255H97.4277V102.336H70.2389V118.617Z" fill="#EEEEEE" fill-opacity="0.05"/>
<path fill-rule="evenodd" clip-rule="evenodd" d="M43.0501 118.616H0.000854492L0.000854492 102.336H0.000884511L0.000884511 74.4258H15.8611V102.336H43.0501V118.616Z" fill="#EEEEEE" fill-opacity="0.05"/>
<path fill-rule="evenodd" clip-rule="evenodd" d="M70.2394 30.2368H86.0996V46.5175H72.5052V74.4271H86.0995V90.7078H70.2392V76.7534H43.05V90.7085H27.1898V74.4279H40.7847V46.5175H27.19V30.2368H43.0503V44.1921H70.2394V30.2368Z" fill="#EEEEEE" fill-opacity="0.05"/>
</g>
</svg>
