<svg width="1440" height="116" viewBox="0 0 1440 116" fill="none" xmlns="http://www.w3.org/2000/svg">
<g clip-path="url(#clip0_1615_113)">
<rect width="94.8742" height="32.4596" transform="matrix(-1 0 0 1 650.959 39.3081)" fill="#E62C20"/>
<rect width="94.8742" height="32.4596" transform="matrix(-1 0 0 1 244.066 39.3081)" fill="#4A8068"/>
<rect width="94.8742" height="32.4596" transform="matrix(-1 0 0 1 447.514 39.3081)" fill="#9C4A9A"/>
<rect width="94.8742" height="32.4596" transform="matrix(-1 0 0 1 40.623 39.3081)" fill="#9C4A9A"/>
<rect width="94.8742" height="32.4596" transform="matrix(-1 0 0 1 549.238 39.3081)" fill="#4A8068"/>
<rect width="94.8742" height="32.4596" transform="matrix(-1 0 0 1 142.346 39.3081)" fill="#F69722"/>
<rect width="94.8742" height="32.4596" transform="matrix(-1 0 0 1 345.791 39.3081)" fill="#F69722"/>
<rect width="94.8742" height="32.4596" transform="matrix(-1 0 0 1 698.895 0)" fill="#488267"/>
<rect width="94.8742" height="32.4596" transform="matrix(-1 0 0 1 292.002 0)" fill="#9C4A9A"/>
<rect width="66.1008" height="32.4596" transform="matrix(-1 0 0 1 495.449 0)" fill="#E62C20"/>
<rect width="94.8742" height="32.4596" transform="matrix(-1 0 0 1 88.5586 0)" fill="#F69722"/>
<rect width="92.8473" height="32.4596" transform="matrix(-1 0 0 1 595.146 0)" fill="#F69722"/>
<rect width="94.8742" height="32.4596" transform="matrix(-1 0 0 1 190.281 0)" fill="#4A8068"/>
<rect width="122.302" height="32.4596" transform="matrix(-1 0 0 1 421.152 0)" fill="#F69722"/>
<rect width="94.8742" height="32.4596" transform="matrix(-1 0 0 1 798.59 78.6162)" fill="#F69722"/>
<rect width="94.8742" height="32.4596" transform="matrix(-1 0 0 1 391.697 78.6162)" fill="#E62C20"/>
<rect width="94.8742" height="32.4596" transform="matrix(-1 0 0 1 595.145 78.6162)" fill="#488267"/>
<rect width="94.8742" height="32.4596" transform="matrix(-1 0 0 1 188.254 78.6162)" fill="#E62C20"/>
<rect width="94.8742" height="32.4596" transform="matrix(-1 0 0 1 696.869 78.6162)" fill="#9C4A9A"/>
<rect width="94.8742" height="32.4596" transform="matrix(-1 0 0 1 289.977 78.6162)" fill="#9C4A9A"/>
<rect width="94.8742" height="32.4596" transform="matrix(-1 0 0 1 493.422 78.6162)" fill="#F69722"/>
<rect width="94.8742" height="32.4596" transform="matrix(-1 0 0 1 86.5312 78.6162)" fill="#9C4A9A"/>
<rect width="94.8742" height="32.4596" transform="matrix(-1 0 0 1 1464.23 39.308)" fill="#E62C20"/>
<rect width="94.8742" height="32.4596" transform="matrix(-1 0 0 1 1057.34 39.308)" fill="#4A8068"/>
<rect width="94.8742" height="32.4596" transform="matrix(-1 0 0 1 1260.79 39.308)" fill="#9C4A9A"/>
<rect width="94.8742" height="32.4596" transform="matrix(-1 0 0 1 853.895 39.308)" fill="#9C4A9A"/>
<rect width="94.8742" height="32.4596" transform="matrix(-1 0 0 1 1362.51 39.308)" fill="#4A8068"/>
<rect width="94.8742" height="32.4596" transform="matrix(-1 0 0 1 955.615 39.308)" fill="#F69722"/>
<rect width="94.8742" height="32.4596" transform="matrix(-1 0 0 1 1159.06 39.308)" fill="#F69722"/>
<rect width="94.8742" height="32.4596" transform="matrix(-1 0 0 1 752.172 39.308)" fill="#4A8068"/>
<rect width="94.8742" height="32.4596" transform="matrix(-1 0 0 1 1512.16 0)" fill="#488267"/>
<rect width="94.8742" height="32.4596" transform="matrix(-1 0 0 1 1105.27 0)" fill="#E62C20"/>
<rect width="66.1008" height="32.4596" transform="matrix(-1 0 0 1 1308.72 0)" fill="#E62C20"/>
<rect width="94.8742" height="32.4596" transform="matrix(-1 0 0 1 901.828 0)" fill="#E62C20"/>
<rect width="92.8473" height="32.4596" transform="matrix(-1 0 0 1 1408.42 0)" fill="#F69722"/>
<rect width="94.8742" height="32.4596" transform="matrix(-1 0 0 1 1003.55 0)" fill="#9C4A9A"/>
<rect width="122.302" height="32.4596" transform="matrix(-1 0 0 1 1234.42 0)" fill="#F69722"/>
<rect width="94.8742" height="32.4596" transform="matrix(-1 0 0 1 800.105 0)" fill="#9C4A9A"/>
<rect width="94.8742" height="32.4596" transform="matrix(-1 0 0 1 1204.97 78.6162)" fill="#E62C20"/>
<rect width="94.8742" height="32.4596" transform="matrix(-1 0 0 1 1408.41 78.6162)" fill="#488267"/>
<rect width="94.8742" height="32.4596" transform="matrix(-1 0 0 1 1001.52 78.6162)" fill="#E62C20"/>
<rect width="94.8742" height="32.4596" transform="matrix(-1 0 0 1 1510.14 78.6162)" fill="#9C4A9A"/>
<rect width="94.8742" height="32.4596" transform="matrix(-1 0 0 1 1103.25 78.6162)" fill="#9C4A9A"/>
<rect width="94.8742" height="32.4596" transform="matrix(-1 0 0 1 1306.69 78.6162)" fill="#F69722"/>
<rect width="94.8742" height="32.4596" transform="matrix(-1 0 0 1 899.801 78.6162)" fill="#4A8068"/>
</g>
<defs>
<clipPath id="clip0_1615_113">
<rect width="1440" height="116" fill="white"/>
</clipPath>
</defs>
</svg>
