<svg width="1440" height="116" viewBox="0 0 1440 116" fill="none" xmlns="http://www.w3.org/2000/svg">
<g clip-path="url(#clip0_1615_2)">
<rect width="94.8742" height="32.4596" transform="matrix(-1 0 0 1 648.934 83.5404)" fill="#9C4A9A"/>
<rect width="94.8742" height="32.4596" transform="matrix(-1 0 0 1 242.041 83.5404)" fill="#9C4A9A"/>
<rect width="94.8742" height="32.4596" transform="matrix(-1 0 0 1 445.488 83.5404)" fill="#4A8068"/>
<rect width="94.8742" height="32.4596" transform="matrix(-1 0 0 1 38.5977 83.5404)" fill="#9C4A9A"/>
<rect width="94.8742" height="32.4596" transform="matrix(-1 0 0 1 547.213 83.5404)" fill="#F69722"/>
<rect width="94.8742" height="32.4596" transform="matrix(-1 0 0 1 140.32 83.5404)" fill="#E62C20"/>
<rect width="94.8742" height="32.4596" transform="matrix(-1 0 0 1 343.766 83.5404)" fill="#F69722"/>
<rect width="94.8742" height="32.4596" transform="matrix(-1 0 0 1 696.869 44.2325)" fill="#488267"/>
<rect width="94.8742" height="32.4596" transform="matrix(-1 0 0 1 289.977 44.2325)" fill="#E62C20"/>
<rect width="94.8742" height="32.4596" transform="matrix(-1 0 0 1 493.424 44.2325)" fill="#488267"/>
<rect width="94.8742" height="32.4596" transform="matrix(-1 0 0 1 86.5332 44.2325)" fill="#4A8068"/>
<rect width="94.8742" height="32.4596" transform="matrix(-1 0 0 1 595.146 44.2325)" fill="#E62C20"/>
<rect width="94.8742" height="32.4596" transform="matrix(-1 0 0 1 188.254 44.2325)" fill="#9C4A9A"/>
<rect width="94.8742" height="32.4596" transform="matrix(-1 0 0 1 391.699 44.2325)" fill="#9C4A9A"/>
<rect width="94.8742" height="32.4596" transform="matrix(-1 0 0 1 750.654 4.92432)" fill="#E62C20"/>
<rect width="94.8742" height="32.4596" transform="matrix(-1 0 0 1 343.762 4.92419)" fill="#4A8068"/>
<rect width="94.8742" height="32.4596" transform="matrix(-1 0 0 1 547.209 4.92419)" fill="#9C4A9A"/>
<rect width="94.8742" height="32.4596" transform="matrix(-1 0 0 1 140.318 4.92419)" fill="#4A8068"/>
<rect width="94.8742" height="32.4596" transform="matrix(-1 0 0 1 648.934 4.92419)" fill="#F69722"/>
<rect width="94.8742" height="32.4596" transform="matrix(-1 0 0 1 242.041 4.92419)" fill="#F69722"/>
<rect width="94.8742" height="32.4596" transform="matrix(-1 0 0 1 445.488 4.92419)" fill="#E62C20"/>
<rect width="94.8742" height="32.4596" transform="matrix(-1 0 0 1 38.5957 4.92419)" fill="#9C4A9A"/>
<rect width="94.8742" height="32.4596" transform="matrix(-1 0 0 1 1462.21 83.5403)" fill="#9C4A9A"/>
<rect width="94.8742" height="32.4596" transform="matrix(-1 0 0 1 1055.31 83.5403)" fill="#9C4A9A"/>
<rect width="94.8742" height="32.4596" transform="matrix(-1 0 0 1 1258.76 83.5403)" fill="#4A8068"/>
<rect width="94.8742" height="32.4596" transform="matrix(-1 0 0 1 851.869 83.5403)" fill="#9C4A9A"/>
<rect width="94.8742" height="32.4596" transform="matrix(-1 0 0 1 1360.48 83.5403)" fill="#F69722"/>
<rect width="94.8742" height="32.4596" transform="matrix(-1 0 0 1 953.592 83.5403)" fill="#E62C20"/>
<rect width="94.8742" height="32.4596" transform="matrix(-1 0 0 1 1157.04 83.5403)" fill="#F69722"/>
<rect width="94.8742" height="32.4596" transform="matrix(-1 0 0 1 750.146 83.5403)" fill="#E62C20"/>
<rect width="94.8742" height="32.4596" transform="matrix(-1 0 0 1 1510.14 44.2325)" fill="#488267"/>
<rect width="94.8742" height="32.4596" transform="matrix(-1 0 0 1 1103.25 44.2325)" fill="#E62C20"/>
<rect width="94.8742" height="32.4596" transform="matrix(-1 0 0 1 1306.7 44.2325)" fill="#488267"/>
<rect width="94.8742" height="32.4596" transform="matrix(-1 0 0 1 899.805 44.2325)" fill="#E62C20"/>
<rect width="94.8742" height="32.4596" transform="matrix(-1 0 0 1 1408.42 44.2325)" fill="#E62C20"/>
<rect width="94.8742" height="32.4596" transform="matrix(-1 0 0 1 1001.53 44.2325)" fill="#4A8068"/>
<rect width="94.8742" height="32.4596" transform="matrix(-1 0 0 1 1204.97 44.2325)" fill="#9C4A9A"/>
<rect width="94.8742" height="32.4596" transform="matrix(-1 0 0 1 798.082 44.2325)" fill="#F69722"/>
<rect width="94.8742" height="32.4596" transform="matrix(-1 0 0 1 1157.04 4.92419)" fill="#4A8068"/>
<rect width="94.8742" height="32.4596" transform="matrix(-1 0 0 1 1360.48 4.92419)" fill="#9C4A9A"/>
<rect width="94.8742" height="32.4596" transform="matrix(-1 0 0 1 953.592 4.92419)" fill="#9C4A9A"/>
<rect width="94.8742" height="32.4596" transform="matrix(-1 0 0 1 1462.21 4.92419)" fill="#F69722"/>
<rect width="94.8742" height="32.4596" transform="matrix(-1 0 0 1 1055.31 4.92419)" fill="#F69722"/>
<rect width="94.8742" height="32.4596" transform="matrix(-1 0 0 1 1258.76 4.92419)" fill="#E62C20"/>
<rect width="94.8742" height="32.4596" transform="matrix(-1 0 0 1 851.869 4.92419)" fill="#9C4A9A"/>
</g>
<defs>
<clipPath id="clip0_1615_2">
<rect width="1440" height="116" fill="white"/>
</clipPath>
</defs>
</svg>
    