<svg width="204" height="71" viewBox="0 0 204 71" fill="none" xmlns="http://www.w3.org/2000/svg">
<path d="M2.208 57.48V43.08L30.72 1.8H53.952L26.496 43.08L15.936 39.912H67.968V57.48H2.208ZM37.056 69V57.48L37.728 39.912V29.64H59.04V69H37.056Z" fill="#E62C20"/>
<path d="M101.56 70.536C95.6078 70.536 90.3278 69.16 85.7198 66.408C81.1758 63.656 77.5918 59.656 74.9678 54.408C72.4078 49.16 71.1278 42.824 71.1278 35.4C71.1278 27.976 72.4078 21.64 74.9678 16.392C77.5918 11.144 81.1758 7.144 85.7198 4.392C90.3278 1.64 95.6078 0.263998 101.56 0.263998C107.512 0.263998 112.76 1.64 117.304 4.392C121.912 7.144 125.496 11.144 128.056 16.392C130.68 21.64 131.992 27.976 131.992 35.4C131.992 42.824 130.68 49.16 128.056 54.408C125.496 59.656 121.912 63.656 117.304 66.408C112.76 69.16 107.512 70.536 101.56 70.536ZM101.56 52.392C103.032 52.392 104.344 51.88 105.496 50.856C106.648 49.832 107.544 48.072 108.184 45.576C108.888 43.08 109.24 39.688 109.24 35.4C109.24 31.048 108.888 27.656 108.184 25.224C107.544 22.728 106.648 20.968 105.496 19.944C104.344 18.92 103.032 18.408 101.56 18.408C100.088 18.408 98.7758 18.92 97.6238 19.944C96.4718 20.968 95.5438 22.728 94.8398 25.224C94.1998 27.656 93.8798 31.048 93.8798 35.4C93.8798 39.688 94.1998 43.08 94.8398 45.576C95.5438 48.072 96.4718 49.832 97.6238 50.856C98.7758 51.88 100.088 52.392 101.56 52.392Z" fill="#F69722"/>
<path d="M137.021 57.48V43.08L165.533 1.8H188.765L161.309 43.08L150.749 39.912H202.781V57.48H137.021ZM171.869 69V57.48L172.541 39.912V29.64H193.853V69H171.869Z" fill="#4A8068"/>
<path d="M89 54.5V17H112.5V54.5H89Z" fill="#F69722"/>
</svg>
