<svg width="846" height="89" viewBox="0 0 846 89" fill="none" xmlns="http://www.w3.org/2000/svg">
<path d="M0 61.2042L0 66.6045H19.8011V61.2042H23.4013V55.8039H28.8016V50.4036H34.2019V46.8034H14.4008L14.4008 52.2037H10.8006V55.8039H5.4003L5.4003 61.2042H0Z" fill="#4A8068"/>
<path d="M0 27.0019L0 21.6016H19.8011V27.0019H23.4013V32.4022H28.8016V37.8025H34.2019V41.4027H14.4008L14.4008 36.0024H10.8006V32.4022H5.4003L5.4003 27.0019H0Z" fill="#4A8068"/>
<path d="M36.002 34.2021L41.4023 34.2021L41.4023 14.401L36.002 14.401L36.002 10.8008L30.6017 10.8008L30.6017 5.40055L25.2014 5.40055L25.2014 0.000248149L21.6012 0.000248191L21.6012 19.8013L27.0015 19.8013L27.0015 23.4015L30.6017 23.4015L30.6017 28.8018L36.002 28.8018L36.002 34.2021Z" fill="#4A8068"/>
<path d="M61.2032 -6.43979e-08L66.6035 0L66.6035 19.8011L61.2032 19.8011L61.2032 23.4013L55.8029 23.4013L55.8029 28.8016L50.4026 28.8016L50.4026 34.2019L46.8024 34.2019L46.8024 14.4008L52.2027 14.4008L52.2027 10.8006L55.8029 10.8006L55.8029 5.4003L61.2032 5.4003L61.2032 -6.43979e-08Z" fill="#4A8068"/>
<path d="M88.2051 27.0019V21.6016L68.404 21.6016V27.0019H64.8038V32.4022H59.4035V37.8025H54.0032V41.4027H73.8043V36.0024H77.4045V32.4022H82.8048V27.0019H88.2051Z" fill="#4A8068"/>
<path d="M88.2051 61.2042V66.6045H68.404V61.2042H64.8038V55.8039H59.4035V50.4036H54.0032V46.8034H73.8043V52.2037H77.4045V55.8039H82.8048V61.2042H88.2051Z" fill="#4A8068"/>
<path d="M27.0019 88.2051L21.6016 88.2051L21.6016 68.404L27.0019 68.404L27.0019 64.8038L32.4022 64.8038L32.4022 59.4035L37.8025 59.4035L37.8025 54.0032L41.4027 54.0032L41.4027 73.8043L36.0024 73.8043L36.0024 77.4045L32.4022 77.4045L32.4022 82.8048L27.0019 82.8048L27.0019 88.2051Z" fill="#4A8068"/>
<path d="M52.203 54.0029L46.8027 54.0029L46.8027 73.804L52.203 73.804L52.203 77.4042L57.6033 77.4042L57.6033 82.8045L63.0036 82.8045L63.0036 88.2048L66.6038 88.2048L66.6038 68.4037L61.2035 68.4037L61.2035 64.8035L57.6033 64.8035L57.6033 59.4032L52.203 59.4032L52.203 54.0029Z" fill="#4A8068"/>
<rect x="41.4023" y="46.8018" width="5.4003" height="5.4003" transform="rotate(-90 41.4023 46.8018)" fill="#DF3727"/>
<path d="M649 61.2042V66.6045H668.801V61.2042H672.401V55.8039H677.802V50.4036H683.202V46.8034H663.401V52.2037H659.801V55.8039H654.4V61.2042H649Z" fill="#4A8068"/>
<path d="M649 27.0019V21.6016H668.801V27.0019H672.401V32.4022H677.802V37.8025H683.202V41.4027H663.401V36.0024H659.801V32.4022H654.4V27.0019H649Z" fill="#4A8068"/>
<path d="M685.002 34.2021L690.402 34.2021L690.402 14.401L685.002 14.401L685.002 10.8008L679.602 10.8008L679.602 5.40055L674.201 5.40055L674.201 0.000248149L670.601 0.000248191L670.601 19.8013L676.002 19.8013L676.002 23.4015L679.602 23.4015L679.602 28.8018L685.002 28.8018L685.002 34.2021Z" fill="#4A8068"/>
<path d="M710.203 -6.43979e-08L715.604 0L715.604 19.8011L710.203 19.8011L710.203 23.4013L704.803 23.4013L704.803 28.8016L699.403 28.8016L699.403 34.2019L695.802 34.2019L695.802 14.4008L701.203 14.4008L701.203 10.8006L704.803 10.8006L704.803 5.4003L710.203 5.4003L710.203 -6.43979e-08Z" fill="#4A8068"/>
<path d="M737.205 27.0019V21.6016L717.404 21.6016V27.0019H713.804V32.4022H708.403V37.8025H703.003V41.4027H722.804V36.0024H726.404V32.4022H731.805V27.0019H737.205Z" fill="#4A8068"/>
<path d="M737.205 61.2042V66.6045H717.404V61.2042H713.804V55.8039H708.403V50.4036H703.003V46.8034H722.804V52.2037H726.404V55.8039H731.805V61.2042H737.205Z" fill="#4A8068"/>
<path d="M676.002 88.2051L670.602 88.2051L670.602 68.404L676.002 68.404L676.002 64.8038L681.402 64.8038L681.402 59.4035L686.802 59.4035L686.802 54.0032L690.403 54.0032L690.403 73.8043L685.002 73.8043L685.002 77.4045L681.402 77.4045L681.402 82.8048L676.002 82.8048L676.002 88.2051Z" fill="#4A8068"/>
<path d="M701.203 54.0029L695.803 54.0029L695.803 73.804L701.203 73.804L701.203 77.4042L706.603 77.4042L706.603 82.8045L712.004 82.8045L712.004 88.2048L715.604 88.2048L715.604 68.4037L710.204 68.4037L710.204 64.8035L706.603 64.8035L706.603 59.4032L701.203 59.4032L701.203 54.0029Z" fill="#4A8068"/>
<rect x="690.402" y="46.8018" width="5.4003" height="5.4003" transform="rotate(-90 690.402 46.8018)" fill="#DF3727"/>
<path d="M108.205 61.2042V66.6045H128.006V61.2042H131.606V55.8039H137.007V50.4036H142.407V46.8034H122.606V52.2037H119.006V55.8039H113.605V61.2042H108.205Z" fill="#F69722"/>
<path d="M108.205 27.0019V21.6016H128.006V27.0019H131.606V32.4022H137.007V37.8025H142.407V41.4027H122.606V36.0024H119.006V32.4022H113.605V27.0019H108.205Z" fill="#F69722"/>
<path d="M144.207 34.2021L149.607 34.2021L149.607 14.401L144.207 14.401L144.207 10.8008L138.807 10.8008L138.807 5.40055L133.407 5.40055L133.407 0.000248149L129.806 0.000248191L129.806 19.8013L135.207 19.8013L135.207 23.4015L138.807 23.4015L138.807 28.8018L144.207 28.8018L144.207 34.2021Z" fill="#F69722"/>
<path d="M169.408 -6.43979e-08L174.809 0L174.809 19.8011L169.408 19.8011L169.408 23.4013L164.008 23.4013L164.008 28.8016L158.608 28.8016L158.608 34.2019L155.007 34.2019L155.007 14.4008L160.408 14.4008L160.408 10.8006L164.008 10.8006L164.008 5.4003L169.408 5.4003L169.408 -6.43979e-08Z" fill="#F69722"/>
<path d="M196.41 27.0019V21.6016L176.609 21.6016V27.0019H173.009V32.4022H167.609V37.8025H162.208V41.4027H182.009V36.0024H185.61V32.4022H191.01V27.0019H196.41Z" fill="#F69722"/>
<path d="M196.41 61.2042V66.6045H176.609V61.2042H173.009V55.8039H167.609V50.4036H162.208V46.8034H182.009V52.2037H185.61V55.8039H191.01V61.2042H196.41Z" fill="#F69722"/>
<path d="M135.207 88.2051L129.807 88.2051L129.807 68.404L135.207 68.404L135.207 64.8038L140.607 64.8038L140.607 59.4035L146.008 59.4035L146.008 54.0032L149.608 54.0032L149.608 73.8043L144.207 73.8043L144.207 77.4045L140.607 77.4045L140.607 82.8048L135.207 82.8048L135.207 88.2051Z" fill="#F69722"/>
<path d="M160.408 54.0029L155.008 54.0029L155.008 73.804L160.408 73.804L160.408 77.4042L165.808 77.4042L165.808 82.8045L171.209 82.8045L171.209 88.2048L174.809 88.2048L174.809 68.4037L169.409 68.4037L169.409 64.8035L165.808 64.8035L165.808 59.4032L160.408 59.4032L160.408 54.0029Z" fill="#F69722"/>
<rect x="149.607" y="46.8018" width="5.4003" height="5.4003" transform="rotate(-90 149.607 46.8018)" fill="#4A8068"/>
<path d="M216.41 61.2042V66.6045H236.211V61.2042H239.811V55.8039H245.212V50.4036H250.612V46.8034H230.811V52.2037H227.211V55.8039H221.81V61.2042H216.41Z" fill="#E62C20"/>
<path d="M216.41 27.0019V21.6016H236.211V27.0019H239.811V32.4022H245.212V37.8025H250.612V41.4027H230.811V36.0024H227.211V32.4022H221.81V27.0019H216.41Z" fill="#E62C20"/>
<path d="M252.412 34.2021L257.812 34.2021L257.812 14.401L252.412 14.401L252.412 10.8008L247.012 10.8008L247.012 5.40055L241.612 5.40055L241.612 0.000248149L238.011 0.000248191L238.011 19.8013L243.412 19.8013L243.412 23.4015L247.012 23.4015L247.012 28.8018L252.412 28.8018L252.412 34.2021Z" fill="#E62C20"/>
<path d="M277.613 -6.43979e-08L283.014 0L283.014 19.8011L277.613 19.8011L277.613 23.4013L272.213 23.4013L272.213 28.8016L266.813 28.8016L266.813 34.2019L263.213 34.2019L263.213 14.4008L268.613 14.4008L268.613 10.8006L272.213 10.8006L272.213 5.4003L277.613 5.4003L277.613 -6.43979e-08Z" fill="#E62C20"/>
<path d="M304.615 27.0019V21.6016L284.814 21.6016V27.0019H281.214V32.4022H275.814V37.8025H270.413V41.4027H290.214V36.0024H293.815V32.4022H299.215V27.0019H304.615Z" fill="#E62C20"/>
<path d="M304.615 61.2042V66.6045H284.814V61.2042H281.214V55.8039H275.814V50.4036H270.413V46.8034H290.214V52.2037H293.815V55.8039H299.215V61.2042H304.615Z" fill="#E62C20"/>
<path d="M243.412 88.2051L238.012 88.2051L238.012 68.404L243.412 68.404L243.412 64.8038L248.812 64.8038L248.812 59.4035L254.213 59.4035L254.213 54.0032L257.813 54.0032L257.813 73.8043L252.413 73.8043L252.413 77.4045L248.812 77.4045L248.812 82.8048L243.412 82.8048L243.412 88.2051Z" fill="#E62C20"/>
<path d="M268.613 54.0029L263.213 54.0029L263.213 73.804L268.613 73.804L268.613 77.4042L274.013 77.4042L274.013 82.8045L279.414 82.8045L279.414 88.2048L283.014 88.2048L283.014 68.4037L277.614 68.4037L277.614 64.8035L274.013 64.8035L274.013 59.4032L268.613 59.4032L268.613 54.0029Z" fill="#E62C20"/>
<rect x="257.812" y="46.8018" width="5.4003" height="5.4003" transform="rotate(-90 257.812 46.8018)" fill="#F69722"/>
<path d="M324.614 61.2042V66.6045H344.415V61.2042H348.016V55.8039H353.416V50.4036H358.816V46.8034H339.015V52.2037H335.415V55.8039H330.015V61.2042H324.614Z" fill="#9C4A9A"/>
<path d="M324.614 27.0019V21.6016H344.415V27.0019H348.016V32.4022H353.416V37.8025H358.816V41.4027H339.015V36.0024H335.415V32.4022H330.015V27.0019H324.614Z" fill="#9C4A9A"/>
<path d="M360.616 34.2021L366.017 34.2021L366.017 14.401L360.616 14.401L360.616 10.8008L355.216 10.8008L355.216 5.40055L349.816 5.40055L349.816 0.000248149L346.215 0.000248191L346.215 19.8013L351.616 19.8013L351.616 23.4015L355.216 23.4015L355.216 28.8018L360.616 28.8018L360.616 34.2021Z" fill="#9C4A9A"/>
<path d="M385.817 -6.43979e-08L391.218 0L391.218 19.8011L385.817 19.8011L385.817 23.4013L380.417 23.4013L380.417 28.8016L375.017 28.8016L375.017 34.2019L371.417 34.2019L371.417 14.4008L376.817 14.4008L376.817 10.8006L380.417 10.8006L380.417 5.4003L385.817 5.4003L385.817 -6.43979e-08Z" fill="#9C4A9A"/>
<path d="M412.819 27.0019V21.6016L393.018 21.6016V27.0019H389.418V32.4022H384.018V37.8025H378.617V41.4027H398.419V36.0024H402.019V32.4022H407.419V27.0019H412.819Z" fill="#9C4A9A"/>
<path d="M412.819 61.2042V66.6045H393.018V61.2042H389.418V55.8039H384.018V50.4036H378.617V46.8034H398.419V52.2037H402.019V55.8039H407.419V61.2042H412.819Z" fill="#9C4A9A"/>
<path d="M351.616 88.2051L346.216 88.2051L346.216 68.404L351.616 68.404L351.616 64.8038L357.016 64.8038L357.016 59.4035L362.417 59.4035L362.417 54.0032L366.017 54.0032L366.017 73.8043L360.617 73.8043L360.617 77.4045L357.016 77.4045L357.016 82.8048L351.616 82.8048L351.616 88.2051Z" fill="#9C4A9A"/>
<path d="M376.817 54.0029L371.417 54.0029L371.417 73.804L376.817 73.804L376.817 77.4042L382.218 77.4042L382.218 82.8045L387.618 82.8045L387.618 88.2048L391.218 88.2048L391.218 68.4037L385.818 68.4037L385.818 64.8035L382.218 64.8035L382.218 59.4032L376.817 59.4032L376.817 54.0029Z" fill="#9C4A9A"/>
<rect x="366.017" y="46.8018" width="5.4003" height="5.4003" transform="rotate(-90 366.017 46.8018)" fill="#DF3727"/>
<path d="M757 61.2042V66.6045H776.801V61.2042H780.401V55.8039H785.802V50.4036H791.202V46.8034H771.401V52.2037H767.801V55.8039H762.4V61.2042H757Z" fill="#9C4A9A"/>
<path d="M757 27.0019V21.6016H776.801V27.0019H780.401V32.4022H785.802V37.8025H791.202V41.4027H771.401V36.0024H767.801V32.4022H762.4V27.0019H757Z" fill="#9C4A9A"/>
<path d="M793.002 34.2021L798.402 34.2021L798.402 14.401L793.002 14.401L793.002 10.8008L787.602 10.8008L787.602 5.40055L782.201 5.40055L782.201 0.000248149L778.601 0.000248191L778.601 19.8013L784.002 19.8013L784.002 23.4015L787.602 23.4015L787.602 28.8018L793.002 28.8018L793.002 34.2021Z" fill="#9C4A9A"/>
<path d="M818.203 -6.43979e-08L823.604 0L823.604 19.8011L818.203 19.8011L818.203 23.4013L812.803 23.4013L812.803 28.8016L807.403 28.8016L807.403 34.2019L803.802 34.2019L803.802 14.4008L809.203 14.4008L809.203 10.8006L812.803 10.8006L812.803 5.4003L818.203 5.4003L818.203 -6.43979e-08Z" fill="#9C4A9A"/>
<path d="M845.205 27.0019V21.6016L825.404 21.6016V27.0019H821.804V32.4022H816.403V37.8025H811.003V41.4027H830.804V36.0024H834.404V32.4022H839.805V27.0019H845.205Z" fill="#9C4A9A"/>
<path d="M845.205 61.2042V66.6045H825.404V61.2042H821.804V55.8039H816.403V50.4036H811.003V46.8034H830.804V52.2037H834.404V55.8039H839.805V61.2042H845.205Z" fill="#9C4A9A"/>
<path d="M784.002 88.2051L778.602 88.2051L778.602 68.404L784.002 68.404L784.002 64.8038L789.402 64.8038L789.402 59.4035L794.802 59.4035L794.802 54.0032L798.403 54.0032L798.403 73.8043L793.002 73.8043L793.002 77.4045L789.402 77.4045L789.402 82.8048L784.002 82.8048L784.002 88.2051Z" fill="#9C4A9A"/>
<path d="M809.203 54.0029L803.803 54.0029L803.803 73.804L809.203 73.804L809.203 77.4042L814.603 77.4042L814.603 82.8045L820.004 82.8045L820.004 88.2048L823.604 88.2048L823.604 68.4037L818.204 68.4037L818.204 64.8035L814.603 64.8035L814.603 59.4032L809.203 59.4032L809.203 54.0029Z" fill="#9C4A9A"/>
<rect x="798.402" y="46.8018" width="5.4003" height="5.4003" transform="rotate(-90 798.402 46.8018)" fill="#DF3727"/>
<path d="M432.819 61.2042V66.6045H452.62V61.2042H456.221V55.8039H461.621V50.4036H467.021V46.8034H447.22V52.2037H443.62V55.8039H438.22V61.2042H432.819Z" fill="#F69722"/>
<path d="M432.819 27.0019V21.6016H452.62V27.0019H456.221V32.4022H461.621V37.8025H467.021V41.4027H447.22V36.0024H443.62V32.4022H438.22V27.0019H432.819Z" fill="#F69722"/>
<path d="M468.821 34.2021L474.222 34.2021L474.222 14.401L468.821 14.401L468.821 10.8008L463.421 10.8008L463.421 5.40055L458.021 5.40055L458.021 0.000248149L454.421 0.000248191L454.421 19.8013L459.821 19.8013L459.821 23.4015L463.421 23.4015L463.421 28.8018L468.821 28.8018L468.821 34.2021Z" fill="#F69722"/>
<path d="M494.023 -6.43979e-08L499.423 0L499.423 19.8011L494.023 19.8011L494.023 23.4013L488.622 23.4013L488.622 28.8016L483.222 28.8016L483.222 34.2019L479.622 34.2019L479.622 14.4008L485.022 14.4008L485.022 10.8006L488.622 10.8006L488.622 5.4003L494.023 5.4003L494.023 -6.43979e-08Z" fill="#F69722"/>
<path d="M521.024 27.0019V21.6016L501.223 21.6016V27.0019H497.623V32.4022H492.223V37.8025H486.823V41.4027H506.624V36.0024H510.224V32.4022H515.624V27.0019H521.024Z" fill="#F69722"/>
<path d="M521.024 61.2042V66.6045H501.223V61.2042H497.623V55.8039H492.223V50.4036H486.823V46.8034H506.624V52.2037H510.224V55.8039H515.624V61.2042H521.024Z" fill="#F69722"/>
<path d="M459.821 88.2051L454.421 88.2051L454.421 68.404L459.821 68.404L459.821 64.8038L465.222 64.8038L465.222 59.4035L470.622 59.4035L470.622 54.0032L474.222 54.0032L474.222 73.8043L468.822 73.8043L468.822 77.4045L465.221 77.4045L465.221 82.8048L459.821 82.8048L459.821 88.2051Z" fill="#F69722"/>
<path d="M485.022 54.0029L479.622 54.0029L479.622 73.804L485.022 73.804L485.022 77.4042L490.423 77.4042L490.423 82.8045L495.823 82.8045L495.823 88.2048L499.423 88.2048L499.423 68.4037L494.023 68.4037L494.023 64.8035L490.423 64.8035L490.423 59.4032L485.022 59.4032L485.022 54.0029Z" fill="#F69722"/>
<rect x="474.222" y="46.8018" width="5.4003" height="5.4003" transform="rotate(-90 474.222 46.8018)" fill="#4A8068"/>
<path d="M541.024 61.2042V66.6045H560.826V61.2042H564.426V55.8039H569.826V50.4036H575.226V46.8034H555.425V52.2037H551.825V55.8039H546.425V61.2042H541.024Z" fill="#E62C20"/>
<path d="M541.024 27.0019V21.6016H560.826V27.0019H564.426V32.4022H569.826V37.8025H575.226V41.4027H555.425V36.0024H551.825V32.4022H546.425V27.0019H541.024Z" fill="#E62C20"/>
<path d="M577.026 34.2021L582.427 34.2021L582.427 14.401L577.026 14.401L577.026 10.8008L571.626 10.8008L571.626 5.40055L566.226 5.40055L566.226 0.000248149L562.626 0.000248191L562.626 19.8013L568.026 19.8013L568.026 23.4015L571.626 23.4015L571.626 28.8018L577.026 28.8018L577.026 34.2021Z" fill="#E62C20"/>
<path d="M602.228 -6.43979e-08L607.628 0L607.628 19.8011L602.228 19.8011L602.228 23.4013L596.827 23.4013L596.827 28.8016L591.427 28.8016L591.427 34.2019L587.827 34.2019L587.827 14.4008L593.227 14.4008L593.227 10.8006L596.827 10.8006L596.827 5.4003L602.228 5.4003L602.228 -6.43979e-08Z" fill="#E62C20"/>
<path d="M629.229 27.0019V21.6016L609.428 21.6016V27.0019H605.828V32.4022H600.428V37.8025H595.028V41.4027H614.829V36.0024H618.429V32.4022H623.829V27.0019H629.229Z" fill="#E62C20"/>
<path d="M629.229 61.2042V66.6045H609.428V61.2042H605.828V55.8039H600.428V50.4036H595.028V46.8034H614.829V52.2037H618.429V55.8039H623.829V61.2042H629.229Z" fill="#E62C20"/>
<path d="M568.026 88.2051L562.626 88.2051L562.626 68.404L568.026 68.404L568.026 64.8038L573.427 64.8038L573.427 59.4035L578.827 59.4035L578.827 54.0032L582.427 54.0032L582.427 73.8043L577.027 73.8043L577.027 77.4045L573.427 77.4045L573.427 82.8048L568.026 82.8048L568.026 88.2051Z" fill="#E62C20"/>
<path d="M593.227 54.0029L587.827 54.0029L587.827 73.804L593.227 73.804L593.227 77.4042L598.628 77.4042L598.628 82.8045L604.028 82.8045L604.028 88.2048L607.628 88.2048L607.628 68.4037L602.228 68.4037L602.228 64.8035L598.628 64.8035L598.628 59.4032L593.227 59.4032L593.227 54.0029Z" fill="#E62C20"/>
<rect x="582.427" y="46.8018" width="5.4003" height="5.4003" transform="rotate(-90 582.427 46.8018)" fill="#F69722"/>
</svg>
