<svg width="522" height="78" viewBox="0 0 522 78" fill="none" xmlns="http://www.w3.org/2000/svg">
<path d="M20.477 63.024C16.7223 63.024 13.0957 62.5973 9.597 61.744C6.09833 60.8907 3.21833 59.7813 0.957 58.416L5.821 47.408C7.95433 48.6453 10.3223 49.648 12.925 50.416C15.5703 51.1413 18.1303 51.504 20.605 51.504C22.0557 51.504 23.1863 51.4187 23.997 51.248C24.8503 51.0347 25.469 50.7573 25.853 50.416C26.237 50.032 26.429 49.584 26.429 49.072C26.429 48.2613 25.981 47.6213 25.085 47.152C24.189 46.6827 22.9943 46.2987 21.501 46C20.0503 45.6587 18.4503 45.3173 16.701 44.976C14.9517 44.592 13.181 44.1013 11.389 43.504C9.63967 42.9067 8.01833 42.1173 6.525 41.136C5.07433 40.1547 3.901 38.8747 3.005 37.296C2.109 35.6747 1.661 33.6693 1.661 31.28C1.661 28.5067 2.429 25.9893 3.965 23.728C5.54367 21.424 7.869 19.5893 10.941 18.224C14.0557 16.8587 17.917 16.176 22.525 16.176C25.5543 16.176 28.541 16.496 31.485 17.136C34.429 17.776 37.0743 18.7573 39.421 20.08L34.877 31.024C32.6583 29.9147 30.5037 29.0827 28.413 28.528C26.365 27.9733 24.3597 27.696 22.397 27.696C20.9463 27.696 19.7943 27.824 18.941 28.08C18.0877 28.336 17.469 28.6773 17.085 29.104C16.7437 29.5307 16.573 30 16.573 30.512C16.573 31.28 17.021 31.8987 17.917 32.368C18.813 32.7947 19.9863 33.1573 21.437 33.456C22.9303 33.7547 24.5517 34.0747 26.301 34.416C28.093 34.7573 29.8637 35.2267 31.613 35.824C33.3623 36.4213 34.9623 37.2107 36.413 38.192C37.9063 39.1733 39.101 40.4533 39.997 42.032C40.893 43.6107 41.341 45.5733 41.341 47.92C41.341 50.6507 40.5517 53.168 38.973 55.472C37.437 57.7333 35.133 59.568 32.061 60.976C28.989 62.3413 25.1277 63.024 20.477 63.024ZM59.6595 33.84H79.6275V44.72H59.6595V33.84ZM60.6835 50.608H83.0835V62H45.8355V17.2H82.2515V28.592H60.6835V50.608ZM112.13 63.024C108.503 63.024 105.154 62.4693 102.082 61.36C99.0527 60.208 96.4073 58.5867 94.146 56.496C91.9273 54.4053 90.1993 51.9307 88.962 49.072C87.7247 46.2133 87.106 43.056 87.106 39.6C87.106 36.144 87.7247 32.9867 88.962 30.128C90.1993 27.2693 91.9487 24.7947 94.21 22.704C96.4713 20.6133 99.138 19.0133 102.21 17.904C105.325 16.752 108.738 16.176 112.45 16.176C116.887 16.176 120.834 16.9227 124.29 18.416C127.789 19.9093 130.669 22.0427 132.93 24.816L123.266 33.328C121.858 31.7067 120.322 30.4907 118.658 29.68C117.037 28.8267 115.223 28.4 113.218 28.4C111.554 28.4 110.039 28.656 108.674 29.168C107.351 29.68 106.221 30.4267 105.282 31.408C104.343 32.3893 103.618 33.5627 103.106 34.928C102.594 36.2933 102.338 37.8507 102.338 39.6C102.338 41.264 102.594 42.8 103.106 44.208C103.618 45.5733 104.343 46.7467 105.282 47.728C106.221 48.7093 107.33 49.4773 108.61 50.032C109.933 50.544 111.405 50.8 113.026 50.8C114.733 50.8 116.397 50.5227 118.018 49.968C119.639 49.3707 121.367 48.368 123.202 46.96L131.65 57.328C128.919 59.1627 125.805 60.5707 122.306 61.552C118.807 62.5333 115.415 63.024 112.13 63.024ZM118.53 55.408V38.384H131.65V57.328L118.53 55.408ZM151.91 33.84H171.878V44.72H151.91V33.84ZM152.934 50.608H175.334V62H138.086V17.2H174.502V28.592H152.934V50.608ZM181.148 62V17.2H202.716C206.897 17.2 210.503 17.8827 213.532 19.248C216.604 20.6133 218.972 22.576 220.636 25.136C222.3 27.6533 223.132 30.64 223.132 34.096C223.132 37.552 222.3 40.5387 220.636 43.056C218.972 45.5307 216.604 47.4293 213.532 48.752C210.503 50.0747 206.897 50.736 202.716 50.736H189.532L196.252 44.528V62H181.148ZM207.964 62L196.956 45.68H212.956L224.092 62H207.964ZM196.252 46.192L189.532 39.344H201.756C203.847 39.344 205.383 38.8747 206.364 37.936C207.388 36.9973 207.9 35.7173 207.9 34.096C207.9 32.4747 207.388 31.1947 206.364 30.256C205.383 29.3173 203.847 28.848 201.756 28.848H189.532L196.252 22V46.192ZM328.642 17.2H343.746V62H328.642V17.2ZM314.69 62H299.586V17.2H314.69V62ZM329.666 45.488H313.666V33.072H329.666V45.488ZM402.586 62V17.2H424.666C429.658 17.2 434.052 18.1173 437.85 19.952C441.647 21.744 444.612 24.304 446.746 27.632C448.879 30.96 449.946 34.928 449.946 39.536C449.946 44.1867 448.879 48.1973 446.746 51.568C444.612 54.896 441.647 57.4773 437.85 59.312C434.052 61.104 429.658 62 424.666 62H402.586ZM417.69 50.224H424.026C426.159 50.224 428.015 49.8187 429.594 49.008C431.215 48.1973 432.474 47.0027 433.37 45.424C434.266 43.8027 434.714 41.84 434.714 39.536C434.714 37.2747 434.266 35.3547 433.37 33.776C432.474 32.1973 431.215 31.0027 429.594 30.192C428.015 29.3813 426.159 28.976 424.026 28.976H417.69V50.224ZM455.461 62V17.2H470.565V62H455.461Z" fill="white"/>
<path d="M223.971 62L243.556 17.2H258.404L277.988 62H262.372L247.908 24.368H253.796L239.332 62H223.971ZM235.62 54.192L239.46 43.312H260.068L263.908 54.192H235.62Z" fill="#4A8068"/>
<path d="M346.159 62L365.743 17.2H380.591L400.175 62H384.559L370.095 24.368H375.983L361.519 62H346.159ZM357.807 54.192L361.647 43.312H382.255L386.095 54.192H357.807Z" fill="#9C4A9A"/>
<path d="M477.836 62V17.2H499.404C503.585 17.2 507.19 17.8827 510.22 19.248C513.292 20.6133 515.66 22.576 517.324 25.136C518.988 27.6533 519.82 30.64 519.82 34.096C519.82 37.552 518.988 40.5387 517.324 43.056C515.66 45.5307 513.292 47.4293 510.22 48.752C507.19 50.0747 503.585 50.736 499.404 50.736H486.22L492.94 44.528V62H477.836ZM504.652 62L493.644 45.68H509.644L520.78 62H504.652ZM492.94 46.192L486.22 39.344H498.444C500.534 39.344 502.07 38.8747 503.052 37.936C504.076 36.9973 504.588 35.7173 504.588 34.096C504.588 32.4747 504.076 31.1947 503.052 30.256C502.07 29.3173 500.534 28.848 498.444 28.848H486.22L492.94 22V46.192Z" fill="#E62C20"/>
<path d="M357 62L372 29L388.5 62H357Z" fill="#9C4A9A"/>
<path d="M235 62L250 29.5L267.5 62H235Z" fill="#4A8068"/>
<path d="M490 41V27L508.5 26.5L509.5 42L490 41Z" fill="#E62C20"/>
</svg>
