<svg width="255" height="193" viewBox="0 0 255 193" fill="none" xmlns="http://www.w3.org/2000/svg">
<g opacity="0.1">
<path d="M21.1393 68.1262L17.7188 68.124L17.7107 80.666L21.1312 80.6682L21.1297 82.9485L24.5503 82.9507L24.5481 86.3713L27.9686 86.3735L27.9664 89.794L30.2468 89.7955L30.2548 77.2535L26.8343 77.2513L26.8358 74.971L24.5554 74.9695L24.5576 71.549L21.1371 71.5468L21.1393 68.1262Z" fill="#4A8068"/>
<path d="M42.8021 68.1399L46.2227 68.1421L46.2146 80.6841L42.794 80.6818L42.7926 82.9622L39.372 82.96L39.3698 86.3805L35.9493 86.3783L35.9471 89.7989L33.6667 89.7974L33.6748 77.2554L37.0954 77.2576L37.0968 74.9773L39.3772 74.9788L39.3794 71.5582L42.7999 71.5604L42.8021 68.1399Z" fill="#4A8068"/>
<path d="M38.2268 90.9408L38.2246 94.3613L50.7666 94.3694L50.7688 90.9489L53.0491 90.9503L53.0513 87.5298L56.4719 87.532L56.4741 84.1115L59.8946 84.1137L59.8961 81.8333L47.3541 81.8252L47.3519 85.2458L45.0716 85.2443L45.0701 87.5247L41.6496 87.5225L41.6473 90.943L38.2268 90.9408Z" fill="#4A8068"/>
<path d="M59.8801 106.917L59.8779 110.338L47.336 110.33L47.3382 106.909L45.0578 106.908L45.06 103.487L41.6395 103.485L41.6417 100.065L38.2212 100.062L38.2226 97.782L50.7646 97.7901L50.7624 101.211L53.0427 101.212L53.0413 103.492L56.4618 103.495L56.4596 106.915L59.8801 106.917Z" fill="#4A8068"/>
<path d="M42.766 124.009L46.1865 124.011L46.1946 111.469L42.7741 111.467L42.7755 109.186L39.355 109.184L39.3572 105.763L35.9367 105.761L35.9389 102.341L33.6585 102.339L33.6504 114.881L37.071 114.883L37.0695 117.164L39.3499 117.165L39.3477 120.586L42.7682 120.588L42.766 124.009Z" fill="#4A8068"/>
<path d="M21.1022 123.995L17.6816 123.993L17.6897 111.451L21.1103 111.453L21.1117 109.173L24.5323 109.175L24.5345 105.754L27.955 105.756L27.9572 102.336L30.2376 102.337L30.2295 114.879L26.8089 114.877L26.8075 117.157L24.5271 117.156L24.5249 120.577L21.1044 120.574L21.1022 123.995Z" fill="#4A8068"/>
<path d="M4.02514 85.2179L4.02734 81.7974L16.5693 81.8054L16.5671 85.226L18.8475 85.2274L18.8453 88.648L22.2658 88.6502L22.2636 92.0707L25.6841 92.0729L25.6827 94.3533L13.1407 94.3452L13.1429 90.9247L10.8625 90.9232L10.864 88.6428L7.44347 88.6406L7.44568 85.2201L4.02514 85.2179Z" fill="#4A8068"/>
<path d="M25.6785 101.194L25.6807 97.7739L13.1387 97.7658L13.1365 101.186L10.8561 101.185L10.8539 104.605L7.4334 104.603L7.4312 108.024L4.01066 108.022L4.00919 110.302L16.5512 110.31L16.5534 106.889L18.8337 106.891L18.8352 104.611L22.2557 104.613L22.2579 101.192L25.6785 101.194Z" fill="#4A8068"/>
<rect x="30.2432" y="94.3564" width="3.42054" height="3.42054" transform="rotate(0.0369024 30.2432 94.3564)" fill="#4A8068"/>
<path d="M149.118 68.4856L145.697 68.4834L145.689 81.0254L149.11 81.0276L149.108 83.3079L152.529 83.3101L152.527 86.7307L155.947 86.7329L155.945 90.1534L158.225 90.1549L158.233 77.6129L154.813 77.6107L154.814 75.3303L152.534 75.3289L152.536 71.9083L149.116 71.9061L149.118 68.4856Z" fill="#E62C20"/>
<path d="M170.781 68.4998L174.201 68.502L174.193 81.0439L170.773 81.0417L170.771 83.3221L167.351 83.3199L167.348 86.7404L163.928 86.7382L163.926 90.1587L161.645 90.1573L161.653 77.6153L165.074 77.6175L165.075 75.3371L167.356 75.3386L167.358 71.9181L170.778 71.9203L170.781 68.4998Z" fill="#E62C20"/>
<path d="M166.205 91.3002L166.203 94.7207L178.745 94.7288L178.747 91.3082L181.028 91.3097L181.03 87.8892L184.45 87.8914L184.453 84.4708L187.873 84.473L187.875 82.1927L175.333 82.1846L175.33 85.6052L173.05 85.6037L173.049 87.884L169.628 87.8818L169.626 91.3024L166.205 91.3002Z" fill="#E62C20"/>
<path d="M187.859 107.277L187.856 110.697L175.314 110.689L175.317 107.269L173.036 107.267L173.039 103.847L169.618 103.844L169.62 100.424L166.2 100.422L166.201 98.1414L178.743 98.1494L178.741 101.57L181.021 101.571L181.02 103.852L184.44 103.854L184.438 107.275L187.859 107.277Z" fill="#E62C20"/>
<path d="M170.745 124.368L174.165 124.371L174.173 111.829L170.753 111.826L170.754 109.546L167.334 109.544L167.336 106.123L163.915 106.121L163.917 102.701L161.637 102.699L161.629 115.241L165.049 115.243L165.048 117.524L167.328 117.525L167.326 120.946L170.747 120.948L170.745 124.368Z" fill="#E62C20"/>
<path d="M149.082 124.354L145.661 124.352L145.669 111.81L149.09 111.812L149.091 109.532L152.512 109.534L152.514 106.114L155.934 106.116L155.937 102.695L158.217 102.697L158.209 115.239L154.788 115.236L154.787 117.517L152.507 117.515L152.504 120.936L149.084 120.934L149.082 124.354Z" fill="#E62C20"/>
<path d="M132.004 85.5773L132.006 82.1567L144.548 82.1648L144.546 85.5854L146.826 85.5868L146.824 89.0074L150.244 89.0096L150.242 92.4301L153.663 92.4323L153.661 94.7127L141.119 94.7046L141.121 91.284L138.841 91.2826L138.843 89.0022L135.422 89L135.424 85.5795L132.004 85.5773Z" fill="#E62C20"/>
<path d="M153.657 101.554L153.659 98.1333L141.117 98.1252L141.115 101.546L138.835 101.544L138.832 104.965L135.412 104.963L135.41 108.383L131.989 108.381L131.988 110.661L144.53 110.669L144.532 107.249L146.812 107.25L146.814 104.97L150.234 104.972L150.236 101.552L153.657 101.554Z" fill="#E62C20"/>
<rect x="158.223" y="94.7158" width="3.42054" height="3.42054" transform="rotate(0.0369024 158.223 94.7158)" fill="#E62C20"/>
<path d="M85.11 4.15455L81.6895 4.15234L81.6814 16.6943L85.1019 16.6965L85.1004 18.9769L88.521 18.9791L88.5188 22.3996L91.9393 22.4018L91.9371 25.8223L94.2175 25.8238L94.2255 13.2818L90.805 13.2796L90.8065 10.9993L88.5261 10.9978L88.5283 7.57728L85.1078 7.57508L85.11 4.15455Z" fill="#E62C20"/>
<path d="M106.773 4.1687L110.193 4.1709L110.185 16.7129L106.765 16.7107L106.763 18.991L103.343 18.9888L103.341 22.4093L99.92 22.4071L99.9178 25.8277L97.6374 25.8262L97.6455 13.2842L101.066 13.2865L101.068 11.0061L103.348 11.0076L103.35 7.58703L106.771 7.58923L106.773 4.1687Z" fill="#E62C20"/>
<path d="M102.198 26.9691L102.195 30.3896L114.737 30.3977L114.739 26.9772L117.02 26.9787L117.022 23.5581L120.443 23.5603L120.445 20.1398L123.865 20.142L123.867 17.8616L111.325 17.8536L111.323 21.2741L109.042 21.2726L109.041 23.553L105.62 23.5508L105.618 26.9713L102.198 26.9691Z" fill="#E62C20"/>
<path d="M123.851 42.9457L123.849 46.3662L111.307 46.3581L111.309 42.9376L109.029 42.9361L109.031 39.5156L105.61 39.5134L105.612 36.0929L102.192 36.0907L102.193 33.8103L114.735 33.8184L114.733 37.2389L117.013 37.2404L117.012 39.5207L120.433 39.5229L120.43 42.9435L123.851 42.9457Z" fill="#E62C20"/>
<path d="M106.737 60.0373L110.157 60.0396L110.165 47.4976L106.745 47.4954L106.746 45.215L103.326 45.2128L103.328 41.7923L99.9074 41.7901L99.9096 38.3696L97.6292 38.3681L97.6211 50.91L101.042 50.9122L101.04 53.1926L103.321 53.1941L103.318 56.6146L106.739 56.6168L106.737 60.0373Z" fill="#E62C20"/>
<path d="M85.0739 60.0232L81.6533 60.021L81.6614 47.479L85.0819 47.4812L85.0834 45.2009L88.5039 45.2031L88.5061 41.7825L91.9267 41.7848L91.9289 38.3642L94.2092 38.3657L94.2012 50.9076L90.7806 50.9054L90.7792 53.1858L88.4988 53.1843L88.4966 56.6049L85.0761 56.6027L85.0739 60.0232Z" fill="#E62C20"/>
<path d="M67.9958 21.2462L67.998 17.8257L80.54 17.8338L80.5378 21.2543L82.8182 21.2558L82.816 24.6763L86.2365 24.6785L86.2343 28.099L89.6548 28.1012L89.6534 30.3816L77.1114 30.3735L77.1136 26.953L74.8332 26.9515L74.8347 24.6712L71.4142 24.669L71.4164 21.2484L67.9958 21.2462Z" fill="#E62C20"/>
<path d="M89.6492 37.2228L89.6514 33.8022L77.1094 33.7942L77.1072 37.2147L74.8268 37.2132L74.8246 40.6338L71.4041 40.6316L71.4019 44.0521L67.9814 44.0499L67.9799 46.3303L80.5219 46.3383L80.5241 42.9178L82.8044 42.9193L82.8059 40.6389L86.2264 40.6411L86.2286 37.2206L89.6492 37.2228Z" fill="#E62C20"/>
<rect x="94.2139" y="30.3848" width="3.42054" height="3.42054" transform="rotate(0.0369024 94.2139 30.3848)" fill="#E62C20"/>
<path d="M85.11 132.457L81.6895 132.455L81.6814 144.997L85.1019 144.999L85.1004 147.279L88.521 147.281L88.5188 150.702L91.9393 150.704L91.9371 154.125L94.2175 154.126L94.2255 141.584L90.805 141.582L90.8065 139.302L88.5261 139.3L88.5283 135.88L85.1078 135.877L85.11 132.457Z" fill="#4A8068"/>
<path d="M106.774 132.471L110.194 132.473L110.186 145.015L106.766 145.013L106.764 147.293L103.344 147.291L103.342 150.712L99.921 150.709L99.9188 154.13L97.6384 154.128L97.6465 141.586L101.067 141.589L101.069 139.308L103.349 139.31L103.351 135.889L106.772 135.891L106.774 132.471Z" fill="#4A8068"/>
<path d="M102.198 155.271L102.196 158.692L114.738 158.7L114.74 155.279L117.021 155.281L117.023 151.86L120.444 151.863L120.446 148.442L123.866 148.444L123.868 146.164L111.326 146.156L111.324 149.576L109.043 149.575L109.042 151.855L105.621 151.853L105.619 155.274L102.198 155.271Z" fill="#4A8068"/>
<path d="M123.851 171.248L123.849 174.668L111.307 174.66L111.309 171.24L109.029 171.238L109.031 167.818L105.61 167.816L105.612 164.395L102.192 164.393L102.193 162.113L114.735 162.121L114.733 165.541L117.013 165.543L117.012 167.823L120.433 167.825L120.43 171.246L123.851 171.248Z" fill="#4A8068"/>
<path d="M106.738 188.34L110.158 188.342L110.166 175.8L106.746 175.798L106.747 173.517L103.327 173.515L103.329 170.095L99.9083 170.092L99.9105 166.672L97.6302 166.67L97.6221 179.212L101.043 179.214L101.041 181.495L103.322 181.496L103.319 184.917L106.74 184.919L106.738 188.34Z" fill="#4A8068"/>
<path d="M85.0748 188.326L81.6543 188.324L81.6624 175.782L85.0829 175.784L85.0844 173.504L88.5049 173.506L88.5071 170.085L91.9277 170.087L91.9299 166.667L94.2102 166.668L94.2021 179.21L90.7816 179.208L90.7801 181.489L88.4998 181.487L88.4976 184.908L85.077 184.905L85.0748 188.326Z" fill="#4A8068"/>
<path d="M67.9968 149.548L67.999 146.128L80.541 146.136L80.5388 149.557L82.8191 149.558L82.8169 152.979L86.2375 152.981L86.2353 156.401L89.6558 156.403L89.6543 158.684L77.1124 158.676L77.1146 155.255L74.8342 155.254L74.8357 152.973L71.4152 152.971L71.4174 149.551L67.9968 149.548Z" fill="#4A8068"/>
<path d="M89.6501 165.525L89.6523 162.104L77.1104 162.096L77.1082 165.517L74.8278 165.515L74.8256 168.936L71.4051 168.934L71.4029 172.354L67.9823 172.352L67.9809 174.633L80.5228 174.641L80.525 171.22L82.8054 171.222L82.8069 168.941L86.2274 168.943L86.2296 165.523L89.6501 165.525Z" fill="#4A8068"/>
<rect x="94.2148" y="158.687" width="3.42054" height="3.42054" transform="rotate(0.0369024 94.2148 158.687)" fill="#4A8068"/>
<path fill-rule="evenodd" clip-rule="evenodd" d="M92.25 68.1304L99.6012 68.1351L99.5993 71.0754L102.54 71.0773L102.538 74.0175L105.478 74.0194L105.476 76.9599L108.418 76.9618L108.416 79.9024L111.356 79.9043L111.354 82.8449L114.294 82.8468L114.293 85.7873L117.233 85.7892L117.231 88.7295L120.171 88.7314L120.17 91.6719L123.11 91.6738L123.104 100.495L120.163 100.493L120.162 103.434L117.221 103.432L117.219 106.373L114.279 106.371L114.277 109.311L111.337 109.309L111.335 112.249L108.394 112.248L108.392 115.188L105.452 115.186L105.45 118.126L102.509 118.125L102.507 121.065L99.567 121.063L99.5651 124.004L92.214 123.999L92.2168 119.588L98.0977 119.592L98.0996 116.652L101.04 116.654L101.042 113.713L103.982 113.715L103.984 110.774L106.925 110.776L106.927 107.836L109.867 107.838L109.869 104.897L112.81 104.899L112.812 101.959L115.752 101.961L115.754 99.0201L118.695 99.022L118.698 93.1411L115.758 93.1392L115.76 90.1989L112.819 90.197L112.821 87.2566L109.881 87.2547L109.883 84.314L106.942 84.3122L106.944 81.3716L104.004 81.3697L104.006 78.4292L101.065 78.4273L101.066 75.487L98.1263 75.4851L98.1282 72.5448L92.2472 72.5411L92.25 68.1304Z" fill="#9C4A9A"/>
<path fill-rule="evenodd" clip-rule="evenodd" d="M99.6016 68.1353L92.2504 68.1305L92.2485 71.0709L89.3078 71.069L89.3059 74.0093L86.3657 74.0074L86.3638 76.9478L83.4232 76.9459L83.4213 79.8867L80.4809 79.8849L80.479 82.8251L77.5385 82.8232L77.5366 85.7636L74.596 85.7617L74.5941 88.7023L71.6538 88.7004L71.6519 91.6407L68.7113 91.6388L68.7056 100.46L71.6462 100.462L71.6443 103.403L74.5845 103.405L74.5826 106.345L77.5232 106.347L77.5213 109.287L80.4614 109.289L80.4595 112.23L83.4009 112.232L83.399 115.172L86.3391 115.174L86.3372 118.115L89.2778 118.116L89.2759 121.057L92.2163 121.059L92.2144 123.999L99.5655 124.004L99.5684 119.593L93.6876 119.589L93.6895 116.649L90.7489 116.647L90.7507 113.707L87.8106 113.705L87.8125 110.764L84.8712 110.762L84.873 107.822L81.9329 107.82L81.9348 104.879L78.9942 104.878L78.9961 101.937L76.0559 101.935L76.0578 98.9948L73.1173 98.9929L73.1211 93.112L76.0617 93.1139L76.0636 90.1733L79.0038 90.1752L79.0057 87.2349L81.9463 87.2368L81.9482 84.2965L84.8888 84.2984L84.8907 81.3576L87.831 81.3595L87.8329 78.4191L90.7735 78.4209L90.7754 75.4806L93.7157 75.4825L93.7176 72.5422L99.5987 72.5459L99.6016 68.1353Z" fill="#9C4A9A"/>
<rect x="92.2344" y="93.1245" width="7.35115" height="7.35115" transform="rotate(0.0369024 92.2344 93.1245)" fill="#9C4A9A"/>
<path d="M212.334 4.01099L208.913 4.00879L208.905 16.5508L212.326 16.553L212.324 18.8333L215.745 18.8355L215.742 22.256L219.163 22.2583L219.161 25.6788L221.441 25.6803L221.449 13.1383L218.029 13.1361L218.03 10.8557L215.75 10.8543L215.752 7.43373L212.331 7.43153L212.334 4.01099Z" fill="#4A8068"/>
<path d="M233.996 4.02514L237.417 4.02734L237.409 16.5693L233.988 16.5671L233.987 18.8475L230.566 18.8453L230.564 22.2658L227.144 22.2636L227.141 25.6841L224.861 25.6827L224.869 13.1407L228.29 13.1429L228.291 10.8625L230.572 10.864L230.574 7.44347L233.994 7.44568L233.996 4.02514Z" fill="#4A8068"/>
<path d="M229.421 26.8256L229.419 30.2461L241.961 30.2542L241.963 26.8336L244.243 26.8351L244.246 23.4146L247.666 23.4168L247.668 19.9962L251.089 19.9984L251.09 17.7181L238.548 17.71L238.546 21.1305L236.266 21.1291L236.264 23.4094L232.844 23.4072L232.842 26.8278L229.421 26.8256Z" fill="#4A8068"/>
<path d="M251.074 42.8021L251.072 46.2227L238.53 46.2146L238.533 42.794L236.252 42.7926L236.254 39.372L232.834 39.3698L232.836 35.9493L229.415 35.9471L229.417 33.6667L241.959 33.6748L241.957 37.0954L244.237 37.0968L244.236 39.3772L247.656 39.3794L247.654 42.7999L251.074 42.8021Z" fill="#4A8068"/>
<path d="M233.96 59.8938L237.381 59.896L237.389 47.354L233.968 47.3518L233.97 45.0715L230.549 45.0693L230.552 41.6487L227.131 41.6465L227.133 38.226L224.853 38.2245L224.845 50.7665L228.265 50.7687L228.264 53.0491L230.544 53.0505L230.542 56.4711L233.963 56.4733L233.96 59.8938Z" fill="#4A8068"/>
<path d="M212.297 59.8796L208.877 59.8774L208.885 47.3355L212.306 47.3377L212.307 45.0573L215.728 45.0595L215.73 41.639L219.15 41.6412L219.153 38.2207L221.433 38.2221L221.425 50.7641L218.004 50.7619L218.003 53.0422L215.722 53.0408L215.72 56.4613L212.3 56.4591L212.297 59.8796Z" fill="#4A8068"/>
<path d="M195.219 21.1027L195.222 17.6821L207.764 17.6902L207.761 21.1107L210.042 21.1122L210.04 24.5327L213.46 24.5349L213.458 27.9555L216.878 27.9577L216.877 30.238L204.335 30.23L204.337 26.8094L202.057 26.808L202.058 24.5276L198.638 24.5254L198.64 21.1049L195.219 21.1027Z" fill="#4A8068"/>
<path d="M216.873 37.0792L216.875 33.6587L204.333 33.6506L204.331 37.0711L202.05 37.0697L202.048 40.4902L198.628 40.488L198.626 43.9085L195.205 43.9063L195.204 46.1867L207.745 46.1948L207.748 42.7742L210.028 42.7757L210.03 40.4954L213.45 40.4976L213.452 37.077L216.873 37.0792Z" fill="#4A8068"/>
<rect x="221.438" y="30.2412" width="3.42054" height="3.42054" transform="rotate(0.0369024 221.438 30.2412)" fill="#4A8068"/>
<path d="M212.334 132.457L208.913 132.455L208.905 144.997L212.326 144.999L212.324 147.279L215.745 147.281L215.742 150.702L219.163 150.704L219.161 154.125L221.441 154.126L221.449 141.584L218.029 141.582L218.03 139.302L215.75 139.3L215.752 135.88L212.331 135.877L212.334 132.457Z" fill="#E62C20"/>
<path d="M233.997 132.471L237.418 132.473L237.41 145.015L233.989 145.013L233.988 147.293L230.567 147.291L230.565 150.712L227.145 150.709L227.142 154.13L224.862 154.128L224.87 141.586L228.291 141.589L228.292 139.308L230.572 139.31L230.575 135.889L233.995 135.891L233.997 132.471Z" fill="#E62C20"/>
<path d="M229.422 155.271L229.42 158.692L241.962 158.7L241.964 155.279L244.244 155.281L244.247 151.86L247.667 151.863L247.669 148.442L251.09 148.444L251.091 146.164L238.549 146.156L238.547 149.576L236.267 149.575L236.265 151.855L232.845 151.853L232.843 155.274L229.422 155.271Z" fill="#E62C20"/>
<path d="M251.075 171.248L251.073 174.668L238.531 174.66L238.533 171.24L236.253 171.238L236.255 167.818L232.835 167.816L232.837 164.395L229.416 164.393L229.418 162.113L241.96 162.121L241.958 165.541L244.238 165.543L244.237 167.823L247.657 167.825L247.655 171.246L251.075 171.248Z" fill="#E62C20"/>
<path d="M233.961 188.34L237.382 188.342L237.39 175.8L233.969 175.798L233.971 173.517L230.55 173.515L230.553 170.095L227.132 170.092L227.134 166.672L224.854 166.67L224.846 179.212L228.266 179.214L228.265 181.495L230.545 181.496L230.543 184.917L233.964 184.919L233.961 188.34Z" fill="#E62C20"/>
<path d="M212.297 188.325L208.877 188.323L208.885 175.781L212.306 175.783L212.307 173.503L215.728 173.505L215.73 170.085L219.15 170.087L219.153 166.666L221.433 166.668L221.425 179.21L218.004 179.208L218.003 181.488L215.722 181.487L215.72 184.907L212.3 184.905L212.297 188.325Z" fill="#E62C20"/>
<path d="M195.22 149.548L195.223 146.128L207.765 146.136L207.762 149.557L210.043 149.558L210.041 152.979L213.461 152.981L213.459 156.401L216.879 156.403L216.878 158.684L204.336 158.676L204.338 155.255L202.058 155.254L202.059 152.973L198.639 152.971L198.641 149.551L195.22 149.548Z" fill="#E62C20"/>
<path d="M216.874 165.525L216.876 162.104L204.334 162.096L204.332 165.517L202.051 165.515L202.049 168.936L198.629 168.934L198.627 172.354L195.206 172.352L195.205 174.633L207.746 174.641L207.749 171.22L210.029 171.222L210.03 168.941L213.451 168.943L213.453 165.523L216.874 165.525Z" fill="#E62C20"/>
<rect x="221.439" y="158.687" width="3.42054" height="3.42054" transform="rotate(0.0369024 221.439 158.687)" fill="#E62C20"/>
<path fill-rule="evenodd" clip-rule="evenodd" d="M219.475 68.1299L226.826 68.1346L226.824 71.0749L229.764 71.0768L229.762 74.0172L232.703 74.0191L232.701 76.9594L235.641 76.9613L235.639 79.9018L238.58 79.9037L238.578 82.8442L241.519 82.8461L241.517 85.7866L244.457 85.7885L244.455 88.729L247.395 88.7309L247.393 91.6714L250.334 91.6733L250.329 100.495L247.387 100.493L247.385 103.433L244.446 103.431L244.444 106.372L241.503 106.37L241.502 109.31L238.561 109.309L238.559 112.249L235.619 112.247L235.617 115.187L232.676 115.186L232.674 118.126L229.734 118.124L229.732 121.064L226.792 121.063L226.79 124.003L219.439 123.999L219.441 119.588L225.322 119.592L225.324 116.651L228.265 116.653L228.266 113.712L231.207 113.714L231.209 110.774L234.15 110.776L234.152 107.835L237.092 107.837L237.094 104.897L240.034 104.899L240.036 101.958L242.976 101.96L242.978 99.0195L245.919 99.0214L245.923 93.1406L242.982 93.1387L242.983 90.1982L240.043 90.1963L240.045 87.2558L237.106 87.254L237.107 84.3135L234.166 84.3116L234.168 81.3711L231.228 81.3692L231.23 78.4289L228.289 78.427L228.291 75.4866L225.351 75.4847L225.353 72.5444L219.472 72.5406L219.475 68.1299Z" fill="#F69722"/>
<path fill-rule="evenodd" clip-rule="evenodd" d="M226.825 68.1348L219.474 68.13L219.472 71.0705L216.532 71.0686L216.53 74.009L213.589 74.0071L213.587 76.9475L210.647 76.9456L210.645 79.8863L207.704 79.8844L207.703 82.8248L204.762 82.8229L204.76 85.7632L201.82 85.7613L201.818 88.7019L198.878 88.7L198.876 91.6404L195.935 91.6385L195.929 100.46L198.87 100.462L198.868 103.402L201.809 103.404L201.807 106.345L204.747 106.347L204.745 109.287L207.686 109.289L207.684 112.229L210.624 112.231L210.623 115.172L213.563 115.173L213.561 118.114L216.501 118.116L216.5 121.056L219.44 121.058L219.438 123.999L226.789 124.003L226.792 119.593L220.911 119.589L220.913 116.648L217.973 116.647L217.974 113.706L215.034 113.704L215.036 110.764L212.096 110.762L212.098 107.821L209.156 107.819L209.158 104.879L206.219 104.877L206.221 101.937L203.279 101.935L203.281 98.9946L200.341 98.9927L200.345 93.1117L203.285 93.1136L203.287 90.173L206.228 90.1749L206.23 87.2345L209.17 87.2364L209.172 84.2961L212.112 84.298L212.114 81.3572L215.055 81.3591L215.057 78.4188L217.997 78.4207L217.999 75.4803L220.939 75.4822L220.941 72.5417L226.822 72.5455L226.825 68.1348Z" fill="#F69722"/>
<rect x="219.458" y="93.124" width="7.35115" height="7.35115" transform="rotate(0.0369024 219.458 93.124)" fill="#F69722"/>
<path fill-rule="evenodd" clip-rule="evenodd" d="M28.2783 4.15869L35.6295 4.16343L35.6276 7.10397L38.5679 7.10587L38.566 10.0464L41.5074 10.0483L41.5055 12.9887L44.4449 12.9906L44.443 15.9309L47.3842 15.9328L47.3823 18.8734L50.3229 18.8753L50.321 21.8155L53.2612 21.8174L53.2593 24.7583L56.1998 24.7602L56.1979 27.7002L59.1381 27.7021L59.1325 36.5235L56.1919 36.5216L56.19 39.462L53.2497 39.4602L53.2478 42.4009L50.3072 42.399L50.3053 45.3393L47.365 45.3374L47.3631 48.2778L44.4225 48.2759L44.4206 51.2165L41.4801 51.2146L41.4782 54.1547L38.5378 54.1528L38.536 57.0936L35.5953 57.0917L35.5934 60.0321L28.2423 60.0274L28.2451 55.6167L34.1262 55.6205L34.1281 52.6801L37.0684 52.682L37.0703 49.7412L40.0109 49.7431L40.0128 46.8029L42.9534 46.8048L42.9553 43.8643L45.8956 43.8662L45.8975 40.9258L48.8381 40.9277L48.84 37.9873L51.7802 37.9892L51.7821 35.0485L54.7227 35.0504L54.7265 29.1699L51.7862 29.168L51.7881 26.2272L48.8476 26.2253L48.8495 23.285L45.9093 23.2831L45.9112 20.3425L42.9707 20.3406L42.9726 17.4004L40.0313 17.3985L40.0332 14.458L37.0938 14.4561L37.0957 11.5156L34.1544 11.5137L34.1563 8.57317L28.2755 8.56938L28.2783 4.15869Z" fill="#9C4A9A"/>
<path fill-rule="evenodd" clip-rule="evenodd" d="M35.6299 4.16357L28.2787 4.15884L28.2768 7.09932L25.3363 7.09743L25.3344 10.0378L22.3941 10.0359L22.3922 12.9765L19.4516 12.9746L19.4497 15.9151L16.5091 15.9132L16.5072 18.8536L13.5669 18.8517L13.565 21.7921L10.6244 21.7902L10.6225 24.7307L7.68227 24.7288L7.68038 27.6692L4.73976 27.6673L4.73407 36.4887L7.6743 36.4906L7.67241 39.4313L10.6138 39.4332L10.6119 42.3737L13.5522 42.3756L13.5503 45.3156L16.4907 45.3175L16.4888 48.2579L19.4292 48.2598L19.4273 51.2003L22.3676 51.2022L22.3657 54.143L25.3061 54.1448L25.3042 57.0851L28.2445 57.087L28.2426 60.0275L35.5937 60.0322L35.5966 55.6215L29.7159 55.6177L29.7178 52.6772L26.7773 52.6754L26.7792 49.7351L23.8389 49.7332L23.8408 46.7925L20.9004 46.7906L20.9023 43.8501L17.962 43.8482L17.9639 40.9077L15.0235 40.9058L15.0254 37.9658L12.084 37.9639L12.0859 35.0234L9.14571 35.0215L9.1495 29.1404L12.0901 29.1423L12.092 26.2018L15.0323 26.2037L15.0342 23.2633L17.9748 23.2652L17.9767 20.3248L20.917 20.3267L20.9188 17.3862L23.8595 17.3881L23.8614 14.4475L26.802 14.4494L26.8039 11.5091L29.7441 11.511L29.746 8.57048L35.627 8.57426L35.6299 4.16357Z" fill="#9C4A9A"/>
<rect x="28.2627" y="29.1528" width="7.35115" height="7.35115" transform="rotate(0.0369024 28.2627 29.1528)" fill="#9C4A9A"/>
<path fill-rule="evenodd" clip-rule="evenodd" d="M156.221 4.15869L163.572 4.16343L163.57 7.10385L166.51 7.10574L166.509 10.0464L169.449 10.0483L169.447 12.9885L172.387 12.9904L172.385 15.9306L175.327 15.9325L175.325 18.8734L178.265 18.8753L178.263 21.8159L181.204 21.8178L181.202 24.758L184.142 24.7599L184.14 27.7002L187.081 27.7021L187.075 36.5234L184.134 36.5215L184.132 39.4619L181.192 39.46L181.19 42.4009L178.25 42.399L178.248 45.3393L175.307 45.3375L175.305 48.2778L172.365 48.2759L172.363 51.2165L169.422 51.2146L169.421 54.1549L166.48 54.1531L166.478 57.0937L163.538 57.0918L163.536 60.0322L156.185 60.0275L156.188 55.6168L162.068 55.6206L162.07 52.6802L165.011 52.6821L165.013 49.7414L167.953 49.7433L167.955 46.8029L170.896 46.8048L170.897 43.8643L173.838 43.8662L173.84 40.9258L176.78 40.9277L176.782 37.9873L179.723 37.9892L179.725 35.0483L182.665 35.0502L182.669 29.1697L179.728 29.1678L179.73 26.2275L176.79 26.2256L176.792 23.285L173.851 23.2831L173.853 20.3423L170.913 20.3404L170.915 17.4002L167.974 17.3983L167.976 14.458L165.035 14.4561L165.037 11.5155L162.097 11.5136L162.099 8.57317L156.218 8.56938L156.221 4.15869Z" fill="#F69722"/>
<path fill-rule="evenodd" clip-rule="evenodd" d="M163.572 4.16357L156.221 4.15884L156.219 7.09917L153.279 7.09728L153.277 10.0378L150.336 10.0359L150.334 12.9763L147.394 12.9744L147.392 15.9149L144.451 15.9131L144.45 18.8536L141.509 18.8517L141.507 21.7921L138.567 21.7902L138.565 24.7307L135.625 24.7288L135.623 27.6692L132.682 27.6673L132.676 36.4887L135.617 36.4906L135.615 39.4313L138.556 39.4332L138.554 42.3737L141.494 42.3756L141.492 45.3156L144.433 45.3175L144.431 48.2579L147.372 48.2598L147.37 51.2003L150.31 51.2022L150.308 54.1428L153.249 54.1447L153.247 57.0851L156.187 57.087L156.185 60.0275L163.536 60.0322L163.539 55.6216L157.658 55.6178L157.66 52.6772L154.72 52.6754L154.722 49.735L151.781 49.7331L151.783 46.7925L148.843 46.7906L148.845 43.8501L145.903 43.8482L145.905 40.9077L142.966 40.9058L142.968 37.9658L140.026 37.9639L140.028 35.0234L137.088 35.0215L137.092 29.1405L140.032 29.1424L140.034 26.2018L142.975 26.2037L142.977 23.2633L145.917 23.2652L145.919 20.3247L148.859 20.3266L148.861 17.386L151.802 17.3879L151.804 14.4476L154.744 14.4495L154.746 11.5089L157.687 11.5108L157.688 8.57048L163.569 8.57426L163.572 4.16357Z" fill="#F69722"/>
<rect x="156.205" y="29.1528" width="7.35115" height="7.35115" transform="rotate(0.0369024 156.205 29.1528)" fill="#F69722"/>
<path fill-rule="evenodd" clip-rule="evenodd" d="M28.2783 132.461L35.6295 132.466L35.6276 135.407L38.5679 135.409L38.566 138.349L41.5074 138.351L41.5055 141.291L44.4458 141.293L44.444 144.233L47.3843 144.235L47.3824 147.176L50.3228 147.178L50.3209 150.118L53.2612 150.12L53.2593 153.061L56.1998 153.062L56.1979 156.003L59.1382 156.005L59.1325 164.826L56.1919 164.824L56.19 167.765L53.2497 167.763L53.2478 170.703L50.3072 170.701L50.3053 173.642L47.365 173.64L47.3631 176.58L44.4225 176.579L44.4206 179.519L41.4801 179.517L41.4782 182.457L38.5378 182.456L38.536 185.396L35.5953 185.394L35.5934 188.335L28.2423 188.33L28.2451 183.919L34.1262 183.923L34.1281 180.983L37.0684 180.984L37.0703 178.044L40.0109 178.046L40.0128 175.105L42.9534 175.107L42.9553 172.167L45.8956 172.169L45.8975 169.229L48.8381 169.23L48.84 166.29L51.7802 166.292L51.7821 163.351L54.7228 163.353L54.7266 157.472L51.7862 157.47L51.7881 154.53L48.8476 154.528L48.8495 151.588L45.9093 151.586L45.9112 148.645L42.9708 148.643L42.9727 145.703L40.0323 145.701L40.0342 142.761L37.0938 142.759L37.0957 139.818L34.1544 139.816L34.1563 136.876L28.2755 136.872L28.2783 132.461Z" fill="#F69722"/>
<path fill-rule="evenodd" clip-rule="evenodd" d="M35.6299 132.466L28.2787 132.461L28.2768 135.402L25.3363 135.4L25.3344 138.34L22.3941 138.338L22.3922 141.279L19.4516 141.277L19.4497 144.218L16.5091 144.216L16.5072 147.156L13.5669 147.154L13.565 150.095L10.6245 150.093L10.6226 153.033L7.68227 153.031L7.68038 155.972L4.73976 155.97L4.73408 164.791L7.6743 164.793L7.67241 167.734L10.6138 167.735L10.6119 170.676L13.5513 170.678L13.5494 173.618L16.4907 173.62L16.4888 176.561L19.4292 176.563L19.4273 179.503L22.3676 179.505L22.3657 182.445L25.3061 182.447L25.3042 185.388L28.2445 185.39L28.2426 188.33L35.5937 188.335L35.5966 183.924L29.7159 183.92L29.7178 180.98L26.7773 180.978L26.7792 178.038L23.8389 178.036L23.8408 175.095L20.9005 175.093L20.9023 172.153L17.961 172.151L17.9629 169.21L15.0235 169.209L15.0254 166.268L12.084 166.266L12.0859 163.326L9.14571 163.324L9.1495 157.443L12.0901 157.445L12.092 154.504L15.0323 154.506L15.0342 151.566L17.9748 151.568L17.9767 148.627L20.917 148.629L20.9188 145.689L23.8595 145.691L23.8614 142.75L26.802 142.752L26.8039 139.812L29.7441 139.813L29.746 136.873L35.627 136.877L35.6299 132.466Z" fill="#F69722"/>
<rect x="28.2627" y="157.455" width="7.35115" height="7.35115" transform="rotate(0.0369024 28.2627 157.455)" fill="#F69722"/>
<path fill-rule="evenodd" clip-rule="evenodd" d="M156.221 132.82L163.572 132.825L163.57 135.766L166.51 135.767L166.509 138.708L169.449 138.71L169.447 141.65L172.387 141.652L172.385 144.593L175.326 144.595L175.324 147.535L178.264 147.537L178.262 150.478L181.204 150.479L181.202 153.42L184.141 153.422L184.139 156.362L187.081 156.364L187.075 165.186L184.134 165.184L184.132 168.124L181.192 168.122L181.19 171.063L178.25 171.061L178.248 174.001L175.307 173.999L175.305 176.94L172.365 176.938L172.363 179.878L169.422 179.876L169.421 182.817L166.48 182.815L166.478 185.755L163.538 185.753L163.536 188.694L156.185 188.689L156.188 184.279L162.068 184.282L162.07 181.342L165.011 181.344L165.013 178.403L167.953 178.405L167.955 175.465L170.896 175.467L170.897 172.526L173.838 172.528L173.84 169.588L176.78 169.59L176.782 166.649L179.723 166.651L179.725 163.71L182.665 163.712L182.669 157.832L179.728 157.83L179.73 154.889L176.79 154.887L176.792 151.947L173.851 151.945L173.853 149.004L170.912 149.002L170.914 146.062L167.974 146.06L167.976 143.12L165.035 143.118L165.037 140.177L162.097 140.175L162.099 137.235L156.218 137.231L156.221 132.82Z" fill="#9C4A9A"/>
<path fill-rule="evenodd" clip-rule="evenodd" d="M163.572 132.826L156.221 132.821L156.219 135.761L153.279 135.759L153.277 138.7L150.336 138.698L150.334 141.638L147.394 141.637L147.392 144.577L144.451 144.575L144.45 147.516L141.509 147.514L141.507 150.454L138.567 150.452L138.565 153.393L135.625 153.391L135.623 156.331L132.682 156.329L132.676 165.151L135.617 165.153L135.615 168.093L138.556 168.095L138.554 171.036L141.494 171.038L141.492 173.978L144.433 173.98L144.431 176.92L147.372 176.922L147.37 179.862L150.31 179.864L150.308 182.805L153.249 182.807L153.247 185.747L156.187 185.749L156.185 188.69L163.536 188.694L163.539 184.284L157.658 184.28L157.66 181.339L154.72 181.337L154.722 178.397L151.781 178.395L151.783 175.455L148.843 175.453L148.845 172.512L145.903 172.51L145.905 169.57L142.966 169.568L142.968 166.628L140.026 166.626L140.028 163.686L137.088 163.684L137.092 157.803L140.032 157.804L140.034 154.864L142.975 154.866L142.977 151.925L145.917 151.927L145.919 148.987L148.859 148.989L148.861 146.048L151.802 146.05L151.804 143.11L154.744 143.112L154.746 140.171L157.687 140.173L157.688 137.233L163.569 137.236L163.572 132.826Z" fill="#9C4A9A"/>
<rect x="156.205" y="157.814" width="7.35115" height="7.35115" transform="rotate(0.0369024 156.205 157.814)" fill="#9C4A9A"/>
</g>
</svg>
