<svg width="1000" height="118" viewBox="0 0 1000 118" fill="none" xmlns="http://www.w3.org/2000/svg">
<rect width="659" height="117" transform="matrix(1 0 0 -1 55 117)" fill="#EEEEEE"/>
<path d="M0 0L0 117H41.6667L41.6667 0L0 0Z" fill="#E62C20"/>
<path d="M999.666 0.000976562V117H957.999V0.000976562L999.666 0.000976562Z" fill="#E62C20"/>
<path d="M724 59V117L950 117V59L724 59Z" fill="#E62C20"/>
<rect x="55" width="659" height="117" fill="url(#paint0_linear_1110_6)"/>
<path d="M756.54 95.24C755.567 95.24 754.6 95.1133 753.64 94.86C752.693 94.5933 751.88 94.22 751.2 93.74L752.48 91.26C753.013 91.6467 753.627 91.9533 754.32 92.18C755.027 92.4067 755.74 92.52 756.46 92.52C757.273 92.52 757.913 92.36 758.38 92.04C758.847 91.72 759.08 91.2733 759.08 90.7C759.08 90.34 758.987 90.02 758.8 89.74C758.613 89.46 758.28 89.2467 757.8 89.1C757.333 88.9533 756.673 88.88 755.82 88.88H752.24L752.96 81H761.5V83.6H754.12L755.8 82.12L755.3 87.74L753.62 86.26H756.58C757.967 86.26 759.08 86.4533 759.92 86.84C760.773 87.2133 761.393 87.7267 761.78 88.38C762.167 89.0333 762.36 89.7733 762.36 90.6C762.36 91.4267 762.153 92.1933 761.74 92.9C761.327 93.5933 760.687 94.16 759.82 94.6C758.967 95.0267 757.873 95.24 756.54 95.24ZM774.819 95.24C773.699 95.24 772.625 95.0933 771.599 94.8C770.572 94.4933 769.745 94.1 769.119 93.62L770.219 91.18C770.819 91.6067 771.525 91.96 772.339 92.24C773.165 92.5067 773.999 92.64 774.839 92.64C775.479 92.64 775.992 92.58 776.379 92.46C776.779 92.3267 777.072 92.1467 777.259 91.92C777.445 91.6933 777.539 91.4333 777.539 91.14C777.539 90.7667 777.392 90.4733 777.099 90.26C776.805 90.0333 776.419 89.8533 775.939 89.72C775.459 89.5733 774.925 89.44 774.339 89.32C773.765 89.1867 773.185 89.0267 772.599 88.84C772.025 88.6533 771.499 88.4133 771.019 88.12C770.539 87.8267 770.145 87.44 769.839 86.96C769.545 86.48 769.399 85.8667 769.399 85.12C769.399 84.32 769.612 83.5933 770.039 82.94C770.479 82.2733 771.132 81.7467 771.999 81.36C772.879 80.96 773.979 80.76 775.299 80.76C776.179 80.76 777.045 80.8667 777.899 81.08C778.752 81.28 779.505 81.5867 780.159 82L779.159 84.46C778.505 84.0867 777.852 83.8133 777.199 83.64C776.545 83.4533 775.905 83.36 775.279 83.36C774.652 83.36 774.139 83.4333 773.739 83.58C773.339 83.7267 773.052 83.92 772.879 84.16C772.705 84.3867 772.619 84.6533 772.619 84.96C772.619 85.32 772.765 85.6133 773.059 85.84C773.352 86.0533 773.739 86.2267 774.219 86.36C774.699 86.4933 775.225 86.6267 775.799 86.76C776.385 86.8933 776.965 87.0467 777.539 87.22C778.125 87.3933 778.659 87.6267 779.139 87.92C779.619 88.2133 780.005 88.6 780.299 89.08C780.605 89.56 780.759 90.1667 780.759 90.9C780.759 91.6867 780.539 92.4067 780.099 93.06C779.659 93.7133 778.999 94.24 778.119 94.64C777.252 95.04 776.152 95.24 774.819 95.24ZM788.093 95.16C786.866 95.16 785.786 94.92 784.853 94.44C783.933 93.96 783.219 93.3067 782.713 92.48C782.206 91.64 781.953 90.6867 781.953 89.62C781.953 88.54 782.199 87.5867 782.693 86.76C783.199 85.92 783.886 85.2667 784.753 84.8C785.619 84.32 786.599 84.08 787.693 84.08C788.746 84.08 789.693 84.3067 790.533 84.76C791.386 85.2 792.059 85.84 792.553 86.68C793.046 87.5067 793.293 88.5 793.293 89.66C793.293 89.78 793.286 89.92 793.273 90.08C793.259 90.2267 793.246 90.3667 793.233 90.5H784.493V88.68H791.592L790.393 89.22C790.393 88.66 790.279 88.1733 790.053 87.76C789.826 87.3467 789.513 87.0267 789.113 86.8C788.713 86.56 788.246 86.44 787.713 86.44C787.179 86.44 786.706 86.56 786.293 86.8C785.893 87.0267 785.579 87.3533 785.353 87.78C785.126 88.1933 785.013 88.6867 785.013 89.26V89.74C785.013 90.3267 785.139 90.8467 785.393 91.3C785.659 91.74 786.026 92.08 786.493 92.32C786.973 92.5467 787.533 92.66 788.173 92.66C788.746 92.66 789.246 92.5733 789.673 92.4C790.113 92.2267 790.513 91.9667 790.873 91.62L792.533 93.42C792.039 93.98 791.419 94.4133 790.673 94.72C789.926 95.0133 789.066 95.16 788.093 95.16ZM801.73 95.16C800.823 95.16 800.03 94.96 799.35 94.56C798.67 94.16 798.136 93.5533 797.75 92.74C797.376 91.9133 797.19 90.8733 797.19 89.62C797.19 88.3533 797.37 87.3133 797.73 86.5C798.09 85.6867 798.61 85.08 799.29 84.68C799.97 84.28 800.783 84.08 801.73 84.08C802.743 84.08 803.65 84.3133 804.45 84.78C805.263 85.2333 805.903 85.8733 806.37 86.7C806.85 87.5267 807.09 88.5 807.09 89.62C807.09 90.7533 806.85 91.7333 806.37 92.56C805.903 93.3867 805.263 94.0267 804.45 94.48C803.65 94.9333 802.743 95.16 801.73 95.16ZM795.37 98.88V84.24H798.35V86.44L798.29 89.64L798.49 92.82V98.88H795.37ZM801.19 92.6C801.71 92.6 802.17 92.48 802.57 92.24C802.983 92 803.31 91.66 803.55 91.22C803.803 90.7667 803.93 90.2333 803.93 89.62C803.93 88.9933 803.803 88.46 803.55 88.02C803.31 87.58 802.983 87.24 802.57 87C802.17 86.76 801.71 86.64 801.19 86.64C800.67 86.64 800.203 86.76 799.79 87C799.376 87.24 799.05 87.58 798.81 88.02C798.57 88.46 798.45 88.9933 798.45 89.62C798.45 90.2333 798.57 90.7667 798.81 91.22C799.05 91.66 799.376 92 799.79 92.24C800.203 92.48 800.67 92.6 801.19 92.6ZM813.578 95.16C812.312 95.16 811.325 94.84 810.618 94.2C809.912 93.5467 809.558 92.58 809.558 91.3V81.86H812.678V91.26C812.678 91.7133 812.798 92.0667 813.038 92.32C813.278 92.56 813.605 92.68 814.018 92.68C814.512 92.68 814.932 92.5467 815.278 92.28L816.118 94.48C815.798 94.7067 815.412 94.88 814.958 95C814.518 95.1067 814.058 95.16 813.578 95.16ZM807.898 86.88V84.48H815.358V86.88H807.898ZM822.878 95.16C821.651 95.16 820.571 94.92 819.638 94.44C818.718 93.96 818.004 93.3067 817.498 92.48C816.991 91.64 816.738 90.6867 816.738 89.62C816.738 88.54 816.984 87.5867 817.478 86.76C817.984 85.92 818.671 85.2667 819.538 84.8C820.404 84.32 821.384 84.08 822.478 84.08C823.531 84.08 824.478 84.3067 825.318 84.76C826.171 85.2 826.844 85.84 827.338 86.68C827.831 87.5067 828.078 88.5 828.078 89.66C828.078 89.78 828.071 89.92 828.058 90.08C828.044 90.2267 828.031 90.3667 828.018 90.5H819.278V88.68H826.378L825.178 89.22C825.178 88.66 825.064 88.1733 824.838 87.76C824.611 87.3467 824.298 87.0267 823.898 86.8C823.498 86.56 823.031 86.44 822.498 86.44C821.964 86.44 821.491 86.56 821.078 86.8C820.678 87.0267 820.364 87.3533 820.138 87.78C819.911 88.1933 819.798 88.6867 819.798 89.26V89.74C819.798 90.3267 819.924 90.8467 820.178 91.3C820.444 91.74 820.811 92.08 821.278 92.32C821.758 92.5467 822.318 92.66 822.958 92.66C823.531 92.66 824.031 92.5733 824.458 92.4C824.898 92.2267 825.298 91.9667 825.658 91.62L827.318 93.42C826.824 93.98 826.204 94.4133 825.458 94.72C824.711 95.0133 823.851 95.16 822.878 95.16ZM843.935 84.08C844.788 84.08 845.542 84.2533 846.195 84.6C846.862 84.9333 847.382 85.4533 847.755 86.16C848.142 86.8533 848.335 87.7467 848.335 88.84V95H845.215V89.32C845.215 88.4533 845.035 87.8133 844.675 87.4C844.315 86.9867 843.808 86.78 843.155 86.78C842.702 86.78 842.295 86.8867 841.935 87.1C841.575 87.3 841.295 87.6067 841.095 88.02C840.895 88.4333 840.795 88.96 840.795 89.6V95H837.675V89.32C837.675 88.4533 837.495 87.8133 837.135 87.4C836.788 86.9867 836.288 86.78 835.635 86.78C835.182 86.78 834.775 86.8867 834.415 87.1C834.055 87.3 833.775 87.6067 833.575 88.02C833.375 88.4333 833.275 88.96 833.275 89.6V95H830.155V84.24H833.135V87.18L832.575 86.32C832.948 85.5867 833.475 85.0333 834.155 84.66C834.848 84.2733 835.635 84.08 836.515 84.08C837.502 84.08 838.362 84.3333 839.095 84.84C839.842 85.3333 840.335 86.0933 840.575 87.12L839.475 86.82C839.835 85.98 840.408 85.3133 841.195 84.82C841.995 84.3267 842.908 84.08 843.935 84.08ZM857.491 95.16C856.545 95.16 855.731 94.96 855.051 94.56C854.371 94.16 853.851 93.5533 853.491 92.74C853.131 91.9133 852.951 90.8733 852.951 89.62C852.951 88.3533 853.138 87.3133 853.511 86.5C853.898 85.6867 854.431 85.08 855.111 84.68C855.791 84.28 856.585 84.08 857.491 84.08C858.505 84.08 859.411 84.3067 860.211 84.76C861.025 85.2133 861.665 85.8533 862.131 86.68C862.611 87.5067 862.851 88.4867 862.851 89.62C862.851 90.74 862.611 91.7133 862.131 92.54C861.665 93.3667 861.025 94.0133 860.211 94.48C859.411 94.9333 858.505 95.16 857.491 95.16ZM851.131 95V80.16H854.251V86.42L854.051 89.6L854.111 92.8V95H851.131ZM856.951 92.6C857.471 92.6 857.931 92.48 858.331 92.24C858.745 92 859.071 91.66 859.311 91.22C859.565 90.7667 859.691 90.2333 859.691 89.62C859.691 88.9933 859.565 88.46 859.311 88.02C859.071 87.58 858.745 87.24 858.331 87C857.931 86.76 857.471 86.64 856.951 86.64C856.431 86.64 855.965 86.76 855.551 87C855.138 87.24 854.811 87.58 854.571 88.02C854.331 88.46 854.211 88.9933 854.211 89.62C854.211 90.2333 854.331 90.7667 854.571 91.22C854.811 91.66 855.138 92 855.551 92.24C855.965 92.48 856.431 92.6 856.951 92.6ZM870.28 95.16C869.053 95.16 867.973 94.92 867.04 94.44C866.12 93.96 865.407 93.3067 864.9 92.48C864.393 91.64 864.14 90.6867 864.14 89.62C864.14 88.54 864.387 87.5867 864.88 86.76C865.387 85.92 866.073 85.2667 866.94 84.8C867.807 84.32 868.787 84.08 869.88 84.08C870.933 84.08 871.88 84.3067 872.72 84.76C873.573 85.2 874.247 85.84 874.74 86.68C875.233 87.5067 875.48 88.5 875.48 89.66C875.48 89.78 875.473 89.92 875.46 90.08C875.447 90.2267 875.433 90.3667 875.42 90.5H866.68V88.68H873.78L872.58 89.22C872.58 88.66 872.467 88.1733 872.24 87.76C872.013 87.3467 871.7 87.0267 871.3 86.8C870.9 86.56 870.433 86.44 869.9 86.44C869.367 86.44 868.893 86.56 868.48 86.8C868.08 87.0267 867.767 87.3533 867.54 87.78C867.313 88.1933 867.2 88.6867 867.2 89.26V89.74C867.2 90.3267 867.327 90.8467 867.58 91.3C867.847 91.74 868.213 92.08 868.68 92.32C869.16 92.5467 869.72 92.66 870.36 92.66C870.933 92.66 871.433 92.5733 871.86 92.4C872.3 92.2267 872.7 91.9667 873.06 91.62L874.72 93.42C874.227 93.98 873.607 94.4133 872.86 94.72C872.113 95.0133 871.253 95.16 870.28 95.16ZM877.557 95V84.24H880.537V87.28L880.117 86.4C880.437 85.64 880.951 85.0667 881.657 84.68C882.364 84.28 883.224 84.08 884.237 84.08V86.96C884.104 86.9467 883.984 86.94 883.877 86.94C883.771 86.9267 883.657 86.92 883.537 86.92C882.684 86.92 881.991 87.1667 881.457 87.66C880.937 88.14 880.677 88.8933 880.677 89.92V95H877.557ZM891.055 95V92.9L896.455 87.8C896.881 87.4133 897.195 87.0667 897.395 86.76C897.595 86.4533 897.728 86.1733 897.795 85.92C897.875 85.6667 897.915 85.4333 897.915 85.22C897.915 84.66 897.721 84.2333 897.335 83.94C896.961 83.6333 896.408 83.48 895.675 83.48C895.088 83.48 894.541 83.5933 894.035 83.82C893.541 84.0467 893.121 84.4 892.775 84.88L890.415 83.36C890.948 82.56 891.695 81.9267 892.655 81.46C893.615 80.9933 894.721 80.76 895.975 80.76C897.015 80.76 897.921 80.9333 898.695 81.28C899.481 81.6133 900.088 82.0867 900.515 82.7C900.955 83.3133 901.175 84.0467 901.175 84.9C901.175 85.3533 901.115 85.8067 900.995 86.26C900.888 86.7 900.661 87.1667 900.315 87.66C899.981 88.1533 899.488 88.7067 898.835 89.32L894.355 93.54L893.735 92.36H901.635V95H891.055ZM908.971 95.24C907.825 95.24 906.798 94.96 905.891 94.4C904.985 93.8267 904.271 93 903.751 91.92C903.231 90.84 902.971 89.5333 902.971 88C902.971 86.4667 903.231 85.16 903.751 84.08C904.271 83 904.985 82.18 905.891 81.62C906.798 81.0467 907.825 80.76 908.971 80.76C910.131 80.76 911.158 81.0467 912.051 81.62C912.958 82.18 913.671 83 914.191 84.08C914.711 85.16 914.971 86.4667 914.971 88C914.971 89.5333 914.711 90.84 914.191 91.92C913.671 93 912.958 93.8267 912.051 94.4C911.158 94.96 910.131 95.24 908.971 95.24ZM908.971 92.5C909.518 92.5 909.991 92.3467 910.391 92.04C910.805 91.7333 911.125 91.2467 911.351 90.58C911.591 89.9133 911.711 89.0533 911.711 88C911.711 86.9467 911.591 86.0867 911.351 85.42C911.125 84.7533 910.805 84.2667 910.391 83.96C909.991 83.6533 909.518 83.5 908.971 83.5C908.438 83.5 907.965 83.6533 907.551 83.96C907.151 84.2667 906.831 84.7533 906.591 85.42C906.365 86.0867 906.251 86.9467 906.251 88C906.251 89.0533 906.365 89.9133 906.591 90.58C906.831 91.2467 907.151 91.7333 907.551 92.04C907.965 92.3467 908.438 92.5 908.971 92.5ZM916.347 95V92.9L921.748 87.8C922.174 87.4133 922.488 87.0667 922.688 86.76C922.888 86.4533 923.021 86.1733 923.088 85.92C923.168 85.6667 923.208 85.4333 923.208 85.22C923.208 84.66 923.014 84.2333 922.628 83.94C922.254 83.6333 921.701 83.48 920.967 83.48C920.381 83.48 919.834 83.5933 919.328 83.82C918.834 84.0467 918.414 84.4 918.068 84.88L915.708 83.36C916.241 82.56 916.988 81.9267 917.948 81.46C918.908 80.9933 920.014 80.76 921.268 80.76C922.308 80.76 923.214 80.9333 923.988 81.28C924.774 81.6133 925.381 82.0867 925.808 82.7C926.248 83.3133 926.468 84.0467 926.468 84.9C926.468 85.3533 926.408 85.8067 926.288 86.26C926.181 86.7 925.954 87.1667 925.608 87.66C925.274 88.1533 924.781 88.7067 924.128 89.32L919.648 93.54L919.028 92.36H926.928V95H916.347ZM928.144 95V92.9L933.544 87.8C933.971 87.4133 934.284 87.0667 934.484 86.76C934.684 86.4533 934.818 86.1733 934.884 85.92C934.964 85.6667 935.004 85.4333 935.004 85.22C935.004 84.66 934.811 84.2333 934.424 83.94C934.051 83.6333 933.498 83.48 932.764 83.48C932.178 83.48 931.631 83.5933 931.124 83.82C930.631 84.0467 930.211 84.4 929.864 84.88L927.504 83.36C928.038 82.56 928.784 81.9267 929.744 81.46C930.704 80.9933 931.811 80.76 933.064 80.76C934.104 80.76 935.011 80.9333 935.784 81.28C936.571 81.6133 937.178 82.0867 937.604 82.7C938.044 83.3133 938.264 84.0467 938.264 84.9C938.264 85.3533 938.204 85.8067 938.084 86.26C937.978 86.7 937.751 87.1667 937.404 87.66C937.071 88.1533 936.578 88.7067 935.924 89.32L931.444 93.54L930.824 92.36H938.724V95H928.144Z" fill="#EEEEEE"/>
<rect x="724" width="226" height="53" fill="#E62C20"/>
<path d="M806.764 17.4H811.3V37H806.764V17.4ZM797.86 37H793.324V17.4H797.86V37ZM807.1 28.964H797.524V25.128H807.1V28.964ZM813.361 37L822.097 17.4H826.577L835.341 37H830.581L823.413 19.696H825.205L818.009 37H813.361ZM817.729 32.8L818.933 29.356H829.013L830.245 32.8H817.729ZM837.375 37V17.4H846.951C849.415 17.4 851.263 17.8667 852.495 18.8C853.745 19.7333 854.371 20.9653 854.371 22.496C854.371 23.5227 854.119 24.4187 853.615 25.184C853.111 25.9307 852.42 26.5093 851.543 26.92C850.665 27.3307 849.657 27.536 848.519 27.536L849.051 26.388C850.283 26.388 851.375 26.5933 852.327 27.004C853.279 27.396 854.016 27.984 854.539 28.768C855.08 29.552 855.351 30.5133 855.351 31.652C855.351 33.332 854.688 34.648 853.363 35.6C852.037 36.5333 850.087 37 847.511 37H837.375ZM841.883 33.584H847.175C848.351 33.584 849.237 33.3973 849.835 33.024C850.451 32.632 850.759 32.016 850.759 31.176C850.759 30.3547 850.451 29.748 849.835 29.356C849.237 28.9453 848.351 28.74 847.175 28.74H841.547V25.436H846.391C847.492 25.436 848.332 25.2493 848.911 24.876C849.508 24.484 849.807 23.896 849.807 23.112C849.807 22.3467 849.508 21.7773 848.911 21.404C848.332 21.012 847.492 20.816 846.391 20.816H841.883V33.584ZM858.785 37V17.4H863.321V37H858.785ZM874.412 37.336C872.844 37.336 871.342 37.1307 869.904 36.72C868.467 36.2907 867.31 35.74 866.432 35.068L867.972 31.652C868.812 32.2493 869.802 32.744 870.94 33.136C872.098 33.5093 873.264 33.696 874.44 33.696C875.336 33.696 876.055 33.612 876.596 33.444C877.156 33.2573 877.567 33.0053 877.828 32.688C878.09 32.3707 878.22 32.0067 878.22 31.596C878.22 31.0733 878.015 30.6627 877.604 30.364C877.194 30.0467 876.652 29.7947 875.98 29.608C875.308 29.4027 874.562 29.216 873.74 29.048C872.938 28.8613 872.126 28.6373 871.304 28.376C870.502 28.1147 869.764 27.7787 869.092 27.368C868.42 26.9573 867.87 26.416 867.44 25.744C867.03 25.072 866.824 24.2133 866.824 23.168C866.824 22.048 867.123 21.0307 867.72 20.116C868.336 19.1827 869.251 18.4453 870.464 17.904C871.696 17.344 873.236 17.064 875.084 17.064C876.316 17.064 877.53 17.2133 878.724 17.512C879.919 17.792 880.974 18.2213 881.888 18.8L880.488 22.244C879.574 21.7213 878.659 21.3387 877.744 21.096C876.83 20.8347 875.934 20.704 875.056 20.704C874.179 20.704 873.46 20.8067 872.9 21.012C872.34 21.2173 871.939 21.488 871.696 21.824C871.454 22.1413 871.332 22.5147 871.332 22.944C871.332 23.448 871.538 23.8587 871.948 24.176C872.359 24.4747 872.9 24.7173 873.572 24.904C874.244 25.0907 874.982 25.2773 875.784 25.464C876.606 25.6507 877.418 25.8653 878.22 26.108C879.042 26.3507 879.788 26.6773 880.46 27.088C881.132 27.4987 881.674 28.04 882.084 28.712C882.514 29.384 882.728 30.2333 882.728 31.26C882.728 32.3613 882.42 33.3693 881.804 34.284C881.188 35.1987 880.264 35.936 879.032 36.496C877.819 37.056 876.279 37.336 874.412 37.336Z" fill="#EEEEEE"/>
<g opacity="0.75">
<path d="M446.048 73.8592L446.121 75.5081L444.566 77.332L443 78.7438C440.176 81.2906 437.049 86.9007 437.049 89.4207C437.049 90.6926 436.815 91.258 436.287 91.258C435.868 91.258 434.694 91.7228 433.679 92.2908C431.525 93.496 430.828 93.5828 430.828 92.6466C430.828 92.2738 430.419 91.5049 429.921 90.9379C428.711 89.5622 427.199 86.7055 427.199 85.7941C427.199 85.3913 427.021 85.0613 426.803 85.0613C426.586 85.0613 426.178 84.6064 425.896 84.0502C425.615 83.4941 424.393 81.1326 423.181 78.8021C420.862 74.3421 420.512 72.6633 421.698 71.6832C422.232 71.2416 422.306 70.5957 421.985 69.1807C421.196 65.693 418.749 64.9975 416.201 67.536C415.014 68.7181 414.762 69.2649 415.204 69.7049C415.528 70.0281 415.794 71.0594 415.794 71.9966C415.794 72.9339 416.027 73.7007 416.312 73.7007C416.597 73.7007 416.831 74.2817 416.831 74.9917C416.831 75.7952 417.125 76.2827 417.608 76.2827C418.036 76.2827 418.386 76.6116 418.386 77.0144C418.386 77.4167 418.561 77.8231 418.775 77.9181C419.308 78.1535 420.978 81.8215 420.978 82.7551C420.978 83.1713 421.156 83.5122 421.374 83.5122C421.779 83.5122 423.57 87.2704 423.57 88.1204C423.57 88.3786 423.745 88.6673 423.959 88.7623C424.173 88.8568 424.748 89.7971 425.237 90.8516C426.077 92.6605 426.077 92.8185 425.24 93.652C424.579 94.3099 424.352 95.4227 424.35 98.017C424.349 99.9323 424.173 101.674 423.959 101.887C423.248 102.595 423.58 104.925 424.575 106.215C425.54 107.466 425.539 107.511 424.51 108.95C423.6 110.224 423.547 110.612 424.104 111.951C424.658 113.283 424.613 113.643 423.768 114.638C423.232 115.27 422.652 115.903 422.481 116.045C422.31 116.187 422.037 116.652 421.874 117.078L712.639 117.551C712.505 117.149 712.29 110.661 712.161 103.135C712.032 95.6086 711.686 88.7535 711.393 87.9015C711.1 87.0494 710.455 85.0742 709.96 83.5122C709.466 81.9501 708.688 80.3214 708.233 79.8933C706.864 78.6064 704.642 77.3155 703.794 77.3155C703.356 77.3155 702.998 77.1089 702.998 76.8564C702.998 76.6044 702.182 76.245 701.184 76.0586C700.186 75.8722 699.369 75.4977 699.369 75.2266C699.369 74.9555 699.116 74.7335 698.806 74.7335C697.407 74.7335 693.523 71.2654 692.558 69.1534C691.538 66.9246 691.592 64.2699 692.67 63.6063C692.933 63.4447 693.148 62.7414 693.148 62.0442C693.148 61.3471 693.437 60.3153 693.792 59.7509C694.304 58.933 694.302 58.5142 693.78 57.6807C693.285 56.8922 693.267 56.3711 693.705 55.5563C695.019 53.1101 693.153 48.4869 690.229 46.9444C684.448 43.8941 680.212 44.4033 675.791 48.68L673.855 50.553L674.195 54.2519C674.382 56.2865 674.522 58.9386 674.505 60.1454C674.489 61.3522 674.711 62.3401 674.999 62.3401C675.287 62.3401 675.522 62.8818 675.522 63.5438C675.522 64.2879 676 65.0026 676.774 65.4152C678.336 66.2476 678.629 67.329 678.26 70.891C678.065 72.7738 677.736 73.7007 677.264 73.7007C676.876 73.7007 676.559 73.9088 676.559 74.1629C676.559 74.4169 674.576 75.6031 672.152 76.7991C669.729 77.995 667.746 79.1812 667.746 79.4352C667.746 79.6893 667.435 79.8974 667.056 79.8974C666.403 79.8974 666.036 80.4706 664.743 83.5122C664.442 84.2222 664.051 87.54 663.875 90.8852C663.698 94.2298 663.346 97.4831 663.091 98.1147L662.627 99.2621L662.594 98.111C662.561 96.9517 660.471 90.3688 659.307 87.7585C658.963 86.9849 658.253 85.8876 657.73 85.3195C657.207 84.7515 656.425 83.695 655.992 82.972C655.559 82.2491 654.411 81.1156 653.44 80.4525C652.469 79.79 651.675 79.0454 651.675 78.798C651.675 78.5507 651.266 78.3488 650.767 78.3498C650.269 78.3503 648.927 77.9057 647.786 77.3609C646.646 76.8161 645.051 76.1143 644.241 75.8009L642.77 75.2308L643.853 73.4033C644.646 72.0648 644.935 70.6948 644.935 68.2796C644.935 66.4666 645.162 64.8431 645.44 64.6727C646.371 64.0989 646.985 60.6076 646.516 58.5575C646.03 56.4347 645.191 55.5759 642.343 54.2829C641.345 53.8295 639.68 53.0172 638.644 52.4776C636.451 51.3358 635.175 51.2537 633.165 52.1238C631.511 52.8401 626.292 58.1377 626.28 59.1127C626.276 59.4679 626.039 59.7581 625.754 59.7581C625.468 59.7581 625.236 60.8617 625.236 62.211C625.236 64.0819 625.544 65.0197 626.532 66.1645C627.245 66.9897 627.832 68.0354 627.839 68.4883C627.845 68.9406 628.306 69.8923 628.864 70.6024C629.422 71.3124 629.875 72.2419 629.87 72.6679C629.861 73.7441 626.364 76.2827 624.893 76.2827C624.226 76.2827 623.68 76.515 623.68 76.7991C623.68 77.0831 623.205 77.3155 622.625 77.3155C621.587 77.3155 619.413 78.4825 618.07 79.7616C617.693 80.1205 617.227 80.4148 617.033 80.4164C616.839 80.4174 615.936 81.1145 615.024 81.9656C613.105 83.7579 612.275 83.9222 612.275 82.5098C612.275 81.9583 612.074 81.3841 611.828 81.2328C611.583 81.0815 611.224 79.3831 611.032 77.4585C610.571 72.8451 610.573 73.2623 610.995 70.5223C611.32 68.4098 611.201 67.9027 610.006 66.3421C608.983 65.0062 608.646 63.9636 608.646 62.132C608.646 60.6401 608.445 59.8206 608.127 60.0164C607.842 60.1919 607.609 61.0001 607.609 61.8118C607.609 63.5991 607.144 64.9221 606.517 64.9221C606.262 64.9221 606.054 64.5735 606.054 64.1475C606.054 63.7215 605.82 63.3729 605.535 63.3729C605.25 63.3729 605.017 62.9081 605.017 62.3401C605.017 61.3388 604.468 60.9939 603.851 61.6079C603.686 61.7726 603.88 62.6949 604.283 63.6564C604.687 64.6184 605.017 66.6716 605.017 68.2192C605.017 69.8386 605.264 71.1146 605.598 71.2257C606.265 71.4472 606.563 83.1625 605.918 83.8132C605.702 84.0322 605.06 83.7156 604.493 83.1088C603.725 82.2883 603.462 81.2875 603.462 79.1977C603.462 76.6514 603.298 76.246 601.7 74.8492C600.001 73.363 599.926 73.1384 599.577 68.4697C598.994 60.6825 598.967 59.1968 599.403 58.9283C599.63 58.7889 599.768 56.1166 599.71 52.9893C599.598 47.0043 599.192 46.5778 597.65 50.8261C596.843 53.0502 596.305 52.9831 596.105 50.632C596.017 49.5889 595.642 48.6366 595.273 48.5158C594.734 48.3392 594.657 49.9003 594.883 56.398C595.038 60.8545 595.299 64.7171 595.463 64.9814C595.627 65.2458 595.46 67.0837 595.092 69.0651C594.454 72.5022 594.357 72.6679 592.981 72.6679C591.393 72.6679 591.133 71.9042 592.286 70.6344C593.035 69.8107 593.301 67.8975 593.165 64.3034C593.091 62.3406 591.853 60.6278 589.599 59.3709C588.214 58.5983 584.99 58.5162 584.539 59.2418C584.363 59.5258 583.862 59.7581 583.425 59.7581C581.757 59.7581 580.686 61.927 580.668 65.3419L580.651 68.6024L578.97 68.4402C576.769 68.2285 576.597 67.1219 578.336 64.3768C579.277 62.8932 579.625 61.7778 579.438 60.8529C578.427 55.8728 577.981 54.3149 577.523 54.161C577.238 54.0644 576.63 53.6131 576.173 53.1576C574.382 51.3745 567.744 52.5628 566.801 54.8354C565.653 57.6022 567.172 65.9548 568.823 65.9548C569.514 65.9548 569.305 67.0026 568.443 67.8608C567.856 68.4459 567.089 68.5729 565.585 68.3333C564.055 68.0896 563.003 68.2745 561.463 69.0563C559.73 69.9373 559.396 69.9801 559.396 69.3217C559.396 68.89 559.617 68.5368 559.888 68.5368C560.159 68.5368 560.349 66.8797 560.311 64.8508C560.257 61.9043 560.027 60.9324 559.172 60.0081C558.582 59.3714 557.68 58.2415 557.168 57.4974C556.427 56.4197 555.817 56.1434 554.181 56.1434C551.969 56.1434 550.594 56.7404 548.439 58.6366L547.072 59.8387L547.335 57.3456C547.479 55.9746 548.013 53.6487 548.52 52.1775C549.259 50.0335 549.298 49.5574 548.717 49.7799C548.317 49.9323 547.99 50.2065 547.99 50.3893C547.99 50.5721 547.406 51.3962 546.694 52.2219L545.399 53.7221V52.3815C545.399 51.6436 545.165 50.8969 544.88 50.7213C544.595 50.5457 544.362 49.9374 544.362 49.3694C544.362 48.8014 544.129 48.4802 543.843 48.6557C543.558 48.8313 543.325 49.5284 543.325 50.2049C543.325 50.8814 543.558 51.5785 543.843 51.7541C544.736 52.3035 544.41 53.4282 543.273 53.7246C542.283 53.9823 542.213 54.2591 542.511 56.7543C542.691 58.2642 542.969 62.0561 543.128 65.1803L543.419 70.8606L542.205 69.7601C540.561 68.2688 537.551 67.6915 534.792 68.339C533.163 68.7206 532.638 69.0661 530.57 71.1188C529.19 72.4887 529.212 72.0669 530.158 79.1228C530.329 80.4009 530.311 81.4466 530.118 81.4466C529.68 81.4466 526.736 78.5434 526.736 78.1122C526.736 77.9387 526.094 77.1342 525.31 76.324C524.526 75.5138 523.508 74.3018 523.049 73.6305C521.845 71.8727 517.89 70.7929 515.807 71.6527C514.473 72.2027 514.101 72.1815 513.435 71.5174C512.726 70.812 512.784 70.5099 513.987 68.6112C514.726 67.4452 515.33 66.2383 515.33 65.928C515.33 65.6182 515.68 65.016 516.108 64.59C516.693 64.0075 516.886 62.5678 516.886 58.7853C516.886 53.9477 516.83 53.7014 515.431 52.3671C514.632 51.6038 513.699 50.9795 513.358 50.9795C513.017 50.9795 512.738 50.7471 512.738 50.4631C512.738 49.766 508.424 49.8027 507.719 50.5055C507.317 50.9062 506.846 50.8705 506.056 50.3789C505.099 49.7835 504.65 49.8548 502.625 50.9248C501.344 51.6018 500.296 52.4362 500.296 52.7791C500.296 53.122 499.928 54.1393 499.477 55.0388C498.725 56.539 498.732 57.0177 499.552 60.7987C500.044 63.0667 500.627 64.9221 500.848 64.9221C501.07 64.9221 501.403 65.6166 501.591 66.4656C501.778 67.314 502.146 68.1413 502.41 68.3034C503.156 68.763 502.976 71.1188 502.194 71.1188C501.405 71.1188 500.296 73.2458 500.296 74.7578C500.296 75.3124 500.063 75.7663 499.778 75.7663C498.95 75.7663 495.112 79.6996 495.112 80.5486C495.112 81.933 493.775 82.6245 492.56 81.8685C491.78 81.3831 491.483 80.6632 491.483 79.2566C491.483 78.1892 491.25 77.3155 490.965 77.3155C490.679 77.3155 490.44 76.3276 490.434 75.1208C490.427 73.914 490.178 71.9966 489.881 70.8606C489.584 69.7245 489.164 67.9817 488.947 66.9876C488.182 63.4695 486.82 61.6874 484.001 60.5141C480.284 58.967 476.796 59.6977 474.189 62.5694C473.24 63.6146 470.228 69.6889 470.228 70.5564C470.228 70.8007 469.879 71.6661 469.453 72.48C469.028 73.2933 468.678 74.4815 468.676 75.1208C468.674 75.7601 468.439 76.2827 468.154 76.2827C467.869 76.2827 467.636 77.5494 467.636 79.097C467.636 81.2276 467.853 82.0332 468.532 82.4112C469.375 82.8806 469.369 82.9761 468.452 83.9862C467.337 85.2131 465.044 85.4434 465.044 84.3286C465.044 82.9364 463.22 80.151 460.737 77.7497C459.264 76.3255 458.036 74.5827 457.732 73.4874C457.45 72.4686 456.996 71.6352 456.725 71.6352C455.869 71.6352 456.184 70.5027 457.527 68.749C458.24 67.818 458.823 66.3638 458.823 65.5159C458.823 64.6685 459.097 63.8841 459.432 63.7731C459.809 63.6481 460.055 62.2973 460.08 60.2245C460.116 57.0993 460.006 56.7677 458.416 55.2196C457.479 54.3076 456.268 53.5615 455.725 53.5615C455.181 53.5615 454.592 53.3291 454.416 53.0451C453.862 52.1527 449.095 52.4362 447.898 53.4324C443.902 56.7564 444.242 55.9622 443.928 62.7289C443.657 68.591 443.708 69.0387 444.808 70.5781C445.45 71.4761 446.008 72.9525 446.048 73.8592Z" fill="black"/>
<path d="M325.264 70.8918C326.548 65.1246 327.238 64.0585 330.124 63.3823C335.447 62.1357 340.083 64.2855 342.642 69.1877C343.535 70.8967 343.694 71.6687 343.689 74.2565C343.686 76.0553 343.392 78.3279 342.974 79.7894C342.584 81.1535 342.189 82.9847 342.096 83.8589C341.95 85.2414 342.058 85.5329 342.923 86.0949C344.51 87.1271 344.875 86.6597 345.411 82.908C346.118 77.9502 346.952 76.541 350.408 74.461C354.198 72.1796 355.992 72.1384 360.009 74.2413C363.32 75.9744 364.504 77.353 365.117 80.1866C365.449 81.7244 365.9 82.5642 366.86 83.4369C368.285 84.7327 368.436 85.4608 367.591 86.9806C367.282 87.5377 366.75 89.0235 366.41 90.2827C366.07 91.5419 365.516 93.5754 365.18 94.8014C364.468 97.3988 364.805 98.9907 366.107 99.1762C366.585 99.2445 367.974 98.6057 369.425 97.6499C370.799 96.7459 372.649 95.5771 373.537 95.0525C374.5 94.4835 375.552 93.4052 376.142 92.3814C376.687 91.437 377.622 90.1717 378.22 89.5696C379.511 88.2707 379.501 88.4016 378.581 85.1906C377.145 80.1782 376.882 77.7811 377.372 74.1665C378.066 69.0469 378.506 67.7232 380.118 65.9061C381.827 63.9803 383.668 63 385.576 63C387.436 63 391.895 64.3962 393.656 65.5299C396.341 67.2592 397.666 70.1271 398.366 75.7256L398.598 77.5766L400.011 77.3328C403.872 76.6666 404.36 76.678 407.085 77.4992C413.961 79.5711 416.144 82.1361 416.523 88.5866C416.741 92.3051 416.134 94.9624 414.28 98.4092C412.845 101.078 412.762 103.33 414.056 104.536C414.551 104.998 416.325 105.898 417.998 106.538C419.67 107.176 421.558 108.084 422.193 108.555C423.942 109.851 427.016 111.46 427.745 111.46C428.101 111.46 428.728 111.208 429.139 110.9C430.196 110.107 431.913 110.211 433.924 111.19C436.09 112.245 436.999 114.085 437 117H277C277 117 278.057 113.171 279.367 111.963C282.082 109.457 286.217 109.845 289.452 112.91C290.272 113.686 291.01 114.143 291.092 113.925C291.824 111.979 292.758 110.877 293.774 110.761C295.134 110.605 296.909 109.339 299.7 106.534C302.455 103.767 303.539 102.218 303.539 101.047C303.539 100.491 302.836 99.2544 301.836 98.0486C298.459 93.9798 297.404 88.4512 299.3 84.764C300.2 83.0137 302.679 80.7624 304.588 79.9603C311.872 76.9005 321.798 80.7487 323.138 87.1519C323.381 88.3169 323.825 89.4711 324.124 89.7173C324.87 90.3316 326.57 89.7256 327.475 88.5225C328.183 87.5827 328.177 87.5468 326.851 84.7308C325.018 80.8364 324.349 75.0036 325.264 70.8918Z" fill="black"/>
</g>
<path d="M86.848 39.912H97.984V43.336H86.848V39.912ZM87.168 49.512H99.808V53H83.008V30.6H99.36V34.088H87.168V49.512ZM114.433 53V49.544L114.209 48.808V42.76C114.209 41.5867 113.857 40.68 113.153 40.04C112.449 39.3787 111.383 39.048 109.953 39.048C108.993 39.048 108.044 39.1973 107.105 39.496C106.188 39.7947 105.409 40.2107 104.769 40.744L103.201 37.832C104.119 37.128 105.207 36.6053 106.465 36.264C107.745 35.9013 109.068 35.72 110.433 35.72C112.908 35.72 114.817 36.3173 116.161 37.512C117.527 38.6853 118.209 40.5093 118.209 42.984V53H114.433ZM109.057 53.224C107.777 53.224 106.657 53.0107 105.697 52.584C104.737 52.136 103.991 51.528 103.457 50.76C102.945 49.9707 102.689 49.0853 102.689 48.104C102.689 47.144 102.913 46.28 103.361 45.512C103.831 44.744 104.588 44.136 105.633 43.688C106.679 43.24 108.065 43.016 109.793 43.016H114.753V45.672H110.081C108.716 45.672 107.799 45.896 107.329 46.344C106.86 46.7707 106.625 47.304 106.625 47.944C106.625 48.6693 106.913 49.2453 107.489 49.672C108.065 50.0987 108.865 50.312 109.889 50.312C110.871 50.312 111.745 50.088 112.513 49.64C113.303 49.192 113.868 48.5307 114.209 47.656L114.881 50.056C114.497 51.0587 113.804 51.8373 112.801 52.392C111.82 52.9467 110.572 53.224 109.057 53.224ZM123.343 53V35.912H127.151V40.616L126.703 39.24C127.215 38.088 128.015 37.2133 129.103 36.616C130.212 36.0187 131.588 35.72 133.231 35.72V39.528C133.06 39.4853 132.9 39.464 132.751 39.464C132.601 39.4427 132.452 39.432 132.303 39.432C130.788 39.432 129.583 39.88 128.687 40.776C127.791 41.6507 127.343 42.9627 127.343 44.712V53H123.343ZM136.624 53V29.256H140.624V53H136.624ZM147.282 59.432C146.45 59.432 145.618 59.2933 144.786 59.016C143.954 58.7387 143.261 58.3547 142.706 57.864L144.306 54.92C144.711 55.2827 145.17 55.5707 145.682 55.784C146.194 55.9973 146.717 56.104 147.25 56.104C147.975 56.104 148.562 55.9227 149.01 55.56C149.458 55.1973 149.874 54.5893 150.258 53.736L151.25 51.496L151.57 51.016L158.034 35.912H161.874L153.874 54.376C153.341 55.656 152.743 56.6693 152.082 57.416C151.442 58.1627 150.717 58.6853 149.906 58.984C149.117 59.2827 148.242 59.432 147.282 59.432ZM150.802 53.608L143.09 35.912H147.25L153.522 50.664L150.802 53.608ZM173.602 53V30.6H184.098C186.786 30.6 188.834 31.1333 190.242 32.2C191.65 33.2453 192.354 34.6533 192.354 36.424C192.354 37.6187 192.076 38.6427 191.522 39.496C190.967 40.328 190.22 40.9787 189.282 41.448C188.364 41.896 187.362 42.12 186.274 42.12L186.85 40.968C188.108 40.968 189.239 41.2027 190.242 41.672C191.244 42.12 192.034 42.7813 192.61 43.656C193.207 44.5307 193.506 45.6187 193.506 46.92C193.506 48.84 192.77 50.3333 191.298 51.4C189.826 52.4667 187.639 53 184.738 53H173.602ZM177.762 49.736H184.482C186.039 49.736 187.234 49.48 188.066 48.968C188.898 48.456 189.314 47.6347 189.314 46.504C189.314 45.3947 188.898 44.584 188.066 44.072C187.234 43.5387 186.039 43.272 184.482 43.272H177.442V40.04H183.65C185.1 40.04 186.21 39.784 186.978 39.272C187.767 38.76 188.162 37.992 188.162 36.968C188.162 35.9227 187.767 35.144 186.978 34.632C186.21 34.12 185.1 33.864 183.65 33.864H177.762V49.736ZM197.562 53V35.912H201.562V53H197.562ZM199.578 33.096C198.831 33.096 198.212 32.8613 197.722 32.392C197.252 31.9227 197.018 31.3573 197.018 30.696C197.018 30.0133 197.252 29.448 197.722 29C198.212 28.5307 198.831 28.296 199.578 28.296C200.324 28.296 200.932 28.52 201.402 28.968C201.892 29.3947 202.138 29.9387 202.138 30.6C202.138 31.304 201.903 31.9013 201.434 32.392C200.964 32.8613 200.346 33.096 199.578 33.096ZM206.812 53V35.912H210.62V40.616L210.172 39.24C210.684 38.088 211.484 37.2133 212.572 36.616C213.681 36.0187 215.057 35.72 216.7 35.72V39.528C216.529 39.4853 216.369 39.464 216.22 39.464C216.07 39.4427 215.921 39.432 215.772 39.432C214.257 39.432 213.052 39.88 212.156 40.776C211.26 41.6507 210.812 42.9627 210.812 44.712V53H206.812ZM227.169 53.224C225.526 53.224 224.043 52.8613 222.721 52.136C221.419 51.3893 220.395 50.3653 219.649 49.064C218.902 47.7627 218.529 46.2267 218.529 44.456C218.529 42.6853 218.902 41.1493 219.649 39.848C220.395 38.5467 221.419 37.5333 222.721 36.808C224.043 36.0827 225.526 35.72 227.169 35.72C228.598 35.72 229.878 36.04 231.009 36.68C232.139 37.2987 233.035 38.248 233.697 39.528C234.358 40.808 234.689 42.4507 234.689 44.456C234.689 46.44 234.369 48.0827 233.729 49.384C233.089 50.664 232.203 51.624 231.073 52.264C229.942 52.904 228.641 53.224 227.169 53.224ZM227.649 49.8C228.609 49.8 229.462 49.5867 230.209 49.16C230.977 48.7333 231.585 48.1147 232.033 47.304C232.502 46.4933 232.737 45.544 232.737 44.456C232.737 43.3467 232.502 42.3973 232.033 41.608C231.585 40.7973 230.977 40.1787 230.209 39.752C229.462 39.3253 228.609 39.112 227.649 39.112C226.689 39.112 225.825 39.3253 225.057 39.752C224.31 40.1787 223.702 40.7973 223.233 41.608C222.785 42.3973 222.561 43.3467 222.561 44.456C222.561 45.544 222.785 46.4933 223.233 47.304C223.702 48.1147 224.31 48.7333 225.057 49.16C225.825 49.5867 226.689 49.8 227.649 49.8ZM232.833 53V48.968L232.993 44.424L232.673 39.88V29.256H236.641V53H232.833Z" fill="black"/>
<path d="M82.256 89V72.2H89.168C90.656 72.2 91.928 72.44 92.984 72.92C94.056 73.4 94.88 74.088 95.456 74.984C96.032 75.88 96.32 76.944 96.32 78.176C96.32 79.408 96.032 80.472 95.456 81.368C94.88 82.248 94.056 82.928 92.984 83.408C91.928 83.872 90.656 84.104 89.168 84.104H83.984L85.376 82.688V89H82.256ZM93.248 89L89 82.904H92.336L96.608 89H93.248ZM85.376 83.024L83.984 81.536H89.024C90.4 81.536 91.432 81.24 92.12 80.648C92.824 80.056 93.176 79.232 93.176 78.176C93.176 77.104 92.824 76.28 92.12 75.704C91.432 75.128 90.4 74.84 89.024 74.84H83.984L85.376 73.304V83.024ZM106.627 89.168C105.587 89.168 104.635 88.928 103.771 88.448C102.923 87.968 102.243 87.248 101.731 86.288C101.235 85.312 100.987 84.08 100.987 82.592C100.987 81.088 101.227 79.856 101.707 78.896C102.203 77.936 102.875 77.224 103.723 76.76C104.571 76.28 105.539 76.04 106.627 76.04C107.891 76.04 109.003 76.312 109.963 76.856C110.939 77.4 111.707 78.16 112.267 79.136C112.843 80.112 113.131 81.264 113.131 82.592C113.131 83.92 112.843 85.08 112.267 86.072C111.707 87.048 110.939 87.808 109.963 88.352C109.003 88.896 107.891 89.168 106.627 89.168ZM99.5227 93.656V76.184H102.379V79.208L102.283 82.616L102.523 86.024V93.656H99.5227ZM106.291 86.6C107.011 86.6 107.651 86.44 108.211 86.12C108.787 85.8 109.243 85.336 109.579 84.728C109.915 84.12 110.083 83.408 110.083 82.592C110.083 81.76 109.915 81.048 109.579 80.456C109.243 79.848 108.787 79.384 108.211 79.064C107.651 78.744 107.011 78.584 106.291 78.584C105.571 78.584 104.923 78.744 104.347 79.064C103.771 79.384 103.315 79.848 102.979 80.456C102.643 81.048 102.475 81.76 102.475 82.592C102.475 83.408 102.643 84.12 102.979 84.728C103.315 85.336 103.771 85.8 104.347 86.12C104.923 86.44 105.571 86.6 106.291 86.6ZM128.441 89.24C127.049 89.24 125.841 89.032 124.817 88.616C123.793 88.2 123.001 87.616 122.441 86.864C121.881 86.096 121.601 85.2 121.601 84.176C121.601 83.152 121.873 82.288 122.417 81.584C122.961 80.88 123.745 80.344 124.769 79.976C125.793 79.608 127.017 79.424 128.441 79.424C129.865 79.424 131.089 79.608 132.113 79.976C133.153 80.344 133.945 80.888 134.489 81.608C135.049 82.312 135.329 83.168 135.329 84.176C135.329 85.2 135.041 86.096 134.465 86.864C133.905 87.616 133.105 88.2 132.065 88.616C131.041 89.032 129.833 89.24 128.441 89.24ZM128.441 86.792C129.593 86.792 130.505 86.552 131.177 86.072C131.849 85.592 132.185 84.928 132.185 84.08C132.185 83.248 131.849 82.592 131.177 82.112C130.505 81.632 129.593 81.392 128.441 81.392C127.289 81.392 126.385 81.632 125.729 82.112C125.073 82.592 124.745 83.248 124.745 84.08C124.745 84.928 125.073 85.592 125.729 86.072C126.385 86.552 127.289 86.792 128.441 86.792ZM128.441 81.056C127.145 81.056 126.033 80.888 125.105 80.552C124.177 80.2 123.457 79.696 122.945 79.04C122.449 78.368 122.201 77.568 122.201 76.64C122.201 75.68 122.457 74.856 122.969 74.168C123.497 73.464 124.233 72.92 125.177 72.536C126.121 72.152 127.209 71.96 128.441 71.96C129.689 71.96 130.785 72.152 131.729 72.536C132.673 72.92 133.409 73.464 133.937 74.168C134.465 74.856 134.729 75.68 134.729 76.64C134.729 77.568 134.473 78.368 133.961 79.04C133.465 79.696 132.745 80.2 131.801 80.552C130.857 80.888 129.737 81.056 128.441 81.056ZM128.441 79.136C129.433 79.136 130.217 78.928 130.793 78.512C131.369 78.08 131.657 77.504 131.657 76.784C131.657 76.032 131.361 75.448 130.769 75.032C130.177 74.616 129.401 74.408 128.441 74.408C127.481 74.408 126.713 74.616 126.137 75.032C125.561 75.448 125.273 76.032 125.273 76.784C125.273 77.504 125.553 78.08 126.113 78.512C126.689 78.928 127.465 79.136 128.441 79.136ZM143.017 71.96C144.553 71.96 145.857 72.288 146.929 72.944C148.017 73.584 148.849 74.52 149.425 75.752C150.001 76.984 150.289 78.504 150.289 80.312C150.289 82.232 149.937 83.856 149.233 85.184C148.545 86.512 147.585 87.52 146.353 88.208C145.121 88.896 143.689 89.24 142.057 89.24C141.209 89.24 140.401 89.152 139.633 88.976C138.865 88.8 138.201 88.528 137.641 88.16L138.793 85.808C139.257 86.112 139.761 86.328 140.305 86.456C140.849 86.568 141.409 86.624 141.985 86.624C143.569 86.624 144.825 86.136 145.753 85.16C146.681 84.184 147.145 82.744 147.145 80.84C147.145 80.536 147.137 80.184 147.121 79.784C147.105 79.368 147.049 78.952 146.953 78.536L147.913 79.592C147.641 80.248 147.249 80.8 146.737 81.248C146.225 81.68 145.625 82.008 144.937 82.232C144.249 82.456 143.489 82.568 142.657 82.568C141.569 82.568 140.585 82.36 139.705 81.944C138.841 81.512 138.153 80.912 137.641 80.144C137.129 79.36 136.873 78.448 136.873 77.408C136.873 76.288 137.145 75.328 137.689 74.528C138.233 73.712 138.969 73.08 139.897 72.632C140.841 72.184 141.881 71.96 143.017 71.96ZM143.185 74.408C142.545 74.408 141.977 74.528 141.481 74.768C140.985 74.992 140.593 75.32 140.305 75.752C140.033 76.168 139.897 76.672 139.897 77.264C139.897 78.144 140.201 78.84 140.809 79.352C141.417 79.864 142.233 80.12 143.257 80.12C143.929 80.12 144.521 80 145.033 79.76C145.545 79.504 145.945 79.16 146.233 78.728C146.521 78.28 146.665 77.784 146.665 77.24C146.665 76.712 146.529 76.24 146.257 75.824C145.985 75.392 145.593 75.048 145.081 74.792C144.569 74.536 143.937 74.408 143.185 74.408ZM153.991 89.168C153.447 89.168 152.983 88.984 152.599 88.616C152.215 88.232 152.023 87.752 152.023 87.176C152.023 86.568 152.215 86.088 152.599 85.736C152.983 85.368 153.447 85.184 153.991 85.184C154.535 85.184 154.999 85.368 155.383 85.736C155.767 86.088 155.959 86.568 155.959 87.176C155.959 87.752 155.767 88.232 155.383 88.616C154.999 88.984 154.535 89.168 153.991 89.168ZM164.705 89.24C163.377 89.24 162.177 88.904 161.105 88.232C160.049 87.56 159.217 86.584 158.609 85.304C158.001 84.008 157.697 82.44 157.697 80.6C157.697 78.76 158.001 77.2 158.609 75.92C159.217 74.624 160.049 73.64 161.105 72.968C162.177 72.296 163.377 71.96 164.705 71.96C166.049 71.96 167.249 72.296 168.305 72.968C169.361 73.64 170.193 74.624 170.801 75.92C171.425 77.2 171.737 78.76 171.737 80.6C171.737 82.44 171.425 84.008 170.801 85.304C170.193 86.584 169.361 87.56 168.305 88.232C167.249 88.904 166.049 89.24 164.705 89.24ZM164.705 86.528C165.489 86.528 166.169 86.32 166.745 85.904C167.321 85.472 167.769 84.816 168.089 83.936C168.425 83.056 168.593 81.944 168.593 80.6C168.593 79.24 168.425 78.128 168.089 77.264C167.769 76.384 167.321 75.736 166.745 75.32C166.169 74.888 165.489 74.672 164.705 74.672C163.953 74.672 163.281 74.888 162.689 75.32C162.113 75.736 161.657 76.384 161.321 77.264C161.001 78.128 160.841 79.24 160.841 80.6C160.841 81.944 161.001 83.056 161.321 83.936C161.657 84.816 162.113 85.472 162.689 85.904C163.281 86.32 163.953 86.528 164.705 86.528ZM180.853 89.24C179.525 89.24 178.325 88.904 177.253 88.232C176.197 87.56 175.365 86.584 174.757 85.304C174.149 84.008 173.845 82.44 173.845 80.6C173.845 78.76 174.149 77.2 174.757 75.92C175.365 74.624 176.197 73.64 177.253 72.968C178.325 72.296 179.525 71.96 180.853 71.96C182.197 71.96 183.397 72.296 184.453 72.968C185.509 73.64 186.341 74.624 186.949 75.92C187.573 77.2 187.885 78.76 187.885 80.6C187.885 82.44 187.573 84.008 186.949 85.304C186.341 86.584 185.509 87.56 184.453 88.232C183.397 88.904 182.197 89.24 180.853 89.24ZM180.853 86.528C181.637 86.528 182.317 86.32 182.893 85.904C183.469 85.472 183.917 84.816 184.237 83.936C184.573 83.056 184.741 81.944 184.741 80.6C184.741 79.24 184.573 78.128 184.237 77.264C183.917 76.384 183.469 75.736 182.893 75.32C182.317 74.888 181.637 74.672 180.853 74.672C180.101 74.672 179.429 74.888 178.837 75.32C178.261 75.736 177.805 76.384 177.469 77.264C177.149 78.128 176.989 79.24 176.989 80.6C176.989 81.944 177.149 83.056 177.469 83.936C177.805 84.816 178.261 85.472 178.837 85.904C179.429 86.32 180.101 86.528 180.853 86.528ZM197.002 89.24C195.674 89.24 194.474 88.904 193.402 88.232C192.346 87.56 191.514 86.584 190.906 85.304C190.298 84.008 189.994 82.44 189.994 80.6C189.994 78.76 190.298 77.2 190.906 75.92C191.514 74.624 192.346 73.64 193.402 72.968C194.474 72.296 195.674 71.96 197.002 71.96C198.346 71.96 199.546 72.296 200.602 72.968C201.658 73.64 202.49 74.624 203.098 75.92C203.722 77.2 204.034 78.76 204.034 80.6C204.034 82.44 203.722 84.008 203.098 85.304C202.49 86.584 201.658 87.56 200.602 88.232C199.546 88.904 198.346 89.24 197.002 89.24ZM197.002 86.528C197.786 86.528 198.466 86.32 199.042 85.904C199.618 85.472 200.066 84.816 200.386 83.936C200.722 83.056 200.89 81.944 200.89 80.6C200.89 79.24 200.722 78.128 200.386 77.264C200.066 76.384 199.618 75.736 199.042 75.32C198.466 74.888 197.786 74.672 197.002 74.672C196.25 74.672 195.578 74.888 194.986 75.32C194.41 75.736 193.954 76.384 193.618 77.264C193.298 78.128 193.138 79.24 193.138 80.6C193.138 81.944 193.298 83.056 193.618 83.936C193.954 84.816 194.41 85.472 194.986 85.904C195.578 86.32 196.25 86.528 197.002 86.528ZM205.981 92.624L207.373 87.32L207.781 89.096C207.221 89.096 206.749 88.928 206.365 88.592C205.997 88.24 205.813 87.768 205.813 87.176C205.813 86.568 205.997 86.088 206.365 85.736C206.749 85.368 207.213 85.184 207.757 85.184C208.317 85.184 208.781 85.368 209.149 85.736C209.517 86.104 209.701 86.584 209.701 87.176C209.701 87.336 209.685 87.512 209.653 87.704C209.621 87.88 209.565 88.088 209.485 88.328C209.421 88.568 209.309 88.872 209.149 89.24L207.925 92.624H205.981ZM218.447 89.24C217.119 89.24 215.919 88.904 214.847 88.232C213.791 87.56 212.959 86.584 212.351 85.304C211.743 84.008 211.439 82.44 211.439 80.6C211.439 78.76 211.743 77.2 212.351 75.92C212.959 74.624 213.791 73.64 214.847 72.968C215.919 72.296 217.119 71.96 218.447 71.96C219.791 71.96 220.991 72.296 222.047 72.968C223.103 73.64 223.935 74.624 224.543 75.92C225.167 77.2 225.479 78.76 225.479 80.6C225.479 82.44 225.167 84.008 224.543 85.304C223.935 86.584 223.103 87.56 222.047 88.232C220.991 88.904 219.791 89.24 218.447 89.24ZM218.447 86.528C219.231 86.528 219.911 86.32 220.487 85.904C221.063 85.472 221.511 84.816 221.831 83.936C222.167 83.056 222.335 81.944 222.335 80.6C222.335 79.24 222.167 78.128 221.831 77.264C221.511 76.384 221.063 75.736 220.487 75.32C219.911 74.888 219.231 74.672 218.447 74.672C217.695 74.672 217.023 74.888 216.431 75.32C215.855 75.736 215.399 76.384 215.063 77.264C214.743 78.128 214.583 79.24 214.583 80.6C214.583 81.944 214.743 83.056 215.063 83.936C215.399 84.816 215.855 85.472 216.431 85.904C217.023 86.32 217.695 86.528 218.447 86.528ZM234.595 89.24C233.267 89.24 232.067 88.904 230.995 88.232C229.939 87.56 229.107 86.584 228.499 85.304C227.891 84.008 227.587 82.44 227.587 80.6C227.587 78.76 227.891 77.2 228.499 75.92C229.107 74.624 229.939 73.64 230.995 72.968C232.067 72.296 233.267 71.96 234.595 71.96C235.939 71.96 237.139 72.296 238.195 72.968C239.251 73.64 240.083 74.624 240.691 75.92C241.315 77.2 241.627 78.76 241.627 80.6C241.627 82.44 241.315 84.008 240.691 85.304C240.083 86.584 239.251 87.56 238.195 88.232C237.139 88.904 235.939 89.24 234.595 89.24ZM234.595 86.528C235.379 86.528 236.059 86.32 236.635 85.904C237.211 85.472 237.659 84.816 237.979 83.936C238.315 83.056 238.483 81.944 238.483 80.6C238.483 79.24 238.315 78.128 237.979 77.264C237.659 76.384 237.211 75.736 236.635 75.32C236.059 74.888 235.379 74.672 234.595 74.672C233.843 74.672 233.171 74.888 232.579 75.32C232.003 75.736 231.547 76.384 231.211 77.264C230.891 78.128 230.731 79.24 230.731 80.6C230.731 81.944 230.891 83.056 231.211 83.936C231.547 84.816 232.003 85.472 232.579 85.904C233.171 86.32 233.843 86.528 234.595 86.528Z" fill="black"/>
<defs>
<linearGradient id="paint0_linear_1110_6" x1="714" y1="78" x2="55" y2="78" gradientUnits="userSpaceOnUse">
<stop stop-color="#E62C20"/>
<stop offset="1" stop-color="#E62C20" stop-opacity="0"/>
</linearGradient>
</defs>
</svg>
