<svg width="240" height="288" viewBox="0 0 240 288" fill="none" xmlns="http://www.w3.org/2000/svg">
<rect width="240" height="157" transform="matrix(1 0 0 -1 0 157)" fill="#EEEEEE"/>
<rect width="240" height="157" fill="url(#paint0_linear_1187_3819)"/>
<path d="M0 230L0 288H240V230H0Z" fill="#E62C20"/>
<path d="M30.54 266.24C29.5667 266.24 28.6 266.113 27.64 265.86C26.6933 265.593 25.88 265.22 25.2 264.74L26.48 262.26C27.0133 262.647 27.6267 262.953 28.32 263.18C29.0267 263.407 29.74 263.52 30.46 263.52C31.2733 263.52 31.9133 263.36 32.38 263.04C32.8467 262.72 33.08 262.273 33.08 261.7C33.08 261.34 32.9867 261.02 32.8 260.74C32.6133 260.46 32.28 260.247 31.8 260.1C31.3333 259.953 30.6733 259.88 29.82 259.88H26.24L26.96 252H35.5V254.6H28.12L29.8 253.12L29.3 258.74L27.62 257.26H30.58C31.9667 257.26 33.08 257.453 33.92 257.84C34.7733 258.213 35.3933 258.727 35.78 259.38C36.1667 260.033 36.36 260.773 36.36 261.6C36.36 262.427 36.1533 263.193 35.74 263.9C35.3267 264.593 34.6867 265.16 33.82 265.6C32.9667 266.027 31.8733 266.24 30.54 266.24ZM48.8186 266.24C47.6986 266.24 46.6253 266.093 45.5986 265.8C44.5719 265.493 43.7453 265.1 43.1186 264.62L44.2186 262.18C44.8186 262.607 45.5253 262.96 46.3386 263.24C47.1653 263.507 47.9986 263.64 48.8386 263.64C49.4786 263.64 49.9919 263.58 50.3786 263.46C50.7786 263.327 51.0719 263.147 51.2586 262.92C51.4453 262.693 51.5386 262.433 51.5386 262.14C51.5386 261.767 51.3919 261.473 51.0986 261.26C50.8053 261.033 50.4186 260.853 49.9386 260.72C49.4586 260.573 48.9253 260.44 48.3386 260.32C47.7653 260.187 47.1853 260.027 46.5986 259.84C46.0253 259.653 45.4986 259.413 45.0186 259.12C44.5386 258.827 44.1453 258.44 43.8386 257.96C43.5453 257.48 43.3986 256.867 43.3986 256.12C43.3986 255.32 43.6119 254.593 44.0386 253.94C44.4786 253.273 45.1319 252.747 45.9986 252.36C46.8786 251.96 47.9786 251.76 49.2986 251.76C50.1786 251.76 51.0453 251.867 51.8986 252.08C52.7519 252.28 53.5053 252.587 54.1586 253L53.1586 255.46C52.5053 255.087 51.8519 254.813 51.1986 254.64C50.5453 254.453 49.9053 254.36 49.2786 254.36C48.6519 254.36 48.1386 254.433 47.7386 254.58C47.3386 254.727 47.0519 254.92 46.8786 255.16C46.7053 255.387 46.6186 255.653 46.6186 255.96C46.6186 256.32 46.7653 256.613 47.0586 256.84C47.3519 257.053 47.7386 257.227 48.2186 257.36C48.6986 257.493 49.2253 257.627 49.7986 257.76C50.3853 257.893 50.9653 258.047 51.5386 258.22C52.1253 258.393 52.6586 258.627 53.1386 258.92C53.6186 259.213 54.0053 259.6 54.2986 260.08C54.6053 260.56 54.7586 261.167 54.7586 261.9C54.7586 262.687 54.5386 263.407 54.0986 264.06C53.6586 264.713 52.9986 265.24 52.1186 265.64C51.2519 266.04 50.1519 266.24 48.8186 266.24ZM62.0925 266.16C60.8658 266.16 59.7858 265.92 58.8525 265.44C57.9325 264.96 57.2192 264.307 56.7125 263.48C56.2058 262.64 55.9525 261.687 55.9525 260.62C55.9525 259.54 56.1992 258.587 56.6925 257.76C57.1992 256.92 57.8858 256.267 58.7525 255.8C59.6192 255.32 60.5992 255.08 61.6925 255.08C62.7458 255.08 63.6925 255.307 64.5325 255.76C65.3858 256.2 66.0592 256.84 66.5525 257.68C67.0458 258.507 67.2925 259.5 67.2925 260.66C67.2925 260.78 67.2858 260.92 67.2725 261.08C67.2592 261.227 67.2458 261.367 67.2325 261.5H58.4925V259.68H65.5925L64.3925 260.22C64.3925 259.66 64.2792 259.173 64.0525 258.76C63.8258 258.347 63.5125 258.027 63.1125 257.8C62.7125 257.56 62.2458 257.44 61.7125 257.44C61.1792 257.44 60.7058 257.56 60.2925 257.8C59.8925 258.027 59.5792 258.353 59.3525 258.78C59.1258 259.193 59.0125 259.687 59.0125 260.26V260.74C59.0125 261.327 59.1392 261.847 59.3925 262.3C59.6592 262.74 60.0258 263.08 60.4925 263.32C60.9725 263.547 61.5325 263.66 62.1725 263.66C62.7458 263.66 63.2458 263.573 63.6725 263.4C64.1125 263.227 64.5125 262.967 64.8725 262.62L66.5325 264.42C66.0392 264.98 65.4192 265.413 64.6725 265.72C63.9258 266.013 63.0658 266.16 62.0925 266.16ZM75.7297 266.16C74.823 266.16 74.0297 265.96 73.3497 265.56C72.6697 265.16 72.1364 264.553 71.7497 263.74C71.3764 262.913 71.1897 261.873 71.1897 260.62C71.1897 259.353 71.3697 258.313 71.7297 257.5C72.0897 256.687 72.6097 256.08 73.2897 255.68C73.9697 255.28 74.783 255.08 75.7297 255.08C76.743 255.08 77.6497 255.313 78.4497 255.78C79.263 256.233 79.903 256.873 80.3697 257.7C80.8497 258.527 81.0897 259.5 81.0897 260.62C81.0897 261.753 80.8497 262.733 80.3697 263.56C79.903 264.387 79.263 265.027 78.4497 265.48C77.6497 265.933 76.743 266.16 75.7297 266.16ZM69.3697 269.88V255.24H72.3497V257.44L72.2897 260.64L72.4897 263.82V269.88H69.3697ZM75.1897 263.6C75.7097 263.6 76.1697 263.48 76.5697 263.24C76.983 263 77.3097 262.66 77.5497 262.22C77.803 261.767 77.9297 261.233 77.9297 260.62C77.9297 259.993 77.803 259.46 77.5497 259.02C77.3097 258.58 76.983 258.24 76.5697 258C76.1697 257.76 75.7097 257.64 75.1897 257.64C74.6697 257.64 74.203 257.76 73.7897 258C73.3764 258.24 73.0497 258.58 72.8097 259.02C72.5697 259.46 72.4497 259.993 72.4497 260.62C72.4497 261.233 72.5697 261.767 72.8097 262.22C73.0497 262.66 73.3764 263 73.7897 263.24C74.203 263.48 74.6697 263.6 75.1897 263.6ZM87.5783 266.16C86.3116 266.16 85.3249 265.84 84.6183 265.2C83.9116 264.547 83.5583 263.58 83.5583 262.3V252.86H86.6783V262.26C86.6783 262.713 86.7983 263.067 87.0383 263.32C87.2783 263.56 87.6049 263.68 88.0183 263.68C88.5116 263.68 88.9316 263.547 89.2783 263.28L90.1183 265.48C89.7983 265.707 89.4116 265.88 88.9583 266C88.5183 266.107 88.0583 266.16 87.5783 266.16ZM81.8983 257.88V255.48H89.3583V257.88H81.8983ZM96.8777 266.16C95.651 266.16 94.571 265.92 93.6377 265.44C92.7177 264.96 92.0043 264.307 91.4977 263.48C90.991 262.64 90.7377 261.687 90.7377 260.62C90.7377 259.54 90.9843 258.587 91.4777 257.76C91.9843 256.92 92.671 256.267 93.5377 255.8C94.4043 255.32 95.3843 255.08 96.4777 255.08C97.531 255.08 98.4777 255.307 99.3177 255.76C100.171 256.2 100.844 256.84 101.338 257.68C101.831 258.507 102.078 259.5 102.078 260.66C102.078 260.78 102.071 260.92 102.058 261.08C102.044 261.227 102.031 261.367 102.018 261.5H93.2777V259.68H100.378L99.1777 260.22C99.1777 259.66 99.0643 259.173 98.8377 258.76C98.611 258.347 98.2977 258.027 97.8977 257.8C97.4977 257.56 97.031 257.44 96.4977 257.44C95.9643 257.44 95.491 257.56 95.0777 257.8C94.6777 258.027 94.3643 258.353 94.1377 258.78C93.911 259.193 93.7977 259.687 93.7977 260.26V260.74C93.7977 261.327 93.9243 261.847 94.1777 262.3C94.4443 262.74 94.811 263.08 95.2777 263.32C95.7577 263.547 96.3177 263.66 96.9577 263.66C97.531 263.66 98.031 263.573 98.4577 263.4C98.8977 263.227 99.2977 262.967 99.6577 262.62L101.318 264.42C100.824 264.98 100.204 265.413 99.4577 265.72C98.711 266.013 97.851 266.16 96.8777 266.16ZM117.935 255.08C118.788 255.08 119.542 255.253 120.195 255.6C120.862 255.933 121.382 256.453 121.755 257.16C122.142 257.853 122.335 258.747 122.335 259.84V266H119.215V260.32C119.215 259.453 119.035 258.813 118.675 258.4C118.315 257.987 117.808 257.78 117.155 257.78C116.702 257.78 116.295 257.887 115.935 258.1C115.575 258.3 115.295 258.607 115.095 259.02C114.895 259.433 114.795 259.96 114.795 260.6V266H111.675V260.32C111.675 259.453 111.495 258.813 111.135 258.4C110.788 257.987 110.288 257.78 109.635 257.78C109.182 257.78 108.775 257.887 108.415 258.1C108.055 258.3 107.775 258.607 107.575 259.02C107.375 259.433 107.275 259.96 107.275 260.6V266H104.155V255.24H107.135V258.18L106.575 257.32C106.948 256.587 107.475 256.033 108.155 255.66C108.848 255.273 109.635 255.08 110.515 255.08C111.502 255.08 112.362 255.333 113.095 255.84C113.842 256.333 114.335 257.093 114.575 258.12L113.475 257.82C113.835 256.98 114.408 256.313 115.195 255.82C115.995 255.327 116.908 255.08 117.935 255.08ZM131.491 266.16C130.545 266.16 129.731 265.96 129.051 265.56C128.371 265.16 127.851 264.553 127.491 263.74C127.131 262.913 126.951 261.873 126.951 260.62C126.951 259.353 127.138 258.313 127.511 257.5C127.898 256.687 128.431 256.08 129.111 255.68C129.791 255.28 130.585 255.08 131.491 255.08C132.505 255.08 133.411 255.307 134.211 255.76C135.025 256.213 135.665 256.853 136.131 257.68C136.611 258.507 136.851 259.487 136.851 260.62C136.851 261.74 136.611 262.713 136.131 263.54C135.665 264.367 135.025 265.013 134.211 265.48C133.411 265.933 132.505 266.16 131.491 266.16ZM125.131 266V251.16H128.251V257.42L128.051 260.6L128.111 263.8V266H125.131ZM130.951 263.6C131.471 263.6 131.931 263.48 132.331 263.24C132.745 263 133.071 262.66 133.311 262.22C133.565 261.767 133.691 261.233 133.691 260.62C133.691 259.993 133.565 259.46 133.311 259.02C133.071 258.58 132.745 258.24 132.331 258C131.931 257.76 131.471 257.64 130.951 257.64C130.431 257.64 129.965 257.76 129.551 258C129.138 258.24 128.811 258.58 128.571 259.02C128.331 259.46 128.211 259.993 128.211 260.62C128.211 261.233 128.331 261.767 128.571 262.22C128.811 262.66 129.138 263 129.551 263.24C129.965 263.48 130.431 263.6 130.951 263.6ZM144.28 266.16C143.053 266.16 141.973 265.92 141.04 265.44C140.12 264.96 139.407 264.307 138.9 263.48C138.393 262.64 138.14 261.687 138.14 260.62C138.14 259.54 138.387 258.587 138.88 257.76C139.387 256.92 140.073 256.267 140.94 255.8C141.807 255.32 142.787 255.08 143.88 255.08C144.933 255.08 145.88 255.307 146.72 255.76C147.573 256.2 148.247 256.84 148.74 257.68C149.233 258.507 149.48 259.5 149.48 260.66C149.48 260.78 149.473 260.92 149.46 261.08C149.447 261.227 149.433 261.367 149.42 261.5H140.68V259.68H147.78L146.58 260.22C146.58 259.66 146.467 259.173 146.24 258.76C146.013 258.347 145.7 258.027 145.3 257.8C144.9 257.56 144.433 257.44 143.9 257.44C143.367 257.44 142.893 257.56 142.48 257.8C142.08 258.027 141.767 258.353 141.54 258.78C141.313 259.193 141.2 259.687 141.2 260.26V260.74C141.2 261.327 141.327 261.847 141.58 262.3C141.847 262.74 142.213 263.08 142.68 263.32C143.16 263.547 143.72 263.66 144.36 263.66C144.933 263.66 145.433 263.573 145.86 263.4C146.3 263.227 146.7 262.967 147.06 262.62L148.72 264.42C148.227 264.98 147.607 265.413 146.86 265.72C146.113 266.013 145.253 266.16 144.28 266.16ZM151.557 266V255.24H154.537V258.28L154.117 257.4C154.437 256.64 154.951 256.067 155.657 255.68C156.364 255.28 157.224 255.08 158.237 255.08V257.96C158.104 257.947 157.984 257.94 157.877 257.94C157.771 257.927 157.657 257.92 157.537 257.92C156.684 257.92 155.991 258.167 155.457 258.66C154.937 259.14 154.677 259.893 154.677 260.92V266H151.557ZM165.055 266V263.9L170.455 258.8C170.881 258.413 171.195 258.067 171.395 257.76C171.595 257.453 171.728 257.173 171.795 256.92C171.875 256.667 171.915 256.433 171.915 256.22C171.915 255.66 171.721 255.233 171.335 254.94C170.961 254.633 170.408 254.48 169.675 254.48C169.088 254.48 168.541 254.593 168.035 254.82C167.541 255.047 167.121 255.4 166.775 255.88L164.415 254.36C164.948 253.56 165.695 252.927 166.655 252.46C167.615 251.993 168.721 251.76 169.975 251.76C171.015 251.76 171.921 251.933 172.695 252.28C173.481 252.613 174.088 253.087 174.515 253.7C174.955 254.313 175.175 255.047 175.175 255.9C175.175 256.353 175.115 256.807 174.995 257.26C174.888 257.7 174.661 258.167 174.315 258.66C173.981 259.153 173.488 259.707 172.835 260.32L168.355 264.54L167.735 263.36H175.635V266H165.055ZM182.971 266.24C181.825 266.24 180.798 265.96 179.891 265.4C178.985 264.827 178.271 264 177.751 262.92C177.231 261.84 176.971 260.533 176.971 259C176.971 257.467 177.231 256.16 177.751 255.08C178.271 254 178.985 253.18 179.891 252.62C180.798 252.047 181.825 251.76 182.971 251.76C184.131 251.76 185.158 252.047 186.051 252.62C186.958 253.18 187.671 254 188.191 255.08C188.711 256.16 188.971 257.467 188.971 259C188.971 260.533 188.711 261.84 188.191 262.92C187.671 264 186.958 264.827 186.051 265.4C185.158 265.96 184.131 266.24 182.971 266.24ZM182.971 263.5C183.518 263.5 183.991 263.347 184.391 263.04C184.805 262.733 185.125 262.247 185.351 261.58C185.591 260.913 185.711 260.053 185.711 259C185.711 257.947 185.591 257.087 185.351 256.42C185.125 255.753 184.805 255.267 184.391 254.96C183.991 254.653 183.518 254.5 182.971 254.5C182.438 254.5 181.965 254.653 181.551 254.96C181.151 255.267 180.831 255.753 180.591 256.42C180.365 257.087 180.251 257.947 180.251 259C180.251 260.053 180.365 260.913 180.591 261.58C180.831 262.247 181.151 262.733 181.551 263.04C181.965 263.347 182.438 263.5 182.971 263.5ZM190.347 266V263.9L195.748 258.8C196.174 258.413 196.488 258.067 196.688 257.76C196.888 257.453 197.021 257.173 197.088 256.92C197.168 256.667 197.208 256.433 197.208 256.22C197.208 255.66 197.014 255.233 196.628 254.94C196.254 254.633 195.701 254.48 194.967 254.48C194.381 254.48 193.834 254.593 193.328 254.82C192.834 255.047 192.414 255.4 192.068 255.88L189.708 254.36C190.241 253.56 190.988 252.927 191.948 252.46C192.908 251.993 194.014 251.76 195.268 251.76C196.308 251.76 197.214 251.933 197.988 252.28C198.774 252.613 199.381 253.087 199.808 253.7C200.248 254.313 200.468 255.047 200.468 255.9C200.468 256.353 200.408 256.807 200.288 257.26C200.181 257.7 199.954 258.167 199.608 258.66C199.274 259.153 198.781 259.707 198.128 260.32L193.648 264.54L193.028 263.36H200.928V266H190.347ZM202.144 266V263.9L207.544 258.8C207.971 258.413 208.284 258.067 208.484 257.76C208.684 257.453 208.818 257.173 208.884 256.92C208.964 256.667 209.004 256.433 209.004 256.22C209.004 255.66 208.811 255.233 208.424 254.94C208.051 254.633 207.498 254.48 206.764 254.48C206.178 254.48 205.631 254.593 205.124 254.82C204.631 255.047 204.211 255.4 203.864 255.88L201.504 254.36C202.038 253.56 202.784 252.927 203.744 252.46C204.704 251.993 205.811 251.76 207.064 251.76C208.104 251.76 209.011 251.933 209.784 252.28C210.571 252.613 211.178 253.087 211.604 253.7C212.044 254.313 212.264 255.047 212.264 255.9C212.264 256.353 212.204 256.807 212.084 257.26C211.978 257.7 211.751 258.167 211.404 258.66C211.071 259.153 210.578 259.707 209.924 260.32L205.444 264.54L204.824 263.36H212.724V266H202.144Z" fill="#EEEEEE"/>
<rect y="167" width="240" height="53" fill="#E62C20"/>
<path d="M86.764 184.4H91.3V204H86.764V184.4ZM77.86 204H73.324V184.4H77.86V204ZM87.1 195.964H77.524V192.128H87.1V195.964ZM93.3613 204L102.097 184.4H106.577L115.341 204H110.581L103.413 186.696H105.205L98.0093 204H93.3613ZM97.7293 199.8L98.9333 196.356H109.013L110.245 199.8H97.7293ZM117.375 204V184.4H126.951C129.415 184.4 131.263 184.867 132.495 185.8C133.745 186.733 134.371 187.965 134.371 189.496C134.371 190.523 134.119 191.419 133.615 192.184C133.111 192.931 132.42 193.509 131.543 193.92C130.665 194.331 129.657 194.536 128.519 194.536L129.051 193.388C130.283 193.388 131.375 193.593 132.327 194.004C133.279 194.396 134.016 194.984 134.539 195.768C135.08 196.552 135.351 197.513 135.351 198.652C135.351 200.332 134.688 201.648 133.363 202.6C132.037 203.533 130.087 204 127.511 204H117.375ZM121.883 200.584H127.175C128.351 200.584 129.237 200.397 129.835 200.024C130.451 199.632 130.759 199.016 130.759 198.176C130.759 197.355 130.451 196.748 129.835 196.356C129.237 195.945 128.351 195.74 127.175 195.74H121.547V192.436H126.391C127.492 192.436 128.332 192.249 128.911 191.876C129.508 191.484 129.807 190.896 129.807 190.112C129.807 189.347 129.508 188.777 128.911 188.404C128.332 188.012 127.492 187.816 126.391 187.816H121.883V200.584ZM138.785 204V184.4H143.321V204H138.785ZM154.412 204.336C152.844 204.336 151.342 204.131 149.904 203.72C148.467 203.291 147.31 202.74 146.432 202.068L147.972 198.652C148.812 199.249 149.802 199.744 150.94 200.136C152.098 200.509 153.264 200.696 154.44 200.696C155.336 200.696 156.055 200.612 156.596 200.444C157.156 200.257 157.567 200.005 157.828 199.688C158.09 199.371 158.22 199.007 158.22 198.596C158.22 198.073 158.015 197.663 157.604 197.364C157.194 197.047 156.652 196.795 155.98 196.608C155.308 196.403 154.562 196.216 153.74 196.048C152.938 195.861 152.126 195.637 151.304 195.376C150.502 195.115 149.764 194.779 149.092 194.368C148.42 193.957 147.87 193.416 147.44 192.744C147.03 192.072 146.824 191.213 146.824 190.168C146.824 189.048 147.123 188.031 147.72 187.116C148.336 186.183 149.251 185.445 150.464 184.904C151.696 184.344 153.236 184.064 155.084 184.064C156.316 184.064 157.53 184.213 158.724 184.512C159.919 184.792 160.974 185.221 161.888 185.8L160.488 189.244C159.574 188.721 158.659 188.339 157.744 188.096C156.83 187.835 155.934 187.704 155.056 187.704C154.179 187.704 153.46 187.807 152.9 188.012C152.34 188.217 151.939 188.488 151.696 188.824C151.454 189.141 151.332 189.515 151.332 189.944C151.332 190.448 151.538 190.859 151.948 191.176C152.359 191.475 152.9 191.717 153.572 191.904C154.244 192.091 154.982 192.277 155.784 192.464C156.606 192.651 157.418 192.865 158.22 193.108C159.042 193.351 159.788 193.677 160.46 194.088C161.132 194.499 161.674 195.04 162.084 195.712C162.514 196.384 162.728 197.233 162.728 198.26C162.728 199.361 162.42 200.369 161.804 201.284C161.188 202.199 160.264 202.936 159.032 203.496C157.819 204.056 156.279 204.336 154.412 204.336Z" fill="#EEEEEE"/>
<g opacity="0.75">
<path d="M92.8411 132.875L92.8813 133.782L92.0271 134.785L91.1673 135.562C89.6162 136.963 87.8988 140.049 87.8988 141.435C87.8988 142.134 87.7701 142.445 87.4802 142.445C87.2502 142.445 86.6056 142.701 86.0481 143.014C84.8651 143.677 84.4822 143.724 84.4822 143.209C84.4822 143.004 84.2578 142.581 83.9839 142.269C83.3194 141.513 82.4892 139.941 82.4892 139.44C82.4892 139.218 82.3915 139.037 82.2719 139.037C82.1526 139.037 81.9283 138.787 81.7737 138.481C81.6191 138.175 80.948 136.876 80.2826 135.594C79.0088 133.14 78.8166 132.217 79.4678 131.678C79.761 131.435 79.8017 131.08 79.6258 130.301C79.1922 128.383 77.8483 128 76.4489 129.397C75.7969 130.047 75.6589 130.348 75.9014 130.59C76.0797 130.767 76.2254 131.335 76.2254 131.85C76.2254 132.366 76.3536 132.788 76.5101 132.788C76.6667 132.788 76.7949 133.107 76.7949 133.498C76.7949 133.94 76.9563 134.208 77.2219 134.208C77.4568 134.208 77.649 134.389 77.649 134.61C77.649 134.832 77.745 135.055 77.8625 135.107C78.1552 135.237 79.0726 137.255 79.0726 137.768C79.0726 137.997 79.1705 138.185 79.2901 138.185C79.5125 138.185 80.4962 140.252 80.4962 140.72C80.4962 140.862 80.5921 141.02 80.7097 141.073C80.8273 141.125 81.143 141.642 81.4118 142.222C81.8728 143.217 81.8731 143.304 81.4132 143.762C81.0505 144.124 80.9258 144.736 80.9247 146.163C80.9238 147.217 80.8273 148.175 80.7097 148.292C80.3194 148.682 80.5016 149.963 81.0479 150.673C81.5781 151.361 81.5775 151.386 81.0126 152.177C80.5124 152.878 80.4836 153.092 80.7894 153.828C81.0938 154.561 81.069 154.759 80.6049 155.306C80.3102 155.654 79.9922 156.002 79.8983 156.08C79.8043 156.158 79.6543 156.414 79.5649 156.648L239.253 156.909C239.179 156.687 239.061 153.119 238.99 148.979C238.919 144.839 238.729 141.068 238.568 140.599C238.407 140.13 238.053 139.044 237.782 138.185C237.51 137.325 237.083 136.429 236.833 136.194C236.081 135.486 234.86 134.776 234.395 134.776C234.155 134.776 233.958 134.662 233.958 134.523C233.958 134.385 233.509 134.187 232.961 134.085C232.413 133.982 231.965 133.776 231.965 133.627C231.965 133.478 231.826 133.356 231.655 133.356C230.887 133.356 228.754 131.448 228.224 130.286C227.664 129.06 227.693 127.6 228.285 127.235C228.43 127.146 228.548 126.759 228.548 126.376C228.548 125.992 228.707 125.425 228.902 125.114C229.183 124.664 229.182 124.434 228.895 123.975C228.623 123.542 228.613 123.255 228.854 122.807C229.576 121.461 228.551 118.918 226.945 118.07C223.77 116.392 221.444 116.672 219.016 119.024L217.952 120.055L218.139 122.089C218.242 123.208 218.319 124.667 218.31 125.331C218.3 125.995 218.422 126.538 218.581 126.538C218.739 126.538 218.868 126.836 218.868 127.201C218.868 127.61 219.13 128.003 219.556 128.23C220.413 128.688 220.574 129.283 220.372 131.242C220.264 132.278 220.084 132.788 219.824 132.788C219.612 132.788 219.437 132.902 219.437 133.042C219.437 133.182 218.348 133.834 217.017 134.492C215.686 135.15 214.597 135.802 214.597 135.942C214.597 136.082 214.427 136.196 214.218 136.196C213.86 136.196 213.658 136.512 212.948 138.185C212.783 138.575 212.568 140.4 212.471 142.24C212.374 144.08 212.181 145.87 212.041 146.217L211.786 146.848L211.768 146.215C211.75 145.577 210.602 141.956 209.963 140.52C209.773 140.095 209.384 139.491 209.096 139.179C208.809 138.866 208.38 138.285 208.142 137.888C207.904 137.49 207.274 136.866 206.74 136.502C206.207 136.137 205.771 135.728 205.771 135.592C205.771 135.455 205.547 135.344 205.273 135.345C204.999 135.345 204.262 135.101 203.636 134.801C203.009 134.501 202.133 134.115 201.689 133.943L200.881 133.629L201.475 132.624C201.911 131.888 202.07 131.134 202.07 129.806C202.07 128.808 202.194 127.915 202.347 127.821C202.858 127.506 203.196 125.585 202.938 124.458C202.671 123.29 202.21 122.818 200.646 122.106C200.098 121.857 199.184 121.41 198.614 121.113C197.41 120.485 196.71 120.44 195.606 120.919C194.697 121.313 191.831 124.227 191.824 124.763C191.822 124.958 191.692 125.118 191.535 125.118C191.379 125.118 191.251 125.725 191.251 126.467C191.251 127.497 191.42 128.012 191.963 128.642C192.354 129.096 192.677 129.671 192.68 129.92C192.684 130.169 192.937 130.693 193.243 131.083C193.55 131.474 193.798 131.985 193.796 132.22C193.791 132.811 191.871 134.208 191.062 134.208C190.696 134.208 190.396 134.336 190.396 134.492C190.396 134.648 190.136 134.776 189.817 134.776C189.247 134.776 188.053 135.418 187.315 136.122C187.108 136.319 186.852 136.481 186.746 136.482C186.639 136.482 186.143 136.866 185.643 137.334C184.588 138.32 184.133 138.41 184.133 137.633C184.133 137.33 184.022 137.014 183.887 136.931C183.753 136.848 183.556 135.913 183.45 134.855C183.197 132.317 183.198 132.546 183.43 131.039C183.608 129.877 183.543 129.598 182.886 128.74C182.325 128.005 182.14 127.431 182.14 126.424C182.14 125.603 182.029 125.152 181.855 125.26C181.698 125.357 181.57 125.801 181.57 126.248C181.57 127.231 181.315 127.959 180.97 127.959C180.83 127.959 180.716 127.767 180.716 127.533C180.716 127.298 180.588 127.107 180.431 127.107C180.275 127.107 180.147 126.851 180.147 126.538C180.147 125.988 179.845 125.798 179.507 126.136C179.415 126.226 179.522 126.734 179.744 127.262C179.965 127.792 180.147 128.921 180.147 129.772C180.147 130.663 180.282 131.365 180.466 131.426C180.832 131.548 180.996 137.992 180.642 138.35C180.523 138.471 180.17 138.297 179.859 137.963C179.437 137.511 179.292 136.961 179.292 135.811C179.292 134.411 179.202 134.188 178.325 133.419C177.392 132.602 177.351 132.478 177.159 129.91C176.839 125.627 176.824 124.809 177.064 124.662C177.188 124.585 177.264 123.115 177.232 121.395C177.171 118.103 176.948 117.868 176.101 120.205C175.657 121.428 175.362 121.391 175.252 120.098C175.204 119.524 174.998 119 174.795 118.934C174.499 118.837 174.457 119.696 174.581 123.27C174.666 125.721 174.81 127.846 174.9 127.991C174.99 128.137 174.898 129.148 174.696 130.238C174.345 132.128 174.292 132.22 173.536 132.22C172.665 132.22 172.522 131.799 173.155 131.101C173.566 130.648 173.712 129.595 173.638 127.618C173.597 126.539 172.917 125.596 171.679 124.905C170.918 124.48 169.148 124.435 168.9 124.834C168.803 124.99 168.528 125.118 168.288 125.118C167.373 125.118 166.784 126.311 166.774 128.19L166.765 129.983L165.842 129.894C164.633 129.777 164.538 129.169 165.494 127.659C166.01 126.843 166.201 126.229 166.098 125.72C165.543 122.981 165.299 122.124 165.047 122.039C164.89 121.986 164.556 121.738 164.305 121.487C163.322 120.506 159.676 121.16 159.158 122.41C158.528 123.932 159.362 128.527 160.269 128.527C160.648 128.527 160.534 129.103 160.06 129.575C159.738 129.897 159.317 129.967 158.491 129.835C157.65 129.701 157.072 129.803 156.227 130.233C155.275 130.717 155.092 130.741 155.092 130.379C155.092 130.141 155.213 129.947 155.362 129.947C155.51 129.947 155.615 129.036 155.594 127.919C155.564 126.299 155.438 125.764 154.968 125.256C154.645 124.905 154.149 124.284 153.868 123.875C153.461 123.282 153.126 123.13 152.227 123.13C151.013 123.13 150.258 123.458 149.074 124.501L148.323 125.162L148.468 123.791C148.547 123.037 148.84 121.757 149.118 120.948C149.524 119.769 149.546 119.507 149.226 119.629C149.007 119.713 148.828 119.864 148.828 119.965C148.827 120.065 148.507 120.518 148.116 120.973L147.404 121.798V121.06C147.404 120.654 147.276 120.244 147.12 120.147C146.963 120.051 146.835 119.716 146.835 119.404C146.835 119.091 146.707 118.914 146.55 119.011C146.394 119.108 146.265 119.491 146.265 119.863C146.265 120.235 146.394 120.619 146.55 120.715C147.04 121.018 146.861 121.636 146.237 121.799C145.693 121.941 145.655 122.093 145.818 123.466C145.917 124.296 146.07 126.382 146.158 128.101L146.317 131.225L145.65 130.62C144.748 129.8 143.095 129.482 141.579 129.838C140.684 130.048 140.396 130.238 139.261 131.367C138.503 132.121 138.515 131.889 139.034 135.77C139.128 136.473 139.118 137.048 139.012 137.048C138.772 137.048 137.155 135.451 137.155 135.214C137.155 135.119 136.802 134.676 136.372 134.231C135.941 133.785 135.382 133.118 135.13 132.749C134.469 131.782 132.297 131.188 131.152 131.661C130.42 131.964 130.216 131.952 129.85 131.587C129.461 131.199 129.492 131.032 130.153 129.988C130.559 129.347 130.891 128.683 130.891 128.512C130.891 128.342 131.083 128.01 131.318 127.776C131.639 127.456 131.745 126.664 131.745 124.583C131.745 121.922 131.714 121.786 130.946 121.052C130.507 120.633 129.995 120.289 129.807 120.289C129.62 120.289 129.467 120.161 129.467 120.005C129.467 119.622 127.098 119.642 126.711 120.028C126.49 120.249 126.231 120.229 125.798 119.959C125.272 119.631 125.025 119.671 123.913 120.259C123.21 120.631 122.634 121.091 122.634 121.279C122.634 121.468 122.432 122.027 122.184 122.522C121.771 123.347 121.775 123.611 122.225 125.691C122.495 126.938 122.816 127.959 122.937 127.959C123.059 127.959 123.242 128.341 123.345 128.808C123.448 129.274 123.65 129.729 123.795 129.819C124.205 130.071 124.106 131.367 123.676 131.367C123.243 131.367 122.634 132.537 122.634 133.369C122.634 133.674 122.506 133.924 122.35 133.924C121.895 133.924 119.787 136.087 119.787 136.554C119.787 137.316 119.053 137.696 118.386 137.281C117.957 137.014 117.794 136.618 117.794 135.844C117.794 135.257 117.666 134.776 117.509 134.776C117.353 134.776 117.221 134.233 117.218 133.569C117.214 132.905 117.077 131.85 116.914 131.225C116.751 130.6 116.52 129.642 116.401 129.095C115.981 127.16 115.233 126.179 113.685 125.534C111.643 124.683 109.728 125.085 108.296 126.665C107.775 127.239 106.121 130.581 106.121 131.058C106.121 131.192 105.929 131.668 105.695 132.116C105.461 132.563 105.269 133.217 105.268 133.569C105.267 133.92 105.138 134.208 104.982 134.208C104.825 134.208 104.697 134.905 104.697 135.756C104.697 136.928 104.817 137.371 105.189 137.579C105.652 137.837 105.649 137.89 105.145 138.445C104.533 139.12 103.273 139.247 103.273 138.634C103.273 137.868 102.272 136.336 100.908 135.015C100.099 134.231 99.4246 133.273 99.2578 132.67C99.1029 132.11 98.8538 131.651 98.7046 131.651C98.2348 131.651 98.4076 131.028 99.145 130.064C99.5368 129.552 99.8568 128.752 99.8568 128.285C99.8568 127.819 100.007 127.388 100.191 127.327C100.398 127.258 100.534 126.515 100.547 125.375C100.567 123.656 100.507 123.473 99.6336 122.622C99.1191 122.12 98.454 121.709 98.1556 121.709C97.857 121.709 97.5335 121.582 97.4367 121.425C97.1327 120.935 94.5147 121.091 93.857 121.638C91.6624 123.467 91.8489 123.03 91.6769 126.752C91.528 129.977 91.5556 130.223 92.1598 131.07C92.5126 131.564 92.8189 132.376 92.8411 132.875Z" fill="black"/>
<path d="M26.5066 131.242C27.2115 128.07 27.5904 127.484 29.1759 127.112C32.0989 126.426 34.6451 127.609 36.0507 130.305C36.5407 131.245 36.6282 131.67 36.6256 133.093C36.6237 134.083 36.4624 135.333 36.233 136.137C36.0188 136.887 35.8018 137.895 35.7509 138.375C35.6704 139.136 35.7296 139.296 36.2047 139.605C37.0766 140.173 37.2771 139.916 37.5711 137.852C37.9596 135.125 38.4173 134.35 40.3154 133.206C42.3971 131.951 43.3825 131.928 45.5886 133.085C47.4067 134.038 48.0573 134.797 48.3935 136.355C48.576 137.201 48.8236 137.663 49.3508 138.143C50.1339 138.856 50.2165 139.257 49.7526 140.093C49.5826 140.399 49.2906 141.216 49.1037 141.909C48.917 142.602 48.613 143.72 48.4284 144.395C48.0374 145.823 48.2225 146.699 48.9375 146.801C49.1998 146.839 49.9626 146.487 50.7598 145.961C51.5141 145.464 52.5301 144.821 53.018 144.533C53.547 144.22 54.1245 143.627 54.4489 143.063C54.748 142.544 55.2615 141.848 55.5902 141.517C56.2991 140.802 56.2932 140.874 55.7881 139.108C54.9996 136.351 54.8553 135.032 55.1244 133.044C55.5055 130.228 55.7472 129.499 56.6324 128.5C57.5711 127.441 58.5819 126.901 59.6298 126.901C60.6515 126.901 63.1003 127.669 64.0671 128.293C65.5419 129.244 66.2697 130.822 66.6543 133.901L66.7815 134.92L67.5573 134.786C69.6781 134.419 69.9461 134.425 71.4425 134.877C75.2189 136.017 76.4178 137.428 76.6257 140.976C76.7455 143.021 76.4123 144.483 75.3942 146.379C74.6057 147.847 74.5605 149.086 75.2709 149.749C75.5431 150.003 76.5173 150.499 77.436 150.85C78.3544 151.202 79.3912 151.701 79.7397 151.96C80.7004 152.673 82.3889 153.558 82.789 153.558C82.9844 153.558 83.3289 153.42 83.5545 153.25C84.1352 152.814 85.0781 152.871 86.1824 153.409C87.3723 153.99 87.8714 155.002 87.8719 156.606H0C0 156.606 0.580256 154.499 1.29971 153.835C2.79122 152.456 5.06216 152.67 6.83862 154.356C7.28875 154.783 7.69411 155.034 7.73931 154.914C8.1415 153.844 8.65436 153.237 9.21201 153.174C9.95935 153.088 10.934 152.392 12.4671 150.849C13.9799 149.326 14.575 148.474 14.575 147.83C14.575 147.524 14.1893 146.844 13.6396 146.181C11.7854 143.943 11.206 140.902 12.2474 138.873C12.7417 137.91 14.1027 136.672 15.1512 136.231C19.1515 134.548 24.603 136.665 25.3387 140.187C25.4726 140.828 25.7164 141.463 25.8803 141.598C26.2903 141.936 27.2237 141.603 27.721 140.941C28.1094 140.424 28.1062 140.404 27.3781 138.855C26.3714 136.713 26.0041 133.504 26.5066 131.242Z" fill="black"/>
</g>
<path d="M46.848 42.912H57.984V46.336H46.848V42.912ZM47.168 52.512H59.808V56H43.008V33.6H59.36V37.088H47.168V52.512ZM74.4333 56V52.544L74.2093 51.808V45.76C74.2093 44.5867 73.8573 43.68 73.1533 43.04C72.4493 42.3787 71.3826 42.048 69.9533 42.048C68.9933 42.048 68.0439 42.1973 67.1053 42.496C66.1879 42.7947 65.4093 43.2107 64.7693 43.744L63.2013 40.832C64.1186 40.128 65.2066 39.6053 66.4653 39.264C67.7453 38.9013 69.0679 38.72 70.4333 38.72C72.9079 38.72 74.8173 39.3173 76.1613 40.512C77.5266 41.6853 78.2093 43.5093 78.2093 45.984V56H74.4333ZM69.0573 56.224C67.7773 56.224 66.6573 56.0107 65.6973 55.584C64.7373 55.136 63.9906 54.528 63.4573 53.76C62.9453 52.9707 62.6893 52.0853 62.6893 51.104C62.6893 50.144 62.9133 49.28 63.3613 48.512C63.8306 47.744 64.5879 47.136 65.6333 46.688C66.6786 46.24 68.0653 46.016 69.7933 46.016H74.7533V48.672H70.0813C68.7159 48.672 67.7986 48.896 67.3293 49.344C66.8599 49.7707 66.6253 50.304 66.6253 50.944C66.6253 51.6693 66.9133 52.2453 67.4893 52.672C68.0653 53.0987 68.8653 53.312 69.8893 53.312C70.8706 53.312 71.7453 53.088 72.5133 52.64C73.3026 52.192 73.8679 51.5307 74.2093 50.656L74.8813 53.056C74.4973 54.0587 73.8039 54.8373 72.8013 55.392C71.8199 55.9467 70.5719 56.224 69.0573 56.224ZM83.3428 56V38.912H87.1508V43.616L86.7028 42.24C87.2148 41.088 88.0148 40.2133 89.1028 39.616C90.2121 39.0187 91.5881 38.72 93.2308 38.72V42.528C93.0601 42.4853 92.9001 42.464 92.7508 42.464C92.6014 42.4427 92.4521 42.432 92.3028 42.432C90.7881 42.432 89.5828 42.88 88.6868 43.776C87.7908 44.6507 87.3428 45.9627 87.3428 47.712V56H83.3428ZM96.624 56V32.256H100.624V56H96.624ZM107.282 62.432C106.45 62.432 105.618 62.2933 104.786 62.016C103.954 61.7387 103.261 61.3547 102.706 60.864L104.306 57.92C104.711 58.2827 105.17 58.5707 105.682 58.784C106.194 58.9973 106.717 59.104 107.25 59.104C107.975 59.104 108.562 58.9227 109.01 58.56C109.458 58.1973 109.874 57.5893 110.258 56.736L111.25 54.496L111.57 54.016L118.034 38.912H121.874L113.874 57.376C113.341 58.656 112.743 59.6693 112.082 60.416C111.442 61.1627 110.717 61.6853 109.906 61.984C109.117 62.2827 108.242 62.432 107.282 62.432ZM110.802 56.608L103.09 38.912H107.25L113.522 53.664L110.802 56.608ZM133.602 56V33.6H144.098C146.786 33.6 148.834 34.1333 150.242 35.2C151.65 36.2453 152.354 37.6533 152.354 39.424C152.354 40.6187 152.076 41.6427 151.522 42.496C150.967 43.328 150.22 43.9787 149.282 44.448C148.364 44.896 147.362 45.12 146.274 45.12L146.85 43.968C148.108 43.968 149.239 44.2027 150.242 44.672C151.244 45.12 152.034 45.7813 152.61 46.656C153.207 47.5307 153.506 48.6187 153.506 49.92C153.506 51.84 152.77 53.3333 151.298 54.4C149.826 55.4667 147.639 56 144.738 56H133.602ZM137.762 52.736H144.482C146.039 52.736 147.234 52.48 148.066 51.968C148.898 51.456 149.314 50.6347 149.314 49.504C149.314 48.3947 148.898 47.584 148.066 47.072C147.234 46.5387 146.039 46.272 144.482 46.272H137.442V43.04H143.65C145.1 43.04 146.21 42.784 146.978 42.272C147.767 41.76 148.162 40.992 148.162 39.968C148.162 38.9227 147.767 38.144 146.978 37.632C146.21 37.12 145.1 36.864 143.65 36.864H137.762V52.736ZM157.562 56V38.912H161.562V56H157.562ZM159.578 36.096C158.831 36.096 158.212 35.8613 157.722 35.392C157.252 34.9227 157.018 34.3573 157.018 33.696C157.018 33.0133 157.252 32.448 157.722 32C158.212 31.5307 158.831 31.296 159.578 31.296C160.324 31.296 160.932 31.52 161.402 31.968C161.892 32.3947 162.138 32.9387 162.138 33.6C162.138 34.304 161.903 34.9013 161.434 35.392C160.964 35.8613 160.346 36.096 159.578 36.096ZM166.812 56V38.912H170.62V43.616L170.172 42.24C170.684 41.088 171.484 40.2133 172.572 39.616C173.681 39.0187 175.057 38.72 176.7 38.72V42.528C176.529 42.4853 176.369 42.464 176.22 42.464C176.07 42.4427 175.921 42.432 175.772 42.432C174.257 42.432 173.052 42.88 172.156 43.776C171.26 44.6507 170.812 45.9627 170.812 47.712V56H166.812ZM187.169 56.224C185.526 56.224 184.043 55.8613 182.721 55.136C181.419 54.3893 180.395 53.3653 179.649 52.064C178.902 50.7627 178.529 49.2267 178.529 47.456C178.529 45.6853 178.902 44.1493 179.649 42.848C180.395 41.5467 181.419 40.5333 182.721 39.808C184.043 39.0827 185.526 38.72 187.169 38.72C188.598 38.72 189.878 39.04 191.009 39.68C192.139 40.2987 193.035 41.248 193.697 42.528C194.358 43.808 194.689 45.4507 194.689 47.456C194.689 49.44 194.369 51.0827 193.729 52.384C193.089 53.664 192.203 54.624 191.073 55.264C189.942 55.904 188.641 56.224 187.169 56.224ZM187.649 52.8C188.609 52.8 189.462 52.5867 190.209 52.16C190.977 51.7333 191.585 51.1147 192.033 50.304C192.502 49.4933 192.737 48.544 192.737 47.456C192.737 46.3467 192.502 45.3973 192.033 44.608C191.585 43.7973 190.977 43.1787 190.209 42.752C189.462 42.3253 188.609 42.112 187.649 42.112C186.689 42.112 185.825 42.3253 185.057 42.752C184.31 43.1787 183.702 43.7973 183.233 44.608C182.785 45.3973 182.561 46.3467 182.561 47.456C182.561 48.544 182.785 49.4933 183.233 50.304C183.702 51.1147 184.31 51.7333 185.057 52.16C185.825 52.5867 186.689 52.8 187.649 52.8ZM192.833 56V51.968L192.993 47.424L192.673 42.88V32.256H196.641V56H192.833Z" fill="black"/>
<path d="M40.256 90V73.2H47.168C48.656 73.2 49.928 73.44 50.984 73.92C52.056 74.4 52.88 75.088 53.456 75.984C54.032 76.88 54.32 77.944 54.32 79.176C54.32 80.408 54.032 81.472 53.456 82.368C52.88 83.248 52.056 83.928 50.984 84.408C49.928 84.872 48.656 85.104 47.168 85.104H41.984L43.376 83.688V90H40.256ZM51.248 90L47 83.904H50.336L54.608 90H51.248ZM43.376 84.024L41.984 82.536H47.024C48.4 82.536 49.432 82.24 50.12 81.648C50.824 81.056 51.176 80.232 51.176 79.176C51.176 78.104 50.824 77.28 50.12 76.704C49.432 76.128 48.4 75.84 47.024 75.84H41.984L43.376 74.304V84.024ZM64.6267 90.168C63.5867 90.168 62.6347 89.928 61.7707 89.448C60.9227 88.968 60.2427 88.248 59.7307 87.288C59.2347 86.312 58.9867 85.08 58.9867 83.592C58.9867 82.088 59.2267 80.856 59.7067 79.896C60.2027 78.936 60.8747 78.224 61.7227 77.76C62.5707 77.28 63.5387 77.04 64.6267 77.04C65.8907 77.04 67.0027 77.312 67.9627 77.856C68.9387 78.4 69.7067 79.16 70.2667 80.136C70.8427 81.112 71.1307 82.264 71.1307 83.592C71.1307 84.92 70.8427 86.08 70.2667 87.072C69.7067 88.048 68.9387 88.808 67.9627 89.352C67.0027 89.896 65.8907 90.168 64.6267 90.168ZM57.5227 94.656V77.184H60.3787V80.208L60.2827 83.616L60.5227 87.024V94.656H57.5227ZM64.2907 87.6C65.0107 87.6 65.6507 87.44 66.2107 87.12C66.7867 86.8 67.2427 86.336 67.5787 85.728C67.9147 85.12 68.0827 84.408 68.0827 83.592C68.0827 82.76 67.9147 82.048 67.5787 81.456C67.2427 80.848 66.7867 80.384 66.2107 80.064C65.6507 79.744 65.0107 79.584 64.2907 79.584C63.5707 79.584 62.9227 79.744 62.3467 80.064C61.7707 80.384 61.3147 80.848 60.9787 81.456C60.6427 82.048 60.4747 82.76 60.4747 83.592C60.4747 84.408 60.6427 85.12 60.9787 85.728C61.3147 86.336 61.7707 86.8 62.3467 87.12C62.9227 87.44 63.5707 87.6 64.2907 87.6ZM86.4406 90.24C85.0486 90.24 83.8406 90.032 82.8166 89.616C81.7926 89.2 81.0006 88.616 80.4406 87.864C79.8806 87.096 79.6006 86.2 79.6006 85.176C79.6006 84.152 79.8726 83.288 80.4166 82.584C80.9606 81.88 81.7446 81.344 82.7686 80.976C83.7926 80.608 85.0166 80.424 86.4406 80.424C87.8646 80.424 89.0886 80.608 90.1126 80.976C91.1526 81.344 91.9446 81.888 92.4886 82.608C93.0486 83.312 93.3286 84.168 93.3286 85.176C93.3286 86.2 93.0406 87.096 92.4646 87.864C91.9046 88.616 91.1046 89.2 90.0646 89.616C89.0406 90.032 87.8326 90.24 86.4406 90.24ZM86.4406 87.792C87.5926 87.792 88.5046 87.552 89.1766 87.072C89.8486 86.592 90.1846 85.928 90.1846 85.08C90.1846 84.248 89.8486 83.592 89.1766 83.112C88.5046 82.632 87.5926 82.392 86.4406 82.392C85.2886 82.392 84.3846 82.632 83.7286 83.112C83.0726 83.592 82.7446 84.248 82.7446 85.08C82.7446 85.928 83.0726 86.592 83.7286 87.072C84.3846 87.552 85.2886 87.792 86.4406 87.792ZM86.4406 82.056C85.1446 82.056 84.0326 81.888 83.1046 81.552C82.1766 81.2 81.4566 80.696 80.9446 80.04C80.4486 79.368 80.2006 78.568 80.2006 77.64C80.2006 76.68 80.4566 75.856 80.9686 75.168C81.4966 74.464 82.2326 73.92 83.1766 73.536C84.1206 73.152 85.2086 72.96 86.4406 72.96C87.6886 72.96 88.7846 73.152 89.7286 73.536C90.6726 73.92 91.4086 74.464 91.9366 75.168C92.4646 75.856 92.7286 76.68 92.7286 77.64C92.7286 78.568 92.4726 79.368 91.9606 80.04C91.4646 80.696 90.7446 81.2 89.8006 81.552C88.8566 81.888 87.7366 82.056 86.4406 82.056ZM86.4406 80.136C87.4326 80.136 88.2166 79.928 88.7926 79.512C89.3686 79.08 89.6566 78.504 89.6566 77.784C89.6566 77.032 89.3606 76.448 88.7686 76.032C88.1766 75.616 87.4006 75.408 86.4406 75.408C85.4806 75.408 84.7126 75.616 84.1366 76.032C83.5606 76.448 83.2726 77.032 83.2726 77.784C83.2726 78.504 83.5526 79.08 84.1126 79.512C84.6886 79.928 85.4646 80.136 86.4406 80.136ZM101.017 72.96C102.553 72.96 103.857 73.288 104.929 73.944C106.017 74.584 106.849 75.52 107.425 76.752C108.001 77.984 108.289 79.504 108.289 81.312C108.289 83.232 107.937 84.856 107.233 86.184C106.545 87.512 105.585 88.52 104.353 89.208C103.121 89.896 101.689 90.24 100.057 90.24C99.2089 90.24 98.4009 90.152 97.6329 89.976C96.8649 89.8 96.2009 89.528 95.6409 89.16L96.7929 86.808C97.2569 87.112 97.7609 87.328 98.3049 87.456C98.8489 87.568 99.4089 87.624 99.9849 87.624C101.569 87.624 102.825 87.136 103.753 86.16C104.681 85.184 105.145 83.744 105.145 81.84C105.145 81.536 105.137 81.184 105.121 80.784C105.105 80.368 105.049 79.952 104.953 79.536L105.913 80.592C105.641 81.248 105.249 81.8 104.737 82.248C104.225 82.68 103.625 83.008 102.937 83.232C102.249 83.456 101.489 83.568 100.657 83.568C99.5689 83.568 98.5849 83.36 97.7049 82.944C96.8409 82.512 96.1529 81.912 95.6409 81.144C95.1289 80.36 94.8729 79.448 94.8729 78.408C94.8729 77.288 95.1449 76.328 95.6889 75.528C96.2329 74.712 96.9689 74.08 97.8969 73.632C98.8409 73.184 99.8809 72.96 101.017 72.96ZM101.185 75.408C100.545 75.408 99.9769 75.528 99.4809 75.768C98.9849 75.992 98.5929 76.32 98.3049 76.752C98.0329 77.168 97.8969 77.672 97.8969 78.264C97.8969 79.144 98.2009 79.84 98.8089 80.352C99.4169 80.864 100.233 81.12 101.257 81.12C101.929 81.12 102.521 81 103.033 80.76C103.545 80.504 103.945 80.16 104.233 79.728C104.521 79.28 104.665 78.784 104.665 78.24C104.665 77.712 104.529 77.24 104.257 76.824C103.985 76.392 103.593 76.048 103.081 75.792C102.569 75.536 101.937 75.408 101.185 75.408ZM111.991 90.168C111.447 90.168 110.983 89.984 110.599 89.616C110.215 89.232 110.023 88.752 110.023 88.176C110.023 87.568 110.215 87.088 110.599 86.736C110.983 86.368 111.447 86.184 111.991 86.184C112.535 86.184 112.999 86.368 113.383 86.736C113.767 87.088 113.959 87.568 113.959 88.176C113.959 88.752 113.767 89.232 113.383 89.616C112.999 89.984 112.535 90.168 111.991 90.168ZM122.705 90.24C121.377 90.24 120.177 89.904 119.105 89.232C118.049 88.56 117.217 87.584 116.609 86.304C116.001 85.008 115.697 83.44 115.697 81.6C115.697 79.76 116.001 78.2 116.609 76.92C117.217 75.624 118.049 74.64 119.105 73.968C120.177 73.296 121.377 72.96 122.705 72.96C124.049 72.96 125.249 73.296 126.305 73.968C127.361 74.64 128.193 75.624 128.801 76.92C129.425 78.2 129.737 79.76 129.737 81.6C129.737 83.44 129.425 85.008 128.801 86.304C128.193 87.584 127.361 88.56 126.305 89.232C125.249 89.904 124.049 90.24 122.705 90.24ZM122.705 87.528C123.489 87.528 124.169 87.32 124.745 86.904C125.321 86.472 125.769 85.816 126.089 84.936C126.425 84.056 126.593 82.944 126.593 81.6C126.593 80.24 126.425 79.128 126.089 78.264C125.769 77.384 125.321 76.736 124.745 76.32C124.169 75.888 123.489 75.672 122.705 75.672C121.953 75.672 121.281 75.888 120.689 76.32C120.113 76.736 119.657 77.384 119.321 78.264C119.001 79.128 118.841 80.24 118.841 81.6C118.841 82.944 119.001 84.056 119.321 84.936C119.657 85.816 120.113 86.472 120.689 86.904C121.281 87.32 121.953 87.528 122.705 87.528ZM138.853 90.24C137.525 90.24 136.325 89.904 135.253 89.232C134.197 88.56 133.365 87.584 132.757 86.304C132.149 85.008 131.845 83.44 131.845 81.6C131.845 79.76 132.149 78.2 132.757 76.92C133.365 75.624 134.197 74.64 135.253 73.968C136.325 73.296 137.525 72.96 138.853 72.96C140.197 72.96 141.397 73.296 142.453 73.968C143.509 74.64 144.341 75.624 144.949 76.92C145.573 78.2 145.885 79.76 145.885 81.6C145.885 83.44 145.573 85.008 144.949 86.304C144.341 87.584 143.509 88.56 142.453 89.232C141.397 89.904 140.197 90.24 138.853 90.24ZM138.853 87.528C139.637 87.528 140.317 87.32 140.893 86.904C141.469 86.472 141.917 85.816 142.237 84.936C142.573 84.056 142.741 82.944 142.741 81.6C142.741 80.24 142.573 79.128 142.237 78.264C141.917 77.384 141.469 76.736 140.893 76.32C140.317 75.888 139.637 75.672 138.853 75.672C138.101 75.672 137.429 75.888 136.837 76.32C136.261 76.736 135.805 77.384 135.469 78.264C135.149 79.128 134.989 80.24 134.989 81.6C134.989 82.944 135.149 84.056 135.469 84.936C135.805 85.816 136.261 86.472 136.837 86.904C137.429 87.32 138.101 87.528 138.853 87.528ZM155.002 90.24C153.674 90.24 152.474 89.904 151.402 89.232C150.346 88.56 149.514 87.584 148.906 86.304C148.298 85.008 147.994 83.44 147.994 81.6C147.994 79.76 148.298 78.2 148.906 76.92C149.514 75.624 150.346 74.64 151.402 73.968C152.474 73.296 153.674 72.96 155.002 72.96C156.346 72.96 157.546 73.296 158.602 73.968C159.658 74.64 160.49 75.624 161.098 76.92C161.722 78.2 162.034 79.76 162.034 81.6C162.034 83.44 161.722 85.008 161.098 86.304C160.49 87.584 159.658 88.56 158.602 89.232C157.546 89.904 156.346 90.24 155.002 90.24ZM155.002 87.528C155.786 87.528 156.466 87.32 157.042 86.904C157.618 86.472 158.066 85.816 158.386 84.936C158.722 84.056 158.89 82.944 158.89 81.6C158.89 80.24 158.722 79.128 158.386 78.264C158.066 77.384 157.618 76.736 157.042 76.32C156.466 75.888 155.786 75.672 155.002 75.672C154.25 75.672 153.578 75.888 152.986 76.32C152.41 76.736 151.954 77.384 151.618 78.264C151.298 79.128 151.138 80.24 151.138 81.6C151.138 82.944 151.298 84.056 151.618 84.936C151.954 85.816 152.41 86.472 152.986 86.904C153.578 87.32 154.25 87.528 155.002 87.528ZM163.981 93.624L165.373 88.32L165.781 90.096C165.221 90.096 164.749 89.928 164.365 89.592C163.997 89.24 163.813 88.768 163.813 88.176C163.813 87.568 163.997 87.088 164.365 86.736C164.749 86.368 165.213 86.184 165.757 86.184C166.317 86.184 166.781 86.368 167.149 86.736C167.517 87.104 167.701 87.584 167.701 88.176C167.701 88.336 167.685 88.512 167.653 88.704C167.621 88.88 167.565 89.088 167.485 89.328C167.421 89.568 167.309 89.872 167.149 90.24L165.925 93.624H163.981ZM176.447 90.24C175.119 90.24 173.919 89.904 172.847 89.232C171.791 88.56 170.959 87.584 170.351 86.304C169.743 85.008 169.439 83.44 169.439 81.6C169.439 79.76 169.743 78.2 170.351 76.92C170.959 75.624 171.791 74.64 172.847 73.968C173.919 73.296 175.119 72.96 176.447 72.96C177.791 72.96 178.991 73.296 180.047 73.968C181.103 74.64 181.935 75.624 182.543 76.92C183.167 78.2 183.479 79.76 183.479 81.6C183.479 83.44 183.167 85.008 182.543 86.304C181.935 87.584 181.103 88.56 180.047 89.232C178.991 89.904 177.791 90.24 176.447 90.24ZM176.447 87.528C177.231 87.528 177.911 87.32 178.487 86.904C179.063 86.472 179.511 85.816 179.831 84.936C180.167 84.056 180.335 82.944 180.335 81.6C180.335 80.24 180.167 79.128 179.831 78.264C179.511 77.384 179.063 76.736 178.487 76.32C177.911 75.888 177.231 75.672 176.447 75.672C175.695 75.672 175.023 75.888 174.431 76.32C173.855 76.736 173.399 77.384 173.063 78.264C172.743 79.128 172.583 80.24 172.583 81.6C172.583 82.944 172.743 84.056 173.063 84.936C173.399 85.816 173.855 86.472 174.431 86.904C175.023 87.32 175.695 87.528 176.447 87.528ZM192.595 90.24C191.267 90.24 190.067 89.904 188.995 89.232C187.939 88.56 187.107 87.584 186.499 86.304C185.891 85.008 185.587 83.44 185.587 81.6C185.587 79.76 185.891 78.2 186.499 76.92C187.107 75.624 187.939 74.64 188.995 73.968C190.067 73.296 191.267 72.96 192.595 72.96C193.939 72.96 195.139 73.296 196.195 73.968C197.251 74.64 198.083 75.624 198.691 76.92C199.315 78.2 199.627 79.76 199.627 81.6C199.627 83.44 199.315 85.008 198.691 86.304C198.083 87.584 197.251 88.56 196.195 89.232C195.139 89.904 193.939 90.24 192.595 90.24ZM192.595 87.528C193.379 87.528 194.059 87.32 194.635 86.904C195.211 86.472 195.659 85.816 195.979 84.936C196.315 84.056 196.483 82.944 196.483 81.6C196.483 80.24 196.315 79.128 195.979 78.264C195.659 77.384 195.211 76.736 194.635 76.32C194.059 75.888 193.379 75.672 192.595 75.672C191.843 75.672 191.171 75.888 190.579 76.32C190.003 76.736 189.547 77.384 189.211 78.264C188.891 79.128 188.731 80.24 188.731 81.6C188.731 82.944 188.891 84.056 189.211 84.936C189.547 85.816 190.003 86.472 190.579 86.904C191.171 87.32 191.843 87.528 192.595 87.528Z" fill="black"/>
<defs>
<linearGradient id="paint0_linear_1187_3819" x1="120" y1="157" x2="120" y2="6.48768e-06" gradientUnits="userSpaceOnUse">
<stop stop-color="#E62C20"/>
<stop offset="1" stop-color="#E62C20" stop-opacity="0"/>
</linearGradient>
</defs>
</svg>
