<svg width="189" height="19" viewBox="0 0 189 19" fill="none" xmlns="http://www.w3.org/2000/svg">
<path d="M5.648 8.352H13.04V12.624H5.648V8.352ZM6.032 18H0.368V1.2H14.024V5.472H6.032V18ZM38.2258 18.384C36.8178 18.384 35.4578 18.224 34.1458 17.904C32.8338 17.584 31.7537 17.168 30.9058 16.656L32.7298 12.528C33.5298 12.992 34.4178 13.368 35.3938 13.656C36.3858 13.928 37.3458 14.064 38.2738 14.064C38.8178 14.064 39.2418 14.032 39.5458 13.968C39.8658 13.888 40.0978 13.784 40.2418 13.656C40.3858 13.512 40.4578 13.344 40.4578 13.152C40.4578 12.848 40.2898 12.608 39.9538 12.432C39.6178 12.256 39.1698 12.112 38.6098 12C38.0658 11.872 37.4658 11.744 36.8098 11.616C36.1538 11.472 35.4898 11.288 34.8178 11.064C34.1618 10.84 33.5538 10.544 32.9938 10.176C32.4498 9.808 32.0098 9.328 31.6738 8.736C31.3378 8.128 31.1698 7.376 31.1698 6.48C31.1698 5.44 31.4578 4.496 32.0338 3.648C32.6258 2.784 33.4978 2.096 34.6498 1.584C35.8178 1.072 37.2658 0.816 38.9938 0.816C40.1298 0.816 41.2498 0.935999 42.3538 1.176C43.4578 1.416 44.4498 1.784 45.3298 2.28L43.6258 6.384C42.7938 5.968 41.9858 5.656 41.2018 5.448C40.4338 5.24 39.6818 5.136 38.9458 5.136C38.4018 5.136 37.9698 5.184 37.6497 5.28C37.3298 5.376 37.0978 5.504 36.9538 5.664C36.8258 5.824 36.7617 6 36.7617 6.192C36.7617 6.48 36.9298 6.712 37.2658 6.888C37.6018 7.048 38.0418 7.184 38.5858 7.296C39.1458 7.408 39.7538 7.528 40.4098 7.656C41.0818 7.784 41.7458 7.96 42.4018 8.184C43.0578 8.408 43.6578 8.704 44.2018 9.072C44.7618 9.44 45.2098 9.92 45.5458 10.512C45.8818 11.104 46.0498 11.84 46.0498 12.72C46.0498 13.744 45.7538 14.688 45.1618 15.552C44.5858 16.4 43.7218 17.088 42.5698 17.616C41.4178 18.128 39.9698 18.384 38.2258 18.384ZM51.1488 18V5.592H46.2288V1.2H61.7328V5.592H56.8128V18H51.1488ZM63.2039 18V1.2H68.8679V18H63.2039ZM76.8746 18L69.7706 1.2H75.8666L81.6506 15.384H78.0266L83.9786 1.2H89.5466L82.4426 18H76.8746ZM109.798 18V1.2H115.462V13.608H123.046V18H109.798ZM138.07 18.384C136.662 18.384 135.302 18.224 133.99 17.904C132.678 17.584 131.597 17.168 130.75 16.656L132.574 12.528C133.374 12.992 134.262 13.368 135.238 13.656C136.23 13.928 137.19 14.064 138.118 14.064C138.662 14.064 139.086 14.032 139.39 13.968C139.71 13.888 139.942 13.784 140.086 13.656C140.23 13.512 140.302 13.344 140.302 13.152C140.302 12.848 140.134 12.608 139.798 12.432C139.462 12.256 139.014 12.112 138.454 12C137.91 11.872 137.31 11.744 136.654 11.616C135.998 11.472 135.334 11.288 134.662 11.064C134.006 10.84 133.398 10.544 132.838 10.176C132.294 9.808 131.854 9.328 131.518 8.736C131.182 8.128 131.014 7.376 131.014 6.48C131.014 5.44 131.302 4.496 131.878 3.648C132.47 2.784 133.342 2.096 134.494 1.584C135.662 1.072 137.11 0.816 138.838 0.816C139.974 0.816 141.094 0.935999 142.198 1.176C143.302 1.416 144.294 1.784 145.174 2.28L143.47 6.384C142.638 5.968 141.83 5.656 141.046 5.448C140.278 5.24 139.526 5.136 138.79 5.136C138.246 5.136 137.814 5.184 137.493 5.28C137.174 5.376 136.942 5.504 136.798 5.664C136.67 5.824 136.605 6 136.605 6.192C136.605 6.48 136.774 6.712 137.11 6.888C137.446 7.048 137.886 7.184 138.43 7.296C138.99 7.408 139.598 7.528 140.254 7.656C140.926 7.784 141.59 7.96 142.246 8.184C142.902 8.408 143.502 8.704 144.046 9.072C144.606 9.44 145.054 9.92 145.39 10.512C145.726 11.104 145.894 11.84 145.894 12.72C145.894 13.744 145.598 14.688 145.006 15.552C144.43 16.4 143.566 17.088 142.414 17.616C141.262 18.128 139.814 18.384 138.07 18.384ZM163.727 18V1.2H168.383L176.927 11.424H174.767V1.2H180.287V18H175.631L167.087 7.776H169.247V18H163.727ZM183.016 18V1.2H188.68V18H183.016Z" fill="#EEEEEE"/>
<path d="M20.9973 7.44H28.4853V11.52H20.9973V7.44ZM21.3813 13.728H29.7813V18H15.8133V1.2H29.4693V5.472H21.3813V13.728Z" fill="#488267"/>
<path d="M88.6377 18L95.9818 1.2H101.55L108.894 18H103.038L97.6138 3.888H99.8218L94.3978 18H88.6377ZM93.0058 15.072L94.4458 10.992H102.174L103.614 15.072H93.0058Z" fill="#9C4A9A"/>
<path d="M152.763 7.44H160.251V11.52H152.763V7.44ZM153.147 13.728H161.547V18H147.579V1.2H161.235V5.472H153.147V13.728Z" fill="#4A8068"/>
</svg>
