<svg width="367" height="83" viewBox="0 0 367 83" fill="none" xmlns="http://www.w3.org/2000/svg">
<g opacity="0.5" clip-path="url(#clip0_2145_126)">
<path d="M-443 40L2.13994 40" stroke="#EEEEEE" stroke-width="5" stroke-linejoin="round"/>
<path d="M11.0391 10H14.4316L14.4316 23.4693H11.0391L11.0391 25.9183H7.64654L7.64654 29.5917H4.254V33.2652H1.9923L1.9923 19.7959H5.38485V17.3469H7.64654V13.6735H11.0391V10Z" fill="#D9D9D9"/>
<path d="M6.51563 34.4896L6.51562 38.1631H18.955V34.4896H21.2167V30.8162H24.6092V27.1427H28.0018L28.0018 24.6938H15.5624V28.3672H13.3007V30.8162H9.90817V34.4896H6.51563Z" fill="#D9D9D9"/>
<path d="M28.002 51.6332V55.3066H15.5626V51.6332H13.3009L13.3009 47.9597H9.90837V44.2863H6.51582L6.51582 41.8373H18.9552V45.5108H21.2169V47.9597H24.6094V51.6332H28.002Z" fill="#D9D9D9"/>
<path d="M11.0391 70H14.4316L14.4316 56.5307H11.0391V54.0817H7.64654L7.64654 50.4083H4.254L4.254 46.7348H1.9923L1.9923 60.2041H5.38485V62.6531H7.64654V66.3265H11.0391V70Z" fill="#D9D9D9"/>
<rect x="-1.40039" y="38.1631" width="3.39255" height="3.67345" fill="#D9D9D9"/>
</g>
<g opacity="0.5" clip-path="url(#clip1_2145_126)">
<path d="M803.002 41.0034L356.907 41.0035" stroke="#EEEEEE" stroke-width="5" stroke-linejoin="round"/>
<path d="M347.999 73H344.6V59.5307H347.999V57.0817H351.399V53.4083H354.799V49.7348H357.066V63.2041H353.666V65.6531H351.399V69.3265H347.999V73Z" fill="#D9D9D9"/>
<path d="M352.533 48.5104V44.8369L340.067 44.8369V48.5104H337.801V52.1838H334.401V55.8573H331.001V58.3062L343.467 58.3062V54.6328H345.734V52.1838H349.133V48.5104H352.533Z" fill="#D9D9D9"/>
<path d="M331 31.3668V27.6934L343.466 27.6934V31.3668H345.733V35.0403H349.132V38.7137H352.532V41.1627L340.066 41.1627V37.4892H337.8V35.0403H334.4V31.3668H331Z" fill="#D9D9D9"/>
<path d="M347.999 13L344.6 13V26.4693H347.999V28.9183H351.399V32.5917H354.799V36.2652H357.066V22.7959H353.666V20.3469H351.399V16.6735L347.999 16.6735V13Z" fill="#D9D9D9"/>
<rect x="360.465" y="44.8369" width="3.39983" height="3.67345" transform="rotate(180 360.465 44.8369)" fill="#D9D9D9"/>
</g>
<g clip-path="url(#clip2_2145_126)">
<g opacity="0.1">
<path d="M244.834 26.2333V28.548H253.645V26.2333H255.247V23.9186H257.65V21.6039H260.053V20.0608H251.242V22.3755H249.64V23.9186H247.237V26.2333H244.834Z" fill="#EEEEEE"/>
<path d="M244.834 11.5735V9.25883H253.645V11.5735H255.247V13.8882H257.65V16.2029H260.053V17.7461H251.242V15.4314H249.64V13.8882H247.237V11.5735H244.834Z" fill="#EEEEEE"/>
<path d="M260.854 14.6598H263.257V6.17253H260.854V4.6294H258.451V2.3147H256.048V0H254.446V8.48723H256.849V10.0304H258.451V12.3451H260.854V14.6598Z" fill="#EEEEEE"/>
<path d="M272.068 7.80852e-05H274.471V8.48731H272.068V10.0304H269.665V12.3451H267.262V14.6598H265.66V6.17261H268.063V4.62948H269.665V2.31478H272.068V7.80852e-05Z" fill="#EEEEEE"/>
<path d="M284.083 11.5736V9.25887H275.272V11.5736H273.67V13.8883H271.267V16.203H268.864V17.7461H277.675V15.4314H279.277V13.8883H281.68V11.5736H284.083Z" fill="#EEEEEE"/>
<path d="M284.083 26.2334V28.5481H275.272V26.2334H273.67V23.9187H271.267V21.604H268.864V20.0609H277.675V22.3756H279.277V23.9187H281.68V26.2334H284.083Z" fill="#EEEEEE"/>
<path d="M256.849 37.8068H254.446V29.3196H256.849V27.7765H259.252V25.4618H261.655V23.1471H263.257V31.6343H260.854V33.1774H259.252V35.4921H256.849V37.8068Z" fill="#EEEEEE"/>
<path d="M268.063 23.147H265.66V31.6342H268.063V33.1774L270.466 33.1774V35.4921H272.869V37.8068H274.471V29.3195L272.068 29.3195V27.7764H270.466V25.4617H268.063V23.147Z" fill="#EEEEEE"/>
<path d="M263.257 20.0607V17.746H265.66V20.0607H263.257Z" fill="#EEEEEE"/>
<path d="M151 26.2333V28.548H159.811V26.2333H161.413V23.9186H163.816V21.6039H166.219V20.0608H157.408V22.3755H155.806V23.9186H153.403V26.2333H151Z" fill="#EEEEEE"/>
<path d="M151 11.5736V9.25887H159.811V11.5736H161.413V13.8883H163.816V16.203H166.219V17.7461H157.408V15.4314H155.806V13.8883H153.403V11.5736H151Z" fill="#EEEEEE"/>
<path d="M167.02 14.6598H169.423V6.17261H167.02V4.62948H164.617V2.31478H162.214V7.91549e-05H160.612V8.48731H163.015V10.0304H164.617V12.3451H167.02V14.6598Z" fill="#EEEEEE"/>
<path d="M178.234 7.80852e-05H180.637V8.48731H178.234V10.0304H175.831V12.3451H173.428V14.6598H171.826V6.17261H174.229V4.62948H175.831V2.31478H178.234V7.80852e-05Z" fill="#EEEEEE"/>
<path d="M190.249 11.5736V9.25887H181.438V11.5736H179.836V13.8883H177.433V16.203H175.03V17.7461H183.841V15.4314H185.443V13.8883H187.846V11.5736H190.249Z" fill="#EEEEEE"/>
<path d="M190.249 26.2333V28.548H181.438V26.2333H179.836V23.9186H177.433V21.6039H175.03V20.0608H183.841V22.3755H185.443V23.9186H187.846V26.2333H190.249Z" fill="#EEEEEE"/>
<path d="M163.015 37.8068H160.612L160.612 29.3196H163.015V27.7765H165.418V25.4618H167.821V23.1471H169.423V31.6343H167.02V33.1774H165.418V35.4921H163.015V37.8068Z" fill="#EEEEEE"/>
<path d="M174.229 23.147H171.826L171.826 31.6342H174.229V33.1774L176.632 33.1774V35.4921H179.035V37.8068H180.637V29.3195L178.234 29.3195V27.7764H176.632V25.4617H174.229V23.147Z" fill="#EEEEEE"/>
<path d="M169.423 20.0607V17.746H171.826V20.0607H169.423Z" fill="#EEEEEE"/>
<path d="M197.917 21.5188V16.5443H199.983V14.5544H202.049V12.5645H204.114V10.5747H206.18V8.58485H208.246V6.59497H210.311V4.60522H212.377V2.6155H214.443V0.625545H220.64V2.6155H222.706V4.60518H224.772V6.59501H226.837V8.58481H228.903V10.5748H230.969V12.5646H233.034V14.5544H235.1V16.5441H237.166V21.5187H234.067V17.5391H232.002V15.5493H229.936V13.5595H227.87V11.5696H225.804V9.57976H223.739V7.58992H221.673V5.60024H219.607V3.61029H215.476V5.60024H213.41V7.58996H211.344V9.57972H209.279V11.5696H207.213V13.5595H205.147V15.5493H203.081V17.5391H201.016V21.5188H197.917Z" fill="#EEEEEE"/>
<path d="M197.917 16.5443V21.5188L199.983 21.5186V23.5086H202.048V25.4984H204.114V27.4882H206.18V29.478H208.246V31.4678H210.311V33.4576H212.377V35.4475H214.443V37.4374H220.64V35.4475H222.706V33.4576H224.772V31.4678H226.837V29.4781H228.903V27.4882H230.969V25.4983H233.034V23.5086H235.1V21.5187L237.166 21.5187V16.5441L234.067 16.5441V20.5238H232.002V22.5136H229.936V24.5034H227.87V26.4933H225.804V28.4831H223.739V30.4729H221.673V32.4628H219.607V34.4526H215.476V32.4627H213.41V30.4729H211.344V28.4831H209.279V26.4933H207.213V24.5034H205.147V22.5136H203.081V20.5239H201.016V16.5441L197.917 16.5443Z" fill="#EEEEEE"/>
<path d="M215.476 21.5188V16.5442H220.64V21.5188H215.476Z" fill="#EEEEEE"/>
<path d="M291.751 21.5189V16.5443H293.816V14.5544H295.882V12.5646H297.948V10.5749H300.014V8.58494H302.079V6.5951H304.145V4.6053H306.211V2.61555H308.276V0.625674H314.474V2.61559H316.539V4.60527H318.605V6.5951H320.671V8.5849H322.737V10.5749H324.802V12.5647H326.868V14.5544H328.934V16.5443H331V21.5188H327.901V17.5392H325.835V15.5494H323.77V13.5596H321.704V11.5696H319.638V9.57985H317.572V7.59001H315.507V5.60033H313.441V3.61042H309.309V5.60029H307.244V7.59005H305.178V9.57985H303.112V11.5697H301.047V13.5596H298.981V15.5494H296.915V17.5392H294.849V21.5189H291.751Z" fill="#EEEEEE"/>
<path d="M291.751 16.5443V21.5189L293.817 21.5188V23.5087H295.882V25.4985H297.948V27.4883H300.014V29.4781H302.08V31.468H304.145V33.4578H306.211V35.4476H308.277V37.4375H314.474V35.4476H316.54V33.4577H318.606V31.468H320.671V29.4782H322.737V27.4883H324.803V25.4985H326.868V23.5087H328.934V21.5188L331 21.5188V16.5443L327.901 16.5442V20.5239H325.835V22.5137H323.77V24.5036H321.704V26.4935H319.638V28.4832H317.573V30.473H315.507V32.4629H313.441V34.4528H309.31V32.4629H307.244V30.473H305.178V28.4832H303.112V26.4934H301.047V24.5036H298.981V22.5138H296.915V20.5239H294.85V16.5442L291.751 16.5443Z" fill="#EEEEEE"/>
<path d="M309.31 21.5189V16.5443H314.474V21.5189H309.31Z" fill="#EEEEEE"/>
<path d="M197.917 71.4265V73.7412H206.728V71.4265H208.33V69.1118H210.733V66.7971H213.136V65.2539H204.325V67.5686H202.723V69.1118H200.32V71.4265H197.917Z" fill="#EEEEEE"/>
<path d="M197.917 56.7666V54.4519H206.728V56.7666H208.33V59.0813H210.733V61.396H213.136V62.9392H204.325V60.6245H202.723V59.0813H200.32V56.7666H197.917Z" fill="#EEEEEE"/>
<path d="M213.937 59.8529H216.34V51.3657H213.937V49.8225H211.534V47.5078H209.131V45.1931H207.529V53.6804H209.932V55.2235H211.534V57.5382H213.937V59.8529Z" fill="#EEEEEE"/>
<path d="M225.151 45.1932H227.554V53.6804H225.151V55.2235H222.748V57.5382H220.345V59.8529H218.743V51.3657H221.146V49.8226H222.748V47.5079H225.151V45.1932Z" fill="#EEEEEE"/>
<path d="M237.166 56.7667V54.452H228.355V56.7667H226.753V59.0814H224.35V61.3961H221.947V62.9392H230.758V60.6245H232.36V59.0814H234.763V56.7667H237.166Z" fill="#EEEEEE"/>
<path d="M237.166 71.4265V73.7412H228.355V71.4265H226.753V69.1118H224.35V66.7971H221.947V65.254H230.758V67.5687H232.36V69.1118H234.763V71.4265H237.166Z" fill="#EEEEEE"/>
<path d="M209.932 82.9999H207.529V74.5127H209.932V72.9696H212.335V70.6549H214.738V68.3402H216.34V76.8274H213.937V78.3705H212.335V80.6852H209.932V82.9999Z" fill="#EEEEEE"/>
<path d="M221.146 68.3401H218.743V76.8273H221.146V78.3705H223.549V80.6852H225.952V82.9999H227.554V74.5126L225.151 74.5126V72.9695H223.549V70.6548H221.146V68.3401Z" fill="#EEEEEE"/>
<path d="M216.34 65.2539V62.9392H218.743V65.2539H216.34Z" fill="#EEEEEE"/>
<path d="M151 66.7121V61.7375H153.066V59.7476H155.132V57.7577H157.197V55.7679H159.263V53.7781H161.329V51.7882H163.394V49.7984H165.46V47.8087H167.526V45.8188H173.723V47.8087H175.789V49.7984H177.855V51.7882H179.92V53.778H181.986V55.768H184.052V57.7578H186.117V59.7476H188.183V61.7374H190.249V66.7119H187.15V62.7324H185.084V60.7425H183.019V58.7527H180.953V56.7628H178.887V54.773H176.822V52.7831H174.756V50.7935H172.69V48.8035H168.559V50.7934H166.493V52.7832H164.427V54.7729H162.361V56.7628H160.296V58.7527H158.23V60.7424H156.164V62.7323H154.099V66.7121H151Z" fill="#EEEEEE"/>
<path d="M151 61.7375V66.7121L153.066 66.7119V68.7019H155.131V70.6917H157.197V72.6815H159.263V74.6713H161.329V76.6611H163.394V78.6509H165.46V80.6408H167.526V82.6307H173.723V80.6408H175.789V78.6509H177.855V76.6611H179.92V74.6714H181.986V72.6815H184.052V70.6916H186.117V68.7018H188.183V66.712L190.249 66.7119V61.7374L187.15 61.7374V65.7171H185.084V67.7068H183.019V69.6967H180.953V71.6866H178.887V73.6764H176.822V75.6662H174.756V77.656H172.69V79.6459H168.559V77.656H166.493V75.6662H164.427V73.6764H162.361V71.6866H160.296V69.6967H158.23V67.7069H156.164V65.7172H154.099V61.7373L151 61.7375Z" fill="#EEEEEE"/>
<path d="M168.559 66.712V61.7375H173.723V66.712H168.559Z" fill="#EEEEEE"/>
<path d="M291.751 71.4265V73.7412H300.562V71.4265H302.164V69.1118H304.567V66.7971H306.97V65.2539H298.159V67.5686H296.557V69.1118H294.154V71.4265H291.751Z" fill="#EEEEEE"/>
<path d="M291.751 56.7668V54.4521H300.562V56.7668H302.164V59.0815H304.567V61.3962H306.97V62.9393H298.159V60.6246H296.557V59.0815H294.154V56.7668H291.751Z" fill="#EEEEEE"/>
<path d="M307.771 59.853H310.174V51.3657H307.771V49.8226H305.368V47.5079H302.965V45.1932H301.363V53.6804H303.766V55.2236H305.368V57.5383H307.771V59.853Z" fill="#EEEEEE"/>
<path d="M318.985 45.1932H321.388V53.6805H318.985V55.2236H316.582V57.5383H314.179V59.853H312.577V51.3658H314.98V49.8226H316.582V47.5079H318.985V45.1932Z" fill="#EEEEEE"/>
<path d="M331 56.7668V54.4521H322.189V56.7668H320.587V59.0815H318.184V61.3962H315.781V62.9393H324.592V60.6246H326.194V59.0815H328.597V56.7668H331Z" fill="#EEEEEE"/>
<path d="M331 71.4265V73.7412H322.189V71.4265H320.587V69.1118H318.184V66.7971H315.781V65.254H324.592V67.5687H326.194V69.1118H328.597V71.4265H331Z" fill="#EEEEEE"/>
<path d="M303.766 83H301.363V74.5128H303.766V72.9696H306.169V70.6549H308.572V68.3402H310.174V76.8275H307.771V78.3706H306.169V80.6853H303.766V83Z" fill="#EEEEEE"/>
<path d="M314.98 68.3401H312.577V76.8274H314.98V78.3705H317.383V80.6852H319.786V82.9999H321.388V74.5127H318.985V72.9695H317.383V70.6548H314.98V68.3401Z" fill="#EEEEEE"/>
<path d="M310.174 65.2539V62.9392H312.577V65.2539H310.174Z" fill="#EEEEEE"/>
<path d="M244.834 66.712V61.7374H246.9V59.7475H248.965V57.7577H251.031V55.7679H253.097V53.778H255.163V51.7882H257.228V49.7984H259.294V47.8086H261.36V45.8187H267.557V47.8087H269.623V49.7983H271.688V51.7882H273.754V53.7779H275.82V55.7679H277.886V57.7577H279.951V59.7475H282.017V61.7373H284.083V66.7119H280.984V62.7323H278.918V60.7425H276.853V58.7527H274.787V56.7627H272.721V54.7729H270.656V52.7831H268.59V50.7934H266.524V48.8034H262.393V50.7934H260.327V52.7831H258.261V54.7729H256.195V56.7628H254.13V58.7527H252.064V60.7424H249.998V62.7323H247.933V66.712H244.834Z" fill="#EEEEEE"/>
<path d="M244.834 61.7374V66.712L246.9 66.7118V68.7017H248.966V70.6915H251.031V72.6813H253.097V74.6712H255.163V76.661H257.228V78.6508H259.294V80.6406H261.36V82.6305H267.557V80.6406H269.623V78.6508H271.689V76.661H273.754V74.6712H275.82V72.6813H277.886V70.6915H279.951V68.7017H282.017V66.7118L284.083 66.7119V61.7373L280.984 61.7372V65.717H278.919V67.7067H276.853V69.6966H274.787V71.6865H272.721V73.6763H270.656V75.666H268.59V77.6559H266.524V79.6458H262.393V77.6559H260.327V75.6661H258.261V73.6763H256.196V71.6864H254.13V69.6966H252.064V67.7068H249.998V65.717H247.933V61.7372L244.834 61.7374Z" fill="#EEEEEE"/>
<path d="M262.393 66.7119V61.7374H267.557V66.7119H262.393Z" fill="#EEEEEE"/>
</g>
<g opacity="0.1">
<path d="M61.8341 26.2333V28.548H70.645V26.2333H72.247V23.9186H74.65V21.6039H77.053V20.0608H68.2421V22.3755H66.6401V23.9186H64.2371V26.2333H61.8341Z" fill="#EEEEEE"/>
<path d="M61.8341 11.5735V9.25883H70.645V11.5735H72.247V13.8882H74.65V16.2029H77.053V17.7461H68.2421V15.4314H66.6401V13.8882H64.2371V11.5735H61.8341Z" fill="#EEEEEE"/>
<path d="M77.854 14.6598H80.257V6.17253H77.854V4.6294H75.451V2.3147H73.048V0H71.4461V8.48723H73.8491V10.0304H75.451V12.3451H77.854V14.6598Z" fill="#EEEEEE"/>
<path d="M89.068 7.80852e-05H91.471V8.48731H89.068V10.0304H86.665V12.3451H84.262V14.6598H82.66V6.17261H85.063V4.62948H86.665V2.31478H89.068V7.80852e-05Z" fill="#EEEEEE"/>
<path d="M101.083 11.5736V9.25887H92.272V11.5736H90.67V13.8883H88.267V16.203H85.864V17.7461H94.675V15.4314H96.277V13.8883H98.6799V11.5736H101.083Z" fill="#EEEEEE"/>
<path d="M101.083 26.2334V28.5481H92.272V26.2334H90.67V23.9187H88.267V21.604H85.864V20.0609H94.675V22.3756H96.277V23.9187H98.6799V26.2334H101.083Z" fill="#EEEEEE"/>
<path d="M73.849 37.8068H71.4461V29.3196H73.849V27.7765H76.252V25.4618H78.655V23.1471H80.257V31.6343H77.854V33.1774H76.252V35.4921H73.849V37.8068Z" fill="#EEEEEE"/>
<path d="M85.0631 23.147H82.6601V31.6342H85.0631V33.1774L87.4661 33.1774V35.4921H89.8691V37.8068H91.4711V29.3195L89.0681 29.3195V27.7764H87.4661V25.4617H85.0631V23.147Z" fill="#EEEEEE"/>
<path d="M80.2571 20.0607V17.746H82.6601V20.0607H80.2571Z" fill="#EEEEEE"/>
<path d="M-32 26.2333V28.548H-23.189V26.2333H-21.587V23.9186H-19.1841V21.6039H-16.7811V20.0608H-25.592V22.3755H-27.194V23.9186H-29.597V26.2333H-32Z" fill="#EEEEEE"/>
<path d="M-32 11.5736V9.25887H-23.189V11.5736H-21.587V13.8883H-19.1841V16.203H-16.7811V17.7461H-25.592V15.4314H-27.194V13.8883H-29.597V11.5736H-32Z" fill="#EEEEEE"/>
<path d="M-15.9801 14.6598H-13.5771V6.17261H-15.9801V4.62948H-18.383V2.31478H-20.786V7.91549e-05H-22.388V8.48731H-19.985V10.0304H-18.383V12.3451H-15.9801V14.6598Z" fill="#EEEEEE"/>
<path d="M-4.7661 7.80852e-05H-2.36312V8.48731H-4.7661V10.0304H-7.16909V12.3451H-9.57208V14.6598H-11.1741V6.17261H-8.77109V4.62948H-7.16909V2.31478H-4.7661V7.80852e-05Z" fill="#EEEEEE"/>
<path d="M7.24885 11.5736V9.25887H-1.56211V11.5736H-3.1641V13.8883H-5.56709V16.203H-7.97008V17.7461H0.840881V15.4314H2.44287V13.8883H4.84586V11.5736H7.24885Z" fill="#EEEEEE"/>
<path d="M7.24885 26.2333V28.548H-1.56211V26.2333H-3.1641V23.9186H-5.56709V21.6039H-7.97008V20.0608H0.840881V22.3755H2.44287V23.9186H4.84586V26.2333H7.24885Z" fill="#EEEEEE"/>
<path d="M-19.985 37.8068H-22.388L-22.388 29.3196H-19.985V27.7765H-17.5821V25.4618H-15.1791V23.1471H-13.5771V31.6343H-15.9801V33.1774H-17.5821V35.4921H-19.985V37.8068Z" fill="#EEEEEE"/>
<path d="M-8.7711 23.147H-11.1741L-11.1741 31.6342H-8.7711V33.1774L-6.36811 33.1774V35.4921H-3.96512V37.8068H-2.36313V29.3195L-4.76612 29.3195V27.7764H-6.36811V25.4617H-8.7711V23.147Z" fill="#EEEEEE"/>
<path d="M-13.5771 20.0607V17.746H-11.1741V20.0607H-13.5771Z" fill="#EEEEEE"/>
<path d="M14.917 21.5188V16.5443H16.9827V14.5544H19.0486V12.5645H21.1142V10.5747H23.1799V8.58485H25.2458V6.59497H27.3114V4.60522H29.3771V2.6155H31.4429V0.625545H37.6401V2.6155H39.7057V4.60518H41.7716V6.59501H43.8373V8.58481H45.9029V10.5748H47.9688V12.5646H50.0344V14.5544H52.1001V16.5441H54.166V21.5187H51.0674V17.5391H49.0015V15.5493H46.9359V13.5595H44.8702V11.5696H42.8043V9.57976H40.7387V7.58992H38.673V5.60024H36.6071V3.61029H32.4757V5.60024H30.41V7.58996H28.3444V9.57972H26.2785V11.5696H24.2128V13.5595H22.1472V15.5493H20.0813V17.5391H18.0156V21.5188H14.917Z" fill="#EEEEEE"/>
<path d="M14.917 16.5443V21.5188L16.9827 21.5186V23.5086H19.0485V25.4984H21.1142V27.4882H23.1799V29.478H25.2458V31.4678H27.3114V33.4576H29.3771V35.4475H31.4429V37.4374H37.6401V35.4475H39.7057V33.4576H41.7716V31.4678H43.8373V29.4781H45.9029V27.4882H47.9687V25.4983H50.0344V23.5086H52.1001V21.5187L54.166 21.5187V16.5441L51.0672 16.5441V20.5238H49.0015V22.5136H46.9359V24.5034H44.8701V26.4933H42.8043V28.4831H40.7387V30.4729H38.673V32.4628H36.6071V34.4526H32.4757V32.4627H30.41V30.4729H28.3444V28.4831H26.2785V26.4933H24.2128V24.5034H22.1471V22.5136H20.0813V20.5239H18.0156V16.5441L14.917 16.5443Z" fill="#EEEEEE"/>
<path d="M32.4758 21.5188V16.5442H37.6401V21.5188H32.4758Z" fill="#EEEEEE"/>
<path d="M108.751 21.5189V16.5443H110.816V14.5544H112.882V12.5646H114.948V10.5749H117.014V8.58494H119.079V6.5951H121.145V4.6053H123.211V2.61555H125.276V0.625674H131.474V2.61559H133.539V4.60527H135.605V6.5951H137.671V8.5849H139.737V10.5749H141.802V12.5647H143.868V14.5544H145.934V16.5443H148V21.5188H144.901V17.5392H142.835V15.5494H140.77V13.5596H138.704V11.5696H136.638V9.57985H134.572V7.59001H132.507V5.60033H130.441V3.61042H126.309V5.60029H124.244V7.59005H122.178V9.57985H120.112V11.5697H118.047V13.5596H115.981V15.5494H113.915V17.5392H111.849V21.5189H108.751Z" fill="#EEEEEE"/>
<path d="M108.751 16.5443V21.5189L110.817 21.5188V23.5087H112.882V25.4985H114.948V27.4883H117.014V29.4781H119.08V31.468H121.145V33.4578H123.211V35.4476H125.277V37.4375H131.474V35.4476H133.54V33.4577H135.606V31.468H137.671V29.4782H139.737V27.4883H141.803V25.4985H143.868V23.5087H145.934V21.5188L148 21.5188V16.5443L144.901 16.5442V20.5239H142.835V22.5137H140.77V24.5036H138.704V26.4935H136.638V28.4832H134.573V30.473H132.507V32.4629H130.441V34.4528H126.31V32.4629H124.244V30.473H122.178V28.4832H120.112V26.4934H118.047V24.5036H115.981V22.5138H113.915V20.5239H111.85V16.5442L108.751 16.5443Z" fill="#EEEEEE"/>
<path d="M126.31 21.5189V16.5443H131.474V21.5189H126.31Z" fill="#EEEEEE"/>
<path d="M14.9172 71.4265V73.7412H23.7281V71.4265H25.3301V69.1118H27.7331V66.7971H30.1361V65.2539H21.3251V67.5686H19.7232V69.1118H17.3202V71.4265H14.9172Z" fill="#EEEEEE"/>
<path d="M14.9172 56.7666V54.4519H23.7281V56.7666H25.3301V59.0813H27.7331V61.396H30.1361V62.9392H21.3251V60.6245H19.7232V59.0813H17.3202V56.7666H14.9172Z" fill="#EEEEEE"/>
<path d="M30.9371 59.8529H33.3401V51.3657H30.9371V49.8225H28.5341V47.5078H26.1312V45.1931H24.5292V53.6804H26.9321V55.2235H28.5341V57.5382H30.9371V59.8529Z" fill="#EEEEEE"/>
<path d="M42.151 45.1932H44.554V53.6804H42.151V55.2235H39.748V57.5382H37.345V59.8529H35.743V51.3657H38.146V49.8226H39.748V47.5079H42.151V45.1932Z" fill="#EEEEEE"/>
<path d="M54.166 56.7667V54.452H45.355V56.7667H43.753V59.0814H41.35V61.3961H38.947V62.9392H47.758V60.6245H49.36V59.0814H51.763V56.7667H54.166Z" fill="#EEEEEE"/>
<path d="M54.166 71.4265V73.7412H45.355V71.4265H43.753V69.1118H41.35V66.7971H38.947V65.254H47.758V67.5687H49.36V69.1118H51.763V71.4265H54.166Z" fill="#EEEEEE"/>
<path d="M26.9321 82.9999H24.5291V74.5127H26.9321V72.9696H29.3351V70.6549H31.7381V68.3402H33.34V76.8274H30.9371V78.3705H29.3351V80.6852H26.9321V82.9999Z" fill="#EEEEEE"/>
<path d="M38.1462 68.3401H35.7432V76.8273H38.1462V78.3705H40.5492V80.6852H42.9522V82.9999H44.5542V74.5126L42.1512 74.5126V72.9695H40.5492V70.6548H38.1462V68.3401Z" fill="#EEEEEE"/>
<path d="M33.3402 65.2539V62.9392H35.7432V65.2539H33.3402Z" fill="#EEEEEE"/>
<path d="M-32 66.7121V61.7375H-29.9343V59.7476H-27.8685V57.7577H-25.8028V55.7679H-23.7372V53.7781H-21.6713V51.7882H-19.6056V49.7984H-17.54V47.8087H-15.4741V45.8188H-9.27689V47.8087H-7.21132V49.7984H-5.14547V51.7882H-3.07981V53.778H-1.01414V55.768H1.0517V57.7578H3.11737V59.7476H5.18303V61.7374H7.24888V66.7119H4.15029V62.7324H2.08444V60.7425H0.0187798V58.7527H-2.04689V56.7628H-4.11273V54.773H-6.1784V52.7831H-8.24406V50.7935H-10.3099V48.8035H-14.4414V50.7934H-16.507V52.7832H-18.5727V54.7729H-20.6386V56.7628H-22.7042V58.7527H-24.7699V60.7424H-26.8357V62.7323H-28.9014V66.7121H-32Z" fill="#EEEEEE"/>
<path d="M-32 61.7375V66.7121L-29.9343 66.7119V68.7019H-27.8686V70.6917H-25.8028V72.6815H-23.7372V74.6713H-21.6713V76.6611H-19.6056V78.6509H-17.54V80.6408H-15.4742V82.6307H-9.27701V80.6408H-7.21132V78.6509H-5.14547V76.6611H-3.07981V74.6714H-1.01414V72.6815H1.05159V70.6916H3.11737V68.7018H5.18303V66.712L7.24888 66.7119V61.7374L4.15017 61.7374V65.7171H2.08444V67.7068H0.0187798V69.6967H-2.04701V71.6866H-4.11273V73.6764H-6.1784V75.6662H-8.24406V77.656H-10.3099V79.6459H-14.4414V77.656H-16.507V75.6662H-18.5727V73.6764H-20.6386V71.6866H-22.7042V69.6967H-24.77V67.7069H-26.8357V65.7172H-28.9014V61.7373L-32 61.7375Z" fill="#EEEEEE"/>
<path d="M-14.4413 66.712V61.7375H-9.27698V66.712H-14.4413Z" fill="#EEEEEE"/>
<path d="M108.751 71.4265V73.7412H117.562V71.4265H119.164V69.1118H121.567V66.7971H123.97V65.2539H115.159V67.5686H113.557V69.1118H111.154V71.4265H108.751Z" fill="#EEEEEE"/>
<path d="M108.751 56.7668V54.4521H117.562V56.7668H119.164V59.0815H121.567V61.3962H123.97V62.9393H115.159V60.6246H113.557V59.0815H111.154V56.7668H108.751Z" fill="#EEEEEE"/>
<path d="M124.771 59.853H127.174V51.3657H124.771V49.8226H122.368V47.5079H119.965V45.1932H118.363V53.6804H120.766V55.2236H122.368V57.5383H124.771V59.853Z" fill="#EEEEEE"/>
<path d="M135.985 45.1932H138.388V53.6805H135.985V55.2236H133.582V57.5383H131.179V59.853H129.577V51.3658H131.98V49.8226H133.582V47.5079H135.985V45.1932Z" fill="#EEEEEE"/>
<path d="M148 56.7668V54.4521H139.189V56.7668H137.587V59.0815H135.184V61.3962H132.781V62.9393H141.592V60.6246H143.194V59.0815H145.597V56.7668H148Z" fill="#EEEEEE"/>
<path d="M148 71.4265V73.7412H139.189V71.4265H137.587V69.1118H135.184V66.7971H132.781V65.254H141.592V67.5687H143.194V69.1118H145.597V71.4265H148Z" fill="#EEEEEE"/>
<path d="M120.766 83H118.363V74.5128H120.766V72.9696H123.169V70.6549H125.572V68.3402H127.174V76.8275H124.771V78.3706H123.169V80.6853H120.766V83Z" fill="#EEEEEE"/>
<path d="M131.98 68.3401H129.577V76.8274H131.98V78.3705H134.383V80.6852H136.786V82.9999H138.388V74.5127H135.985V72.9695H134.383V70.6548H131.98V68.3401Z" fill="#EEEEEE"/>
<path d="M127.174 65.2539V62.9392H129.577V65.2539H127.174Z" fill="#EEEEEE"/>
<path d="M61.834 66.712V61.7374H63.8997V59.7475H65.9655V57.7577H68.0312V55.7679H70.0969V53.778H72.1627V51.7882H74.2284V49.7984H76.294V47.8086H78.3597V45.8187H84.5569V47.8087H86.6227V49.7983H88.6885V51.7882H90.7542V53.7779H92.8199V55.7679H94.8857V57.7577H96.9514V59.7475H99.0171V61.7373H101.083V66.7119H97.9843V62.7323H95.9185V60.7425H93.8528V58.7527H91.7871V56.7627H89.7213V54.7729H87.6556V52.7831H85.5899V50.7934H83.5241V48.8034H79.3926V50.7934H77.327V52.7831H75.2612V54.7729H73.1955V56.7628H71.1298V58.7527H69.0641V60.7424H66.9983V62.7323H64.9326V66.712H61.834Z" fill="#EEEEEE"/>
<path d="M61.834 61.7374V66.712L63.8997 66.7118V68.7017H65.9656V70.6915H68.0313V72.6813H70.0969V74.6712H72.1628V76.661H74.2284V78.6508H76.2941V80.6406H78.3598V82.6305H84.5569V80.6406H86.6228V78.6508H88.6885V76.661H90.7543V74.6712H92.8199V72.6813H94.8857V70.6915H96.9514V68.7017H99.0171V66.7118L101.083 66.7119V61.7373L97.9842 61.7372V65.717H95.9185V67.7067H93.8529V69.6966H91.7871V71.6865H89.7213V73.6763H87.6557V75.666H85.59V77.6559H83.5242V79.6458H79.3927V77.6559H77.327V75.6661H75.2614V73.6763H73.1955V71.6864H71.1298V69.6966H69.0642V67.7068H66.9983V65.717H64.9327V61.7372L61.834 61.7374Z" fill="#EEEEEE"/>
<path d="M79.3928 66.7119V61.7374H84.5571V66.7119H79.3928Z" fill="#EEEEEE"/>
</g>
<g opacity="0.1">
<path d="M428.834 26.2333V28.548H437.645V26.2333H439.247V23.9186H441.65V21.6039H444.053V20.0608H435.242V22.3755H433.64V23.9186H431.237V26.2333H428.834Z" fill="#EEEEEE"/>
<path d="M428.834 11.5735V9.25883H437.645V11.5735H439.247V13.8882H441.65V16.2029H444.053V17.7461H435.242V15.4314H433.64V13.8882H431.237V11.5735H428.834Z" fill="#EEEEEE"/>
<path d="M444.854 14.6598H447.257V6.17253H444.854V4.6294H442.451V2.3147H440.048V0H438.446V8.48723H440.849V10.0304H442.451V12.3451H444.854V14.6598Z" fill="#EEEEEE"/>
<path d="M456.068 7.80852e-05H458.471V8.48731H456.068V10.0304H453.665V12.3451H451.262V14.6598H449.66V6.17261H452.063V4.62948H453.665V2.31478H456.068V7.80852e-05Z" fill="#EEEEEE"/>
<path d="M468.083 11.5736V9.25887H459.272V11.5736H457.67V13.8883H455.267V16.203H452.864V17.7461H461.675V15.4314H463.277V13.8883H465.68V11.5736H468.083Z" fill="#EEEEEE"/>
<path d="M468.083 26.2334V28.5481H459.272V26.2334H457.67V23.9187H455.267V21.604H452.864V20.0609H461.675V22.3756H463.277V23.9187H465.68V26.2334H468.083Z" fill="#EEEEEE"/>
<path d="M440.849 37.8068H438.446V29.3196H440.849V27.7765H443.252V25.4618H445.655V23.1471H447.257V31.6343H444.854V33.1774H443.252V35.4921H440.849V37.8068Z" fill="#EEEEEE"/>
<path d="M452.063 23.147H449.66V31.6342H452.063V33.1774L454.466 33.1774V35.4921H456.869V37.8068H458.471V29.3195L456.068 29.3195V27.7764H454.466V25.4617H452.063V23.147Z" fill="#EEEEEE"/>
<path d="M447.257 20.0607V17.746H449.66V20.0607H447.257Z" fill="#EEEEEE"/>
<path d="M335 26.2333V28.548H343.811V26.2333H345.413V23.9186H347.816V21.6039H350.219V20.0608H341.408V22.3755H339.806V23.9186H337.403V26.2333H335Z" fill="#EEEEEE"/>
<path d="M335 11.5736V9.25887H343.811V11.5736H345.413V13.8883H347.816V16.203H350.219V17.7461H341.408V15.4314H339.806V13.8883H337.403V11.5736H335Z" fill="#EEEEEE"/>
<path d="M351.02 14.6598H353.423V6.17261H351.02V4.62948H348.617V2.31478H346.214V7.91549e-05H344.612V8.48731H347.015V10.0304H348.617V12.3451H351.02V14.6598Z" fill="#EEEEEE"/>
<path d="M362.234 7.80852e-05H364.637V8.48731H362.234V10.0304H359.831V12.3451H357.428V14.6598H355.826V6.17261H358.229V4.62948H359.831V2.31478H362.234V7.80852e-05Z" fill="#EEEEEE"/>
<path d="M374.249 11.5736V9.25887H365.438V11.5736H363.836V13.8883H361.433V16.203H359.03V17.7461H367.841V15.4314H369.443V13.8883H371.846V11.5736H374.249Z" fill="#EEEEEE"/>
<path d="M374.249 26.2333V28.548H365.438V26.2333H363.836V23.9186H361.433V21.6039H359.03V20.0608H367.841V22.3755H369.443V23.9186H371.846V26.2333H374.249Z" fill="#EEEEEE"/>
<path d="M347.015 37.8068H344.612L344.612 29.3196H347.015V27.7765H349.418V25.4618H351.821V23.1471H353.423V31.6343H351.02V33.1774H349.418V35.4921H347.015V37.8068Z" fill="#EEEEEE"/>
<path d="M358.229 23.147H355.826L355.826 31.6342H358.229V33.1774L360.632 33.1774V35.4921H363.035V37.8068H364.637V29.3195L362.234 29.3195V27.7764H360.632V25.4617H358.229V23.147Z" fill="#EEEEEE"/>
<path d="M353.423 20.0607V17.746H355.826V20.0607H353.423Z" fill="#EEEEEE"/>
<path d="M381.917 21.5188V16.5443H383.983V14.5544H386.049V12.5645H388.114V10.5747H390.18V8.58485H392.246V6.59497H394.311V4.60522H396.377V2.6155H398.443V0.625545H404.64V2.6155H406.706V4.60518H408.772V6.59501H410.837V8.58481H412.903V10.5748H414.969V12.5646H417.034V14.5544H419.1V16.5441H421.166V21.5187H418.067V17.5391H416.002V15.5493H413.936V13.5595H411.87V11.5696H409.804V9.57976H407.739V7.58992H405.673V5.60024H403.607V3.61029H399.476V5.60024H397.41V7.58996H395.344V9.57972H393.279V11.5696H391.213V13.5595H389.147V15.5493H387.081V17.5391H385.016V21.5188H381.917Z" fill="#EEEEEE"/>
<path d="M381.917 16.5443V21.5188L383.983 21.5186V23.5086H386.048V25.4984H388.114V27.4882H390.18V29.478H392.246V31.4678H394.311V33.4576H396.377V35.4475H398.443V37.4374H404.64V35.4475H406.706V33.4576H408.772V31.4678H410.837V29.4781H412.903V27.4882H414.969V25.4983H417.034V23.5086H419.1V21.5187L421.166 21.5187V16.5441L418.067 16.5441V20.5238H416.002V22.5136H413.936V24.5034H411.87V26.4933H409.804V28.4831H407.739V30.4729H405.673V32.4628H403.607V34.4526H399.476V32.4627H397.41V30.4729H395.344V28.4831H393.279V26.4933H391.213V24.5034H389.147V22.5136H387.081V20.5239H385.016V16.5441L381.917 16.5443Z" fill="#EEEEEE"/>
<path d="M399.476 21.5188V16.5442H404.64V21.5188H399.476Z" fill="#EEEEEE"/>
<path d="M475.751 21.5189V16.5443H477.816V14.5544H479.882V12.5646H481.948V10.5749H484.014V8.58494H486.079V6.5951H488.145V4.6053H490.211V2.61555H492.276V0.625674H498.474V2.61559H500.539V4.60527H502.605V6.5951H504.671V8.5849H506.737V10.5749H508.802V12.5647H510.868V14.5544H512.934V16.5443H515V21.5188H511.901V17.5392H509.835V15.5494H507.77V13.5596H505.704V11.5696H503.638V9.57985H501.572V7.59001H499.507V5.60033H497.441V3.61042H493.309V5.60029H491.244V7.59005H489.178V9.57985H487.112V11.5697H485.047V13.5596H482.981V15.5494H480.915V17.5392H478.849V21.5189H475.751Z" fill="#EEEEEE"/>
<path d="M475.751 16.5443V21.5189L477.817 21.5188V23.5087H479.882V25.4985H481.948V27.4883H484.014V29.4781H486.08V31.468H488.145V33.4578H490.211V35.4476H492.277V37.4375H498.474V35.4476H500.54V33.4577H502.606V31.468H504.671V29.4782H506.737V27.4883H508.803V25.4985H510.868V23.5087H512.934V21.5188L515 21.5188V16.5443L511.901 16.5442V20.5239H509.835V22.5137H507.77V24.5036H505.704V26.4935H503.638V28.4832H501.573V30.473H499.507V32.4629H497.441V34.4528H493.31V32.4629H491.244V30.473H489.178V28.4832H487.112V26.4934H485.047V24.5036H482.981V22.5138H480.915V20.5239H478.85V16.5442L475.751 16.5443Z" fill="#EEEEEE"/>
<path d="M493.31 21.5189V16.5443H498.474V21.5189H493.31Z" fill="#EEEEEE"/>
<path d="M381.917 71.4265V73.7412H390.728V71.4265H392.33V69.1118H394.733V66.7971H397.136V65.2539H388.325V67.5686H386.723V69.1118H384.32V71.4265H381.917Z" fill="#EEEEEE"/>
<path d="M381.917 56.7666V54.4519H390.728V56.7666H392.33V59.0813H394.733V61.396H397.136V62.9392H388.325V60.6245H386.723V59.0813H384.32V56.7666H381.917Z" fill="#EEEEEE"/>
<path d="M397.937 59.8529H400.34V51.3657H397.937V49.8225H395.534V47.5078H393.131V45.1931H391.529V53.6804H393.932V55.2235H395.534V57.5382H397.937V59.8529Z" fill="#EEEEEE"/>
<path d="M409.151 45.1932H411.554V53.6804H409.151V55.2235H406.748V57.5382H404.345V59.8529H402.743V51.3657H405.146V49.8226H406.748V47.5079H409.151V45.1932Z" fill="#EEEEEE"/>
<path d="M421.166 56.7667V54.452H412.355V56.7667H410.753V59.0814H408.35V61.3961H405.947V62.9392H414.758V60.6245H416.36V59.0814H418.763V56.7667H421.166Z" fill="#EEEEEE"/>
<path d="M421.166 71.4265V73.7412H412.355V71.4265H410.753V69.1118H408.35V66.7971H405.947V65.254H414.758V67.5687H416.36V69.1118H418.763V71.4265H421.166Z" fill="#EEEEEE"/>
<path d="M393.932 82.9999H391.529V74.5127H393.932V72.9696H396.335V70.6549H398.738V68.3402H400.34V76.8274H397.937V78.3705H396.335V80.6852H393.932V82.9999Z" fill="#EEEEEE"/>
<path d="M405.146 68.3401H402.743V76.8273H405.146V78.3705H407.549V80.6852H409.952V82.9999H411.554V74.5126L409.151 74.5126V72.9695H407.549V70.6548H405.146V68.3401Z" fill="#EEEEEE"/>
<path d="M400.34 65.2539V62.9392H402.743V65.2539H400.34Z" fill="#EEEEEE"/>
<path d="M335 66.7121V61.7375H337.066V59.7476H339.132V57.7577H341.197V55.7679H343.263V53.7781H345.329V51.7882H347.394V49.7984H349.46V47.8087H351.526V45.8188H357.723V47.8087H359.789V49.7984H361.855V51.7882H363.92V53.778H365.986V55.768H368.052V57.7578H370.117V59.7476H372.183V61.7374H374.249V66.7119H371.15V62.7324H369.084V60.7425H367.019V58.7527H364.953V56.7628H362.887V54.773H360.822V52.7831H358.756V50.7935H356.69V48.8035H352.559V50.7934H350.493V52.7832H348.427V54.7729H346.361V56.7628H344.296V58.7527H342.23V60.7424H340.164V62.7323H338.099V66.7121H335Z" fill="#EEEEEE"/>
<path d="M335 61.7375V66.7121L337.066 66.7119V68.7019H339.131V70.6917H341.197V72.6815H343.263V74.6713H345.329V76.6611H347.394V78.6509H349.46V80.6408H351.526V82.6307H357.723V80.6408H359.789V78.6509H361.855V76.6611H363.92V74.6714H365.986V72.6815H368.052V70.6916H370.117V68.7018H372.183V66.712L374.249 66.7119V61.7374L371.15 61.7374V65.7171H369.084V67.7068H367.019V69.6967H364.953V71.6866H362.887V73.6764H360.822V75.6662H358.756V77.656H356.69V79.6459H352.559V77.656H350.493V75.6662H348.427V73.6764H346.361V71.6866H344.296V69.6967H342.23V67.7069H340.164V65.7172H338.099V61.7373L335 61.7375Z" fill="#EEEEEE"/>
<path d="M352.559 66.712V61.7375H357.723V66.712H352.559Z" fill="#EEEEEE"/>
<path d="M475.751 71.4265V73.7412H484.562V71.4265H486.164V69.1118H488.567V66.7971H490.97V65.2539H482.159V67.5686H480.557V69.1118H478.154V71.4265H475.751Z" fill="#EEEEEE"/>
<path d="M475.751 56.7668V54.4521H484.562V56.7668H486.164V59.0815H488.567V61.3962H490.97V62.9393H482.159V60.6246H480.557V59.0815H478.154V56.7668H475.751Z" fill="#EEEEEE"/>
<path d="M491.771 59.853H494.174V51.3657H491.771V49.8226H489.368V47.5079H486.965V45.1932H485.363V53.6804H487.766V55.2236H489.368V57.5383H491.771V59.853Z" fill="#EEEEEE"/>
<path d="M502.985 45.1932H505.388V53.6805H502.985V55.2236H500.582V57.5383H498.179V59.853H496.577V51.3658H498.98V49.8226H500.582V47.5079H502.985V45.1932Z" fill="#EEEEEE"/>
<path d="M515 56.7668V54.4521H506.189V56.7668H504.587V59.0815H502.184V61.3962H499.781V62.9393H508.592V60.6246H510.194V59.0815H512.597V56.7668H515Z" fill="#EEEEEE"/>
<path d="M515 71.4265V73.7412H506.189V71.4265H504.587V69.1118H502.184V66.7971H499.781V65.254H508.592V67.5687H510.194V69.1118H512.597V71.4265H515Z" fill="#EEEEEE"/>
<path d="M487.766 83H485.363V74.5128H487.766V72.9696H490.169V70.6549H492.572V68.3402H494.174V76.8275H491.771V78.3706H490.169V80.6853H487.766V83Z" fill="#EEEEEE"/>
<path d="M498.98 68.3401H496.577V76.8274H498.98V78.3705H501.383V80.6852H503.786V82.9999H505.388V74.5127H502.985V72.9695H501.383V70.6548H498.98V68.3401Z" fill="#EEEEEE"/>
<path d="M494.174 65.2539V62.9392H496.577V65.2539H494.174Z" fill="#EEEEEE"/>
<path d="M428.834 66.712V61.7374H430.9V59.7475H432.965V57.7577H435.031V55.7679H437.097V53.778H439.163V51.7882H441.228V49.7984H443.294V47.8086H445.36V45.8187H451.557V47.8087H453.623V49.7983H455.688V51.7882H457.754V53.7779H459.82V55.7679H461.886V57.7577H463.951V59.7475H466.017V61.7373H468.083V66.7119H464.984V62.7323H462.918V60.7425H460.853V58.7527H458.787V56.7627H456.721V54.7729H454.656V52.7831H452.59V50.7934H450.524V48.8034H446.393V50.7934H444.327V52.7831H442.261V54.7729H440.195V56.7628H438.13V58.7527H436.064V60.7424H433.998V62.7323H431.933V66.712H428.834Z" fill="#EEEEEE"/>
<path d="M428.834 61.7374V66.712L430.9 66.7118V68.7017H432.966V70.6915H435.031V72.6813H437.097V74.6712H439.163V76.661H441.228V78.6508H443.294V80.6406H445.36V82.6305H451.557V80.6406H453.623V78.6508H455.689V76.661H457.754V74.6712H459.82V72.6813H461.886V70.6915H463.951V68.7017H466.017V66.7118L468.083 66.7119V61.7373L464.984 61.7372V65.717H462.919V67.7067H460.853V69.6966H458.787V71.6865H456.721V73.6763H454.656V75.666H452.59V77.6559H450.524V79.6458H446.393V77.6559H444.327V75.6661H442.261V73.6763H440.196V71.6864H438.13V69.6966H436.064V67.7068H433.998V65.717H431.933V61.7372L428.834 61.7374Z" fill="#EEEEEE"/>
<path d="M446.393 66.7119V61.7374H451.557V66.7119H446.393Z" fill="#EEEEEE"/>
</g>
</g>
<path d="M34.4155 36V12.7273H44.461C46.1883 12.7273 47.6996 13.0682 48.9951 13.75C50.2905 14.4318 51.2981 15.3902 52.0178 16.625C52.7375 17.8598 53.0973 19.303 53.0973 20.9545C53.0973 22.6212 52.7261 24.0644 51.9837 25.2841C51.2489 26.5038 50.2148 27.4432 48.8814 28.1023C47.5557 28.7614 46.0064 29.0909 44.2337 29.0909H38.2337V24.1818H42.961C43.7034 24.1818 44.336 24.053 44.8587 23.7955C45.389 23.5303 45.7943 23.1553 46.0746 22.6705C46.3625 22.1856 46.5064 21.6136 46.5064 20.9545C46.5064 20.2879 46.3625 19.7197 46.0746 19.25C45.7943 18.7727 45.389 18.4091 44.8587 18.1591C44.336 17.9015 43.7034 17.7727 42.961 17.7727H40.7337V36H34.4155Z" fill="#4A8068"/>
<path d="M55.4155 36V12.7273H72.1883V17.8182H61.7337V21.8182H71.3246V26.9091H61.7337V30.9091H72.1428V36H55.4155ZM95.4581 12.7273V36H90.1854L81.7763 23.7727H81.64V36H75.3218V12.7273H80.6854L88.9581 24.9091H89.14V12.7273H95.4581ZM108.038 12.7273H114.265V28.6818C114.257 30.197 113.875 31.5303 113.117 32.6818C112.367 33.8258 111.329 34.7197 110.004 35.3636C108.685 36 107.166 36.3182 105.447 36.3182C103.954 36.3182 102.591 36.0606 101.356 35.5455C100.121 35.0227 99.1362 34.2045 98.4013 33.0909C97.6665 31.9697 97.3028 30.5152 97.3104 28.7273H103.629C103.651 29.3106 103.75 29.803 103.924 30.2045C104.106 30.6061 104.356 30.9091 104.674 31.1136C105 31.3106 105.394 31.4091 105.856 31.4091C106.326 31.4091 106.72 31.3068 107.038 31.1023C107.363 30.8977 107.61 30.5947 107.776 30.1932C107.943 29.7841 108.03 29.2803 108.038 28.6818V12.7273ZM131.032 12.7273H137.35V27.6364C137.35 29.4091 136.926 30.9432 136.077 32.2386C135.237 33.5265 134.062 34.5227 132.555 35.2273C131.047 35.9242 129.297 36.2727 127.305 36.2727C125.297 36.2727 123.54 35.9242 122.032 35.2273C120.524 34.5227 119.35 33.5265 118.509 32.2386C117.676 30.9432 117.259 29.4091 117.259 27.6364V12.7273H123.577V27.0909C123.577 27.8106 123.737 28.4545 124.055 29.0227C124.373 29.5833 124.812 30.0227 125.373 30.3409C125.941 30.6591 126.585 30.8182 127.305 30.8182C128.032 30.8182 128.676 30.6591 129.237 30.3409C129.797 30.0227 130.237 29.5833 130.555 29.0227C130.873 28.4545 131.032 27.8106 131.032 27.0909V12.7273ZM165.822 36V12.7273H172.14V30.9091H181.549V36H165.822ZM229.708 12.7273V36H224.435L216.026 23.7727H215.89V36H209.572V12.7273H214.935L223.208 24.9091H223.39V12.7273H229.708ZM238.435 17.8182V12.7273H258.663V17.8182H251.663V36H245.435V17.8182H238.435ZM270.353 36V12.7273H276.671V22.1364H276.989L283.989 12.7273H291.353L283.489 23.0909L291.535 36H283.989L278.762 27.2727L276.671 30V36H270.353ZM293.228 36V12.7273H310.001V17.8182H299.546V21.8182H309.137V26.9091H299.546V30.9091H309.955V36H293.228ZM312.498 17.8182V12.7273H332.725V17.8182H325.725V36H319.498V17.8182H312.498ZM124.806 75V51.7273H131.124V69.9091H140.533V75H124.806ZM156.86 51.7273H163.178V66.6364C163.178 68.4091 162.754 69.9432 161.906 71.2386C161.065 72.5265 159.89 73.5227 158.383 74.2273C156.875 74.9242 155.125 75.2727 153.133 75.2727C151.125 75.2727 149.368 74.9242 147.86 74.2273C146.353 73.5227 145.178 72.5265 144.337 71.2386C143.504 69.9432 143.087 68.4091 143.087 66.6364V51.7273H149.406V66.0909C149.406 66.8106 149.565 67.4545 149.883 68.0227C150.201 68.5833 150.64 69.0227 151.201 69.3409C151.769 69.6591 152.413 69.8182 153.133 69.8182C153.86 69.8182 154.504 69.6591 155.065 69.3409C155.625 69.0227 156.065 68.5833 156.383 68.0227C156.701 67.4545 156.86 66.8106 156.86 66.0909V51.7273ZM193.874 51.7273V75H187.556V51.7273H193.874ZM217.005 51.7273V75H211.732L203.323 62.7727H203.187V75H196.869V51.7273H202.232L210.505 63.9091H210.687V51.7273H217.005ZM235.107 59.4091C235.009 59.0076 234.854 58.6553 234.641 58.3523C234.429 58.0417 234.164 57.7803 233.846 57.5682C233.535 57.3485 233.172 57.1856 232.755 57.0795C232.346 56.9659 231.895 56.9091 231.403 56.9091C230.342 56.9091 229.437 57.1629 228.687 57.6705C227.944 58.178 227.376 58.9091 226.982 59.8636C226.596 60.8182 226.403 61.9697 226.403 63.3182C226.403 64.6818 226.588 65.8485 226.96 66.8182C227.331 67.7879 227.884 68.5303 228.619 69.0455C229.354 69.5606 230.266 69.8182 231.357 69.8182C232.319 69.8182 233.119 69.678 233.755 69.3977C234.399 69.1174 234.88 68.7197 235.198 68.2045C235.516 67.6894 235.675 67.0833 235.675 66.3864L236.766 66.5H231.448V62H241.766V65.2273C241.766 67.3485 241.316 69.1629 240.414 70.6705C239.52 72.1705 238.285 73.322 236.71 74.125C235.141 74.9205 233.342 75.3182 231.312 75.3182C229.047 75.3182 227.058 74.8371 225.346 73.875C223.634 72.9129 222.297 71.5417 221.335 69.7614C220.38 67.9811 219.903 65.8636 219.903 63.4091C219.903 61.4848 220.194 59.7803 220.778 58.2955C221.369 56.8106 222.187 55.5568 223.232 54.5341C224.278 53.5038 225.486 52.7273 226.857 52.2045C228.229 51.6742 229.698 51.4091 231.266 51.4091C232.645 51.4091 233.925 51.6061 235.107 52C236.297 52.3864 237.346 52.9394 238.255 53.6591C239.172 54.3712 239.91 55.2159 240.471 56.1932C241.032 57.1705 241.372 58.2424 241.494 59.4091H235.107Z" fill="#EEEEEE"/>
<path d="M146.398 36H139.58L147.262 12.7273H155.898L163.58 36H156.762L151.671 19.1364H151.489L146.398 36ZM145.126 26.8182H157.944V31.5455H145.126V26.8182ZM267.359 12.7273V36H261.041V12.7273H267.359Z" fill="#E62C20"/>
<path d="M190.148 36H183.33L191.012 12.7273H199.648L207.33 36H200.512L195.421 19.1364H195.239L190.148 36ZM188.876 26.8182H201.694V31.5455H188.876V26.8182Z" fill="#F69722"/>
<path d="M166.181 75V51.7273H176.227C177.954 51.7273 179.465 52.0417 180.761 52.6705C182.056 53.2992 183.064 54.2045 183.783 55.3864C184.503 56.5682 184.863 57.9848 184.863 59.6364C184.863 61.303 184.492 62.7083 183.749 63.8523C183.014 64.9962 181.98 65.8598 180.647 66.4432C179.321 67.0265 177.772 67.3182 175.999 67.3182H169.999V62.4091H174.727C175.469 62.4091 176.102 62.3182 176.624 62.1364C177.155 61.947 177.56 61.6477 177.84 61.2386C178.128 60.8295 178.272 60.2955 178.272 59.6364C178.272 58.9697 178.128 58.428 177.84 58.0114C177.56 57.5871 177.155 57.2765 176.624 57.0795C176.102 56.875 175.469 56.7727 174.727 56.7727H172.499V75H166.181ZM179.818 64.3182L185.636 75H178.772L173.09 64.3182H179.818Z" fill="#9C4A9A"/>
<path d="M186 36L194.5 16L204 36H186Z" fill="#F69722"/>
<path d="M160.925 36H144L151.5 15L160.925 36Z" fill="#E62C20"/>
<path d="M48.5 26H37.5V16H48.5V26Z" fill="#4A8068"/>
<path d="M179.5 63H170V55H179.5V63Z" fill="#9C4A9A"/>
<defs>
<clipPath id="clip0_2145_126">
<rect width="28" height="60" fill="white" transform="translate(0 10)"/>
</clipPath>
<clipPath id="clip1_2145_126">
<rect width="29" height="60" fill="white" transform="translate(331 13)"/>
</clipPath>
<clipPath id="clip2_2145_126">
<rect width="358" height="83" fill="white" transform="translate(2)"/>
</clipPath>
</defs>
</svg>
