<svg width="1323" height="63" viewBox="0 0 1323 63" fill="none" xmlns="http://www.w3.org/2000/svg">
<path d="M0 33H380" stroke="#EEEEEE" stroke-width="5" stroke-linejoin="round"/>
<path d="M368.367 3L364.693 3V16.4693H368.367V18.9183H372.04V22.5917H375.714V26.2652H378.162V12.7959L374.489 12.7959V10.3469H372.04V6.67345H368.367L368.367 3Z" fill="#D9D9D9"/>
<path d="M391.631 3L395.305 3V16.4693H391.631V18.9183H387.958V22.5917H384.284V26.2652H381.836V12.7959L385.509 12.7959V10.3469H387.958V6.67345H391.631V3Z" fill="#D9D9D9"/>
<path d="M386.734 27.4896V31.1631H400.203V27.4896H402.652V23.8162H406.326V20.1427H409.999V17.6938H396.53V21.3672H394.081V23.8162H390.408V27.4896H386.734Z" fill="#D9D9D9"/>
<path d="M410 44.6332V48.3066H396.531V44.6332H394.082V40.9597H390.409V37.2863H386.735V34.8373H400.204V38.5108H402.653V40.9597H406.327V44.6332H410Z" fill="#D9D9D9"/>
<path d="M391.631 63H395.305V49.5307H391.631V47.0817H387.958V43.4083H384.284V39.7348H381.836V53.2041H385.509V55.6531H387.958V59.3265H391.631L391.631 63Z" fill="#D9D9D9"/>
<path d="M368.367 63H364.693V49.5307H368.367V47.0817H372.04V43.4083H375.714V39.7348H378.162V53.2041H374.489V55.6531H372.04V59.3265H368.367V63Z" fill="#D9D9D9"/>
<path d="M350 21.3673V17.6938H363.469V21.3673H365.918V25.0407H369.591V28.7142H373.265V31.1632H359.796V27.4897H357.347V25.0407H353.673V21.3673H350Z" fill="#D9D9D9"/>
<path d="M373.266 38.5104L373.266 34.8369L359.797 34.8369L359.797 38.5104L357.348 38.5104L357.348 42.1838L353.674 42.1838L353.674 45.8573L350.001 45.8573L350.001 48.3062L363.47 48.3062L363.47 44.6328L365.919 44.6328L365.919 42.1838L369.592 42.1838L369.592 38.5104L373.266 38.5104Z" fill="#D9D9D9"/>
<rect x="378.164" y="31.1631" width="3.6734" height="3.67345" fill="#D9D9D9"/>
<path d="M1323 30L932 30" stroke="#EEEEEE" stroke-width="5" stroke-linejoin="round"/>
<path d="M943.633 60H947.307V46.5307H943.633V44.0817H939.96V40.4083H936.286V36.7348H933.837V50.2041H937.511V52.6531H939.96V56.3265H943.633V60Z" fill="#D9D9D9"/>
<path d="M920.367 60H916.693V46.5307H920.367V44.0817H924.04V40.4083H927.714V36.7348H930.163V50.2041H926.489V52.6531H924.04V56.3265H920.367V60Z" fill="#D9D9D9"/>
<path d="M925.266 35.5104V31.8369L911.796 31.8369V35.5104H909.347V39.1838H905.674V42.8573H902V45.3062L915.47 45.3062V41.6328H917.919V39.1838H921.592V35.5104H925.266Z" fill="#D9D9D9"/>
<path d="M902 18.3668V14.6934L915.469 14.6934V18.3668H917.918L917.918 22.0403L921.592 22.0403V25.7137H925.265V28.1627L911.796 28.1627V24.4892L909.347 24.4892V22.0403L905.673 22.0403V18.3668H902Z" fill="#D9D9D9"/>
<path d="M920.367 0L916.693 0V13.4693L920.367 13.4693V15.9183H924.04V19.5917H927.714V23.2652H930.163V9.79587H926.489V7.3469H924.04V3.67345L920.367 3.67345V0Z" fill="#D9D9D9"/>
<path d="M943.633 0L947.307 0V13.4693L943.633 13.4693V15.9183H939.96V19.5917H936.286V23.2652H933.837V9.79587H937.511V7.3469H939.96V3.67345L943.633 3.67345V0Z" fill="#D9D9D9"/>
<path d="M962 41.6327V45.3062L948.531 45.3062V41.6327H946.082V37.9593H942.408V34.2858H938.735V31.8368L952.204 31.8368L952.204 35.5103H954.653V37.9593H958.327V41.6327H962Z" fill="#D9D9D9"/>
<path d="M938.734 24.4896L938.734 28.1631L952.204 28.1631L952.204 24.4896L954.653 24.4896L954.653 20.8162L958.326 20.8162L958.326 17.1427L962 17.1427L962 14.6938L948.53 14.6938L948.53 18.3672L946.081 18.3672L946.081 20.8162L942.408 20.8162L942.408 24.4896L938.734 24.4896Z" fill="#D9D9D9"/>
<rect x="933.836" y="31.8369" width="3.67347" height="3.67345" transform="rotate(180 933.836 31.8369)" fill="#D9D9D9"/>
<path d="M427.824 42V19.6H438.608C440.699 19.6 442.501 19.9413 444.016 20.624C445.552 21.3067 446.736 22.288 447.568 23.568C448.4 24.8267 448.816 26.32 448.816 28.048C448.816 29.776 448.4 31.2693 447.568 32.528C446.736 33.7867 445.552 34.768 444.016 35.472C442.501 36.1547 440.699 36.496 438.608 36.496H432.016L435.376 33.264V42H427.824ZM435.376 34.096L432.016 30.672H438.128C439.173 30.672 439.941 30.4373 440.432 29.968C440.944 29.4987 441.2 28.8587 441.2 28.048C441.2 27.2373 440.944 26.5973 440.432 26.128C439.941 25.6587 439.173 25.424 438.128 25.424H432.016L435.376 22V34.096Z" fill="#4A8068"/>
<path d="M458.517 27.92H468.501V33.36H458.517V27.92ZM459.029 36.304H470.229V42H451.605V19.6H469.813V25.296H459.029V36.304ZM473.137 42V19.6H479.345L490.737 33.232H487.857V19.6H495.217V42H489.009L477.617 28.368H480.497V42H473.137ZM504.519 42.512C502.77 42.512 501.191 42.2347 499.783 41.68C498.375 41.104 497.202 40.272 496.263 39.184L500.327 34.384C500.925 35.1093 501.511 35.664 502.087 36.048C502.663 36.4107 503.261 36.592 503.879 36.592C505.501 36.592 506.311 35.664 506.311 33.808V25.296H498.695V19.6H513.767V33.36C513.767 36.432 512.978 38.7253 511.399 40.24C509.821 41.7547 507.527 42.512 504.519 42.512ZM527.95 42.512C524.516 42.512 521.838 41.584 519.918 39.728C517.998 37.872 517.038 35.2693 517.038 31.92V19.6H524.59V31.696C524.59 33.4027 524.9 34.6187 525.518 35.344C526.137 36.048 526.969 36.4 528.014 36.4C529.081 36.4 529.913 36.048 530.51 35.344C531.129 34.6187 531.438 33.4027 531.438 31.696V19.6H538.862V31.92C538.862 35.2693 537.902 37.872 535.982 39.728C534.062 41.584 531.385 42.512 527.95 42.512ZM568.105 42V19.6H575.657V36.144H585.769V42H568.105ZM613.637 42V19.6H619.845L631.237 33.232H628.357V19.6H635.717V42H629.509L618.117 28.368H620.997V42H613.637ZM653.813 42V25.456H647.253V19.6H667.925V25.456H661.365V42H653.813ZM687.826 37.2L687.41 28.912L695.858 19.6H704.082L694.61 30.032L690.418 34.32L687.826 37.2ZM681.074 42V19.6H688.498V42H681.074ZM695.794 42L689.202 33.296L694.098 28.112L704.53 42H695.794ZM712.455 27.92H722.439V33.36H712.455V27.92ZM712.967 36.304H724.167V42H705.543V19.6H723.751V25.296H712.967V36.304ZM731.938 42V25.456H725.378V19.6H746.05V25.456H739.49V42H731.938ZM757.605 42V19.6H765.157V36.144H775.269V42H757.605ZM787.919 42.512C784.484 42.512 781.807 41.584 779.887 39.728C777.967 37.872 777.007 35.2693 777.007 31.92V19.6H784.559V31.696C784.559 33.4027 784.868 34.6187 785.487 35.344C786.106 36.048 786.938 36.4 787.983 36.4C789.05 36.4 789.882 36.048 790.479 35.344C791.098 34.6187 791.407 33.4027 791.407 31.696V19.6H798.831V31.92C798.831 35.2693 797.871 37.872 795.951 39.728C794.031 41.584 791.354 42.512 787.919 42.512ZM826.137 42V19.6H833.689V42H826.137ZM837.324 42V19.6H843.532L854.924 33.232H852.044V19.6H859.404V42H853.196L841.804 28.368H844.684V42H837.324ZM874.659 42.512C872.845 42.512 871.171 42.2347 869.635 41.68C868.12 41.104 866.797 40.2933 865.667 39.248C864.557 38.2027 863.693 36.9653 863.075 35.536C862.456 34.1067 862.147 32.528 862.147 30.8C862.147 29.072 862.456 27.4933 863.075 26.064C863.693 24.6347 864.568 23.3973 865.699 22.352C866.829 21.3067 868.163 20.5067 869.699 19.952C871.256 19.376 872.963 19.088 874.819 19.088C877.037 19.088 879.011 19.4613 880.739 20.208C882.488 20.9547 883.928 22.0213 885.059 23.408L880.227 27.664C879.523 26.8533 878.755 26.2453 877.923 25.84C877.112 25.4133 876.205 25.2 875.203 25.2C874.371 25.2 873.613 25.328 872.931 25.584C872.269 25.84 871.704 26.2133 871.235 26.704C870.765 27.1947 870.403 27.7813 870.147 28.464C869.891 29.1467 869.763 29.9253 869.763 30.8C869.763 31.632 869.891 32.4 870.147 33.104C870.403 33.7867 870.765 34.3733 871.235 34.864C871.704 35.3547 872.259 35.7387 872.899 36.016C873.56 36.272 874.296 36.4 875.107 36.4C875.96 36.4 876.792 36.2613 877.603 35.984C878.413 35.6853 879.277 35.184 880.195 34.48L884.419 39.664C883.053 40.5813 881.496 41.2853 879.747 41.776C877.997 42.2667 876.301 42.512 874.659 42.512ZM877.859 38.704V30.192H884.419V39.664L877.859 38.704Z" fill="#EEEEEE"/>
<path d="M539.892 42L549.684 19.6H557.108L566.9 42H559.092L551.86 23.184H554.804L547.572 42H539.892ZM545.716 38.096L547.636 32.656H557.94L559.86 38.096H545.716ZM669.887 42V19.6H677.439V42H669.887Z" fill="#E62C20"/>
<path d="M585.423 42L595.215 19.6H602.639L612.431 42H604.623L597.391 23.184H600.335L593.103 42H585.423ZM591.247 38.096L593.167 32.656H603.471L605.391 38.096H591.247Z" fill="#F69722"/>
<path d="M802.293 42V19.6H813.077C815.167 19.6 816.97 19.9413 818.485 20.624C820.021 21.3067 821.205 22.288 822.037 23.568C822.869 24.8267 823.285 26.32 823.285 28.048C823.285 29.776 822.869 31.2693 822.037 32.528C821.205 33.7653 820.021 34.7147 818.485 35.376C816.97 36.0373 815.167 36.368 813.077 36.368H806.485L809.845 33.264V42H802.293ZM815.701 42L810.197 33.84H818.197L823.765 42H815.701ZM809.845 34.096L806.485 30.672H812.597C813.642 30.672 814.41 30.4373 814.901 29.968C815.413 29.4987 815.669 28.8587 815.669 28.048C815.669 27.2373 815.413 26.5973 814.901 26.128C814.41 25.6587 813.642 25.424 812.597 25.424H806.485L809.845 22V34.096Z" fill="#9C4A9A"/>
<path d="M610 42H591L599 23L610 42Z" fill="#F69722"/>
<path d="M564 42H545L553 23L564 42Z" fill="#E62C20"/>
<path d="M432.5 23H444V31.5H432.5V23Z" fill="#4A8068"/>
<path d="M807 23H820V33H807V23Z" fill="#9C4A9A"/>
</svg>
