<svg width="619" height="85" viewBox="0 0 619 85" fill="none" xmlns="http://www.w3.org/2000/svg">
<rect x="9" y="20" width="14" height="9" fill="#F69722"/>
<path d="M3.99 68V19H27.58C32.1533 19 36.0967 19.7467 39.41 21.24C42.77 22.7333 45.36 24.88 47.18 27.68C49 30.4333 49.91 33.7 49.91 37.48C49.91 41.26 49 44.5267 47.18 47.28C45.36 50.0333 42.77 52.18 39.41 53.72C36.0967 55.2133 32.1533 55.96 27.58 55.96H13.16L20.51 48.89V68H3.99ZM20.51 50.71L13.16 43.22H26.53C28.8167 43.22 30.4967 42.7067 31.57 41.68C32.69 40.6533 33.25 39.2533 33.25 37.48C33.25 35.7067 32.69 34.3067 31.57 33.28C30.4967 32.2533 28.8167 31.74 26.53 31.74H13.16L20.51 24.25V50.71ZM570.758 68V19H594.348C598.921 19 602.864 19.7467 606.178 21.24C609.538 22.7333 612.128 24.88 613.948 27.68C615.768 30.4333 616.678 33.7 616.678 37.48C616.678 41.26 615.768 44.5267 613.948 47.28C612.128 49.9867 609.538 52.0633 606.178 53.51C602.864 54.9567 598.921 55.68 594.348 55.68H579.928L587.278 48.89V68H570.758ZM600.088 68L588.048 50.15H605.548L617.728 68H600.088ZM587.278 50.71L579.928 43.22H593.298C595.584 43.22 597.264 42.7067 598.338 41.68C599.458 40.6533 600.018 39.2533 600.018 37.48C600.018 35.7067 599.458 34.3067 598.338 33.28C597.264 32.2533 595.584 31.74 593.298 31.74H579.928L587.278 24.25V50.71Z" fill="#F69722"/>
<path d="M71.1315 37.2H92.9715V49.1H71.1315V37.2ZM72.2515 55.54H96.7515V68H56.0115V19H95.8415V31.46H72.2515V55.54ZM103.111 68V19H116.691L141.611 48.82H135.311V19H151.411V68H137.831L112.911 38.18H119.211V68H103.111ZM170.011 68V31.81H155.661V19H200.881V31.81H186.531V68H170.011ZM279.838 69.12C275.731 69.12 271.765 68.6533 267.938 67.72C264.111 66.7867 260.961 65.5733 258.488 64.08L263.808 52.04C266.141 53.3933 268.731 54.49 271.578 55.33C274.471 56.1233 277.271 56.52 279.978 56.52C281.565 56.52 282.801 56.4267 283.688 56.24C284.621 56.0067 285.298 55.7033 285.718 55.33C286.138 54.91 286.348 54.42 286.348 53.86C286.348 52.9733 285.858 52.2733 284.878 51.76C283.898 51.2467 282.591 50.8267 280.958 50.5C279.371 50.1267 277.621 49.7533 275.708 49.38C273.795 48.96 271.858 48.4233 269.898 47.77C267.985 47.1167 266.211 46.2533 264.578 45.18C262.991 44.1067 261.708 42.7067 260.728 40.98C259.748 39.2067 259.258 37.0133 259.258 34.4C259.258 31.3667 260.098 28.6133 261.778 26.14C263.505 23.62 266.048 21.6133 269.408 20.12C272.815 18.6267 277.038 17.88 282.078 17.88C285.391 17.88 288.658 18.23 291.878 18.93C295.098 19.63 297.991 20.7033 300.558 22.15L295.588 34.12C293.161 32.9067 290.805 31.9967 288.518 31.39C286.278 30.7833 284.085 30.48 281.938 30.48C280.351 30.48 279.091 30.62 278.158 30.9C277.225 31.18 276.548 31.5533 276.128 32.02C275.755 32.4867 275.568 33 275.568 33.56C275.568 34.4 276.058 35.0767 277.038 35.59C278.018 36.0567 279.301 36.4533 280.888 36.78C282.521 37.1067 284.295 37.4567 286.208 37.83C288.168 38.2033 290.105 38.7167 292.018 39.37C293.931 40.0233 295.681 40.8867 297.268 41.96C298.901 43.0333 300.208 44.4333 301.188 46.16C302.168 47.8867 302.658 50.0333 302.658 52.6C302.658 55.5867 301.795 58.34 300.068 60.86C298.388 63.3333 295.868 65.34 292.508 66.88C289.148 68.3733 284.925 69.12 279.838 69.12ZM339.2 68V31.81H324.85V19H370.07V31.81H355.72V68H339.2ZM389.481 37.2H411.321V49.1H389.481V37.2ZM390.601 55.54H415.101V68H374.361V19H414.191V31.46H390.601V55.54ZM488.497 68V31.81H474.147V19H519.367V31.81H505.017V68H488.497ZM538.778 37.2H560.618V49.1H538.778V37.2ZM539.898 55.54H564.398V68H523.658V19H563.488V31.46H539.898V55.54Z" fill="#EEEEEE"/>
<path d="M199.852 68L221.272 19H237.512L258.932 68H241.852L226.032 26.84H232.472L216.652 68H199.852ZM212.592 59.46L216.792 47.56H239.332L243.532 59.46H212.592ZM416.141 68L437.561 19H453.801L475.221 68H458.141L442.321 26.84H448.761L432.941 68H416.141ZM428.881 59.46L433.081 47.56H455.621L459.821 59.46H428.881Z" fill="#E62C20"/>
<path d="M16 29V44L37 43V29H16Z" fill="#F69722"/>
<path d="M582 30V45L603 44V30H582Z" fill="#F69722"/>
<path d="M430 67L447.6 29L462 67H430Z" fill="#E62C20"/>
<path d="M216 67L230.3 26L242 67H216Z" fill="#E62C20"/>
</svg>
