<svg width="240" height="288" viewBox="0 0 240 288" fill="none" xmlns="http://www.w3.org/2000/svg">
<rect width="240" height="157" transform="matrix(1 0 0 -1 0 157)" fill="#EEEEEE"/>
<rect width="240" height="157" fill="url(#paint0_linear_1187_3831)"/>
<path d="M0 230L0 288H240V230H0Z" fill="#4A8068"/>
<path d="M19.66 266V263.9L25.06 258.8C25.4867 258.413 25.8 258.067 26 257.76C26.2 257.453 26.3333 257.173 26.4 256.92C26.48 256.667 26.52 256.433 26.52 256.22C26.52 255.66 26.3267 255.233 25.94 254.94C25.5667 254.633 25.0133 254.48 24.28 254.48C23.6933 254.48 23.1467 254.593 22.64 254.82C22.1467 255.047 21.7267 255.4 21.38 255.88L19.02 254.36C19.5533 253.56 20.3 252.927 21.26 252.46C22.22 251.993 23.3267 251.76 24.58 251.76C25.62 251.76 26.5267 251.933 27.3 252.28C28.0867 252.613 28.6933 253.087 29.12 253.7C29.56 254.313 29.78 255.047 29.78 255.9C29.78 256.353 29.72 256.807 29.6 257.26C29.4933 257.7 29.2667 258.167 28.92 258.66C28.5867 259.153 28.0933 259.707 27.44 260.32L22.96 264.54L22.34 263.36H30.24V266H19.66ZM37.3769 266.24C36.2035 266.24 35.1769 266.067 34.2969 265.72C33.4169 265.36 32.7302 264.86 32.2369 264.22C31.7435 263.567 31.4969 262.807 31.4969 261.94C31.4969 261.073 31.7369 260.34 32.2169 259.74C32.7102 259.127 33.3969 258.667 34.2769 258.36C35.1569 258.04 36.1902 257.88 37.3769 257.88C38.5769 257.88 39.6169 258.04 40.4969 258.36C41.3902 258.667 42.0769 259.127 42.5569 259.74C43.0502 260.34 43.2969 261.073 43.2969 261.94C43.2969 262.807 43.0502 263.567 42.5569 264.22C42.0635 264.86 41.3702 265.36 40.4769 265.72C39.5969 266.067 38.5635 266.24 37.3769 266.24ZM37.3769 263.86C38.1902 263.86 38.8302 263.68 39.2969 263.32C39.7769 262.96 40.0169 262.467 40.0169 261.84C40.0169 261.213 39.7769 260.727 39.2969 260.38C38.8302 260.02 38.1902 259.84 37.3769 259.84C36.5769 259.84 35.9435 260.02 35.4769 260.38C35.0102 260.727 34.7769 261.213 34.7769 261.84C34.7769 262.467 35.0102 262.96 35.4769 263.32C35.9435 263.68 36.5769 263.86 37.3769 263.86ZM37.3769 259.52C36.2969 259.52 35.3502 259.373 34.5369 259.08C33.7369 258.787 33.1102 258.36 32.6569 257.8C32.2169 257.227 31.9969 256.547 31.9969 255.76C31.9969 254.933 32.2235 254.227 32.6769 253.64C33.1302 253.04 33.7635 252.58 34.5769 252.26C35.3902 251.927 36.3235 251.76 37.3769 251.76C38.4569 251.76 39.3969 251.927 40.1969 252.26C41.0102 252.58 41.6435 253.04 42.0969 253.64C42.5635 254.227 42.7969 254.933 42.7969 255.76C42.7969 256.547 42.5702 257.227 42.1169 257.8C41.6769 258.36 41.0502 258.787 40.2369 259.08C39.4235 259.373 38.4702 259.52 37.3769 259.52ZM37.3769 257.62C38.0569 257.62 38.5902 257.467 38.9769 257.16C39.3769 256.853 39.5769 256.433 39.5769 255.9C39.5769 255.34 39.3702 254.907 38.9569 254.6C38.5569 254.293 38.0302 254.14 37.3769 254.14C36.7369 254.14 36.2169 254.293 35.8169 254.6C35.4169 254.907 35.2169 255.34 35.2169 255.9C35.2169 256.433 35.4102 256.853 35.7969 257.16C36.1835 257.467 36.7102 257.62 37.3769 257.62ZM55.9241 266.24C54.8041 266.24 53.7307 266.093 52.7041 265.8C51.6774 265.493 50.8507 265.1 50.2241 264.62L51.3241 262.18C51.9241 262.607 52.6307 262.96 53.4441 263.24C54.2707 263.507 55.1041 263.64 55.9441 263.64C56.5841 263.64 57.0974 263.58 57.4841 263.46C57.8841 263.327 58.1774 263.147 58.3641 262.92C58.5507 262.693 58.6441 262.433 58.6441 262.14C58.6441 261.767 58.4974 261.473 58.2041 261.26C57.9107 261.033 57.5241 260.853 57.0441 260.72C56.5641 260.573 56.0307 260.44 55.4441 260.32C54.8707 260.187 54.2907 260.027 53.7041 259.84C53.1307 259.653 52.6041 259.413 52.1241 259.12C51.6441 258.827 51.2507 258.44 50.9441 257.96C50.6507 257.48 50.5041 256.867 50.5041 256.12C50.5041 255.32 50.7174 254.593 51.1441 253.94C51.5841 253.273 52.2374 252.747 53.1041 252.36C53.9841 251.96 55.0841 251.76 56.4041 251.76C57.2841 251.76 58.1507 251.867 59.0041 252.08C59.8574 252.28 60.6107 252.587 61.2641 253L60.2641 255.46C59.6107 255.087 58.9574 254.813 58.3041 254.64C57.6507 254.453 57.0107 254.36 56.3841 254.36C55.7574 254.36 55.2441 254.433 54.8441 254.58C54.4441 254.727 54.1574 254.92 53.9841 255.16C53.8107 255.387 53.7241 255.653 53.7241 255.96C53.7241 256.32 53.8707 256.613 54.1641 256.84C54.4574 257.053 54.8441 257.227 55.3241 257.36C55.8041 257.493 56.3307 257.627 56.9041 257.76C57.4907 257.893 58.0707 258.047 58.6441 258.22C59.2307 258.393 59.7641 258.627 60.2441 258.92C60.7241 259.213 61.1107 259.6 61.4041 260.08C61.7107 260.56 61.8641 261.167 61.8641 261.9C61.8641 262.687 61.6441 263.407 61.2041 264.06C60.7641 264.713 60.1041 265.24 59.2241 265.64C58.3574 266.04 57.2574 266.24 55.9241 266.24ZM69.198 266.16C67.9713 266.16 66.8913 265.92 65.958 265.44C65.038 264.96 64.3246 264.307 63.818 263.48C63.3113 262.64 63.058 261.687 63.058 260.62C63.058 259.54 63.3046 258.587 63.798 257.76C64.3046 256.92 64.9913 256.267 65.858 255.8C66.7246 255.32 67.7046 255.08 68.798 255.08C69.8513 255.08 70.798 255.307 71.638 255.76C72.4913 256.2 73.1646 256.84 73.658 257.68C74.1513 258.507 74.398 259.5 74.398 260.66C74.398 260.78 74.3913 260.92 74.378 261.08C74.3646 261.227 74.3513 261.367 74.338 261.5H65.598V259.68H72.698L71.498 260.22C71.498 259.66 71.3846 259.173 71.158 258.76C70.9313 258.347 70.618 258.027 70.218 257.8C69.818 257.56 69.3513 257.44 68.818 257.44C68.2846 257.44 67.8113 257.56 67.398 257.8C66.998 258.027 66.6846 258.353 66.458 258.78C66.2313 259.193 66.118 259.687 66.118 260.26V260.74C66.118 261.327 66.2446 261.847 66.498 262.3C66.7646 262.74 67.1313 263.08 67.598 263.32C68.078 263.547 68.638 263.66 69.278 263.66C69.8513 263.66 70.3513 263.573 70.778 263.4C71.218 263.227 71.618 262.967 71.978 262.62L73.638 264.42C73.1446 264.98 72.5246 265.413 71.778 265.72C71.0313 266.013 70.1713 266.16 69.198 266.16ZM82.8352 266.16C81.9285 266.16 81.1352 265.96 80.4552 265.56C79.7752 265.16 79.2418 264.553 78.8552 263.74C78.4818 262.913 78.2952 261.873 78.2952 260.62C78.2952 259.353 78.4752 258.313 78.8352 257.5C79.1952 256.687 79.7152 256.08 80.3952 255.68C81.0752 255.28 81.8885 255.08 82.8352 255.08C83.8485 255.08 84.7552 255.313 85.5552 255.78C86.3685 256.233 87.0085 256.873 87.4752 257.7C87.9552 258.527 88.1952 259.5 88.1952 260.62C88.1952 261.753 87.9552 262.733 87.4752 263.56C87.0085 264.387 86.3685 265.027 85.5552 265.48C84.7552 265.933 83.8485 266.16 82.8352 266.16ZM76.4752 269.88V255.24H79.4552V257.44L79.3952 260.64L79.5952 263.82V269.88H76.4752ZM82.2952 263.6C82.8152 263.6 83.2752 263.48 83.6752 263.24C84.0885 263 84.4152 262.66 84.6552 262.22C84.9085 261.767 85.0352 261.233 85.0352 260.62C85.0352 259.993 84.9085 259.46 84.6552 259.02C84.4152 258.58 84.0885 258.24 83.6752 258C83.2752 257.76 82.8152 257.64 82.2952 257.64C81.7752 257.64 81.3085 257.76 80.8952 258C80.4818 258.24 80.1552 258.58 79.9152 259.02C79.6752 259.46 79.5552 259.993 79.5552 260.62C79.5552 261.233 79.6752 261.767 79.9152 262.22C80.1552 262.66 80.4818 263 80.8952 263.24C81.3085 263.48 81.7752 263.6 82.2952 263.6ZM94.6838 266.16C93.4171 266.16 92.4304 265.84 91.7238 265.2C91.0171 264.547 90.6638 263.58 90.6638 262.3V252.86H93.7838V262.26C93.7838 262.713 93.9038 263.067 94.1438 263.32C94.3838 263.56 94.7104 263.68 95.1238 263.68C95.6171 263.68 96.0371 263.547 96.3838 263.28L97.2238 265.48C96.9038 265.707 96.5171 265.88 96.0638 266C95.6238 266.107 95.1638 266.16 94.6838 266.16ZM89.0038 257.88V255.48H96.4638V257.88H89.0038ZM103.983 266.16C102.756 266.16 101.676 265.92 100.743 265.44C99.8231 264.96 99.1098 264.307 98.6031 263.48C98.0965 262.64 97.8431 261.687 97.8431 260.62C97.8431 259.54 98.0898 258.587 98.5831 257.76C99.0898 256.92 99.7765 256.267 100.643 255.8C101.51 255.32 102.49 255.08 103.583 255.08C104.636 255.08 105.583 255.307 106.423 255.76C107.276 256.2 107.95 256.84 108.443 257.68C108.936 258.507 109.183 259.5 109.183 260.66C109.183 260.78 109.176 260.92 109.163 261.08C109.15 261.227 109.136 261.367 109.123 261.5H100.383V259.68H107.483L106.283 260.22C106.283 259.66 106.17 259.173 105.943 258.76C105.716 258.347 105.403 258.027 105.003 257.8C104.603 257.56 104.136 257.44 103.603 257.44C103.07 257.44 102.596 257.56 102.183 257.8C101.783 258.027 101.47 258.353 101.243 258.78C101.016 259.193 100.903 259.687 100.903 260.26V260.74C100.903 261.327 101.03 261.847 101.283 262.3C101.55 262.74 101.916 263.08 102.383 263.32C102.863 263.547 103.423 263.66 104.063 263.66C104.636 263.66 105.136 263.573 105.563 263.4C106.003 263.227 106.403 262.967 106.763 262.62L108.423 264.42C107.93 264.98 107.31 265.413 106.563 265.72C105.816 266.013 104.956 266.16 103.983 266.16ZM125.04 255.08C125.894 255.08 126.647 255.253 127.3 255.6C127.967 255.933 128.487 256.453 128.86 257.16C129.247 257.853 129.44 258.747 129.44 259.84V266H126.32V260.32C126.32 259.453 126.14 258.813 125.78 258.4C125.42 257.987 124.914 257.78 124.26 257.78C123.807 257.78 123.4 257.887 123.04 258.1C122.68 258.3 122.4 258.607 122.2 259.02C122 259.433 121.9 259.96 121.9 260.6V266H118.78V260.32C118.78 259.453 118.6 258.813 118.24 258.4C117.894 257.987 117.394 257.78 116.74 257.78C116.287 257.78 115.88 257.887 115.52 258.1C115.16 258.3 114.88 258.607 114.68 259.02C114.48 259.433 114.38 259.96 114.38 260.6V266H111.26V255.24H114.24V258.18L113.68 257.32C114.054 256.587 114.58 256.033 115.26 255.66C115.954 255.273 116.74 255.08 117.62 255.08C118.607 255.08 119.467 255.333 120.2 255.84C120.947 256.333 121.44 257.093 121.68 258.12L120.58 257.82C120.94 256.98 121.514 256.313 122.3 255.82C123.1 255.327 124.014 255.08 125.04 255.08ZM138.597 266.16C137.65 266.16 136.837 265.96 136.157 265.56C135.477 265.16 134.957 264.553 134.597 263.74C134.237 262.913 134.057 261.873 134.057 260.62C134.057 259.353 134.244 258.313 134.617 257.5C135.004 256.687 135.537 256.08 136.217 255.68C136.897 255.28 137.69 255.08 138.597 255.08C139.61 255.08 140.517 255.307 141.317 255.76C142.13 256.213 142.77 256.853 143.237 257.68C143.717 258.507 143.957 259.487 143.957 260.62C143.957 261.74 143.717 262.713 143.237 263.54C142.77 264.367 142.13 265.013 141.317 265.48C140.517 265.933 139.61 266.16 138.597 266.16ZM132.237 266V251.16H135.357V257.42L135.157 260.6L135.217 263.8V266H132.237ZM138.057 263.6C138.577 263.6 139.037 263.48 139.437 263.24C139.85 263 140.177 262.66 140.417 262.22C140.67 261.767 140.797 261.233 140.797 260.62C140.797 259.993 140.67 259.46 140.417 259.02C140.177 258.58 139.85 258.24 139.437 258C139.037 257.76 138.577 257.64 138.057 257.64C137.537 257.64 137.07 257.76 136.657 258C136.244 258.24 135.917 258.58 135.677 259.02C135.437 259.46 135.317 259.993 135.317 260.62C135.317 261.233 135.437 261.767 135.677 262.22C135.917 262.66 136.244 263 136.657 263.24C137.07 263.48 137.537 263.6 138.057 263.6ZM151.385 266.16C150.159 266.16 149.079 265.92 148.145 265.44C147.225 264.96 146.512 264.307 146.005 263.48C145.499 262.64 145.245 261.687 145.245 260.62C145.245 259.54 145.492 258.587 145.985 257.76C146.492 256.92 147.179 256.267 148.045 255.8C148.912 255.32 149.892 255.08 150.985 255.08C152.039 255.08 152.985 255.307 153.825 255.76C154.679 256.2 155.352 256.84 155.845 257.68C156.339 258.507 156.585 259.5 156.585 260.66C156.585 260.78 156.579 260.92 156.565 261.08C156.552 261.227 156.539 261.367 156.525 261.5H147.785V259.68H154.885L153.685 260.22C153.685 259.66 153.572 259.173 153.345 258.76C153.119 258.347 152.805 258.027 152.405 257.8C152.005 257.56 151.539 257.44 151.005 257.44C150.472 257.44 149.999 257.56 149.585 257.8C149.185 258.027 148.872 258.353 148.645 258.78C148.419 259.193 148.305 259.687 148.305 260.26V260.74C148.305 261.327 148.432 261.847 148.685 262.3C148.952 262.74 149.319 263.08 149.785 263.32C150.265 263.547 150.825 263.66 151.465 263.66C152.039 263.66 152.539 263.573 152.965 263.4C153.405 263.227 153.805 262.967 154.165 262.62L155.825 264.42C155.332 264.98 154.712 265.413 153.965 265.72C153.219 266.013 152.359 266.16 151.385 266.16ZM158.663 266V255.24H161.643V258.28L161.223 257.4C161.543 256.64 162.056 256.067 162.763 255.68C163.469 255.28 164.329 255.08 165.343 255.08V257.96C165.209 257.947 165.089 257.94 164.983 257.94C164.876 257.927 164.763 257.92 164.643 257.92C163.789 257.92 163.096 258.167 162.563 258.66C162.043 259.14 161.783 259.893 161.783 260.92V266H158.663ZM172.16 266V263.9L177.56 258.8C177.987 258.413 178.3 258.067 178.5 257.76C178.7 257.453 178.833 257.173 178.9 256.92C178.98 256.667 179.02 256.433 179.02 256.22C179.02 255.66 178.827 255.233 178.44 254.94C178.067 254.633 177.513 254.48 176.78 254.48C176.193 254.48 175.647 254.593 175.14 254.82C174.647 255.047 174.227 255.4 173.88 255.88L171.52 254.36C172.053 253.56 172.8 252.927 173.76 252.46C174.72 251.993 175.827 251.76 177.08 251.76C178.12 251.76 179.027 251.933 179.8 252.28C180.587 252.613 181.193 253.087 181.62 253.7C182.06 254.313 182.28 255.047 182.28 255.9C182.28 256.353 182.22 256.807 182.1 257.26C181.993 257.7 181.767 258.167 181.42 258.66C181.087 259.153 180.593 259.707 179.94 260.32L175.46 264.54L174.84 263.36H182.74V266H172.16ZM190.077 266.24C188.93 266.24 187.904 265.96 186.997 265.4C186.09 264.827 185.377 264 184.857 262.92C184.337 261.84 184.077 260.533 184.077 259C184.077 257.467 184.337 256.16 184.857 255.08C185.377 254 186.09 253.18 186.997 252.62C187.904 252.047 188.93 251.76 190.077 251.76C191.237 251.76 192.264 252.047 193.157 252.62C194.064 253.18 194.777 254 195.297 255.08C195.817 256.16 196.077 257.467 196.077 259C196.077 260.533 195.817 261.84 195.297 262.92C194.777 264 194.064 264.827 193.157 265.4C192.264 265.96 191.237 266.24 190.077 266.24ZM190.077 263.5C190.624 263.5 191.097 263.347 191.497 263.04C191.91 262.733 192.23 262.247 192.457 261.58C192.697 260.913 192.817 260.053 192.817 259C192.817 257.947 192.697 257.087 192.457 256.42C192.23 255.753 191.91 255.267 191.497 254.96C191.097 254.653 190.624 254.5 190.077 254.5C189.544 254.5 189.07 254.653 188.657 254.96C188.257 255.267 187.937 255.753 187.697 256.42C187.47 257.087 187.357 257.947 187.357 259C187.357 260.053 187.47 260.913 187.697 261.58C187.937 262.247 188.257 262.733 188.657 263.04C189.07 263.347 189.544 263.5 190.077 263.5ZM197.453 266V263.9L202.853 258.8C203.28 258.413 203.593 258.067 203.793 257.76C203.993 257.453 204.126 257.173 204.193 256.92C204.273 256.667 204.313 256.433 204.313 256.22C204.313 255.66 204.12 255.233 203.733 254.94C203.36 254.633 202.806 254.48 202.073 254.48C201.486 254.48 200.94 254.593 200.433 254.82C199.94 255.047 199.52 255.4 199.173 255.88L196.813 254.36C197.346 253.56 198.093 252.927 199.053 252.46C200.013 251.993 201.12 251.76 202.373 251.76C203.413 251.76 204.32 251.933 205.093 252.28C205.88 252.613 206.486 253.087 206.913 253.7C207.353 254.313 207.573 255.047 207.573 255.9C207.573 256.353 207.513 256.807 207.393 257.26C207.286 257.7 207.06 258.167 206.713 258.66C206.38 259.153 205.886 259.707 205.233 260.32L200.753 264.54L200.133 263.36H208.033V266H197.453ZM209.25 266V263.9L214.65 258.8C215.077 258.413 215.39 258.067 215.59 257.76C215.79 257.453 215.923 257.173 215.99 256.92C216.07 256.667 216.11 256.433 216.11 256.22C216.11 255.66 215.917 255.233 215.53 254.94C215.157 254.633 214.603 254.48 213.87 254.48C213.283 254.48 212.737 254.593 212.23 254.82C211.737 255.047 211.317 255.4 210.97 255.88L208.61 254.36C209.143 253.56 209.89 252.927 210.85 252.46C211.81 251.993 212.917 251.76 214.17 251.76C215.21 251.76 216.117 251.933 216.89 252.28C217.677 252.613 218.283 253.087 218.71 253.7C219.15 254.313 219.37 255.047 219.37 255.9C219.37 256.353 219.31 256.807 219.19 257.26C219.083 257.7 218.857 258.167 218.51 258.66C218.177 259.153 217.683 259.707 217.03 260.32L212.55 264.54L211.93 263.36H219.83V266H209.25Z" fill="#EEEEEE"/>
<rect y="167" width="240" height="53" fill="#4A8068"/>
<path d="M50.384 204V188.096H44.112V184.4H61.192V188.096H54.92V204H50.384ZM67.8046 192.296H77.2406V195.824H67.8046V192.296ZM68.1406 200.36H78.8086V204H63.6326V184.4H78.4446V188.04H68.1406V200.36ZM82.4178 204V184.4H90.9018C92.6564 184.4 94.1684 184.689 95.4378 185.268C96.7071 185.828 97.6871 186.64 98.3778 187.704C99.0684 188.768 99.4138 190.037 99.4138 191.512C99.4138 192.968 99.0684 194.228 98.3778 195.292C97.6871 196.337 96.7071 197.14 95.4378 197.7C94.1684 198.26 92.6564 198.54 90.9018 198.54H84.9378L86.9538 196.552V204H82.4178ZM94.8777 204L89.9778 196.888H94.8218L99.7778 204H94.8777ZM86.9538 197.056L84.9378 194.928H90.6498C92.0498 194.928 93.0951 194.629 93.7858 194.032C94.4764 193.416 94.8218 192.576 94.8218 191.512C94.8218 190.429 94.4764 189.589 93.7858 188.992C93.0951 188.395 92.0498 188.096 90.6498 188.096H84.9378L86.9538 185.94V197.056ZM109.448 204.336C107.88 204.336 106.377 204.131 104.94 203.72C103.502 203.291 102.345 202.74 101.468 202.068L103.008 198.652C103.848 199.249 104.837 199.744 105.976 200.136C107.133 200.509 108.3 200.696 109.476 200.696C110.372 200.696 111.09 200.612 111.632 200.444C112.192 200.257 112.602 200.005 112.864 199.688C113.125 199.371 113.256 199.007 113.256 198.596C113.256 198.073 113.05 197.663 112.64 197.364C112.229 197.047 111.688 196.795 111.016 196.608C110.344 196.403 109.597 196.216 108.776 196.048C107.973 195.861 107.161 195.637 106.34 195.376C105.537 195.115 104.8 194.779 104.128 194.368C103.456 193.957 102.905 193.416 102.476 192.744C102.065 192.072 101.86 191.213 101.86 190.168C101.86 189.048 102.158 188.031 102.756 187.116C103.372 186.183 104.286 185.445 105.5 184.904C106.732 184.344 108.272 184.064 110.12 184.064C111.352 184.064 112.565 184.213 113.76 184.512C114.954 184.792 116.009 185.221 116.924 185.8L115.524 189.244C114.609 188.721 113.694 188.339 112.78 188.096C111.865 187.835 110.969 187.704 110.092 187.704C109.214 187.704 108.496 187.807 107.936 188.012C107.376 188.217 106.974 188.488 106.732 188.824C106.489 189.141 106.368 189.515 106.368 189.944C106.368 190.448 106.573 190.859 106.984 191.176C107.394 191.475 107.936 191.717 108.608 191.904C109.28 192.091 110.017 192.277 110.82 192.464C111.641 192.651 112.453 192.865 113.256 193.108C114.077 193.351 114.824 193.677 115.496 194.088C116.168 194.499 116.709 195.04 117.12 195.712C117.549 196.384 117.764 197.233 117.764 198.26C117.764 199.361 117.456 200.369 116.84 201.284C116.224 202.199 115.3 202.936 114.068 203.496C112.854 204.056 111.314 204.336 109.448 204.336ZM125.035 192.296H134.471V195.824H125.035V192.296ZM125.371 200.36H136.039V204H120.863V184.4H135.675V188.04H125.371V200.36ZM139.648 204V184.4H148.552C150.68 184.4 152.556 184.811 154.18 185.632C155.804 186.435 157.074 187.564 157.988 189.02C158.903 190.476 159.36 192.203 159.36 194.2C159.36 196.179 158.903 197.905 157.988 199.38C157.074 200.836 155.804 201.975 154.18 202.796C152.556 203.599 150.68 204 148.552 204H139.648ZM144.184 200.276H148.328C149.635 200.276 150.764 200.033 151.716 199.548C152.687 199.044 153.434 198.335 153.956 197.42C154.498 196.505 154.768 195.432 154.768 194.2C154.768 192.949 154.498 191.876 153.956 190.98C153.434 190.065 152.687 189.365 151.716 188.88C150.764 188.376 149.635 188.124 148.328 188.124H144.184V200.276ZM162.781 204V184.4H167.317V204H162.781ZM169.393 204L178.129 184.4H182.609L191.373 204H186.613L179.445 186.696H181.237L174.041 204H169.393ZM173.761 199.8L174.965 196.356H185.045L186.277 199.8H173.761Z" fill="#EEEEEE"/>
<g opacity="0.75">
<path d="M92.8411 132.875L92.8813 133.782L92.0271 134.785L91.1673 135.562C89.6162 136.963 87.8988 140.049 87.8988 141.435C87.8988 142.134 87.7701 142.445 87.4802 142.445C87.2502 142.445 86.6056 142.701 86.0481 143.014C84.8651 143.677 84.4822 143.724 84.4822 143.209C84.4822 143.004 84.2578 142.581 83.9839 142.269C83.3194 141.513 82.4892 139.941 82.4892 139.44C82.4892 139.218 82.3915 139.037 82.2719 139.037C82.1526 139.037 81.9283 138.787 81.7737 138.481C81.6191 138.175 80.948 136.876 80.2826 135.594C79.0088 133.14 78.8166 132.217 79.4678 131.678C79.761 131.435 79.8018 131.08 79.6258 130.301C79.1922 128.383 77.8483 128 76.4489 129.397C75.7969 130.047 75.6589 130.348 75.9014 130.59C76.0797 130.767 76.2254 131.335 76.2254 131.85C76.2254 132.366 76.3536 132.788 76.5101 132.788C76.6667 132.788 76.7949 133.107 76.7949 133.498C76.7949 133.94 76.9563 134.208 77.2219 134.208C77.4568 134.208 77.649 134.389 77.649 134.61C77.649 134.832 77.745 135.055 77.8625 135.107C78.1552 135.237 79.0726 137.255 79.0726 137.768C79.0726 137.997 79.1705 138.185 79.2901 138.185C79.5125 138.185 80.4962 140.252 80.4962 140.72C80.4962 140.862 80.5921 141.02 80.7097 141.073C80.8273 141.125 81.143 141.642 81.4118 142.222C81.8728 143.217 81.8731 143.304 81.4132 143.762C81.0505 144.124 80.9258 144.736 80.9247 146.163C80.9238 147.217 80.8273 148.175 80.7097 148.292C80.3194 148.682 80.5016 149.963 81.0479 150.673C81.5781 151.361 81.5775 151.386 81.0126 152.177C80.5124 152.878 80.4836 153.092 80.7894 153.828C81.0938 154.561 81.069 154.759 80.6049 155.306C80.3102 155.654 79.9922 156.002 79.8983 156.08C79.8043 156.158 79.6543 156.414 79.5649 156.648L239.253 156.909C239.179 156.687 239.061 153.119 238.99 148.979C238.919 144.839 238.729 141.068 238.568 140.599C238.407 140.13 238.053 139.044 237.782 138.185C237.51 137.325 237.083 136.429 236.833 136.194C236.081 135.486 234.86 134.776 234.395 134.776C234.155 134.776 233.958 134.662 233.958 134.523C233.958 134.385 233.509 134.187 232.961 134.085C232.413 133.982 231.965 133.776 231.965 133.627C231.965 133.478 231.826 133.356 231.655 133.356C230.887 133.356 228.754 131.448 228.224 130.286C227.664 129.06 227.693 127.6 228.285 127.235C228.43 127.146 228.548 126.759 228.548 126.376C228.548 125.992 228.707 125.425 228.902 125.114C229.183 124.664 229.182 124.434 228.895 123.975C228.623 123.542 228.613 123.255 228.854 122.807C229.576 121.461 228.551 118.918 226.945 118.07C223.77 116.392 221.444 116.672 219.016 119.024L217.952 120.055L218.139 122.089C218.242 123.208 218.319 124.667 218.31 125.331C218.3 125.995 218.422 126.538 218.581 126.538C218.739 126.538 218.868 126.836 218.868 127.201C218.868 127.61 219.13 128.003 219.556 128.23C220.413 128.688 220.574 129.283 220.372 131.242C220.264 132.278 220.084 132.788 219.824 132.788C219.612 132.788 219.437 132.902 219.437 133.042C219.437 133.182 218.348 133.834 217.017 134.492C215.686 135.15 214.597 135.802 214.597 135.942C214.597 136.082 214.427 136.196 214.218 136.196C213.86 136.196 213.658 136.512 212.948 138.185C212.783 138.575 212.568 140.4 212.471 142.24C212.374 144.08 212.181 145.87 212.041 146.217L211.786 146.848L211.768 146.215C211.75 145.577 210.602 141.956 209.963 140.52C209.773 140.095 209.384 139.491 209.096 139.179C208.809 138.866 208.38 138.285 208.142 137.888C207.904 137.49 207.274 136.866 206.74 136.502C206.207 136.137 205.771 135.728 205.771 135.592C205.771 135.455 205.547 135.344 205.273 135.345C204.999 135.345 204.262 135.101 203.636 134.801C203.009 134.501 202.133 134.115 201.689 133.943L200.881 133.629L201.475 132.624C201.911 131.888 202.07 131.134 202.07 129.806C202.07 128.808 202.194 127.915 202.347 127.821C202.858 127.506 203.196 125.585 202.938 124.458C202.671 123.29 202.21 122.818 200.646 122.106C200.098 121.857 199.184 121.41 198.614 121.113C197.41 120.485 196.71 120.44 195.606 120.919C194.697 121.313 191.831 124.227 191.824 124.763C191.822 124.958 191.692 125.118 191.535 125.118C191.379 125.118 191.251 125.725 191.251 126.467C191.251 127.497 191.42 128.012 191.963 128.642C192.354 129.096 192.677 129.671 192.68 129.92C192.684 130.169 192.937 130.693 193.243 131.083C193.55 131.474 193.798 131.985 193.796 132.22C193.791 132.811 191.871 134.208 191.062 134.208C190.696 134.208 190.396 134.336 190.396 134.492C190.396 134.648 190.136 134.776 189.817 134.776C189.247 134.776 188.053 135.418 187.315 136.122C187.108 136.319 186.852 136.481 186.746 136.482C186.639 136.482 186.143 136.866 185.643 137.334C184.588 138.32 184.133 138.41 184.133 137.633C184.133 137.33 184.022 137.014 183.887 136.931C183.753 136.848 183.556 135.913 183.45 134.855C183.197 132.317 183.198 132.546 183.43 131.039C183.608 129.877 183.543 129.598 182.886 128.74C182.325 128.005 182.14 127.431 182.14 126.424C182.14 125.603 182.029 125.153 181.855 125.26C181.698 125.357 181.57 125.801 181.57 126.248C181.57 127.231 181.315 127.959 180.97 127.959C180.83 127.959 180.716 127.767 180.716 127.533C180.716 127.298 180.588 127.107 180.431 127.107C180.275 127.107 180.147 126.851 180.147 126.538C180.147 125.988 179.845 125.798 179.507 126.136C179.415 126.226 179.522 126.734 179.744 127.262C179.965 127.792 180.147 128.921 180.147 129.772C180.147 130.663 180.282 131.365 180.466 131.426C180.832 131.548 180.996 137.992 180.642 138.35C180.523 138.471 180.17 138.297 179.859 137.963C179.437 137.511 179.292 136.961 179.292 135.811C179.292 134.411 179.202 134.188 178.325 133.419C177.392 132.602 177.351 132.478 177.159 129.91C176.839 125.627 176.824 124.809 177.064 124.662C177.188 124.585 177.264 123.115 177.232 121.395C177.171 118.103 176.948 117.868 176.101 120.205C175.657 121.428 175.362 121.391 175.252 120.098C175.204 119.524 174.998 119 174.795 118.934C174.499 118.837 174.457 119.696 174.581 123.27C174.666 125.721 174.81 127.846 174.9 127.991C174.99 128.137 174.898 129.148 174.696 130.238C174.345 132.128 174.292 132.22 173.536 132.22C172.665 132.22 172.522 131.799 173.155 131.101C173.566 130.648 173.712 129.595 173.638 127.618C173.597 126.539 172.917 125.596 171.679 124.905C170.918 124.48 169.148 124.435 168.9 124.834C168.803 124.99 168.528 125.118 168.288 125.118C167.373 125.118 166.784 126.311 166.774 128.19L166.765 129.983L165.842 129.894C164.633 129.777 164.538 129.169 165.494 127.659C166.01 126.843 166.201 126.229 166.098 125.72C165.543 122.981 165.299 122.124 165.047 122.039C164.89 121.986 164.556 121.738 164.305 121.487C163.322 120.506 159.676 121.16 159.158 122.41C158.528 123.932 159.362 128.527 160.269 128.527C160.648 128.527 160.534 129.103 160.06 129.575C159.738 129.897 159.316 129.967 158.491 129.835C157.65 129.701 157.072 129.803 156.227 130.233C155.275 130.717 155.092 130.741 155.092 130.379C155.092 130.141 155.213 129.947 155.362 129.947C155.51 129.947 155.615 129.036 155.594 127.919C155.564 126.299 155.438 125.764 154.968 125.256C154.645 124.905 154.149 124.284 153.868 123.875C153.461 123.282 153.126 123.13 152.227 123.13C151.013 123.13 150.258 123.458 149.074 124.501L148.323 125.162L148.468 123.791C148.547 123.037 148.84 121.757 149.118 120.948C149.524 119.769 149.546 119.507 149.226 119.629C149.007 119.713 148.828 119.864 148.828 119.965C148.827 120.065 148.507 120.518 148.116 120.973L147.404 121.798V121.06C147.404 120.654 147.276 120.244 147.12 120.147C146.963 120.051 146.835 119.716 146.835 119.404C146.835 119.091 146.707 118.914 146.55 119.011C146.394 119.108 146.265 119.491 146.265 119.863C146.265 120.235 146.394 120.619 146.55 120.715C147.04 121.018 146.861 121.636 146.237 121.799C145.693 121.941 145.655 122.093 145.818 123.466C145.917 124.296 146.07 126.382 146.158 128.101L146.317 131.225L145.65 130.62C144.748 129.8 143.095 129.482 141.579 129.838C140.684 130.048 140.396 130.238 139.261 131.367C138.503 132.121 138.515 131.889 139.034 135.77C139.128 136.473 139.118 137.048 139.012 137.048C138.772 137.048 137.155 135.451 137.155 135.214C137.155 135.119 136.802 134.676 136.372 134.231C135.941 133.785 135.382 133.118 135.13 132.749C134.469 131.782 132.297 131.188 131.152 131.661C130.42 131.964 130.216 131.952 129.85 131.587C129.461 131.199 129.492 131.032 130.153 129.988C130.559 129.347 130.891 128.683 130.891 128.512C130.891 128.342 131.083 128.01 131.318 127.776C131.639 127.456 131.745 126.664 131.745 124.583C131.745 121.922 131.714 121.786 130.946 121.052C130.507 120.633 129.995 120.289 129.807 120.289C129.62 120.289 129.467 120.161 129.467 120.005C129.467 119.622 127.098 119.642 126.711 120.028C126.49 120.249 126.231 120.229 125.798 119.959C125.272 119.631 125.025 119.671 123.913 120.259C123.21 120.631 122.634 121.091 122.634 121.279C122.634 121.468 122.432 122.027 122.184 122.522C121.771 123.347 121.775 123.611 122.225 125.691C122.495 126.938 122.816 127.959 122.937 127.959C123.059 127.959 123.242 128.341 123.345 128.808C123.448 129.274 123.65 129.729 123.795 129.819C124.205 130.071 124.106 131.367 123.676 131.367C123.243 131.367 122.634 132.537 122.634 133.369C122.634 133.674 122.506 133.924 122.35 133.924C121.895 133.924 119.787 136.087 119.787 136.554C119.787 137.316 119.053 137.696 118.386 137.281C117.957 137.014 117.794 136.618 117.794 135.844C117.794 135.257 117.666 134.776 117.509 134.776C117.353 134.776 117.221 134.233 117.218 133.569C117.214 132.905 117.077 131.85 116.914 131.225C116.751 130.6 116.52 129.642 116.401 129.095C115.981 127.16 115.233 126.179 113.685 125.534C111.643 124.683 109.728 125.085 108.296 126.665C107.775 127.239 106.121 130.581 106.121 131.058C106.121 131.192 105.929 131.668 105.695 132.116C105.461 132.563 105.269 133.217 105.268 133.569C105.267 133.92 105.138 134.208 104.982 134.208C104.825 134.208 104.697 134.905 104.697 135.756C104.697 136.928 104.817 137.371 105.189 137.579C105.652 137.837 105.649 137.89 105.145 138.445C104.533 139.12 103.273 139.247 103.273 138.634C103.273 137.868 102.272 136.336 100.908 135.015C100.099 134.231 99.4246 133.273 99.2578 132.67C99.1029 132.11 98.8538 131.651 98.7046 131.651C98.2348 131.651 98.4076 131.028 99.145 130.064C99.5368 129.552 99.8568 128.752 99.8568 128.285C99.8568 127.819 100.007 127.388 100.191 127.327C100.398 127.258 100.534 126.515 100.547 125.375C100.567 123.656 100.507 123.473 99.6336 122.622C99.1191 122.12 98.454 121.709 98.1556 121.709C97.857 121.709 97.5335 121.582 97.4367 121.425C97.1327 120.935 94.5147 121.091 93.857 121.638C91.6624 123.467 91.8489 123.03 91.6769 126.752C91.528 129.977 91.5557 130.223 92.1598 131.07C92.5126 131.564 92.8189 132.376 92.8411 132.875Z" fill="black"/>
<path d="M26.5066 131.242C27.2115 128.07 27.5904 127.484 29.1759 127.112C32.0989 126.426 34.6451 127.609 36.0507 130.305C36.5407 131.245 36.6282 131.67 36.6256 133.093C36.6237 134.083 36.4624 135.333 36.233 136.137C36.0188 136.887 35.8018 137.895 35.7509 138.375C35.6704 139.136 35.7296 139.296 36.2047 139.605C37.0766 140.173 37.2771 139.916 37.5711 137.852C37.9596 135.125 38.4173 134.35 40.3154 133.206C42.3971 131.951 43.3825 131.928 45.5886 133.085C47.4067 134.038 48.0573 134.797 48.3935 136.355C48.576 137.201 48.8236 137.663 49.3508 138.143C50.1339 138.856 50.2165 139.257 49.7526 140.093C49.5826 140.399 49.2906 141.216 49.1037 141.909C48.917 142.602 48.613 143.72 48.4284 144.395C48.0374 145.823 48.2225 146.699 48.9375 146.801C49.1998 146.839 49.9626 146.487 50.7598 145.961C51.5141 145.464 52.5301 144.821 53.018 144.533C53.547 144.22 54.1245 143.627 54.4489 143.063C54.748 142.544 55.2615 141.848 55.5902 141.517C56.2991 140.802 56.2932 140.874 55.7881 139.108C54.9996 136.351 54.8553 135.032 55.1244 133.044C55.5055 130.228 55.7472 129.499 56.6324 128.5C57.5711 127.441 58.5819 126.901 59.6298 126.901C60.6515 126.901 63.1003 127.669 64.0671 128.293C65.5419 129.244 66.2697 130.822 66.6543 133.901L66.7815 134.92L67.5573 134.786C69.6781 134.419 69.9461 134.425 71.4425 134.877C75.2189 136.017 76.4178 137.428 76.6257 140.976C76.7455 143.021 76.4123 144.483 75.3942 146.379C74.6057 147.847 74.5605 149.086 75.2709 149.749C75.5431 150.003 76.5173 150.499 77.436 150.85C78.3544 151.202 79.3912 151.701 79.7397 151.96C80.7004 152.673 82.3889 153.558 82.789 153.558C82.9844 153.558 83.3289 153.42 83.5545 153.25C84.1352 152.814 85.0781 152.871 86.1824 153.409C87.3723 153.99 87.8714 155.002 87.8719 156.606H0C0 156.606 0.580256 154.499 1.29971 153.835C2.79122 152.456 5.06216 152.67 6.83862 154.356C7.28875 154.783 7.69411 155.034 7.73931 154.914C8.1415 153.844 8.65436 153.237 9.21201 153.174C9.95935 153.088 10.934 152.392 12.4671 150.849C13.9799 149.326 14.575 148.474 14.575 147.83C14.575 147.524 14.1893 146.844 13.6396 146.181C11.7854 143.943 11.206 140.902 12.2474 138.873C12.7417 137.91 14.1027 136.672 15.1512 136.231C19.1515 134.548 24.603 136.665 25.3387 140.187C25.4726 140.828 25.7164 141.463 25.8803 141.598C26.2903 141.936 27.2237 141.603 27.721 140.941C28.1094 140.424 28.1062 140.404 27.3781 138.855C26.3714 136.713 26.0041 133.504 26.5066 131.242Z" fill="black"/>
</g>
<path d="M52.008 56V33.6H61.224C63.208 33.6 64.904 33.92 66.312 34.56C67.7413 35.2 68.84 36.1173 69.608 37.312C70.376 38.5067 70.76 39.9253 70.76 41.568C70.76 43.2107 70.376 44.6293 69.608 45.824C68.84 47.0187 67.7413 47.936 66.312 48.576C64.904 49.216 63.208 49.536 61.224 49.536H54.312L56.168 47.584V56H52.008ZM56.168 48.032L54.312 46.016H61.032C62.8667 46.016 64.2427 45.632 65.16 44.864C66.0987 44.0747 66.568 42.976 66.568 41.568C66.568 40.1387 66.0987 39.04 65.16 38.272C64.2427 37.504 62.8667 37.12 61.032 37.12H54.312L56.168 35.072V48.032ZM74.374 56V38.912H78.182V43.616L77.734 42.24C78.246 41.088 79.046 40.2133 80.134 39.616C81.2433 39.0187 82.6193 38.72 84.262 38.72V42.528C84.0913 42.4853 83.9313 42.464 83.782 42.464C83.6327 42.4427 83.4833 42.432 83.334 42.432C81.8193 42.432 80.614 42.88 79.718 43.776C78.822 44.6507 78.374 45.9627 78.374 47.712V56H74.374ZM95.531 56.224C93.6323 56.224 91.9683 55.8507 90.539 55.104C89.131 54.336 88.0323 53.2907 87.243 51.968C86.475 50.6453 86.091 49.1413 86.091 47.456C86.091 45.7493 86.4643 44.2453 87.211 42.944C87.979 41.6213 89.0243 40.5867 90.347 39.84C91.691 39.0933 93.2163 38.72 94.923 38.72C96.587 38.72 98.0697 39.0827 99.371 39.808C100.672 40.5333 101.696 41.5573 102.443 42.88C103.19 44.2027 103.563 45.76 103.563 47.552C103.563 47.7227 103.552 47.9147 103.531 48.128C103.531 48.3413 103.52 48.544 103.499 48.736H89.259V46.08H101.387L99.819 46.912C99.8403 45.9307 99.6377 45.0667 99.211 44.32C98.7843 43.5733 98.1977 42.9867 97.451 42.56C96.7257 42.1333 95.883 41.92 94.923 41.92C93.9417 41.92 93.0777 42.1333 92.331 42.56C91.6057 42.9867 91.0297 43.584 90.603 44.352C90.1977 45.0987 89.995 45.984 89.995 47.008V47.648C89.995 48.672 90.2297 49.5787 90.699 50.368C91.1683 51.1573 91.8297 51.7653 92.683 52.192C93.5363 52.6187 94.5177 52.832 95.627 52.832C96.587 52.832 97.451 52.6827 98.219 52.384C98.987 52.0853 99.6697 51.616 100.267 50.976L102.411 53.44C101.643 54.336 100.672 55.0293 99.499 55.52C98.347 55.9893 97.0243 56.224 95.531 56.224ZM112.685 56.224C111.256 56.224 109.88 56.0427 108.557 55.68C107.256 55.296 106.221 54.8373 105.453 54.304L106.989 51.264C107.757 51.7547 108.675 52.16 109.741 52.48C110.808 52.8 111.875 52.96 112.941 52.96C114.2 52.96 115.107 52.7893 115.661 52.448C116.237 52.1067 116.525 51.648 116.525 51.072C116.525 50.6027 116.333 50.2507 115.949 50.016C115.565 49.76 115.064 49.568 114.445 49.44C113.827 49.312 113.133 49.1947 112.365 49.088C111.619 48.9813 110.861 48.8427 110.093 48.672C109.347 48.48 108.664 48.2133 108.045 47.872C107.427 47.5093 106.925 47.0293 106.541 46.432C106.157 45.8347 105.965 45.0453 105.965 44.064C105.965 42.976 106.275 42.0373 106.893 41.248C107.512 40.4373 108.376 39.8187 109.485 39.392C110.616 38.944 111.949 38.72 113.485 38.72C114.637 38.72 115.8 38.848 116.973 39.104C118.147 39.36 119.117 39.7227 119.885 40.192L118.349 43.232C117.539 42.7413 116.717 42.4107 115.885 42.24C115.075 42.048 114.264 41.952 113.453 41.952C112.237 41.952 111.331 42.1333 110.733 42.496C110.157 42.8587 109.869 43.3173 109.869 43.872C109.869 44.384 110.061 44.768 110.445 45.024C110.829 45.28 111.331 45.4827 111.949 45.632C112.568 45.7813 113.251 45.9093 113.997 46.016C114.765 46.1013 115.523 46.24 116.269 46.432C117.016 46.624 117.699 46.8907 118.317 47.232C118.957 47.552 119.469 48.0107 119.853 48.608C120.237 49.2053 120.429 49.984 120.429 50.944C120.429 52.0107 120.109 52.9387 119.469 53.728C118.851 54.5173 117.965 55.136 116.813 55.584C115.661 56.0107 114.285 56.224 112.685 56.224ZM134.402 56V52.544L134.178 51.808V45.76C134.178 44.5867 133.826 43.68 133.122 43.04C132.418 42.3787 131.351 42.048 129.922 42.048C128.962 42.048 128.013 42.1973 127.074 42.496C126.157 42.7947 125.378 43.2107 124.738 43.744L123.17 40.832C124.087 40.128 125.175 39.6053 126.434 39.264C127.714 38.9013 129.037 38.72 130.402 38.72C132.877 38.72 134.786 39.3173 136.13 40.512C137.495 41.6853 138.178 43.5093 138.178 45.984V56H134.402ZM129.026 56.224C127.746 56.224 126.626 56.0107 125.666 55.584C124.706 55.136 123.959 54.528 123.426 53.76C122.914 52.9707 122.658 52.0853 122.658 51.104C122.658 50.144 122.882 49.28 123.33 48.512C123.799 47.744 124.557 47.136 125.602 46.688C126.647 46.24 128.034 46.016 129.762 46.016H134.722V48.672H130.05C128.685 48.672 127.767 48.896 127.298 49.344C126.829 49.7707 126.594 50.304 126.594 50.944C126.594 51.6693 126.882 52.2453 127.458 52.672C128.034 53.0987 128.834 53.312 129.858 53.312C130.839 53.312 131.714 53.088 132.482 52.64C133.271 52.192 133.837 51.5307 134.178 50.656L134.85 53.056C134.466 54.0587 133.773 54.8373 132.77 55.392C131.789 55.9467 130.541 56.224 129.026 56.224ZM143.312 56V32.256H147.312V56H143.312ZM160.594 56.224C158.695 56.224 157.031 55.8507 155.602 55.104C154.194 54.336 153.095 53.2907 152.306 51.968C151.538 50.6453 151.154 49.1413 151.154 47.456C151.154 45.7493 151.527 44.2453 152.274 42.944C153.042 41.6213 154.087 40.5867 155.41 39.84C156.754 39.0933 158.279 38.72 159.986 38.72C161.65 38.72 163.132 39.0827 164.434 39.808C165.735 40.5333 166.759 41.5573 167.506 42.88C168.252 44.2027 168.626 45.76 168.626 47.552C168.626 47.7227 168.615 47.9147 168.594 48.128C168.594 48.3413 168.583 48.544 168.562 48.736H154.322V46.08H166.45L164.882 46.912C164.903 45.9307 164.7 45.0667 164.274 44.32C163.847 43.5733 163.26 42.9867 162.514 42.56C161.788 42.1333 160.946 41.92 159.986 41.92C159.004 41.92 158.14 42.1333 157.394 42.56C156.668 42.9867 156.092 43.584 155.666 44.352C155.26 45.0987 155.058 45.984 155.058 47.008V47.648C155.058 48.672 155.292 49.5787 155.762 50.368C156.231 51.1573 156.892 51.7653 157.746 52.192C158.599 52.6187 159.58 52.832 160.69 52.832C161.65 52.832 162.514 52.6827 163.282 52.384C164.05 52.0853 164.732 51.616 165.33 50.976L167.474 53.44C166.706 54.336 165.735 55.0293 164.562 55.52C163.41 55.9893 162.087 56.224 160.594 56.224ZM183.68 56V35.2L185.504 37.088H178.944V33.6H187.84V56H183.68Z" fill="black"/>
<path d="M41.256 90V73.2H48.168C49.656 73.2 50.928 73.44 51.984 73.92C53.056 74.4 53.88 75.088 54.456 75.984C55.032 76.88 55.32 77.944 55.32 79.176C55.32 80.408 55.032 81.472 54.456 82.368C53.88 83.248 53.056 83.928 51.984 84.408C50.928 84.872 49.656 85.104 48.168 85.104H42.984L44.376 83.688V90H41.256ZM52.248 90L48 83.904H51.336L55.608 90H52.248ZM44.376 84.024L42.984 82.536H48.024C49.4 82.536 50.432 82.24 51.12 81.648C51.824 81.056 52.176 80.232 52.176 79.176C52.176 78.104 51.824 77.28 51.12 76.704C50.432 76.128 49.4 75.84 48.024 75.84H42.984L44.376 74.304V84.024ZM65.6267 90.168C64.5867 90.168 63.6347 89.928 62.7707 89.448C61.9227 88.968 61.2427 88.248 60.7307 87.288C60.2347 86.312 59.9867 85.08 59.9867 83.592C59.9867 82.088 60.2267 80.856 60.7067 79.896C61.2027 78.936 61.8747 78.224 62.7227 77.76C63.5707 77.28 64.5387 77.04 65.6267 77.04C66.8907 77.04 68.0027 77.312 68.9627 77.856C69.9387 78.4 70.7067 79.16 71.2667 80.136C71.8427 81.112 72.1307 82.264 72.1307 83.592C72.1307 84.92 71.8427 86.08 71.2667 87.072C70.7067 88.048 69.9387 88.808 68.9627 89.352C68.0027 89.896 66.8907 90.168 65.6267 90.168ZM58.5227 94.656V77.184H61.3787V80.208L61.2827 83.616L61.5227 87.024V94.656H58.5227ZM65.2907 87.6C66.0107 87.6 66.6507 87.44 67.2107 87.12C67.7867 86.8 68.2427 86.336 68.5787 85.728C68.9147 85.12 69.0827 84.408 69.0827 83.592C69.0827 82.76 68.9147 82.048 68.5787 81.456C68.2427 80.848 67.7867 80.384 67.2107 80.064C66.6507 79.744 66.0107 79.584 65.2907 79.584C64.5707 79.584 63.9227 79.744 63.3467 80.064C62.7707 80.384 62.3147 80.848 61.9787 81.456C61.6427 82.048 61.4747 82.76 61.4747 83.592C61.4747 84.408 61.6427 85.12 61.9787 85.728C62.3147 86.336 62.7707 86.8 63.3467 87.12C63.9227 87.44 64.5707 87.6 65.2907 87.6ZM86.3606 72.96C87.8966 72.96 89.2006 73.288 90.2726 73.944C91.3606 74.584 92.1926 75.52 92.7686 76.752C93.3446 77.984 93.6326 79.504 93.6326 81.312C93.6326 83.232 93.2806 84.856 92.5766 86.184C91.8886 87.512 90.9286 88.52 89.6966 89.208C88.4646 89.896 87.0326 90.24 85.4006 90.24C84.5526 90.24 83.7446 90.152 82.9766 89.976C82.2086 89.8 81.5446 89.528 80.9846 89.16L82.1366 86.808C82.6006 87.112 83.1046 87.328 83.6486 87.456C84.1926 87.568 84.7526 87.624 85.3286 87.624C86.9126 87.624 88.1686 87.136 89.0966 86.16C90.0246 85.184 90.4886 83.744 90.4886 81.84C90.4886 81.536 90.4806 81.184 90.4646 80.784C90.4486 80.368 90.3926 79.952 90.2966 79.536L91.2566 80.592C90.9846 81.248 90.5926 81.8 90.0806 82.248C89.5686 82.68 88.9686 83.008 88.2806 83.232C87.5926 83.456 86.8326 83.568 86.0006 83.568C84.9126 83.568 83.9286 83.36 83.0486 82.944C82.1846 82.512 81.4966 81.912 80.9846 81.144C80.4726 80.36 80.2166 79.448 80.2166 78.408C80.2166 77.288 80.4886 76.328 81.0326 75.528C81.5766 74.712 82.3126 74.08 83.2406 73.632C84.1846 73.184 85.2246 72.96 86.3606 72.96ZM86.5286 75.408C85.8886 75.408 85.3206 75.528 84.8246 75.768C84.3286 75.992 83.9366 76.32 83.6486 76.752C83.3766 77.168 83.2406 77.672 83.2406 78.264C83.2406 79.144 83.5446 79.84 84.1526 80.352C84.7606 80.864 85.5766 81.12 86.6006 81.12C87.2726 81.12 87.8646 81 88.3766 80.76C88.8886 80.504 89.2886 80.16 89.5766 79.728C89.8646 79.28 90.0086 78.784 90.0086 78.24C90.0086 77.712 89.8726 77.24 89.6006 76.824C89.3286 76.392 88.9366 76.048 88.4246 75.792C87.9126 75.536 87.2806 75.408 86.5286 75.408ZM101.408 72.96C102.944 72.96 104.248 73.288 105.32 73.944C106.408 74.584 107.24 75.52 107.816 76.752C108.392 77.984 108.68 79.504 108.68 81.312C108.68 83.232 108.328 84.856 107.624 86.184C106.936 87.512 105.976 88.52 104.744 89.208C103.512 89.896 102.08 90.24 100.448 90.24C99.5995 90.24 98.7915 90.152 98.0235 89.976C97.2555 89.8 96.5915 89.528 96.0315 89.16L97.1835 86.808C97.6475 87.112 98.1515 87.328 98.6955 87.456C99.2395 87.568 99.7995 87.624 100.376 87.624C101.96 87.624 103.216 87.136 104.144 86.16C105.072 85.184 105.536 83.744 105.536 81.84C105.536 81.536 105.528 81.184 105.512 80.784C105.496 80.368 105.44 79.952 105.344 79.536L106.304 80.592C106.032 81.248 105.64 81.8 105.128 82.248C104.616 82.68 104.016 83.008 103.328 83.232C102.64 83.456 101.88 83.568 101.048 83.568C99.9595 83.568 98.9755 83.36 98.0955 82.944C97.2315 82.512 96.5435 81.912 96.0315 81.144C95.5195 80.36 95.2635 79.448 95.2635 78.408C95.2635 77.288 95.5355 76.328 96.0795 75.528C96.6235 74.712 97.3595 74.08 98.2875 73.632C99.2315 73.184 100.272 72.96 101.408 72.96ZM101.576 75.408C100.936 75.408 100.368 75.528 99.8715 75.768C99.3755 75.992 98.9835 76.32 98.6955 76.752C98.4235 77.168 98.2875 77.672 98.2875 78.264C98.2875 79.144 98.5915 79.84 99.1995 80.352C99.8075 80.864 100.624 81.12 101.648 81.12C102.32 81.12 102.912 81 103.424 80.76C103.936 80.504 104.336 80.16 104.624 79.728C104.912 79.28 105.056 78.784 105.056 78.24C105.056 77.712 104.92 77.24 104.648 76.824C104.376 76.392 103.984 76.048 103.472 75.792C102.96 75.536 102.328 75.408 101.576 75.408ZM112.381 90.168C111.837 90.168 111.373 89.984 110.989 89.616C110.605 89.232 110.413 88.752 110.413 88.176C110.413 87.568 110.605 87.088 110.989 86.736C111.373 86.368 111.837 86.184 112.381 86.184C112.925 86.184 113.389 86.368 113.773 86.736C114.157 87.088 114.349 87.568 114.349 88.176C114.349 88.752 114.157 89.232 113.773 89.616C113.389 89.984 112.925 90.168 112.381 90.168ZM123.095 90.24C121.767 90.24 120.567 89.904 119.495 89.232C118.439 88.56 117.607 87.584 116.999 86.304C116.391 85.008 116.087 83.44 116.087 81.6C116.087 79.76 116.391 78.2 116.999 76.92C117.607 75.624 118.439 74.64 119.495 73.968C120.567 73.296 121.767 72.96 123.095 72.96C124.439 72.96 125.639 73.296 126.695 73.968C127.751 74.64 128.583 75.624 129.191 76.92C129.815 78.2 130.127 79.76 130.127 81.6C130.127 83.44 129.815 85.008 129.191 86.304C128.583 87.584 127.751 88.56 126.695 89.232C125.639 89.904 124.439 90.24 123.095 90.24ZM123.095 87.528C123.879 87.528 124.559 87.32 125.135 86.904C125.711 86.472 126.159 85.816 126.479 84.936C126.815 84.056 126.983 82.944 126.983 81.6C126.983 80.24 126.815 79.128 126.479 78.264C126.159 77.384 125.711 76.736 125.135 76.32C124.559 75.888 123.879 75.672 123.095 75.672C122.343 75.672 121.671 75.888 121.079 76.32C120.503 76.736 120.047 77.384 119.711 78.264C119.391 79.128 119.231 80.24 119.231 81.6C119.231 82.944 119.391 84.056 119.711 84.936C120.047 85.816 120.503 86.472 121.079 86.904C121.671 87.32 122.343 87.528 123.095 87.528ZM139.244 90.24C137.916 90.24 136.716 89.904 135.644 89.232C134.588 88.56 133.756 87.584 133.148 86.304C132.54 85.008 132.236 83.44 132.236 81.6C132.236 79.76 132.54 78.2 133.148 76.92C133.756 75.624 134.588 74.64 135.644 73.968C136.716 73.296 137.916 72.96 139.244 72.96C140.588 72.96 141.788 73.296 142.844 73.968C143.9 74.64 144.732 75.624 145.34 76.92C145.964 78.2 146.276 79.76 146.276 81.6C146.276 83.44 145.964 85.008 145.34 86.304C144.732 87.584 143.9 88.56 142.844 89.232C141.788 89.904 140.588 90.24 139.244 90.24ZM139.244 87.528C140.028 87.528 140.708 87.32 141.284 86.904C141.86 86.472 142.308 85.816 142.628 84.936C142.964 84.056 143.132 82.944 143.132 81.6C143.132 80.24 142.964 79.128 142.628 78.264C142.308 77.384 141.86 76.736 141.284 76.32C140.708 75.888 140.028 75.672 139.244 75.672C138.492 75.672 137.82 75.888 137.228 76.32C136.652 76.736 136.196 77.384 135.86 78.264C135.54 79.128 135.38 80.24 135.38 81.6C135.38 82.944 135.54 84.056 135.86 84.936C136.196 85.816 136.652 86.472 137.228 86.904C137.82 87.32 138.492 87.528 139.244 87.528ZM155.392 90.24C154.064 90.24 152.864 89.904 151.792 89.232C150.736 88.56 149.904 87.584 149.296 86.304C148.688 85.008 148.384 83.44 148.384 81.6C148.384 79.76 148.688 78.2 149.296 76.92C149.904 75.624 150.736 74.64 151.792 73.968C152.864 73.296 154.064 72.96 155.392 72.96C156.736 72.96 157.936 73.296 158.992 73.968C160.048 74.64 160.88 75.624 161.488 76.92C162.112 78.2 162.424 79.76 162.424 81.6C162.424 83.44 162.112 85.008 161.488 86.304C160.88 87.584 160.048 88.56 158.992 89.232C157.936 89.904 156.736 90.24 155.392 90.24ZM155.392 87.528C156.176 87.528 156.856 87.32 157.432 86.904C158.008 86.472 158.456 85.816 158.776 84.936C159.112 84.056 159.28 82.944 159.28 81.6C159.28 80.24 159.112 79.128 158.776 78.264C158.456 77.384 158.008 76.736 157.432 76.32C156.856 75.888 156.176 75.672 155.392 75.672C154.64 75.672 153.968 75.888 153.376 76.32C152.8 76.736 152.344 77.384 152.008 78.264C151.688 79.128 151.528 80.24 151.528 81.6C151.528 82.944 151.688 84.056 152.008 84.936C152.344 85.816 152.8 86.472 153.376 86.904C153.968 87.32 154.64 87.528 155.392 87.528ZM164.371 93.624L165.763 88.32L166.171 90.096C165.611 90.096 165.139 89.928 164.755 89.592C164.387 89.24 164.203 88.768 164.203 88.176C164.203 87.568 164.387 87.088 164.755 86.736C165.139 86.368 165.603 86.184 166.147 86.184C166.707 86.184 167.171 86.368 167.539 86.736C167.907 87.104 168.091 87.584 168.091 88.176C168.091 88.336 168.075 88.512 168.043 88.704C168.011 88.88 167.955 89.088 167.875 89.328C167.811 89.568 167.699 89.872 167.539 90.24L166.315 93.624H164.371ZM176.837 90.24C175.509 90.24 174.309 89.904 173.237 89.232C172.181 88.56 171.349 87.584 170.741 86.304C170.133 85.008 169.829 83.44 169.829 81.6C169.829 79.76 170.133 78.2 170.741 76.92C171.349 75.624 172.181 74.64 173.237 73.968C174.309 73.296 175.509 72.96 176.837 72.96C178.181 72.96 179.381 73.296 180.437 73.968C181.493 74.64 182.325 75.624 182.933 76.92C183.557 78.2 183.869 79.76 183.869 81.6C183.869 83.44 183.557 85.008 182.933 86.304C182.325 87.584 181.493 88.56 180.437 89.232C179.381 89.904 178.181 90.24 176.837 90.24ZM176.837 87.528C177.621 87.528 178.301 87.32 178.877 86.904C179.453 86.472 179.901 85.816 180.221 84.936C180.557 84.056 180.725 82.944 180.725 81.6C180.725 80.24 180.557 79.128 180.221 78.264C179.901 77.384 179.453 76.736 178.877 76.32C178.301 75.888 177.621 75.672 176.837 75.672C176.085 75.672 175.413 75.888 174.821 76.32C174.245 76.736 173.789 77.384 173.453 78.264C173.133 79.128 172.973 80.24 172.973 81.6C172.973 82.944 173.133 84.056 173.453 84.936C173.789 85.816 174.245 86.472 174.821 86.904C175.413 87.32 176.085 87.528 176.837 87.528ZM192.986 90.24C191.658 90.24 190.458 89.904 189.386 89.232C188.33 88.56 187.498 87.584 186.89 86.304C186.282 85.008 185.978 83.44 185.978 81.6C185.978 79.76 186.282 78.2 186.89 76.92C187.498 75.624 188.33 74.64 189.386 73.968C190.458 73.296 191.658 72.96 192.986 72.96C194.33 72.96 195.53 73.296 196.586 73.968C197.642 74.64 198.474 75.624 199.082 76.92C199.706 78.2 200.018 79.76 200.018 81.6C200.018 83.44 199.706 85.008 199.082 86.304C198.474 87.584 197.642 88.56 196.586 89.232C195.53 89.904 194.33 90.24 192.986 90.24ZM192.986 87.528C193.77 87.528 194.45 87.32 195.026 86.904C195.602 86.472 196.05 85.816 196.37 84.936C196.706 84.056 196.874 82.944 196.874 81.6C196.874 80.24 196.706 79.128 196.37 78.264C196.05 77.384 195.602 76.736 195.026 76.32C194.45 75.888 193.77 75.672 192.986 75.672C192.234 75.672 191.562 75.888 190.97 76.32C190.394 76.736 189.938 77.384 189.602 78.264C189.282 79.128 189.122 80.24 189.122 81.6C189.122 82.944 189.282 84.056 189.602 84.936C189.938 85.816 190.394 86.472 190.97 86.904C191.562 87.32 192.234 87.528 192.986 87.528Z" fill="black"/>
<defs>
<linearGradient id="paint0_linear_1187_3831" x1="120" y1="157" x2="120" y2="6.48768e-06" gradientUnits="userSpaceOnUse">
<stop stop-color="#4A8068"/>
<stop offset="1" stop-color="#4A8068" stop-opacity="0"/>
</linearGradient>
</defs>
</svg>
