<svg width="1000" height="118" viewBox="0 0 1000 118" fill="none" xmlns="http://www.w3.org/2000/svg">
<rect width="659" height="117" transform="matrix(1 0 0 -1 55 117)" fill="#EEEEEE"/>
<path d="M0 0L0 117H41.6667L41.6667 0L0 0Z" fill="#4A8068"/>
<path d="M999.666 0.000976562V117H957.999V0.000976562L999.666 0.000976562Z" fill="#4A8068"/>
<rect x="55" width="659" height="117" fill="url(#paint0_linear_1110_26)"/>
<path d="M833 0V53.04L949.667 53.04V0L833 0Z" fill="#4A8068"/>
<path d="M724 59V117L950 117V59L724 59Z" fill="#4A8068"/>
<path d="M83.008 53V30.6H92.224C94.208 30.6 95.904 30.92 97.312 31.56C98.7413 32.2 99.84 33.1173 100.608 34.312C101.376 35.5067 101.76 36.9253 101.76 38.568C101.76 40.2107 101.376 41.6293 100.608 42.824C99.84 44.0187 98.7413 44.936 97.312 45.576C95.904 46.216 94.208 46.536 92.224 46.536H85.312L87.168 44.584V53H83.008ZM87.168 45.032L85.312 43.016H92.032C93.8667 43.016 95.2427 42.632 96.16 41.864C97.0987 41.0747 97.568 39.976 97.568 38.568C97.568 37.1387 97.0987 36.04 96.16 35.272C95.2427 34.504 93.8667 34.12 92.032 34.12H85.312L87.168 32.072V45.032ZM105.374 53V35.912H109.182V40.616L108.734 39.24C109.246 38.088 110.046 37.2133 111.134 36.616C112.243 36.0187 113.619 35.72 115.262 35.72V39.528C115.091 39.4853 114.931 39.464 114.782 39.464C114.633 39.4427 114.483 39.432 114.334 39.432C112.819 39.432 111.614 39.88 110.718 40.776C109.822 41.6507 109.374 42.9627 109.374 44.712V53H105.374ZM126.531 53.224C124.632 53.224 122.968 52.8507 121.539 52.104C120.131 51.336 119.032 50.2907 118.243 48.968C117.475 47.6453 117.091 46.1413 117.091 44.456C117.091 42.7493 117.464 41.2453 118.211 39.944C118.979 38.6213 120.024 37.5867 121.347 36.84C122.691 36.0933 124.216 35.72 125.923 35.72C127.587 35.72 129.07 36.0827 130.371 36.808C131.672 37.5333 132.696 38.5573 133.443 39.88C134.19 41.2027 134.563 42.76 134.563 44.552C134.563 44.7227 134.552 44.9147 134.531 45.128C134.531 45.3413 134.52 45.544 134.499 45.736H120.259V43.08H132.387L130.819 43.912C130.84 42.9307 130.638 42.0667 130.211 41.32C129.784 40.5733 129.198 39.9867 128.451 39.56C127.726 39.1333 126.883 38.92 125.923 38.92C124.942 38.92 124.078 39.1333 123.331 39.56C122.606 39.9867 122.03 40.584 121.603 41.352C121.198 42.0987 120.995 42.984 120.995 44.008V44.648C120.995 45.672 121.23 46.5787 121.699 47.368C122.168 48.1573 122.83 48.7653 123.683 49.192C124.536 49.6187 125.518 49.832 126.627 49.832C127.587 49.832 128.451 49.6827 129.219 49.384C129.987 49.0853 130.67 48.616 131.267 47.976L133.411 50.44C132.643 51.336 131.672 52.0293 130.499 52.52C129.347 52.9893 128.024 53.224 126.531 53.224ZM143.685 53.224C142.256 53.224 140.88 53.0427 139.557 52.68C138.256 52.296 137.221 51.8373 136.453 51.304L137.989 48.264C138.757 48.7547 139.675 49.16 140.741 49.48C141.808 49.8 142.875 49.96 143.941 49.96C145.2 49.96 146.107 49.7893 146.661 49.448C147.237 49.1067 147.525 48.648 147.525 48.072C147.525 47.6027 147.333 47.2507 146.949 47.016C146.565 46.76 146.064 46.568 145.445 46.44C144.827 46.312 144.133 46.1947 143.365 46.088C142.619 45.9813 141.861 45.8427 141.093 45.672C140.347 45.48 139.664 45.2133 139.045 44.872C138.427 44.5093 137.925 44.0293 137.541 43.432C137.157 42.8347 136.965 42.0453 136.965 41.064C136.965 39.976 137.275 39.0373 137.893 38.248C138.512 37.4373 139.376 36.8187 140.485 36.392C141.616 35.944 142.949 35.72 144.485 35.72C145.637 35.72 146.8 35.848 147.973 36.104C149.147 36.36 150.117 36.7227 150.885 37.192L149.349 40.232C148.539 39.7413 147.717 39.4107 146.885 39.24C146.075 39.048 145.264 38.952 144.453 38.952C143.237 38.952 142.331 39.1333 141.733 39.496C141.157 39.8587 140.869 40.3173 140.869 40.872C140.869 41.384 141.061 41.768 141.445 42.024C141.829 42.28 142.331 42.4827 142.949 42.632C143.568 42.7813 144.251 42.9093 144.997 43.016C145.765 43.1013 146.523 43.24 147.269 43.432C148.016 43.624 148.699 43.8907 149.317 44.232C149.957 44.552 150.469 45.0107 150.853 45.608C151.237 46.2053 151.429 46.984 151.429 47.944C151.429 49.0107 151.109 49.9387 150.469 50.728C149.851 51.5173 148.965 52.136 147.813 52.584C146.661 53.0107 145.285 53.224 143.685 53.224ZM165.402 53V49.544L165.178 48.808V42.76C165.178 41.5867 164.826 40.68 164.122 40.04C163.418 39.3787 162.351 39.048 160.922 39.048C159.962 39.048 159.013 39.1973 158.074 39.496C157.157 39.7947 156.378 40.2107 155.738 40.744L154.17 37.832C155.087 37.128 156.175 36.6053 157.434 36.264C158.714 35.9013 160.037 35.72 161.402 35.72C163.877 35.72 165.786 36.3173 167.13 37.512C168.495 38.6853 169.178 40.5093 169.178 42.984V53H165.402ZM160.026 53.224C158.746 53.224 157.626 53.0107 156.666 52.584C155.706 52.136 154.959 51.528 154.426 50.76C153.914 49.9707 153.658 49.0853 153.658 48.104C153.658 47.144 153.882 46.28 154.33 45.512C154.799 44.744 155.557 44.136 156.602 43.688C157.647 43.24 159.034 43.016 160.762 43.016H165.722V45.672H161.05C159.685 45.672 158.767 45.896 158.298 46.344C157.829 46.7707 157.594 47.304 157.594 47.944C157.594 48.6693 157.882 49.2453 158.458 49.672C159.034 50.0987 159.834 50.312 160.858 50.312C161.839 50.312 162.714 50.088 163.482 49.64C164.271 49.192 164.837 48.5307 165.178 47.656L165.85 50.056C165.466 51.0587 164.773 51.8373 163.77 52.392C162.789 52.9467 161.541 53.224 160.026 53.224ZM174.312 53V29.256H178.312V53H174.312ZM191.594 53.224C189.695 53.224 188.031 52.8507 186.602 52.104C185.194 51.336 184.095 50.2907 183.306 48.968C182.538 47.6453 182.154 46.1413 182.154 44.456C182.154 42.7493 182.527 41.2453 183.274 39.944C184.042 38.6213 185.087 37.5867 186.41 36.84C187.754 36.0933 189.279 35.72 190.986 35.72C192.65 35.72 194.132 36.0827 195.434 36.808C196.735 37.5333 197.759 38.5573 198.506 39.88C199.252 41.2027 199.626 42.76 199.626 44.552C199.626 44.7227 199.615 44.9147 199.594 45.128C199.594 45.3413 199.583 45.544 199.562 45.736H185.322V43.08H197.45L195.882 43.912C195.903 42.9307 195.7 42.0667 195.274 41.32C194.847 40.5733 194.26 39.9867 193.514 39.56C192.788 39.1333 191.946 38.92 190.986 38.92C190.004 38.92 189.14 39.1333 188.394 39.56C187.668 39.9867 187.092 40.584 186.666 41.352C186.26 42.0987 186.058 42.984 186.058 44.008V44.648C186.058 45.672 186.292 46.5787 186.762 47.368C187.231 48.1573 187.892 48.7653 188.746 49.192C189.599 49.6187 190.58 49.832 191.69 49.832C192.65 49.832 193.514 49.6827 194.282 49.384C195.05 49.0853 195.732 48.616 196.33 47.976L198.474 50.44C197.706 51.336 196.735 52.0293 195.562 52.52C194.41 52.9893 193.087 53.224 191.594 53.224ZM214.68 53V32.2L216.504 34.088H209.944V30.6H218.84V53H214.68Z" fill="black"/>
<path d="M82.256 89V72.2H89.168C90.656 72.2 91.928 72.44 92.984 72.92C94.056 73.4 94.88 74.088 95.456 74.984C96.032 75.88 96.32 76.944 96.32 78.176C96.32 79.408 96.032 80.472 95.456 81.368C94.88 82.248 94.056 82.928 92.984 83.408C91.928 83.872 90.656 84.104 89.168 84.104H83.984L85.376 82.688V89H82.256ZM93.248 89L89 82.904H92.336L96.608 89H93.248ZM85.376 83.024L83.984 81.536H89.024C90.4 81.536 91.432 81.24 92.12 80.648C92.824 80.056 93.176 79.232 93.176 78.176C93.176 77.104 92.824 76.28 92.12 75.704C91.432 75.128 90.4 74.84 89.024 74.84H83.984L85.376 73.304V83.024ZM106.627 89.168C105.587 89.168 104.635 88.928 103.771 88.448C102.923 87.968 102.243 87.248 101.731 86.288C101.235 85.312 100.987 84.08 100.987 82.592C100.987 81.088 101.227 79.856 101.707 78.896C102.203 77.936 102.875 77.224 103.723 76.76C104.571 76.28 105.539 76.04 106.627 76.04C107.891 76.04 109.003 76.312 109.963 76.856C110.939 77.4 111.707 78.16 112.267 79.136C112.843 80.112 113.131 81.264 113.131 82.592C113.131 83.92 112.843 85.08 112.267 86.072C111.707 87.048 110.939 87.808 109.963 88.352C109.003 88.896 107.891 89.168 106.627 89.168ZM99.5227 93.656V76.184H102.379V79.208L102.283 82.616L102.523 86.024V93.656H99.5227ZM106.291 86.6C107.011 86.6 107.651 86.44 108.211 86.12C108.787 85.8 109.243 85.336 109.579 84.728C109.915 84.12 110.083 83.408 110.083 82.592C110.083 81.76 109.915 81.048 109.579 80.456C109.243 79.848 108.787 79.384 108.211 79.064C107.651 78.744 107.011 78.584 106.291 78.584C105.571 78.584 104.923 78.744 104.347 79.064C103.771 79.384 103.315 79.848 102.979 80.456C102.643 81.048 102.475 81.76 102.475 82.592C102.475 83.408 102.643 84.12 102.979 84.728C103.315 85.336 103.771 85.8 104.347 86.12C104.923 86.44 105.571 86.6 106.291 86.6ZM127.361 71.96C128.897 71.96 130.201 72.288 131.273 72.944C132.361 73.584 133.193 74.52 133.769 75.752C134.345 76.984 134.633 78.504 134.633 80.312C134.633 82.232 134.281 83.856 133.577 85.184C132.889 86.512 131.929 87.52 130.697 88.208C129.465 88.896 128.033 89.24 126.401 89.24C125.553 89.24 124.745 89.152 123.977 88.976C123.209 88.8 122.545 88.528 121.985 88.16L123.137 85.808C123.601 86.112 124.105 86.328 124.649 86.456C125.193 86.568 125.753 86.624 126.329 86.624C127.913 86.624 129.169 86.136 130.097 85.16C131.025 84.184 131.489 82.744 131.489 80.84C131.489 80.536 131.481 80.184 131.465 79.784C131.449 79.368 131.393 78.952 131.297 78.536L132.257 79.592C131.985 80.248 131.593 80.8 131.081 81.248C130.569 81.68 129.969 82.008 129.281 82.232C128.593 82.456 127.833 82.568 127.001 82.568C125.913 82.568 124.929 82.36 124.049 81.944C123.185 81.512 122.497 80.912 121.985 80.144C121.473 79.36 121.217 78.448 121.217 77.408C121.217 76.288 121.489 75.328 122.033 74.528C122.577 73.712 123.313 73.08 124.241 72.632C125.185 72.184 126.225 71.96 127.361 71.96ZM127.529 74.408C126.889 74.408 126.321 74.528 125.825 74.768C125.329 74.992 124.937 75.32 124.649 75.752C124.377 76.168 124.241 76.672 124.241 77.264C124.241 78.144 124.545 78.84 125.153 79.352C125.761 79.864 126.577 80.12 127.601 80.12C128.273 80.12 128.865 80 129.377 79.76C129.889 79.504 130.289 79.16 130.577 78.728C130.865 78.28 131.009 77.784 131.009 77.24C131.009 76.712 130.873 76.24 130.601 75.824C130.329 75.392 129.937 75.048 129.425 74.792C128.913 74.536 128.281 74.408 127.529 74.408ZM142.408 71.96C143.944 71.96 145.248 72.288 146.32 72.944C147.408 73.584 148.24 74.52 148.816 75.752C149.392 76.984 149.68 78.504 149.68 80.312C149.68 82.232 149.328 83.856 148.624 85.184C147.936 86.512 146.976 87.52 145.744 88.208C144.512 88.896 143.08 89.24 141.448 89.24C140.6 89.24 139.792 89.152 139.024 88.976C138.256 88.8 137.592 88.528 137.032 88.16L138.184 85.808C138.648 86.112 139.152 86.328 139.696 86.456C140.24 86.568 140.8 86.624 141.376 86.624C142.96 86.624 144.216 86.136 145.144 85.16C146.072 84.184 146.536 82.744 146.536 80.84C146.536 80.536 146.528 80.184 146.512 79.784C146.496 79.368 146.44 78.952 146.344 78.536L147.304 79.592C147.032 80.248 146.64 80.8 146.128 81.248C145.616 81.68 145.016 82.008 144.328 82.232C143.64 82.456 142.88 82.568 142.048 82.568C140.96 82.568 139.976 82.36 139.096 81.944C138.232 81.512 137.544 80.912 137.032 80.144C136.52 79.36 136.264 78.448 136.264 77.408C136.264 76.288 136.536 75.328 137.08 74.528C137.624 73.712 138.36 73.08 139.288 72.632C140.232 72.184 141.272 71.96 142.408 71.96ZM142.576 74.408C141.936 74.408 141.368 74.528 140.872 74.768C140.376 74.992 139.984 75.32 139.696 75.752C139.424 76.168 139.288 76.672 139.288 77.264C139.288 78.144 139.592 78.84 140.2 79.352C140.808 79.864 141.624 80.12 142.648 80.12C143.32 80.12 143.912 80 144.424 79.76C144.936 79.504 145.336 79.16 145.624 78.728C145.912 78.28 146.056 77.784 146.056 77.24C146.056 76.712 145.92 76.24 145.648 75.824C145.376 75.392 144.984 75.048 144.472 74.792C143.96 74.536 143.328 74.408 142.576 74.408ZM153.381 89.168C152.837 89.168 152.373 88.984 151.989 88.616C151.605 88.232 151.413 87.752 151.413 87.176C151.413 86.568 151.605 86.088 151.989 85.736C152.373 85.368 152.837 85.184 153.381 85.184C153.925 85.184 154.389 85.368 154.773 85.736C155.157 86.088 155.349 86.568 155.349 87.176C155.349 87.752 155.157 88.232 154.773 88.616C154.389 88.984 153.925 89.168 153.381 89.168ZM164.095 89.24C162.767 89.24 161.567 88.904 160.495 88.232C159.439 87.56 158.607 86.584 157.999 85.304C157.391 84.008 157.087 82.44 157.087 80.6C157.087 78.76 157.391 77.2 157.999 75.92C158.607 74.624 159.439 73.64 160.495 72.968C161.567 72.296 162.767 71.96 164.095 71.96C165.439 71.96 166.639 72.296 167.695 72.968C168.751 73.64 169.583 74.624 170.191 75.92C170.815 77.2 171.127 78.76 171.127 80.6C171.127 82.44 170.815 84.008 170.191 85.304C169.583 86.584 168.751 87.56 167.695 88.232C166.639 88.904 165.439 89.24 164.095 89.24ZM164.095 86.528C164.879 86.528 165.559 86.32 166.135 85.904C166.711 85.472 167.159 84.816 167.479 83.936C167.815 83.056 167.983 81.944 167.983 80.6C167.983 79.24 167.815 78.128 167.479 77.264C167.159 76.384 166.711 75.736 166.135 75.32C165.559 74.888 164.879 74.672 164.095 74.672C163.343 74.672 162.671 74.888 162.079 75.32C161.503 75.736 161.047 76.384 160.711 77.264C160.391 78.128 160.231 79.24 160.231 80.6C160.231 81.944 160.391 83.056 160.711 83.936C161.047 84.816 161.503 85.472 162.079 85.904C162.671 86.32 163.343 86.528 164.095 86.528ZM180.244 89.24C178.916 89.24 177.716 88.904 176.644 88.232C175.588 87.56 174.756 86.584 174.148 85.304C173.54 84.008 173.236 82.44 173.236 80.6C173.236 78.76 173.54 77.2 174.148 75.92C174.756 74.624 175.588 73.64 176.644 72.968C177.716 72.296 178.916 71.96 180.244 71.96C181.588 71.96 182.788 72.296 183.844 72.968C184.9 73.64 185.732 74.624 186.34 75.92C186.964 77.2 187.276 78.76 187.276 80.6C187.276 82.44 186.964 84.008 186.34 85.304C185.732 86.584 184.9 87.56 183.844 88.232C182.788 88.904 181.588 89.24 180.244 89.24ZM180.244 86.528C181.028 86.528 181.708 86.32 182.284 85.904C182.86 85.472 183.308 84.816 183.628 83.936C183.964 83.056 184.132 81.944 184.132 80.6C184.132 79.24 183.964 78.128 183.628 77.264C183.308 76.384 182.86 75.736 182.284 75.32C181.708 74.888 181.028 74.672 180.244 74.672C179.492 74.672 178.82 74.888 178.228 75.32C177.652 75.736 177.196 76.384 176.86 77.264C176.54 78.128 176.38 79.24 176.38 80.6C176.38 81.944 176.54 83.056 176.86 83.936C177.196 84.816 177.652 85.472 178.228 85.904C178.82 86.32 179.492 86.528 180.244 86.528ZM196.392 89.24C195.064 89.24 193.864 88.904 192.792 88.232C191.736 87.56 190.904 86.584 190.296 85.304C189.688 84.008 189.384 82.44 189.384 80.6C189.384 78.76 189.688 77.2 190.296 75.92C190.904 74.624 191.736 73.64 192.792 72.968C193.864 72.296 195.064 71.96 196.392 71.96C197.736 71.96 198.936 72.296 199.992 72.968C201.048 73.64 201.88 74.624 202.488 75.92C203.112 77.2 203.424 78.76 203.424 80.6C203.424 82.44 203.112 84.008 202.488 85.304C201.88 86.584 201.048 87.56 199.992 88.232C198.936 88.904 197.736 89.24 196.392 89.24ZM196.392 86.528C197.176 86.528 197.856 86.32 198.432 85.904C199.008 85.472 199.456 84.816 199.776 83.936C200.112 83.056 200.28 81.944 200.28 80.6C200.28 79.24 200.112 78.128 199.776 77.264C199.456 76.384 199.008 75.736 198.432 75.32C197.856 74.888 197.176 74.672 196.392 74.672C195.64 74.672 194.968 74.888 194.376 75.32C193.8 75.736 193.344 76.384 193.008 77.264C192.688 78.128 192.528 79.24 192.528 80.6C192.528 81.944 192.688 83.056 193.008 83.936C193.344 84.816 193.8 85.472 194.376 85.904C194.968 86.32 195.64 86.528 196.392 86.528ZM205.371 92.624L206.763 87.32L207.171 89.096C206.611 89.096 206.139 88.928 205.755 88.592C205.387 88.24 205.203 87.768 205.203 87.176C205.203 86.568 205.387 86.088 205.755 85.736C206.139 85.368 206.603 85.184 207.147 85.184C207.707 85.184 208.171 85.368 208.539 85.736C208.907 86.104 209.091 86.584 209.091 87.176C209.091 87.336 209.075 87.512 209.043 87.704C209.011 87.88 208.955 88.088 208.875 88.328C208.811 88.568 208.699 88.872 208.539 89.24L207.315 92.624H205.371ZM217.837 89.24C216.509 89.24 215.309 88.904 214.237 88.232C213.181 87.56 212.349 86.584 211.741 85.304C211.133 84.008 210.829 82.44 210.829 80.6C210.829 78.76 211.133 77.2 211.741 75.92C212.349 74.624 213.181 73.64 214.237 72.968C215.309 72.296 216.509 71.96 217.837 71.96C219.181 71.96 220.381 72.296 221.437 72.968C222.493 73.64 223.325 74.624 223.933 75.92C224.557 77.2 224.869 78.76 224.869 80.6C224.869 82.44 224.557 84.008 223.933 85.304C223.325 86.584 222.493 87.56 221.437 88.232C220.381 88.904 219.181 89.24 217.837 89.24ZM217.837 86.528C218.621 86.528 219.301 86.32 219.877 85.904C220.453 85.472 220.901 84.816 221.221 83.936C221.557 83.056 221.725 81.944 221.725 80.6C221.725 79.24 221.557 78.128 221.221 77.264C220.901 76.384 220.453 75.736 219.877 75.32C219.301 74.888 218.621 74.672 217.837 74.672C217.085 74.672 216.413 74.888 215.821 75.32C215.245 75.736 214.789 76.384 214.453 77.264C214.133 78.128 213.973 79.24 213.973 80.6C213.973 81.944 214.133 83.056 214.453 83.936C214.789 84.816 215.245 85.472 215.821 85.904C216.413 86.32 217.085 86.528 217.837 86.528ZM233.986 89.24C232.658 89.24 231.458 88.904 230.386 88.232C229.33 87.56 228.498 86.584 227.89 85.304C227.282 84.008 226.978 82.44 226.978 80.6C226.978 78.76 227.282 77.2 227.89 75.92C228.498 74.624 229.33 73.64 230.386 72.968C231.458 72.296 232.658 71.96 233.986 71.96C235.33 71.96 236.53 72.296 237.586 72.968C238.642 73.64 239.474 74.624 240.082 75.92C240.706 77.2 241.018 78.76 241.018 80.6C241.018 82.44 240.706 84.008 240.082 85.304C239.474 86.584 238.642 87.56 237.586 88.232C236.53 88.904 235.33 89.24 233.986 89.24ZM233.986 86.528C234.77 86.528 235.45 86.32 236.026 85.904C236.602 85.472 237.05 84.816 237.37 83.936C237.706 83.056 237.874 81.944 237.874 80.6C237.874 79.24 237.706 78.128 237.37 77.264C237.05 76.384 236.602 75.736 236.026 75.32C235.45 74.888 234.77 74.672 233.986 74.672C233.234 74.672 232.562 74.888 231.97 75.32C231.394 75.736 230.938 76.384 230.602 77.264C230.282 78.128 230.122 79.24 230.122 80.6C230.122 81.944 230.282 83.056 230.602 83.936C230.938 84.816 231.394 85.472 231.97 85.904C232.562 86.32 233.234 86.528 233.986 86.528Z" fill="black"/>
<path d="M737.66 95V92.9L743.06 87.8C743.487 87.4133 743.8 87.0667 744 86.76C744.2 86.4533 744.333 86.1733 744.4 85.92C744.48 85.6667 744.52 85.4333 744.52 85.22C744.52 84.66 744.327 84.2333 743.94 83.94C743.567 83.6333 743.013 83.48 742.28 83.48C741.693 83.48 741.147 83.5933 740.64 83.82C740.147 84.0467 739.727 84.4 739.38 84.88L737.02 83.36C737.553 82.56 738.3 81.9267 739.26 81.46C740.22 80.9933 741.327 80.76 742.58 80.76C743.62 80.76 744.527 80.9333 745.3 81.28C746.087 81.6133 746.693 82.0867 747.12 82.7C747.56 83.3133 747.78 84.0467 747.78 84.9C747.78 85.3533 747.72 85.8067 747.6 86.26C747.493 86.7 747.267 87.1667 746.92 87.66C746.587 88.1533 746.093 88.7067 745.44 89.32L740.96 93.54L740.34 92.36H748.24V95H737.66ZM755.377 95.24C754.204 95.24 753.177 95.0667 752.297 94.72C751.417 94.36 750.73 93.86 750.237 93.22C749.744 92.5667 749.497 91.8067 749.497 90.94C749.497 90.0733 749.737 89.34 750.217 88.74C750.71 88.1267 751.397 87.6667 752.277 87.36C753.157 87.04 754.19 86.88 755.377 86.88C756.577 86.88 757.617 87.04 758.497 87.36C759.39 87.6667 760.077 88.1267 760.557 88.74C761.05 89.34 761.297 90.0733 761.297 90.94C761.297 91.8067 761.05 92.5667 760.557 93.22C760.064 93.86 759.37 94.36 758.477 94.72C757.597 95.0667 756.564 95.24 755.377 95.24ZM755.377 92.86C756.19 92.86 756.83 92.68 757.297 92.32C757.777 91.96 758.017 91.4667 758.017 90.84C758.017 90.2133 757.777 89.7267 757.297 89.38C756.83 89.02 756.19 88.84 755.377 88.84C754.577 88.84 753.944 89.02 753.477 89.38C753.01 89.7267 752.777 90.2133 752.777 90.84C752.777 91.4667 753.01 91.96 753.477 92.32C753.944 92.68 754.577 92.86 755.377 92.86ZM755.377 88.52C754.297 88.52 753.35 88.3733 752.537 88.08C751.737 87.7867 751.11 87.36 750.657 86.8C750.217 86.2267 749.997 85.5467 749.997 84.76C749.997 83.9333 750.224 83.2267 750.677 82.64C751.13 82.04 751.764 81.58 752.577 81.26C753.39 80.9267 754.324 80.76 755.377 80.76C756.457 80.76 757.397 80.9267 758.197 81.26C759.01 81.58 759.644 82.04 760.097 82.64C760.564 83.2267 760.797 83.9333 760.797 84.76C760.797 85.5467 760.57 86.2267 760.117 86.8C759.677 87.36 759.05 87.7867 758.237 88.08C757.424 88.3733 756.47 88.52 755.377 88.52ZM755.377 86.62C756.057 86.62 756.59 86.4667 756.977 86.16C757.377 85.8533 757.577 85.4333 757.577 84.9C757.577 84.34 757.37 83.9067 756.957 83.6C756.557 83.2933 756.03 83.14 755.377 83.14C754.737 83.14 754.217 83.2933 753.817 83.6C753.417 83.9067 753.217 84.34 753.217 84.9C753.217 85.4333 753.41 85.8533 753.797 86.16C754.184 86.4667 754.71 86.62 755.377 86.62ZM773.924 95.24C772.804 95.24 771.731 95.0933 770.704 94.8C769.677 94.4933 768.851 94.1 768.224 93.62L769.324 91.18C769.924 91.6067 770.631 91.96 771.444 92.24C772.271 92.5067 773.104 92.64 773.944 92.64C774.584 92.64 775.097 92.58 775.484 92.46C775.884 92.3267 776.177 92.1467 776.364 91.92C776.551 91.6933 776.644 91.4333 776.644 91.14C776.644 90.7667 776.497 90.4733 776.204 90.26C775.911 90.0333 775.524 89.8533 775.044 89.72C774.564 89.5733 774.031 89.44 773.444 89.32C772.871 89.1867 772.291 89.0267 771.704 88.84C771.131 88.6533 770.604 88.4133 770.124 88.12C769.644 87.8267 769.251 87.44 768.944 86.96C768.651 86.48 768.504 85.8667 768.504 85.12C768.504 84.32 768.717 83.5933 769.144 82.94C769.584 82.2733 770.237 81.7467 771.104 81.36C771.984 80.96 773.084 80.76 774.404 80.76C775.284 80.76 776.151 80.8667 777.004 81.08C777.857 81.28 778.611 81.5867 779.264 82L778.264 84.46C777.611 84.0867 776.957 83.8133 776.304 83.64C775.651 83.4533 775.011 83.36 774.384 83.36C773.757 83.36 773.244 83.4333 772.844 83.58C772.444 83.7267 772.157 83.92 771.984 84.16C771.811 84.3867 771.724 84.6533 771.724 84.96C771.724 85.32 771.871 85.6133 772.164 85.84C772.457 86.0533 772.844 86.2267 773.324 86.36C773.804 86.4933 774.331 86.6267 774.904 86.76C775.491 86.8933 776.071 87.0467 776.644 87.22C777.231 87.3933 777.764 87.6267 778.244 87.92C778.724 88.2133 779.111 88.6 779.404 89.08C779.711 89.56 779.864 90.1667 779.864 90.9C779.864 91.6867 779.644 92.4067 779.204 93.06C778.764 93.7133 778.104 94.24 777.224 94.64C776.357 95.04 775.257 95.24 773.924 95.24ZM787.198 95.16C785.971 95.16 784.891 94.92 783.958 94.44C783.038 93.96 782.325 93.3067 781.818 92.48C781.311 91.64 781.058 90.6867 781.058 89.62C781.058 88.54 781.305 87.5867 781.798 86.76C782.305 85.92 782.991 85.2667 783.858 84.8C784.725 84.32 785.705 84.08 786.798 84.08C787.851 84.08 788.798 84.3067 789.638 84.76C790.491 85.2 791.165 85.84 791.658 86.68C792.151 87.5067 792.398 88.5 792.398 89.66C792.398 89.78 792.391 89.92 792.378 90.08C792.365 90.2267 792.351 90.3667 792.338 90.5H783.598V88.68H790.698L789.498 89.22C789.498 88.66 789.385 88.1733 789.158 87.76C788.931 87.3467 788.618 87.0267 788.218 86.8C787.818 86.56 787.351 86.44 786.818 86.44C786.285 86.44 785.811 86.56 785.398 86.8C784.998 87.0267 784.685 87.3533 784.458 87.78C784.231 88.1933 784.118 88.6867 784.118 89.26V89.74C784.118 90.3267 784.245 90.8467 784.498 91.3C784.765 91.74 785.131 92.08 785.598 92.32C786.078 92.5467 786.638 92.66 787.278 92.66C787.851 92.66 788.351 92.5733 788.778 92.4C789.218 92.2267 789.618 91.9667 789.978 91.62L791.638 93.42C791.145 93.98 790.525 94.4133 789.778 94.72C789.031 95.0133 788.171 95.16 787.198 95.16ZM800.835 95.16C799.928 95.16 799.135 94.96 798.455 94.56C797.775 94.16 797.242 93.5533 796.855 92.74C796.482 91.9133 796.295 90.8733 796.295 89.62C796.295 88.3533 796.475 87.3133 796.835 86.5C797.195 85.6867 797.715 85.08 798.395 84.68C799.075 84.28 799.888 84.08 800.835 84.08C801.848 84.08 802.755 84.3133 803.555 84.78C804.368 85.2333 805.008 85.8733 805.475 86.7C805.955 87.5267 806.195 88.5 806.195 89.62C806.195 90.7533 805.955 91.7333 805.475 92.56C805.008 93.3867 804.368 94.0267 803.555 94.48C802.755 94.9333 801.848 95.16 800.835 95.16ZM794.475 98.88V84.24H797.455V86.44L797.395 89.64L797.595 92.82V98.88H794.475ZM800.295 92.6C800.815 92.6 801.275 92.48 801.675 92.24C802.088 92 802.415 91.66 802.655 91.22C802.908 90.7667 803.035 90.2333 803.035 89.62C803.035 88.9933 802.908 88.46 802.655 88.02C802.415 87.58 802.088 87.24 801.675 87C801.275 86.76 800.815 86.64 800.295 86.64C799.775 86.64 799.308 86.76 798.895 87C798.482 87.24 798.155 87.58 797.915 88.02C797.675 88.46 797.555 88.9933 797.555 89.62C797.555 90.2333 797.675 90.7667 797.915 91.22C798.155 91.66 798.482 92 798.895 92.24C799.308 92.48 799.775 92.6 800.295 92.6ZM812.684 95.16C811.417 95.16 810.43 94.84 809.724 94.2C809.017 93.5467 808.664 92.58 808.664 91.3V81.86H811.784V91.26C811.784 91.7133 811.904 92.0667 812.144 92.32C812.384 92.56 812.71 92.68 813.124 92.68C813.617 92.68 814.037 92.5467 814.384 92.28L815.224 94.48C814.904 94.7067 814.517 94.88 814.064 95C813.624 95.1067 813.164 95.16 812.684 95.16ZM807.004 86.88V84.48H814.464V86.88H807.004ZM821.983 95.16C820.756 95.16 819.676 94.92 818.743 94.44C817.823 93.96 817.11 93.3067 816.603 92.48C816.096 91.64 815.843 90.6867 815.843 89.62C815.843 88.54 816.09 87.5867 816.583 86.76C817.09 85.92 817.776 85.2667 818.643 84.8C819.51 84.32 820.49 84.08 821.583 84.08C822.636 84.08 823.583 84.3067 824.423 84.76C825.276 85.2 825.95 85.84 826.443 86.68C826.936 87.5067 827.183 88.5 827.183 89.66C827.183 89.78 827.176 89.92 827.163 90.08C827.15 90.2267 827.136 90.3667 827.123 90.5H818.383V88.68H825.483L824.283 89.22C824.283 88.66 824.17 88.1733 823.943 87.76C823.716 87.3467 823.403 87.0267 823.003 86.8C822.603 86.56 822.136 86.44 821.603 86.44C821.07 86.44 820.596 86.56 820.183 86.8C819.783 87.0267 819.47 87.3533 819.243 87.78C819.016 88.1933 818.903 88.6867 818.903 89.26V89.74C818.903 90.3267 819.03 90.8467 819.283 91.3C819.55 91.74 819.916 92.08 820.383 92.32C820.863 92.5467 821.423 92.66 822.063 92.66C822.636 92.66 823.136 92.5733 823.563 92.4C824.003 92.2267 824.403 91.9667 824.763 91.62L826.423 93.42C825.93 93.98 825.31 94.4133 824.563 94.72C823.816 95.0133 822.956 95.16 821.983 95.16ZM843.04 84.08C843.894 84.08 844.647 84.2533 845.3 84.6C845.967 84.9333 846.487 85.4533 846.86 86.16C847.247 86.8533 847.44 87.7467 847.44 88.84V95H844.32V89.32C844.32 88.4533 844.14 87.8133 843.78 87.4C843.42 86.9867 842.914 86.78 842.26 86.78C841.807 86.78 841.4 86.8867 841.04 87.1C840.68 87.3 840.4 87.6067 840.2 88.02C840 88.4333 839.9 88.96 839.9 89.6V95H836.78V89.32C836.78 88.4533 836.6 87.8133 836.24 87.4C835.894 86.9867 835.394 86.78 834.74 86.78C834.287 86.78 833.88 86.8867 833.52 87.1C833.16 87.3 832.88 87.6067 832.68 88.02C832.48 88.4333 832.38 88.96 832.38 89.6V95H829.26V84.24H832.24V87.18L831.68 86.32C832.054 85.5867 832.58 85.0333 833.26 84.66C833.954 84.2733 834.74 84.08 835.62 84.08C836.607 84.08 837.467 84.3333 838.2 84.84C838.947 85.3333 839.44 86.0933 839.68 87.12L838.58 86.82C838.94 85.98 839.514 85.3133 840.3 84.82C841.1 84.3267 842.014 84.08 843.04 84.08ZM856.597 95.16C855.65 95.16 854.837 94.96 854.157 94.56C853.477 94.16 852.957 93.5533 852.597 92.74C852.237 91.9133 852.057 90.8733 852.057 89.62C852.057 88.3533 852.244 87.3133 852.617 86.5C853.004 85.6867 853.537 85.08 854.217 84.68C854.897 84.28 855.69 84.08 856.597 84.08C857.61 84.08 858.517 84.3067 859.317 84.76C860.13 85.2133 860.77 85.8533 861.237 86.68C861.717 87.5067 861.957 88.4867 861.957 89.62C861.957 90.74 861.717 91.7133 861.237 92.54C860.77 93.3667 860.13 94.0133 859.317 94.48C858.517 94.9333 857.61 95.16 856.597 95.16ZM850.237 95V80.16H853.357V86.42L853.157 89.6L853.217 92.8V95H850.237ZM856.057 92.6C856.577 92.6 857.037 92.48 857.437 92.24C857.85 92 858.177 91.66 858.417 91.22C858.67 90.7667 858.797 90.2333 858.797 89.62C858.797 88.9933 858.67 88.46 858.417 88.02C858.177 87.58 857.85 87.24 857.437 87C857.037 86.76 856.577 86.64 856.057 86.64C855.537 86.64 855.07 86.76 854.657 87C854.244 87.24 853.917 87.58 853.677 88.02C853.437 88.46 853.317 88.9933 853.317 89.62C853.317 90.2333 853.437 90.7667 853.677 91.22C853.917 91.66 854.244 92 854.657 92.24C855.07 92.48 855.537 92.6 856.057 92.6ZM869.385 95.16C868.159 95.16 867.079 94.92 866.145 94.44C865.225 93.96 864.512 93.3067 864.005 92.48C863.499 91.64 863.245 90.6867 863.245 89.62C863.245 88.54 863.492 87.5867 863.985 86.76C864.492 85.92 865.179 85.2667 866.045 84.8C866.912 84.32 867.892 84.08 868.985 84.08C870.039 84.08 870.985 84.3067 871.825 84.76C872.679 85.2 873.352 85.84 873.845 86.68C874.339 87.5067 874.585 88.5 874.585 89.66C874.585 89.78 874.579 89.92 874.565 90.08C874.552 90.2267 874.539 90.3667 874.525 90.5H865.785V88.68H872.885L871.685 89.22C871.685 88.66 871.572 88.1733 871.345 87.76C871.119 87.3467 870.805 87.0267 870.405 86.8C870.005 86.56 869.539 86.44 869.005 86.44C868.472 86.44 867.999 86.56 867.585 86.8C867.185 87.0267 866.872 87.3533 866.645 87.78C866.419 88.1933 866.305 88.6867 866.305 89.26V89.74C866.305 90.3267 866.432 90.8467 866.685 91.3C866.952 91.74 867.319 92.08 867.785 92.32C868.265 92.5467 868.825 92.66 869.465 92.66C870.039 92.66 870.539 92.5733 870.965 92.4C871.405 92.2267 871.805 91.9667 872.165 91.62L873.825 93.42C873.332 93.98 872.712 94.4133 871.965 94.72C871.219 95.0133 870.359 95.16 869.385 95.16ZM876.663 95V84.24H879.643V87.28L879.223 86.4C879.543 85.64 880.056 85.0667 880.763 84.68C881.469 84.28 882.329 84.08 883.343 84.08V86.96C883.209 86.9467 883.089 86.94 882.983 86.94C882.876 86.9267 882.763 86.92 882.643 86.92C881.789 86.92 881.096 87.1667 880.563 87.66C880.043 88.14 879.783 88.8933 879.783 89.92V95H876.663ZM890.16 95V92.9L895.56 87.8C895.987 87.4133 896.3 87.0667 896.5 86.76C896.7 86.4533 896.833 86.1733 896.9 85.92C896.98 85.6667 897.02 85.4333 897.02 85.22C897.02 84.66 896.827 84.2333 896.44 83.94C896.067 83.6333 895.513 83.48 894.78 83.48C894.193 83.48 893.647 83.5933 893.14 83.82C892.647 84.0467 892.227 84.4 891.88 84.88L889.52 83.36C890.053 82.56 890.8 81.9267 891.76 81.46C892.72 80.9933 893.827 80.76 895.08 80.76C896.12 80.76 897.027 80.9333 897.8 81.28C898.587 81.6133 899.193 82.0867 899.62 82.7C900.06 83.3133 900.28 84.0467 900.28 84.9C900.28 85.3533 900.22 85.8067 900.1 86.26C899.993 86.7 899.767 87.1667 899.42 87.66C899.087 88.1533 898.593 88.7067 897.94 89.32L893.46 93.54L892.84 92.36H900.74V95H890.16ZM908.077 95.24C906.93 95.24 905.904 94.96 904.997 94.4C904.09 93.8267 903.377 93 902.857 91.92C902.337 90.84 902.077 89.5333 902.077 88C902.077 86.4667 902.337 85.16 902.857 84.08C903.377 83 904.09 82.18 904.997 81.62C905.904 81.0467 906.93 80.76 908.077 80.76C909.237 80.76 910.264 81.0467 911.157 81.62C912.064 82.18 912.777 83 913.297 84.08C913.817 85.16 914.077 86.4667 914.077 88C914.077 89.5333 913.817 90.84 913.297 91.92C912.777 93 912.064 93.8267 911.157 94.4C910.264 94.96 909.237 95.24 908.077 95.24ZM908.077 92.5C908.624 92.5 909.097 92.3467 909.497 92.04C909.91 91.7333 910.23 91.2467 910.457 90.58C910.697 89.9133 910.817 89.0533 910.817 88C910.817 86.9467 910.697 86.0867 910.457 85.42C910.23 84.7533 909.91 84.2667 909.497 83.96C909.097 83.6533 908.624 83.5 908.077 83.5C907.544 83.5 907.07 83.6533 906.657 83.96C906.257 84.2667 905.937 84.7533 905.697 85.42C905.47 86.0867 905.357 86.9467 905.357 88C905.357 89.0533 905.47 89.9133 905.697 90.58C905.937 91.2467 906.257 91.7333 906.657 92.04C907.07 92.3467 907.544 92.5 908.077 92.5ZM915.453 95V92.9L920.853 87.8C921.28 87.4133 921.593 87.0667 921.793 86.76C921.993 86.4533 922.126 86.1733 922.193 85.92C922.273 85.6667 922.313 85.4333 922.313 85.22C922.313 84.66 922.12 84.2333 921.733 83.94C921.36 83.6333 920.806 83.48 920.073 83.48C919.486 83.48 918.94 83.5933 918.433 83.82C917.94 84.0467 917.52 84.4 917.173 84.88L914.813 83.36C915.346 82.56 916.093 81.9267 917.053 81.46C918.013 80.9933 919.12 80.76 920.373 80.76C921.413 80.76 922.32 80.9333 923.093 81.28C923.88 81.6133 924.486 82.0867 924.913 82.7C925.353 83.3133 925.573 84.0467 925.573 84.9C925.573 85.3533 925.513 85.8067 925.393 86.26C925.286 86.7 925.06 87.1667 924.713 87.66C924.38 88.1533 923.886 88.7067 923.233 89.32L918.753 93.54L918.133 92.36H926.033V95H915.453ZM927.25 95V92.9L932.65 87.8C933.077 87.4133 933.39 87.0667 933.59 86.76C933.79 86.4533 933.923 86.1733 933.99 85.92C934.07 85.6667 934.11 85.4333 934.11 85.22C934.11 84.66 933.917 84.2333 933.53 83.94C933.157 83.6333 932.603 83.48 931.87 83.48C931.283 83.48 930.737 83.5933 930.23 83.82C929.737 84.0467 929.317 84.4 928.97 84.88L926.61 83.36C927.143 82.56 927.89 81.9267 928.85 81.46C929.81 80.9933 930.917 80.76 932.17 80.76C933.21 80.76 934.117 80.9333 934.89 81.28C935.677 81.6133 936.283 82.0867 936.71 82.7C937.15 83.3133 937.37 84.0467 937.37 84.9C937.37 85.3533 937.31 85.8067 937.19 86.26C937.083 86.7 936.857 87.1667 936.51 87.66C936.177 88.1533 935.683 88.7067 935.03 89.32L930.55 93.54L929.93 92.36H937.83V95H927.25Z" fill="#EEEEEE"/>
<rect x="724" width="226" height="53" fill="#4A8068"/>
<path d="M773.384 37V21.096H767.112V17.4H784.192V21.096H777.92V37H773.384ZM790.805 25.296H800.241V28.824H790.805V25.296ZM791.141 33.36H801.809V37H786.633V17.4H801.445V21.04H791.141V33.36ZM805.418 37V17.4H813.902C815.656 17.4 817.168 17.6893 818.438 18.268C819.707 18.828 820.687 19.64 821.378 20.704C822.068 21.768 822.414 23.0373 822.414 24.512C822.414 25.968 822.068 27.228 821.378 28.292C820.687 29.3373 819.707 30.14 818.438 30.7C817.168 31.26 815.656 31.54 813.902 31.54H807.938L809.954 29.552V37H805.418ZM817.878 37L812.978 29.888H817.822L822.778 37H817.878ZM809.954 30.056L807.938 27.928H813.65C815.05 27.928 816.095 27.6293 816.786 27.032C817.476 26.416 817.822 25.576 817.822 24.512C817.822 23.4293 817.476 22.5893 816.786 21.992C816.095 21.3947 815.05 21.096 813.65 21.096H807.938L809.954 18.94V30.056ZM832.448 37.336C830.88 37.336 829.377 37.1307 827.94 36.72C826.502 36.2907 825.345 35.74 824.468 35.068L826.008 31.652C826.848 32.2493 827.837 32.744 828.976 33.136C830.133 33.5093 831.3 33.696 832.476 33.696C833.372 33.696 834.09 33.612 834.632 33.444C835.192 33.2573 835.602 33.0053 835.864 32.688C836.125 32.3707 836.256 32.0067 836.256 31.596C836.256 31.0733 836.05 30.6627 835.64 30.364C835.229 30.0467 834.688 29.7947 834.016 29.608C833.344 29.4027 832.597 29.216 831.776 29.048C830.973 28.8613 830.161 28.6373 829.34 28.376C828.537 28.1147 827.8 27.7787 827.128 27.368C826.456 26.9573 825.905 26.416 825.476 25.744C825.065 25.072 824.86 24.2133 824.86 23.168C824.86 22.048 825.158 21.0307 825.756 20.116C826.372 19.1827 827.286 18.4453 828.5 17.904C829.732 17.344 831.272 17.064 833.12 17.064C834.352 17.064 835.565 17.2133 836.76 17.512C837.954 17.792 839.009 18.2213 839.924 18.8L838.524 22.244C837.609 21.7213 836.694 21.3387 835.78 21.096C834.865 20.8347 833.969 20.704 833.092 20.704C832.214 20.704 831.496 20.8067 830.936 21.012C830.376 21.2173 829.974 21.488 829.732 21.824C829.489 22.1413 829.368 22.5147 829.368 22.944C829.368 23.448 829.573 23.8587 829.984 24.176C830.394 24.4747 830.936 24.7173 831.608 24.904C832.28 25.0907 833.017 25.2773 833.82 25.464C834.641 25.6507 835.453 25.8653 836.256 26.108C837.077 26.3507 837.824 26.6773 838.496 27.088C839.168 27.4987 839.709 28.04 840.12 28.712C840.549 29.384 840.764 30.2333 840.764 31.26C840.764 32.3613 840.456 33.3693 839.84 34.284C839.224 35.1987 838.3 35.936 837.068 36.496C835.854 37.056 834.314 37.336 832.448 37.336ZM848.035 25.296H857.471V28.824H848.035V25.296ZM848.371 33.36H859.039V37H843.863V17.4H858.675V21.04H848.371V33.36ZM862.648 37V17.4H871.552C873.68 17.4 875.556 17.8107 877.18 18.632C878.804 19.4347 880.074 20.564 880.988 22.02C881.903 23.476 882.36 25.2027 882.36 27.2C882.36 29.1787 881.903 30.9053 880.988 32.38C880.074 33.836 878.804 34.9747 877.18 35.796C875.556 36.5987 873.68 37 871.552 37H862.648ZM867.184 33.276H871.328C872.635 33.276 873.764 33.0333 874.716 32.548C875.687 32.044 876.434 31.3347 876.956 30.42C877.498 29.5053 877.768 28.432 877.768 27.2C877.768 25.9493 877.498 24.876 876.956 23.98C876.434 23.0653 875.687 22.3653 874.716 21.88C873.764 21.376 872.635 21.124 871.328 21.124H867.184V33.276ZM885.781 37V17.4H890.317V37H885.781ZM892.393 37L901.129 17.4H905.609L914.373 37H909.613L902.445 19.696H904.237L897.041 37H892.393ZM896.761 32.8L897.965 29.356H908.045L909.277 32.8H896.761Z" fill="#EEEEEE"/>
<g opacity="0.75">
<path d="M446.048 73.8592L446.121 75.5081L444.566 77.332L443 78.7438C440.176 81.2906 437.049 86.9007 437.049 89.4207C437.049 90.6926 436.815 91.258 436.287 91.258C435.868 91.258 434.694 91.7228 433.679 92.2908C431.525 93.496 430.828 93.5828 430.828 92.6466C430.828 92.2738 430.419 91.5049 429.921 90.9379C428.711 89.5622 427.199 86.7055 427.199 85.7941C427.199 85.3913 427.021 85.0613 426.803 85.0613C426.586 85.0613 426.178 84.6064 425.896 84.0502C425.615 83.4941 424.393 81.1326 423.181 78.8021C420.862 74.3421 420.512 72.6633 421.698 71.6832C422.232 71.2416 422.306 70.5957 421.985 69.1807C421.196 65.693 418.749 64.9975 416.201 67.536C415.014 68.7181 414.762 69.2649 415.204 69.7049C415.528 70.0281 415.794 71.0594 415.794 71.9966C415.794 72.9339 416.027 73.7007 416.312 73.7007C416.597 73.7007 416.831 74.2817 416.831 74.9917C416.831 75.7952 417.125 76.2827 417.608 76.2827C418.036 76.2827 418.386 76.6116 418.386 77.0144C418.386 77.4167 418.561 77.8231 418.775 77.9181C419.308 78.1535 420.978 81.8215 420.978 82.7551C420.978 83.1713 421.156 83.5122 421.374 83.5122C421.779 83.5122 423.57 87.2704 423.57 88.1204C423.57 88.3786 423.745 88.6673 423.959 88.7623C424.173 88.8568 424.748 89.7971 425.237 90.8516C426.077 92.6605 426.077 92.8185 425.24 93.652C424.579 94.3099 424.352 95.4227 424.35 98.017C424.349 99.9323 424.173 101.674 423.959 101.887C423.248 102.595 423.58 104.925 424.575 106.215C425.54 107.466 425.539 107.511 424.51 108.95C423.6 110.224 423.547 110.612 424.104 111.951C424.658 113.283 424.613 113.643 423.768 114.638C423.232 115.27 422.652 115.903 422.481 116.045C422.31 116.187 422.037 116.652 421.874 117.078L712.639 117.551C712.505 117.149 712.29 110.661 712.161 103.135C712.032 95.6086 711.686 88.7535 711.393 87.9015C711.1 87.0494 710.455 85.0742 709.96 83.5122C709.466 81.9501 708.688 80.3214 708.233 79.8933C706.864 78.6064 704.641 77.3155 703.794 77.3155C703.356 77.3155 702.998 77.1089 702.998 76.8564C702.998 76.6044 702.182 76.245 701.184 76.0586C700.186 75.8722 699.369 75.4977 699.369 75.2266C699.369 74.9555 699.116 74.7335 698.806 74.7335C697.407 74.7335 693.523 71.2654 692.558 69.1534C691.538 66.9246 691.592 64.2699 692.67 63.6063C692.933 63.4447 693.148 62.7414 693.148 62.0442C693.148 61.3471 693.437 60.3153 693.792 59.7509C694.304 58.933 694.302 58.5142 693.78 57.6807C693.285 56.8922 693.267 56.3711 693.705 55.5563C695.019 53.1101 693.153 48.4869 690.229 46.9444C684.448 43.8941 680.212 44.4033 675.791 48.68L673.855 50.553L674.195 54.2519C674.382 56.2865 674.522 58.9386 674.505 60.1454C674.489 61.3522 674.711 62.3401 674.999 62.3401C675.287 62.3401 675.522 62.8818 675.522 63.5438C675.522 64.2879 676 65.0026 676.774 65.4152C678.336 66.2476 678.629 67.329 678.26 70.891C678.065 72.7738 677.736 73.7007 677.264 73.7007C676.876 73.7007 676.559 73.9088 676.559 74.1629C676.559 74.4169 674.576 75.6031 672.152 76.7991C669.729 77.995 667.746 79.1812 667.746 79.4352C667.746 79.6893 667.435 79.8974 667.056 79.8974C666.403 79.8974 666.036 80.4706 664.743 83.5122C664.442 84.2222 664.051 87.54 663.875 90.8852C663.698 94.2298 663.346 97.4831 663.091 98.1147L662.627 99.2621L662.594 98.111C662.561 96.9517 660.471 90.3688 659.307 87.7585C658.963 86.9849 658.253 85.8876 657.73 85.3195C657.207 84.7515 656.425 83.695 655.992 82.972C655.559 82.2491 654.411 81.1156 653.44 80.4525C652.469 79.79 651.675 79.0454 651.675 78.798C651.675 78.5507 651.266 78.3488 650.767 78.3498C650.269 78.3503 648.927 77.9057 647.786 77.3609C646.646 76.8161 645.051 76.1143 644.241 75.8009L642.77 75.2308L643.853 73.4033C644.646 72.0648 644.935 70.6948 644.935 68.2796C644.935 66.4666 645.162 64.8431 645.44 64.6727C646.371 64.0989 646.986 60.6076 646.516 58.5575C646.03 56.4347 645.191 55.5759 642.343 54.2829C641.345 53.8295 639.68 53.0172 638.644 52.4776C636.451 51.3358 635.175 51.2537 633.165 52.1238C631.511 52.8401 626.292 58.1377 626.28 59.1127C626.276 59.4679 626.039 59.7581 625.754 59.7581C625.468 59.7581 625.236 60.8617 625.236 62.211C625.236 64.0819 625.544 65.0197 626.532 66.1645C627.245 66.9897 627.832 68.0354 627.839 68.4883C627.845 68.9406 628.306 69.8923 628.864 70.6024C629.422 71.3124 629.875 72.2419 629.87 72.6679C629.861 73.7441 626.364 76.2827 624.893 76.2827C624.226 76.2827 623.68 76.515 623.68 76.7991C623.68 77.0831 623.205 77.3155 622.625 77.3155C621.587 77.3155 619.413 78.4825 618.07 79.7616C617.693 80.1205 617.227 80.4148 617.033 80.4164C616.839 80.4174 615.936 81.1145 615.024 81.9656C613.105 83.7579 612.275 83.9222 612.275 82.5098C612.275 81.9583 612.074 81.3841 611.828 81.2328C611.583 81.0815 611.224 79.3831 611.032 77.4585C610.571 72.8451 610.573 73.2623 610.995 70.5223C611.32 68.4098 611.201 67.9027 610.006 66.3421C608.983 65.0062 608.646 63.9636 608.646 62.132C608.646 60.6401 608.445 59.8206 608.127 60.0164C607.842 60.1919 607.609 61.0001 607.609 61.8118C607.609 63.5991 607.144 64.9221 606.517 64.9221C606.262 64.9221 606.054 64.5735 606.054 64.1475C606.054 63.7215 605.82 63.3729 605.535 63.3729C605.25 63.3729 605.017 62.9081 605.017 62.3401C605.017 61.3388 604.468 60.9939 603.851 61.6079C603.686 61.7726 603.88 62.6949 604.283 63.6564C604.687 64.6184 605.017 66.6716 605.017 68.2192C605.017 69.8386 605.264 71.1146 605.598 71.2257C606.265 71.4472 606.563 83.1626 605.918 83.8132C605.702 84.0322 605.06 83.7156 604.493 83.1088C603.725 82.2883 603.462 81.2875 603.462 79.1977C603.462 76.6514 603.298 76.246 601.7 74.8492C600.001 73.363 599.926 73.1384 599.577 68.4697C598.994 60.6825 598.967 59.1968 599.403 58.9283C599.63 58.7889 599.768 56.1166 599.71 52.9893C599.598 47.0043 599.192 46.5778 597.65 50.8261C596.843 53.0502 596.305 52.9831 596.105 50.632C596.017 49.5889 595.642 48.6366 595.273 48.5158C594.734 48.3392 594.657 49.9003 594.883 56.398C595.038 60.8545 595.299 64.7171 595.463 64.9814C595.627 65.2458 595.46 67.0837 595.092 69.0651C594.454 72.5022 594.357 72.6679 592.981 72.6679C591.393 72.6679 591.133 71.9042 592.286 70.6344C593.035 69.8107 593.301 67.8975 593.165 64.3034C593.091 62.3406 591.853 60.6278 589.599 59.3709C588.214 58.5983 584.99 58.5162 584.539 59.2418C584.363 59.5258 583.862 59.7581 583.425 59.7581C581.757 59.7581 580.686 61.927 580.668 65.3419L580.651 68.6024L578.97 68.4402C576.769 68.2285 576.597 67.1219 578.336 64.3768C579.277 62.8932 579.625 61.7778 579.438 60.8529C578.427 55.8728 577.981 54.3149 577.523 54.161C577.238 54.0644 576.63 53.6131 576.173 53.1576C574.382 51.3745 567.744 52.5628 566.801 54.8354C565.653 57.6022 567.172 65.9548 568.823 65.9548C569.514 65.9548 569.305 67.0026 568.443 67.8608C567.856 68.4459 567.089 68.5729 565.585 68.3333C564.055 68.0896 563.003 68.2745 561.463 69.0563C559.73 69.9373 559.396 69.9801 559.396 69.3217C559.396 68.89 559.617 68.5368 559.888 68.5368C560.159 68.5368 560.349 66.8797 560.311 64.8508C560.257 61.9043 560.027 60.9324 559.172 60.0081C558.582 59.3714 557.681 58.2415 557.168 57.4974C556.427 56.4197 555.817 56.1434 554.181 56.1434C551.969 56.1434 550.594 56.7404 548.439 58.6366L547.072 59.8387L547.335 57.3456C547.479 55.9746 548.013 53.6487 548.52 52.1775C549.259 50.0335 549.298 49.5574 548.717 49.7799C548.317 49.9323 547.99 50.2065 547.99 50.3893C547.99 50.5721 547.406 51.3962 546.694 52.2219L545.399 53.7221V52.3815C545.399 51.6436 545.165 50.8969 544.88 50.7213C544.595 50.5457 544.362 49.9374 544.362 49.3694C544.362 48.8014 544.129 48.4802 543.843 48.6557C543.558 48.8313 543.325 49.5284 543.325 50.2049C543.325 50.8814 543.558 51.5785 543.843 51.7541C544.736 52.3035 544.41 53.4282 543.273 53.7246C542.283 53.9823 542.213 54.2591 542.511 56.7543C542.691 58.2642 542.969 62.0561 543.128 65.1803L543.419 70.8606L542.205 69.7601C540.561 68.2688 537.551 67.6915 534.792 68.339C533.163 68.7206 532.638 69.0661 530.57 71.1188C529.19 72.4887 529.212 72.0669 530.158 79.1228C530.329 80.4009 530.311 81.4466 530.118 81.4466C529.68 81.4466 526.736 78.5434 526.736 78.1122C526.736 77.9387 526.094 77.1342 525.31 76.324C524.526 75.5138 523.508 74.3018 523.049 73.6305C521.845 71.8727 517.89 70.7929 515.807 71.6527C514.473 72.2027 514.101 72.1815 513.435 71.5174C512.726 70.812 512.784 70.5099 513.987 68.6112C514.726 67.4452 515.33 66.2383 515.33 65.928C515.33 65.6182 515.68 65.016 516.108 64.59C516.693 64.0075 516.886 62.5678 516.886 58.7853C516.886 53.9477 516.83 53.7014 515.431 52.3671C514.632 51.6038 513.699 50.9795 513.358 50.9795C513.017 50.9795 512.738 50.7471 512.738 50.4631C512.738 49.766 508.424 49.8027 507.719 50.5055C507.317 50.9062 506.846 50.8705 506.056 50.3789C505.099 49.7835 504.65 49.8548 502.625 50.9248C501.344 51.6018 500.296 52.4362 500.296 52.7791C500.296 53.122 499.928 54.1393 499.477 55.0388C498.725 56.539 498.732 57.0177 499.552 60.7987C500.044 63.0667 500.627 64.9221 500.848 64.9221C501.07 64.9221 501.403 65.6166 501.591 66.4656C501.778 67.314 502.146 68.1413 502.41 68.3034C503.156 68.763 502.976 71.1188 502.194 71.1188C501.405 71.1188 500.296 73.2458 500.296 74.7578C500.296 75.3124 500.063 75.7663 499.778 75.7663C498.95 75.7663 495.112 79.6996 495.112 80.5486C495.112 81.933 493.775 82.6245 492.56 81.8685C491.78 81.3831 491.483 80.6632 491.483 79.2566C491.483 78.1892 491.25 77.3155 490.965 77.3155C490.679 77.3155 490.44 76.3276 490.434 75.1208C490.427 73.914 490.178 71.9966 489.881 70.8606C489.584 69.7245 489.164 67.9817 488.947 66.9876C488.182 63.4695 486.82 61.6874 484.001 60.5141C480.284 58.967 476.796 59.6977 474.189 62.5694C473.24 63.6146 470.228 69.6889 470.228 70.5564C470.228 70.8007 469.879 71.6661 469.453 72.48C469.028 73.2933 468.678 74.4815 468.676 75.1208C468.674 75.7601 468.439 76.2827 468.154 76.2827C467.869 76.2827 467.636 77.5494 467.636 79.097C467.636 81.2276 467.853 82.0332 468.532 82.4112C469.375 82.8806 469.369 82.9761 468.452 83.9862C467.337 85.2131 465.044 85.4434 465.044 84.3286C465.044 82.9364 463.22 80.151 460.737 77.7497C459.264 76.3255 458.036 74.5827 457.732 73.4874C457.45 72.4686 456.996 71.6352 456.725 71.6352C455.869 71.6352 456.184 70.5027 457.527 68.749C458.24 67.818 458.823 66.3638 458.823 65.5159C458.823 64.6685 459.097 63.8841 459.432 63.7731C459.809 63.6481 460.055 62.2973 460.08 60.2245C460.116 57.0993 460.006 56.7677 458.416 55.2196C457.479 54.3076 456.268 53.5615 455.725 53.5615C455.181 53.5615 454.592 53.3291 454.416 53.0451C453.862 52.1527 449.096 52.4362 447.898 53.4324C443.902 56.7564 444.242 55.9622 443.928 62.7289C443.657 68.591 443.708 69.0387 444.808 70.5781C445.45 71.4761 446.008 72.9525 446.048 73.8592Z" fill="black"/>
<path d="M325.264 70.8918C326.548 65.1246 327.238 64.0585 330.124 63.3823C335.447 62.1357 340.083 64.2855 342.642 69.1877C343.535 70.8967 343.694 71.6687 343.689 74.2565C343.686 76.0553 343.392 78.3279 342.974 79.7894C342.584 81.1535 342.189 82.9847 342.096 83.8589C341.95 85.2414 342.058 85.5329 342.923 86.0949C344.51 87.1271 344.875 86.6597 345.411 82.908C346.118 77.9502 346.952 76.541 350.408 74.461C354.198 72.1796 355.992 72.1384 360.009 74.2413C363.32 75.9744 364.504 77.353 365.117 80.1866C365.449 81.7244 365.9 82.5642 366.86 83.4369C368.285 84.7327 368.436 85.4608 367.591 86.9806C367.282 87.5377 366.75 89.0235 366.41 90.2827C366.07 91.5419 365.516 93.5754 365.18 94.8014C364.468 97.3988 364.805 98.9907 366.107 99.1762C366.585 99.2445 367.974 98.6057 369.425 97.6499C370.799 96.7459 372.649 95.5771 373.537 95.0525C374.5 94.4835 375.552 93.4052 376.142 92.3814C376.687 91.437 377.622 90.1717 378.22 89.5696C379.511 88.2707 379.501 88.4016 378.581 85.1906C377.145 80.1782 376.882 77.7811 377.372 74.1665C378.066 69.0469 378.506 67.7232 380.118 65.9061C381.827 63.9803 383.668 63 385.576 63C387.436 63 391.895 64.3962 393.656 65.5299C396.341 67.2592 397.666 70.1271 398.366 75.7256L398.598 77.5766L400.011 77.3328C403.872 76.6666 404.36 76.678 407.085 77.4992C413.961 79.5711 416.144 82.1361 416.523 88.5866C416.741 92.3051 416.134 94.9624 414.28 98.4092C412.845 101.078 412.762 103.33 414.056 104.536C414.551 104.998 416.325 105.898 417.998 106.538C419.67 107.176 421.558 108.084 422.193 108.555C423.942 109.851 427.016 111.46 427.745 111.46C428.101 111.46 428.728 111.208 429.139 110.9C430.196 110.107 431.913 110.211 433.924 111.19C436.09 112.245 436.999 114.085 437 117H277C277 117 278.057 113.171 279.367 111.963C282.082 109.457 286.217 109.845 289.452 112.91C290.272 113.686 291.01 114.143 291.092 113.925C291.824 111.979 292.758 110.877 293.774 110.761C295.134 110.605 296.909 109.339 299.7 106.534C302.455 103.767 303.539 102.218 303.539 101.047C303.539 100.491 302.836 99.2544 301.836 98.0486C298.459 93.9798 297.404 88.4512 299.3 84.764C300.2 83.0137 302.679 80.7624 304.588 79.9603C311.872 76.9005 321.798 80.7487 323.138 87.1519C323.381 88.3169 323.825 89.4711 324.124 89.7173C324.87 90.3316 326.57 89.7256 327.475 88.5225C328.183 87.5827 328.177 87.5468 326.851 84.7308C325.018 80.8364 324.349 75.0036 325.264 70.8918Z" fill="black"/>
</g>
<defs>
<linearGradient id="paint0_linear_1110_26" x1="714" y1="78" x2="55" y2="78" gradientUnits="userSpaceOnUse">
<stop stop-color="#4A8068"/>
<stop offset="1" stop-color="#4A8068" stop-opacity="0"/>
</linearGradient>
</defs>
</svg>
