<svg width="1000" height="119" viewBox="0 0 1000 119" fill="none" xmlns="http://www.w3.org/2000/svg">
<rect width="659" height="117" transform="matrix(1 0 0 -1 55 117.5)" fill="#EEEEEE"/>
<rect x="55" y="0.5" width="659" height="117" fill="url(#paint0_linear_1110_70)"/>
<path d="M0 0.5L0 117.5H41.6667L41.6667 0.5L0 0.5Z" fill="#171717"/>
<path d="M724 53.5V0.5L825 0.5V53.5L724 53.5Z" fill="#171717"/>
<path d="M999.666 0.500977V117.5H957.999V0.500977L999.666 0.500977Z" fill="#171717"/>
<path d="M833 0.5V53.54L949.667 53.54V0.5L833 0.5Z" fill="#171717"/>
<path d="M724 59.5V117.5L950 117.5V59.5L724 59.5Z" fill="#171717"/>
<path d="M83.008 53.5V31.1H92.224C94.208 31.1 95.904 31.42 97.312 32.06C98.7413 32.7 99.84 33.6173 100.608 34.812C101.376 36.0067 101.76 37.4253 101.76 39.068C101.76 40.7107 101.376 42.1293 100.608 43.324C99.84 44.4973 98.7413 45.404 97.312 46.044C95.904 46.6627 94.208 46.972 92.224 46.972H85.312L87.168 45.084V53.5H83.008ZM97.664 53.5L92 45.372H96.448L102.144 53.5H97.664ZM87.168 45.532L85.312 43.548H92.032C93.8667 43.548 95.2427 43.1533 96.16 42.364C97.0987 41.5747 97.568 40.476 97.568 39.068C97.568 37.6387 97.0987 36.54 96.16 35.772C95.2427 35.004 93.8667 34.62 92.032 34.62H85.312L87.168 32.572V45.532ZM114.062 53.724C112.164 53.724 110.5 53.3507 109.07 52.604C107.662 51.836 106.564 50.7907 105.774 49.468C105.006 48.1453 104.622 46.6413 104.622 44.956C104.622 43.2493 104.996 41.7453 105.742 40.444C106.51 39.1213 107.556 38.0867 108.878 37.34C110.222 36.5933 111.748 36.22 113.454 36.22C115.118 36.22 116.601 36.5827 117.902 37.308C119.204 38.0333 120.228 39.0573 120.974 40.38C121.721 41.7027 122.094 43.26 122.094 45.052C122.094 45.2227 122.084 45.4147 122.062 45.628C122.062 45.8413 122.052 46.044 122.03 46.236H107.79V43.58H119.918L118.35 44.412C118.372 43.4307 118.169 42.5667 117.742 41.82C117.316 41.0733 116.729 40.4867 115.982 40.06C115.257 39.6333 114.414 39.42 113.454 39.42C112.473 39.42 111.609 39.6333 110.862 40.06C110.137 40.4867 109.561 41.084 109.134 41.852C108.729 42.5987 108.526 43.484 108.526 44.508V45.148C108.526 46.172 108.761 47.0787 109.23 47.868C109.7 48.6573 110.361 49.2653 111.214 49.692C112.068 50.1187 113.049 50.332 114.158 50.332C115.118 50.332 115.982 50.1827 116.75 49.884C117.518 49.5853 118.201 49.116 118.798 48.476L120.942 50.94C120.174 51.836 119.204 52.5293 118.03 53.02C116.878 53.4893 115.556 53.724 114.062 53.724ZM133.681 59.932C132.102 59.932 130.555 59.7187 129.041 59.292C127.547 58.8867 126.321 58.2893 125.361 57.5L127.153 54.492C127.899 55.1107 128.838 55.6013 129.969 55.964C131.121 56.348 132.283 56.54 133.457 56.54C135.334 56.54 136.71 56.1027 137.585 55.228C138.459 54.3747 138.897 53.084 138.897 51.356V48.316L139.217 44.444L139.089 40.572V36.412H142.897V50.908C142.897 54.0013 142.107 56.2733 140.529 57.724C138.95 59.196 136.667 59.932 133.681 59.932ZM133.169 52.732C131.547 52.732 130.075 52.3907 128.753 51.708C127.451 51.004 126.417 50.0333 125.649 48.796C124.902 47.5587 124.529 46.108 124.529 44.444C124.529 42.8013 124.902 41.3613 125.649 40.124C126.417 38.8867 127.451 37.9267 128.753 37.244C130.075 36.5613 131.547 36.22 133.169 36.22C134.619 36.22 135.921 36.508 137.073 37.084C138.225 37.66 139.142 38.556 139.825 39.772C140.529 40.988 140.881 42.5453 140.881 44.444C140.881 46.3427 140.529 47.9107 139.825 49.148C139.142 50.364 138.225 51.2707 137.073 51.868C135.921 52.444 134.619 52.732 133.169 52.732ZM133.777 49.34C134.779 49.34 135.675 49.1373 136.465 48.732C137.254 48.3053 137.862 47.7293 138.289 47.004C138.737 46.2573 138.961 45.404 138.961 44.444C138.961 43.484 138.737 42.6413 138.289 41.916C137.862 41.1693 137.254 40.604 136.465 40.22C135.675 39.8147 134.779 39.612 133.777 39.612C132.774 39.612 131.867 39.8147 131.057 40.22C130.267 40.604 129.649 41.1693 129.201 41.916C128.774 42.6413 128.561 43.484 128.561 44.444C128.561 45.404 128.774 46.2573 129.201 47.004C129.649 47.7293 130.267 48.3053 131.057 48.732C131.867 49.1373 132.774 49.34 133.777 49.34ZM155.387 53.724C153.937 53.724 152.657 53.4573 151.547 52.924C150.438 52.3693 149.574 51.5373 148.955 50.428C148.337 49.2973 148.027 47.8787 148.027 46.172V36.412H152.027V45.628C152.027 47.164 152.369 48.316 153.051 49.084C153.755 49.8307 154.747 50.204 156.027 50.204C156.966 50.204 157.777 50.012 158.459 49.628C159.163 49.244 159.707 48.668 160.091 47.9C160.497 47.132 160.699 46.1827 160.699 45.052V36.412H164.699V53.5H160.891V48.892L161.563 50.3C160.987 51.4093 160.145 52.2627 159.035 52.86C157.926 53.436 156.71 53.724 155.387 53.724ZM169.937 53.5V29.756H173.937V53.5H169.937ZM189.715 53.5V50.044L189.491 49.308V43.26C189.491 42.0867 189.139 41.18 188.435 40.54C187.731 39.8787 186.664 39.548 185.235 39.548C184.275 39.548 183.325 39.6973 182.387 39.996C181.469 40.2947 180.691 40.7107 180.051 41.244L178.483 38.332C179.4 37.628 180.488 37.1053 181.747 36.764C183.027 36.4013 184.349 36.22 185.715 36.22C188.189 36.22 190.099 36.8173 191.443 38.012C192.808 39.1853 193.491 41.0093 193.491 43.484V53.5H189.715ZM184.339 53.724C183.059 53.724 181.939 53.5107 180.979 53.084C180.019 52.636 179.272 52.028 178.739 51.26C178.227 50.4707 177.971 49.5853 177.971 48.604C177.971 47.644 178.195 46.78 178.643 46.012C179.112 45.244 179.869 44.636 180.915 44.188C181.96 43.74 183.347 43.516 185.075 43.516H190.035V46.172H185.363C183.997 46.172 183.08 46.396 182.611 46.844C182.141 47.2707 181.907 47.804 181.907 48.444C181.907 49.1693 182.195 49.7453 182.771 50.172C183.347 50.5987 184.147 50.812 185.171 50.812C186.152 50.812 187.027 50.588 187.795 50.14C188.584 49.692 189.149 49.0307 189.491 48.156L190.163 50.556C189.779 51.5587 189.085 52.3373 188.083 52.892C187.101 53.4467 185.853 53.724 184.339 53.724ZM198.624 53.5V36.412H202.432V41.116L201.984 39.74C202.496 38.588 203.296 37.7133 204.384 37.116C205.493 36.5187 206.869 36.22 208.512 36.22V40.028C208.341 39.9853 208.181 39.964 208.032 39.964C207.883 39.9427 207.733 39.932 207.584 39.932C206.069 39.932 204.864 40.38 203.968 41.276C203.072 42.1507 202.624 43.4627 202.624 45.212V53.5H198.624Z" fill="black"/>
<path d="M82.256 89.5V72.7H89.168C90.656 72.7 91.928 72.94 92.984 73.42C94.056 73.9 94.88 74.588 95.456 75.484C96.032 76.38 96.32 77.444 96.32 78.676C96.32 79.908 96.032 80.972 95.456 81.868C94.88 82.748 94.056 83.428 92.984 83.908C91.928 84.372 90.656 84.604 89.168 84.604H83.984L85.376 83.188V89.5H82.256ZM93.248 89.5L89 83.404H92.336L96.608 89.5H93.248ZM85.376 83.524L83.984 82.036H89.024C90.4 82.036 91.432 81.74 92.12 81.148C92.824 80.556 93.176 79.732 93.176 78.676C93.176 77.604 92.824 76.78 92.12 76.204C91.432 75.628 90.4 75.34 89.024 75.34H83.984L85.376 73.804V83.524ZM106.627 89.668C105.587 89.668 104.635 89.428 103.771 88.948C102.923 88.468 102.243 87.748 101.731 86.788C101.235 85.812 100.987 84.58 100.987 83.092C100.987 81.588 101.227 80.356 101.707 79.396C102.203 78.436 102.875 77.724 103.723 77.26C104.571 76.78 105.539 76.54 106.627 76.54C107.891 76.54 109.003 76.812 109.963 77.356C110.939 77.9 111.707 78.66 112.267 79.636C112.843 80.612 113.131 81.764 113.131 83.092C113.131 84.42 112.843 85.58 112.267 86.572C111.707 87.548 110.939 88.308 109.963 88.852C109.003 89.396 107.891 89.668 106.627 89.668ZM99.5227 94.156V76.684H102.379V79.708L102.283 83.116L102.523 86.524V94.156H99.5227ZM106.291 87.1C107.011 87.1 107.651 86.94 108.211 86.62C108.787 86.3 109.243 85.836 109.579 85.228C109.915 84.62 110.083 83.908 110.083 83.092C110.083 82.26 109.915 81.548 109.579 80.956C109.243 80.348 108.787 79.884 108.211 79.564C107.651 79.244 107.011 79.084 106.291 79.084C105.571 79.084 104.923 79.244 104.347 79.564C103.771 79.884 103.315 80.348 102.979 80.956C102.643 81.548 102.475 82.26 102.475 83.092C102.475 83.908 102.643 84.62 102.979 85.228C103.315 85.836 103.771 86.3 104.347 86.62C104.923 86.94 105.571 87.1 106.291 87.1ZM124.385 89.5V73.9L125.753 75.316H120.833V72.7H127.505V89.5H124.385ZM130.621 89.5V87.412L137.293 81.076C137.853 80.548 138.269 80.084 138.541 79.684C138.813 79.284 138.989 78.916 139.069 78.58C139.165 78.228 139.213 77.9 139.213 77.596C139.213 76.828 138.949 76.236 138.421 75.82C137.893 75.388 137.117 75.172 136.093 75.172C135.277 75.172 134.533 75.316 133.861 75.604C133.205 75.892 132.637 76.332 132.157 76.924L129.973 75.244C130.629 74.364 131.509 73.684 132.613 73.204C133.733 72.708 134.981 72.46 136.357 72.46C137.573 72.46 138.629 72.66 139.525 73.06C140.437 73.444 141.133 73.996 141.613 74.716C142.109 75.436 142.357 76.292 142.357 77.284C142.357 77.828 142.285 78.372 142.141 78.916C141.997 79.444 141.725 80.004 141.325 80.596C140.925 81.188 140.341 81.852 139.573 82.588L133.837 88.036L133.189 86.86H143.005V89.5H130.621ZM150.47 72.46C152.006 72.46 153.31 72.788 154.382 73.444C155.47 74.084 156.302 75.02 156.878 76.252C157.454 77.484 157.742 79.004 157.742 80.812C157.742 82.732 157.39 84.356 156.686 85.684C155.998 87.012 155.038 88.02 153.806 88.708C152.574 89.396 151.142 89.74 149.51 89.74C148.662 89.74 147.854 89.652 147.086 89.476C146.318 89.3 145.654 89.028 145.094 88.66L146.246 86.308C146.71 86.612 147.214 86.828 147.758 86.956C148.302 87.068 148.862 87.124 149.438 87.124C151.022 87.124 152.278 86.636 153.206 85.66C154.134 84.684 154.598 83.244 154.598 81.34C154.598 81.036 154.59 80.684 154.574 80.284C154.558 79.868 154.502 79.452 154.406 79.036L155.366 80.092C155.094 80.748 154.702 81.3 154.19 81.748C153.678 82.18 153.078 82.508 152.39 82.732C151.702 82.956 150.942 83.068 150.11 83.068C149.022 83.068 148.038 82.86 147.158 82.444C146.294 82.012 145.606 81.412 145.094 80.644C144.582 79.86 144.326 78.948 144.326 77.908C144.326 76.788 144.598 75.828 145.142 75.028C145.686 74.212 146.422 73.58 147.35 73.132C148.294 72.684 149.334 72.46 150.47 72.46ZM150.638 74.908C149.998 74.908 149.43 75.028 148.934 75.268C148.438 75.492 148.046 75.82 147.758 76.252C147.486 76.668 147.35 77.172 147.35 77.764C147.35 78.644 147.654 79.34 148.262 79.852C148.87 80.364 149.686 80.62 150.71 80.62C151.382 80.62 151.974 80.5 152.486 80.26C152.998 80.004 153.398 79.66 153.686 79.228C153.974 78.78 154.118 78.284 154.118 77.74C154.118 77.212 153.982 76.74 153.71 76.324C153.438 75.892 153.046 75.548 152.534 75.292C152.022 75.036 151.39 74.908 150.638 74.908ZM161.444 89.668C160.9 89.668 160.436 89.484 160.052 89.116C159.668 88.732 159.476 88.252 159.476 87.676C159.476 87.068 159.668 86.588 160.052 86.236C160.436 85.868 160.9 85.684 161.444 85.684C161.988 85.684 162.452 85.868 162.836 86.236C163.22 86.588 163.412 87.068 163.412 87.676C163.412 88.252 163.22 88.732 162.836 89.116C162.452 89.484 161.988 89.668 161.444 89.668ZM172.158 89.74C170.83 89.74 169.63 89.404 168.558 88.732C167.502 88.06 166.67 87.084 166.062 85.804C165.454 84.508 165.15 82.94 165.15 81.1C165.15 79.26 165.454 77.7 166.062 76.42C166.67 75.124 167.502 74.14 168.558 73.468C169.63 72.796 170.83 72.46 172.158 72.46C173.502 72.46 174.702 72.796 175.758 73.468C176.814 74.14 177.646 75.124 178.254 76.42C178.878 77.7 179.19 79.26 179.19 81.1C179.19 82.94 178.878 84.508 178.254 85.804C177.646 87.084 176.814 88.06 175.758 88.732C174.702 89.404 173.502 89.74 172.158 89.74ZM172.158 87.028C172.942 87.028 173.622 86.82 174.198 86.404C174.774 85.972 175.222 85.316 175.542 84.436C175.878 83.556 176.046 82.444 176.046 81.1C176.046 79.74 175.878 78.628 175.542 77.764C175.222 76.884 174.774 76.236 174.198 75.82C173.622 75.388 172.942 75.172 172.158 75.172C171.406 75.172 170.734 75.388 170.142 75.82C169.566 76.236 169.11 76.884 168.774 77.764C168.454 78.628 168.294 79.74 168.294 81.1C168.294 82.444 168.454 83.556 168.774 84.436C169.11 85.316 169.566 85.972 170.142 86.404C170.734 86.82 171.406 87.028 172.158 87.028ZM188.306 89.74C186.978 89.74 185.778 89.404 184.706 88.732C183.65 88.06 182.818 87.084 182.21 85.804C181.602 84.508 181.298 82.94 181.298 81.1C181.298 79.26 181.602 77.7 182.21 76.42C182.818 75.124 183.65 74.14 184.706 73.468C185.778 72.796 186.978 72.46 188.306 72.46C189.65 72.46 190.85 72.796 191.906 73.468C192.962 74.14 193.794 75.124 194.402 76.42C195.026 77.7 195.338 79.26 195.338 81.1C195.338 82.94 195.026 84.508 194.402 85.804C193.794 87.084 192.962 88.06 191.906 88.732C190.85 89.404 189.65 89.74 188.306 89.74ZM188.306 87.028C189.09 87.028 189.77 86.82 190.346 86.404C190.922 85.972 191.37 85.316 191.69 84.436C192.026 83.556 192.194 82.444 192.194 81.1C192.194 79.74 192.026 78.628 191.69 77.764C191.37 76.884 190.922 76.236 190.346 75.82C189.77 75.388 189.09 75.172 188.306 75.172C187.554 75.172 186.882 75.388 186.29 75.82C185.714 76.236 185.258 76.884 184.922 77.764C184.602 78.628 184.442 79.74 184.442 81.1C184.442 82.444 184.602 83.556 184.922 84.436C185.258 85.316 185.714 85.972 186.29 86.404C186.882 86.82 187.554 87.028 188.306 87.028ZM204.455 89.74C203.127 89.74 201.927 89.404 200.855 88.732C199.799 88.06 198.967 87.084 198.359 85.804C197.751 84.508 197.447 82.94 197.447 81.1C197.447 79.26 197.751 77.7 198.359 76.42C198.967 75.124 199.799 74.14 200.855 73.468C201.927 72.796 203.127 72.46 204.455 72.46C205.799 72.46 206.999 72.796 208.055 73.468C209.111 74.14 209.943 75.124 210.551 76.42C211.175 77.7 211.487 79.26 211.487 81.1C211.487 82.94 211.175 84.508 210.551 85.804C209.943 87.084 209.111 88.06 208.055 88.732C206.999 89.404 205.799 89.74 204.455 89.74ZM204.455 87.028C205.239 87.028 205.919 86.82 206.495 86.404C207.071 85.972 207.519 85.316 207.839 84.436C208.175 83.556 208.343 82.444 208.343 81.1C208.343 79.74 208.175 78.628 207.839 77.764C207.519 76.884 207.071 76.236 206.495 75.82C205.919 75.388 205.239 75.172 204.455 75.172C203.703 75.172 203.031 75.388 202.439 75.82C201.863 76.236 201.407 76.884 201.071 77.764C200.751 78.628 200.591 79.74 200.591 81.1C200.591 82.444 200.751 83.556 201.071 84.436C201.407 85.316 201.863 85.972 202.439 86.404C203.031 86.82 203.703 87.028 204.455 87.028ZM213.434 93.124L214.826 87.82L215.234 89.596C214.674 89.596 214.202 89.428 213.818 89.092C213.45 88.74 213.266 88.268 213.266 87.676C213.266 87.068 213.45 86.588 213.818 86.236C214.202 85.868 214.666 85.684 215.21 85.684C215.77 85.684 216.234 85.868 216.602 86.236C216.97 86.604 217.154 87.084 217.154 87.676C217.154 87.836 217.138 88.012 217.106 88.204C217.074 88.38 217.018 88.588 216.938 88.828C216.874 89.068 216.762 89.372 216.602 89.74L215.378 93.124H213.434ZM225.9 89.74C224.572 89.74 223.372 89.404 222.3 88.732C221.244 88.06 220.412 87.084 219.804 85.804C219.196 84.508 218.892 82.94 218.892 81.1C218.892 79.26 219.196 77.7 219.804 76.42C220.412 75.124 221.244 74.14 222.3 73.468C223.372 72.796 224.572 72.46 225.9 72.46C227.244 72.46 228.444 72.796 229.5 73.468C230.556 74.14 231.388 75.124 231.996 76.42C232.62 77.7 232.932 79.26 232.932 81.1C232.932 82.94 232.62 84.508 231.996 85.804C231.388 87.084 230.556 88.06 229.5 88.732C228.444 89.404 227.244 89.74 225.9 89.74ZM225.9 87.028C226.684 87.028 227.364 86.82 227.94 86.404C228.516 85.972 228.964 85.316 229.284 84.436C229.62 83.556 229.788 82.444 229.788 81.1C229.788 79.74 229.62 78.628 229.284 77.764C228.964 76.884 228.516 76.236 227.94 75.82C227.364 75.388 226.684 75.172 225.9 75.172C225.148 75.172 224.476 75.388 223.884 75.82C223.308 76.236 222.852 76.884 222.516 77.764C222.196 78.628 222.036 79.74 222.036 81.1C222.036 82.444 222.196 83.556 222.516 84.436C222.852 85.316 223.308 85.972 223.884 86.404C224.476 86.82 225.148 87.028 225.9 87.028ZM242.048 89.74C240.72 89.74 239.52 89.404 238.448 88.732C237.392 88.06 236.56 87.084 235.952 85.804C235.344 84.508 235.04 82.94 235.04 81.1C235.04 79.26 235.344 77.7 235.952 76.42C236.56 75.124 237.392 74.14 238.448 73.468C239.52 72.796 240.72 72.46 242.048 72.46C243.392 72.46 244.592 72.796 245.648 73.468C246.704 74.14 247.536 75.124 248.144 76.42C248.768 77.7 249.08 79.26 249.08 81.1C249.08 82.94 248.768 84.508 248.144 85.804C247.536 87.084 246.704 88.06 245.648 88.732C244.592 89.404 243.392 89.74 242.048 89.74ZM242.048 87.028C242.832 87.028 243.512 86.82 244.088 86.404C244.664 85.972 245.112 85.316 245.432 84.436C245.768 83.556 245.936 82.444 245.936 81.1C245.936 79.74 245.768 78.628 245.432 77.764C245.112 76.884 244.664 76.236 244.088 75.82C243.512 75.388 242.832 75.172 242.048 75.172C241.296 75.172 240.624 75.388 240.032 75.82C239.456 76.236 239 76.884 238.664 77.764C238.344 78.628 238.184 79.74 238.184 81.1C238.184 82.444 238.344 83.556 238.664 84.436C239 85.316 239.456 85.972 240.032 86.404C240.624 86.82 241.296 87.028 242.048 87.028Z" fill="black"/>
<path d="M752.04 95.74C750.76 95.74 749.647 95.4733 748.7 94.94C747.767 94.4067 747.047 93.6267 746.54 92.6C746.033 91.5733 745.78 90.3067 745.78 88.8C745.78 87.1867 746.08 85.82 746.68 84.7C747.293 83.58 748.133 82.7267 749.2 82.14C750.28 81.5533 751.52 81.26 752.92 81.26C753.667 81.26 754.38 81.34 755.06 81.5C755.74 81.66 756.327 81.9 756.82 82.22L755.62 84.6C755.233 84.3333 754.82 84.1533 754.38 84.06C753.94 83.9533 753.48 83.9 753 83.9C751.787 83.9 750.827 84.2667 750.12 85C749.413 85.7333 749.06 86.82 749.06 88.26C749.06 88.5 749.06 88.7667 749.06 89.06C749.073 89.3533 749.113 89.6467 749.18 89.94L748.28 89.1C748.533 88.58 748.86 88.1467 749.26 87.8C749.66 87.44 750.133 87.1733 750.68 87C751.24 86.8133 751.853 86.72 752.52 86.72C753.427 86.72 754.24 86.9 754.96 87.26C755.68 87.62 756.253 88.1267 756.68 88.78C757.12 89.4333 757.34 90.2 757.34 91.08C757.34 92.0267 757.1 92.8533 756.62 93.56C756.153 94.2533 755.52 94.7933 754.72 95.18C753.933 95.5533 753.04 95.74 752.04 95.74ZM751.86 93.32C752.313 93.32 752.713 93.24 753.06 93.08C753.42 92.9067 753.7 92.66 753.9 92.34C754.1 92.02 754.2 91.6533 754.2 91.24C754.2 90.6 753.98 90.0933 753.54 89.72C753.113 89.3333 752.54 89.14 751.82 89.14C751.34 89.14 750.92 89.2333 750.56 89.42C750.2 89.5933 749.913 89.84 749.7 90.16C749.5 90.4667 749.4 90.8267 749.4 91.24C749.4 91.64 749.5 92 749.7 92.32C749.9 92.6267 750.18 92.8733 750.54 93.06C750.9 93.2333 751.34 93.32 751.86 93.32ZM765.058 95.5V81.5H767.738L775.998 91.58H774.698V81.5H777.898V95.5H775.238L766.958 85.42H768.258V95.5H765.058ZM786.111 95.66C784.964 95.66 783.944 95.42 783.051 94.94C782.171 94.46 781.471 93.8067 780.951 92.98C780.444 92.14 780.191 91.1867 780.191 90.12C780.191 89.04 780.444 88.0867 780.951 87.26C781.471 86.42 782.171 85.7667 783.051 85.3C783.944 84.82 784.964 84.58 786.111 84.58C787.244 84.58 788.257 84.82 789.151 85.3C790.044 85.7667 790.744 86.4133 791.251 87.24C791.757 88.0667 792.011 89.0267 792.011 90.12C792.011 91.1867 791.757 92.14 791.251 92.98C790.744 93.8067 790.044 94.46 789.151 94.94C788.257 95.42 787.244 95.66 786.111 95.66ZM786.111 93.1C786.631 93.1 787.097 92.98 787.511 92.74C787.924 92.5 788.251 92.16 788.491 91.72C788.731 91.2667 788.851 90.7333 788.851 90.12C788.851 89.4933 788.731 88.96 788.491 88.52C788.251 88.08 787.924 87.74 787.511 87.5C787.097 87.26 786.631 87.14 786.111 87.14C785.591 87.14 785.124 87.26 784.711 87.5C784.297 87.74 783.964 88.08 783.711 88.52C783.471 88.96 783.351 89.4933 783.351 90.12C783.351 90.7333 783.471 91.2667 783.711 91.72C783.964 92.16 784.297 92.5 784.711 92.74C785.124 92.98 785.591 93.1 786.111 93.1ZM796.723 95.5L792.203 84.74H795.423L799.183 94H797.583L801.483 84.74H804.483L799.943 95.5H796.723ZM810.803 95.66C809.577 95.66 808.497 95.42 807.563 94.94C806.643 94.46 805.93 93.8067 805.423 92.98C804.917 92.14 804.663 91.1867 804.663 90.12C804.663 89.04 804.91 88.0867 805.403 87.26C805.91 86.42 806.597 85.7667 807.463 85.3C808.33 84.82 809.31 84.58 810.403 84.58C811.457 84.58 812.403 84.8067 813.243 85.26C814.097 85.7 814.77 86.34 815.263 87.18C815.757 88.0067 816.003 89 816.003 90.16C816.003 90.28 815.997 90.42 815.983 90.58C815.97 90.7267 815.957 90.8667 815.943 91H807.203V89.18H814.303L813.103 89.72C813.103 89.16 812.99 88.6733 812.763 88.26C812.537 87.8467 812.223 87.5267 811.823 87.3C811.423 87.06 810.957 86.94 810.423 86.94C809.89 86.94 809.417 87.06 809.003 87.3C808.603 87.5267 808.29 87.8533 808.063 88.28C807.837 88.6933 807.723 89.1867 807.723 89.76V90.24C807.723 90.8267 807.85 91.3467 808.103 91.8C808.37 92.24 808.737 92.58 809.203 92.82C809.683 93.0467 810.243 93.16 810.883 93.16C811.457 93.16 811.957 93.0733 812.383 92.9C812.823 92.7267 813.223 92.4667 813.583 92.12L815.243 93.92C814.75 94.48 814.13 94.9133 813.383 95.22C812.637 95.5133 811.777 95.66 810.803 95.66ZM831.861 84.58C832.714 84.58 833.467 84.7533 834.121 85.1C834.787 85.4333 835.307 85.9533 835.681 86.66C836.067 87.3533 836.261 88.2467 836.261 89.34V95.5H833.141V89.82C833.141 88.9533 832.961 88.3133 832.601 87.9C832.241 87.4867 831.734 87.28 831.081 87.28C830.627 87.28 830.221 87.3867 829.861 87.6C829.501 87.8 829.221 88.1067 829.021 88.52C828.821 88.9333 828.721 89.46 828.721 90.1V95.5H825.601V89.82C825.601 88.9533 825.421 88.3133 825.061 87.9C824.714 87.4867 824.214 87.28 823.561 87.28C823.107 87.28 822.701 87.3867 822.341 87.6C821.981 87.8 821.701 88.1067 821.501 88.52C821.301 88.9333 821.201 89.46 821.201 90.1V95.5H818.081V84.74H821.061V87.68L820.501 86.82C820.874 86.0867 821.401 85.5333 822.081 85.16C822.774 84.7733 823.561 84.58 824.441 84.58C825.427 84.58 826.287 84.8333 827.021 85.34C827.767 85.8333 828.261 86.5933 828.501 87.62L827.401 87.32C827.761 86.48 828.334 85.8133 829.121 85.32C829.921 84.8267 830.834 84.58 831.861 84.58ZM845.417 95.66C844.471 95.66 843.657 95.46 842.977 95.06C842.297 94.66 841.777 94.0533 841.417 93.24C841.057 92.4133 840.877 91.3733 840.877 90.12C840.877 88.8533 841.064 87.8133 841.437 87C841.824 86.1867 842.357 85.58 843.037 85.18C843.717 84.78 844.511 84.58 845.417 84.58C846.431 84.58 847.337 84.8067 848.137 85.26C848.951 85.7133 849.591 86.3533 850.057 87.18C850.537 88.0067 850.777 88.9867 850.777 90.12C850.777 91.24 850.537 92.2133 850.057 93.04C849.591 93.8667 848.951 94.5133 848.137 94.98C847.337 95.4333 846.431 95.66 845.417 95.66ZM839.057 95.5V80.66H842.177V86.92L841.977 90.1L842.037 93.3V95.5H839.057ZM844.877 93.1C845.397 93.1 845.857 92.98 846.257 92.74C846.671 92.5 846.997 92.16 847.237 91.72C847.491 91.2667 847.617 90.7333 847.617 90.12C847.617 89.4933 847.491 88.96 847.237 88.52C846.997 88.08 846.671 87.74 846.257 87.5C845.857 87.26 845.397 87.14 844.877 87.14C844.357 87.14 843.891 87.26 843.477 87.5C843.064 87.74 842.737 88.08 842.497 88.52C842.257 88.96 842.137 89.4933 842.137 90.12C842.137 90.7333 842.257 91.2667 842.497 91.72C842.737 92.16 843.064 92.5 843.477 92.74C843.891 92.98 844.357 93.1 844.877 93.1ZM858.206 95.66C856.979 95.66 855.899 95.42 854.966 94.94C854.046 94.46 853.332 93.8067 852.826 92.98C852.319 92.14 852.066 91.1867 852.066 90.12C852.066 89.04 852.312 88.0867 852.806 87.26C853.312 86.42 853.999 85.7667 854.866 85.3C855.732 84.82 856.712 84.58 857.806 84.58C858.859 84.58 859.806 84.8067 860.646 85.26C861.499 85.7 862.172 86.34 862.666 87.18C863.159 88.0067 863.406 89 863.406 90.16C863.406 90.28 863.399 90.42 863.386 90.58C863.372 90.7267 863.359 90.8667 863.346 91H854.606V89.18H861.706L860.506 89.72C860.506 89.16 860.392 88.6733 860.166 88.26C859.939 87.8467 859.626 87.5267 859.226 87.3C858.826 87.06 858.359 86.94 857.826 86.94C857.292 86.94 856.819 87.06 856.406 87.3C856.006 87.5267 855.692 87.8533 855.466 88.28C855.239 88.6933 855.126 89.1867 855.126 89.76V90.24C855.126 90.8267 855.252 91.3467 855.506 91.8C855.772 92.24 856.139 92.58 856.606 92.82C857.086 93.0467 857.646 93.16 858.286 93.16C858.859 93.16 859.359 93.0733 859.786 92.9C860.226 92.7267 860.626 92.4667 860.986 92.12L862.646 93.92C862.152 94.48 861.532 94.9133 860.786 95.22C860.039 95.5133 859.179 95.66 858.206 95.66ZM865.483 95.5V84.74H868.463V87.78L868.043 86.9C868.363 86.14 868.876 85.5667 869.583 85.18C870.29 84.78 871.15 84.58 872.163 84.58V87.46C872.03 87.4467 871.91 87.44 871.803 87.44C871.696 87.4267 871.583 87.42 871.463 87.42C870.61 87.42 869.916 87.6667 869.383 88.16C868.863 88.64 868.603 89.3933 868.603 90.42V95.5H865.483ZM878.98 95.5V93.4L884.38 88.3C884.807 87.9133 885.12 87.5667 885.32 87.26C885.52 86.9533 885.654 86.6733 885.72 86.42C885.8 86.1667 885.84 85.9333 885.84 85.72C885.84 85.16 885.647 84.7333 885.26 84.44C884.887 84.1333 884.334 83.98 883.6 83.98C883.014 83.98 882.467 84.0933 881.96 84.32C881.467 84.5467 881.047 84.9 880.7 85.38L878.34 83.86C878.874 83.06 879.62 82.4267 880.58 81.96C881.54 81.4933 882.647 81.26 883.9 81.26C884.94 81.26 885.847 81.4333 886.62 81.78C887.407 82.1133 888.014 82.5867 888.44 83.2C888.88 83.8133 889.1 84.5467 889.1 85.4C889.1 85.8533 889.04 86.3067 888.92 86.76C888.814 87.2 888.587 87.6667 888.24 88.16C887.907 88.6533 887.414 89.2067 886.76 89.82L882.28 94.04L881.66 92.86H889.56V95.5H878.98ZM896.897 95.74C895.751 95.74 894.724 95.46 893.817 94.9C892.911 94.3267 892.197 93.5 891.677 92.42C891.157 91.34 890.897 90.0333 890.897 88.5C890.897 86.9667 891.157 85.66 891.677 84.58C892.197 83.5 892.911 82.68 893.817 82.12C894.724 81.5467 895.751 81.26 896.897 81.26C898.057 81.26 899.084 81.5467 899.977 82.12C900.884 82.68 901.597 83.5 902.117 84.58C902.637 85.66 902.897 86.9667 902.897 88.5C902.897 90.0333 902.637 91.34 902.117 92.42C901.597 93.5 900.884 94.3267 899.977 94.9C899.084 95.46 898.057 95.74 896.897 95.74ZM896.897 93C897.444 93 897.917 92.8467 898.317 92.54C898.731 92.2333 899.051 91.7467 899.277 91.08C899.517 90.4133 899.637 89.5533 899.637 88.5C899.637 87.4467 899.517 86.5867 899.277 85.92C899.051 85.2533 898.731 84.7667 898.317 84.46C897.917 84.1533 897.444 84 896.897 84C896.364 84 895.891 84.1533 895.477 84.46C895.077 84.7667 894.757 85.2533 894.517 85.92C894.291 86.5867 894.177 87.4467 894.177 88.5C894.177 89.5533 894.291 90.4133 894.517 91.08C894.757 91.7467 895.077 92.2333 895.477 92.54C895.891 92.8467 896.364 93 896.897 93ZM904.273 95.5V93.4L909.673 88.3C910.1 87.9133 910.413 87.5667 910.613 87.26C910.813 86.9533 910.947 86.6733 911.013 86.42C911.093 86.1667 911.133 85.9333 911.133 85.72C911.133 85.16 910.94 84.7333 910.553 84.44C910.18 84.1333 909.627 83.98 908.893 83.98C908.307 83.98 907.76 84.0933 907.253 84.32C906.76 84.5467 906.34 84.9 905.993 85.38L903.633 83.86C904.167 83.06 904.913 82.4267 905.873 81.96C906.833 81.4933 907.94 81.26 909.193 81.26C910.233 81.26 911.14 81.4333 911.913 81.78C912.7 82.1133 913.307 82.5867 913.733 83.2C914.173 83.8133 914.393 84.5467 914.393 85.4C914.393 85.8533 914.333 86.3067 914.213 86.76C914.107 87.2 913.88 87.6667 913.533 88.16C913.2 88.6533 912.707 89.2067 912.053 89.82L907.573 94.04L906.953 92.86H914.853V95.5H904.273ZM916.07 95.5V93.4L921.47 88.3C921.897 87.9133 922.21 87.5667 922.41 87.26C922.61 86.9533 922.743 86.6733 922.81 86.42C922.89 86.1667 922.93 85.9333 922.93 85.72C922.93 85.16 922.737 84.7333 922.35 84.44C921.977 84.1333 921.423 83.98 920.69 83.98C920.103 83.98 919.557 84.0933 919.05 84.32C918.557 84.5467 918.137 84.9 917.79 85.38L915.43 83.86C915.963 83.06 916.71 82.4267 917.67 81.96C918.63 81.4933 919.737 81.26 920.99 81.26C922.03 81.26 922.937 81.4333 923.71 81.78C924.497 82.1133 925.103 82.5867 925.53 83.2C925.97 83.8133 926.19 84.5467 926.19 85.4C926.19 85.8533 926.13 86.3067 926.01 86.76C925.903 87.2 925.677 87.6667 925.33 88.16C924.997 88.6533 924.503 89.2067 923.85 89.82L919.37 94.04L918.75 92.86H926.65V95.5H916.07Z" fill="#EEEEEE"/>
<rect x="724" y="0.5" width="226" height="53" fill="#171717"/>
<path d="M801.764 37.836C800.196 37.836 798.693 37.6307 797.256 37.22C795.819 36.7907 794.661 36.24 793.784 35.568L795.324 32.152C796.164 32.7493 797.153 33.244 798.292 33.636C799.449 34.0093 800.616 34.196 801.792 34.196C802.688 34.196 803.407 34.112 803.948 33.944C804.508 33.7573 804.919 33.5053 805.18 33.188C805.441 32.8707 805.572 32.5067 805.572 32.096C805.572 31.5733 805.367 31.1627 804.956 30.864C804.545 30.5467 804.004 30.2947 803.332 30.108C802.66 29.9027 801.913 29.716 801.092 29.548C800.289 29.3613 799.477 29.1373 798.656 28.876C797.853 28.6147 797.116 28.2787 796.444 27.868C795.772 27.4573 795.221 26.916 794.792 26.244C794.381 25.572 794.176 24.7133 794.176 23.668C794.176 22.548 794.475 21.5307 795.072 20.616C795.688 19.6827 796.603 18.9453 797.816 18.404C799.048 17.844 800.588 17.564 802.436 17.564C803.668 17.564 804.881 17.7133 806.076 18.012C807.271 18.292 808.325 18.7213 809.24 19.3L807.84 22.744C806.925 22.2213 806.011 21.8387 805.096 21.596C804.181 21.3347 803.285 21.204 802.408 21.204C801.531 21.204 800.812 21.3067 800.252 21.512C799.692 21.7173 799.291 21.988 799.048 22.324C798.805 22.6413 798.684 23.0147 798.684 23.444C798.684 23.948 798.889 24.3587 799.3 24.676C799.711 24.9747 800.252 25.2173 800.924 25.404C801.596 25.5907 802.333 25.7773 803.136 25.964C803.957 26.1507 804.769 26.3653 805.572 26.608C806.393 26.8507 807.14 27.1773 807.812 27.588C808.484 27.9987 809.025 28.54 809.436 29.212C809.865 29.884 810.08 30.7333 810.08 31.76C810.08 32.8613 809.772 33.8693 809.156 34.784C808.54 35.6987 807.616 36.436 806.384 36.996C805.171 37.556 803.631 37.836 801.764 37.836ZM822.699 37.836C821.15 37.836 819.713 37.584 818.387 37.08C817.081 36.576 815.942 35.8667 814.971 34.952C814.019 34.0373 813.273 32.964 812.731 31.732C812.209 30.5 811.947 29.156 811.947 27.7C811.947 26.244 812.209 24.9 812.731 23.668C813.273 22.436 814.029 21.3627 814.999 20.448C815.97 19.5333 817.109 18.824 818.415 18.32C819.722 17.816 821.141 17.564 822.671 17.564C824.221 17.564 825.639 17.816 826.927 18.32C828.234 18.824 829.363 19.5333 830.315 20.448C831.286 21.3627 832.042 22.436 832.583 23.668C833.125 24.8813 833.395 26.2253 833.395 27.7C833.395 29.156 833.125 30.5093 832.583 31.76C832.042 32.992 831.286 34.0653 830.315 34.98C829.363 35.876 828.234 36.576 826.927 37.08C825.639 37.584 824.23 37.836 822.699 37.836ZM822.671 33.972C823.549 33.972 824.351 33.8227 825.079 33.524C825.826 33.2253 826.479 32.796 827.039 32.236C827.599 31.676 828.029 31.0133 828.327 30.248C828.645 29.4827 828.803 28.6333 828.803 27.7C828.803 26.7667 828.645 25.9173 828.327 25.152C828.029 24.3867 827.599 23.724 827.039 23.164C826.498 22.604 825.854 22.1747 825.107 21.876C824.361 21.5773 823.549 21.428 822.671 21.428C821.794 21.428 820.982 21.5773 820.235 21.876C819.507 22.1747 818.863 22.604 818.303 23.164C817.743 23.724 817.305 24.3867 816.987 25.152C816.689 25.9173 816.539 26.7667 816.539 27.7C816.539 28.6147 816.689 29.464 816.987 30.248C817.305 31.0133 817.734 31.676 818.275 32.236C818.835 32.796 819.489 33.2253 820.235 33.524C820.982 33.8227 821.794 33.972 822.671 33.972ZM846.324 37.836C844.775 37.836 843.338 37.584 842.012 37.08C840.706 36.576 839.567 35.8667 838.596 34.952C837.644 34.0373 836.898 32.964 836.356 31.732C835.834 30.5 835.572 29.156 835.572 27.7C835.572 26.244 835.834 24.9 836.356 23.668C836.898 22.436 837.654 21.3627 838.624 20.448C839.595 19.5333 840.734 18.824 842.04 18.32C843.347 17.816 844.766 17.564 846.296 17.564C847.846 17.564 849.264 17.816 850.552 18.32C851.859 18.824 852.988 19.5333 853.94 20.448C854.911 21.3627 855.667 22.436 856.208 23.668C856.75 24.8813 857.02 26.2253 857.02 27.7C857.02 29.156 856.75 30.5093 856.208 31.76C855.667 32.992 854.911 34.0653 853.94 34.98C852.988 35.876 851.859 36.576 850.552 37.08C849.264 37.584 847.855 37.836 846.324 37.836ZM846.296 33.972C847.174 33.972 847.976 33.8227 848.704 33.524C849.451 33.2253 850.104 32.796 850.664 32.236C851.224 31.676 851.654 31.0133 851.952 30.248C852.27 29.4827 852.428 28.6333 852.428 27.7C852.428 26.7667 852.27 25.9173 851.952 25.152C851.654 24.3867 851.224 23.724 850.664 23.164C850.123 22.604 849.479 22.1747 848.732 21.876C847.986 21.5773 847.174 21.428 846.296 21.428C845.419 21.428 844.607 21.5773 843.86 21.876C843.132 22.1747 842.488 22.604 841.928 23.164C841.368 23.724 840.93 24.3867 840.612 25.152C840.314 25.9173 840.164 26.7667 840.164 27.7C840.164 28.6147 840.314 29.464 840.612 30.248C840.93 31.0133 841.359 31.676 841.9 32.236C842.46 32.796 843.114 33.2253 843.86 33.524C844.607 33.8227 845.419 33.972 846.296 33.972ZM860.429 37.5V17.9H864.181L875.745 32.012H873.925V17.9H878.405V37.5H874.681L863.089 23.388H864.909V37.5H860.429Z" fill="#EEEEEE"/>
<g opacity="0.75">
<path d="M446.048 74.8592L446.121 76.5081L444.566 78.332L443 79.7438C440.176 82.2906 437.049 87.9007 437.049 90.4207C437.049 91.6926 436.815 92.258 436.287 92.258C435.868 92.258 434.694 92.7228 433.679 93.2908C431.525 94.496 430.828 94.5828 430.828 93.6466C430.828 93.2738 430.419 92.5049 429.921 91.9379C428.711 90.5622 427.199 87.7055 427.199 86.7941C427.199 86.3913 427.021 86.0613 426.803 86.0613C426.586 86.0613 426.178 85.6064 425.896 85.0502C425.615 84.4941 424.393 82.1326 423.181 79.8021C420.862 75.3421 420.512 73.6633 421.698 72.6832C422.232 72.2416 422.306 71.5957 421.985 70.1807C421.196 66.693 418.749 65.9975 416.201 68.536C415.014 69.7181 414.762 70.2649 415.204 70.7049C415.528 71.0281 415.794 72.0594 415.794 72.9966C415.794 73.9339 416.027 74.7007 416.312 74.7007C416.597 74.7007 416.831 75.2817 416.831 75.9917C416.831 76.7952 417.125 77.2827 417.608 77.2827C418.036 77.2827 418.386 77.6116 418.386 78.0144C418.386 78.4167 418.561 78.8231 418.775 78.9181C419.308 79.1535 420.978 82.8215 420.978 83.7551C420.978 84.1713 421.156 84.5122 421.374 84.5122C421.779 84.5122 423.57 88.2704 423.57 89.1204C423.57 89.3786 423.745 89.6673 423.959 89.7623C424.173 89.8568 424.748 90.7971 425.237 91.8516C426.077 93.6605 426.077 93.8185 425.24 94.652C424.579 95.3099 424.352 96.4227 424.35 99.017C424.349 100.932 424.173 102.674 423.959 102.887C423.248 103.595 423.58 105.925 424.575 107.215C425.54 108.466 425.539 108.511 424.51 109.95C423.6 111.224 423.547 111.612 424.104 112.951C424.658 114.283 424.613 114.643 423.768 115.638C423.232 116.27 422.652 116.903 422.481 117.045C422.31 117.187 422.037 117.652 421.874 118.078L712.639 118.551C712.505 118.149 712.29 111.661 712.161 104.135C712.032 96.6086 711.686 89.7535 711.393 88.9015C711.1 88.0494 710.455 86.0742 709.96 84.5122C709.466 82.9501 708.688 81.3214 708.233 80.8933C706.864 79.6064 704.641 78.3155 703.794 78.3155C703.356 78.3155 702.998 78.1089 702.998 77.8564C702.998 77.6044 702.182 77.245 701.184 77.0586C700.186 76.8722 699.369 76.4977 699.369 76.2266C699.369 75.9555 699.116 75.7335 698.806 75.7335C697.407 75.7335 693.523 72.2654 692.558 70.1534C691.538 67.9246 691.592 65.2699 692.67 64.6063C692.933 64.4447 693.148 63.7414 693.148 63.0442C693.148 62.3471 693.437 61.3153 693.792 60.7509C694.304 59.933 694.302 59.5142 693.78 58.6807C693.285 57.8922 693.267 57.3711 693.705 56.5563C695.019 54.1101 693.153 49.4869 690.229 47.9444C684.448 44.8941 680.212 45.4033 675.791 49.68L673.855 51.553L674.195 55.2519C674.382 57.2865 674.522 59.9386 674.505 61.1454C674.489 62.3522 674.711 63.3401 674.999 63.3401C675.287 63.3401 675.522 63.8818 675.522 64.5438C675.522 65.2879 676 66.0026 676.774 66.4152C678.336 67.2476 678.629 68.329 678.26 71.891C678.065 73.7738 677.736 74.7007 677.264 74.7007C676.876 74.7007 676.559 74.9088 676.559 75.1629C676.559 75.4169 674.576 76.6031 672.152 77.7991C669.729 78.995 667.746 80.1812 667.746 80.4352C667.746 80.6893 667.435 80.8974 667.056 80.8974C666.403 80.8974 666.036 81.4706 664.743 84.5122C664.442 85.2222 664.051 88.54 663.875 91.8852C663.698 95.2298 663.346 98.4831 663.091 99.1147L662.627 100.262L662.594 99.111C662.561 97.9517 660.471 91.3688 659.307 88.7585C658.963 87.9849 658.253 86.8876 657.73 86.3195C657.207 85.7515 656.425 84.695 655.992 83.972C655.559 83.2491 654.411 82.1156 653.44 81.4525C652.469 80.79 651.675 80.0454 651.675 79.798C651.675 79.5507 651.266 79.3488 650.767 79.3498C650.269 79.3503 648.927 78.9057 647.786 78.3609C646.646 77.8161 645.051 77.1143 644.241 76.8009L642.77 76.2308L643.853 74.4033C644.646 73.0648 644.935 71.6948 644.935 69.2796C644.935 67.4666 645.162 65.8431 645.44 65.6727C646.371 65.0989 646.986 61.6076 646.516 59.5575C646.03 57.4347 645.191 56.5759 642.343 55.2829C641.345 54.8295 639.68 54.0172 638.644 53.4776C636.451 52.3358 635.175 52.2537 633.165 53.1238C631.511 53.8401 626.292 59.1377 626.28 60.1127C626.276 60.4679 626.039 60.7581 625.754 60.7581C625.468 60.7581 625.236 61.8617 625.236 63.211C625.236 65.0819 625.544 66.0197 626.532 67.1645C627.245 67.9897 627.832 69.0354 627.839 69.4883C627.845 69.9406 628.306 70.8923 628.864 71.6024C629.422 72.3124 629.875 73.2419 629.87 73.6679C629.861 74.7441 626.364 77.2827 624.893 77.2827C624.226 77.2827 623.68 77.515 623.68 77.7991C623.68 78.0831 623.205 78.3155 622.625 78.3155C621.587 78.3155 619.413 79.4825 618.07 80.7616C617.693 81.1205 617.227 81.4148 617.033 81.4164C616.839 81.4174 615.936 82.1145 615.024 82.9656C613.105 84.7579 612.275 84.9222 612.275 83.5098C612.275 82.9583 612.074 82.3841 611.828 82.2328C611.583 82.0815 611.224 80.3831 611.032 78.4585C610.571 73.8451 610.573 74.2623 610.995 71.5223C611.32 69.4098 611.201 68.9027 610.006 67.3421C608.983 66.0062 608.646 64.9636 608.646 63.132C608.646 61.6401 608.445 60.8206 608.127 61.0164C607.842 61.1919 607.609 62.0001 607.609 62.8118C607.609 64.5991 607.144 65.9221 606.517 65.9221C606.262 65.9221 606.054 65.5735 606.054 65.1475C606.054 64.7215 605.82 64.3729 605.535 64.3729C605.25 64.3729 605.017 63.9081 605.017 63.3401C605.017 62.3388 604.468 61.9939 603.851 62.6079C603.686 62.7726 603.88 63.6949 604.283 64.6564C604.687 65.6184 605.017 67.6716 605.017 69.2192C605.017 70.8386 605.264 72.1146 605.598 72.2257C606.265 72.4472 606.563 84.1626 605.918 84.8132C605.702 85.0322 605.06 84.7156 604.493 84.1088C603.725 83.2883 603.462 82.2875 603.462 80.1977C603.462 77.6514 603.298 77.246 601.7 75.8492C600.001 74.363 599.926 74.1384 599.577 69.4697C598.994 61.6825 598.967 60.1968 599.403 59.9283C599.63 59.7889 599.768 57.1166 599.71 53.9893C599.598 48.0043 599.192 47.5778 597.65 51.8261C596.843 54.0502 596.305 53.9831 596.105 51.632C596.017 50.5889 595.642 49.6366 595.273 49.5158C594.734 49.3392 594.657 50.9003 594.883 57.398C595.038 61.8545 595.299 65.7171 595.463 65.9814C595.627 66.2458 595.46 68.0837 595.092 70.0651C594.454 73.5022 594.357 73.6679 592.981 73.6679C591.393 73.6679 591.133 72.9042 592.286 71.6344C593.035 70.8107 593.301 68.8975 593.165 65.3034C593.091 63.3406 591.853 61.6278 589.599 60.3709C588.214 59.5983 584.99 59.5162 584.539 60.2418C584.363 60.5258 583.862 60.7581 583.425 60.7581C581.757 60.7581 580.686 62.927 580.668 66.3419L580.651 69.6024L578.97 69.4402C576.769 69.2285 576.597 68.1219 578.336 65.3768C579.277 63.8932 579.625 62.7778 579.438 61.8529C578.427 56.8728 577.981 55.3149 577.523 55.161C577.238 55.0644 576.63 54.6131 576.173 54.1576C574.382 52.3745 567.744 53.5628 566.801 55.8354C565.653 58.6022 567.172 66.9548 568.823 66.9548C569.514 66.9548 569.305 68.0026 568.443 68.8608C567.856 69.4459 567.089 69.5729 565.585 69.3333C564.055 69.0896 563.003 69.2745 561.463 70.0563C559.73 70.9373 559.396 70.9801 559.396 70.3217C559.396 69.89 559.617 69.5368 559.888 69.5368C560.159 69.5368 560.349 67.8797 560.311 65.8508C560.257 62.9043 560.027 61.9324 559.172 61.0081C558.582 60.3714 557.681 59.2415 557.168 58.4974C556.427 57.4197 555.817 57.1434 554.181 57.1434C551.969 57.1434 550.594 57.7404 548.439 59.6366L547.072 60.8387L547.335 58.3456C547.479 56.9746 548.013 54.6487 548.52 53.1775C549.259 51.0335 549.298 50.5574 548.717 50.7799C548.317 50.9323 547.99 51.2065 547.99 51.3893C547.99 51.5721 547.406 52.3962 546.694 53.2219L545.399 54.7221V53.3815C545.399 52.6436 545.165 51.8969 544.88 51.7213C544.595 51.5457 544.362 50.9374 544.362 50.3694C544.362 49.8014 544.129 49.4802 543.843 49.6557C543.558 49.8313 543.325 50.5284 543.325 51.2049C543.325 51.8814 543.558 52.5785 543.843 52.7541C544.736 53.3035 544.41 54.4282 543.273 54.7246C542.283 54.9823 542.213 55.2591 542.511 57.7543C542.691 59.2642 542.969 63.0561 543.128 66.1803L543.419 71.8606L542.205 70.7601C540.561 69.2688 537.551 68.6915 534.792 69.339C533.163 69.7206 532.638 70.0661 530.57 72.1188C529.19 73.4887 529.212 73.0669 530.158 80.1228C530.329 81.4009 530.311 82.4466 530.118 82.4466C529.68 82.4466 526.736 79.5434 526.736 79.1122C526.736 78.9387 526.094 78.1342 525.31 77.324C524.526 76.5138 523.508 75.3018 523.049 74.6305C521.845 72.8727 517.89 71.7929 515.807 72.6527C514.473 73.2027 514.101 73.1815 513.435 72.5174C512.726 71.812 512.784 71.5099 513.987 69.6112C514.726 68.4452 515.33 67.2383 515.33 66.928C515.33 66.6182 515.68 66.016 516.108 65.59C516.693 65.0075 516.886 63.5678 516.886 59.7853C516.886 54.9477 516.83 54.7014 515.431 53.3671C514.632 52.6038 513.699 51.9795 513.358 51.9795C513.017 51.9795 512.738 51.7471 512.738 51.4631C512.738 50.766 508.424 50.8027 507.719 51.5055C507.317 51.9062 506.846 51.8705 506.056 51.3789C505.099 50.7835 504.65 50.8548 502.625 51.9248C501.344 52.6018 500.296 53.4362 500.296 53.7791C500.296 54.122 499.928 55.1393 499.477 56.0388C498.725 57.539 498.732 58.0177 499.552 61.7987C500.044 64.0667 500.627 65.9221 500.848 65.9221C501.07 65.9221 501.403 66.6166 501.591 67.4656C501.778 68.314 502.146 69.1413 502.41 69.3034C503.156 69.763 502.976 72.1188 502.194 72.1188C501.405 72.1188 500.296 74.2458 500.296 75.7578C500.296 76.3124 500.063 76.7663 499.778 76.7663C498.95 76.7663 495.112 80.6996 495.112 81.5486C495.112 82.933 493.775 83.6245 492.56 82.8685C491.78 82.3831 491.483 81.6632 491.483 80.2566C491.483 79.1892 491.25 78.3155 490.965 78.3155C490.679 78.3155 490.44 77.3276 490.434 76.1208C490.427 74.914 490.178 72.9966 489.881 71.8606C489.584 70.7245 489.164 68.9817 488.947 67.9876C488.182 64.4695 486.82 62.6874 484.001 61.5141C480.284 59.967 476.796 60.6977 474.189 63.5694C473.24 64.6146 470.228 70.6889 470.228 71.5564C470.228 71.8007 469.879 72.6661 469.453 73.48C469.028 74.2933 468.678 75.4815 468.676 76.1208C468.674 76.7601 468.439 77.2827 468.154 77.2827C467.869 77.2827 467.636 78.5494 467.636 80.097C467.636 82.2276 467.853 83.0332 468.532 83.4112C469.375 83.8806 469.369 83.9761 468.452 84.9862C467.337 86.2131 465.044 86.4434 465.044 85.3286C465.044 83.9364 463.22 81.151 460.737 78.7497C459.264 77.3255 458.036 75.5827 457.732 74.4874C457.45 73.4686 456.996 72.6352 456.725 72.6352C455.869 72.6352 456.184 71.5027 457.527 69.749C458.24 68.818 458.823 67.3638 458.823 66.5159C458.823 65.6685 459.097 64.8841 459.432 64.7731C459.809 64.6481 460.055 63.2973 460.08 61.2245C460.116 58.0993 460.006 57.7677 458.416 56.2196C457.479 55.3076 456.268 54.5615 455.725 54.5615C455.181 54.5615 454.592 54.3291 454.416 54.0451C453.862 53.1527 449.096 53.4362 447.898 54.4324C443.902 57.7564 444.242 56.9622 443.928 63.7289C443.657 69.591 443.708 70.0387 444.808 71.5781C445.45 72.4761 446.008 73.9525 446.048 74.8592Z" fill="black"/>
<path d="M325.264 71.8918C326.548 66.1246 327.238 65.0585 330.124 64.3823C335.447 63.1357 340.083 65.2855 342.642 70.1877C343.535 71.8967 343.694 72.6687 343.689 75.2565C343.686 77.0553 343.392 79.3279 342.974 80.7894C342.584 82.1535 342.189 83.9847 342.096 84.8589C341.95 86.2414 342.058 86.5329 342.923 87.0949C344.51 88.1271 344.875 87.6597 345.411 83.908C346.118 78.9502 346.952 77.541 350.408 75.461C354.198 73.1796 355.992 73.1384 360.009 75.2413C363.32 76.9744 364.504 78.353 365.117 81.1866C365.449 82.7244 365.9 83.5642 366.86 84.4369C368.285 85.7327 368.436 86.4608 367.591 87.9806C367.282 88.5377 366.75 90.0235 366.41 91.2827C366.07 92.5419 365.516 94.5754 365.18 95.8014C364.468 98.3988 364.805 99.9907 366.107 100.176C366.585 100.244 367.974 99.6057 369.425 98.6499C370.799 97.7459 372.649 96.5771 373.537 96.0525C374.5 95.4835 375.552 94.4052 376.142 93.3814C376.687 92.437 377.622 91.1717 378.22 90.5696C379.511 89.2707 379.501 89.4016 378.581 86.1906C377.145 81.1782 376.882 78.7811 377.372 75.1665C378.066 70.0469 378.506 68.7232 380.118 66.9061C381.827 64.9803 383.668 64 385.576 64C387.436 64 391.895 65.3962 393.656 66.5299C396.341 68.2592 397.666 71.1271 398.366 76.7256L398.598 78.5766L400.011 78.3328C403.872 77.6666 404.36 77.678 407.085 78.4992C413.961 80.5711 416.144 83.1361 416.523 89.5866C416.741 93.3051 416.134 95.9624 414.28 99.4092C412.845 102.078 412.762 104.33 414.056 105.536C414.551 105.998 416.325 106.898 417.998 107.538C419.67 108.176 421.558 109.084 422.193 109.555C423.942 110.851 427.016 112.46 427.745 112.46C428.101 112.46 428.728 112.208 429.139 111.9C430.196 111.107 431.913 111.211 433.924 112.19C436.09 113.245 436.999 115.085 437 118H277C277 118 278.057 114.171 279.367 112.963C282.082 110.457 286.217 110.845 289.452 113.91C290.272 114.686 291.01 115.143 291.092 114.925C291.824 112.979 292.758 111.877 293.774 111.761C295.134 111.605 296.909 110.339 299.7 107.534C302.455 104.767 303.539 103.218 303.539 102.047C303.539 101.491 302.836 100.254 301.836 99.0486C298.459 94.9798 297.404 89.4512 299.3 85.764C300.2 84.0137 302.679 81.7624 304.588 80.9603C311.872 77.9005 321.798 81.7487 323.138 88.1519C323.381 89.3169 323.825 90.4711 324.124 90.7173C324.87 91.3316 326.57 90.7256 327.475 89.5225C328.183 88.5827 328.177 88.5468 326.851 85.7308C325.018 81.8364 324.349 76.0036 325.264 71.8918Z" fill="black"/>
</g>
<defs>
<linearGradient id="paint0_linear_1110_70" x1="714" y1="78.5" x2="55" y2="78.5" gradientUnits="userSpaceOnUse">
<stop stop-color="#171717"/>
<stop offset="1" stop-color="#4A8068" stop-opacity="0"/>
</linearGradient>
</defs>
</svg>
