<svg width="240" height="288" viewBox="0 0 240 288" fill="none" xmlns="http://www.w3.org/2000/svg">
<rect width="240" height="157" transform="matrix(1 0 0 -1 0 157)" fill="#EEEEEE"/>
<rect width="240" height="157" fill="url(#paint0_linear_1187_3843)"/>
<path d="M0 230L0 288H240V230H0Z" fill="#171717"/>
<path d="M36.4365 266.24C35.1565 266.24 34.0432 265.973 33.0965 265.44C32.1632 264.907 31.4432 264.127 30.9365 263.1C30.4298 262.073 30.1765 260.807 30.1765 259.3C30.1765 257.687 30.4765 256.32 31.0765 255.2C31.6898 254.08 32.5298 253.227 33.5965 252.64C34.6765 252.053 35.9165 251.76 37.3165 251.76C38.0632 251.76 38.7765 251.84 39.4565 252C40.1365 252.16 40.7232 252.4 41.2165 252.72L40.0165 255.1C39.6298 254.833 39.2165 254.653 38.7765 254.56C38.3365 254.453 37.8765 254.4 37.3965 254.4C36.1832 254.4 35.2232 254.767 34.5165 255.5C33.8098 256.233 33.4565 257.32 33.4565 258.76C33.4565 259 33.4565 259.267 33.4565 259.56C33.4698 259.853 33.5098 260.147 33.5765 260.44L32.6765 259.6C32.9298 259.08 33.2565 258.647 33.6565 258.3C34.0565 257.94 34.5298 257.673 35.0765 257.5C35.6365 257.313 36.2498 257.22 36.9165 257.22C37.8232 257.22 38.6365 257.4 39.3565 257.76C40.0765 258.12 40.6498 258.627 41.0765 259.28C41.5165 259.933 41.7365 260.7 41.7365 261.58C41.7365 262.527 41.4965 263.353 41.0165 264.06C40.5498 264.753 39.9165 265.293 39.1165 265.68C38.3298 266.053 37.4365 266.24 36.4365 266.24ZM36.2565 263.82C36.7098 263.82 37.1098 263.74 37.4565 263.58C37.8165 263.407 38.0965 263.16 38.2965 262.84C38.4965 262.52 38.5965 262.153 38.5965 261.74C38.5965 261.1 38.3765 260.593 37.9365 260.22C37.5098 259.833 36.9365 259.64 36.2165 259.64C35.7365 259.64 35.3165 259.733 34.9565 259.92C34.5965 260.093 34.3098 260.34 34.0965 260.66C33.8965 260.967 33.7965 261.327 33.7965 261.74C33.7965 262.14 33.8965 262.5 34.0965 262.82C34.2965 263.127 34.5765 263.373 34.9365 263.56C35.2965 263.733 35.7365 263.82 36.2565 263.82ZM49.4549 266V252H52.1349L60.3949 262.08H59.0949V252H62.2949V266H59.6349L51.3549 255.92H52.6549V266H49.4549ZM70.5073 266.16C69.3606 266.16 68.3406 265.92 67.4473 265.44C66.5673 264.96 65.8673 264.307 65.3473 263.48C64.8406 262.64 64.5873 261.687 64.5873 260.62C64.5873 259.54 64.8406 258.587 65.3473 257.76C65.8673 256.92 66.5673 256.267 67.4473 255.8C68.3406 255.32 69.3606 255.08 70.5073 255.08C71.6406 255.08 72.6539 255.32 73.5473 255.8C74.4406 256.267 75.1406 256.913 75.6473 257.74C76.1539 258.567 76.4073 259.527 76.4073 260.62C76.4073 261.687 76.1539 262.64 75.6473 263.48C75.1406 264.307 74.4406 264.96 73.5473 265.44C72.6539 265.92 71.6406 266.16 70.5073 266.16ZM70.5073 263.6C71.0273 263.6 71.4939 263.48 71.9073 263.24C72.3206 263 72.6473 262.66 72.8873 262.22C73.1273 261.767 73.2473 261.233 73.2473 260.62C73.2473 259.993 73.1273 259.46 72.8873 259.02C72.6473 258.58 72.3206 258.24 71.9073 258C71.4939 257.76 71.0273 257.64 70.5073 257.64C69.9873 257.64 69.5206 257.76 69.1073 258C68.6939 258.24 68.3606 258.58 68.1073 259.02C67.8673 259.46 67.7473 259.993 67.7473 260.62C67.7473 261.233 67.8673 261.767 68.1073 262.22C68.3606 262.66 68.6939 263 69.1073 263.24C69.5206 263.48 69.9873 263.6 70.5073 263.6ZM81.1198 266L76.5998 255.24H79.8198L83.5798 264.5H81.9798L85.8798 255.24H88.8798L84.3398 266H81.1198ZM95.1999 266.16C93.9733 266.16 92.8933 265.92 91.9599 265.44C91.0399 264.96 90.3266 264.307 89.8199 263.48C89.3133 262.64 89.0599 261.687 89.0599 260.62C89.0599 259.54 89.3066 258.587 89.7999 257.76C90.3066 256.92 90.9933 256.267 91.8599 255.8C92.7266 255.32 93.7066 255.08 94.7999 255.08C95.8533 255.08 96.7999 255.307 97.6399 255.76C98.4933 256.2 99.1666 256.84 99.6599 257.68C100.153 258.507 100.4 259.5 100.4 260.66C100.4 260.78 100.393 260.92 100.38 261.08C100.367 261.227 100.353 261.367 100.34 261.5H91.5999V259.68H98.6999L97.4999 260.22C97.4999 259.66 97.3866 259.173 97.1599 258.76C96.9333 258.347 96.6199 258.027 96.2199 257.8C95.8199 257.56 95.3533 257.44 94.8199 257.44C94.2866 257.44 93.8133 257.56 93.3999 257.8C92.9999 258.027 92.6866 258.353 92.4599 258.78C92.2333 259.193 92.1199 259.687 92.1199 260.26V260.74C92.1199 261.327 92.2466 261.847 92.4999 262.3C92.7666 262.74 93.1333 263.08 93.5999 263.32C94.0799 263.547 94.6399 263.66 95.2799 263.66C95.8533 263.66 96.3533 263.573 96.7799 263.4C97.2199 263.227 97.6199 262.967 97.9799 262.62L99.6399 264.42C99.1466 264.98 98.5266 265.413 97.7799 265.72C97.0333 266.013 96.1733 266.16 95.1999 266.16ZM116.257 255.08C117.11 255.08 117.864 255.253 118.517 255.6C119.184 255.933 119.704 256.453 120.077 257.16C120.464 257.853 120.657 258.747 120.657 259.84V266H117.537V260.32C117.537 259.453 117.357 258.813 116.997 258.4C116.637 257.987 116.13 257.78 115.477 257.78C115.024 257.78 114.617 257.887 114.257 258.1C113.897 258.3 113.617 258.607 113.417 259.02C113.217 259.433 113.117 259.96 113.117 260.6V266H109.997V260.32C109.997 259.453 109.817 258.813 109.457 258.4C109.11 257.987 108.61 257.78 107.957 257.78C107.504 257.78 107.097 257.887 106.737 258.1C106.377 258.3 106.097 258.607 105.897 259.02C105.697 259.433 105.597 259.96 105.597 260.6V266H102.477V255.24H105.457V258.18L104.897 257.32C105.27 256.587 105.797 256.033 106.477 255.66C107.17 255.273 107.957 255.08 108.837 255.08C109.824 255.08 110.684 255.333 111.417 255.84C112.164 256.333 112.657 257.093 112.897 258.12L111.797 257.82C112.157 256.98 112.73 256.313 113.517 255.82C114.317 255.327 115.23 255.08 116.257 255.08ZM129.814 266.16C128.867 266.16 128.054 265.96 127.374 265.56C126.694 265.16 126.174 264.553 125.814 263.74C125.454 262.913 125.274 261.873 125.274 260.62C125.274 259.353 125.46 258.313 125.834 257.5C126.22 256.687 126.754 256.08 127.434 255.68C128.114 255.28 128.907 255.08 129.814 255.08C130.827 255.08 131.734 255.307 132.534 255.76C133.347 256.213 133.987 256.853 134.454 257.68C134.934 258.507 135.174 259.487 135.174 260.62C135.174 261.74 134.934 262.713 134.454 263.54C133.987 264.367 133.347 265.013 132.534 265.48C131.734 265.933 130.827 266.16 129.814 266.16ZM123.454 266V251.16H126.574V257.42L126.374 260.6L126.434 263.8V266H123.454ZM129.274 263.6C129.794 263.6 130.254 263.48 130.654 263.24C131.067 263 131.394 262.66 131.634 262.22C131.887 261.767 132.014 261.233 132.014 260.62C132.014 259.993 131.887 259.46 131.634 259.02C131.394 258.58 131.067 258.24 130.654 258C130.254 257.76 129.794 257.64 129.274 257.64C128.754 257.64 128.287 257.76 127.874 258C127.46 258.24 127.134 258.58 126.894 259.02C126.654 259.46 126.534 259.993 126.534 260.62C126.534 261.233 126.654 261.767 126.894 262.22C127.134 262.66 127.46 263 127.874 263.24C128.287 263.48 128.754 263.6 129.274 263.6ZM142.602 266.16C141.376 266.16 140.296 265.92 139.362 265.44C138.442 264.96 137.729 264.307 137.222 263.48C136.716 262.64 136.462 261.687 136.462 260.62C136.462 259.54 136.709 258.587 137.202 257.76C137.709 256.92 138.396 256.267 139.262 255.8C140.129 255.32 141.109 255.08 142.202 255.08C143.256 255.08 144.202 255.307 145.042 255.76C145.896 256.2 146.569 256.84 147.062 257.68C147.556 258.507 147.802 259.5 147.802 260.66C147.802 260.78 147.796 260.92 147.782 261.08C147.769 261.227 147.756 261.367 147.742 261.5H139.002V259.68H146.102L144.902 260.22C144.902 259.66 144.789 259.173 144.562 258.76C144.336 258.347 144.022 258.027 143.622 257.8C143.222 257.56 142.756 257.44 142.222 257.44C141.689 257.44 141.216 257.56 140.802 257.8C140.402 258.027 140.089 258.353 139.862 258.78C139.636 259.193 139.522 259.687 139.522 260.26V260.74C139.522 261.327 139.649 261.847 139.902 262.3C140.169 262.74 140.536 263.08 141.002 263.32C141.482 263.547 142.042 263.66 142.682 263.66C143.256 263.66 143.756 263.573 144.182 263.4C144.622 263.227 145.022 262.967 145.382 262.62L147.042 264.42C146.549 264.98 145.929 265.413 145.182 265.72C144.436 266.013 143.576 266.16 142.602 266.16ZM149.879 266V255.24H152.859V258.28L152.439 257.4C152.759 256.64 153.273 256.067 153.979 255.68C154.686 255.28 155.546 255.08 156.559 255.08V257.96C156.426 257.947 156.306 257.94 156.199 257.94C156.093 257.927 155.979 257.92 155.859 257.92C155.006 257.92 154.313 258.167 153.779 258.66C153.259 259.14 152.999 259.893 152.999 260.92V266H149.879ZM163.377 266V263.9L168.777 258.8C169.203 258.413 169.517 258.067 169.717 257.76C169.917 257.453 170.05 257.173 170.117 256.92C170.197 256.667 170.237 256.433 170.237 256.22C170.237 255.66 170.043 255.233 169.657 254.94C169.283 254.633 168.73 254.48 167.997 254.48C167.41 254.48 166.863 254.593 166.357 254.82C165.863 255.047 165.443 255.4 165.097 255.88L162.737 254.36C163.27 253.56 164.017 252.927 164.977 252.46C165.937 251.993 167.043 251.76 168.297 251.76C169.337 251.76 170.243 251.933 171.017 252.28C171.803 252.613 172.41 253.087 172.837 253.7C173.277 254.313 173.497 255.047 173.497 255.9C173.497 256.353 173.437 256.807 173.317 257.26C173.21 257.7 172.983 258.167 172.637 258.66C172.303 259.153 171.81 259.707 171.157 260.32L166.677 264.54L166.057 263.36H173.957V266H163.377ZM181.294 266.24C180.147 266.24 179.12 265.96 178.214 265.4C177.307 264.827 176.594 264 176.074 262.92C175.554 261.84 175.294 260.533 175.294 259C175.294 257.467 175.554 256.16 176.074 255.08C176.594 254 177.307 253.18 178.214 252.62C179.12 252.047 180.147 251.76 181.294 251.76C182.454 251.76 183.48 252.047 184.374 252.62C185.28 253.18 185.994 254 186.514 255.08C187.034 256.16 187.294 257.467 187.294 259C187.294 260.533 187.034 261.84 186.514 262.92C185.994 264 185.28 264.827 184.374 265.4C183.48 265.96 182.454 266.24 181.294 266.24ZM181.294 263.5C181.84 263.5 182.314 263.347 182.714 263.04C183.127 262.733 183.447 262.247 183.674 261.58C183.914 260.913 184.034 260.053 184.034 259C184.034 257.947 183.914 257.087 183.674 256.42C183.447 255.753 183.127 255.267 182.714 254.96C182.314 254.653 181.84 254.5 181.294 254.5C180.76 254.5 180.287 254.653 179.874 254.96C179.474 255.267 179.154 255.753 178.914 256.42C178.687 257.087 178.574 257.947 178.574 259C178.574 260.053 178.687 260.913 178.914 261.58C179.154 262.247 179.474 262.733 179.874 263.04C180.287 263.347 180.76 263.5 181.294 263.5ZM188.67 266V263.9L194.07 258.8C194.496 258.413 194.81 258.067 195.01 257.76C195.21 257.453 195.343 257.173 195.41 256.92C195.49 256.667 195.53 256.433 195.53 256.22C195.53 255.66 195.336 255.233 194.95 254.94C194.576 254.633 194.023 254.48 193.29 254.48C192.703 254.48 192.156 254.593 191.65 254.82C191.156 255.047 190.736 255.4 190.39 255.88L188.03 254.36C188.563 253.56 189.31 252.927 190.27 252.46C191.23 251.993 192.336 251.76 193.59 251.76C194.63 251.76 195.536 251.933 196.31 252.28C197.096 252.613 197.703 253.087 198.13 253.7C198.57 254.313 198.79 255.047 198.79 255.9C198.79 256.353 198.73 256.807 198.61 257.26C198.503 257.7 198.276 258.167 197.93 258.66C197.596 259.153 197.103 259.707 196.45 260.32L191.97 264.54L191.35 263.36H199.25V266H188.67ZM200.467 266V263.9L205.867 258.8C206.293 258.413 206.607 258.067 206.807 257.76C207.007 257.453 207.14 257.173 207.207 256.92C207.287 256.667 207.327 256.433 207.327 256.22C207.327 255.66 207.133 255.233 206.747 254.94C206.373 254.633 205.82 254.48 205.087 254.48C204.5 254.48 203.953 254.593 203.447 254.82C202.953 255.047 202.533 255.4 202.187 255.88L199.827 254.36C200.36 253.56 201.107 252.927 202.067 252.46C203.027 251.993 204.133 251.76 205.387 251.76C206.427 251.76 207.333 251.933 208.107 252.28C208.893 252.613 209.5 253.087 209.927 253.7C210.367 254.313 210.587 255.047 210.587 255.9C210.587 256.353 210.527 256.807 210.407 257.26C210.3 257.7 210.073 258.167 209.727 258.66C209.393 259.153 208.9 259.707 208.247 260.32L203.767 264.54L203.147 263.36H211.047V266H200.467Z" fill="#EEEEEE"/>
<rect y="167" width="240" height="53" fill="#171717"/>
<path d="M85.2852 204.336C83.7172 204.336 82.2145 204.131 80.7772 203.72C79.3398 203.291 78.1825 202.74 77.3052 202.068L78.8452 198.652C79.6852 199.249 80.6745 199.744 81.8132 200.136C82.9705 200.509 84.1372 200.696 85.3132 200.696C86.2092 200.696 86.9278 200.612 87.4692 200.444C88.0292 200.257 88.4398 200.005 88.7012 199.688C88.9625 199.371 89.0932 199.007 89.0932 198.596C89.0932 198.073 88.8878 197.663 88.4772 197.364C88.0665 197.047 87.5252 196.795 86.8532 196.608C86.1812 196.403 85.4345 196.216 84.6132 196.048C83.8105 195.861 82.9985 195.637 82.1772 195.376C81.3745 195.115 80.6372 194.779 79.9652 194.368C79.2932 193.957 78.7425 193.416 78.3132 192.744C77.9025 192.072 77.6972 191.213 77.6972 190.168C77.6972 189.048 77.9958 188.031 78.5932 187.116C79.2092 186.183 80.1238 185.445 81.3372 184.904C82.5692 184.344 84.1092 184.064 85.9572 184.064C87.1892 184.064 88.4025 184.213 89.5972 184.512C90.7918 184.792 91.8465 185.221 92.7612 185.8L91.3612 189.244C90.4465 188.721 89.5318 188.339 88.6172 188.096C87.7025 187.835 86.8065 187.704 85.9292 187.704C85.0518 187.704 84.3332 187.807 83.7732 188.012C83.2132 188.217 82.8118 188.488 82.5692 188.824C82.3265 189.141 82.2052 189.515 82.2052 189.944C82.2052 190.448 82.4105 190.859 82.8212 191.176C83.2318 191.475 83.7732 191.717 84.4452 191.904C85.1172 192.091 85.8545 192.277 86.6572 192.464C87.4785 192.651 88.2905 192.865 89.0932 193.108C89.9145 193.351 90.6612 193.677 91.3332 194.088C92.0052 194.499 92.5465 195.04 92.9572 195.712C93.3865 196.384 93.6012 197.233 93.6012 198.26C93.6012 199.361 93.2932 200.369 92.6772 201.284C92.0612 202.199 91.1372 202.936 89.9052 203.496C88.6918 204.056 87.1518 204.336 85.2852 204.336ZM106.221 204.336C104.671 204.336 103.234 204.084 101.909 203.58C100.602 203.076 99.4633 202.367 98.4926 201.452C97.5406 200.537 96.794 199.464 96.2526 198.232C95.73 197 95.4686 195.656 95.4686 194.2C95.4686 192.744 95.73 191.4 96.2526 190.168C96.794 188.936 97.55 187.863 98.5206 186.948C99.4913 186.033 100.63 185.324 101.937 184.82C103.243 184.316 104.662 184.064 106.193 184.064C107.742 184.064 109.161 184.316 110.449 184.82C111.755 185.324 112.885 186.033 113.837 186.948C114.807 187.863 115.563 188.936 116.105 190.168C116.646 191.381 116.917 192.725 116.917 194.2C116.917 195.656 116.646 197.009 116.105 198.26C115.563 199.492 114.807 200.565 113.837 201.48C112.885 202.376 111.755 203.076 110.449 203.58C109.161 204.084 107.751 204.336 106.221 204.336ZM106.193 200.472C107.07 200.472 107.873 200.323 108.601 200.024C109.347 199.725 110.001 199.296 110.561 198.736C111.121 198.176 111.55 197.513 111.849 196.748C112.166 195.983 112.325 195.133 112.325 194.2C112.325 193.267 112.166 192.417 111.849 191.652C111.55 190.887 111.121 190.224 110.561 189.664C110.019 189.104 109.375 188.675 108.629 188.376C107.882 188.077 107.07 187.928 106.193 187.928C105.315 187.928 104.503 188.077 103.757 188.376C103.029 188.675 102.385 189.104 101.825 189.664C101.265 190.224 100.826 190.887 100.509 191.652C100.21 192.417 100.061 193.267 100.061 194.2C100.061 195.115 100.21 195.964 100.509 196.748C100.826 197.513 101.255 198.176 101.797 198.736C102.357 199.296 103.01 199.725 103.757 200.024C104.503 200.323 105.315 200.472 106.193 200.472ZM129.846 204.336C128.296 204.336 126.859 204.084 125.534 203.58C124.227 203.076 123.088 202.367 122.118 201.452C121.166 200.537 120.419 199.464 119.878 198.232C119.355 197 119.094 195.656 119.094 194.2C119.094 192.744 119.355 191.4 119.878 190.168C120.419 188.936 121.175 187.863 122.146 186.948C123.116 186.033 124.255 185.324 125.562 184.82C126.868 184.316 128.287 184.064 129.818 184.064C131.367 184.064 132.786 184.316 134.074 184.82C135.38 185.324 136.51 186.033 137.462 186.948C138.432 187.863 139.188 188.936 139.73 190.168C140.271 191.381 140.542 192.725 140.542 194.2C140.542 195.656 140.271 197.009 139.73 198.26C139.188 199.492 138.432 200.565 137.462 201.48C136.51 202.376 135.38 203.076 134.074 203.58C132.786 204.084 131.376 204.336 129.846 204.336ZM129.818 200.472C130.695 200.472 131.498 200.323 132.226 200.024C132.972 199.725 133.626 199.296 134.186 198.736C134.746 198.176 135.175 197.513 135.474 196.748C135.791 195.983 135.95 195.133 135.95 194.2C135.95 193.267 135.791 192.417 135.474 191.652C135.175 190.887 134.746 190.224 134.186 189.664C133.644 189.104 133 188.675 132.254 188.376C131.507 188.077 130.695 187.928 129.818 187.928C128.94 187.928 128.128 188.077 127.382 188.376C126.654 188.675 126.01 189.104 125.45 189.664C124.89 190.224 124.451 190.887 124.134 191.652C123.835 192.417 123.686 193.267 123.686 194.2C123.686 195.115 123.835 195.964 124.134 196.748C124.451 197.513 124.88 198.176 125.422 198.736C125.982 199.296 126.635 199.725 127.382 200.024C128.128 200.323 128.94 200.472 129.818 200.472ZM143.951 204V184.4H147.703L159.267 198.512H157.447V184.4H161.927V204H158.203L146.611 189.888H148.431V204H143.951Z" fill="#EEEEEE"/>
<g opacity="0.75">
<path d="M92.8411 132.875L92.8813 133.782L92.0271 134.785L91.1673 135.562C89.6162 136.963 87.8988 140.049 87.8988 141.435C87.8988 142.134 87.7701 142.445 87.4802 142.445C87.2502 142.445 86.6056 142.701 86.0481 143.014C84.8651 143.677 84.4822 143.724 84.4822 143.209C84.4822 143.004 84.2578 142.581 83.9839 142.269C83.3194 141.513 82.4892 139.941 82.4892 139.44C82.4892 139.218 82.3915 139.037 82.2719 139.037C82.1526 139.037 81.9283 138.787 81.7737 138.481C81.6191 138.175 80.948 136.876 80.2826 135.594C79.0088 133.14 78.8166 132.217 79.4678 131.678C79.761 131.435 79.8017 131.08 79.6258 130.301C79.1922 128.383 77.8483 128 76.4489 129.397C75.7969 130.047 75.6589 130.348 75.9014 130.59C76.0797 130.767 76.2254 131.335 76.2254 131.85C76.2254 132.366 76.3536 132.788 76.5101 132.788C76.6667 132.788 76.7949 133.107 76.7949 133.498C76.7949 133.94 76.9563 134.208 77.2219 134.208C77.4568 134.208 77.649 134.389 77.649 134.61C77.649 134.832 77.745 135.055 77.8625 135.107C78.1552 135.237 79.0726 137.255 79.0726 137.768C79.0726 137.997 79.1705 138.185 79.2901 138.185C79.5125 138.185 80.4962 140.252 80.4962 140.72C80.4962 140.862 80.5921 141.02 80.7097 141.073C80.8273 141.125 81.143 141.642 81.4118 142.222C81.8728 143.217 81.8731 143.304 81.4132 143.762C81.0505 144.124 80.9258 144.736 80.9247 146.163C80.9238 147.217 80.8273 148.175 80.7097 148.292C80.3194 148.682 80.5016 149.963 81.0479 150.673C81.5781 151.361 81.5775 151.386 81.0126 152.177C80.5124 152.878 80.4836 153.092 80.7894 153.828C81.0938 154.561 81.069 154.759 80.6049 155.306C80.3102 155.654 79.9922 156.002 79.8983 156.08C79.8043 156.158 79.6543 156.414 79.5649 156.648L239.253 156.909C239.179 156.687 239.061 153.119 238.99 148.979C238.919 144.839 238.729 141.068 238.568 140.599C238.407 140.13 238.053 139.044 237.782 138.185C237.51 137.325 237.083 136.429 236.833 136.194C236.081 135.486 234.86 134.776 234.395 134.776C234.155 134.776 233.958 134.662 233.958 134.523C233.958 134.385 233.509 134.187 232.961 134.085C232.413 133.982 231.965 133.776 231.965 133.627C231.965 133.478 231.826 133.356 231.655 133.356C230.887 133.356 228.754 131.448 228.224 130.286C227.664 129.06 227.693 127.6 228.285 127.235C228.43 127.146 228.548 126.759 228.548 126.376C228.548 125.992 228.707 125.425 228.902 125.114C229.183 124.664 229.182 124.434 228.895 123.975C228.623 123.542 228.613 123.255 228.854 122.807C229.576 121.461 228.551 118.918 226.945 118.07C223.77 116.392 221.444 116.672 219.016 119.024L217.952 120.055L218.139 122.089C218.242 123.208 218.319 124.667 218.31 125.331C218.3 125.995 218.422 126.538 218.581 126.538C218.739 126.538 218.868 126.836 218.868 127.201C218.868 127.61 219.13 128.003 219.556 128.23C220.413 128.688 220.574 129.283 220.372 131.242C220.264 132.278 220.084 132.788 219.824 132.788C219.612 132.788 219.437 132.902 219.437 133.042C219.437 133.182 218.348 133.834 217.017 134.492C215.686 135.15 214.597 135.802 214.597 135.942C214.597 136.082 214.427 136.196 214.218 136.196C213.86 136.196 213.658 136.512 212.948 138.185C212.783 138.575 212.568 140.4 212.471 142.24C212.374 144.08 212.181 145.87 212.041 146.217L211.786 146.848L211.768 146.215C211.75 145.577 210.602 141.956 209.963 140.52C209.773 140.095 209.384 139.491 209.096 139.179C208.809 138.866 208.38 138.285 208.142 137.888C207.904 137.49 207.274 136.866 206.74 136.502C206.207 136.137 205.771 135.728 205.771 135.592C205.771 135.455 205.547 135.344 205.273 135.345C204.999 135.345 204.262 135.101 203.636 134.801C203.009 134.501 202.133 134.115 201.689 133.943L200.881 133.629L201.475 132.624C201.911 131.888 202.07 131.134 202.07 129.806C202.07 128.808 202.194 127.915 202.347 127.821C202.858 127.506 203.196 125.585 202.938 124.458C202.671 123.29 202.21 122.818 200.646 122.106C200.098 121.857 199.184 121.41 198.614 121.113C197.41 120.485 196.71 120.44 195.606 120.919C194.697 121.313 191.831 124.227 191.824 124.763C191.822 124.958 191.692 125.118 191.535 125.118C191.379 125.118 191.251 125.725 191.251 126.467C191.251 127.497 191.42 128.012 191.963 128.642C192.354 129.096 192.677 129.671 192.68 129.92C192.684 130.169 192.937 130.693 193.243 131.083C193.55 131.474 193.798 131.985 193.796 132.22C193.791 132.811 191.871 134.208 191.062 134.208C190.696 134.208 190.396 134.336 190.396 134.492C190.396 134.648 190.136 134.776 189.817 134.776C189.247 134.776 188.053 135.418 187.315 136.122C187.108 136.319 186.852 136.481 186.746 136.482C186.639 136.482 186.143 136.866 185.643 137.334C184.588 138.32 184.133 138.41 184.133 137.633C184.133 137.33 184.022 137.014 183.887 136.931C183.753 136.848 183.556 135.913 183.45 134.855C183.197 132.317 183.198 132.546 183.43 131.039C183.608 129.877 183.543 129.598 182.886 128.74C182.325 128.005 182.14 127.431 182.14 126.424C182.14 125.603 182.029 125.152 181.855 125.26C181.698 125.357 181.57 125.801 181.57 126.248C181.57 127.231 181.315 127.959 180.97 127.959C180.83 127.959 180.716 127.767 180.716 127.533C180.716 127.298 180.588 127.107 180.431 127.107C180.275 127.107 180.147 126.851 180.147 126.538C180.147 125.988 179.845 125.798 179.507 126.136C179.415 126.226 179.522 126.734 179.744 127.262C179.965 127.792 180.147 128.921 180.147 129.772C180.147 130.663 180.282 131.365 180.466 131.426C180.832 131.548 180.996 137.992 180.642 138.35C180.523 138.471 180.17 138.297 179.859 137.963C179.437 137.511 179.292 136.961 179.292 135.811C179.292 134.411 179.202 134.188 178.325 133.419C177.392 132.602 177.351 132.478 177.159 129.91C176.839 125.627 176.824 124.809 177.064 124.662C177.188 124.585 177.264 123.115 177.232 121.395C177.171 118.103 176.948 117.868 176.101 120.205C175.657 121.428 175.362 121.391 175.252 120.098C175.204 119.524 174.998 119 174.795 118.934C174.499 118.837 174.457 119.696 174.581 123.27C174.666 125.721 174.81 127.846 174.9 127.991C174.99 128.137 174.898 129.148 174.696 130.238C174.345 132.128 174.292 132.22 173.536 132.22C172.665 132.22 172.522 131.799 173.155 131.101C173.566 130.648 173.712 129.595 173.638 127.618C173.597 126.539 172.917 125.596 171.679 124.905C170.918 124.48 169.148 124.435 168.9 124.834C168.803 124.99 168.528 125.118 168.288 125.118C167.373 125.118 166.784 126.311 166.774 128.19L166.765 129.983L165.842 129.894C164.633 129.777 164.538 129.169 165.494 127.659C166.01 126.843 166.201 126.229 166.098 125.72C165.543 122.981 165.299 122.124 165.047 122.039C164.89 121.986 164.556 121.738 164.305 121.487C163.322 120.506 159.676 121.16 159.158 122.41C158.528 123.932 159.362 128.527 160.269 128.527C160.648 128.527 160.534 129.103 160.06 129.575C159.738 129.897 159.317 129.967 158.491 129.835C157.65 129.701 157.072 129.803 156.227 130.233C155.275 130.717 155.092 130.741 155.092 130.379C155.092 130.141 155.213 129.947 155.362 129.947C155.51 129.947 155.615 129.036 155.594 127.919C155.564 126.299 155.438 125.764 154.968 125.256C154.645 124.905 154.149 124.284 153.868 123.875C153.461 123.282 153.126 123.13 152.227 123.13C151.013 123.13 150.258 123.458 149.074 124.501L148.323 125.162L148.468 123.791C148.547 123.037 148.84 121.757 149.118 120.948C149.524 119.769 149.546 119.507 149.226 119.629C149.007 119.713 148.828 119.864 148.828 119.965C148.827 120.065 148.507 120.518 148.116 120.973L147.404 121.798V121.06C147.404 120.654 147.276 120.244 147.12 120.147C146.963 120.051 146.835 119.716 146.835 119.404C146.835 119.091 146.707 118.914 146.55 119.011C146.394 119.108 146.265 119.491 146.265 119.863C146.265 120.235 146.394 120.619 146.55 120.715C147.04 121.018 146.861 121.636 146.237 121.799C145.693 121.941 145.655 122.093 145.818 123.466C145.917 124.296 146.07 126.382 146.158 128.101L146.317 131.225L145.65 130.62C144.748 129.8 143.095 129.482 141.579 129.838C140.684 130.048 140.396 130.238 139.261 131.367C138.503 132.121 138.515 131.889 139.034 135.77C139.128 136.473 139.118 137.048 139.012 137.048C138.772 137.048 137.155 135.451 137.155 135.214C137.155 135.119 136.802 134.676 136.372 134.231C135.941 133.785 135.382 133.118 135.13 132.749C134.469 131.782 132.297 131.188 131.152 131.661C130.42 131.964 130.216 131.952 129.85 131.587C129.461 131.199 129.492 131.032 130.153 129.988C130.559 129.347 130.891 128.683 130.891 128.512C130.891 128.342 131.083 128.01 131.318 127.776C131.639 127.456 131.745 126.664 131.745 124.583C131.745 121.922 131.714 121.786 130.946 121.052C130.507 120.633 129.995 120.289 129.807 120.289C129.62 120.289 129.467 120.161 129.467 120.005C129.467 119.622 127.098 119.642 126.711 120.028C126.49 120.249 126.231 120.229 125.798 119.959C125.272 119.631 125.025 119.671 123.913 120.259C123.21 120.631 122.634 121.091 122.634 121.279C122.634 121.468 122.432 122.027 122.184 122.522C121.771 123.347 121.775 123.611 122.225 125.691C122.495 126.938 122.816 127.959 122.937 127.959C123.059 127.959 123.242 128.341 123.345 128.808C123.448 129.274 123.65 129.729 123.795 129.819C124.205 130.071 124.106 131.367 123.676 131.367C123.243 131.367 122.634 132.537 122.634 133.369C122.634 133.674 122.506 133.924 122.35 133.924C121.895 133.924 119.787 136.087 119.787 136.554C119.787 137.316 119.053 137.696 118.386 137.281C117.957 137.014 117.794 136.618 117.794 135.844C117.794 135.257 117.666 134.776 117.509 134.776C117.353 134.776 117.221 134.233 117.218 133.569C117.214 132.905 117.077 131.85 116.914 131.225C116.751 130.6 116.52 129.642 116.401 129.095C115.981 127.16 115.233 126.179 113.685 125.534C111.643 124.683 109.728 125.085 108.296 126.665C107.775 127.239 106.121 130.581 106.121 131.058C106.121 131.192 105.929 131.668 105.695 132.116C105.461 132.563 105.269 133.217 105.268 133.569C105.267 133.92 105.138 134.208 104.982 134.208C104.825 134.208 104.697 134.905 104.697 135.756C104.697 136.928 104.817 137.371 105.189 137.579C105.652 137.837 105.649 137.89 105.145 138.445C104.533 139.12 103.273 139.247 103.273 138.634C103.273 137.868 102.272 136.336 100.908 135.015C100.099 134.231 99.4246 133.273 99.2578 132.67C99.1029 132.11 98.8538 131.651 98.7046 131.651C98.2348 131.651 98.4076 131.028 99.145 130.064C99.5368 129.552 99.8568 128.752 99.8568 128.285C99.8568 127.819 100.007 127.388 100.191 127.327C100.398 127.258 100.534 126.515 100.547 125.375C100.567 123.656 100.507 123.473 99.6336 122.622C99.1191 122.12 98.454 121.709 98.1556 121.709C97.857 121.709 97.5335 121.582 97.4367 121.425C97.1327 120.935 94.5147 121.091 93.857 121.638C91.6624 123.467 91.8489 123.03 91.6769 126.752C91.528 129.977 91.5556 130.223 92.1598 131.07C92.5126 131.564 92.8189 132.376 92.8411 132.875Z" fill="black"/>
<path d="M26.5066 131.242C27.2115 128.07 27.5904 127.484 29.1759 127.112C32.0989 126.426 34.6451 127.609 36.0507 130.305C36.5407 131.245 36.6282 131.67 36.6256 133.093C36.6237 134.083 36.4624 135.333 36.233 136.137C36.0188 136.887 35.8018 137.895 35.7509 138.375C35.6704 139.136 35.7296 139.296 36.2047 139.605C37.0766 140.173 37.2771 139.916 37.5711 137.852C37.9596 135.125 38.4173 134.35 40.3154 133.206C42.3971 131.951 43.3825 131.928 45.5886 133.085C47.4067 134.038 48.0573 134.797 48.3935 136.355C48.576 137.201 48.8236 137.663 49.3508 138.143C50.1339 138.856 50.2165 139.257 49.7526 140.093C49.5826 140.399 49.2906 141.216 49.1037 141.909C48.917 142.602 48.613 143.72 48.4284 144.395C48.0374 145.823 48.2225 146.699 48.9375 146.801C49.1998 146.839 49.9626 146.487 50.7598 145.961C51.5141 145.464 52.5301 144.821 53.018 144.533C53.547 144.22 54.1245 143.627 54.4489 143.063C54.748 142.544 55.2615 141.848 55.5902 141.517C56.2991 140.802 56.2932 140.874 55.7881 139.108C54.9996 136.351 54.8553 135.032 55.1244 133.044C55.5055 130.228 55.7472 129.499 56.6324 128.5C57.5711 127.441 58.5819 126.901 59.6298 126.901C60.6515 126.901 63.1003 127.669 64.0671 128.293C65.5419 129.244 66.2697 130.822 66.6543 133.901L66.7815 134.92L67.5573 134.786C69.6781 134.419 69.9461 134.425 71.4425 134.877C75.2189 136.017 76.4178 137.428 76.6257 140.976C76.7455 143.021 76.4123 144.483 75.3942 146.379C74.6057 147.847 74.5605 149.086 75.2709 149.749C75.5431 150.003 76.5173 150.499 77.436 150.85C78.3544 151.202 79.3912 151.701 79.7397 151.96C80.7004 152.673 82.3889 153.558 82.789 153.558C82.9844 153.558 83.3289 153.42 83.5545 153.25C84.1352 152.814 85.0781 152.871 86.1824 153.409C87.3723 153.99 87.8714 155.002 87.8719 156.606H0C0 156.606 0.580256 154.499 1.29971 153.835C2.79122 152.456 5.06216 152.67 6.83862 154.356C7.28875 154.783 7.69411 155.034 7.73931 154.914C8.1415 153.844 8.65436 153.237 9.21201 153.174C9.95935 153.088 10.934 152.392 12.4671 150.849C13.9799 149.326 14.575 148.474 14.575 147.83C14.575 147.524 14.1893 146.844 13.6396 146.181C11.7854 143.943 11.206 140.902 12.2474 138.873C12.7417 137.91 14.1027 136.672 15.1512 136.231C19.1515 134.548 24.603 136.665 25.3387 140.187C25.4726 140.828 25.7164 141.463 25.8803 141.598C26.2903 141.936 27.2237 141.603 27.721 140.941C28.1094 140.424 28.1062 140.404 27.3781 138.855C26.3714 136.713 26.0041 133.504 26.5066 131.242Z" fill="black"/>
</g>
<path d="M58.008 56V33.6H67.224C69.208 33.6 70.904 33.92 72.312 34.56C73.7413 35.2 74.84 36.1173 75.608 37.312C76.376 38.5067 76.76 39.9253 76.76 41.568C76.76 43.2107 76.376 44.6293 75.608 45.824C74.84 46.9973 73.7413 47.904 72.312 48.544C70.904 49.1627 69.208 49.472 67.224 49.472H60.312L62.168 47.584V56H58.008ZM72.664 56L67 47.872H71.448L77.144 56H72.664ZM62.168 48.032L60.312 46.048H67.032C68.8667 46.048 70.2427 45.6533 71.16 44.864C72.0987 44.0747 72.568 42.976 72.568 41.568C72.568 40.1387 72.0987 39.04 71.16 38.272C70.2427 37.504 68.8667 37.12 67.032 37.12H60.312L62.168 35.072V48.032ZM89.0623 56.224C87.1636 56.224 85.4996 55.8507 84.0703 55.104C82.6623 54.336 81.5636 53.2907 80.7743 51.968C80.0063 50.6453 79.6223 49.1413 79.6223 47.456C79.6223 45.7493 79.9956 44.2453 80.7423 42.944C81.5103 41.6213 82.5556 40.5867 83.8783 39.84C85.2223 39.0933 86.7476 38.72 88.4543 38.72C90.1183 38.72 91.6009 39.0827 92.9023 39.808C94.2036 40.5333 95.2276 41.5573 95.9743 42.88C96.7209 44.2027 97.0943 45.76 97.0943 47.552C97.0943 47.7227 97.0836 47.9147 97.0623 48.128C97.0623 48.3413 97.0516 48.544 97.0303 48.736H82.7903V46.08H94.9183L93.3503 46.912C93.3716 45.9307 93.1689 45.0667 92.7423 44.32C92.3156 43.5733 91.7289 42.9867 90.9823 42.56C90.2569 42.1333 89.4143 41.92 88.4543 41.92C87.4729 41.92 86.6089 42.1333 85.8623 42.56C85.1369 42.9867 84.5609 43.584 84.1343 44.352C83.7289 45.0987 83.5263 45.984 83.5263 47.008V47.648C83.5263 48.672 83.7609 49.5787 84.2303 50.368C84.6996 51.1573 85.3609 51.7653 86.2143 52.192C87.0676 52.6187 88.0489 52.832 89.1583 52.832C90.1183 52.832 90.9823 52.6827 91.7503 52.384C92.5183 52.0853 93.2009 51.616 93.7983 50.976L95.9423 53.44C95.1743 54.336 94.2036 55.0293 93.0303 55.52C91.8783 55.9893 90.5556 56.224 89.0623 56.224ZM108.681 62.432C107.102 62.432 105.555 62.2187 104.041 61.792C102.547 61.3867 101.321 60.7893 100.361 60L102.153 56.992C102.899 57.6107 103.838 58.1013 104.969 58.464C106.121 58.848 107.283 59.04 108.457 59.04C110.334 59.04 111.71 58.6027 112.585 57.728C113.459 56.8747 113.897 55.584 113.897 53.856V50.816L114.217 46.944L114.089 43.072V38.912H117.897V53.408C117.897 56.5013 117.107 58.7733 115.529 60.224C113.95 61.696 111.667 62.432 108.681 62.432ZM108.169 55.232C106.547 55.232 105.075 54.8907 103.753 54.208C102.451 53.504 101.417 52.5333 100.649 51.296C99.9018 50.0587 99.5285 48.608 99.5285 46.944C99.5285 45.3013 99.9018 43.8613 100.649 42.624C101.417 41.3867 102.451 40.4267 103.753 39.744C105.075 39.0613 106.547 38.72 108.169 38.72C109.619 38.72 110.921 39.008 112.073 39.584C113.225 40.16 114.142 41.056 114.825 42.272C115.529 43.488 115.881 45.0453 115.881 46.944C115.881 48.8427 115.529 50.4107 114.825 51.648C114.142 52.864 113.225 53.7707 112.073 54.368C110.921 54.944 109.619 55.232 108.169 55.232ZM108.777 51.84C109.779 51.84 110.675 51.6373 111.465 51.232C112.254 50.8053 112.862 50.2293 113.289 49.504C113.737 48.7573 113.961 47.904 113.961 46.944C113.961 45.984 113.737 45.1413 113.289 44.416C112.862 43.6693 112.254 43.104 111.465 42.72C110.675 42.3147 109.779 42.112 108.777 42.112C107.774 42.112 106.867 42.3147 106.057 42.72C105.267 43.104 104.649 43.6693 104.201 44.416C103.774 45.1413 103.561 45.984 103.561 46.944C103.561 47.904 103.774 48.7573 104.201 49.504C104.649 50.2293 105.267 50.8053 106.057 51.232C106.867 51.6373 107.774 51.84 108.777 51.84ZM130.387 56.224C128.937 56.224 127.657 55.9573 126.547 55.424C125.438 54.8693 124.574 54.0373 123.955 52.928C123.337 51.7973 123.027 50.3787 123.027 48.672V38.912H127.027V48.128C127.027 49.664 127.369 50.816 128.051 51.584C128.755 52.3307 129.747 52.704 131.027 52.704C131.966 52.704 132.777 52.512 133.459 52.128C134.163 51.744 134.707 51.168 135.091 50.4C135.497 49.632 135.699 48.6827 135.699 47.552V38.912H139.699V56H135.891V51.392L136.563 52.8C135.987 53.9093 135.145 54.7627 134.035 55.36C132.926 55.936 131.71 56.224 130.387 56.224ZM144.937 56V32.256H148.937V56H144.937ZM164.715 56V52.544L164.491 51.808V45.76C164.491 44.5867 164.139 43.68 163.435 43.04C162.731 42.3787 161.664 42.048 160.235 42.048C159.275 42.048 158.325 42.1973 157.387 42.496C156.469 42.7947 155.691 43.2107 155.051 43.744L153.483 40.832C154.4 40.128 155.488 39.6053 156.747 39.264C158.027 38.9013 159.349 38.72 160.715 38.72C163.189 38.72 165.099 39.3173 166.443 40.512C167.808 41.6853 168.491 43.5093 168.491 45.984V56H164.715ZM159.339 56.224C158.059 56.224 156.939 56.0107 155.979 55.584C155.019 55.136 154.272 54.528 153.739 53.76C153.227 52.9707 152.971 52.0853 152.971 51.104C152.971 50.144 153.195 49.28 153.643 48.512C154.112 47.744 154.869 47.136 155.915 46.688C156.96 46.24 158.347 46.016 160.075 46.016H165.035V48.672H160.363C158.997 48.672 158.08 48.896 157.611 49.344C157.141 49.7707 156.907 50.304 156.907 50.944C156.907 51.6693 157.195 52.2453 157.771 52.672C158.347 53.0987 159.147 53.312 160.171 53.312C161.152 53.312 162.027 53.088 162.795 52.64C163.584 52.192 164.149 51.5307 164.491 50.656L165.163 53.056C164.779 54.0587 164.085 54.8373 163.083 55.392C162.101 55.9467 160.853 56.224 159.339 56.224ZM173.624 56V38.912H177.432V43.616L176.984 42.24C177.496 41.088 178.296 40.2133 179.384 39.616C180.493 39.0187 181.869 38.72 183.512 38.72V42.528C183.341 42.4853 183.181 42.464 183.032 42.464C182.883 42.4427 182.733 42.432 182.584 42.432C181.069 42.432 179.864 42.88 178.968 43.776C178.072 44.6507 177.624 45.9627 177.624 47.712V56H173.624Z" fill="black"/>
<path d="M37.256 90V73.2H44.168C45.656 73.2 46.928 73.44 47.984 73.92C49.056 74.4 49.88 75.088 50.456 75.984C51.032 76.88 51.32 77.944 51.32 79.176C51.32 80.408 51.032 81.472 50.456 82.368C49.88 83.248 49.056 83.928 47.984 84.408C46.928 84.872 45.656 85.104 44.168 85.104H38.984L40.376 83.688V90H37.256ZM48.248 90L44 83.904H47.336L51.608 90H48.248ZM40.376 84.024L38.984 82.536H44.024C45.4 82.536 46.432 82.24 47.12 81.648C47.824 81.056 48.176 80.232 48.176 79.176C48.176 78.104 47.824 77.28 47.12 76.704C46.432 76.128 45.4 75.84 44.024 75.84H38.984L40.376 74.304V84.024ZM61.6267 90.168C60.5867 90.168 59.6347 89.928 58.7707 89.448C57.9227 88.968 57.2427 88.248 56.7307 87.288C56.2347 86.312 55.9867 85.08 55.9867 83.592C55.9867 82.088 56.2267 80.856 56.7067 79.896C57.2027 78.936 57.8747 78.224 58.7227 77.76C59.5707 77.28 60.5387 77.04 61.6267 77.04C62.8907 77.04 64.0027 77.312 64.9627 77.856C65.9387 78.4 66.7067 79.16 67.2667 80.136C67.8427 81.112 68.1307 82.264 68.1307 83.592C68.1307 84.92 67.8427 86.08 67.2667 87.072C66.7067 88.048 65.9387 88.808 64.9627 89.352C64.0027 89.896 62.8907 90.168 61.6267 90.168ZM54.5227 94.656V77.184H57.3787V80.208L57.2827 83.616L57.5227 87.024V94.656H54.5227ZM61.2907 87.6C62.0107 87.6 62.6507 87.44 63.2107 87.12C63.7867 86.8 64.2427 86.336 64.5787 85.728C64.9147 85.12 65.0827 84.408 65.0827 83.592C65.0827 82.76 64.9147 82.048 64.5787 81.456C64.2427 80.848 63.7867 80.384 63.2107 80.064C62.6507 79.744 62.0107 79.584 61.2907 79.584C60.5707 79.584 59.9227 79.744 59.3467 80.064C58.7707 80.384 58.3147 80.848 57.9787 81.456C57.6427 82.048 57.4747 82.76 57.4747 83.592C57.4747 84.408 57.6427 85.12 57.9787 85.728C58.3147 86.336 58.7707 86.8 59.3467 87.12C59.9227 87.44 60.5707 87.6 61.2907 87.6ZM79.3846 90V74.4L80.7526 75.816H75.8326V73.2H82.5046V90H79.3846ZM85.6213 90V87.912L92.2933 81.576C92.8533 81.048 93.2693 80.584 93.5413 80.184C93.8133 79.784 93.9893 79.416 94.0693 79.08C94.1653 78.728 94.2133 78.4 94.2133 78.096C94.2133 77.328 93.9493 76.736 93.4213 76.32C92.8933 75.888 92.1173 75.672 91.0933 75.672C90.2773 75.672 89.5333 75.816 88.8613 76.104C88.2053 76.392 87.6373 76.832 87.1573 77.424L84.9733 75.744C85.6293 74.864 86.5093 74.184 87.6133 73.704C88.7333 73.208 89.9813 72.96 91.3573 72.96C92.5733 72.96 93.6293 73.16 94.5253 73.56C95.4373 73.944 96.1333 74.496 96.6133 75.216C97.1093 75.936 97.3573 76.792 97.3573 77.784C97.3573 78.328 97.2853 78.872 97.1413 79.416C96.9973 79.944 96.7253 80.504 96.3253 81.096C95.9253 81.688 95.3413 82.352 94.5733 83.088L88.8373 88.536L88.1893 87.36H98.0052V90H85.6213ZM105.47 72.96C107.006 72.96 108.31 73.288 109.382 73.944C110.47 74.584 111.302 75.52 111.878 76.752C112.454 77.984 112.742 79.504 112.742 81.312C112.742 83.232 112.39 84.856 111.686 86.184C110.998 87.512 110.038 88.52 108.806 89.208C107.574 89.896 106.142 90.24 104.51 90.24C103.662 90.24 102.854 90.152 102.086 89.976C101.318 89.8 100.654 89.528 100.094 89.16L101.246 86.808C101.71 87.112 102.214 87.328 102.758 87.456C103.302 87.568 103.862 87.624 104.438 87.624C106.022 87.624 107.278 87.136 108.206 86.16C109.134 85.184 109.598 83.744 109.598 81.84C109.598 81.536 109.59 81.184 109.574 80.784C109.558 80.368 109.502 79.952 109.406 79.536L110.366 80.592C110.094 81.248 109.702 81.8 109.19 82.248C108.678 82.68 108.078 83.008 107.39 83.232C106.702 83.456 105.942 83.568 105.11 83.568C104.022 83.568 103.038 83.36 102.158 82.944C101.294 82.512 100.606 81.912 100.094 81.144C99.582 80.36 99.326 79.448 99.326 78.408C99.326 77.288 99.598 76.328 100.142 75.528C100.686 74.712 101.422 74.08 102.35 73.632C103.294 73.184 104.334 72.96 105.47 72.96ZM105.638 75.408C104.998 75.408 104.43 75.528 103.934 75.768C103.438 75.992 103.046 76.32 102.758 76.752C102.486 77.168 102.35 77.672 102.35 78.264C102.35 79.144 102.654 79.84 103.262 80.352C103.87 80.864 104.686 81.12 105.71 81.12C106.382 81.12 106.974 81 107.486 80.76C107.998 80.504 108.398 80.16 108.686 79.728C108.974 79.28 109.118 78.784 109.118 78.24C109.118 77.712 108.982 77.24 108.71 76.824C108.438 76.392 108.046 76.048 107.534 75.792C107.022 75.536 106.39 75.408 105.638 75.408ZM116.444 90.168C115.9 90.168 115.436 89.984 115.052 89.616C114.668 89.232 114.476 88.752 114.476 88.176C114.476 87.568 114.668 87.088 115.052 86.736C115.436 86.368 115.9 86.184 116.444 86.184C116.988 86.184 117.452 86.368 117.836 86.736C118.22 87.088 118.412 87.568 118.412 88.176C118.412 88.752 118.22 89.232 117.836 89.616C117.452 89.984 116.988 90.168 116.444 90.168ZM127.158 90.24C125.83 90.24 124.63 89.904 123.558 89.232C122.502 88.56 121.67 87.584 121.062 86.304C120.454 85.008 120.15 83.44 120.15 81.6C120.15 79.76 120.454 78.2 121.062 76.92C121.67 75.624 122.502 74.64 123.558 73.968C124.63 73.296 125.83 72.96 127.158 72.96C128.502 72.96 129.702 73.296 130.758 73.968C131.814 74.64 132.646 75.624 133.254 76.92C133.878 78.2 134.19 79.76 134.19 81.6C134.19 83.44 133.878 85.008 133.254 86.304C132.646 87.584 131.814 88.56 130.758 89.232C129.702 89.904 128.502 90.24 127.158 90.24ZM127.158 87.528C127.942 87.528 128.622 87.32 129.198 86.904C129.774 86.472 130.222 85.816 130.542 84.936C130.878 84.056 131.046 82.944 131.046 81.6C131.046 80.24 130.878 79.128 130.542 78.264C130.222 77.384 129.774 76.736 129.198 76.32C128.622 75.888 127.942 75.672 127.158 75.672C126.406 75.672 125.734 75.888 125.142 76.32C124.566 76.736 124.11 77.384 123.774 78.264C123.454 79.128 123.294 80.24 123.294 81.6C123.294 82.944 123.454 84.056 123.774 84.936C124.11 85.816 124.566 86.472 125.142 86.904C125.734 87.32 126.406 87.528 127.158 87.528ZM143.306 90.24C141.978 90.24 140.778 89.904 139.706 89.232C138.65 88.56 137.818 87.584 137.21 86.304C136.602 85.008 136.298 83.44 136.298 81.6C136.298 79.76 136.602 78.2 137.21 76.92C137.818 75.624 138.65 74.64 139.706 73.968C140.778 73.296 141.978 72.96 143.306 72.96C144.65 72.96 145.85 73.296 146.906 73.968C147.962 74.64 148.794 75.624 149.402 76.92C150.026 78.2 150.338 79.76 150.338 81.6C150.338 83.44 150.026 85.008 149.402 86.304C148.794 87.584 147.962 88.56 146.906 89.232C145.85 89.904 144.65 90.24 143.306 90.24ZM143.306 87.528C144.09 87.528 144.77 87.32 145.346 86.904C145.922 86.472 146.37 85.816 146.69 84.936C147.026 84.056 147.194 82.944 147.194 81.6C147.194 80.24 147.026 79.128 146.69 78.264C146.37 77.384 145.922 76.736 145.346 76.32C144.77 75.888 144.09 75.672 143.306 75.672C142.554 75.672 141.882 75.888 141.29 76.32C140.714 76.736 140.258 77.384 139.922 78.264C139.602 79.128 139.442 80.24 139.442 81.6C139.442 82.944 139.602 84.056 139.922 84.936C140.258 85.816 140.714 86.472 141.29 86.904C141.882 87.32 142.554 87.528 143.306 87.528ZM159.455 90.24C158.127 90.24 156.927 89.904 155.855 89.232C154.799 88.56 153.967 87.584 153.359 86.304C152.751 85.008 152.447 83.44 152.447 81.6C152.447 79.76 152.751 78.2 153.359 76.92C153.967 75.624 154.799 74.64 155.855 73.968C156.927 73.296 158.127 72.96 159.455 72.96C160.799 72.96 161.999 73.296 163.055 73.968C164.111 74.64 164.943 75.624 165.551 76.92C166.175 78.2 166.487 79.76 166.487 81.6C166.487 83.44 166.175 85.008 165.551 86.304C164.943 87.584 164.111 88.56 163.055 89.232C161.999 89.904 160.799 90.24 159.455 90.24ZM159.455 87.528C160.239 87.528 160.919 87.32 161.495 86.904C162.071 86.472 162.519 85.816 162.839 84.936C163.175 84.056 163.343 82.944 163.343 81.6C163.343 80.24 163.175 79.128 162.839 78.264C162.519 77.384 162.071 76.736 161.495 76.32C160.919 75.888 160.239 75.672 159.455 75.672C158.703 75.672 158.031 75.888 157.439 76.32C156.863 76.736 156.407 77.384 156.071 78.264C155.751 79.128 155.591 80.24 155.591 81.6C155.591 82.944 155.751 84.056 156.071 84.936C156.407 85.816 156.863 86.472 157.439 86.904C158.031 87.32 158.703 87.528 159.455 87.528ZM168.434 93.624L169.826 88.32L170.234 90.096C169.674 90.096 169.202 89.928 168.818 89.592C168.45 89.24 168.266 88.768 168.266 88.176C168.266 87.568 168.45 87.088 168.818 86.736C169.202 86.368 169.666 86.184 170.21 86.184C170.77 86.184 171.234 86.368 171.602 86.736C171.97 87.104 172.154 87.584 172.154 88.176C172.154 88.336 172.138 88.512 172.106 88.704C172.074 88.88 172.018 89.088 171.938 89.328C171.874 89.568 171.762 89.872 171.602 90.24L170.378 93.624H168.434ZM180.9 90.24C179.572 90.24 178.372 89.904 177.3 89.232C176.244 88.56 175.412 87.584 174.804 86.304C174.196 85.008 173.892 83.44 173.892 81.6C173.892 79.76 174.196 78.2 174.804 76.92C175.412 75.624 176.244 74.64 177.3 73.968C178.372 73.296 179.572 72.96 180.9 72.96C182.244 72.96 183.444 73.296 184.5 73.968C185.556 74.64 186.388 75.624 186.996 76.92C187.62 78.2 187.932 79.76 187.932 81.6C187.932 83.44 187.62 85.008 186.996 86.304C186.388 87.584 185.556 88.56 184.5 89.232C183.444 89.904 182.244 90.24 180.9 90.24ZM180.9 87.528C181.684 87.528 182.364 87.32 182.94 86.904C183.516 86.472 183.964 85.816 184.284 84.936C184.62 84.056 184.788 82.944 184.788 81.6C184.788 80.24 184.62 79.128 184.284 78.264C183.964 77.384 183.516 76.736 182.94 76.32C182.364 75.888 181.684 75.672 180.9 75.672C180.148 75.672 179.476 75.888 178.884 76.32C178.308 76.736 177.852 77.384 177.516 78.264C177.196 79.128 177.036 80.24 177.036 81.6C177.036 82.944 177.196 84.056 177.516 84.936C177.852 85.816 178.308 86.472 178.884 86.904C179.476 87.32 180.148 87.528 180.9 87.528ZM197.048 90.24C195.72 90.24 194.52 89.904 193.448 89.232C192.392 88.56 191.56 87.584 190.952 86.304C190.344 85.008 190.04 83.44 190.04 81.6C190.04 79.76 190.344 78.2 190.952 76.92C191.56 75.624 192.392 74.64 193.448 73.968C194.52 73.296 195.72 72.96 197.048 72.96C198.392 72.96 199.592 73.296 200.648 73.968C201.704 74.64 202.536 75.624 203.144 76.92C203.768 78.2 204.08 79.76 204.08 81.6C204.08 83.44 203.768 85.008 203.144 86.304C202.536 87.584 201.704 88.56 200.648 89.232C199.592 89.904 198.392 90.24 197.048 90.24ZM197.048 87.528C197.832 87.528 198.512 87.32 199.088 86.904C199.664 86.472 200.112 85.816 200.432 84.936C200.768 84.056 200.936 82.944 200.936 81.6C200.936 80.24 200.768 79.128 200.432 78.264C200.112 77.384 199.664 76.736 199.088 76.32C198.512 75.888 197.832 75.672 197.048 75.672C196.296 75.672 195.624 75.888 195.032 76.32C194.456 76.736 194 77.384 193.664 78.264C193.344 79.128 193.184 80.24 193.184 81.6C193.184 82.944 193.344 84.056 193.664 84.936C194 85.816 194.456 86.472 195.032 86.904C195.624 87.32 196.296 87.528 197.048 87.528Z" fill="black"/>
<defs>
<linearGradient id="paint0_linear_1187_3843" x1="120" y1="157" x2="120" y2="6.48768e-06" gradientUnits="userSpaceOnUse">
<stop stop-color="#171717"/>
<stop offset="1" stop-color="#171717" stop-opacity="0"/>
</linearGradient>
</defs>
</svg>
