<svg width="264" height="473" viewBox="0 0 264 473" fill="none" xmlns="http://www.w3.org/2000/svg">
<path d="M220.39 473V430H179.39V473H220.39Z" fill="#E62C20"/>
<path d="M173.807 472.943V430.276H45.3899V472.943H173.807Z" fill="#4A8068"/>
<path d="M89.3496 185.685V143.019H217.766V185.685L89.3496 185.685Z" fill="#9C4A9A"/>
<path d="M89.4326 233.162V190.299H174.499V233.162H89.4326Z" fill="#4A8068"/>
<path d="M217.765 190.195V280.936H179.69V190.195H217.765Z" fill="#F69722"/>
<path d="M45.7354 233.464L45.7354 142.723H84.1565V233.464H45.7354Z" fill="#E62C20"/>
<path d="M173.807 95.251V137.917H45.3899V95.251L173.807 95.251Z" fill="#4A8068"/>
<path d="M173.724 47.7744V90.6375H88.6568V47.7744L173.724 47.7744Z" fill="#F69722"/>
<path d="M45.3896 90.7412L45.3896 -0.000205994H83.4647V90.7412H45.3896Z" fill="#E62C20"/>
<path d="M217.421 47.4717V138.213H179V47.4717L217.421 47.4717Z" fill="#E62C20"/>
<path d="M89.0049 382.503V425.17H217.422V382.503H89.0049Z" fill="#4A8068"/>
<path d="M89.0889 335.031V377.894H174.156V335.031H89.0889Z" fill="#F69722"/>
<path d="M217.422 377.998V334.73H179.347V377.998H217.422Z" fill="#9C4A9A"/>
<path d="M45.3916 334.728L45.3916 425.469H83.8128V334.728H45.3916Z" fill="#E62C20"/>
<path d="M174.501 237.97V280.833H89.923V237.97H174.501Z" fill="#E62C20"/>
<path d="M217.421 285.443V330.213H135.733V285.443H217.421Z" fill="#4A8068"/>
<path d="M84.8506 237.97L84.8506 330.214H46.0833L46.0833 237.97H84.8506Z" fill="#F69722"/>
<path d="M128.811 285.443V330.213H90.0432V285.443H128.811Z" fill="#9C4A9A"/>
<path d="M88.6572 42.9702V0.00325775L217.42 0.00325775V42.9702L88.6572 42.9702Z" fill="#9C4A9A"/>
<path d="M2.38965 186L2.38965 143H40.3896L40.3896 186H2.38965Z" fill="#9C4A9A"/>
<path d="M40.7656 190.195L40.7656 280.936H2.69057L2.69057 190.195H40.7656Z" fill="#4A8068"/>
<path d="M40.4209 47.4722L40.4209 138.214H1.99971L1.99971 47.4722L40.4209 47.4722Z" fill="#F69722"/>
<path d="M40.4219 377.998L40.4219 334.73H2.34682L2.34682 377.998H40.4219Z" fill="#9C4A9A"/>
<path d="M40.3896 473L40.3896 383H2.38965L2.38965 473H40.3896Z" fill="#F69722"/>
<path d="M40.3896 285L40.3896 330H2.38965L2.38965 285H40.3896Z" fill="#E62C20"/>
<path d="M2.38965 42.9702L2.38965 0.00325775L40.4201 0.00325775L40.4201 42.9702L2.38965 42.9702Z" fill="#9C4A9A"/>
<path d="M263.39 473V430H224.39V473H263.39Z" fill="#4A8068"/>
<path d="M224.736 233.464V142.723H263.158V233.464H224.736Z" fill="#E62C20"/>
<path d="M262.39 95V138H224.39V95H262.39Z" fill="#F69722"/>
<path d="M224.39 90.7412V-0.000205994H262.465V90.7412H224.39Z" fill="#4A8068"/>
<path d="M224.393 334.728V425.469H262.814V334.728H224.393Z" fill="#E62C20"/>
<path d="M263.851 237.97V330.214H225.083V237.97H263.851Z" fill="#9C4A9A"/>
<rect width="262" height="236" fill="url(#paint0_linear_1182_7)"/>
<rect width="262" height="236" transform="matrix(1 0 0 -1 0 473)" fill="url(#paint1_linear_1182_7)"/>
<path d="M118.755 261.4H159.955C159.955 246 191.955 240.6 191.955 210C191.955 185 168.555 171.8 137.155 171.8C105.155 171.8 84.9555 185 74.7555 204.2L110.355 222C114.555 213.6 122.555 208.4 131.155 208.4C138.555 208.4 144.555 211.6 144.555 217.8C144.555 230 118.755 237.2 118.755 261.4ZM139.355 317C154.955 317 165.755 306.2 165.755 293C165.755 279.6 154.955 269.4 139.355 269.4C123.755 269.4 112.955 279.6 112.955 293C112.955 306.2 123.755 317 139.355 317Z" fill="white"/>
<defs>
<linearGradient id="paint0_linear_1182_7" x1="131" y1="0" x2="131" y2="236" gradientUnits="userSpaceOnUse">
<stop offset="0.00520833"/>
<stop offset="0.442708" stop-opacity="0.5"/>
<stop offset="1" stop-color="#D9D9D9" stop-opacity="0"/>
</linearGradient>
<linearGradient id="paint1_linear_1182_7" x1="131" y1="0" x2="131" y2="236" gradientUnits="userSpaceOnUse">
<stop offset="0.0416667"/>
<stop offset="0.432292" stop-opacity="0.5"/>
<stop offset="1" stop-color="#D9D9D9" stop-opacity="0"/>
</linearGradient>
</defs>
</svg>
