<svg width="1440" height="1718" viewBox="0 0 1440 1718" fill="none" xmlns="http://www.w3.org/2000/svg">
<g opacity="0.02">
<path d="M884.739 765.895L875.222 765.889L875.199 800.787L884.717 800.793L884.713 807.138L894.23 807.144L894.224 816.662L903.742 816.668L903.736 826.186L910.081 826.19L910.103 791.292L900.586 791.286L900.59 784.941L894.245 784.937L894.251 775.419L884.733 775.413L884.739 765.895Z" fill="white"/>
<path d="M945.018 765.934L954.535 765.94L954.513 800.838L944.995 800.832L944.991 807.177L935.473 807.171L935.467 816.689L925.95 816.683L925.944 826.2L919.598 826.196L919.621 791.298L929.139 791.304L929.143 784.959L935.488 784.963L935.494 775.446L945.011 775.452L945.018 765.934Z" fill="white"/>
<path d="M932.286 829.377L932.28 838.895L967.178 838.917L967.184 829.399L973.529 829.404L973.535 819.886L983.053 819.892L983.059 810.374L992.577 810.381L992.581 804.036L957.683 804.013L957.677 813.531L951.332 813.527L951.328 819.872L941.81 819.865L941.804 829.383L932.286 829.377Z" fill="white"/>
<path d="M992.535 873.831L992.529 883.349L957.631 883.326L957.638 873.809L951.293 873.804L951.299 864.287L941.781 864.281L941.787 854.763L932.27 854.757L932.274 848.412L967.172 848.434L967.165 857.952L973.51 857.956L973.506 864.301L983.024 864.307L983.018 873.825L992.535 873.831Z" fill="white"/>
<path d="M944.917 921.388L954.435 921.395L954.457 886.497L944.939 886.491L944.944 880.145L935.426 880.139L935.432 870.622L925.914 870.616L925.921 861.098L919.576 861.094L919.553 895.992L929.071 895.998L929.067 902.343L935.412 902.347L935.406 911.865L944.923 911.871L944.917 921.388Z" fill="white"/>
<path d="M884.639 921.349L875.121 921.343L875.144 886.445L884.661 886.452L884.665 880.106L894.183 880.113L894.189 870.595L903.707 870.601L903.713 861.084L910.058 861.088L910.035 895.985L900.518 895.979L900.514 902.324L894.169 902.32L894.162 911.838L884.645 911.832L884.639 921.349Z" fill="white"/>
<path d="M837.121 813.453L837.127 803.935L872.025 803.958L872.019 813.475L878.364 813.479L878.358 822.997L887.875 823.003L887.869 832.521L897.387 832.527L897.383 838.872L862.485 838.849L862.491 829.332L856.146 829.328L856.15 822.983L846.632 822.976L846.638 813.459L837.121 813.453Z" fill="white"/>
<path d="M897.371 857.907L897.377 848.39L862.479 848.367L862.473 857.885L856.128 857.881L856.122 867.398L846.604 867.392L846.598 876.91L837.08 876.904L837.076 883.249L871.974 883.271L871.98 873.754L878.325 873.758L878.33 867.413L887.847 867.419L887.853 857.901L897.371 857.907Z" fill="white"/>
<rect x="910.072" y="838.88" width="9.5176" height="9.5176" transform="rotate(0.0369024 910.072 838.88)" fill="white"/>
<path d="M1242.05 766.125L1232.53 766.119L1232.51 801.017L1242.03 801.023L1242.03 807.368L1251.54 807.374L1251.54 816.892L1261.05 816.898L1261.05 826.416L1267.39 826.42L1267.42 791.522L1257.9 791.516L1257.9 785.171L1251.56 785.167L1251.56 775.649L1242.05 775.643L1242.05 766.125Z" fill="white"/>
<path d="M1302.33 766.164L1311.85 766.17L1311.83 801.068L1302.31 801.062L1302.3 807.407L1292.79 807.401L1292.78 816.919L1283.26 816.913L1283.26 826.43L1276.91 826.426L1276.93 791.528L1286.45 791.534L1286.46 785.189L1292.8 785.193L1292.81 775.676L1302.32 775.682L1302.33 766.164Z" fill="white"/>
<path d="M1289.6 829.607L1289.59 839.125L1324.49 839.147L1324.5 829.629L1330.84 829.633L1330.85 820.116L1340.37 820.122L1340.37 810.604L1349.89 810.611L1349.89 804.265L1315 804.243L1314.99 813.761L1308.64 813.757L1308.64 820.102L1299.12 820.095L1299.12 829.613L1289.6 829.607Z" fill="white"/>
<path d="M1349.85 874.061L1349.84 883.579L1314.94 883.556L1314.95 874.039L1308.61 874.034L1308.61 864.517L1299.09 864.511L1299.1 854.993L1289.58 854.987L1289.59 848.642L1324.48 848.664L1324.48 858.182L1330.82 858.186L1330.82 864.531L1340.34 864.537L1340.33 874.055L1349.85 874.061Z" fill="white"/>
<path d="M1302.23 921.618L1311.75 921.625L1311.77 886.727L1302.25 886.721L1302.26 880.375L1292.74 880.369L1292.74 870.852L1283.23 870.846L1283.23 861.328L1276.89 861.324L1276.87 896.222L1286.38 896.228L1286.38 902.573L1292.72 902.577L1292.72 912.095L1302.24 912.101L1302.23 921.618Z" fill="white"/>
<path d="M1241.95 921.579L1232.43 921.573L1232.46 886.675L1241.97 886.682L1241.98 880.336L1251.5 880.343L1251.5 870.825L1261.02 870.831L1261.03 861.314L1267.37 861.318L1267.35 896.215L1257.83 896.209L1257.83 902.554L1251.48 902.55L1251.47 912.068L1241.96 912.062L1241.95 921.579Z" fill="white"/>
<path d="M1194.43 813.683L1194.44 804.165L1229.34 804.188L1229.33 813.705L1235.68 813.709L1235.67 823.227L1245.19 823.233L1245.18 832.751L1254.7 832.757L1254.7 839.102L1219.8 839.079L1219.8 829.562L1213.46 829.558L1213.46 823.212L1203.94 823.206L1203.95 813.689L1194.43 813.683Z" fill="white"/>
<path d="M1254.68 858.137L1254.69 848.62L1219.79 848.597L1219.79 858.115L1213.44 858.111L1213.43 867.628L1203.92 867.622L1203.91 877.14L1194.39 877.134L1194.39 883.479L1229.29 883.501L1229.29 873.984L1235.64 873.988L1235.64 867.643L1245.16 867.649L1245.17 858.131L1254.68 858.137Z" fill="white"/>
<rect x="1267.39" y="839.11" width="9.5176" height="9.5176" transform="rotate(0.0369024 1267.39 839.11)" fill="white"/>
<path d="M1063.51 587.338L1053.99 587.332L1053.97 622.229L1063.49 622.236L1063.48 628.581L1073 628.587L1073 638.104L1082.51 638.11L1082.51 647.628L1088.85 647.632L1088.87 612.734L1079.36 612.728L1079.36 606.383L1073.02 606.379L1073.02 596.861L1063.5 596.855L1063.51 587.338Z" fill="white"/>
<path d="M1123.79 587.377L1133.31 587.383L1133.28 622.281L1123.77 622.275L1123.76 628.62L1114.24 628.613L1114.24 638.131L1104.72 638.125L1104.72 647.643L1098.37 647.638L1098.39 612.741L1107.91 612.747L1107.91 606.402L1114.26 606.406L1114.27 596.888L1123.78 596.894L1123.79 587.377Z" fill="white"/>
<path d="M1111.06 650.819L1111.05 660.336L1145.95 660.359L1145.96 650.841L1152.3 650.845L1152.31 641.328L1161.82 641.334L1161.83 631.816L1171.35 631.822L1171.35 625.477L1136.45 625.455L1136.45 634.973L1130.1 634.968L1130.1 641.313L1120.58 641.307L1120.58 650.825L1111.06 650.819Z" fill="white"/>
<path d="M1171.31 695.273L1171.3 704.791L1136.4 704.768L1136.41 695.25L1130.06 695.246L1130.07 685.729L1120.55 685.723L1120.56 676.205L1111.04 676.199L1111.05 669.854L1145.94 669.876L1145.94 679.394L1152.28 679.398L1152.28 685.743L1161.8 685.749L1161.79 695.267L1171.31 695.273Z" fill="white"/>
<path d="M1123.69 742.831L1133.21 742.837L1133.23 707.939L1123.71 707.933L1123.72 701.588L1114.2 701.582L1114.2 692.064L1104.69 692.058L1104.69 682.54L1098.35 682.536L1098.32 717.434L1107.84 717.44L1107.84 723.785L1114.18 723.789L1114.18 733.307L1123.69 733.313L1123.69 742.831Z" fill="white"/>
<path d="M1063.41 742.792L1053.89 742.786L1053.92 707.888L1063.43 707.894L1063.44 701.549L1072.95 701.555L1072.96 692.037L1082.48 692.044L1082.48 682.526L1088.83 682.53L1088.81 717.428L1079.29 717.422L1079.29 723.767L1072.94 723.763L1072.93 733.28L1063.42 733.274L1063.41 742.792Z" fill="white"/>
<path d="M1015.89 634.895L1015.9 625.377L1050.8 625.4L1050.79 634.918L1057.14 634.922L1057.13 644.439L1066.65 644.445L1066.64 653.963L1076.16 653.969L1076.15 660.314L1041.26 660.292L1041.26 650.774L1034.92 650.77L1034.92 644.425L1025.4 644.419L1025.41 634.901L1015.89 634.895Z" fill="white"/>
<path d="M1076.14 679.35L1076.15 669.832L1041.25 669.81L1041.24 679.327L1034.9 679.323L1034.89 688.841L1025.38 688.835L1025.37 698.352L1015.85 698.346L1015.85 704.691L1050.75 704.714L1050.75 695.196L1057.1 695.2L1057.1 688.855L1066.62 688.861L1066.62 679.343L1076.14 679.35Z" fill="white"/>
<rect x="1088.84" y="660.322" width="9.5176" height="9.5176" transform="rotate(0.0369024 1088.84 660.322)" fill="white"/>
<path d="M1063.28 944.667L1053.76 944.661L1053.74 979.559L1063.26 979.565L1063.25 985.91L1072.77 985.916L1072.77 995.434L1082.28 995.44L1082.28 1004.96L1088.62 1004.96L1088.65 970.064L1079.13 970.058L1079.13 963.713L1072.79 963.709L1072.79 954.191L1063.28 954.185L1063.28 944.667Z" fill="white"/>
<path d="M1123.56 944.706L1133.08 944.712L1133.05 979.61L1123.54 979.604L1123.53 985.949L1114.02 985.943L1114.01 995.46L1104.49 995.454L1104.49 1004.97L1098.14 1004.97L1098.16 970.07L1107.68 970.076L1107.68 963.731L1114.03 963.735L1114.04 954.217L1123.55 954.223L1123.56 944.706Z" fill="white"/>
<path d="M1110.83 1008.15L1110.82 1017.67L1145.72 1017.69L1145.73 1008.17L1152.07 1008.17L1152.08 998.657L1161.6 998.664L1161.6 989.146L1171.12 989.152L1171.12 982.807L1136.22 982.785L1136.22 992.302L1129.87 992.298L1129.87 998.643L1120.35 998.637L1120.35 1008.15L1110.83 1008.15Z" fill="white"/>
<path d="M1171.08 1052.6L1171.07 1062.12L1136.17 1062.1L1136.18 1052.58L1129.83 1052.58L1129.84 1043.06L1120.32 1043.05L1120.33 1033.53L1110.81 1033.53L1110.82 1027.18L1145.71 1027.21L1145.71 1036.72L1152.05 1036.73L1152.05 1043.07L1161.57 1043.08L1161.56 1052.6L1171.08 1052.6Z" fill="white"/>
<path d="M1123.46 1100.16L1132.98 1100.17L1133 1065.27L1123.48 1065.26L1123.49 1058.92L1113.97 1058.91L1113.97 1049.39L1104.46 1049.39L1104.46 1039.87L1098.12 1039.87L1098.1 1074.76L1107.61 1074.77L1107.61 1081.11L1113.95 1081.12L1113.95 1090.64L1123.47 1090.64L1123.46 1100.16Z" fill="white"/>
<path d="M1063.18 1100.12L1053.66 1100.12L1053.69 1065.22L1063.2 1065.22L1063.21 1058.88L1072.72 1058.88L1072.73 1049.37L1082.25 1049.37L1082.25 1039.86L1088.6 1039.86L1088.58 1074.76L1079.06 1074.75L1079.06 1081.1L1072.71 1081.09L1072.7 1090.61L1063.19 1090.6L1063.18 1100.12Z" fill="white"/>
<path d="M1015.66 992.225L1015.67 982.707L1050.57 982.73L1050.56 992.247L1056.91 992.251L1056.9 1001.77L1066.42 1001.77L1066.41 1011.29L1075.93 1011.3L1075.92 1017.64L1041.03 1017.62L1041.03 1008.1L1034.69 1008.1L1034.69 1001.75L1025.17 1001.75L1025.18 992.231L1015.66 992.225Z" fill="white"/>
<path d="M1075.91 1036.68L1075.92 1027.16L1041.02 1027.14L1041.01 1036.66L1034.67 1036.65L1034.66 1046.17L1025.15 1046.16L1025.14 1055.68L1015.62 1055.68L1015.62 1062.02L1050.52 1062.04L1050.52 1052.53L1056.87 1052.53L1056.87 1046.18L1066.39 1046.19L1066.39 1036.67L1075.91 1036.68Z" fill="white"/>
<rect x="1088.61" y="1017.65" width="9.5176" height="9.5176" transform="rotate(0.0369024 1088.61 1017.65)" fill="white"/>
<path fill-rule="evenodd" clip-rule="evenodd" d="M1083.58 766.023L1104.04 766.037L1104.03 774.218L1112.21 774.224L1112.21 782.406L1120.39 782.411L1120.38 790.593L1128.57 790.598L1128.56 798.78L1136.74 798.785L1136.74 806.967L1144.92 806.972L1144.91 815.154L1153.1 815.159L1153.09 823.341L1161.27 823.346L1161.27 831.528L1169.45 831.533L1169.43 856.079L1161.25 856.073L1161.25 864.255L1153.06 864.25L1153.06 872.432L1144.88 872.426L1144.87 880.608L1136.69 880.603L1136.69 888.785L1128.5 888.779L1128.5 896.961L1120.32 896.956L1120.31 905.138L1112.13 905.132L1112.12 913.314L1103.94 913.309L1103.94 921.491L1083.48 921.478L1083.49 909.205L1099.85 909.216L1099.86 901.033L1108.04 901.039L1108.05 892.857L1116.23 892.862L1116.23 884.681L1124.42 884.686L1124.42 876.504L1132.6 876.509L1132.61 868.328L1140.79 868.333L1140.79 860.151L1148.98 860.156L1148.98 851.974L1157.16 851.98L1157.17 835.616L1148.99 835.611L1149 827.429L1140.82 827.424L1140.82 819.242L1132.64 819.237L1132.64 811.055L1124.46 811.05L1124.47 802.868L1116.29 802.863L1116.29 794.681L1108.11 794.676L1108.11 786.494L1099.93 786.488L1099.94 778.307L1083.57 778.296L1083.58 766.023Z" fill="white"/>
<path fill-rule="evenodd" clip-rule="evenodd" d="M1104.04 766.037L1083.58 766.024L1083.58 774.206L1075.4 774.2L1075.39 782.382L1067.21 782.377L1067.2 790.559L1059.02 790.553L1059.02 798.735L1050.83 798.73L1050.83 806.912L1042.65 806.907L1042.64 815.088L1034.46 815.083L1034.45 823.265L1026.27 823.26L1026.27 831.441L1018.09 831.436L1018.07 855.981L1026.25 855.987L1026.25 864.168L1034.43 864.174L1034.42 872.356L1042.6 872.361L1042.6 880.543L1050.78 880.548L1050.78 888.73L1058.96 888.735L1058.95 896.917L1067.13 896.922L1067.13 905.104L1075.31 905.109L1075.31 913.291L1083.49 913.296L1083.48 921.478L1103.94 921.491L1103.94 909.218L1087.58 909.208L1087.59 901.026L1079.4 901.021L1079.41 892.839L1071.23 892.834L1071.23 884.652L1063.05 884.647L1063.06 876.465L1054.87 876.459L1054.88 868.278L1046.7 868.273L1046.7 860.091L1038.52 860.086L1038.53 851.904L1030.35 851.898L1030.36 835.535L1038.54 835.54L1038.54 827.358L1046.72 827.364L1046.73 819.182L1054.91 819.187L1054.92 811.005L1063.1 811.011L1063.1 802.829L1071.29 802.834L1071.29 794.652L1079.47 794.657L1079.48 786.476L1087.66 786.481L1087.67 778.299L1104.03 778.31L1104.04 766.037Z" fill="white"/>
<rect x="1083.54" y="835.569" width="20.4545" height="20.4545" transform="rotate(0.0369024 1083.54 835.569)" fill="white"/>
<path d="M165.54 772.488L156.022 772.482L156 807.38L165.518 807.386L165.513 813.731L175.031 813.737L175.025 823.255L184.543 823.261L184.536 832.778L190.881 832.783L190.904 797.885L181.386 797.879L181.39 791.533L175.045 791.529L175.052 782.012L165.534 782.006L165.54 772.488Z" fill="white"/>
<path d="M225.818 772.527L235.336 772.533L235.313 807.431L225.796 807.425L225.792 813.77L216.274 813.764L216.268 823.281L206.75 823.275L206.744 832.793L200.399 832.789L200.422 797.891L209.939 797.897L209.943 791.552L216.288 791.556L216.295 782.039L225.812 782.045L225.818 772.527Z" fill="white"/>
<path d="M213.087 835.97L213.081 845.487L247.979 845.51L247.985 835.992L254.33 835.996L254.336 826.479L263.854 826.485L263.86 816.967L273.378 816.973L273.382 810.628L238.484 810.606L238.478 820.123L232.133 820.119L232.129 826.464L222.611 826.458L222.605 835.976L213.087 835.97Z" fill="white"/>
<path d="M273.336 880.424L273.33 889.941L238.432 889.919L238.438 880.401L232.093 880.397L232.099 870.88L222.582 870.874L222.588 861.356L213.07 861.35L213.074 855.005L247.972 855.027L247.966 864.545L254.311 864.549L254.307 870.894L263.825 870.9L263.819 880.418L273.336 880.424Z" fill="white"/>
<path d="M225.718 927.981L235.235 927.987L235.258 893.089L225.74 893.083L225.744 886.738L216.227 886.732L216.233 877.214L206.715 877.208L206.721 867.69L200.376 867.686L200.354 902.584L209.871 902.59L209.867 908.935L216.212 908.939L216.206 918.457L225.724 918.463L225.718 927.981Z" fill="white"/>
<path d="M165.439 927.942L155.922 927.936L155.944 893.038L165.462 893.044L165.466 886.699L174.984 886.705L174.99 877.188L184.507 877.194L184.513 867.676L190.859 867.68L190.836 902.578L181.318 902.572L181.314 908.917L174.969 908.913L174.963 918.431L165.446 918.425L165.439 927.942Z" fill="white"/>
<path d="M117.922 820.045L117.928 810.528L152.826 810.55L152.819 820.068L159.165 820.072L159.158 829.59L168.676 829.596L168.67 839.113L178.187 839.119L178.183 845.465L143.286 845.442L143.292 835.924L136.947 835.92L136.951 829.575L127.433 829.569L127.439 820.052L117.922 820.045Z" fill="white"/>
<path d="M178.171 864.5L178.177 854.982L143.279 854.96L143.273 864.478L136.928 864.473L136.922 873.991L127.404 873.985L127.398 883.503L117.88 883.496L117.876 889.841L152.774 889.864L152.78 880.346L159.125 880.35L159.129 874.005L168.647 874.011L168.653 864.494L178.171 864.5Z" fill="white"/>
<rect x="190.873" y="845.473" width="9.5176" height="9.5176" transform="rotate(0.0369024 190.873 845.473)" fill="white"/>
<path d="M522.854 772.719L513.336 772.713L513.313 807.611L522.831 807.617L522.827 813.962L532.345 813.968L532.338 823.486L541.856 823.492L541.85 833.009L548.195 833.013L548.217 798.116L538.7 798.109L538.704 791.764L532.359 791.76L532.365 782.243L522.847 782.237L522.854 772.719Z" fill="white"/>
<path d="M583.132 772.758L592.649 772.764L592.627 807.662L583.109 807.656L583.105 814.001L573.588 813.995L573.582 823.512L564.064 823.506L564.058 833.024L557.713 833.02L557.735 798.122L567.253 798.128L567.257 791.783L573.602 791.787L573.608 782.269L583.126 782.276L583.132 772.758Z" fill="white"/>
<path d="M570.401 836.201L570.395 845.718L605.292 845.741L605.299 836.223L611.644 836.227L611.65 826.71L621.167 826.716L621.173 817.198L630.691 817.204L630.695 810.859L595.797 810.837L595.791 820.354L589.446 820.35L589.442 826.695L579.924 826.689L579.918 836.207L570.401 836.201Z" fill="white"/>
<path d="M630.65 880.655L630.644 890.172L595.746 890.15L595.752 880.632L589.407 880.628L589.413 871.111L579.895 871.104L579.901 861.587L570.384 861.581L570.388 855.236L605.286 855.258L605.28 864.776L611.625 864.78L611.621 871.125L621.138 871.131L621.132 880.649L630.65 880.655Z" fill="white"/>
<path d="M583.031 928.212L592.549 928.218L592.571 893.32L583.054 893.314L583.058 886.969L573.54 886.963L573.546 877.445L564.029 877.439L564.035 867.921L557.69 867.917L557.667 902.815L567.185 902.821L567.181 909.166L573.526 909.17L573.52 918.688L583.037 918.694L583.031 928.212Z" fill="white"/>
<path d="M522.753 928.173L513.235 928.167L513.258 893.269L522.775 893.275L522.78 886.93L532.297 886.936L532.303 877.419L541.821 877.425L541.827 867.907L548.172 867.911L548.15 902.809L538.632 902.803L538.628 909.148L532.283 909.144L532.277 918.662L522.759 918.656L522.753 928.173Z" fill="white"/>
<path d="M475.235 820.276L475.241 810.759L510.139 810.781L510.133 820.299L516.478 820.303L516.472 829.821L525.989 829.827L525.983 839.344L535.501 839.35L535.497 845.695L500.599 845.673L500.605 836.155L494.26 836.151L494.264 829.806L484.747 829.8L484.753 820.283L475.235 820.276Z" fill="white"/>
<path d="M535.484 864.731L535.49 855.213L500.592 855.191L500.586 864.708L494.241 864.704L494.235 874.222L484.717 874.216L484.711 883.733L475.194 883.727L475.19 890.072L510.088 890.095L510.094 880.577L516.439 880.581L516.443 874.236L525.96 874.242L525.967 864.725L535.484 864.731Z" fill="white"/>
<rect x="548.188" y="845.704" width="9.5176" height="9.5176" transform="rotate(0.0369024 548.188 845.704)" fill="white"/>
<path d="M344.313 593.931L334.795 593.925L334.772 628.823L344.29 628.829L344.286 635.174L353.804 635.18L353.797 644.698L363.315 644.704L363.309 654.221L369.654 654.225L369.676 619.328L360.159 619.321L360.163 612.976L353.818 612.972L353.824 603.455L344.306 603.449L344.313 593.931Z" fill="white"/>
<path d="M404.591 593.97L414.108 593.976L414.086 628.874L404.568 628.868L404.564 635.213L395.047 635.207L395.041 644.724L385.523 644.718L385.517 654.236L379.172 654.232L379.194 619.334L388.712 619.34L388.716 612.995L395.061 612.999L395.067 603.481L404.585 603.488L404.591 593.97Z" fill="white"/>
<path d="M391.86 657.412L391.854 666.93L426.751 666.952L426.757 657.435L433.103 657.439L433.109 647.921L442.626 647.927L442.632 638.41L452.15 638.416L452.154 632.071L417.256 632.048L417.25 641.566L410.905 641.562L410.901 647.907L401.383 647.901L401.377 657.418L391.86 657.412Z" fill="white"/>
<path d="M452.109 701.866L452.103 711.384L417.205 711.361L417.211 701.844L410.866 701.84L410.872 692.322L401.354 692.316L401.36 682.798L391.843 682.792L391.847 676.447L426.745 676.47L426.739 685.987L433.084 685.991L433.08 692.336L442.597 692.342L442.591 701.86L452.109 701.866Z" fill="white"/>
<path d="M404.49 749.424L414.008 749.43L414.03 714.532L404.513 714.526L404.517 708.181L394.999 708.175L395.005 698.657L385.488 698.651L385.494 689.133L379.149 689.129L379.126 724.027L388.644 724.033L388.64 730.378L394.985 730.382L394.979 739.9L404.496 739.906L404.49 749.424Z" fill="white"/>
<path d="M344.212 749.385L334.694 749.379L334.717 714.481L344.234 714.487L344.238 708.142L353.756 708.148L353.762 698.631L363.28 698.637L363.286 689.119L369.631 689.123L369.609 724.021L360.091 724.015L360.087 730.36L353.742 730.356L353.736 739.874L344.218 739.867L344.212 749.385Z" fill="white"/>
<path d="M296.694 641.488L296.7 631.971L331.598 631.993L331.592 641.511L337.937 641.515L337.931 651.032L347.448 651.039L347.442 660.556L356.96 660.562L356.956 666.907L322.058 666.885L322.064 657.367L315.719 657.363L315.723 651.018L306.206 651.012L306.212 641.494L296.694 641.488Z" fill="white"/>
<path d="M356.943 685.943L356.949 676.425L322.051 676.403L322.045 685.92L315.7 685.916L315.694 695.434L306.176 695.428L306.17 704.945L296.653 704.939L296.649 711.284L331.546 711.307L331.553 701.789L337.898 701.793L337.902 695.448L347.419 695.454L347.425 685.937L356.943 685.943Z" fill="white"/>
<rect x="369.646" y="666.916" width="9.5176" height="9.5176" transform="rotate(0.0369024 369.646 666.916)" fill="white"/>
<path fill-rule="evenodd" clip-rule="evenodd" d="M905.038 587.234L925.493 587.247L925.487 595.429L933.669 595.434L933.664 603.616L941.846 603.621L941.841 611.803L950.022 611.808L950.017 619.99L958.199 619.995L958.194 628.177L966.376 628.183L966.37 636.364L974.552 636.369L974.547 644.551L982.728 644.556L982.723 652.738L990.905 652.744L990.889 677.289L982.707 677.284L982.702 685.465L974.52 685.46L974.515 693.642L966.334 693.637L966.328 701.819L958.147 701.813L958.141 709.995L949.959 709.99L949.954 718.172L941.772 718.166L941.767 726.348L933.585 726.343L933.58 734.524L925.398 734.519L925.393 742.701L904.938 742.688L904.946 730.415L921.31 730.426L921.315 722.244L929.497 722.249L929.502 714.067L937.684 714.073L937.689 705.891L945.871 705.896L945.876 697.715L954.058 697.72L954.063 689.538L962.245 689.543L962.25 681.362L970.432 681.367L970.437 673.185L978.619 673.19L978.63 656.826L970.448 656.821L970.453 648.64L962.271 648.634L962.277 640.453L954.095 640.447L954.1 632.265L945.918 632.26L945.924 624.078L937.742 624.073L937.747 615.891L929.565 615.886L929.571 607.704L921.389 607.699L921.394 599.517L905.03 599.507L905.038 587.234Z" fill="white"/>
<path fill-rule="evenodd" clip-rule="evenodd" d="M925.493 587.248L905.039 587.234L905.033 595.416L896.851 595.411L896.846 603.593L888.664 603.587L888.659 611.769L880.477 611.764L880.472 619.946L872.29 619.941L872.285 628.122L864.103 628.117L864.098 636.299L855.916 636.294L855.911 644.475L847.729 644.47L847.724 652.652L839.542 652.646L839.526 677.192L847.708 677.197L847.703 685.379L855.885 685.384L855.88 693.566L864.061 693.571L864.056 701.753L872.237 701.758L872.232 709.94L880.414 709.945L880.409 718.127L888.591 718.132L888.585 726.314L896.767 726.32L896.762 734.501L904.944 734.507L904.938 742.688L925.393 742.702L925.401 730.429L909.037 730.418L909.042 722.237L900.861 722.231L900.866 714.05L892.684 714.044L892.689 705.862L884.507 705.857L884.513 697.675L876.331 697.67L876.336 689.488L868.155 689.483L868.16 681.301L859.978 681.296L859.983 673.114L851.801 673.109L851.812 656.745L859.994 656.751L859.999 648.569L868.181 648.574L868.186 640.392L876.368 640.398L876.373 632.216L884.555 632.221L884.56 624.039L892.742 624.044L892.747 615.863L900.929 615.868L900.934 607.686L909.116 607.691L909.121 599.51L925.485 599.52L925.493 587.248Z" fill="white"/>
<rect x="904.993" y="656.779" width="20.4545" height="20.4545" transform="rotate(0.0369024 904.993 656.779)" fill="white"/>
<path fill-rule="evenodd" clip-rule="evenodd" d="M1262.35 587.464L1282.8 587.477L1282.8 595.659L1290.98 595.664L1290.98 603.846L1299.16 603.851L1299.15 612.033L1307.33 612.038L1307.33 620.22L1315.51 620.225L1315.51 628.407L1323.69 628.413L1323.68 636.594L1331.86 636.599L1331.86 644.781L1340.04 644.786L1340.03 652.968L1348.22 652.973L1348.2 677.519L1340.02 677.514L1340.01 685.695L1331.83 685.69L1331.83 693.872L1323.65 693.867L1323.64 702.049L1315.46 702.043L1315.45 710.225L1307.27 710.22L1307.27 718.402L1299.08 718.396L1299.08 726.578L1290.9 726.573L1290.89 734.754L1282.71 734.749L1282.7 742.931L1262.25 742.918L1262.26 730.645L1278.62 730.656L1278.63 722.474L1286.81 722.479L1286.81 714.297L1295 714.303L1295 706.121L1303.18 706.126L1303.19 697.945L1311.37 697.95L1311.37 689.768L1319.56 689.773L1319.56 681.592L1327.74 681.597L1327.75 673.415L1335.93 673.42L1335.94 657.056L1327.76 657.051L1327.76 648.87L1319.58 648.864L1319.59 640.683L1311.41 640.677L1311.41 632.495L1303.23 632.49L1303.24 624.308L1295.05 624.303L1295.06 616.121L1286.88 616.116L1286.88 607.934L1278.7 607.929L1278.71 599.747L1262.34 599.737L1262.35 587.464Z" fill="white"/>
<path fill-rule="evenodd" clip-rule="evenodd" d="M1282.8 587.478L1262.35 587.464L1262.34 595.646L1254.16 595.641L1254.16 603.823L1245.98 603.817L1245.97 611.999L1237.79 611.994L1237.78 620.176L1229.6 620.171L1229.6 628.352L1221.41 628.347L1221.41 636.529L1213.23 636.524L1213.22 644.705L1205.04 644.7L1205.04 652.882L1196.85 652.876L1196.84 677.422L1205.02 677.427L1205.01 685.609L1213.2 685.614L1213.19 693.796L1221.37 693.801L1221.37 701.983L1229.55 701.988L1229.54 710.17L1237.73 710.175L1237.72 718.357L1245.9 718.362L1245.9 726.544L1254.08 726.55L1254.07 734.731L1262.26 734.737L1262.25 742.918L1282.7 742.932L1282.71 730.659L1266.35 730.648L1266.35 722.467L1258.17 722.461L1258.18 714.28L1250 714.274L1250 706.092L1241.82 706.087L1241.82 697.905L1233.64 697.9L1233.65 689.718L1225.47 689.713L1225.47 681.531L1217.29 681.526L1217.29 673.344L1209.11 673.339L1209.12 656.975L1217.31 656.981L1217.31 648.799L1225.49 648.804L1225.5 640.622L1233.68 640.628L1233.68 632.446L1241.87 632.451L1241.87 624.269L1250.05 624.274L1250.06 616.093L1258.24 616.098L1258.25 607.916L1266.43 607.921L1266.43 599.74L1282.8 599.75L1282.8 587.478Z" fill="white"/>
<rect x="1262.3" y="657.009" width="20.4545" height="20.4545" transform="rotate(0.0369024 1262.3 657.009)" fill="white"/>
<path fill-rule="evenodd" clip-rule="evenodd" d="M904.813 944.563L925.267 944.576L925.262 952.758L933.444 952.763L933.438 960.945L941.62 960.95L941.615 969.132L949.797 969.137L949.791 977.319L957.974 977.324L957.968 985.506L966.15 985.512L966.145 993.693L974.326 993.699L974.321 1001.88L982.503 1001.89L982.497 1010.07L990.679 1010.07L990.664 1034.62L982.481 1034.61L982.476 1042.79L974.295 1042.79L974.29 1050.97L966.108 1050.97L966.103 1059.15L957.921 1059.14L957.916 1067.32L949.733 1067.32L949.728 1075.5L941.546 1075.5L941.541 1083.68L933.36 1083.67L933.354 1091.85L925.172 1091.85L925.167 1100.03L904.713 1100.02L904.721 1087.74L921.084 1087.76L921.089 1079.57L929.271 1079.58L929.276 1071.4L937.458 1071.4L937.463 1063.22L945.646 1063.23L945.651 1055.04L953.833 1055.05L953.838 1046.87L962.02 1046.87L962.025 1038.69L970.206 1038.7L970.211 1030.51L978.394 1030.52L978.404 1014.16L970.222 1014.15L970.227 1005.97L962.046 1005.96L962.051 997.782L953.87 997.776L953.875 989.594L945.693 989.589L945.698 981.407L937.516 981.402L937.521 973.22L929.34 973.215L929.345 965.033L921.163 965.028L921.168 956.846L904.805 956.836L904.813 944.563Z" fill="white"/>
<path fill-rule="evenodd" clip-rule="evenodd" d="M925.268 944.577L904.813 944.563L904.808 952.745L896.626 952.74L896.62 960.922L888.439 960.916L888.433 969.098L880.252 969.093L880.247 977.275L872.065 977.27L872.059 985.451L863.878 985.446L863.872 993.628L855.691 993.623L855.685 1001.8L847.504 1001.8L847.498 1009.98L839.316 1009.98L839.3 1034.52L847.483 1034.53L847.477 1042.71L855.659 1042.71L855.654 1050.9L863.835 1050.9L863.83 1059.08L872.012 1059.09L872.006 1067.27L880.189 1067.27L880.183 1075.46L888.365 1075.46L888.36 1083.64L896.541 1083.65L896.536 1091.83L904.718 1091.84L904.713 1100.02L925.167 1100.03L925.175 1087.76L908.812 1087.75L908.817 1079.57L900.635 1079.56L900.641 1071.38L892.459 1071.37L892.464 1063.19L884.282 1063.19L884.287 1055L876.105 1055L876.111 1046.82L867.929 1046.81L867.934 1038.63L859.753 1038.63L859.758 1030.44L851.576 1030.44L851.586 1014.07L859.768 1014.08L859.774 1005.9L867.955 1005.9L867.961 997.722L876.142 997.727L876.148 989.545L884.329 989.55L884.335 981.368L892.517 981.373L892.522 973.192L900.703 973.197L900.709 965.015L908.89 965.021L908.896 956.839L925.26 956.849L925.268 944.577Z" fill="white"/>
<rect x="904.768" y="1014.11" width="20.4545" height="20.4545" transform="rotate(0.0369024 904.768 1014.11)" fill="white"/>
<path fill-rule="evenodd" clip-rule="evenodd" d="M1262.12 944.794L1282.58 944.808L1282.57 952.989L1290.75 952.994L1290.75 961.176L1298.93 961.182L1298.93 969.363L1307.11 969.369L1307.1 977.55L1315.28 977.556L1315.28 985.738L1323.46 985.743L1323.46 993.925L1331.64 993.93L1331.63 1002.11L1339.81 1002.12L1339.81 1010.3L1347.99 1010.3L1347.97 1034.85L1339.79 1034.84L1339.79 1043.03L1331.61 1043.02L1331.6 1051.2L1323.42 1051.2L1323.41 1059.38L1315.23 1059.37L1315.23 1067.56L1307.04 1067.55L1307.04 1075.73L1298.86 1075.73L1298.85 1083.91L1290.67 1083.9L1290.66 1092.08L1282.48 1092.08L1282.48 1100.26L1262.02 1100.25L1262.03 1087.98L1278.39 1087.99L1278.4 1079.8L1286.58 1079.81L1286.59 1071.63L1294.77 1071.63L1294.77 1063.45L1302.96 1063.46L1302.96 1055.27L1311.14 1055.28L1311.15 1047.1L1319.33 1047.1L1319.34 1038.92L1327.52 1038.93L1327.52 1030.75L1335.7 1030.75L1335.71 1014.39L1327.53 1014.38L1327.54 1006.2L1319.36 1006.19L1319.36 998.013L1311.18 998.008L1311.19 989.826L1303 989.821L1303.01 981.639L1294.83 981.633L1294.83 973.452L1286.65 973.447L1286.66 965.265L1278.47 965.259L1278.48 957.078L1262.12 957.067L1262.12 944.794Z" fill="white"/>
<path fill-rule="evenodd" clip-rule="evenodd" d="M1282.58 944.808L1262.12 944.795L1262.12 952.977L1253.94 952.971L1253.93 961.153L1245.75 961.148L1245.74 969.33L1237.56 969.324L1237.56 977.506L1229.38 977.501L1229.37 985.683L1221.19 985.678L1221.18 993.859L1213 993.854L1213 1002.04L1204.81 1002.03L1204.81 1010.21L1196.63 1010.21L1196.61 1034.75L1204.79 1034.76L1204.79 1042.94L1212.97 1042.94L1212.96 1051.13L1221.15 1051.13L1221.14 1059.31L1229.32 1059.32L1229.32 1067.5L1237.5 1067.51L1237.49 1075.69L1245.68 1075.69L1245.67 1083.87L1253.85 1083.88L1253.85 1092.06L1262.03 1092.07L1262.02 1100.25L1282.48 1100.26L1282.49 1087.99L1266.12 1087.98L1266.13 1079.8L1257.95 1079.79L1257.95 1071.61L1249.77 1071.6L1249.77 1063.42L1241.59 1063.42L1241.6 1055.24L1233.42 1055.23L1233.42 1047.05L1225.24 1047.04L1225.25 1038.86L1217.06 1038.86L1217.07 1030.67L1208.89 1030.67L1208.9 1014.31L1217.08 1014.31L1217.08 1006.13L1225.27 1006.13L1225.27 997.953L1233.45 997.958L1233.46 989.776L1241.64 989.782L1241.65 981.6L1249.83 981.605L1249.83 973.423L1258.01 973.429L1258.02 965.247L1266.2 965.252L1266.21 957.07L1282.57 957.081L1282.58 944.808Z" fill="white"/>
<rect x="1262.08" y="1014.34" width="20.4545" height="20.4545" transform="rotate(0.0369024 1262.08 1014.34)" fill="white"/>
<path d="M344.082 951.26L334.564 951.254L334.542 986.152L344.06 986.158L344.055 992.503L353.573 992.509L353.567 1002.03L363.085 1002.03L363.078 1011.55L369.423 1011.55L369.446 976.657L359.928 976.651L359.932 970.305L353.587 970.301L353.594 960.784L344.076 960.778L344.082 951.26Z" fill="white"/>
<path d="M404.36 951.299L413.878 951.305L413.855 986.203L404.338 986.197L404.334 992.542L394.816 992.536L394.81 1002.05L385.292 1002.05L385.286 1011.56L378.941 1011.56L378.964 976.663L388.481 976.669L388.485 970.324L394.83 970.328L394.837 960.811L404.354 960.817L404.36 951.299Z" fill="white"/>
<path d="M391.629 1014.74L391.623 1024.26L426.521 1024.28L426.527 1014.76L432.872 1014.77L432.878 1005.25L442.396 1005.26L442.402 995.739L451.92 995.745L451.924 989.4L417.026 989.377L417.02 998.895L410.675 998.891L410.67 1005.24L401.153 1005.23L401.147 1014.75L391.629 1014.74Z" fill="white"/>
<path d="M451.878 1059.2L451.872 1068.71L416.974 1068.69L416.98 1059.17L410.635 1059.17L410.641 1049.65L401.124 1049.65L401.13 1040.13L391.612 1040.12L391.616 1033.78L426.514 1033.8L426.508 1043.32L432.853 1043.32L432.849 1049.67L442.367 1049.67L442.361 1059.19L451.878 1059.2Z" fill="white"/>
<path d="M404.26 1106.75L413.777 1106.76L413.8 1071.86L404.282 1071.85L404.286 1065.51L394.769 1065.5L394.775 1055.99L385.257 1055.98L385.263 1046.46L378.918 1046.46L378.896 1081.36L388.413 1081.36L388.409 1087.71L394.754 1087.71L394.748 1097.23L404.266 1097.24L404.26 1106.75Z" fill="white"/>
<path d="M343.982 1106.71L334.465 1106.71L334.487 1071.81L344.005 1071.82L344.009 1065.47L353.527 1065.48L353.533 1055.96L363.05 1055.97L363.056 1046.45L369.402 1046.45L369.379 1081.35L359.861 1081.34L359.857 1087.69L353.512 1087.69L353.506 1097.2L343.989 1097.2L343.982 1106.71Z" fill="white"/>
<path d="M296.464 998.817L296.47 989.3L331.368 989.322L331.361 998.84L337.706 998.844L337.7 1008.36L347.218 1008.37L347.212 1017.89L356.729 1017.89L356.725 1024.24L321.827 1024.21L321.834 1014.7L315.489 1014.69L315.493 1008.35L305.975 1008.34L305.981 998.824L296.464 998.817Z" fill="white"/>
<path d="M356.714 1043.27L356.72 1033.75L321.822 1033.73L321.816 1043.25L315.471 1043.25L315.465 1052.76L305.947 1052.76L305.941 1062.27L296.423 1062.27L296.419 1068.61L331.317 1068.64L331.323 1059.12L337.668 1059.12L337.672 1052.78L347.19 1052.78L347.196 1043.27L356.714 1043.27Z" fill="white"/>
<rect x="369.416" y="1024.25" width="9.5176" height="9.5176" transform="rotate(0.0369024 369.416 1024.25)" fill="white"/>
<path fill-rule="evenodd" clip-rule="evenodd" d="M364.383 772.616L384.837 772.629L384.832 780.811L393.014 780.816L393.009 788.998L401.191 789.004L401.185 797.185L409.367 797.191L409.362 805.372L417.544 805.378L417.539 813.56L425.721 813.565L425.715 821.747L433.897 821.752L433.892 829.934L442.073 829.939L442.068 838.121L450.25 838.126L450.234 862.671L442.052 862.666L442.046 870.848L433.865 870.842L433.86 879.025L425.678 879.019L425.673 887.201L417.492 887.196L417.486 895.377L409.304 895.372L409.299 903.554L401.117 903.549L401.112 911.73L392.93 911.725L392.925 919.907L384.743 919.902L384.738 928.084L364.283 928.071L364.291 915.798L380.655 915.808L380.66 907.626L388.842 907.632L388.847 899.45L397.029 899.455L397.034 891.273L405.216 891.279L405.221 883.097L413.403 883.102L413.408 874.92L421.59 874.926L421.595 866.744L429.776 866.749L429.782 858.567L437.964 858.572L437.975 842.209L429.792 842.204L429.798 834.022L421.616 834.017L421.622 825.835L413.44 825.83L413.445 817.648L405.263 817.642L405.269 809.461L397.086 809.455L397.092 801.274L388.91 801.268L388.915 793.086L380.734 793.081L380.739 784.899L364.375 784.889L364.383 772.616Z" fill="white"/>
<path fill-rule="evenodd" clip-rule="evenodd" d="M384.838 772.63L364.383 772.617L364.378 780.798L356.196 780.793L356.191 788.975L348.009 788.97L348.004 797.151L339.822 797.146L339.817 805.328L331.635 805.323L331.63 813.505L323.448 813.499L323.443 821.681L315.261 821.676L315.256 829.858L307.074 829.852L307.069 838.034L298.886 838.029L298.871 862.574L307.053 862.579L307.048 870.761L315.229 870.766L315.224 878.949L323.406 878.954L323.4 887.135L331.582 887.141L331.577 895.322L339.759 895.328L339.753 903.509L347.935 903.515L347.93 911.697L356.112 911.702L356.107 919.884L364.288 919.889L364.283 928.071L384.738 928.084L384.745 915.811L368.382 915.801L368.387 907.619L360.206 907.614L360.211 899.432L352.029 899.427L352.034 891.245L343.852 891.239L343.857 883.058L335.676 883.052L335.681 874.871L327.5 874.865L327.505 866.684L319.323 866.679L319.328 858.496L311.146 858.491L311.156 842.128L319.339 842.133L319.344 833.951L327.526 833.956L327.531 825.775L335.713 825.78L335.718 817.598L343.9 817.603L343.905 809.421L352.087 809.427L352.092 801.245L360.274 801.25L360.279 793.069L368.461 793.074L368.466 784.892L384.83 784.903L384.838 772.63Z" fill="white"/>
<rect x="364.339" y="842.162" width="20.4545" height="20.4545" transform="rotate(0.0369024 364.339 842.162)" fill="white"/>
<path d="M698.162 585.631L688.645 585.625L688.622 620.523L698.14 620.529L698.136 626.874L707.653 626.88L707.647 636.398L717.165 636.404L717.158 645.921L723.504 645.926L723.526 611.028L714.008 611.022L714.013 604.677L707.667 604.672L707.674 595.155L698.156 595.149L698.162 585.631Z" fill="white"/>
<path d="M758.44 585.67L767.958 585.676L767.936 620.574L758.418 620.568L758.414 626.913L748.896 626.907L748.89 636.425L739.373 636.418L739.366 645.936L733.021 645.932L733.044 611.034L742.561 611.04L742.565 604.695L748.911 604.699L748.917 595.182L758.434 595.188L758.44 585.67Z" fill="white"/>
<path d="M745.709 649.112L745.703 658.63L780.601 658.652L780.607 649.135L786.952 649.139L786.958 639.621L796.476 639.627L796.482 630.11L806 630.116L806.004 623.771L771.106 623.748L771.1 633.266L764.755 633.262L764.751 639.607L755.233 639.601L755.227 649.118L745.709 649.112Z" fill="white"/>
<path d="M805.958 693.566L805.952 703.084L771.054 703.062L771.06 693.544L764.715 693.54L764.722 684.022L755.204 684.016L755.21 674.499L745.692 674.492L745.697 668.147L780.594 668.17L780.588 677.687L786.933 677.691L786.929 684.037L796.447 684.043L796.441 693.56L805.958 693.566Z" fill="white"/>
<path d="M758.34 741.124L767.857 741.13L767.88 706.232L758.362 706.226L758.366 699.881L748.849 699.875L748.855 690.357L739.337 690.351L739.343 680.833L732.998 680.829L732.976 715.727L742.494 715.733L742.489 722.078L748.834 722.082L748.828 731.6L758.346 731.606L758.34 741.124Z" fill="white"/>
<path d="M698.062 741.085L688.544 741.079L688.566 706.181L698.084 706.187L698.088 699.842L707.606 699.848L707.612 690.331L717.129 690.337L717.136 680.819L723.481 680.823L723.458 715.721L713.941 715.715L713.936 722.06L707.591 722.056L707.585 731.574L698.068 731.568L698.062 741.085Z" fill="white"/>
<path d="M650.544 633.188L650.55 623.671L685.448 623.693L685.442 633.211L691.787 633.215L691.78 642.733L701.298 642.739L701.292 652.256L710.81 652.263L710.805 658.608L675.908 658.585L675.914 649.067L669.569 649.063L669.573 642.718L660.055 642.712L660.061 633.195L650.544 633.188Z" fill="white"/>
<path d="M710.793 677.643L710.799 668.125L675.901 668.103L675.895 677.621L669.55 677.617L669.544 687.134L660.026 687.128L660.02 696.646L650.502 696.639L650.498 702.985L685.396 703.007L685.402 693.489L691.747 693.493L691.751 687.148L701.269 687.155L701.275 677.637L710.793 677.643Z" fill="white"/>
<rect x="723.495" y="658.616" width="9.5176" height="9.5176" transform="rotate(0.0369024 723.495 658.616)" fill="white"/>
<path d="M697.934 942.959L688.416 942.953L688.394 977.85L697.911 977.857L697.907 984.202L707.425 984.208L707.419 993.725L716.936 993.732L716.93 1003.25L723.275 1003.25L723.298 968.355L713.78 968.349L713.784 962.004L707.439 962L707.445 952.482L697.927 952.476L697.934 942.959Z" fill="white"/>
<path d="M758.212 942.998L767.729 943.004L767.707 977.902L758.189 977.896L758.185 984.241L748.668 984.235L748.662 993.752L739.144 993.746L739.138 1003.26L732.793 1003.26L732.815 968.362L742.333 968.368L742.337 962.023L748.682 962.027L748.688 952.509L758.206 952.515L758.212 942.998Z" fill="white"/>
<path d="M745.481 1006.44L745.475 1015.96L780.372 1015.98L780.379 1006.46L786.724 1006.47L786.73 996.949L796.247 996.955L796.254 987.437L805.771 987.444L805.775 981.098L770.877 981.076L770.871 990.594L764.526 990.59L764.522 996.935L755.004 996.928L754.998 1006.45L745.481 1006.44Z" fill="white"/>
<path d="M805.73 1050.89L805.724 1060.41L770.826 1060.39L770.832 1050.87L764.487 1050.87L764.493 1041.35L754.975 1041.34L754.982 1031.83L745.464 1031.82L745.468 1025.48L780.366 1025.5L780.36 1035.02L786.705 1035.02L786.701 1041.36L796.218 1041.37L796.212 1050.89L805.73 1050.89Z" fill="white"/>
<path d="M758.111 1098.45L767.629 1098.46L767.651 1063.56L758.134 1063.55L758.138 1057.21L748.62 1057.2L748.626 1047.68L739.109 1047.68L739.115 1038.16L732.77 1038.16L732.747 1073.05L742.265 1073.06L742.261 1079.41L748.606 1079.41L748.6 1088.93L758.117 1088.93L758.111 1098.45Z" fill="white"/>
<path d="M697.833 1098.41L688.315 1098.41L688.338 1063.51L697.856 1063.52L697.86 1057.17L707.377 1057.18L707.383 1047.66L716.901 1047.66L716.907 1038.15L723.252 1038.15L723.23 1073.05L713.712 1073.04L713.708 1079.39L707.363 1079.38L707.357 1088.9L697.839 1088.9L697.833 1098.41Z" fill="white"/>
<path d="M650.315 990.516L650.321 980.999L685.219 981.021L685.213 990.539L691.558 990.543L691.552 1000.06L701.07 1000.07L701.063 1009.58L710.581 1009.59L710.577 1015.94L675.679 1015.91L675.685 1006.4L669.34 1006.39L669.344 1000.05L659.827 1000.04L659.833 990.522L650.315 990.516Z" fill="white"/>
<path d="M710.565 1034.97L710.571 1025.45L675.673 1025.43L675.667 1034.95L669.322 1034.94L669.316 1044.46L659.799 1044.46L659.792 1053.97L650.275 1053.97L650.271 1060.31L685.169 1060.33L685.175 1050.82L691.52 1050.82L691.524 1044.48L701.041 1044.48L701.048 1034.96L710.565 1034.97Z" fill="white"/>
<rect x="723.268" y="1015.94" width="9.5176" height="9.5176" transform="rotate(0.0369024 723.268 1015.94)" fill="white"/>
<path fill-rule="evenodd" clip-rule="evenodd" d="M718.234 764.315L738.689 764.328L738.684 772.51L746.866 772.515L746.86 780.697L755.042 780.702L755.037 788.884L763.219 788.889L763.213 797.071L771.395 797.076L771.39 805.258L779.572 805.264L779.567 813.445L787.748 813.451L787.743 821.632L795.924 821.638L795.919 829.819L804.101 829.825L804.086 854.37L795.903 854.365L795.898 862.546L787.717 862.541L787.712 870.723L779.53 870.718L779.525 878.9L771.343 878.894L771.338 887.076L763.155 887.071L763.15 895.253L754.968 895.247L754.963 903.429L746.781 903.424L746.776 911.606L738.594 911.6L738.589 919.782L718.135 919.769L718.143 907.497L734.506 907.507L734.511 899.325L742.693 899.33L742.698 891.149L750.88 891.154L750.885 882.972L759.068 882.977L759.073 874.796L767.254 874.801L767.26 866.619L775.442 866.624L775.447 858.443L783.628 858.448L783.633 850.266L791.816 850.271L791.826 833.908L783.644 833.902L783.649 825.721L775.468 825.715L775.473 817.534L767.291 817.528L767.297 809.346L759.115 809.341L759.12 801.159L750.938 801.154L750.943 792.972L742.762 792.967L742.767 784.785L734.585 784.78L734.59 776.598L718.226 776.588L718.234 764.315Z" fill="white"/>
<path fill-rule="evenodd" clip-rule="evenodd" d="M738.689 764.329L718.235 764.315L718.23 772.497L710.048 772.492L710.042 780.674L701.861 780.668L701.855 788.85L693.674 788.845L693.668 797.027L685.487 797.022L685.481 805.203L677.3 805.198L677.294 813.38L669.113 813.375L669.107 821.556L660.926 821.551L660.92 829.733L652.738 829.728L652.722 854.273L660.904 854.278L660.899 862.46L669.081 862.465L669.076 870.647L677.257 870.653L677.252 878.834L685.434 878.84L685.428 887.021L693.61 887.026L693.605 895.208L701.787 895.213L701.782 903.395L709.963 903.401L709.958 911.582L718.14 911.588L718.135 919.769L738.589 919.783L738.597 907.51L722.233 907.499L722.239 899.318L714.057 899.312L714.062 891.131L705.88 891.125L705.886 882.943L697.704 882.938L697.709 874.756L689.527 874.751L689.533 866.57L681.351 866.564L681.356 858.383L673.174 858.377L673.18 850.195L664.998 850.19L665.008 833.826L673.19 833.832L673.196 825.65L681.377 825.655L681.383 817.474L689.564 817.479L689.57 809.297L697.751 809.302L697.757 801.12L705.938 801.125L705.944 792.944L714.125 792.949L714.131 784.767L722.312 784.773L722.318 776.591L738.682 776.601L738.689 764.329Z" fill="white"/>
<rect x="718.19" y="833.86" width="20.4545" height="20.4545" transform="rotate(0.0369024 718.19 833.86)" fill="white"/>
<path fill-rule="evenodd" clip-rule="evenodd" d="M185.843 593.829L206.297 593.842L206.292 602.024L214.474 602.029L214.469 610.211L222.651 610.217L222.645 618.398L230.827 618.403L230.821 626.585L239.004 626.59L238.998 634.773L247.18 634.778L247.175 642.959L255.357 642.965L255.351 651.146L263.533 651.152L263.528 659.333L271.71 659.339L271.694 683.884L263.512 683.879L263.506 692.061L255.325 692.055L255.32 700.237L247.138 700.232L247.133 708.414L238.951 708.409L238.946 716.59L230.764 716.585L230.758 724.767L222.577 724.762L222.571 732.943L214.39 732.938L214.384 741.12L206.203 741.114L206.197 749.296L185.743 749.283L185.751 737.011L202.114 737.021L202.12 728.839L210.301 728.844L210.307 720.663L218.488 720.668L218.494 712.486L226.676 712.491L226.681 704.31L234.863 704.315L234.868 696.133L243.05 696.138L243.055 687.957L251.236 687.962L251.242 679.78L259.424 679.785L259.434 663.422L251.252 663.417L251.258 655.235L243.076 655.229L243.081 647.048L234.9 647.043L234.905 638.861L226.723 638.855L226.728 630.673L218.546 630.668L218.551 622.487L210.37 622.481L210.375 614.299L202.193 614.294L202.199 606.112L185.835 606.102L185.843 593.829Z" fill="white"/>
<path fill-rule="evenodd" clip-rule="evenodd" d="M206.298 593.843L185.843 593.83L185.838 602.011L177.656 602.006L177.651 610.188L169.469 610.183L169.464 618.364L161.282 618.359L161.277 626.541L153.095 626.536L153.09 634.717L144.908 634.712L144.903 642.894L136.721 642.889L136.716 651.07L128.534 651.065L128.529 659.247L120.346 659.242L120.331 683.787L128.513 683.792L128.508 691.974L136.689 691.979L136.684 700.161L144.866 700.167L144.861 708.348L153.042 708.354L153.037 716.535L161.219 716.541L161.214 724.722L169.396 724.728L169.39 732.91L177.572 732.915L177.566 741.097L185.748 741.102L185.743 749.284L206.197 749.297L206.205 737.024L189.842 737.014L189.847 728.832L181.666 728.827L181.671 720.645L173.489 720.64L173.494 712.458L165.312 712.452L165.317 704.271L157.136 704.265L157.141 696.084L148.96 696.078L148.965 687.897L140.783 687.891L140.788 679.709L132.606 679.704L132.616 663.34L140.799 663.346L140.804 655.164L148.986 655.169L148.991 646.988L157.173 646.993L157.178 638.811L165.36 638.816L165.365 630.634L173.547 630.64L173.552 622.458L181.734 622.463L181.739 614.281L189.921 614.287L189.926 606.105L206.29 606.115L206.298 593.843Z" fill="white"/>
<rect x="185.799" y="663.375" width="20.4545" height="20.4545" transform="rotate(0.0369024 185.799 663.375)" fill="white"/>
<path fill-rule="evenodd" clip-rule="evenodd" d="M543.153 594.059L563.608 594.072L563.603 602.254L571.784 602.259L571.779 610.441L579.961 610.446L579.956 618.628L588.137 618.633L588.132 626.815L596.314 626.82L596.309 635.003L604.491 635.008L604.486 643.189L612.667 643.195L612.662 651.376L620.844 651.382L620.838 659.563L629.02 659.569L629.004 684.114L620.822 684.109L620.817 692.291L612.636 692.285L612.63 700.467L604.449 700.462L604.443 708.644L596.262 708.639L596.257 716.82L588.074 716.815L588.069 724.997L579.887 724.991L579.882 733.173L571.7 733.168L571.695 741.35L563.513 741.344L563.508 749.526L543.054 749.513L543.061 737.241L559.425 737.251L559.43 729.069L567.612 729.074L567.617 720.893L575.799 720.898L575.804 712.716L583.986 712.721L583.992 704.54L592.173 704.545L592.179 696.363L600.36 696.369L600.366 688.187L608.547 688.192L608.552 680.01L616.734 680.015L616.745 663.652L608.563 663.646L608.568 655.465L600.387 655.459L600.392 647.278L592.21 647.273L592.216 639.091L584.034 639.085L584.039 630.903L575.857 630.898L575.862 622.717L567.681 622.711L567.686 614.529L559.504 614.524L559.509 606.342L543.145 606.332L543.153 594.059Z" fill="white"/>
<path fill-rule="evenodd" clip-rule="evenodd" d="M563.608 594.073L543.154 594.06L543.149 602.241L534.966 602.236L534.961 610.418L526.779 610.412L526.774 618.594L518.592 618.589L518.587 626.771L510.405 626.766L510.4 634.947L502.218 634.942L502.213 643.124L494.031 643.119L494.026 651.3L485.844 651.295L485.839 659.477L477.657 659.472L477.641 684.017L485.823 684.022L485.818 692.204L494 692.209L493.995 700.391L502.176 700.397L502.171 708.578L510.352 708.584L510.347 716.765L518.529 716.77L518.524 724.952L526.706 724.958L526.701 733.139L534.882 733.145L534.877 741.326L543.059 741.332L543.053 749.513L563.508 749.527L563.516 737.254L547.152 737.243L547.157 729.062L538.976 729.056L538.981 720.875L530.799 720.869L530.805 712.687L522.622 712.682L522.628 704.5L514.446 704.495L514.452 696.314L506.27 696.308L506.275 688.126L498.093 688.121L498.099 679.939L489.916 679.934L489.927 663.57L498.109 663.576L498.114 655.394L506.296 655.399L506.301 647.218L514.483 647.223L514.488 639.041L522.67 639.046L522.675 630.864L530.857 630.869L530.863 622.688L539.044 622.693L539.049 614.511L547.231 614.517L547.236 606.335L563.6 606.345L563.608 594.073Z" fill="white"/>
<rect x="543.109" y="663.604" width="20.4545" height="20.4545" transform="rotate(0.0369024 543.109 663.604)" fill="white"/>
<path fill-rule="evenodd" clip-rule="evenodd" d="M185.609 951.16L206.064 951.173L206.059 959.355L214.241 959.36L214.235 967.542L222.417 967.547L222.412 975.729L230.593 975.734L230.588 983.916L238.77 983.921L238.765 992.103L246.947 992.108L246.942 1000.29L255.123 1000.3L255.118 1008.48L263.299 1008.48L263.294 1016.66L271.476 1016.67L271.461 1041.21L263.278 1041.21L263.273 1049.39L255.092 1049.39L255.086 1057.57L246.905 1057.56L246.899 1065.74L238.718 1065.74L238.712 1073.92L230.53 1073.92L230.525 1082.1L222.343 1082.09L222.338 1090.27L214.156 1090.27L214.151 1098.45L205.969 1098.44L205.964 1106.63L185.51 1106.61L185.518 1094.34L201.881 1094.35L201.886 1086.17L210.068 1086.17L210.073 1077.99L218.255 1078L218.26 1069.82L226.442 1069.82L226.448 1061.64L234.629 1061.65L234.635 1053.46L242.816 1053.47L242.822 1045.29L251.003 1045.29L251.008 1037.11L259.191 1037.12L259.201 1020.75L251.019 1020.75L251.024 1012.57L242.843 1012.56L242.848 1004.38L234.666 1004.37L234.672 996.191L226.49 996.186L226.495 988.004L218.313 987.999L218.318 979.817L210.137 979.812L210.142 971.63L201.96 971.625L201.965 963.443L185.601 963.432L185.609 951.16Z" fill="white"/>
<path fill-rule="evenodd" clip-rule="evenodd" d="M206.064 951.173L185.61 951.16L185.605 959.341L177.422 959.336L177.417 967.518L169.236 967.513L169.23 975.694L161.049 975.689L161.043 983.871L152.862 983.866L152.856 992.048L144.675 992.042L144.669 1000.22L136.488 1000.22L136.482 1008.4L128.301 1008.4L128.295 1016.58L120.113 1016.57L120.097 1041.12L128.279 1041.12L128.274 1049.3L136.456 1049.31L136.451 1057.49L144.632 1057.5L144.627 1065.68L152.809 1065.68L152.803 1073.87L160.985 1073.87L160.98 1082.05L169.162 1082.06L169.157 1090.24L177.338 1090.24L177.333 1098.43L185.515 1098.43L185.51 1106.61L205.964 1106.63L205.972 1094.35L189.608 1094.34L189.614 1086.16L181.432 1086.16L181.437 1077.97L173.255 1077.97L173.261 1069.79L165.079 1069.78L165.084 1061.6L156.902 1061.6L156.908 1053.41L148.726 1053.41L148.731 1045.23L140.549 1045.22L140.555 1037.04L132.373 1037.03L132.383 1020.67L140.565 1020.68L140.571 1012.49L148.752 1012.5L148.758 1004.32L156.939 1004.32L156.945 996.141L165.126 996.147L165.132 987.964L173.314 987.97L173.319 979.788L181.5 979.793L181.506 971.611L189.687 971.617L189.692 963.435L206.057 963.446L206.064 951.173Z" fill="white"/>
<rect x="185.565" y="1020.7" width="20.4545" height="20.4545" transform="rotate(0.0369024 185.565 1020.7)" fill="white"/>
<path fill-rule="evenodd" clip-rule="evenodd" d="M542.925 951.388L563.379 951.401L563.374 959.582L571.556 959.588L571.551 967.77L579.733 967.775L579.727 975.957L587.909 975.962L587.904 984.144L596.086 984.149L596.08 992.331L604.262 992.336L604.257 1000.52L612.439 1000.52L612.433 1008.7L620.615 1008.71L620.609 1016.89L628.792 1016.9L628.776 1041.44L620.594 1041.44L620.588 1049.62L612.407 1049.61L612.402 1057.8L604.22 1057.79L604.215 1065.97L596.033 1065.97L596.028 1074.15L587.846 1074.14L587.84 1082.33L579.659 1082.32L579.653 1090.5L571.472 1090.5L571.466 1098.68L563.285 1098.67L563.279 1106.86L542.825 1106.84L542.833 1094.57L559.196 1094.58L559.202 1086.4L567.383 1086.4L567.388 1078.22L575.57 1078.23L575.575 1070.04L583.758 1070.05L583.763 1061.87L591.945 1061.87L591.95 1053.69L600.132 1053.7L600.137 1045.52L608.318 1045.52L608.324 1037.34L616.506 1037.34L616.516 1020.98L608.334 1020.97L608.339 1012.79L600.158 1012.79L600.163 1004.61L591.982 1004.6L591.987 996.419L583.805 996.414L583.81 988.232L575.628 988.227L575.633 980.045L567.452 980.04L567.457 971.858L559.275 971.852L559.28 963.671L542.917 963.66L542.925 951.388Z" fill="white"/>
<path fill-rule="evenodd" clip-rule="evenodd" d="M563.38 951.401L542.925 951.388L542.92 959.57L534.738 959.565L534.733 967.746L526.551 967.741L526.546 975.923L518.364 975.918L518.359 984.1L510.177 984.094L510.172 992.276L501.99 992.271L501.985 1000.45L493.803 1000.45L493.798 1008.63L485.616 1008.62L485.611 1016.81L477.428 1016.8L477.412 1041.35L485.595 1041.35L485.59 1049.53L493.771 1049.54L493.766 1057.72L501.948 1057.73L501.942 1065.91L510.124 1065.91L510.119 1074.09L518.301 1074.1L518.296 1082.28L526.477 1082.29L526.472 1090.47L534.654 1090.47L534.648 1098.66L542.83 1098.66L542.825 1106.84L563.28 1106.86L563.287 1094.58L546.924 1094.57L546.929 1086.39L538.748 1086.38L538.753 1078.2L530.571 1078.2L530.576 1070.02L522.394 1070.01L522.399 1061.83L514.218 1061.82L514.223 1053.64L506.041 1053.64L506.047 1045.46L497.865 1045.45L497.87 1037.27L489.688 1037.26L489.698 1020.9L497.881 1020.9L497.886 1012.72L506.068 1012.73L506.073 1004.55L514.255 1004.55L514.26 996.37L522.442 996.375L522.447 988.193L530.629 988.198L530.634 980.016L538.816 980.022L538.821 971.84L547.003 971.845L547.008 963.664L563.372 963.674L563.38 951.401Z" fill="white"/>
<rect x="542.881" y="1020.93" width="20.4545" height="20.4545" transform="rotate(0.0369024 542.881 1020.93)" fill="white"/>
</g>
</svg>
