<svg width="1342" height="62" viewBox="0 0 1342 62" fill="none" xmlns="http://www.w3.org/2000/svg">
<path d="M481.744 35.288C483.792 34.264 484.848 32.536 484.848 30.456C484.848 27.064 481.968 24.6 475.792 24.6H463.824V47H476.432C482.608 47 485.904 44.728 485.904 40.824C485.904 38.168 484.368 36.248 481.744 35.288ZM474.768 29.88C476.464 29.88 477.232 30.456 477.232 31.544C477.232 32.632 476.464 33.208 474.768 33.208H471.248V29.88H474.768ZM475.792 41.72H471.248V38.2H475.792C477.456 38.2 478.288 38.808 478.288 39.96C478.288 41.112 477.456 41.72 475.792 41.72ZM720.075 47.512C726.955 47.512 730.987 43.64 730.987 36.92V24.6H723.563V36.696C723.563 40.12 722.251 41.4 720.139 41.4C718.027 41.4 716.715 40.12 716.715 36.696V24.6H709.163V36.92C709.163 43.64 713.195 47.512 720.075 47.512Z" fill="#E62C20"/>
<path d="M488.574 47H496.126V24.6H488.574V47ZM530.344 47H537.896V30.456H544.456V24.6H523.784V30.456H530.344V47ZM586.919 24.6V34.776L578.407 24.6H572.199V47H579.559V36.824L588.071 47H594.279V24.6H586.919ZM612.734 40.856C611.806 41.24 610.91 41.4 609.982 41.4C606.75 41.4 604.638 39.16 604.638 35.8C604.638 32.344 606.75 30.2 610.078 30.2C612.062 30.2 613.694 31.032 615.102 32.664L619.934 28.408C617.662 25.624 614.11 24.088 609.694 24.088C602.302 24.088 597.022 28.92 597.022 35.8C597.022 42.68 602.302 47.512 609.534 47.512C612.83 47.512 616.574 46.52 619.294 44.664V35.192H612.734V40.856ZM636.969 47H644.521V30.456H651.081V24.6H630.409V30.456H636.969V47ZM705.704 47L705.64 24.6H699.432L692.328 36.536L685.032 24.6H678.824V47H685.704V37.144L690.568 44.984H693.896L698.76 36.792L698.824 47H705.704ZM758.763 47H767.499L758.091 34.456L767.051 24.6H758.827L751.467 32.728V24.6H744.043V47H751.467V41.464L753.163 39.576L758.763 47ZM768.512 47H776.064V24.6H768.512V47ZM784.563 47H792.115V30.456H798.675V24.6H778.003V30.456H784.563V47Z" fill="white"/>
<path d="M514.482 24.6V34.776L505.97 24.6H499.762V47H507.122V36.824L515.634 47H521.842V24.6H514.482ZM817.405 47H825.213L815.421 24.6H807.997L798.204 47H805.885L807.389 43.096H815.901L817.405 47ZM809.469 37.656L811.645 32.024L813.821 37.656H809.469Z" fill="#F69722"/>
<path d="M563.186 47H570.994L561.202 24.6H553.778L543.986 47H551.666L553.17 43.096H561.682L563.186 47ZM555.25 37.656L557.426 32.024L559.602 37.656H555.25Z" fill="#9C4A9A"/>
<path d="M669.811 47H677.619L667.827 24.6H660.403L650.611 47H658.291L659.795 43.096H668.307L669.811 47ZM661.875 37.656L664.051 32.024L666.227 37.656H661.875Z" fill="#4A8068"/>
<path d="M0 30L427.184 30" stroke="#EEEEEE" stroke-width="5" stroke-linejoin="round"/>
<path d="M415.102 0L411.847 0V13.4693H415.102V15.9183H418.358V19.5917H421.614V23.2652H423.784V9.79587H420.529V7.3469H418.358V3.67345L415.102 3.67345V0Z" fill="#D9D9D9"/>
<path d="M435.722 0L438.978 0V13.4693H435.722V15.9183H432.466V19.5917H429.21V23.2652H427.04V9.79587H430.296V7.3469H432.466V3.67345L435.722 3.67345L435.722 0Z" fill="#D9D9D9"/>
<path d="M431.381 24.4896V28.1631H443.318V24.4896H445.489V20.8162H448.745V17.1427H452V14.6938L440.063 14.6938V18.3672H437.892V20.8162H434.637V24.4896H431.381Z" fill="#D9D9D9"/>
<path d="M452.001 41.6332V45.3066H440.063V41.6332H437.893V37.9597H434.637V34.2863H431.382V31.8373H443.319V35.5108H445.49V37.9597H448.745V41.6332H452.001Z" fill="#D9D9D9"/>
<path d="M435.723 60H438.979V46.5307H435.723V44.0817H432.467V40.4083H429.211V36.7348H427.041V50.2041H430.297V52.6531H432.467V56.3265H435.723V60Z" fill="#D9D9D9"/>
<path d="M415.102 60H411.847V46.5307H415.102V44.0817H418.358V40.4083H421.614V36.7348H423.784V50.2041H420.529V52.6531H418.358V56.3265H415.102L415.102 60Z" fill="#D9D9D9"/>
<path d="M398.824 18.3673V14.6938H410.762V18.3673H412.932V22.0407H416.188V25.7142H419.444V28.1632H407.506V24.4897H405.336V22.0407H402.08V18.3673H398.824Z" fill="#D9D9D9"/>
<path d="M419.444 35.5104L419.444 31.8369L407.507 31.8369L407.507 35.5104L405.336 35.5104L405.336 39.1838L402.081 39.1838L402.081 42.8573L398.825 42.8573L398.825 45.3062L410.762 45.3062L410.762 41.6328L412.933 41.6328L412.933 39.1838L416.189 39.1838L416.189 35.5104L419.444 35.5104Z" fill="#D9D9D9"/>
<rect x="423.785" y="28.1631" width="3.2557" height="3.67345" fill="#D9D9D9"/>
<path d="M1341.99 30.0034L859.992 30.0035" stroke="#EEEEEE" stroke-width="5" stroke-linejoin="round"/>
<path d="M873.633 62H877.307V48.5307H873.633V46.0817H869.96V42.4083H866.286V38.7348H863.837V52.2041H867.511V54.6531H869.96V58.3265H873.633V62Z" fill="#D9D9D9"/>
<path d="M850.368 62H846.694V48.5307H850.368V46.0817H854.041V42.4083H857.715V38.7348H860.164V52.2041H856.49V54.6531H854.041V58.3265H850.368V62Z" fill="#D9D9D9"/>
<path d="M855.266 37.5104V33.8369L841.796 33.8369V37.5104H839.347V41.1838H835.674V44.8573H832V47.3062L845.47 47.3062V43.6328H847.919V41.1838H851.592V37.5104H855.266Z" fill="#D9D9D9"/>
<path d="M832 20.3668V16.6934L845.469 16.6934V20.3668H847.918L847.918 24.0403L851.592 24.0403V27.7137H855.265V30.1627L841.796 30.1627V26.4892L839.347 26.4892V24.0403L835.673 24.0403V20.3668H832Z" fill="#D9D9D9"/>
<path d="M850.367 2L846.693 2V15.4693L850.367 15.4693V17.9183H854.04V21.5917H857.714V25.2652H860.163V11.7959H856.489V9.3469H854.04V5.67345H850.367V2Z" fill="#D9D9D9"/>
<path d="M873.633 2L877.307 2V15.4693L873.633 15.4693V17.9183H869.96V21.5917H866.286V25.2652H863.837V11.7959H867.511V9.3469H869.96V5.67345H873.633V2Z" fill="#D9D9D9"/>
<path d="M892 43.6327V47.3062L878.531 47.3062V43.6327H876.082V39.9593H872.408V36.2858H868.735V33.8368L882.204 33.8368L882.204 37.5103H884.653V39.9593H888.327V43.6327H892Z" fill="#D9D9D9"/>
<path d="M868.734 26.4896L868.734 30.1631L882.204 30.1631L882.204 26.4896L884.653 26.4896L884.653 22.8162L888.326 22.8162L888.326 19.1427L892 19.1427L892 16.6938L878.53 16.6938L878.53 20.3672L876.081 20.3672L876.081 22.8162L872.408 22.8162L872.408 26.4896L868.734 26.4896Z" fill="#D9D9D9"/>
<rect x="863.836" y="33.8369" width="3.67347" height="3.67345" transform="rotate(180 863.836 33.8369)" fill="#D9D9D9"/>
</svg>
