<svg width="1355" height="62" viewBox="0 0 1355 62" fill="none" xmlns="http://www.w3.org/2000/svg">
<path d="M501 39C500.333 33.8333 498.9 23.1 498.5 21.5L512.5 23L514.5 35L501 39Z" fill="#E62C20"/>
<path d="M496.824 41V18.6H508.792C511.885 18.6 514.168 19.1547 515.64 20.264C517.112 21.352 517.848 22.7493 517.848 24.456C517.848 25.5867 517.528 26.6 516.888 27.496C516.269 28.3707 515.363 29.064 514.168 29.576C512.973 30.088 511.501 30.344 509.752 30.344L510.392 28.616C512.141 28.616 513.645 28.8613 514.904 29.352C516.184 29.8427 517.165 30.5573 517.848 31.496C518.552 32.4133 518.904 33.5227 518.904 34.824C518.904 36.7653 518.093 38.28 516.472 39.368C514.872 40.456 512.525 41 509.432 41H496.824ZM504.248 35.72H508.792C509.624 35.72 510.243 35.5707 510.648 35.272C511.075 34.9733 511.288 34.536 511.288 33.96C511.288 33.384 511.075 32.9467 510.648 32.648C510.243 32.3493 509.624 32.2 508.792 32.2H503.736V27.208H507.768C508.621 27.208 509.24 27.0693 509.624 26.792C510.029 26.4933 510.232 26.0773 510.232 25.544C510.232 24.9893 510.029 24.5733 509.624 24.296C509.24 24.0187 508.621 23.88 507.768 23.88H504.248V35.72ZM753.075 41.512C749.641 41.512 746.963 40.584 745.043 38.728C743.123 36.872 742.163 34.2693 742.163 30.92V18.6H749.715V30.696C749.715 32.4027 750.025 33.6187 750.643 34.344C751.262 35.048 752.094 35.4 753.139 35.4C754.206 35.4 755.038 35.048 755.635 34.344C756.254 33.6187 756.563 32.4027 756.563 30.696V18.6H763.987V30.92C763.987 34.2693 763.027 36.872 761.107 38.728C759.187 40.584 756.51 41.512 753.075 41.512Z" fill="#E62C20"/>
<path d="M521.574 41V18.6H529.126V41H521.574ZM563.344 41V24.456H556.784V18.6H577.456V24.456H570.896V41H563.344ZM605.199 41V18.6H611.407L622.799 32.232H619.919V18.6H627.279V41H621.071L609.679 27.368H612.559V41H605.199ZM642.534 41.512C640.72 41.512 639.046 41.2347 637.51 40.68C635.995 40.104 634.672 39.2933 633.542 38.248C632.432 37.2027 631.568 35.9653 630.95 34.536C630.331 33.1067 630.022 31.528 630.022 29.8C630.022 28.072 630.331 26.4933 630.95 25.064C631.568 23.6347 632.443 22.3973 633.574 21.352C634.704 20.3067 636.038 19.5067 637.574 18.952C639.131 18.376 640.838 18.088 642.694 18.088C644.912 18.088 646.886 18.4613 648.614 19.208C650.363 19.9547 651.803 21.0213 652.934 22.408L648.102 26.664C647.398 25.8533 646.63 25.2453 645.798 24.84C644.987 24.4133 644.08 24.2 643.078 24.2C642.246 24.2 641.488 24.328 640.806 24.584C640.144 24.84 639.579 25.2133 639.11 25.704C638.64 26.1947 638.278 26.7813 638.022 27.464C637.766 28.1467 637.638 28.9253 637.638 29.8C637.638 30.632 637.766 31.4 638.022 32.104C638.278 32.7867 638.64 33.3733 639.11 33.864C639.579 34.3547 640.134 34.7387 640.774 35.016C641.435 35.272 642.171 35.4 642.982 35.4C643.835 35.4 644.667 35.2613 645.478 34.984C646.288 34.6853 647.152 34.184 648.07 33.48L652.294 38.664C650.928 39.5813 649.371 40.2853 647.622 40.776C645.872 41.2667 644.176 41.512 642.534 41.512ZM645.734 37.704V29.192H652.294V38.664L645.734 37.704ZM669.969 41V24.456H663.409V18.6H684.081V24.456H677.521V41H669.969ZM711.824 41V18.6H718.032L726.992 33.224H723.728L732.432 18.6H738.64L738.704 41H731.824L731.76 28.968H732.848L726.896 38.984H723.568L717.36 28.968H718.704V41H711.824ZM783.795 36.2L783.379 27.912L791.827 18.6H800.051L790.579 29.032L786.387 33.32L783.795 36.2ZM777.043 41V18.6H784.467V41H777.043ZM791.763 41L785.171 32.296L790.067 27.112L800.499 41H791.763ZM801.512 41V18.6H809.064V41H801.512ZM817.563 41V24.456H811.003V18.6H831.675V24.456H825.115V41H817.563Z" fill="white"/>
<path d="M532.762 41V18.6H538.97L550.362 32.232H547.482V18.6H554.842V41H548.634L537.242 27.368H540.122V41H532.762ZM831.204 41L840.997 18.6H848.421L858.213 41H850.405L843.173 22.184H846.117L838.885 41H831.204ZM837.029 37.096L838.949 31.656H849.253L851.173 37.096H837.029Z" fill="#F69722"/>
<path d="M576.986 41L586.778 18.6H594.202L603.994 41H596.186L588.954 22.184H591.898L584.666 41H576.986ZM582.81 37.096L584.73 31.656H595.034L596.954 37.096H582.81Z" fill="#9C4A9A"/>
<path d="M683.611 41L693.403 18.6H700.827L710.619 41H702.811L695.579 22.184H698.523L691.291 41H683.611ZM689.435 37.096L691.355 31.656H701.659L703.579 37.096H689.435Z" fill="#4A8068"/>
<path d="M746.5 36.5V18.5977H760L756.5 38L746.5 36.5Z" fill="#E62C20"/>
<path d="M0 30L445.14 30" stroke="#EEEEEE" stroke-width="5" stroke-linejoin="round"/>
<path d="M432.551 0L429.158 0V13.4693H432.551V15.9183H435.943V19.5917H439.336V23.2652H441.598V9.79587H438.205V7.3469H435.943V3.67345L432.551 3.67345L432.551 0Z" fill="#D9D9D9"/>
<path d="M454.037 0L457.43 0V13.4693H454.037V15.9183H450.645V19.5917H447.252V23.2652H444.99V9.79587H448.383V7.3469H450.645V3.67345L454.037 3.67345V0Z" fill="#D9D9D9"/>
<path d="M449.514 24.4896V28.1631H461.953V24.4896H464.215V20.8162H467.607V17.1427H471V14.6938L458.56 14.6938V18.3672H456.299V20.8162H452.906V24.4896H449.514Z" fill="#D9D9D9"/>
<path d="M471.001 41.6332V45.3066H458.562V41.6332H456.3V37.9597H452.907V34.2863H449.515V31.8373H461.954V35.5108H464.216V37.9597H467.608V41.6332H471.001Z" fill="#D9D9D9"/>
<path d="M454.038 60H457.431V46.5307H454.038V44.0817H450.646V40.4083H447.253V36.7348H444.991V50.2041H448.384V52.6531H450.646V56.3265H454.038L454.038 60Z" fill="#D9D9D9"/>
<path d="M432.551 60H429.158V46.5307H432.551V44.0817H435.943V40.4083H439.336V36.7348H441.598V50.2041H438.205V52.6531H435.943V56.3265H432.551V60Z" fill="#D9D9D9"/>
<path d="M415.589 18.3673V14.6938H428.028V18.3673H430.29V22.0407H433.682V25.7142H437.075V28.1632H424.636V24.4897H422.374V22.0407H418.981V18.3673H415.589Z" fill="#D9D9D9"/>
<path d="M437.075 35.5104L437.075 31.8369L424.636 31.8369L424.636 35.5104L422.374 35.5104L422.374 39.1838L418.982 39.1838L418.982 42.8573L415.589 42.8573L415.589 45.3062L428.028 45.3062L428.028 41.6328L430.29 41.6328L430.29 39.1838L433.683 39.1838L433.683 35.5104L437.075 35.5104Z" fill="#D9D9D9"/>
<rect x="441.599" y="28.1631" width="3.39255" height="3.67345" fill="#D9D9D9"/>
<path d="M1355 30.0034L908.906 30.0035" stroke="#EEEEEE" stroke-width="5" stroke-linejoin="round"/>
<path d="M921.532 62H924.932V48.5307H921.532V46.0817H918.132V42.4083H914.732V38.7348H912.466V52.2041H915.865V54.6531H918.132V58.3265H921.532V62Z" fill="#D9D9D9"/>
<path d="M899.999 62H896.6V48.5307H899.999V46.0817H903.399V42.4083H906.799V38.7348H909.066V52.2041H905.666V54.6531H903.399V58.3265H899.999V62Z" fill="#D9D9D9"/>
<path d="M904.533 37.5104V33.8369L892.067 33.8369V37.5104H889.801L889.801 41.1838H886.401V44.8573H883.001V47.3062L895.467 47.3062V43.6328H897.734V41.1838H901.133V37.5104H904.533Z" fill="#D9D9D9"/>
<path d="M882.999 20.3668V16.6934L895.465 16.6934V20.3668H897.732V24.0403L901.131 24.0403V27.7137H904.531V30.1627L892.065 30.1627V26.4892L889.799 26.4892V24.0403L886.399 24.0403V20.3668H882.999Z" fill="#D9D9D9"/>
<path d="M899.998 2L896.599 2V15.4693L899.998 15.4693V17.9183H903.398V21.5917H906.798V25.2652H909.065V11.7959H905.665V9.3469H903.398V5.67345H899.998V2Z" fill="#D9D9D9"/>
<path d="M921.532 2L924.932 2V15.4693L921.532 15.4693V17.9183H918.132V21.5917H914.732V25.2652H912.466V11.7959H915.865V9.3469H918.132V5.67345H921.532V2Z" fill="#D9D9D9"/>
<path d="M938.53 43.6327V47.3062L926.064 47.3062V43.6327H923.798V39.9593H920.398V36.2858H916.998V33.8368L929.464 33.8368V37.5103H931.731V39.9593H935.13V43.6327H938.53Z" fill="#D9D9D9"/>
<path d="M916.998 26.4896L916.998 30.1631L929.464 30.1631L929.464 26.4896L931.731 26.4896L931.731 22.8162L935.13 22.8162L935.13 19.1427L938.53 19.1427L938.53 16.6938L926.064 16.6938L926.064 20.3672L923.798 20.3672L923.798 22.8162L920.398 22.8162L920.398 26.4896L916.998 26.4896Z" fill="#D9D9D9"/>
<rect x="912.464" y="33.8369" width="3.39983" height="3.67345" transform="rotate(180 912.464 33.8369)" fill="#D9D9D9"/>
<path d="M706.5 41H686L696.5 22.5L706.5 41Z" fill="#4A8068"/>
<path d="M581 41L590.5 22.5L600.5 41H581Z" fill="#9C4A9A"/>
<path d="M855 41H835L844.5 23.5L855 41Z" fill="#F69722"/>
</svg>
