<svg width="451" height="78" viewBox="0 0 451 78" fill="none" xmlns="http://www.w3.org/2000/svg">
<rect width="451" height="78" fill="#F69722"/>
<path d="M39.51 37.02C41.43 36.06 42.42 34.44 42.42 32.49C42.42 29.31 39.72 27 33.93 27H22.71V48H34.53C40.32 48 43.41 45.87 43.41 42.21C43.41 39.72 41.97 37.92 39.51 37.02ZM32.97 31.95C34.56 31.95 35.28 32.49 35.28 33.51C35.28 34.53 34.56 35.07 32.97 35.07H29.67V31.95H32.97ZM33.93 43.05H29.67V39.75H33.93C35.49 39.75 36.27 40.32 36.27 41.4C36.27 42.48 35.49 43.05 33.93 43.05ZM383.196 48H390.516L381.336 27H374.376L365.196 48H372.396L373.806 44.34H381.786L383.196 48ZM375.756 39.24L377.796 33.96L379.836 39.24H375.756Z" fill="#E62C20"/>
<path d="M52.8731 42.66V39.9H61.7531V34.8H52.8731V32.34H62.9831V27H45.9131V48H63.3731V42.66H52.8731ZM66.0987 48H82.6587V42.51H73.1787V27H66.0987V48ZM84.6143 48H91.6943V27H84.6143V48ZM108.657 48H115.737V32.49H121.887V27H102.507V32.49H108.657V48ZM123.726 48H130.806V27H123.726V48ZM148.014 48H156.204L147.384 36.24L155.784 27H148.074L141.174 34.62V27H134.214V48H141.174V42.81L142.764 41.04L148.014 48ZM164.113 42.66V39.9H172.993V34.8H164.113V32.34H174.223V27H157.153V48H174.613V42.66H164.113ZM181.899 48H188.979V32.49H195.129V27H175.749V32.49H181.899V48ZM235.641 48.48C242.091 48.48 245.871 44.85 245.871 38.55V27H238.911V38.34C238.911 41.55 237.681 42.75 235.701 42.75C233.721 42.75 232.491 41.55 232.491 38.34V27H225.411V38.55C225.411 44.85 229.191 48.48 235.641 48.48ZM265.94 48.48C272.45 48.48 275.72 45.24 275.72 41.4C275.72 33.66 264.11 35.76 264.11 33.24C264.11 32.52 264.77 31.92 266.84 31.92C268.67 31.92 270.62 32.43 272.69 33.48L274.82 28.35C272.63 27.12 269.72 26.52 266.9 26.52C260.39 26.52 257.12 29.7 257.12 33.6C257.12 41.43 268.73 39.3 268.73 41.94C268.73 42.66 268.01 43.08 266 43.08C263.69 43.08 261.05 42.33 259.07 41.16L256.79 46.32C258.89 47.61 262.43 48.48 265.94 48.48ZM284.787 42.66V39.9H293.667V34.8H284.787V32.34H294.897V27H277.827V48H295.287V42.66H284.787ZM311.813 48H320.003L311.183 36.24L319.583 27H311.873L304.973 34.62V27H298.013V48H304.973V42.81L306.563 41.04L311.813 48ZM357.692 48H365.252L360.842 41.52C363.362 40.23 364.802 37.95 364.802 34.92C364.802 30.06 361.082 27 355.232 27H345.122V48H352.202V42.72H354.122L357.692 48ZM357.662 34.92C357.662 36.45 356.732 37.38 354.782 37.38H352.202V32.46H354.782C356.732 32.46 357.662 33.39 357.662 34.92ZM405.446 27V36.54L397.466 27H391.646V48H398.546V38.46L406.526 48H412.346V27H405.446ZM429.647 42.24C428.777 42.6 427.937 42.75 427.067 42.75C424.037 42.75 422.057 40.65 422.057 37.5C422.057 34.26 424.037 32.25 427.157 32.25C429.017 32.25 430.547 33.03 431.867 34.56L436.397 30.57C434.267 27.96 430.937 26.52 426.797 26.52C419.867 26.52 414.917 31.05 414.917 37.5C414.917 43.95 419.867 48.48 426.647 48.48C429.737 48.48 433.247 47.55 435.797 45.81V36.93H429.647V42.24Z" fill="#EEEEEE"/>
<path d="M222.168 48L222.108 27H216.288L209.628 38.19L202.788 27H196.968V48H203.418V38.76L207.978 46.11H211.098L215.658 38.43L215.718 48H222.168Z" fill="#4A8068"/>
<path d="M336.672 48H343.992L334.812 27H327.852L318.672 48H325.872L327.282 44.34H335.262L336.672 48ZM329.232 39.24L331.272 33.96L333.312 39.24H329.232Z" fill="#9C4A9A"/>
<path d="M386.5 48H371.5L378 31L386.5 48Z" fill="#E62C20"/>
<path d="M219 48H200.5L201 31L207 39.5L211 40.5L217.5 33L219 48Z" fill="#4A8068"/>
<path d="M28.5 44.5V31.5L27.5 29L37 30.5V36.5L39 43.5L28.5 44.5Z" fill="#E62C20"/>
</svg>
