<svg width="451" height="78" viewBox="0 0 451 78" fill="none" xmlns="http://www.w3.org/2000/svg">
<rect width="451" height="78" fill="#171717"/>
<path d="M22.71 48V27H33.93C36.83 27 38.97 27.52 40.35 28.56C41.73 29.58 42.42 30.89 42.42 32.49C42.42 33.55 42.12 34.5 41.52 35.34C40.94 36.16 40.09 36.81 38.97 37.29C37.85 37.77 36.47 38.01 34.83 38.01L35.43 36.39C37.07 36.39 38.48 36.62 39.66 37.08C40.86 37.54 41.78 38.21 42.42 39.09C43.08 39.95 43.41 40.99 43.41 42.21C43.41 44.03 42.65 45.45 41.13 46.47C39.63 47.49 37.43 48 34.53 48H22.71ZM29.67 43.05H33.93C34.71 43.05 35.29 42.91 35.67 42.63C36.07 42.35 36.27 41.94 36.27 41.4C36.27 40.86 36.07 40.45 35.67 40.17C35.29 39.89 34.71 39.75 33.93 39.75H29.19V35.07H32.97C33.77 35.07 34.35 34.94 34.71 34.68C35.09 34.4 35.28 34.01 35.28 33.51C35.28 32.99 35.09 32.6 34.71 32.34C34.35 32.08 33.77 31.95 32.97 31.95H29.67V43.05ZM365.196 48L374.376 27H381.336L390.516 48H383.196L376.416 30.36H379.176L372.396 48H365.196ZM370.656 44.34L372.456 39.24H382.116L383.916 44.34H370.656Z" fill="#E62C20"/>
<path d="M52.3931 34.8H61.7531V39.9H52.3931V34.8ZM52.8731 42.66H63.3731V48H45.9131V27H62.9831V32.34H52.8731V42.66ZM66.0987 48V27H73.1787V42.51H82.6587V48H66.0987ZM84.6143 48V27H91.6943V48H84.6143ZM108.657 48V32.49H102.507V27H121.887V32.49H115.737V48H108.657ZM123.726 48V27H130.806V48H123.726ZM140.544 43.5L140.154 35.73L148.074 27H155.784L146.904 36.78L142.974 40.8L140.544 43.5ZM134.214 48V27H141.174V48H134.214ZM148.014 48L141.834 39.84L146.424 34.98L156.204 48H148.014ZM163.633 34.8H172.993V39.9H163.633V34.8ZM164.113 42.66H174.613V48H157.153V27H174.223V32.34H164.113V42.66ZM181.899 48V32.49H175.749V27H195.129V32.49H188.979V48H181.899ZM235.641 48.48C232.421 48.48 229.911 47.61 228.111 45.87C226.311 44.13 225.411 41.69 225.411 38.55V27H232.491V38.34C232.491 39.94 232.781 41.08 233.361 41.76C233.941 42.42 234.721 42.75 235.701 42.75C236.701 42.75 237.481 42.42 238.041 41.76C238.621 41.08 238.911 39.94 238.911 38.34V27H245.871V38.55C245.871 41.69 244.971 44.13 243.171 45.87C241.371 47.61 238.861 48.48 235.641 48.48ZM265.94 48.48C264.18 48.48 262.48 48.28 260.84 47.88C259.2 47.48 257.85 46.96 256.79 46.32L259.07 41.16C260.07 41.74 261.18 42.21 262.4 42.57C263.64 42.91 264.84 43.08 266 43.08C266.68 43.08 267.21 43.04 267.59 42.96C267.99 42.86 268.28 42.73 268.46 42.57C268.64 42.39 268.73 42.18 268.73 41.94C268.73 41.56 268.52 41.26 268.1 41.04C267.68 40.82 267.12 40.64 266.42 40.5C265.74 40.34 264.99 40.18 264.17 40.02C263.35 39.84 262.52 39.61 261.68 39.33C260.86 39.05 260.1 38.68 259.4 38.22C258.72 37.76 258.17 37.16 257.75 36.42C257.33 35.66 257.12 34.72 257.12 33.6C257.12 32.3 257.48 31.12 258.2 30.06C258.94 28.98 260.03 28.12 261.47 27.48C262.93 26.84 264.74 26.52 266.9 26.52C268.32 26.52 269.72 26.67 271.1 26.97C272.48 27.27 273.72 27.73 274.82 28.35L272.69 33.48C271.65 32.96 270.64 32.57 269.66 32.31C268.7 32.05 267.76 31.92 266.84 31.92C266.16 31.92 265.62 31.98 265.22 32.1C264.82 32.22 264.53 32.38 264.35 32.58C264.19 32.78 264.11 33 264.11 33.24C264.11 33.6 264.32 33.89 264.74 34.11C265.16 34.31 265.71 34.48 266.39 34.62C267.09 34.76 267.85 34.91 268.67 35.07C269.51 35.23 270.34 35.45 271.16 35.73C271.98 36.01 272.73 36.38 273.41 36.84C274.11 37.3 274.67 37.9 275.09 38.64C275.51 39.38 275.72 40.3 275.72 41.4C275.72 42.68 275.35 43.86 274.61 44.94C273.89 46 272.81 46.86 271.37 47.52C269.93 48.16 268.12 48.48 265.94 48.48ZM284.307 34.8H293.667V39.9H284.307V34.8ZM284.787 42.66H295.287V48H277.827V27H294.897V32.34H284.787V42.66ZM304.343 43.5L303.953 35.73L311.873 27H319.583L310.703 36.78L306.773 40.8L304.343 43.5ZM298.013 48V27H304.973V48H298.013ZM311.813 48L305.633 39.84L310.223 34.98L320.003 48H311.813ZM345.122 48V27H355.232C357.192 27 358.882 27.32 360.302 27.96C361.742 28.6 362.852 29.52 363.632 30.72C364.412 31.9 364.802 33.3 364.802 34.92C364.802 36.54 364.412 37.94 363.632 39.12C362.852 40.28 361.742 41.17 360.302 41.79C358.882 42.41 357.192 42.72 355.232 42.72H349.052L352.202 39.81V48H345.122ZM357.692 48L352.532 40.35H360.032L365.252 48H357.692ZM352.202 40.59L349.052 37.38H354.782C355.762 37.38 356.482 37.16 356.942 36.72C357.422 36.28 357.662 35.68 357.662 34.92C357.662 34.16 357.422 33.56 356.942 33.12C356.482 32.68 355.762 32.46 354.782 32.46H349.052L352.202 29.25V40.59ZM391.646 48V27H397.466L408.146 39.78H405.446V27H412.346V48H406.526L395.846 35.22H398.546V48H391.646ZM426.647 48.48C424.947 48.48 423.377 48.22 421.937 47.7C420.517 47.16 419.277 46.4 418.217 45.42C417.177 44.44 416.367 43.28 415.787 41.94C415.207 40.6 414.917 39.12 414.917 37.5C414.917 35.88 415.207 34.4 415.787 33.06C416.367 31.72 417.187 30.56 418.247 29.58C419.307 28.6 420.557 27.85 421.997 27.33C423.457 26.79 425.057 26.52 426.797 26.52C428.877 26.52 430.727 26.87 432.347 27.57C433.987 28.27 435.337 29.27 436.397 30.57L431.867 34.56C431.207 33.8 430.487 33.23 429.707 32.85C428.947 32.45 428.097 32.25 427.157 32.25C426.377 32.25 425.667 32.37 425.027 32.61C424.407 32.85 423.877 33.2 423.437 33.66C422.997 34.12 422.657 34.67 422.417 35.31C422.177 35.95 422.057 36.68 422.057 37.5C422.057 38.28 422.177 39 422.417 39.66C422.657 40.3 422.997 40.85 423.437 41.31C423.877 41.77 424.397 42.13 424.997 42.39C425.617 42.63 426.307 42.75 427.067 42.75C427.867 42.75 428.647 42.62 429.407 42.36C430.167 42.08 430.977 41.61 431.837 40.95L435.797 45.81C434.517 46.67 433.057 47.33 431.417 47.79C429.777 48.25 428.187 48.48 426.647 48.48ZM429.647 44.91V36.93H435.797V45.81L429.647 44.91Z" fill="#EEEEEE"/>
<path d="M196.968 48V27H202.788L211.188 40.71H208.128L216.288 27H222.108L222.168 48H215.718L215.658 36.72H216.678L211.098 46.11H207.978L202.158 36.72H203.418V48H196.968Z" fill="#4A8068"/>
<path d="M318.672 48L327.852 27H334.812L343.992 48H336.672L329.892 30.36H332.652L325.872 48H318.672ZM324.132 44.34L325.932 39.24H335.592L337.392 44.34H324.132Z" fill="#9C4A9A"/>
<path d="M386.5 48H371.5L378 31L386.5 48Z" fill="#E62C20"/>
<path d="M219 48H200.5L201 31L207 39.5L211 40.5L217.5 33L219 48Z" fill="#4A8068"/>
<path d="M28.5 44.5V31.5L27.5 29L37 30.5V36.5L39 43.5L28.5 44.5Z" fill="#E62C20"/>
</svg>
