<svg width="1440" height="123" viewBox="0 0 1440 123" fill="none" xmlns="http://www.w3.org/2000/svg">
<path fill-rule="evenodd" clip-rule="evenodd" d="M583.963 66.6776V66.6777H583.963V88.1865H576.435V66.6777H576.435V66.6776H550.625V55.9232H576.435V55.9231H576.435V34.4146H583.963V55.9231H583.963V55.9232H609.774V66.6776L583.963 66.6776ZM583.963 23.6602V0.000259399H594.718V0.00038147L693.658 0.00038147V0.000549316V10.7548V23.66V34.4144V34.4146H682.904V34.4144H657.093V23.66H682.904V10.7548L594.718 10.7548V23.6599L609.774 23.6599L620.528 23.66V34.4144V45.1689L620.529 45.1688H630.208L640.962 45.1688V55.9233H657.093V66.6777H640.962V77.432L630.208 77.432L620.529 77.432L620.528 77.432V88.1865V98.9409L609.774 98.9409L594.718 98.9409V111.846L682.904 111.846V98.9409H657.093V88.1865H682.904V88.1862H693.658V88.1865V98.9409V111.846V122.6V122.6L594.718 122.6V122.601H583.963V98.9409H576.435V122.601H565.681V122.6L466.74 122.6V122.6V111.846V98.9409V88.1865V88.1862H477.495V88.1865H503.305V98.9409H477.495V111.846L565.681 111.846V98.9409L550.625 98.9409L539.87 98.9409V88.1865V77.432L530.192 77.432L519.437 77.432H519.437V66.6777H503.306V55.9233L519.437 55.9232V45.1689L519.437 45.1688L530.192 45.1688L539.87 45.1689V34.4144V23.66L550.625 23.6599L565.681 23.6599V10.7548L477.495 10.7548V23.66H503.305V34.4144H477.495V34.4146H466.74V34.4144V23.66V10.7548V0.000549316V0.00038147L565.681 0.00038147V0.000259399H576.435V23.6602H583.963ZM594.718 34.4146H594.719V34.4144H609.774V45.1689H594.718V34.4146ZM594.719 88.1865H594.718V77.432L609.774 77.432V88.1865L594.719 88.1865ZM630.208 55.9232V55.9233H630.207V66.6776H620.529V55.9232H630.208ZM539.871 55.9232L530.192 55.9233V66.6776H539.871V55.9232ZM550.625 77.432L550.625 77.432L565.681 77.432V88.1865H550.625V77.432ZM550.625 45.1689V34.4144H565.681V45.1689L550.625 45.1688L550.625 45.1689Z" fill="#5C5C5C"/>
<path fill-rule="evenodd" clip-rule="evenodd" d="M117.223 66.6771V66.6772H117.223V88.1861H109.695V66.6772H109.695V66.6771H83.8842V55.923H109.695V55.9229H109.695V34.4142H117.223V55.9229H117.223V55.923H143.034V66.6771L117.223 66.6771ZM117.223 23.6598V7.62939e-06H127.977V0.00025177L226.918 0.00025177L226.918 10.7546H226.918V23.6597V34.4141V34.4144H216.163V34.4141H190.353V23.6597H216.163V10.7546L127.977 10.7546V23.6597L143.034 23.6597L153.788 23.6597V34.4141V45.1686H163.467V45.1685L174.221 45.1685V55.923H190.353V66.6774H174.221V77.4315V77.4317H163.467V77.4315H153.788V77.4317V88.186V98.9404L143.034 98.9404L127.977 98.9404V98.9405V111.845L216.164 111.845V98.9404H190.353V88.186H216.164V88.1857H226.918V88.186V98.9404V111.845H226.918V122.6L127.977 122.6V122.6H117.223V98.9405H109.695V122.6H98.9405V122.6L0 122.6V122.6V111.846V98.9404V88.186V88.1857H10.7544V88.186H36.5649V98.9404H10.7544V111.846L98.9405 111.846V98.9404L83.8842 98.9404L73.1298 98.9404V88.186V77.4317V77.4315H63.4509V77.4317H52.6965V77.4315V66.6774H36.5645V55.923L52.6965 55.923V45.1686V45.1685L63.4509 45.1685V45.1686H73.1298V45.1685V34.4141V23.6597L83.8842 23.6597L98.9405 23.6597V10.7547L10.7544 10.7547V23.6597H36.5649V34.4141H10.7544V34.4144H0V34.4141V23.6597V10.7547L0 0.000312805L10.7544 0.000305176L98.9405 0.000312805V7.62939e-06H109.695V23.6598H117.223ZM127.977 34.4141L127.977 34.4142L127.977 45.1686H143.034V34.4141H127.977ZM153.788 66.6771H163.467V55.923H153.788V66.6771ZM143.034 77.4317V77.4315L127.977 77.4315V88.186L143.034 88.186V77.4317ZM73.1298 66.6771H63.4509V55.923H73.1298V66.6771ZM83.8842 45.1686V45.1685V34.4141H98.9405V45.1686H83.8842ZM83.8842 77.4317V77.4315H98.9405V88.186H83.8842V77.4317Z" fill="#5C5C5C"/>
<path fill-rule="evenodd" clip-rule="evenodd" d="M343.066 66.6771V66.6772H343.066V88.186H350.593V66.6771H350.593V66.677L376.404 66.677V55.9229H350.593V55.9227H350.593V34.4141H343.066V55.9226H343.066V55.9228H317.255V66.6771H343.066ZM332.311 34.4139V34.4141H332.311V45.1684H317.255V34.4139H332.311ZM343.066 23.6597V-0.000228882H332.311V-0.000106812L233.371 -0.000106812V6.10352e-05L233.371 10.7543V23.6595V34.4139V34.4141H244.125V34.4139H269.936V23.6595H244.125V10.7543L332.311 10.7543V23.6595L317.255 23.6594L306.501 23.6595V34.4139V45.1684L306.501 45.1684H296.822L286.067 45.1684V55.9229H269.936V66.6772H286.067V77.4315L296.822 77.4315L306.501 77.4315L306.501 77.4315V88.186V98.9404L317.255 98.9404L332.311 98.9404V111.846L244.125 111.846V98.9404H269.936V88.186H244.125V88.1857H233.371V88.186V98.9404V111.846V122.6V122.6L332.311 122.6V122.6H343.066V98.9404H350.593V111.845H350.593V122.6H350.593V122.6H361.347V122.6L460.288 122.6V122.6H460.288V98.9403V88.1859V88.1856H449.533V88.1859H423.723V98.9403H449.533V111.845L361.347 111.845V98.9404H361.348V98.9403L376.404 98.9403L387.158 98.9403V88.1859V77.4315H387.158V77.4314H396.837V77.4315H407.592V66.6772H423.724V55.9229L407.592 55.9229V45.1685V45.1684L396.837 45.1684V45.1685H387.158V45.1684V34.414V23.6596L376.404 23.6595L361.348 23.6596V10.7545L449.534 10.7545V23.6596H423.723V34.414H449.534V34.4142H460.288V34.414V23.6596V0.000183105H460.288L361.348 0.000137329V-0.00012207H350.593V0.000137329H350.593V10.7545H350.593V23.6597H343.066ZM361.348 34.4141H361.348V34.414H376.404V45.1684V45.1685H361.348V34.4141ZM332.311 77.4315V88.186H332.311H317.255V77.4315H332.311ZM306.501 55.9228L296.822 55.9229V66.6771H306.501V55.9228ZM387.158 66.677H396.837V55.9229H387.158V66.677ZM361.347 88.1859V77.4314L376.404 77.4314V88.1859L361.347 88.1859Z" fill="#5C5C5C"/>
<path fill-rule="evenodd" clip-rule="evenodd" d="M1517.62 66.6776V66.6777H1517.62V88.1865H1510.09V66.6777H1510.09V66.6776H1484.28V55.9232H1510.09V55.9231H1510.09V34.4146H1517.62V55.9231H1517.62V55.9232H1543.43V66.6776L1517.62 66.6776ZM1517.62 23.6602V0.000259399H1528.37V0.00038147L1627.31 0.00038147V0.000549316V10.7548V23.66V34.4144V34.4146H1616.56V34.4144H1590.75V23.66H1616.56V10.7548L1528.37 10.7548V23.6599L1543.43 23.6599L1554.18 23.66V34.4144V45.1689L1563.86 45.1688L1574.62 45.1688L1574.62 45.1689V55.9232H1574.62V55.9233H1590.75V66.6777H1574.62V77.432H1574.62V77.432H1563.86V77.432H1554.18V88.1865V98.9409L1543.43 98.9409L1528.37 98.9409V111.846L1616.56 111.846V98.9409H1590.75V88.1865H1616.56V88.1862H1627.31V88.1865V98.9409V111.846V122.6V122.6L1528.37 122.6V122.601H1517.62V98.9409H1510.09V122.601H1499.34V122.6L1400.39 122.6V122.6V111.846V98.9409V88.1865V88.1862H1411.15V88.1865H1436.96V98.9409H1411.15V111.846L1499.34 111.846V98.9409L1484.28 98.9409L1473.52 98.9409V88.1865V77.432L1473.52 77.432L1463.85 77.432L1453.09 77.432V66.6777H1436.96V55.9233H1453.09V45.1688L1463.85 45.1688H1473.52L1473.52 45.1689V34.4144V23.66L1484.28 23.6599L1499.34 23.6599V10.7548L1411.15 10.7548V23.66H1436.96V34.4144H1411.15V34.4146H1400.39V34.4144V23.66V10.7548V0.000549316V0.00038147L1499.34 0.00038147V0.000259399H1510.09V23.6602H1517.62ZM1499.33 34.4144H1484.28V45.1689H1499.34V34.4146H1499.33V34.4144ZM1499.34 77.432V88.1865H1499.33H1484.28V77.432H1499.34ZM1543.43 77.432L1543.43 77.432L1528.37 77.432V88.1865L1543.43 88.1865V77.432ZM1554.18 66.6776H1563.86V55.9232H1554.18V66.6776ZM1543.43 45.1689V34.4144H1528.37V45.1689L1543.43 45.1688L1543.43 45.1689ZM1473.52 66.6776H1463.85V55.9232H1473.52V66.6776Z" fill="#5C5C5C"/>
<path fill-rule="evenodd" clip-rule="evenodd" d="M1284.16 66.6771V66.6772H1284.16V88.1861H1276.63V66.6772H1276.63V66.6771H1250.82V55.923H1276.63V55.9229H1276.63V34.4142H1284.16V55.9229H1284.16V55.923H1309.97V66.6771L1284.16 66.6771ZM1284.16 23.6598V7.62939e-06H1294.91V0.00025177L1393.86 0.00025177V10.7546H1393.86V23.6597V34.4141V34.4144H1383.1V34.4141H1357.29V23.6597H1383.1V10.7546L1294.91 10.7546V23.6597L1309.97 23.6597L1320.73 23.6597V34.4141V45.1685H1320.73V45.1686H1330.4V45.1685L1341.16 45.1685V55.923H1357.29V66.6774H1341.16V77.4315V77.4317H1330.4V77.4315H1320.73V77.4317V88.186V98.9404L1309.97 98.9404L1294.91 98.9404V98.9405V111.845L1383.1 111.845V98.9404H1357.29V88.186H1383.1V88.1857H1393.86V88.186V98.9404V111.845H1393.86V122.6L1294.91 122.6V122.6H1284.16V98.9405H1276.63V111.845H1276.63V122.6H1276.63V122.6H1265.88V122.6L1166.94 122.6V122.6H1166.94V98.9404V88.186V88.1857H1177.69V88.186H1203.5V98.9404H1177.69V111.845L1265.88 111.845V98.9405H1265.88V98.9404L1250.82 98.9404L1240.07 98.9404V88.186V77.4317H1240.07V77.4315H1230.39V77.4317H1219.63V66.6774H1203.5V55.923L1219.63 55.923V45.1686V45.1685L1230.39 45.1685V45.1686H1240.07V45.1685V34.4141V23.6597L1250.82 23.6597L1265.88 23.6597V10.7547L1177.69 10.7547V23.6597H1203.5V34.4141H1177.69V34.4144H1166.94V34.4141V23.6597V0.000305176H1166.94L1265.88 0.000259399V7.62939e-06H1276.63V0.000259399H1276.63V10.7547H1276.63V23.6598H1284.16ZM1294.91 34.4142H1294.91V34.4141H1309.97V45.1686H1294.91V34.4142ZM1320.73 55.923L1330.4 55.923V66.6771H1320.73V55.923ZM1309.97 77.4317V77.4315L1294.91 77.4315V88.186L1309.97 88.186V77.4317ZM1240.07 55.923L1230.39 55.923V66.6771H1240.07V55.923ZM1250.82 45.1686V45.1685V34.4141H1265.88V45.1686H1250.82ZM1265.88 88.186V77.4315H1250.82V88.186H1265.88Z" fill="#5C5C5C"/>
<path fill-rule="evenodd" clip-rule="evenodd" d="M809.892 66.6771V66.6772H809.892V88.186H817.419V66.6771H817.419V66.677L843.23 66.677V55.9229H817.419V55.9227H817.419V34.4141H809.892V55.9226H809.892V55.9228H784.081V66.6771H809.892ZM799.137 34.4139V34.4141H799.138V45.1684H784.081V34.4139H799.137ZM809.892 23.6597V-0.000228882H799.138V-0.000106812L700.197 -0.000106812V6.10352e-05V10.7543V23.6595V34.4139V34.4141H710.952V34.4139H736.762V23.6595H710.952V10.7543L799.138 10.7543V23.6595L784.081 23.6594L773.327 23.6595V34.4139V45.1684L773.327 45.1684H763.648L752.893 45.1684V55.9229H736.761V66.6772H752.893V77.4315L763.648 77.4315L773.327 77.4315L773.327 77.4315V88.186V98.9404L784.081 98.9404L799.138 98.9404V111.846L710.952 111.846V98.9404H736.762V88.186H710.952V88.1857H700.197V88.186V98.9404V111.846V122.6V122.6L799.138 122.6V122.6H809.892V98.9404H817.419V111.845H817.419V122.6H817.419V122.6H828.174V122.6L927.114 122.6V122.6H927.114V98.9403V88.1859V88.1856H916.36V88.1859H890.549V98.9403H916.36V111.845L828.174 111.845V98.9404H828.174V98.9403L843.23 98.9403L853.984 98.9403V88.1859V77.4315H853.984V77.4314H863.663V77.4315H874.418V66.6772H890.55V55.9229L874.418 55.9229V45.1685V45.1684L863.663 45.1684V45.1685H853.984V45.1684V34.414V23.6596L843.23 23.6595L828.174 23.6596V10.7545L916.36 10.7545V23.6596H890.549V34.414H916.36V34.4142H927.114V34.414V23.6596V0.000183105H927.114L828.174 0.000137329V-0.00012207H817.419V0.000137329H817.419V10.7545H817.419V23.6597H809.892ZM828.174 34.4141H828.174V34.414H843.23V45.1684V45.1685H828.174V34.4141ZM799.138 77.4315V88.186H799.137H784.081V77.4315H799.138ZM773.327 66.6771H763.648V55.9228H773.327V66.6771ZM853.984 66.677H863.663V55.9229H853.984V66.677ZM828.174 88.1859V77.4314L843.23 77.4314V88.1859L828.174 88.1859Z" fill="#5C5C5C"/>
<path fill-rule="evenodd" clip-rule="evenodd" d="M1050.79 66.6771V66.6772H1050.79V88.186H1043.26V66.6772H1043.26V66.6771H1017.45V55.9228H1043.26V55.9226H1043.26V34.4141H1050.79V55.9226H1050.79V55.9228H1076.6V66.6771L1050.79 66.6771ZM1050.79 23.6597V-0.000228882H1061.54V-0.000106812L1160.48 -0.000106812V6.10352e-05V10.7543V23.6595V34.4139V34.4141H1149.73V34.4139H1123.92V23.6595H1149.73V10.7543L1061.54 10.7543V23.6595L1076.6 23.6594L1087.35 23.6595V34.4139V45.1684L1087.36 45.1684H1097.03L1107.79 45.1684V55.9229H1123.92V66.6772H1107.79V77.4315L1097.03 77.4315L1087.36 77.4315L1087.35 77.4315V88.186V98.9404L1076.6 98.9404L1061.54 98.9404V111.846L1149.73 111.846V98.9404H1123.92V88.186H1149.73V88.1857H1160.48V88.186V98.9404V111.846V122.6V122.6L1061.54 122.6V122.6H1050.79V98.9404H1043.26V122.6H1032.51V122.6L933.567 122.6V122.6V111.846V98.9404V88.186V88.1857H944.321V88.186H970.131V98.9404H944.321V111.846L1032.51 111.846V98.9404L1017.45 98.9404L1006.7 98.9404V88.186V77.4315L997.018 77.4315L986.263 77.4315H986.263V66.6772H970.132V55.9229L986.263 55.9228V45.1684L986.263 45.1684L997.018 45.1684L1006.7 45.1684V34.4139V23.6595L1017.45 23.6594L1032.51 23.6595V10.7543L944.321 10.7543V23.6595H970.131V34.4139H944.321V34.4141H933.567V34.4139V23.6595V10.7543V6.10352e-05V-0.000106812L1032.51 -0.000106812V-0.000228882H1043.26V23.6597H1050.79ZM1061.54 34.4141H1061.54V34.4139H1076.6V45.1684H1061.54V34.4141ZM1061.54 88.186H1061.54V77.4315L1076.6 77.4315V88.186L1061.54 88.186ZM1087.36 66.6771H1097.03V55.9228H1087.36V66.6771ZM1006.7 55.9228L997.018 55.9229V66.6771H1006.7V55.9228ZM1017.45 77.4315L1017.45 77.4315L1032.51 77.4315V88.186H1017.45V77.4315ZM1017.45 45.1684V34.4139H1032.51V45.1684L1017.45 45.1684L1017.45 45.1684Z" fill="#5C5C5C"/>
</svg>
