<svg width="352" height="55" viewBox="0 0 352 55" fill="none" xmlns="http://www.w3.org/2000/svg">
<path d="M28.3668 20.51V12.5H2.76178V44H13.3818V33.92H26.5218V25.91H13.3818V20.51H28.3668ZM70.4492 44.72C80.2142 44.72 85.1192 39.86 85.1192 34.1C85.1192 22.49 67.7042 25.64 67.7042 21.86C67.7042 20.78 68.6942 19.88 71.7992 19.88C74.5442 19.88 77.4692 20.645 80.5742 22.22L83.7692 14.525C80.4842 12.68 76.1192 11.78 71.8892 11.78C62.1242 11.78 57.2192 16.55 57.2192 22.4C57.2192 34.145 74.6342 30.95 74.6342 34.91C74.6342 35.99 73.5542 36.62 70.5392 36.62C67.0742 36.62 63.1142 35.495 60.1442 33.74L56.7242 41.48C59.8742 43.415 65.1842 44.72 70.4492 44.72ZM94.6799 44H105.3V20.735H114.525V12.5H85.4549V20.735H94.6799V44ZM117.283 44H127.903V12.5H117.283V44ZM156.236 12.5L148.541 30.905L141.026 12.5H129.596L142.916 44H153.356L166.676 12.5H156.236ZM204.647 44H229.487V35.765H215.267V12.5H204.647V44ZM257.656 44.72C267.421 44.72 272.326 39.86 272.326 34.1C272.326 22.49 254.911 25.64 254.911 21.86C254.911 20.78 255.901 19.88 259.006 19.88C261.751 19.88 264.676 20.645 267.781 22.22L270.976 14.525C267.691 12.68 263.326 11.78 259.096 11.78C249.331 11.78 244.426 16.55 244.426 22.4C244.426 34.145 261.841 30.95 261.841 34.91C261.841 35.99 260.761 36.62 257.746 36.62C254.281 36.62 250.321 35.495 247.351 33.74L243.931 41.48C247.081 43.415 252.391 44.72 257.656 44.72ZM323.169 12.5V26.81L311.199 12.5H302.469V44H312.819V29.69L324.789 44H333.519V12.5H323.169ZM338.636 44H349.256V12.5H338.636V44Z" fill="white"/>
<path d="M191.972 44H202.952L189.182 12.5H178.742L164.972 44H175.772L177.887 38.51H189.857L191.972 44ZM180.812 30.86L183.872 22.94L186.932 30.86H180.812Z" fill="#9C4A9A"/>
<path d="M195.787 44H172L184 18L195.787 44Z" fill="#9C4A9A"/>
<rect x="30" y="12" width="26" height="9" fill="#E62C20"/>
<rect x="30" y="24" width="26" height="9" fill="#E62C20"/>
<rect x="30" y="36" width="26" height="9" fill="#E62C20"/>
<rect x="274" y="11" width="26" height="9" fill="#4A8068"/>
<rect x="274" y="23" width="26" height="9" fill="#4A8068"/>
<rect x="274" y="35" width="26" height="9" fill="#4A8068"/>
</svg>
