<svg width="367" height="83" viewBox="0 0 367 83" fill="none" xmlns="http://www.w3.org/2000/svg">
<g opacity="0.5" clip-path="url(#clip0_1781_18)">
<path d="M-443 40L2.13994 40" stroke="#EEEEEE" stroke-width="5" stroke-linejoin="round"/>
<path d="M11.0371 10H14.4297L14.4297 23.4693H11.0371L11.0371 25.9183H7.64459L7.64459 29.5917H4.25204V33.2652H1.99035L1.99035 19.7959H5.38289V17.3469H7.64459V13.6735H11.0371V10Z" fill="#D9D9D9"/>
<path d="M6.51367 34.4896L6.51367 38.1631H18.953V34.4896H21.2147V30.8162H24.6073V27.1427H27.9998L27.9998 24.6938H15.5605V28.3672H13.2988V30.8162H9.90622V34.4896H6.51367Z" fill="#D9D9D9"/>
<path d="M28.001 51.6332V55.3066H15.5616V51.6332H13.2999L13.2999 47.9597H9.90739V44.2863H6.51485L6.51485 41.8373H18.9542V45.5108H21.2159V47.9597H24.6084V51.6332H28.001Z" fill="#D9D9D9"/>
<path d="M11.0381 70H14.4307L14.4307 56.5307H11.0381V54.0817H7.64557L7.64557 50.4083H4.25302L4.25302 46.7348H1.99132L1.99132 60.2041H5.38387V62.6531H7.64557V66.3265H11.0381V70Z" fill="#D9D9D9"/>
<rect x="-1.40137" y="38.1631" width="3.39255" height="3.67345" fill="#D9D9D9"/>
</g>
<g opacity="0.5" clip-path="url(#clip1_1781_18)">
<path d="M803.002 41.0034L356.907 41.0035" stroke="#EEEEEE" stroke-width="5" stroke-linejoin="round"/>
<path d="M348 73H344.601V59.5307H348V57.0817H351.4V53.4083H354.8V49.7348H357.067V63.2041H353.667V65.6531H351.4V69.3265H348V73Z" fill="#D9D9D9"/>
<path d="M352.534 48.5104V44.8369L340.068 44.8369V48.5104H337.802V52.1838H334.402V55.8573H331.002V58.3062L343.468 58.3062V54.6328H345.735V52.1838H349.134V48.5104H352.534Z" fill="#D9D9D9"/>
<path d="M331 31.3668V27.6934L343.466 27.6934V31.3668H345.733V35.0403H349.132V38.7137H352.532V41.1627L340.066 41.1627V37.4892H337.8V35.0403H334.4V31.3668H331Z" fill="#D9D9D9"/>
<path d="M347.999 13L344.6 13V26.4693H347.999V28.9183H351.399V32.5917H354.799V36.2652H357.066V22.7959H353.666V20.3469H351.399V16.6735L347.999 16.6735V13Z" fill="#D9D9D9"/>
<rect x="360.465" y="44.8369" width="3.39983" height="3.67345" transform="rotate(180 360.465 44.8369)" fill="#D9D9D9"/>
</g>
<g clip-path="url(#clip2_1781_18)">
<g opacity="0.1">
<path d="M244.834 26.2333V28.548H253.645V26.2333H255.247V23.9186H257.65V21.6039H260.053V20.0608H251.242V22.3755H249.64V23.9186H247.237V26.2333H244.834Z" fill="#EEEEEE"/>
<path d="M244.834 11.5735V9.25883H253.645V11.5735H255.247V13.8882H257.65V16.2029H260.053V17.7461H251.242V15.4314H249.64V13.8882H247.237V11.5735H244.834Z" fill="#EEEEEE"/>
<path d="M260.854 14.6598H263.257V6.17253H260.854V4.6294H258.451V2.3147H256.048V0H254.446V8.48723H256.849V10.0304H258.451V12.3451H260.854V14.6598Z" fill="#EEEEEE"/>
<path d="M272.068 7.80852e-05H274.471V8.48731H272.068V10.0304H269.665V12.3451H267.262V14.6598H265.66V6.17261H268.063V4.62948H269.665V2.31478H272.068V7.80852e-05Z" fill="#EEEEEE"/>
<path d="M284.083 11.5736V9.25887H275.272V11.5736H273.67V13.8883H271.267V16.203H268.864V17.7461H277.675V15.4314H279.277V13.8883H281.68V11.5736H284.083Z" fill="#EEEEEE"/>
<path d="M284.083 26.2334V28.5481H275.272V26.2334H273.67V23.9187H271.267V21.604H268.864V20.0609H277.675V22.3756H279.277V23.9187H281.68V26.2334H284.083Z" fill="#EEEEEE"/>
<path d="M256.849 37.8068H254.446V29.3196H256.849V27.7765H259.252V25.4618H261.655V23.1471H263.257V31.6343H260.854V33.1774H259.252V35.4921H256.849V37.8068Z" fill="#EEEEEE"/>
<path d="M268.063 23.147H265.66V31.6342H268.063V33.1774L270.466 33.1774V35.4921H272.869V37.8068H274.471V29.3195L272.068 29.3195V27.7764H270.466V25.4617H268.063V23.147Z" fill="#EEEEEE"/>
<path d="M263.257 20.0607V17.746H265.66V20.0607H263.257Z" fill="#EEEEEE"/>
<path d="M151 26.2333V28.548H159.811V26.2333H161.413V23.9186H163.816V21.6039H166.219V20.0608H157.408V22.3755H155.806V23.9186H153.403V26.2333H151Z" fill="#EEEEEE"/>
<path d="M151 11.5736V9.25887H159.811V11.5736H161.413V13.8883H163.816V16.203H166.219V17.7461H157.408V15.4314H155.806V13.8883H153.403V11.5736H151Z" fill="#EEEEEE"/>
<path d="M167.02 14.6598H169.423V6.17261H167.02V4.62948H164.617V2.31478H162.214V7.91549e-05H160.612V8.48731H163.015V10.0304H164.617V12.3451H167.02V14.6598Z" fill="#EEEEEE"/>
<path d="M178.234 7.80852e-05H180.637V8.48731H178.234V10.0304H175.831V12.3451H173.428V14.6598H171.826V6.17261H174.229V4.62948H175.831V2.31478H178.234V7.80852e-05Z" fill="#EEEEEE"/>
<path d="M190.249 11.5736V9.25887H181.438V11.5736H179.836V13.8883H177.433V16.203H175.03V17.7461H183.841V15.4314H185.443V13.8883H187.846V11.5736H190.249Z" fill="#EEEEEE"/>
<path d="M190.249 26.2333V28.548H181.438V26.2333H179.836V23.9186H177.433V21.6039H175.03V20.0608H183.841V22.3755H185.443V23.9186H187.846V26.2333H190.249Z" fill="#EEEEEE"/>
<path d="M163.015 37.8068H160.612L160.612 29.3196H163.015V27.7765H165.418V25.4618H167.821V23.1471H169.423V31.6343H167.02V33.1774H165.418V35.4921H163.015V37.8068Z" fill="#EEEEEE"/>
<path d="M174.229 23.147H171.826L171.826 31.6342H174.229V33.1774L176.632 33.1774V35.4921H179.035V37.8068H180.637V29.3195L178.234 29.3195V27.7764H176.632V25.4617H174.229V23.147Z" fill="#EEEEEE"/>
<path d="M169.423 20.0607V17.746H171.826V20.0607H169.423Z" fill="#EEEEEE"/>
<path d="M197.917 21.5188V16.5443H199.983V14.5544H202.049V12.5645H204.114V10.5747H206.18V8.58485H208.246V6.59497H210.311V4.60522H212.377V2.6155H214.443V0.625545H220.64V2.6155H222.706V4.60518H224.772V6.59501H226.837V8.58481H228.903V10.5748H230.969V12.5646H233.034V14.5544H235.1V16.5441H237.166V21.5187H234.067V17.5391H232.002V15.5493H229.936V13.5595H227.87V11.5696H225.804V9.57976H223.739V7.58992H221.673V5.60024H219.607V3.61029H215.476V5.60024H213.41V7.58996H211.344V9.57972H209.279V11.5696H207.213V13.5595H205.147V15.5493H203.081V17.5391H201.016V21.5188H197.917Z" fill="#EEEEEE"/>
<path d="M197.917 16.5443V21.5188L199.983 21.5186V23.5086H202.048V25.4984H204.114V27.4882H206.18V29.478H208.246V31.4678H210.311V33.4576H212.377V35.4475H214.443V37.4374H220.64V35.4475H222.706V33.4576H224.772V31.4678H226.837V29.4781H228.903V27.4882H230.969V25.4983H233.034V23.5086H235.1V21.5187L237.166 21.5187V16.5441L234.067 16.5441V20.5238H232.002V22.5136H229.936V24.5034H227.87V26.4933H225.804V28.4831H223.739V30.4729H221.673V32.4628H219.607V34.4526H215.476V32.4627H213.41V30.4729H211.344V28.4831H209.279V26.4933H207.213V24.5034H205.147V22.5136H203.081V20.5239H201.016V16.5441L197.917 16.5443Z" fill="#EEEEEE"/>
<path d="M215.476 21.5188V16.5442H220.64V21.5188H215.476Z" fill="#EEEEEE"/>
<path d="M291.751 21.5189V16.5443H293.816V14.5544H295.882V12.5646H297.948V10.5749H300.014V8.58494H302.079V6.5951H304.145V4.6053H306.211V2.61555H308.276V0.625674H314.474V2.61559H316.539V4.60527H318.605V6.5951H320.671V8.5849H322.737V10.5749H324.802V12.5647H326.868V14.5544H328.934V16.5443H331V21.5188H327.901V17.5392H325.835V15.5494H323.77V13.5596H321.704V11.5696H319.638V9.57985H317.572V7.59001H315.507V5.60033H313.441V3.61042H309.309V5.60029H307.244V7.59005H305.178V9.57985H303.112V11.5697H301.047V13.5596H298.981V15.5494H296.915V17.5392H294.849V21.5189H291.751Z" fill="#EEEEEE"/>
<path d="M291.751 16.5443V21.5189L293.817 21.5188V23.5087H295.882V25.4985H297.948V27.4883H300.014V29.4781H302.08V31.468H304.145V33.4578H306.211V35.4476H308.277V37.4375H314.474V35.4476H316.54V33.4577H318.606V31.468H320.671V29.4782H322.737V27.4883H324.803V25.4985H326.868V23.5087H328.934V21.5188L331 21.5188V16.5443L327.901 16.5442V20.5239H325.835V22.5137H323.77V24.5036H321.704V26.4935H319.638V28.4832H317.573V30.473H315.507V32.4629H313.441V34.4528H309.31V32.4629H307.244V30.473H305.178V28.4832H303.112V26.4934H301.047V24.5036H298.981V22.5138H296.915V20.5239H294.85V16.5442L291.751 16.5443Z" fill="#EEEEEE"/>
<path d="M309.31 21.5189V16.5443H314.474V21.5189H309.31Z" fill="#EEEEEE"/>
<path d="M197.917 71.4265V73.7412H206.728V71.4265H208.33V69.1118H210.733V66.7971H213.136V65.2539H204.325V67.5686H202.723V69.1118H200.32V71.4265H197.917Z" fill="#EEEEEE"/>
<path d="M197.917 56.7666V54.4519H206.728V56.7666H208.33V59.0813H210.733V61.396H213.136V62.9392H204.325V60.6245H202.723V59.0813H200.32V56.7666H197.917Z" fill="#EEEEEE"/>
<path d="M213.937 59.8529H216.34V51.3657H213.937V49.8225H211.534V47.5078H209.131V45.1931H207.529V53.6804H209.932V55.2235H211.534V57.5382H213.937V59.8529Z" fill="#EEEEEE"/>
<path d="M225.151 45.1932H227.554V53.6804H225.151V55.2235H222.748V57.5382H220.345V59.8529H218.743V51.3657H221.146V49.8226H222.748V47.5079H225.151V45.1932Z" fill="#EEEEEE"/>
<path d="M237.166 56.7667V54.452H228.355V56.7667H226.753V59.0814H224.35V61.3961H221.947V62.9392H230.758V60.6245H232.36V59.0814H234.763V56.7667H237.166Z" fill="#EEEEEE"/>
<path d="M237.166 71.4265V73.7412H228.355V71.4265H226.753V69.1118H224.35V66.7971H221.947V65.254H230.758V67.5687H232.36V69.1118H234.763V71.4265H237.166Z" fill="#EEEEEE"/>
<path d="M209.932 82.9999H207.529V74.5127H209.932V72.9696H212.335V70.6549H214.738V68.3402H216.34V76.8274H213.937V78.3705H212.335V80.6852H209.932V82.9999Z" fill="#EEEEEE"/>
<path d="M221.146 68.3401H218.743V76.8273H221.146V78.3705H223.549V80.6852H225.952V82.9999H227.554V74.5126L225.151 74.5126V72.9695H223.549V70.6548H221.146V68.3401Z" fill="#EEEEEE"/>
<path d="M216.34 65.2539V62.9392H218.743V65.2539H216.34Z" fill="#EEEEEE"/>
<path d="M151 66.7121V61.7375H153.066V59.7476H155.132V57.7577H157.197V55.7679H159.263V53.7781H161.329V51.7882H163.394V49.7984H165.46V47.8087H167.526V45.8188H173.723V47.8087H175.789V49.7984H177.855V51.7882H179.92V53.778H181.986V55.768H184.052V57.7578H186.117V59.7476H188.183V61.7374H190.249V66.7119H187.15V62.7324H185.084V60.7425H183.019V58.7527H180.953V56.7628H178.887V54.773H176.822V52.7831H174.756V50.7935H172.69V48.8035H168.559V50.7934H166.493V52.7832H164.427V54.7729H162.361V56.7628H160.296V58.7527H158.23V60.7424H156.164V62.7323H154.099V66.7121H151Z" fill="#EEEEEE"/>
<path d="M151 61.7375V66.7121L153.066 66.7119V68.7019H155.131V70.6917H157.197V72.6815H159.263V74.6713H161.329V76.6611H163.394V78.6509H165.46V80.6408H167.526V82.6307H173.723V80.6408H175.789V78.6509H177.855V76.6611H179.92V74.6714H181.986V72.6815H184.052V70.6916H186.117V68.7018H188.183V66.712L190.249 66.7119V61.7374L187.15 61.7374V65.7171H185.084V67.7068H183.019V69.6967H180.953V71.6866H178.887V73.6764H176.822V75.6662H174.756V77.656H172.69V79.6459H168.559V77.656H166.493V75.6662H164.427V73.6764H162.361V71.6866H160.296V69.6967H158.23V67.7069H156.164V65.7172H154.099V61.7373L151 61.7375Z" fill="#EEEEEE"/>
<path d="M168.559 66.712V61.7375H173.723V66.712H168.559Z" fill="#EEEEEE"/>
<path d="M291.751 71.4265V73.7412H300.562V71.4265H302.164V69.1118H304.567V66.7971H306.97V65.2539H298.159V67.5686H296.557V69.1118H294.154V71.4265H291.751Z" fill="#EEEEEE"/>
<path d="M291.751 56.7668V54.4521H300.562V56.7668H302.164V59.0815H304.567V61.3962H306.97V62.9393H298.159V60.6246H296.557V59.0815H294.154V56.7668H291.751Z" fill="#EEEEEE"/>
<path d="M307.771 59.853H310.174V51.3657H307.771V49.8226H305.368V47.5079H302.965V45.1932H301.363V53.6804H303.766V55.2236H305.368V57.5383H307.771V59.853Z" fill="#EEEEEE"/>
<path d="M318.985 45.1932H321.388V53.6805H318.985V55.2236H316.582V57.5383H314.179V59.853H312.577V51.3658H314.98V49.8226H316.582V47.5079H318.985V45.1932Z" fill="#EEEEEE"/>
<path d="M331 56.7668V54.4521H322.189V56.7668H320.587V59.0815H318.184V61.3962H315.781V62.9393H324.592V60.6246H326.194V59.0815H328.597V56.7668H331Z" fill="#EEEEEE"/>
<path d="M331 71.4265V73.7412H322.189V71.4265H320.587V69.1118H318.184V66.7971H315.781V65.254H324.592V67.5687H326.194V69.1118H328.597V71.4265H331Z" fill="#EEEEEE"/>
<path d="M303.766 83H301.363V74.5128H303.766V72.9696H306.169V70.6549H308.572V68.3402H310.174V76.8275H307.771V78.3706H306.169V80.6853H303.766V83Z" fill="#EEEEEE"/>
<path d="M314.98 68.3401H312.577V76.8274H314.98V78.3705H317.383V80.6852H319.786V82.9999H321.388V74.5127H318.985V72.9695H317.383V70.6548H314.98V68.3401Z" fill="#EEEEEE"/>
<path d="M310.174 65.2539V62.9392H312.577V65.2539H310.174Z" fill="#EEEEEE"/>
<path d="M244.834 66.712V61.7374H246.9V59.7475H248.965V57.7577H251.031V55.7679H253.097V53.778H255.163V51.7882H257.228V49.7984H259.294V47.8086H261.36V45.8187H267.557V47.8087H269.623V49.7983H271.688V51.7882H273.754V53.7779H275.82V55.7679H277.886V57.7577H279.951V59.7475H282.017V61.7373H284.083V66.7119H280.984V62.7323H278.918V60.7425H276.853V58.7527H274.787V56.7627H272.721V54.7729H270.656V52.7831H268.59V50.7934H266.524V48.8034H262.393V50.7934H260.327V52.7831H258.261V54.7729H256.195V56.7628H254.13V58.7527H252.064V60.7424H249.998V62.7323H247.933V66.712H244.834Z" fill="#EEEEEE"/>
<path d="M244.834 61.7374V66.712L246.9 66.7118V68.7017H248.966V70.6915H251.031V72.6813H253.097V74.6712H255.163V76.661H257.228V78.6508H259.294V80.6406H261.36V82.6305H267.557V80.6406H269.623V78.6508H271.689V76.661H273.754V74.6712H275.82V72.6813H277.886V70.6915H279.951V68.7017H282.017V66.7118L284.083 66.7119V61.7373L280.984 61.7372V65.717H278.919V67.7067H276.853V69.6966H274.787V71.6865H272.721V73.6763H270.656V75.666H268.59V77.6559H266.524V79.6458H262.393V77.6559H260.327V75.6661H258.261V73.6763H256.196V71.6864H254.13V69.6966H252.064V67.7068H249.998V65.717H247.933V61.7372L244.834 61.7374Z" fill="#EEEEEE"/>
<path d="M262.393 66.7119V61.7374H267.557V66.7119H262.393Z" fill="#EEEEEE"/>
</g>
<g opacity="0.1">
<path d="M61.8341 26.2333V28.548H70.645V26.2333H72.247V23.9186H74.65V21.6039H77.053V20.0608H68.2421V22.3755H66.6401V23.9186H64.2371V26.2333H61.8341Z" fill="#EEEEEE"/>
<path d="M61.8341 11.5735V9.25883H70.645V11.5735H72.247V13.8882H74.65V16.2029H77.053V17.7461H68.2421V15.4314H66.6401V13.8882H64.2371V11.5735H61.8341Z" fill="#EEEEEE"/>
<path d="M77.854 14.6598H80.257V6.17253H77.854V4.6294H75.451V2.3147H73.048V0H71.4461V8.48723H73.8491V10.0304H75.451V12.3451H77.854V14.6598Z" fill="#EEEEEE"/>
<path d="M89.068 7.80852e-05H91.471V8.48731H89.068V10.0304H86.665V12.3451H84.262V14.6598H82.66V6.17261H85.063V4.62948H86.665V2.31478H89.068V7.80852e-05Z" fill="#EEEEEE"/>
<path d="M101.083 11.5736V9.25887H92.272V11.5736H90.67V13.8883H88.267V16.203H85.864V17.7461H94.675V15.4314H96.277V13.8883H98.6799V11.5736H101.083Z" fill="#EEEEEE"/>
<path d="M101.083 26.2334V28.5481H92.272V26.2334H90.67V23.9187H88.267V21.604H85.864V20.0609H94.675V22.3756H96.277V23.9187H98.6799V26.2334H101.083Z" fill="#EEEEEE"/>
<path d="M73.849 37.8068H71.4461V29.3196H73.849V27.7765H76.252V25.4618H78.655V23.1471H80.257V31.6343H77.854V33.1774H76.252V35.4921H73.849V37.8068Z" fill="#EEEEEE"/>
<path d="M85.0631 23.147H82.6601V31.6342H85.0631V33.1774L87.4661 33.1774V35.4921H89.8691V37.8068H91.4711V29.3195L89.0681 29.3195V27.7764H87.4661V25.4617H85.0631V23.147Z" fill="#EEEEEE"/>
<path d="M80.2571 20.0607V17.746H82.6601V20.0607H80.2571Z" fill="#EEEEEE"/>
<path d="M-32 26.2333V28.548H-23.189V26.2333H-21.587V23.9186H-19.1841V21.6039H-16.7811V20.0608H-25.592V22.3755H-27.194V23.9186H-29.597V26.2333H-32Z" fill="#EEEEEE"/>
<path d="M-32 11.5736V9.25887H-23.189V11.5736H-21.587V13.8883H-19.1841V16.203H-16.7811V17.7461H-25.592V15.4314H-27.194V13.8883H-29.597V11.5736H-32Z" fill="#EEEEEE"/>
<path d="M-15.9801 14.6598H-13.5771V6.17261H-15.9801V4.62948H-18.383V2.31478H-20.786V7.91549e-05H-22.388V8.48731H-19.985V10.0304H-18.383V12.3451H-15.9801V14.6598Z" fill="#EEEEEE"/>
<path d="M-4.7661 7.80852e-05H-2.36312V8.48731H-4.7661V10.0304H-7.16909V12.3451H-9.57208V14.6598H-11.1741V6.17261H-8.77109V4.62948H-7.16909V2.31478H-4.7661V7.80852e-05Z" fill="#EEEEEE"/>
<path d="M7.24885 11.5736V9.25887H-1.56211V11.5736H-3.1641V13.8883H-5.56709V16.203H-7.97008V17.7461H0.840881V15.4314H2.44287V13.8883H4.84586V11.5736H7.24885Z" fill="#EEEEEE"/>
<path d="M7.24885 26.2333V28.548H-1.56211V26.2333H-3.1641V23.9186H-5.56709V21.6039H-7.97008V20.0608H0.840881V22.3755H2.44287V23.9186H4.84586V26.2333H7.24885Z" fill="#EEEEEE"/>
<path d="M-19.985 37.8068H-22.388L-22.388 29.3196H-19.985V27.7765H-17.5821V25.4618H-15.1791V23.1471H-13.5771V31.6343H-15.9801V33.1774H-17.5821V35.4921H-19.985V37.8068Z" fill="#EEEEEE"/>
<path d="M-8.7711 23.147H-11.1741L-11.1741 31.6342H-8.7711V33.1774L-6.36811 33.1774V35.4921H-3.96512V37.8068H-2.36313V29.3195L-4.76612 29.3195V27.7764H-6.36811V25.4617H-8.7711V23.147Z" fill="#EEEEEE"/>
<path d="M-13.5771 20.0607V17.746H-11.1741V20.0607H-13.5771Z" fill="#EEEEEE"/>
<path d="M14.917 21.5188V16.5443H16.9827V14.5544H19.0486V12.5645H21.1142V10.5747H23.1799V8.58485H25.2458V6.59497H27.3114V4.60522H29.3771V2.6155H31.4429V0.625545H37.6401V2.6155H39.7057V4.60518H41.7716V6.59501H43.8373V8.58481H45.9029V10.5748H47.9688V12.5646H50.0344V14.5544H52.1001V16.5441H54.166V21.5187H51.0674V17.5391H49.0015V15.5493H46.9359V13.5595H44.8702V11.5696H42.8043V9.57976H40.7387V7.58992H38.673V5.60024H36.6071V3.61029H32.4757V5.60024H30.41V7.58996H28.3444V9.57972H26.2785V11.5696H24.2128V13.5595H22.1472V15.5493H20.0813V17.5391H18.0156V21.5188H14.917Z" fill="#EEEEEE"/>
<path d="M14.917 16.5443V21.5188L16.9827 21.5186V23.5086H19.0485V25.4984H21.1142V27.4882H23.1799V29.478H25.2458V31.4678H27.3114V33.4576H29.3771V35.4475H31.4429V37.4374H37.6401V35.4475H39.7057V33.4576H41.7716V31.4678H43.8373V29.4781H45.9029V27.4882H47.9687V25.4983H50.0344V23.5086H52.1001V21.5187L54.166 21.5187V16.5441L51.0672 16.5441V20.5238H49.0015V22.5136H46.9359V24.5034H44.8701V26.4933H42.8043V28.4831H40.7387V30.4729H38.673V32.4628H36.6071V34.4526H32.4757V32.4627H30.41V30.4729H28.3444V28.4831H26.2785V26.4933H24.2128V24.5034H22.1471V22.5136H20.0813V20.5239H18.0156V16.5441L14.917 16.5443Z" fill="#EEEEEE"/>
<path d="M32.4758 21.5188V16.5442H37.6401V21.5188H32.4758Z" fill="#EEEEEE"/>
<path d="M108.751 21.5189V16.5443H110.816V14.5544H112.882V12.5646H114.948V10.5749H117.014V8.58494H119.079V6.5951H121.145V4.6053H123.211V2.61555H125.276V0.625674H131.474V2.61559H133.539V4.60527H135.605V6.5951H137.671V8.5849H139.737V10.5749H141.802V12.5647H143.868V14.5544H145.934V16.5443H148V21.5188H144.901V17.5392H142.835V15.5494H140.77V13.5596H138.704V11.5696H136.638V9.57985H134.572V7.59001H132.507V5.60033H130.441V3.61042H126.309V5.60029H124.244V7.59005H122.178V9.57985H120.112V11.5697H118.047V13.5596H115.981V15.5494H113.915V17.5392H111.849V21.5189H108.751Z" fill="#EEEEEE"/>
<path d="M108.751 16.5443V21.5189L110.817 21.5188V23.5087H112.882V25.4985H114.948V27.4883H117.014V29.4781H119.08V31.468H121.145V33.4578H123.211V35.4476H125.277V37.4375H131.474V35.4476H133.54V33.4577H135.606V31.468H137.671V29.4782H139.737V27.4883H141.803V25.4985H143.868V23.5087H145.934V21.5188L148 21.5188V16.5443L144.901 16.5442V20.5239H142.835V22.5137H140.77V24.5036H138.704V26.4935H136.638V28.4832H134.573V30.473H132.507V32.4629H130.441V34.4528H126.31V32.4629H124.244V30.473H122.178V28.4832H120.112V26.4934H118.047V24.5036H115.981V22.5138H113.915V20.5239H111.85V16.5442L108.751 16.5443Z" fill="#EEEEEE"/>
<path d="M126.31 21.5189V16.5443H131.474V21.5189H126.31Z" fill="#EEEEEE"/>
<path d="M14.9172 71.4265V73.7412H23.7281V71.4265H25.3301V69.1118H27.7331V66.7971H30.1361V65.2539H21.3251V67.5686H19.7232V69.1118H17.3202V71.4265H14.9172Z" fill="#EEEEEE"/>
<path d="M14.9172 56.7666V54.4519H23.7281V56.7666H25.3301V59.0813H27.7331V61.396H30.1361V62.9392H21.3251V60.6245H19.7232V59.0813H17.3202V56.7666H14.9172Z" fill="#EEEEEE"/>
<path d="M30.9371 59.8529H33.3401V51.3657H30.9371V49.8225H28.5341V47.5078H26.1312V45.1931H24.5292V53.6804H26.9321V55.2235H28.5341V57.5382H30.9371V59.8529Z" fill="#EEEEEE"/>
<path d="M42.151 45.1932H44.554V53.6804H42.151V55.2235H39.748V57.5382H37.345V59.8529H35.743V51.3657H38.146V49.8226H39.748V47.5079H42.151V45.1932Z" fill="#EEEEEE"/>
<path d="M54.166 56.7667V54.452H45.355V56.7667H43.753V59.0814H41.35V61.3961H38.947V62.9392H47.758V60.6245H49.36V59.0814H51.763V56.7667H54.166Z" fill="#EEEEEE"/>
<path d="M54.166 71.4265V73.7412H45.355V71.4265H43.753V69.1118H41.35V66.7971H38.947V65.254H47.758V67.5687H49.36V69.1118H51.763V71.4265H54.166Z" fill="#EEEEEE"/>
<path d="M26.9321 82.9999H24.5291V74.5127H26.9321V72.9696H29.3351V70.6549H31.7381V68.3402H33.34V76.8274H30.9371V78.3705H29.3351V80.6852H26.9321V82.9999Z" fill="#EEEEEE"/>
<path d="M38.1462 68.3401H35.7432V76.8273H38.1462V78.3705H40.5492V80.6852H42.9522V82.9999H44.5542V74.5126L42.1512 74.5126V72.9695H40.5492V70.6548H38.1462V68.3401Z" fill="#EEEEEE"/>
<path d="M33.3402 65.2539V62.9392H35.7432V65.2539H33.3402Z" fill="#EEEEEE"/>
<path d="M-32 66.7121V61.7375H-29.9343V59.7476H-27.8685V57.7577H-25.8028V55.7679H-23.7372V53.7781H-21.6713V51.7882H-19.6056V49.7984H-17.54V47.8087H-15.4741V45.8188H-9.27689V47.8087H-7.21132V49.7984H-5.14547V51.7882H-3.07981V53.778H-1.01414V55.768H1.0517V57.7578H3.11737V59.7476H5.18303V61.7374H7.24888V66.7119H4.15029V62.7324H2.08444V60.7425H0.0187798V58.7527H-2.04689V56.7628H-4.11273V54.773H-6.1784V52.7831H-8.24406V50.7935H-10.3099V48.8035H-14.4414V50.7934H-16.507V52.7832H-18.5727V54.7729H-20.6386V56.7628H-22.7042V58.7527H-24.7699V60.7424H-26.8357V62.7323H-28.9014V66.7121H-32Z" fill="#EEEEEE"/>
<path d="M-32 61.7375V66.7121L-29.9343 66.7119V68.7019H-27.8686V70.6917H-25.8028V72.6815H-23.7372V74.6713H-21.6713V76.6611H-19.6056V78.6509H-17.54V80.6408H-15.4742V82.6307H-9.27701V80.6408H-7.21132V78.6509H-5.14547V76.6611H-3.07981V74.6714H-1.01414V72.6815H1.05159V70.6916H3.11737V68.7018H5.18303V66.712L7.24888 66.7119V61.7374L4.15017 61.7374V65.7171H2.08444V67.7068H0.0187798V69.6967H-2.04701V71.6866H-4.11273V73.6764H-6.1784V75.6662H-8.24406V77.656H-10.3099V79.6459H-14.4414V77.656H-16.507V75.6662H-18.5727V73.6764H-20.6386V71.6866H-22.7042V69.6967H-24.77V67.7069H-26.8357V65.7172H-28.9014V61.7373L-32 61.7375Z" fill="#EEEEEE"/>
<path d="M-14.4413 66.712V61.7375H-9.27698V66.712H-14.4413Z" fill="#EEEEEE"/>
<path d="M108.751 71.4265V73.7412H117.562V71.4265H119.164V69.1118H121.567V66.7971H123.97V65.2539H115.159V67.5686H113.557V69.1118H111.154V71.4265H108.751Z" fill="#EEEEEE"/>
<path d="M108.751 56.7668V54.4521H117.562V56.7668H119.164V59.0815H121.567V61.3962H123.97V62.9393H115.159V60.6246H113.557V59.0815H111.154V56.7668H108.751Z" fill="#EEEEEE"/>
<path d="M124.771 59.853H127.174V51.3657H124.771V49.8226H122.368V47.5079H119.965V45.1932H118.363V53.6804H120.766V55.2236H122.368V57.5383H124.771V59.853Z" fill="#EEEEEE"/>
<path d="M135.985 45.1932H138.388V53.6805H135.985V55.2236H133.582V57.5383H131.179V59.853H129.577V51.3658H131.98V49.8226H133.582V47.5079H135.985V45.1932Z" fill="#EEEEEE"/>
<path d="M148 56.7668V54.4521H139.189V56.7668H137.587V59.0815H135.184V61.3962H132.781V62.9393H141.592V60.6246H143.194V59.0815H145.597V56.7668H148Z" fill="#EEEEEE"/>
<path d="M148 71.4265V73.7412H139.189V71.4265H137.587V69.1118H135.184V66.7971H132.781V65.254H141.592V67.5687H143.194V69.1118H145.597V71.4265H148Z" fill="#EEEEEE"/>
<path d="M120.766 83H118.363V74.5128H120.766V72.9696H123.169V70.6549H125.572V68.3402H127.174V76.8275H124.771V78.3706H123.169V80.6853H120.766V83Z" fill="#EEEEEE"/>
<path d="M131.98 68.3401H129.577V76.8274H131.98V78.3705H134.383V80.6852H136.786V82.9999H138.388V74.5127H135.985V72.9695H134.383V70.6548H131.98V68.3401Z" fill="#EEEEEE"/>
<path d="M127.174 65.2539V62.9392H129.577V65.2539H127.174Z" fill="#EEEEEE"/>
<path d="M61.834 66.712V61.7374H63.8997V59.7475H65.9655V57.7577H68.0312V55.7679H70.0969V53.778H72.1627V51.7882H74.2284V49.7984H76.294V47.8086H78.3597V45.8187H84.5569V47.8087H86.6227V49.7983H88.6885V51.7882H90.7542V53.7779H92.8199V55.7679H94.8857V57.7577H96.9514V59.7475H99.0171V61.7373H101.083V66.7119H97.9843V62.7323H95.9185V60.7425H93.8528V58.7527H91.7871V56.7627H89.7213V54.7729H87.6556V52.7831H85.5899V50.7934H83.5241V48.8034H79.3926V50.7934H77.327V52.7831H75.2612V54.7729H73.1955V56.7628H71.1298V58.7527H69.0641V60.7424H66.9983V62.7323H64.9326V66.712H61.834Z" fill="#EEEEEE"/>
<path d="M61.834 61.7374V66.712L63.8997 66.7118V68.7017H65.9656V70.6915H68.0313V72.6813H70.0969V74.6712H72.1628V76.661H74.2284V78.6508H76.2941V80.6406H78.3598V82.6305H84.5569V80.6406H86.6228V78.6508H88.6885V76.661H90.7543V74.6712H92.8199V72.6813H94.8857V70.6915H96.9514V68.7017H99.0171V66.7118L101.083 66.7119V61.7373L97.9842 61.7372V65.717H95.9185V67.7067H93.8529V69.6966H91.7871V71.6865H89.7213V73.6763H87.6557V75.666H85.59V77.6559H83.5242V79.6458H79.3927V77.6559H77.327V75.6661H75.2614V73.6763H73.1955V71.6864H71.1298V69.6966H69.0642V67.7068H66.9983V65.717H64.9327V61.7372L61.834 61.7374Z" fill="#EEEEEE"/>
<path d="M79.3928 66.7119V61.7374H84.5571V66.7119H79.3928Z" fill="#EEEEEE"/>
</g>
<g opacity="0.1">
<path d="M428.834 26.2333V28.548H437.645V26.2333H439.247V23.9186H441.65V21.6039H444.053V20.0608H435.242V22.3755H433.64V23.9186H431.237V26.2333H428.834Z" fill="#EEEEEE"/>
<path d="M428.834 11.5735V9.25883H437.645V11.5735H439.247V13.8882H441.65V16.2029H444.053V17.7461H435.242V15.4314H433.64V13.8882H431.237V11.5735H428.834Z" fill="#EEEEEE"/>
<path d="M444.854 14.6598H447.257V6.17253H444.854V4.6294H442.451V2.3147H440.048V0H438.446V8.48723H440.849V10.0304H442.451V12.3451H444.854V14.6598Z" fill="#EEEEEE"/>
<path d="M456.068 7.80852e-05H458.471V8.48731H456.068V10.0304H453.665V12.3451H451.262V14.6598H449.66V6.17261H452.063V4.62948H453.665V2.31478H456.068V7.80852e-05Z" fill="#EEEEEE"/>
<path d="M468.083 11.5736V9.25887H459.272V11.5736H457.67V13.8883H455.267V16.203H452.864V17.7461H461.675V15.4314H463.277V13.8883H465.68V11.5736H468.083Z" fill="#EEEEEE"/>
<path d="M468.083 26.2334V28.5481H459.272V26.2334H457.67V23.9187H455.267V21.604H452.864V20.0609H461.675V22.3756H463.277V23.9187H465.68V26.2334H468.083Z" fill="#EEEEEE"/>
<path d="M440.849 37.8068H438.446V29.3196H440.849V27.7765H443.252V25.4618H445.655V23.1471H447.257V31.6343H444.854V33.1774H443.252V35.4921H440.849V37.8068Z" fill="#EEEEEE"/>
<path d="M452.063 23.147H449.66V31.6342H452.063V33.1774L454.466 33.1774V35.4921H456.869V37.8068H458.471V29.3195L456.068 29.3195V27.7764H454.466V25.4617H452.063V23.147Z" fill="#EEEEEE"/>
<path d="M447.257 20.0607V17.746H449.66V20.0607H447.257Z" fill="#EEEEEE"/>
<path d="M335 26.2333V28.548H343.811V26.2333H345.413V23.9186H347.816V21.6039H350.219V20.0608H341.408V22.3755H339.806V23.9186H337.403V26.2333H335Z" fill="#EEEEEE"/>
<path d="M335 11.5736V9.25887H343.811V11.5736H345.413V13.8883H347.816V16.203H350.219V17.7461H341.408V15.4314H339.806V13.8883H337.403V11.5736H335Z" fill="#EEEEEE"/>
<path d="M351.02 14.6598H353.423V6.17261H351.02V4.62948H348.617V2.31478H346.214V7.91549e-05H344.612V8.48731H347.015V10.0304H348.617V12.3451H351.02V14.6598Z" fill="#EEEEEE"/>
<path d="M362.234 7.80852e-05H364.637V8.48731H362.234V10.0304H359.831V12.3451H357.428V14.6598H355.826V6.17261H358.229V4.62948H359.831V2.31478H362.234V7.80852e-05Z" fill="#EEEEEE"/>
<path d="M374.249 11.5736V9.25887H365.438V11.5736H363.836V13.8883H361.433V16.203H359.03V17.7461H367.841V15.4314H369.443V13.8883H371.846V11.5736H374.249Z" fill="#EEEEEE"/>
<path d="M374.249 26.2333V28.548H365.438V26.2333H363.836V23.9186H361.433V21.6039H359.03V20.0608H367.841V22.3755H369.443V23.9186H371.846V26.2333H374.249Z" fill="#EEEEEE"/>
<path d="M347.015 37.8068H344.612L344.612 29.3196H347.015V27.7765H349.418V25.4618H351.821V23.1471H353.423V31.6343H351.02V33.1774H349.418V35.4921H347.015V37.8068Z" fill="#EEEEEE"/>
<path d="M358.229 23.147H355.826L355.826 31.6342H358.229V33.1774L360.632 33.1774V35.4921H363.035V37.8068H364.637V29.3195L362.234 29.3195V27.7764H360.632V25.4617H358.229V23.147Z" fill="#EEEEEE"/>
<path d="M353.423 20.0607V17.746H355.826V20.0607H353.423Z" fill="#EEEEEE"/>
<path d="M381.917 21.5188V16.5443H383.983V14.5544H386.049V12.5645H388.114V10.5747H390.18V8.58485H392.246V6.59497H394.311V4.60522H396.377V2.6155H398.443V0.625545H404.64V2.6155H406.706V4.60518H408.772V6.59501H410.837V8.58481H412.903V10.5748H414.969V12.5646H417.034V14.5544H419.1V16.5441H421.166V21.5187H418.067V17.5391H416.002V15.5493H413.936V13.5595H411.87V11.5696H409.804V9.57976H407.739V7.58992H405.673V5.60024H403.607V3.61029H399.476V5.60024H397.41V7.58996H395.344V9.57972H393.279V11.5696H391.213V13.5595H389.147V15.5493H387.081V17.5391H385.016V21.5188H381.917Z" fill="#EEEEEE"/>
<path d="M381.917 16.5443V21.5188L383.983 21.5186V23.5086H386.048V25.4984H388.114V27.4882H390.18V29.478H392.246V31.4678H394.311V33.4576H396.377V35.4475H398.443V37.4374H404.64V35.4475H406.706V33.4576H408.772V31.4678H410.837V29.4781H412.903V27.4882H414.969V25.4983H417.034V23.5086H419.1V21.5187L421.166 21.5187V16.5441L418.067 16.5441V20.5238H416.002V22.5136H413.936V24.5034H411.87V26.4933H409.804V28.4831H407.739V30.4729H405.673V32.4628H403.607V34.4526H399.476V32.4627H397.41V30.4729H395.344V28.4831H393.279V26.4933H391.213V24.5034H389.147V22.5136H387.081V20.5239H385.016V16.5441L381.917 16.5443Z" fill="#EEEEEE"/>
<path d="M399.476 21.5188V16.5442H404.64V21.5188H399.476Z" fill="#EEEEEE"/>
<path d="M475.751 21.5189V16.5443H477.816V14.5544H479.882V12.5646H481.948V10.5749H484.014V8.58494H486.079V6.5951H488.145V4.6053H490.211V2.61555H492.276V0.625674H498.474V2.61559H500.539V4.60527H502.605V6.5951H504.671V8.5849H506.737V10.5749H508.802V12.5647H510.868V14.5544H512.934V16.5443H515V21.5188H511.901V17.5392H509.835V15.5494H507.77V13.5596H505.704V11.5696H503.638V9.57985H501.572V7.59001H499.507V5.60033H497.441V3.61042H493.309V5.60029H491.244V7.59005H489.178V9.57985H487.112V11.5697H485.047V13.5596H482.981V15.5494H480.915V17.5392H478.849V21.5189H475.751Z" fill="#EEEEEE"/>
<path d="M475.751 16.5443V21.5189L477.817 21.5188V23.5087H479.882V25.4985H481.948V27.4883H484.014V29.4781H486.08V31.468H488.145V33.4578H490.211V35.4476H492.277V37.4375H498.474V35.4476H500.54V33.4577H502.606V31.468H504.671V29.4782H506.737V27.4883H508.803V25.4985H510.868V23.5087H512.934V21.5188L515 21.5188V16.5443L511.901 16.5442V20.5239H509.835V22.5137H507.77V24.5036H505.704V26.4935H503.638V28.4832H501.573V30.473H499.507V32.4629H497.441V34.4528H493.31V32.4629H491.244V30.473H489.178V28.4832H487.112V26.4934H485.047V24.5036H482.981V22.5138H480.915V20.5239H478.85V16.5442L475.751 16.5443Z" fill="#EEEEEE"/>
<path d="M493.31 21.5189V16.5443H498.474V21.5189H493.31Z" fill="#EEEEEE"/>
<path d="M381.917 71.4265V73.7412H390.728V71.4265H392.33V69.1118H394.733V66.7971H397.136V65.2539H388.325V67.5686H386.723V69.1118H384.32V71.4265H381.917Z" fill="#EEEEEE"/>
<path d="M381.917 56.7666V54.4519H390.728V56.7666H392.33V59.0813H394.733V61.396H397.136V62.9392H388.325V60.6245H386.723V59.0813H384.32V56.7666H381.917Z" fill="#EEEEEE"/>
<path d="M397.937 59.8529H400.34V51.3657H397.937V49.8225H395.534V47.5078H393.131V45.1931H391.529V53.6804H393.932V55.2235H395.534V57.5382H397.937V59.8529Z" fill="#EEEEEE"/>
<path d="M409.151 45.1932H411.554V53.6804H409.151V55.2235H406.748V57.5382H404.345V59.8529H402.743V51.3657H405.146V49.8226H406.748V47.5079H409.151V45.1932Z" fill="#EEEEEE"/>
<path d="M421.166 56.7667V54.452H412.355V56.7667H410.753V59.0814H408.35V61.3961H405.947V62.9392H414.758V60.6245H416.36V59.0814H418.763V56.7667H421.166Z" fill="#EEEEEE"/>
<path d="M421.166 71.4265V73.7412H412.355V71.4265H410.753V69.1118H408.35V66.7971H405.947V65.254H414.758V67.5687H416.36V69.1118H418.763V71.4265H421.166Z" fill="#EEEEEE"/>
<path d="M393.932 82.9999H391.529V74.5127H393.932V72.9696H396.335V70.6549H398.738V68.3402H400.34V76.8274H397.937V78.3705H396.335V80.6852H393.932V82.9999Z" fill="#EEEEEE"/>
<path d="M405.146 68.3401H402.743V76.8273H405.146V78.3705H407.549V80.6852H409.952V82.9999H411.554V74.5126L409.151 74.5126V72.9695H407.549V70.6548H405.146V68.3401Z" fill="#EEEEEE"/>
<path d="M400.34 65.2539V62.9392H402.743V65.2539H400.34Z" fill="#EEEEEE"/>
<path d="M335 66.7121V61.7375H337.066V59.7476H339.132V57.7577H341.197V55.7679H343.263V53.7781H345.329V51.7882H347.394V49.7984H349.46V47.8087H351.526V45.8188H357.723V47.8087H359.789V49.7984H361.855V51.7882H363.92V53.778H365.986V55.768H368.052V57.7578H370.117V59.7476H372.183V61.7374H374.249V66.7119H371.15V62.7324H369.084V60.7425H367.019V58.7527H364.953V56.7628H362.887V54.773H360.822V52.7831H358.756V50.7935H356.69V48.8035H352.559V50.7934H350.493V52.7832H348.427V54.7729H346.361V56.7628H344.296V58.7527H342.23V60.7424H340.164V62.7323H338.099V66.7121H335Z" fill="#EEEEEE"/>
<path d="M335 61.7375V66.7121L337.066 66.7119V68.7019H339.131V70.6917H341.197V72.6815H343.263V74.6713H345.329V76.6611H347.394V78.6509H349.46V80.6408H351.526V82.6307H357.723V80.6408H359.789V78.6509H361.855V76.6611H363.92V74.6714H365.986V72.6815H368.052V70.6916H370.117V68.7018H372.183V66.712L374.249 66.7119V61.7374L371.15 61.7374V65.7171H369.084V67.7068H367.019V69.6967H364.953V71.6866H362.887V73.6764H360.822V75.6662H358.756V77.656H356.69V79.6459H352.559V77.656H350.493V75.6662H348.427V73.6764H346.361V71.6866H344.296V69.6967H342.23V67.7069H340.164V65.7172H338.099V61.7373L335 61.7375Z" fill="#EEEEEE"/>
<path d="M352.559 66.712V61.7375H357.723V66.712H352.559Z" fill="#EEEEEE"/>
<path d="M475.751 71.4265V73.7412H484.562V71.4265H486.164V69.1118H488.567V66.7971H490.97V65.2539H482.159V67.5686H480.557V69.1118H478.154V71.4265H475.751Z" fill="#EEEEEE"/>
<path d="M475.751 56.7668V54.4521H484.562V56.7668H486.164V59.0815H488.567V61.3962H490.97V62.9393H482.159V60.6246H480.557V59.0815H478.154V56.7668H475.751Z" fill="#EEEEEE"/>
<path d="M491.771 59.853H494.174V51.3657H491.771V49.8226H489.368V47.5079H486.965V45.1932H485.363V53.6804H487.766V55.2236H489.368V57.5383H491.771V59.853Z" fill="#EEEEEE"/>
<path d="M502.985 45.1932H505.388V53.6805H502.985V55.2236H500.582V57.5383H498.179V59.853H496.577V51.3658H498.98V49.8226H500.582V47.5079H502.985V45.1932Z" fill="#EEEEEE"/>
<path d="M515 56.7668V54.4521H506.189V56.7668H504.587V59.0815H502.184V61.3962H499.781V62.9393H508.592V60.6246H510.194V59.0815H512.597V56.7668H515Z" fill="#EEEEEE"/>
<path d="M515 71.4265V73.7412H506.189V71.4265H504.587V69.1118H502.184V66.7971H499.781V65.254H508.592V67.5687H510.194V69.1118H512.597V71.4265H515Z" fill="#EEEEEE"/>
<path d="M487.766 83H485.363V74.5128H487.766V72.9696H490.169V70.6549H492.572V68.3402H494.174V76.8275H491.771V78.3706H490.169V80.6853H487.766V83Z" fill="#EEEEEE"/>
<path d="M498.98 68.3401H496.577V76.8274H498.98V78.3705H501.383V80.6852H503.786V82.9999H505.388V74.5127H502.985V72.9695H501.383V70.6548H498.98V68.3401Z" fill="#EEEEEE"/>
<path d="M494.174 65.2539V62.9392H496.577V65.2539H494.174Z" fill="#EEEEEE"/>
<path d="M428.834 66.712V61.7374H430.9V59.7475H432.965V57.7577H435.031V55.7679H437.097V53.778H439.163V51.7882H441.228V49.7984H443.294V47.8086H445.36V45.8187H451.557V47.8087H453.623V49.7983H455.688V51.7882H457.754V53.7779H459.82V55.7679H461.886V57.7577H463.951V59.7475H466.017V61.7373H468.083V66.7119H464.984V62.7323H462.918V60.7425H460.853V58.7527H458.787V56.7627H456.721V54.7729H454.656V52.7831H452.59V50.7934H450.524V48.8034H446.393V50.7934H444.327V52.7831H442.261V54.7729H440.195V56.7628H438.13V58.7527H436.064V60.7424H433.998V62.7323H431.933V66.712H428.834Z" fill="#EEEEEE"/>
<path d="M428.834 61.7374V66.712L430.9 66.7118V68.7017H432.966V70.6915H435.031V72.6813H437.097V74.6712H439.163V76.661H441.228V78.6508H443.294V80.6406H445.36V82.6305H451.557V80.6406H453.623V78.6508H455.689V76.661H457.754V74.6712H459.82V72.6813H461.886V70.6915H463.951V68.7017H466.017V66.7118L468.083 66.7119V61.7373L464.984 61.7372V65.717H462.919V67.7067H460.853V69.6966H458.787V71.6865H456.721V73.6763H454.656V75.666H452.59V77.6559H450.524V79.6458H446.393V77.6559H444.327V75.6661H442.261V73.6763H440.196V71.6864H438.13V69.6966H436.064V67.7068H433.998V65.717H431.933V61.7372L428.834 61.7374Z" fill="#EEEEEE"/>
<path d="M446.393 66.7119V61.7374H451.557V66.7119H446.393Z" fill="#EEEEEE"/>
</g>
</g>
<path d="M13.978 36V12.7273H20.2962V22.1364H20.6144L27.6144 12.7273H34.978L27.1144 23.0909L35.1598 36H27.6144L22.3871 27.2727L20.2962 30V36H13.978ZM57.9297 24.3636C57.9297 26.9545 57.4259 29.1402 56.4184 30.9205C55.4108 32.6932 54.0509 34.0379 52.3388 34.9545C50.6267 35.8636 48.7176 36.3182 46.6116 36.3182C44.4903 36.3182 42.5737 35.8598 40.8616 34.9432C39.157 34.0189 37.8009 32.6705 36.7934 30.8977C35.7934 29.1174 35.2934 26.9394 35.2934 24.3636C35.2934 21.7727 35.7934 19.5909 36.7934 17.8182C37.8009 16.0379 39.157 14.6932 40.8616 13.7841C42.5737 12.8674 44.4903 12.4091 46.6116 12.4091C48.7176 12.4091 50.6267 12.8674 52.3388 13.7841C54.0509 14.6932 55.4108 16.0379 56.4184 17.8182C57.4259 19.5909 57.9297 21.7727 57.9297 24.3636ZM51.4297 24.3636C51.4297 22.9697 51.2441 21.7955 50.8729 20.8409C50.5093 19.8788 49.9676 19.1515 49.2479 18.6591C48.5358 18.1591 47.657 17.9091 46.6116 17.9091C45.5661 17.9091 44.6835 18.1591 43.9638 18.6591C43.2517 19.1515 42.71 19.8788 42.3388 20.8409C41.9752 21.7955 41.7934 22.9697 41.7934 24.3636C41.7934 25.7576 41.9752 26.9356 42.3388 27.8977C42.71 28.8523 43.2517 29.5795 43.9638 30.0795C44.6835 30.572 45.5661 30.8182 46.6116 30.8182C47.657 30.8182 48.5358 30.572 49.2479 30.0795C49.9676 29.5795 50.5093 28.8523 50.8729 27.8977C51.2441 26.9356 51.4297 25.7576 51.4297 24.3636ZM60.853 36V12.7273H67.1712V30.9091H76.5803V36H60.853ZM104.603 36V12.7273H114.694C116.467 12.7273 117.955 12.9659 119.16 13.4432C120.372 13.9205 121.285 14.5947 121.898 15.4659C122.52 16.3371 122.83 17.3636 122.83 18.5455C122.83 19.4015 122.641 20.1818 122.262 20.8864C121.891 21.5909 121.368 22.1818 120.694 22.6591C120.02 23.1288 119.232 23.4545 118.33 23.6364V23.8636C119.33 23.9015 120.239 24.1553 121.058 24.625C121.876 25.0871 122.527 25.7273 123.012 26.5455C123.497 27.3561 123.739 28.3106 123.739 29.4091C123.739 30.6818 123.406 31.8144 122.739 32.8068C122.08 33.7992 121.141 34.5795 119.921 35.1477C118.702 35.7159 117.247 36 115.558 36H104.603ZM110.921 30.9545H113.876C114.936 30.9545 115.732 30.7576 116.262 30.3636C116.792 29.9621 117.058 29.3712 117.058 28.5909C117.058 28.0455 116.933 27.5833 116.683 27.2045C116.433 26.8258 116.077 26.5379 115.614 26.3409C115.16 26.1439 114.611 26.0455 113.967 26.0455H110.921V30.9545ZM110.921 22.1364H113.512C114.065 22.1364 114.554 22.0492 114.978 21.875C115.402 21.7008 115.732 21.4508 115.967 21.125C116.209 20.7917 116.33 20.3864 116.33 19.9091C116.33 19.1894 116.073 18.6402 115.558 18.2614C115.042 17.875 114.391 17.6818 113.603 17.6818H110.921V22.1364ZM148.523 24.3636C148.523 26.9545 148.02 29.1402 147.012 30.9205C146.005 32.6932 144.645 34.0379 142.933 34.9545C141.22 35.8636 139.311 36.3182 137.205 36.3182C135.084 36.3182 133.167 35.8598 131.455 34.9432C129.751 34.0189 128.395 32.6705 127.387 30.8977C126.387 29.1174 125.887 26.9394 125.887 24.3636C125.887 21.7727 126.387 19.5909 127.387 17.8182C128.395 16.0379 129.751 14.6932 131.455 13.7841C133.167 12.8674 135.084 12.4091 137.205 12.4091C139.311 12.4091 141.22 12.8674 142.933 13.7841C144.645 14.6932 146.005 16.0379 147.012 17.8182C148.02 19.5909 148.523 21.7727 148.523 24.3636ZM142.023 24.3636C142.023 22.9697 141.838 21.7955 141.467 20.8409C141.103 19.8788 140.561 19.1515 139.842 18.6591C139.13 18.1591 138.251 17.9091 137.205 17.9091C136.16 17.9091 135.277 18.1591 134.558 18.6591C133.845 19.1515 133.304 19.8788 132.933 20.8409C132.569 21.7955 132.387 22.9697 132.387 24.3636C132.387 25.7576 132.569 26.9356 132.933 27.8977C133.304 28.8523 133.845 29.5795 134.558 30.0795C135.277 30.572 136.16 30.8182 137.205 30.8182C138.251 30.8182 139.13 30.572 139.842 30.0795C140.561 29.5795 141.103 28.8523 141.467 27.8977C141.838 26.9356 142.023 25.7576 142.023 24.3636ZM151.447 36V12.7273H161.492C163.22 12.7273 164.731 13.0417 166.026 13.6705C167.322 14.2992 168.329 15.2045 169.049 16.3864C169.769 17.5682 170.129 18.9848 170.129 20.6364C170.129 22.303 169.757 23.7083 169.015 24.8523C168.28 25.9962 167.246 26.8598 165.913 27.4432C164.587 28.0265 163.038 28.3182 161.265 28.3182H155.265V23.4091H159.992C160.735 23.4091 161.367 23.3182 161.89 23.1364C162.42 22.947 162.826 22.6477 163.106 22.2386C163.394 21.8295 163.538 21.2955 163.538 20.6364C163.538 19.9697 163.394 19.428 163.106 19.0114C162.826 18.5871 162.42 18.2765 161.89 18.0795C161.367 17.875 160.735 17.7727 159.992 17.7727H157.765V36H151.447ZM165.083 25.3182L170.901 36H164.038L158.356 25.3182H165.083ZM210.836 20C210.775 19.2424 210.491 18.6515 209.984 18.2273C209.484 17.803 208.722 17.5909 207.7 17.5909C207.048 17.5909 206.514 17.6705 206.097 17.8295C205.688 17.9811 205.385 18.1894 205.188 18.4545C204.991 18.7197 204.889 19.0227 204.881 19.3636C204.866 19.6439 204.916 19.8977 205.029 20.125C205.15 20.3447 205.34 20.5455 205.597 20.7273C205.855 20.9015 206.184 21.0606 206.586 21.2045C206.987 21.3485 207.465 21.4773 208.018 21.5909L209.927 22C211.215 22.2727 212.317 22.6326 213.234 23.0795C214.15 23.5265 214.9 24.053 215.484 24.6591C216.067 25.2576 216.495 25.9318 216.768 26.6818C217.048 27.4318 217.192 28.25 217.2 29.1364C217.192 30.6667 216.809 31.9621 216.052 33.0227C215.294 34.0833 214.211 34.8902 212.802 35.4432C211.4 35.9962 209.715 36.2727 207.745 36.2727C205.722 36.2727 203.957 35.9735 202.45 35.375C200.95 34.7765 199.783 33.8561 198.95 32.6136C198.124 31.3636 197.707 29.7652 197.7 27.8182H203.7C203.737 28.5303 203.916 29.1288 204.234 29.6136C204.552 30.0985 204.999 30.4659 205.575 30.7159C206.158 30.9659 206.851 31.0909 207.654 31.0909C208.328 31.0909 208.893 31.0076 209.347 30.8409C209.802 30.6742 210.147 30.4432 210.381 30.1477C210.616 29.8523 210.737 29.5152 210.745 29.1364C210.737 28.7803 210.62 28.4697 210.393 28.2045C210.173 27.9318 209.809 27.6894 209.302 27.4773C208.794 27.2576 208.109 27.053 207.245 26.8636L204.927 26.3636C202.866 25.9167 201.241 25.1705 200.052 24.125C198.87 23.072 198.283 21.6364 198.291 19.8182C198.283 18.3409 198.677 17.0492 199.472 15.9432C200.275 14.8295 201.385 13.9621 202.802 13.3409C204.226 12.7197 205.859 12.4091 207.7 12.4091C209.578 12.4091 211.203 12.7235 212.575 13.3523C213.946 13.9811 215.003 14.8674 215.745 16.0114C216.495 17.1477 216.874 18.4773 216.881 20H210.836ZM225.921 12.7273V36H219.603V12.7273H225.921ZM235.291 36V12.7273H241.609V22.1364H241.927L248.927 12.7273H256.291L248.427 23.0909L256.472 36H248.927L243.7 27.2727L241.609 30V36H235.291ZM258.166 36V12.7273H268.211C269.938 12.7273 271.45 13.0417 272.745 13.6705C274.041 14.2992 275.048 15.2045 275.768 16.3864C276.487 17.5682 276.847 18.9848 276.847 20.6364C276.847 22.303 276.476 23.7083 275.734 24.8523C274.999 25.9962 273.965 26.8598 272.631 27.4432C271.306 28.0265 269.756 28.3182 267.984 28.3182H261.984V23.4091H266.711C267.453 23.4091 268.086 23.3182 268.609 23.1364C269.139 22.947 269.544 22.6477 269.825 22.2386C270.112 21.8295 270.256 21.2955 270.256 20.6364C270.256 19.9697 270.112 19.428 269.825 19.0114C269.544 18.5871 269.139 18.2765 268.609 18.0795C268.086 17.875 267.453 17.7727 266.711 17.7727H264.484V36H258.166ZM271.802 25.3182L277.62 36H270.756L265.075 25.3182H271.802ZM279.541 36V12.7273H296.313V17.8182H285.859V21.8182H295.45V26.9091H285.859V30.9091H296.268V36H279.541ZM337.461 20C337.4 19.2424 337.116 18.6515 336.609 18.2273C336.109 17.803 335.347 17.5909 334.325 17.5909C333.673 17.5909 333.139 17.6705 332.722 17.8295C332.313 17.9811 332.01 18.1894 331.813 18.4545C331.616 18.7197 331.514 19.0227 331.506 19.3636C331.491 19.6439 331.541 19.8977 331.654 20.125C331.775 20.3447 331.965 20.5455 332.222 20.7273C332.48 20.9015 332.809 21.0606 333.211 21.2045C333.612 21.3485 334.09 21.4773 334.643 21.5909L336.552 22C337.84 22.2727 338.942 22.6326 339.859 23.0795C340.775 23.5265 341.525 24.053 342.109 24.6591C342.692 25.2576 343.12 25.9318 343.393 26.6818C343.673 27.4318 343.817 28.25 343.825 29.1364C343.817 30.6667 343.434 31.9621 342.677 33.0227C341.919 34.0833 340.836 34.8902 339.427 35.4432C338.025 35.9962 336.34 36.2727 334.37 36.2727C332.347 36.2727 330.582 35.9735 329.075 35.375C327.575 34.7765 326.408 33.8561 325.575 32.6136C324.749 31.3636 324.332 29.7652 324.325 27.8182H330.325C330.362 28.5303 330.541 29.1288 330.859 29.6136C331.177 30.0985 331.624 30.4659 332.2 30.7159C332.783 30.9659 333.476 31.0909 334.279 31.0909C334.953 31.0909 335.518 31.0076 335.972 30.8409C336.427 30.6742 336.772 30.4432 337.006 30.1477C337.241 29.8523 337.362 29.5152 337.37 29.1364C337.362 28.7803 337.245 28.4697 337.018 28.2045C336.798 27.9318 336.434 27.6894 335.927 27.4773C335.419 27.2576 334.734 27.053 333.87 26.8636L331.552 26.3636C329.491 25.9167 327.866 25.1705 326.677 24.125C325.495 23.072 324.908 21.6364 324.916 19.8182C324.908 18.3409 325.302 17.0492 326.097 15.9432C326.9 14.8295 328.01 13.9621 329.427 13.3409C330.851 12.7197 332.484 12.4091 334.325 12.4091C336.203 12.4091 337.828 12.7235 339.2 13.3523C340.571 13.9811 341.628 14.8674 342.37 16.0114C343.12 17.1477 343.499 18.4773 343.506 20H337.461ZM352.546 12.7273V36H346.228V12.7273H352.546ZM76.1812 51.7273H84.0448L89.4539 64.9091H89.7266L95.1357 51.7273H102.999V75H96.8175V61.5455H96.6357L91.4539 74.8182H87.7266L82.5448 61.4545H82.363V75H76.1812V51.7273ZM131.462 75V51.7273H137.781V60.8182H146.144V51.7273H152.462V75H146.144V65.9091H137.781V75H131.462ZM193.477 59C193.416 58.2424 193.132 57.6515 192.624 57.2273C192.124 56.803 191.363 56.5909 190.34 56.5909C189.689 56.5909 189.155 56.6705 188.738 56.8295C188.329 56.9811 188.026 57.1894 187.829 57.4545C187.632 57.7197 187.53 58.0227 187.522 58.3636C187.507 58.6439 187.556 58.8977 187.67 59.125C187.791 59.3447 187.98 59.5455 188.238 59.7273C188.496 59.9015 188.825 60.0606 189.227 60.2045C189.628 60.3485 190.105 60.4773 190.658 60.5909L192.568 61C193.855 61.2727 194.958 61.6326 195.874 62.0795C196.791 62.5265 197.541 63.053 198.124 63.6591C198.708 64.2576 199.136 64.9318 199.408 65.6818C199.689 66.4318 199.833 67.25 199.84 68.1364C199.833 69.6667 199.45 70.9621 198.693 72.0227C197.935 73.0833 196.852 73.8902 195.443 74.4432C194.041 74.9962 192.355 75.2727 190.386 75.2727C188.363 75.2727 186.598 74.9735 185.09 74.375C183.59 73.7765 182.424 72.8561 181.59 71.6136C180.764 70.3636 180.348 68.7652 180.34 66.8182H186.34C186.378 67.5303 186.556 68.1288 186.874 68.6136C187.193 69.0985 187.639 69.4659 188.215 69.7159C188.799 69.9659 189.492 70.0909 190.295 70.0909C190.969 70.0909 191.533 70.0076 191.988 69.8409C192.443 69.6742 192.787 69.4432 193.022 69.1477C193.257 68.8523 193.378 68.5152 193.386 68.1364C193.378 67.7803 193.261 67.4697 193.033 67.2045C192.814 66.9318 192.45 66.6894 191.943 66.4773C191.435 66.2576 190.749 66.053 189.886 65.8636L187.568 65.3636C185.507 64.9167 183.882 64.1705 182.693 63.125C181.511 62.072 180.924 60.6364 180.931 58.8182C180.924 57.3409 181.318 56.0492 182.113 54.9432C182.916 53.8295 184.026 52.9621 185.443 52.3409C186.867 51.7197 188.499 51.4091 190.34 51.4091C192.219 51.4091 193.844 51.7235 195.215 52.3523C196.586 52.9811 197.643 53.8674 198.386 55.0114C199.136 56.1477 199.514 57.4773 199.522 59H193.477ZM208.562 51.7273V75H202.244V51.7273H208.562ZM224.102 59C224.041 58.2424 223.757 57.6515 223.249 57.2273C222.749 56.803 221.988 56.5909 220.965 56.5909C220.314 56.5909 219.78 56.6705 219.363 56.8295C218.954 56.9811 218.651 57.1894 218.454 57.4545C218.257 57.7197 218.155 58.0227 218.147 58.3636C218.132 58.6439 218.181 58.8977 218.295 59.125C218.416 59.3447 218.605 59.5455 218.863 59.7273C219.121 59.9015 219.45 60.0606 219.852 60.2045C220.253 60.3485 220.73 60.4773 221.283 60.5909L223.193 61C224.48 61.2727 225.583 61.6326 226.499 62.0795C227.416 62.5265 228.166 63.053 228.749 63.6591C229.333 64.2576 229.761 64.9318 230.033 65.6818C230.314 66.4318 230.458 67.25 230.465 68.1364C230.458 69.6667 230.075 70.9621 229.318 72.0227C228.56 73.0833 227.477 73.8902 226.068 74.4432C224.666 74.9962 222.98 75.2727 221.011 75.2727C218.988 75.2727 217.223 74.9735 215.715 74.375C214.215 73.7765 213.049 72.8561 212.215 71.6136C211.389 70.3636 210.973 68.7652 210.965 66.8182H216.965C217.003 67.5303 217.181 68.1288 217.499 68.6136C217.818 69.0985 218.264 69.4659 218.84 69.7159C219.424 69.9659 220.117 70.0909 220.92 70.0909C221.594 70.0909 222.158 70.0076 222.613 69.8409C223.068 69.6742 223.412 69.4432 223.647 69.1477C223.882 68.8523 224.003 68.5152 224.011 68.1364C224.003 67.7803 223.886 67.4697 223.658 67.2045C223.439 66.9318 223.075 66.6894 222.568 66.4773C222.06 66.2576 221.374 66.053 220.511 65.8636L218.193 65.3636C216.132 64.9167 214.507 64.1705 213.318 63.125C212.136 62.072 211.549 60.6364 211.556 58.8182C211.549 57.3409 211.943 56.0492 212.738 54.9432C213.541 53.8295 214.651 52.9621 216.068 52.3409C217.492 51.7197 219.124 51.4091 220.965 51.4091C222.844 51.4091 224.469 51.7235 225.84 52.3523C227.211 52.9811 228.268 53.8674 229.011 55.0114C229.761 56.1477 230.139 57.4773 230.147 59H224.102ZM238.778 75L231.914 51.7273H238.96L242.141 66.0455H242.323L246.096 51.7273H251.641L255.414 66.0909H255.596L258.778 51.7273H265.823L258.96 75H252.914L248.96 62H248.778L244.823 75H238.778Z" fill="#EEEEEE"/>
<path d="M85.1797 36H78.3616L86.0434 12.7273H94.6797L102.362 36H95.5434L90.4525 19.1364H90.2706L85.1797 36ZM83.907 26.8182H96.7252V31.5455H83.907V26.8182Z" fill="#4A8068"/>
<path d="M178.867 36H172.049L179.731 12.7273H188.367L196.049 36H189.231L184.14 19.1364H183.958L178.867 36ZM177.595 26.8182H190.413V31.5455H177.595V26.8182ZM273.914 75H267.096L274.778 51.7273H283.414L291.096 75H284.278L279.187 58.1364H279.005L273.914 75ZM272.641 65.8182H285.46V70.5455H272.641V65.8182Z" fill="#E62C20"/>
<path d="M305.492 36H298.674L306.356 12.7273H314.992L322.674 36H315.856L310.765 19.1364H310.583L305.492 36ZM304.22 26.8182H317.038V31.5455H304.22V26.8182ZM112.039 75H105.221L112.903 51.7273H121.539L129.221 75H122.403L117.312 58.1364H117.13L112.039 75ZM110.766 65.8182H123.585V70.5455H110.766V65.8182Z" fill="#F69722"/>
<path d="M161.508 75H154.69L162.371 51.7273H171.008L178.69 75H171.871L166.781 58.1364H166.599L161.508 75ZM160.235 65.8182H173.053V70.5455H160.235V65.8182Z" fill="#9C4A9A"/>
<path d="M126 75H109L117.5 55L126 75Z" fill="#F69722"/>
<path d="M301 36L309.5 16L319 36H301Z" fill="#F69722"/>
<path d="M192.925 36H176L183.5 15L192.925 36Z" fill="#E62C20"/>
<path d="M100 36H83L90.6207 17L100 36Z" fill="#4A8068"/>
<path d="M177 75H158L166.5 56L177 75Z" fill="#9C4A9A"/>
<path d="M290 75H271L279.216 54L290 75Z" fill="#E62C20"/>
<defs>
<clipPath id="clip0_1781_18">
<rect width="28" height="60" fill="white" transform="translate(0 10)"/>
</clipPath>
<clipPath id="clip1_1781_18">
<rect width="29" height="60" fill="white" transform="translate(331 13)"/>
</clipPath>
<clipPath id="clip2_1781_18">
<rect width="358" height="83" fill="white" transform="translate(2)"/>
</clipPath>
</defs>
</svg>
