<svg width="72" height="72" viewBox="0 0 72 72" fill="none" xmlns="http://www.w3.org/2000/svg">
<path fill-rule="evenodd" clip-rule="evenodd" d="M17.5814 17.5522L0 17.5522L0 21.9701H4.42525L4.42525 26.3881H8.7309L8.7309 29.3731L11.7209 29.3731V33.791L11.7209 38.209V38.3284V42.6269H8.7309V45.6119H4.42525V50.0299H0L0 54.4478H17.5814V72H20.5714V67.7015H24.9967V63.2836H29.4219V60.2985H42.5781V63.2836H45.4485L45.4485 67.7015H49.9934V72H54.4186L54.4186 54.4478L72 54.4478V50.0299H67.5748V45.6119L63.1495 45.6119V42.6269H60.2791V38.3284V38.209V33.791V29.3731H63.1495V26.3881H67.5748V21.9701H72V17.5522H54.4186V0L49.9934 0V4.29851H45.4485V8.71642H42.5781V11.7015L29.4219 11.7015L29.4219 8.71642L24.9967 8.71642V4.29851L20.5714 4.29851V0L17.5814 0L17.5814 17.5522Z" fill="#9C4A9A"/>
</svg>
