<svg width="360" height="83" viewBox="0 0 360 83" fill="none" xmlns="http://www.w3.org/2000/svg">
<path d="M49.1453 52V29.6H59.9293C62.02 29.6 63.8226 29.9413 65.3373 30.624C66.8733 31.3067 68.0573 32.288 68.8893 33.568C69.7213 34.8267 70.1373 36.32 70.1373 38.048C70.1373 39.776 69.7213 41.2693 68.8893 42.528C68.0573 43.7867 66.8733 44.768 65.3373 45.472C63.8226 46.1547 62.02 46.496 59.9293 46.496H53.3373L56.6973 43.264V52H49.1453ZM56.6973 44.096L53.3373 40.672H59.4493C60.4946 40.672 61.2626 40.4373 61.7533 39.968C62.2653 39.4987 62.5213 38.8587 62.5213 38.048C62.5213 37.2373 62.2653 36.5973 61.7533 36.128C61.2626 35.6587 60.4946 35.424 59.4493 35.424H53.3373L56.6973 32V44.096Z" fill="#E62C20"/>
<path d="M79.8385 37.92H89.8225V43.36H79.8385V37.92ZM80.3505 46.304H91.5505V52H72.9265V29.6H91.1345V35.296H80.3505V46.304ZM123.166 52V35.456H116.606V29.6H137.278V35.456H130.718V52H123.166ZM149.647 52.512C146.212 52.512 143.535 51.584 141.615 49.728C139.695 47.872 138.735 45.2693 138.735 41.92V29.6H146.287V41.696C146.287 43.4027 146.596 44.6187 147.215 45.344C147.833 46.048 148.665 46.4 149.711 46.4C150.777 46.4 151.609 46.048 152.207 45.344C152.825 44.6187 153.135 43.4027 153.135 41.696V29.6H160.559V41.92C160.559 45.2693 159.599 47.872 157.679 49.728C155.759 51.584 153.081 52.512 149.647 52.512ZM195.403 52.512C193.654 52.512 192.075 52.2347 190.667 51.68C189.259 51.104 188.086 50.272 187.147 49.184L191.211 44.384C191.808 45.1093 192.395 45.664 192.971 46.048C193.547 46.4107 194.144 46.592 194.763 46.592C196.384 46.592 197.195 45.664 197.195 43.808V35.296H189.579V29.6H204.651V43.36C204.651 46.432 203.862 48.7253 202.283 50.24C200.704 51.7547 198.411 52.512 195.403 52.512ZM218.834 52.512C215.399 52.512 212.722 51.584 210.802 49.728C208.882 47.872 207.922 45.2693 207.922 41.92V29.6H215.474V41.696C215.474 43.4027 215.783 44.6187 216.402 45.344C217.021 46.048 217.853 46.4 218.898 46.4C219.965 46.4 220.797 46.048 221.394 45.344C222.013 44.6187 222.322 43.4027 222.322 41.696V29.6H229.746V41.92C229.746 45.2693 228.786 47.872 226.866 49.728C224.946 51.584 222.269 52.512 218.834 52.512ZM239.96 47.2L239.544 38.912L247.992 29.6H256.216L246.744 40.032L242.552 44.32L239.96 47.2ZM233.208 52V29.6H240.632V52H233.208ZM247.928 52L241.336 43.296L246.232 38.112L256.664 52H247.928ZM283.458 52V29.6H289.666L301.058 43.232H298.178V29.6H305.538V52H299.33L287.938 38.368H290.818V52H283.458Z" fill="white"/>
<path d="M94.4578 52V29.6H105.242C107.332 29.6 109.135 29.9413 110.65 30.624C112.186 31.3067 113.37 32.288 114.202 33.568C115.034 34.8267 115.45 36.32 115.45 38.048C115.45 39.776 115.034 41.2693 114.202 42.528C113.37 43.7653 112.186 44.7147 110.65 45.376C109.135 46.0373 107.332 46.368 105.242 46.368H98.6498L102.01 43.264V52H94.4578ZM107.866 52L102.362 43.84H110.362L115.93 52H107.866ZM102.01 44.096L98.6498 40.672H104.762C105.807 40.672 106.575 40.4373 107.066 39.968C107.578 39.4987 107.834 38.8587 107.834 38.048C107.834 37.2373 107.578 36.5973 107.066 36.128C106.575 35.6587 105.807 35.424 104.762 35.424H98.6498L102.01 32V44.096Z" fill="#F69722"/>
<path d="M164.02 52V29.6H170.228L181.62 43.232H178.74V29.6H186.1V52H179.892L168.5 38.368H171.38V52H164.02Z" fill="#4A8068"/>
<path d="M255.245 52L265.037 29.6H272.461L282.253 52H274.445L267.213 33.184H270.157L262.925 52H255.245ZM261.069 48.096L262.989 42.656H273.293L275.213 48.096H261.069Z" fill="#9C4A9A"/>
<path d="M11.6906 9H15.499L15.499 22.4693H11.6906V24.9183H7.88222L7.88222 28.5917H4.07382L4.07382 32.2652H1.53488L1.53488 18.7959H5.34328V16.3469H7.88222L7.88222 12.6735H11.6906V9Z" fill="#D9D9D9"/>
<path d="M6.6123 33.4896L6.6123 37.1631H20.5764V33.4896H23.1154V29.8162H26.9238V26.1427H30.7322L30.7322 23.6938H16.768V27.3672H14.2291L14.2291 29.8162H10.4207L10.4207 33.4896H6.6123Z" fill="#D9D9D9"/>
<path d="M30.7334 50.6332V54.3066H16.7693V50.6332H14.2303V46.9597H10.4219V43.2863H6.61352L6.61352 40.8373H20.5777V44.5108H23.1166V46.9597H26.925V50.6332H30.7334Z" fill="#D9D9D9"/>
<path d="M11.6916 69H15.5L15.5 55.5307H11.6916V53.0817H7.8832V49.4083H4.07479V45.7348H1.53586L1.53586 59.2041H5.34426V61.6531H7.8832V65.3265H11.6916V69Z" fill="#D9D9D9"/>
<rect x="-2.27246" y="37.1631" width="3.8084" height="3.67345" fill="#D9D9D9"/>
<path d="M347.317 70H343.509V56.5307H347.317V54.0817H351.126V50.4083H354.934V46.7348H357.473V60.2041H353.665V62.6531H351.126V66.3265H347.317V70Z" fill="#D9D9D9"/>
<path d="M352.395 45.5104V41.8369L338.43 41.8369V45.5104H335.891V49.1838H332.083V52.8573H328.275V55.3062L342.239 55.3062V51.6328H344.778V49.1838H348.586V45.5104H352.395Z" fill="#D9D9D9"/>
<path d="M328.274 28.3668V24.6934L342.239 24.6934V28.3668H344.777V32.0403H348.586V35.7137H352.394V38.1627L338.43 38.1627V34.4892H335.891V32.0403H332.083V28.3668H328.274Z" fill="#D9D9D9"/>
<path d="M347.316 10L343.508 10V23.4693H347.316V25.9183H351.125V29.5917H354.933V33.2652H357.472V19.7959H353.664V17.3469H351.125V13.6735H347.316L347.316 10Z" fill="#D9D9D9"/>
<rect x="361.28" y="41.8369" width="3.8084" height="3.67345" transform="rotate(180 361.28 41.8369)" fill="#D9D9D9"/>
<g opacity="0.1">
<path d="M86.8341 26.2333V28.548H95.645V26.2333H97.247V23.9186H99.65V21.6039H102.053V20.0608H93.2421V22.3755H91.6401V23.9186H89.2371V26.2333H86.8341Z" fill="#EEEEEE"/>
<path d="M86.8341 11.5735V9.25883H95.645V11.5735H97.247V13.8882H99.65V16.2029H102.053V17.7461H93.2421V15.4314H91.6401V13.8882H89.2371V11.5735H86.8341Z" fill="#EEEEEE"/>
<path d="M102.854 14.6598H105.257V6.17253H102.854V4.6294H100.451V2.3147H98.048V0H96.4461V8.48723H98.8491V10.0304H100.451V12.3451H102.854V14.6598Z" fill="#EEEEEE"/>
<path d="M114.068 7.80852e-05H116.471V8.48731H114.068V10.0304H111.665V12.3451H109.262V14.6598H107.66V6.17261H110.063V4.62948H111.665V2.31478H114.068V7.80852e-05Z" fill="#EEEEEE"/>
<path d="M126.083 11.5736V9.25887H117.272V11.5736H115.67V13.8883H113.267V16.203H110.864V17.7461H119.675V15.4314H121.277V13.8883H123.68V11.5736H126.083Z" fill="#EEEEEE"/>
<path d="M126.083 26.2334V28.5481H117.272V26.2334H115.67V23.9187H113.267V21.604H110.864V20.0609H119.675V22.3756H121.277V23.9187H123.68V26.2334H126.083Z" fill="#EEEEEE"/>
<path d="M98.849 37.8068H96.4461V29.3196H98.849V27.7765H101.252V25.4618H103.655V23.1471H105.257V31.6343H102.854V33.1774H101.252V35.4921H98.849V37.8068Z" fill="#EEEEEE"/>
<path d="M110.063 23.147H107.66V31.6342H110.063V33.1774L112.466 33.1774V35.4921H114.869V37.8068H116.471V29.3195L114.068 29.3195V27.7764H112.466V25.4617H110.063V23.147Z" fill="#EEEEEE"/>
<path d="M105.257 20.0607V17.746H107.66V20.0607H105.257Z" fill="#EEEEEE"/>
<path d="M-7 26.2333V28.548H1.81096V26.2333H3.41295V23.9186H5.81594V21.6039H8.21893V20.0608H-0.59203V22.3755H-2.19402V23.9186H-4.59701V26.2333H-7Z" fill="#EEEEEE"/>
<path d="M-7 11.5736V9.25887H1.81096V11.5736H3.41295V13.8883H5.81594V16.203H8.21893V17.7461H-0.59203V15.4314H-2.19402V13.8883H-4.59701V11.5736H-7Z" fill="#EEEEEE"/>
<path d="M9.01995 14.6598H11.4229V6.17261H9.01995V4.62948H6.61696V2.31478H4.21397V7.91549e-05H2.61198V8.48731H5.01497V10.0304H6.61696V12.3451H9.01995V14.6598Z" fill="#EEEEEE"/>
<path d="M20.2339 7.80852e-05H22.6369V8.48731H20.2339V10.0304H17.8309V12.3451H15.4279V14.6598H13.8259V6.17261H16.2289V4.62948H17.8309V2.31478H20.2339V7.80852e-05Z" fill="#EEEEEE"/>
<path d="M32.2488 11.5736V9.25887H23.4379V11.5736H21.8359V13.8883H19.4329V16.203H17.0299V17.7461H25.8409V15.4314H27.4429V13.8883H29.8459V11.5736H32.2488Z" fill="#EEEEEE"/>
<path d="M32.2488 26.2333V28.548H23.4379V26.2333H21.8359V23.9186H19.4329V21.6039H17.0299V20.0608H25.8409V22.3755H27.4429V23.9186H29.8459V26.2333H32.2488Z" fill="#EEEEEE"/>
<path d="M5.01495 37.8068H2.61196L2.61196 29.3196H5.01495V27.7765H7.41794V25.4618H9.82093V23.1471H11.4229V31.6343H9.01993V33.1774H7.41794V35.4921H5.01495V37.8068Z" fill="#EEEEEE"/>
<path d="M16.2289 23.147H13.8259L13.8259 31.6342H16.2289V33.1774L18.6319 33.1774V35.4921H21.0349V37.8068H22.6369V29.3195L20.2339 29.3195V27.7764H18.6319V25.4617H16.2289V23.147Z" fill="#EEEEEE"/>
<path d="M11.4229 20.0607V17.746H13.8259V20.0607H11.4229Z" fill="#EEEEEE"/>
<path d="M39.917 21.5188V16.5443H41.9827V14.5544H44.0486V12.5645H46.1142V10.5747H48.1799V8.58485H50.2458V6.59497H52.3114V4.60522H54.3771V2.6155H56.4429V0.625545H62.6401V2.6155H64.7057V4.60518H66.7716V6.59501H68.8373V8.58481H70.9029V10.5748H72.9688V12.5646H75.0344V14.5544H77.1001V16.5441H79.166V21.5187H76.0674V17.5391H74.0015V15.5493H71.9359V13.5595H69.8702V11.5696H67.8043V9.57976H65.7387V7.58992H63.673V5.60024H61.6071V3.61029H57.4757V5.60024H55.41V7.58996H53.3444V9.57972H51.2785V11.5696H49.2128V13.5595H47.1472V15.5493H45.0813V17.5391H43.0156V21.5188H39.917Z" fill="#EEEEEE"/>
<path d="M39.917 16.5443V21.5188L41.9827 21.5186V23.5086H44.0485V25.4984H46.1142V27.4882H48.1799V29.478H50.2458V31.4678H52.3114V33.4576H54.3771V35.4475H56.4429V37.4374H62.6401V35.4475H64.7057V33.4576H66.7716V31.4678H68.8373V29.4781H70.9029V27.4882H72.9687V25.4983H75.0344V23.5086H77.1001V21.5187L79.166 21.5187V16.5441L76.0672 16.5441V20.5238H74.0015V22.5136H71.9359V24.5034H69.8701V26.4933H67.8043V28.4831H65.7387V30.4729H63.673V32.4628H61.6071V34.4526H57.4757V32.4627H55.41V30.4729H53.3444V28.4831H51.2785V26.4933H49.2128V24.5034H47.1471V22.5136H45.0813V20.5239H43.0156V16.5441L39.917 16.5443Z" fill="#EEEEEE"/>
<path d="M57.4758 21.5188V16.5442H62.6401V21.5188H57.4758Z" fill="#EEEEEE"/>
<path d="M133.751 21.5189V16.5443H135.816V14.5544H137.882V12.5646H139.948V10.5749H142.014V8.58494H144.079V6.5951H146.145V4.6053H148.211V2.61555H150.276V0.625674H156.474V2.61559H158.539V4.60527H160.605V6.5951H162.671V8.5849H164.737V10.5749H166.802V12.5647H168.868V14.5544H170.934V16.5443H173V21.5188H169.901V17.5392H167.835V15.5494H165.77V13.5596H163.704V11.5696H161.638V9.57985H159.572V7.59001H157.507V5.60033H155.441V3.61042H151.309V5.60029H149.244V7.59005H147.178V9.57985H145.112V11.5697H143.047V13.5596H140.981V15.5494H138.915V17.5392H136.849V21.5189H133.751Z" fill="#EEEEEE"/>
<path d="M133.751 16.5443V21.5189L135.817 21.5188V23.5087H137.882V25.4985H139.948V27.4883H142.014V29.4781H144.08V31.468H146.145V33.4578H148.211V35.4476H150.277V37.4375H156.474V35.4476H158.54V33.4577H160.606V31.468H162.671V29.4782H164.737V27.4883H166.803V25.4985H168.868V23.5087H170.934V21.5188L173 21.5188V16.5443L169.901 16.5442V20.5239H167.835V22.5137H165.77V24.5036H163.704V26.4935H161.638V28.4832H159.573V30.473H157.507V32.4629H155.441V34.4528H151.31V32.4629H149.244V30.473H147.178V28.4832H145.112V26.4934H143.047V24.5036H140.981V22.5138H138.915V20.5239H136.85V16.5442L133.751 16.5443Z" fill="#EEEEEE"/>
<path d="M151.31 21.5189V16.5443H156.474V21.5189H151.31Z" fill="#EEEEEE"/>
<path d="M39.9172 71.4265V73.7412H48.7281V71.4265H50.3301V69.1118H52.7331V66.7971H55.1361V65.2539H46.3251V67.5686H44.7232V69.1118H42.3202V71.4265H39.9172Z" fill="#EEEEEE"/>
<path d="M39.9172 56.7666V54.4519H48.7281V56.7666H50.3301V59.0813H52.7331V61.396H55.1361V62.9392H46.3251V60.6245H44.7232V59.0813H42.3202V56.7666H39.9172Z" fill="#EEEEEE"/>
<path d="M55.9371 59.8529H58.3401V51.3657H55.9371V49.8225H53.5341V47.5078H51.1312V45.1931H49.5292V53.6804H51.9321V55.2235H53.5341V57.5382H55.9371V59.8529Z" fill="#EEEEEE"/>
<path d="M67.151 45.1932H69.554V53.6804H67.151V55.2235H64.748V57.5382H62.345V59.8529H60.743V51.3657H63.146V49.8226H64.748V47.5079H67.151V45.1932Z" fill="#EEEEEE"/>
<path d="M79.166 56.7667V54.452H70.355V56.7667H68.753V59.0814H66.35V61.3961H63.947V62.9392H72.758V60.6245H74.36V59.0814H76.763V56.7667H79.166Z" fill="#EEEEEE"/>
<path d="M79.166 71.4265V73.7412H70.355V71.4265H68.753V69.1118H66.35V66.7971H63.947V65.254H72.758V67.5687H74.36V69.1118H76.763V71.4265H79.166Z" fill="#EEEEEE"/>
<path d="M51.9321 82.9999H49.5291V74.5127H51.9321V72.9696H54.3351V70.6549H56.7381V68.3402H58.34V76.8274H55.9371V78.3705H54.3351V80.6852H51.9321V82.9999Z" fill="#EEEEEE"/>
<path d="M63.1462 68.3401H60.7432V76.8273H63.1462V78.3705H65.5492V80.6852H67.9522V82.9999H69.5542V74.5126L67.1512 74.5126V72.9695H65.5492V70.6548H63.1462V68.3401Z" fill="#EEEEEE"/>
<path d="M58.3402 65.2539V62.9392H60.7432V65.2539H58.3402Z" fill="#EEEEEE"/>
<path d="M-7 66.7121V61.7375H-4.93433V59.7476H-2.86849V57.7577H-0.802823V55.7679H1.26284V53.7781H3.32869V51.7882H5.39441V49.7984H7.46002V47.8087H9.52592V45.8188H15.7231V47.8087H17.7887V49.7984H19.8545V51.7882H21.9202V53.778H23.9859V55.768H26.0517V57.7578H28.1174V59.7476H30.183V61.7374H32.2489V66.7119H29.1503V62.7324H27.0844V60.7425H25.0188V58.7527H22.9531V56.7628H20.8873V54.773H18.8216V52.7831H16.7559V50.7935H14.6901V48.8035H10.5586V50.7934H8.49301V52.7832H6.42728V54.7729H4.36143V56.7628H2.29577V58.7527H0.230102V60.7424H-1.83574V62.7323H-3.90141V66.7121H-7Z" fill="#EEEEEE"/>
<path d="M-7 61.7375V66.7121L-4.93433 66.7119V68.7019H-2.86861V70.6917H-0.802823V72.6815H1.26284V74.6713H3.32869V76.6611H5.39441V78.6509H7.46002V80.6408H9.52581V82.6307H15.723V80.6408H17.7887V78.6509H19.8545V76.6611H21.9202V74.6714H23.9859V72.6815H26.0516V70.6916H28.1174V68.7018H30.183V66.712L32.2489 66.7119V61.7374L29.1502 61.7374V65.7171H27.0844V67.7068H25.0188V69.6967H22.953V71.6866H20.8873V73.6764H18.8216V75.6662H16.7559V77.656H14.6901V79.6459H10.5586V77.656H8.49301V75.6662H6.42728V73.6764H4.36143V71.6866H2.29577V69.6967H0.229983V67.7069H-1.83574V65.7172H-3.90141V61.7373L-7 61.7375Z" fill="#EEEEEE"/>
<path d="M10.5587 66.712V61.7375H15.723V66.712H10.5587Z" fill="#EEEEEE"/>
<path d="M133.751 71.4265V73.7412H142.562V71.4265H144.164V69.1118H146.567V66.7971H148.97V65.2539H140.159V67.5686H138.557V69.1118H136.154V71.4265H133.751Z" fill="#EEEEEE"/>
<path d="M133.751 56.7668V54.4521H142.562V56.7668H144.164V59.0815H146.567V61.3962H148.97V62.9393H140.159V60.6246H138.557V59.0815H136.154V56.7668H133.751Z" fill="#EEEEEE"/>
<path d="M149.771 59.853H152.174V51.3657H149.771V49.8226H147.368V47.5079H144.965V45.1932H143.363V53.6804H145.766V55.2236H147.368V57.5383H149.771V59.853Z" fill="#EEEEEE"/>
<path d="M160.985 45.1932H163.388V53.6805H160.985V55.2236H158.582V57.5383H156.179V59.853H154.577V51.3658H156.98V49.8226H158.582V47.5079H160.985V45.1932Z" fill="#EEEEEE"/>
<path d="M173 56.7668V54.4521H164.189V56.7668H162.587V59.0815H160.184V61.3962H157.781V62.9393H166.592V60.6246H168.194V59.0815H170.597V56.7668H173Z" fill="#EEEEEE"/>
<path d="M173 71.4265V73.7412H164.189V71.4265H162.587V69.1118H160.184V66.7971H157.781V65.254H166.592V67.5687H168.194V69.1118H170.597V71.4265H173Z" fill="#EEEEEE"/>
<path d="M145.766 83H143.363V74.5128H145.766V72.9696H148.169V70.6549H150.572V68.3402H152.174V76.8275H149.771V78.3706H148.169V80.6853H145.766V83Z" fill="#EEEEEE"/>
<path d="M156.98 68.3401H154.577V76.8274H156.98V78.3705H159.383V80.6852H161.786V82.9999H163.388V74.5127H160.985V72.9695H159.383V70.6548H156.98V68.3401Z" fill="#EEEEEE"/>
<path d="M152.174 65.2539V62.9392H154.577V65.2539H152.174Z" fill="#EEEEEE"/>
<path d="M86.834 66.712V61.7374H88.8997V59.7475H90.9655V57.7577H93.0312V55.7679H95.0969V53.778H97.1627V51.7882H99.2284V49.7984H101.294V47.8086H103.36V45.8187H109.557V47.8087H111.623V49.7983H113.688V51.7882H115.754V53.7779H117.82V55.7679H119.886V57.7577H121.951V59.7475H124.017V61.7373H126.083V66.7119H122.984V62.7323H120.918V60.7425H118.853V58.7527H116.787V56.7627H114.721V54.7729H112.656V52.7831H110.59V50.7934H108.524V48.8034H104.393V50.7934H102.327V52.7831H100.261V54.7729H98.1955V56.7628H96.1298V58.7527H94.0641V60.7424H91.9983V62.7323H89.9326V66.712H86.834Z" fill="#EEEEEE"/>
<path d="M86.834 61.7374V66.712L88.8997 66.7118V68.7017H90.9656V70.6915H93.0313V72.6813H95.0969V74.6712H97.1628V76.661H99.2284V78.6508H101.294V80.6406H103.36V82.6305H109.557V80.6406H111.623V78.6508H113.689V76.661H115.754V74.6712H117.82V72.6813H119.886V70.6915H121.951V68.7017H124.017V66.7118L126.083 66.7119V61.7373L122.984 61.7372V65.717H120.919V67.7067H118.853V69.6966H116.787V71.6865H114.721V73.6763H112.656V75.666H110.59V77.6559H108.524V79.6458H104.393V77.6559H102.327V75.6661H100.261V73.6763H98.1955V71.6864H96.1298V69.6966H94.0642V67.7068H91.9983V65.717H89.9327V61.7372L86.834 61.7374Z" fill="#EEEEEE"/>
<path d="M104.393 66.7119V61.7374H109.557V66.7119H104.393Z" fill="#EEEEEE"/>
</g>
<g opacity="0.1">
<path d="M269.834 26.2333V28.548H278.645V26.2333H280.247V23.9186H282.65V21.6039H285.053V20.0608H276.242V22.3755H274.64V23.9186H272.237V26.2333H269.834Z" fill="#EEEEEE"/>
<path d="M269.834 11.5735V9.25883H278.645V11.5735H280.247V13.8882H282.65V16.2029H285.053V17.7461H276.242V15.4314H274.64V13.8882H272.237V11.5735H269.834Z" fill="#EEEEEE"/>
<path d="M285.854 14.6598H288.257V6.17253H285.854V4.6294H283.451V2.3147H281.048V0H279.446V8.48723H281.849V10.0304H283.451V12.3451H285.854V14.6598Z" fill="#EEEEEE"/>
<path d="M297.068 7.80852e-05H299.471V8.48731H297.068V10.0304H294.665V12.3451H292.262V14.6598H290.66V6.17261H293.063V4.62948H294.665V2.31478H297.068V7.80852e-05Z" fill="#EEEEEE"/>
<path d="M309.083 11.5736V9.25887H300.272V11.5736H298.67V13.8883H296.267V16.203H293.864V17.7461H302.675V15.4314H304.277V13.8883H306.68V11.5736H309.083Z" fill="#EEEEEE"/>
<path d="M309.083 26.2334V28.5481H300.272V26.2334H298.67V23.9187H296.267V21.604H293.864V20.0609H302.675V22.3756H304.277V23.9187H306.68V26.2334H309.083Z" fill="#EEEEEE"/>
<path d="M281.849 37.8068H279.446V29.3196H281.849V27.7765H284.252V25.4618H286.655V23.1471H288.257V31.6343H285.854V33.1774H284.252V35.4921H281.849V37.8068Z" fill="#EEEEEE"/>
<path d="M293.063 23.147H290.66V31.6342H293.063V33.1774L295.466 33.1774V35.4921H297.869V37.8068H299.471V29.3195L297.068 29.3195V27.7764H295.466V25.4617H293.063V23.147Z" fill="#EEEEEE"/>
<path d="M288.257 20.0607V17.746H290.66V20.0607H288.257Z" fill="#EEEEEE"/>
<path d="M176 26.2333V28.548H184.811V26.2333H186.413V23.9186H188.816V21.6039H191.219V20.0608H182.408V22.3755H180.806V23.9186H178.403V26.2333H176Z" fill="#EEEEEE"/>
<path d="M176 11.5736V9.25887H184.811V11.5736H186.413V13.8883H188.816V16.203H191.219V17.7461H182.408V15.4314H180.806V13.8883H178.403V11.5736H176Z" fill="#EEEEEE"/>
<path d="M192.02 14.6598H194.423V6.17261H192.02V4.62948H189.617V2.31478H187.214V7.91549e-05H185.612V8.48731H188.015V10.0304H189.617V12.3451H192.02V14.6598Z" fill="#EEEEEE"/>
<path d="M203.234 7.80852e-05H205.637V8.48731H203.234V10.0304H200.831V12.3451H198.428V14.6598H196.826V6.17261H199.229V4.62948H200.831V2.31478H203.234V7.80852e-05Z" fill="#EEEEEE"/>
<path d="M215.249 11.5736V9.25887H206.438V11.5736H204.836V13.8883H202.433V16.203H200.03V17.7461H208.841V15.4314H210.443V13.8883H212.846V11.5736H215.249Z" fill="#EEEEEE"/>
<path d="M215.249 26.2333V28.548H206.438V26.2333H204.836V23.9186H202.433V21.6039H200.03V20.0608H208.841V22.3755H210.443V23.9186H212.846V26.2333H215.249Z" fill="#EEEEEE"/>
<path d="M188.015 37.8068H185.612L185.612 29.3196H188.015V27.7765H190.418V25.4618H192.821V23.1471H194.423V31.6343H192.02V33.1774H190.418V35.4921H188.015V37.8068Z" fill="#EEEEEE"/>
<path d="M199.229 23.147H196.826L196.826 31.6342H199.229V33.1774L201.632 33.1774V35.4921H204.035V37.8068H205.637V29.3195L203.234 29.3195V27.7764H201.632V25.4617H199.229V23.147Z" fill="#EEEEEE"/>
<path d="M194.423 20.0607V17.746H196.826V20.0607H194.423Z" fill="#EEEEEE"/>
<path d="M222.917 21.5188V16.5443H224.983V14.5544H227.049V12.5645H229.114V10.5747H231.18V8.58485H233.246V6.59497H235.311V4.60522H237.377V2.6155H239.443V0.625545H245.64V2.6155H247.706V4.60518H249.772V6.59501H251.837V8.58481H253.903V10.5748H255.969V12.5646H258.034V14.5544H260.1V16.5441H262.166V21.5187H259.067V17.5391H257.002V15.5493H254.936V13.5595H252.87V11.5696H250.804V9.57976H248.739V7.58992H246.673V5.60024H244.607V3.61029H240.476V5.60024H238.41V7.58996H236.344V9.57972H234.279V11.5696H232.213V13.5595H230.147V15.5493H228.081V17.5391H226.016V21.5188H222.917Z" fill="#EEEEEE"/>
<path d="M222.917 16.5443V21.5188L224.983 21.5186V23.5086H227.048V25.4984H229.114V27.4882H231.18V29.478H233.246V31.4678H235.311V33.4576H237.377V35.4475H239.443V37.4374H245.64V35.4475H247.706V33.4576H249.772V31.4678H251.837V29.4781H253.903V27.4882H255.969V25.4983H258.034V23.5086H260.1V21.5187L262.166 21.5187V16.5441L259.067 16.5441V20.5238H257.002V22.5136H254.936V24.5034H252.87V26.4933H250.804V28.4831H248.739V30.4729H246.673V32.4628H244.607V34.4526H240.476V32.4627H238.41V30.4729H236.344V28.4831H234.279V26.4933H232.213V24.5034H230.147V22.5136H228.081V20.5239H226.016V16.5441L222.917 16.5443Z" fill="#EEEEEE"/>
<path d="M240.476 21.5188V16.5442H245.64V21.5188H240.476Z" fill="#EEEEEE"/>
<path d="M316.751 21.5189V16.5443H318.816V14.5544H320.882V12.5646H322.948V10.5749H325.014V8.58494H327.079V6.5951H329.145V4.6053H331.211V2.61555H333.276V0.625674H339.474V2.61559H341.539V4.60527H343.605V6.5951H345.671V8.5849H347.737V10.5749H349.802V12.5647H351.868V14.5544H353.934V16.5443H356V21.5188H352.901V17.5392H350.835V15.5494H348.77V13.5596H346.704V11.5696H344.638V9.57985H342.572V7.59001H340.507V5.60033H338.441V3.61042H334.309V5.60029H332.244V7.59005H330.178V9.57985H328.112V11.5697H326.047V13.5596H323.981V15.5494H321.915V17.5392H319.849V21.5189H316.751Z" fill="#EEEEEE"/>
<path d="M316.751 16.5443V21.5189L318.817 21.5188V23.5087H320.882V25.4985H322.948V27.4883H325.014V29.4781H327.08V31.468H329.145V33.4578H331.211V35.4476H333.277V37.4375H339.474V35.4476H341.54V33.4577H343.606V31.468H345.671V29.4782H347.737V27.4883H349.803V25.4985H351.868V23.5087H353.934V21.5188L356 21.5188V16.5443L352.901 16.5442V20.5239H350.835V22.5137H348.77V24.5036H346.704V26.4935H344.638V28.4832H342.573V30.473H340.507V32.4629H338.441V34.4528H334.31V32.4629H332.244V30.473H330.178V28.4832H328.112V26.4934H326.047V24.5036H323.981V22.5138H321.915V20.5239H319.85V16.5442L316.751 16.5443Z" fill="#EEEEEE"/>
<path d="M334.31 21.5189V16.5443H339.474V21.5189H334.31Z" fill="#EEEEEE"/>
<path d="M222.917 71.4265V73.7412H231.728V71.4265H233.33V69.1118H235.733V66.7971H238.136V65.2539H229.325V67.5686H227.723V69.1118H225.32V71.4265H222.917Z" fill="#EEEEEE"/>
<path d="M222.917 56.7666V54.4519H231.728V56.7666H233.33V59.0813H235.733V61.396H238.136V62.9392H229.325V60.6245H227.723V59.0813H225.32V56.7666H222.917Z" fill="#EEEEEE"/>
<path d="M238.937 59.8529H241.34V51.3657H238.937V49.8225H236.534V47.5078H234.131V45.1931H232.529V53.6804H234.932V55.2235H236.534V57.5382H238.937V59.8529Z" fill="#EEEEEE"/>
<path d="M250.151 45.1932H252.554V53.6804H250.151V55.2235H247.748V57.5382H245.345V59.8529H243.743V51.3657H246.146V49.8226H247.748V47.5079H250.151V45.1932Z" fill="#EEEEEE"/>
<path d="M262.166 56.7667V54.452H253.355V56.7667H251.753V59.0814H249.35V61.3961H246.947V62.9392H255.758V60.6245H257.36V59.0814H259.763V56.7667H262.166Z" fill="#EEEEEE"/>
<path d="M262.166 71.4265V73.7412H253.355V71.4265H251.753V69.1118H249.35V66.7971H246.947V65.254H255.758V67.5687H257.36V69.1118H259.763V71.4265H262.166Z" fill="#EEEEEE"/>
<path d="M234.932 82.9999H232.529V74.5127H234.932V72.9696H237.335V70.6549H239.738V68.3402H241.34V76.8274H238.937V78.3705H237.335V80.6852H234.932V82.9999Z" fill="#EEEEEE"/>
<path d="M246.146 68.3401H243.743V76.8273H246.146V78.3705H248.549V80.6852H250.952V82.9999H252.554V74.5126L250.151 74.5126V72.9695H248.549V70.6548H246.146V68.3401Z" fill="#EEEEEE"/>
<path d="M241.34 65.2539V62.9392H243.743V65.2539H241.34Z" fill="#EEEEEE"/>
<path d="M176 66.7121V61.7375H178.066V59.7476H180.132V57.7577H182.197V55.7679H184.263V53.7781H186.329V51.7882H188.394V49.7984H190.46V47.8087H192.526V45.8188H198.723V47.8087H200.789V49.7984H202.855V51.7882H204.92V53.778H206.986V55.768H209.052V57.7578H211.117V59.7476H213.183V61.7374H215.249V66.7119H212.15V62.7324H210.084V60.7425H208.019V58.7527H205.953V56.7628H203.887V54.773H201.822V52.7831H199.756V50.7935H197.69V48.8035H193.559V50.7934H191.493V52.7832H189.427V54.7729H187.361V56.7628H185.296V58.7527H183.23V60.7424H181.164V62.7323H179.099V66.7121H176Z" fill="#EEEEEE"/>
<path d="M176 61.7375V66.7121L178.066 66.7119V68.7019H180.131V70.6917H182.197V72.6815H184.263V74.6713H186.329V76.6611H188.394V78.6509H190.46V80.6408H192.526V82.6307H198.723V80.6408H200.789V78.6509H202.855V76.6611H204.92V74.6714H206.986V72.6815H209.052V70.6916H211.117V68.7018H213.183V66.712L215.249 66.7119V61.7374L212.15 61.7374V65.7171H210.084V67.7068H208.019V69.6967H205.953V71.6866H203.887V73.6764H201.822V75.6662H199.756V77.656H197.69V79.6459H193.559V77.656H191.493V75.6662H189.427V73.6764H187.361V71.6866H185.296V69.6967H183.23V67.7069H181.164V65.7172H179.099V61.7373L176 61.7375Z" fill="#EEEEEE"/>
<path d="M193.559 66.712V61.7375H198.723V66.712H193.559Z" fill="#EEEEEE"/>
<path d="M316.751 71.4265V73.7412H325.562V71.4265H327.164V69.1118H329.567V66.7971H331.97V65.2539H323.159V67.5686H321.557V69.1118H319.154V71.4265H316.751Z" fill="#EEEEEE"/>
<path d="M316.751 56.7668V54.4521H325.562V56.7668H327.164V59.0815H329.567V61.3962H331.97V62.9393H323.159V60.6246H321.557V59.0815H319.154V56.7668H316.751Z" fill="#EEEEEE"/>
<path d="M332.771 59.853H335.174V51.3657H332.771V49.8226H330.368V47.5079H327.965V45.1932H326.363V53.6804H328.766V55.2236H330.368V57.5383H332.771V59.853Z" fill="#EEEEEE"/>
<path d="M343.985 45.1932H346.388V53.6805H343.985V55.2236H341.582V57.5383H339.179V59.853H337.577V51.3658H339.98V49.8226H341.582V47.5079H343.985V45.1932Z" fill="#EEEEEE"/>
<path d="M356 56.7668V54.4521H347.189V56.7668H345.587V59.0815H343.184V61.3962H340.781V62.9393H349.592V60.6246H351.194V59.0815H353.597V56.7668H356Z" fill="#EEEEEE"/>
<path d="M356 71.4265V73.7412H347.189V71.4265H345.587V69.1118H343.184V66.7971H340.781V65.254H349.592V67.5687H351.194V69.1118H353.597V71.4265H356Z" fill="#EEEEEE"/>
<path d="M328.766 83H326.363V74.5128H328.766V72.9696H331.169V70.6549H333.572V68.3402H335.174V76.8275H332.771V78.3706H331.169V80.6853H328.766V83Z" fill="#EEEEEE"/>
<path d="M339.98 68.3401H337.577V76.8274H339.98V78.3705H342.383V80.6852H344.786V82.9999H346.388V74.5127H343.985V72.9695H342.383V70.6548H339.98V68.3401Z" fill="#EEEEEE"/>
<path d="M335.174 65.2539V62.9392H337.577V65.2539H335.174Z" fill="#EEEEEE"/>
<path d="M269.834 66.712V61.7374H271.9V59.7475H273.965V57.7577H276.031V55.7679H278.097V53.778H280.163V51.7882H282.228V49.7984H284.294V47.8086H286.36V45.8187H292.557V47.8087H294.623V49.7983H296.688V51.7882H298.754V53.7779H300.82V55.7679H302.886V57.7577H304.951V59.7475H307.017V61.7373H309.083V66.7119H305.984V62.7323H303.918V60.7425H301.853V58.7527H299.787V56.7627H297.721V54.7729H295.656V52.7831H293.59V50.7934H291.524V48.8034H287.393V50.7934H285.327V52.7831H283.261V54.7729H281.195V56.7628H279.13V58.7527H277.064V60.7424H274.998V62.7323H272.933V66.712H269.834Z" fill="#EEEEEE"/>
<path d="M269.834 61.7374V66.712L271.9 66.7118V68.7017H273.966V70.6915H276.031V72.6813H278.097V74.6712H280.163V76.661H282.228V78.6508H284.294V80.6406H286.36V82.6305H292.557V80.6406H294.623V78.6508H296.689V76.661H298.754V74.6712H300.82V72.6813H302.886V70.6915H304.951V68.7017H307.017V66.7118L309.083 66.7119V61.7373L305.984 61.7372V65.717H303.919V67.7067H301.853V69.6966H299.787V71.6865H297.721V73.6763H295.656V75.666H293.59V77.6559H291.524V79.6458H287.393V77.6559H285.327V75.6661H283.261V73.6763H281.196V71.6864H279.13V69.6966H277.064V67.7068H274.998V65.717H272.933V61.7372L269.834 61.7374Z" fill="#EEEEEE"/>
<path d="M287.393 66.7119V61.7374H292.557V66.7119H287.393Z" fill="#EEEEEE"/>
</g>
</svg>
