<svg width="242" height="310" viewBox="0 0 242 310" fill="none" xmlns="http://www.w3.org/2000/svg">
<path d="M30.6197 138.736C36.9217 138.736 41.8897 136.436 45.0637 132.296L38.2097 126.178C36.3237 128.57 34.0697 129.95 31.1717 129.95C26.6637 129.95 23.6277 126.822 23.6277 121.9C23.6277 116.978 26.6637 113.85 31.1717 113.85C34.0697 113.85 36.3237 115.23 38.2097 117.622L45.0637 111.504C41.8897 107.364 36.9217 105.064 30.6197 105.064C20.2697 105.064 12.6797 112.01 12.6797 121.9C12.6797 131.79 20.2697 138.736 30.6197 138.736ZM125.83 138L125.738 105.8H116.814L106.602 122.958L96.1144 105.8H87.1904V138H97.0804V123.832L104.072 135.102H108.856L115.848 123.326L115.94 138H125.83ZM131.079 138H141.935V105.8H131.079V138ZM168.321 105.8V120.428L156.085 105.8H147.161V138H157.741V123.372L169.977 138H178.901V105.8H168.321ZM205.43 129.168C204.096 129.72 202.808 129.95 201.474 129.95C196.828 129.95 193.792 126.73 193.792 121.9C193.792 116.932 196.828 113.85 201.612 113.85C204.464 113.85 206.81 115.046 208.834 117.392L215.78 111.274C212.514 107.272 207.408 105.064 201.06 105.064C190.434 105.064 182.844 112.01 182.844 121.9C182.844 131.79 190.434 138.736 200.83 138.736C205.568 138.736 210.95 137.31 214.86 134.642V121.026H205.43V129.168ZM63.0343 194.736C73.0163 194.736 78.0303 189.768 78.0303 183.88C78.0303 172.012 60.2282 175.232 60.2282 171.368C60.2282 170.264 61.2403 169.344 64.4143 169.344C67.2203 169.344 70.2103 170.126 73.3843 171.736L76.6503 163.87C73.2923 161.984 68.8303 161.064 64.5063 161.064C54.5243 161.064 49.5103 165.94 49.5103 171.92C49.5103 183.926 67.3123 180.66 67.3123 184.708C67.3123 185.812 66.2083 186.456 63.1263 186.456C59.5843 186.456 55.5363 185.306 52.5003 183.512L49.0043 191.424C52.2243 193.402 57.6523 194.736 63.0343 194.736ZM180.405 161.8V176.428L168.169 161.8H159.245V194H169.825V179.372L182.061 194H190.985V161.8H180.405Z" fill="white"/>
<path d="M65.0802 138.736C75.5682 138.736 83.2502 131.652 83.2502 121.9C83.2502 112.148 75.5682 105.064 65.0802 105.064C54.5922 105.064 46.9102 112.148 46.9102 121.9C46.9102 131.652 54.5922 138.736 65.0802 138.736ZM65.0802 129.95C61.0782 129.95 57.8582 126.914 57.8582 121.9C57.8582 116.886 61.0782 113.85 65.0802 113.85C69.0822 113.85 72.3022 116.886 72.3022 121.9C72.3022 126.914 69.0822 129.95 65.0802 129.95Z" fill="#E62C20"/>
<path d="M98.1427 194.736C108.631 194.736 116.313 187.652 116.313 177.9C116.313 168.148 108.631 161.064 98.1427 161.064C87.6547 161.064 79.9727 168.148 79.9727 177.9C79.9727 187.652 87.6547 194.736 98.1427 194.736ZM98.1427 185.95C94.1407 185.95 90.9207 182.914 90.9207 177.9C90.9207 172.886 94.1407 169.85 98.1427 169.85C102.145 169.85 105.365 172.886 105.365 177.9C105.365 182.914 102.145 185.95 98.1427 185.95Z" fill="#4A8068"/>
<path d="M137.135 194.736C147.623 194.736 155.305 187.652 155.305 177.9C155.305 168.148 147.623 161.064 137.135 161.064C126.647 161.064 118.965 168.148 118.965 177.9C118.965 187.652 126.647 194.736 137.135 194.736ZM137.135 185.95C133.133 185.95 129.913 182.914 129.913 177.9C129.913 172.886 133.133 169.85 137.135 169.85C141.137 169.85 144.357 172.886 144.357 177.9C144.357 182.914 141.137 185.95 137.135 185.95Z" fill="#9C4A9A"/>
<path d="M0 49.2567L0 53.6028H15.7059V49.2567H18.5615V44.9105H22.8449V40.5644H27.1283V37.667H11.4225L11.4225 42.0131H8.56684V44.9105H4.28342L4.28342 49.2567H0Z" fill="#4A8068"/>
<path d="M0 21.7309L0 17.3848H15.7059V21.7309H18.5615V26.077H22.8449V30.4231H27.1283V33.3205H11.4225L11.4225 28.9744H8.56684V26.077H4.28342L4.28342 21.7309H0Z" fill="#4A8068"/>
<path d="M28.5564 27.5256L32.8398 27.5256L32.8398 11.5899L28.5564 11.5899L28.5564 8.69246L24.273 8.69246L24.273 4.34634L19.9896 4.34634L19.9896 0.00022713L17.134 0.000227165L17.134 15.936L21.4174 15.936L21.4174 18.8334L24.273 18.8334L24.273 23.1795L28.5564 23.1795L28.5564 27.5256Z" fill="#4A8068"/>
<path d="M48.5457 0.000244089L52.8291 0.000244141L52.8291 15.936L48.5457 15.936L48.5457 18.8334L44.2623 18.8334L44.2623 23.1795L39.9788 23.1795L39.9788 27.5257L37.1232 27.5257L37.1232 11.5899L41.4066 11.5899L41.4066 8.69248L44.2623 8.69248L44.2623 4.34636L48.5457 4.34636L48.5457 0.000244089Z" fill="#4A8068"/>
<path d="M69.9629 21.7309V17.3848L54.257 17.3848V21.7309L51.4014 21.7309V26.077L47.118 26.077V30.4231H42.8346V33.3205H58.5404V28.9744H61.3961V26.077H65.6795V21.7309H69.9629Z" fill="#4A8068"/>
<path d="M69.9629 49.2567V53.6028H54.257V49.2567H51.4014V44.9105H47.118V40.5644H42.8346V37.667H58.5404V42.0131H61.3961V44.9105H65.6795V49.2567H69.9629Z" fill="#4A8068"/>
<path d="M21.4172 70.9868L17.1338 70.9868L17.1338 55.0511L21.4172 55.0511L21.4172 52.1536L25.7006 52.1536L25.7006 47.8075L29.984 47.8075L29.984 43.4614L32.8397 43.4614L32.8397 59.3972L28.5562 59.3972L28.5562 62.2946L25.7006 62.2946L25.7006 66.6407L21.4172 66.6407L21.4172 70.9868Z" fill="#4A8068"/>
<path d="M41.4065 43.4614L37.123 43.4614L37.123 59.3972L41.4065 59.3972L41.4065 62.2946L45.6899 62.2946L45.6899 66.6407L49.9733 66.6407L49.9733 70.9868L52.8289 70.9868L52.8289 55.0511L48.5455 55.0511L48.5455 52.1537L45.6899 52.1537L45.6899 47.8075L41.4065 47.8075L41.4065 43.4614Z" fill="#4A8068"/>
<rect x="32.8398" y="37.6658" width="4.34612" height="4.28342" transform="rotate(-90 32.8398 37.6658)" fill="#DF3727"/>
<path d="M171.327 287.475V291.821H187.033V287.475H189.889V283.129H194.172V278.783H198.455V275.885H182.75V280.231H179.894V283.129H175.611V287.475H171.327Z" fill="#4A8068"/>
<path d="M171.327 259.949V255.603H187.033V259.949H189.889V264.295H194.172V268.641H198.455V271.539H182.75V267.193H179.894V264.295H175.611V259.949H171.327Z" fill="#4A8068"/>
<path d="M199.884 265.744L204.167 265.744L204.167 249.808L199.884 249.808L199.884 246.911L195.6 246.911L195.6 242.565L191.317 242.565L191.317 238.218L188.461 238.218L188.461 254.154L192.745 254.154L192.745 257.052L195.6 257.052L195.6 261.398L199.884 261.398L199.884 265.744Z" fill="#4A8068"/>
<path d="M219.873 238.219L224.156 238.219L224.156 254.154L219.873 254.154L219.873 257.052L215.589 257.052L215.589 261.398L211.306 261.398L211.306 265.744L208.45 265.744L208.45 249.808L212.734 249.808L212.734 246.911L215.589 246.911L215.589 242.565L219.873 242.565L219.873 238.219Z" fill="#4A8068"/>
<path d="M241.29 259.949V255.603H225.584V259.949H222.729V264.295H218.445V268.641H214.162V271.539H229.868V267.193H232.723V264.295H237.007V259.949H241.29Z" fill="#4A8068"/>
<path d="M241.29 287.475V291.821H225.584V287.475H222.729V283.129H218.445V278.783H214.162V275.885H229.868V280.231H232.723V283.129H237.007V287.475H241.29Z" fill="#4A8068"/>
<path d="M192.744 309.205L188.461 309.205L188.461 293.269L192.744 293.269L192.744 290.372L197.028 290.372L197.028 286.026L201.311 286.026L201.311 281.68L204.167 281.68L204.167 297.615L199.883 297.615L199.883 300.513L197.028 300.513L197.028 304.859L192.744 304.859L192.744 309.205Z" fill="#4A8068"/>
<path d="M212.734 281.68L208.45 281.68L208.45 297.615L212.734 297.615L212.734 300.513L217.017 300.513L217.017 304.859L221.3 304.859L221.3 309.205L224.156 309.205L224.156 293.269L219.873 293.269L219.873 290.372L217.017 290.372L217.017 286.026L212.734 286.026L212.734 281.68Z" fill="#4A8068"/>
<rect x="204.167" y="275.884" width="4.34612" height="4.28342" transform="rotate(-90 204.167 275.884)" fill="#DF3727"/>
<path d="M85.8262 49.2567V53.6028H101.532V49.2567H104.388V44.9105H108.671V40.5644H112.954V37.667H97.2486V42.0131H94.393V44.9105H90.1096V49.2567H85.8262Z" fill="#F69722"/>
<path d="M85.8262 21.7309V17.3848H101.532V21.7309H104.388V26.077H108.671V30.4231H112.954V33.3205H97.2486V28.9744H94.393V26.077H90.1096V21.7309H85.8262Z" fill="#F69722"/>
<path d="M114.383 27.5256L118.666 27.5256L118.666 11.5899L114.383 11.5899L114.383 8.69246L110.099 8.69246L110.099 4.34634L105.816 4.34634L105.816 0.00022713L102.96 0.000227165L102.96 15.936L107.244 15.936L107.244 18.8334L110.099 18.8334L110.099 23.1795L114.383 23.1795L114.383 27.5256Z" fill="#F69722"/>
<path d="M134.372 0.000244089L138.655 0.000244141L138.655 15.936L134.372 15.936L134.372 18.8334L130.088 18.8334L130.088 23.1795L125.805 23.1795L125.805 27.5257L122.949 27.5257L122.949 11.5899L127.233 11.5899L127.233 8.69248L130.088 8.69248L130.088 4.34636L134.372 4.34636L134.372 0.000244089Z" fill="#F69722"/>
<path d="M155.789 21.7309V17.3848L140.083 17.3848V21.7309L137.228 21.7309V26.077L132.944 26.077V30.4231H128.661V33.3205H144.367V28.9744H147.222V26.077H151.506V21.7309H155.789Z" fill="#F69722"/>
<path d="M155.789 49.2567V53.6028H140.083V49.2567H137.228V44.9105H132.944V40.5644H128.661V37.667H144.367V42.0131H147.222V44.9105H151.506V49.2567H155.789Z" fill="#F69722"/>
<path d="M107.243 70.9868L102.96 70.9868L102.96 55.0511L107.243 55.0511L107.243 52.1536L111.527 52.1536L111.527 47.8075L115.81 47.8075L115.81 43.4614L118.666 43.4614L118.666 59.3972L114.382 59.3972L114.382 62.2946L111.527 62.2946L111.527 66.6407L107.243 66.6407L107.243 70.9868Z" fill="#F69722"/>
<path d="M127.233 43.4614L122.949 43.4614L122.949 59.3972L127.233 59.3972L127.233 62.2946L131.516 62.2946L131.516 66.6407L135.799 66.6407L135.799 70.9868L138.655 70.9868L138.655 55.0511L134.372 55.0511L134.372 52.1537L131.516 52.1537L131.516 47.8075L127.233 47.8075L127.233 43.4614Z" fill="#F69722"/>
<rect x="118.666" y="37.6658" width="4.34612" height="4.28342" transform="rotate(-90 118.666 37.6658)" fill="#4A8068"/>
<path d="M171.652 49.2567V53.6028H187.358V49.2567H190.214V44.9105H194.497V40.5644H198.781V37.667H183.075V42.0131H180.219V44.9105H175.936V49.2567H171.652Z" fill="#E62C20"/>
<path d="M171.652 21.7309V17.3848H187.358V21.7309H190.214V26.077H194.497V30.4231H198.781V33.3205H183.075V28.9744H180.219V26.077H175.936V21.7309H171.652Z" fill="#E62C20"/>
<path d="M200.209 27.5256L204.492 27.5256L204.492 11.5899L200.209 11.5899L200.209 8.69246L195.925 8.69246L195.925 4.34634L191.642 4.34634L191.642 0.00022713L188.786 0.000227165L188.786 15.936L193.07 15.936L193.07 18.8334L195.925 18.8334L195.925 23.1795L200.209 23.1795L200.209 27.5256Z" fill="#E62C20"/>
<path d="M220.198 0.000244089L224.481 0.000244141L224.481 15.936L220.198 15.936L220.198 18.8334L215.915 18.8334L215.915 23.1795L211.631 23.1795L211.631 27.5257L208.776 27.5257L208.776 11.5899L213.059 11.5899L213.059 8.69248L215.915 8.69248L215.915 4.34636L220.198 4.34636L220.198 0.000244089Z" fill="#E62C20"/>
<path d="M241.615 21.7309V17.3848L225.909 17.3848V21.7309L223.054 21.7309V26.077L218.77 26.077V30.4231H214.487V33.3205H230.193V28.9744H233.048V26.077H237.332V21.7309H241.615Z" fill="#E62C20"/>
<path d="M241.615 49.2567V53.6028H225.909V49.2567H223.054V44.9105H218.77V40.5644H214.487V37.667H230.193V42.0131H233.048V44.9105H237.332V49.2567H241.615Z" fill="#E62C20"/>
<path d="M193.07 70.9868L188.786 70.9868L188.786 55.0511L193.07 55.0511L193.07 52.1536L197.353 52.1536L197.353 47.8075L201.636 47.8075L201.636 43.4614L204.492 43.4614L204.492 59.3972L200.209 59.3972L200.209 62.2946L197.353 62.2946L197.353 66.6407L193.07 66.6407L193.07 70.9868Z" fill="#E62C20"/>
<path d="M213.059 43.4614L208.775 43.4614L208.775 59.3972L213.059 59.3972L213.059 62.2946L217.342 62.2946L217.342 66.6407L221.626 66.6407L221.626 70.9868L224.481 70.9868L224.481 55.0511L220.198 55.0511L220.198 52.1537L217.342 52.1537L217.342 47.8075L213.059 47.8075L213.059 43.4614Z" fill="#E62C20"/>
<rect x="204.492" y="37.6658" width="4.34612" height="4.28342" transform="rotate(-90 204.492 37.6658)" fill="#F69722"/>
<path d="M0 284.091L0 288.437H15.7059V284.091H18.5615V279.745H22.8449V275.399H27.1283V272.501H11.4225L11.4225 276.847H8.56684V279.745H4.28342L4.28342 284.091H0Z" fill="#9C4A9A"/>
<path d="M0 256.565L0 252.219H15.7059V256.565H18.5615V260.911H22.8449V265.257H27.1283V268.155H11.4225L11.4225 263.809H8.56684V260.911H4.28342L4.28342 256.565H0Z" fill="#9C4A9A"/>
<path d="M28.5564 262.36L32.8398 262.36L32.8398 246.424L28.5564 246.424L28.5564 243.527L24.273 243.527L24.273 239.181L19.9896 239.181L19.9896 234.834L17.134 234.834L17.134 250.77L21.4174 250.77L21.4174 253.668L24.273 253.668L24.273 258.014L28.5564 258.014L28.5564 262.36Z" fill="#9C4A9A"/>
<path d="M48.5457 234.834L52.8291 234.834L52.8291 250.77L48.5457 250.77L48.5457 253.667L44.2623 253.667L44.2623 258.014L39.9788 258.014L39.9788 262.36L37.1232 262.36L37.1232 246.424L41.4066 246.424L41.4066 243.526L44.2623 243.526L44.2623 239.18L48.5457 239.18L48.5457 234.834Z" fill="#9C4A9A"/>
<path d="M69.9629 256.565V252.219H54.257V256.565H51.4014V260.911H47.118V265.257H42.8346V268.155H58.5404V263.809H61.3961V260.911H65.6795V256.565H69.9629Z" fill="#9C4A9A"/>
<path d="M69.9629 284.091V288.437H54.257V284.091H51.4014V279.745H47.118V275.399H42.8346V272.501H58.5404V276.847H61.3961V279.745H65.6795V284.091H69.9629Z" fill="#9C4A9A"/>
<path d="M21.4172 305.821L17.1338 305.821L17.1338 289.885L21.4172 289.885L21.4172 286.988L25.7006 286.988L25.7006 282.642L29.984 282.642L29.984 278.295L32.8397 278.295L32.8397 294.231L28.5562 294.231L28.5562 297.129L25.7006 297.129L25.7006 301.475L21.4172 301.475L21.4172 305.821Z" fill="#9C4A9A"/>
<path d="M41.4065 278.295L37.123 278.295L37.123 294.231L41.4065 294.231L41.4065 297.129L45.6899 297.129L45.6899 301.475L49.9733 301.475L49.9733 305.821L52.8289 305.821L52.8289 289.885L48.5455 289.885L48.5455 286.988L45.6899 286.988L45.6899 282.642L41.4065 282.642L41.4065 278.295Z" fill="#9C4A9A"/>
<rect x="32.8398" y="272.5" width="4.34612" height="4.28342" transform="rotate(-90 32.8398 272.5)" fill="#DF3727"/>
<path d="M85.6631 284.091V288.437H101.369V284.091H104.225V279.745H108.508V275.398H112.791V272.501H97.0855V276.847H94.2299V279.745H89.9465V284.091H85.6631Z" fill="#F69722"/>
<path d="M85.6631 256.565V252.219H101.369V256.565H104.225V260.911H108.508V265.257H112.791V268.155H97.0855V263.808H94.2299V260.911H89.9465V256.565H85.6631Z" fill="#F69722"/>
<path d="M114.22 262.36L118.503 262.36L118.503 246.424L114.22 246.424L114.22 243.526L109.936 243.526L109.936 239.18L105.653 239.18L105.653 234.834L102.797 234.834L102.797 250.77L107.08 250.77L107.08 253.667L109.936 253.667L109.936 258.014L114.22 258.014L114.22 262.36Z" fill="#F69722"/>
<path d="M134.209 234.834L138.492 234.834L138.492 250.77L134.209 250.77L134.209 253.667L129.925 253.667L129.925 258.014L125.642 258.014L125.642 262.36L122.786 262.36L122.786 246.424L127.07 246.424L127.07 243.526L129.925 243.526L129.925 239.18L134.209 239.18L134.209 234.834Z" fill="#F69722"/>
<path d="M155.626 256.565V252.219H139.92V256.565H137.064V260.911H132.781V265.257H128.498V268.155H144.204V263.808H147.059V260.911H151.343V256.565H155.626Z" fill="#F69722"/>
<path d="M155.626 284.091V288.437H139.92V284.091H137.064V279.745H132.781V275.398H128.498V272.501H144.204V276.847H147.059V279.745H151.343V284.091H155.626Z" fill="#F69722"/>
<path d="M107.08 305.821L102.797 305.821L102.797 289.885L107.08 289.885L107.08 286.988L111.364 286.988L111.364 282.642L115.647 282.642L115.647 278.295L118.503 278.295L118.503 294.231L114.219 294.231L114.219 297.129L111.364 297.129L111.364 301.475L107.08 301.475L107.08 305.821Z" fill="#F69722"/>
<path d="M127.07 278.295L122.786 278.295L122.786 294.231L127.07 294.231L127.07 297.129L131.353 297.129L131.353 301.475L135.636 301.475L135.636 305.821L138.492 305.821L138.492 289.885L134.209 289.885L134.209 286.988L131.353 286.988L131.353 282.642L127.07 282.642L127.07 278.295Z" fill="#F69722"/>
<rect x="118.503" y="272.5" width="4.34612" height="4.28342" transform="rotate(-90 118.503 272.5)" fill="#4A8068"/>
</svg>
