 <svg width="367" height="83" viewBox="0 0 367 83" fill="none" xmlns="http://www.w3.org/2000/svg">
<g opacity="0.1">
<path d="M273.594 26.2333V28.548H282.206V26.2333H283.772V23.9186H286.121V21.6039H288.47V20.0608H279.857V22.3755H278.292V23.9186H275.943V26.2333H273.594Z" fill="#EEEEEE"/>
<path d="M273.594 11.5735V9.25883H282.206V11.5735H283.772V13.8882H286.121V16.2029H288.47V17.7461H279.857V15.4314H278.292V13.8882H275.943V11.5735H273.594Z" fill="#EEEEEE"/>
<path d="M289.253 14.6598H291.602V6.17253H289.253V4.6294H286.904V2.3147H284.555V0H282.989V8.48723H285.338V10.0304H286.904V12.3451H289.253V14.6598Z" fill="#EEEEEE"/>
<path d="M300.214 7.80852e-05H302.563V8.48731H300.214V10.0304H297.865V12.3451H295.516V14.6598H293.95V6.17261H296.299V4.62948H297.865V2.31478H300.214V7.80852e-05Z" fill="#EEEEEE"/>
<path d="M311.958 11.5736V9.25887H303.346V11.5736H301.78V13.8883H299.431V16.203H297.082V17.7461H305.695V15.4314H307.26V13.8883H309.609V11.5736H311.958Z" fill="#EEEEEE"/>
<path d="M311.958 26.2334V28.5481H303.346V26.2334H301.78V23.9187H299.431V21.604H297.082V20.0609H305.695V22.3756H307.26V23.9187H309.609V26.2334H311.958Z" fill="#EEEEEE"/>
<path d="M285.338 37.8068H282.989V29.3196H285.338V27.7765H287.687V25.4618H290.036V23.1471H291.602V31.6343H289.253V33.1774H287.687V35.4921H285.338V37.8068Z" fill="#EEEEEE"/>
<path d="M296.299 23.147H293.951V31.6342H296.299V33.1774L298.648 33.1774V35.4921H300.997V37.8068H302.563V29.3195L300.214 29.3195V27.7764H298.648V25.4617H296.299V23.147Z" fill="#EEEEEE"/>
<path d="M291.602 20.0607V17.746H293.951V20.0607H291.602Z" fill="#EEEEEE"/>
<path d="M181.875 26.2333V28.548H190.487V26.2333H192.053V23.9186H194.402V21.6039H196.751V20.0608H188.139V22.3755H186.573V23.9186H184.224V26.2333H181.875Z" fill="#EEEEEE"/>
<path d="M181.875 11.5736V9.25887H190.487V11.5736H192.053V13.8883H194.402V16.203H196.751V17.7461H188.139V15.4314H186.573V13.8883H184.224V11.5736H181.875Z" fill="#EEEEEE"/>
<path d="M197.534 14.6598H199.883V6.17261H197.534V4.62948H195.185V2.31478H192.836V7.91549e-05H191.27V8.48731H193.619V10.0304H195.185V12.3451H197.534V14.6598Z" fill="#EEEEEE"/>
<path d="M208.495 7.80852e-05H210.844V8.48731H208.495V10.0304H206.146V12.3451H203.797V14.6598H202.231V6.17261H204.58V4.62948H206.146V2.31478H208.495V7.80852e-05Z" fill="#EEEEEE"/>
<path d="M220.239 11.5736V9.25887H211.627V11.5736H210.061V13.8883H207.712V16.203H205.363V17.7461H213.976V15.4314H215.541V13.8883H217.89V11.5736H220.239Z" fill="#EEEEEE"/>
<path d="M220.239 26.2333V28.548H211.627V26.2333H210.061V23.9186H207.712V21.6039H205.363V20.0608H213.976V22.3755H215.541V23.9186H217.89V26.2333H220.239Z" fill="#EEEEEE"/>
<path d="M193.619 37.8068H191.27L191.27 29.3196H193.619V27.7765H195.968V25.4618H198.317V23.1471H199.883V31.6343H197.534V33.1774H195.968V35.4921H193.619V37.8068Z" fill="#EEEEEE"/>
<path d="M204.58 23.147H202.231L202.231 31.6342H204.58V33.1774L206.929 33.1774V35.4921H209.278V37.8068H210.844V29.3195L208.495 29.3195V27.7764H206.929V25.4617H204.58V23.147Z" fill="#EEEEEE"/>
<path d="M199.883 20.0607V17.746H202.231V20.0607H199.883Z" fill="#EEEEEE"/>
<path d="M227.734 21.5188V16.5443H229.754V14.5544H231.773V12.5645H233.792V10.5747H235.811V8.58485H237.83V6.59497H239.849V4.60522H241.869V2.6155H243.888V0.625545H249.945V2.6155H251.964V4.60518H253.984V6.59501H256.003V8.58481H258.022V10.5748H260.041V12.5646H262.06V14.5544H264.079V16.5441H266.099V21.5187H263.07V17.5391H261.051V15.5493H259.032V13.5595H257.012V11.5696H254.993V9.57976H252.974V7.58992H250.955V5.60024H248.936V3.61029H244.897V5.60024H242.878V7.58996H240.859V9.57972H238.84V11.5696H236.821V13.5595H234.802V15.5493H232.782V17.5391H230.763V21.5188H227.734Z" fill="#EEEEEE"/>
<path d="M227.734 16.5443V21.5188L229.754 21.5186V23.5086H231.773V25.4984H233.792V27.4882H235.811V29.478H237.83V31.4678H239.849V33.4576H241.869V35.4475H243.888V37.4374H249.945V35.4475H251.964V33.4576H253.984V31.4678H256.003V29.4781H258.022V27.4882H260.041V25.4983H262.06V23.5086H264.079V21.5187L266.099 21.5187V16.5441L263.07 16.5441V20.5238H261.051V22.5136H259.032V24.5034H257.012V26.4933H254.993V28.4831H252.974V30.4729H250.955V32.4628H248.936V34.4526H244.897V32.4627H242.878V30.4729H240.859V28.4831H238.84V26.4933H236.821V24.5034H234.802V22.5136H232.782V20.5239H230.763V16.5441L227.734 16.5443Z" fill="#EEEEEE"/>
<path d="M244.897 21.5188V16.5442H249.945V21.5188H244.897Z" fill="#EEEEEE"/>
<path d="M319.453 21.5189V16.5443H321.472V14.5544H323.491V12.5646H325.511V10.5749H327.53V8.58494H329.549V6.5951H331.568V4.6053H333.587V2.61555H335.606V0.625674H341.664V2.61559H343.683V4.60527H345.702V6.5951H347.721V8.5849H349.741V10.5749H351.76V12.5647H353.779V14.5544H355.798V16.5443H357.817V21.5188H354.789V17.5392H352.769V15.5494H350.75V13.5596H348.731V11.5696H346.712V9.57985H344.693V7.59001H342.673V5.60033H340.654V3.61042H336.616V5.60029H334.597V7.59005H332.578V9.57985H330.558V11.5697H328.539V13.5596H326.52V15.5494H324.501V17.5392H322.482V21.5189H319.453Z" fill="#EEEEEE"/>
<path d="M319.453 16.5443V21.5189L321.472 21.5188V23.5087H323.492V25.4985H325.511V27.4883H327.53V29.4781H329.549V31.468H331.568V33.4578H333.587V35.4476H335.607V37.4375H341.664V35.4476H343.683V33.4577H345.703V31.468H347.722V29.4782H349.741V27.4883H351.76V25.4985H353.779V23.5087H355.798V21.5188L357.817 21.5188V16.5443L354.789 16.5442V20.5239H352.77V22.5137H350.75V24.5036H348.731V26.4935H346.712V28.4832H344.693V30.473H342.674V32.4629H340.654V34.4528H336.616V32.4629H334.597V30.473H332.578V28.4832H330.559V26.4934H328.54V24.5036H326.52V22.5138H324.501V20.5239H322.482V16.5442L319.453 16.5443Z" fill="#EEEEEE"/>
<path d="M336.616 21.5189V16.5443H341.664V21.5189H336.616Z" fill="#EEEEEE"/>
<path d="M227.735 71.4265V73.7412H236.347V71.4265H237.913V69.1118H240.262V66.7971H242.611V65.2539H233.998V67.5686H232.432V69.1118H230.083V71.4265H227.735Z" fill="#EEEEEE"/>
<path d="M227.735 56.7666V54.4519H236.347V56.7666H237.913V59.0813H240.262V61.396H242.611V62.9392H233.998V60.6245H232.432V59.0813H230.083V56.7666H227.735Z" fill="#EEEEEE"/>
<path d="M243.393 59.8529H245.742V51.3657H243.393V49.8225H241.045V47.5078H238.696V45.1931H237.13V53.6804H239.479V55.2235H241.045V57.5382H243.393V59.8529Z" fill="#EEEEEE"/>
<path d="M254.355 45.1932H256.703V53.6804H254.355V55.2235H252.006V57.5382H249.657V59.8529H248.091V51.3657H250.44V49.8226H252.006V47.5079H254.355V45.1932Z" fill="#EEEEEE"/>
<path d="M266.099 56.7667V54.452H257.486V56.7667H255.92V59.0814H253.572V61.3961H251.223V62.9392H259.835V60.6245H261.401V59.0814H263.75V56.7667H266.099Z" fill="#EEEEEE"/>
<path d="M266.099 71.4265V73.7412H257.486V71.4265H255.92V69.1118H253.572V66.7971H251.223V65.254H259.835V67.5687H261.401V69.1118H263.75V71.4265H266.099Z" fill="#EEEEEE"/>
<path d="M239.479 82.9999H237.13V74.5127H239.479V72.9696H241.828V70.6549H244.176V68.3402H245.742V76.8274H243.393V78.3705H241.828V80.6852H239.479V82.9999Z" fill="#EEEEEE"/>
<path d="M250.44 68.3401H248.091V76.8273H250.44V78.3705H252.789V80.6852H255.138V82.9999H256.704V74.5126L254.355 74.5126V72.9695H252.789V70.6548H250.44V68.3401Z" fill="#EEEEEE"/>
<path d="M245.742 65.2539V62.9392H248.091V65.2539H245.742Z" fill="#EEEEEE"/>
<path d="M181.875 66.7121V61.7375H183.894V59.7476H185.913V57.7577H187.932V55.7679H189.952V53.7781H191.971V51.7882H193.99V49.7984H196.009V47.8087H198.028V45.8188H204.086V47.8087H206.105V49.7984H208.124V51.7882H210.143V53.778H212.162V55.768H214.182V57.7578H216.201V59.7476H218.22V61.7374H220.239V66.7119H217.21V62.7324H215.191V60.7425H213.172V58.7527H211.153V56.7628H209.134V54.773H207.115V52.7831H205.095V50.7935H203.076V48.8035H199.038V50.7934H197.019V52.7832H195V54.7729H192.98V56.7628H190.961V58.7527H188.942V60.7424H186.923V62.7323H184.904V66.7121H181.875Z" fill="#EEEEEE"/>
<path d="M181.875 61.7375V66.7121L183.894 66.7119V68.7019H185.913V70.6917H187.932V72.6815H189.952V74.6713H191.971V76.6611H193.99V78.6509H196.009V80.6408H198.028V82.6307H204.086V80.6408H206.105V78.6509H208.124V76.6611H210.143V74.6714H212.162V72.6815H214.182V70.6916H216.201V68.7018H218.22V66.712L220.239 66.7119V61.7374L217.21 61.7374V65.7171H215.191V67.7068H213.172V69.6967H211.153V71.6866H209.134V73.6764H207.115V75.6662H205.095V77.656H203.076V79.6459H199.038V77.656H197.019V75.6662H195V73.6764H192.98V71.6866H190.961V69.6967H188.942V67.7069H186.923V65.7172H184.904V61.7373L181.875 61.7375Z" fill="#EEEEEE"/>
<path d="M199.038 66.712V61.7375H204.086V66.712H199.038Z" fill="#EEEEEE"/>
<path d="M319.454 71.4265V73.7412H328.066V71.4265H329.632V69.1118H331.981V66.7971H334.329V65.2539H325.717V67.5686H324.151V69.1118H321.802V71.4265H319.454Z" fill="#EEEEEE"/>
<path d="M319.454 56.7668V54.4521H328.066V56.7668H329.632V59.0815H331.981V61.3962H334.329V62.9393H325.717V60.6246H324.151V59.0815H321.802V56.7668H319.454Z" fill="#EEEEEE"/>
<path d="M335.112 59.853H337.461V51.3657H335.112V49.8226H332.764V47.5079H330.415V45.1932H328.849V53.6804H331.198V55.2236H332.764V57.5383H335.112V59.853Z" fill="#EEEEEE"/>
<path d="M346.074 45.1932H348.422V53.6805H346.074V55.2236H343.725V57.5383H341.376V59.853H339.81V51.3658H342.159V49.8226H343.725V47.5079H346.074V45.1932Z" fill="#EEEEEE"/>
<path d="M357.818 56.7668V54.4521H349.205V56.7668H347.639V59.0815H345.291V61.3962H342.942V62.9393H351.554V60.6246H353.12V59.0815H355.469V56.7668H357.818Z" fill="#EEEEEE"/>
<path d="M357.818 71.4265V73.7412H349.205V71.4265H347.639V69.1118H345.291V66.7971H342.942V65.254H351.554V67.5687H353.12V69.1118H355.469V71.4265H357.818Z" fill="#EEEEEE"/>
<path d="M331.198 83H328.849V74.5128H331.198V72.9696H333.546V70.6549H335.895V68.3402H337.461V76.8275H335.112V78.3706H333.546V80.6853H331.198V83Z" fill="#EEEEEE"/>
<path d="M342.159 68.3401H339.81V76.8274H342.159V78.3705H344.508V80.6852H346.856V82.9999H348.422V74.5127H346.073V72.9695H344.508V70.6548H342.159V68.3401Z" fill="#EEEEEE"/>
<path d="M337.461 65.2539V62.9392H339.81V65.2539H337.461Z" fill="#EEEEEE"/>
<path d="M273.594 66.712V61.7374H275.613V59.7475H277.632V57.7577H279.651V55.7679H281.671V53.778H283.69V51.7882H285.709V49.7984H287.728V47.8086H289.747V45.8187H295.805V47.8087H297.824V49.7983H299.843V51.7882H301.862V53.7779H303.881V55.7679H305.901V57.7577H307.92V59.7475H309.939V61.7373H311.958V66.7119H308.929V62.7323H306.91V60.7425H304.891V58.7527H302.872V56.7627H300.853V54.7729H298.833V52.7831H296.814V50.7934H294.795V48.8034H290.757V50.7934H288.738V52.7831H286.718V54.7729H284.699V56.7628H282.68V58.7527H280.661V60.7424H278.642V62.7323H276.623V66.712H273.594Z" fill="#EEEEEE"/>
<path d="M273.594 61.7374V66.712L275.613 66.7118V68.7017H277.632V70.6915H279.651V72.6813H281.671V74.6712H283.69V76.661H285.709V78.6508H287.728V80.6406H289.747V82.6305H295.805V80.6406H297.824V78.6508H299.843V76.661H301.862V74.6712H303.881V72.6813H305.901V70.6915H307.92V68.7017H309.939V66.7118L311.958 66.7119V61.7373L308.929 61.7372V65.717H306.91V67.7067H304.891V69.6966H302.872V71.6865H300.853V73.6763H298.834V75.666H296.814V77.6559H294.795V79.6458H290.757V77.6559H288.738V75.6661H286.719V73.6763H284.699V71.6864H282.68V69.6966H280.661V67.7068H278.642V65.717H276.623V61.7372L273.594 61.7374Z" fill="#EEEEEE"/>
<path d="M290.757 66.7119V61.7374H295.805V66.7119H290.757Z" fill="#EEEEEE"/>
</g>
<g opacity="0.1">
<path d="M94.719 26.2333V28.548H103.331V26.2333H104.897V23.9186H107.246V21.6039H109.595V20.0608H100.982V22.3755H99.4166V23.9186H97.0678V26.2333H94.719Z" fill="#EEEEEE"/>
<path d="M94.719 11.5735V9.25883H103.331V11.5735H104.897V13.8882H107.246V16.2029H109.595V17.7461H100.982V15.4314H99.4166V13.8882H97.0678V11.5735H94.719Z" fill="#EEEEEE"/>
<path d="M110.378 14.6598H112.727V6.17253H110.378V4.6294H108.029V2.3147H105.68V0H104.114V8.48723H106.463V10.0304H108.029V12.3451H110.378V14.6598Z" fill="#EEEEEE"/>
<path d="M121.339 7.80852e-05H123.688V8.48731H121.339V10.0304H118.99V12.3451H116.641V14.6598H115.075V6.17261H117.424V4.62948H118.99V2.31478H121.339V7.80852e-05Z" fill="#EEEEEE"/>
<path d="M133.083 11.5736V9.25887H124.471V11.5736H122.905V13.8883H120.556V16.203H118.207V17.7461H126.82V15.4314H128.385V13.8883H130.734V11.5736H133.083Z" fill="#EEEEEE"/>
<path d="M133.083 26.2334V28.5481H124.471V26.2334H122.905V23.9187H120.556V21.604H118.207V20.0609H126.82V22.3756H128.385V23.9187H130.734V26.2334H133.083Z" fill="#EEEEEE"/>
<path d="M106.463 37.8068H104.114V29.3196H106.463V27.7765H108.812V25.4618H111.161V23.1471H112.727V31.6343H110.378V33.1774H108.812V35.4921H106.463V37.8068Z" fill="#EEEEEE"/>
<path d="M117.424 23.147H115.076V31.6342H117.424V33.1774L119.773 33.1774V35.4921H122.122V37.8068H123.688V29.3195L121.339 29.3195V27.7764H119.773V25.4617H117.424V23.147Z" fill="#EEEEEE"/>
<path d="M112.727 20.0607V17.746H115.076V20.0607H112.727Z" fill="#EEEEEE"/>
<path d="M3 26.2333V28.548H11.6124V26.2333H13.1782V23.9186H15.5271V21.6039H17.8759V20.0608H9.26353V22.3755H7.69765V23.9186H5.34882V26.2333H3Z" fill="#EEEEEE"/>
<path d="M3 11.5736V9.25887H11.6124V11.5736H13.1782V13.8883H15.5271V16.203H17.8759V17.7461H9.26353V15.4314H7.69765V13.8883H5.34882V11.5736H3Z" fill="#EEEEEE"/>
<path d="M18.6588 14.6598H21.0077V6.17261H18.6588V4.62948H16.31V2.31478H13.9612V7.91549e-05H12.3953V8.48731H14.7441V10.0304H16.31V12.3451H18.6588V14.6598Z" fill="#EEEEEE"/>
<path d="M29.62 7.80852e-05H31.9688V8.48731H29.62V10.0304H27.2712V12.3451H24.9224V14.6598H23.3565V6.17261H25.7053V4.62948H27.2712V2.31478H29.62V7.80852e-05Z" fill="#EEEEEE"/>
<path d="M41.3641 11.5736V9.25887H32.7518V11.5736H31.1859V13.8883H28.8371V16.203H26.4883V17.7461H35.1006V15.4314H36.6665V13.8883H39.0153V11.5736H41.3641Z" fill="#EEEEEE"/>
<path d="M41.3641 26.2333V28.548H32.7518V26.2333H31.1859V23.9186H28.8371V21.6039H26.4883V20.0608H35.1006V22.3755H36.6665V23.9186H39.0153V26.2333H41.3641Z" fill="#EEEEEE"/>
<path d="M14.7441 37.8068H12.3953L12.3953 29.3196H14.7441V27.7765H17.0929V25.4618H19.4418V23.1471H21.0077V31.6343H18.6588V33.1774H17.0929V35.4921H14.7441V37.8068Z" fill="#EEEEEE"/>
<path d="M25.7053 23.147H23.3565L23.3565 31.6342H25.7053V33.1774L28.0541 33.1774V35.4921H30.4029V37.8068H31.9688V29.3195L29.62 29.3195V27.7764H28.0541V25.4617H25.7053V23.147Z" fill="#EEEEEE"/>
<path d="M21.0077 20.0607V17.746H23.3565V20.0607H21.0077Z" fill="#EEEEEE"/>
<path d="M48.8595 21.5188V16.5443H50.8786V14.5544H52.8979V12.5645H54.917V10.5747H56.9361V8.58485H58.9554V6.59497H60.9745V4.60522H62.9936V2.6155H65.0129V0.625545H71.0704V2.6155H73.0894V4.60518H75.1087V6.59501H77.1278V8.58481H79.1469V10.5748H81.1662V12.5646H83.1853V14.5544H85.2044V16.5441H87.2237V21.5187H84.1949V17.5391H82.1757V15.5493H80.1566V13.5595H78.1375V11.5696H76.1182V9.57976H74.0991V7.58992H72.08V5.60024H70.0606V3.61029H66.0223V5.60024H64.0032V7.58996H61.9841V9.57972H59.9649V11.5696H57.9457V13.5595H55.9266V15.5493H53.9074V17.5391H51.8882V21.5188H48.8595Z" fill="#EEEEEE"/>
<path d="M48.8595 16.5443V21.5188L50.8786 21.5186V23.5086H52.8978V25.4984H54.917V27.4882H56.9361V29.478H58.9554V31.4678H60.9745V33.4576H62.9936V35.4475H65.0128V37.4374H71.0703V35.4475H73.0894V33.4576H75.1087V31.4678H77.1278V29.4781H79.1469V27.4882H81.1661V25.4983H83.1853V23.5086H85.2044V21.5187L87.2237 21.5187V16.5441L84.1948 16.5441V20.5238H82.1757V22.5136H80.1566V24.5034H78.1373V26.4933H76.1182V28.4831H74.0991V30.4729H72.08V32.4628H70.0606V34.4526H66.0223V32.4627H64.0032V30.4729H61.9841V28.4831H59.9649V26.4933H57.9457V24.5034H55.9265V22.5136H53.9074V20.5239H51.8882V16.5441L48.8595 16.5443Z" fill="#EEEEEE"/>
<path d="M66.0224 21.5188V16.5442H71.0703V21.5188H66.0224Z" fill="#EEEEEE"/>
<path d="M140.578 21.5189V16.5443H142.597V14.5544H144.616V12.5646H146.636V10.5749H148.655V8.58494H150.674V6.5951H152.693V4.6053H154.712V2.61555H156.731V0.625674H162.789V2.61559H164.808V4.60527H166.827V6.5951H168.846V8.5849H170.866V10.5749H172.885V12.5647H174.904V14.5544H176.923V16.5443H178.942V21.5188H175.914V17.5392H173.894V15.5494H171.875V13.5596H169.856V11.5696H167.837V9.57985H165.818V7.59001H163.798V5.60033H161.779V3.61042H157.741V5.60029H155.722V7.59005H153.703V9.57985H151.683V11.5697H149.664V13.5596H147.645V15.5494H145.626V17.5392H143.607V21.5189H140.578Z" fill="#EEEEEE"/>
<path d="M140.578 16.5443V21.5189L142.597 21.5188V23.5087H144.617V25.4985H146.636V27.4883H148.655V29.4781H150.674V31.468H152.693V33.4578H154.712V35.4476H156.732V37.4375H162.789V35.4476H164.808V33.4577H166.828V31.468H168.847V29.4782H170.866V27.4883H172.885V25.4985H174.904V23.5087H176.923V21.5188L178.942 21.5188V16.5443L175.914 16.5442V20.5239H173.895V22.5137H171.875V24.5036H169.856V26.4935H167.837V28.4832H165.818V30.473H163.799V32.4629H161.779V34.4528H157.741V32.4629H155.722V30.473H153.703V28.4832H151.684V26.4934H149.665V24.5036H147.645V22.5138H145.626V20.5239H143.607V16.5442L140.578 16.5443Z" fill="#EEEEEE"/>
<path d="M157.741 21.5189V16.5443H162.789V21.5189H157.741Z" fill="#EEEEEE"/>
<path d="M48.8596 71.4265V73.7412H57.472V71.4265H59.0379V69.1118H61.3867V66.7971H63.7355V65.2539H55.1231V67.5686H53.5573V69.1118H51.2084V71.4265H48.8596Z" fill="#EEEEEE"/>
<path d="M48.8596 56.7666V54.4519H57.472V56.7666H59.0379V59.0813H61.3867V61.396H63.7355V62.9392H55.1231V60.6245H53.5573V59.0813H51.2084V56.7666H48.8596Z" fill="#EEEEEE"/>
<path d="M64.5185 59.8529H66.8673V51.3657H64.5185V49.8225H62.1696V47.5078H59.8208V45.1931H58.2549V53.6804H60.6038V55.2235H62.1696V57.5382H64.5185V59.8529Z" fill="#EEEEEE"/>
<path d="M75.4796 45.1932H77.8284V53.6804H75.4796V55.2235H73.1308V57.5382H70.7819V59.8529H69.2161V51.3657H71.5649V49.8226H73.1308V47.5079H75.4796V45.1932Z" fill="#EEEEEE"/>
<path d="M87.2237 56.7667V54.452H78.6114V56.7667H77.0455V59.0814H74.6967V61.3961H72.3478V62.9392H80.9602V60.6245H82.5261V59.0814H84.8749V56.7667H87.2237Z" fill="#EEEEEE"/>
<path d="M87.2237 71.4265V73.7412H78.6114V71.4265H77.0455V69.1118H74.6967V66.7971H72.3478V65.254H80.9602V67.5687H82.5261V69.1118H84.8749V71.4265H87.2237Z" fill="#EEEEEE"/>
<path d="M60.6037 82.9999H58.2549V74.5127H60.6037V72.9696H62.9525V70.6549H65.3013V68.3402H66.8672V76.8274H64.5184V78.3705H62.9525V80.6852H60.6037V82.9999Z" fill="#EEEEEE"/>
<path d="M71.565 68.3401H69.2162V76.8273H71.565V78.3705H73.9139V80.6852H76.2627V82.9999H77.8286V74.5126L75.4797 74.5126V72.9695H73.9139V70.6548H71.565V68.3401Z" fill="#EEEEEE"/>
<path d="M66.8674 65.2539V62.9392H69.2162V65.2539H66.8674Z" fill="#EEEEEE"/>
<path d="M3 66.7121V61.7375H5.0191V59.7476H7.03838V57.7577H9.05749V55.7679H11.0766V53.7781H13.0959V51.7882H15.115V49.7984H17.1341V47.8087H19.1534V45.8188H25.2109V47.8087H27.2299V49.7984H29.2492V51.7882H31.2683V53.778H33.2874V55.768H35.3067V57.7578H37.3258V59.7476H39.3449V61.7374H41.3642V66.7119H38.3354V62.7324H36.3161V60.7425H34.297V58.7527H32.2779V56.7628H30.2587V54.773H28.2396V52.7831H26.2205V50.7935H24.2012V48.8035H20.1628V50.7934H18.1438V52.7832H16.1246V54.7729H14.1053V56.7628H12.0862V58.7527H10.0671V60.7424H8.04785V62.7323H6.02875V66.7121H3Z" fill="#EEEEEE"/>
<path d="M3 61.7375V66.7121L5.0191 66.7119V68.7019H7.03827V70.6917H9.05749V72.6815H11.0766V74.6713H13.0959V76.6611H15.115V78.6509H17.1341V80.6408H19.1533V82.6307H25.2108V80.6408H27.2299V78.6509H29.2492V76.6611H31.2683V74.6714H33.2874V72.6815H35.3066V70.6916H37.3258V68.7018H39.3449V66.712L41.3642 66.7119V61.7374L38.3353 61.7374V65.7171H36.3161V67.7068H34.297V69.6967H32.2778V71.6866H30.2587V73.6764H28.2396V75.6662H26.2205V77.656H24.2012V79.6459H20.1628V77.656H18.1438V75.6662H16.1246V73.6764H14.1053V71.6866H12.0862V69.6967H10.067V67.7069H8.04785V65.7172H6.02875V61.7373L3 61.7375Z" fill="#EEEEEE"/>
<path d="M20.1629 66.712V61.7375H25.2108V66.712H20.1629Z" fill="#EEEEEE"/>
<path d="M140.579 71.4265V73.7412H149.191V71.4265H150.757V69.1118H153.106V66.7971H155.454V65.2539H146.842V67.5686H145.276V69.1118H142.927V71.4265H140.579Z" fill="#EEEEEE"/>
<path d="M140.579 56.7668V54.4521H149.191V56.7668H150.757V59.0815H153.106V61.3962H155.454V62.9393H146.842V60.6246H145.276V59.0815H142.927V56.7668H140.579Z" fill="#EEEEEE"/>
<path d="M156.237 59.853H158.586V51.3657H156.237V49.8226H153.889V47.5079H151.54V45.1932H149.974V53.6804H152.323V55.2236H153.889V57.5383H156.237V59.853Z" fill="#EEEEEE"/>
<path d="M167.199 45.1932H169.547V53.6805H167.199V55.2236H164.85V57.5383H162.501V59.853H160.935V51.3658H163.284V49.8226H164.85V47.5079H167.199V45.1932Z" fill="#EEEEEE"/>
<path d="M178.943 56.7668V54.4521H170.33V56.7668H168.764V59.0815H166.416V61.3962H164.067V62.9393H172.679V60.6246H174.245V59.0815H176.594V56.7668H178.943Z" fill="#EEEEEE"/>
<path d="M178.943 71.4265V73.7412H170.33V71.4265H168.764V69.1118H166.416V66.7971H164.067V65.254H172.679V67.5687H174.245V69.1118H176.594V71.4265H178.943Z" fill="#EEEEEE"/>
<path d="M152.323 83H149.974V74.5128H152.323V72.9696H154.671V70.6549H157.02V68.3402H158.586V76.8275H156.237V78.3706H154.671V80.6853H152.323V83Z" fill="#EEEEEE"/>
<path d="M163.284 68.3401H160.935V76.8274H163.284V78.3705H165.633V80.6852H167.981V82.9999H169.547V74.5127H167.198V72.9695H165.633V70.6548H163.284V68.3401Z" fill="#EEEEEE"/>
<path d="M158.586 65.2539V62.9392H160.935V65.2539H158.586Z" fill="#EEEEEE"/>
<path d="M94.7189 66.712V61.7374H96.738V59.7475H98.7572V57.7577H100.776V55.7679H102.796V53.778H104.815V51.7882H106.834V49.7984H108.853V47.8086H110.872V45.8187H116.93V47.8087H118.949V49.7983H120.968V51.7882H122.987V53.7779H125.006V55.7679H127.026V57.7577H129.045V59.7475H131.064V61.7373H133.083V66.7119H130.054V62.7323H128.035V60.7425H126.016V58.7527H123.997V56.7627H121.978V54.7729H119.958V52.7831H117.939V50.7934H115.92V48.8034H111.882V50.7934H109.863V52.7831H107.843V54.7729H105.824V56.7628H103.805V58.7527H101.786V60.7424H99.7668V62.7323H97.7477V66.712H94.7189Z" fill="#EEEEEE"/>
<path d="M94.7189 61.7374V66.712L96.7381 66.7118V68.7017H98.7574V70.6915H100.776V72.6813H102.796V74.6712H104.815V76.661H106.834V78.6508H108.853V80.6406H110.872V82.6305H116.93V80.6406H118.949V78.6508H120.968V76.661H122.987V74.6712H125.006V72.6813H127.026V70.6915H129.045V68.7017H131.064V66.7118L133.083 66.7119V61.7373L130.054 61.7372V65.717H128.035V67.7067H126.016V69.6966H123.997V71.6865H121.978V73.6763H119.959V75.666H117.939V77.6559H115.92V79.6458H111.882V77.6559H109.863V75.6661H107.844V73.6763H105.824V71.6864H103.805V69.6966H101.786V67.7068H99.7668V65.717H97.7478V61.7372L94.7189 61.7374Z" fill="#EEEEEE"/>
<path d="M111.882 66.7119V61.7374H116.93V66.7119H111.882Z" fill="#EEEEEE"/>
</g>
<path d="M70.1726 10.7273H76.4908V25.6364C76.4908 27.4091 76.0666 28.9432 75.2181 30.2386C74.3772 31.5265 73.2029 32.5227 71.6954 33.2273C70.1878 33.9242 68.4378 34.2727 66.4454 34.2727C64.4378 34.2727 62.6802 33.9242 61.1726 33.2273C59.6651 32.5227 58.4908 31.5265 57.6499 30.2386C56.8166 28.9432 56.3999 27.4091 56.3999 25.6364V10.7273H62.7181V25.0909C62.7181 25.8106 62.8772 26.4545 63.1954 27.0227C63.5135 27.5833 63.9529 28.0227 64.5135 28.3409C65.0817 28.6591 65.7257 28.8182 66.4454 28.8182C67.1726 28.8182 67.8166 28.6591 68.3772 28.3409C68.9378 28.0227 69.3772 27.5833 69.6954 27.0227C70.0135 26.4545 70.1726 25.8106 70.1726 25.0909V10.7273ZM108.937 10.7273V34H102.619V10.7273H108.937ZM111.295 15.8182V10.7273H131.522V15.8182H124.522V34H118.295V15.8182H111.295ZM140.275 34V10.7273H146.593V20.1364H146.911L153.911 10.7273H161.275L153.411 21.0909L161.457 34H153.911L148.684 25.2727L146.593 28V34H140.275ZM163.15 34V10.7273H179.923V15.8182H169.468V19.8182H179.059V24.9091H169.468V28.9091H179.877V34H163.15ZM198.17 18.4091C198.071 18.0076 197.916 17.6553 197.704 17.3523C197.492 17.0417 197.227 16.7803 196.908 16.5682C196.598 16.3485 196.234 16.1856 195.818 16.0795C195.408 15.9659 194.958 15.9091 194.465 15.9091C193.405 15.9091 192.499 16.1629 191.749 16.6705C191.007 17.178 190.439 17.9091 190.045 18.8636C189.658 19.8182 189.465 20.9697 189.465 22.3182C189.465 23.6818 189.651 24.8485 190.022 25.8182C190.393 26.7879 190.946 27.5303 191.681 28.0455C192.416 28.5606 193.329 28.8182 194.42 28.8182C195.382 28.8182 196.181 28.678 196.818 28.3977C197.461 28.1174 197.943 27.7197 198.261 27.2045C198.579 26.6894 198.738 26.0833 198.738 25.3864L199.829 25.5H194.511V21H204.829V24.2273C204.829 26.3485 204.378 28.1629 203.477 29.6705C202.583 31.1705 201.348 32.322 199.772 33.125C198.204 33.9205 196.405 34.3182 194.374 34.3182C192.109 34.3182 190.121 33.8371 188.408 32.875C186.696 31.9129 185.359 30.5417 184.397 28.7614C183.443 26.9811 182.965 24.8636 182.965 22.4091C182.965 20.4848 183.257 18.7803 183.84 17.2955C184.431 15.8106 185.249 14.5568 186.295 13.5341C187.34 12.5038 188.549 11.7273 189.92 11.2045C191.291 10.6742 192.761 10.4091 194.329 10.4091C195.708 10.4091 196.988 10.6061 198.17 11C199.359 11.3864 200.408 11.9394 201.318 12.6591C202.234 13.3712 202.973 14.2159 203.533 15.1932C204.094 16.1705 204.435 17.2424 204.556 18.4091H198.17ZM214.093 10.7273V34H207.775V10.7273H214.093ZM241.92 15.8182V10.7273H262.147V15.8182H255.147V34H248.92V15.8182H241.92ZM310.13 10.7273V34H304.857L296.448 21.7727H296.312V34H289.994V10.7273H295.357L303.63 22.9091H303.812V10.7273H310.13ZM76.1812 49.7273H84.0448L89.4539 62.9091H89.7266L95.1357 49.7273H102.999V73H96.8175V59.5455H96.6357L91.4539 72.8182H87.7266L82.5448 59.4545H82.363V73H76.1812V49.7273ZM131.462 73V49.7273H137.781V58.8182H146.144V49.7273H152.462V73H146.144V63.9091H137.781V73H131.462ZM193.477 57C193.416 56.2424 193.132 55.6515 192.624 55.2273C192.124 54.803 191.363 54.5909 190.34 54.5909C189.689 54.5909 189.155 54.6705 188.738 54.8295C188.329 54.9811 188.026 55.1894 187.829 55.4545C187.632 55.7197 187.53 56.0227 187.522 56.3636C187.507 56.6439 187.556 56.8977 187.67 57.125C187.791 57.3447 187.98 57.5455 188.238 57.7273C188.496 57.9015 188.825 58.0606 189.227 58.2045C189.628 58.3485 190.105 58.4773 190.658 58.5909L192.568 59C193.855 59.2727 194.958 59.6326 195.874 60.0795C196.791 60.5265 197.541 61.053 198.124 61.6591C198.708 62.2576 199.136 62.9318 199.408 63.6818C199.689 64.4318 199.833 65.25 199.84 66.1364C199.833 67.6667 199.45 68.9621 198.693 70.0227C197.935 71.0833 196.852 71.8902 195.443 72.4432C194.041 72.9962 192.355 73.2727 190.386 73.2727C188.363 73.2727 186.598 72.9735 185.09 72.375C183.59 71.7765 182.424 70.8561 181.59 69.6136C180.764 68.3636 180.348 66.7652 180.34 64.8182H186.34C186.378 65.5303 186.556 66.1288 186.874 66.6136C187.193 67.0985 187.639 67.4659 188.215 67.7159C188.799 67.9659 189.492 68.0909 190.295 68.0909C190.969 68.0909 191.533 68.0076 191.988 67.8409C192.443 67.6742 192.787 67.4432 193.022 67.1477C193.257 66.8523 193.378 66.5152 193.386 66.1364C193.378 65.7803 193.261 65.4697 193.033 65.2045C192.814 64.9318 192.45 64.6894 191.943 64.4773C191.435 64.2576 190.749 64.053 189.886 63.8636L187.568 63.3636C185.507 62.9167 183.882 62.1705 182.693 61.125C181.511 60.072 180.924 58.6364 180.931 56.8182C180.924 55.3409 181.318 54.0492 182.113 52.9432C182.916 51.8295 184.026 50.9621 185.443 50.3409C186.867 49.7197 188.499 49.4091 190.34 49.4091C192.219 49.4091 193.844 49.7235 195.215 50.3523C196.586 50.9811 197.643 51.8674 198.386 53.0114C199.136 54.1477 199.514 55.4773 199.522 57H193.477ZM208.562 49.7273V73H202.244V49.7273H208.562ZM224.102 57C224.041 56.2424 223.757 55.6515 223.249 55.2273C222.749 54.803 221.988 54.5909 220.965 54.5909C220.314 54.5909 219.78 54.6705 219.363 54.8295C218.954 54.9811 218.651 55.1894 218.454 55.4545C218.257 55.7197 218.155 56.0227 218.147 56.3636C218.132 56.6439 218.181 56.8977 218.295 57.125C218.416 57.3447 218.605 57.5455 218.863 57.7273C219.121 57.9015 219.45 58.0606 219.852 58.2045C220.253 58.3485 220.73 58.4773 221.283 58.5909L223.193 59C224.48 59.2727 225.583 59.6326 226.499 60.0795C227.416 60.5265 228.166 61.053 228.749 61.6591C229.333 62.2576 229.761 62.9318 230.033 63.6818C230.314 64.4318 230.458 65.25 230.465 66.1364C230.458 67.6667 230.075 68.9621 229.318 70.0227C228.56 71.0833 227.477 71.8902 226.068 72.4432C224.666 72.9962 222.98 73.2727 221.011 73.2727C218.988 73.2727 217.223 72.9735 215.715 72.375C214.215 71.7765 213.049 70.8561 212.215 69.6136C211.389 68.3636 210.973 66.7652 210.965 64.8182H216.965C217.003 65.5303 217.181 66.1288 217.499 66.6136C217.818 67.0985 218.264 67.4659 218.84 67.7159C219.424 67.9659 220.117 68.0909 220.92 68.0909C221.594 68.0909 222.158 68.0076 222.613 67.8409C223.068 67.6742 223.412 67.4432 223.647 67.1477C223.882 66.8523 224.003 66.5152 224.011 66.1364C224.003 65.7803 223.886 65.4697 223.658 65.2045C223.439 64.9318 223.075 64.6894 222.568 64.4773C222.06 64.2576 221.374 64.053 220.511 63.8636L218.193 63.3636C216.132 62.9167 214.507 62.1705 213.318 61.125C212.136 60.072 211.549 58.6364 211.556 56.8182C211.549 55.3409 211.943 54.0492 212.738 52.9432C213.541 51.8295 214.651 50.9621 216.068 50.3409C217.492 49.7197 219.124 49.4091 220.965 49.4091C222.844 49.4091 224.469 49.7235 225.84 50.3523C227.211 50.9811 228.268 51.8674 229.011 53.0114C229.761 54.1477 230.139 55.4773 230.147 57H224.102ZM238.778 73L231.914 49.7273H238.96L242.141 64.0455H242.323L246.096 49.7273H251.641L255.414 64.0909H255.596L258.778 49.7273H265.823L258.96 73H252.914L248.96 60H248.778L244.823 73H238.778Z" fill="white"/>
<path d="M99.63 10.7273V34H94.3573L85.9482 21.7727H85.8118V34H79.4937V10.7273H84.8573L93.13 22.9091H93.3118V10.7273H99.63Z" fill="#4A8068"/>
<path d="M223.133 34H216.315L223.996 10.7273H232.633L240.315 34H233.496L228.406 17.1364H228.224L223.133 34ZM221.86 24.8182H234.678V29.5455H221.86V24.8182ZM161.508 73H154.69L162.371 49.7273H171.008L178.69 73H171.871L166.781 56.1364H166.599L161.508 73ZM160.235 63.8182H173.053V68.5455H160.235V63.8182Z" fill="#E62C20"/>
<path d="M270.57 34H263.752L271.434 10.7273H280.07L287.752 34H280.934L275.843 17.1364H275.661L270.57 34ZM269.298 24.8182H282.116V29.5455H269.298V24.8182ZM273.914 73H267.096L274.778 49.7273H283.414L291.096 73H284.278L279.187 56.1364H279.005L273.914 73ZM272.641 63.8182H285.46V68.5455H272.641V63.8182Z" fill="#9C4A9A"/>
<path d="M112.039 73H105.221L112.903 49.7273H121.539L129.221 73H122.403L117.312 56.1364H117.13L112.039 73ZM110.766 63.8182H123.585V68.5455H110.766V63.8182Z" fill="#F69722"/>
<path d="M126 73H109L117.5 53L126 73Z" fill="#F69722"/>
<path d="M267.5 34L276 14.5L285 34H267.5Z" fill="#9C4A9A"/>
<path d="M237.5 34H220.5L228 13.5L237.5 34Z" fill="#E62C20"/>
<path d="M99.5 34H85L83.5 14.5L99.5 34Z" fill="#4A8068"/>
<path d="M177 73H158L166.5 54L177 73Z" fill="#E62C20"/>
<path d="M290 73H271.5L279.5 52L290 73Z" fill="#9C4A9A"/>
<path d="M350 65H346.601V51.5307H350V49.0817H353.4V45.4083H356.8V41.7348H359.067V55.2041H355.667V57.6531H353.4V61.3265H350V65Z" fill="#D9D9D9"/>
<path d="M354.534 40.5104V36.8369L342.068 36.8369V40.5104H339.802V44.1838H336.402V47.8573H333.002V50.3062L345.468 50.3062V46.6328H347.735V44.1838H351.134V40.5104H354.534Z" fill="#D9D9D9"/>
<path d="M333.001 23.3668V19.6934L345.467 19.6934V23.3668H347.734V27.0403L351.133 27.0403V30.7137H354.533V33.1627L342.067 33.1627V29.4892L339.801 29.4892V27.0403L336.401 27.0403V23.3668H333.001Z" fill="#D9D9D9"/>
<path d="M349.999 5L346.6 5V18.4693H349.999V20.9183H353.399V24.5917H356.799V28.2652H359.066V14.7959H355.666V12.3469H353.399V8.67345H349.999V5Z" fill="#D9D9D9"/>
<rect x="361" y="37" width="2" height="4" transform="rotate(180 361 37)" fill="#D9D9D9"/>
<path d="M12.4483 5H15.8408L15.8408 18.4693H12.4483L12.4483 20.9183H9.05572V24.5917H5.66318V28.2652H3.40148L3.40148 14.7959H6.79403V12.3469H9.05572V8.67345H12.4483V5Z" fill="#D9D9D9"/>
<path d="M7.9248 29.4896L7.9248 33.1631H20.3641V29.4896H22.6258V25.8162H26.0184V22.1427H29.4109L29.4109 19.6938H16.9716V23.3672H14.7099V25.8162H11.3174V29.4896H7.9248Z" fill="#D9D9D9"/>
<path d="M29.4121 46.6332V50.3066H16.9728V46.6332H14.7111L14.7111 42.9597H11.3185V39.2863H7.92598L7.92598 36.8373H20.3653V40.5108H22.627V42.9597H26.0196V46.6332H29.4121Z" fill="#D9D9D9"/>
<path d="M12.4492 65H15.8418L15.8418 51.5307H12.4492V49.0817H9.0567L9.0567 45.4083H5.66415L5.66415 41.7348H3.40246L3.40246 55.2041H6.795V57.6531H9.0567V61.3265H12.4492V65Z" fill="#D9D9D9"/>
<rect x="2" y="33" width="1" height="4" fill="#D9D9D9"/>
</svg>
