<svg width="360" height="83" viewBox="0 0 360 83" fill="none" xmlns="http://www.w3.org/2000/svg">
<g opacity="0.1">
<path d="M91.8341 26.2333V28.548H100.645V26.2333H102.247V23.9186H104.65V21.6039H107.053V20.0608H98.2421V22.3755H96.6401V23.9186H94.2371V26.2333H91.8341Z" fill="#EEEEEE"/>
<path d="M91.8341 11.5735V9.25883H100.645V11.5735H102.247V13.8882H104.65V16.2029H107.053V17.7461H98.2421V15.4314H96.6401V13.8882H94.2371V11.5735H91.8341Z" fill="#EEEEEE"/>
<path d="M107.854 14.6598H110.257V6.17253H107.854V4.6294H105.451V2.3147H103.048V0H101.446V8.48723H103.849V10.0304H105.451V12.3451H107.854V14.6598Z" fill="#EEEEEE"/>
<path d="M119.068 7.80852e-05H121.471V8.48731H119.068V10.0304H116.665V12.3451H114.262V14.6598H112.66V6.17261H115.063V4.62948H116.665V2.31478H119.068V7.80852e-05Z" fill="#EEEEEE"/>
<path d="M131.083 11.5736V9.25887H122.272V11.5736H120.67V13.8883H118.267V16.203H115.864V17.7461H124.675V15.4314H126.277V13.8883H128.68V11.5736H131.083Z" fill="#EEEEEE"/>
<path d="M131.083 26.2334V28.5481H122.272V26.2334H120.67V23.9187H118.267V21.604H115.864V20.0609H124.675V22.3756H126.277V23.9187H128.68V26.2334H131.083Z" fill="#EEEEEE"/>
<path d="M103.849 37.8068H101.446V29.3196H103.849V27.7765H106.252V25.4618H108.655V23.1471H110.257V31.6343H107.854V33.1774H106.252V35.4921H103.849V37.8068Z" fill="#EEEEEE"/>
<path d="M115.063 23.147H112.66V31.6342H115.063V33.1774L117.466 33.1774V35.4921H119.869V37.8068H121.471V29.3195L119.068 29.3195V27.7764H117.466V25.4617H115.063V23.147Z" fill="#EEEEEE"/>
<path d="M110.257 20.0607V17.746H112.66V20.0607H110.257Z" fill="#EEEEEE"/>
<path d="M-2 26.2333V28.548H6.81096V26.2333H8.41295V23.9186H10.8159V21.6039H13.2189V20.0608H4.40797V22.3755H2.80598V23.9186H0.402989V26.2333H-2Z" fill="#EEEEEE"/>
<path d="M-2 11.5736V9.25887H6.81096V11.5736H8.41295V13.8883H10.8159V16.203H13.2189V17.7461H4.40797V15.4314H2.80598V13.8883H0.402989V11.5736H-2Z" fill="#EEEEEE"/>
<path d="M14.0199 14.6598H16.4229V6.17261H14.0199V4.62948H11.617V2.31478H9.21397V7.91549e-05H7.61198V8.48731H10.015V10.0304H11.617V12.3451H14.0199V14.6598Z" fill="#EEEEEE"/>
<path d="M25.2339 7.80852e-05H27.6369V8.48731H25.2339V10.0304H22.8309V12.3451H20.4279V14.6598H18.8259V6.17261H21.2289V4.62948H22.8309V2.31478H25.2339V7.80852e-05Z" fill="#EEEEEE"/>
<path d="M37.2488 11.5736V9.25887H28.4379V11.5736H26.8359V13.8883H24.4329V16.203H22.0299V17.7461H30.8409V15.4314H32.4429V13.8883H34.8459V11.5736H37.2488Z" fill="#EEEEEE"/>
<path d="M37.2488 26.2333V28.548H28.4379V26.2333H26.8359V23.9186H24.4329V21.6039H22.0299V20.0608H30.8409V22.3755H32.4429V23.9186H34.8459V26.2333H37.2488Z" fill="#EEEEEE"/>
<path d="M10.015 37.8068H7.61196L7.61196 29.3196H10.015V27.7765H12.4179V25.4618H14.8209V23.1471H16.4229V31.6343H14.0199V33.1774H12.4179V35.4921H10.015V37.8068Z" fill="#EEEEEE"/>
<path d="M21.2289 23.147H18.8259L18.8259 31.6342H21.2289V33.1774L23.6319 33.1774V35.4921H26.0349V37.8068H27.6369V29.3195L25.2339 29.3195V27.7764H23.6319V25.4617H21.2289V23.147Z" fill="#EEEEEE"/>
<path d="M16.4229 20.0607V17.746H18.8259V20.0607H16.4229Z" fill="#EEEEEE"/>
<path d="M44.917 21.5188V16.5443H46.9827V14.5544H49.0486V12.5645H51.1142V10.5747H53.1799V8.58485H55.2458V6.59497H57.3114V4.60522H59.3771V2.6155H61.4429V0.625545H67.6401V2.6155H69.7057V4.60518H71.7716V6.59501H73.8373V8.58481H75.9029V10.5748H77.9688V12.5646H80.0344V14.5544H82.1001V16.5441H84.166V21.5187H81.0674V17.5391H79.0015V15.5493H76.9359V13.5595H74.8702V11.5696H72.8043V9.57976H70.7387V7.58992H68.673V5.60024H66.6071V3.61029H62.4757V5.60024H60.41V7.58996H58.3444V9.57972H56.2785V11.5696H54.2128V13.5595H52.1472V15.5493H50.0813V17.5391H48.0156V21.5188H44.917Z" fill="#EEEEEE"/>
<path d="M44.917 16.5443V21.5188L46.9827 21.5186V23.5086H49.0485V25.4984H51.1142V27.4882H53.1799V29.478H55.2458V31.4678H57.3114V33.4576H59.3771V35.4475H61.4429V37.4374H67.6401V35.4475H69.7057V33.4576H71.7716V31.4678H73.8373V29.4781H75.9029V27.4882H77.9687V25.4983H80.0344V23.5086H82.1001V21.5187L84.166 21.5187V16.5441L81.0672 16.5441V20.5238H79.0015V22.5136H76.9359V24.5034H74.8701V26.4933H72.8043V28.4831H70.7387V30.4729H68.673V32.4628H66.6071V34.4526H62.4757V32.4627H60.41V30.4729H58.3444V28.4831H56.2785V26.4933H54.2128V24.5034H52.1471V22.5136H50.0813V20.5239H48.0156V16.5441L44.917 16.5443Z" fill="#EEEEEE"/>
<path d="M62.4758 21.5188V16.5442H67.6401V21.5188H62.4758Z" fill="#EEEEEE"/>
<path d="M138.751 21.5189V16.5443H140.816V14.5544H142.882V12.5646H144.948V10.5749H147.014V8.58494H149.079V6.5951H151.145V4.6053H153.211V2.61555H155.276V0.625674H161.474V2.61559H163.539V4.60527H165.605V6.5951H167.671V8.5849H169.737V10.5749H171.802V12.5647H173.868V14.5544H175.934V16.5443H178V21.5188H174.901V17.5392H172.835V15.5494H170.77V13.5596H168.704V11.5696H166.638V9.57985H164.572V7.59001H162.507V5.60033H160.441V3.61042H156.309V5.60029H154.244V7.59005H152.178V9.57985H150.112V11.5697H148.047V13.5596H145.981V15.5494H143.915V17.5392H141.849V21.5189H138.751Z" fill="#EEEEEE"/>
<path d="M138.751 16.5443V21.5189L140.817 21.5188V23.5087H142.882V25.4985H144.948V27.4883H147.014V29.4781H149.08V31.468H151.145V33.4578H153.211V35.4476H155.277V37.4375H161.474V35.4476H163.54V33.4577H165.606V31.468H167.671V29.4782H169.737V27.4883H171.803V25.4985H173.868V23.5087H175.934V21.5188L178 21.5188V16.5443L174.901 16.5442V20.5239H172.835V22.5137H170.77V24.5036H168.704V26.4935H166.638V28.4832H164.573V30.473H162.507V32.4629H160.441V34.4528H156.31V32.4629H154.244V30.473H152.178V28.4832H150.112V26.4934H148.047V24.5036H145.981V22.5138H143.915V20.5239H141.85V16.5442L138.751 16.5443Z" fill="#EEEEEE"/>
<path d="M156.31 21.5189V16.5443H161.474V21.5189H156.31Z" fill="#EEEEEE"/>
<path d="M44.9172 71.4265V73.7412H53.7281V71.4265H55.3301V69.1118H57.7331V66.7971H60.1361V65.2539H51.3251V67.5686H49.7232V69.1118H47.3202V71.4265H44.9172Z" fill="#EEEEEE"/>
<path d="M44.9172 56.7666V54.4519H53.7281V56.7666H55.3301V59.0813H57.7331V61.396H60.1361V62.9392H51.3251V60.6245H49.7232V59.0813H47.3202V56.7666H44.9172Z" fill="#EEEEEE"/>
<path d="M60.9371 59.8529H63.3401V51.3657H60.9371V49.8225H58.5341V47.5078H56.1312V45.1931H54.5292V53.6804H56.9321V55.2235H58.5341V57.5382H60.9371V59.8529Z" fill="#EEEEEE"/>
<path d="M72.151 45.1932H74.554V53.6804H72.151V55.2235H69.748V57.5382H67.345V59.8529H65.743V51.3657H68.146V49.8226H69.748V47.5079H72.151V45.1932Z" fill="#EEEEEE"/>
<path d="M84.166 56.7667V54.452H75.355V56.7667H73.753V59.0814H71.35V61.3961H68.947V62.9392H77.758V60.6245H79.36V59.0814H81.763V56.7667H84.166Z" fill="#EEEEEE"/>
<path d="M84.166 71.4265V73.7412H75.355V71.4265H73.753V69.1118H71.35V66.7971H68.947V65.254H77.758V67.5687H79.36V69.1118H81.763V71.4265H84.166Z" fill="#EEEEEE"/>
<path d="M56.9321 82.9999H54.5291V74.5127H56.9321V72.9696H59.3351V70.6549H61.7381V68.3402H63.34V76.8274H60.9371V78.3705H59.3351V80.6852H56.9321V82.9999Z" fill="#EEEEEE"/>
<path d="M68.1462 68.3401H65.7432V76.8273H68.1462V78.3705H70.5492V80.6852H72.9522V82.9999H74.5542V74.5126L72.1512 74.5126V72.9695H70.5492V70.6548H68.1462V68.3401Z" fill="#EEEEEE"/>
<path d="M63.3402 65.2539V62.9392H65.7432V65.2539H63.3402Z" fill="#EEEEEE"/>
<path d="M-2 66.7121V61.7375H0.0656664V59.7476H2.13151V57.7577H4.19718V55.7679H6.26284V53.7781H8.32869V51.7882H10.3944V49.7984H12.46V47.8087H14.5259V45.8188H20.7231V47.8087H22.7887V49.7984H24.8545V51.7882H26.9202V53.778H28.9859V55.768H31.0517V57.7578H33.1174V59.7476H35.183V61.7374H37.2489V66.7119H34.1503V62.7324H32.0844V60.7425H30.0188V58.7527H27.9531V56.7628H25.8873V54.773H23.8216V52.7831H21.7559V50.7935H19.6901V48.8035H15.5586V50.7934H13.493V52.7832H11.4273V54.7729H9.36143V56.7628H7.29577V58.7527H5.2301V60.7424H3.16426V62.7323H1.09859V66.7121H-2Z" fill="#EEEEEE"/>
<path d="M-2 61.7375V66.7121L0.0656664 66.7119V68.7019H2.13139V70.6917H4.19718V72.6815H6.26284V74.6713H8.32869V76.6611H10.3944V78.6509H12.46V80.6408H14.5258V82.6307H20.723V80.6408H22.7887V78.6509H24.8545V76.6611H26.9202V74.6714H28.9859V72.6815H31.0516V70.6916H33.1174V68.7018H35.183V66.712L37.2489 66.7119V61.7374L34.1502 61.7374V65.7171H32.0844V67.7068H30.0188V69.6967H27.953V71.6866H25.8873V73.6764H23.8216V75.6662H21.7559V77.656H19.6901V79.6459H15.5586V77.656H13.493V75.6662H11.4273V73.6764H9.36143V71.6866H7.29577V69.6967H5.22998V67.7069H3.16426V65.7172H1.09859V61.7373L-2 61.7375Z" fill="#EEEEEE"/>
<path d="M15.5587 66.712V61.7375H20.723V66.712H15.5587Z" fill="#EEEEEE"/>
<path d="M138.751 71.4265V73.7412H147.562V71.4265H149.164V69.1118H151.567V66.7971H153.97V65.2539H145.159V67.5686H143.557V69.1118H141.154V71.4265H138.751Z" fill="#EEEEEE"/>
<path d="M138.751 56.7668V54.4521H147.562V56.7668H149.164V59.0815H151.567V61.3962H153.97V62.9393H145.159V60.6246H143.557V59.0815H141.154V56.7668H138.751Z" fill="#EEEEEE"/>
<path d="M154.771 59.853H157.174V51.3657H154.771V49.8226H152.368V47.5079H149.965V45.1932H148.363V53.6804H150.766V55.2236H152.368V57.5383H154.771V59.853Z" fill="#EEEEEE"/>
<path d="M165.985 45.1932H168.388V53.6805H165.985V55.2236H163.582V57.5383H161.179V59.853H159.577V51.3658H161.98V49.8226H163.582V47.5079H165.985V45.1932Z" fill="#EEEEEE"/>
<path d="M178 56.7668V54.4521H169.189V56.7668H167.587V59.0815H165.184V61.3962H162.781V62.9393H171.592V60.6246H173.194V59.0815H175.597V56.7668H178Z" fill="#EEEEEE"/>
<path d="M178 71.4265V73.7412H169.189V71.4265H167.587V69.1118H165.184V66.7971H162.781V65.254H171.592V67.5687H173.194V69.1118H175.597V71.4265H178Z" fill="#EEEEEE"/>
<path d="M150.766 83H148.363V74.5128H150.766V72.9696H153.169V70.6549H155.572V68.3402H157.174V76.8275H154.771V78.3706H153.169V80.6853H150.766V83Z" fill="#EEEEEE"/>
<path d="M161.98 68.3401H159.577V76.8274H161.98V78.3705H164.383V80.6852H166.786V82.9999H168.388V74.5127H165.985V72.9695H164.383V70.6548H161.98V68.3401Z" fill="#EEEEEE"/>
<path d="M157.174 65.2539V62.9392H159.577V65.2539H157.174Z" fill="#EEEEEE"/>
<path d="M91.834 66.712V61.7374H93.8997V59.7475H95.9655V57.7577H98.0312V55.7679H100.097V53.778H102.163V51.7882H104.228V49.7984H106.294V47.8086H108.36V45.8187H114.557V47.8087H116.623V49.7983H118.688V51.7882H120.754V53.7779H122.82V55.7679H124.886V57.7577H126.951V59.7475H129.017V61.7373H131.083V66.7119H127.984V62.7323H125.918V60.7425H123.853V58.7527H121.787V56.7627H119.721V54.7729H117.656V52.7831H115.59V50.7934H113.524V48.8034H109.393V50.7934H107.327V52.7831H105.261V54.7729H103.195V56.7628H101.13V58.7527H99.0641V60.7424H96.9983V62.7323H94.9326V66.712H91.834Z" fill="#EEEEEE"/>
<path d="M91.834 61.7374V66.712L93.8997 66.7118V68.7017H95.9656V70.6915H98.0313V72.6813H100.097V74.6712H102.163V76.661H104.228V78.6508H106.294V80.6406H108.36V82.6305H114.557V80.6406H116.623V78.6508H118.689V76.661H120.754V74.6712H122.82V72.6813H124.886V70.6915H126.951V68.7017H129.017V66.7118L131.083 66.7119V61.7373L127.984 61.7372V65.717H125.919V67.7067H123.853V69.6966H121.787V71.6865H119.721V73.6763H117.656V75.666H115.59V77.6559H113.524V79.6458H109.393V77.6559H107.327V75.6661H105.261V73.6763H103.196V71.6864H101.13V69.6966H99.0642V67.7068H96.9983V65.717H94.9327V61.7372L91.834 61.7374Z" fill="#EEEEEE"/>
<path d="M109.393 66.7119V61.7374H114.557V66.7119H109.393Z" fill="#EEEEEE"/>
</g>
<g opacity="0.1">
<path d="M274.834 26.2333V28.548H283.645V26.2333H285.247V23.9186H287.65V21.6039H290.053V20.0608H281.242V22.3755H279.64V23.9186H277.237V26.2333H274.834Z" fill="#EEEEEE"/>
<path d="M274.834 11.5735V9.25883H283.645V11.5735H285.247V13.8882H287.65V16.2029H290.053V17.7461H281.242V15.4314H279.64V13.8882H277.237V11.5735H274.834Z" fill="#EEEEEE"/>
<path d="M290.854 14.6598H293.257V6.17253H290.854V4.6294H288.451V2.3147H286.048V0H284.446V8.48723H286.849V10.0304H288.451V12.3451H290.854V14.6598Z" fill="#EEEEEE"/>
<path d="M302.068 7.80852e-05H304.471V8.48731H302.068V10.0304H299.665V12.3451H297.262V14.6598H295.66V6.17261H298.063V4.62948H299.665V2.31478H302.068V7.80852e-05Z" fill="#EEEEEE"/>
<path d="M314.083 11.5736V9.25887H305.272V11.5736H303.67V13.8883H301.267V16.203H298.864V17.7461H307.675V15.4314H309.277V13.8883H311.68V11.5736H314.083Z" fill="#EEEEEE"/>
<path d="M314.083 26.2334V28.5481H305.272V26.2334H303.67V23.9187H301.267V21.604H298.864V20.0609H307.675V22.3756H309.277V23.9187H311.68V26.2334H314.083Z" fill="#EEEEEE"/>
<path d="M286.849 37.8068H284.446V29.3196H286.849V27.7765H289.252V25.4618H291.655V23.1471H293.257V31.6343H290.854V33.1774H289.252V35.4921H286.849V37.8068Z" fill="#EEEEEE"/>
<path d="M298.063 23.147H295.66V31.6342H298.063V33.1774L300.466 33.1774V35.4921H302.869V37.8068H304.471V29.3195L302.068 29.3195V27.7764H300.466V25.4617H298.063V23.147Z" fill="#EEEEEE"/>
<path d="M293.257 20.0607V17.746H295.66V20.0607H293.257Z" fill="#EEEEEE"/>
<path d="M181 26.2333V28.548H189.811V26.2333H191.413V23.9186H193.816V21.6039H196.219V20.0608H187.408V22.3755H185.806V23.9186H183.403V26.2333H181Z" fill="#EEEEEE"/>
<path d="M181 11.5736V9.25887H189.811V11.5736H191.413V13.8883H193.816V16.203H196.219V17.7461H187.408V15.4314H185.806V13.8883H183.403V11.5736H181Z" fill="#EEEEEE"/>
<path d="M197.02 14.6598H199.423V6.17261H197.02V4.62948H194.617V2.31478H192.214V7.91549e-05H190.612V8.48731H193.015V10.0304H194.617V12.3451H197.02V14.6598Z" fill="#EEEEEE"/>
<path d="M208.234 7.80852e-05H210.637V8.48731H208.234V10.0304H205.831V12.3451H203.428V14.6598H201.826V6.17261H204.229V4.62948H205.831V2.31478H208.234V7.80852e-05Z" fill="#EEEEEE"/>
<path d="M220.249 11.5736V9.25887H211.438V11.5736H209.836V13.8883H207.433V16.203H205.03V17.7461H213.841V15.4314H215.443V13.8883H217.846V11.5736H220.249Z" fill="#EEEEEE"/>
<path d="M220.249 26.2333V28.548H211.438V26.2333H209.836V23.9186H207.433V21.6039H205.03V20.0608H213.841V22.3755H215.443V23.9186H217.846V26.2333H220.249Z" fill="#EEEEEE"/>
<path d="M193.015 37.8068H190.612L190.612 29.3196H193.015V27.7765H195.418V25.4618H197.821V23.1471H199.423V31.6343H197.02V33.1774H195.418V35.4921H193.015V37.8068Z" fill="#EEEEEE"/>
<path d="M204.229 23.147H201.826L201.826 31.6342H204.229V33.1774L206.632 33.1774V35.4921H209.035V37.8068H210.637V29.3195L208.234 29.3195V27.7764H206.632V25.4617H204.229V23.147Z" fill="#EEEEEE"/>
<path d="M199.423 20.0607V17.746H201.826V20.0607H199.423Z" fill="#EEEEEE"/>
<path d="M227.917 21.5188V16.5443H229.983V14.5544H232.049V12.5645H234.114V10.5747H236.18V8.58485H238.246V6.59497H240.311V4.60522H242.377V2.6155H244.443V0.625545H250.64V2.6155H252.706V4.60518H254.772V6.59501H256.837V8.58481H258.903V10.5748H260.969V12.5646H263.034V14.5544H265.1V16.5441H267.166V21.5187H264.067V17.5391H262.002V15.5493H259.936V13.5595H257.87V11.5696H255.804V9.57976H253.739V7.58992H251.673V5.60024H249.607V3.61029H245.476V5.60024H243.41V7.58996H241.344V9.57972H239.279V11.5696H237.213V13.5595H235.147V15.5493H233.081V17.5391H231.016V21.5188H227.917Z" fill="#EEEEEE"/>
<path d="M227.917 16.5443V21.5188L229.983 21.5186V23.5086H232.048V25.4984H234.114V27.4882H236.18V29.478H238.246V31.4678H240.311V33.4576H242.377V35.4475H244.443V37.4374H250.64V35.4475H252.706V33.4576H254.772V31.4678H256.837V29.4781H258.903V27.4882H260.969V25.4983H263.034V23.5086H265.1V21.5187L267.166 21.5187V16.5441L264.067 16.5441V20.5238H262.002V22.5136H259.936V24.5034H257.87V26.4933H255.804V28.4831H253.739V30.4729H251.673V32.4628H249.607V34.4526H245.476V32.4627H243.41V30.4729H241.344V28.4831H239.279V26.4933H237.213V24.5034H235.147V22.5136H233.081V20.5239H231.016V16.5441L227.917 16.5443Z" fill="#EEEEEE"/>
<path d="M245.476 21.5188V16.5442H250.64V21.5188H245.476Z" fill="#EEEEEE"/>
<path d="M321.751 21.5189V16.5443H323.816V14.5544H325.882V12.5646H327.948V10.5749H330.014V8.58494H332.079V6.5951H334.145V4.6053H336.211V2.61555H338.276V0.625674H344.474V2.61559H346.539V4.60527H348.605V6.5951H350.671V8.5849H352.737V10.5749H354.802V12.5647H356.868V14.5544H358.934V16.5443H361V21.5188H357.901V17.5392H355.835V15.5494H353.77V13.5596H351.704V11.5696H349.638V9.57985H347.572V7.59001H345.507V5.60033H343.441V3.61042H339.309V5.60029H337.244V7.59005H335.178V9.57985H333.112V11.5697H331.047V13.5596H328.981V15.5494H326.915V17.5392H324.849V21.5189H321.751Z" fill="#EEEEEE"/>
<path d="M321.751 16.5443V21.5189L323.817 21.5188V23.5087H325.882V25.4985H327.948V27.4883H330.014V29.4781H332.08V31.468H334.145V33.4578H336.211V35.4476H338.277V37.4375H344.474V35.4476H346.54V33.4577H348.606V31.468H350.671V29.4782H352.737V27.4883H354.803V25.4985H356.868V23.5087H358.934V21.5188L361 21.5188V16.5443L357.901 16.5442V20.5239H355.835V22.5137H353.77V24.5036H351.704V26.4935H349.638V28.4832H347.573V30.473H345.507V32.4629H343.441V34.4528H339.31V32.4629H337.244V30.473H335.178V28.4832H333.112V26.4934H331.047V24.5036H328.981V22.5138H326.915V20.5239H324.85V16.5442L321.751 16.5443Z" fill="#EEEEEE"/>
<path d="M339.31 21.5189V16.5443H344.474V21.5189H339.31Z" fill="#EEEEEE"/>
<path d="M227.917 71.4265V73.7412H236.728V71.4265H238.33V69.1118H240.733V66.7971H243.136V65.2539H234.325V67.5686H232.723V69.1118H230.32V71.4265H227.917Z" fill="#EEEEEE"/>
<path d="M227.917 56.7666V54.4519H236.728V56.7666H238.33V59.0813H240.733V61.396H243.136V62.9392H234.325V60.6245H232.723V59.0813H230.32V56.7666H227.917Z" fill="#EEEEEE"/>
<path d="M243.937 59.8529H246.34V51.3657H243.937V49.8225H241.534V47.5078H239.131V45.1931H237.529V53.6804H239.932V55.2235H241.534V57.5382H243.937V59.8529Z" fill="#EEEEEE"/>
<path d="M255.151 45.1932H257.554V53.6804H255.151V55.2235H252.748V57.5382H250.345V59.8529H248.743V51.3657H251.146V49.8226H252.748V47.5079H255.151V45.1932Z" fill="#EEEEEE"/>
<path d="M267.166 56.7667V54.452H258.355V56.7667H256.753V59.0814H254.35V61.3961H251.947V62.9392H260.758V60.6245H262.36V59.0814H264.763V56.7667H267.166Z" fill="#EEEEEE"/>
<path d="M267.166 71.4265V73.7412H258.355V71.4265H256.753V69.1118H254.35V66.7971H251.947V65.254H260.758V67.5687H262.36V69.1118H264.763V71.4265H267.166Z" fill="#EEEEEE"/>
<path d="M239.932 82.9999H237.529V74.5127H239.932V72.9696H242.335V70.6549H244.738V68.3402H246.34V76.8274H243.937V78.3705H242.335V80.6852H239.932V82.9999Z" fill="#EEEEEE"/>
<path d="M251.146 68.3401H248.743V76.8273H251.146V78.3705H253.549V80.6852H255.952V82.9999H257.554V74.5126L255.151 74.5126V72.9695H253.549V70.6548H251.146V68.3401Z" fill="#EEEEEE"/>
<path d="M246.34 65.2539V62.9392H248.743V65.2539H246.34Z" fill="#EEEEEE"/>
<path d="M181 66.7121V61.7375H183.066V59.7476H185.132V57.7577H187.197V55.7679H189.263V53.7781H191.329V51.7882H193.394V49.7984H195.46V47.8087H197.526V45.8188H203.723V47.8087H205.789V49.7984H207.855V51.7882H209.92V53.778H211.986V55.768H214.052V57.7578H216.117V59.7476H218.183V61.7374H220.249V66.7119H217.15V62.7324H215.084V60.7425H213.019V58.7527H210.953V56.7628H208.887V54.773H206.822V52.7831H204.756V50.7935H202.69V48.8035H198.559V50.7934H196.493V52.7832H194.427V54.7729H192.361V56.7628H190.296V58.7527H188.23V60.7424H186.164V62.7323H184.099V66.7121H181Z" fill="#EEEEEE"/>
<path d="M181 61.7375V66.7121L183.066 66.7119V68.7019H185.131V70.6917H187.197V72.6815H189.263V74.6713H191.329V76.6611H193.394V78.6509H195.46V80.6408H197.526V82.6307H203.723V80.6408H205.789V78.6509H207.855V76.6611H209.92V74.6714H211.986V72.6815H214.052V70.6916H216.117V68.7018H218.183V66.712L220.249 66.7119V61.7374L217.15 61.7374V65.7171H215.084V67.7068H213.019V69.6967H210.953V71.6866H208.887V73.6764H206.822V75.6662H204.756V77.656H202.69V79.6459H198.559V77.656H196.493V75.6662H194.427V73.6764H192.361V71.6866H190.296V69.6967H188.23V67.7069H186.164V65.7172H184.099V61.7373L181 61.7375Z" fill="#EEEEEE"/>
<path d="M198.559 66.712V61.7375H203.723V66.712H198.559Z" fill="#EEEEEE"/>
<path d="M321.751 71.4265V73.7412H330.562V71.4265H332.164V69.1118H334.567V66.7971H336.97V65.2539H328.159V67.5686H326.557V69.1118H324.154V71.4265H321.751Z" fill="#EEEEEE"/>
<path d="M321.751 56.7668V54.4521H330.562V56.7668H332.164V59.0815H334.567V61.3962H336.97V62.9393H328.159V60.6246H326.557V59.0815H324.154V56.7668H321.751Z" fill="#EEEEEE"/>
<path d="M337.771 59.853H340.174V51.3657H337.771V49.8226H335.368V47.5079H332.965V45.1932H331.363V53.6804H333.766V55.2236H335.368V57.5383H337.771V59.853Z" fill="#EEEEEE"/>
<path d="M348.985 45.1932H351.388V53.6805H348.985V55.2236H346.582V57.5383H344.179V59.853H342.577V51.3658H344.98V49.8226H346.582V47.5079H348.985V45.1932Z" fill="#EEEEEE"/>
<path d="M361 56.7668V54.4521H352.189V56.7668H350.587V59.0815H348.184V61.3962H345.781V62.9393H354.592V60.6246H356.194V59.0815H358.597V56.7668H361Z" fill="#EEEEEE"/>
<path d="M361 71.4265V73.7412H352.189V71.4265H350.587V69.1118H348.184V66.7971H345.781V65.254H354.592V67.5687H356.194V69.1118H358.597V71.4265H361Z" fill="#EEEEEE"/>
<path d="M333.766 83H331.363V74.5128H333.766V72.9696H336.169V70.6549H338.572V68.3402H340.174V76.8275H337.771V78.3706H336.169V80.6853H333.766V83Z" fill="#EEEEEE"/>
<path d="M344.98 68.3401H342.577V76.8274H344.98V78.3705H347.383V80.6852H349.786V82.9999H351.388V74.5127H348.985V72.9695H347.383V70.6548H344.98V68.3401Z" fill="#EEEEEE"/>
<path d="M340.174 65.2539V62.9392H342.577V65.2539H340.174Z" fill="#EEEEEE"/>
<path d="M274.834 66.712V61.7374H276.9V59.7475H278.965V57.7577H281.031V55.7679H283.097V53.778H285.163V51.7882H287.228V49.7984H289.294V47.8086H291.36V45.8187H297.557V47.8087H299.623V49.7983H301.688V51.7882H303.754V53.7779H305.82V55.7679H307.886V57.7577H309.951V59.7475H312.017V61.7373H314.083V66.7119H310.984V62.7323H308.918V60.7425H306.853V58.7527H304.787V56.7627H302.721V54.7729H300.656V52.7831H298.59V50.7934H296.524V48.8034H292.393V50.7934H290.327V52.7831H288.261V54.7729H286.195V56.7628H284.13V58.7527H282.064V60.7424H279.998V62.7323H277.933V66.712H274.834Z" fill="#EEEEEE"/>
<path d="M274.834 61.7374V66.712L276.9 66.7118V68.7017H278.966V70.6915H281.031V72.6813H283.097V74.6712H285.163V76.661H287.228V78.6508H289.294V80.6406H291.36V82.6305H297.557V80.6406H299.623V78.6508H301.689V76.661H303.754V74.6712H305.82V72.6813H307.886V70.6915H309.951V68.7017H312.017V66.7118L314.083 66.7119V61.7373L310.984 61.7372V65.717H308.919V67.7067H306.853V69.6966H304.787V71.6865H302.721V73.6763H300.656V75.666H298.59V77.6559H296.524V79.6458H292.393V77.6559H290.327V75.6661H288.261V73.6763H286.196V71.6864H284.13V69.6966H282.064V67.7068H279.998V65.717H277.933V61.7372L274.834 61.7374Z" fill="#EEEEEE"/>
<path d="M292.393 66.7119V61.7374H297.557V66.7119H292.393Z" fill="#EEEEEE"/>
</g>
<path d="M12.0371 1L15.4297 1L15.4297 14.4693H12.0371L12.0371 16.9183H8.64459V20.5917H5.25204V24.2652H2.99035L2.99035 10.7959H6.38289V8.3469H8.64459V4.67345H12.0371V1Z" fill="#D9D9D9"/>
<path d="M7.51367 25.4896L7.51367 29.1631H19.953V25.4896H22.2147V21.8162H25.6073V18.1427H28.9998L28.9998 15.6938L16.5605 15.6938V19.3672H14.2988V21.8162H10.9062V25.4896H7.51367Z" fill="#D9D9D9"/>
<path d="M29.001 42.6332V46.3066H16.5616V42.6332H14.2999L14.2999 38.9597H10.9074V35.2863H7.51485L7.51485 32.8373H19.9542V36.5108H22.2159V38.9597H25.6084V42.6332H29.001Z" fill="#D9D9D9"/>
<path d="M12.0381 61H15.4307L15.4307 47.5307H12.0381V45.0817H8.64557L8.64557 41.4083H5.25302L5.25302 37.7348H2.99132L2.99132 51.2041H6.38387V53.6531H8.64557V57.3265H12.0381V61Z" fill="#D9D9D9"/>
<rect x="-0.401367" y="29.1631" width="3.39255" height="3.67345" fill="#D9D9D9"/>
<path d="M348 64H344.601V50.5307H348V48.0817H351.4V44.4083H354.8V40.7348H357.067V54.2041H353.667V56.6531H351.4V60.3265H348V64Z" fill="#D9D9D9"/>
<path d="M352.534 39.5104V35.8369L340.068 35.8369V39.5104H337.802V43.1838H334.402V46.8573H331.002V49.3062L343.468 49.3062V45.6328H345.735V43.1838H349.134V39.5104H352.534Z" fill="#D9D9D9"/>
<path d="M331 22.3668V18.6934L343.466 18.6934V22.3668H345.733V26.0403L349.132 26.0403V29.7137H352.532V32.1627L340.066 32.1627V28.4892L337.8 28.4892V26.0403L334.4 26.0403V22.3668H331Z" fill="#D9D9D9"/>
<path d="M347.999 4L344.6 4V17.4693H347.999V19.9183H351.399V23.5917H354.799V27.2652H357.066V13.7959H353.666V11.3469H351.399V7.67345H347.999V4Z" fill="#D9D9D9"/>
<rect x="360.465" y="35.8369" width="3.39983" height="3.67345" transform="rotate(180 360.465 35.8369)" fill="#D9D9D9"/>
<path d="M63.8939 24.288C65.9419 23.264 66.9979 21.536 66.9979 19.456C66.9979 16.064 64.1179 13.6 57.9419 13.6H45.9739V36H58.5819C64.7579 36 68.0539 33.728 68.0539 29.824C68.0539 27.168 66.5179 25.248 63.8939 24.288ZM56.9179 18.88C58.6139 18.88 59.3819 19.456 59.3819 20.544C59.3819 21.632 58.6139 22.208 56.9179 22.208H53.3979V18.88H56.9179ZM57.9419 30.72H53.3979V27.2H57.9419C59.6059 27.2 60.4379 27.808 60.4379 28.96C60.4379 30.112 59.6059 30.72 57.9419 30.72ZM302.225 36.512C309.105 36.512 313.137 32.64 313.137 25.92V13.6H305.713V25.696C305.713 29.12 304.401 30.4 302.289 30.4C300.177 30.4 298.865 29.12 298.865 25.696V13.6H291.313V25.92C291.313 32.64 295.345 36.512 302.225 36.512Z" fill="#E62C20"/>
<path d="M70.7239 36H78.2759V13.6H70.7239V36ZM112.494 36H120.046V19.456H126.606V13.6H105.934V19.456H112.494V36ZM169.069 13.6V23.776L160.557 13.6H154.349V36H161.709V25.824L170.221 36H176.429V13.6H169.069ZM194.884 29.856C193.956 30.24 193.06 30.4 192.132 30.4C188.9 30.4 186.788 28.16 186.788 24.8C186.788 21.344 188.9 19.2 192.228 19.2C194.212 19.2 195.844 20.032 197.252 21.664L202.084 17.408C199.812 14.624 196.26 13.088 191.844 13.088C184.452 13.088 179.172 17.92 179.172 24.8C179.172 31.68 184.452 36.512 191.684 36.512C194.98 36.512 198.724 35.52 201.444 33.664V24.192H194.884V29.856ZM219.119 36H226.671V19.456H233.231V13.6H212.559V19.456H219.119V36ZM287.854 36L287.79 13.6H281.582L274.478 25.536L267.182 13.6H260.974V36H267.854V26.144L272.718 33.984H276.046L280.91 25.792L280.974 36H287.854ZM159.616 75H168.352L158.944 62.456L167.904 52.6H159.68L152.32 60.728V52.6H144.896V75H152.32V69.464L154.016 67.576L159.616 75ZM169.365 75H176.917V52.6H169.365V75ZM185.416 75H192.968V58.456H199.528V52.6H178.856V58.456H185.416V75Z" fill="white"/>
<path d="M96.6314 13.6V23.776L88.1194 13.6H81.9114V36H89.2714V25.824L97.7834 36H103.991V13.6H96.6314ZM218.258 75H226.066L216.274 52.6H208.85L199.058 75H206.738L208.242 71.096H216.754L218.258 75ZM210.322 65.656L212.498 60.024L214.674 65.656H210.322Z" fill="#F69722"/>
<path d="M145.336 36H153.144L143.352 13.6H135.928L126.136 36H133.816L135.32 32.096H143.832L145.336 36ZM137.4 26.656L139.576 21.024L141.752 26.656H137.4Z" fill="#9C4A9A"/>
<path d="M251.961 36H259.769L249.977 13.6H242.553L232.761 36H240.441L241.945 32.096H250.457L251.961 36ZM244.025 26.656L246.201 21.024L248.377 26.656H244.025Z" fill="#4A8068"/>
<path d="M311 14H296L297.5 31.511L307.5 32L311 14Z" fill="#E62C20" stroke="#E62C20" stroke-width="0.75"/>
<path d="M150 36H131L140 17L150 36Z" fill="#9C4A9A"/>
<path d="M100.5 36H85.5L88 22.5L100.5 36Z" fill="#F69722"/>
<path d="M62 16H50.5L51 32.5L62 33V16Z" fill="#E62C20"/>
<path d="M256.5 36H236.5L246 17.5L256.5 36Z" fill="#4A8068"/>
</svg>
