<svg width="1307" height="61" viewBox="0 0 1307 61" fill="none" xmlns="http://www.w3.org/2000/svg">
<path d="M538.608 20.6H527.824V43H535.376V37.496H538.608C544.848 37.496 548.816 34.232 548.816 29.048C548.816 23.864 544.848 20.6 538.608 20.6ZM538.128 31.672H535.376V26.424H538.128C540.208 26.424 541.2 27.416 541.2 29.048C541.2 30.68 540.208 31.672 538.128 31.672Z" fill="#E62C20"/>
<path d="M559.029 37.304V34.36H568.501V28.92H559.029V26.296H569.813V20.6H551.605V43H570.229V37.304H559.029ZM601.844 43H609.396V26.456H615.956V20.6H595.284V26.456H601.844V43ZM628.325 43.512C635.205 43.512 639.237 39.64 639.237 32.92V20.6H631.813V32.696C631.813 36.12 630.501 37.4 628.389 37.4C626.277 37.4 624.965 36.12 624.965 32.696V20.6H617.413V32.92C617.413 39.64 621.445 43.512 628.325 43.512ZM674.082 43.512C680.098 43.512 683.33 40.504 683.33 34.36V20.6H668.258V26.296H675.874V34.808C675.874 36.632 675.01 37.592 673.442 37.592C672.194 37.592 671.074 36.856 669.89 35.384L665.826 40.184C667.682 42.36 670.594 43.512 674.082 43.512ZM697.513 43.512C704.393 43.512 708.425 39.64 708.425 32.92V20.6H701.001V32.696C701.001 36.12 699.689 37.4 697.577 37.4C695.465 37.4 694.153 36.12 694.153 32.696V20.6H686.601V32.92C686.601 39.64 690.633 43.512 697.513 43.512ZM726.607 43H735.343L725.935 30.456L734.895 20.6H726.671L719.311 28.728V20.6H711.887V43H719.311V37.464L721.007 35.576L726.607 43ZM776.857 20.6V30.776L768.345 20.6H762.137V43H769.497V32.824L778.009 43H784.217V20.6H776.857Z" fill="white"/>
<path d="M586.545 43H594.609L589.905 36.088C592.593 34.712 594.129 32.28 594.129 29.048C594.129 23.864 590.161 20.6 583.921 20.6H573.137V43H580.689V37.368H582.737L586.545 43ZM586.513 29.048C586.513 30.68 585.521 31.672 583.441 31.672H580.689V26.424H583.441C585.521 26.424 586.513 27.416 586.513 29.048Z" fill="#F69722"/>
<path d="M657.419 20.6V30.776L648.907 20.6H642.699V43H650.059V32.824L658.571 43H664.779V20.6H657.419Z" fill="#4A8068"/>
<path d="M753.123 43H760.931L751.139 20.6H743.715L733.923 43H741.603L743.107 39.096H751.619L753.123 43ZM745.187 33.656L747.363 28.024L749.539 33.656H745.187Z" fill="#9C4A9A"/>
<path d="M0 30L482 30" stroke="#EEEEEE" stroke-width="5" stroke-linejoin="round"/>
<path d="M468.367 0L464.693 0V13.4693H468.367V15.9183H472.04V19.5917H475.714V23.2652H478.163V9.79587H474.489V7.3469H472.04V3.67345L468.367 3.67345V0Z" fill="#D9D9D9"/>
<path d="M491.632 0L495.306 0V13.4693H491.632V15.9183H487.959V19.5917H484.285V23.2652H481.836V9.79587H485.51V7.3469H487.959V3.67345L491.632 3.67345V0Z" fill="#D9D9D9"/>
<path d="M486.734 24.4896V28.1631H500.204V24.4896H502.653V20.8162H506.326V17.1427H510V14.6938L496.53 14.6938V18.3672H494.081V20.8162H490.408V24.4896H486.734Z" fill="#D9D9D9"/>
<path d="M510 41.6332V45.3066H496.531V41.6332H494.082V37.9597H490.408V34.2863H486.735V31.8373H500.204V35.5108H502.653V37.9597H506.327V41.6332H510Z" fill="#D9D9D9"/>
<path d="M491.633 60H495.307V46.5307H491.633V44.0817H487.96V40.4083H484.286V36.7348H481.837V50.2041H485.511V52.6531H487.96V56.3265H491.633V60Z" fill="#D9D9D9"/>
<path d="M468.367 60H464.693V46.5307H468.367V44.0817H472.04V40.4083H475.714V36.7348H478.163V50.2041H474.489V52.6531H472.04V56.3265H468.367V60Z" fill="#D9D9D9"/>
<path d="M450 18.3673V14.6938H463.469V18.3673H465.918V22.0407H469.592V25.7142H473.265V28.1632H459.796V24.4897H457.347V22.0407H453.673V18.3673H450Z" fill="#D9D9D9"/>
<path d="M473.266 35.5104L473.266 31.8369L459.796 31.8369L459.796 35.5104L457.347 35.5104L457.347 39.1838L453.674 39.1838L453.674 42.8573L450 42.8573L450 45.3062L463.47 45.3062L463.47 41.6328L465.919 41.6328L465.919 39.1838L469.592 39.1838L469.592 35.5104L473.266 35.5104Z" fill="#D9D9D9"/>
<rect x="478.164" y="28.1631" width="3.67347" height="3.67345" fill="#D9D9D9"/>
<path d="M1306.99 29.0034L824.992 29.0035" stroke="#EEEEEE" stroke-width="5" stroke-linejoin="round"/>
<path d="M838.633 61H842.307V47.5307H838.633V45.0817H834.96V41.4083H831.286V37.7348H828.837V51.2041H832.511V53.6531H834.96V57.3265H838.633V61Z" fill="#D9D9D9"/>
<path d="M815.368 61H811.694V47.5307H815.368V45.0817H819.041V41.4083H822.715V37.7348H825.164V51.2041H821.49V53.6531H819.041V57.3265H815.368V61Z" fill="#D9D9D9"/>
<path d="M820.266 36.5104V32.8369L806.796 32.8369V36.5104H804.347V40.1838H800.674V43.8573H797V46.3062L810.47 46.3062V42.6328H812.919V40.1838H816.592V36.5104H820.266Z" fill="#D9D9D9"/>
<path d="M797 19.3668V15.6934L810.469 15.6934V19.3668H812.918L812.918 23.0403L816.592 23.0403V26.7137H820.265V29.1627L806.796 29.1627V25.4892L804.347 25.4892V23.0403L800.673 23.0403V19.3668H797Z" fill="#D9D9D9"/>
<path d="M815.367 1L811.693 1V14.4693L815.367 14.4693V16.9183H819.04V20.5917H822.714V24.2652H825.163V10.7959H821.489V8.3469H819.04V4.67345H815.367V1Z" fill="#D9D9D9"/>
<path d="M838.633 1L842.307 1V14.4693L838.633 14.4693V16.9183H834.96V20.5917H831.286V24.2652H828.837V10.7959H832.511V8.3469H834.96V4.67345H838.633V1Z" fill="#D9D9D9"/>
<path d="M857 42.6327V46.3062L843.531 46.3062V42.6327H841.082V38.9593H837.408V35.2858H833.735V32.8368L847.204 32.8368L847.204 36.5103H849.653V38.9593H853.327V42.6327H857Z" fill="#D9D9D9"/>
<path d="M833.734 25.4896L833.734 29.1631L847.204 29.1631L847.204 25.4896L849.653 25.4896L849.653 21.8162L853.326 21.8162L853.326 18.1427L857 18.1427L857 15.6938L843.53 15.6938L843.53 19.3672L841.081 19.3672L841.081 21.8162L837.408 21.8162L837.408 25.4896L833.734 25.4896Z" fill="#D9D9D9"/>
<rect x="828.836" y="32.8369" width="3.67347" height="3.67345" transform="rotate(180 828.836 32.8369)" fill="#D9D9D9"/>
</svg>
