<svg width="1355" height="61" viewBox="0 0 1355 61" fill="none" xmlns="http://www.w3.org/2000/svg">
<path d="M547.145 43V20.6H557.929C560.02 20.6 561.823 20.9413 563.337 21.624C564.873 22.3067 566.057 23.288 566.889 24.568C567.721 25.8267 568.137 27.32 568.137 29.048C568.137 30.776 567.721 32.2693 566.889 33.528C566.057 34.7867 564.873 35.768 563.337 36.472C561.823 37.1547 560.02 37.496 557.929 37.496H551.337L554.697 34.264V43H547.145ZM554.697 35.096L551.337 31.672H557.449C558.495 31.672 559.263 31.4373 559.753 30.968C560.265 30.4987 560.521 29.8587 560.521 29.048C560.521 28.2373 560.265 27.5973 559.753 27.128C559.263 26.6587 558.495 26.424 557.449 26.424H551.337L554.697 23V35.096Z" fill="#E62C20"/>
<path d="M577.839 28.92H587.823V34.36H577.839V28.92ZM578.351 37.304H589.551V43H570.927V20.6H589.135V26.296H578.351V37.304ZM621.166 43V26.456H614.606V20.6H635.278V26.456H628.718V43H621.166ZM647.647 43.512C644.212 43.512 641.535 42.584 639.615 40.728C637.695 38.872 636.735 36.2693 636.735 32.92V20.6H644.287V32.696C644.287 34.4027 644.596 35.6187 645.215 36.344C645.833 37.048 646.665 37.4 647.711 37.4C648.777 37.4 649.609 37.048 650.207 36.344C650.825 35.6187 651.135 34.4027 651.135 32.696V20.6H658.559V32.92C658.559 36.2693 657.599 38.872 655.679 40.728C653.759 42.584 651.081 43.512 647.647 43.512ZM693.403 43.512C691.654 43.512 690.075 43.2347 688.667 42.68C687.259 42.104 686.086 41.272 685.147 40.184L689.211 35.384C689.808 36.1093 690.395 36.664 690.971 37.048C691.547 37.4107 692.144 37.592 692.763 37.592C694.384 37.592 695.195 36.664 695.195 34.808V26.296H687.579V20.6H702.651V34.36C702.651 37.432 701.862 39.7253 700.283 41.24C698.704 42.7547 696.411 43.512 693.403 43.512ZM716.834 43.512C713.399 43.512 710.722 42.584 708.802 40.728C706.882 38.872 705.922 36.2693 705.922 32.92V20.6H713.474V32.696C713.474 34.4027 713.783 35.6187 714.402 36.344C715.021 37.048 715.853 37.4 716.898 37.4C717.965 37.4 718.797 37.048 719.394 36.344C720.013 35.6187 720.322 34.4027 720.322 32.696V20.6H727.746V32.92C727.746 36.2693 726.786 38.872 724.866 40.728C722.946 42.584 720.269 43.512 716.834 43.512ZM737.96 38.2L737.544 29.912L745.992 20.6H754.216L744.744 31.032L740.552 35.32L737.96 38.2ZM731.208 43V20.6H738.632V43H731.208ZM745.928 43L739.336 34.296L744.232 29.112L754.664 43H745.928ZM781.458 43V20.6H787.666L799.058 34.232H796.178V20.6H803.538V43H797.33L785.938 29.368H788.818V43H781.458Z" fill="white"/>
<path d="M592.458 43V20.6H603.242C605.332 20.6 607.135 20.9413 608.65 21.624C610.186 22.3067 611.37 23.288 612.202 24.568C613.034 25.8267 613.45 27.32 613.45 29.048C613.45 30.776 613.034 32.2693 612.202 33.528C611.37 34.7653 610.186 35.7147 608.65 36.376C607.135 37.0373 605.332 37.368 603.242 37.368H596.65L600.01 34.264V43H592.458ZM605.866 43L600.362 34.84H608.362L613.93 43H605.866ZM600.01 35.096L596.65 31.672H602.762C603.807 31.672 604.575 31.4373 605.066 30.968C605.578 30.4987 605.834 29.8587 605.834 29.048C605.834 28.2373 605.578 27.5973 605.066 27.128C604.575 26.6587 603.807 26.424 602.762 26.424H596.65L600.01 23V35.096Z" fill="#F69722"/>
<path d="M662.02 43V20.6H668.228L679.62 34.232H676.74V20.6H684.1V43H677.892L666.5 29.368H669.38V43H662.02Z" fill="#4A8068"/>
<path d="M753.245 43L763.037 20.6H770.461L780.253 43H772.445L765.213 24.184H768.157L760.925 43H753.245ZM759.069 39.096L760.989 33.656H771.293L773.213 39.096H759.069Z" fill="#9C4A9A"/>
<path d="M0 30L499.705 30" stroke="#EEEEEE" stroke-width="5" stroke-linejoin="round"/>
<path d="M485.571 0L481.763 0V13.4693H485.571V15.9183H489.379V19.5917H493.188V23.2652H495.727V9.79587H491.918V7.3469H489.379V3.67345L485.571 3.67345V0Z" fill="#D9D9D9"/>
<path d="M509.691 0L513.499 0V13.4693H509.691V15.9183H505.882V19.5917H502.074V23.2652H499.535V9.79587H503.343V7.3469H505.882V3.67345L509.691 3.67345L509.691 0Z" fill="#D9D9D9"/>
<path d="M504.612 24.4896V28.1631H518.576V24.4896H521.115V20.8162H524.924V17.1427H528.732V14.6938L514.768 14.6938V18.3672H512.229V20.8162H508.421V24.4896H504.612Z" fill="#D9D9D9"/>
<path d="M528.733 41.6332V45.3066H514.769V41.6332H512.23V37.9597H508.422V34.2863H504.614V31.8373H518.578V35.5108H521.117V37.9597H524.925V41.6332H528.733Z" fill="#D9D9D9"/>
<path d="M509.692 60H513.5V46.5307H509.692V44.0817H505.883V40.4083H502.075V36.7348H499.536V50.2041H503.344V52.6531H505.883V56.3265H509.692V60Z" fill="#D9D9D9"/>
<path d="M485.571 60H481.763V46.5307H485.571V44.0817H489.379V40.4083H493.188V36.7348H495.727V50.2041H491.918V52.6531H489.379V56.3265H485.571L485.571 60Z" fill="#D9D9D9"/>
<path d="M466.529 18.3673V14.6938H480.493V18.3673H483.032V22.0407H486.841V25.7142H490.649V28.1632H476.685V24.4897H474.146V22.0407H470.338V18.3673H466.529Z" fill="#D9D9D9"/>
<path d="M490.649 35.5104L490.649 31.8369L476.685 31.8369L476.685 35.5104L474.146 35.5104L474.146 39.1838L470.338 39.1838L470.338 42.8573L466.53 42.8573L466.53 45.3062L480.494 45.3062L480.494 41.6328L483.033 41.6328L483.033 39.1838L486.841 39.1838L486.841 35.5104L490.649 35.5104Z" fill="#D9D9D9"/>
<rect x="495.728" y="28.1631" width="3.8084" height="3.67345" fill="#D9D9D9"/>
<path d="M1355 29.0034L855.295 29.0035" stroke="#EEEEEE" stroke-width="5" stroke-linejoin="round"/>
<path d="M869.437 61H873.245V47.5307H869.437V45.0817H865.628V41.4083H861.82V37.7348H859.281V51.2041H863.089V53.6531H865.628V57.3265H869.437V61Z" fill="#D9D9D9"/>
<path d="M845.317 61H841.509V47.5307H845.317V45.0817H849.126V41.4083H852.934V37.7348H855.473V51.2041H851.665V53.6531H849.126V57.3265H845.317V61Z" fill="#D9D9D9"/>
<path d="M850.395 36.5104V32.8369L836.43 32.8369V36.5104H833.891V40.1838H830.083V43.8573H826.275V46.3062L840.239 46.3062V42.6328H842.778V40.1838H846.586V36.5104H850.395Z" fill="#D9D9D9"/>
<path d="M826.274 19.3668V15.6934L840.239 15.6934V19.3668H842.777V23.0403L846.586 23.0403V26.7137H850.394V29.1627L836.43 29.1627V25.4892L833.891 25.4892V23.0403L830.083 23.0403V19.3668H826.274Z" fill="#D9D9D9"/>
<path d="M845.316 1L841.508 1V14.4693L845.316 14.4693V16.9183H849.125V20.5917H852.933V24.2652H855.472V10.7959H851.664V8.3469H849.125V4.67345H845.316V1Z" fill="#D9D9D9"/>
<path d="M869.437 1L873.245 1V14.4693L869.437 14.4693V16.9183H865.628V20.5917H861.82V24.2652H859.281V10.7959H863.089V8.3469H865.628V4.67345H869.437V1Z" fill="#D9D9D9"/>
<path d="M888.479 42.6327V46.3062L874.514 46.3062V42.6327H871.975V38.9593H868.167V35.2858H864.359V32.8368L878.323 32.8368V36.5103H880.862V38.9593H884.67V42.6327H888.479Z" fill="#D9D9D9"/>
<path d="M864.358 25.4896L864.358 29.1631L878.323 29.1631L878.323 25.4896L880.861 25.4896L880.861 21.8162L884.67 21.8162L884.67 18.1427L888.478 18.1427L888.478 15.6938L874.514 15.6938L874.514 19.3672L871.975 19.3672L871.975 21.8162L868.167 21.8162L868.167 25.4896L864.358 25.4896Z" fill="#D9D9D9"/>
<rect x="859.28" y="32.8369" width="3.8084" height="3.67345" transform="rotate(180 859.28 32.8369)" fill="#D9D9D9"/>
<path d="M551.5 34V23L565 25.5L564 29C563.5 30.6667 562.4 34 562 34H551.5Z" fill="#E62C20"/>
<path d="M596 34.5V23.5L609.5 27L608.5 32.5L596 34.5Z" fill="#F69722"/>
<path d="M682 43H666.5L665.5 30.5L670 29.5L682 43Z" fill="#4A8068"/>
<path d="M764 26.5H768L775.5 43H758.5L764 26.5Z" fill="#9C4A9A"/>
</svg>
