<svg width="541" height="60" viewBox="0 0 541 60" fill="none" xmlns="http://www.w3.org/2000/svg">
<path d="M9.26634 0H7.61328V6.06123H9.26634V7.16327H10.9194V8.81634H12.5725V10.4694H13.6745V4.40817H12.0215V3.30613H10.9194V1.65306H9.26634V0Z" fill="#4A8068"/>
<path d="M19.7337 0H21.3867V6.06123H19.7337V7.16327H18.0806V8.81634H16.4275V10.4694H15.3255V4.40817H16.9785V3.30613H18.0806V1.65306H19.7337V0Z" fill="#4A8068"/>
<path d="M17.5303 11.0203L17.5303 12.6733L23.5915 12.6733L23.5915 11.0203L24.6935 11.0203L24.6935 9.36721L26.3466 9.36721L26.3466 7.71415L27.9997 7.71415L27.9997 6.61211L21.9384 6.61211L21.9384 8.26517L20.8364 8.26517L20.8364 9.36721L19.1833 9.36721L19.1833 11.0203L17.5303 11.0203Z" fill="#4A8068"/>
<path d="M1 8.26537L1 6.6123L7.06123 6.6123L7.06123 8.26537L8.16327 8.26537L8.16327 9.91843L9.81634 9.91843L9.81634 11.5715L11.4694 11.5715L11.4694 12.6735L5.40817 12.6735L5.40817 11.0205L4.30613 11.0205L4.30613 9.91843L2.65306 9.91843L2.65306 8.26537L1 8.26537Z" fill="#4A8068"/>
<rect x="13.6738" y="12.6733" width="1.65306" height="1.65306" fill="#DF3727"/>
<path d="M433.266 0H431.613V6.06123H433.266V7.16327H434.919V8.81634H436.572V10.4694H437.675V4.40817H436.021V3.30613H434.919V1.65306H433.266V0Z" fill="#9C4A9A"/>
<path d="M443.734 0H445.387V6.06123H443.734V7.16327H442.081V8.81634H440.428V10.4694H439.325V4.40817H440.979V3.30613H442.081V1.65306H443.734V0Z" fill="#9C4A9A"/>
<path d="M441.53 11.0203L441.53 12.6733L447.592 12.6733L447.592 11.0203L448.694 11.0203L448.694 9.36721L450.347 9.36721L450.347 7.71415L452 7.71415L452 6.61211L445.938 6.61211L445.938 8.26517L444.836 8.26517L444.836 9.36721L443.183 9.36721L443.183 11.0203L441.53 11.0203Z" fill="#9C4A9A"/>
<path d="M452 18.7346L452 20.3877L445.939 20.3877L445.939 18.7346L444.837 18.7346L444.837 17.0816L443.184 17.0816L443.184 15.4285L441.531 15.4285L441.531 14.3265L447.592 14.3265L447.592 15.9795L448.694 15.9795L448.694 17.0816L450.347 17.0816L450.347 18.7346L452 18.7346Z" fill="#9C4A9A"/>
<path d="M425 8.26537L425 6.6123L431.061 6.6123L431.061 8.26537L432.163 8.26537L432.163 9.91843L433.816 9.91843L433.816 11.5715L435.469 11.5715L435.469 12.6735L429.408 12.6735L429.408 11.0205L428.306 11.0205L428.306 9.91843L426.653 9.91843L426.653 8.26537L425 8.26537Z" fill="#9C4A9A"/>
<path d="M435.47 15.9797L435.47 14.3267L429.408 14.3267L429.408 15.9797L428.306 15.9797L428.306 17.6328L426.653 17.6328L426.653 19.2859L425 19.2859L425 20.3879L431.062 20.3879L431.062 18.7348L432.164 18.7348L432.164 17.6328L433.817 17.6328L433.817 15.9797L435.47 15.9797Z" fill="#9C4A9A"/>
<rect x="437.674" y="12.6733" width="1.65306" height="1.65306" fill="#DF3727"/>
<path d="M393 49.0608L393 50.7139L386.939 50.7139L386.939 49.0608L385.837 49.0608L385.837 47.4077L384.184 47.4077L384.184 45.7547L382.531 45.7547L382.531 44.6526L388.592 44.6526L388.592 46.3057L389.694 46.3057L389.694 47.4077L391.347 47.4077L391.347 49.0608L393 49.0608Z" fill="#F69722"/>
<path d="M384.734 57.3267H386.387V51.2654H384.734V50.1634H383.081V48.5103H381.428V46.8573H380.325V52.9185H381.979V54.0205H383.081V55.6736H384.734V57.3267Z" fill="#F69722"/>
<path d="M374.265 57.3267H372.612V51.2654H374.265V50.1634H375.918V48.5103H377.571V46.8573H378.674V52.9185H377.02V54.0205H375.918V55.6736H374.265V57.3267Z" fill="#F69722"/>
<path d="M376.47 46.3064L376.47 44.6533L370.408 44.6533L370.408 46.3064L369.306 46.3064L369.306 47.9594L367.653 47.9594L367.653 49.6125L366 49.6125L366 50.7146L372.062 50.7146L372.062 49.0615L373.164 49.0615L373.164 47.9594L374.817 47.9594L374.817 46.3064L376.47 46.3064Z" fill="#F69722"/>
<rect x="378.674" y="43" width="1.65306" height="1.65306" fill="#DF3727"/>
<path d="M136.53 43.408L136.53 45.061L142.592 45.061L142.592 43.408L143.694 43.408L143.694 41.7549L145.347 41.7549L145.347 40.1018L147 40.1018L147 38.9998L140.938 38.9998L140.938 40.6529L139.836 40.6529L139.836 41.7549L138.183 41.7549L138.183 43.408L136.53 43.408Z" fill="#9C4A9A"/>
<path d="M147 51.1223L147 52.7754L140.939 52.7754L140.939 51.1223L139.837 51.1223L139.837 49.4693L138.184 49.4693L138.184 47.8162L136.531 47.8162L136.531 46.7142L142.592 46.7142L142.592 48.3672L143.694 48.3672L143.694 49.4693L145.347 49.4693L145.347 51.1223L147 51.1223Z" fill="#9C4A9A"/>
<path d="M138.734 59.3877H140.387V53.3265H138.734V52.2244H137.081V50.5714H135.428V48.9183H134.325V54.9795H135.979V56.0816H137.081V57.7346H138.734V59.3877Z" fill="#9C4A9A"/>
<path d="M128.265 59.3877H126.612V53.3265H128.265V52.2244H129.918V50.5714H131.571V48.9183H132.674V54.9795H131.02V56.0816H129.918V57.7346H128.265V59.3877Z" fill="#9C4A9A"/>
<path d="M130.47 48.3674L130.47 46.7144L124.408 46.7144L124.408 48.3674L123.306 48.3674L123.306 50.0205L121.653 50.0205L121.653 51.6735L120 51.6735L120 52.7756L126.062 52.7756L126.062 51.1225L127.164 51.1225L127.164 50.0205L128.817 50.0205L128.817 48.3674L130.47 48.3674Z" fill="#9C4A9A"/>
<rect x="132.674" y="45.061" width="1.65306" height="1.65306" fill="#DF3727"/>
<path d="M215.266 2H213.613V8.06123H215.266V9.16327H216.919V10.8163H218.572V12.4694H219.675V6.40817H218.021V5.30613H216.919V3.65306H215.266V2Z" fill="#E62C20"/>
<path d="M225.734 2H227.387V8.06123H225.734V9.16327H224.081V10.8163H222.428V12.4694H221.325V6.40817H222.979V5.30613H224.081V3.65306H225.734V2Z" fill="#E62C20"/>
<path d="M223.53 13.0203L223.53 14.6733L229.592 14.6733L229.592 13.0203L230.694 13.0203L230.694 11.3672L232.347 11.3672L232.347 9.71415L234 9.71415L234 8.61211L227.938 8.61211L227.938 10.2652L226.836 10.2652L226.836 11.3672L225.183 11.3672L225.183 13.0203L223.53 13.0203Z" fill="#E62C20"/>
<path d="M234 20.7346L234 22.3877L227.939 22.3877L227.939 20.7346L226.837 20.7346L226.837 19.0816L225.184 19.0816L225.184 17.4285L223.531 17.4285L223.531 16.3265L229.592 16.3265L229.592 17.9795L230.694 17.9795L230.694 19.0816L232.347 19.0816L232.347 20.7346L234 20.7346Z" fill="#E62C20"/>
<path d="M207 10.2654L207 8.6123L213.061 8.6123L213.061 10.2654L214.163 10.2654L214.163 11.9184L215.816 11.9184L215.816 13.5715L217.469 13.5715L217.469 14.6735L211.408 14.6735L211.408 13.0205L210.306 13.0205L210.306 11.9184L208.653 11.9184L208.653 10.2654L207 10.2654Z" fill="#E62C20"/>
<path d="M217.47 17.9797L217.47 16.3267L211.408 16.3267L211.408 17.9797L210.306 17.9797L210.306 19.6328L208.653 19.6328L208.653 21.2859L207 21.2859L207 22.3879L213.062 22.3879L213.062 20.7348L214.164 20.7348L214.164 19.6328L215.817 19.6328L215.817 17.9797L217.47 17.9797Z" fill="#E62C20"/>
<rect x="219.674" y="14.6733" width="1.65306" height="1.65306" fill="#DF3727"/>
<path d="M2.736 47V13.4H18.912C22.048 13.4 24.752 13.912 27.024 14.936C29.328 15.96 31.104 17.432 32.352 19.352C33.6 21.24 34.224 23.48 34.224 26.072C34.224 28.664 33.6 30.904 32.352 32.792C31.104 34.68 29.328 36.152 27.024 37.208C24.752 38.232 22.048 38.744 18.912 38.744H9.024L14.064 33.896V47H2.736ZM14.064 35.144L9.024 30.008H18.192C19.76 30.008 20.912 29.656 21.648 28.952C22.416 28.248 22.8 27.288 22.8 26.072C22.8 24.856 22.416 23.896 21.648 23.192C20.912 22.488 19.76 22.136 18.192 22.136H9.024L14.064 17V35.144ZM37.9391 47V13.4H54.1151C57.2511 13.4 59.9551 13.912 62.2271 14.936C64.5311 15.96 66.3071 17.432 67.5551 19.352C68.8031 21.24 69.4271 23.48 69.4271 26.072C69.4271 28.664 68.8031 30.904 67.5551 32.792C66.3071 34.648 64.5311 36.072 62.2271 37.064C59.9551 38.056 57.2511 38.552 54.1151 38.552H44.2271L49.2671 33.896V47H37.9391ZM58.0511 47L49.7951 34.76H61.7951L70.1471 47H58.0511ZM49.2671 35.144L44.2271 30.008H53.3951C54.9631 30.008 56.1151 29.656 56.8511 28.952C57.6191 28.248 58.0031 27.288 58.0031 26.072C58.0031 24.856 57.6191 23.896 56.8511 23.192C56.1151 22.488 54.9631 22.136 53.3951 22.136H44.2271L49.2671 17V35.144ZM70.0567 47L84.7448 13.4H95.8808L110.569 47H98.8568L88.0088 18.776H92.4248L81.5768 47H70.0567ZM78.7928 41.144L81.6728 32.984H97.1288L100.009 41.144H78.7928ZM112.377 47V13.4H128.937C132.681 13.4 135.977 14.088 138.825 15.464C141.673 16.808 143.897 18.728 145.497 21.224C147.097 23.72 147.897 26.696 147.897 30.152C147.897 33.64 147.097 36.648 145.497 39.176C143.897 41.672 141.673 43.608 138.825 44.984C135.977 46.328 132.681 47 128.937 47H112.377ZM123.705 38.168H128.457C130.057 38.168 131.449 37.864 132.633 37.256C133.849 36.648 134.793 35.752 135.465 34.568C136.137 33.352 136.473 31.88 136.473 30.152C136.473 28.456 136.137 27.016 135.465 25.832C134.793 24.648 133.849 23.752 132.633 23.144C131.449 22.536 130.057 22.232 128.457 22.232H123.705V38.168ZM152.033 47V13.4H163.361V47H152.033ZM178.942 39.8L178.318 27.368L190.99 13.4H203.326L189.118 29.048L182.83 35.48L178.942 39.8ZM168.814 47V13.4H179.95V47H168.814ZM190.894 47L181.006 33.944L188.35 26.168L203.998 47H190.894ZM200.182 47L214.87 13.4H226.006L240.694 47H228.982L218.134 18.776H222.55L211.702 47H200.182ZM208.918 41.144L211.798 32.984H227.254L230.134 41.144H208.918ZM256.892 47V13.4H273.068C276.204 13.4 278.908 13.912 281.18 14.936C283.484 15.96 285.26 17.432 286.508 19.352C287.756 21.24 288.38 23.48 288.38 26.072C288.38 28.664 287.756 30.904 286.508 32.792C285.26 34.68 283.484 36.152 281.18 37.208C278.908 38.232 276.204 38.744 273.068 38.744H263.18L268.22 33.896V47H256.892ZM268.22 35.144L263.18 30.008H272.348C273.916 30.008 275.068 29.656 275.804 28.952C276.572 28.248 276.956 27.288 276.956 26.072C276.956 24.856 276.572 23.896 275.804 23.192C275.068 22.488 273.916 22.136 272.348 22.136H263.18L268.22 17V35.144ZM292.095 47V13.4H308.271C311.407 13.4 314.111 13.912 316.383 14.936C318.687 15.96 320.463 17.432 321.711 19.352C322.959 21.24 323.583 23.48 323.583 26.072C323.583 28.664 322.959 30.904 321.711 32.792C320.463 34.648 318.687 36.072 316.383 37.064C314.111 38.056 311.407 38.552 308.271 38.552H298.383L303.423 33.896V47H292.095ZM312.207 47L303.951 34.76H315.951L324.303 47H312.207ZM303.423 35.144L298.383 30.008H307.551C309.119 30.008 310.271 29.656 311.007 28.952C311.775 28.248 312.159 27.288 312.159 26.072C312.159 24.856 311.775 23.896 311.007 23.192C310.271 22.488 309.119 22.136 307.551 22.136H298.383L303.423 17V35.144ZM324.213 47L338.901 13.4H350.037L364.725 47H353.013L342.165 18.776H346.581L335.733 47H324.213ZM332.949 41.144L335.829 32.984H351.285L354.165 41.144H332.949ZM379.061 47.768C376.245 47.768 373.525 47.448 370.901 46.808C368.277 46.168 366.117 45.336 364.421 44.312L368.069 36.056C369.669 36.984 371.445 37.736 373.397 38.312C375.381 38.856 377.301 39.128 379.157 39.128C380.245 39.128 381.093 39.064 381.701 38.936C382.341 38.776 382.805 38.568 383.093 38.312C383.381 38.024 383.525 37.688 383.525 37.304C383.525 36.696 383.189 36.216 382.517 35.864C381.845 35.512 380.949 35.224 379.829 35C378.741 34.744 377.541 34.488 376.229 34.232C374.917 33.944 373.589 33.576 372.245 33.128C370.933 32.68 369.717 32.088 368.597 31.352C367.509 30.616 366.629 29.656 365.957 28.472C365.285 27.256 364.949 25.752 364.949 23.96C364.949 21.88 365.525 19.992 366.677 18.296C367.861 16.568 369.605 15.192 371.909 14.168C374.245 13.144 377.141 12.632 380.597 12.632C382.869 12.632 385.109 12.872 387.317 13.352C389.525 13.832 391.509 14.568 393.269 15.56L389.861 23.768C388.197 22.936 386.581 22.312 385.013 21.896C383.477 21.48 381.973 21.272 380.501 21.272C379.413 21.272 378.549 21.368 377.909 21.56C377.269 21.752 376.805 22.008 376.517 22.328C376.261 22.648 376.133 23 376.133 23.384C376.133 23.96 376.469 24.424 377.141 24.776C377.813 25.096 378.693 25.368 379.781 25.592C380.901 25.816 382.117 26.056 383.429 26.312C384.773 26.568 386.101 26.92 387.413 27.368C388.725 27.816 389.925 28.408 391.013 29.144C392.133 29.88 393.029 30.84 393.701 32.024C394.373 33.208 394.709 34.68 394.709 36.44C394.709 38.488 394.117 40.376 392.933 42.104C391.781 43.8 390.053 45.176 387.749 46.232C385.445 47.256 382.549 47.768 379.061 47.768ZM394.432 47L409.12 13.4H420.256L434.944 47H423.232L412.384 18.776H416.8L405.952 47H394.432ZM403.168 41.144L406.048 32.984H421.504L424.384 41.144H403.168ZM436.752 47V13.4H452.928C456.064 13.4 458.768 13.912 461.04 14.936C463.344 15.96 465.12 17.432 466.368 19.352C467.616 21.24 468.24 23.48 468.24 26.072C468.24 28.664 467.616 30.904 466.368 32.792C465.12 34.648 463.344 36.072 461.04 37.064C458.768 38.056 456.064 38.552 452.928 38.552H443.04L448.08 33.896V47H436.752ZM456.864 47L448.608 34.76H460.608L468.96 47H456.864ZM448.08 35.144L443.04 30.008H452.208C453.776 30.008 454.928 29.656 455.664 28.952C456.432 28.248 456.816 27.288 456.816 26.072C456.816 24.856 456.432 23.896 455.664 23.192C454.928 22.488 453.776 22.136 452.208 22.136H443.04L448.08 17V35.144ZM468.869 47L483.557 13.4H494.693L509.381 47H497.669L486.821 18.776H491.237L480.389 47H468.869ZM477.605 41.144L480.485 32.984H495.941L498.821 41.144H477.605Z" fill="white"/>
<path d="M0 53H508.469V55.4H0V53Z" fill="white"/>
</svg>
