<svg width="1324" height="64" viewBox="0 0 1324 64" fill="none" xmlns="http://www.w3.org/2000/svg">
<path d="M417.544 56.512C424.424 56.512 428.456 52.64 428.456 45.92V33.6H421.032V45.696C421.032 49.12 419.72 50.4 417.608 50.4C415.496 50.4 414.184 49.12 414.184 45.696V33.6H406.632V45.92C406.632 52.64 410.664 56.512 417.544 56.512ZM457.637 56H465.189V33.6H457.637V56ZM473.688 56H481.24V39.456H487.8V33.6H467.128V39.456H473.688V56ZM514.075 56H522.811L513.403 43.456L522.363 33.6H514.139L506.779 41.728V33.6H499.355V56H506.779V50.464L508.475 48.576L514.075 56ZM531.248 50.304V47.36H540.72V41.92H531.248V39.296H542.032V33.6H523.824V56H542.448V50.304H531.248ZM560.171 49.856C559.243 50.24 558.347 50.4 557.419 50.4C554.187 50.4 552.075 48.16 552.075 44.8C552.075 41.344 554.187 39.2 557.515 39.2C559.499 39.2 561.131 40.032 562.539 41.664L567.371 37.408C565.099 34.624 561.547 33.088 557.131 33.088C549.739 33.088 544.459 37.92 544.459 44.8C544.459 51.68 549.739 56.512 556.971 56.512C560.267 56.512 564.011 55.52 566.731 53.664V44.192H560.171V49.856ZM569.949 56H577.501V33.6H569.949V56ZM611.782 56H619.334V39.456H625.894V33.6H605.222V39.456H611.782V56ZM668.357 33.6V43.776L659.845 33.6H653.637V56H660.997V45.824L669.509 56H675.717V33.6H668.357ZM715.829 56L715.765 33.6H709.557L702.453 45.536L695.157 33.6H688.949V56H695.829V46.144L700.693 53.984H704.021L708.885 45.792L708.949 56H715.829ZM759.79 33.6V41.536H752.814V33.6H745.262V56H752.814V47.744H759.79V56H767.342V33.6H759.79ZM805.114 56.512C812.058 56.512 815.546 53.056 815.546 48.96C815.546 40.704 803.161 42.944 803.161 40.256C803.161 39.488 803.866 38.848 806.074 38.848C808.026 38.848 810.106 39.392 812.314 40.512L814.586 35.04C812.25 33.728 809.146 33.088 806.138 33.088C799.194 33.088 795.706 36.48 795.706 40.64C795.706 48.992 808.09 46.72 808.09 49.536C808.09 50.304 807.322 50.752 805.178 50.752C802.714 50.752 799.898 49.952 797.786 48.704L795.354 54.208C797.594 55.584 801.37 56.512 805.114 56.512ZM817.793 56H825.345V33.6H817.793V56ZM837.332 56.512C844.276 56.512 847.764 53.056 847.764 48.96C847.764 40.704 835.38 42.944 835.38 40.256C835.38 39.488 836.084 38.848 838.292 38.848C840.244 38.848 842.324 39.392 844.532 40.512L846.804 35.04C844.468 33.728 841.364 33.088 838.356 33.088C831.412 33.088 827.924 36.48 827.924 40.64C827.924 48.992 840.308 46.72 840.308 49.536C840.308 50.304 839.54 50.752 837.396 50.752C834.932 50.752 832.116 49.952 830.004 48.704L827.572 54.208C829.812 55.584 833.588 56.512 837.332 56.512ZM879.292 33.6L875.164 46.496L871.26 33.6H864.316L860.188 46.336L856.284 33.6H848.508L855.676 56H863.772L867.58 44.032L871.196 56H879.292L886.46 33.6H879.292Z" fill="#EEEEEE"/>
<path d="M446.638 33.6V43.776L438.126 33.6H431.918V56H439.278V45.824L447.79 56H453.998V33.6H446.638Z" fill="#4A8068"/>
<path d="M597.905 56H605.713L595.921 33.6H588.497L578.704 56H586.385L587.889 52.096H596.401L597.905 56ZM589.969 46.656L592.145 41.024L594.321 46.656H589.969ZM787.748 56H795.556L785.764 33.6H778.34L768.548 56H776.228L777.732 52.096H786.244L787.748 56ZM779.812 46.656L781.988 41.024L784.164 46.656H779.812Z" fill="#E62C20"/>
<path d="M644.623 56H652.431L642.639 33.6H635.215L625.423 56H633.103L634.607 52.096H643.119L644.623 56ZM636.687 46.656L638.863 41.024L641.039 46.656H636.687ZM905.373 56H913.181L903.389 33.6H895.965L886.173 56H893.853L895.357 52.096H903.869L905.373 56ZM897.437 46.656L899.613 41.024L901.789 46.656H897.437Z" fill="#9C4A9A"/>
<path d="M736.248 56H744.056L734.264 33.6H726.84L717.048 56H724.728L726.232 52.096H734.744L736.248 56ZM728.312 46.656L730.488 41.024L732.664 46.656H728.312Z" fill="#F69722"/>
<path d="M0 31L349.686 31" stroke="#EEEEEE" stroke-width="5" stroke-linejoin="round"/>
<path d="M340.366 0L336.692 0V13.4693H340.366V15.9183H344.039V19.5917H347.713V23.2652H350.162V9.79587L346.488 9.79587V7.3469H344.039V3.67345H340.366L340.366 0Z" fill="#D9D9D9"/>
<path d="M363.63 0L367.304 0V13.4693H363.63V15.9183H359.957V19.5917H356.284V23.2652H353.835V9.79587L357.508 9.79587V7.3469H359.957V3.67345H363.63V0Z" fill="#D9D9D9"/>
<path d="M358.733 24.4896V28.1631H372.203V24.4896H374.651V20.8162H378.325V17.1427H381.998V14.6938L368.529 14.6938V18.3672H366.08V20.8162H362.407V24.4896H358.733Z" fill="#D9D9D9"/>
<path d="M382 41.6332V45.3066H368.531V41.6332H366.082V37.9597H362.409V34.2863H358.735V31.8373H372.204V35.5108H374.653V37.9597H378.327V41.6332H382Z" fill="#D9D9D9"/>
<path d="M363.631 60H367.305V46.5307H363.631V44.0817H359.958V40.4083H356.284V36.7348H353.836V50.2041H357.509V52.6531H359.958V56.3265H363.631L363.631 60Z" fill="#D9D9D9"/>
<path d="M340.366 60H336.692V46.5307H340.366V44.0817H344.039V40.4083H347.713V36.7348H350.162V50.2041H346.488V52.6531H344.039V56.3265H340.366V60Z" fill="#D9D9D9"/>
<path d="M322 18.3673V14.6938L335.469 14.6938V18.3673H337.918V22.0407H341.591V25.7142H345.265V28.1632H331.796V24.4897H329.347V22.0407H325.673V18.3673H322Z" fill="#D9D9D9"/>
<path d="M345.265 35.5104L345.265 31.8369L331.796 31.8369L331.796 35.5104L329.347 35.5104L329.347 39.1838L325.673 39.1838L325.673 42.8573L322 42.8573L322 45.3062L335.469 45.3062L335.469 41.6328L337.918 41.6328L337.918 39.1838L341.591 39.1838L341.591 35.5104L345.265 35.5104Z" fill="#D9D9D9"/>
<rect x="350.164" y="28.1631" width="3.6734" height="3.67345" fill="#D9D9D9"/>
<path d="M1323 28L964.992 29.0034" stroke="#EEEEEE" stroke-width="5" stroke-linejoin="round"/>
<path d="M978.633 61H982.307V47.5307H978.633V45.0817H974.96V41.4083H971.286V37.7348H968.837V51.2041H972.511V53.6531H974.96V57.3265H978.633V61Z" fill="#D9D9D9"/>
<path d="M955.368 61H951.694V47.5307H955.368V45.0817H959.041V41.4083H962.715V37.7348H965.164V51.2041H961.49V53.6531H959.041V57.3265H955.368V61Z" fill="#D9D9D9"/>
<path d="M960.266 36.5104V32.8369L946.796 32.8369V36.5104H944.347V40.1838H940.674V43.8573H937V46.3062L950.47 46.3062V42.6328H952.919V40.1838H956.592V36.5104H960.266Z" fill="#D9D9D9"/>
<path d="M937 19.3668V15.6934L950.469 15.6934V19.3668H952.918L952.918 23.0403L956.592 23.0403V26.7137H960.265V29.1627L946.796 29.1627V25.4892L944.347 25.4892V23.0403L940.673 23.0403V19.3668H937Z" fill="#D9D9D9"/>
<path d="M955.367 1L951.693 1V14.4693L955.367 14.4693V16.9183H959.04V20.5917H962.714V24.2652H965.163V10.7959H961.489V8.3469H959.04V4.67345H955.367V1Z" fill="#D9D9D9"/>
<path d="M978.633 1L982.307 1V14.4693L978.633 14.4693V16.9183H974.96V20.5917H971.286V24.2652H968.837V10.7959H972.511V8.3469H974.96V4.67345H978.633V1Z" fill="#D9D9D9"/>
<path d="M997 42.6327V46.3062L983.531 46.3062V42.6327H981.082V38.9593H977.408V35.2858H973.735V32.8368L987.204 32.8368L987.204 36.5103H989.653V38.9593H993.327V42.6327H997Z" fill="#D9D9D9"/>
<path d="M973.734 25.4896L973.734 29.1631L987.204 29.1631L987.204 25.4896L989.653 25.4896L989.653 21.8162L993.326 21.8162L993.326 18.1427L997 18.1427L997 15.6938L983.53 15.6938L983.53 19.3672L981.081 19.3672L981.081 21.8162L977.408 21.8162L977.408 25.4896L973.734 25.4896Z" fill="#D9D9D9"/>
<rect x="968.836" y="32.8369" width="3.67347" height="3.67345" transform="rotate(180 968.836 32.8369)" fill="#D9D9D9"/>
</svg>
