<svg width="1324" height="61" viewBox="0 0 1324 61" fill="none" xmlns="http://www.w3.org/2000/svg">
<path d="M0 31L349.686 31" stroke="#EEEEEE" stroke-width="5" stroke-linejoin="round"/>
<path d="M340.366 0L336.692 0V13.4693H340.366V15.9183H344.039V19.5917H347.713V23.2652H350.162V9.79587L346.488 9.79587V7.3469H344.039V3.67345H340.366L340.366 0Z" fill="#D9D9D9"/>
<path d="M363.63 0L367.304 0V13.4693H363.63V15.9183H359.957V19.5917H356.284V23.2652H353.835V9.79587L357.508 9.79587V7.3469H359.957V3.67345H363.63V0Z" fill="#D9D9D9"/>
<path d="M358.733 24.4896V28.1631H372.203V24.4896H374.651V20.8162H378.325V17.1427H381.998V14.6938L368.529 14.6938V18.3672H366.08V20.8162H362.407V24.4896H358.733Z" fill="#D9D9D9"/>
<path d="M382 41.6332V45.3066H368.531V41.6332H366.082V37.9597H362.409V34.2863H358.735V31.8373H372.204V35.5108H374.653V37.9597H378.327V41.6332H382Z" fill="#D9D9D9"/>
<path d="M363.631 60H367.305V46.5307H363.631V44.0817H359.958V40.4083H356.284V36.7348H353.836V50.2041H357.509V52.6531H359.958V56.3265H363.631L363.631 60Z" fill="#D9D9D9"/>
<path d="M340.366 60H336.692V46.5307H340.366V44.0817H344.039V40.4083H347.713V36.7348H350.162V50.2041H346.488V52.6531H344.039V56.3265H340.366V60Z" fill="#D9D9D9"/>
<path d="M322 18.3673V14.6938L335.469 14.6938V18.3673H337.918V22.0407H341.591V25.7142H345.265V28.1632H331.796V24.4897H329.347V22.0407H325.673V18.3673H322Z" fill="#D9D9D9"/>
<path d="M345.265 35.5104L345.265 31.8369L331.796 31.8369L331.796 35.5104L329.347 35.5104L329.347 39.1838L325.673 39.1838L325.673 42.8573L322 42.8573L322 45.3062L335.469 45.3062L335.469 41.6328L337.918 41.6328L337.918 39.1838L341.591 39.1838L341.591 35.5104L345.265 35.5104Z" fill="#D9D9D9"/>
<rect x="350.164" y="28.1631" width="3.6734" height="3.67345" fill="#D9D9D9"/>
<path d="M1323 28L964.992 29.0034" stroke="#EEEEEE" stroke-width="5" stroke-linejoin="round"/>
<path d="M978.633 61H982.307V47.5307H978.633V45.0817H974.96V41.4083H971.286V37.7348H968.837V51.2041H972.511V53.6531H974.96V57.3265H978.633V61Z" fill="#D9D9D9"/>
<path d="M955.368 61H951.694V47.5307H955.368V45.0817H959.041V41.4083H962.715V37.7348H965.164V51.2041H961.49V53.6531H959.041V57.3265H955.368V61Z" fill="#D9D9D9"/>
<path d="M960.266 36.5104V32.8369L946.796 32.8369V36.5104H944.347V40.1838H940.674V43.8573H937V46.3062L950.47 46.3062V42.6328H952.919V40.1838H956.592V36.5104H960.266Z" fill="#D9D9D9"/>
<path d="M937 19.3668V15.6934L950.469 15.6934V19.3668H952.918L952.918 23.0403L956.592 23.0403V26.7137H960.265V29.1627L946.796 29.1627V25.4892L944.347 25.4892V23.0403L940.673 23.0403V19.3668H937Z" fill="#D9D9D9"/>
<path d="M955.367 1L951.693 1V14.4693L955.367 14.4693V16.9183H959.04V20.5917H962.714V24.2652H965.163V10.7959H961.489V8.3469H959.04V4.67345H955.367V1Z" fill="#D9D9D9"/>
<path d="M978.633 1L982.307 1V14.4693L978.633 14.4693V16.9183H974.96V20.5917H971.286V24.2652H968.837V10.7959H972.511V8.3469H974.96V4.67345H978.633V1Z" fill="#D9D9D9"/>
<path d="M997 42.6327V46.3062L983.531 46.3062V42.6327H981.082V38.9593H977.408V35.2858H973.735V32.8368L987.204 32.8368L987.204 36.5103H989.653V38.9593H993.327V42.6327H997Z" fill="#D9D9D9"/>
<path d="M973.734 25.4896L973.734 29.1631L987.204 29.1631L987.204 25.4896L989.653 25.4896L989.653 21.8162L993.326 21.8162L993.326 18.1427L997 18.1427L997 15.6938L983.53 15.6938L983.53 19.3672L981.081 19.3672L981.081 21.8162L977.408 21.8162L977.408 25.4896L973.734 25.4896Z" fill="#D9D9D9"/>
<rect x="968.836" y="32.8369" width="3.67347" height="3.67345" transform="rotate(180 968.836 32.8369)" fill="#D9D9D9"/>
<path d="M416.544 44.512C423.424 44.512 427.456 40.64 427.456 33.92V21.6H420.032V33.696C420.032 37.12 418.72 38.4 416.608 38.4C414.496 38.4 413.184 37.12 413.184 33.696V21.6H405.632V33.92C405.632 40.64 409.664 44.512 416.544 44.512ZM456.637 44H464.189V21.6H456.637V44ZM472.688 44H480.24V27.456H486.8V21.6H466.128V27.456H472.688V44ZM513.075 44H521.811L512.403 31.456L521.363 21.6H513.139L505.779 29.728V21.6H498.355V44H505.779V38.464L507.475 36.576L513.075 44ZM530.248 38.304V35.36H539.72V29.92H530.248V27.296H541.032V21.6H522.824V44H541.448V38.304H530.248ZM559.171 37.856C558.243 38.24 557.347 38.4 556.419 38.4C553.187 38.4 551.075 36.16 551.075 32.8C551.075 29.344 553.187 27.2 556.515 27.2C558.499 27.2 560.131 28.032 561.539 29.664L566.371 25.408C564.099 22.624 560.547 21.088 556.131 21.088C548.739 21.088 543.459 25.92 543.459 32.8C543.459 39.68 548.739 44.512 555.971 44.512C559.267 44.512 563.011 43.52 565.731 41.664V32.192H559.171V37.856ZM568.949 44H576.501V21.6H568.949V44ZM610.782 44H618.334V27.456H624.894V21.6H604.222V27.456H610.782V44ZM667.357 21.6V31.776L658.845 21.6H652.637V44H659.997V33.824L668.509 44H674.717V21.6H667.357ZM714.829 44L714.765 21.6H708.557L701.453 33.536L694.157 21.6H687.949V44H694.829V34.144L699.693 41.984H703.021L707.885 33.792L707.949 44H714.829ZM758.79 21.6V29.536H751.814V21.6H744.262V44H751.814V35.744H758.79V44H766.342V21.6H758.79ZM804.114 44.512C811.058 44.512 814.546 41.056 814.546 36.96C814.546 28.704 802.161 30.944 802.161 28.256C802.161 27.488 802.866 26.848 805.074 26.848C807.026 26.848 809.106 27.392 811.314 28.512L813.586 23.04C811.25 21.728 808.146 21.088 805.138 21.088C798.194 21.088 794.706 24.48 794.706 28.64C794.706 36.992 807.09 34.72 807.09 37.536C807.09 38.304 806.322 38.752 804.178 38.752C801.714 38.752 798.898 37.952 796.786 36.704L794.354 42.208C796.594 43.584 800.37 44.512 804.114 44.512ZM816.793 44H824.345V21.6H816.793V44ZM836.332 44.512C843.276 44.512 846.764 41.056 846.764 36.96C846.764 28.704 834.38 30.944 834.38 28.256C834.38 27.488 835.084 26.848 837.292 26.848C839.244 26.848 841.324 27.392 843.532 28.512L845.804 23.04C843.468 21.728 840.364 21.088 837.356 21.088C830.412 21.088 826.924 24.48 826.924 28.64C826.924 36.992 839.308 34.72 839.308 37.536C839.308 38.304 838.54 38.752 836.396 38.752C833.932 38.752 831.116 37.952 829.004 36.704L826.572 42.208C828.812 43.584 832.588 44.512 836.332 44.512ZM878.292 21.6L874.164 34.496L870.26 21.6H863.316L859.188 34.336L855.284 21.6H847.508L854.676 44H862.772L866.58 32.032L870.196 44H878.292L885.46 21.6H878.292Z" fill="#EEEEEE"/>
<path d="M445.638 21.6V31.776L437.126 21.6H430.918V44H438.278V33.824L446.79 44H452.998V21.6H445.638Z" fill="#4A8068"/>
<path d="M596.905 44H604.713L594.921 21.6H587.497L577.704 44H585.385L586.889 40.096H595.401L596.905 44ZM588.969 34.656L591.145 29.024L593.321 34.656H588.969ZM786.748 44H794.556L784.764 21.6H777.34L767.548 44H775.228L776.732 40.096H785.244L786.748 44ZM778.812 34.656L780.988 29.024L783.164 34.656H778.812Z" fill="#E62C20"/>
<path d="M643.623 44H651.431L641.639 21.6H634.215L624.423 44H632.103L633.607 40.096H642.119L643.623 44ZM635.687 34.656L637.863 29.024L640.039 34.656H635.687ZM904.373 44H912.181L902.389 21.6H894.965L885.173 44H892.853L894.357 40.096H902.869L904.373 44ZM896.437 34.656L898.613 29.024L900.789 34.656H896.437Z" fill="#9C4A9A"/>
<path d="M735.248 44H743.056L733.264 21.6H725.84L716.048 44H723.728L725.232 40.096H733.744L735.248 44ZM727.312 34.656L729.488 29.024L731.664 34.656H727.312Z" fill="#F69722"/>
<path d="M600.5 43H581.5L589.5 24L600.5 43Z" fill="#E62C20"/>
<path d="M647.5 43H628.5L636.5 24.5L647.5 43Z" fill="#9C4A9A"/>
<path d="M449.5 43H434L436 28L449.5 43Z" fill="#4A8068"/>
<path d="M739 43H719.5L727.5 23L739 43Z" fill="#F69722"/>
<path d="M790 43H771L780.5 25L790 43Z" fill="#E62C20"/>
<path d="M907.5 43H889.5L898 25L907.5 43Z" fill="#9C4A9A"/>
</svg>
