<svg width="1323" height="63" viewBox="0 0 1323 63" fill="none" xmlns="http://www.w3.org/2000/svg">
<path d="M0 33L287 33" stroke="#EEEEEE" stroke-width="5" stroke-linejoin="round"/>
<path d="M273.366 3L269.692 3V16.4693H273.366V18.9183H277.039V22.5917H280.713V26.2652H283.162V12.7959L279.488 12.7959V10.3469H277.039V6.67345H273.366L273.366 3Z" fill="#D9D9D9"/>
<path d="M296.63 3L300.304 3V16.4693H296.63V18.9183H292.957V22.5917H289.284V26.2652H286.835V12.7959L290.508 12.7959V10.3469H292.957V6.67345H296.63V3Z" fill="#D9D9D9"/>
<path d="M291.733 27.4896V31.1631H305.203V27.4896H307.651V23.8162H311.325V20.1427H314.998V17.6938H301.529V21.3672H299.08V23.8162H295.407V27.4896H291.733Z" fill="#D9D9D9"/>
<path d="M315 44.6332V48.3066H301.531V44.6332H299.082V40.9597H295.409V37.2863H291.735V34.8373H305.204V38.5108H307.653V40.9597H311.327V44.6332H315Z" fill="#D9D9D9"/>
<path d="M296.631 63H300.305V49.5307H296.631V47.0817H292.958V43.4083H289.284V39.7348H286.836V53.2041H290.509V55.6531H292.958V59.3265H296.631L296.631 63Z" fill="#D9D9D9"/>
<path d="M273.366 63H269.692V49.5307H273.366V47.0817H277.039V43.4083H280.713V39.7348H283.162V53.2041H279.488V55.6531H277.039V59.3265H273.366V63Z" fill="#D9D9D9"/>
<path d="M255 21.3673V17.6938H268.469V21.3673H270.918V25.0407H274.591V28.7142H278.265V31.1632H264.796V27.4897H262.347V25.0407H258.673V21.3673H255Z" fill="#D9D9D9"/>
<path d="M278.265 38.5104L278.265 34.8369L264.796 34.8369L264.796 38.5104L262.347 38.5104L262.347 42.1838L258.673 42.1838L258.673 45.8573L255 45.8573L255 48.3062L268.469 48.3062L268.469 44.6328L270.918 44.6328L270.918 42.1838L274.591 42.1838L274.591 38.5104L278.265 38.5104Z" fill="#D9D9D9"/>
<rect x="283.164" y="31.1631" width="3.6734" height="3.67345" fill="#D9D9D9"/>
<path d="M1323 30L1036 30" stroke="#EEEEEE" stroke-width="5" stroke-linejoin="round"/>
<path d="M1047.63 60H1051.31V46.5307H1047.63V44.0817H1043.96V40.4083H1040.29V36.7348H1037.84V50.2041H1041.51V52.6531H1043.96V56.3265H1047.63V60Z" fill="#D9D9D9"/>
<path d="M1024.37 60H1020.69V46.5307H1024.37V44.0817H1028.04V40.4083H1031.71V36.7348H1034.16V50.2041H1030.49V52.6531H1028.04V56.3265H1024.37V60Z" fill="#D9D9D9"/>
<path d="M1029.27 35.5104V31.8369L1015.8 31.8369V35.5104H1013.35V39.1838H1009.67V42.8573H1006V45.3062L1019.47 45.3062V41.6328H1021.92V39.1838H1025.59V35.5104H1029.27Z" fill="#D9D9D9"/>
<path d="M1006 18.3668V14.6934L1019.47 14.6934V18.3668H1021.92L1021.92 22.0403L1025.59 22.0403L1025.59 25.7137H1029.27V28.1627L1015.8 28.1627V24.4892L1013.35 24.4892V22.0403L1009.67 22.0403V18.3668H1006Z" fill="#D9D9D9"/>
<path d="M1024.37 0L1020.69 0V13.4693L1024.37 13.4693V15.9183H1028.04V19.5917H1031.71V23.2652H1034.16V9.79587H1030.49V7.3469H1028.04V3.67345L1024.37 3.67345V0Z" fill="#D9D9D9"/>
<path d="M1047.63 0L1051.31 0V13.4693L1047.63 13.4693V15.9183H1043.96V19.5917H1040.29V23.2652H1037.84V9.79587H1041.51V7.3469H1043.96V3.67345L1047.63 3.67345V0Z" fill="#D9D9D9"/>
<path d="M1066 41.6327V45.3062L1052.53 45.3062V41.6327H1050.08V37.9593H1046.41V34.2858H1042.73V31.8368L1056.2 31.8368V35.5103H1058.65V37.9593H1062.33V41.6327H1066Z" fill="#D9D9D9"/>
<path d="M1042.73 24.4896L1042.73 28.1631L1056.2 28.1631L1056.2 24.4896L1058.65 24.4896L1058.65 20.8162L1062.33 20.8162L1062.33 17.1427L1066 17.1427L1066 14.6938L1052.53 14.6938L1052.53 18.3672L1050.08 18.3672L1050.08 20.8162L1046.41 20.8162L1046.41 24.4896L1042.73 24.4896Z" fill="#D9D9D9"/>
<rect x="1037.84" y="31.8369" width="3.67347" height="3.67345" transform="rotate(180 1037.84 31.8369)" fill="#D9D9D9"/>
<path d="M360.576 37.2L360.16 28.912L368.608 19.6H376.832L367.36 30.032L363.168 34.32L360.576 37.2ZM353.824 42V19.6H361.248V42H353.824ZM368.544 42L361.952 33.296L366.848 28.112L377.28 42H368.544ZM389.224 42.512C387.411 42.512 385.726 42.224 384.168 41.648C382.632 41.072 381.299 40.2613 380.168 39.216C379.038 38.1493 378.152 36.9013 377.512 35.472C376.894 34.0427 376.584 32.4853 376.584 30.8C376.584 29.0933 376.894 27.536 377.512 26.128C378.152 24.6987 379.038 23.4613 380.168 22.416C381.299 21.3493 382.632 20.528 384.168 19.952C385.726 19.376 387.411 19.088 389.224 19.088C391.059 19.088 392.744 19.376 394.28 19.952C395.816 20.528 397.15 21.3493 398.28 22.416C399.411 23.4613 400.286 24.6987 400.904 26.128C401.544 27.536 401.864 29.0933 401.864 30.8C401.864 32.4853 401.544 34.0427 400.904 35.472C400.286 36.9013 399.411 38.1493 398.28 39.216C397.15 40.2613 395.816 41.072 394.28 41.648C392.744 42.224 391.059 42.512 389.224 42.512ZM389.224 36.4C389.928 36.4 390.579 36.272 391.176 36.016C391.795 35.76 392.328 35.3973 392.776 34.928C393.246 34.4373 393.608 33.8507 393.864 33.168C394.12 32.464 394.248 31.6747 394.248 30.8C394.248 29.9253 394.12 29.1467 393.864 28.464C393.608 27.76 393.246 27.1733 392.776 26.704C392.328 26.2133 391.795 25.84 391.176 25.584C390.579 25.328 389.928 25.2 389.224 25.2C388.52 25.2 387.859 25.328 387.24 25.584C386.643 25.84 386.11 26.2133 385.64 26.704C385.192 27.1733 384.84 27.76 384.584 28.464C384.328 29.1467 384.2 29.9253 384.2 30.8C384.2 31.6747 384.328 32.464 384.584 33.168C384.84 33.8507 385.192 34.4373 385.64 34.928C386.11 35.3973 386.643 35.76 387.24 36.016C387.859 36.272 388.52 36.4 389.224 36.4ZM404.605 42V19.6H412.157V36.144H422.269V42H404.605ZM450.137 42V19.6H462.105C465.198 19.6 467.481 20.1547 468.953 21.264C470.425 22.352 471.161 23.7493 471.161 25.456C471.161 26.5867 470.841 27.6 470.201 28.496C469.582 29.3707 468.675 30.064 467.481 30.576C466.286 31.088 464.814 31.344 463.065 31.344L463.705 29.616C465.454 29.616 466.958 29.8613 468.217 30.352C469.497 30.8427 470.478 31.5573 471.161 32.496C471.865 33.4133 472.217 34.5227 472.217 35.824C472.217 37.7653 471.406 39.28 469.785 40.368C468.185 41.456 465.838 42 462.745 42H450.137ZM457.561 36.72H462.105C462.937 36.72 463.555 36.5707 463.961 36.272C464.387 35.9733 464.601 35.536 464.601 34.96C464.601 34.384 464.387 33.9467 463.961 33.648C463.555 33.3493 462.937 33.2 462.105 33.2H457.049V28.208H461.081C461.934 28.208 462.553 28.0693 462.937 27.792C463.342 27.4933 463.545 27.0773 463.545 26.544C463.545 25.9893 463.342 25.5733 462.937 25.296C462.553 25.0187 461.934 24.88 461.081 24.88H457.561V36.72ZM486.631 42.512C484.817 42.512 483.132 42.224 481.575 41.648C480.039 41.072 478.705 40.2613 477.575 39.216C476.444 38.1493 475.559 36.9013 474.919 35.472C474.3 34.0427 473.991 32.4853 473.991 30.8C473.991 29.0933 474.3 27.536 474.919 26.128C475.559 24.6987 476.444 23.4613 477.575 22.416C478.705 21.3493 480.039 20.528 481.575 19.952C483.132 19.376 484.817 19.088 486.631 19.088C488.465 19.088 490.151 19.376 491.687 19.952C493.223 20.528 494.556 21.3493 495.687 22.416C496.817 23.4613 497.692 24.6987 498.311 26.128C498.951 27.536 499.271 29.0933 499.271 30.8C499.271 32.4853 498.951 34.0427 498.311 35.472C497.692 36.9013 496.817 38.1493 495.687 39.216C494.556 40.2613 493.223 41.072 491.687 41.648C490.151 42.224 488.465 42.512 486.631 42.512ZM486.631 36.4C487.335 36.4 487.985 36.272 488.583 36.016C489.201 35.76 489.735 35.3973 490.183 34.928C490.652 34.4373 491.015 33.8507 491.271 33.168C491.527 32.464 491.655 31.6747 491.655 30.8C491.655 29.9253 491.527 29.1467 491.271 28.464C491.015 27.76 490.652 27.1733 490.183 26.704C489.735 26.2133 489.201 25.84 488.583 25.584C487.985 25.328 487.335 25.2 486.631 25.2C485.927 25.2 485.265 25.328 484.647 25.584C484.049 25.84 483.516 26.2133 483.047 26.704C482.599 27.1733 482.247 27.76 481.991 28.464C481.735 29.1467 481.607 29.9253 481.607 30.8C481.607 31.6747 481.735 32.464 481.991 33.168C482.247 33.8507 482.599 34.4373 483.047 34.928C483.516 35.3973 484.049 35.76 484.647 36.016C485.265 36.272 485.927 36.4 486.631 36.4ZM502.012 42V19.6H512.796C514.886 19.6 516.689 19.9413 518.204 20.624C519.74 21.3067 520.924 22.288 521.756 23.568C522.588 24.8267 523.004 26.32 523.004 28.048C523.004 29.776 522.588 31.2693 521.756 32.528C520.924 33.7653 519.74 34.7147 518.204 35.376C516.689 36.0373 514.886 36.368 512.796 36.368H506.204L509.564 33.264V42H502.012ZM515.42 42L509.916 33.84H517.916L523.484 42H515.42ZM509.564 34.096L506.204 30.672H512.316C513.361 30.672 514.129 30.4373 514.62 29.968C515.132 29.4987 515.388 28.8587 515.388 28.048C515.388 27.2373 515.132 26.5973 514.62 26.128C514.129 25.6587 513.361 25.424 512.316 25.424H506.204L509.564 22V34.096ZM559.989 42.512C558.111 42.512 556.298 42.2987 554.549 41.872C552.799 41.4453 551.359 40.8907 550.229 40.208L552.661 34.704C553.727 35.3227 554.911 35.824 556.213 36.208C557.535 36.5707 558.815 36.752 560.053 36.752C560.778 36.752 561.343 36.7093 561.749 36.624C562.175 36.5173 562.485 36.3787 562.677 36.208C562.869 36.016 562.965 35.792 562.965 35.536C562.965 35.1307 562.741 34.8107 562.293 34.576C561.845 34.3413 561.247 34.1493 560.501 34C559.775 33.8293 558.975 33.6587 558.101 33.488C557.226 33.296 556.341 33.0507 555.445 32.752C554.57 32.4533 553.759 32.0587 553.013 31.568C552.287 31.0773 551.701 30.4373 551.253 29.648C550.805 28.8373 550.581 27.8347 550.581 26.64C550.581 25.2533 550.965 23.9947 551.733 22.864C552.522 21.712 553.685 20.7947 555.221 20.112C556.778 19.4293 558.709 19.088 561.013 19.088C562.527 19.088 564.021 19.248 565.493 19.568C566.965 19.888 568.287 20.3787 569.461 21.04L567.189 26.512C566.079 25.9573 565.002 25.5413 563.957 25.264C562.933 24.9867 561.93 24.848 560.949 24.848C560.223 24.848 559.647 24.912 559.22 25.04C558.794 25.168 558.485 25.3387 558.293 25.552C558.122 25.7653 558.036 26 558.036 26.256C558.036 26.64 558.261 26.9493 558.709 27.184C559.157 27.3973 559.743 27.5787 560.469 27.728C561.215 27.8773 562.026 28.0373 562.901 28.208C563.797 28.3787 564.682 28.6133 565.557 28.912C566.431 29.2107 567.231 29.6053 567.957 30.096C568.703 30.5867 569.301 31.2267 569.749 32.016C570.197 32.8053 570.421 33.7867 570.421 34.96C570.421 36.3253 570.026 37.584 569.237 38.736C568.469 39.8667 567.317 40.784 565.781 41.488C564.245 42.1707 562.314 42.512 559.989 42.512ZM572.668 42V19.6H580.22V42H572.668ZM600.201 37.2L599.785 28.912L608.233 19.6H616.457L606.985 30.032L602.793 34.32L600.201 37.2ZM593.449 42V19.6H600.873V42H593.449ZM608.169 42L601.577 33.296L606.473 28.112L616.905 42H608.169ZM617.918 42V19.6H628.702C630.792 19.6 632.595 19.9413 634.11 20.624C635.646 21.3067 636.83 22.288 637.662 23.568C638.494 24.8267 638.91 26.32 638.91 28.048C638.91 29.776 638.494 31.2693 637.662 32.528C636.83 33.7653 635.646 34.7147 634.11 35.376C632.595 36.0373 630.792 36.368 628.702 36.368H622.11L625.47 33.264V42H617.918ZM631.326 42L625.822 33.84H633.822L639.39 42H631.326ZM625.47 34.096L622.11 30.672H628.222C629.267 30.672 630.035 30.4373 630.526 29.968C631.038 29.4987 631.294 28.8587 631.294 28.048C631.294 27.2373 631.038 26.5973 630.526 26.128C630.035 25.6587 629.267 25.424 628.222 25.424H622.11L625.47 22V34.096ZM648.674 27.92H658.658V33.36H648.674V27.92ZM649.186 36.304H660.386V42H641.762V19.6H659.97V25.296H649.186V36.304ZM697.426 42.512C695.549 42.512 693.735 42.2987 691.986 41.872C690.237 41.4453 688.797 40.8907 687.666 40.208L690.098 34.704C691.165 35.3227 692.349 35.824 693.65 36.208C694.973 36.5707 696.253 36.752 697.49 36.752C698.215 36.752 698.781 36.7093 699.186 36.624C699.613 36.5173 699.922 36.3787 700.114 36.208C700.306 36.016 700.402 35.792 700.402 35.536C700.402 35.1307 700.178 34.8107 699.73 34.576C699.282 34.3413 698.685 34.1493 697.938 34C697.213 33.8293 696.413 33.6587 695.538 33.488C694.663 33.296 693.778 33.0507 692.882 32.752C692.007 32.4533 691.197 32.0587 690.45 31.568C689.725 31.0773 689.138 30.4373 688.69 29.648C688.242 28.8373 688.018 27.8347 688.018 26.64C688.018 25.2533 688.402 23.9947 689.17 22.864C689.959 21.712 691.122 20.7947 692.658 20.112C694.215 19.4293 696.146 19.088 698.45 19.088C699.965 19.088 701.458 19.248 702.93 19.568C704.402 19.888 705.725 20.3787 706.898 21.04L704.626 26.512C703.517 25.9573 702.439 25.5413 701.394 25.264C700.37 24.9867 699.367 24.848 698.386 24.848C697.661 24.848 697.085 24.912 696.658 25.04C696.231 25.168 695.922 25.3387 695.73 25.552C695.559 25.7653 695.474 26 695.474 26.256C695.474 26.64 695.698 26.9493 696.146 27.184C696.594 27.3973 697.181 27.5787 697.906 27.728C698.653 27.8773 699.463 28.0373 700.338 28.208C701.234 28.3787 702.119 28.6133 702.994 28.912C703.869 29.2107 704.669 29.6053 705.394 30.096C706.141 30.5867 706.738 31.2267 707.186 32.016C707.634 32.8053 707.858 33.7867 707.858 34.96C707.858 36.3253 707.463 37.584 706.674 38.736C705.906 39.8667 704.754 40.784 703.218 41.488C701.682 42.1707 699.751 42.512 697.426 42.512ZM710.105 42V19.6H717.657V42H710.105ZM740.48 42V19.6H746.688L755.648 34.224H752.384L761.088 19.6H767.296L767.36 42H760.48L760.416 29.968H761.504L755.552 39.984H752.224L746.016 29.968H747.36V42H740.48ZM811.321 19.6H818.873V42H811.321V19.6ZM804.345 42H796.793V19.6H804.345V42ZM811.833 33.744H803.833V27.536H811.833V33.744ZM856.645 42.512C854.767 42.512 852.954 42.2987 851.205 41.872C849.455 41.4453 848.015 40.8907 846.885 40.208L849.317 34.704C850.383 35.3227 851.567 35.824 852.869 36.208C854.191 36.5707 855.471 36.752 856.709 36.752C857.434 36.752 857.999 36.7093 858.405 36.624C858.831 36.5173 859.141 36.3787 859.333 36.208C859.525 36.016 859.621 35.792 859.621 35.536C859.621 35.1307 859.397 34.8107 858.949 34.576C858.501 34.3413 857.903 34.1493 857.157 34C856.431 33.8293 855.631 33.6587 854.757 33.488C853.882 33.296 852.997 33.0507 852.101 32.752C851.226 32.4533 850.415 32.0587 849.669 31.568C848.943 31.0773 848.357 30.4373 847.909 29.648C847.461 28.8373 847.237 27.8347 847.237 26.64C847.237 25.2533 847.621 23.9947 848.389 22.864C849.178 21.712 850.341 20.7947 851.877 20.112C853.434 19.4293 855.365 19.088 857.669 19.088C859.183 19.088 860.677 19.248 862.149 19.568C863.621 19.888 864.943 20.3787 866.117 21.04L863.845 26.512C862.735 25.9573 861.658 25.5413 860.613 25.264C859.589 24.9867 858.586 24.848 857.605 24.848C856.879 24.848 856.303 24.912 855.877 25.04C855.45 25.168 855.141 25.3387 854.949 25.552C854.778 25.7653 854.693 26 854.693 26.256C854.693 26.64 854.917 26.9493 855.365 27.184C855.813 27.3973 856.399 27.5787 857.125 27.728C857.871 27.8773 858.682 28.0373 859.557 28.208C860.453 28.3787 861.338 28.6133 862.213 28.912C863.087 29.2107 863.887 29.6053 864.613 30.096C865.359 30.5867 865.957 31.2267 866.405 32.016C866.853 32.8053 867.077 33.7867 867.077 34.96C867.077 36.3253 866.682 37.584 865.893 38.736C865.125 39.8667 863.973 40.784 862.437 41.488C860.901 42.1707 858.97 42.512 856.645 42.512ZM869.324 42V19.6H876.876V42H869.324ZM888.864 42.512C886.986 42.512 885.173 42.2987 883.424 41.872C881.674 41.4453 880.234 40.8907 879.104 40.208L881.536 34.704C882.602 35.3227 883.786 35.824 885.088 36.208C886.41 36.5707 887.69 36.752 888.928 36.752C889.653 36.752 890.218 36.7093 890.624 36.624C891.05 36.5173 891.36 36.3787 891.552 36.208C891.744 36.016 891.84 35.792 891.84 35.536C891.84 35.1307 891.616 34.8107 891.168 34.576C890.72 34.3413 890.122 34.1493 889.376 34C888.65 33.8293 887.85 33.6587 886.976 33.488C886.101 33.296 885.216 33.0507 884.32 32.752C883.445 32.4533 882.634 32.0587 881.888 31.568C881.162 31.0773 880.576 30.4373 880.128 29.648C879.68 28.8373 879.456 27.8347 879.456 26.64C879.456 25.2533 879.84 23.9947 880.608 22.864C881.397 21.712 882.56 20.7947 884.096 20.112C885.653 19.4293 887.584 19.088 889.888 19.088C891.402 19.088 892.896 19.248 894.368 19.568C895.84 19.888 897.162 20.3787 898.336 21.04L896.064 26.512C894.954 25.9573 893.877 25.5413 892.832 25.264C891.808 24.9867 890.805 24.848 889.824 24.848C889.098 24.848 888.522 24.912 888.095 25.04C887.669 25.168 887.36 25.3387 887.168 25.552C886.997 25.7653 886.911 26 886.911 26.256C886.911 26.64 887.136 26.9493 887.584 27.184C888.032 27.3973 888.618 27.5787 889.344 27.728C890.09 27.8773 890.901 28.0373 891.776 28.208C892.672 28.3787 893.557 28.6133 894.432 28.912C895.306 29.2107 896.106 29.6053 896.832 30.096C897.578 30.5867 898.176 31.2267 898.624 32.016C899.072 32.8053 899.296 33.7867 899.296 34.96C899.296 36.3253 898.901 37.584 898.112 38.736C897.344 39.8667 896.192 40.784 894.656 41.488C893.12 42.1707 891.189 42.512 888.864 42.512ZM907.207 42L900.039 19.6H907.815L913.607 38.512H909.703L915.847 19.6H922.791L928.519 38.512H924.775L930.823 19.6H937.991L930.823 42H922.727L918.055 26.512H920.231L915.303 42H907.207Z" fill="#EEEEEE"/>
<path d="M421.923 42L431.715 19.6H439.139L448.931 42H441.123L433.891 23.184H436.835L429.603 42H421.923ZM427.747 38.096L429.667 32.656H439.971L441.891 38.096H427.747Z" fill="#4A8068"/>
<path d="M523.423 42L533.215 19.6H540.639L550.431 42H542.623L535.391 23.184H538.335L531.103 42H523.423ZM529.247 38.096L531.167 32.656H541.471L543.391 38.096H529.247ZM937.704 42L947.497 19.6H954.921L964.713 42H956.905L949.673 23.184H952.617L945.385 42H937.704ZM943.529 38.096L945.449 32.656H955.753L957.673 38.096H943.529Z" fill="#E62C20"/>
<path d="M660.861 42L670.653 19.6H678.077L687.869 42H680.061L672.829 23.184H675.773L668.541 42H660.861ZM666.685 38.096L668.605 32.656H678.909L680.829 38.096H666.685ZM768.579 42L778.372 19.6H785.796L795.588 42H787.78L780.548 23.184H783.492L776.26 42H768.579ZM774.404 38.096L776.324 32.656H786.628L788.548 38.096H774.404Z" fill="#F69722"/>
<path d="M820.079 42L829.872 19.6H837.296L847.088 42H839.28L832.048 23.184H834.992L827.76 42H820.079ZM825.904 38.096L827.824 32.656H838.128L840.048 38.096H825.904Z" fill="#9C4A9A"/>
<path d="M548.5 42H529.5L537.5 23L548.5 42Z" fill="#E62C20"/>
<path d="M792 42H773L781 24L792 42Z" fill="#F69722"/>
<path d="M443.5 42H428L436 23.5L443.5 42Z" fill="#4A8068"/>
<path d="M687 42H667.5L675.5 22L687 42Z" fill="#F69722"/>
<path d="M959 42H940L949.5 24L959 42Z" fill="#E62C20"/>
<path d="M844 42H826L834.5 24L844 42Z" fill="#9C4A9A"/>
</svg>
