<svg width="60" height="60" viewBox="0 0 60 60" fill="none" xmlns="http://www.w3.org/2000/svg">
<path d="M41.6332 60H45.3066V46.5307H41.6332V44.0817H37.9597V40.4083H34.2862V36.7348H31.8373L31.8373 50.2041H35.5107V52.6531H37.9597V56.3265H41.6332V60Z" fill="#D9D9D9"/>
<path d="M18.3668 60H14.6934L14.6934 46.5307H18.3668V44.0817H22.0403V40.4083H25.7138V36.7348H28.1627L28.1627 50.2041H24.4893V52.6531H22.0403V56.3265H18.3668V60Z" fill="#D9D9D9"/>
<path d="M23.2656 35.5104V31.8369L9.79624 31.8369V35.5104H7.34726L7.34726 39.1838H3.67379L3.67379 42.8573H0.000323729V45.3062L13.4697 45.3062L13.4697 41.6328H15.9187L15.9187 39.1838H19.5922V35.5104H23.2656Z" fill="#D9D9D9"/>
<path d="M0 18.3668L0 14.6934L13.4694 14.6934V18.3668H15.9184L15.9184 22.0403L19.5918 22.0403L19.5918 25.7137H23.2653V28.1627L9.79592 28.1627L9.79592 24.4892L7.34694 24.4892L7.34694 22.0403L3.67347 22.0403L3.67347 18.3668H0Z" fill="#D9D9D9"/>
<path d="M18.3668 0L14.6934 0L14.6934 13.4693L18.3668 13.4693V15.9183H22.0403V19.5917H25.7138V23.2652H28.1627L28.1627 9.79587H24.4893V7.3469H22.0403V3.67345L18.3668 3.67345V0Z" fill="#D9D9D9"/>
<path d="M41.6332 0L45.3066 0V13.4693L41.6332 13.4693V15.9183H37.9597L37.9597 19.5917H34.2862V23.2652H31.8373L31.8373 9.79587H35.5107V7.3469H37.9597V3.67345L41.6332 3.67345V0Z" fill="#D9D9D9"/>
<path d="M60 41.6327V45.3062L46.5306 45.3062V41.6327H44.0816V37.9593H40.4082V34.2858H36.7347V31.8368L50.2041 31.8368V35.5103H52.6531V37.9593H56.3265V41.6327H60Z" fill="#D9D9D9"/>
<path d="M36.7344 24.4896L36.7344 28.1631L50.2038 28.1631L50.2038 24.4896L52.6527 24.4896L52.6527 20.8162L56.3262 20.8162L56.3262 17.1427L59.9997 17.1427L59.9997 14.6938L46.5303 14.6938L46.5303 18.3672L44.0813 18.3672L44.0813 20.8162L40.4078 20.8162L40.4078 24.4896L36.7344 24.4896Z" fill="#D9D9D9"/>
<rect x="31.8359" y="31.8369" width="3.67347" height="3.67345" transform="rotate(180 31.8359 31.8369)" fill="#D9D9D9"/>
</svg>
