<svg width="60" height="60" viewBox="0 0 60 60" fill="none" xmlns="http://www.w3.org/2000/svg">
<path d="M18.3671 0L14.6937 0L14.6937 13.4693H18.3671V15.9183H22.0406V19.5917H25.7141V23.2652H28.1631L28.1631 9.79587H24.4896V7.3469H22.0406V3.67345L18.3671 3.67345V0Z" fill="#488267"/>
<path d="M41.6326 0L45.306 0V13.4693H41.6326V15.9183H37.9591V19.5917H34.2856V23.2652H31.8366L31.8366 9.79587H35.5101V7.3469H37.9591V3.67345L41.6326 3.67345V0Z" fill="#488267"/>
<path d="M36.7347 24.4896V28.1631H50.2041V24.4896H52.6531V20.8162H56.3266V17.1427H60V14.6938L46.5307 14.6938V18.3672H44.0817V20.8162H40.4082V24.4896H36.7347Z" fill="#488267"/>
<path d="M60 41.6332V45.3066H46.5306V41.6332H44.0816V37.9597H40.4082V34.2863H36.7347V31.8373H50.2041V35.5108H52.6531V37.9597H56.3265V41.6332H60Z" fill="#488267"/>
<path d="M41.6327 60H45.3062V46.5307H41.6327V44.0817H37.9592V40.4083H34.2858V36.7348H31.8368L31.8368 50.2041H35.5103V52.6531H37.9592V56.3265H41.6327V60Z" fill="#488267"/>
<path d="M18.367 60H14.6935L14.6935 46.5307H18.367L18.367 44.0817H22.0405V40.4083H25.714V36.7348H28.1629L28.1629 50.2041H24.4895V52.6531H22.0405V56.3265H18.367V60Z" fill="#488267"/>
<path d="M0 18.3673L0 14.6938H13.4694L13.4694 18.3673H15.9184V22.0407H19.5918V25.7142H23.2653V28.1632H9.79592V24.4897H7.34694L7.34694 22.0407H3.67347L3.67347 18.3673H0Z" fill="#488267"/>
<path d="M23.2655 35.5104L23.2655 31.8369L9.79612 31.8369L9.79612 35.5104L7.34714 35.5104L7.34714 39.1838L3.67367 39.1838L3.67367 42.8573L0.000202829 42.8573L0.000203089 45.3062L13.4696 45.3062L13.4696 41.6328L15.9186 41.6328L15.9186 39.1838L19.592 39.1838L19.592 35.5104L23.2655 35.5104Z" fill="#488267"/>
<rect x="28.164" y="28.1631" width="3.67347" height="3.67345" fill="#488267"/>
</svg>
