<svg width="258" height="326" viewBox="0 0 258 326" fill="none" xmlns="http://www.w3.org/2000/svg">
<g opacity="0.7">
<path d="M78.6354 120.119L75.2573 117.069L87.4651 106.045L90.8432 109.095L93.0628 107.091L96.4409 110.141L99.7703 107.135L103.148 110.185L106.478 107.179L108.73 109.213L96.5221 120.237L93.144 117.186L90.9244 119.191L88.6723 117.157L85.343 120.163L81.9648 117.113L78.6354 120.119Z" fill="#E62C20"/>
<path d="M100.03 139.439L103.408 142.49L115.616 131.466L112.238 128.415L114.457 126.411L111.079 123.36L114.409 120.353L111.031 117.303L114.36 114.296L112.108 112.263L99.9001 123.287L103.278 126.337L101.059 128.342L103.311 130.375L99.9814 133.382L103.359 136.433L100.03 139.439Z" fill="#E62C20"/>
<path d="M117.722 115.329L121.051 112.322L133.438 123.508L130.108 126.514L132.36 128.548L129.031 131.555L132.409 134.605L129.08 137.612L132.458 140.662L130.238 142.667L117.852 131.481L121.181 128.475L118.929 126.441L121.149 124.437L117.771 121.386L121.1 118.379L117.722 115.329Z" fill="#E62C20"/>
<path d="M154.654 120.617L157.983 117.611L145.597 106.425L142.267 109.432L140.015 107.398L136.686 110.405L133.308 107.354L129.978 110.361L126.6 107.31L124.381 109.315L136.767 120.5L140.096 117.493L142.349 119.527L144.568 117.523L147.946 120.573L151.276 117.567L154.654 120.617Z" fill="#E62C20"/>
<path d="M154.41 90.3322L157.788 93.3828L145.58 104.407L142.202 101.356L139.983 103.361L136.604 100.31L133.275 103.317L129.897 100.266L126.568 103.273L124.315 101.239L136.523 90.2149L139.901 93.2655L142.121 91.2611L144.373 93.2948L147.702 90.2882L151.081 93.3388L154.41 90.3322Z" fill="#E62C20"/>
<path d="M133.015 71.012L129.637 67.9614L117.429 78.9856L120.808 82.0361L118.588 84.0405L121.966 87.0911L118.637 90.0977L122.015 93.1483L118.685 96.1549L120.937 98.1886L133.145 87.1645L129.767 84.1139L131.987 82.1095L129.735 80.0758L133.064 77.0692L129.686 74.0186L133.015 71.012Z" fill="#E62C20"/>
<path d="M78.3916 89.8333L75.0623 92.8398L87.4487 104.025L90.7781 101.019L93.0302 103.052L96.3596 100.046L99.7377 103.096L103.067 100.09L106.445 103.14L108.665 101.136L96.2783 89.9506L92.949 92.9572L90.6969 90.9235L88.4773 92.9278L85.0992 89.8773L81.7698 92.8838L78.3916 89.8333Z" fill="#E62C20"/>
<path d="M115.324 95.1228L111.994 98.1294L99.6079 86.9439L102.937 83.9373L100.685 81.9036L104.015 78.897L100.637 75.8464L103.966 72.8398L100.588 69.7893L102.807 67.7849L115.194 78.9704L111.864 81.9769L114.117 84.0107L111.897 86.0151L115.275 89.0656L111.946 92.0722L115.324 95.1228Z" fill="#E62C20"/>
<rect width="4.55168" height="4.48602" transform="matrix(0.74217 0.670211 0.74217 -0.670211 113.169 105.203)" fill="#E62C20"/>
<path d="M205.282 234.487L201.904 231.437L214.112 220.412L217.49 223.463L219.71 221.459L223.088 224.509L226.417 221.503L229.795 224.553L233.125 221.547L235.377 223.58L223.169 234.604L219.791 231.554L217.571 233.558L215.319 231.525L211.99 234.531L208.612 231.481L205.282 234.487Z" fill="#EEEEEE"/>
<path d="M226.677 253.807L230.055 256.858L242.263 245.834L238.885 242.783L241.104 240.779L237.726 237.728L241.056 234.722L237.678 231.671L241.007 228.664L238.755 226.631L226.547 237.655L229.925 240.705L227.706 242.71L229.958 244.744L226.628 247.75L230.006 250.801L226.677 253.807Z" fill="#EEEEEE"/>
<path d="M244.369 229.697L247.698 226.69L260.085 237.875L256.755 240.882L259.007 242.916L255.678 245.922L259.056 248.973L255.727 251.979L259.105 255.03L256.885 257.034L244.499 245.849L247.828 242.842L245.576 240.809L247.796 238.804L244.418 235.754L247.747 232.747L244.369 229.697Z" fill="#EEEEEE"/>
<path d="M281.3 234.986L284.63 231.979L272.243 220.794L268.914 223.801L266.662 221.767L263.333 224.773L259.954 221.723L256.625 224.729L253.247 221.679L251.027 223.683L263.414 234.869L266.743 231.862L268.995 233.896L271.215 231.891L274.593 234.942L277.922 231.935L281.3 234.986Z" fill="#EEEEEE"/>
<path d="M281.057 204.7L284.435 207.751L272.227 218.775L268.849 215.725L266.63 217.729L263.251 214.678L259.922 217.685L256.544 214.634L253.215 217.641L250.962 215.607L263.17 204.583L266.548 207.634L268.768 205.629L271.02 207.663L274.349 204.656L277.728 207.707L281.057 204.7Z" fill="#EEEEEE"/>
<path d="M259.662 185.38L256.284 182.33L244.076 193.354L247.455 196.404L245.235 198.409L248.613 201.459L245.284 204.466L248.662 207.516L245.332 210.523L247.584 212.557L259.792 201.533L256.414 198.482L258.634 196.478L256.382 194.444L259.711 191.437L256.333 188.387L259.662 185.38Z" fill="#EEEEEE"/>
<path d="M205.039 204.201L201.709 207.208L214.096 218.393L217.425 215.387L219.677 217.421L223.007 214.414L226.385 217.465L229.714 214.458L233.092 217.509L235.312 215.504L222.925 204.319L219.596 207.325L217.344 205.292L215.124 207.296L211.746 204.245L208.417 207.252L205.039 204.201Z" fill="#EEEEEE"/>
<path d="M241.971 209.491L238.641 212.498L226.255 201.312L229.584 198.305L227.332 196.272L230.662 193.265L227.284 190.215L230.613 187.208L227.235 184.157L229.454 182.153L241.841 193.339L238.511 196.345L240.764 198.379L238.544 200.383L241.922 203.434L238.593 206.44L241.971 209.491Z" fill="#EEEEEE"/>
<rect width="4.55168" height="4.48602" transform="matrix(0.74217 0.670211 0.74217 -0.670211 239.816 219.572)" fill="#EEEEEE"/>
<path d="M79.4877 234.899L76.1096 231.848L88.3174 220.824L91.6955 223.875L93.9151 221.87L97.2932 224.921L100.623 221.914L104.001 224.965L107.33 221.958L109.582 223.992L97.3744 235.016L93.9963 231.965L91.7767 233.97L89.5246 231.936L86.1952 234.943L82.8171 231.892L79.4877 234.899Z" fill="#9C4A9A"/>
<path d="M100.882 254.219L104.26 257.27L116.468 246.246L113.09 243.195L115.309 241.191L111.931 238.14L115.261 235.134L111.883 232.083L115.212 229.077L112.96 227.043L100.752 238.067L104.13 241.118L101.911 243.122L104.163 245.156L100.833 248.162L104.212 251.213L100.882 254.219Z" fill="#9C4A9A"/>
<path d="M118.574 230.108L121.904 227.101L134.29 238.287L130.961 241.293L133.213 243.327L129.883 246.333L133.261 249.384L129.932 252.391L133.31 255.441L131.091 257.446L118.704 246.26L122.034 243.254L119.781 241.22L122.001 239.215L118.623 236.165L121.952 233.158L118.574 230.108Z" fill="#9C4A9A"/>
<path d="M155.506 235.398L158.835 232.391L146.449 221.206L143.12 224.212L140.868 222.178L137.538 225.185L134.16 222.134L130.831 225.141L127.453 222.09L125.233 224.095L137.619 235.28L140.949 232.274L143.201 234.307L145.42 232.303L148.799 235.354L152.128 232.347L155.506 235.398Z" fill="#9C4A9A"/>
<path d="M155.262 205.112L158.64 208.163L146.433 219.187L143.054 216.136L140.835 218.141L137.457 215.09L134.127 218.097L130.749 215.046L127.42 218.053L125.168 216.019L137.376 204.995L140.754 208.045L142.973 206.041L145.225 208.075L148.555 205.068L151.933 208.119L155.262 205.112Z" fill="#9C4A9A"/>
<path d="M133.868 185.791L130.49 182.74L118.282 193.764L121.66 196.815L119.44 198.819L122.818 201.87L119.489 204.877L122.867 207.927L119.538 210.934L121.79 212.967L133.998 201.943L130.619 198.893L132.839 196.888L130.587 194.855L133.916 191.848L130.538 188.797L133.868 185.791Z" fill="#9C4A9A"/>
<path d="M79.2439 204.613L75.9146 207.62L88.301 218.805L91.6304 215.799L93.8825 217.832L97.2119 214.826L100.59 217.876L103.919 214.87L107.297 217.92L109.517 215.916L97.1306 204.73L93.8012 207.737L91.5492 205.703L89.3296 207.708L85.9515 204.657L82.6221 207.664L79.2439 204.613Z" fill="#9C4A9A"/>
<path d="M116.176 209.903L112.847 212.909L100.46 201.724L103.79 198.717L101.538 196.683L104.867 193.677L101.489 190.626L104.818 187.62L101.44 184.569L103.66 182.565L116.046 193.75L112.717 196.757L114.969 198.79L112.749 200.795L116.127 203.845L112.798 206.852L116.176 209.903Z" fill="#9C4A9A"/>
<rect width="4.55168" height="4.48602" transform="matrix(0.74217 0.670211 0.74217 -0.670211 114.021 219.983)" fill="#9C4A9A"/>
<path d="M205.738 120.889L202.36 117.839L214.568 106.815L217.946 109.865L220.166 107.861L223.544 110.912L226.873 107.905L230.251 110.956L233.581 107.949L235.833 109.983L223.625 121.007L220.247 117.956L218.027 119.961L215.775 117.927L212.446 120.933L209.068 117.883L205.738 120.889Z" fill="#4A8068"/>
<path d="M227.133 140.21L230.511 143.26L242.719 132.236L239.341 129.186L241.561 127.181L238.183 124.131L241.512 121.124L238.134 118.073L241.463 115.067L239.211 113.033L227.003 124.057L230.382 127.108L228.162 129.112L230.414 131.146L227.085 134.152L230.463 137.203L227.133 140.21Z" fill="#4A8068"/>
<path d="M244.825 116.098L248.155 113.092L260.541 124.277L257.212 127.284L259.464 129.318L256.135 132.324L259.513 135.375L256.183 138.381L259.561 141.432L257.342 143.436L244.955 132.251L248.285 129.244L246.033 127.211L248.252 125.206L244.874 122.156L248.204 119.149L244.825 116.098Z" fill="#4A8068"/>
<path d="M281.757 121.388L285.087 118.381L272.7 107.196L269.371 110.202L267.119 108.169L263.789 111.175L260.411 108.125L257.082 111.131L253.704 108.081L251.484 110.085L263.871 121.271L267.2 118.264L269.452 120.298L271.672 118.293L275.05 121.344L278.379 118.337L281.757 121.388Z" fill="#4A8068"/>
<path d="M281.513 91.1027L284.892 94.1533L272.684 105.177L269.306 102.127L267.086 104.131L263.708 101.081L260.379 104.087L257 101.037L253.671 104.043L251.419 102.01L263.627 90.9854L267.005 94.036L269.224 92.0316L271.477 94.0653L274.806 91.0587L278.184 94.1093L281.513 91.1027Z" fill="#4A8068"/>
<path d="M260.119 71.7815L256.741 68.731L244.533 79.7551L247.911 82.8057L245.691 84.8101L249.07 87.8607L245.74 90.8672L249.118 93.9178L245.789 96.9244L248.041 98.9581L260.249 87.934L256.871 84.8834L259.09 82.879L256.838 80.8453L260.168 77.8387L256.789 74.7881L260.119 71.7815Z" fill="#4A8068"/>
<path d="M205.495 90.6033L202.166 93.6099L214.552 104.795L217.881 101.789L220.133 103.822L223.463 100.816L226.841 103.866L230.17 100.86L233.548 103.91L235.768 101.906L223.382 90.7206L220.052 93.7272L217.8 91.6935L215.581 93.6979L212.202 90.6473L208.873 93.6539L205.495 90.6033Z" fill="#4A8068"/>
<path d="M242.427 95.8928L239.098 98.8994L226.711 87.7139L230.041 84.7073L227.789 82.6736L231.118 79.667L227.74 76.6165L231.069 73.6099L227.691 70.5593L229.911 68.5549L242.297 79.7404L238.968 82.747L241.22 84.7807L239 86.7851L242.379 89.8357L239.049 92.8422L242.427 95.8928Z" fill="#4A8068"/>
<rect width="4.55168" height="4.48602" transform="matrix(0.74217 0.670211 0.74217 -0.670211 240.272 105.973)" fill="#4A8068"/>
<path fill-rule="evenodd" clip-rule="evenodd" d="M149.026 183.686L156.286 190.242L159.148 187.657L162.052 190.279L164.914 187.695L167.819 190.317L170.68 187.733L173.584 190.355L176.447 187.771L179.351 190.393L182.213 187.808L185.117 190.431L187.979 187.846L190.883 190.469L193.745 187.884L196.649 190.506L199.511 187.922L202.415 190.544L211.001 182.79L208.097 180.168L210.959 177.583L208.055 174.961L210.918 172.376L208.014 169.754L210.876 167.17L207.972 164.547L210.834 161.963L207.929 159.34L210.792 156.755L207.888 154.133L210.75 151.548L207.846 148.926L210.708 146.341L207.804 143.719L210.666 141.134L203.406 134.578L199.113 138.455L204.921 143.7L202.059 146.284L204.963 148.907L202.101 151.491L205.005 154.114L202.143 156.698L205.047 159.321L202.185 161.906L205.089 164.528L202.227 167.113L205.13 169.735L202.268 172.319L205.172 174.942L202.31 177.527L205.214 180.149L199.49 185.318L196.586 182.696L193.724 185.28L190.82 182.658L187.958 185.242L185.054 182.62L182.192 185.205L179.288 182.583L176.426 185.167L173.522 182.545L170.66 185.129L167.756 182.507L164.894 185.091L161.989 182.469L159.127 185.054L153.319 179.809L149.026 183.686Z" fill="#E62C20"/>
<path fill-rule="evenodd" clip-rule="evenodd" d="M156.286 190.242L149.026 183.686L151.889 181.101L148.984 178.478L151.846 175.893L148.942 173.271L151.804 170.686L148.9 168.064L151.763 165.479L148.859 162.857L151.72 160.272L148.817 157.65L151.679 155.065L148.775 152.443L151.637 149.858L148.733 147.236L151.595 144.651L148.691 142.029L157.277 134.275L160.181 136.898L163.043 134.313L165.947 136.935L168.81 134.351L171.713 136.973L174.576 134.388L177.48 137.011L180.342 134.426L183.246 137.049L186.108 134.464L189.012 137.087L191.874 134.502L194.778 137.124L197.64 134.54L200.544 137.162L203.406 134.577L210.666 141.134L206.373 145.01L200.565 139.766L197.703 142.35L194.799 139.728L191.937 142.313L189.033 139.69L186.171 142.275L183.266 139.652L180.404 142.237L177.5 139.615L174.638 142.199L171.735 139.577L168.872 142.161L165.968 139.539L163.106 142.124L160.202 139.501L154.478 144.67L157.382 147.293L154.52 149.877L157.424 152.5L154.562 155.084L157.466 157.707L154.604 160.291L157.508 162.913L154.645 165.498L157.55 168.121L154.688 170.705L157.591 173.328L154.729 175.912L157.633 178.535L154.771 181.12L160.579 186.365L156.286 190.242Z" fill="#E62C20"/>
<rect width="9.78212" height="9.64102" transform="matrix(0.74217 0.670211 0.74217 -0.670211 173.354 161.716)" fill="#E62C20"/>
<path fill-rule="evenodd" clip-rule="evenodd" d="M23.2314 184.097L30.4914 190.653L33.3536 188.069L36.2576 190.691L39.1198 188.106L42.0237 190.729L44.8859 188.144L47.7898 190.766L50.6518 188.182L53.5559 190.804L56.4181 188.22L59.322 190.842L62.184 188.258L65.0881 190.88L67.9502 188.296L70.854 190.918L73.7163 188.333L76.6204 190.956L85.2067 183.202L82.3025 180.579L85.1645 177.995L82.2609 175.373L85.1229 172.788L82.219 170.166L85.081 167.581L82.1769 164.959L85.0391 162.374L82.1347 159.751L84.9971 157.166L82.0933 154.544L84.9552 151.96L82.051 149.337L84.9132 146.753L82.0095 144.13L84.8717 141.546L77.6117 134.99L73.3186 138.867L79.1263 144.111L76.264 146.696L79.1682 149.318L76.306 151.903L79.2097 154.525L76.3479 157.11L79.2523 159.732L76.39 162.317L79.2941 164.94L76.4319 167.524L79.3358 170.147L76.4738 172.731L79.3773 175.353L76.5154 177.938L79.4196 180.56L73.6952 185.73L70.7911 183.107L67.929 185.692L65.0252 183.07L62.1633 185.654L59.2592 183.032L56.397 185.616L53.4931 182.994L50.6311 185.578L47.727 182.956L44.8648 185.541L41.9609 182.918L39.0987 185.503L36.1947 182.881L33.3326 185.465L27.5246 180.22L23.2314 184.097Z" fill="#4A8068"/>
<path fill-rule="evenodd" clip-rule="evenodd" d="M30.4916 190.654L23.2316 184.098L26.0937 181.513L23.1898 178.891L26.0518 176.306L23.1479 173.684L26.01 171.099L23.1061 168.477L25.968 165.892L23.064 163.27L25.9264 160.685L23.0221 158.062L25.8842 155.478L22.9803 152.856L25.8427 150.271L22.9388 147.648L25.8004 145.064L22.8966 142.442L31.4829 134.688L34.3869 137.31L37.2491 134.726L40.1531 137.348L43.0154 134.763L45.9188 137.385L48.7813 134.8L51.6857 137.423L54.5472 134.839L57.4512 137.462L60.3134 134.877L63.2174 137.499L66.0796 134.914L68.9837 137.537L71.8457 134.953L74.7496 137.575L77.6117 134.99L84.8717 141.546L80.5786 145.423L74.7707 140.178L71.9085 142.763L69.0044 140.141L66.1424 142.725L63.2385 140.103L60.3763 142.687L57.4723 140.065L54.6101 142.65L51.7057 140.027L48.8441 142.611L45.9407 139.989L43.0782 142.574L40.1742 139.952L37.3119 142.536L34.4079 139.914L28.6841 145.083L31.5879 147.705L28.7255 150.29L31.6294 152.912L28.7674 155.497L31.6713 158.119L28.8089 160.704L31.7132 163.327L28.8513 165.911L31.7553 168.534L28.8932 171.118L31.7971 173.74L28.935 176.325L31.8389 178.947L28.9768 181.532L34.7848 186.777L30.4916 190.654Z" fill="#4A8068"/>
<rect width="9.78212" height="9.64102" transform="matrix(0.74217 0.670211 0.74217 -0.670211 47.5596 162.128)" fill="#4A8068"/>
<path fill-rule="evenodd" clip-rule="evenodd" d="M149.878 298.464L157.138 305.02L160 302.436L162.904 305.058L165.766 302.474L168.671 305.096L171.533 302.512L174.437 305.134L177.299 302.549L180.203 305.172L183.065 302.587L185.969 305.21L188.831 302.625L191.735 305.247L194.597 302.663L197.501 305.285L200.363 302.701L203.267 305.323L211.853 297.57L208.949 294.947L211.811 292.362L208.907 289.74L211.77 287.155L208.866 284.533L211.728 281.948L208.824 279.326L211.686 276.741L208.782 274.119L211.644 271.535L208.739 268.912L211.602 266.327L208.698 263.705L211.56 261.12L208.656 258.498L211.518 255.913L204.258 249.357L199.965 253.234L205.773 258.479L202.911 261.063L205.815 263.686L202.953 266.27L205.857 268.893L202.995 271.478L205.899 274.1L203.037 276.685L205.941 279.307L203.079 281.892L205.982 284.514L203.12 287.098L206.024 289.721L203.162 292.305L206.066 294.928L200.342 300.097L197.438 297.474L194.576 300.059L191.672 297.437L188.81 300.021L185.906 297.399L183.044 299.984L180.14 297.361L177.278 299.946L174.374 297.323L171.512 299.908L168.608 297.286L165.746 299.87L162.842 297.248L159.979 299.832L154.171 294.587L149.878 298.464Z" fill="#F69722"/>
<path fill-rule="evenodd" clip-rule="evenodd" d="M157.138 305.021L149.878 298.464L152.74 295.88L149.836 293.257L152.698 290.673L149.794 288.05L152.656 285.465L149.752 282.843L152.614 280.258L149.71 277.636L152.573 275.051L149.669 272.428L152.53 269.844L149.627 267.222L152.489 264.638L149.585 262.015L152.447 259.43L149.543 256.808L158.129 249.054L161.033 251.676L163.895 249.092L166.799 251.714L169.661 249.129L172.566 251.752L175.428 249.168L178.332 251.79L181.193 249.206L184.097 251.828L186.96 249.244L189.864 251.866L192.726 249.281L195.63 251.904L198.492 249.319L201.396 251.941L204.258 249.357L211.518 255.913L207.225 259.79L201.417 254.545L198.555 257.13L195.651 254.507L192.789 257.092L189.885 254.469L187.023 257.054L184.119 254.432L181.256 257.016L178.352 254.394L175.49 256.978L172.586 254.356L169.724 256.94L166.82 254.318L163.958 256.902L161.054 254.28L155.33 259.449L158.234 262.072L155.372 264.657L158.276 267.279L155.414 269.863L158.318 272.485L155.455 275.07L158.36 277.693L155.498 280.277L158.401 282.9L155.539 285.484L158.443 288.107L155.581 290.692L158.485 293.314L155.623 295.899L161.431 301.144L157.138 305.021Z" fill="#F69722"/>
<rect width="9.78212" height="9.64102" transform="matrix(0.74217 0.670211 0.74217 -0.670211 174.206 276.495)" fill="#F69722"/>
<path fill-rule="evenodd" clip-rule="evenodd" d="M149.482 70.0875L156.742 76.6435L159.605 74.0589L162.509 76.6814L165.371 74.0967L168.275 76.7191L171.137 74.1344L174.041 76.7568L176.903 74.1722L179.807 76.7948L182.669 74.2102L185.573 76.8328L188.435 74.2482L191.339 76.8705L194.201 74.286L197.105 76.9085L199.967 74.3239L202.871 76.9462L211.458 69.1924L208.554 66.5699L211.416 63.9853L208.512 61.363L211.374 58.7784L208.47 56.1561L211.332 53.5715L208.428 50.9491L211.29 48.3646L208.386 45.7418L211.248 43.157L208.344 40.5348L211.206 37.9502L208.303 35.3278L211.165 32.7433L208.26 30.1206L211.123 27.5357L203.863 20.9796L199.57 24.8565L205.378 30.1016L202.515 32.6865L205.419 35.3089L202.557 37.8934L205.461 40.5156L202.599 43.1003L205.503 45.7231L202.641 48.3079L205.545 50.9303L202.683 53.5148L205.587 56.1371L202.725 58.7216L205.629 61.3439L202.767 63.9285L205.671 66.551L199.946 71.7203L197.042 69.098L194.18 71.6825L191.276 69.0599L188.414 71.6445L185.51 69.0223L182.648 71.6069L179.744 68.9842L176.882 71.5688L173.978 68.9462L171.116 71.5309L168.212 68.9085L165.35 71.4932L162.446 68.8708L159.584 71.4554L153.776 66.2105L149.482 70.0875Z" fill="#EEEEEE"/>
<path fill-rule="evenodd" clip-rule="evenodd" d="M156.743 76.6431L149.483 70.087L152.344 67.5027L149.441 64.8805L152.303 62.2956L149.399 59.673L152.261 57.0886L149.357 54.4664L152.219 51.8819L149.315 49.2595L152.177 46.6748L149.273 44.0523L152.135 41.4676L149.231 38.8451L152.093 36.2604L149.19 33.6382L152.052 31.0535L149.148 28.4306L157.734 20.6768L160.638 23.2996L163.5 20.7153L166.404 23.3376L169.266 20.7526L172.17 23.3751L175.032 20.7906L177.936 23.4129L180.798 20.8283L183.702 23.4508L186.564 20.866L189.469 23.4888L192.331 20.9044L195.235 23.5266L198.097 20.9421L201 23.5642L203.863 20.9794L211.123 27.5355L206.829 31.4124L201.022 26.1678L198.159 28.7526L195.256 26.1304L192.394 28.715L189.489 26.0921L186.627 28.6766L183.723 26.0541L180.861 28.6389L177.957 26.0167L175.095 28.6012L172.191 25.9788L169.329 28.5632L166.425 25.9409L163.563 28.5258L160.658 25.9031L154.934 31.0721L157.839 33.6949L154.977 36.2796L157.88 38.9018L155.018 41.4865L157.922 44.1091L155.06 46.6938L157.964 49.3163L155.102 51.9008L158.006 54.5232L155.144 57.1075L158.048 59.7297L155.186 62.3146L158.09 64.9373L155.228 67.5216L161.036 72.7662L156.743 76.6431Z" fill="#EEEEEE"/>
<rect width="9.78212" height="9.64102" transform="matrix(0.74217 0.670211 0.74217 -0.670211 173.811 48.1182)" fill="#EEEEEE"/>
<path fill-rule="evenodd" clip-rule="evenodd" d="M283.388 191.012L276.128 184.455L278.99 181.871L276.086 179.248L278.948 176.664L276.044 174.042L278.907 171.457L276.002 168.835L278.865 166.25L275.961 163.628L278.823 161.043L275.919 158.42L278.781 155.836L275.877 153.213L278.739 150.629L275.835 148.006L278.697 145.422L275.793 142.799L284.379 135.046L287.283 137.668L290.146 135.083L293.05 137.706L295.912 135.121L298.816 137.743L301.678 135.158L304.582 137.781L307.444 135.197L310.348 137.819L313.21 135.235L316.114 137.857L318.976 135.273L321.88 137.895L324.742 135.31L327.646 137.933L330.508 135.348L337.768 141.904L333.475 145.781L327.667 140.536L324.805 143.12L321.901 140.498L319.039 143.083L316.135 140.461L313.273 143.045L310.369 140.423L307.507 143.007L304.602 140.385L301.741 142.969L298.837 140.347L295.975 142.931L293.071 140.309L290.208 142.894L287.305 140.271L281.58 145.441L284.484 148.063L281.622 150.648L284.526 153.27L281.664 155.855L284.568 158.477L281.706 161.062L284.61 163.684L281.748 166.269L284.652 168.891L281.789 171.476L284.693 174.099L281.832 176.683L284.735 179.305L281.873 181.89L287.681 187.135L283.388 191.012Z" fill="#4A8068"/>
</g>
</svg>
