<svg width="1440" height="326" viewBox="0 0 1440 326" fill="none" xmlns="http://www.w3.org/2000/svg">
<g opacity="0.7">
<path d="M1260.64 120.119L1257.26 117.069L1269.47 106.045L1272.84 109.095L1275.06 107.091L1278.44 110.141L1281.77 107.135L1285.15 110.185L1288.48 107.179L1290.73 109.213L1278.52 120.237L1275.14 117.186L1272.92 119.191L1270.67 117.157L1267.34 120.163L1263.96 117.113L1260.64 120.119Z" fill="#E62C20"/>
<path d="M1282.03 139.439L1285.41 142.49L1297.62 131.466L1294.24 128.415L1296.46 126.411L1293.08 123.36L1296.41 120.353L1293.03 117.303L1296.36 114.296L1294.11 112.263L1281.9 123.287L1285.28 126.337L1283.06 128.342L1285.31 130.375L1281.98 133.382L1285.36 136.433L1282.03 139.439Z" fill="#E62C20"/>
<path d="M1299.72 115.329L1303.05 112.322L1315.44 123.508L1312.11 126.514L1314.36 128.548L1311.03 131.555L1314.41 134.605L1311.08 137.612L1314.46 140.662L1312.24 142.667L1299.85 131.481L1303.18 128.475L1300.93 126.441L1303.15 124.437L1299.77 121.386L1303.1 118.379L1299.72 115.329Z" fill="#E62C20"/>
<path d="M1336.65 120.617L1339.98 117.611L1327.6 106.425L1324.27 109.432L1322.02 107.398L1318.69 110.405L1315.31 107.354L1311.98 110.361L1308.6 107.31L1306.38 109.315L1318.77 120.5L1322.1 117.493L1324.35 119.527L1326.57 117.523L1329.95 120.573L1333.28 117.567L1336.65 120.617Z" fill="#E62C20"/>
<path d="M1336.41 90.3322L1339.79 93.3828L1327.58 104.407L1324.2 101.356L1321.98 103.361L1318.6 100.31L1315.28 103.317L1311.9 100.266L1308.57 103.273L1306.32 101.239L1318.52 90.2149L1321.9 93.2655L1324.12 91.2611L1326.37 93.2948L1329.7 90.2882L1333.08 93.3388L1336.41 90.3322Z" fill="#E62C20"/>
<path d="M1315.02 71.012L1311.64 67.9614L1299.43 78.9856L1302.81 82.0361L1300.59 84.0405L1303.97 87.0911L1300.64 90.0977L1304.01 93.1483L1300.69 96.1549L1302.94 98.1886L1315.15 87.1645L1311.77 84.1139L1313.99 82.1095L1311.73 80.0758L1315.06 77.0692L1311.69 74.0186L1315.02 71.012Z" fill="#E62C20"/>
<path d="M1260.39 89.8333L1257.06 92.8398L1269.45 104.025L1272.78 101.019L1275.03 103.052L1278.36 100.046L1281.74 103.096L1285.07 100.09L1288.45 103.14L1290.66 101.136L1278.28 89.9506L1274.95 92.9572L1272.7 90.9235L1270.48 92.9278L1267.1 89.8773L1263.77 92.8838L1260.39 89.8333Z" fill="#E62C20"/>
<path d="M1297.32 95.1228L1293.99 98.1294L1281.61 86.9439L1284.94 83.9373L1282.69 81.9036L1286.01 78.897L1282.64 75.8464L1285.97 72.8398L1282.59 69.7893L1284.81 67.7849L1297.19 78.9704L1293.86 81.9769L1296.12 84.0107L1293.9 86.0151L1297.28 89.0656L1293.95 92.0722L1297.32 95.1228Z" fill="#E62C20"/>
<rect width="4.55168" height="4.48602" transform="matrix(0.74217 0.670211 0.74217 -0.670211 1295.17 105.203)" fill="#E62C20"/>
<path d="M1387.28 234.487L1383.9 231.437L1396.11 220.412L1399.49 223.463L1401.71 221.459L1405.09 224.509L1408.42 221.503L1411.8 224.553L1415.12 221.547L1417.38 223.58L1405.17 234.604L1401.79 231.554L1399.57 233.558L1397.32 231.525L1393.99 234.531L1390.61 231.481L1387.28 234.487Z" fill="#EEEEEE"/>
<path d="M1408.68 253.807L1412.06 256.858L1424.26 245.834L1420.88 242.783L1423.1 240.779L1419.73 237.728L1423.06 234.722L1419.68 231.671L1423.01 228.664L1420.75 226.631L1408.55 237.655L1411.93 240.705L1409.71 242.71L1411.96 244.744L1408.63 247.75L1412.01 250.801L1408.68 253.807Z" fill="#EEEEEE"/>
<path d="M1426.37 229.697L1429.7 226.69L1442.08 237.875L1438.76 240.882L1441.01 242.916L1437.68 245.922L1441.06 248.973L1437.73 251.979L1441.1 255.03L1438.89 257.034L1426.5 245.849L1429.83 242.842L1427.58 240.809L1429.8 238.804L1426.42 235.754L1429.75 232.747L1426.37 229.697Z" fill="#EEEEEE"/>
<path d="M1463.3 234.986L1466.63 231.979L1454.24 220.794L1450.91 223.801L1448.66 221.767L1445.33 224.773L1441.95 221.723L1438.63 224.729L1435.25 221.679L1433.03 223.683L1445.41 234.869L1448.74 231.862L1451 233.896L1453.21 231.891L1456.59 234.942L1459.92 231.935L1463.3 234.986Z" fill="#EEEEEE"/>
<path d="M1463.06 204.7L1466.44 207.751L1454.23 218.775L1450.85 215.725L1448.63 217.729L1445.25 214.678L1441.92 217.685L1438.54 214.634L1435.21 217.641L1432.96 215.607L1445.17 204.583L1448.55 207.634L1450.77 205.629L1453.02 207.663L1456.35 204.656L1459.73 207.707L1463.06 204.7Z" fill="#EEEEEE"/>
<path d="M1441.66 185.38L1438.28 182.33L1426.08 193.354L1429.45 196.404L1427.23 198.409L1430.61 201.459L1427.28 204.466L1430.66 207.516L1427.33 210.523L1429.58 212.557L1441.79 201.533L1438.41 198.482L1440.63 196.478L1438.38 194.444L1441.71 191.437L1438.33 188.387L1441.66 185.38Z" fill="#EEEEEE"/>
<path d="M1387.04 204.201L1383.71 207.208L1396.1 218.393L1399.43 215.387L1401.68 217.421L1405.01 214.414L1408.38 217.465L1411.71 214.458L1415.09 217.509L1417.31 215.504L1404.93 204.319L1401.6 207.325L1399.34 205.292L1397.12 207.296L1393.75 204.245L1390.42 207.252L1387.04 204.201Z" fill="#EEEEEE"/>
<path d="M1423.97 209.491L1420.64 212.498L1408.25 201.312L1411.58 198.305L1409.33 196.272L1412.66 193.265L1409.28 190.215L1412.61 187.208L1409.23 184.157L1411.45 182.153L1423.84 193.339L1420.51 196.345L1422.76 198.379L1420.54 200.383L1423.92 203.434L1420.59 206.44L1423.97 209.491Z" fill="#EEEEEE"/>
<rect width="4.55168" height="4.48602" transform="matrix(0.74217 0.670211 0.74217 -0.670211 1421.82 219.572)" fill="#EEEEEE"/>
<path d="M1261.49 234.899L1258.11 231.848L1270.32 220.824L1273.7 223.875L1275.92 221.87L1279.29 224.921L1282.62 221.914L1286 224.965L1289.33 221.958L1291.58 223.992L1279.37 235.016L1276 231.965L1273.78 233.97L1271.52 231.936L1268.2 234.943L1264.82 231.892L1261.49 234.899Z" fill="#9C4A9A"/>
<path d="M1282.88 254.219L1286.26 257.27L1298.47 246.246L1295.09 243.195L1297.31 241.191L1293.93 238.14L1297.26 235.134L1293.88 232.083L1297.21 229.077L1294.96 227.043L1282.75 238.067L1286.13 241.118L1283.91 243.122L1286.16 245.156L1282.83 248.162L1286.21 251.213L1282.88 254.219Z" fill="#9C4A9A"/>
<path d="M1300.57 230.108L1303.9 227.101L1316.29 238.287L1312.96 241.293L1315.21 243.327L1311.88 246.333L1315.26 249.384L1311.93 252.391L1315.31 255.441L1313.09 257.446L1300.7 246.26L1304.03 243.254L1301.78 241.22L1304 239.215L1300.62 236.165L1303.95 233.158L1300.57 230.108Z" fill="#9C4A9A"/>
<path d="M1337.51 235.398L1340.84 232.391L1328.45 221.206L1325.12 224.212L1322.87 222.178L1319.54 225.185L1316.16 222.134L1312.83 225.141L1309.45 222.09L1307.23 224.095L1319.62 235.28L1322.95 232.274L1325.2 234.307L1327.42 232.303L1330.8 235.354L1334.13 232.347L1337.51 235.398Z" fill="#9C4A9A"/>
<path d="M1337.26 205.112L1340.64 208.163L1328.43 219.187L1325.05 216.136L1322.83 218.141L1319.46 215.09L1316.13 218.097L1312.75 215.046L1309.42 218.053L1307.17 216.019L1319.38 204.995L1322.75 208.045L1324.97 206.041L1327.23 208.075L1330.55 205.068L1333.93 208.119L1337.26 205.112Z" fill="#9C4A9A"/>
<path d="M1315.87 185.791L1312.49 182.74L1300.28 193.764L1303.66 196.815L1301.44 198.819L1304.82 201.87L1301.49 204.877L1304.87 207.927L1301.54 210.934L1303.79 212.967L1316 201.943L1312.62 198.893L1314.84 196.888L1312.59 194.855L1315.92 191.848L1312.54 188.797L1315.87 185.791Z" fill="#9C4A9A"/>
<path d="M1261.24 204.613L1257.91 207.62L1270.3 218.805L1273.63 215.799L1275.88 217.832L1279.21 214.826L1282.59 217.876L1285.92 214.87L1289.3 217.92L1291.52 215.916L1279.13 204.73L1275.8 207.737L1273.55 205.703L1271.33 207.708L1267.95 204.657L1264.62 207.664L1261.24 204.613Z" fill="#9C4A9A"/>
<path d="M1298.18 209.903L1294.85 212.909L1282.46 201.724L1285.79 198.717L1283.54 196.683L1286.87 193.677L1283.49 190.626L1286.82 187.62L1283.44 184.569L1285.66 182.565L1298.05 193.75L1294.72 196.757L1296.97 198.79L1294.75 200.795L1298.13 203.845L1294.8 206.852L1298.18 209.903Z" fill="#9C4A9A"/>
<rect width="4.55168" height="4.48602" transform="matrix(0.74217 0.670211 0.74217 -0.670211 1296.02 219.983)" fill="#9C4A9A"/>
<path d="M1387.74 120.889L1384.36 117.839L1396.57 106.815L1399.95 109.865L1402.17 107.861L1405.54 110.912L1408.87 107.905L1412.25 110.956L1415.58 107.949L1417.83 109.983L1405.63 121.007L1402.25 117.956L1400.03 119.961L1397.78 117.927L1394.45 120.933L1391.07 117.883L1387.74 120.889Z" fill="#4A8068"/>
<path d="M1409.13 140.21L1412.51 143.26L1424.72 132.236L1421.34 129.186L1423.56 127.181L1420.18 124.131L1423.51 121.124L1420.13 118.073L1423.46 115.067L1421.21 113.033L1409 124.057L1412.38 127.108L1410.16 129.112L1412.41 131.146L1409.08 134.152L1412.46 137.203L1409.13 140.21Z" fill="#4A8068"/>
<path d="M1426.83 116.098L1430.15 113.092L1442.54 124.277L1439.21 127.284L1441.46 129.318L1438.13 132.324L1441.51 135.375L1438.18 138.381L1441.56 141.432L1439.34 143.436L1426.96 132.251L1430.28 129.244L1428.03 127.211L1430.25 125.206L1426.87 122.156L1430.2 119.149L1426.83 116.098Z" fill="#4A8068"/>
<path d="M1463.76 121.388L1467.09 118.381L1454.7 107.196L1451.37 110.202L1449.12 108.169L1445.79 111.175L1442.41 108.125L1439.08 111.131L1435.7 108.081L1433.48 110.085L1445.87 121.271L1449.2 118.264L1451.45 120.298L1453.67 118.293L1457.05 121.344L1460.38 118.337L1463.76 121.388Z" fill="#4A8068"/>
<path d="M1463.51 91.1027L1466.89 94.1533L1454.68 105.177L1451.31 102.127L1449.09 104.131L1445.71 101.081L1442.38 104.087L1439 101.037L1435.67 104.043L1433.42 102.01L1445.63 90.9854L1449 94.036L1451.22 92.0316L1453.48 94.0653L1456.81 91.0587L1460.18 94.1093L1463.51 91.1027Z" fill="#4A8068"/>
<path d="M1442.12 71.7815L1438.74 68.731L1426.53 79.7551L1429.91 82.8057L1427.69 84.8101L1431.07 87.8607L1427.74 90.8672L1431.12 93.9178L1427.79 96.9244L1430.04 98.9581L1442.25 87.934L1438.87 84.8834L1441.09 82.879L1438.84 80.8453L1442.17 77.8387L1438.79 74.7881L1442.12 71.7815Z" fill="#4A8068"/>
<path d="M1387.49 90.6033L1384.17 93.6099L1396.55 104.795L1399.88 101.789L1402.13 103.822L1405.46 100.816L1408.84 103.866L1412.17 100.86L1415.55 103.91L1417.77 101.906L1405.38 90.7206L1402.05 93.7272L1399.8 91.6935L1397.58 93.6979L1394.2 90.6473L1390.87 93.6539L1387.49 90.6033Z" fill="#4A8068"/>
<path d="M1424.43 95.8928L1421.1 98.8994L1408.71 87.7139L1412.04 84.7073L1409.79 82.6736L1413.12 79.667L1409.74 76.6165L1413.07 73.6099L1409.69 70.5593L1411.91 68.5549L1424.3 79.7404L1420.97 82.747L1423.22 84.7807L1421 86.7851L1424.38 89.8357L1421.05 92.8422L1424.43 95.8928Z" fill="#4A8068"/>
<rect width="4.55168" height="4.48602" transform="matrix(0.74217 0.670211 0.74217 -0.670211 1422.27 105.973)" fill="#4A8068"/>
<path fill-rule="evenodd" clip-rule="evenodd" d="M1331.03 183.686L1338.29 190.242L1341.15 187.657L1344.05 190.279L1346.91 187.695L1349.82 190.317L1352.68 187.733L1355.58 190.355L1358.45 187.771L1361.35 190.393L1364.21 187.808L1367.12 190.431L1369.98 187.846L1372.88 190.469L1375.74 187.884L1378.65 190.506L1381.51 187.922L1384.41 190.544L1393 182.79L1390.1 180.168L1392.96 177.583L1390.06 174.961L1392.92 172.376L1390.01 169.754L1392.88 167.17L1389.97 164.547L1392.83 161.963L1389.93 159.34L1392.79 156.755L1389.89 154.133L1392.75 151.548L1389.85 148.926L1392.71 146.341L1389.8 143.719L1392.67 141.134L1385.41 134.578L1381.11 138.455L1386.92 143.7L1384.06 146.284L1386.96 148.907L1384.1 151.491L1387 154.114L1384.14 156.698L1387.05 159.321L1384.18 161.906L1387.09 164.528L1384.23 167.113L1387.13 169.735L1384.27 172.319L1387.17 174.942L1384.31 177.527L1387.21 180.149L1381.49 185.318L1378.59 182.696L1375.72 185.28L1372.82 182.658L1369.96 185.242L1367.05 182.62L1364.19 185.205L1361.29 182.583L1358.43 185.167L1355.52 182.545L1352.66 185.129L1349.76 182.507L1346.89 185.091L1343.99 182.469L1341.13 185.054L1335.32 179.809L1331.03 183.686Z" fill="#E62C20"/>
<path fill-rule="evenodd" clip-rule="evenodd" d="M1338.29 190.242L1331.03 183.686L1333.89 181.101L1330.98 178.478L1333.85 175.893L1330.94 173.271L1333.8 170.686L1330.9 168.064L1333.76 165.479L1330.86 162.857L1333.72 160.272L1330.82 157.65L1333.68 155.065L1330.77 152.443L1333.64 149.858L1330.73 147.236L1333.59 144.651L1330.69 142.029L1339.28 134.275L1342.18 136.898L1345.04 134.313L1347.95 136.935L1350.81 134.351L1353.71 136.973L1356.58 134.388L1359.48 137.011L1362.34 134.426L1365.25 137.049L1368.11 134.464L1371.01 137.087L1373.87 134.502L1376.78 137.124L1379.64 134.54L1382.54 137.162L1385.41 134.577L1392.67 141.134L1388.37 145.01L1382.56 139.766L1379.7 142.35L1376.8 139.728L1373.94 142.313L1371.03 139.69L1368.17 142.275L1365.27 139.652L1362.4 142.237L1359.5 139.615L1356.64 142.199L1353.73 139.577L1350.87 142.161L1347.97 139.539L1345.11 142.124L1342.2 139.501L1336.48 144.67L1339.38 147.293L1336.52 149.877L1339.42 152.5L1336.56 155.084L1339.47 157.707L1336.6 160.291L1339.51 162.913L1336.65 165.498L1339.55 168.121L1336.69 170.705L1339.59 173.328L1336.73 175.912L1339.63 178.535L1336.77 181.12L1342.58 186.365L1338.29 190.242Z" fill="#E62C20"/>
<rect width="9.78212" height="9.64102" transform="matrix(0.74217 0.670211 0.74217 -0.670211 1355.35 161.716)" fill="#E62C20"/>
<path fill-rule="evenodd" clip-rule="evenodd" d="M1205.23 184.097L1212.49 190.653L1215.35 188.069L1218.26 190.691L1221.12 188.106L1224.02 190.729L1226.89 188.144L1229.79 190.766L1232.65 188.182L1235.56 190.804L1238.42 188.22L1241.32 190.842L1244.18 188.258L1247.09 190.88L1249.95 188.296L1252.85 190.918L1255.72 188.333L1258.62 190.956L1267.21 183.202L1264.3 180.579L1267.16 177.995L1264.26 175.373L1267.12 172.788L1264.22 170.166L1267.08 167.581L1264.18 164.959L1267.04 162.374L1264.13 159.751L1267 157.166L1264.09 154.544L1266.96 151.96L1264.05 149.337L1266.91 146.753L1264.01 144.13L1266.87 141.546L1259.61 134.99L1255.32 138.867L1261.13 144.111L1258.26 146.696L1261.17 149.318L1258.31 151.903L1261.21 154.525L1258.35 157.11L1261.25 159.732L1258.39 162.317L1261.29 164.94L1258.43 167.524L1261.34 170.147L1258.47 172.731L1261.38 175.353L1258.52 177.938L1261.42 180.56L1255.7 185.73L1252.79 183.107L1249.93 185.692L1247.03 183.07L1244.16 185.654L1241.26 183.032L1238.4 185.616L1235.49 182.994L1232.63 185.578L1229.73 182.956L1226.86 185.541L1223.96 182.918L1221.1 185.503L1218.19 182.881L1215.33 185.465L1209.52 180.22L1205.23 184.097Z" fill="#4A8068"/>
<path fill-rule="evenodd" clip-rule="evenodd" d="M1212.49 190.654L1205.23 184.098L1208.09 181.513L1205.19 178.891L1208.05 176.306L1205.15 173.684L1208.01 171.099L1205.11 168.477L1207.97 165.892L1205.06 163.27L1207.93 160.685L1205.02 158.062L1207.88 155.478L1204.98 152.856L1207.84 150.271L1204.94 147.648L1207.8 145.064L1204.9 142.442L1213.48 134.688L1216.39 137.31L1219.25 134.726L1222.15 137.348L1225.02 134.763L1227.92 137.385L1230.78 134.8L1233.69 137.423L1236.55 134.839L1239.45 137.462L1242.31 134.877L1245.22 137.499L1248.08 134.914L1250.98 137.537L1253.85 134.953L1256.75 137.575L1259.61 134.99L1266.87 141.546L1262.58 145.423L1256.77 140.178L1253.91 142.763L1251 140.141L1248.14 142.725L1245.24 140.103L1242.38 142.687L1239.47 140.065L1236.61 142.65L1233.71 140.027L1230.84 142.611L1227.94 139.989L1225.08 142.574L1222.17 139.952L1219.31 142.536L1216.41 139.914L1210.68 145.083L1213.59 147.705L1210.73 150.29L1213.63 152.912L1210.77 155.497L1213.67 158.119L1210.81 160.704L1213.71 163.327L1210.85 165.911L1213.76 168.534L1210.89 171.118L1213.8 173.74L1210.94 176.325L1213.84 178.947L1210.98 181.532L1216.78 186.777L1212.49 190.654Z" fill="#4A8068"/>
<rect width="9.78212" height="9.64102" transform="matrix(0.74217 0.670211 0.74217 -0.670211 1229.56 162.128)" fill="#4A8068"/>
<path fill-rule="evenodd" clip-rule="evenodd" d="M1331.88 298.464L1339.14 305.02L1342 302.436L1344.9 305.058L1347.77 302.474L1350.67 305.096L1353.53 302.512L1356.44 305.134L1359.3 302.549L1362.2 305.172L1365.06 302.587L1367.97 305.21L1370.83 302.625L1373.73 305.247L1376.6 302.663L1379.5 305.285L1382.36 302.701L1385.27 305.323L1393.85 297.57L1390.95 294.947L1393.81 292.362L1390.91 289.74L1393.77 287.155L1390.87 284.533L1393.73 281.948L1390.82 279.326L1393.69 276.741L1390.78 274.119L1393.64 271.535L1390.74 268.912L1393.6 266.327L1390.7 263.705L1393.56 261.12L1390.66 258.498L1393.52 255.913L1386.26 249.357L1381.97 253.234L1387.77 258.479L1384.91 261.063L1387.81 263.686L1384.95 266.27L1387.86 268.893L1384.99 271.478L1387.9 274.1L1385.04 276.685L1387.94 279.307L1385.08 281.892L1387.98 284.514L1385.12 287.098L1388.02 289.721L1385.16 292.305L1388.07 294.928L1382.34 300.097L1379.44 297.474L1376.58 300.059L1373.67 297.437L1370.81 300.021L1367.91 297.399L1365.04 299.984L1362.14 297.361L1359.28 299.946L1356.37 297.323L1353.51 299.908L1350.61 297.286L1347.75 299.87L1344.84 297.248L1341.98 299.832L1336.17 294.587L1331.88 298.464Z" fill="#F69722"/>
<path fill-rule="evenodd" clip-rule="evenodd" d="M1339.14 305.021L1331.88 298.464L1334.74 295.88L1331.84 293.257L1334.7 290.673L1331.79 288.05L1334.66 285.465L1331.75 282.843L1334.61 280.258L1331.71 277.636L1334.57 275.051L1331.67 272.428L1334.53 269.844L1331.63 267.222L1334.49 264.638L1331.59 262.015L1334.45 259.43L1331.54 256.808L1340.13 249.054L1343.03 251.676L1345.9 249.092L1348.8 251.714L1351.66 249.129L1354.57 251.752L1357.43 249.168L1360.33 251.79L1363.19 249.206L1366.1 251.828L1368.96 249.244L1371.86 251.866L1374.73 249.281L1377.63 251.904L1380.49 249.319L1383.4 251.941L1386.26 249.357L1393.52 255.913L1389.22 259.79L1383.42 254.545L1380.55 257.13L1377.65 254.507L1374.79 257.092L1371.88 254.469L1369.02 257.054L1366.12 254.432L1363.26 257.016L1360.35 254.394L1357.49 256.978L1354.59 254.356L1351.72 256.94L1348.82 254.318L1345.96 256.902L1343.05 254.28L1337.33 259.449L1340.23 262.072L1337.37 264.657L1340.28 267.279L1337.41 269.863L1340.32 272.485L1337.46 275.07L1340.36 277.693L1337.5 280.277L1340.4 282.9L1337.54 285.484L1340.44 288.107L1337.58 290.692L1340.49 293.314L1337.62 295.899L1343.43 301.144L1339.14 305.021Z" fill="#F69722"/>
<rect width="9.78212" height="9.64102" transform="matrix(0.74217 0.670211 0.74217 -0.670211 1356.21 276.495)" fill="#F69722"/>
<path fill-rule="evenodd" clip-rule="evenodd" d="M1331.48 70.0875L1338.74 76.6435L1341.6 74.0589L1344.51 76.6814L1347.37 74.0967L1350.27 76.7191L1353.14 74.1344L1356.04 76.7568L1358.9 74.1722L1361.81 76.7948L1364.67 74.2102L1367.57 76.8328L1370.44 74.2482L1373.34 76.8705L1376.2 74.286L1379.11 76.9085L1381.97 74.3239L1384.87 76.9462L1393.46 69.1924L1390.55 66.5699L1393.42 63.9853L1390.51 61.363L1393.37 58.7784L1390.47 56.1561L1393.33 53.5715L1390.43 50.9491L1393.29 48.3646L1390.39 45.7418L1393.25 43.157L1390.34 40.5348L1393.21 37.9502L1390.3 35.3278L1393.16 32.7433L1390.26 30.1206L1393.12 27.5357L1385.86 20.9796L1381.57 24.8565L1387.38 30.1016L1384.52 32.6865L1387.42 35.3089L1384.56 37.8934L1387.46 40.5156L1384.6 43.1003L1387.5 45.7231L1384.64 48.3079L1387.54 50.9303L1384.68 53.5148L1387.59 56.1371L1384.72 58.7216L1387.63 61.3439L1384.77 63.9285L1387.67 66.5511L1381.95 71.7203L1379.04 69.098L1376.18 71.6825L1373.28 69.0599L1370.41 71.6445L1367.51 69.0223L1364.65 71.6069L1361.74 68.9842L1358.88 71.5688L1355.98 68.9462L1353.12 71.5309L1350.21 68.9085L1347.35 71.4932L1344.45 68.8708L1341.58 71.4554L1335.78 66.2105L1331.48 70.0875Z" fill="#EEEEEE"/>
<path fill-rule="evenodd" clip-rule="evenodd" d="M1338.74 76.6431L1331.48 70.087L1334.34 67.5027L1331.44 64.8805L1334.3 62.2956L1331.4 59.673L1334.26 57.0886L1331.36 54.4664L1334.22 51.8819L1331.32 49.2595L1334.18 46.6748L1331.27 44.0523L1334.14 41.4676L1331.23 38.8451L1334.09 36.2604L1331.19 33.6382L1334.05 31.0535L1331.15 28.4306L1339.73 20.6768L1342.64 23.2996L1345.5 20.7153L1348.4 23.3376L1351.27 20.7526L1354.17 23.3751L1357.03 20.7906L1359.94 23.4129L1362.8 20.8283L1365.7 23.4508L1368.56 20.866L1371.47 23.4888L1374.33 20.9044L1377.23 23.5266L1380.1 20.9421L1383 23.5642L1385.86 20.9794L1393.12 27.5355L1388.83 31.4124L1383.02 26.1678L1380.16 28.7526L1377.26 26.1304L1374.39 28.715L1371.49 26.0921L1368.63 28.6766L1365.72 26.0541L1362.86 28.6389L1359.96 26.0167L1357.1 28.6012L1354.19 25.9788L1351.33 28.5632L1348.43 25.9409L1345.56 28.5258L1342.66 25.9031L1336.93 31.0721L1339.84 33.6949L1336.98 36.2796L1339.88 38.9018L1337.02 41.4865L1339.92 44.1091L1337.06 46.6938L1339.96 49.3163L1337.1 51.9008L1340.01 54.5232L1337.14 57.1075L1340.05 59.7297L1337.19 62.3146L1340.09 64.9373L1337.23 67.5216L1343.04 72.7662L1338.74 76.6431Z" fill="#EEEEEE"/>
<rect width="9.78212" height="9.64102" transform="matrix(0.74217 0.670211 0.74217 -0.670211 1355.81 48.1182)" fill="#EEEEEE"/>
<path fill-rule="evenodd" clip-rule="evenodd" d="M1465.39 191.012L1458.13 184.455L1460.99 181.871L1458.09 179.248L1460.95 176.664L1458.04 174.042L1460.91 171.457L1458 168.835L1460.86 166.25L1457.96 163.628L1460.82 161.043L1457.92 158.42L1460.78 155.836L1457.88 153.213L1460.74 150.629L1457.84 148.006L1460.7 145.422L1457.79 142.799L1466.38 135.046L1469.28 137.668L1472.15 135.083L1475.05 137.706L1477.91 135.121L1480.82 137.743L1483.68 135.158L1486.58 137.781L1489.44 135.197L1492.35 137.819L1495.21 135.235L1498.11 137.857L1500.98 135.273L1503.88 137.895L1506.74 135.31L1509.65 137.933L1512.51 135.348L1519.77 141.904L1515.48 145.781L1509.67 140.536L1506.8 143.12L1503.9 140.498L1501.04 143.083L1498.13 140.461L1495.27 143.045L1492.37 140.423L1489.51 143.007L1486.6 140.385L1483.74 142.969L1480.84 140.347L1477.97 142.931L1475.07 140.309L1472.21 142.894L1469.3 140.271L1463.58 145.441L1466.48 148.063L1463.62 150.648L1466.53 153.27L1463.66 155.855L1466.57 158.477L1463.71 161.062L1466.61 163.684L1463.75 166.269L1466.65 168.891L1463.79 171.476L1466.69 174.099L1463.83 176.683L1466.74 179.305L1463.87 181.89L1469.68 187.135L1465.39 191.012Z" fill="#4A8068"/>
</g>
<g opacity="0.7">
<path d="M-22.3643 120.119L-25.7424 117.068L-13.5347 106.044L-10.1566 109.095L-7.93704 107.09L-4.55894 110.141L-1.22957 107.134L2.14853 110.185L5.47791 107.178L7.72998 109.212L-4.47773 120.236L-7.85583 117.186L-10.0754 119.19L-12.3275 117.156L-15.6569 120.163L-19.035 117.112L-22.3643 120.119Z" fill="#4A8068"/>
<path d="M-0.969654 139.439L2.40845 142.489L14.6162 131.465L11.2381 128.415L13.4576 126.41L10.0795 123.36L13.4089 120.353L10.0308 117.302L13.3602 114.296L11.1081 112.262L-1.09959 123.286L2.27851 126.337L0.0589262 128.341L2.31099 130.375L-1.01838 133.382L2.35972 136.432L-0.969654 139.439Z" fill="#4A8068"/>
<path d="M16.7219 115.327L20.0513 112.321L32.4376 123.506L29.1083 126.513L31.3603 128.547L28.031 131.553L31.4091 134.604L28.0797 137.61L31.4578 140.661L29.2382 142.665L16.8518 131.48L20.1812 128.473L17.9291 126.44L20.1487 124.435L16.7706 121.385L20.1 118.378L16.7219 115.327Z" fill="#4A8068"/>
<path d="M53.6538 120.617L56.9832 117.61L44.5968 106.425L41.2674 109.431L39.0153 107.398L35.686 110.404L32.3079 107.354L28.9785 110.36L25.6004 107.31L23.3808 109.314L35.7672 120.5L39.0966 117.493L41.3486 119.527L43.5682 117.522L46.9463 120.573L50.2757 117.566L53.6538 120.617Z" fill="#4A8068"/>
<path d="M53.4097 90.3308L56.7878 93.3813L44.5801 104.405L41.202 101.355L38.9825 103.359L35.6044 100.309L32.275 103.315L28.8969 100.265L25.5675 103.271L23.3154 101.238L35.5231 90.2134L38.9012 93.264L41.1208 91.2596L43.3729 93.2933L46.7023 90.2868L50.0804 93.3373L53.4097 90.3308Z" fill="#4A8068"/>
<path d="M32.0153 71.0105L28.6372 67.96L16.4295 78.9841L19.8076 82.0347L17.588 84.0391L20.9661 87.0897L17.6367 90.0962L21.0148 93.1468L17.6855 96.1534L19.9375 98.1871L32.1452 87.163L28.7671 84.1124L30.9867 82.108L28.7347 80.0743L32.064 77.0677L28.6859 74.0171L32.0153 71.0105Z" fill="#4A8068"/>
<path d="M-22.6081 89.8328L-25.9375 92.8394L-13.5511 104.025L-10.2218 101.018L-7.96969 103.052L-4.64031 100.045L-1.26221 103.096L2.06716 100.089L5.44526 103.14L7.66485 101.136L-4.72152 89.9501L-8.0509 92.9567L-10.303 90.923L-12.5225 92.9274L-15.9007 89.8768L-19.23 92.8834L-22.6081 89.8328Z" fill="#4A8068"/>
<path d="M14.3238 95.1218L10.9944 98.1284L-1.39199 86.9429L1.93739 83.9363L-0.31468 81.9026L3.01469 78.896L-0.363407 75.8455L2.96597 72.8389L-0.412135 69.7883L1.80745 67.7839L14.1938 78.9694L10.8644 81.976L13.1165 84.0097L10.8969 86.0141L14.275 89.0647L10.9457 92.0712L14.3238 95.1218Z" fill="#4A8068"/>
<rect width="4.55166" height="4.48601" transform="matrix(0.742168 0.670213 0.742168 -0.670213 12.1692 105.204)" fill="#4A8068"/>
<path d="M104.281 234.486L100.903 231.435L113.111 220.411L116.489 223.462L118.708 221.457L122.087 224.508L125.416 221.501L128.794 224.552L132.123 221.545L134.375 223.579L122.168 234.603L118.79 231.552L116.57 233.557L114.318 231.523L110.989 234.53L107.611 231.479L104.281 234.486Z" fill="#9C4A9A"/>
<path d="M125.676 253.806L129.054 256.857L141.262 245.833L137.884 242.782L140.103 240.778L136.725 237.727L140.054 234.721L136.676 231.67L140.006 228.663L137.754 226.63L125.546 237.654L128.924 240.704L126.704 242.709L128.957 244.743L125.627 247.749L129.005 250.8L125.676 253.806Z" fill="#9C4A9A"/>
<path d="M143.368 229.695L146.697 226.688L159.083 237.874L155.754 240.881L158.006 242.914L154.677 245.921L158.055 248.971L154.725 251.978L158.104 255.029L155.884 257.033L143.498 245.848L146.827 242.841L144.575 240.807L146.794 238.803L143.416 235.752L146.746 232.746L143.368 229.695Z" fill="#9C4A9A"/>
<path d="M180.299 234.985L183.629 231.978L171.242 220.793L167.913 223.799L165.661 221.765L162.331 224.772L158.953 221.721L155.624 224.728L152.246 221.677L150.026 223.682L162.413 234.867L165.742 231.861L167.994 233.894L170.214 231.89L173.592 234.941L176.921 231.934L180.299 234.985Z" fill="#9C4A9A"/>
<path d="M180.055 204.699L183.434 207.75L171.226 218.774L167.848 215.723L165.628 217.727L162.25 214.677L158.921 217.683L155.543 214.633L152.213 217.639L149.961 215.606L162.169 204.582L165.547 207.632L167.767 205.628L170.019 207.662L173.348 204.655L176.726 207.706L180.055 204.699Z" fill="#9C4A9A"/>
<path d="M158.661 185.379L155.283 182.329L143.075 193.353L146.453 196.403L144.234 198.408L147.612 201.458L144.282 204.465L147.661 207.515L144.331 210.522L146.583 212.556L158.791 201.532L155.413 198.481L157.632 196.477L155.38 194.443L158.71 191.436L155.332 188.386L158.661 185.379Z" fill="#9C4A9A"/>
<path d="M104.038 204.2L100.708 207.207L113.095 218.392L116.424 215.385L118.676 217.419L122.005 214.413L125.384 217.463L128.713 214.457L132.091 217.507L134.311 215.503L121.924 204.317L118.595 207.324L116.343 205.29L114.123 207.295L110.745 204.244L107.416 207.251L104.038 204.2Z" fill="#9C4A9A"/>
<path d="M140.97 209.49L137.64 212.496L125.254 201.311L128.583 198.304L126.331 196.27L129.66 193.264L126.282 190.213L129.612 187.207L126.234 184.156L128.453 182.152L140.84 193.337L137.51 196.344L139.762 198.377L137.543 200.382L140.921 203.432L137.591 206.439L140.97 209.49Z" fill="#9C4A9A"/>
<rect width="4.55166" height="4.48601" transform="matrix(0.742168 0.670213 0.742168 -0.670213 138.815 219.571)" fill="#9C4A9A"/>
<path d="M-21.5125 234.899L-24.8906 231.848L-12.6829 220.824L-9.30482 223.875L-7.08524 221.87L-3.70713 224.921L-0.377761 221.914L3.00034 224.965L6.32971 221.958L8.58178 223.992L-3.62592 235.016L-7.00402 231.965L-9.22361 233.97L-11.4757 231.936L-14.805 234.943L-18.1831 231.892L-21.5125 234.899Z" fill="#E62C20"/>
<path d="M-0.117603 254.219L3.2605 257.27L15.4682 246.245L12.0901 243.195L14.3097 241.19L10.9316 238.14L14.261 235.133L10.8829 232.083L14.2122 229.076L11.9602 227.042L-0.247541 238.066L3.13056 241.117L0.910977 243.121L3.16304 245.155L-0.16633 248.162L3.21177 251.212L-0.117603 254.219Z" fill="#E62C20"/>
<path d="M17.5739 230.107L20.9033 227.101L33.2897 238.286L29.9603 241.293L32.2124 243.326L28.883 246.333L32.2611 249.384L28.9317 252.39L32.3098 255.441L30.0903 257.445L17.7039 246.26L21.0333 243.253L18.7812 241.219L21.0008 239.215L17.6227 236.164L20.952 233.158L17.5739 230.107Z" fill="#E62C20"/>
<path d="M54.5053 235.397L57.8347 232.39L45.4483 221.205L42.119 224.211L39.8669 222.178L36.5375 225.184L33.1594 222.134L29.8301 225.14L26.452 222.09L24.2324 224.094L36.6187 235.279L39.9481 232.273L42.2002 234.307L44.4198 232.302L47.7979 235.353L51.1272 232.346L54.5053 235.397Z" fill="#E62C20"/>
<path d="M54.262 205.112L57.6401 208.162L45.4324 219.186L42.0543 216.136L39.8347 218.14L36.4566 215.089L33.1273 218.096L29.7492 215.045L26.4198 218.052L24.1677 216.018L36.3754 204.994L39.7535 208.045L41.9731 206.04L44.2252 208.074L47.5546 205.068L50.9327 208.118L54.262 205.112Z" fill="#E62C20"/>
<path d="M32.8674 185.791L29.4893 182.74L17.2816 193.764L20.6597 196.815L18.4401 198.819L21.8182 201.87L18.4888 204.877L21.8669 207.927L18.5375 210.934L20.7896 212.967L32.9973 201.943L29.6192 198.893L31.8388 196.888L29.5867 194.855L32.9161 191.848L29.538 188.797L32.8674 185.791Z" fill="#E62C20"/>
<path d="M-21.7558 204.613L-25.0852 207.62L-12.6988 218.805L-9.36946 215.799L-7.11739 217.832L-3.78802 214.826L-0.409916 217.876L2.91946 214.87L6.29756 217.92L8.51714 215.916L-3.86923 204.73L-7.1986 207.737L-9.45067 205.703L-11.6703 207.708L-15.0484 204.657L-18.3777 207.664L-21.7558 204.613Z" fill="#E62C20"/>
<path d="M15.1758 209.903L11.8464 212.909L-0.539937 201.724L2.78944 198.717L0.537371 196.683L3.86675 193.677L0.488643 190.626L3.81802 187.62L0.439916 184.569L2.6595 182.565L15.0459 193.75L11.7165 196.757L13.9686 198.79L11.749 200.795L15.1271 203.845L11.7977 206.852L15.1758 209.903Z" fill="#E62C20"/>
<rect width="4.55166" height="4.48601" transform="matrix(0.742168 0.670213 0.742168 -0.670213 13.0212 219.983)" fill="#E62C20"/>
<path d="M104.738 120.889L101.36 117.838L113.568 106.814L116.946 109.865L119.166 107.86L122.544 110.911L125.873 107.904L129.251 110.955L132.581 107.948L134.833 109.982L122.625 121.006L119.247 117.956L117.027 119.96L114.775 117.926L111.446 120.933L108.068 117.882L104.738 120.889Z" fill="#EEEEEE"/>
<path d="M126.133 140.209L129.511 143.259L141.719 132.235L138.341 129.185L140.56 127.18L137.182 124.13L140.511 121.123L137.133 118.072L140.463 115.066L138.211 113.032L126.003 124.056L129.381 127.107L127.161 129.111L129.414 131.145L126.084 134.152L129.462 137.202L126.133 140.209Z" fill="#EEEEEE"/>
<path d="M143.825 116.097L147.154 113.09L159.54 124.276L156.211 127.282L158.463 129.316L155.134 132.323L158.512 135.373L155.182 138.38L158.561 141.43L156.341 143.435L143.955 132.249L147.284 129.243L145.032 127.209L147.252 125.205L143.873 122.154L147.203 119.148L143.825 116.097Z" fill="#EEEEEE"/>
<path d="M180.756 121.386L184.086 118.38L171.699 107.194L168.37 110.201L166.118 108.167L162.789 111.174L159.41 108.123L156.081 111.13L152.703 108.079L150.483 110.084L162.87 121.269L166.199 118.263L168.451 120.296L170.671 118.292L174.049 121.342L177.378 118.336L180.756 121.386Z" fill="#EEEEEE"/>
<path d="M180.513 91.1013L183.891 94.1519L171.683 105.176L168.305 102.125L166.085 104.13L162.707 101.079L159.378 104.086L156 101.035L152.671 104.042L150.418 102.008L162.626 90.9839L166.004 94.0345L168.224 92.0301L170.476 94.0639L173.805 91.0573L177.183 94.1079L180.513 91.1013Z" fill="#EEEEEE"/>
<path d="M159.118 71.7811L155.74 68.7305L143.532 79.7546L146.91 82.8052L144.691 84.8096L148.069 87.8602L144.74 90.8668L148.118 93.9173L144.788 96.9239L147.04 98.9576L159.248 87.9335L155.87 84.8829L158.09 82.8785L155.837 80.8448L159.167 77.8382L155.789 74.7876L159.118 71.7811Z" fill="#EEEEEE"/>
<path d="M104.494 90.6023L101.165 93.6089L113.551 104.794L116.881 101.788L119.133 103.822L122.462 100.815L125.84 103.866L129.17 100.859L132.548 103.91L134.767 101.905L122.381 90.7196L119.052 93.7262L116.8 91.6925L114.58 93.6969L111.202 90.6463L107.873 93.6529L104.494 90.6023Z" fill="#EEEEEE"/>
<path d="M141.427 95.8923L138.097 98.8989L125.711 87.7134L129.04 84.7069L126.788 82.6731L130.117 79.6665L126.739 76.616L130.069 73.6094L126.691 70.5588L128.91 68.5544L141.297 79.7399L137.967 82.7465L140.219 84.7802L138 86.7846L141.378 89.8352L138.048 92.8418L141.427 95.8923Z" fill="#EEEEEE"/>
<rect width="4.55166" height="4.48601" transform="matrix(0.742168 0.670213 0.742168 -0.670213 139.272 105.973)" fill="#EEEEEE"/>
<path fill-rule="evenodd" clip-rule="evenodd" d="M48.0259 183.684L55.2858 190.24L58.148 187.655L61.052 190.278L63.9142 187.693L66.8181 190.316L69.6801 187.731L72.5843 190.354L75.4468 187.769L78.3505 190.391L81.2127 187.806L84.1165 190.428L86.9779 187.844L89.8826 190.468L92.7449 187.883L95.6484 190.505L98.5106 187.92L101.415 190.542L110.001 182.788L107.097 180.166L109.959 177.581L107.055 174.959L109.917 172.374L107.014 169.752L109.875 167.168L106.971 164.545L109.834 161.96L106.929 159.338L109.791 156.753L106.887 154.131L109.75 151.546L106.846 148.924L109.708 146.339L106.804 143.717L109.666 141.133L102.406 134.577L98.1129 138.453L103.921 143.698L101.059 146.283L103.962 148.905L101.101 151.489L104.004 154.112L101.142 156.696L104.046 159.319L101.184 161.903L104.089 164.526L101.226 167.111L104.13 169.733L101.268 172.318L104.172 174.94L101.31 177.524L104.214 180.147L98.4895 185.316L95.5856 182.694L92.7232 185.279L89.8198 182.657L86.9584 185.241L84.0537 182.618L81.1915 185.203L78.2876 182.58L75.4251 185.165L72.5215 182.543L69.6595 185.128L66.7552 182.505L63.893 185.09L60.9892 182.467L58.127 185.052L52.319 179.807L48.0259 183.684Z" fill="#F69722"/>
<path fill-rule="evenodd" clip-rule="evenodd" d="M55.2859 190.24L48.0259 183.684L50.888 181.1L47.9839 178.477L50.8457 175.893L47.942 173.27L50.8041 170.686L47.9001 168.063L50.7625 165.478L47.8583 162.856L50.7207 160.271L47.8164 157.648L50.6778 155.064L47.7746 152.442L50.637 149.858L47.7327 147.235L50.5947 144.65L47.6905 142.028L56.2768 134.274L59.1811 136.897L62.043 134.312L64.9472 136.935L67.8092 134.35L70.7128 136.972L73.5752 134.387L76.4795 137.01L79.3411 134.426L82.2449 137.048L85.1071 134.464L88.0111 137.086L90.8735 134.501L93.7773 137.124L96.6395 134.539L99.5435 137.161L102.406 134.577L109.666 141.133L105.372 145.01L99.5645 139.765L96.7023 142.349L93.7985 139.727L90.9363 142.312L88.0323 139.689L85.1699 142.274L82.2661 139.652L79.404 142.237L76.4996 139.614L73.638 142.198L70.7345 139.576L67.8721 142.161L64.9679 139.538L62.1059 142.123L59.2016 139.5L53.4776 144.669L56.3818 147.292L53.5194 149.876L56.4237 152.499L53.5623 155.083L56.4655 157.705L53.6031 160.29L56.5074 162.912L53.645 165.497L56.5492 168.12L53.6871 170.705L56.5911 173.327L53.7292 175.912L56.633 178.534L53.7709 181.118L59.579 186.363L55.2859 190.24Z" fill="#F69722"/>
<rect width="9.78209" height="9.64099" transform="matrix(0.742168 0.670213 0.742168 -0.670213 72.3538 161.714)" fill="#F69722"/>
<path fill-rule="evenodd" clip-rule="evenodd" d="M-77.7681 184.097L-70.5081 190.653L-67.6458 188.068L-64.7419 190.69L-61.8797 188.106L-58.9758 190.728L-56.1137 188.143L-53.2098 190.766L-50.3476 188.181L-47.4436 190.803L-44.5818 188.219L-41.6772 190.842L-38.8152 188.257L-35.9114 190.879L-33.0496 188.295L-30.1456 190.918L-27.2833 188.333L-24.3794 190.955L-15.7932 183.201L-18.6969 180.579L-15.8351 177.995L-18.739 175.373L-15.8768 172.788L-18.7808 170.165L-15.9187 167.581L-18.8227 164.958L-15.9605 162.374L-18.8649 159.751L-16.0026 157.166L-18.9066 154.544L-16.0445 151.959L-18.9482 149.337L-16.0864 146.752L-18.9901 144.13L-16.1281 141.546L-23.3881 134.989L-27.6812 138.866L-21.8735 144.111L-24.7355 146.696L-21.8317 149.318L-24.6936 151.902L-21.7896 154.525L-24.6517 157.109L-21.7473 159.732L-24.6096 162.317L-21.7056 164.939L-24.5678 167.524L-21.6638 170.146L-24.5259 172.731L-21.622 175.353L-24.4843 177.938L-21.5805 180.56L-27.3045 185.729L-30.2084 183.107L-33.0702 185.691L-35.9743 183.069L-38.8363 185.653L-41.7401 183.031L-44.6019 185.616L-47.5065 182.993L-50.3687 185.577L-53.2727 182.955L-56.1348 185.54L-59.0386 182.917L-61.9009 185.502L-64.8048 182.88L-67.667 185.465L-73.4749 180.22L-77.7681 184.097Z" fill="#EEEEEE"/>
<path fill-rule="evenodd" clip-rule="evenodd" d="M48.8777 298.464L56.1376 305.02L58.9995 302.436L61.9036 305.058L64.7654 302.474L67.6699 305.097L70.5322 302.512L73.4357 305.134L76.298 302.549L79.202 305.171L82.0638 302.587L84.9683 305.21L87.8306 302.625L90.734 305.247L93.5959 302.663L96.5 305.285L99.3621 302.701L102.266 305.323L110.853 297.57L107.948 294.947L110.81 292.362L107.907 289.74L110.769 287.155L107.865 284.533L110.727 281.948L107.823 279.326L110.685 276.741L107.781 274.118L110.643 271.534L107.739 268.912L110.601 266.327L107.697 263.705L110.559 261.12L107.655 258.498L110.518 255.913L103.258 249.357L98.9644 253.234L104.772 258.479L101.91 261.064L104.814 263.686L101.952 266.27L104.856 268.893L101.994 271.477L104.898 274.1L102.036 276.684L104.94 279.307L102.078 281.892L104.982 284.514L102.12 287.099L105.023 289.721L102.161 292.305L105.066 294.928L99.3414 300.097L96.4372 297.475L93.5753 300.059L90.6712 297.437L87.8089 300.021L84.9054 297.399L82.0437 299.984L79.1391 297.361L76.2768 299.946L73.3729 297.323L70.5105 299.908L67.607 297.286L64.7453 299.87L61.8407 297.247L58.9789 299.832L53.1708 294.587L48.8777 298.464Z" fill="#F69722"/>
<path fill-rule="evenodd" clip-rule="evenodd" d="M56.1384 305.021L48.8785 298.464L51.7406 295.88L48.8363 293.257L51.6979 290.673L48.7943 288.051L51.6565 285.466L48.7525 282.844L51.6147 280.259L48.7108 277.637L51.5734 275.052L48.6689 272.429L51.5307 269.844L48.627 267.222L51.4891 264.637L48.5851 262.015L51.4471 259.43L48.5431 256.808L57.1293 249.054L60.0335 251.677L62.8958 249.092L65.7996 251.714L68.6618 249.13L71.5659 251.752L74.4278 249.168L77.3315 251.79L80.1936 249.205L83.0976 251.828L85.9599 249.243L88.8643 251.866L91.726 249.281L94.6298 251.904L97.492 249.319L100.396 251.942L103.258 249.357L110.518 255.913L106.225 259.79L100.417 254.545L97.5548 257.13L94.651 254.507L91.7889 257.092L88.8844 254.469L86.0227 257.053L83.1188 254.431L80.2564 257.016L77.3527 254.394L74.4906 256.978L71.5865 254.356L68.7246 256.94L65.8208 254.318L62.9586 256.902L60.0545 254.28L54.3301 259.449L57.2342 262.072L54.3721 264.656L57.2761 267.279L54.4142 269.863L57.318 272.485L54.4553 275.071L57.3599 277.694L54.4977 280.278L57.4016 282.901L54.5395 285.485L57.4434 288.108L54.5819 290.692L57.4854 293.314L54.6233 295.898L60.4316 301.144L56.1384 305.021Z" fill="#F69722"/>
<rect width="9.78209" height="9.64099" transform="matrix(0.742168 0.670213 0.742168 -0.670213 73.2058 276.495)" fill="#F69722"/>
<path fill-rule="evenodd" clip-rule="evenodd" d="M48.4822 70.0866L55.7421 76.6427L58.6041 74.0582L61.5084 76.6809L64.3706 74.0961L67.2745 76.7185L70.1367 74.1338L73.0405 76.7561L75.9026 74.1715L78.8064 76.7937L81.6685 74.2091L84.5728 76.8319L87.4348 74.2473L90.3386 76.8695L93.2007 74.2848L96.1046 76.9071L98.9664 74.3228L101.871 76.9457L110.457 69.1919L107.553 66.5691L110.415 63.9844L107.511 61.3621L110.373 58.7773L107.469 56.1546L110.332 53.5698L107.428 50.9475L110.29 48.3631L107.386 45.7408L110.248 43.1565L107.343 40.5338L110.206 37.9489L107.302 35.3268L110.164 32.7423L107.26 30.1196L110.122 27.5346L102.862 20.9785L98.569 24.8554L104.377 30.1005L101.515 32.6856L104.418 35.3077L101.556 37.8922L104.461 40.5149L101.598 43.0998L104.502 45.7221L101.641 48.3064L104.544 50.9286L101.682 53.513L104.587 56.1357L101.724 58.7206L104.628 61.3429L101.766 63.9277L104.67 66.5504L98.9463 71.7195L96.0417 69.0965L93.1796 71.6812L90.2757 69.0589L87.4137 71.6435L84.5099 69.0213L81.6479 71.6059L78.7436 68.9832L75.8814 71.5678L72.9777 68.9456L70.1155 71.5302L67.2117 68.9079L64.3494 71.4927L61.4455 68.8703L58.5835 71.4548L52.7753 66.2097L48.4822 70.0866Z" fill="#9C4A9A"/>
<path fill-rule="evenodd" clip-rule="evenodd" d="M55.7427 76.6431L48.4827 70.087L51.3448 67.5024L48.4405 64.8797L51.3022 62.2954L48.3988 59.6735L51.261 57.0889L48.3569 54.4664L51.2193 51.8816L48.315 49.2589L51.1772 46.6742L48.2732 44.0518L51.1354 41.4671L48.2314 38.8447L51.0933 36.2602L48.1896 33.638L51.0518 31.0533L48.1474 28.4305L56.7337 20.6766L59.638 23.2994L62.5 20.7149L65.4036 23.337L68.2661 20.752L71.1702 23.3745L74.032 20.7901L76.9361 23.4127L79.798 20.8283L82.7017 23.4504L85.5642 20.8654L88.4684 23.488L91.3304 20.9035L94.2344 23.526L97.0962 20.9416L100 23.5641L102.862 20.9794L110.122 27.5355L105.829 31.4124L100.021 26.1675L97.1591 28.7522L94.255 26.1297L91.3932 28.7141L88.489 26.0914L85.627 28.676L82.7234 26.0538L79.8608 28.6388L76.9567 26.0163L74.0948 28.6007L71.1908 25.9782L68.3289 28.5626L65.4253 25.9405L62.5628 28.5255L59.6585 25.9027L53.9342 31.0719L56.8387 33.6948L53.9768 36.2792L56.8805 38.9014L54.0183 41.4861L56.9223 44.1085L54.0602 46.6931L56.9642 49.3156L54.1018 51.9005L57.006 54.5232L54.1439 57.1078L57.048 59.7303L54.1863 62.3145L57.0896 64.9364L54.2276 67.521L60.0358 72.7662L55.7427 76.6431Z" fill="#9C4A9A"/>
<rect width="9.78209" height="9.64099" transform="matrix(0.742168 0.670213 0.742168 -0.670213 72.8103 48.1177)" fill="#9C4A9A"/>
<path fill-rule="evenodd" clip-rule="evenodd" d="M175.128 184.454L182.388 191.01L185.25 188.425L188.154 191.048L191.017 188.463L193.92 191.085L196.782 188.5L199.686 191.123L202.548 188.538L205.452 191.161L208.315 188.576L211.219 191.198L214.08 188.614L216.985 191.237L219.847 188.652L222.751 191.274L225.612 188.69L228.517 191.312L237.103 183.558L234.199 180.936L237.061 178.351L234.157 175.729L237.019 173.144L234.115 170.522L236.977 167.937L234.074 165.315L236.935 162.731L234.031 160.108L236.894 157.522L233.99 154.9L236.852 152.316L233.948 149.694L236.81 147.109L233.906 144.487L236.768 141.902L229.508 135.346L225.215 139.223L231.023 144.468L228.161 147.053L231.064 149.675L228.202 152.259L231.106 154.881L228.245 157.466L231.149 160.089L228.286 162.674L231.19 165.296L228.328 167.88L231.232 170.503L228.37 173.088L231.274 175.71L228.412 178.295L231.316 180.917L225.592 186.086L222.688 183.463L219.825 186.048L216.922 183.426L214.06 186.011L211.156 183.388L208.293 185.973L205.389 183.35L202.527 185.935L199.623 183.313L196.762 185.897L193.857 183.274L190.995 185.859L188.091 183.237L185.229 185.822L179.421 180.577L175.128 184.454Z" fill="#EEEEEE"/>
<path fill-rule="evenodd" clip-rule="evenodd" d="M182.388 191.01L175.128 184.454L177.99 181.869L175.086 179.247L177.949 176.662L175.044 174.039L177.906 171.455L175.002 168.833L177.864 166.248L174.961 163.626L177.823 161.041L174.919 158.418L177.781 155.834L174.877 153.212L177.739 150.627L174.835 148.004L177.697 145.42L174.793 142.797L183.379 135.043L186.284 137.666L189.146 135.082L192.049 137.704L194.912 135.119L197.815 137.741L200.678 135.156L203.582 137.779L206.443 135.195L209.347 137.817L212.21 135.232L215.114 137.855L217.976 135.27L220.88 137.893L223.742 135.309L226.645 137.931L229.508 135.346L236.768 141.902L232.475 145.779L226.667 140.534L223.805 143.119L220.9 140.497L218.039 143.081L215.135 140.458L212.273 143.043L209.369 140.42L206.506 143.005L203.602 140.383L200.74 142.967L197.837 140.345L194.974 142.929L192.071 140.307L189.208 142.892L186.304 140.269L180.58 145.438L183.484 148.061L180.622 150.646L183.526 153.269L180.664 155.853L183.568 158.475L180.705 161.06L183.61 163.683L180.748 166.267L183.652 168.889L180.79 171.474L183.694 174.096L180.831 176.681L183.735 179.304L180.873 181.888L186.681 187.133L182.388 191.01Z" fill="#EEEEEE"/>
<rect width="9.78209" height="9.64099" transform="matrix(0.742168 0.670213 0.742168 -0.670213 199.456 162.485)" fill="#EEEEEE"/>
</g>
</svg>
