<svg width="334" height="455" viewBox="0 0 334 455" fill="none" xmlns="http://www.w3.org/2000/svg">
<path d="M23 428.5H165H307M23 23H307" stroke="#EEEEEE" stroke-width="2"/>
<path d="M11.2047 36.7528L12.1934 38.485L18.9273 34.6416L17.9387 32.9094L19.163 32.2105L18.1744 30.4783L20.0109 29.4301L19.0222 27.6979L20.8588 26.6497L20.1997 25.4949L13.4657 29.3384L14.4544 31.0706L13.23 31.7694L13.8891 32.9242L12.0526 33.9724L13.0412 35.7046L11.2047 36.7528Z" fill="#4A8068"/>
<path d="M4.94325 25.7819L3.95459 24.0497L10.6886 20.2063L11.6772 21.9385L12.9016 21.2397L13.8902 22.9719L15.7268 21.9237L16.7154 23.6559L18.552 22.6077L19.2111 23.7625L12.4771 27.6059L11.4884 25.8737L10.2641 26.5725L9.60498 25.4177L7.76845 26.4659L6.77979 24.7337L4.94325 25.7819Z" fill="#4A8068"/>
<path d="M18.5048 21.1036L20.3413 20.0554L16.7162 13.704L14.8797 14.7522L14.2206 13.5974L12.384 14.6456L11.3954 12.9134L9.55885 13.9616L8.57019 12.2294L7.34583 12.9282L10.9709 19.2796L12.8075 18.2314L13.4666 19.3862L14.6909 18.6874L15.6796 20.4196L17.5161 19.3714L18.5048 21.1036Z" fill="#4A8068"/>
<path d="M20.8139 5.2412L22.6504 4.19299L26.2755 10.5444L24.4389 11.5926L25.098 12.7474L23.2615 13.7956L24.2502 15.5278L22.4136 16.576L23.4023 18.3082L22.1779 19.007L18.5528 12.6556L20.3894 11.6074L19.7303 10.4526L20.9546 9.75382L19.966 8.02161L21.8025 6.9734L20.8139 5.2412Z" fill="#4A8068"/>
<path d="M34.9393 8.6614L33.9507 6.9292L27.2167 10.7726L28.2054 12.5048L26.981 13.2036L27.9697 14.9358L26.1331 15.984L27.1218 17.7163L25.2853 18.7645L25.9444 19.9193L32.6783 16.0758L31.6897 14.3436L32.914 13.6448L32.2549 12.49L34.0915 11.4418L33.1028 9.70961L34.9393 8.6614Z" fill="#4A8068"/>
<path d="M41.2013 19.6319L42.1899 21.3641L35.456 25.2076L34.4673 23.4754L33.243 24.1742L32.2543 22.442L30.4178 23.4902L29.4291 21.758L27.5926 22.8062L26.9335 21.6514L33.6674 17.8079L34.6561 19.5401L35.8804 18.8413L36.5395 19.9961L38.3761 18.9479L39.3647 20.6801L41.2013 19.6319Z" fill="#4A8068"/>
<path d="M25.3307 40.1726L23.4941 41.2208L19.8691 34.8694L21.7056 33.8212L21.0465 32.6664L22.883 31.6182L21.8944 29.886L23.7309 28.8378L22.7422 27.1056L23.9666 26.4068L27.5917 32.7582L25.7551 33.8064L26.4143 34.9612L25.1899 35.66L26.1786 37.3922L24.342 38.4404L25.3307 40.1726Z" fill="#4A8068"/>
<path d="M27.6393 24.3102L25.8027 25.3584L29.4278 31.7098L31.2644 30.6616L31.9235 31.8164L33.76 30.7682L34.7487 32.5004L36.5852 31.4522L37.5739 33.1844L38.7982 32.4856L35.1731 26.1342L33.3366 27.1824L32.6775 26.0276L31.4531 26.7264L30.4645 24.9942L28.6279 26.0424L27.6393 24.3102Z" fill="#4A8068"/>
<rect x="22.6479" y="24.0968" width="1.99449" height="2.11462" transform="rotate(-119.716 22.6479 24.0968)" fill="#DF3727"/>
<path d="M293.421 444.896L294.605 446.872L302.285 442.268L301.101 440.293L302.497 439.456L301.313 437.48L303.408 436.225L302.224 434.249L304.318 432.994L303.529 431.677L295.849 436.28L297.033 438.256L295.636 439.093L296.426 440.41L294.331 441.665L295.515 443.641L293.421 444.896Z" fill="#9C4A9A"/>
<path d="M285.921 432.384L284.737 430.408L292.417 425.805L293.601 427.781L294.998 426.944L296.182 428.919L298.276 427.664L299.46 429.639L301.555 428.384L302.344 429.701L294.664 434.304L293.48 432.329L292.084 433.166L291.294 431.849L289.2 433.104L288.016 431.128L285.921 432.384Z" fill="#9C4A9A"/>
<path d="M301.464 426.649L303.558 425.393L299.216 418.149L297.122 419.405L296.332 418.088L294.238 419.343L293.054 417.368L290.959 418.623L289.775 416.647L288.378 417.484L292.72 424.728L294.815 423.473L295.604 424.79L297.001 423.953L298.185 425.928L300.279 424.673L301.464 426.649Z" fill="#9C4A9A"/>
<path d="M303.739 408.277L305.833 407.022L310.175 414.266L308.081 415.521L308.87 416.838L306.776 418.094L307.96 420.069L305.865 421.325L307.049 423.301L305.653 424.138L301.311 416.894L303.406 415.638L302.616 414.321L304.013 413.484L302.828 411.508L304.923 410.253L303.739 408.277Z" fill="#9C4A9A"/>
<path d="M320.132 411.878L318.948 409.902L311.268 414.506L312.452 416.481L311.056 417.318L312.24 419.294L310.145 420.549L311.329 422.525L309.235 423.78L310.024 425.097L317.704 420.494L316.52 418.519L317.917 417.682L317.127 416.364L319.222 415.109L318.038 413.133L320.132 411.878Z" fill="#9C4A9A"/>
<path d="M327.633 424.39L328.817 426.366L321.137 430.969L319.953 428.994L318.556 429.831L317.372 427.855L315.277 429.111L314.093 427.135L311.999 428.39L311.209 427.073L318.889 422.47L320.074 424.446L321.47 423.609L322.259 424.926L324.354 423.67L325.538 425.646L327.633 424.39Z" fill="#9C4A9A"/>
<path d="M309.662 448.734L307.567 449.989L303.226 442.745L305.32 441.49L304.531 440.173L306.625 438.917L305.441 436.942L307.536 435.686L306.352 433.711L307.748 432.874L312.09 440.118L309.995 441.373L310.785 442.69L309.388 443.527L310.572 445.503L308.478 446.758L309.662 448.734Z" fill="#9C4A9A"/>
<path d="M312.089 430.126L309.995 431.381L314.336 438.625L316.431 437.369L317.22 438.687L319.315 437.431L320.499 439.407L322.594 438.151L323.778 440.127L325.174 439.29L320.833 432.046L318.738 433.301L317.949 431.984L316.552 432.821L315.368 430.846L313.273 432.101L312.089 430.126Z" fill="#9C4A9A"/>
<rect x="306.321" y="430.002" width="2.30331" height="2.44204" transform="rotate(-120.938 306.321 430.002)" fill="#DF3727"/>
</svg>
