<svg width="320" height="30" viewBox="0 0 320 30" fill="none" xmlns="http://www.w3.org/2000/svg">
<path fill-rule="evenodd" clip-rule="evenodd" d="M249.701 10.4363H253.071V13.8064H249.701V10.4363ZM249.701 13.8064H253.071V17.1764V17.1765V20.5464H249.701V17.1765H246.331V13.8064H249.701H249.701ZM253.071 13.8064H256.441V17.1765H253.071V13.8064Z" fill="#F69722"/>
<path fill-rule="evenodd" clip-rule="evenodd" d="M249.701 1H253.071L253.071 3.6959H256.441V7.06596H253.071L253.071 4.37006H249.701V1ZM242.961 10.4362H239.591V13.8063H242.961V10.4362ZM240.265 13.8063H236.895V17.1764H240.265V19.8724H243.635V23.2422H247.005V19.8722H243.635V16.5023H240.265V13.8063ZM249.701 3.6959H246.331V7.06596H249.701V3.6959ZM242.961 7.066H246.331V10.4361H242.961V7.066ZM262.507 17.1762H265.877V13.8061H263.181V10.4362H259.811V13.8063H262.507V17.1762ZM263.181 20.5463H259.811V17.1762H263.181V20.5463ZM249.701 29.9825H253.071V26.6124L250.375 26.6124V23.2423H247.005V26.6124L249.701 26.6124V29.9825ZM256.441 27.2864H253.071V23.9163H256.441V27.2864ZM256.441 23.9163H259.811V20.5463H256.441V23.9163ZM256.441 7.066H259.811V10.4361H256.441V7.066Z" fill="#E62C20"/>
<path fill-rule="evenodd" clip-rule="evenodd" d="M303.622 10.4363H306.992V13.8064H303.622V10.4363ZM303.622 13.8064H306.992H306.992H310.362V17.1765H306.992V20.5464H303.622V17.1765V17.1764V13.8064ZM303.622 13.8064H300.251V17.1765H303.622V13.8064Z" fill="#F69722"/>
<path fill-rule="evenodd" clip-rule="evenodd" d="M303.622 1H306.992V3.6959H310.362V7.06596H306.992V4.37006H303.622V1ZM296.882 10.4362H293.511V13.8063H296.882V10.4362ZM294.185 13.8063H290.815V17.1764H294.185V19.8724H297.555V16.5023H294.185V13.8063ZM303.622 3.6959H300.252V7.06596H303.622V3.6959ZM296.881 7.066H300.252V10.4361H296.881V7.066ZM316.428 17.1762H319.798V13.8061H317.102V10.4362H313.732V13.8063H316.428V17.1762ZM317.102 20.5463H313.732V17.1762H317.102V20.5463ZM303.622 29.9825H306.992V27.2864H310.362V23.9163H306.992V26.6124L304.296 26.6124V23.2423H300.926V26.6124L303.622 26.6124V29.9825ZM310.362 23.9163H313.732V20.5463H310.362V23.9163ZM300.926 19.8722H297.556V23.2422H300.926V19.8722ZM310.362 7.066H313.732V10.4361H310.362V7.066Z" fill="#E62C20"/>
<rect x="276.661" y="7.06607" width="3.37006" height="16.8503" fill="white"/>
<rect x="269.921" y="17.1763" width="3.37006" height="16.8503" transform="rotate(-90 269.921 17.1763)" fill="white"/>
<rect x="222.74" y="7.06607" width="3.37006" height="16.8503" fill="white"/>
<rect x="216" y="17.1763" width="3.37006" height="16.8503" transform="rotate(-90 216 17.1763)" fill="white"/>
<path fill-rule="evenodd" clip-rule="evenodd" d="M141.701 9.43631H145.071V12.8064H141.701V9.43631ZM141.701 12.8064H145.071V16.1764V16.1765V19.5464H141.701V16.1765H138.331V12.8064H141.701H141.701ZM145.071 12.8064H148.441V16.1765H145.071V12.8064Z" fill="#F69722"/>
<path fill-rule="evenodd" clip-rule="evenodd" d="M141.701 0H145.071L145.071 2.6959H148.441V6.06596H145.071L145.071 3.37006H141.701V0ZM134.961 9.43623H131.591V12.8063H134.961V9.43623ZM132.265 12.8063H128.895V16.1764H132.265V18.8724H135.635V22.2422H139.005V18.8722H135.635V15.5023H132.265V12.8063ZM141.701 2.6959H138.331V6.06596H141.701V2.6959ZM134.961 6.066H138.331V9.43605H134.961V6.066ZM154.507 16.1762H157.877V12.8061H155.181V9.43623H151.811V12.8063H154.507V16.1762ZM155.181 19.5463H151.811V16.1762H155.181V19.5463ZM141.701 28.9825H145.071V25.6124L142.375 25.6124V22.2423H139.005V25.6124L141.701 25.6124V28.9825ZM148.441 26.2864H145.071V22.9163H148.441V26.2864ZM148.441 22.9163H151.811V19.5463H148.441V22.9163ZM148.441 6.066H151.811V9.43605H148.441V6.066Z" fill="#E62C20"/>
<path fill-rule="evenodd" clip-rule="evenodd" d="M195.622 9.43631H198.992V12.8064H195.622V9.43631ZM195.622 12.8064H198.992H198.992H202.362V16.1765H198.992V19.5464H195.622V16.1765V16.1764V12.8064ZM195.622 12.8064H192.251V16.1765H195.622V12.8064Z" fill="#F69722"/>
<path fill-rule="evenodd" clip-rule="evenodd" d="M195.622 0H198.992V2.6959H202.362V6.06596H198.992V3.37006H195.622V0ZM188.882 9.43623H185.511V12.8063H188.882V9.43623ZM186.185 12.8063H182.815V16.1764H186.185V18.8724H189.555V15.5023H186.185V12.8063ZM195.622 2.6959H192.252V6.06596H195.622V2.6959ZM188.881 6.066H192.252V9.43605H188.881V6.066ZM208.428 16.1762H211.798V12.8061H209.102V9.43623H205.732V12.8063H208.428V16.1762ZM209.102 19.5463H205.732V16.1762H209.102V19.5463ZM195.622 28.9825H198.992V26.2864H202.362V22.9163H198.992V25.6124L196.296 25.6124V22.2423H192.926V25.6124L195.622 25.6124V28.9825ZM202.362 22.9163H205.732V19.5463H202.362V22.9163ZM192.926 18.8722H189.556V22.2422H192.926V18.8722ZM202.362 6.066H205.732V9.43605H202.362V6.066Z" fill="#E62C20"/>
<rect x="168.661" y="6.06607" width="3.37006" height="16.8503" fill="white"/>
<rect x="161.921" y="16.1763" width="3.37006" height="16.8503" transform="rotate(-90 161.921 16.1763)" fill="white"/>
<rect x="114.74" y="6.06607" width="3.37006" height="16.8503" fill="white"/>
<rect x="108" y="16.1763" width="3.37006" height="16.8503" transform="rotate(-90 108 16.1763)" fill="white"/>
<path fill-rule="evenodd" clip-rule="evenodd" d="M33.7006 10.4363H37.0706V13.8064H33.7006V10.4363ZM33.7006 13.8064H37.0706V17.1764V17.1765V20.5464H33.7006V17.1765H30.3306V13.8064H33.7006H33.7006ZM37.0707 13.8064H40.4407V17.1765H37.0707V13.8064Z" fill="#F69722"/>
<path fill-rule="evenodd" clip-rule="evenodd" d="M33.7007 1H37.0708L37.0708 3.6959H40.4408V7.06596H37.0708L37.0708 4.37006H33.7007V1ZM26.9606 10.4362H23.5905V13.8063H26.9606V10.4362ZM24.2646 13.8063H20.8945V17.1764H24.2645V19.8724H27.6345V23.2422H31.0046V19.8722H27.6346V16.5023H24.2646V13.8063ZM33.7007 3.6959H30.3306V7.06596H33.7007V3.6959ZM26.9606 7.066H30.3307V10.4361H26.9606V7.066ZM46.5069 17.1762H49.877V13.8061H47.1809V10.4362H43.8109V13.8063H46.5069V17.1762ZM47.1809 20.5463H43.8109V17.1762H47.1809V20.5463ZM33.7007 29.9825H37.0707V26.6124L34.3747 26.6124V23.2423H31.0046V26.6124L33.7007 26.6124V29.9825ZM40.4408 27.2864H37.0708V23.9163H40.4408V27.2864ZM40.4408 23.9163H43.8108V20.5463H40.4408V23.9163ZM40.4408 7.066H43.8108V10.4361H40.4408V7.066Z" fill="#E62C20"/>
<path fill-rule="evenodd" clip-rule="evenodd" d="M87.6216 10.4363H90.9916V13.8064H87.6216V10.4363ZM87.6216 13.8064H90.9916H90.9916H94.3616V17.1765H90.9916V20.5464H87.6216V17.1765V17.1764V13.8064ZM87.6215 13.8064H84.2515V17.1765H87.6215V13.8064Z" fill="#F69722"/>
<path fill-rule="evenodd" clip-rule="evenodd" d="M87.6217 1H90.9917V3.6959H94.3617V7.06596H90.9917V4.37006H87.6217V1ZM80.8815 10.4362H77.5115V13.8063H80.8815V10.4362ZM78.1855 13.8063H74.8154V17.1764H78.1854V19.8724H81.5555V16.5023H78.1855V13.8063ZM87.6216 3.6959H84.2515V7.06596H87.6216V3.6959ZM80.8815 7.066H84.2516V10.4361H80.8815V7.066ZM100.428 17.1762H103.798V13.8061H101.102V10.4362H97.7318V13.8063H100.428V17.1762ZM101.102 20.5463H97.7318V17.1762H101.102V20.5463ZM87.6216 29.9825H90.9917V27.2864H94.3617V23.9163H90.9917V26.6124L88.2957 26.6124V23.2423H84.9256V26.6124L87.6216 26.6124V29.9825ZM94.3618 23.9163H97.7318V20.5463H94.3618V23.9163ZM84.9256 19.8722H81.5555V23.2422H84.9256V19.8722ZM94.3618 7.066H97.7318V10.4361H94.3618V7.066Z" fill="#E62C20"/>
<rect x="60.6611" y="7.06607" width="3.37006" height="16.8503" fill="white"/>
<rect x="53.9209" y="17.1763" width="3.37006" height="16.8503" transform="rotate(-90 53.9209 17.1763)" fill="white"/>
<rect x="6.74023" y="7.06607" width="3.37006" height="16.8503" fill="white"/>
<rect y="17.1763" width="3.37006" height="16.8503" transform="rotate(-90 0 17.1763)" fill="white"/>
</svg>
