<svg width="195" height="60" viewBox="0 0 195 60" fill="none" xmlns="http://www.w3.org/2000/svg">
<path d="M18.2538 0L14.603 0L14.603 13.3863H18.2538V15.8202H21.9046V19.471H25.5554V23.1218H27.9893V9.73548L24.3385 9.73548V7.30161H21.9046V3.6508H18.2538V0Z" fill="#E62C20"/>
<path d="M41.3761 0L45.0269 0V13.3863H41.3761V15.8202H37.7252V19.471H34.0744V23.1218H31.6406V9.73548L35.2914 9.73548V7.30161H37.7252V3.6508H41.3761V0Z" fill="#E62C20"/>
<path d="M36.5083 24.3389V27.9897H49.8946V24.3389H52.3285V20.6881H55.9793V17.0373H59.6301V14.6035L46.2438 14.6035V18.2543H43.8099V20.6881H40.1591V24.3389H36.5083Z" fill="#E62C20"/>
<path d="M59.6299 41.3761V45.0269H46.2436V41.3761H43.8097V37.7252H40.1589V34.0744H36.5081V31.6406H49.8944V35.2914H52.3283V37.7252H55.9791V41.3761H59.6299Z" fill="#E62C20"/>
<path d="M41.3756 59.6299H45.0264V46.2436H41.3756V43.8097H37.7248V40.1589H34.074V36.5081H31.6401V49.8944H35.2909V52.3283H37.7248V55.9791H41.3756V59.6299Z" fill="#E62C20"/>
<path d="M18.2538 59.6299H14.603L14.603 46.2436H18.2538V43.8097H21.9046V40.1589H25.5554V36.5081H27.9893V49.8944H24.3385V52.3283H21.9046V55.9791H18.2538V59.6299Z" fill="#E62C20"/>
<path d="M-1.83859e-07 18.2538L0 14.603L13.3863 14.603L13.3863 18.2538L15.8202 18.2538L15.8202 21.9046L19.471 21.9046L19.471 25.5554L23.1218 25.5554L23.1218 27.9893L9.73548 27.9893L9.73548 24.3385L7.30161 24.3385L7.30161 21.9046L3.6508 21.9046L3.6508 18.2538L-1.83859e-07 18.2538Z" fill="#E62C20"/>
<path d="M23.1221 35.2909L23.1221 31.6401L9.73579 31.6401L9.73579 35.2909L7.30192 35.2909L7.30192 38.9417L3.65111 38.9417L3.65111 42.5926L0.000307106 42.5926L0.000307228 45.0264L13.3866 45.0264L13.3866 41.3756L15.8205 41.3756L15.8205 38.9417L19.4713 38.9417L19.4713 35.2909L23.1221 35.2909Z" fill="#E62C20"/>
<rect x="27.9897" y="27.9897" width="3.6508" height="3.6508" fill="#E62C20"/>
<path d="M153.624 0L149.973 0V13.3863H153.624V15.8202H157.275V19.471H160.926V23.1218H163.359V9.73548L159.709 9.73548V7.30161H157.275V3.6508H153.624V0Z" fill="#4A8068"/>
<path d="M176.746 0L180.397 0V13.3863H176.746V15.8202H173.095V19.471H169.445V23.1218H167.011V9.73548L170.661 9.73548V7.30161H173.095V3.6508H176.746V0Z" fill="#4A8068"/>
<path d="M171.878 24.3389V27.9897H185.265V24.3389H187.699V20.6881H191.349V17.0373H195V14.6035L181.614 14.6035V18.2543H179.18V20.6881H175.529V24.3389H171.878Z" fill="#4A8068"/>
<path d="M195 41.3761V45.0269H181.614V41.3761H179.18V37.7252H175.529V34.0744H171.878V31.6406H185.265V35.2914H187.698V37.7252H191.349V41.3761H195Z" fill="#4A8068"/>
<path d="M176.746 59.6299H180.396V46.2436H176.746V43.8097H173.095V40.1589H169.444V36.5081H167.01V49.8944H170.661V52.3283H173.095V55.9791H176.746V59.6299Z" fill="#4A8068"/>
<path d="M153.624 59.6299H149.973V46.2436H153.624V43.8097H157.275V40.1589H160.926V36.5081H163.359V49.8944H159.709V52.3283H157.275V55.9791H153.624V59.6299Z" fill="#4A8068"/>
<path d="M135.37 18.2538L135.37 14.603L148.756 14.603L148.756 18.2538L151.19 18.2538L151.19 21.9046L154.841 21.9046L154.841 25.5554L158.492 25.5554L158.492 27.9893L145.106 27.9893L145.106 24.3385L142.672 24.3385L142.672 21.9046L139.021 21.9046L139.021 18.2538L135.37 18.2538Z" fill="#4A8068"/>
<path d="M158.492 35.2909L158.492 31.6401L145.106 31.6401L145.106 35.2909L142.672 35.2909L142.672 38.9417L139.021 38.9417L139.021 42.5926L135.37 42.5926L135.37 45.0264L148.757 45.0264L148.757 41.3756L151.191 41.3756L151.191 38.9417L154.841 38.9417L154.841 35.2909L158.492 35.2909Z" fill="#4A8068"/>
<rect x="163.36" y="27.9897" width="3.6508" height="3.6508" fill="#4A8068"/>
<path fill-rule="evenodd" clip-rule="evenodd" d="M93.5566 0.22998L101.403 0.22998V3.36837L104.541 3.36837V6.50687H107.68V9.64526H110.818V12.7837H113.956V15.9222H117.095V19.0605L120.233 19.0605V22.1989H123.372V25.3373H126.51V34.7525H123.372V37.8909H120.233V41.0294H117.095V44.1678H113.957V47.3061H110.818V50.4445H107.68V53.5829H104.541V56.7213H101.403V59.8598H93.5568V55.1522H99.8336V52.0137H102.972V48.8753H106.11V45.7369H109.249V42.5985H112.387V39.4601H115.526V36.3217H118.664V33.1832H121.802V26.9065H118.664V23.7681L115.526 23.7681V20.6298H112.387V17.4913H109.249V14.3529H106.11V11.2145L102.972 11.2145V8.07599H99.8336V4.9376L93.5566 4.9376V0.22998Z" fill="#F69722"/>
<path fill-rule="evenodd" clip-rule="evenodd" d="M101.403 0.22998L93.5568 0.22998V3.36835L90.4183 3.36835V6.50674H87.2799V9.64514H84.1415V12.7836H81.0031V15.922H77.8647V19.0604L74.7263 19.0604V22.1989H71.5879V25.3373H68.4493V34.7526H71.5879V37.8908H74.7264V41.0294H77.8647V44.1678H81.003V47.3061H84.1415V50.4445H87.28V53.583H90.4183V56.7213H93.5567V59.8597H101.403V55.1521H95.1259V52.0137H91.9876V48.8754H88.8491V45.7369H85.7106V42.5985H82.5723V39.4602H79.434V36.3218H76.2955V33.1832H73.1569V26.9065H76.2956V23.768L79.434 23.768V20.6296H82.5723V17.4913H85.7107V14.3528H88.8492V11.2144L91.9875 11.2144V8.07596H95.1259V4.9376L101.403 4.9376V0.22998Z" fill="#F69722"/>
<rect x="93.5566" y="26.9067" width="7.84603" height="7.84603" fill="#F69722"/>
</svg>
