<svg width="289" height="321" viewBox="0 0 289 321" fill="none" xmlns="http://www.w3.org/2000/svg">
<path fill-rule="evenodd" clip-rule="evenodd" d="M93.7658 240.04H103.142V249.416H93.7658V240.04ZM93.7658 249.416H103.142H112.519V258.793H103.142V268.169H93.7658V258.793H84.3893V249.416H93.7658H93.7658Z" fill="#F69722"/>
<path fill-rule="evenodd" clip-rule="evenodd" d="M93.7658 213.785H103.142V221.286H112.519V230.663H103.142V223.162H93.7658V213.785ZM75.0126 240.04H65.636V249.416H75.0126V240.04ZM67.5115 249.417H58.1349V258.793H67.5113V266.294H76.8878V256.917H67.5115V249.417ZM93.7657 221.286H84.3891V230.663H93.7657V221.286ZM75.0126 230.663H84.3891V240.039H75.0126V230.663ZM129.397 258.793H138.773V249.416H131.272V240.04H121.895V249.416H129.397V258.793ZM131.272 268.169H121.895L121.895 277.546H112.519V268.169H121.895L121.895 258.793H131.272V268.169ZM93.7657 294.424H103.142V286.922H112.519V277.546H103.142V285.047H95.641V275.67H86.2644V285.047H93.7657V294.424ZM86.2644 266.294H76.8879V275.67H86.2644V266.294ZM112.519 230.663H121.895V240.039H112.519V230.663Z" fill="#E62C20"/>
<path fill-rule="evenodd" clip-rule="evenodd" d="M243.791 240.04H253.167V249.416H243.791V240.04ZM243.791 249.416H253.167H253.167H262.544V258.793H253.167V268.169H243.791V258.793V258.792V249.416ZM243.791 249.416H234.414V258.793H243.791V249.416Z" fill="#F69722"/>
<path fill-rule="evenodd" clip-rule="evenodd" d="M243.791 213.785H253.167V221.286H262.544V230.663H253.167V223.162H243.791V213.785ZM225.038 240.04H215.661V249.416H225.038V240.04ZM217.536 249.417H208.16V258.793H217.536L217.536 266.294H226.913L226.913 275.67H236.289V266.294H226.913L226.913 256.917H217.536L217.536 249.417ZM243.79 221.286H234.414V230.663H243.79V221.286ZM225.037 230.663H234.414V240.039H225.037V230.663ZM279.422 258.793H288.798V249.416H281.297V240.04H271.92V249.416H279.422V258.793ZM281.297 268.169H271.92L271.92 277.546H262.544V268.169H271.92L271.92 258.793H281.297V268.169ZM243.791 294.424H253.167V286.922H262.544V277.546H253.167V285.047H245.666V275.67H236.289V285.047H243.791V294.424ZM262.544 230.663H271.92V240.039H262.544V230.663Z" fill="#E62C20"/>
<rect x="168.778" y="230.663" width="9.37655" height="46.8828" fill="white"/>
<rect x="150.025" y="258.793" width="9.37655" height="46.8828" transform="rotate(-90 150.025 258.793)" fill="white"/>
<rect x="18.7529" y="230.663" width="9.37655" height="46.8828" fill="white"/>
<rect y="258.793" width="9.37655" height="46.8828" transform="rotate(-90 0 258.793)" fill="white"/>
<path fill-rule="evenodd" clip-rule="evenodd" d="M243.791 84.3892H253.167V93.7657H243.791V84.3892ZM243.791 93.7664H253.167H262.544V103.143H253.167H243.791V93.7664ZM243.791 93.7664H234.414V103.143H243.791V93.7664ZM253.167 103.143H243.791V112.52H253.167V103.143Z" fill="#F69722"/>
<path fill-rule="evenodd" clip-rule="evenodd" d="M243.791 58.135H253.167V65.6359H262.544V75.0125H253.167V67.5115H243.791V58.135ZM225.038 84.3893H215.661V93.7659H225.038V84.3897H234.414V75.0131H225.038V84.3893ZM217.536 93.7664H208.16V103.143H217.536L217.536 110.643H226.913V101.267H217.536L217.536 93.7664ZM243.79 65.6359H234.414V75.0125H243.79V65.6359ZM288.798 103.143H281.297V112.519H271.92V103.143H279.422V93.7664H288.798V103.143ZM243.791 138.774H253.167V131.272H262.544V121.896H253.167V129.397H245.666V120.021H236.289V129.397H243.791V138.774ZM262.544 121.896H271.92V112.519H262.544V121.896ZM236.289 110.644H226.913V120.021H236.289V110.644ZM271.92 84.3893H281.297V93.7659H271.92L271.92 84.3897H262.544V75.0131H271.92L271.92 84.3893Z" fill="#E62C20"/>
<rect x="168.778" y="75.0127" width="9.37655" height="46.8828" fill="white"/>
<rect x="150.025" y="103.143" width="9.37655" height="46.8828" transform="rotate(-90 150.025 103.143)" fill="white"/>
<path fill-rule="evenodd" clip-rule="evenodd" d="M168.778 165.027H178.154V174.402V174.403V183.779H168.778H159.401V174.402H168.778V165.027ZM178.155 174.402H187.531V183.779H178.155V174.402ZM178.154 183.78H168.778V193.157H178.154V183.78Z" fill="#F69722"/>
<path fill-rule="evenodd" clip-rule="evenodd" d="M168.778 138.772H178.154V148.149H168.778V155.65H159.401V165.026H150.025V155.65H159.401V146.274H168.778V138.772ZM150.025 165.027H140.648V174.402H133.147V183.779H142.524V174.403H150.025V165.027ZM213.785 183.78H206.284V193.157H196.908L196.908 202.532H187.531V193.156H196.908L196.908 183.78H204.409V174.404H213.785V183.78ZM168.778 219.411H178.154V211.91H187.531V202.533H178.154V210.034H168.778V219.411ZM170.653 200.658H161.277V210.034H170.653V200.658ZM142.524 181.904H151.9V191.28H142.524V181.904ZM161.277 191.281H151.9V200.657H161.277V191.281ZM196.908 165.027H206.284V174.403H196.908V165.027ZM187.531 146.274H178.154V155.65H187.531V165.026H196.908V155.65H187.531V146.274Z" fill="#E62C20"/>
<rect x="93.7656" y="155.65" width="9.37655" height="46.8828" fill="white"/>
<rect x="75.0122" y="183.779" width="9.37655" height="46.8828" transform="rotate(-90 75.0122 183.779)" fill="white"/>
<rect x="243.789" y="155.649" width="9.37655" height="46.8828" fill="white"/>
<rect x="225.036" y="183.779" width="9.37655" height="46.8828" transform="rotate(-90 225.036 183.779)" fill="white"/>
<rect x="243.79" width="9.37655" height="46.8828" fill="white"/>
<rect x="225.037" y="28.1299" width="9.37655" height="46.8828" transform="rotate(-90 225.037 28.1299)" fill="white"/>
<path fill-rule="evenodd" clip-rule="evenodd" d="M168.778 320.678H178.154V330.055H168.778V320.678ZM168.778 330.055H178.154V339.431V339.431V348.808H168.778V339.431H159.401V330.055H168.778ZM178.155 330.055H187.531V339.431H178.155V330.055Z" fill="#F69722"/>
<path fill-rule="evenodd" clip-rule="evenodd" d="M168.778 294.424H178.154V303.8H168.778V311.301H159.401V301.925H168.778V294.424ZM150.025 320.678H140.648V330.054H133.147V339.431H142.524V330.055H150.025V320.678H159.401V311.302H150.025V320.678ZM204.409 339.431H213.785V330.054H206.284V320.678H196.908L196.908 311.302H187.531V320.678H196.908L196.908 330.055H204.409V339.431ZM206.284 348.808H196.908V339.431H206.284V348.808ZM168.778 375.062H178.154V367.561H187.531V358.185H196.908V348.808H187.531V358.184H178.154V365.686H168.778V375.062ZM170.653 356.309H161.277L161.277 346.932H151.9V337.556H142.524V346.933H151.9V356.309H161.277L161.277 365.685H170.653V356.309ZM187.531 301.925H178.154V311.301H187.531V301.925Z" fill="#E62C20"/>
<rect x="93.7656" y="311.302" width="9.37655" height="46.8828" fill="white"/>
<rect x="243.789" y="311.302" width="9.37655" height="46.8828" fill="white"/>
</svg>
