<svg width="520" height="320" viewBox="0 0 520 320" fill="none" xmlns="http://www.w3.org/2000/svg">
<g opacity="0.7">
<path d="M62.2988 95.1644L59.6226 92.7476L69.294 84.0138L71.9703 86.4306L73.7288 84.8426L76.405 87.2594L79.0427 84.8775L81.719 87.2943L84.3567 84.9123L86.1409 86.5235L76.4694 95.2573L73.7931 92.8405L72.0347 94.4285L70.2505 92.8173L67.6128 95.1992L64.9365 92.7824L62.2988 95.1644Z" fill="#4A8068"/>
<path d="M79.2485 110.47L81.9248 112.887L91.5963 104.153L88.92 101.736L90.6785 100.148L88.0022 97.7313L90.6399 95.3494L87.9636 92.9326L90.6012 90.5506L88.8171 88.9394L79.1456 97.6732L81.8219 100.09L80.0634 101.678L81.8476 103.289L79.2099 105.671L81.8862 108.088L79.2485 110.47Z" fill="#4A8068"/>
<path d="M93.2647 91.3678L95.9023 88.9858L105.715 97.8475L103.078 100.229L104.862 101.841L102.224 104.223L104.9 106.639L102.263 109.021L104.939 111.438L103.181 113.026L93.3676 104.164L96.0053 101.783L94.2211 100.171L95.9796 98.5834L93.3033 96.1665L95.9409 93.7846L93.2647 91.3678Z" fill="#4A8068"/>
<path d="M122.523 95.5585L125.161 93.1765L115.348 84.3149L112.71 86.6968L110.926 85.0856L108.289 87.4676L105.612 85.0508L102.975 87.4327L100.298 85.0159L98.5399 86.6039L108.353 95.4655L110.991 93.0836L112.775 94.6948L114.533 93.1068L117.21 95.5236L119.847 93.1417L122.523 95.5585Z" fill="#4A8068"/>
<path d="M122.331 71.5644L125.007 73.9812L115.335 82.715L112.659 80.2982L110.901 81.8862L108.224 79.4694L105.587 81.8513L102.91 79.4345L100.273 81.8164L98.4885 80.2052L108.16 71.4714L110.836 73.8882L112.595 72.3003L114.379 73.9115L117.017 71.5295L119.693 73.9463L122.331 71.5644Z" fill="#4A8068"/>
<path d="M105.381 56.2585L102.705 53.8417L93.0331 62.5755L95.7094 64.9923L93.9509 66.5803L96.6272 68.9971L93.9895 71.379L96.6658 73.7958L94.0281 76.1778L95.8123 77.789L105.484 69.0552L102.808 66.6384L104.566 65.0504L102.782 63.4392L105.419 61.0572L102.743 58.6404L105.381 56.2585Z" fill="#4A8068"/>
<path d="M62.1054 71.1701L59.4678 73.552L69.2808 82.4136L71.9185 80.0317L73.7027 81.6429L76.3403 79.2609L79.0166 81.6777L81.6543 79.2958L84.3306 81.7126L86.089 80.1246L76.276 71.263L73.6383 73.645L71.8541 72.0338L70.0957 73.6217L67.4194 71.2049L64.7817 73.5869L62.1054 71.1701Z" fill="#4A8068"/>
<path d="M91.3647 75.3605L88.7271 77.7424L78.914 68.8808L81.5517 66.4989L79.7675 64.8876L82.4052 62.5057L79.7289 60.0889L82.3666 57.7069L79.6903 55.2901L81.4488 53.7022L91.2618 62.5638L88.6241 64.9457L90.4083 66.557L88.6498 68.1449L91.3261 70.5617L88.6884 72.9437L91.3647 75.3605Z" fill="#4A8068"/>
<rect width="3.60603" height="3.55401" transform="matrix(0.742168 0.670213 0.742168 -0.670213 89.6577 83.3474)" fill="#4A8068"/>
<path d="M162.633 185.771L159.957 183.354L169.628 174.62L172.304 177.037L174.063 175.449L176.739 177.866L179.377 175.484L182.053 177.9L184.691 175.519L186.475 177.13L176.803 185.864L174.127 183.447L172.369 185.035L170.584 183.423L167.947 185.805L165.27 183.389L162.633 185.771Z" fill="#9C4A9A"/>
<path d="M179.583 201.077L182.259 203.494L191.931 194.76L189.254 192.344L191.013 190.756L188.337 188.339L190.974 185.957L188.298 183.54L190.936 181.158L189.152 179.547L179.48 188.281L182.156 190.697L180.398 192.285L182.182 193.897L179.544 196.279L182.221 198.695L179.583 201.077Z" fill="#9C4A9A"/>
<path d="M193.599 181.975L196.237 179.594L206.05 188.455L203.412 190.837L205.196 192.448L202.559 194.83L205.235 197.247L202.597 199.629L205.274 202.046L203.515 203.634L193.702 194.772L196.34 192.39L194.556 190.779L196.314 189.191L193.638 186.774L196.275 184.392L193.599 181.975Z" fill="#9C4A9A"/>
<path d="M222.858 186.166L225.496 183.784L215.683 174.923L213.045 177.304L211.261 175.693L208.623 178.075L205.947 175.658L203.309 178.04L200.633 175.624L198.874 177.212L208.687 186.073L211.325 183.691L213.109 185.302L214.868 183.714L217.544 186.131L220.182 183.749L222.858 186.166Z" fill="#9C4A9A"/>
<path d="M222.665 162.172L225.341 164.589L215.669 173.323L212.993 170.906L211.235 172.494L208.558 170.077L205.921 172.459L203.244 170.042L200.607 172.424L198.823 170.813L208.494 162.079L211.17 164.496L212.929 162.908L214.713 164.519L217.351 162.137L220.027 164.554L222.665 162.172Z" fill="#9C4A9A"/>
<path d="M205.715 146.866L203.039 144.449L193.367 153.183L196.043 155.6L194.285 157.188L196.961 159.605L194.324 161.987L197 164.404L194.362 166.786L196.146 168.397L205.818 159.663L203.142 157.246L204.9 155.658L203.116 154.047L205.753 151.665L203.077 149.248L205.715 146.866Z" fill="#9C4A9A"/>
<path d="M162.44 161.777L159.802 164.159L169.615 173.021L172.253 170.639L174.037 172.25L176.675 169.868L179.351 172.285L181.989 169.903L184.665 172.32L186.423 170.732L176.61 161.87L173.973 164.252L172.189 162.641L170.43 164.229L167.754 161.812L165.116 164.194L162.44 161.777Z" fill="#9C4A9A"/>
<path d="M191.699 165.968L189.062 168.35L179.248 159.488L181.886 157.106L180.102 155.495L182.74 153.113L180.063 150.696L182.701 148.314L180.025 145.897L181.783 144.309L191.596 153.171L188.959 155.553L190.743 157.164L188.984 158.752L191.661 161.169L189.023 163.551L191.699 165.968Z" fill="#9C4A9A"/>
<rect width="3.60603" height="3.55401" transform="matrix(0.742168 0.670213 0.742168 -0.670213 189.992 173.954)" fill="#9C4A9A"/>
<path d="M62.9736 186.097L60.2974 183.681L69.9688 174.947L72.6451 177.364L74.4036 175.776L77.0798 178.193L79.7175 175.811L82.3938 178.227L85.0315 175.845L86.8157 177.457L77.1442 186.19L74.4679 183.774L72.7095 185.362L70.9253 183.75L68.2876 186.132L65.6113 183.716L62.9736 186.097Z" fill="#E62C20"/>
<path d="M79.9233 201.404L82.5996 203.821L92.2711 195.087L89.5948 192.67L91.3533 191.082L88.677 188.665L91.3147 186.283L88.6384 183.866L91.2761 181.484L89.4919 179.873L79.8204 188.607L82.4967 191.024L80.7382 192.612L82.5224 194.223L79.8847 196.605L82.561 199.022L79.9233 201.404Z" fill="#E62C20"/>
<path d="M93.9395 182.302L96.5771 179.92L106.39 188.781L103.752 191.163L105.537 192.774L102.899 195.156L105.575 197.573L102.938 199.955L105.614 202.372L103.855 203.96L94.0424 195.098L96.6801 192.716L94.8959 191.105L96.6544 189.517L93.9781 187.1L96.6158 184.718L93.9395 182.302Z" fill="#E62C20"/>
<path d="M123.198 186.492L125.836 184.11L116.023 175.249L113.385 177.631L111.601 176.019L108.963 178.401L106.287 175.985L103.649 178.367L100.973 175.95L99.2147 177.538L109.028 186.399L111.665 184.017L113.45 185.629L115.208 184.041L117.884 186.457L120.522 184.075L123.198 186.492Z" fill="#E62C20"/>
<path d="M123.005 162.499L125.682 164.916L116.01 173.65L113.334 171.233L111.575 172.821L108.899 170.404L106.261 172.786L103.585 170.369L100.948 172.751L99.1633 171.14L108.835 162.406L111.511 164.823L113.27 163.235L115.054 164.846L117.691 162.464L120.368 164.881L123.005 162.499Z" fill="#E62C20"/>
<path d="M106.056 147.192L103.379 144.775L93.7079 153.509L96.3842 155.926L94.6257 157.514L97.302 159.931L94.6643 162.313L97.3406 164.73L94.703 167.111L96.4871 168.723L106.159 159.989L103.482 157.572L105.241 155.984L103.457 154.373L106.094 151.991L103.418 149.574L106.056 147.192Z" fill="#E62C20"/>
<path d="M62.7807 162.104L60.1431 164.486L69.9561 173.347L72.5938 170.966L74.378 172.577L77.0156 170.195L79.6919 172.612L82.3296 170.23L85.0059 172.646L86.7643 171.058L76.9513 162.197L74.3136 164.579L72.5294 162.968L70.771 164.556L68.0947 162.139L65.457 164.521L62.7807 162.104Z" fill="#E62C20"/>
<path d="M92.0395 166.295L89.4019 168.677L79.5888 159.815L82.2265 157.433L80.4423 155.822L83.08 153.44L80.4037 151.023L83.0414 148.641L80.3651 146.224L82.1236 144.636L91.9366 153.498L89.2989 155.88L91.0831 157.491L89.3246 159.079L92.0009 161.496L89.3633 163.878L92.0395 166.295Z" fill="#E62C20"/>
<rect width="3.60603" height="3.55401" transform="matrix(0.742168 0.670213 0.742168 -0.670213 90.3325 174.281)" fill="#E62C20"/>
<path d="M162.995 95.774L160.319 93.3572L169.99 84.6234L172.667 87.0402L174.425 85.4522L177.101 87.869L179.739 85.4871L182.415 87.9039L185.053 85.5219L186.837 87.1331L177.166 95.8669L174.489 93.4501L172.731 95.0381L170.947 93.4269L168.309 95.8088L165.633 93.392L162.995 95.774Z" fill="#EEEEEE"/>
<path d="M179.945 111.08L182.621 113.497L192.293 104.763L189.616 102.346L191.375 100.758L188.698 98.3414L191.336 95.9595L188.66 93.5427L191.298 91.1607L189.513 89.5495L179.842 98.2833L182.518 100.7L180.76 102.288L182.544 103.899L179.906 106.281L182.582 108.698L179.945 111.08Z" fill="#EEEEEE"/>
<path d="M193.961 91.9777L196.599 89.5957L206.412 98.4573L203.774 100.839L205.558 102.45L202.92 104.832L205.597 107.249L202.959 109.631L205.635 112.048L203.877 113.636L194.064 104.774L196.702 102.392L194.917 100.781L196.676 99.1932L194 96.7764L196.637 94.3945L193.961 91.9777Z" fill="#EEEEEE"/>
<path d="M223.22 96.1683L225.857 93.7864L216.044 84.9247L213.407 87.3067L211.623 85.6955L208.985 88.0774L206.309 85.6606L203.671 88.0426L200.995 85.6258L199.236 87.2137L209.049 96.0754L211.687 93.6934L213.471 95.3046L215.23 93.7167L217.906 96.1335L220.543 93.7515L223.22 96.1683Z" fill="#EEEEEE"/>
<path d="M223.027 72.175L225.703 74.5918L216.032 83.3256L213.355 80.9088L211.597 82.4968L208.921 80.08L206.283 82.4619L203.607 80.0451L200.969 82.427L199.185 80.8158L208.856 72.082L211.533 74.4988L213.291 72.9109L215.075 74.5221L217.713 72.1401L220.389 74.5569L223.027 72.175Z" fill="#EEEEEE"/>
<path d="M206.077 56.8687L203.401 54.4519L193.729 63.1857L196.406 65.6025L194.647 67.1905L197.324 69.6073L194.686 71.9892L197.362 74.406L194.724 76.788L196.509 78.3992L206.18 69.6654L203.504 67.2486L205.262 65.6606L203.478 64.0494L206.116 61.6675L203.439 59.2507L206.077 56.8687Z" fill="#EEEEEE"/>
<path d="M162.802 71.7797L160.164 74.1616L169.977 83.0232L172.615 80.6413L174.399 82.2525L177.037 79.8706L179.713 82.2874L182.351 79.9054L185.027 82.3222L186.785 80.7343L176.972 71.8726L174.335 74.2546L172.55 72.6434L170.792 74.2313L168.116 71.8145L165.478 74.1965L162.802 71.7797Z" fill="#EEEEEE"/>
<path d="M192.061 75.9706L189.423 78.3525L179.61 69.4909L182.248 67.109L180.464 65.4978L183.101 63.1158L180.425 60.699L183.063 58.3171L180.387 55.9002L182.145 54.3123L191.958 63.1739L189.32 65.5559L191.105 67.1671L189.346 68.755L192.022 71.1718L189.385 73.5538L192.061 75.9706Z" fill="#EEEEEE"/>
<rect width="3.60603" height="3.55401" transform="matrix(0.742168 0.670213 0.742168 -0.670213 190.354 83.9573)" fill="#EEEEEE"/>
<path fill-rule="evenodd" clip-rule="evenodd" d="M118.064 145.524L123.816 150.718L126.084 148.67L128.384 150.748L130.652 148.7L132.952 150.777L135.22 148.73L137.521 150.808L139.789 148.76L142.089 150.837L144.357 148.789L146.657 150.867L148.924 148.82L151.225 150.898L153.493 148.85L155.793 150.927L158.061 148.879L160.361 150.957L167.164 144.814L164.863 142.736L167.13 140.689L164.83 138.611L167.097 136.564L164.797 134.486L167.064 132.439L164.764 130.361L167.031 128.313L164.73 126.235L166.998 124.188L164.697 122.11L166.965 120.062L164.664 117.985L166.932 115.938L164.631 113.86L166.898 111.812L161.147 106.618L157.746 109.69L162.347 113.845L160.079 115.893L162.38 117.97L160.113 120.017L162.413 122.095L160.146 124.143L162.446 126.221L160.179 128.268L162.48 130.346L160.212 132.394L162.513 134.471L160.245 136.519L162.546 138.596L160.278 140.644L162.579 142.721L158.044 146.817L155.743 144.739L153.476 146.787L151.175 144.71L148.909 146.757L146.607 144.679L144.34 146.727L142.039 144.649L139.771 146.697L137.471 144.62L135.204 146.667L132.903 144.589L130.635 146.637L128.335 144.56L126.067 146.607L121.466 142.452L118.064 145.524Z" fill="#F69722"/>
<path fill-rule="evenodd" clip-rule="evenodd" d="M123.816 150.717L118.065 145.523L120.332 143.476L118.031 141.398L120.299 139.35L117.998 137.273L120.266 135.225L117.965 133.148L120.233 131.1L117.932 129.022L120.2 126.974L117.899 124.896L120.166 122.849L117.866 120.772L120.133 118.724L117.832 116.647L120.1 114.599L117.799 112.521L124.601 106.378L126.902 108.456L129.17 106.409L131.471 108.486L133.738 106.439L136.038 108.516L138.306 106.468L140.607 108.546L142.874 106.499L145.175 108.576L147.442 106.529L149.743 108.606L152.01 106.558L154.311 108.636L156.579 106.588L158.879 108.666L161.147 106.618L166.898 111.812L163.497 114.884L158.896 110.729L156.628 112.776L154.328 110.699L152.06 112.746L149.759 110.669L147.492 112.716L145.191 110.639L142.924 112.687L140.623 110.609L138.356 112.656L136.055 110.579L133.788 112.627L131.487 110.549L129.219 112.597L126.919 110.519L122.384 114.614L124.685 116.691L122.417 118.739L124.718 120.817L122.451 122.864L124.751 124.941L122.483 126.989L124.784 129.067L122.516 131.115L124.817 133.193L122.55 135.24L124.85 137.318L122.583 139.365L124.884 141.443L122.616 143.49L127.218 147.646L123.816 150.717Z" fill="#F69722"/>
<rect width="7.7498" height="7.63801" transform="matrix(0.742168 0.670213 0.742168 -0.670213 137.338 128.118)" fill="#F69722"/>
<path fill-rule="evenodd" clip-rule="evenodd" d="M18.4053 145.85L24.1569 151.044L26.4245 148.997L28.7251 151.074L30.9927 149.026L33.2933 151.104L35.5608 149.056L37.8614 151.134L40.129 149.086L42.4296 151.164L44.6969 149.116L46.998 151.194L49.2655 149.147L51.5659 151.224L53.8332 149.176L56.1339 151.254L58.4015 149.206L60.702 151.284L67.5045 145.141L65.2041 143.064L67.4713 141.016L65.1707 138.939L67.4383 136.891L65.1375 134.813L67.405 132.766L65.1044 130.688L67.3719 128.64L65.0709 126.562L67.3385 124.515L65.0378 122.437L67.3054 120.389L65.0049 118.312L67.2721 116.264L64.9717 114.187L67.2391 112.14L61.4875 106.945L58.0862 110.017L62.6873 114.172L60.4199 116.22L62.7204 118.297L60.4532 120.344L62.7539 122.422L60.4863 124.47L62.7873 126.548L60.5197 128.595L62.8203 130.673L60.5528 132.721L62.8536 134.798L60.5861 136.846L62.8866 138.924L60.6191 140.971L62.9194 143.049L58.3847 147.144L56.0841 145.066L53.8168 147.114L51.5161 145.036L49.2487 147.084L46.9483 145.006L44.6809 147.054L42.3798 144.976L40.1122 147.023L37.8116 144.946L35.544 146.994L33.2435 144.916L30.9759 146.964L28.6753 144.886L26.4078 146.934L21.8065 142.779L18.4053 145.85Z" fill="#EEEEEE"/>
<path fill-rule="evenodd" clip-rule="evenodd" d="M24.1572 151.044L18.4056 145.85L20.6732 143.803L18.3723 141.725L20.6395 139.677L18.3391 137.6L20.6067 135.552L18.3058 133.474L20.5733 131.427L18.2728 129.349L20.5405 127.302L18.2396 125.224L20.5068 123.176L18.2064 121.099L20.4739 119.051L18.1732 116.974L20.4407 114.926L18.1399 112.848L24.9423 106.705L27.243 108.783L29.5106 106.735L31.8114 108.813L34.0788 106.765L36.3796 108.843L38.647 106.796L40.9472 108.873L43.2149 106.825L45.5156 108.903L47.7832 106.855L50.084 108.933L52.3515 106.885L54.6518 108.962L56.9195 106.914L59.2205 108.992L61.4876 106.945L67.2393 112.139L63.8381 115.211L59.2364 111.055L56.9693 113.102L54.669 111.025L52.4013 113.073L50.1004 110.995L47.8329 113.043L45.5322 110.965L43.2647 113.013L40.9644 110.936L38.6967 112.983L36.3959 110.906L34.1285 112.953L31.8277 110.876L29.5604 112.923L27.2596 110.845L22.7246 114.941L25.0255 117.019L22.758 119.066L25.0586 121.144L22.7913 123.191L25.0918 125.269L22.8241 127.316L25.125 129.394L22.8576 131.442L25.158 133.519L22.8904 135.567L25.1913 137.645L22.924 139.692L25.2245 141.77L22.9569 143.818L27.5584 147.973L24.1572 151.044Z" fill="#EEEEEE"/>
<rect width="7.7498" height="7.63801" transform="matrix(0.742168 0.670213 0.742168 -0.670213 37.6792 128.445)" fill="#EEEEEE"/>
<path fill-rule="evenodd" clip-rule="evenodd" d="M118.739 236.457L124.491 241.651L126.758 239.604L129.059 241.681L131.326 239.634L133.627 241.712L135.895 239.664L138.195 241.741L140.463 239.693L142.763 241.771L145.031 239.724L147.332 241.802L149.599 239.754L151.9 241.831L154.167 239.783L156.468 241.861L158.735 239.814L161.036 241.891L167.839 235.748L165.538 233.671L167.805 231.623L165.505 229.545L167.772 227.498L165.471 225.42L167.739 223.373L165.438 221.295L167.706 219.247L165.405 217.17L167.672 215.122L165.372 213.045L167.639 210.997L165.339 208.919L167.606 206.872L165.305 204.794L167.573 202.746L161.821 197.552L158.42 200.624L163.021 204.779L160.754 206.827L163.055 208.904L160.787 210.952L163.088 213.03L160.82 215.077L163.121 217.155L160.854 219.202L163.154 221.28L160.887 223.328L163.187 225.405L160.92 227.453L163.22 229.53L160.953 231.578L163.254 233.656L158.719 237.751L156.418 235.673L154.151 237.721L151.85 235.643L149.582 237.691L147.282 235.614L145.015 237.661L142.714 235.583L140.446 237.631L138.145 235.553L135.878 237.601L133.577 235.524L131.31 237.571L129.009 235.493L126.742 237.541L122.14 233.386L118.739 236.457Z" fill="#F69722"/>
<path fill-rule="evenodd" clip-rule="evenodd" d="M124.492 241.651L118.74 236.457L121.007 234.41L118.707 232.332L120.974 230.285L118.673 228.207L120.941 226.16L118.64 224.082L120.908 222.034L118.607 219.957L120.875 217.909L118.574 215.831L120.841 213.783L118.541 211.706L120.808 209.658L118.508 207.581L120.775 205.533L118.474 203.455L125.277 197.313L127.577 199.39L129.845 197.342L132.146 199.42L134.413 197.372L136.714 199.45L138.981 197.402L141.282 199.48L143.549 197.432L145.85 199.51L148.117 197.462L150.418 199.54L152.686 197.492L154.986 199.57L157.254 197.522L159.554 199.6L161.822 197.552L167.574 202.746L164.172 205.818L159.571 201.662L157.303 203.71L155.003 201.633L152.735 203.68L150.434 201.602L148.167 203.65L145.867 201.572L143.599 203.62L141.299 201.542L139.031 203.59L136.73 201.512L134.463 203.56L132.162 201.482L129.895 203.53L127.594 201.453L123.059 205.548L125.36 207.626L123.092 209.673L125.393 211.751L123.126 213.798L125.426 215.876L123.158 217.924L125.459 220.002L123.192 222.049L125.492 224.127L123.225 226.175L125.526 228.252L123.258 230.3L125.559 232.377L123.291 234.425L127.893 238.58L124.492 241.651Z" fill="#F69722"/>
<rect width="7.7498" height="7.63801" transform="matrix(0.742168 0.670213 0.742168 -0.670213 138.013 219.052)" fill="#F69722"/>
<path fill-rule="evenodd" clip-rule="evenodd" d="M118.426 55.526L124.178 60.7201L126.445 58.6725L128.746 60.7503L131.014 58.7026L133.315 60.7801L135.582 58.7324L137.883 60.8099L140.15 58.7623L142.451 60.8397L144.718 58.7921L147.019 60.8699L149.286 58.8222L151.587 60.8997L153.854 58.852L156.155 60.9294L158.422 58.882L160.723 60.96L167.526 54.8171L165.225 52.7393L167.492 50.6916L165.192 48.6141L167.459 46.5664L165.158 44.4885L167.426 42.4406L165.126 40.3632L167.393 38.3157L165.092 36.2382L167.36 34.1909L165.059 32.113L167.326 30.065L165.026 27.9877L167.293 25.9402L164.992 23.8624L167.26 21.8145L161.509 16.6205L158.107 19.6919L162.709 23.8473L160.441 25.8952L162.741 27.9726L160.474 30.0201L162.775 32.098L160.507 34.1459L162.808 36.2234L160.541 38.2708L162.841 40.3482L160.574 42.3956L162.875 44.4735L160.607 46.5214L162.908 48.5989L160.64 50.6467L162.941 52.7244L158.406 56.8195L156.105 54.7416L153.838 56.7893L151.537 54.7118L149.27 56.7594L146.969 54.682L144.702 56.7296L142.401 54.6518L140.133 56.6995L137.833 54.622L135.565 56.6697L133.265 54.5923L130.997 56.64L128.697 54.5625L126.429 56.61L121.828 52.4546L118.426 55.526Z" fill="#9C4A9A"/>
<path fill-rule="evenodd" clip-rule="evenodd" d="M124.178 60.7203L118.427 55.5263L120.694 53.4786L118.393 51.4007L120.66 49.3534L118.36 47.2762L120.628 45.2286L118.327 43.151L120.595 41.1032L118.294 39.0254L120.561 36.9776L118.261 34.8999L120.528 32.8523L118.227 30.7747L120.495 28.7273L118.194 26.6499L120.462 24.602L118.161 22.524L124.963 16.3811L127.264 18.459L129.532 16.4115L131.832 18.4888L134.1 16.4409L136.401 18.5186L138.668 16.4712L140.969 18.5489L143.236 16.5014L145.536 18.5788L147.804 16.5308L150.105 18.6085L152.372 16.561L154.673 18.6386L156.94 16.5911L159.241 18.6687L161.509 16.621L167.26 21.815L163.859 24.8865L159.258 20.7313L156.99 22.779L154.689 20.7014L152.422 22.7488L150.121 20.6711L147.854 22.7187L145.554 20.6413L143.286 22.6893L140.985 20.6116L138.718 22.6591L136.417 20.5814L134.15 22.6287L131.849 20.5513L129.581 22.5993L127.28 20.5215L122.745 24.6168L125.047 26.6948L122.779 28.7423L125.08 30.8197L122.812 32.8673L125.113 34.9449L122.845 36.9926L125.146 39.0703L122.878 41.1182L125.179 43.196L122.912 45.2436L125.212 47.3212L122.945 49.3685L125.245 51.4457L122.978 53.4934L127.579 57.6489L124.178 60.7203Z" fill="#9C4A9A"/>
<rect width="7.7498" height="7.63801" transform="matrix(0.742168 0.670213 0.742168 -0.670213 137.7 38.1213)" fill="#9C4A9A"/>
<path fill-rule="evenodd" clip-rule="evenodd" d="M218.761 146.133L224.512 151.327L226.78 149.279L229.081 151.357L231.348 149.309L233.649 151.387L235.916 149.339L238.217 151.417L240.484 149.369L242.785 151.447L245.053 149.399L247.353 151.476L249.62 149.429L251.921 151.507L254.189 149.459L256.49 151.536L258.757 149.489L261.057 151.566L267.86 145.424L265.559 143.346L267.827 141.298L265.526 139.221L267.794 137.173L265.493 135.095L267.761 133.048L265.46 130.97L267.727 128.923L265.426 126.845L267.694 124.797L265.394 122.719L267.661 120.672L265.36 118.594L267.628 116.547L265.327 114.469L267.595 112.422L261.843 107.228L258.442 110.299L263.043 114.454L260.775 116.502L263.076 118.58L260.809 120.627L263.109 122.704L260.842 124.752L263.143 126.83L260.875 128.878L263.176 130.955L260.908 133.003L263.209 135.081L260.942 137.128L263.242 139.206L260.974 141.254L263.275 143.331L258.74 147.426L256.44 145.348L254.172 147.396L251.872 145.319L249.604 147.366L247.303 145.288L245.036 147.336L242.735 145.259L240.468 147.306L238.167 145.229L235.9 147.276L233.599 145.199L231.331 147.247L229.031 145.169L226.764 147.217L222.162 143.061L218.761 146.133Z" fill="#EEEEEE"/>
<path fill-rule="evenodd" clip-rule="evenodd" d="M224.513 151.327L218.761 146.133L221.028 144.086L218.728 142.008L220.996 139.96L218.695 137.882L220.962 135.835L218.661 133.758L220.929 131.71L218.628 129.632L220.896 127.585L218.595 125.507L220.862 123.459L218.562 121.382L220.83 119.334L218.529 117.256L220.796 115.209L218.495 113.131L225.298 106.988L227.599 109.066L229.866 107.018L232.167 109.096L234.434 107.048L236.735 109.125L239.002 107.078L241.303 109.155L243.57 107.108L245.871 109.186L248.139 107.138L250.44 109.215L252.707 107.168L255.008 109.246L257.275 107.198L259.575 109.276L261.843 107.228L267.595 112.422L264.193 115.493L259.593 111.338L257.325 113.386L255.024 111.308L252.757 113.356L250.456 111.278L248.189 113.326L245.888 111.248L243.62 113.296L241.319 111.218L239.052 113.265L236.752 111.188L234.484 113.236L232.184 111.158L229.916 113.206L227.615 111.128L223.08 115.224L225.381 117.301L223.113 119.349L225.414 121.427L223.147 123.474L225.447 125.552L223.18 127.6L225.48 129.677L223.213 131.725L225.514 133.802L223.246 135.85L225.547 137.927L223.279 139.975L225.58 142.053L223.313 144.101L227.914 148.256L224.513 151.327Z" fill="#EEEEEE"/>
<rect width="7.7498" height="7.63801" transform="matrix(0.742168 0.670213 0.742168 -0.670213 238.034 128.728)" fill="#EEEEEE"/>
</g>
<g opacity="0.7">
<path d="M296.298 156.164L293.622 153.747L303.294 145.013L305.97 147.43L307.728 145.842L310.405 148.259L313.042 145.877L315.719 148.294L318.356 145.912L320.141 147.523L310.469 156.257L307.793 153.84L306.034 155.428L304.25 153.817L301.612 156.198L298.936 153.782L296.298 156.164Z" fill="#E62C20"/>
<path d="M313.249 171.47L315.925 173.887L325.596 165.153L322.92 162.736L324.679 161.148L322.002 158.731L324.64 156.349L321.964 153.933L324.601 151.551L322.817 149.939L313.146 158.673L315.822 161.09L314.063 162.678L315.848 164.289L313.21 166.671L315.886 169.088L313.249 171.47Z" fill="#E62C20"/>
<path d="M327.265 152.368L329.902 149.986L339.715 158.848L337.078 161.23L338.862 162.841L336.224 165.223L338.901 167.64L336.263 170.022L338.939 172.439L337.181 174.027L327.368 165.165L330.005 162.783L328.221 161.172L329.98 159.584L327.303 157.167L329.941 154.785L327.265 152.368Z" fill="#E62C20"/>
<path d="M356.523 156.559L359.161 154.177L349.348 145.315L346.71 147.697L344.926 146.086L342.288 148.468L339.612 146.051L336.974 148.433L334.298 146.016L332.54 147.604L342.353 156.466L344.991 154.084L346.775 155.695L348.533 154.107L351.209 156.524L353.847 154.142L356.523 156.559Z" fill="#E62C20"/>
<path d="M356.331 132.565L359.007 134.982L349.335 143.716L346.659 141.299L344.901 142.887L342.224 140.47L339.587 142.852L336.91 140.435L334.273 142.817L332.488 141.206L342.16 132.472L344.836 134.889L346.595 133.301L348.379 134.912L351.017 132.53L353.693 134.947L356.331 132.565Z" fill="#E62C20"/>
<path d="M339.381 117.259L336.705 114.842L327.033 123.576L329.709 125.993L327.951 127.581L330.627 129.997L327.989 132.379L330.666 134.796L328.028 137.178L329.812 138.789L339.484 130.056L336.808 127.639L338.566 126.051L336.782 124.44L339.419 122.058L336.743 119.641L339.381 117.259Z" fill="#E62C20"/>
<path d="M296.105 132.17L293.468 134.552L303.281 143.414L305.919 141.032L307.703 142.643L310.34 140.261L313.017 142.678L315.654 140.296L318.331 142.713L320.089 141.125L310.276 132.263L307.638 134.645L305.854 133.034L304.096 134.622L301.419 132.205L298.782 134.587L296.105 132.17Z" fill="#E62C20"/>
<path d="M325.365 136.36L322.727 138.742L312.914 129.881L315.552 127.499L313.767 125.888L316.405 123.506L313.729 121.089L316.367 118.707L313.69 116.29L315.449 114.702L325.262 123.564L322.624 125.946L324.408 127.557L322.65 129.145L325.326 131.562L322.688 133.944L325.365 136.36Z" fill="#E62C20"/>
<rect width="3.60604" height="3.55402" transform="matrix(0.74217 0.670211 0.74217 -0.670211 323.658 144.347)" fill="#E62C20"/>
<path d="M396.634 246.771L393.958 244.354L403.629 235.62L406.305 238.037L408.064 236.449L410.74 238.866L413.378 236.484L416.054 238.901L418.692 236.519L420.476 238.13L410.804 246.864L408.128 244.447L406.37 246.035L404.585 244.424L401.948 246.806L399.272 244.389L396.634 246.771Z" fill="#EEEEEE"/>
<path d="M413.584 262.077L416.26 264.494L425.932 255.76L423.255 253.344L425.014 251.756L422.338 249.339L424.975 246.957L422.299 244.54L424.937 242.158L423.153 240.547L413.481 249.281L416.157 251.697L414.399 253.285L416.183 254.897L413.545 257.279L416.222 259.695L413.584 262.077Z" fill="#EEEEEE"/>
<path d="M427.6 242.976L430.238 240.594L440.051 249.455L437.413 251.837L439.197 253.449L436.56 255.83L439.236 258.247L436.598 260.629L439.275 263.046L437.516 264.634L427.703 255.772L430.341 253.39L428.557 251.779L430.315 250.191L427.639 247.774L430.276 245.393L427.6 242.976Z" fill="#EEEEEE"/>
<path d="M456.859 247.166L459.497 244.784L449.684 235.923L447.046 238.305L445.262 236.694L442.624 239.075L439.948 236.659L437.31 239.041L434.634 236.624L432.875 238.212L442.688 247.073L445.326 244.691L447.11 246.303L448.869 244.715L451.545 247.132L454.183 244.75L456.859 247.166Z" fill="#EEEEEE"/>
<path d="M456.666 223.173L459.342 225.589L449.671 234.323L446.994 231.906L445.236 233.494L442.56 231.078L439.922 233.459L437.246 231.043L434.608 233.425L432.824 231.813L442.495 223.08L445.172 225.496L446.93 223.908L448.714 225.52L451.352 223.138L454.028 225.554L456.666 223.173Z" fill="#EEEEEE"/>
<path d="M439.716 207.866L437.04 205.449L427.368 214.183L430.044 216.6L428.286 218.188L430.962 220.605L428.324 222.987L431.001 225.404L428.363 227.786L430.147 229.397L439.819 220.663L437.142 218.246L438.901 216.658L437.117 215.047L439.754 212.665L437.078 210.248L439.716 207.866Z" fill="#EEEEEE"/>
<path d="M396.441 222.777L393.803 225.159L403.616 234.021L406.254 231.639L408.038 233.25L410.676 230.868L413.352 233.285L415.99 230.903L418.666 233.32L420.425 231.732L410.612 222.87L407.974 225.252L406.19 223.641L404.431 225.229L401.755 222.812L399.117 225.194L396.441 222.777Z" fill="#EEEEEE"/>
<path d="M425.7 226.968L423.062 229.35L413.249 220.488L415.887 218.106L414.103 216.495L416.741 214.113L414.064 211.696L416.702 209.314L414.026 206.898L415.784 205.31L425.597 214.171L422.96 216.553L424.744 218.164L422.985 219.752L425.662 222.169L423.024 224.551L425.7 226.968Z" fill="#EEEEEE"/>
<rect width="3.60604" height="3.55402" transform="matrix(0.74217 0.670211 0.74217 -0.670211 423.993 234.955)" fill="#EEEEEE"/>
<path d="M296.974 247.097L294.297 244.68L303.969 235.946L306.645 238.363L308.404 236.775L311.08 239.192L313.718 236.81L316.394 239.227L319.032 236.845L320.816 238.456L311.144 247.19L308.468 244.773L306.71 246.361L304.925 244.75L302.288 247.132L299.611 244.715L296.974 247.097Z" fill="#9C4A9A"/>
<path d="M313.923 262.404L316.6 264.821L326.271 256.087L323.595 253.67L325.353 252.082L322.677 249.665L325.315 247.283L322.638 244.866L325.276 242.484L323.492 240.873L313.82 249.607L316.497 252.024L314.738 253.612L316.522 255.223L313.885 257.605L316.561 260.022L313.923 262.404Z" fill="#9C4A9A"/>
<path d="M327.939 243.301L330.577 240.919L340.39 249.781L337.753 252.163L339.537 253.774L336.899 256.156L339.575 258.573L336.938 260.955L339.614 263.372L337.855 264.96L328.042 256.098L330.68 253.716L328.896 252.105L330.654 250.517L327.978 248.1L330.616 245.718L327.939 243.301Z" fill="#9C4A9A"/>
<path d="M357.199 247.492L359.836 245.11L350.023 236.249L347.386 238.631L345.601 237.019L342.964 239.401L340.287 236.985L337.65 239.367L334.973 236.95L333.215 238.538L343.028 247.399L345.666 245.017L347.45 246.629L349.208 245.041L351.885 247.457L354.522 245.075L357.199 247.492Z" fill="#9C4A9A"/>
<path d="M357.006 223.499L359.682 225.916L350.011 234.649L347.334 232.233L345.576 233.82L342.9 231.404L340.262 233.786L337.586 231.369L334.948 233.751L333.164 232.14L342.835 223.406L345.512 225.823L347.27 224.235L349.054 225.846L351.692 223.464L354.368 225.881L357.006 223.499Z" fill="#9C4A9A"/>
<path d="M340.056 208.192L337.379 205.775L327.708 214.509L330.384 216.926L328.626 218.513L331.302 220.93L328.664 223.312L331.341 225.729L328.703 228.111L330.487 229.722L340.159 220.988L337.482 218.572L339.241 216.984L337.457 215.372L340.094 212.99L337.418 210.574L340.056 208.192Z" fill="#9C4A9A"/>
<path d="M296.781 223.103L294.143 225.485L303.956 234.347L306.594 231.965L308.378 233.576L311.016 231.194L313.692 233.611L316.33 231.229L319.006 233.646L320.764 232.058L310.951 223.196L308.314 225.578L306.529 223.967L304.771 225.555L302.095 223.138L299.457 225.52L296.781 223.103Z" fill="#9C4A9A"/>
<path d="M326.04 227.294L323.402 229.676L313.589 220.814L316.226 218.432L314.442 216.821L317.08 214.439L314.404 212.022L317.041 209.641L314.365 207.224L316.124 205.636L325.937 214.497L323.299 216.879L325.083 218.491L323.325 220.079L326.001 222.495L323.363 224.877L326.04 227.294Z" fill="#9C4A9A"/>
<rect width="3.60604" height="3.55402" transform="matrix(0.74217 0.670211 0.74217 -0.670211 324.333 235.281)" fill="#9C4A9A"/>
<path d="M396.995 156.774L394.319 154.357L403.99 145.623L406.667 148.04L408.425 146.452L411.101 148.869L413.739 146.487L416.415 148.904L419.053 146.522L420.837 148.133L411.166 156.867L408.489 154.45L406.731 156.038L404.947 154.427L402.309 156.809L399.633 154.392L396.995 156.774Z" fill="#4A8068"/>
<path d="M413.945 172.08L416.622 174.497L426.293 165.763L423.617 163.346L425.375 161.758L422.699 159.342L425.337 156.96L422.66 154.543L425.298 152.161L423.514 150.55L413.842 159.284L416.519 161.7L414.76 163.288L416.544 164.9L413.907 167.282L416.583 169.698L413.945 172.08Z" fill="#4A8068"/>
<path d="M427.961 152.978L430.599 150.596L440.412 159.458L437.775 161.84L439.559 163.451L436.921 165.833L439.597 168.25L436.96 170.632L439.636 173.048L437.877 174.636L428.064 165.775L430.702 163.393L428.918 161.782L430.676 160.194L428 157.777L430.638 155.395L427.961 152.978Z" fill="#4A8068"/>
<path d="M457.221 157.169L459.858 154.787L450.045 145.925L447.408 148.307L445.623 146.696L442.986 149.078L440.309 146.661L437.672 149.043L434.995 146.626L433.237 148.214L443.05 157.076L445.688 154.694L447.472 156.305L449.23 154.717L451.907 157.134L454.544 154.752L457.221 157.169Z" fill="#4A8068"/>
<path d="M457.027 133.175L459.704 135.592L450.032 144.326L447.356 141.909L445.597 143.497L442.921 141.08L440.283 143.462L437.607 141.046L434.969 143.428L433.185 141.816L442.857 133.083L445.533 135.499L447.291 133.911L449.076 135.523L451.713 133.141L454.39 135.557L457.027 133.175Z" fill="#4A8068"/>
<path d="M440.078 117.869L437.401 115.452L427.73 124.186L430.406 126.603L428.648 128.19L431.324 130.607L428.686 132.989L431.363 135.406L428.725 137.788L430.509 139.399L440.181 130.665L437.504 128.249L439.263 126.661L437.479 125.049L440.116 122.667L437.44 120.251L440.078 117.869Z" fill="#4A8068"/>
<path d="M396.802 132.78L394.165 135.162L403.978 144.024L406.615 141.642L408.4 143.253L411.037 140.871L413.714 143.288L416.351 140.906L419.027 143.323L420.786 141.735L410.973 132.873L408.335 135.255L406.551 133.644L404.793 135.232L402.116 132.815L399.479 135.197L396.802 132.78Z" fill="#4A8068"/>
<path d="M426.062 136.971L423.424 139.353L413.611 130.491L416.248 128.109L414.464 126.498L417.102 124.116L414.426 121.699L417.063 119.317L414.387 116.9L416.145 115.312L425.959 124.174L423.321 126.556L425.105 128.167L423.347 129.755L426.023 132.172L423.385 134.554L426.062 136.971Z" fill="#4A8068"/>
<rect width="3.60604" height="3.55402" transform="matrix(0.74217 0.670211 0.74217 -0.670211 424.354 144.957)" fill="#4A8068"/>
<path fill-rule="evenodd" clip-rule="evenodd" d="M352.065 206.524L357.817 211.718L360.084 209.67L362.385 211.748L364.652 209.7L366.953 211.778L369.22 209.73L371.521 211.808L373.789 209.76L376.089 211.838L378.357 209.79L380.658 211.868L382.925 209.82L385.226 211.897L387.493 209.85L389.794 211.928L392.061 209.88L394.362 211.957L401.164 205.814L398.864 203.737L401.131 201.689L398.83 199.612L401.098 197.564L398.798 195.486L401.065 193.439L398.764 191.361L401.032 189.314L398.731 187.236L400.999 185.188L398.698 183.11L400.965 181.063L398.665 178.985L400.932 176.938L398.632 174.86L400.899 172.813L395.147 167.619L391.746 170.69L396.347 174.845L394.08 176.893L396.381 178.97L394.113 181.018L396.414 183.095L394.146 185.143L396.447 187.221L394.179 189.269L396.48 191.346L394.213 193.394L396.513 195.471L394.246 197.519L396.546 199.596L394.279 201.644L396.58 203.722L392.045 207.817L389.744 205.74L387.477 207.787L385.176 205.709L382.908 207.757L380.608 205.68L378.34 207.728L376.039 205.65L373.772 207.698L371.471 205.62L369.204 207.668L366.903 205.59L364.636 207.638L362.335 205.56L360.067 207.608L355.466 203.452L352.065 206.524Z" fill="#E62C20"/>
<path fill-rule="evenodd" clip-rule="evenodd" d="M357.816 211.718L352.065 206.524L354.332 204.476L352.031 202.398L354.299 200.351L351.998 198.273L354.266 196.225L351.965 194.148L354.233 192.1L351.932 190.022L354.199 187.975L351.899 185.897L354.166 183.85L351.866 181.772L354.133 179.725L351.832 177.647L354.1 175.599L351.799 173.522L358.601 167.379L360.902 169.456L363.17 167.409L365.47 169.486L367.738 167.439L370.038 169.516L372.306 167.468L374.607 169.546L376.874 167.499L379.175 169.576L381.442 167.529L383.743 169.606L386.011 167.559L388.311 169.636L390.579 167.589L392.879 169.666L395.147 167.618L400.899 172.812L397.497 175.884L392.896 171.729L390.628 173.777L388.328 171.699L386.06 173.746L383.76 171.669L381.492 173.717L379.191 171.639L376.924 173.686L374.623 171.609L372.356 173.656L370.055 171.579L367.788 173.627L365.487 171.549L363.22 173.597L360.919 171.519L356.384 175.614L358.685 177.692L356.417 179.739L358.718 181.817L356.45 183.865L358.751 185.942L356.484 187.99L358.784 190.067L356.516 192.115L358.817 194.193L356.55 196.24L358.85 198.318L356.583 200.366L358.884 202.443L356.616 204.491L361.218 208.647L357.816 211.718Z" fill="#E62C20"/>
<rect width="7.74982" height="7.63803" transform="matrix(0.74217 0.670211 0.74217 -0.670211 371.339 189.119)" fill="#E62C20"/>
<path fill-rule="evenodd" clip-rule="evenodd" d="M252.405 206.85L258.156 212.044L260.424 209.996L262.725 212.074L264.992 210.026L267.293 212.104L269.56 210.056L271.861 212.134L274.129 210.086L276.429 212.163L278.697 210.116L280.997 212.194L283.265 210.146L285.565 212.223L287.833 210.176L290.133 212.254L292.401 210.206L294.702 212.283L301.504 206.14L299.204 204.063L301.471 202.015L299.171 199.938L301.438 197.89L299.137 195.813L301.405 193.765L299.104 191.688L301.372 189.64L299.071 187.562L301.338 185.514L299.038 183.437L301.305 181.389L299.004 179.312L301.272 177.264L298.972 175.186L301.239 173.139L295.487 167.945L292.086 171.016L296.687 175.171L294.42 177.219L296.721 179.297L294.453 181.344L296.753 183.422L294.486 185.469L296.787 187.547L294.519 189.595L296.82 191.673L294.553 193.72L296.853 195.798L294.586 197.845L296.886 199.923L294.619 201.97L296.92 204.048L292.384 208.143L290.084 206.066L287.816 208.113L285.516 206.036L283.248 208.083L280.948 206.006L278.68 208.053L276.379 205.976L274.112 208.023L271.811 205.946L269.544 207.993L267.243 205.916L264.976 207.963L262.675 205.886L260.407 207.933L255.806 203.778L252.405 206.85Z" fill="#4A8068"/>
<path fill-rule="evenodd" clip-rule="evenodd" d="M258.157 212.044L252.405 206.85L254.673 204.802L252.372 202.724L254.639 200.677L252.339 198.599L254.606 196.552L252.305 194.474L254.573 192.427L252.272 190.349L254.54 188.301L252.239 186.224L254.506 184.176L252.206 182.098L254.473 180.051L252.173 177.973L254.44 175.926L252.14 173.848L258.942 167.705L261.243 169.783L263.51 167.735L265.811 169.813L268.079 167.765L270.379 169.842L272.647 167.794L274.948 169.872L277.215 167.825L279.515 169.903L281.783 167.855L284.083 169.932L286.351 167.885L288.652 169.962L290.919 167.915L293.22 169.992L295.487 167.945L301.239 173.139L297.838 176.21L293.236 172.055L290.969 174.103L288.668 172.025L286.401 174.073L284.1 171.995L281.833 174.043L279.532 171.965L277.264 174.013L274.963 171.935L272.696 173.982L270.396 171.905L268.128 173.953L265.828 171.875L263.56 173.923L261.259 171.845L256.725 175.941L259.025 178.018L256.758 180.066L259.058 182.143L256.791 184.191L259.091 186.268L256.824 188.316L259.124 190.394L256.857 192.442L259.158 194.519L256.89 196.567L259.191 198.644L256.923 200.692L259.224 202.769L256.956 204.817L261.558 208.972L258.157 212.044Z" fill="#4A8068"/>
<rect width="7.74982" height="7.63803" transform="matrix(0.74217 0.670211 0.74217 -0.670211 271.679 189.445)" fill="#4A8068"/>
<path fill-rule="evenodd" clip-rule="evenodd" d="M352.74 297.456L358.491 302.65L360.759 300.603L363.06 302.68L365.327 300.633L367.628 302.71L369.896 300.663L372.196 302.74L374.464 300.693L376.764 302.77L379.032 300.722L381.333 302.8L383.6 300.752L385.901 302.83L388.168 300.782L390.469 302.86L392.736 300.812L395.037 302.89L401.839 296.747L399.538 294.669L401.806 292.622L399.506 290.544L401.773 288.497L399.472 286.419L401.74 284.372L399.439 282.294L401.707 280.246L399.406 278.169L401.673 276.121L399.372 274.044L401.64 271.995L399.34 269.918L401.607 267.871L399.306 265.793L401.574 263.745L395.822 258.551L392.421 261.623L397.022 265.778L394.755 267.826L397.055 269.903L394.788 271.951L397.089 274.029L394.821 276.077L397.122 278.154L394.854 280.201L397.155 282.279L394.888 284.327L397.188 286.404L394.921 288.452L397.221 290.529L394.954 292.577L397.255 294.655L392.72 298.75L390.419 296.672L388.152 298.72L385.851 296.642L383.583 298.69L381.283 296.612L379.015 298.66L376.715 296.582L374.447 298.63L372.146 296.552L369.879 298.6L367.578 296.522L365.311 298.57L363.01 296.492L360.742 298.54L356.141 294.385L352.74 297.456Z" fill="#F69722"/>
<path fill-rule="evenodd" clip-rule="evenodd" d="M358.492 302.65L352.74 297.456L355.007 295.409L352.707 293.331L354.974 291.284L352.673 289.206L354.941 287.158L352.64 285.08L354.908 283.033L352.607 280.955L354.875 278.908L352.574 276.83L354.841 274.782L352.541 272.705L354.808 270.657L352.508 268.58L354.775 266.532L352.474 264.454L359.277 258.311L361.577 260.389L363.845 258.341L366.146 260.419L368.413 258.371L370.714 260.449L372.981 258.402L375.282 260.479L377.549 258.432L379.85 260.509L382.118 258.462L384.418 260.539L386.686 258.491L388.986 260.569L391.254 258.521L393.555 260.599L395.822 258.552L401.574 263.746L398.172 266.817L393.571 262.662L391.304 264.709L389.003 262.632L386.736 264.679L384.435 262.602L382.167 264.65L379.867 262.572L377.599 264.62L375.298 262.542L373.031 264.59L370.73 262.512L368.463 264.559L366.162 262.481L363.895 264.529L361.594 262.451L357.059 266.547L359.36 268.625L357.093 270.672L359.393 272.75L357.126 274.797L359.426 276.875L357.159 278.923L359.459 281L357.192 283.048L359.492 285.125L357.225 287.173L359.526 289.251L357.258 291.299L359.559 293.376L357.291 295.424L361.893 299.579L358.492 302.65Z" fill="#F69722"/>
<rect width="7.74982" height="7.63803" transform="matrix(0.74217 0.670211 0.74217 -0.670211 372.014 280.051)" fill="#F69722"/>
<path fill-rule="evenodd" clip-rule="evenodd" d="M352.427 116.527L358.179 121.721L360.446 119.673L362.747 121.751L365.014 119.703L367.315 121.78L369.582 119.733L371.883 121.81L374.15 119.763L376.451 121.84L378.719 119.793L381.02 121.871L383.287 119.823L385.588 121.9L387.855 119.853L390.156 121.931L392.423 119.883L394.724 121.96L401.526 115.817L399.226 113.74L401.493 111.692L399.193 109.615L401.46 107.567L399.159 105.49L401.427 103.442L399.126 101.364L401.394 99.3168L399.093 97.239L401.36 95.1912L399.06 93.1138L401.327 91.066L399.027 88.9884L401.294 86.9409L398.993 84.8632L401.261 82.8152L395.509 77.6212L392.108 80.6927L396.71 84.848L394.442 86.896L396.742 88.9735L394.475 91.021L396.776 93.0985L394.508 95.1463L396.809 97.2241L394.541 99.2719L396.842 101.349L394.575 103.397L396.875 105.475L394.608 107.522L396.908 109.6L394.641 111.647L396.942 113.725L392.406 117.82L390.106 115.743L387.839 117.79L385.538 115.713L383.27 117.76L380.97 115.683L378.702 117.73L376.401 115.653L374.134 117.7L371.833 115.622L369.566 117.67L367.265 115.593L364.998 117.64L362.697 115.563L360.429 117.61L355.828 113.455L352.427 116.527Z" fill="#EEEEEE"/>
<path fill-rule="evenodd" clip-rule="evenodd" d="M358.178 121.72L352.427 116.526L354.694 114.479L352.393 112.401L354.661 110.353L352.36 108.276L354.627 106.228L352.327 104.151L354.594 102.103L352.294 100.026L354.561 97.9779L352.261 95.9003L354.528 93.8525L352.227 91.7748L354.495 89.7271L352.194 87.6496L354.462 85.6018L352.161 83.524L358.963 77.3811L361.264 79.4589L363.532 77.4116L365.832 79.4891L368.1 77.4412L370.401 79.5188L372.668 77.4713L374.968 79.5488L377.236 77.5011L379.537 79.5787L381.804 77.5309L384.105 79.6088L386.373 77.5613L388.673 79.6388L390.941 77.5913L393.241 79.6686L395.509 77.6208L401.26 82.8148L397.859 85.8862L393.258 81.7313L390.99 83.7791L388.69 81.7017L386.422 83.7492L384.121 81.6713L381.854 83.7188L379.553 81.6412L377.286 83.689L374.985 81.6116L372.718 83.6592L370.417 81.5816L368.15 83.629L365.849 81.5515L363.581 83.5995L361.28 81.5216L356.746 85.6167L359.047 87.6945L356.779 89.7423L359.08 91.8198L356.812 93.8675L359.113 95.9452L356.845 97.9929L359.146 100.07L356.878 102.118L359.179 104.196L356.912 106.243L359.212 108.321L356.945 110.368L359.246 112.446L356.978 114.494L361.579 118.649L358.178 121.72Z" fill="#EEEEEE"/>
<rect width="7.74982" height="7.63803" transform="matrix(0.74217 0.670211 0.74217 -0.670211 371.7 99.1216)" fill="#EEEEEE"/>
<path fill-rule="evenodd" clip-rule="evenodd" d="M452.76 207.134L458.512 212.328L460.779 210.28L463.08 212.358L465.348 210.31L467.648 212.388L469.916 210.34L472.216 212.418L474.484 210.37L476.785 212.448L479.052 210.4L481.353 212.478L483.621 210.43L485.921 212.508L488.188 210.46L490.489 212.538L492.757 210.49L495.057 212.568L501.86 206.425L499.559 204.347L501.827 202.3L499.526 200.222L501.794 198.174L499.493 196.097L501.76 194.049L499.46 191.972L501.727 189.924L499.426 187.846L501.694 185.798L499.393 183.721L501.661 181.673L499.36 179.596L501.627 177.548L499.327 175.471L501.594 173.423L495.843 168.229L492.441 171.3L497.043 175.456L494.775 177.503L497.076 179.581L494.808 181.628L497.109 183.706L494.842 185.753L497.143 187.831L494.875 189.879L497.176 191.957L494.908 194.004L497.209 196.082L494.941 198.129L497.242 200.207L494.974 202.255L497.275 204.332L492.74 208.428L490.439 206.35L488.172 208.397L485.871 206.32L483.604 208.367L481.303 206.29L479.036 208.338L476.735 206.26L474.468 208.308L472.167 206.23L469.899 208.278L467.599 206.2L465.331 208.248L463.03 206.17L460.763 208.217L456.161 204.062L452.76 207.134Z" fill="#4A8068"/>
<path fill-rule="evenodd" clip-rule="evenodd" d="M458.512 212.328L452.76 207.134L455.028 205.086L452.727 203.009L454.994 200.961L452.694 198.884L454.962 196.836L452.661 194.758L454.928 192.711L452.628 190.633L454.896 188.586L452.595 186.508L454.862 184.46L452.561 182.383L454.829 180.335L452.528 178.257L454.796 176.21L452.495 174.132L459.297 167.989L461.598 170.067L463.866 168.019L466.166 170.096L468.434 168.049L470.735 170.126L473.002 168.079L475.303 170.157L477.57 168.109L479.871 170.187L482.138 168.139L484.439 170.217L486.706 168.169L489.007 170.246L491.275 168.199L493.575 170.277L495.843 168.229L501.594 173.423L498.193 176.495L493.592 172.339L491.324 174.387L489.024 172.309L486.756 174.357L484.456 172.279L482.188 174.327L479.887 172.249L477.62 174.297L475.319 172.219L473.052 174.267L470.751 172.189L468.484 174.237L466.183 172.159L463.915 174.207L461.615 172.129L457.08 176.225L459.381 178.302L457.113 180.35L459.414 182.427L457.146 184.475L459.447 186.553L457.179 188.601L459.48 190.678L457.213 192.726L459.513 194.803L457.245 196.851L459.546 198.929L457.279 200.976L459.579 203.054L457.312 205.101L461.913 209.257L458.512 212.328Z" fill="#4A8068"/>
<rect width="7.74982" height="7.63803" transform="matrix(0.74217 0.670211 0.74217 -0.670211 472.034 189.729)" fill="#4A8068"/>
</g>
</svg>
