<svg width="266" height="254" viewBox="0 0 266 254" fill="none" xmlns="http://www.w3.org/2000/svg">
<g filter="url(#filter0_d_504_4381)">
<path d="M21.7057 188.162H18.1646V201.146H21.7057V203.506H25.2468V207.048H28.7879V210.589H31.1487V197.605H27.6075V195.244H25.2468V191.703H21.7057V188.162Z" fill="#5C5C5C"/>
<path d="M44.1327 188.162H47.6738V201.146H44.1327V203.506H40.5916V207.048H37.0505V210.589H34.6897V197.605H38.2308V195.244H40.5916V191.703H44.1327V188.162Z" fill="#5C5C5C"/>
<path d="M39.4111 211.769V215.31H52.3952V211.769H54.756V208.228H58.2971V204.687H61.8382V202.326H48.8541V205.867H46.4934V208.228H42.9523V211.769H39.4111Z" fill="#5C5C5C"/>
<path d="M61.8384 228.294V231.835H48.8543V228.294H46.4935V224.753H42.9524V221.212H39.4113V218.851H52.3954V222.392H54.7561V224.753H58.2973V228.294H61.8384Z" fill="#5C5C5C"/>
<path d="M44.1327 246H47.6738V233.016H44.1327V230.655H40.5916V227.114H37.0505V223.573H34.6897V236.557H38.2308V238.918H40.5916V242.459H44.1327V246Z" fill="#5C5C5C"/>
<path d="M21.7057 246H18.1646V233.016H21.7057V230.655H25.2468V227.114H28.7879V223.573H31.1487V236.557H27.6075V238.918H25.2468V242.459H21.7057V246Z" fill="#5C5C5C"/>
<path d="M4 205.867L4 202.326L16.9841 202.326L16.9841 205.867L19.3449 205.867L19.3449 209.408L22.886 209.408L22.886 212.95L26.4271 212.95L26.4271 215.31L13.443 215.31L13.443 211.769L11.0822 211.769L11.0822 209.408L7.54112 209.408L7.54112 205.867L4 205.867Z" fill="#5C5C5C"/>
<path d="M26.4272 222.393L26.4272 218.852L13.4431 218.852L13.4431 222.393L11.0824 222.393L11.0824 225.934L7.54126 225.934L7.54126 229.475L4.00014 229.475L4.00014 231.836L16.9843 231.836L16.9843 228.295L19.345 228.295L19.345 225.934L22.8861 225.934L22.8861 222.393L26.4272 222.393Z" fill="#5C5C5C"/>
<rect x="31.1484" y="215.311" width="3.54112" height="3.54112" fill="#5C5C5C"/>
<path d="M21.7057 57.7666H18.1646V70.7507H21.7057V73.1115H25.2468V76.6526H28.7879V80.1937H31.1487V67.2096H27.6075V64.8488H25.2468V61.3077H21.7057V57.7666Z" fill="#5C5C5C"/>
<path d="M44.1327 57.7666H47.6738V70.7507H44.1327V73.1115H40.5916V76.6526H37.0505V80.1937H34.6897V67.2096H38.2308V64.8488H40.5916V61.3077H44.1327V57.7666Z" fill="#5C5C5C"/>
<path d="M39.4111 81.3739V84.915H52.3952V81.3739H54.756V77.8328H58.2971V74.2917H61.8382V71.9309H48.8541V75.472H46.4934V77.8328H42.9523V81.3739H39.4111Z" fill="#5C5C5C"/>
<path d="M61.8384 97.8993V101.44H48.8543V97.8993H46.4935V94.3582H42.9524V90.8171H39.4113V88.4563H52.3954V91.9974H54.7561V94.3582H58.2973V97.8993H61.8384Z" fill="#5C5C5C"/>
<path d="M44.1327 115.605H47.6738V102.621H44.1327V100.26H40.5916V96.719H37.0505V93.1779H34.6897V106.162H38.2308V108.523H40.5916V112.064H44.1327V115.605Z" fill="#5C5C5C"/>
<path d="M21.7057 115.605H18.1646V102.621H21.7057V100.26H25.2468V96.719H28.7879V93.1779H31.1487V106.162H27.6075V108.523H25.2468V112.064H21.7057V115.605Z" fill="#5C5C5C"/>
<path d="M4 75.4723L4 71.9312L16.9841 71.9312L16.9841 75.4723L19.3449 75.4723L19.3449 79.0134L22.886 79.0134L22.886 82.5545L26.4271 82.5545L26.4271 84.9153L13.443 84.9153L13.443 81.3741L11.0822 81.3741L11.0822 79.0134L7.54112 79.0134L7.54112 75.4723L4 75.4723Z" fill="#5C5C5C"/>
<path d="M26.4272 91.9977L26.4272 88.4565L13.4431 88.4565L13.4431 91.9977L11.0824 91.9977L11.0824 95.5388L7.54126 95.5388L7.54126 99.0799L4.00014 99.0799L4.00014 101.441L16.9843 101.441L16.9843 97.8995L19.345 97.8995L19.345 95.5388L22.8861 95.5388L22.8861 91.9977L26.4272 91.9977Z" fill="#5C5C5C"/>
<rect x="31.1484" y="84.915" width="3.54112" height="3.54112" fill="#5C5C5C"/>
<path fill-rule="evenodd" clip-rule="evenodd" d="M29.0972 122.964H36.7075V126.008H39.7515V129.052H42.7958V132.096H45.8398V135.14H48.8841V138.185H51.9281V141.229H54.9722V144.273H58.0163V147.317H61.0605V156.449H58.0161V159.493H54.9722V162.538H51.9281V165.582H48.8841V168.626H45.8398V171.67H42.7958V174.714H39.7517V177.758H36.7075V180.802H29.0972V176.236H35.1855V173.192H38.2296V170.148H41.2736V167.104H44.3179V164.06H47.362V161.016H50.406V157.972H53.4499V154.927H56.4943V148.839H53.4501V145.795H50.406V142.751H47.362V139.707H44.3179V136.663H41.2736V133.619H38.2296V130.574H35.1853V127.53H29.0972V122.964Z" fill="#5C5C5C"/>
<path fill-rule="evenodd" clip-rule="evenodd" d="M36.7073 122.964H29.097V126.008H26.053V129.053H23.0088V132.097H19.9647V135.141H16.9206V138.185H13.8766V141.229H10.8325V144.273H7.78844L7.78844 147.317H4.74401V156.449H7.78826V159.494H10.8325V162.538H13.8764V165.582H16.9205V168.626H19.9647V171.67H23.009V174.714H26.053V177.758H29.0972V180.802H36.7075V176.236H30.6192V173.192H27.5751V170.148H24.5309V167.104H21.4866V164.06H18.4426V161.016H15.3987V157.972H12.3544V154.927H9.3102V148.839H12.3546L12.3546 145.795H15.3987V142.751H18.4428V139.707H21.4868V136.663H24.5309V133.619H27.575V130.574H30.6192V127.531H36.7073V122.964Z" fill="#5C5C5C"/>
<rect x="29.0972" y="148.839" width="7.61031" height="7.61031" fill="#5C5C5C"/>
<path fill-rule="evenodd" clip-rule="evenodd" d="M29.0972 -7.43115L36.7075 -7.43115V-4.38695L39.7517 -4.38695V-1.34271H42.7959V1.70136H45.84V4.74543H48.8841V7.78967H51.9283V10.8337L54.9724 10.8337V13.8778H58.0163V16.9219H61.0607V26.0542H58.0163V29.0984H54.9724V32.1426H51.9283V35.1867H48.8843V38.2308H45.8398V41.275H42.7958V44.3191H39.7517V47.3632H36.7077V50.4074H29.0974V45.8412H35.1855V42.797H38.2296V39.7529H41.2736V36.7088H44.3181V33.6646H47.3621V30.6205H50.4062V27.5765H53.4501V24.5322H56.4945V18.444H53.4501V15.3999L50.4062 15.3999V12.3559H47.3621V9.31161H44.3179V6.26754H41.2738V3.22348L38.2298 3.22348V0.179231H35.1855V-2.86497L29.0972 -2.86497V-7.43115Z" fill="#5C5C5C"/>
<path fill-rule="evenodd" clip-rule="evenodd" d="M36.7073 -7.43066L29.097 -7.43066V-4.38677L26.053 -4.38677V-1.34252H23.009V1.70154H19.9649V4.74561H16.9206V7.78986H13.8766V10.8339L10.8325 10.8339V13.878H7.78844L7.78844 16.9221H4.74401V26.0544H7.78826V29.0986H10.8325V32.1428H13.8766V35.1869H16.9206V38.231H19.9647V41.275H23.009V44.3193H26.053V47.3633H29.0972V50.4074H36.7075V45.8412H30.6192V42.7972H27.5751V39.7531H24.5309V36.7088H21.4868V33.6648H18.4428V30.6207H15.3987V27.5766H12.3544V24.5324H9.3102V18.4442H12.3546L12.3546 15.4001L15.3987 15.4001V12.356H18.4428V9.31179H21.4868V6.26773H24.5311V3.22366L27.5751 3.22366V0.179412H30.6192V-2.86448L36.7073 -2.86448V-7.43066Z" fill="#5C5C5C"/>
<rect x="29.0972" y="18.4438" width="7.61031" height="7.61031" fill="#5C5C5C"/>
<path d="M153.009 188.162H149.468V201.146H153.009V203.506H156.55V207.048H160.091V210.589H162.452V197.605H158.911V195.244H156.55V191.703H153.009V188.162Z" fill="#5C5C5C"/>
<path d="M175.436 188.162H178.977V201.146H175.436V203.506H171.895V207.048H168.354V210.589H165.993V197.605H169.534V195.244H171.895V191.703H175.436V188.162Z" fill="#5C5C5C"/>
<path d="M170.714 211.769V215.31H183.698V211.769H186.059V208.228H189.6V204.687H193.141V202.326H180.157V205.867H177.797V208.228H174.255V211.769H170.714Z" fill="#5C5C5C"/>
<path d="M193.142 228.294V231.835H180.157V228.294H177.797V224.753H174.256V221.212H170.714V218.851H183.699V222.392H186.059V224.753H189.6V228.294H193.142Z" fill="#5C5C5C"/>
<path d="M175.436 246H178.977V233.016H175.436V230.655H171.895V227.114H168.354V223.573H165.993V236.557H169.534V238.918H171.895V242.459H175.436V246Z" fill="#5C5C5C"/>
<path d="M153.009 246H149.468V233.016H153.009V230.655H156.55V227.114H160.091V223.573H162.452V236.557H158.911V238.918H156.55V242.459H153.009V246Z" fill="#5C5C5C"/>
<path d="M135.303 205.867L135.303 202.326L148.287 202.326L148.287 205.867L150.648 205.867L150.648 209.408L154.189 209.408L154.189 212.95L157.73 212.95L157.73 215.31L144.746 215.31L144.746 211.769L142.385 211.769L142.385 209.408L138.844 209.408L138.844 205.867L135.303 205.867Z" fill="#5C5C5C"/>
<path d="M157.73 222.393L157.73 218.852L144.746 218.852L144.746 222.393L142.386 222.393L142.386 225.934L138.844 225.934L138.844 229.475L135.303 229.475L135.303 231.836L148.287 231.836L148.287 228.295L150.648 228.295L150.648 225.934L154.189 225.934L154.189 222.393L157.73 222.393Z" fill="#5C5C5C"/>
<rect x="162.452" y="215.311" width="3.54112" height="3.54112" fill="#5C5C5C"/>
<path d="M153.009 57.7666H149.468V70.7507H153.009V73.1115H156.55V76.6526H160.091V80.1937H162.452V67.2096H158.911V64.8488H156.55V61.3077H153.009V57.7666Z" fill="#5C5C5C"/>
<path d="M175.436 57.7666H178.977V70.7507H175.436V73.1115H171.895V76.6526H168.354V80.1937H165.993V67.2096H169.534V64.8488H171.895V61.3077H175.436V57.7666Z" fill="#5C5C5C"/>
<path d="M170.714 81.3739V84.915H183.698V81.3739H186.059V77.8328H189.6V74.2917H193.141V71.9309H180.157V75.472H177.797V77.8328H174.255V81.3739H170.714Z" fill="#5C5C5C"/>
<path d="M193.142 97.8993V101.44H180.157V97.8993H177.797V94.3582H174.256V90.8171H170.714V88.4563H183.699V91.9974H186.059V94.3582H189.6V97.8993H193.142Z" fill="#5C5C5C"/>
<path d="M175.436 115.605H178.977V102.621H175.436V100.26H171.895V96.719H168.354V93.1779H165.993V106.162H169.534V108.523H171.895V112.064H175.436V115.605Z" fill="#5C5C5C"/>
<path d="M153.009 115.605H149.468V102.621H153.009V100.26H156.55V96.719H160.091V93.1779H162.452V106.162H158.911V108.523H156.55V112.064H153.009V115.605Z" fill="#5C5C5C"/>
<path d="M135.303 75.4723L135.303 71.9312L148.287 71.9312L148.287 75.4723L150.648 75.4723L150.648 79.0134L154.189 79.0134L154.189 82.5545L157.73 82.5545L157.73 84.9153L144.746 84.9153L144.746 81.3741L142.385 81.3741L142.385 79.0134L138.844 79.0134L138.844 75.4723L135.303 75.4723Z" fill="#5C5C5C"/>
<path d="M157.73 91.9977L157.73 88.4565L144.746 88.4565L144.746 91.9977L142.386 91.9977L142.386 95.5388L138.844 95.5388L138.844 99.0799L135.303 99.0799L135.303 101.441L148.287 101.441L148.287 97.8995L150.648 97.8995L150.648 95.5388L154.189 95.5388L154.189 91.9977L157.73 91.9977Z" fill="#5C5C5C"/>
<rect x="162.452" y="84.915" width="3.54112" height="3.54112" fill="#5C5C5C"/>
<path fill-rule="evenodd" clip-rule="evenodd" d="M160.4 122.964H168.011V126.008H171.055V129.052H174.099V132.096H177.143V135.14H180.187V138.185H183.231V141.229H186.275V144.273H189.319V147.317H192.364V156.449H189.319V159.493H186.275V162.538H183.231V165.582H180.187V168.626H177.143V171.67H174.099V174.714H171.055V177.758H168.011V180.802H160.4V176.236H166.489V173.192H169.533V170.148H172.577V167.104H175.621V164.06H178.665V161.016H181.709V157.972H184.753V154.927H187.798V148.839H184.753V145.795H181.709V142.751H178.665V139.707H175.621V136.663H172.577V133.619H169.533V130.574H166.489V127.53H160.4V122.964Z" fill="#5C5C5C"/>
<path fill-rule="evenodd" clip-rule="evenodd" d="M168.011 122.964H160.4V126.008H157.356V129.053H154.312V132.097H151.268V135.141H148.224V138.185H145.18V141.229H142.136V144.273H139.092V147.317H136.047V156.449H139.091V159.494H142.136V162.538H145.18V165.582H148.224V168.626H151.268V171.67H154.312V174.714H157.356V177.758H160.4V180.802H168.011V176.236H161.922V173.192H158.878V170.148H155.834V167.104H152.79V164.06H149.746V161.016H146.702V157.972H143.658V154.927H140.613V148.839H143.658V145.795H146.702V142.751H149.746V139.707H152.79V136.663H155.834V133.619H158.878V130.574H161.922V127.531H168.011V122.964Z" fill="#5C5C5C"/>
<rect x="160.4" y="148.839" width="7.61031" height="7.61031" fill="#5C5C5C"/>
<path fill-rule="evenodd" clip-rule="evenodd" d="M160.4 -7.43115L168.011 -7.43115V-4.38695L171.055 -4.38695V-1.34271H174.099V1.70136H177.143V4.74543H180.187V7.78967H183.232V10.8337L186.276 10.8337V13.8778H189.319V16.9219H192.364V26.0542H189.319V29.0984H186.276V32.1426H183.232V35.1867H180.187V38.2308H177.143V41.275H174.099V44.3191H171.055V47.3632H168.011V50.4074H160.401V45.8412H166.489V42.797H169.533V39.7529H172.577V36.7088H175.621V33.6646H178.665V30.6205H181.709V27.5765H184.753V24.5322H187.798V18.444H184.753V15.3999L181.709 15.3999V12.3559H178.665V9.31161H175.621V6.26754H172.577V3.22348L169.533 3.22348V0.179231H166.489V-2.86497L160.4 -2.86497V-7.43115Z" fill="#5C5C5C"/>
<path fill-rule="evenodd" clip-rule="evenodd" d="M168.011 -7.43066L160.4 -7.43066V-4.38677L157.356 -4.38677V-1.34252H154.312V1.70154H151.268V4.74561H148.224V7.78986H145.18V10.8339L142.136 10.8339V13.878H139.092V16.9221H136.047V26.0544H139.091V29.0986H142.136V32.1428H145.18V35.1869H148.224V38.231H151.268V41.275H154.312V44.3193H157.356V47.3633H160.4V50.4074H168.011V45.8412H161.922V42.7972H158.878V39.7531H155.834V36.7088H152.79V33.6648H149.746V30.6207H146.702V27.5766H143.658V24.5324H140.613V18.4442H143.658V15.4001L146.702 15.4001V12.356H149.746V9.31179H152.79V6.26773H155.834V3.22366L158.878 3.22366V0.179412H161.922V-2.86448L168.011 -2.86448V-7.43066Z" fill="#5C5C5C"/>
<rect x="160.4" y="18.4438" width="7.61031" height="7.61031" fill="#5C5C5C"/>
<path fill-rule="evenodd" clip-rule="evenodd" d="M94.5796 184.949H102.19V187.993H105.234V191.037H108.278V194.081H111.322V197.125H114.367V200.17H117.411V203.214H120.455V206.258H123.499V209.302H126.543V218.434H123.499V221.478H120.455V224.522H117.411V227.567H114.367V230.611H111.322V233.655H108.278V236.699H105.234V239.743H102.19V242.787H94.5799V238.221H100.668V235.177H103.712V232.133H106.756V229.089H109.801V226.044H112.845V223H115.889V219.956H118.933V216.912H121.977V210.824H118.933V207.78H115.889V204.736H112.845V201.691H109.801V198.647H106.756V195.603H103.712V192.559H100.668V189.515H94.5796V184.949Z" fill="#5C5C5C"/>
<path fill-rule="evenodd" clip-rule="evenodd" d="M102.19 184.949H94.5801V187.993H91.5355V191.037H88.4915V194.081H85.4474V197.125H82.4033V200.17H79.3593V203.214H76.3152V206.258H73.2709V209.302H70.2267V218.434H73.2709V221.478H76.3152V224.522H79.3591V227.567H82.4031V230.611H85.4474V233.655H88.4916V236.699H91.5355V239.743H94.5797V242.787H102.19V238.221H96.1017V235.177H93.0578V232.133H90.0136V229.089H86.9693V226.044H83.9253V223H80.8814V219.956H77.8371V216.912H74.7929V210.824H77.8371V207.78H80.8814V204.736H83.9254V201.691H86.9695V198.647H90.0136V195.603H93.0576V192.559H96.1017V189.515H102.19V184.949Z" fill="#5C5C5C"/>
<rect x="94.5801" y="210.824" width="7.61031" height="7.61031" fill="#5C5C5C"/>
<path d="M87.1881 119.838H83.647V132.822H87.1881V135.183H90.7292V138.724H94.2703V142.265H96.6311V129.281H93.09V126.921H90.7292V123.38H87.1881V119.838Z" fill="#5C5C5C"/>
<path d="M109.615 119.838H113.156V132.822H109.615V135.183H106.074V138.724H102.533V142.265H100.172V129.281H103.713V126.921H106.074V123.38H109.615V119.838Z" fill="#5C5C5C"/>
<path d="M104.894 143.446V146.987H117.878V143.446H120.239V139.905H123.78V136.363H127.321V134.003H114.337V137.544H111.976V139.905H108.435V143.446H104.894Z" fill="#5C5C5C"/>
<path d="M127.321 159.971V163.512H114.337V159.971H111.976V156.43H108.435V152.889H104.894V150.528H117.878V154.069H120.239V156.43H123.78V159.971H127.321Z" fill="#5C5C5C"/>
<path d="M109.615 177.677H113.156V164.693H109.615V162.332H106.074V158.791H102.533V155.25H100.172V168.234H103.713V170.595H106.074V174.136H109.615V177.677Z" fill="#5C5C5C"/>
<path d="M87.1881 177.677H83.647V164.693H87.1881V162.332H90.7292V158.791H94.2703V155.25H96.6311V168.234H93.09V170.595H90.7292V174.136H87.1881V177.677Z" fill="#5C5C5C"/>
<path d="M69.4824 137.544L69.4824 134.002L82.4665 134.002L82.4665 137.544L84.8273 137.544L84.8273 141.085L88.3684 141.085L88.3684 144.626L91.9095 144.626L91.9095 146.987L78.9254 146.987L78.9254 143.445L76.5647 143.445L76.5647 141.085L73.0235 141.085L73.0235 137.544L69.4824 137.544Z" fill="#5C5C5C"/>
<path d="M91.9097 154.069L91.9097 150.528L78.9256 150.528L78.9256 154.069L76.5648 154.069L76.5648 157.61L73.0237 157.61L73.0237 161.151L69.4826 161.151L69.4826 163.512L82.4667 163.512L82.4667 159.971L84.8274 159.971L84.8274 157.61L88.3685 157.61L88.3685 154.069L91.9097 154.069Z" fill="#5C5C5C"/>
<rect x="96.6313" y="146.987" width="3.54112" height="3.54112" fill="#5C5C5C"/>
<path d="M87.1881 -10.3828H83.647V2.6013H87.1881V4.96205H90.7292V8.50317H94.2703V12.0443H96.6311V-0.93982L93.09 -0.93982V-3.30057H90.7292V-6.84169H87.1881V-10.3828Z" fill="#5C5C5C"/>
<path d="M109.615 -10.3828H113.156V2.6013H109.615V4.96205H106.074V8.50317H102.533V12.0443H100.172V-0.93982L103.713 -0.93982V-3.30057H106.074V-6.84169H109.615V-10.3828Z" fill="#5C5C5C"/>
<path d="M104.894 13.2245V16.7656H117.878V13.2245L120.239 13.2245V9.68338L123.78 9.68338V6.14226H127.321V3.78151L114.337 3.78151V7.32263H111.976V9.68338H108.435V13.2245H104.894Z" fill="#5C5C5C"/>
<path d="M127.321 29.7499V33.291H114.337V29.7499H111.976V26.2088H108.435V22.6676H104.894V20.3069H117.878V23.848H120.239V26.2088H123.78V29.7499H127.321Z" fill="#5C5C5C"/>
<path d="M109.615 47.4556H113.156V34.4715H109.615V32.1107H106.074V28.5696H102.533V25.0285H100.172V38.0126H103.713V40.3733H106.074V43.9144H109.615V47.4556Z" fill="#5C5C5C"/>
<path d="M87.1881 47.4556H83.647V34.4715H87.1881V32.1107H90.7292V28.5696H94.2703V25.0285H96.6311V38.0126H93.09V40.3733H90.7292V43.9144H87.1881V47.4556Z" fill="#5C5C5C"/>
<path d="M69.4824 7.32237L69.4824 3.78125L82.4665 3.78125L82.4665 7.32237L84.8273 7.32237L84.8273 10.8635L88.3684 10.8635L88.3684 14.4046L91.9095 14.4046L91.9095 16.7654L78.9254 16.7654L78.9254 13.2242L76.5647 13.2242L76.5647 10.8635L73.0235 10.8635L73.0235 7.32237L69.4824 7.32237Z" fill="#5C5C5C"/>
<path d="M91.9097 23.8478L91.9097 20.3066L78.9256 20.3066L78.9256 23.8478L76.5648 23.8478L76.5648 27.3889L73.0237 27.3889L73.0237 30.93L69.4826 30.93L69.4826 33.2908L82.4667 33.2908L82.4667 29.7496L84.8274 29.7496L84.8274 27.3889L88.3685 27.3889L88.3685 23.8478L91.9097 23.8478Z" fill="#5C5C5C"/>
<rect x="96.6313" y="16.7656" width="3.54112" height="3.54112" fill="#5C5C5C"/>
<path fill-rule="evenodd" clip-rule="evenodd" d="M94.5801 54.7275H102.19V57.7717H105.235V60.8159H108.279V63.86H111.323V66.9041H114.367V69.9483H117.411V72.9924H120.455V76.0364H123.499V79.0807H126.544V88.2131H123.499V91.257H120.455V94.3013H117.411V97.3454H114.367V100.39H111.323V103.434H108.279V106.478H105.235V109.522H102.191V112.566H94.5803V108H100.669V104.956H103.713V101.912H106.757V98.8675H109.801V95.8234H112.845V92.7792H115.889V89.7351H118.933V86.6909H121.977V80.6026H118.933V77.5586H115.889V74.5145H112.845V71.4703H109.801V68.4262H106.757V65.3821H103.713V62.3379H100.668V59.2937H94.5801V54.7275Z" fill="#5C5C5C"/>
<path fill-rule="evenodd" clip-rule="evenodd" d="M102.19 54.7275H94.5801V57.7714H91.5359V60.8156H88.4916V63.8597H85.4476V66.9038H82.4035V69.948H79.3594V72.9921H76.3154V76.0361H73.2713V79.0802H70.2269V88.2126H73.2711V91.2567H76.3154V94.301H79.3593V97.345H82.4033V100.389H85.4476V103.433H88.4918V106.477H91.5359V109.521H94.5801V112.566H102.19V107.999H96.1021V104.955H93.058V101.911H90.0138V98.867H86.9695V95.8229H83.9254V92.7789H80.8816V89.7348H77.8373V86.6906H74.7931V80.6023H77.8375V77.5583H80.8816V74.5142H83.9256V71.4699H86.9697V68.4259H90.0138V65.3818H93.0578V62.3376H96.1021V59.2937H102.19V54.7275Z" fill="#5C5C5C"/>
<rect x="94.5801" y="80.6025" width="7.61031" height="7.61031" fill="#5C5C5C"/>
</g>
<g filter="url(#filter1_d_504_4381)">
<path d="M221.706 -10.605H218.165V2.37913H221.706V4.73988H225.247V8.281H228.788V11.8221H231.149V-1.16199L227.608 -1.16199V-3.52274H225.247V-7.06386H221.706V-10.605Z" fill="#5C5C5C"/>
<path d="M244.133 -10.605H247.674V2.37913H244.133V4.73988H240.592V8.281H237.05V11.8221H234.69V-1.16199L238.231 -1.16199V-3.52274H240.592V-7.06386H244.133V-10.605Z" fill="#5C5C5C"/>
<path d="M239.411 13.0023V16.5435H252.395V13.0023L254.756 13.0023V9.46121L258.297 9.46121V5.92009H261.838V3.55934L248.854 3.55934V7.10046H246.493V9.46121H242.952V13.0023H239.411Z" fill="#5C5C5C"/>
<path d="M261.838 29.5277V33.0688H248.854V29.5277H246.494V25.9866H242.952V22.4455H239.411V20.0847H252.395V23.6259H254.756V25.9866H258.297V29.5277H261.838Z" fill="#5C5C5C"/>
<path d="M244.133 47.2334H247.674V34.2493H244.133V31.8885H240.592V28.3474H237.05V24.8063H234.69V37.7904H238.231V40.1512H240.592V43.6923H244.133V47.2334Z" fill="#5C5C5C"/>
<path d="M221.706 47.2334H218.165V34.2493H221.706V31.8885H225.247V28.3474H228.788V24.8063H231.149V37.7904H227.608V40.1512H225.247V43.6923H221.706V47.2334Z" fill="#5C5C5C"/>
<path d="M204 7.10069L204 3.55957L216.984 3.55957L216.984 7.10069L219.345 7.10069L219.345 10.6418L222.886 10.6418L222.886 14.1829L226.427 14.1829L226.427 16.5437L213.443 16.5437L213.443 13.0026L211.082 13.0026L211.082 10.6418L207.541 10.6418L207.541 7.10069L204 7.10069Z" fill="#5C5C5C"/>
<path d="M226.427 23.6261L226.427 20.085L213.443 20.085L213.443 23.6261L211.082 23.6261L211.082 27.1672L207.541 27.1672L207.541 30.7083L204 30.7083L204 33.0691L216.984 33.0691L216.984 29.528L219.345 29.528L219.345 27.1672L222.886 27.1672L222.886 23.6261L226.427 23.6261Z" fill="#5C5C5C"/>
<rect x="231.148" y="16.5439" width="3.54112" height="3.54112" fill="#5C5C5C"/>
<path d="M221.706 119.79H218.165V132.774H221.706V135.135H225.247V138.676H228.788V142.217H231.149V129.233H227.608V126.872H225.247V123.331H221.706V119.79Z" fill="#5C5C5C"/>
<path d="M244.133 119.79H247.674V132.774H244.133V135.135H240.592V138.676H237.05V142.217H234.69V129.233H238.231V126.872H240.592V123.331H244.133V119.79Z" fill="#5C5C5C"/>
<path d="M239.411 143.397V146.938H252.395V143.397H254.756V139.856H258.297V136.315H261.838V133.954H248.854V137.495H246.493V139.856H242.952V143.397H239.411Z" fill="#5C5C5C"/>
<path d="M261.838 159.923V163.464H248.854V159.923H246.494V156.382H242.952V152.84H239.411V150.48H252.395V154.021H254.756V156.382H258.297V159.923H261.838Z" fill="#5C5C5C"/>
<path d="M244.133 177.628H247.674V164.644H244.133V162.284H240.592V158.742H237.05V155.201H234.69V168.185H238.231V170.546H240.592V174.087H244.133V177.628Z" fill="#5C5C5C"/>
<path d="M221.706 177.628H218.165V164.644H221.706V162.284H225.247V158.742H228.788V155.201H231.149V168.185H227.608V170.546H225.247V174.087H221.706V177.628Z" fill="#5C5C5C"/>
<path d="M204 137.496L204 133.955L216.984 133.955L216.984 137.496L219.345 137.496L219.345 141.037L222.886 141.037L222.886 144.578L226.427 144.578L226.427 146.939L213.443 146.939L213.443 143.398L211.082 143.398L211.082 141.037L207.541 141.037L207.541 137.496L204 137.496Z" fill="#5C5C5C"/>
<path d="M226.427 154.021L226.427 150.48L213.443 150.48L213.443 154.021L211.082 154.021L211.082 157.562L207.541 157.562L207.541 161.103L204 161.103L204 163.464L216.984 163.464L216.984 159.923L219.345 159.923L219.345 157.562L222.886 157.562L222.886 154.021L226.427 154.021Z" fill="#5C5C5C"/>
<rect x="231.148" y="146.938" width="3.54112" height="3.54112" fill="#5C5C5C"/>
<path fill-rule="evenodd" clip-rule="evenodd" d="M229.097 184.987H236.707V188.032H239.752V191.076H242.796V194.12H245.84V197.164H248.884V200.208H251.928V203.252H254.972V206.296H258.016V209.341H261.061V218.473H258.016V221.517H254.972V224.561H251.928V227.605H248.884V230.649H245.84V233.694H242.796V236.738H239.752V239.782H236.708V242.826H229.097V238.26H235.186V235.215H238.23V232.171H241.274V229.127H244.318V226.083H247.362V223.039H250.406V219.995H253.45V216.951H256.494V210.862H253.45V207.818H250.406V204.774H247.362V201.73H244.318V198.686H241.274V195.642H238.23V192.598H235.185V189.553H229.097V184.987Z" fill="#5C5C5C"/>
<path fill-rule="evenodd" clip-rule="evenodd" d="M236.707 184.988H229.097V188.032H226.053V191.076H223.009V194.12H219.965V197.164H216.921V200.208H213.877V203.252H210.833V206.296H207.788V209.341H204.744V218.473H207.788V221.517H210.833V224.561H213.876V227.605H216.92V230.649H219.965V233.694H223.009V236.738H226.053V239.782H229.097V242.826H236.708V238.26H230.619V235.216H227.575V232.172H224.531V229.127H221.487V226.083H218.443V223.039H215.399V219.995H212.354V216.951H209.31V210.863H212.355V207.819H215.399V204.775H218.443V201.73H221.487V198.686H224.531V195.642H227.575V192.598H230.619V189.554H236.707V184.988Z" fill="#5C5C5C"/>
<rect x="229.097" y="210.863" width="7.61031" height="7.61031" fill="#5C5C5C"/>
<path fill-rule="evenodd" clip-rule="evenodd" d="M229.097 54.5923H236.707V57.6365H239.752V60.6807H242.796V63.7248H245.84V66.7689H248.884V69.8131H251.928V72.8572H254.972V75.9012H258.016V78.9453H261.061V88.0777H258.016V91.1218H254.972V94.1661H251.928V97.2102H248.884V100.254H245.84V103.298H242.796V106.343H239.752V109.387H236.708V112.431H229.097V107.865H235.186V104.82H238.23V101.776H241.274V98.7323H244.318V95.688H247.362V92.644H250.406V89.5999H253.45V86.5557H256.495V80.4674H253.45V77.4234H250.406V74.3793H247.362V71.335H244.318V68.291H241.274V65.2469H238.23V62.2027H235.186V59.1585H229.097V54.5923Z" fill="#5C5C5C"/>
<path fill-rule="evenodd" clip-rule="evenodd" d="M236.707 54.5928H229.097V57.6367H226.053V60.6809H223.009V63.725H219.965V66.769H216.921V69.8133H213.877V72.8574H210.833V75.9014H207.788V78.9455H204.744V88.0779H207.788V91.122H210.833V94.1663H213.877V97.2103H216.921V100.254H219.965V103.298H223.009V106.343H226.053V109.387H229.097V112.431H236.708V107.865H230.619V104.821H227.575V101.777H224.531V98.7323H221.487V95.6882H218.443V92.6442H215.399V89.6001H212.354V86.5558H209.31V80.4676H212.355V77.4235H215.399V74.3795H218.443V71.3352H221.487V68.2912H224.531V65.2471H227.575V62.2028H230.619V59.159H236.707V54.5928Z" fill="#5C5C5C"/>
<rect x="229.097" y="80.4673" width="7.61031" height="7.61031" fill="#5C5C5C"/>
</g>
<defs>
<filter id="filter0_d_504_4381" x="0" y="-206" width="197.142" height="460" filterUnits="userSpaceOnUse" color-interpolation-filters="sRGB">
<feFlood flood-opacity="0" result="BackgroundImageFix"/>
<feColorMatrix in="SourceAlpha" type="matrix" values="0 0 0 0 0 0 0 0 0 0 0 0 0 0 0 0 0 0 127 0" result="hardAlpha"/>
<feOffset dy="4"/>
<feGaussianBlur stdDeviation="2"/>
<feComposite in2="hardAlpha" operator="out"/>
<feColorMatrix type="matrix" values="0 0 0 0 0 0 0 0 0 0 0 0 0 0 0 0 0 0 0.25 0"/>
<feBlend mode="normal" in2="BackgroundImageFix" result="effect1_dropShadow_504_4381"/>
<feBlend mode="normal" in="SourceGraphic" in2="effect1_dropShadow_504_4381" result="shape"/>
</filter>
<filter id="filter1_d_504_4381" x="200" y="-141" width="65.8384" height="391.826" filterUnits="userSpaceOnUse" color-interpolation-filters="sRGB">
<feFlood flood-opacity="0" result="BackgroundImageFix"/>
<feColorMatrix in="SourceAlpha" type="matrix" values="0 0 0 0 0 0 0 0 0 0 0 0 0 0 0 0 0 0 127 0" result="hardAlpha"/>
<feOffset dy="4"/>
<feGaussianBlur stdDeviation="2"/>
<feComposite in2="hardAlpha" operator="out"/>
<feColorMatrix type="matrix" values="0 0 0 0 0 0 0 0 0 0 0 0 0 0 0 0 0 0 0.25 0"/>
<feBlend mode="normal" in2="BackgroundImageFix" result="effect1_dropShadow_504_4381"/>
<feBlend mode="normal" in="SourceGraphic" in2="effect1_dropShadow_504_4381" result="shape"/>
</filter>
</defs>
</svg>
