<svg width="110" height="34" viewBox="0 0 110 34" fill="none" xmlns="http://www.w3.org/2000/svg">
<path d="M10.2972 0L8.23779 0V7.55124H10.2972V8.92419H12.3567V10.9836H14.4161V13.0431H15.789V5.49181L13.7296 5.49181V4.11886H12.3567V2.05943L10.2972 2.05943V0Z" fill="#E62C20"/>
<path d="M23.34 0L25.3994 0V7.55124H23.34V8.92419H21.2806V10.9836H19.2211V13.0431H17.8482V5.49181L19.9076 5.49181V4.11886H21.2806V2.05943L23.34 2.05943V0Z" fill="#E62C20"/>
<path d="M20.5942 13.7296V15.789H28.1455V13.7296H29.5184V11.6702H31.5779V9.61074H33.6373V8.23779H26.086V10.2972H24.7131V11.6702H22.6537V13.7296H20.5942Z" fill="#E62C20"/>
<path d="M33.6372 23.3402V25.3996H26.086V23.3402H24.713V21.2808H22.6536V19.2214H20.5942V17.8484H28.1454V19.9078H29.5183V21.2808H31.5778V23.3402H33.6372Z" fill="#E62C20"/>
<path d="M23.34 33.6373H25.3994V26.0861H23.34V24.7131H21.2806V22.6537H19.2211V20.5943H17.8482V28.1455H19.9076V29.5185H21.2806V31.5779H23.34V33.6373Z" fill="#E62C20"/>
<path d="M10.2972 33.6373H8.23779V26.0861H10.2972V24.7131H12.3567V22.6537H14.4161V20.5943H15.789V28.1455H13.7296V29.5185H12.3567V31.5779H10.2972V33.6373Z" fill="#E62C20"/>
<path d="M-1.03716e-07 10.2972L0 8.23775L7.55124 8.23775L7.55124 10.2972L8.92419 10.2972L8.92419 12.3566L10.9836 12.3566L10.9836 14.416L13.0431 14.416L13.0431 15.789L5.49181 15.789L5.49181 13.7296L4.11886 13.7296L4.11886 12.3566L2.05943 12.3566L2.05943 10.2972L-1.03716e-07 10.2972Z" fill="#E62C20"/>
<path d="M13.043 19.9079L13.043 17.8484L5.49173 17.8484L5.49173 19.9079L4.11877 19.9079L4.11877 21.9673L2.05934 21.9673L2.05934 24.0267L-8.56958e-05 24.0267L-8.56266e-05 25.3997L7.55116 25.3997L7.55116 23.3402L8.92411 23.3402L8.92411 21.9673L10.9835 21.9673L10.9835 19.9079L13.043 19.9079Z" fill="#E62C20"/>
<rect x="15.7891" y="15.789" width="2.05943" height="2.05943" fill="#E62C20"/>
<path d="M86.66 0L84.6006 0V7.55124H86.66V8.92419H88.7194V10.9836H90.7789V13.0431H92.1518V5.49181L90.0924 5.49181V4.11886H88.7194V2.05943L86.66 2.05943V0Z" fill="#4A8068"/>
<path d="M99.7028 0L101.762 0V7.55124H99.7028V8.92419H97.6433V10.9836H95.5839V13.0431H94.211V5.49181L96.2704 5.49181V4.11886H97.6433V2.05943L99.7028 2.05943V0Z" fill="#4A8068"/>
<path d="M96.957 13.7296V15.789H104.508V13.7296H105.881V11.6702H107.941V9.61074H110V8.23779H102.449V10.2972H101.076V11.6702H99.0165V13.7296H96.957Z" fill="#4A8068"/>
<path d="M110 23.3402V25.3996H102.449V23.3402H101.076V21.2808H99.0164V19.2214H96.9569V17.8484H104.508V19.9078H105.881V21.2808H107.941V23.3402H110Z" fill="#4A8068"/>
<path d="M99.7028 33.6373H101.762V26.0861H99.7028V24.7131H97.6433V22.6537H95.5839V20.5943H94.211V28.1455H96.2704V29.5185H97.6433V31.5779H99.7028V33.6373Z" fill="#4A8068"/>
<path d="M86.66 33.6373H84.6006V26.0861H86.66V24.7131H88.7194V22.6537H90.7789V20.5943H92.1518V28.1455H90.0924V29.5185H88.7194V31.5779H86.66V33.6373Z" fill="#4A8068"/>
<path d="M76.3628 10.2972L76.3628 8.23775L83.914 8.23775L83.914 10.2972L85.287 10.2972L85.287 12.3566L87.3464 12.3566L87.3464 14.416L89.4058 14.416L89.4058 15.789L81.8546 15.789L81.8546 13.7296L80.4817 13.7296L80.4817 12.3566L78.4222 12.3566L78.4222 10.2972L76.3628 10.2972Z" fill="#4A8068"/>
<path d="M89.4058 19.9079L89.4058 17.8484L81.8545 17.8484L81.8545 19.9079L80.4816 19.9079L80.4816 21.9673L78.4221 21.9673L78.4221 24.0267L76.3627 24.0267L76.3627 25.3997L83.9139 25.3997L83.9139 23.3402L85.2869 23.3402L85.2869 21.9673L87.3463 21.9673L87.3463 19.9079L89.4058 19.9079Z" fill="#4A8068"/>
<rect x="92.1519" y="15.789" width="2.05943" height="2.05943" fill="#4A8068"/>
<path fill-rule="evenodd" clip-rule="evenodd" d="M52.7754 0.129761L57.2014 0.129761V1.90013L58.9718 1.90013V3.67053H60.7422V5.44092H62.5125V7.21132H64.283V8.98171L66.0534 8.98171V10.752H67.8237V12.5224H69.594V14.2928H71.3645V19.604H69.594V21.3743H67.8237V23.1448H66.0534V24.9151H64.283V26.6855H62.5125V28.4559H60.7421V30.2263H58.9718V31.9966H57.2014V33.7671H52.7754V31.1115H56.3162V29.3411H58.0866V27.5707H59.857V25.8003H61.6274V24.0299H63.3978V22.2595H65.1681V20.4892H66.9385V18.7188H68.7089V15.178H66.9385V13.4076H65.1681V11.6373L63.3978 11.6373V9.8669H61.6274V8.0965H59.857V6.32611L58.0866 6.32611V4.55571H56.3162V2.78534L52.7754 2.78534V0.129761Z" fill="#F69722"/>
<path fill-rule="evenodd" clip-rule="evenodd" d="M57.2017 0.129829L52.7757 0.129829V1.9002L51.0052 1.9002V3.67059H49.2349V5.44099H47.4645V7.21145H45.6941V8.98178L43.9237 8.98178V10.7522H42.1534V12.5226H40.383V14.293H38.6125V19.6041H40.383V21.3745H42.1534V23.1449H43.9237V24.9153H45.694V26.6857H47.4645V28.4561H49.2349V30.2265H51.0052V31.9968H52.7757V33.7672H57.2017V31.1116H53.6608V29.3412H51.8905V27.5709H50.1201V25.8005H48.3496V24.0301H46.5793V22.2598H44.809V20.4894H43.0386V18.7189H41.2681V15.1782H43.0386V13.4078H44.809V11.6374L46.5793 11.6374V9.86704H48.3497V8.09657H50.1201V6.32617L51.8905 6.32617V4.55578H53.6608V2.78541L57.2017 2.78541V0.129829Z" fill="#F69722"/>
<rect x="52.7754" y="15.1781" width="4.42597" height="4.42597" fill="#F69722"/>
</svg>
