<svg width="245" height="380" viewBox="0 0 245 380" fill="none" xmlns="http://www.w3.org/2000/svg">
<path d="M9.20869 184.924L121.189 0V143.448L104.721 60.9578C81.1303 96.1921 28.8455 175.449 22.7946 190.343C16.7109 205.318 9.20869 225.907 24.853 238.778C40.4974 251.649 40.909 274.342 42.5558 288.906C43.8608 300.448 91.4636 303.193 107.565 304.122L108.015 304.148C94.4289 305.051 47.9077 307.941 38.0272 304.148C25.6764 299.406 37.6154 267.906 12.0905 244.874C-8.32935 226.449 1.66102 197.23 9.20869 184.924Z" fill="#EEEEEE"/>
<path d="M235.159 184.795L125.297 18.4854L127.659 52.5701C167.458 90.7145 219.405 180.048 225.209 192.593C232.048 207.376 235.159 225.822 219.405 238.706C203.651 251.59 203.236 274.307 201.578 288.887C200.266 300.419 152.104 303.179 135.792 304.113L135.247 304.145C148.928 305.049 196.189 307.942 206.138 304.145C218.576 299.398 206.553 267.865 232.257 244.809C252.819 226.364 242.759 197.114 235.159 184.795Z" fill="#EEEEEE"/>
<mask id="mask0_783_2247" style="mask-type:alpha" maskUnits="userSpaceOnUse" x="22" y="63" width="202" height="233">
<path d="M23.5615 204.274C25.9907 186.216 75.3636 114.402 100.667 78.6118L123.761 171.636L131.506 63.6748C149.117 78.9262 216.067 184.142 222.443 204.274C228.82 224.406 212.423 235.082 206.654 240.572C200.885 246.063 196.331 266.804 196.027 274.125C195.723 281.446 195.116 288.156 188.132 291.512C182.546 294.196 164.55 295.477 156.251 295.782V276.565C175.233 266.29 176.633 248.91 177.948 237.217L176.6 184.142C156.251 186.742 151.609 210.984 150.799 224.406V243.012C139.868 235.692 125.381 243.216 121.94 247.893L119.814 245.148C124.672 241.487 134.996 228.066 123.761 214.95C114.774 204.457 100.882 209.978 95.8213 213.334C92.9064 190.396 80.6863 183.837 69.3505 184.142V220.745C69.3505 240.572 80.9487 251.35 91.576 252.163V295.782C84.9972 295.477 69.7748 294.196 61.5159 291.512C51.1923 288.156 51.4959 285.411 50.585 274.125C49.6741 262.839 44.2087 251.248 34.4924 240.572C24.776 229.896 20.5251 226.846 23.5615 204.274Z" fill="url(#paint0_linear_783_2247)"/>
</mask>
<g mask="url(#mask0_783_2247)">
<path d="M8.22463 87.8939C14.639 117.829 23.6192 203.78 8.22463 308.106C34.5431 295.207 41.2457 280.601 41.2457 236.693C37.8247 207.126 41.9473 179.01 82.1725 175.549C122.398 172.089 123.759 136.191 121.616 117.792C114.111 142.461 98.9246 137.655 78.2324 131.888C83.2532 118.353 85.9799 114.764 91.1406 116.024C130.186 125.557 124.483 77.3318 125.297 51.3506C115.434 103.285 35.3026 65.5773 15.0934 66.1076C-1.07394 66.5318 4.28447 78.5079 8.22463 87.8939Z" fill="#F69722"/>
<path d="M62.5278 189.653C72.4263 180.864 105.351 178.971 119.437 172.541C112.394 215.947 87.7421 204.986 81.09 210.686C74.4379 216.386 83.4378 238.747 79.1335 259.793C74.8292 280.838 119.635 265.142 147.611 269C173.045 272.508 182.045 247.077 171.872 239.624C161.698 232.17 101.829 249.708 103.394 239.624C104.646 231.556 101.568 222.524 99.8722 219.016C111.611 221.209 180.954 211.124 192.693 219.016C204.432 226.909 210.692 292.676 166.867 292.676C123.041 292.676 51.351 299.636 51.3511 277.769C51.3512 250.903 53.326 197.823 62.5278 189.653Z" fill="#4A8068"/>
<path d="M134.004 163.259C140.866 128.49 134.784 74.3934 134.004 54.4012C134.004 49.4756 138.878 48.5216 143.362 49.8254C152.319 52.4299 175.643 98.6175 183.752 121.951C183.358 116.523 184.692 106.458 190.821 89.6042C200.179 63.8752 216.034 62.0788 222.792 64.3967C225.131 141.178 227.109 245.661 231.475 262.351C235.842 279.04 216.66 298.858 202.624 295.381C216.348 260.612 201.176 202.147 195.457 150.284L185.363 171.311L165.089 139.15L165.045 140.054C163.246 177.012 161.801 206.72 153.499 206.72C145.311 206.72 133.355 205.561 125.297 206.72C125.817 204.113 127.142 198.028 134.004 163.259Z" fill="#E62C20"/>
</g>
<path d="M86.269 240.321C84.9205 240.322 83.585 239.754 82.339 238.65C81.093 237.545 79.9608 235.926 79.0071 233.885C78.0533 231.844 77.2968 229.42 76.7806 226.753C76.2645 224.086 75.9988 221.227 75.9988 218.339L75.9988 195.132C78.7226 195.132 81.3349 197.448 83.2609 201.572C85.187 205.696 86.269 211.289 86.269 217.12V240.321Z" fill="#EEEEEE"/>
<path d="M170.486 195.133C169.137 195.131 167.802 196.009 166.556 197.716C165.31 199.422 164.177 201.924 163.224 205.079C162.27 208.233 161.513 211.979 160.997 216.101C160.481 220.223 160.215 224.642 160.215 229.104L160.215 264.97C162.939 264.97 165.551 261.39 167.477 255.017C169.404 248.644 170.486 240.001 170.486 230.988V195.133Z" fill="#EEEEEE"/>
<path d="M147.891 275.244V353.815C147.891 357.254 147.359 360.659 146.327 363.836C145.295 367.013 143.782 369.899 141.874 372.331C139.967 374.762 137.703 376.691 135.211 378.007C132.719 379.323 130.048 380 127.35 380V301.428C127.35 294.484 129.514 287.824 133.366 282.913C137.218 278.002 142.443 275.244 147.891 275.244Z" fill="#EEEEEE"/>
<path d="M98.5945 248.54V347.14C98.5945 351.455 99.1258 355.728 100.158 359.714C101.19 363.701 102.703 367.324 104.611 370.375C106.518 373.426 108.782 375.846 111.274 377.498C113.767 379.149 116.438 379.999 119.135 379.999V281.399C119.135 272.685 116.971 264.327 113.119 258.164C109.267 252.002 104.042 248.54 98.5945 248.54Z" fill="#EEEEEE"/>
<path d="M138.648 267.026C143.752 267.026 147.891 262.888 147.891 257.783C147.891 252.678 143.752 248.54 138.648 248.54C133.543 248.54 129.404 252.678 129.404 257.783C129.404 262.888 133.543 267.026 138.648 267.026Z" fill="#EEEEEE"/>
<path d="M108.865 238.269C114.537 238.269 119.135 233.671 119.135 227.999C119.135 222.327 114.537 217.729 108.865 217.729C103.193 217.729 98.5945 222.327 98.5945 227.999C98.5945 233.671 103.193 238.269 108.865 238.269Z" fill="#EEEEEE"/>
<defs>
<linearGradient id="paint0_linear_783_2247" x1="123.244" y1="63.6748" x2="123.244" y2="295.782" gradientUnits="userSpaceOnUse">
<stop stop-color="#FCAA25"/>
<stop offset="0.291667" stop-color="#F5BD02"/>
<stop offset="1" stop-color="#F36334"/>
</linearGradient>
</defs>
</svg>
