<svg width="122" height="190" viewBox="0 0 122 190" fill="none" xmlns="http://www.w3.org/2000/svg">
<path d="M4.59621 92.2985L60.4874 0V71.5971L52.2681 30.4251C40.4935 48.0111 14.3973 87.5696 11.3772 95.0034C8.3407 102.477 4.59621 112.754 12.4046 119.178C20.2129 125.602 20.4184 136.929 21.2403 144.198C21.8917 149.959 45.651 151.329 53.6876 151.792L53.9119 151.805C47.131 152.256 23.9116 153.699 18.98 151.805C12.8155 149.439 18.7745 133.717 6.03459 122.221C-4.15732 113.024 0.829044 98.4408 4.59621 92.2985Z" fill="#EEEEEE"/>
<path d="M117.372 92.2342L62.5379 9.22623L63.7168 26.2385C83.5811 45.277 109.509 89.865 112.406 96.1265C115.819 103.505 117.372 112.711 109.509 119.142C101.646 125.573 101.439 136.911 100.611 144.188C99.9564 149.944 75.9179 151.322 67.7761 151.788L67.5039 151.804C74.3323 152.255 97.9211 153.699 102.887 151.804C109.095 149.434 103.094 133.696 115.923 122.188C126.186 112.982 121.165 98.3829 117.372 92.2342Z" fill="#EEEEEE"/>
<mask id="mask0_783_1009" style="mask-type:alpha" maskUnits="userSpaceOnUse" x="11" y="31" width="101" height="117">
<path d="M11.76 101.956C12.9725 92.9435 37.6153 57.0998 50.2445 39.2364L61.7715 85.6662L65.6368 31.7811C74.4267 39.3933 107.843 91.9083 111.025 101.956C114.208 112.005 106.024 117.333 103.145 120.074C100.265 122.814 97.992 133.167 97.8405 136.82C97.6889 140.474 97.3858 143.824 93.9002 145.498C91.1116 146.838 82.1297 147.478 77.9874 147.63V138.038C87.462 132.91 88.1604 124.235 88.8171 118.399L88.144 91.9083C77.9874 93.2059 75.6705 105.306 75.2664 112.005V121.291C69.8106 117.638 62.5798 121.393 60.8622 123.727L59.8013 122.357C62.2261 120.53 67.3789 113.831 61.7715 107.285C57.2856 102.048 50.3519 104.804 47.8261 106.478C46.3712 95.0296 40.272 91.756 34.6141 91.9083V110.178C34.6141 120.074 40.4029 125.453 45.7072 125.859V147.63C42.4236 147.478 34.8259 146.838 30.7037 145.498C25.551 143.824 25.7025 142.453 25.2479 136.82C24.7932 131.187 22.0654 125.402 17.2158 120.074C12.3662 114.745 10.2445 113.223 11.76 101.956Z" fill="url(#paint0_linear_783_1009)"/>
</mask>
<g mask="url(#mask0_783_1009)">
<path d="M4.10502 43.8692C7.30656 58.8101 11.7887 101.71 4.10502 153.781C17.241 147.343 20.5864 140.052 20.5864 118.137C18.8789 103.38 20.9366 89.3465 41.0137 87.6193C61.0908 85.8922 61.7703 67.9753 60.7003 58.7916C56.9549 71.1046 49.3749 68.706 39.0471 65.8274C41.553 59.0719 42.914 57.2804 45.4898 57.9093C64.9782 62.6674 62.1317 38.5974 62.5377 25.6298C57.6148 51.5512 17.6201 32.7306 7.53335 32.9952C-0.536058 33.2069 2.13842 39.1845 4.10502 43.8692Z" fill="#F69722"/>
<path d="M31.2084 94.6587C36.1489 90.2722 52.582 89.3273 59.6129 86.1176C56.0974 107.783 43.7933 102.312 40.4731 105.157C37.1529 108.002 41.6449 119.162 39.4966 129.667C37.3482 140.171 59.7114 132.337 73.6748 134.262C86.3696 136.013 90.8617 123.32 85.7837 119.6C80.7057 115.88 50.8241 124.633 51.6053 119.6C52.2303 115.573 50.6939 111.065 49.8476 109.315C55.7067 110.409 90.3167 105.375 96.1758 109.315C102.035 113.254 105.16 146.08 83.2857 146.08C61.4115 146.08 25.6298 149.553 25.6299 138.639C25.6299 125.23 26.6156 98.7365 31.2084 94.6587Z" fill="#4A8068"/>
<path d="M66.8838 81.4852C70.3087 64.1314 67.273 37.1309 66.8838 27.1524C66.8838 24.694 69.3166 24.2178 71.5545 24.8686C76.0248 26.1685 87.6666 49.2215 91.7138 60.8677C91.5173 58.1587 92.183 53.1348 95.2422 44.7228C99.9126 31.8811 107.826 30.9844 111.199 32.1414C112.367 70.4642 113.354 122.614 115.533 130.943C117.713 139.273 108.139 149.165 101.133 147.43C107.983 130.076 100.41 100.895 97.5561 75.0091L92.5179 85.5042L82.3988 69.4519L82.3768 69.9033C81.4791 88.3497 80.7576 103.177 76.614 103.177C72.5275 103.177 66.5598 102.599 62.5381 103.177C62.7975 101.876 63.4589 98.8389 66.8838 81.4852Z" fill="#E62C20"/>
</g>
<path d="M43.0582 119.948C42.3851 119.949 41.7186 119.665 41.0966 119.114C40.4747 118.563 39.9096 117.755 39.4336 116.736C38.9576 115.717 38.58 114.508 38.3224 113.176C38.0647 111.845 37.9321 110.418 37.9321 108.977L37.9321 97.3936C39.2916 97.3936 40.5955 98.5499 41.5568 100.608C42.5181 102.666 43.0582 105.458 43.0582 108.368V119.948Z" fill="#EEEEEE"/>
<path d="M85.0919 97.394C84.4188 97.3933 83.7522 97.8313 83.1303 98.6831C82.5084 99.5349 81.9433 100.784 81.4673 102.358C80.9913 103.933 80.6137 105.802 80.3561 107.86C80.0984 109.917 79.9658 112.123 79.9658 114.35L79.9658 132.251C81.3253 132.251 82.6292 130.464 83.5905 127.283C84.5518 124.103 85.0919 119.788 85.0919 115.29V97.394Z" fill="#EEEEEE"/>
<path d="M73.8145 137.379V176.595C73.8145 178.311 73.5493 180.011 73.0341 181.597C72.5188 183.182 71.7637 184.623 70.8117 185.837C69.8597 187.05 68.7295 188.013 67.4856 188.67C66.2418 189.326 64.9087 189.664 63.5624 189.664V150.448C63.5624 146.982 64.6425 143.658 66.5651 141.207C68.4878 138.756 71.0954 137.379 73.8145 137.379Z" fill="#EEEEEE"/>
<path d="M49.21 124.051V173.263C49.21 175.417 49.4751 177.55 49.9904 179.54C50.5056 181.53 51.2607 183.338 52.2127 184.86C53.1647 186.383 54.2949 187.591 55.5388 188.416C56.7826 189.24 58.1157 189.664 59.4621 189.664V140.451C59.4621 136.102 58.3819 131.93 56.4593 128.854C54.5367 125.779 51.929 124.051 49.21 124.051Z" fill="#EEEEEE"/>
<path d="M69.2013 133.278C71.7493 133.278 73.8148 131.212 73.8148 128.664C73.8148 126.116 71.7493 124.051 69.2013 124.051C66.6534 124.051 64.5879 126.116 64.5879 128.664C64.5879 131.212 66.6534 133.278 69.2013 133.278Z" fill="#EEEEEE"/>
<path d="M54.336 118.924C57.167 118.924 59.4621 116.629 59.4621 113.798C59.4621 110.967 57.167 108.672 54.336 108.672C51.505 108.672 49.21 110.967 49.21 113.798C49.21 116.629 51.505 118.924 54.336 118.924Z" fill="#EEEEEE"/>
<defs>
<linearGradient id="paint0_linear_783_1009" x1="61.5131" y1="31.7811" x2="61.5131" y2="147.63" gradientUnits="userSpaceOnUse">
<stop stop-color="#FCAA25"/>
<stop offset="0.291667" stop-color="#F5BD02"/>
<stop offset="1" stop-color="#F36334"/>
</linearGradient>
</defs>
</svg>
