<svg width="360" height="48" viewBox="0 0 360 48" fill="none" xmlns="http://www.w3.org/2000/svg">
<path fill-rule="evenodd" clip-rule="evenodd" d="M360 9.18798V4.1767H360V0.000367842H360V0L355.824 0V0.000367842L321.578 0.000367842V0.00015831L317.401 0.00015831L317.401 9.18783L314.478 9.18783V0.000189574L310.302 0.000189574V0.000399106L276.055 0.000399106V3.12639e-05L271.879 3.12639e-05V9.18801V13.3643L286.079 13.3643V9.18801L276.055 9.18801V4.17673L310.302 4.17673V9.18783H310.302V9.18801L300.278 9.18801V9.18813V13.3643L300.278 17.5405L300.278 17.5408H296.52V17.5405H292.343V21.7169L286.079 21.7169V25.8933L292.343 25.8933V25.8934V30.0695V30.0697H300.278V34.246V38.4223V38.4225H304.455V38.4223H310.302V38.4224H310.302V43.4339L276.055 43.4339V38.4223L286.079 38.4223V34.246L271.879 34.246V38.4223V47.6103H276.055V47.6102L310.302 47.6102V47.6104L314.478 47.6104V38.4224H317.401L317.401 47.6104H321.578V47.6102L355.824 47.6102V47.6103H360V47.6102H360V43.4339H360V38.4223V34.246V34.246H345.8V38.4223H355.824V43.4339L321.578 43.4339V38.4224H321.578V38.4223H327.425V38.4224H331.601V38.4223V34.246V30.0697L339.536 30.0697V30.0695H339.536V25.8932H345.8V21.7169H339.536V17.5408V17.5405L335.36 17.5405V17.5408H331.601V17.5405V13.3643V9.1881V9.18798L321.578 9.18798V9.18783V4.1767L355.824 4.1767V9.18798L345.8 9.18798V13.3643L360 13.3643V13.3643V9.18798ZM317.401 34.2461H314.478V25.8935H314.478V25.8934H304.455V21.7172H314.478V21.7171H314.478V13.3642L317.401 13.3642L317.401 17.5408V21.7171L327.425 21.7171V25.8934L317.401 25.8934V30.0697L317.401 34.2461ZM335.36 25.8934V25.8932H335.359V21.7171H331.601V25.8934H335.36ZM327.425 17.5405V17.5408H321.578V13.3643L327.425 13.3643V17.5405ZM327.425 34.246H321.578V30.0697H327.425V34.246ZM300.278 21.7172H296.52V25.8934H300.278V21.7172ZM310.302 13.3643V17.5408H304.455V13.3643L310.302 13.3643ZM310.302 34.246V30.0697H304.455V34.246H310.302Z" fill="#4A8068"/>
<path fill-rule="evenodd" clip-rule="evenodd" d="M90.6265 9.18798V0L94.8028 0V0.000367842L129.049 0.000367842V0.00015831L133.225 0.00015831V9.18779L136.148 9.18779L136.148 0.000251612L140.325 0.000251612V0.000461143L174.571 0.000461143V9.33016e-05L178.747 9.33016e-05V9.18807V13.3644V13.3644L164.548 13.3644V9.18807L174.571 9.18807V4.1768L140.325 4.1768V9.18807L150.348 9.18807V9.18819V13.3644V17.5409H154.106V17.5406L158.283 17.5406V17.5409H158.283V21.717H164.547V25.8933H158.283V25.8935V30.0696V30.0698L150.348 30.0698V34.2461V38.4224V38.4225H146.172V38.4224H140.325V43.434L174.571 43.434V38.4224H164.548V34.2461H178.747V34.2461V38.4224V47.6104H174.571V47.6103L140.325 47.6103V47.6105H136.148L136.148 38.4224H133.225V47.6104L129.049 47.6104V47.6102L94.8028 47.6102V47.6103H90.6265V38.4223V34.246L104.826 34.246V38.4223L94.8028 38.4223V43.4339L129.049 43.4339V38.4224H129.048V38.4223H123.202V38.4224H119.026V38.4223V34.246V30.0697H111.09V30.0695V25.8934V25.8932L104.826 25.8932V21.7169L111.09 21.7169V17.5405H115.267V17.5408H119.026L119.026 17.5405L119.026 13.3643V9.1881V9.18798L129.048 9.18798V9.18779H129.049V4.1767L94.8028 4.1767V9.18798L104.826 9.18798V13.3643L90.6265 13.3643V9.18798ZM133.225 34.246V25.8934H133.225V25.8934H123.202V21.7171H133.225V21.7171H133.225V13.3641L136.148 13.3641V17.5409V21.7172L146.172 21.7172V25.8935L136.148 25.8935V30.0698V34.246H133.225ZM140.325 34.2461V30.0698H146.172V34.2461H140.325ZM115.267 25.8934V25.8932H115.267V21.7171H119.026V25.8934H115.267ZM123.202 17.5405L123.202 17.5408H129.049V13.3643L123.202 13.3643L123.202 17.5405ZM129.049 34.246V30.0697H123.202V34.246H129.049ZM150.348 25.8935V21.7172H154.106V25.8935H150.348ZM146.172 17.5406L146.172 17.5409H140.325V13.3644L146.172 13.3644L146.172 17.5406Z" fill="#F69722"/>
<path fill-rule="evenodd" clip-rule="evenodd" d="M181.253 9.18798V4.1767H181.253V0.000367842L181.253 0.000367842V0L185.429 0V0.000367842L219.675 0.000367842V0.00015831L223.852 0.00015831V0.000367842H223.852V4.1767H223.852V9.18779L226.775 9.18779L226.775 0.000251612L230.951 0.000251612V0.000461143L265.197 0.000461143V9.33016e-05L269.374 9.33016e-05V0.000461143H269.374V4.1768H269.374V9.18807V13.3644V13.3644L255.174 13.3644V9.18807L265.197 9.18807V4.1768L230.951 4.1768V9.18807L240.974 9.18807V9.18819V13.3644V17.5409H244.733V17.5406L248.909 17.5406L248.909 17.5409V21.717H255.174V25.8933H248.909V25.8935H248.91V30.0698L240.974 30.0698V34.2461V38.4224V38.4225H236.798V38.4224H230.951V43.434L265.197 43.434V38.4224H255.174V34.2461H269.373V34.2461V38.4224V43.434L269.374 47.6103L269.373 47.6104H265.197V47.6103L230.951 47.6103V47.6105H226.775V47.6103H226.775V43.434H226.775V38.4224H226.775L223.852 38.4224V43.4339H223.852V47.6102H223.852V47.6104L219.675 47.6104V47.6102L185.429 47.6102V47.6103H181.253V38.4223V34.246L195.453 34.246V38.4223L185.429 38.4223V43.4339L219.675 43.4339V38.4224H219.675V38.4223H213.829V38.4224H209.652V38.4223V34.246V30.0697H201.717V30.0695V25.8934V25.8932L195.453 25.8932V21.7169L201.717 21.7169L201.717 17.5408V17.5405H205.893V17.5408H209.652V13.3643V9.1881V9.18798L219.675 9.18798V9.18779H219.675V4.1767L185.429 4.1767V9.18798L195.453 9.18798V13.3643L181.253 13.3643V9.18798ZM223.852 34.246V34.246H223.852L223.852 30.0697V25.8934H213.828V21.7171H223.852V17.5408H223.852V13.3641L226.775 13.3641V17.5409V21.7172L236.798 21.7172V25.8935L226.775 25.8935V30.0698L226.775 34.2461L223.852 34.246ZM209.652 25.8934V21.7171H205.893V25.8934H209.652ZM213.828 17.5408V17.5405H213.828V13.3643L219.675 13.3643V17.5408H213.828ZM213.829 34.246H219.675V30.0697H213.829V34.246ZM240.974 25.8935V21.7172H244.733V25.8935H240.974ZM236.798 17.5406L236.798 17.5409H230.951V13.3644L236.798 13.3644L236.798 17.5406ZM236.798 34.2461H230.951V30.0698H236.798V34.2461Z" fill="#E62C20"/>
<path fill-rule="evenodd" clip-rule="evenodd" d="M88.1205 9.18798V4.1767H88.1206V0.000367842L88.1205 0.000367842V0L83.9441 0V0.000367842L49.6984 0.000367842V0.00015831L45.522 0.00015831V0.000367842H45.522V4.1767H45.522V9.18783L42.5986 9.18783L42.5986 0.000189574L38.4223 0.000189574V0.000399106L4.17627 0.000399106V3.12639e-05L-7.10415e-05 3.12639e-05V9.18801V13.3643L14.1995 13.3643V9.18801L4.17627 9.18801V4.17673L38.4223 4.17673V9.18801L28.399 9.18801V9.18813V13.3643L28.399 17.5405V17.5408H24.6404V17.5405H20.464V17.5408V21.7169L14.1996 21.7169V25.8933L20.464 25.8933V25.8934V30.0695V30.0697H28.399V34.246V38.4223V38.4225H32.5753V38.4223H38.4223V43.4339L4.17627 43.4339V38.4223L14.1995 38.4223V34.246L-7.10415e-05 34.246V38.4223V47.6103H4.17627V47.6102L38.4223 47.6102V47.6104L42.5986 47.6104L42.5986 47.6102V43.4339L42.5986 38.4224H45.5219V43.4339H45.5219V47.6102H45.5219V47.6104H49.6982V47.6102L83.9441 47.6102V47.6103H88.1205V47.6102H88.1205V43.4339H88.1205V38.4223V34.246V34.246H73.9209L73.9209 38.4223L83.9441 38.4223V43.4339L49.6982 43.4339V38.4224H49.6984V38.4223H55.545V38.4224H59.7214V38.4223V34.246V30.0697L67.6565 30.0697V30.0695H67.6566V25.8932H73.9209V21.7169H67.6566V17.5405L63.4803 17.5405V17.5408H59.7215L59.7215 17.5405L59.7215 13.3643V9.1881V9.18798L49.6984 9.18798V9.18783H49.6984V4.1767L83.9441 4.1767V9.18798L73.9209 9.18798V13.3643L88.1205 13.3643V13.3643V9.18798ZM45.5218 34.2461H42.5986L42.5986 30.0697V25.8934H32.5753V21.7172H42.5986V17.5408L42.5986 13.3642L45.522 13.3642V13.3643H45.522L45.522 17.5408V21.7171L55.5452 21.7171V25.8934L45.5219 25.8934V30.0697L45.5219 34.246H45.5218V34.2461ZM63.4803 25.8934V25.8932H63.4801L63.4801 21.7171H59.7215L59.7215 25.8934H63.4803ZM55.5452 13.3643L49.6984 13.3643L49.6984 17.5408H55.5452L55.5452 13.3643ZM55.545 34.246H49.6982V30.0697H55.545V34.246ZM24.6404 25.8934V25.8933H24.6404V21.7172H28.399V25.8934H24.6404ZM32.5753 17.5405V17.5408H38.4223L38.4223 13.3643L32.5753 13.3643L32.5753 17.5405ZM32.5753 34.246H38.4223V30.0697H32.5753V34.246Z" fill="#9C4A9A"/>
</svg>
