<svg width="1439" height="48" viewBox="0 0 1439 48" fill="none" xmlns="http://www.w3.org/2000/svg">
<path fill-rule="evenodd" clip-rule="evenodd" d="M314.702 21.5325V21.5323V17.3917V13.2508L311.804 13.2508V13.2509L311.804 17.3917L311.804 21.5323L311.804 21.5325H301.866V25.6732H311.804L311.804 25.6734L311.804 29.814L311.804 33.9548L314.702 33.9548V29.814L314.702 25.6734L314.702 25.6731L324.64 25.6731V21.5325L314.702 21.5325ZM318.843 38.0956L318.843 43.0647L352.798 43.0647V38.0956H342.86V33.9548H356.938V33.955V38.0956V43.0647V47.2055V47.2056H352.798V47.2055L318.843 47.2055V47.2056H314.702L314.702 38.0956L311.804 38.0956L311.804 47.2057L307.663 47.2057V47.2055L273.708 47.2055V47.2056H269.567V47.2055V43.0647V38.0956V33.955V33.9548L283.646 33.9548V38.0956L273.708 38.0956V43.0647L307.663 43.0647V38.0956H301.866V38.0959H297.725V38.0956V33.9548V29.814H289.857V29.8138L289.857 25.673L283.646 25.673V21.5322L289.857 21.5322V17.3917L289.857 17.3913H293.998V17.3917H297.725V13.2509V9.11007V9.10983H301.866V9.11007L307.663 9.11007V9.10994V4.14116L273.708 4.14116V9.11007L283.646 9.11007V13.2509L269.567 13.2509V13.2507V9.11007V4.14116V0.00033807V4.5569e-05L273.708 4.5569e-05V0.00033807L307.663 0.00033807V3.12639e-05L311.804 3.12639e-05L311.804 9.10994L314.702 9.10994V0L318.843 0V0.000306806L352.798 0.000306806V1.43051e-05L356.938 1.43051e-05V0.000306806H356.938V4.14112H356.938V9.11004V13.2506V13.2509L342.86 13.2509V9.11004L352.798 9.11004V4.14112L318.843 4.14112V9.10994V9.11004L324.64 9.11004V9.1098H328.781V9.11004V13.2509V17.3913V17.3917H332.508V17.3913L336.648 17.3913V17.3917V21.5321H342.86V25.6729H336.648V29.8138H336.648V29.814L328.781 29.814V33.9548V38.0956V38.0958H324.64V38.0956H318.843L318.843 38.0956ZM332.508 25.6731L332.508 25.6729L332.508 21.5325H328.781V25.6731H332.508ZM324.64 17.3913V17.3917H318.843V13.2509L324.64 13.2509V17.3913ZM318.843 33.9548V29.814H324.64V33.9548H318.843ZM293.998 25.6732L293.998 25.673L293.998 21.5325H297.725V25.6732H293.998ZM301.866 17.3917V17.3913H301.866V13.2509L307.663 13.2509V17.3917H301.866ZM307.663 33.9548V29.814H301.866V33.9548H307.663Z" fill="#4A8068"/>
<path fill-rule="evenodd" clip-rule="evenodd" d="M132.092 17.3917H132.092V13.2509H132.092V13.2507L134.991 13.2507V13.2509H134.991V17.3918H134.991V21.5326L144.929 21.5326V25.6732L134.991 25.6732V25.6735H134.991V33.9548H132.092V25.6734H132.092V25.6731H122.154V21.5325H132.092V17.3917ZM132.092 38.0956V47.2056L127.951 47.2056V47.2055L93.9965 47.2055V47.2056H89.8557V47.2055V43.0647V38.0956V33.955V33.9548L103.935 33.9548V38.0956L93.9965 38.0956V43.0647L127.951 43.0647V38.0956H122.154V38.0958H118.013V38.0956V33.9548V29.814H110.146V29.8138V25.6731V25.6729L103.935 25.6729V21.5321L110.146 21.5321V17.3917L110.146 17.3913H114.287V17.3917H118.013L118.013 17.3913L118.013 13.2509V9.11004V9.1098H122.154V9.11004L127.951 9.11004V4.14112L93.9965 4.14112V9.11004L103.934 9.11004V13.2509L89.8557 13.2509V13.2506V9.11004V1.43051e-05L93.9965 1.43051e-05V0.000306806L127.951 0.000306806V0L132.092 0V0.000306806H132.092V4.14112H132.092V9.10991L134.991 9.10991L134.991 4.14122V0.000400108L134.991 9.33016e-05L139.132 9.33016e-05V0.000400108L173.086 0.000400108V0.000107607L177.227 0.000107607V0.000400108H177.227V4.14122H177.227V9.11013V13.2507V13.2509L163.148 13.2509V9.11013L173.086 9.11013V4.14122L139.132 4.14122V9.11013L144.929 9.11013V9.10989H149.069V9.11013V13.2509V17.3918H152.796V17.3914L156.937 17.3914V17.3918H156.937V21.5322H163.148V25.673H156.937V25.6732H156.937V29.8141L149.069 29.8141V33.9549V38.0957V38.0959H144.929V38.0957H139.131V43.0648L173.086 43.0648V38.0957H163.148V33.9549H177.227V33.9551V38.0957V43.0648V47.2056V47.2057H173.086V47.2056L139.131 47.2056V47.2057H134.991V47.2056H134.991V43.0648H134.991V38.0956H132.092ZM139.131 33.9548H139.132V33.9549H144.929V29.8141H139.131V33.9548ZM114.287 25.6729L114.287 21.5325H118.013V25.6731H114.287L114.287 25.6729ZM122.154 17.3917H127.951V13.2509L122.154 13.2509L122.154 17.3913L122.154 17.3917ZM127.951 33.9548V29.814H122.154V33.9548H127.951ZM152.796 25.673L152.796 21.5326H149.069V25.6732H152.796L152.796 25.673ZM144.929 17.3914L144.929 17.3918H139.132V13.2509L144.929 13.2509L144.929 17.3914Z" fill="#F69722"/>
<path fill-rule="evenodd" clip-rule="evenodd" d="M221.948 21.5325V21.5323H221.948V13.2507L224.846 13.2507V13.2509H224.846V17.3918H224.846V21.5326L234.784 21.5326V25.6732L224.846 25.6732V29.8141H224.846V33.9548H221.948V29.814H221.948V25.6731H212.01V21.5325H221.948ZM221.948 38.0956V47.2056L217.807 47.2056V47.2055L183.852 47.2055V47.2056H179.712V47.2055H179.711V43.0647H179.712V38.0956V33.955V33.9548L193.79 33.9548V38.0956L183.852 38.0956V43.0647L217.807 43.0647V38.0956H212.01V38.0958H207.869V38.0956V33.9548V29.814H200.002V29.8138H200.001V25.6729L193.79 25.6729V21.5321L200.001 21.5321V17.3917L200.001 17.3913H204.142V17.3917H207.869V13.2509V9.11004V9.1098H212.01V9.11004L217.807 9.11004V9.10991V4.14112L183.852 4.14112V9.11004L193.79 9.11004V13.2509L179.711 13.2509V13.2506V9.11004V1.43051e-05L183.852 1.43051e-05V0.000306806L217.807 0.000306806V0L221.948 0V9.10991L224.846 9.10991L224.846 4.14122V0.000400108L224.846 9.33016e-05L228.987 9.33016e-05V0.000400108L262.942 0.000400108V0.000107607L267.083 0.000107607V0.000400108H267.083V4.14122H267.083V9.11013V13.2507V13.2509L253.004 13.2509V9.11013L262.942 9.11013V4.14122L228.987 4.14122V9.11013L234.784 9.11013V9.10989H238.925V9.11013V13.2509V17.3918H242.652V17.3914L246.793 17.3914L246.793 17.3918V21.5322H253.004V25.673H246.793L246.793 29.8138H246.793V29.8141L238.925 29.8141V33.9549V38.0957V38.0959H234.784V38.0957H228.987V43.0648L262.942 43.0648V38.0957H253.004V33.9549H267.083V33.9551V38.0957V43.0648V47.2056V47.2057H262.942V47.2056L228.987 47.2056V47.2057H224.846V47.2056H224.846V43.0648H224.846V38.0956H221.948ZM228.987 33.9548H228.987V33.9549H234.784V29.8141H228.987V33.9548ZM204.142 25.6731L204.142 25.6729L204.142 21.5325H207.869V25.6731H204.142ZM212.01 17.3913L212.01 17.3917H217.807V13.2509L212.01 13.2509L212.01 17.3913ZM217.807 33.9548V29.814H212.01V33.9548H217.807ZM242.652 25.673L242.652 21.5326H238.925V25.6732H242.652L242.652 25.673ZM234.784 17.3914L234.784 17.3918H228.987V13.2509L234.784 13.2509L234.784 17.3914Z" fill="#E62C20"/>
<path fill-rule="evenodd" clip-rule="evenodd" d="M45.1349 17.3917H45.135L45.135 13.2508L42.2364 13.2508V13.2509H42.2364L42.2364 17.3917H42.2364V21.5325H32.2985V25.6732H42.2364V29.814H42.2364V33.9548H42.2364L45.1348 33.9548V25.6734H45.1349V25.6731L55.073 25.6731V21.5325L45.1349 21.5325V17.3917ZM49.2756 38.0956V43.0647L83.2304 43.0647V38.0956H73.2925L73.2925 33.9548H87.3712V33.955V38.0956V43.0647V47.2055V47.2056H83.2304V47.2055L49.2756 47.2055V47.2056H45.1348V38.0956L42.2364 38.0956V43.0647H42.2364V47.2055H42.2364V47.2057L38.0955 47.2057V47.2055L4.14087 47.2055V47.2056H5.09841e-05V47.2055V43.0647V38.0956V33.955V33.9548L14.0788 33.9548V38.0956L4.14087 38.0956V43.0647L38.0955 43.0647V38.0956H32.2985V38.0959H28.1576V38.0956V33.9548V29.814H20.2901V29.8138V25.6732V25.673L14.0789 25.673V21.5322L20.2901 21.5322V17.3917V17.3913H24.4309V17.3917H28.1576V17.3913L28.1576 13.2509V9.11007V9.10983H32.2985V9.11007L38.0955 9.11007V4.14116L4.14087 4.14116V9.11007L14.0788 9.11007V13.2509L5.09841e-05 13.2509V13.2507V9.11007V4.5569e-05L4.14087 4.5569e-05V0.00033807L38.0955 0.00033807V3.12639e-05L42.2364 3.12639e-05V0.00033807H42.2364V4.14116H42.2364V9.10994L45.135 9.10994V0L49.2758 0V0.000306806L83.2305 0.000306806V1.43051e-05L87.3713 1.43051e-05V0.000306806H87.3713V4.14112H87.3713V9.11004V13.2506V13.2509L73.2925 13.2509V9.11004L83.2305 9.11004V4.14112L49.2758 4.14112V9.10994H49.2759V9.11004L55.073 9.11004V9.1098H59.2138V9.11004V13.2509L59.2138 17.3913L59.2138 17.3917H62.9405V17.3913L67.0813 17.3913V21.5321H73.2925V25.6729H67.0813V29.8138H67.0812V29.814L59.2136 29.814V33.9548V38.0956V38.0958H55.0728V38.0956H49.2759V38.0956H49.2756ZM62.9404 25.6729L62.9405 21.5325H59.2138L59.2138 25.6731H62.9405L62.9404 25.6729ZM49.2758 13.2509L49.2758 17.3917H55.073L55.073 13.2509L49.2758 13.2509ZM49.2756 33.9548V29.814H55.0728V33.9548H49.2756ZM24.4309 25.673L24.4309 21.5325H28.1576V25.6732H24.4309L24.4309 25.673ZM32.2985 17.3917H38.0955L38.0955 13.2509L32.2985 13.2509L32.2985 17.3913V17.3917ZM38.0955 33.9548V29.814H32.2985V33.9548H38.0955Z" fill="#9C4A9A"/>
<path fill-rule="evenodd" clip-rule="evenodd" d="M674.291 21.5325L674.291 21.5323V13.2508L671.392 13.2508V13.2509L671.392 17.3917L671.392 21.5323L671.392 21.5325H661.454V25.6732H671.392V25.6734V29.814L671.392 33.9548L674.291 33.9548V25.6734L674.291 25.6731L684.229 25.6731V21.5325L674.291 21.5325ZM678.432 38.0956V38.0956H684.229V38.0958H688.37V38.0956V33.9548V29.814L696.237 29.814L696.237 29.8138L696.237 25.6731V25.6729H702.449V21.5321H696.237V17.3917V17.3913L692.097 17.3913V17.3917H688.37V17.3913V13.2509V9.11004V9.1098H684.229V9.11004L678.432 9.11004V9.10994V4.14112L712.387 4.14112V9.11004L702.449 9.11004V13.2509L716.527 13.2509V13.2506V9.11004V4.14112V0.000306806V1.43051e-05L712.387 1.43051e-05V0.000306806L678.432 0.000306806V0L674.291 0V9.10994L671.392 9.10994L671.392 4.14116V0.00033807L671.392 3.12639e-05L667.252 3.12639e-05V0.00033807L633.297 0.00033807V4.5569e-05L629.156 4.5569e-05L629.156 0.00033807L629.156 4.14116V9.11007V13.2507V13.2509L643.235 13.2509V9.11007L633.297 9.11007V4.14116L667.252 4.14116V9.11007L661.454 9.11007V9.10983H657.314V9.11007V13.2509V17.3917H653.587V17.3913H649.446L649.446 17.3917V21.5322L643.235 21.5322V25.673L649.446 25.673L649.446 29.8138V29.814H657.314V33.9548V38.0956V38.0959H661.455V38.0956H667.252V43.0647L633.297 43.0647V38.0956L643.235 38.0956V33.9548L629.156 33.9548V33.955V38.0956L629.156 43.0647L629.156 47.2055V47.2056H633.297V47.2055L667.252 47.2055V47.2057L671.392 47.2057L671.392 38.0956L674.291 38.0956V47.2056H678.432V47.2055L712.387 47.2055V47.2056H716.527V47.2055V43.0647V38.0956V33.955V33.9548H702.449V38.0956H712.387V43.0647L678.432 43.0647V38.0956ZM692.097 25.6731L692.096 25.6729L692.097 21.5325H688.37V25.6731H692.097ZM684.229 17.3913V17.3917H678.432V13.2509L684.229 13.2509V17.3913ZM684.229 33.9548H678.432V29.814H684.229V33.9548ZM653.587 25.6732L653.587 25.673L653.587 21.5325H657.314V25.6732H653.587ZM661.454 17.3917V17.3913H661.454V13.2509L667.252 13.2509V17.3917H661.454ZM667.252 33.9548V29.814H661.455V33.9548H667.252Z" fill="#4A8068"/>
<path fill-rule="evenodd" clip-rule="evenodd" d="M491.681 21.5325L491.681 21.5323L491.681 17.3917L491.681 13.2509V13.2507L494.58 13.2507V17.3918L494.58 21.5323L494.58 21.5326L504.518 21.5326V25.6732L494.58 25.6732L494.58 25.6735L494.58 29.8141V33.9548H491.681V25.6734L491.681 25.6731H481.743V21.5325H491.681ZM487.54 38.0956L481.743 38.0956V38.0958H477.602V38.0956V33.9548V29.814H469.735V29.8138H469.735V25.6729L463.523 25.6729V21.5321L469.735 21.5321V17.3917L469.735 17.3913H473.876V17.3917H477.602V13.2509V9.11004V9.1098H481.743V9.11004L487.54 9.11004V9.10991H487.54V4.14112L453.585 4.14112V9.11004L463.523 9.11004V13.2509L449.445 13.2509V13.2506V9.11004V4.14112L449.445 0.000306806L449.445 1.43051e-05L453.585 1.43051e-05V0.000306806L487.54 0.000306806V0L491.681 0L491.681 9.10991L494.58 9.10991L494.58 9.33016e-05L498.72 9.33016e-05V0.000400108L532.675 0.000400108V0.000107607L536.816 0.000107607V0.000400108V4.14122V9.11013V13.2507V13.2509L522.737 13.2509V9.11013L532.675 9.11013V4.14122L498.72 4.14122V9.11013L504.518 9.11013V9.10989H508.658V9.11013V13.2509V17.3918H512.385V17.3914L516.526 17.3914V17.3918H516.526V21.5322H522.737V25.673H516.526V25.6732H516.526V29.8141L508.658 29.8141V33.9549V38.0957V38.0959H504.518V38.0957H498.72V43.0648L532.675 43.0648V38.0957H522.737V33.9549H536.816V33.9551V38.0957V47.2057H532.675V47.2056L498.72 47.2056V47.2057H494.58V47.2056H494.58V43.0648H494.58V38.0956H491.681V47.2056L487.54 47.2056V47.2055L453.586 47.2055V47.2056H449.445V47.2055L449.445 43.0647L449.445 38.0956V33.955V33.9548L463.524 33.9548V38.0956L453.586 38.0956V43.0647L487.54 43.0647V38.0956L487.54 38.0956ZM473.876 25.6731L473.876 25.6729L473.876 21.5325H477.602V25.6731H473.876ZM481.743 17.3913L481.743 17.3917H487.54V13.2509L481.743 13.2509L481.743 17.3913ZM481.743 33.9548H487.54V29.814H481.743V33.9548ZM512.385 25.6732L512.385 25.673L512.385 21.5326H508.658V25.6732H512.385ZM504.518 17.3914L504.518 17.3918H498.72V13.2509L504.518 13.2509L504.518 17.3914ZM498.72 33.9549V29.8141H504.518V33.9549H498.72Z" fill="#F69722"/>
<path fill-rule="evenodd" clip-rule="evenodd" d="M581.537 21.5325L581.537 21.5323L581.537 17.3917V13.2507L584.435 13.2507V17.3918L584.435 21.5323L584.435 21.5326L594.373 21.5326V25.6732L584.435 25.6732L584.435 25.6735L584.435 29.8141L584.435 33.9548L581.537 33.9548L581.537 29.814L581.537 25.6734L581.537 25.6731H571.599V21.5325H581.537ZM577.396 38.0956L571.599 38.0956V38.0958H567.458V38.0956V33.9548V29.814H559.591V29.8138H559.59V25.6729L553.379 25.6729V21.5321L559.59 21.5321V17.3917L559.59 17.3913H563.731V17.3917H567.458V13.2509V9.11004V9.1098H571.599V9.11004L577.396 9.11004V9.10991H577.396V4.14112L543.441 4.14112V9.11004L553.379 9.11004V13.2509L539.3 13.2509V13.2506V9.11004V4.14112L539.3 0.000306806L539.3 1.43051e-05L543.441 1.43051e-05V0.000306806L577.396 0.000306806V0L581.537 0L581.537 9.10991L584.435 9.10991L584.435 9.33016e-05L588.576 9.33016e-05V0.000400108L622.531 0.000400108V0.000107607L626.672 0.000107607V0.000400108H626.672V4.14122L626.672 9.11013V13.2507V13.2509L612.593 13.2509V9.11013L622.531 9.11013V4.14122L588.576 4.14122V9.11013L594.373 9.11013V9.10989H598.514V9.11013V13.2509V17.3918H602.241V17.3914L606.382 17.3914L606.382 17.3918V21.5322H612.593V25.673H606.382V25.6732H606.382V29.8141L598.514 29.8141V33.9549V38.0957V38.0959H594.373V38.0957H588.576V43.0648L622.531 43.0648V38.0957H612.593V33.9549H626.672V33.9551V38.0957V43.0648V47.2056V47.2057H622.531V47.2056L588.576 47.2056V47.2057H584.435V47.2056H584.435V43.0648H584.435L584.435 38.0957V38.0956L581.537 38.0956L581.537 47.2056L577.396 47.2056V47.2055L543.441 47.2055V47.2056H539.301V47.2055L539.3 43.0647L539.301 38.0956V33.955V33.9548L553.379 33.9548V38.0956L543.441 38.0956V43.0647L577.396 43.0647V38.0956L577.396 38.0956ZM571.599 17.3917V17.3913H571.599V13.2509L577.396 13.2509V17.3917H571.599ZM567.458 21.5325H563.731V25.6731H567.458V21.5325ZM577.396 33.9548V29.814H571.599V33.9548H577.396ZM602.241 25.6732L602.241 25.673L602.241 21.5326H598.514V25.6732H602.241ZM594.373 17.3914L594.373 17.3918H588.576V13.2509L594.373 13.2509L594.373 17.3914ZM588.576 33.9549V29.8141H594.373V33.9549H588.576Z" fill="#E62C20"/>
<path fill-rule="evenodd" clip-rule="evenodd" d="M404.724 17.3917L404.724 13.2509V13.2508L401.825 13.2508V13.2509L401.825 17.3917L401.825 21.5323L401.825 21.5325H391.887V25.6732H401.825V29.814H401.825L401.825 33.9548L404.724 33.9548V29.814V25.6734V25.6731L414.662 25.6731V21.5325L404.724 21.5325L404.724 21.5323L404.724 17.3917ZM408.865 38.0956V43.0647L442.819 43.0647V38.0956H432.881V33.9548H446.96V33.955V38.0956V43.0647V47.2055V47.2056H442.819V47.2055L408.865 47.2055V47.2056H404.724V38.0956L401.825 38.0956L401.825 43.0647H401.825V47.2055H401.825V47.2057L397.684 47.2057V47.2055L363.73 47.2055V47.2056H359.589V38.0956V33.955V33.9548L373.668 33.9548V38.0956L363.73 38.0956V43.0647L397.684 43.0647V38.0956H391.887V38.0959H387.747V38.0956V33.9548V29.814H379.879V29.8138L379.879 25.673L373.668 25.673V21.5322L379.879 21.5322V17.3917L379.879 17.3913H384.02V17.3917H387.747V13.2509V9.11007V9.10983H391.887V9.11007L397.684 9.11007L397.684 9.10994L397.684 4.14116L363.73 4.14116V9.11007L373.668 9.11007V13.2509L359.589 13.2509V13.2507V9.11007V4.5569e-05L363.73 4.5569e-05V0.00033807L397.684 0.00033807V3.12639e-05L401.825 3.12639e-05L401.825 0.00033807V4.14116L401.825 9.10994L404.724 9.10994L404.724 0L408.865 0V0.000306806L442.819 0.000306806V1.43051e-05L446.96 1.43051e-05V0.000306806H446.96V4.14112H446.96V9.11004V13.2506V13.2509L432.881 13.2509V9.11004L442.819 9.11004V4.14112L408.865 4.14112V9.10994H408.865V9.11004L414.662 9.11004V9.1098H418.803V9.11004V13.2509L418.803 17.3913L418.803 17.3917H422.529V17.3913L426.67 17.3913V21.5321H432.881V25.6729H426.67V29.8138H426.67V29.814L418.803 29.814V33.9548V38.0956V38.0958H414.662V38.0956H408.865V38.0956H408.865ZM422.529 25.6729L422.529 21.5325H418.803V25.6731H422.529L422.529 25.6729ZM408.865 13.2509V17.3917H414.662V13.2509L408.865 13.2509ZM408.865 33.9548V29.814H414.662V33.9548H408.865ZM384.02 25.6732L384.02 25.673L384.02 21.5325H387.747V25.6732H384.02ZM391.887 17.3913L391.887 17.3917H397.684V13.2509L391.887 13.2509L391.887 17.3913ZM397.684 33.9548V29.814H391.887V33.9548H397.684Z" fill="#9C4A9A"/>
<path fill-rule="evenodd" clip-rule="evenodd" d="M1034.76 21.5325L1034.76 21.5323L1034.76 17.3917V13.2508L1031.87 13.2508V13.2509L1031.87 17.3917L1031.87 21.5323L1031.87 21.5325H1021.93V25.6732H1031.87L1031.87 25.6734L1031.87 29.814L1031.87 33.9548L1034.76 33.9548V29.814L1034.76 25.6734L1034.76 25.6731L1044.7 25.6731V21.5325L1034.76 21.5325ZM1038.9 38.0956V38.0956H1044.7V38.0958H1048.84V38.0956V33.9548V29.814L1056.71 29.814V29.8138V25.6731V25.6729H1062.92V21.5321H1056.71V17.3917V17.3913L1052.57 17.3913V17.3917H1048.84V17.3913V13.2509V9.11004V9.1098H1044.7V9.11004L1038.9 9.11004V9.10994V4.14112L1072.86 4.14112V9.11004L1062.92 9.11004V13.2509L1077 13.2509V13.2506V9.11004V4.14112V0.000306806V1.43051e-05L1072.86 1.43051e-05V0.000306806L1038.9 0.000306806V0L1034.76 0L1034.76 9.10994L1031.87 9.10994V4.14116V0.00033807V3.12639e-05L1027.72 3.12639e-05V0.00033807L993.77 0.00033807V4.5569e-05L989.629 4.5569e-05V9.11007V13.2507V13.2509L1003.71 13.2509V9.11007L993.77 9.11007V4.14116L1027.72 4.14116L1027.72 9.10994L1027.72 9.11007L1021.93 9.11007V9.10983H1017.79V9.11007V13.2509V17.3917H1014.06V17.3913H1009.92L1009.92 17.3917V21.5322L1003.71 21.5322V25.673L1009.92 25.673L1009.92 29.8138V29.814H1017.79V33.9548V38.0956V38.0959H1021.93V38.0956H1027.72V43.0647L993.77 43.0647V38.0956L1003.71 38.0956V33.9548L989.629 33.9548V33.955V38.0956V43.0647L989.629 47.2055L989.629 47.2056H993.77V47.2055L1027.72 47.2055V47.2057L1031.87 47.2057V38.0956L1034.76 38.0956L1034.76 47.2056H1038.9V47.2055L1072.86 47.2055V47.2056H1077V47.2055V43.0647V38.0956V33.955V33.9548H1062.92V38.0956H1072.86V43.0647L1038.9 43.0647V38.0956ZM1048.84 21.5325H1052.57V25.6731H1048.84V21.5325ZM1044.7 17.3913V17.3917H1038.9V13.2509L1044.7 13.2509V17.3913ZM1038.9 33.9548V29.814H1044.7V33.9548H1038.9ZM1021.93 17.3913L1021.93 17.3917H1027.72V13.2509L1021.93 13.2509L1021.93 17.3913ZM1017.79 21.5325H1014.06V25.6732H1017.79V21.5325ZM1027.72 33.9548V29.814H1021.93V33.9548H1027.72Z" fill="#4A8068"/>
<path fill-rule="evenodd" clip-rule="evenodd" d="M852.154 21.5325L852.154 21.5323L852.154 17.3917L852.154 13.2509V13.2507L855.052 13.2507L855.052 21.5323H855.052V21.5326L864.99 21.5326V25.6732L855.052 25.6732L855.052 25.6735L855.052 29.8141L855.052 33.9548L852.154 33.9548V29.814V25.6731H842.216V21.5325H852.154ZM852.154 38.0956L855.052 38.0956V38.0957V43.0648H855.052V47.2056H855.052V47.2057H859.193V47.2056L893.148 47.2056V47.2057H897.289V38.0957V33.9551V33.9549H883.21V38.0957H893.148V43.0648L859.193 43.0648V38.0957H864.99V38.0959H869.131V38.0957V33.9549V29.8141L876.999 29.8141V25.6732H876.999V25.673H883.21V21.5322H876.999V17.3918V17.3914L872.858 17.3914V17.3918H869.131V17.3914V13.2509V9.11013V9.10989H864.99V9.11013L859.193 9.11013V9.10991H859.193V4.14122L893.148 4.14122V9.11013L883.21 9.11013V13.2509L897.289 13.2509V13.2507V9.11013V0.000107607L893.148 0.000107607V0.000400108L859.193 0.000400108V9.33016e-05L855.052 9.33016e-05L855.052 0.000400108V4.14122L855.052 9.10991L852.154 9.10991L852.154 4.14112V0.000306806L852.154 0L848.013 0V0.000306806L814.058 0.000306806V1.43051e-05L809.917 1.43051e-05V9.11004V13.2506V13.2509L823.996 13.2509V9.11004L814.058 9.11004V4.14112L848.013 4.14112V9.10991H848.013V9.11004L842.216 9.11004V9.1098H838.075V9.11004V13.2509L838.075 17.3913V17.3917H834.348V17.3913H830.207V21.5321L823.996 21.5321V25.6729L830.207 25.6729L830.207 29.8138V29.814H838.075V33.9548V38.0956V38.0958H842.216V38.0956H848.013V43.0647L814.058 43.0647V38.0956L823.996 38.0956V33.9548L809.917 33.9548V33.955V38.0956L809.917 43.0647L809.917 47.2055V47.2056H814.058V47.2055L848.013 47.2055V47.2056L852.154 47.2056L852.154 38.0956ZM859.193 33.9549V33.9548V29.8141H864.99V33.9549H859.193ZM838.075 21.5325H834.348V25.6731H838.075V21.5325ZM848.013 13.2509V17.3917H842.216V13.2509L848.013 13.2509ZM842.216 33.9548H848.013V29.814H842.216V33.9548ZM872.858 25.6732L872.858 25.673L872.858 21.5326H869.131V25.6732H872.858ZM864.99 17.3914V17.3918H859.193V13.2509L864.99 13.2509V17.3914Z" fill="#F69722"/>
<path fill-rule="evenodd" clip-rule="evenodd" d="M942.009 21.5325V17.3917V13.2509V13.2507L944.908 13.2507V13.2509V21.5323L944.908 21.5326L954.846 21.5326V25.6732L944.908 25.6732V25.6735V29.8141V33.9548L942.009 33.9548V29.814L942.01 25.6734L942.009 25.6731H932.071V21.5325H942.009ZM937.869 38.0956L932.072 38.0956V38.0958H927.931V38.0956V33.9548V29.814H920.063V29.8138L920.063 25.6729L913.852 25.6729V21.5321L920.063 21.5321V17.3917L920.063 17.3913H924.204V17.3917H927.931V13.2509V9.11004V9.1098H932.071V9.11004L937.869 9.11004L937.869 9.10991L937.869 4.14112L903.914 4.14112V9.11004L913.852 9.11004V13.2509L899.773 13.2509V13.2506V9.11004V4.14112L899.773 0.000306806L899.773 1.43051e-05L903.914 1.43051e-05V0.000306806L937.869 0.000306806V0L942.009 0V0.000306806V4.14112L942.009 9.10991L944.908 9.10991L944.908 4.14122V0.000400108L944.908 9.33016e-05L949.049 9.33016e-05V0.000400108L983.003 0.000400108V0.000107607L987.144 0.000107607V9.11013V13.2507V13.2509L973.065 13.2509V9.11013L983.003 9.11013V4.14122L949.049 4.14122L949.049 9.10991L949.049 9.11013L954.846 9.11013V9.10989H958.987V9.11013V13.2509V17.3914V17.3918H962.713V17.3914L966.854 17.3914V17.3918V21.5322H973.065V25.673H966.854V25.6732H966.854V29.8141L958.987 29.8141V33.9549V38.0957V38.0959H954.846V38.0957H949.049V43.0648L983.003 43.0648V38.0957H973.066V33.9549H987.144V33.9551V38.0957V47.2057H983.003V47.2056L949.049 47.2056V47.2057H944.908L944.908 47.2056V43.0648L944.908 38.0957V38.0956L942.009 38.0956L942.01 47.2056L937.869 47.2056V47.2055L903.914 47.2055V47.2056H899.773V47.2055H899.773V43.0647H899.773V38.0956V33.955V33.9548L913.852 33.9548V38.0956L903.914 38.0956V43.0647L937.869 43.0647V38.0956L937.869 38.0956ZM949.049 33.9549V33.9548V29.8141H954.846V33.9549H949.049ZM932.071 17.3917V17.3913H932.071V13.2509L937.869 13.2509V17.3917H932.071ZM927.931 21.5325H924.204V25.6731H927.931V21.5325ZM937.869 33.9548V29.814H932.072V33.9548H937.869ZM962.713 25.6732L962.713 25.673L962.713 21.5326H958.987V25.6732H962.713ZM954.846 17.3914V17.3918H949.049V13.2509L954.846 13.2509V17.3914Z" fill="#E62C20"/>
<path fill-rule="evenodd" clip-rule="evenodd" d="M765.196 21.5323H765.196V13.2508L762.298 13.2508V13.2509L762.298 17.3917H762.298V21.5325H752.36V25.6732H762.298V29.814L762.298 33.9548L765.196 33.9548V33.9548L765.196 25.6734L765.196 25.6731L775.134 25.6731V21.5325L765.196 21.5325V21.5323ZM769.337 38.0956V43.0647L803.292 43.0647V38.0956H793.354V33.9548H807.433V33.955V38.0956V43.0647H807.433V47.2055H807.433V47.2056H803.292V47.2055L769.337 47.2055V47.2056H765.196L765.196 38.0956L762.298 38.0956L762.298 43.0647H762.298V47.2055H762.298V47.2057L758.157 47.2057V47.2055L724.202 47.2055V47.2056H720.062V38.0956V33.955V33.9548L734.14 33.9548V38.0956L724.202 38.0956V43.0647L758.157 43.0647V38.0956H752.36V38.0959H748.219V38.0956V33.9548V29.814H740.352V25.6732L740.352 25.673L734.14 25.673V21.5322L740.352 21.5322V17.3917L740.352 17.3913H744.492V17.3917H748.219V13.2509V9.11007V9.10983H752.36V9.11007L758.157 9.11007V4.14116L724.202 4.14116V9.11007L734.14 9.11007V13.2509L720.062 13.2509V13.2507V9.11007V4.5569e-05L724.202 4.5569e-05V0.00033807L758.157 0.00033807V3.12639e-05L762.298 3.12639e-05V0.00033807H762.298V4.14116H762.298L762.298 9.10994L765.196 9.10994V0L769.337 0V0.000306806L803.292 0.000306806V1.43051e-05L807.433 1.43051e-05V0.000306806H807.433V4.14112H807.433V9.11004V13.2506V13.2509L793.354 13.2509V9.11004L803.292 9.11004V4.14112L769.337 4.14112V9.10994H769.337V9.11004L775.134 9.11004V9.1098H779.275V9.11004V13.2509L779.275 17.3913L779.275 17.3917H783.002V17.3913L787.143 17.3913V21.5321H793.354V25.6729H787.143V29.8138H787.143V29.814L779.275 29.814V33.9548V38.0956V38.0958H775.134V38.0956H769.337V38.0956H769.337ZM783.002 25.6729L783.002 21.5325H779.275V25.6731H783.002L783.002 25.6729ZM769.337 13.2509V17.3917H775.134V13.2509L769.337 13.2509ZM775.134 33.9548H769.337V29.814H775.134V33.9548ZM752.36 17.3913L752.36 17.3917H758.157V13.2509L752.36 13.2509L752.36 17.3913ZM748.219 21.5325H744.492V25.6732H748.219V21.5325ZM752.36 33.9548H758.157V29.814H752.36V33.9548Z" fill="#9C4A9A"/>
<path fill-rule="evenodd" clip-rule="evenodd" d="M1396.7 21.5325L1396.7 21.5323L1396.7 17.3917V13.2508L1393.8 13.2508V13.2509L1393.8 17.3917L1393.8 21.5323L1393.8 21.5325H1383.87V25.6732H1393.8L1393.8 25.6734L1393.8 29.814L1393.8 33.9548L1396.7 33.9548V29.814L1396.7 25.6734L1396.7 25.6731L1406.64 25.6731V21.5325L1396.7 21.5325ZM1400.84 38.0956V38.0956H1406.64V38.0958H1410.78V38.0956V33.9548V29.814L1418.65 29.814V29.8138V25.6731V25.6729H1424.86V21.5321H1418.65V17.3917V17.3913L1414.51 17.3913V17.3917H1410.78V17.3913V13.2509V9.11004V9.1098H1406.64V9.11004L1400.84 9.11004V9.10994V4.14112L1434.8 4.14112V9.11004L1424.86 9.11004V13.2509L1438.94 13.2509V13.2506V9.11004V4.14112V0.000306806V1.43051e-05L1434.8 1.43051e-05V0.000306806L1400.84 0.000306806V0L1396.7 0L1396.7 9.10994L1393.8 9.10994V4.14116V0.00033807V3.12639e-05L1389.66 3.12639e-05V0.00033807L1355.71 0.00033807V4.5569e-05L1351.57 4.5569e-05V9.11007V13.2507V13.2509L1365.65 13.2509V9.11007L1355.71 9.11007V4.14116L1389.66 4.14116L1389.66 9.10994L1389.66 9.11007L1383.87 9.11007V9.10983H1379.72V9.11007V13.2509V17.3917H1376V17.3913H1371.86L1371.86 17.3917V21.5322L1365.65 21.5322V25.673L1371.86 25.673L1371.86 29.8138V29.814H1379.72V33.9548V38.0956V38.0959H1383.87V38.0956H1389.66V43.0647L1355.71 43.0647V38.0956L1365.65 38.0956V33.9548L1351.57 33.9548V33.955V38.0956V43.0647L1351.57 47.2055L1351.57 47.2056H1355.71V47.2055L1389.66 47.2055V47.2057L1393.8 47.2057V38.0956L1396.7 38.0956L1396.7 47.2056H1400.84V47.2055L1434.8 47.2055V47.2056H1438.94V47.2055V43.0647V38.0956V33.955V33.9548H1424.86V38.0956H1434.8V43.0647L1400.84 43.0647V38.0956ZM1410.78 21.5325H1414.51V25.6731H1410.78V21.5325ZM1406.64 17.3913V17.3917H1400.84V13.2509L1406.64 13.2509V17.3913ZM1400.84 33.9548V29.814H1406.64V33.9548H1400.84ZM1383.87 17.3913L1383.87 17.3917H1389.66V13.2509L1383.87 13.2509L1383.87 17.3913ZM1379.72 21.5325H1376V25.6732H1379.72V21.5325ZM1389.66 33.9548V29.814H1383.87V33.9548H1389.66Z" fill="#4A8068"/>
<path fill-rule="evenodd" clip-rule="evenodd" d="M1214.09 21.5325L1214.09 21.5323L1214.09 17.3917L1214.09 13.2509V13.2507L1216.99 13.2507L1216.99 21.5323H1216.99V21.5326L1226.93 21.5326V25.6732L1216.99 25.6732L1216.99 25.6735L1216.99 29.8141L1216.99 33.9548L1214.09 33.9548V29.814V25.6731H1204.15V21.5325H1214.09ZM1214.09 38.0956L1216.99 38.0956V38.0957V43.0648H1216.99V47.2056H1216.99V47.2057H1221.13V47.2056L1255.09 47.2056V47.2057H1259.23V38.0957V33.9551V33.9549H1245.15V38.0957H1255.09V43.0648L1221.13 43.0648V38.0957H1226.93V38.0959H1231.07V38.0957V33.9549V29.8141L1238.94 29.8141V25.6732H1238.94V25.673H1245.15V21.5322H1238.94V17.3918V17.3914L1234.8 17.3914V17.3918H1231.07V17.3914V13.2509V9.11013V9.10989H1226.93V9.11013L1221.13 9.11013V9.10991H1221.13V4.14122L1255.09 4.14122V9.11013L1245.15 9.11013V13.2509L1259.23 13.2509V13.2507V9.11013V0.000107607L1255.09 0.000107607V0.000400108L1221.13 0.000400108V9.33016e-05L1216.99 9.33016e-05L1216.99 0.000400108V4.14122L1216.99 9.10991L1214.09 9.10991L1214.09 4.14112V0.000306806L1214.09 0L1209.95 0V0.000306806L1176 0.000306806V1.43051e-05L1171.86 1.43051e-05V9.11004V13.2506V13.2509L1185.93 13.2509V9.11004L1176 9.11004V4.14112L1209.95 4.14112V9.10991H1209.95V9.11004L1204.15 9.11004V9.1098H1200.01V9.11004V13.2509L1200.01 17.3913V17.3917H1196.29V17.3913H1192.15V21.5321L1185.93 21.5321V25.6729L1192.15 25.6729L1192.15 29.8138V29.814H1200.01V33.9548V38.0956V38.0958H1204.15V38.0956H1209.95V43.0647L1176 43.0647V38.0956L1185.93 38.0956V33.9548L1171.86 33.9548V33.955V38.0956L1171.86 43.0647L1171.86 47.2055V47.2056H1176V47.2055L1209.95 47.2055V47.2056L1214.09 47.2056L1214.09 38.0956ZM1221.13 33.9549V33.9548V29.8141H1226.93V33.9549H1221.13ZM1200.01 21.5325H1196.29V25.6731H1200.01V21.5325ZM1209.95 13.2509V17.3917H1204.15V13.2509L1209.95 13.2509ZM1204.15 33.9548H1209.95V29.814H1204.15V33.9548ZM1234.8 25.6732L1234.8 25.673L1234.8 21.5326H1231.07V25.6732H1234.8ZM1226.93 17.3914V17.3918H1221.13V13.2509L1226.93 13.2509V17.3914Z" fill="#F69722"/>
<path fill-rule="evenodd" clip-rule="evenodd" d="M1303.95 21.5325V17.3917V13.2509V13.2507L1306.85 13.2507V13.2509V21.5323L1306.85 21.5326L1316.78 21.5326V25.6732L1306.85 25.6732V25.6735V29.8141V33.9548L1303.95 33.9548V29.814L1303.95 25.6734L1303.95 25.6731H1294.01V21.5325H1303.95ZM1299.81 38.0956L1294.01 38.0956V38.0958H1289.87V38.0956V33.9548V29.814H1282V29.8138L1282 25.6729L1275.79 25.6729V21.5321L1282 21.5321V17.3917L1282 17.3913H1286.14V17.3917H1289.87V13.2509V9.11004V9.1098H1294.01V9.11004L1299.81 9.11004L1299.81 9.10991L1299.81 4.14112L1265.85 4.14112V9.11004L1275.79 9.11004V13.2509L1261.71 13.2509V13.2506V9.11004V4.14112L1261.71 0.000306806L1261.71 1.43051e-05L1265.85 1.43051e-05V0.000306806L1299.81 0.000306806V0L1303.95 0V0.000306806V4.14112L1303.95 9.10991L1306.85 9.10991L1306.85 4.14122V0.000400108L1306.85 9.33016e-05L1310.99 9.33016e-05V0.000400108L1344.94 0.000400108V0.000107607L1349.08 0.000107607V9.11013V13.2507V13.2509L1335 13.2509V9.11013L1344.94 9.11013V4.14122L1310.99 4.14122L1310.99 9.10991L1310.99 9.11013L1316.78 9.11013V9.10989H1320.93V9.11013V13.2509V17.3914V17.3918H1324.65V17.3914L1328.79 17.3914V17.3918V21.5322H1335V25.673H1328.79V25.6732H1328.79V29.8141L1320.93 29.8141V33.9549V38.0957V38.0959H1316.78V38.0957H1310.99V43.0648L1344.94 43.0648V38.0957H1335V33.9549H1349.08V33.9551V38.0957V47.2057H1344.94V47.2056L1310.99 47.2056V47.2057H1306.85L1306.85 47.2056V43.0648L1306.85 38.0957V38.0956L1303.95 38.0956L1303.95 47.2056L1299.81 47.2056V47.2055L1265.85 47.2055V47.2056H1261.71V47.2055H1261.71V43.0647H1261.71V38.0956V33.955V33.9548L1275.79 33.9548V38.0956L1265.85 38.0956V43.0647L1299.81 43.0647V38.0956L1299.81 38.0956ZM1310.99 33.9549V33.9548V29.8141H1316.78V33.9549H1310.99ZM1294.01 17.3917V17.3913H1294.01V13.2509L1299.81 13.2509V17.3917H1294.01ZM1289.87 21.5325H1286.14V25.6731H1289.87V21.5325ZM1299.81 33.9548V29.814H1294.01V33.9548H1299.81ZM1324.65 25.6732L1324.65 25.673L1324.65 21.5326H1320.93V25.6732H1324.65ZM1316.78 17.3914V17.3918H1310.99V13.2509L1316.78 13.2509V17.3914Z" fill="#E62C20"/>
<path fill-rule="evenodd" clip-rule="evenodd" d="M1127.13 21.5323H1127.13V13.2508L1124.24 13.2508V13.2509L1124.24 17.3917H1124.24V21.5325H1114.3V25.6732H1124.24V29.814L1124.24 33.9548L1127.13 33.9548V33.9548L1127.13 25.6734L1127.13 25.6731L1137.07 25.6731V21.5325L1127.13 21.5325V21.5323ZM1131.28 38.0956V43.0647L1165.23 43.0647V38.0956H1155.29V33.9548H1169.37V33.955V38.0956V43.0647H1169.37V47.2055H1169.37V47.2056H1165.23V47.2055L1131.28 47.2055V47.2056H1127.13L1127.13 38.0956L1124.24 38.0956L1124.24 43.0647H1124.24V47.2055H1124.24V47.2057L1120.1 47.2057V47.2055L1086.14 47.2055V47.2056H1082V38.0956V33.955V33.9548L1096.08 33.9548V38.0956L1086.14 38.0956V43.0647L1120.1 43.0647V38.0956H1114.3V38.0959H1110.16V38.0956V33.9548V29.814H1102.29V25.6732L1102.29 25.673L1096.08 25.673V21.5322L1102.29 21.5322V17.3917L1102.29 17.3913H1106.43V17.3917H1110.16V13.2509V9.11007V9.10983H1114.3V9.11007L1120.1 9.11007V4.14116L1086.14 4.14116V9.11007L1096.08 9.11007V13.2509L1082 13.2509V13.2507V9.11007V4.5569e-05L1086.14 4.5569e-05V0.00033807L1120.1 0.00033807V3.12639e-05L1124.24 3.12639e-05V0.00033807H1124.24V4.14116H1124.24L1124.24 9.10994L1127.13 9.10994V0L1131.28 0V0.000306806L1165.23 0.000306806V1.43051e-05L1169.37 1.43051e-05V0.000306806H1169.37V4.14112H1169.37V9.11004V13.2506V13.2509L1155.29 13.2509V9.11004L1165.23 9.11004V4.14112L1131.28 4.14112V9.10994H1131.28V9.11004L1137.07 9.11004V9.1098H1141.21V9.11004V13.2509L1141.21 17.3913L1141.21 17.3917H1144.94V17.3913L1149.08 17.3913V21.5321H1155.29V25.6729H1149.08V29.8138H1149.08V29.814L1141.21 29.814V33.9548V38.0956V38.0958H1137.07V38.0956H1131.28V38.0956H1131.28ZM1144.94 25.6729L1144.94 21.5325H1141.21V25.6731H1144.94L1144.94 25.6729ZM1131.28 13.2509V17.3917H1137.07V13.2509L1131.28 13.2509ZM1137.07 33.9548H1131.28V29.814H1137.07V33.9548ZM1114.3 17.3913L1114.3 17.3917H1120.1V13.2509L1114.3 13.2509L1114.3 17.3913ZM1110.16 21.5325H1106.43V25.6732H1110.16V21.5325ZM1114.3 33.9548H1120.1V29.814H1114.3V33.9548Z" fill="#9C4A9A"/>
</svg>
