<svg width="334" height="455" viewBox="0 0 334 455" fill="none" xmlns="http://www.w3.org/2000/svg">
<path d="M23 428.5H165H307M23 23H307" stroke="#EEEEEE" stroke-width="2"/>
<path d="M11.2047 36.7528L12.1934 38.485L18.9273 34.6416L17.9387 32.9094L19.163 32.2106L18.1744 30.4784L20.0109 29.4302L19.0222 27.698L20.8588 26.6498L20.1997 25.495L13.4657 29.3384L14.4544 31.0706L13.23 31.7694L13.8891 32.9242L12.0526 33.9724L13.0412 35.7046L11.2047 36.7528Z" fill="#4A8068"/>
<path d="M4.94325 25.7819L3.95459 24.0497L10.6886 20.2063L11.6772 21.9385L12.9016 21.2397L13.8902 22.9719L15.7268 21.9237L16.7154 23.6559L18.552 22.6077L19.2111 23.7625L12.4771 27.6059L11.4884 25.8737L10.2641 26.5725L9.60498 25.4177L7.76845 26.4659L6.77979 24.7337L4.94325 25.7819Z" fill="#4A8068"/>
<path d="M18.5048 21.1037L20.3413 20.0555L16.7162 13.7041L14.8797 14.7523L14.2206 13.5975L12.384 14.6457L11.3954 12.9135L9.55885 13.9617L8.57019 12.2295L7.34583 12.9283L10.9709 19.2797L12.8075 18.2315L13.4666 19.3863L14.6909 18.6875L15.6796 20.4197L17.5161 19.3715L18.5048 21.1037Z" fill="#4A8068"/>
<path d="M20.8139 5.24126L22.6504 4.19305L26.2755 10.5445L24.4389 11.5927L25.098 12.7475L23.2615 13.7957L24.2502 15.5279L22.4136 16.5761L23.4023 18.3083L22.1779 19.0071L18.5528 12.6557L20.3894 11.6075L19.7303 10.4527L20.9546 9.75388L19.966 8.02167L21.8025 6.97347L20.8139 5.24126Z" fill="#4A8068"/>
<path d="M34.9393 8.66143L33.9507 6.92923L27.2167 10.7727L28.2054 12.5049L26.981 13.2037L27.9697 14.9359L26.1331 15.9841L27.1218 17.7163L25.2853 18.7645L25.9444 19.9193L32.6783 16.0759L31.6897 14.3437L32.914 13.6449L32.2549 12.4901L34.0915 11.4418L33.1028 9.70964L34.9393 8.66143Z" fill="#4A8068"/>
<path d="M41.2013 19.632L42.1899 21.3642L35.456 25.2076L34.4673 23.4754L33.243 24.1742L32.2543 22.442L30.4178 23.4902L29.4291 21.758L27.5926 22.8062L26.9335 21.6514L33.6674 17.808L34.6561 19.5402L35.8804 18.8414L36.5395 19.9962L38.3761 18.948L39.3647 20.6802L41.2013 19.632Z" fill="#4A8068"/>
<path d="M25.3307 40.1726L23.4941 41.2209L19.8691 34.8694L21.7056 33.8212L21.0465 32.6664L22.883 31.6182L21.8944 29.886L23.7309 28.8378L22.7422 27.1056L23.9666 26.4068L27.5917 32.7582L25.7551 33.8064L26.4143 34.9612L25.1899 35.66L26.1786 37.3922L24.342 38.4404L25.3307 40.1726Z" fill="#4A8068"/>
<path d="M27.6393 24.3102L25.8027 25.3584L29.4278 31.7098L31.2644 30.6616L31.9235 31.8164L33.76 30.7682L34.7487 32.5004L36.5852 31.4522L37.5739 33.1844L38.7982 32.4856L35.1731 26.1342L33.3366 27.1824L32.6775 26.0276L31.4531 26.7264L30.4645 24.9942L28.6279 26.0424L27.6393 24.3102Z" fill="#4A8068"/>
<rect x="22.6479" y="24.0969" width="1.99449" height="2.11462" transform="rotate(-119.716 22.6479 24.0969)" fill="#DF3727"/>
<path d="M293.421 444.896L294.605 446.872L302.285 442.269L301.101 440.293L302.497 439.456L301.313 437.48L303.408 436.225L302.224 434.249L304.318 432.994L303.529 431.677L295.849 436.28L297.033 438.256L295.636 439.093L296.426 440.41L294.331 441.665L295.515 443.641L293.421 444.896Z" fill="#9C4A9A"/>
<path d="M285.921 432.384L284.737 430.408L292.417 425.805L293.601 427.781L294.998 426.944L296.182 428.919L298.276 427.664L299.46 429.639L301.555 428.384L302.344 429.701L294.664 434.304L293.48 432.329L292.084 433.166L291.294 431.849L289.2 433.104L288.016 431.128L285.921 432.384Z" fill="#9C4A9A"/>
<path d="M301.464 426.649L303.558 425.393L299.216 418.149L297.122 419.405L296.332 418.088L294.238 419.343L293.054 417.368L290.959 418.623L289.775 416.647L288.378 417.484L292.72 424.728L294.815 423.473L295.604 424.79L297.001 423.953L298.185 425.929L300.279 424.673L301.464 426.649Z" fill="#9C4A9A"/>
<path d="M303.739 408.277L305.833 407.022L310.175 414.266L308.081 415.521L308.87 416.838L306.776 418.094L307.96 420.069L305.865 421.325L307.049 423.301L305.653 424.138L301.311 416.894L303.406 415.638L302.616 414.321L304.013 413.484L302.828 411.508L304.923 410.253L303.739 408.277Z" fill="#9C4A9A"/>
<path d="M320.132 411.878L318.948 409.902L311.268 414.506L312.452 416.481L311.056 417.318L312.24 419.294L310.145 420.549L311.329 422.525L309.235 423.781L310.024 425.098L317.704 420.494L316.52 418.519L317.917 417.682L317.127 416.365L319.222 415.109L318.038 413.134L320.132 411.878Z" fill="#9C4A9A"/>
<path d="M327.633 424.39L328.817 426.366L321.137 430.969L319.953 428.994L318.556 429.831L317.372 427.855L315.277 429.111L314.093 427.135L311.999 428.39L311.209 427.073L318.889 422.47L320.074 424.446L321.47 423.609L322.259 424.926L324.354 423.67L325.538 425.646L327.633 424.39Z" fill="#9C4A9A"/>
<path d="M309.662 448.734L307.567 449.989L303.226 442.745L305.32 441.49L304.531 440.173L306.625 438.917L305.441 436.942L307.536 435.686L306.352 433.711L307.748 432.874L312.09 440.118L309.995 441.373L310.785 442.69L309.388 443.527L310.572 445.503L308.478 446.758L309.662 448.734Z" fill="#9C4A9A"/>
<path d="M312.089 430.126L309.995 431.381L314.336 438.625L316.431 437.369L317.22 438.687L319.315 437.431L320.499 439.407L322.594 438.151L323.778 440.127L325.174 439.29L320.833 432.046L318.738 433.301L317.949 431.984L316.552 432.821L315.368 430.846L313.273 432.101L312.089 430.126Z" fill="#9C4A9A"/>
<rect x="306.321" y="430.002" width="2.30331" height="2.44204" transform="rotate(-120.938 306.321 430.002)" fill="#DF3727"/>
<path d="M45.684 89.288L42.66 99.404L41.472 94.868C42.888 94.868 44.028 95.264 44.892 96.056C45.78 96.848 46.224 97.952 46.224 99.368C46.224 100.76 45.768 101.876 44.856 102.716C43.968 103.556 42.84 103.976 41.472 103.976C40.104 103.976 38.964 103.556 38.052 102.716C37.164 101.876 36.72 100.76 36.72 99.368C36.72 98.984 36.744 98.6 36.792 98.216C36.864 97.832 36.996 97.364 37.188 96.812C37.404 96.26 37.716 95.54 38.124 94.652L40.644 89.288H45.684ZM56.124 89.288L53.1 99.404L51.912 94.868C53.328 94.868 54.468 95.264 55.332 96.056C56.22 96.848 56.664 97.952 56.664 99.368C56.664 100.76 56.208 101.876 55.296 102.716C54.408 103.556 53.28 103.976 51.912 103.976C50.544 103.976 49.404 103.556 48.492 102.716C47.604 101.876 47.16 100.76 47.16 99.368C47.16 98.984 47.184 98.6 47.232 98.216C47.304 97.832 47.436 97.364 47.628 96.812C47.844 96.26 48.156 95.54 48.564 94.652L51.084 89.288H56.124ZM72.459 116.576C70.443 116.576 68.571 116.264 66.843 115.64C65.139 114.992 63.651 114.08 62.379 112.904C61.131 111.728 60.159 110.336 59.463 108.728C58.767 107.12 58.419 105.344 58.419 103.4C58.419 101.456 58.767 99.68 59.463 98.072C60.159 96.464 61.131 95.072 62.379 93.896C63.651 92.72 65.139 91.82 66.843 91.196C68.571 90.548 70.443 90.224 72.459 90.224C74.931 90.224 77.115 90.656 79.011 91.52C80.931 92.384 82.515 93.632 83.763 95.264L78.399 100.052C77.655 99.116 76.827 98.396 75.915 97.892C75.027 97.364 74.019 97.1 72.891 97.1C72.003 97.1 71.199 97.244 70.479 97.532C69.759 97.82 69.135 98.24 68.607 98.792C68.103 99.344 67.707 100.016 67.419 100.808C67.131 101.576 66.987 102.44 66.987 103.4C66.987 104.36 67.131 105.236 67.419 106.028C67.707 106.796 68.103 107.456 68.607 108.008C69.135 108.56 69.759 108.98 70.479 109.268C71.199 109.556 72.003 109.7 72.891 109.7C74.019 109.7 75.027 109.448 75.915 108.944C76.827 108.416 77.655 107.684 78.399 106.748L83.763 111.536C82.515 113.144 80.931 114.392 79.011 115.28C77.115 116.144 74.931 116.576 72.459 116.576ZM86.2161 116V90.8H94.7121V116H86.2161ZM98.802 116V90.8H110.934C113.286 90.8 115.314 91.184 117.018 91.952C118.746 92.72 120.078 93.824 121.014 95.264C121.95 96.68 122.418 98.36 122.418 100.304C122.418 102.248 121.95 103.928 121.014 105.344C120.078 106.76 118.746 107.864 117.018 108.656C115.314 109.424 113.286 109.808 110.934 109.808H103.518L107.298 106.172V116H98.802ZM107.298 107.108L103.518 103.256H110.394C111.57 103.256 112.434 102.992 112.986 102.464C113.562 101.936 113.85 101.216 113.85 100.304C113.85 99.392 113.562 98.672 112.986 98.144C112.434 97.616 111.57 97.352 110.394 97.352H103.518L107.298 93.5V107.108ZM130.114 116V97.388H122.734V90.8H145.99V97.388H138.61V116H130.114ZM144.195 116L155.211 90.8H163.563L174.579 116H165.795L157.659 94.832H160.971L152.835 116H144.195ZM150.747 111.608L152.907 105.488H164.499L166.659 111.608H150.747ZM38.052 156V130.8H45.036L55.116 147.252H51.444L61.236 130.8H68.22L68.292 156H60.552L60.48 142.464H61.704L55.008 153.732H51.264L44.28 142.464H45.792V156H38.052ZM69.6637 156L80.6797 130.8H89.0317L100.048 156H91.2637L83.1277 134.832H86.4397L78.3037 156H69.6637ZM76.2157 151.608L78.3757 145.488H89.9677L92.1277 151.608H76.2157ZM101.404 156V130.8H108.388L121.204 146.136H117.964V130.8H126.244V156H119.26L106.444 140.664H109.684V156H101.404ZM143.405 156.576C141.365 156.576 139.481 156.264 137.753 155.64C136.049 154.992 134.561 154.08 133.289 152.904C132.041 151.728 131.069 150.336 130.373 148.728C129.677 147.12 129.329 145.344 129.329 143.4C129.329 141.456 129.677 139.68 130.373 138.072C131.069 136.464 132.053 135.072 133.325 133.896C134.597 132.72 136.097 131.82 137.825 131.196C139.577 130.548 141.497 130.224 143.585 130.224C146.081 130.224 148.301 130.644 150.245 131.484C152.213 132.324 153.833 133.524 155.105 135.084L149.669 139.872C148.877 138.96 148.013 138.276 147.077 137.82C146.165 137.34 145.145 137.1 144.017 137.1C143.081 137.1 142.229 137.244 141.461 137.532C140.717 137.82 140.081 138.24 139.553 138.792C139.025 139.344 138.617 140.004 138.329 140.772C138.041 141.54 137.897 142.416 137.897 143.4C137.897 144.336 138.041 145.2 138.329 145.992C138.617 146.76 139.025 147.42 139.553 147.972C140.081 148.524 140.705 148.956 141.425 149.268C142.169 149.556 142.997 149.7 143.909 149.7C144.869 149.7 145.805 149.544 146.717 149.232C147.629 148.896 148.601 148.332 149.633 147.54L154.385 153.372C152.849 154.404 151.097 155.196 149.129 155.748C147.161 156.3 145.253 156.576 143.405 156.576ZM147.005 152.292V142.716H154.385V153.372L147.005 152.292ZM170.065 156.576C166.201 156.576 163.189 155.532 161.029 153.444C158.869 151.356 157.789 148.428 157.789 144.66V130.8H166.285V144.408C166.285 146.328 166.633 147.696 167.329 148.512C168.025 149.304 168.961 149.7 170.137 149.7C171.337 149.7 172.273 149.304 172.945 148.512C173.641 147.696 173.989 146.328 173.989 144.408V130.8H182.341V144.66C182.341 148.428 181.261 151.356 179.101 153.444C176.941 155.532 173.929 156.576 170.065 156.576ZM186.236 156V130.8H193.22L206.036 146.136H202.796V130.8H211.076V156H204.092L191.276 140.664H194.516V156H186.236ZM45.648 190.6L45.18 181.276L54.684 170.8H63.936L53.28 182.536L48.564 187.36L45.648 190.6ZM38.052 196V170.8H46.404V196H38.052ZM54.612 196L47.196 186.208L52.704 180.376L64.44 196H54.612ZM61.5777 196L72.5937 170.8H80.9457L91.9617 196H83.1777L75.0417 174.832H78.3537L70.2177 196H61.5777ZM68.1297 191.608L70.2897 185.488H81.8817L84.0417 191.608H68.1297ZM93.3176 196V170.8H105.45C107.802 170.8 109.83 171.184 111.534 171.952C113.262 172.72 114.594 173.824 115.53 175.264C116.466 176.68 116.934 178.36 116.934 180.304C116.934 182.248 116.466 183.928 115.53 185.344C114.594 186.736 113.262 187.804 111.534 188.548C109.83 189.292 107.802 189.664 105.45 189.664H98.0336L101.814 186.172V196H93.3176ZM108.402 196L102.21 186.82H111.21L117.474 196H108.402ZM101.814 187.108L98.0336 183.256H104.91C106.086 183.256 106.95 182.992 107.502 182.464C108.078 181.936 108.366 181.216 108.366 180.304C108.366 179.392 108.078 178.672 107.502 178.144C106.95 177.616 106.086 177.352 104.91 177.352H98.0336L101.814 173.5V187.108ZM126.27 196V184.948L128.214 190.024L116.766 170.8H125.73L133.47 183.94H128.25L136.062 170.8H144.27L132.894 190.024L134.766 184.948V196H126.27ZM140.996 196L152.012 170.8H160.364L171.38 196H162.596L154.46 174.832H157.772L149.636 196H140.996ZM147.548 191.608L149.708 185.488H161.3L163.46 191.608H147.548ZM38.052 236V210.8H46.548V229.412H57.924V236H38.052ZM57.8863 236L68.9023 210.8H77.2543L88.2703 236H79.4863L71.3503 214.832H74.6623L66.5263 236H57.8863ZM64.4383 231.608L66.5983 225.488H78.1903L80.3503 231.608H64.4383ZM105.97 210.8H114.466V236H105.97V210.8ZM98.1222 236H89.6262V210.8H98.1222V236ZM106.546 226.712H97.5462V219.728H106.546V226.712ZM118.56 236V210.8H127.056V236H118.56ZM131.146 236V210.8H143.278C145.63 210.8 147.658 211.184 149.362 211.952C151.09 212.72 152.422 213.824 153.358 215.264C154.294 216.68 154.762 218.36 154.762 220.304C154.762 222.248 154.294 223.928 153.358 225.344C152.422 226.736 151.09 227.804 149.362 228.548C147.658 229.292 145.63 229.664 143.278 229.664H135.862L139.642 226.172V236H131.146ZM146.23 236L140.038 226.82H149.038L155.302 236H146.23ZM139.642 227.108L135.862 223.256H142.738C143.914 223.256 144.778 222.992 145.33 222.464C145.906 221.936 146.194 221.216 146.194 220.304C146.194 219.392 145.906 218.672 145.33 218.144C144.778 217.616 143.914 217.352 142.738 217.352H135.862L139.642 213.5V227.108ZM165.566 230.6L165.098 221.276L174.602 210.8H183.854L173.198 222.536L168.482 227.36L165.566 230.6ZM157.97 236V210.8H166.322V236H157.97ZM174.53 236L167.114 226.208L172.622 220.376L184.358 236H174.53ZM181.496 236L192.512 210.8H200.864L211.88 236H203.096L194.96 214.832H198.272L190.136 236H181.496ZM188.048 231.608L190.208 225.488H201.8L203.96 231.608H188.048ZM213.236 236V210.8H220.22L233.036 226.136H229.796V210.8H238.076V236H231.092L218.276 220.664H221.516V236H213.236ZM54.396 250.8H62.892V276H54.396V250.8ZM46.548 276H38.052V250.8H46.548V276ZM54.972 266.712H45.972V259.728H54.972V266.712ZM64.2496 276L75.2656 250.8H83.6176L94.6336 276H85.8496L77.7136 254.832H81.0256L72.8896 276H64.2496ZM70.8016 271.608L72.9616 265.488H84.5536L86.7136 271.608H70.8016ZM95.9895 276V250.8H108.122C110.474 250.8 112.502 251.184 114.206 251.952C115.934 252.72 117.266 253.824 118.202 255.264C119.138 256.68 119.606 258.36 119.606 260.304C119.606 262.248 119.138 263.928 118.202 265.344C117.266 266.736 115.934 267.804 114.206 268.548C112.502 269.292 110.474 269.664 108.122 269.664H100.706L104.486 266.172V276H95.9895ZM111.074 276L104.882 266.82H113.882L120.146 276H111.074ZM104.486 267.108L100.706 263.256H107.582C108.758 263.256 109.622 262.992 110.174 262.464C110.75 261.936 111.038 261.216 111.038 260.304C111.038 259.392 110.75 258.672 110.174 258.144C109.622 257.616 108.758 257.352 107.582 257.352H100.706L104.486 253.5V267.108ZM122.814 276V250.8H129.798L139.878 267.252H136.206L145.998 250.8H152.982L153.054 276H145.314L145.242 262.464H146.466L139.77 273.732H136.026L129.042 262.464H130.554V276H122.814ZM170.373 276.576C168.333 276.576 166.437 276.252 164.685 275.604C162.957 274.956 161.457 274.044 160.185 272.868C158.913 271.668 157.917 270.264 157.197 268.656C156.501 267.048 156.153 265.296 156.153 263.4C156.153 261.48 156.501 259.728 157.197 258.144C157.917 256.536 158.913 255.144 160.185 253.968C161.457 252.768 162.957 251.844 164.685 251.196C166.437 250.548 168.333 250.224 170.373 250.224C172.437 250.224 174.333 250.548 176.061 251.196C177.789 251.844 179.289 252.768 180.561 253.968C181.833 255.144 182.817 256.536 183.513 258.144C184.233 259.728 184.593 261.48 184.593 263.4C184.593 265.296 184.233 267.048 183.513 268.656C182.817 270.264 181.833 271.668 180.561 272.868C179.289 274.044 177.789 274.956 176.061 275.604C174.333 276.252 172.437 276.576 170.373 276.576ZM170.373 269.7C171.165 269.7 171.897 269.556 172.569 269.268C173.265 268.98 173.865 268.572 174.369 268.044C174.897 267.492 175.305 266.832 175.593 266.064C175.881 265.272 176.025 264.384 176.025 263.4C176.025 262.416 175.881 261.54 175.593 260.772C175.305 259.98 174.897 259.32 174.369 258.792C173.865 258.24 173.265 257.82 172.569 257.532C171.897 257.244 171.165 257.1 170.373 257.1C169.581 257.1 168.837 257.244 168.141 257.532C167.469 257.82 166.869 258.24 166.341 258.792C165.837 259.32 165.441 259.98 165.153 260.772C164.865 261.54 164.721 262.416 164.721 263.4C164.721 264.384 164.865 265.272 165.153 266.064C165.441 266.832 165.837 267.492 166.341 268.044C166.869 268.572 167.469 268.98 168.141 269.268C168.837 269.556 169.581 269.7 170.373 269.7ZM187.677 276V250.8H194.661L207.477 266.136H204.237V250.8H212.517V276H205.533L192.717 260.664H195.957V276H187.677ZM216.611 276V250.8H225.107V276H216.611ZM45.648 310.6L45.18 301.276L54.684 290.8H63.936L53.28 302.536L48.564 307.36L45.648 310.6ZM38.052 316V290.8H46.404V316H38.052ZM54.612 316L47.196 306.208L52.704 300.376L64.44 316H54.612ZM73.3553 300.16H84.5873V306.28H73.3553V300.16ZM73.9313 309.592H86.5313V316H65.5793V290.8H86.0633V297.208H73.9313V309.592ZM89.802 316V290.8H101.934C104.286 290.8 106.314 291.184 108.018 291.952C109.746 292.72 111.078 293.824 112.014 295.264C112.95 296.68 113.418 298.36 113.418 300.304C113.418 302.248 112.95 303.928 112.014 305.344C111.078 306.736 109.746 307.804 108.018 308.548C106.314 309.292 104.286 309.664 101.934 309.664H94.518L98.298 306.172V316H89.802ZM104.886 316L98.694 306.82H107.694L113.958 316H104.886ZM98.298 307.108L94.518 303.256H101.394C102.57 303.256 103.434 302.992 103.986 302.464C104.562 301.936 104.85 301.216 104.85 300.304C104.85 299.392 104.562 298.672 103.986 298.144C103.434 297.616 102.57 297.352 101.394 297.352H94.518L98.298 293.5V307.108ZM113.89 316L124.906 290.8H133.258L144.274 316H135.49L127.354 294.832H130.666L122.53 316H113.89ZM120.442 311.608L122.602 305.488H134.194L136.354 311.608H120.442ZM158.347 316.576C156.307 316.576 154.423 316.264 152.695 315.64C150.991 314.992 149.503 314.08 148.231 312.904C146.983 311.728 146.011 310.336 145.315 308.728C144.619 307.12 144.271 305.344 144.271 303.4C144.271 301.456 144.619 299.68 145.315 298.072C146.011 296.464 146.995 295.072 148.267 293.896C149.539 292.72 151.039 291.82 152.767 291.196C154.519 290.548 156.439 290.224 158.527 290.224C161.023 290.224 163.243 290.644 165.187 291.484C167.155 292.324 168.775 293.524 170.047 295.084L164.611 299.872C163.819 298.96 162.955 298.276 162.019 297.82C161.107 297.34 160.087 297.1 158.959 297.1C158.023 297.1 157.171 297.244 156.403 297.532C155.659 297.82 155.023 298.24 154.495 298.792C153.967 299.344 153.559 300.004 153.271 300.772C152.983 301.54 152.839 302.416 152.839 303.4C152.839 304.336 152.983 305.2 153.271 305.992C153.559 306.76 153.967 307.42 154.495 307.972C155.023 308.524 155.647 308.956 156.367 309.268C157.111 309.556 157.939 309.7 158.851 309.7C159.811 309.7 160.747 309.544 161.659 309.232C162.571 308.896 163.543 308.332 164.575 307.54L169.327 313.372C167.791 314.404 166.039 315.196 164.071 315.748C162.103 316.3 160.195 316.576 158.347 316.576ZM161.947 312.292V302.716H169.327V313.372L161.947 312.292ZM170.211 316L181.227 290.8H189.579L200.595 316H191.811L183.675 294.832H186.987L178.851 316H170.211ZM176.763 311.608L178.923 305.488H190.515L192.675 311.608H176.763ZM201.95 316V290.8H208.934L219.014 307.252H215.342L225.134 290.8H232.118L232.19 316H224.45L224.378 302.464H225.602L218.906 313.732H215.162L208.178 302.464H209.69V316H201.95ZM233.562 316L244.578 290.8H252.93L263.946 316H255.162L247.026 294.832H250.338L242.202 316H233.562ZM240.114 311.608L242.274 305.488H253.866L256.026 311.608H240.114ZM265.302 316V290.8H272.286L285.102 306.136H281.862V290.8H290.142V316H283.158L270.342 300.664H273.582V316H265.302ZM38.052 356V330.8H51.516C54.996 330.8 57.564 331.424 59.22 332.672C60.876 333.896 61.704 335.468 61.704 337.388C61.704 338.66 61.344 339.8 60.624 340.808C59.928 341.792 58.908 342.572 57.564 343.148C56.22 343.724 54.564 344.012 52.596 344.012L53.316 342.068C55.284 342.068 56.976 342.344 58.392 342.896C59.832 343.448 60.936 344.252 61.704 345.308C62.496 346.34 62.892 347.588 62.892 349.052C62.892 351.236 61.98 352.94 60.156 354.164C58.356 355.388 55.716 356 52.236 356H38.052ZM46.404 350.06H51.516C52.452 350.06 53.148 349.892 53.604 349.556C54.084 349.22 54.324 348.728 54.324 348.08C54.324 347.432 54.084 346.94 53.604 346.604C53.148 346.268 52.452 346.1 51.516 346.1H45.828V340.484H50.364C51.324 340.484 52.02 340.328 52.452 340.016C52.908 339.68 53.136 339.212 53.136 338.612C53.136 337.988 52.908 337.52 52.452 337.208C52.02 336.896 51.324 336.74 50.364 336.74H46.404V350.06ZM63.1597 356L74.1758 330.8H82.5278L93.5438 356H84.7598L76.6238 334.832H79.9358L71.7998 356H63.1597ZM69.7118 351.608L71.8718 345.488H83.4638L85.6238 351.608H69.7118ZM94.8997 356V330.8H101.884L114.7 346.136H111.46V330.8H119.74V356H112.756L99.9397 340.664H103.18V356H94.8997ZM136.901 356.576C134.861 356.576 132.977 356.264 131.249 355.64C129.545 354.992 128.057 354.08 126.785 352.904C125.537 351.728 124.565 350.336 123.869 348.728C123.173 347.12 122.825 345.344 122.825 343.4C122.825 341.456 123.173 339.68 123.869 338.072C124.565 336.464 125.549 335.072 126.821 333.896C128.093 332.72 129.593 331.82 131.321 331.196C133.073 330.548 134.993 330.224 137.081 330.224C139.577 330.224 141.797 330.644 143.741 331.484C145.709 332.324 147.329 333.524 148.601 335.084L143.165 339.872C142.373 338.96 141.509 338.276 140.573 337.82C139.661 337.34 138.641 337.1 137.513 337.1C136.577 337.1 135.725 337.244 134.957 337.532C134.213 337.82 133.577 338.24 133.049 338.792C132.521 339.344 132.113 340.004 131.825 340.772C131.537 341.54 131.393 342.416 131.393 343.4C131.393 344.336 131.537 345.2 131.825 345.992C132.113 346.76 132.521 347.42 133.049 347.972C133.577 348.524 134.201 348.956 134.921 349.268C135.665 349.556 136.493 349.7 137.405 349.7C138.365 349.7 139.301 349.544 140.213 349.232C141.125 348.896 142.097 348.332 143.129 347.54L147.881 353.372C146.345 354.404 144.593 355.196 142.625 355.748C140.657 356.3 138.749 356.576 136.901 356.576ZM140.501 352.292V342.716H147.881V353.372L140.501 352.292ZM160.897 356.576C158.785 356.576 156.745 356.336 154.777 355.856C152.809 355.376 151.189 354.752 149.917 353.984L152.653 347.792C153.853 348.488 155.185 349.052 156.649 349.484C158.137 349.892 159.577 350.096 160.969 350.096C161.785 350.096 162.421 350.048 162.877 349.952C163.357 349.832 163.705 349.676 163.921 349.484C164.137 349.268 164.245 349.016 164.245 348.728C164.245 348.272 163.993 347.912 163.489 347.648C162.985 347.384 162.313 347.168 161.473 347C160.657 346.808 159.757 346.616 158.773 346.424C157.789 346.208 156.793 345.932 155.785 345.596C154.801 345.26 153.889 344.816 153.049 344.264C152.233 343.712 151.573 342.992 151.069 342.104C150.565 341.192 150.313 340.064 150.313 338.72C150.313 337.16 150.745 335.744 151.609 334.472C152.497 333.176 153.805 332.144 155.533 331.376C157.285 330.608 159.457 330.224 162.049 330.224C163.753 330.224 165.433 330.404 167.089 330.764C168.745 331.124 170.233 331.676 171.553 332.42L168.997 338.576C167.749 337.952 166.537 337.484 165.361 337.172C164.209 336.86 163.081 336.704 161.977 336.704C161.161 336.704 160.513 336.776 160.033 336.92C159.553 337.064 159.205 337.256 158.989 337.496C158.797 337.736 158.701 338 158.701 338.288C158.701 338.72 158.953 339.068 159.457 339.332C159.961 339.572 160.621 339.776 161.437 339.944C162.277 340.112 163.189 340.292 164.173 340.484C165.181 340.676 166.177 340.94 167.161 341.276C168.145 341.612 169.045 342.056 169.861 342.608C170.701 343.16 171.373 343.88 171.877 344.768C172.381 345.656 172.633 346.76 172.633 348.08C172.633 349.616 172.189 351.032 171.301 352.328C170.437 353.6 169.141 354.632 167.413 355.424C165.685 356.192 163.513 356.576 160.897 356.576ZM172.425 356L183.441 330.8H191.793L202.809 356H194.025L185.889 334.832H189.201L181.065 356H172.425ZM178.977 351.608L181.137 345.488H192.729L194.889 351.608H178.977ZM201.932 343.616L204.956 333.5L206.144 338.036C204.752 338.036 203.612 337.64 202.724 336.848C201.836 336.032 201.392 334.928 201.392 333.536C201.392 332.12 201.836 331.004 202.724 330.188C203.636 329.348 204.776 328.928 206.144 328.928C207.512 328.928 208.64 329.348 209.528 330.188C210.44 331.004 210.896 332.12 210.896 333.536C210.896 333.92 210.86 334.304 210.788 334.688C210.74 335.072 210.62 335.54 210.428 336.092C210.236 336.62 209.924 337.34 209.492 338.252L206.972 343.616H201.932ZM212.372 343.616L215.396 333.5L216.584 338.036C215.192 338.036 214.052 337.64 213.164 336.848C212.276 336.032 211.832 334.928 211.832 333.536C211.832 332.12 212.276 331.004 213.164 330.188C214.076 329.348 215.216 328.928 216.584 328.928C217.952 328.928 219.08 329.348 219.968 330.188C220.88 331.004 221.336 332.12 221.336 333.536C221.336 333.92 221.3 334.304 221.228 334.688C221.18 335.072 221.06 335.54 220.868 336.092C220.676 336.62 220.364 337.34 219.932 338.252L217.412 343.616H212.372Z" fill="#EEEEEE"/>
</svg>
