<svg width="284" height="311" viewBox="0 0 284 311" fill="none" xmlns="http://www.w3.org/2000/svg">
<path d="M58.464 41.896C55.328 41.896 52.416 41.4107 49.728 40.44C47.0773 39.432 44.7627 38.0133 42.784 36.184C40.8427 34.3547 39.3307 32.1893 38.248 29.688C37.1653 27.1867 36.624 24.424 36.624 21.4C36.624 18.376 37.1653 15.6133 38.248 13.112C39.3307 10.6107 40.8427 8.44533 42.784 6.616C44.7627 4.78666 47.0773 3.38666 49.728 2.416C52.416 1.408 55.328 0.903999 58.464 0.903999C62.3093 0.903999 65.7067 1.576 68.656 2.92C71.6427 4.264 74.1067 6.20533 76.048 8.744L67.704 16.192C66.5467 14.736 65.2587 13.616 63.84 12.832C62.4587 12.0107 60.8907 11.6 59.136 11.6C57.7547 11.6 56.504 11.824 55.384 12.272C54.264 12.72 53.2933 13.3733 52.472 14.232C51.688 15.0907 51.072 16.136 50.624 17.368C50.176 18.5627 49.952 19.9067 49.952 21.4C49.952 22.8933 50.176 24.256 50.624 25.488C51.072 26.6827 51.688 27.7093 52.472 28.568C53.2933 29.4267 54.264 30.08 55.384 30.528C56.504 30.976 57.7547 31.2 59.136 31.2C60.8907 31.2 62.4587 30.808 63.84 30.024C65.2587 29.2027 66.5467 28.064 67.704 26.608L76.048 34.056C74.1067 36.5573 71.6427 38.4987 68.656 39.88C65.7067 41.224 62.3093 41.896 58.464 41.896ZM75.061 41L92.197 1.8H105.189L122.325 41H108.661L96.005 8.072H101.157L88.501 41H75.061ZM85.253 34.168L88.613 24.648H106.645L110.005 34.168H85.253ZM136.25 32.6L135.522 18.096L150.306 1.8H164.698L148.122 20.056L140.786 27.56L136.25 32.6ZM124.434 41V1.8H137.426V41H124.434ZM150.194 41L138.658 25.768L147.226 16.696L165.482 41H150.194ZM167.255 41V1.8H186.127C189.785 1.8 192.94 2.39733 195.591 3.592C198.279 4.78666 200.351 6.504 201.807 8.744C203.263 10.9467 203.991 13.56 203.991 16.584C203.991 19.608 203.263 22.2213 201.807 24.424C200.351 26.5893 198.279 28.2507 195.591 29.408C192.94 30.5653 189.785 31.144 186.127 31.144H174.591L180.471 25.712V41H167.255ZM190.719 41L181.087 26.72H195.087L204.831 41H190.719ZM180.471 27.168L174.591 21.176H185.287C187.116 21.176 188.46 20.7653 189.319 19.944C190.215 19.1227 190.663 18.0027 190.663 16.584C190.663 15.1653 190.215 14.0453 189.319 13.224C188.46 12.4027 187.116 11.992 185.287 11.992H174.591L180.471 6V27.168Z" fill="white"/>
<path d="M204.725 41L221.861 1.8H234.853L251.989 41H238.325L225.669 8.072H230.821L218.165 41H204.725ZM214.917 34.168L218.277 24.648H236.309L239.669 34.168H214.917Z" fill="#4A8068"/>
<path d="M178 21.3147V10.6116L189.621 10L192.679 21.3147H178Z" fill="white"/>
<path d="M243 41H210L226.946 11L243 41Z" fill="#4A8068"/>
<rect x="35" y="49" width="217" height="25" fill="#E62C20"/>
<path d="M90.14 68H101.18V64.34H94.86V54H90.14V68ZM104.604 56.18C106.264 56.18 107.324 55.18 107.324 53.8C107.324 52.5 106.264 51.58 104.604 51.58C102.944 51.58 101.884 52.58 101.884 53.88C101.884 55.18 102.944 56.18 104.604 56.18ZM102.344 68H106.864V57.06H102.344V68ZM116.467 56.86C115.187 56.86 114.027 57.28 113.167 58.14V57.06H108.867V68H113.387V62.86C113.387 61.24 114.167 60.66 115.087 60.66C115.907 60.66 116.427 61.18 116.427 62.54V68H120.947V61.76C120.947 58.32 118.987 56.86 116.467 56.86ZM131.025 57.06V58.3C130.345 57.32 129.285 56.86 127.785 56.86C125.005 56.86 122.525 58.88 122.525 62.12C122.525 65.36 125.005 67.4 127.785 67.4C129.125 67.4 130.125 67.02 130.805 66.24V66.44C130.805 67.9 130.065 68.72 128.205 68.72C127.025 68.72 125.565 68.3 124.705 67.64L123.185 70.72C124.545 71.62 126.505 72.08 128.665 72.08C132.845 72.08 135.325 70.06 135.325 65.82V57.06H131.025ZM128.985 63.88C127.925 63.88 127.105 63.18 127.105 62.12C127.105 61.06 127.925 60.38 128.985 60.38C130.045 60.38 130.845 61.06 130.845 62.12C130.845 63.18 130.045 63.88 128.985 63.88ZM145.224 68H150.684L145.804 61.8L150.324 57.06H144.984L141.844 60.24V53.16H137.324V68H141.844V65.42L142.564 64.64L145.224 68ZM156.287 56.86C154.587 56.86 152.647 57.3 151.367 58.1L152.807 61.08C153.527 60.54 154.627 60.22 155.607 60.22C156.887 60.22 157.527 60.66 157.667 61.5H155.847C152.447 61.5 150.847 62.68 150.847 64.8C150.847 66.68 152.227 68.2 154.907 68.2C156.447 68.2 157.487 67.66 158.007 66.56V68H162.207V62.12C162.207 58.48 160.047 56.86 156.287 56.86ZM156.267 65.48C155.587 65.48 155.187 65.1 155.187 64.6C155.187 64 155.607 63.68 156.567 63.68H157.687V64.44C157.447 65.16 156.887 65.48 156.267 65.48ZM168.46 58.24V57.06H164.16V68H168.68V63.14C168.68 61.4 169.64 60.78 171 60.78C171.32 60.78 171.6 60.8 172 60.86V56.86C170.48 56.86 169.26 57.32 168.46 58.24ZM178.084 56.86C176.384 56.86 174.444 57.3 173.164 58.1L174.604 61.08C175.324 60.54 176.424 60.22 177.404 60.22C178.684 60.22 179.324 60.66 179.464 61.5H177.644C174.244 61.5 172.644 62.68 172.644 64.8C172.644 66.68 174.024 68.2 176.704 68.2C178.244 68.2 179.284 67.66 179.804 66.56V68H184.004V62.12C184.004 58.48 181.844 56.86 178.084 56.86ZM178.064 65.48C177.384 65.48 176.984 65.1 176.984 64.6C176.984 64 177.404 63.68 178.364 63.68H179.484V64.44C179.244 65.16 178.684 65.48 178.064 65.48ZM193.557 56.86C192.277 56.86 191.117 57.28 190.257 58.14V57.06H185.957V68H190.477V62.86C190.477 61.24 191.257 60.66 192.177 60.66C192.997 60.66 193.517 61.18 193.517 62.54V68H198.037V61.76C198.037 58.32 196.077 56.86 193.557 56.86Z" fill="white"/>
<path d="M26.104 133.896C23.0427 133.896 20.28 133.411 17.816 132.44C15.352 131.432 13.2987 129.976 11.656 128.072L18.768 119.672C19.8133 120.941 20.84 121.912 21.848 122.584C22.856 123.219 23.9013 123.536 24.984 123.536C27.8213 123.536 29.24 121.912 29.24 118.664V103.768H15.912V93.8H42.288V117.88C42.288 123.256 40.9067 127.269 38.144 129.92C35.3813 132.571 31.368 133.896 26.104 133.896ZM48.3483 133V93.8H61.5643V133H48.3483ZM77.8384 133L65.2944 93.8H78.9024L89.0384 126.896H82.2064L92.9584 93.8H105.11L115.134 126.896H108.582L119.166 93.8H131.71L119.166 133H104.998L96.8224 105.896H100.63L92.0064 133H77.8384ZM180.583 133V93.8H191.447L211.383 117.656H206.343V93.8H219.223V133H208.359L188.423 109.144H193.463V133H180.583ZM221.334 133L238.47 93.8H251.462L268.598 133H254.934L242.278 100.072H247.43L234.774 133H221.334ZM231.526 126.168L234.886 116.648H252.918L256.278 126.168H231.526Z" fill="white"/>
<path d="M131.209 133L148.345 93.8H161.337L178.473 133H164.809L152.153 100.072H157.305L144.649 133H131.209ZM141.401 126.168L144.761 116.648H162.793L166.153 126.168H141.401Z" fill="#E62C20"/>
<path d="M135 133L156.109 100L176 133H135Z" fill="#E62C20"/>
<path d="M236 120L244 102L252 121.5L236 120Z" fill="white"/>
<path d="M10.72 222L10.2 211.64L20.76 200H31.04L19.2 213.04L13.96 218.4L10.72 222ZM2.28 228V200H11.56V228H2.28ZM20.68 228L12.44 217.12L18.56 210.64L31.6 228H20.68ZM41.5059 210.4H53.9859V217.2H41.5059V210.4ZM42.1459 220.88H56.1459V228H32.8659V200H55.6259V207.12H42.1459V220.88ZM59.78 228V200H73.26C75.8733 200 78.1267 200.427 80.02 201.28C81.94 202.133 83.42 203.36 84.46 204.96C85.5 206.533 86.02 208.4 86.02 210.56C86.02 212.72 85.5 214.587 84.46 216.16C83.42 217.707 81.94 218.893 80.02 219.72C78.1267 220.547 75.8733 220.96 73.26 220.96H65.02L69.22 217.08V228H59.78ZM76.54 228L69.66 217.8H79.66L86.62 228H76.54ZM69.22 218.12L65.02 213.84H72.66C73.9667 213.84 74.9267 213.547 75.54 212.96C76.18 212.373 76.5 211.573 76.5 210.56C76.5 209.547 76.18 208.747 75.54 208.16C74.9267 207.573 73.9667 207.28 72.66 207.28H65.02L69.22 203V218.12ZM95.2741 228V207.32H87.0741V200H112.914V207.32H104.714V228H95.2741ZM162.113 228.64C159.846 228.64 157.753 228.293 155.833 227.6C153.939 226.88 152.286 225.867 150.873 224.56C149.486 223.253 148.406 221.707 147.633 219.92C146.859 218.133 146.473 216.16 146.473 214C146.473 211.84 146.859 209.867 147.633 208.08C148.406 206.293 149.499 204.747 150.913 203.44C152.326 202.133 153.993 201.133 155.913 200.44C157.859 199.72 159.993 199.36 162.313 199.36C165.086 199.36 167.553 199.827 169.713 200.76C171.899 201.693 173.699 203.027 175.113 204.76L169.073 210.08C168.193 209.067 167.233 208.307 166.193 207.8C165.179 207.267 164.046 207 162.793 207C161.753 207 160.806 207.16 159.953 207.48C159.126 207.8 158.419 208.267 157.833 208.88C157.246 209.493 156.793 210.227 156.473 211.08C156.153 211.933 155.993 212.907 155.993 214C155.993 215.04 156.153 216 156.473 216.88C156.793 217.733 157.246 218.467 157.833 219.08C158.419 219.693 159.113 220.173 159.913 220.52C160.739 220.84 161.659 221 162.673 221C163.739 221 164.779 220.827 165.793 220.48C166.806 220.107 167.886 219.48 169.033 218.6L174.313 225.08C172.606 226.227 170.659 227.107 168.473 227.72C166.286 228.333 164.166 228.64 162.113 228.64ZM166.113 223.88V213.24H174.313V225.08L166.113 223.88ZM175.295 228L187.535 200H196.815L209.055 228H199.295L190.255 204.48H193.935L184.895 228H175.295ZM182.575 223.12L184.975 216.32H197.855L200.255 223.12H182.575ZM245.685 228L257.925 200H267.205L279.445 228H269.685L260.645 204.48H264.325L255.285 228H245.685ZM252.965 223.12L255.365 216.32H268.245L270.645 223.12H252.965Z" fill="white"/>
<path d="M112.326 228L124.566 200H133.846L146.086 228H136.326L127.286 204.48H130.966L121.926 228H112.326ZM119.606 223.12L122.006 216.32H134.886L137.286 223.12H119.606Z" fill="#9C4A9A"/>
<path d="M210.561 228V200H218.321L229.521 218.28H225.441L236.321 200H244.081L244.161 228H235.561L235.481 212.96H236.841L229.401 225.48H225.241L217.481 212.96H219.161V228H210.561Z" fill="#FCAC23"/>
<path d="M66 216L66.3182 205.091L78.4091 204L80 215.273L66 216Z" fill="white"/>
<path d="M114 228L128.366 205L129.878 204L145 228H114Z" fill="#9C4A9A"/>
<path d="M243 228H211L215.078 211L230.451 217.697L241.5 212L243 228Z" fill="#FCAC23"/>
<path d="M254 220L262.5 200L269.5 221L254 220Z" fill="white"/>
<rect x="15" y="143" width="255" height="25" fill="#DF9D2C"/>
<path d="M95.7658 162H101.226L95.3458 154.16L100.946 148H95.8058L91.2058 153.08V148H86.5658V162H91.2058V158.54L92.2658 157.36L95.7658 162ZM112.968 156.52C112.968 152.82 110.188 150.86 106.948 150.86C103.408 150.86 100.748 153.2 100.748 156.52C100.748 159.78 103.348 162.2 107.368 162.2C109.548 162.2 111.088 161.6 112.148 160.44L109.788 158.06C109.068 158.6 108.508 158.86 107.508 158.86C106.388 158.86 105.628 158.42 105.308 157.58H112.908C112.928 157.26 112.968 156.84 112.968 156.52ZM106.988 153.94C107.908 153.94 108.568 154.48 108.748 155.4H105.228C105.408 154.48 106.048 153.94 106.988 153.94ZM121.995 150.86C120.815 150.86 119.755 151.22 118.915 151.94V147.16H114.395V162H118.915V156.86C118.915 155.24 119.695 154.66 120.615 154.66C121.435 154.66 121.955 155.18 121.955 156.54V162H126.475V155.76C126.475 152.32 124.515 150.86 121.995 150.86ZM130.698 150.18C132.358 150.18 133.418 149.18 133.418 147.8C133.418 146.5 132.358 145.58 130.698 145.58C129.038 145.58 127.978 146.58 127.978 147.88C127.978 149.18 129.038 150.18 130.698 150.18ZM128.438 162H132.958V151.06H128.438V162ZM142.541 147.16V151.8C141.881 151.16 140.961 150.86 139.761 150.86C136.901 150.86 134.481 153 134.481 156.52C134.481 160.04 136.901 162.2 139.761 162.2C141.121 162.2 142.101 161.84 142.761 161.1V162H147.061V147.16H142.541ZM140.841 158.68C139.841 158.68 139.061 157.94 139.061 156.52C139.061 155.1 139.841 154.38 140.841 154.38C141.841 154.38 142.621 155.1 142.621 156.52C142.621 157.94 141.841 158.68 140.841 158.68ZM156.503 151.06V156.2C156.503 157.82 155.743 158.4 154.963 158.4C154.083 158.4 153.543 157.88 153.543 156.32V151.06H149.023V157.1C149.023 160.66 151.002 162.2 153.623 162.2C154.803 162.2 155.903 161.8 156.723 160.96V162H161.023V151.06H156.503ZM170.327 150.86C168.967 150.86 167.987 151.22 167.327 151.96V151.06H163.027V165.88H167.547V161.26C168.207 161.9 169.127 162.2 170.327 162.2C173.187 162.2 175.607 160.06 175.607 156.54C175.607 153.02 173.187 150.86 170.327 150.86ZM169.247 158.68C168.247 158.68 167.467 157.96 167.467 156.54C167.467 155.12 168.247 154.38 169.247 154.38C170.247 154.38 171.027 155.12 171.027 156.54C171.027 157.96 170.247 158.68 169.247 158.68ZM181.658 150.86C179.958 150.86 178.018 151.3 176.738 152.1L178.178 155.08C178.898 154.54 179.998 154.22 180.978 154.22C182.258 154.22 182.898 154.66 183.038 155.5H181.218C177.818 155.5 176.218 156.68 176.218 158.8C176.218 160.68 177.598 162.2 180.278 162.2C181.818 162.2 182.858 161.66 183.378 160.56V162H187.578V156.12C187.578 152.48 185.418 150.86 181.658 150.86ZM181.638 159.48C180.958 159.48 180.558 159.1 180.558 158.6C180.558 158 180.978 157.68 181.938 157.68H183.058V158.44C182.818 159.16 182.258 159.48 181.638 159.48ZM197.131 150.86C195.851 150.86 194.691 151.28 193.831 152.14V151.06H189.531V162H194.051V156.86C194.051 155.24 194.831 154.66 195.751 154.66C196.571 154.66 197.091 155.18 197.091 156.54V162H201.611V155.76C201.611 152.32 199.651 150.86 197.131 150.86Z" fill="white"/>
<rect x="16" y="239" width="251" height="25" fill="#4A8068"/>
<rect x="34" y="275" width="220" height="25" fill="#9C4A9A"/>
<path d="M69.9064 258H75.3664L69.4864 250.16L75.0864 244H69.9464L65.3464 249.08V244H60.7064V258H65.3464V254.54L66.4064 253.36L69.9064 258ZM87.1088 252.52C87.1088 248.82 84.3288 246.86 81.0888 246.86C77.5488 246.86 74.8888 249.2 74.8888 252.52C74.8888 255.78 77.4888 258.2 81.5088 258.2C83.6888 258.2 85.2288 257.6 86.2888 256.44L83.9288 254.06C83.2088 254.6 82.6488 254.86 81.6488 254.86C80.5288 254.86 79.7688 254.42 79.4488 253.58H87.0488C87.0688 253.26 87.1088 252.84 87.1088 252.52ZM81.1288 249.94C82.0488 249.94 82.7088 250.48 82.8888 251.4H79.3688C79.5488 250.48 80.1888 249.94 81.1288 249.94ZM92.8152 258.2C96.6152 258.2 98.4752 256.48 98.4752 254.5C98.4752 250.12 92.1952 251.6 92.1952 250.46C92.1952 250.2 92.5152 249.94 93.6752 249.94C94.5952 249.94 95.7152 250.12 96.8352 250.74L98.0752 247.76C96.9152 247.16 95.2152 246.86 93.6152 246.86C89.9352 246.86 88.0152 248.54 88.0152 250.6C88.0152 254.98 94.3152 253.48 94.3152 254.6C94.3152 254.92 94.0152 255.12 92.9152 255.12C91.6152 255.12 90.1352 254.76 89.0952 254.14L87.8552 257.12C88.9752 257.76 90.9352 258.2 92.8152 258.2ZM111.484 252.52C111.484 248.82 108.704 246.86 105.464 246.86C101.924 246.86 99.2638 249.2 99.2638 252.52C99.2638 255.78 101.864 258.2 105.884 258.2C108.064 258.2 109.604 257.6 110.664 256.44L108.304 254.06C107.584 254.6 107.024 254.86 106.024 254.86C104.904 254.86 104.144 254.42 103.824 253.58H111.424C111.444 253.26 111.484 252.84 111.484 252.52ZM105.504 249.94C106.424 249.94 107.084 250.48 107.264 251.4H103.744C103.924 250.48 104.564 249.94 105.504 249.94ZM127.39 246.86C125.89 246.86 124.61 247.46 123.73 248.52C122.97 247.38 121.73 246.86 120.31 246.86C119.11 246.86 118.03 247.26 117.21 248.08V247.06H112.91V258H117.43V252.66C117.43 251.2 118.05 250.66 118.85 250.66C119.61 250.66 120.07 251.18 120.07 252.54V258H124.59V252.66C124.59 251.2 125.21 250.66 126.01 250.66C126.73 250.66 127.23 251.18 127.23 252.54V258H131.75V251.76C131.75 248.32 129.87 246.86 127.39 246.86ZM141.011 246.86C139.651 246.86 138.671 247.22 138.011 247.96V247.06H133.711V261.88H138.231V257.26C138.891 257.9 139.811 258.2 141.011 258.2C143.871 258.2 146.291 256.06 146.291 252.54C146.291 249.02 143.871 246.86 141.011 246.86ZM139.931 254.68C138.931 254.68 138.151 253.96 138.151 252.54C138.151 251.12 138.931 250.38 139.931 250.38C140.931 250.38 141.711 251.12 141.711 252.54C141.711 253.96 140.931 254.68 139.931 254.68ZM155.155 247.06V252.2C155.155 253.82 154.395 254.4 153.615 254.4C152.735 254.4 152.195 253.88 152.195 252.32V247.06H147.675V253.1C147.675 256.66 149.655 258.2 152.275 258.2C153.455 258.2 154.555 257.8 155.375 256.96V258H159.675V247.06H155.155ZM165.98 248.24V247.06H161.68V258H166.2V253.14C166.2 251.4 167.16 250.78 168.52 250.78C168.84 250.78 169.12 250.8 169.52 250.86V246.86C168 246.86 166.78 247.32 165.98 248.24ZM178.401 246.86C177.121 246.86 175.961 247.28 175.101 248.14V247.06H170.801V258H175.321V252.86C175.321 251.24 176.101 250.66 177.021 250.66C177.841 250.66 178.361 251.18 178.361 252.54V258H182.881V251.76C182.881 248.32 180.921 246.86 178.401 246.86ZM189.744 246.86C188.044 246.86 186.104 247.3 184.824 248.1L186.264 251.08C186.984 250.54 188.084 250.22 189.064 250.22C190.344 250.22 190.984 250.66 191.124 251.5H189.304C185.904 251.5 184.304 252.68 184.304 254.8C184.304 256.68 185.684 258.2 188.364 258.2C189.904 258.2 190.944 257.66 191.464 256.56V258H195.664V252.12C195.664 248.48 193.504 246.86 189.744 246.86ZM189.724 255.48C189.044 255.48 188.644 255.1 188.644 254.6C188.644 254 189.064 253.68 190.024 253.68H191.144V254.44C190.904 255.16 190.344 255.48 189.724 255.48ZM202.517 246.86C200.817 246.86 198.877 247.3 197.597 248.1L199.037 251.08C199.757 250.54 200.857 250.22 201.837 250.22C203.117 250.22 203.757 250.66 203.897 251.5H202.077C198.677 251.5 197.077 252.68 197.077 254.8C197.077 256.68 198.457 258.2 201.137 258.2C202.677 258.2 203.717 257.66 204.237 256.56V258H208.437V252.12C208.437 248.48 206.277 246.86 202.517 246.86ZM202.497 255.48C201.817 255.48 201.417 255.1 201.417 254.6C201.417 254 201.837 253.68 202.797 253.68H203.917V254.44C203.677 255.16 203.117 255.48 202.497 255.48ZM217.991 246.86C216.711 246.86 215.551 247.28 214.691 248.14V247.06H210.391V258H214.911V252.86C214.911 251.24 215.691 250.66 216.611 250.66C217.431 250.66 217.951 251.18 217.951 252.54V258H222.471V251.76C222.471 248.32 220.511 246.86 217.991 246.86Z" fill="white"/>
<path d="M93.1476 280H86.4076V294H91.1276V290.56H93.1476C97.0476 290.56 99.5276 288.52 99.5276 285.28C99.5276 282.04 97.0476 280 93.1476 280ZM92.8476 286.92H91.1276V283.64H92.8476C94.1476 283.64 94.7676 284.26 94.7676 285.28C94.7676 286.3 94.1476 286.92 92.8476 286.92ZM112.576 288.52C112.576 284.82 109.796 282.86 106.556 282.86C103.016 282.86 100.356 285.2 100.356 288.52C100.356 291.78 102.956 294.2 106.976 294.2C109.156 294.2 110.696 293.6 111.756 292.44L109.396 290.06C108.676 290.6 108.116 290.86 107.116 290.86C105.996 290.86 105.236 290.42 104.916 289.58H112.516C112.536 289.26 112.576 288.84 112.576 288.52ZM106.596 285.94C107.516 285.94 108.176 286.48 108.356 287.4H104.836C105.016 286.48 105.656 285.94 106.596 285.94ZM118.302 284.24V283.06H114.002V294H118.522V289.14C118.522 287.4 119.482 286.78 120.842 286.78C121.162 286.78 121.442 286.8 121.842 286.86V282.86C120.322 282.86 119.102 283.32 118.302 284.24ZM125.543 282.18C127.203 282.18 128.263 281.18 128.263 279.8C128.263 278.5 127.203 277.58 125.543 277.58C123.883 277.58 122.823 278.58 122.823 279.88C122.823 281.18 123.883 282.18 125.543 282.18ZM123.023 298.08C126.043 298.08 127.803 296.26 127.803 293.44V283.06H123.283V293.4C123.283 294.28 122.883 294.66 122.343 294.66C121.983 294.66 121.623 294.56 121.323 294.4L120.243 297.54C120.943 297.9 121.963 298.08 123.023 298.08ZM134.703 282.86C133.003 282.86 131.063 283.3 129.783 284.1L131.223 287.08C131.943 286.54 133.043 286.22 134.023 286.22C135.303 286.22 135.943 286.66 136.083 287.5H134.263C130.863 287.5 129.263 288.68 129.263 290.8C129.263 292.68 130.643 294.2 133.323 294.2C134.863 294.2 135.903 293.66 136.423 292.56V294H140.623V288.12C140.623 284.48 138.463 282.86 134.703 282.86ZM134.683 291.48C134.003 291.48 133.603 291.1 133.603 290.6C133.603 290 134.023 289.68 134.983 289.68H136.103V290.44C135.863 291.16 135.303 291.48 134.683 291.48ZM142.576 294H147.096V279.16H142.576V294ZM154 282.86C152.3 282.86 150.36 283.3 149.08 284.1L150.52 287.08C151.24 286.54 152.34 286.22 153.32 286.22C154.6 286.22 155.24 286.66 155.38 287.5H153.56C150.16 287.5 148.56 288.68 148.56 290.8C148.56 292.68 149.94 294.2 152.62 294.2C154.16 294.2 155.2 293.66 155.72 292.56V294H159.92V288.12C159.92 284.48 157.76 282.86 154 282.86ZM153.98 291.48C153.3 291.48 152.9 291.1 152.9 290.6C152.9 290 153.32 289.68 154.28 289.68H155.4V290.44C155.16 291.16 154.6 291.48 153.98 291.48ZM169.473 282.86C168.193 282.86 167.033 283.28 166.173 284.14V283.06H161.873V294H166.393V288.86C166.393 287.24 167.173 286.66 168.093 286.66C168.913 286.66 169.433 287.18 169.433 288.54V294H173.953V287.76C173.953 284.32 171.993 282.86 169.473 282.86ZM180.816 282.86C179.116 282.86 177.176 283.3 175.896 284.1L177.336 287.08C178.056 286.54 179.156 286.22 180.136 286.22C181.416 286.22 182.056 286.66 182.196 287.5H180.376C176.976 287.5 175.376 288.68 175.376 290.8C175.376 292.68 176.756 294.2 179.436 294.2C180.976 294.2 182.016 293.66 182.536 292.56V294H186.736V288.12C186.736 284.48 184.576 282.86 180.816 282.86ZM180.796 291.48C180.116 291.48 179.716 291.1 179.716 290.6C179.716 290 180.136 289.68 181.096 289.68H182.216V290.44C181.976 291.16 181.416 291.48 180.796 291.48ZM196.289 282.86C195.009 282.86 193.849 283.28 192.989 284.14V283.06H188.689V294H193.209V288.86C193.209 287.24 193.989 286.66 194.909 286.66C195.729 286.66 196.249 287.18 196.249 288.54V294H200.769V287.76C200.769 284.32 198.809 282.86 196.289 282.86Z" fill="white"/>
</svg>
