<svg width="580" height="111" viewBox="0 0 580 111" fill="none" xmlns="http://www.w3.org/2000/svg">
<path d="M0 108H580" stroke="white" stroke-width="5"/>
<path d="M46.5836 88C40.1818 88 34.2373 86.9581 28.7501 84.8743C23.3391 82.7104 18.614 79.6649 14.5748 75.7377C10.6119 71.8106 7.52531 67.1621 5.31519 61.7924C3.10506 56.4226 2 50.4918 2 44C2 37.5082 3.10506 31.5774 5.31519 26.2076C7.52531 20.8379 10.6119 16.1894 14.5748 12.2623C18.614 8.33515 23.3391 5.32969 28.7501 3.2459C34.2373 1.08197 40.1818 0 46.5836 0C54.4333 0 61.3685 1.44262 67.3892 4.32787C73.4861 7.21311 78.516 11.3807 82.479 16.8306L65.4458 32.8197C63.0833 29.694 60.454 27.2896 57.558 25.6066C54.7382 23.8433 51.5373 22.9617 47.9554 22.9617C45.1355 22.9617 42.5825 23.4426 40.2961 24.4044C38.0098 25.3661 36.0283 26.7687 34.3517 28.612C32.7512 30.4554 31.4937 32.6995 30.5792 35.3443C29.6647 37.9089 29.2074 40.7942 29.2074 44C29.2074 47.2058 29.6647 50.1311 30.5792 52.776C31.4937 55.3406 32.7512 57.5446 34.3517 59.388C36.0283 61.2313 38.0098 62.6339 40.2961 63.5956C42.5825 64.5574 45.1355 65.0383 47.9554 65.0383C51.5373 65.0383 54.7382 64.1967 57.558 62.5137C60.454 60.7505 63.0833 58.306 65.4458 55.1803L82.479 71.1694C78.516 76.5392 73.4861 80.7067 67.3892 83.6721C61.3685 86.5574 54.4333 88 46.5836 88Z" fill="#EEEEEE"/>
<path d="M90.2686 86.0765V1.92349H117.247V86.0765H90.2686Z" fill="#EEEEEE"/>
<path d="M130.235 86.0765V1.92349H152.412L193.109 53.1366H182.821V1.92349H209.113V86.0765H186.936L146.239 34.8634H156.528V86.0765H130.235Z" fill="#EEEEEE"/>
<path d="M222.113 86.0765V1.92349H261.552C270.469 1.92349 278.318 3.64663 285.101 7.0929C291.884 10.459 297.181 15.2678 300.991 21.5191C304.802 27.7705 306.707 35.224 306.707 43.8798C306.707 52.6157 304.802 60.1494 300.991 66.4809C297.181 72.7322 291.884 77.5811 285.101 81.0273C278.318 84.3934 270.469 86.0765 261.552 86.0765H222.113ZM249.091 63.9563H260.409C264.219 63.9563 267.534 63.1949 270.354 61.6721C273.25 60.1494 275.498 57.9053 277.099 54.9399C278.699 51.8944 279.5 48.2077 279.5 43.8798C279.5 39.6321 278.699 36.0255 277.099 33.0601C275.498 30.0947 273.25 27.8506 270.354 26.3279C267.534 24.8051 264.219 24.0437 260.409 24.0437H249.091V63.9563Z" fill="#EEEEEE"/>
<path d="M306.753 86.0765L341.734 1.92349H368.256L403.237 86.0765H375.343L349.508 15.388H360.025L334.189 86.0765H306.753ZM327.559 71.4098L334.418 50.9727H371.228L378.087 71.4098H327.559Z" fill="#EEEEEE"/>
<path d="M407.542 86.0765V1.92349H446.067C453.536 1.92349 459.976 3.20583 465.387 5.77049C470.874 8.33515 475.104 12.0219 478.076 16.8306C481.048 21.5592 482.534 27.1694 482.534 33.6612C482.534 40.153 481.048 45.7632 478.076 50.4918C475.104 55.1403 470.874 58.7067 465.387 61.1913C459.976 63.6758 453.536 64.918 446.067 64.918H422.518L434.521 53.2568V86.0765H407.542ZM455.441 86.0765L435.779 55.4208H464.358L484.249 86.0765H455.441ZM434.521 56.3825L422.518 43.5191H444.352C448.087 43.5191 450.83 42.6375 452.583 40.8743C454.412 39.1111 455.327 36.7067 455.327 33.6612C455.327 30.6157 454.412 28.2113 452.583 26.4481C450.83 24.6849 448.087 23.8033 444.352 23.8033H422.518L434.521 10.9399V56.3825Z" fill="#EEEEEE"/>
<path d="M531.018 88C518.748 88 509.183 84.5137 502.324 77.541C495.465 70.5683 492.036 60.7905 492.036 48.2076V1.92349H519.015V47.3661C519.015 53.7778 520.12 58.3461 522.33 61.071C524.54 63.7159 527.512 65.0383 531.247 65.0383C535.057 65.0383 538.029 63.7159 540.163 61.071C542.373 58.3461 543.479 53.7778 543.479 47.3661V1.92349H570V48.2076C570 60.7905 566.57 70.5683 559.711 77.541C552.852 84.5137 543.288 88 531.018 88Z" fill="#EEEEEE"/>
<path d="M403.278 86.0763H306.77L341.827 1.92334H368.31L403.278 86.0763Z" fill="#4A8068"/>
<path fill-rule="evenodd" clip-rule="evenodd" d="M341.701 1.72314H368.433L403.568 86.2769H306.477L341.701 1.72314ZM341.95 2.12387L307.06 85.8761H402.986L368.184 2.12387H341.95Z" fill="#4A8068"/>
<path d="M209.219 86.0763H130.34H130.149V1.92334H152.441L182.735 40.0929V1.92334H209.028L209.219 86.0763Z" fill="#E62C20"/>
<path fill-rule="evenodd" clip-rule="evenodd" d="M129.958 1.72314H152.529L182.544 39.5403V1.72314H209.217L209.409 86.2769H129.958V1.72314ZM130.339 2.12387V85.8761H209.027L208.837 2.12387H182.925V40.6458L152.351 2.12387H130.339Z" fill="#E62C20"/>
<path d="M241.988 70.2475V17.5517L260.469 15.3477L295.336 31.3768L275.14 70.2475H241.988Z" fill="#EEEEEE"/>
<path fill-rule="evenodd" clip-rule="evenodd" d="M260.5 15.1431L295.604 31.2814L275.254 70.4484H241.799V17.3733L260.5 15.1431ZM242.18 17.7312V70.0477H275.028L295.07 31.4733L260.441 15.5534L242.18 17.7312Z" fill="#EEEEEE"/>
</svg>
