<svg width="829" height="44" viewBox="0 0 829 44" fill="none" xmlns="http://www.w3.org/2000/svg">
<path d="M13.0841 18.6746H31.4019V29.2608H13.0841V18.6746ZM14.0357 42.5828H0V0.95157H33.8403V11.5378H14.0357V42.5828Z" fill="#EEEEEE"/>
<path d="M51.1205 16.4146H69.6761V26.5251H51.1205V16.4146ZM52.072 31.9966H72.8877V42.5828H38.2743V0.95157H72.1145V11.5378H52.072V31.9966Z" fill="#EEEEEE"/>
<path d="M93.8134 43.5344C90.3243 43.5344 86.9542 43.1379 83.703 42.3449C80.4518 41.5519 77.7755 40.5211 75.6741 39.2523L80.194 29.0229C82.1765 30.1727 84.377 31.1045 86.7956 31.8182C89.2538 32.4922 91.6327 32.8292 93.9324 32.8292C95.2804 32.8292 96.3311 32.7499 97.0844 32.5913C97.8774 32.3931 98.4523 32.1354 98.8092 31.8182C99.166 31.4613 99.3444 31.045 99.3444 30.5692C99.3444 29.8159 98.9281 29.2212 98.0955 28.785C97.2629 28.3489 96.1527 27.9921 94.765 27.7145C93.4169 27.3973 91.9301 27.0801 90.3045 26.7629C88.6789 26.4061 87.0335 25.9501 85.3682 25.3951C83.7426 24.84 82.236 24.1065 80.8482 23.1946C79.5002 22.2826 78.4098 21.0932 77.5772 19.6262C76.7446 18.1195 76.3283 16.256 76.3283 14.0357C76.3283 11.4585 77.042 9.11923 78.4693 7.01784C79.9363 4.8768 82.0972 3.1719 84.9519 1.90314C87.8463 0.634381 91.4345 0 95.7165 0C98.5316 0 101.307 0.297365 104.043 0.892097C106.779 1.48683 109.237 2.39875 111.417 3.62786L107.195 13.7978C105.133 12.7669 103.131 11.9938 101.188 11.4783C99.2849 10.9629 97.4214 10.7052 95.5976 10.7052C94.2495 10.7052 93.179 10.8241 92.386 11.062C91.5931 11.2999 91.0182 11.6171 90.6613 12.0136C90.3441 12.4101 90.1855 12.8462 90.1855 13.322C90.1855 14.0357 90.6019 14.6106 91.4345 15.0467C92.2671 15.4432 93.3574 15.7802 94.7055 16.0578C96.0932 16.3353 97.5999 16.6327 99.2255 16.9499C100.891 17.2671 102.536 17.7032 104.162 18.2583C105.787 18.8134 107.274 19.5469 108.622 20.4588C110.01 21.3707 111.12 22.5602 111.953 24.0272C112.785 25.4942 113.202 27.318 113.202 29.4987C113.202 32.0362 112.468 34.3755 111.001 36.5166C109.574 38.6179 107.433 40.3228 104.578 41.6312C101.723 42.9 98.1351 43.5344 93.8134 43.5344Z" fill="#EEEEEE"/>
<path d="M125.837 42.5828V11.8352H113.645V0.95157H152.065V11.8352H139.873V42.5828H125.837Z" fill="#EEEEEE"/>
<path d="M155.711 42.5828V0.95157H169.746V42.5828H155.711Z" fill="#EEEEEE"/>
<path d="M189.587 42.5828L171.983 0.95157H187.089L201.422 36.1002H192.442L207.191 0.95157H220.989L203.385 42.5828H189.587Z" fill="#EEEEEE"/>
<path d="M216.356 42.5828L234.554 0.95157H248.352L266.551 42.5828H252.04L238.599 7.61257H244.07L230.629 42.5828H216.356ZM227.18 35.3271L230.748 25.2166H249.898L253.467 35.3271H227.18Z" fill="#EEEEEE"/>
<path d="M268.791 42.5828V0.95157H282.827V31.6992H301.62V42.5828H268.791Z" fill="#EEEEEE"/>
<path d="M221.24 0.89209H171.877L189.422 42.8207H203.398L221.24 0.89209Z" fill="#E62C20"/>
<path d="M216.185 42.8208H266.737L248.3 0.594822H234.324L216.185 42.8208Z" fill="#F69722"/>
<path d="M356.203 43.5344C352.833 43.5344 349.721 43.019 346.866 41.9881C344.051 40.9176 341.593 39.4109 339.491 37.4681C337.43 35.5253 335.824 33.2257 334.674 30.5692C333.524 27.9128 332.949 24.9787 332.949 21.7672C332.949 18.5556 333.524 15.6216 334.674 12.9652C335.824 10.3087 337.449 8.00906 339.551 6.06627C341.652 4.12347 344.13 2.63664 346.985 1.60578C349.879 0.535259 353.051 0 356.501 0C360.624 0 364.292 0.693853 367.503 2.08156C370.754 3.46927 373.431 5.45171 375.532 8.02888L366.552 15.9388C365.243 14.4322 363.816 13.3022 362.27 12.5488C360.763 11.7559 359.078 11.3594 357.214 11.3594C355.668 11.3594 354.26 11.5973 352.992 12.0731C351.763 12.5488 350.712 13.2427 349.84 14.1546C348.967 15.0665 348.293 16.1569 347.818 17.4257C347.342 18.6944 347.104 20.1416 347.104 21.7672C347.104 23.3135 347.342 24.7409 347.818 26.0493C348.293 27.318 348.967 28.4084 349.84 29.3203C350.712 30.2322 351.743 30.9459 352.932 31.4613C354.161 31.9371 355.529 32.175 357.036 32.175C358.622 32.175 360.168 31.9173 361.675 31.4019C363.181 30.8468 364.787 29.915 366.492 28.6066L374.343 38.2413C371.805 39.9462 368.911 41.2546 365.659 42.1665C362.408 43.0784 359.256 43.5344 356.203 43.5344ZM362.151 36.4571V20.6372H374.343V38.2413L362.151 36.4571Z" fill="#EEEEEE"/>
<path d="M375.803 42.5828L394.002 0.95157H407.8L425.998 42.5828H411.487L398.046 7.61257H403.517L390.076 42.5828H375.803ZM386.627 35.3271L390.195 25.2166H409.346L412.914 35.3271H386.627Z" fill="#EEEEEE"/>
<path d="M428.238 42.5828V0.95157H448.757C453.395 0.95157 457.479 1.80402 461.008 3.50892C464.537 5.17417 467.292 7.5531 469.275 10.6457C471.257 13.7383 472.248 17.4256 472.248 21.7077C472.248 26.0294 471.257 29.7564 469.275 32.8887C467.292 35.9813 464.537 38.38 461.008 40.0849C457.479 41.7502 453.395 42.5828 448.757 42.5828H428.238ZM442.274 31.6397H448.162C450.144 31.6397 451.869 31.2631 453.336 30.5098C454.843 29.7564 456.012 28.6463 456.845 27.1793C457.678 25.6726 458.094 23.8488 458.094 21.7077C458.094 19.6063 457.678 17.8221 456.845 16.3551C456.012 14.8881 454.843 13.778 453.336 13.0246C451.869 12.2713 450.144 11.8946 448.162 11.8946H442.274V31.6397Z" fill="#EEEEEE"/>
<path d="M487.029 43.5344C483.778 43.5344 480.844 43.019 478.227 41.9881C475.61 40.9176 473.429 39.3713 471.685 37.3492L479.238 28.4282C480.348 29.7763 481.438 30.8071 482.509 31.5208C483.58 32.1948 484.69 32.5318 485.84 32.5318C488.853 32.5318 490.359 30.8071 490.359 27.3577V11.5378H476.205V0.95157H504.217V26.5251C504.217 32.2345 502.75 36.4967 499.816 39.3118C496.882 42.1269 492.619 43.5344 487.029 43.5344Z" fill="#EEEEEE"/>
<path d="M505.262 42.5828L523.461 0.95157H537.258L555.457 42.5828H540.946L527.505 7.61257H532.976L519.535 42.5828H505.262ZM516.086 35.3271L519.654 25.2166H538.805L542.373 35.3271H516.086Z" fill="#EEEEEE"/>
<path d="M584.698 0.95157H598.734V42.5828H584.698V0.95157ZM571.733 42.5828H557.697V0.95157H571.733V42.5828ZM585.65 27.2387H570.781V15.7009H585.65V27.2387Z" fill="#EEEEEE"/>
<path d="M434.411 35.7434V6.00684H461.174V35.7434H434.411Z" fill="#EEEEEE"/>
<path d="M504.886 42.5825H555.438L537.002 0.356541H523.026L504.886 42.5825Z" fill="#9C4A9A"/>
<path d="M375.83 42.5825H426.382L407.945 0.356541H393.969L375.83 42.5825Z" fill="#4A8068"/>
<path d="M630.111 43.0429V1.41162H641.649L658.302 28.5909H652.235L668.412 1.41162H679.95L680.069 43.0429H667.282L667.163 20.6809H669.185L658.123 39.2961H651.938L640.4 20.6809H642.898V43.0429H630.111Z" fill="#EEEEEE"/>
<path d="M682.335 43.0429L700.534 1.41162H714.331L732.53 43.0429H718.019L704.578 8.07262H710.049L696.608 43.0429H682.335ZM693.159 35.7871L696.727 25.6767H715.878L719.446 35.7871H693.159Z" fill="#EEEEEE"/>
<path d="M734.77 43.0429V1.41162H755.288C759.927 1.41162 764.011 2.26407 767.54 3.96897C771.069 5.63422 773.824 8.01315 775.807 11.1058C777.789 14.1984 778.78 17.8857 778.78 22.1678C778.78 26.4895 777.789 30.2165 775.807 33.3487C773.824 36.4413 771.069 38.8401 767.54 40.545C764.011 42.2102 759.927 43.0429 755.288 43.0429H734.77ZM748.806 32.0998H754.694C756.676 32.0998 758.401 31.7231 759.868 30.9698C761.375 30.2165 762.544 29.1063 763.377 27.6393C764.209 26.1327 764.626 24.3088 764.626 22.1678C764.626 20.0664 764.209 18.2822 763.377 16.8152C762.544 15.3482 761.375 14.238 759.868 13.4847C758.401 12.7314 756.676 12.3547 754.694 12.3547H748.806V32.0998Z" fill="#EEEEEE"/>
<path d="M778.805 43.0429L797.003 1.41162H810.801L829 43.0429H814.488L801.048 8.07262H806.519L793.078 43.0429H778.805ZM789.629 35.7871L793.197 25.6767H812.347L815.916 35.7871H789.629Z" fill="#EEEEEE"/>
<path d="M778.377 43.0425H828.93L810.493 0.816502H796.517L778.377 43.0425Z" fill="#F69722"/>
<path d="M641.589 1.41162H629.992V43.0429H680.247V1.41162H668.352L655.29 23.258L641.589 1.41162Z" fill="#E62C20"/>
</svg>
