<svg width="1277" height="184" viewBox="0 0 1277 184" fill="none" xmlns="http://www.w3.org/2000/svg">
<path d="M29.33 69.12C38.92 69.12 46.48 65.62 51.31 59.32L40.88 50.01C38.01 53.65 34.58 55.75 30.17 55.75C23.31 55.75 18.69 50.99 18.69 43.5C18.69 36.01 23.31 31.25 30.17 31.25C34.58 31.25 38.01 33.35 40.88 36.99L51.31 27.68C46.48 21.38 38.92 17.88 29.33 17.88C13.58 17.88 2.03 28.45 2.03 43.5C2.03 58.55 13.58 69.12 29.33 69.12ZM92.0763 68H109.156L87.7363 19H71.4963L50.0762 68H66.8763L70.1663 59.46H88.7863L92.0763 68ZM74.7163 47.56L79.4763 35.24L84.2363 47.56H74.7163ZM143.993 68H163.103L142.523 40.56L162.123 19H144.133L128.033 36.78V19H111.793V68H128.033V55.89L131.743 51.76L143.993 68ZM194.648 68H212.288L201.998 52.88C207.878 49.87 211.238 44.55 211.238 37.48C211.238 26.14 202.558 19 188.908 19H165.318V68H181.838V55.68H186.318L194.648 68ZM194.578 37.48C194.578 41.05 192.408 43.22 187.858 43.22H181.838V31.74H187.858C192.408 31.74 194.578 33.91 194.578 37.48ZM307.249 69.12C320.409 69.12 327.479 62.54 327.479 49.1V19H294.509V31.46H311.169V50.08C311.169 54.07 309.279 56.17 305.849 56.17C303.119 56.17 300.669 54.56 298.079 51.34L289.189 61.84C293.249 66.6 299.619 69.12 307.249 69.12ZM335.054 68H351.574V19H335.054V68ZM423.577 19L414.547 47.21L406.007 19H390.817L381.787 46.86L373.247 19H356.237L371.917 68H389.627L397.957 41.82L405.867 68H423.577L439.257 19H423.577ZM532.547 19V41.26L513.927 19H500.347V68H516.447V45.74L535.067 68H548.647V19H532.547ZM593.287 68H610.367L588.947 19H572.707L551.287 68H568.087L571.377 59.46H589.997L593.287 68ZM575.927 47.56L580.687 35.24L585.447 47.56H575.927ZM666.19 68H685.3L664.72 40.56L684.32 19H666.33L650.23 36.78V19H633.99V68H650.23V55.89L653.94 51.76L666.19 68ZM703.755 55.54V49.1H724.475V37.2H703.755V31.46H727.345V19H687.515V68H728.255V55.54H703.755ZM763.945 68H781.585L771.295 52.88C777.175 49.87 780.535 44.55 780.535 37.48C780.535 26.14 771.855 19 758.205 19H734.615V68H751.135V55.68H755.615L763.945 68ZM763.875 37.48C763.875 41.05 761.705 43.22 757.155 43.22H751.135V31.74H757.155C761.705 31.74 763.875 33.91 763.875 37.48ZM796.73 68H813.25V31.81H827.6V19H782.38V31.81H796.73V68ZM920.697 54.56C918.667 55.4 916.707 55.75 914.677 55.75C907.607 55.75 902.987 50.85 902.987 43.5C902.987 35.94 907.607 31.25 914.887 31.25C919.227 31.25 922.797 33.07 925.877 36.64L936.447 27.33C931.477 21.24 923.707 17.88 914.047 17.88C897.877 17.88 886.327 28.45 886.327 43.5C886.327 58.55 897.877 69.12 913.697 69.12C920.907 69.12 929.097 66.95 935.047 62.89V42.17H920.697V54.56ZM978.766 68H995.846L974.426 19H958.186L936.766 68H953.566L956.856 59.46H975.476L978.766 68ZM961.406 47.56L966.166 35.24L970.926 47.56H961.406ZM1101.95 68H1119.03L1097.61 19H1081.37L1059.95 68H1076.75L1080.04 59.46H1098.66L1101.95 68ZM1084.59 47.56L1089.35 35.24L1094.11 47.56H1084.59Z" fill="white"/>
<path d="M254.156 68H271.236L249.816 19H233.576L212.156 68H228.956L232.246 59.46H250.866L254.156 68ZM236.796 47.56L241.556 35.24L246.316 47.56H236.796Z" fill="#4A8068"/>
<path d="M480.631 68H497.711L476.291 19H460.051L438.631 68H455.431L458.721 59.46H477.341L480.631 68ZM463.271 47.56L468.031 35.24L472.791 47.56H463.271Z" fill="#E62C20"/>
<path d="M868.57 68H885.65L864.23 19H847.99L826.57 68H843.37L846.66 59.46H865.28L868.57 68ZM851.21 47.56L855.97 35.24L860.73 47.56H851.21Z" fill="#9C4A9A"/>
<path d="M1057.28 68L1057.14 19H1043.56L1028.02 45.11L1012.06 19H998.482V68H1013.53V46.44L1024.17 63.59H1031.45L1042.09 45.67L1042.23 68H1057.28Z" fill="#FCAC23"/>
<path d="M1051.5 68H1000.5L1007 35.5L1031.5 48.5L1048.5 39.5L1051.5 68Z" fill="#FCAC23"/>
<path d="M269 68H213.5L242 25L269 68Z" fill="#4A8068"/>
<path d="M176.5 46V28.5L195.5 27.5L200.5 46H176.5Z" fill="white"/>
<path d="M439.5 68L465.5 29L490 68H439.5Z" fill="#E62C20"/>
<path d="M833.5 68L852.5 34L854.5 32.5L874.296 68H833.5Z" fill="#9C4A9A"/>
<path d="M1081.5 50L1090 30L1097 51L1081.5 50Z" fill="white"/>
<path d="M747.5 45L748 30L767 28.5L769.5 44L747.5 45Z" fill="white"/>
<path d="M573 49.5L581 31.5L589 51L573 49.5Z" fill="white"/>
</svg>
