<svg width="281" height="165" viewBox="0 0 281 165" fill="none" xmlns="http://www.w3.org/2000/svg">
<path d="M0.749268 5.01855H280.338" stroke="#EEEEEE" stroke-width="10"/>
<path d="M0.749329 159.938H280.338" stroke="#EEEEEE" stroke-width="10"/>
<path d="M11.2914 34.9945H25.4083V43.1529H11.2914V34.9945ZM12.0247 53.4198H1.20789V21.3359H27.2875V29.4944H12.0247V53.4198Z" fill="#EEEEEE"/>
<path d="M40.6048 33.2528H54.9051V41.0446H40.6048V33.2528ZM41.3382 45.2613H57.3801V53.4198H30.7047V21.3359H56.7843V29.4944H41.3382V45.2613Z" fill="#EEEEEE"/>
<path d="M73.507 54.1531C70.818 54.1531 68.2208 53.8476 65.7152 53.2365C63.2096 52.6253 61.147 51.8309 59.5275 50.8531L63.0109 42.9696C64.5387 43.8557 66.2346 44.5738 68.0985 45.1238C69.993 45.6433 71.8264 45.903 73.5986 45.903C74.6375 45.903 75.4473 45.8419 76.0278 45.7197C76.639 45.5669 77.082 45.3683 77.357 45.1238C77.632 44.8488 77.7695 44.528 77.7695 44.1613C77.7695 43.5807 77.4487 43.1224 76.807 42.7863C76.1653 42.4502 75.3098 42.1751 74.2403 41.9613C73.2014 41.7168 72.0555 41.4724 70.8027 41.2279C69.5499 40.9529 68.2819 40.6015 66.9985 40.1737C65.7457 39.7459 64.5846 39.1807 63.5151 38.4779C62.4762 37.7751 61.6359 36.8584 60.9942 35.7278C60.3526 34.5667 60.0317 33.1305 60.0317 31.4194C60.0317 29.4333 60.5817 27.6304 61.6818 26.011C62.8123 24.3609 64.4776 23.047 66.6777 22.0692C68.9083 21.0914 71.6736 20.6025 74.9737 20.6025C77.1431 20.6025 79.2821 20.8317 81.3904 21.2901C83.4988 21.7484 85.3933 22.4512 87.0739 23.3984L83.8196 31.2361C82.2307 30.4416 80.6876 29.8458 79.1904 29.4485C77.7237 29.0513 76.2876 28.8527 74.882 28.8527C73.8431 28.8527 73.0181 28.9444 72.4069 29.1277C71.7958 29.311 71.3528 29.5555 71.0778 29.861C70.8333 30.1666 70.7111 30.5027 70.7111 30.8694C70.7111 31.4194 71.0319 31.8625 71.6736 32.1986C72.3153 32.5041 73.1556 32.7639 74.1945 32.9778C75.2639 33.1917 76.4251 33.4208 77.6779 33.6653C78.9612 33.9097 80.2293 34.2458 81.4821 34.6736C82.7349 35.1014 83.8808 35.6667 84.9197 36.3695C85.9891 37.0723 86.8447 37.989 87.4864 39.1195C88.1281 40.2501 88.4489 41.6557 88.4489 43.3363C88.4489 45.2919 87.8836 47.0947 86.753 48.7447C85.653 50.3642 84.003 51.6781 81.8029 52.6864C79.6029 53.6642 76.8376 54.1531 73.507 54.1531Z" fill="#EEEEEE"/>
<path d="M98.1869 53.4198V29.7235H88.7909V21.3359H118.4V29.7235H109.004V53.4198H98.1869Z" fill="#EEEEEE"/>
<path d="M121.209 53.4198V21.3359H132.026V53.4198H121.209Z" fill="#EEEEEE"/>
<path d="M147.317 53.4198L133.75 21.3359H145.392L156.438 48.4239H149.517L160.884 21.3359H171.517L157.95 53.4198H147.317Z" fill="#EEEEEE"/>
<path d="M167.946 53.4198L181.972 21.3359H192.605L206.63 53.4198H195.447L185.088 26.4693H189.305L178.947 53.4198H167.946ZM176.288 47.828L179.038 40.0362H193.797L196.547 47.828H176.288Z" fill="#EEEEEE"/>
<path d="M208.357 53.4198V21.3359H219.174V45.0321H233.657V53.4198H208.357Z" fill="#EEEEEE"/>
<path d="M171.711 21.29H133.669L147.19 53.6031H157.961L171.711 21.29Z" fill="#E62C20"/>
<path d="M167.815 53.6035H206.774L192.565 21.0613H181.794L167.815 53.6035Z" fill="#F69722"/>
<path d="M92.9217 101.363C90.3244 101.363 87.9258 100.966 85.7257 100.171C83.5563 99.3464 81.6618 98.1853 80.0423 96.688C78.4534 95.1908 77.2159 93.4185 76.3297 91.3713C75.4436 89.324 75.0005 87.0628 75.0005 84.5878C75.0005 82.1128 75.4436 79.8516 76.3297 77.8043C77.2159 75.7571 78.4687 73.9848 80.0881 72.4876C81.7076 70.9903 83.6174 69.8445 85.8174 69.05C88.048 68.225 90.4925 67.8125 93.1509 67.8125C96.3287 67.8125 99.1552 68.3472 101.63 69.4167C104.136 70.4862 106.198 72.014 107.818 74.0001L100.897 80.0961C99.8885 78.9349 98.7885 78.0641 97.5968 77.4835C96.4357 76.8724 95.137 76.5668 93.7009 76.5668C92.5092 76.5668 91.4245 76.7502 90.4467 77.1168C89.4994 77.4835 88.6897 78.0182 88.0175 78.721C87.3452 79.4238 86.8258 80.2641 86.4591 81.2419C86.0924 82.2197 85.9091 83.335 85.9091 84.5878C85.9091 85.7795 86.0924 86.8795 86.4591 87.8879C86.8258 88.8657 87.3452 89.7059 88.0175 90.4087C88.6897 91.1115 89.4841 91.6615 90.4008 92.0588C91.3481 92.4254 92.4023 92.6088 93.5634 92.6088C94.7856 92.6088 95.9773 92.4102 97.1384 92.0129C98.2996 91.5851 99.5371 90.8671 100.851 89.8587L106.901 97.2839C104.946 98.5978 102.715 99.6061 100.209 100.309C97.7037 101.012 95.2745 101.363 92.9217 101.363ZM97.5051 95.9088V83.717H106.901V97.2839L97.5051 95.9088Z" fill="#EEEEEE"/>
<path d="M108.027 100.63L122.052 68.5458H132.685L146.711 100.63H135.527L125.169 73.6793H129.385L119.027 100.63H108.027ZM116.368 95.038L119.118 87.2462H133.877L136.627 95.038H116.368Z" fill="#EEEEEE"/>
<path d="M148.437 100.63V68.5458H164.25C167.825 68.5458 170.972 69.2028 173.692 70.5167C176.411 71.8001 178.535 73.6334 180.062 76.0168C181.59 78.4002 182.354 81.2419 182.354 84.542C182.354 87.8726 181.59 90.7449 180.062 93.1588C178.535 95.5422 176.411 97.3908 173.692 98.7047C170.972 99.9881 167.825 100.63 164.25 100.63H148.437ZM159.254 92.1963H163.791C165.319 92.1963 166.648 91.906 167.779 91.3254C168.94 90.7449 169.841 89.8893 170.483 88.7587C171.125 87.5976 171.446 86.192 171.446 84.542C171.446 82.9225 171.125 81.5475 170.483 80.4169C169.841 79.2863 168.94 78.4307 167.779 77.8502C166.648 77.2696 165.319 76.9793 163.791 76.9793H159.254V92.1963Z" fill="#EEEEEE"/>
<path d="M193.745 101.363C191.239 101.363 188.978 100.966 186.962 100.171C184.945 99.3464 183.264 98.1547 181.92 96.5963L187.741 89.7212C188.596 90.7601 189.437 91.5546 190.262 92.1046C191.087 92.6241 191.942 92.8838 192.828 92.8838C195.151 92.8838 196.312 91.5546 196.312 88.8962V76.7043H185.403V68.5458H206.991V88.2545C206.991 92.6546 205.861 95.9394 203.599 98.1089C201.338 100.278 198.053 101.363 193.745 101.363Z" fill="#EEEEEE"/>
<path d="M207.796 100.63L221.822 68.5458H232.455L246.48 100.63H235.297L224.938 73.6793H229.155L218.797 100.63H207.796ZM216.138 95.038L218.888 87.2462H233.647L236.397 95.038H216.138Z" fill="#EEEEEE"/>
<path d="M269.015 68.5458H279.832V100.63H269.015V68.5458ZM259.024 100.63H248.207V68.5458H259.024V100.63ZM269.749 88.8045H258.29V79.9127H269.749V88.8045Z" fill="#EEEEEE"/>
<path d="M153.194 95.3585V72.4414H173.819V95.3585H153.194Z" fill="#EEEEEE"/>
<path d="M207.507 100.63H246.466L232.257 68.0876H221.486L207.507 100.63Z" fill="#9C4A9A"/>
<path d="M108.047 100.63H147.006L132.797 68.0876H122.026L108.047 100.63Z" fill="#4A8068"/>
<path d="M1.29926 143.897V111.813H10.1911L23.0246 132.76H18.3496L30.8165 111.813H39.7083L39.7999 143.897H29.9456L29.8539 126.664H31.4123L22.8871 141.01H18.1204L9.22856 126.664H11.1536V143.897H1.29926Z" fill="#EEEEEE"/>
<path d="M41.5463 143.897L55.5715 111.813H66.2051L80.2303 143.897H69.0468L58.6883 116.947H62.905L52.5465 143.897H41.5463ZM49.8881 138.306L52.6382 130.514H67.3968L70.1468 138.306H49.8881Z" fill="#EEEEEE"/>
<path d="M81.9566 143.897V111.813H97.7694C101.344 111.813 104.492 112.47 107.211 113.784C109.931 115.068 112.054 116.901 113.582 119.284C115.11 121.668 115.874 124.51 115.874 127.81C115.874 131.14 115.11 134.012 113.582 136.426C112.054 138.81 109.931 140.658 107.211 141.972C104.492 143.256 101.344 143.897 97.7694 143.897H81.9566ZM92.7735 135.464H97.3111C98.8389 135.464 100.168 135.174 101.299 134.593C102.46 134.012 103.361 133.157 104.003 132.026C104.645 130.865 104.965 129.46 104.965 127.81C104.965 126.19 104.645 124.815 104.003 123.685C103.361 122.554 102.46 121.698 101.299 121.118C100.168 120.537 98.8389 120.247 97.3111 120.247H92.7735V135.464Z" fill="#EEEEEE"/>
<path d="M115.893 143.897L129.918 111.813H140.551L154.577 143.897H143.393L133.034 116.947H137.251L126.893 143.897H115.893ZM124.234 138.306L126.984 130.514H141.743L144.493 138.306H124.234Z" fill="#EEEEEE"/>
<path d="M115.564 143.896H154.523L140.314 111.354H129.543L115.564 143.896Z" fill="#F69722"/>
<path d="M10.1453 111.813H1.20764V143.897H39.9375V111.813H30.7707L20.5803 128.725L10.1453 111.813Z" fill="#E62C20"/>
<path d="M167.173 143.255V136.609L178.769 125.884C179.502 125.181 180.037 124.57 180.373 124.05C180.74 123.531 180.984 123.072 181.107 122.675C181.229 122.247 181.29 121.85 181.29 121.484C181.29 120.689 181.03 120.078 180.511 119.65C179.991 119.192 179.212 118.963 178.173 118.963C177.226 118.963 176.324 119.222 175.469 119.742C174.613 120.231 173.941 120.964 173.452 121.942L165.294 117.863C166.455 115.663 168.197 113.875 170.519 112.5C172.841 111.125 175.729 110.438 179.181 110.438C181.718 110.438 183.964 110.85 185.919 111.675C187.875 112.5 189.402 113.661 190.503 115.158C191.603 116.656 192.153 118.428 192.153 120.475C192.153 121.514 192.015 122.553 191.74 123.592C191.496 124.631 190.976 125.731 190.182 126.892C189.387 128.023 188.211 129.291 186.652 130.696L177.944 138.626L176.248 134.867H192.886V143.255H167.173Z" fill="#EEEEEE"/>
<path d="M209.634 143.988C206.792 143.988 204.271 143.331 202.071 142.017C199.902 140.703 198.19 138.794 196.938 136.288C195.715 133.782 195.104 130.757 195.104 127.213C195.104 123.668 195.715 120.643 196.938 118.138C198.19 115.632 199.902 113.722 202.071 112.408C204.271 111.094 206.792 110.438 209.634 110.438C212.475 110.438 214.981 111.094 217.15 112.408C219.35 113.722 221.062 115.632 222.284 118.138C223.537 120.643 224.163 123.668 224.163 127.213C224.163 130.757 223.537 133.782 222.284 136.288C221.062 138.794 219.35 140.703 217.15 142.017C214.981 143.331 212.475 143.988 209.634 143.988ZM209.634 135.325C210.336 135.325 210.963 135.081 211.513 134.592C212.063 134.103 212.491 133.263 212.796 132.071C213.132 130.88 213.3 129.26 213.3 127.213C213.3 125.135 213.132 123.516 212.796 122.354C212.491 121.163 212.063 120.322 211.513 119.834C210.963 119.345 210.336 119.1 209.634 119.1C208.931 119.1 208.304 119.345 207.754 119.834C207.204 120.322 206.761 121.163 206.425 122.354C206.12 123.516 205.967 125.135 205.967 127.213C205.967 129.26 206.12 130.88 206.425 132.071C206.761 133.263 207.204 134.103 207.754 134.592C208.304 135.081 208.931 135.325 209.634 135.325Z" fill="#EEEEEE"/>
<path d="M226.346 143.255V136.609L237.942 125.884C238.675 125.181 239.21 124.57 239.546 124.05C239.912 123.531 240.157 123.072 240.279 122.675C240.401 122.247 240.462 121.85 240.462 121.484C240.462 120.689 240.203 120.078 239.683 119.65C239.164 119.192 238.385 118.963 237.346 118.963C236.398 118.963 235.497 119.222 234.642 119.742C233.786 120.231 233.114 120.964 232.625 121.942L224.466 117.863C225.627 115.663 227.369 113.875 229.691 112.5C232.014 111.125 234.901 110.438 238.354 110.438C240.89 110.438 243.136 110.85 245.092 111.675C247.047 112.5 248.575 113.661 249.675 115.158C250.775 116.656 251.325 118.428 251.325 120.475C251.325 121.514 251.188 122.553 250.913 123.592C250.668 124.631 250.149 125.731 249.354 126.892C248.56 128.023 247.383 129.291 245.825 130.696L237.117 138.626L235.421 134.867H252.059V143.255H226.346Z" fill="#EEEEEE"/>
<path d="M254.231 143.255V136.609L265.827 125.884C266.56 125.181 267.095 124.57 267.431 124.05C267.798 123.531 268.042 123.072 268.165 122.675C268.287 122.247 268.348 121.85 268.348 121.484C268.348 120.689 268.088 120.078 267.569 119.65C267.049 119.192 266.27 118.963 265.231 118.963C264.284 118.963 263.383 119.222 262.527 119.742C261.671 120.231 260.999 120.964 260.51 121.942L252.352 117.863C253.513 115.663 255.255 113.875 257.577 112.5C259.899 111.125 262.787 110.438 266.24 110.438C268.776 110.438 271.022 110.85 272.977 111.675C274.933 112.5 276.461 113.661 277.561 115.158C278.661 116.656 279.211 118.428 279.211 120.475C279.211 121.514 279.073 122.553 278.798 123.592C278.554 124.631 278.034 125.731 277.24 126.892C276.445 128.023 275.269 129.291 273.71 130.696L265.002 138.626L263.306 134.867H279.944V143.255H254.231Z" fill="#EEEEEE"/>
<ellipse cx="210.119" cy="126.984" rx="6.64595" ry="12.6044" fill="#EEEEEE"/>
<path d="M1.20758 90.4961L1.20758 92.376H8.10057V90.4961H9.35384V88.6162H11.2337V86.7363H13.1136V85.483H6.22066V87.3629H4.96739V88.6162H3.08749V90.4961H1.20758Z" fill="#4A8068"/>
<path d="M1.20758 78.5899L1.20758 76.71H8.10057V78.5899H9.35384V80.4698H11.2337V82.3497H13.1136V83.6029H6.22066V81.723H4.96739V80.4698H3.08749V78.5899H1.20758Z" fill="#4A8068"/>
<path d="M13.7406 81.0967L15.6205 81.0967L15.6205 74.2037L13.7406 74.2037L13.7406 72.9504L11.8607 72.9504L11.8607 71.0705L9.98077 71.0705L9.98077 69.1906L8.7275 69.1906L8.7275 76.0836L10.6074 76.0836L10.6074 77.3369L11.8607 77.3369L11.8607 79.2168L13.7406 79.2168L13.7406 81.0967Z" fill="#4A8068"/>
<path d="M22.5131 69.1914L24.393 69.1914L24.393 76.0844L22.5131 76.0844L22.5131 77.3377L20.6332 77.3377L20.6332 79.2176L18.7533 79.2176L18.7533 81.0975L17.5 81.0975L17.5 74.2045L19.3799 74.2045L19.3799 72.9512L20.6332 72.9512L20.6332 71.0713L22.5131 71.0713L22.5131 69.1914Z" fill="#4A8068"/>
<path d="M31.9128 78.5899V76.71H25.0198V78.5899H23.7665V80.4698H21.8866V82.3497H20.0067V83.6029H26.8997V81.723H28.153V80.4698H30.0329V78.5899H31.9128Z" fill="#4A8068"/>
<path d="M31.9128 90.4961V92.376H25.0198V90.4961H23.7665V88.6162H21.8866V86.7363H20.0067V85.483H26.8997V87.3629H28.153V88.6162H30.0329V90.4961H31.9128Z" fill="#4A8068"/>
<path d="M10.6071 99.8955L8.72723 99.8955L8.72723 93.0025L10.6071 93.0025L10.6071 91.7493L12.487 91.7493L12.487 89.8693L14.367 89.8693L14.367 87.9894L15.6202 87.9894L15.6202 94.8824L13.7403 94.8824L13.7403 96.1357L12.487 96.1357L12.487 98.0156L10.6071 98.0156L10.6071 99.8955Z" fill="#4A8068"/>
<path d="M19.3804 87.9902L17.5005 87.9902L17.5005 94.8832L19.3804 94.8832L19.3804 96.1365L21.2603 96.1365L21.2603 98.0164L23.1402 98.0164L23.1402 99.8963L24.3935 99.8963L24.3935 93.0033L22.5136 93.0033L22.5136 91.75L21.2603 91.75L21.2603 89.8701L19.3804 89.8701L19.3804 87.9902Z" fill="#4A8068"/>
<rect x="15.62" y="85.4834" width="1.87991" height="1.87991" transform="rotate(-90 15.62 85.4834)" fill="#DF3727"/>
<path d="M37.8753 90.4961V92.376H44.7683V90.4961H46.0216V88.6162H47.9015V86.7363H49.7814V85.483H42.8884V87.3629H41.6351V88.6162H39.7552V90.4961H37.8753Z" fill="#F69722"/>
<path d="M37.8753 78.5899V76.71H44.7683V78.5899H46.0216V80.4698H47.9015V82.3497H49.7814V83.6029H42.8884V81.723H41.6351V80.4698H39.7552V78.5899H37.8753Z" fill="#F69722"/>
<path d="M50.4078 81.0967L52.2877 81.0967L52.2877 74.2037L50.4078 74.2037L50.4078 72.9504L48.5279 72.9504L48.5279 71.0705L46.648 71.0705L46.648 69.1906L45.3947 69.1906L45.3947 76.0836L47.2746 76.0836L47.2746 77.3369L48.5279 77.3369L48.5279 79.2168L50.4078 79.2168L50.4078 81.0967Z" fill="#F69722"/>
<path d="M59.1803 69.1914L61.0602 69.1914L61.0602 76.0844L59.1803 76.0844L59.1803 77.3377L57.3004 77.3377L57.3004 79.2176L55.4205 79.2176L55.4205 81.0975L54.1673 81.0975L54.1673 74.2045L56.0472 74.2045L56.0472 72.9512L57.3004 72.9512L57.3004 71.0713L59.1803 71.0713L59.1803 69.1914Z" fill="#F69722"/>
<path d="M68.5799 78.5899V76.71H61.6869V78.5899H60.4336V80.4698H58.5537V82.3497H56.6738V83.6029H63.5668V81.723H64.8201V80.4698H66.7V78.5899H68.5799Z" fill="#F69722"/>
<path d="M68.5799 90.4961V92.376H61.6869V90.4961H60.4336V88.6162H58.5537V86.7363H56.6738V85.483H63.5668V87.3629H64.8201V88.6162H66.7V90.4961H68.5799Z" fill="#F69722"/>
<path d="M47.2744 99.8955L45.3945 99.8955L45.3945 93.0025L47.2744 93.0025L47.2744 91.7493L49.1543 91.7493L49.1543 89.8693L51.0342 89.8693L51.0342 87.9894L52.2875 87.9894L52.2875 94.8824L50.4076 94.8824L50.4076 96.1357L49.1543 96.1357L49.1543 98.0156L47.2744 98.0156L47.2744 99.8955Z" fill="#F69722"/>
<path d="M56.0475 87.9902L54.1676 87.9902L54.1676 94.8832L56.0475 94.8832L56.0475 96.1365L57.9274 96.1365L57.9274 98.0164L59.8073 98.0164L59.8073 99.8963L61.0606 99.8963L61.0606 93.0033L59.1807 93.0033L59.1807 91.75L57.9274 91.75L57.9274 89.8701L56.0475 89.8701L56.0475 87.9902Z" fill="#F69722"/>
<rect x="52.2877" y="85.4834" width="1.87991" height="1.87991" transform="rotate(-90 52.2877 85.4834)" fill="#4A8068"/>
<path d="M249.17 43.2832V45.1631H256.063V43.2832H257.317V41.4033H259.197V39.5234H261.076V38.2701H254.183V40.15H252.93V41.4033H251.05V43.2832H249.17Z" fill="#E62C20"/>
<path d="M249.17 31.377V29.4971H256.063V31.377H257.317V33.2569H259.197V35.1368H261.076V36.3901H254.183V34.5102H252.93V33.2569H251.05V31.377H249.17Z" fill="#E62C20"/>
<path d="M261.703 33.8838L263.583 33.8838L263.583 26.9908L261.703 26.9908L261.703 25.7375L259.823 25.7375L259.823 23.8576L257.944 23.8576L257.944 21.9777L256.69 21.9777L256.69 28.8707L258.57 28.8707L258.57 30.124L259.823 30.124L259.823 32.0039L261.703 32.0039L261.703 33.8838Z" fill="#E62C20"/>
<path d="M270.476 21.9775L272.356 21.9775L272.356 28.8705L270.476 28.8705L270.476 30.1238L268.596 30.1238L268.596 32.0037L266.716 32.0037L266.716 33.8836L265.463 33.8836L265.463 26.9906L267.343 26.9906L267.343 25.7374L268.596 25.7374L268.596 23.8574L270.476 23.8574L270.476 21.9775Z" fill="#E62C20"/>
<path d="M279.876 31.377V29.4971H272.983V31.377H271.729V33.2569H269.849V35.1368H267.97V36.3901H274.863V34.5102H276.116V33.2569H277.996V31.377H279.876Z" fill="#E62C20"/>
<path d="M279.876 43.2832V45.1631H272.983V43.2832H271.729V41.4033H269.849V39.5234H267.97V38.2701H274.863V40.15H276.116V41.4033H277.996V43.2832H279.876Z" fill="#E62C20"/>
<path d="M258.57 52.6816L256.69 52.6816L256.69 45.7887L258.57 45.7887L258.57 44.5354L260.45 44.5354L260.45 42.6555L262.33 42.6555L262.33 40.7756L263.583 40.7756L263.583 47.6686L261.703 47.6686L261.703 48.9218L260.45 48.9218L260.45 50.8017L258.57 50.8017L258.57 52.6816Z" fill="#E62C20"/>
<path d="M267.343 40.7764L265.463 40.7764L265.463 47.6694L267.343 47.6694L267.343 48.9226L269.222 48.9226L269.222 50.8025L271.102 50.8025L271.102 52.6824L272.356 52.6824L272.356 45.7894L270.476 45.7894L270.476 44.5362L269.222 44.5362L269.222 42.6563L267.343 42.6563L267.343 40.7764Z" fill="#E62C20"/>
<rect x="263.583" y="38.2695" width="1.87991" height="1.87991" transform="rotate(-90 263.583 38.2695)" fill="#F69722"/>
</svg>
