<svg width="271" height="68" viewBox="0 0 271 68" fill="none" xmlns="http://www.w3.org/2000/svg">
<rect y="6" width="271" height="62" fill="#4A8068"/>
<rect width="34.5" height="6" fill="#DF3727"/>
<rect x="34.5" width="34.5" height="6" fill="#F69722"/>
<rect x="69" width="34.5" height="6" fill="#9C4A9A"/>
<path d="M61.58 26.03H66.26V47H61.58V26.03ZM75.4738 47H70.9738V24.74H75.4738V36.17L80.4838 30.83H86.1538L80.0038 37.37L86.3938 47H81.0538L76.9438 40.82L75.4738 42.35V47ZM99.2255 39.56V30.86H103.756V47H99.2255V44.87C98.1055 46.45 96.6555 47.24 94.8755 47.24C93.1155 47.24 91.6355 46.69 90.4355 45.59C89.2355 44.47 88.6355 42.82 88.6355 40.64V30.86H93.1655V39.65C93.1655 42.13 94.0755 43.37 95.8955 43.37C96.7955 43.37 97.5755 43.05 98.2355 42.41C98.8955 41.75 99.2255 40.8 99.2255 39.56ZM113.375 34.1V41.33C113.375 41.95 113.535 42.44 113.855 42.8C114.175 43.14 114.555 43.31 114.995 43.31C115.835 43.31 116.545 42.93 117.125 42.17L118.805 45.32C117.405 46.6 115.925 47.24 114.365 47.24C112.825 47.24 111.515 46.73 110.435 45.71C109.375 44.69 108.845 43.3 108.845 41.54V34.1H106.955V30.86H108.845V26.03H113.375V30.86H117.275V34.1H113.375ZM125.718 47H121.218V30.86H125.718V47ZM121.578 28.82C121.078 28.3 120.828 27.67 120.828 26.93C120.828 26.19 121.078 25.57 121.578 25.07C122.098 24.55 122.728 24.29 123.468 24.29C124.208 24.29 124.828 24.55 125.328 25.07C125.848 25.57 126.108 26.19 126.108 26.93C126.108 27.67 125.848 28.3 125.328 28.82C124.828 29.32 124.208 29.57 123.468 29.57C122.728 29.57 122.098 29.32 121.578 28.82ZM138.338 26.03H143.018V34.64L150.938 26.03H156.728L148.388 35.3C149.108 36.3 150.438 38.17 152.378 40.91C154.318 43.63 155.768 45.66 156.728 47H151.268L145.118 38.72L143.018 41.06V47H138.338V26.03ZM172.428 47H168.198V45.05C167.038 46.51 165.598 47.24 163.878 47.24C162.178 47.24 160.748 46.75 159.588 45.77C158.428 44.77 157.848 43.45 157.848 41.81C157.848 40.15 158.448 38.91 159.648 38.09C160.848 37.27 162.488 36.86 164.568 36.86H167.928V36.77C167.928 35.05 167.018 34.19 165.198 34.19C164.418 34.19 163.588 34.35 162.708 34.67C161.848 34.97 161.118 35.35 160.518 35.81L158.508 32.9C160.628 31.36 163.048 30.59 165.768 30.59C167.728 30.59 169.328 31.08 170.568 32.06C171.808 33.04 172.428 34.59 172.428 36.71V47ZM167.898 40.85V40.07H165.078C163.278 40.07 162.378 40.63 162.378 41.75C162.378 42.33 162.588 42.78 163.008 43.1C163.448 43.4 164.068 43.55 164.868 43.55C165.668 43.55 166.368 43.31 166.968 42.83C167.588 42.33 167.898 41.67 167.898 40.85ZM191.35 38.3V47H186.82V38.18C186.82 36.9 186.62 35.96 186.22 35.36C185.84 34.76 185.21 34.46 184.33 34.46C183.47 34.46 182.7 34.79 182.02 35.45C181.36 36.09 181.03 37.04 181.03 38.3V47H176.53V30.86H181.03V32.69C182.27 31.29 183.69 30.59 185.29 30.59C186.31 30.59 187.23 30.89 188.05 31.49C188.89 32.09 189.52 32.82 189.94 33.68C190.56 32.7 191.39 31.94 192.43 31.4C193.49 30.86 194.55 30.59 195.61 30.59C197.51 30.59 199.04 31.16 200.2 32.3C201.36 33.42 201.94 35.05 201.94 37.19V47H197.41V38.18C197.41 35.7 196.5 34.46 194.68 34.46C193.78 34.46 193 34.79 192.34 35.45C191.68 36.09 191.35 37.04 191.35 38.3ZM210.532 47H206.032V30.86H210.532V47ZM206.392 28.82C205.892 28.3 205.642 27.67 205.642 26.93C205.642 26.19 205.892 25.57 206.392 25.07C206.912 24.55 207.542 24.29 208.282 24.29C209.022 24.29 209.642 24.55 210.142 25.07C210.662 25.57 210.922 26.19 210.922 26.93C210.922 27.67 210.662 28.3 210.142 28.82C209.642 29.32 209.022 29.57 208.282 29.57C207.542 29.57 206.912 29.32 206.392 28.82Z" fill="#EEEEEE"/>
</svg>
