<svg width="117" height="531" viewBox="0 0 117 531" fill="none" xmlns="http://www.w3.org/2000/svg">
<path d="M99.6922 68.0889H103.094V80.5607H99.6922V82.8284H96.2908V86.2298H92.8894V89.6312H90.6218V77.1593H94.0232V74.8917H96.2908V71.4903H99.6922V68.0889Z" fill="#9C4A9A"/>
<path d="M78.1498 68.0889H74.7484V80.5607H78.1498V82.8284H81.5512V86.2298H84.9526V89.6312H87.2202V77.1593H83.8188V74.8917H81.5512V71.4903H78.1498V68.0889Z" fill="#9C4A9A"/>
<path d="M82.6848 90.7656V94.167H70.2129V90.7656H67.9453V87.3642H64.5438V83.9627H61.1424V81.6951H73.6143V85.0965H75.8819V87.3642H79.2833V90.7656H82.6848Z" fill="#9C4A9A"/>
<path d="M61.1425 106.639V110.04H73.6143V106.639H75.8819V103.237H79.2834V99.8358H82.6848V97.5682H70.2129V100.97H67.9453V103.237H64.5439V106.639H61.1425Z" fill="#9C4A9A"/>
<path d="M78.1498 123.646H74.7484V111.174H78.1498V108.906H81.5512V105.505H84.9526V102.103H87.2202V114.575H83.8188V116.843H81.5512V120.244H78.1498V123.646Z" fill="#9C4A9A"/>
<path d="M99.6922 123.646H103.094V111.174H99.6922V108.906H96.2908V105.505H92.8894V102.103H90.6218V114.575H94.0232V116.843H96.2908V120.244H99.6922V123.646Z" fill="#9C4A9A"/>
<path d="M116.699 85.0958L116.699 81.6943L104.227 81.6943L104.227 85.0958L101.96 85.0958L101.96 88.4972L98.5582 88.4972L98.5582 91.8986L95.1568 91.8986L95.1568 94.1662L107.629 94.1662L107.629 90.7648L109.896 90.7648L109.896 88.4972L113.298 88.4972L113.298 85.0958L116.699 85.0958Z" fill="#9C4A9A"/>
<path d="M95.1568 100.97L95.1568 97.5684L107.629 97.5684L107.629 100.97L109.896 100.97L109.896 104.371L113.298 104.371L113.298 107.773L116.699 107.773L116.699 110.04L104.227 110.04L104.227 106.639L101.96 106.639L101.96 104.371L98.5582 104.371L98.5582 100.97L95.1568 100.97Z" fill="#9C4A9A"/>
<rect width="3.40142" height="3.40142" transform="matrix(-1 0 0 1 90.6215 94.167)" fill="#9C4A9A"/>
<path fill-rule="evenodd" clip-rule="evenodd" d="M93.5911 5.54443L86.2811 5.54443V8.46856H83.3565V11.3925H80.4326V14.3165H77.5089V17.2406H74.5849V20.1647H71.661V23.0886L68.7367 23.0886V26.0127H65.813V28.9367H62.8884V37.7088H65.813V40.6328H68.7364V43.5569H71.661V46.4809H74.5846V49.4049H77.5089V52.329H80.4326V55.253H83.3565V58.1769H86.2811V61.1011H93.5912V56.715H87.7426V53.7909H84.8186V50.8669H81.8949V47.9429H78.9706V45.0189H76.047V42.0949H73.1224V39.1709H70.1991V36.2467H67.2745V30.3987L70.1991 30.3987V27.4747H73.1228V24.5507H76.047V21.6266H78.9709V18.7025H81.8949V15.7786H84.8186V12.8546H87.7426V9.93048H93.5911V5.54443Z" fill="#EEEEEE"/>
<path fill-rule="evenodd" clip-rule="evenodd" d="M86.2808 5.54443L93.5909 5.54443V8.46844H96.5154V11.3925H99.4394V14.3165H102.364V17.2406H105.287V20.1646H108.211V23.0886L111.135 23.0886V26.0126H114.059V28.9366H116.983V37.7087H114.059V40.6327H111.135V43.5569H108.211V46.4809H105.287V49.4049H102.364V52.3288H99.4394V55.2529H96.5154V58.1769H93.5909V61.1009H86.2808V56.7149H92.1293V53.7909H95.0534V50.8669H97.9776V47.9428H100.901V45.0188H103.825V42.0948H106.749V39.1709H109.673V36.2466H112.597V30.3987L109.673 30.3987V27.4746H106.749V24.5507H103.825V21.6267H100.901V18.7025H97.9776V15.7786H95.0534V12.8545H92.1293V9.93048H86.2808V5.54443Z" fill="#EEEEEE"/>
<rect width="7.31007" height="7.31007" transform="matrix(-1 0 0 1 93.5908 30.3984)" fill="#EEEEEE"/>
<path d="M99.6922 318.267H103.094V330.738H99.6922V333.006H96.2908V336.408H92.8894V339.809H90.6218V327.337H94.0232V325.069H96.2908V321.668H99.6922V318.267Z" fill="#E62C20"/>
<path d="M78.1498 318.267H74.7484V330.738H78.1498V333.006H81.5512V336.408H84.9526V339.809H87.2202V327.337H83.8188V325.069H81.5512V321.668H78.1498V318.267Z" fill="#E62C20"/>
<path d="M82.6848 340.943V344.345H70.2129V340.943H67.9453V337.542H64.5438V334.14H61.1424V331.873H73.6143V335.274H75.8819V337.542H79.2833V340.943H82.6848Z" fill="#E62C20"/>
<path d="M61.1425 356.816V360.218H73.6143V356.816H75.8819V353.415H79.2834V350.014H82.6848V347.746H70.2129V351.147H67.9453V353.415H64.5439V356.816L61.1425 356.816Z" fill="#E62C20"/>
<path d="M78.1498 373.823H74.7484V361.351H78.1498V359.084H81.5512V355.682H84.9526V352.281H87.2202V364.753H83.8188V367.02H81.5512V370.422H78.1498V373.823Z" fill="#E62C20"/>
<path d="M99.6922 373.823H103.094V361.351H99.6922V359.084H96.2908V355.682H92.8894V352.281H90.6218V364.753H94.0232V367.02H96.2908V370.422H99.6922V373.823Z" fill="#E62C20"/>
<path d="M116.699 335.273L116.699 331.872L104.227 331.872L104.227 335.273L101.96 335.273L101.96 338.675L98.5582 338.675L98.5582 342.076L95.1568 342.076L95.1568 344.344L107.629 344.344L107.629 340.943L109.896 340.943L109.896 338.675L113.298 338.675L113.298 335.273L116.699 335.273Z" fill="#E62C20"/>
<path d="M95.1568 351.148L95.1568 347.746L107.629 347.746L107.629 351.148L109.896 351.148L109.896 354.549L113.298 354.549L113.298 357.95L116.699 357.95L116.699 360.218L104.227 360.218L104.227 356.817L101.96 356.817L101.96 354.549L98.5582 354.549L98.5582 351.148L95.1568 351.148Z" fill="#E62C20"/>
<rect width="3.40142" height="3.40142" transform="matrix(-1 0 0 1 90.6215 344.345)" fill="#E62C20"/>
<path d="M99.6922 193.178H103.094V205.65H99.6922V207.917H96.2908V211.319H92.8894V214.72H90.6218V202.248H94.0232V199.981H96.2908V196.579H99.6922V193.178Z" fill="#F69722"/>
<path d="M78.1498 193.178H74.7484V205.65H78.1498V207.917H81.5512V211.319H84.9526V214.72H87.2202V202.248H83.8188V199.981H81.5512V196.579H78.1498V193.178Z" fill="#F69722"/>
<path d="M82.6848 215.854V219.256H70.2129V215.854H67.9453V212.453H64.5438V209.052H61.1424V206.784H73.6143V210.185H75.8819V212.453H79.2833V215.854H82.6848Z" fill="#F69722"/>
<path d="M61.1425 231.727V235.129H73.6143V231.727H75.8819V228.326H79.2834V224.925H82.6848V222.657H70.2129V226.058H67.9453V228.326H64.5439V231.727H61.1425Z" fill="#F69722"/>
<path d="M78.1498 248.734H74.7484V236.262H78.1498V233.995H81.5512V230.593H84.9526V227.192H87.2202V239.664H83.8188V241.932H81.5512V245.333H78.1498V248.734Z" fill="#F69722"/>
<path d="M99.6922 248.734H103.094V236.262H99.6922V233.995H96.2908V230.593H92.8894V227.192H90.6218V239.664H94.0232V241.932H96.2908V245.333H99.6922V248.734Z" fill="#F69722"/>
<path d="M116.699 210.185L116.699 206.783L104.227 206.783L104.227 210.185L101.96 210.185L101.96 213.586L98.5582 213.586L98.5582 216.987L95.1568 216.987L95.1568 219.255L107.629 219.255L107.629 215.854L109.896 215.854L109.896 213.586L113.298 213.586L113.298 210.185L116.699 210.185Z" fill="#F69722"/>
<path d="M95.1568 226.059L95.1568 222.657L107.629 222.657L107.629 226.059L109.896 226.059L109.896 229.46L113.298 229.46L113.298 232.861L116.699 232.861L116.699 235.129L104.227 235.129L104.227 231.728L101.96 231.728L101.96 229.46L98.5582 229.46L98.5582 226.059L95.1568 226.059Z" fill="#F69722"/>
<rect width="3.40142" height="3.40142" transform="matrix(-1 0 0 1 90.6215 219.256)" fill="#F69722"/>
<path fill-rule="evenodd" clip-rule="evenodd" d="M93.5911 255.722H86.2811V258.646H83.3565V261.57H80.4326V264.494H77.5089V267.418H74.5849V270.342H71.661V273.266H68.7364V276.19H65.813V279.114H62.8884V287.886H65.813V290.81H68.7364V293.734H71.661V296.658H74.5846V299.582H77.5089V302.506H80.4326V305.43H83.3565V308.354H86.2811V311.279H93.5912V306.892H87.7426V303.968H84.8186V301.044H81.8949V298.12H78.9706V295.196H76.047V292.272H73.1224V289.348H70.1991V286.424H67.2745V280.576H70.1991V277.652H73.1224V274.728H76.047V271.804H78.9709V268.88H81.8949V265.956H84.8186V263.032H87.7426V260.108H93.5911V255.722Z" fill="#EEEEEE"/>
<path fill-rule="evenodd" clip-rule="evenodd" d="M86.2808 255.722H93.5909V258.646H96.5154V261.57H99.4394V264.494H102.364V267.418H105.287V270.342H108.211V273.266H111.135V276.19H114.059V279.114H116.983V287.886H114.059V290.81H111.135V293.734H108.211V296.658H105.287V299.582H102.364V302.506H99.4394V305.43H96.5154V308.354H93.5909V311.278H86.2808V306.892H92.1293V303.968H95.0534V301.044H97.9776V298.12H100.901V295.196H103.825V292.272H106.749V289.348H109.673V286.424H112.597V280.576H109.673V277.652H106.749V274.728H103.825V271.804H100.901V268.88H97.9776V265.956H95.0534V263.032H92.1293V260.108H86.2808V255.722Z" fill="#EEEEEE"/>
<rect width="7.31007" height="7.31007" transform="matrix(-1 0 0 1 93.5905 280.576)" fill="#EEEEEE"/>
<path fill-rule="evenodd" clip-rule="evenodd" d="M93.5911 130.633H86.281V133.557H83.3565V136.481H80.4325V139.405H77.5088V142.329H74.5848V145.253H71.6609V148.177H68.7367V151.101H65.813V154.025H62.8884V162.797H65.813V165.721H68.7363V168.645H71.6612V171.569H74.5848V174.493H77.5088V177.417H80.4325V180.342H83.3565V183.265H86.2811V186.19H93.5911V181.804H87.7425V178.879H84.8185V175.955H81.8949V173.031H78.9709V170.107H76.0473V167.183H73.1224V164.259H70.199V161.335H67.2744V155.487H70.199V152.563H73.1227V149.639H76.047V146.715H78.9709V143.791H81.8949V140.867H84.8185V137.943H87.7425V135.019H93.5911V130.633Z" fill="#EEEEEE"/>
<path fill-rule="evenodd" clip-rule="evenodd" d="M86.2809 130.633H93.591V133.557H96.5154V136.481H99.4395V139.405H102.364V142.329H105.287V145.253H108.211V148.177H111.135V151.101H114.059V154.025H116.984V162.797H114.059V165.721H111.135V168.645H108.211V171.569H105.287V174.493H102.364V177.417H99.4391V180.341H96.5154V183.265H93.591V186.189H86.2809V181.803H92.1294V178.879H95.0531V175.955H97.9777V173.031H100.901V170.107H103.825V167.183H106.749V164.259H109.673V161.335H112.597V155.487H109.673V152.563H106.749V149.639H103.825V146.715H100.901V143.791H97.9777V140.867H95.0534V137.943H92.1294V135.019H86.2809V130.633Z" fill="#EEEEEE"/>
<rect width="7.31007" height="7.31007" transform="matrix(-1 0 0 1 93.5906 155.487)" fill="#EEEEEE"/>
<path d="M38.8937 5.54443H42.2952V18.0163H38.8937V20.2839H35.4923V23.6853H32.0909V27.0868H29.8233V14.6149L33.2247 14.6149V12.3473H35.4923V8.94585H38.8937V5.54443Z" fill="#4A8068"/>
<path d="M17.3515 5.54443H13.9501L13.9501 18.0163H17.3515V20.2839H20.7529V23.6853H24.1543V27.0868H26.422V14.6149L23.0205 14.6149V12.3473H20.7529V8.94585H17.3515V5.54443Z" fill="#4A8068"/>
<path d="M21.8865 28.2206V31.6221H9.41466V28.2206H7.14705V24.8192H3.74562V21.4178H0.344203V19.1502H12.8161L12.8161 22.5516H15.0837V24.8192H18.4851V28.2206H21.8865Z" fill="#4A8068"/>
<path d="M0.344543 44.0937L0.344543 47.4951H12.8164V44.0937H15.084V40.6923H18.4855V37.2909H21.8869V35.0232H9.415L9.415 38.4247H7.14739V40.6923H3.74596V44.0937H0.344543Z" fill="#4A8068"/>
<path d="M17.3515 61.1011H13.9501L13.9501 48.6292H17.3515V46.3616H20.7529V42.9602H24.1543V39.5587H26.422V52.0306H23.0205V54.2982H20.7529V57.6997H17.3515V61.1011Z" fill="#4A8068"/>
<path d="M38.8937 61.1011H42.2952V48.6292H38.8937V46.3616H35.4923V42.9602H32.0909V39.5587H29.8233V52.0306H33.2247V54.2982H35.4923V57.6997H38.8937V61.1011Z" fill="#4A8068"/>
<path d="M55.901 22.5518L55.901 19.1504L43.4291 19.1504L43.4291 22.5518L41.1615 22.5518L41.1615 25.9532L37.7601 25.9532L37.7601 29.3547L34.3587 29.3547L34.3587 31.6223L46.8305 31.6223L46.8305 28.2208L49.0982 28.2208L49.0982 25.9532L52.4996 25.9532L52.4996 22.5518L55.901 22.5518Z" fill="#4A8068"/>
<path d="M34.3585 38.4249L34.3585 35.0234L46.8304 35.0234L46.8304 38.4249L49.098 38.4249L49.098 41.8263L52.4994 41.8263L52.4994 45.2277L55.9009 45.2277L55.9009 47.4953L43.429 47.4953L43.429 44.0939L41.1614 44.0939L41.1614 41.8263L37.7599 41.8263L37.7599 38.4249L34.3585 38.4249Z" fill="#4A8068"/>
<rect width="3.40142" height="3.40142" transform="matrix(-1 0 0 1 29.8235 31.6221)" fill="#4A8068"/>
<path fill-rule="evenodd" clip-rule="evenodd" d="M30.761 318.267H23.4509V321.191H20.5268V324.115H17.6028V327.039H14.6788V329.963H11.7543V332.887H8.83041V335.811H5.90634V338.735H2.98259V341.659H0.0581626L0.0581626 350.431H2.98259V353.355H5.90634V356.279H8.83041V359.203H11.7543V362.127H14.6788V365.051H17.6028V367.975H20.5268V370.899H23.4506V373.823H30.7606V369.437H24.9129V366.513H21.9889V363.589H19.0648V360.665H16.1404V357.741H13.2165V354.817H10.2924V351.893H7.36863V348.969H4.44421V343.121H7.36863L7.36863 340.197H10.2924V337.273H13.2165V334.349H16.1404V331.425H19.0648V328.501H21.9889V325.577H24.9129V322.653H30.761V318.267Z" fill="#EEEEEE"/>
<path fill-rule="evenodd" clip-rule="evenodd" d="M23.4509 318.267H30.761V321.191H33.6851V324.115H36.6092V327.039H39.5331V329.963H42.4572V332.887H45.381V335.811H48.3052V338.735H51.2295V341.659H54.1541V350.431H51.2295V353.355H48.3052V356.279H45.381V359.203H42.4572V362.127H39.5331V365.051H36.6092V367.975H33.6851V370.899H30.7609V373.823H23.4509V369.437H29.299V366.513H32.2231V363.589H35.147V360.665H38.0711V357.741H40.9949V354.817H43.9192V351.893H46.8435V348.969H49.7681V343.121H46.8435V340.197H43.9192V337.273H40.9949V334.349H38.0711V331.425H35.147V328.501H32.2231V325.577H29.299V322.653H23.4509V318.267Z" fill="#EEEEEE"/>
<rect width="7.31007" height="7.31007" transform="matrix(-1 0 0 1 30.761 343.121)" fill="#EEEEEE"/>
<path d="M38.8937 255.722H42.2952V268.194H38.8937V270.461H35.4923V273.863H32.0909V277.264H29.8233V264.792H33.2247V262.525H35.4923V259.123H38.8937V255.722Z" fill="#4A8068"/>
<path d="M17.3515 255.722H13.9501L13.9501 268.194H17.3515V270.461H20.7529V273.863H24.1543V277.264H26.422V264.792H23.0205V262.525H20.7529V259.123H17.3515V255.722Z" fill="#4A8068"/>
<path d="M21.8868 278.397V281.799H9.41496V278.397H7.14735V274.996H3.74593V271.595H0.344509V269.327H12.8164L12.8164 272.728H15.084V274.996H18.4854V278.397H21.8868Z" fill="#4A8068"/>
<path d="M0.344543 294.271L0.344543 297.673H12.8164V294.271H15.084V290.87H18.4855V287.469H21.8869V285.201H9.415L9.415 288.602H7.14739V290.87H3.74596V294.271L0.344543 294.271Z" fill="#4A8068"/>
<path d="M17.3515 311.278H13.9501L13.9501 298.806H17.3515V296.539H20.7529V293.137H24.1543V289.736H26.422V302.208H23.0205V304.475H20.7529V307.877H17.3515V311.278Z" fill="#4A8068"/>
<path d="M38.8937 311.278H42.2952V298.806H38.8937V296.539H35.4923V293.137H32.0909V289.736H29.8233V302.208H33.2247V304.475H35.4923V307.877H38.8937V311.278Z" fill="#4A8068"/>
<path d="M55.901 272.729L55.901 269.327L43.4291 269.327L43.4291 272.729L41.1615 272.729L41.1615 276.13L37.7601 276.13L37.7601 279.531L34.3587 279.531L34.3587 281.799L46.8305 281.799L46.8305 278.398L49.0982 278.398L49.0982 276.13L52.4996 276.13L52.4996 272.729L55.901 272.729Z" fill="#4A8068"/>
<path d="M34.3585 288.602L34.3585 285.2L46.8304 285.2L46.8304 288.602L49.098 288.602L49.098 292.003L52.4994 292.003L52.4994 295.404L55.9009 295.404L55.9009 297.672L43.429 297.672L43.429 294.271L41.1614 294.271L41.1614 292.003L37.7599 292.003L37.7599 288.602L34.3585 288.602Z" fill="#4A8068"/>
<rect width="3.40142" height="3.40142" transform="matrix(-1 0 0 1 29.8235 281.8)" fill="#4A8068"/>
<path d="M38.8937 130.633H42.2952V143.105H38.8937V145.372H35.4923V148.774H32.0909V152.175H29.8233V139.703H33.2247V137.436H35.4923V134.034H38.8937V130.633Z" fill="#E62C20"/>
<path d="M17.3515 130.633H13.9501L13.9501 143.105H17.3515V145.372H20.7529V148.774H24.1543V152.175H26.422V139.703H23.0205V137.436H20.7529V134.034H17.3515V130.633Z" fill="#E62C20"/>
<path d="M21.8868 153.309V156.71H9.41496V153.309H7.14735V149.907H3.74593V146.506H0.344509V144.238H12.8164L12.8164 147.64H15.084V149.907H18.4854V153.309H21.8868Z" fill="#E62C20"/>
<path d="M0.344543 169.183L0.344543 172.584H12.8164V169.183H15.084V165.781H18.4855V162.38H21.8869V160.112H9.415L9.415 163.514H7.14739V165.781H3.74596V169.183H0.344543Z" fill="#E62C20"/>
<path d="M17.3515 186.189H13.9501L13.9501 173.718H17.3515V171.45H20.7529V168.049H24.1543V164.647H26.422V177.119H23.0205V179.387H20.7529V182.788H17.3515V186.189Z" fill="#E62C20"/>
<path d="M38.8937 186.189H42.2952V173.718H38.8937V171.45H35.4923V168.049H32.0909V164.647H29.8233V177.119H33.2247V179.387H35.4923V182.788H38.8937V186.189Z" fill="#E62C20"/>
<path d="M55.901 147.64L55.901 144.238L43.4291 144.238L43.4291 147.64L41.1615 147.64L41.1615 151.041L37.7601 151.041L37.7601 154.443L34.3587 154.443L34.3587 156.71L46.8305 156.71L46.8305 153.309L49.0982 153.309L49.0982 151.041L52.4996 151.041L52.4996 147.64L55.901 147.64Z" fill="#E62C20"/>
<path d="M34.3585 163.513L34.3585 160.111L46.8304 160.111L46.8304 163.513L49.098 163.513L49.098 166.914L52.4994 166.914L52.4994 170.316L55.9009 170.316L55.9009 172.583L43.429 172.583L43.429 169.182L41.1614 169.182L41.1614 166.914L37.7599 166.914L37.7599 163.513L34.3585 163.513Z" fill="#E62C20"/>
<rect width="3.40142" height="3.40142" transform="matrix(-1 0 0 1 29.8235 156.711)" fill="#E62C20"/>
<path fill-rule="evenodd" clip-rule="evenodd" d="M30.7615 193.178H23.4515V196.102H20.5275V199.026H17.6034V201.95H14.6793V204.874H11.7549V207.798H8.831V210.722H5.90692V213.646H2.98318V216.57H0.0587539L0.0587539 225.342H2.98318V228.266H5.90692V231.19H8.831V234.114H11.7549V237.038H14.6793V239.962H17.6034V242.886H20.5272V245.81H23.4511V248.734H30.7612V244.348H24.9132V241.424H21.9895V238.5H19.0654V235.576H16.141V232.652H13.217V229.728H10.293V226.804H7.36922V223.88H4.4448V218.032H7.36922L7.36922 215.108H10.293V212.184H13.217V209.26H16.141V206.336H19.0654V203.412H21.9895V200.488H24.9136V197.564H30.7615V193.178Z" fill="#EEEEEE"/>
<path fill-rule="evenodd" clip-rule="evenodd" d="M23.4514 193.178H30.7614V196.102H33.6856V199.026H36.6096V201.95H39.5336V204.874H42.4578V207.798H45.3819V210.722H48.3055V213.646H51.2298V216.57H54.1541V225.342H51.2298V228.266H48.3055V231.19H45.3819V234.114H42.4578V237.038H39.5336V239.962H36.6096V242.886H33.6856V245.81H30.7614V248.734H23.4514V244.348H29.2995V241.424H32.2236V238.5H35.1475V235.576H38.0718V232.652H40.9958V229.728H43.9195V226.804H46.8438V223.88H49.768V218.032H46.8438V215.108H43.9195V212.184H40.9958V209.26H38.0718V206.336H35.1475V203.412H32.2236V200.488H29.2995V197.564H23.4514V193.178Z" fill="#EEEEEE"/>
<rect width="7.31007" height="7.31007" transform="matrix(-1 0 0 1 30.7615 218.032)" fill="#EEEEEE"/>
<path fill-rule="evenodd" clip-rule="evenodd" d="M30.7615 68.0889H23.4515V71.0129H20.5275V73.937H17.6034V76.861H14.6793V79.785H11.7549V82.7091H8.831V85.6332H5.90692V88.5571H2.98318V91.4811H0.0587539L0.0587539 100.253H2.98318V103.177H5.90692V106.101H8.831V109.025H11.7549V111.949H14.6793V114.873H17.6034V117.797H20.5275V120.721H23.4511V123.646H30.7612V119.259H24.9136V116.335H21.9895V113.411H19.0654V110.487H16.141V107.563H13.217V104.639H10.293V101.715H7.36922V98.7912H4.4448V92.9431H7.36922L7.36922 90.0192H10.293V87.0951H13.217V84.171H16.141V81.247H19.0654V78.323H21.9895V75.3989H24.9136V72.4749H30.7615V68.0889Z" fill="#EEEEEE"/>
<path fill-rule="evenodd" clip-rule="evenodd" d="M23.4514 68.0889H30.7614V71.0129H33.6856V73.9369H36.6096V76.8609H39.5332V79.785H42.4575V82.709H45.3819V85.6331H48.3055V88.5571H51.2298V91.4811H54.1541V100.253H51.2298V103.177H48.3052V106.101H45.3819V109.025H42.4578V111.949H39.5336V114.873H36.6096V117.797H33.6856V120.721H30.7614V123.645H23.4514V119.259H29.2995V116.335H32.2236V113.411H35.1475V110.487H38.0718V107.563H40.9958V104.639H43.9192V101.715H46.8438V98.7912H49.768V92.9431H46.8438V90.0192H43.9195V87.095H40.9958V84.1711H38.0714V81.2469H35.1472V78.3229H32.2236V75.3989H29.2995V72.4749H23.4514V68.0889Z" fill="#EEEEEE"/>
<rect width="7.31007" height="7.31007" transform="matrix(-1 0 0 1 30.7615 92.9434)" fill="#EEEEEE"/>
<path d="M17.0069 505.899H13.6055V518.371H17.0069V520.639H20.4084V524.04H23.8098V527.442H26.0774V514.97H22.676V512.702H20.4084V509.301H17.0069V505.899Z" fill="#E62C20"/>
<path d="M38.5494 505.899H41.9508V518.371H38.5494V520.639H35.148V524.04H31.7465V527.442H29.4789V514.97H32.8804V512.702H35.148V509.301H38.5494V505.899Z" fill="#E62C20"/>
<path d="M34.0145 528.575V531.977H46.4863V528.575H48.7539V525.174H52.1554V521.772H55.5568V519.505H43.0849V522.906H40.8173V525.174H37.4159V528.575H34.0145Z" fill="#E62C20"/>
<path d="M-1.713e-07 522.906L0 519.505L12.4719 519.505L12.4719 522.906L14.7395 522.906L14.7395 526.308L18.1409 526.308L18.1409 529.709L21.5423 529.709L21.5423 531.977L9.07045 531.977L9.07045 528.575L6.80284 528.575L6.80284 526.308L3.40142 526.308L3.40142 522.906L-1.713e-07 522.906Z" fill="#E62C20"/>
<path d="M17.0069 380.811H13.6055V393.282H17.0069V395.55H20.4084V398.951H23.8098V402.353H26.0774V389.881H22.676V387.613H20.4084V384.212H17.0069V380.811Z" fill="#F69722"/>
<path d="M38.5494 380.811H41.9508V393.282H38.5494V395.55H35.148V398.951H31.7465V402.353H29.4789V389.881H32.8804V387.613H35.148V384.212H38.5494V380.811Z" fill="#F69722"/>
<path d="M34.0145 403.486V406.888H46.4863V403.486H48.7539V400.085H52.1554V396.683H55.5568V394.416H43.0849V397.817H40.8173V400.085H37.4159V403.486H34.0145Z" fill="#F69722"/>
<path d="M55.5564 419.36V422.762H43.0845V419.36H40.8169V415.959H37.4155V412.557H34.0141V410.29H46.4859V413.691H48.7536V415.959H52.155V419.36H55.5564Z" fill="#F69722"/>
<path d="M38.5494 436.367H41.9508V423.895H38.5494V421.628H35.148V418.226H31.7465V414.825H29.4789V427.297H32.8804V429.564H35.148V432.966H38.5494V436.367Z" fill="#F69722"/>
<path d="M17.0069 436.367H13.6055V423.895H17.0069V421.628H20.4084V418.226H23.8098V414.825H26.0774V427.297H22.676V429.564H20.4084V432.966H17.0069V436.367Z" fill="#F69722"/>
<path d="M-1.713e-07 397.817L0 394.416L12.4719 394.416L12.4719 397.817L14.7395 397.817L14.7395 401.219L18.1409 401.219L18.1409 404.62L21.5423 404.62L21.5423 406.888L9.07045 406.888L9.07045 403.486L6.80284 403.486L6.80284 401.219L3.40142 401.219L3.40142 397.817L-1.713e-07 397.817Z" fill="#F69722"/>
<path d="M21.5425 413.691L21.5425 410.29L9.07061 410.29L9.07061 413.691L6.803 413.691L6.803 417.093L3.40158 417.093L3.40158 420.494L0.000156293 420.494L0.000156407 422.762L12.472 422.762L12.472 419.36L14.7396 419.36L14.7396 417.093L18.1411 417.093L18.1411 413.691L21.5425 413.691Z" fill="#F69722"/>
<rect x="26.0779" y="406.888" width="3.40142" height="3.40142" fill="#F69722"/>
<path fill-rule="evenodd" clip-rule="evenodd" d="M23.3924 443.354H30.7025V446.279H33.6265V449.203H36.5505V452.127H39.4745V455.051H42.3986V457.975H45.3229V460.899H48.2465V463.823H51.1705V466.747H54.0948V475.519H51.1705V478.443H48.2468V481.367H45.3229V484.291H42.399V487.215H39.4745V490.139H36.5505V493.063H33.6265V495.987H30.7024V498.911H23.3923V494.525H29.2405V491.601H32.1644V488.677H35.0885V485.753H38.0129V482.829H40.9368V479.905H43.8608V476.981H46.7845V474.057H49.7087V468.209H46.7845V465.285H43.8604V462.361H40.9368V459.437H38.0126V456.513H35.0885V453.589H32.1644V450.665H29.2405V447.741H23.3924V443.354Z" fill="#EEEEEE"/>
<path fill-rule="evenodd" clip-rule="evenodd" d="M30.7025 443.354H23.3924V446.278H20.4679V449.203H17.544V452.126H14.6202V455.051H11.6962V457.975H8.77208V460.899H5.84815V463.823H2.92408V466.747H-9.61408e-06V475.519H2.92408V478.443H5.84815L5.84815 481.367H8.77166V484.291H11.6958V487.215H14.6202V490.139H17.5443V493.063H20.4679V495.987H23.392V498.911H30.7021V494.525H24.8539V491.601H21.9304V488.677H19.0063V485.753H16.0819V482.829H13.1577L13.1577 479.905H10.2342V476.981H7.31012V474.057H4.38603V468.209H7.31012V465.285H10.2342V462.361H13.1581V459.437H16.0822V456.512H19.0063V453.589H21.93V450.664H24.8539V447.741H30.7025V443.354Z" fill="#EEEEEE"/>
<rect x="23.3923" y="468.209" width="7.31007" height="7.31007" fill="#EEEEEE"/>
<path d="M78.0898 443.354H74.6884V455.826H78.0898V458.094H81.4913V461.495H84.8927V464.897H87.1603V452.425H83.7589V450.157H81.4913V446.756H78.0898V443.354Z" fill="#9C4A9A"/>
<path d="M99.6323 443.354H103.034V455.826H99.6323V458.094H96.2309V461.495H92.8294V464.897H90.5618V452.425H93.9632V450.157H96.2309V446.756H99.6323V443.354Z" fill="#9C4A9A"/>
<path d="M95.097 466.03V469.432H107.569V466.03H109.837V462.629H113.238V459.227H116.639V456.96H104.167V460.361H101.9V462.629H98.4985V466.03H95.097Z" fill="#9C4A9A"/>
<path d="M116.639 481.904V485.306H104.167V481.904H101.9V478.503H98.4984V475.101H95.097V472.834H107.569V476.235H109.836V478.503H113.238V481.904H116.639Z" fill="#9C4A9A"/>
<path d="M99.6323 498.911H103.034V486.439H99.6323V484.172H96.2309V480.77H92.8294V477.369H90.5618V489.841H93.9632V492.108H96.2309V495.51H99.6323V498.911Z" fill="#9C4A9A"/>
<path d="M78.0898 498.911H74.6884V486.439H78.0898V484.172H81.4913V480.77H84.8927V477.369H87.1603V489.841H83.7589V492.108H81.4913V495.51H78.0898V498.911Z" fill="#9C4A9A"/>
<path d="M61.0829 460.361L61.0829 456.96L73.5548 456.96L73.5548 460.361L75.8224 460.361L75.8224 463.763L79.2238 463.763L79.2238 467.164L82.6252 467.164L82.6252 469.432L70.1533 469.432L70.1533 466.03L67.8857 466.03L67.8857 463.763L64.4843 463.763L64.4843 460.361L61.0829 460.361Z" fill="#9C4A9A"/>
<path d="M82.6252 476.235L82.6252 472.834L70.1533 472.834L70.1533 476.235L67.8857 476.235L67.8857 479.637L64.4843 479.637L64.4843 483.038L61.0829 483.038L61.0829 485.306L73.5547 485.306L73.5547 481.904L75.8223 481.904L75.8223 479.637L79.2238 479.637L79.2238 476.235L82.6252 476.235Z" fill="#9C4A9A"/>
<rect x="87.1603" y="469.432" width="3.40142" height="3.40142" fill="#9C4A9A"/>
<path fill-rule="evenodd" clip-rule="evenodd" d="M85.937 380.811H93.247V383.735H96.1715V386.659H99.0952V389.583H102.019V392.507H104.943V395.431H107.867V398.355H110.791V401.279H113.715V404.203H116.639V412.975H113.715V415.899H110.792V418.823H107.867V421.747H104.943V424.671H102.019V427.595H99.0952V430.519H96.1715V433.443H93.247V436.367H85.937V431.981H91.7855V429.057H94.7092V426.133H97.6335V423.209H100.557V420.285H103.481V417.361H106.406V414.437H109.329V411.513H112.253V405.665H109.329V402.741H106.405V399.817H103.481V396.893H100.557V393.969H97.6335V391.045H94.7092V388.121H91.7855V385.197H85.937V380.811Z" fill="#EEEEEE"/>
<path fill-rule="evenodd" clip-rule="evenodd" d="M93.2469 380.811H85.9368V383.734H83.0123V386.658H80.0886V389.583H77.1647V392.507H74.2407V395.431H71.3167V398.355H68.3924V401.279H65.4688V404.203H62.5445V412.975H65.4688V415.899H68.3924V418.823H71.3167V421.747H74.2407V424.671H77.1647V427.595H80.0886V430.519H83.0123V433.443H85.9368V436.367H93.2469V431.981H87.3984V429.057H84.4747V426.133H81.5507V423.209H78.6267V420.285H75.7027V417.361H72.7785V414.437H69.8549V411.513H66.9305V405.665H69.8549V402.741H72.7785V399.817H75.7027V396.893H78.6267V393.969H81.5507V391.045H84.4747V388.12H87.3984V385.197H93.2469V380.811Z" fill="#EEEEEE"/>
<rect x="85.937" y="405.665" width="7.31007" height="7.31007" fill="#EEEEEE"/>
<path fill-rule="evenodd" clip-rule="evenodd" d="M85.937 505.899H93.247V508.823H96.1715V511.748H99.0952V514.671H102.019V517.595H104.943V520.52H107.867V523.444H110.791V526.368H113.715V529.292H116.639V538.064H113.715V540.988H110.792V543.912H107.867V546.836H104.943V549.76H102.019V552.684H99.0952V555.608H96.1715V558.532H93.247V561.456H85.937V557.07H91.7855V554.146H94.7092V551.222H97.6335V548.298H100.557V545.374H103.481V542.45H106.406V539.526H109.329V536.602H112.253V530.754H109.329V527.83H106.405V524.906H103.481V521.982H100.557V519.058H97.6335V516.134H94.7092V513.209H91.7855V510.285H85.937V505.899Z" fill="#EEEEEE"/>
<path fill-rule="evenodd" clip-rule="evenodd" d="M93.2469 505.899H85.9368V508.824H83.0123V511.747H80.0886V514.672H77.1647V517.596L74.2407 517.596V520.52H71.3167V523.444H68.3924V526.368H65.4688V529.292H62.5445V538.064H65.4688V540.988H68.3924V543.912H71.3167V546.836H74.2407V549.76H77.1647V552.684H80.0892V555.608H83.0123V558.532H85.9368V561.456H93.2469V557.07H87.3984V554.146H84.4753V551.222H81.5507V548.298H78.6267V545.374H75.7027V542.45H72.7785V539.526H69.8549V536.602H66.9305V530.754H69.8549V527.83H72.7785V524.906H75.7027V521.982H78.6267V519.058H81.5507V516.133H84.4747V513.21H87.3984V510.285H93.2469V505.899Z" fill="#EEEEEE"/>
<rect x="85.9373" y="530.754" width="7.31007" height="7.31007" fill="#EEEEEE"/>
</svg>
