<svg width="135" height="39" viewBox="0 0 135 39" fill="none" xmlns="http://www.w3.org/2000/svg">
<path d="M6.688 31V14.456H0.128V8.6H20.8V14.456H14.24V31H6.688ZM29.6735 16.92H39.6575V22.36H29.6735V16.92ZM30.1855 25.304H41.3855V31H22.7615V8.6H40.9695V14.296H30.1855V25.304ZM74.938 31V14.456H68.378V8.6H89.05V14.456H82.49V31H74.938ZM97.9235 16.92H107.908V22.36H97.9235V16.92ZM98.4355 25.304H109.636V31H91.0115V8.6H109.22V14.296H98.4355V25.304Z" fill="#D9D9D9"/>
<path d="M41.8607 31L51.6528 8.6H59.0768L68.8688 31H61.0608L53.8288 12.184H56.7728L49.5408 31H41.8607ZM47.6848 27.096L49.6048 21.656H59.9088L61.8288 27.096H47.6848Z" fill="#E62C20"/>
<path d="M112.543 31V8.6H123.327C125.417 8.6 127.22 8.94133 128.735 9.624C130.271 10.3067 131.455 11.288 132.287 12.568C133.119 13.8267 133.535 15.32 133.535 17.048C133.535 18.776 133.119 20.2693 132.287 21.528C131.455 22.7653 130.271 23.7147 128.735 24.376C127.22 25.0373 125.417 25.368 123.327 25.368H116.735L120.095 22.264V31H112.543ZM125.951 31L120.447 22.84H128.447L134.015 31H125.951ZM120.095 23.096L116.735 19.672H122.847C123.892 19.672 124.66 19.4373 125.151 18.968C125.663 18.4987 125.919 17.8587 125.919 17.048C125.919 16.2373 125.663 15.5973 125.151 15.128C124.66 14.6587 123.892 14.424 122.847 14.424H116.735L120.095 11V23.096Z" fill="#4A8068"/>
<path d="M119 13.5V21L127 20.5V13.5H119Z" fill="#4A8068"/>
<path d="M48 31L55.7 15L62 31H48Z" fill="#E62C20"/>
</svg>
