<svg width="289" height="74" viewBox="0 0 289 74" fill="none" xmlns="http://www.w3.org/2000/svg">
<path fill-rule="evenodd" clip-rule="evenodd" d="M27.406 0.0712891H5.95122e-05V0.0713825H0V27.4773H10.0969V10.1682H27.406V0.0712891Z" fill="#4A8068"/>
<path fill-rule="evenodd" clip-rule="evenodd" d="M44.7151 0.0712891H72.1211V0.0713825H72.1211V27.4773H62.0242V10.1682H44.7151V0.0712891Z" fill="#4A8068"/>
<path fill-rule="evenodd" clip-rule="evenodd" d="M44.7151 73.6348H72.1211V73.6347H72.1211V46.2288H62.0242V63.5378H44.7151V73.6348Z" fill="#4A8068"/>
<path fill-rule="evenodd" clip-rule="evenodd" d="M27.406 73.6348H5.95122e-05V73.6347H0V46.2288H10.0969V63.5378H27.406V73.6348Z" fill="#4A8068"/>
<path fill-rule="evenodd" clip-rule="evenodd" d="M17.3086 18.8228H27.4055V27.4773H44.7145V18.8228H54.8115V28.9198H46.157V46.2288H54.8115V56.3257H44.7145V47.6712H27.4055V56.3257H17.3086V46.2288H25.9631V28.9197H17.3086V18.8228Z" fill="#E62C20"/>
<path fill-rule="evenodd" clip-rule="evenodd" d="M99.406 0H72.0001V9.34601e-05H72V27.406H82.0969V10.0969H99.406V0Z" fill="#EEEEEE"/>
<path fill-rule="evenodd" clip-rule="evenodd" d="M116.715 0H144.121V9.34601e-05H144.121V27.406H134.024V10.0969H116.715V0Z" fill="#EEEEEE"/>
<path fill-rule="evenodd" clip-rule="evenodd" d="M116.715 73.5635H144.121V73.5634H144.121V46.1575H134.024V63.4665H116.715V73.5635Z" fill="#EEEEEE"/>
<path fill-rule="evenodd" clip-rule="evenodd" d="M99.406 73.5635H72.0001V73.5634H72V46.1575H82.0969V63.4665H99.406V73.5635Z" fill="#EEEEEE"/>
<path fill-rule="evenodd" clip-rule="evenodd" d="M89.3086 18.7515H99.4055V27.406H116.715V18.7515H126.811V28.8485H118.157V46.1575H126.811V56.2544H116.715V47.5999H99.4055V56.2544H89.3086V46.1575H97.9631V28.8484H89.3086V18.7515Z" fill="#F69722"/>
<path fill-rule="evenodd" clip-rule="evenodd" d="M171.406 0H144V9.34601e-05H144V27.406H154.097V10.0969H171.406V0Z" fill="#9C4A9A"/>
<path fill-rule="evenodd" clip-rule="evenodd" d="M188.715 0H216.121V9.34601e-05H216.121V27.406H206.024V10.0969H188.715V0Z" fill="#9C4A9A"/>
<path fill-rule="evenodd" clip-rule="evenodd" d="M188.715 73.5635H216.121V73.5634H216.121V46.1575H206.024V63.4665H188.715V73.5635Z" fill="#9C4A9A"/>
<path fill-rule="evenodd" clip-rule="evenodd" d="M171.406 73.5635H144V73.5634H144V46.1575H154.097V63.4665H171.406V73.5635Z" fill="#9C4A9A"/>
<path fill-rule="evenodd" clip-rule="evenodd" d="M161.309 18.7515H171.406V27.406H188.715V18.7515H198.811V28.8485H190.157V46.1575H198.811V56.2544H188.715V47.5999H171.406V56.2544H161.309V46.1575H169.963V28.8484H161.309V18.7515Z" fill="#4A8068"/>
<path fill-rule="evenodd" clip-rule="evenodd" d="M243.406 0H216V9.34601e-05H216V27.406H226.097V10.0969H243.406V0Z" fill="#4A8068"/>
<path fill-rule="evenodd" clip-rule="evenodd" d="M260.715 0H288.121V9.34601e-05H288.121V27.406H278.024V10.0969H260.715V0Z" fill="#4A8068"/>
<path fill-rule="evenodd" clip-rule="evenodd" d="M260.715 73.5635H288.121V73.5634H288.121V46.1575H278.024V63.4665H260.715V73.5635Z" fill="#4A8068"/>
<path fill-rule="evenodd" clip-rule="evenodd" d="M243.406 73.5635H216V73.5634H216V46.1575H226.097V63.4665H243.406V73.5635Z" fill="#4A8068"/>
<path fill-rule="evenodd" clip-rule="evenodd" d="M233.309 18.7515H243.406V27.406H260.715V18.7515H270.811V28.8485H262.157V46.1575H270.811V56.2544H260.715V47.5999H243.406V56.2544H233.309V46.1575H241.963V28.8484H233.309V18.7515Z" fill="#EEEEEE"/>
</svg>
