<svg width="117" height="306" viewBox="0 0 117 306" fill="none" xmlns="http://www.w3.org/2000/svg">
<path d="M99.6347 125.089H103.036V137.561H99.6347V139.828H96.2333V143.23H92.8319V146.631H90.5643V134.159H93.9657V131.892H96.2333V128.49H99.6347V125.089Z" fill="#9C4A9A"/>
<path d="M78.0919 125.089H74.6904V137.561H78.0919V139.828H81.4933V143.23H84.8947V146.631H87.1623V134.159H83.7609V131.892H81.4933V128.49H78.0919V125.089Z" fill="#9C4A9A"/>
<path d="M82.627 147.765V151.167H70.1551V147.765H67.8875V144.364H64.486V140.962H61.0846V138.695H73.5565V142.096H75.8241V144.364H79.2255V147.765H82.627Z" fill="#9C4A9A"/>
<path d="M61.085 163.639V167.04H73.5568V163.639H75.8245V160.237H79.2259V156.836H82.6273V154.568H70.1554V157.97H67.8878V160.237H64.4864V163.639H61.085Z" fill="#9C4A9A"/>
<path d="M78.0919 180.646H74.6904V168.174H78.0919V165.906H81.4933V162.505H84.8947V159.103H87.1623V171.575H83.7609V173.843H81.4933V177.244H78.0919V180.646Z" fill="#9C4A9A"/>
<path d="M99.6347 180.646H103.036V168.174H99.6347V165.906H96.2333V162.505H92.8319V159.103H90.5643V171.575H93.9657V173.843H96.2333V177.244H99.6347V180.646Z" fill="#9C4A9A"/>
<path d="M116.642 142.096L116.642 138.695L104.17 138.695L104.17 142.096L101.902 142.096L101.902 145.498L98.5007 145.498L98.5007 148.899L95.0993 148.899L95.0993 151.167L107.571 151.167L107.571 147.765L109.839 147.765L109.839 145.498L113.24 145.498L113.24 142.096L116.642 142.096Z" fill="#9C4A9A"/>
<path d="M95.0996 157.969L95.0996 154.568L107.571 154.568L107.571 157.969L109.839 157.969L109.839 161.371L113.241 161.371L113.241 164.772L116.642 164.772L116.642 167.04L104.17 167.04L104.17 163.638L101.902 163.638L101.902 161.371L98.501 161.371L98.501 157.969L95.0996 157.969Z" fill="#9C4A9A"/>
<rect width="3.40142" height="3.40142" transform="matrix(-1 0 0 1 90.5635 151.167)" fill="#9C4A9A"/>
<path d="M99.6347 0L103.036 0V12.4719H99.6347V14.7395H96.2333V18.1409H92.8319V21.5423H90.5643V9.07046L93.9657 9.07046V6.80284H96.2333V3.40142H99.6347V0Z" fill="#F69722"/>
<path d="M78.0919 0L74.6904 0V12.4719H78.0919V14.7395H81.4933V18.1409H84.8947V21.5423H87.1623V9.07046L83.7609 9.07046V6.80284H81.4933V3.40142H78.0919V0Z" fill="#F69722"/>
<path d="M82.627 22.6762V26.0776H70.1551V22.6762H67.8875V19.2748H64.486V15.8734H61.0846V13.6058L73.5565 13.6058V17.0072H75.8241V19.2748H79.2255V22.6762H82.627Z" fill="#F69722"/>
<path d="M61.085 38.5493V41.9507H73.5568V38.5493H75.8245V35.1478H79.2259V31.7464H82.6273V29.4788H70.1554V32.8802H67.8878V35.1478H64.4864V38.5493H61.085Z" fill="#F69722"/>
<path d="M78.0919 55.5566H74.6904V43.0848H78.0919V40.8172H81.4933V37.4157H84.8947V34.0143H87.1623V46.4862H83.7609V48.7538H81.4933V52.1552H78.0919V55.5566Z" fill="#F69722"/>
<path d="M99.6347 55.5566H103.036V43.0848H99.6347V40.8172H96.2333V37.4157H92.8319V34.0143H90.5643V46.4862H93.9657V48.7538H96.2333V52.1552H99.6347V55.5566Z" fill="#F69722"/>
<path d="M116.642 17.0074L116.642 13.606L104.17 13.606L104.17 17.0074L101.902 17.0074L101.902 20.4088L98.5007 20.4088L98.5007 23.8102L95.0993 23.8102L95.0993 26.0778L107.571 26.0778L107.571 22.6764L109.839 22.6764L109.839 20.4088L113.24 20.4088L113.24 17.0074L116.642 17.0074Z" fill="#F69722"/>
<path d="M95.0996 32.8804L95.0996 29.479L107.571 29.479L107.571 32.8804L109.839 32.8804L109.839 36.2818L113.241 36.2818L113.241 39.6833L116.642 39.6833L116.642 41.9509L104.17 41.9509L104.17 38.5495L101.902 38.5495L101.902 36.2818L98.501 36.2818L98.501 32.8804L95.0996 32.8804Z" fill="#F69722"/>
<rect width="3.40142" height="3.40142" transform="matrix(-1 0 0 1 90.5635 26.0776)" fill="#F69722"/>
<path fill-rule="evenodd" clip-rule="evenodd" d="M93.5332 62.5444H86.2231V65.4686H83.2986V68.3925H80.3746V71.3165H77.4509V74.2406H74.5269V77.1647H71.603V80.0886H68.6784V83.0127H65.7555V85.9366H62.8307V94.7087H65.7555V97.6327H68.6784V100.557H71.603V103.481H74.527V106.405H77.4509V109.329H80.3746V112.253H83.2986V115.177H86.2231V118.101H93.5332V113.715H87.6846V110.791H84.7606V107.867H81.837V104.943H78.913V102.019H75.989V99.0949H73.0644V96.1709H70.1416V93.2467H67.2168V87.3987H70.1416V84.4747H73.0644V81.5507H75.989V78.6266H78.9129V75.7025H81.837V72.7786H84.7606V69.8546H87.6846V66.9305H93.5332V62.5444Z" fill="#EEEEEE"/>
<path fill-rule="evenodd" clip-rule="evenodd" d="M86.2227 62.5444H93.5327V65.4684H96.4572V68.3925H99.3812V71.3165H102.306V74.2406H105.229V77.1646H108.153V80.0886H111.077V83.0127H114V85.9366H116.925V94.7087H114V97.6327H111.077V100.557H108.153V103.481H105.229V106.405H102.306V109.329H99.3812V112.253H96.4572V115.177H93.5327V118.101H86.2227V113.715H92.0712V110.791H94.9952V107.867H97.9199V104.943H100.843V102.019H103.767V99.0948H106.691V96.1709H109.614V93.2467H112.539V87.3987H109.614V84.4747H106.691V81.5507H103.767V78.6267H100.843V75.7026H97.9199V72.7786H94.9952V69.8545H92.0712V66.9305H86.2227V62.5444Z" fill="#EEEEEE"/>
<rect width="7.31007" height="7.31007" transform="matrix(-1 0 0 1 93.5332 87.3989)" fill="#EEEEEE"/>
<path d="M99.6347 250.178H103.036V262.65H99.6347V264.917H96.2333V268.319H92.8319V271.72H90.5643V259.248H93.9657V256.981H96.2333V253.579H99.6347V250.178Z" fill="#F69722"/>
<path d="M78.0919 250.178H74.6904V262.65H78.0919V264.917H81.4933V268.319H84.8947V271.72H87.1623V259.248H83.7609V256.981H81.4933V253.579H78.0919V250.178Z" fill="#F69722"/>
<path d="M82.627 272.854V276.255H70.1551V272.854H67.8875V269.453H64.486V266.051H61.0846V263.783H73.5565V267.185H75.8241V269.453H79.2255V272.854H82.627Z" fill="#F69722"/>
<path d="M61.085 288.727V292.129H73.5568V288.727H75.8245V285.326H79.2259V281.925H82.6273V279.657H70.1554V283.058H67.8878V285.326H64.4864V288.727L61.085 288.727Z" fill="#F69722"/>
<path d="M78.0919 305.734H74.6904V293.262H78.0919V290.995H81.4933V287.593H84.8947V284.192H87.1623V296.664H83.7609V298.932H81.4933V302.333H78.0919V305.734Z" fill="#F69722"/>
<path d="M99.6347 305.734H103.036V293.262H99.6347V290.995H96.2333V287.593H92.8319V284.192H90.5643V296.664H93.9657V298.932H96.2333V302.333H99.6347V305.734Z" fill="#F69722"/>
<path d="M116.642 267.185L116.642 263.784L104.17 263.784L104.17 267.185L101.902 267.185L101.902 270.587L98.5007 270.587L98.5007 273.988L95.0993 273.988L95.0993 276.256L107.571 276.256L107.571 272.854L109.839 272.854L109.839 270.587L113.24 270.587L113.24 267.185L116.642 267.185Z" fill="#F69722"/>
<path d="M95.0996 283.058L95.0996 279.657L107.571 279.657L107.571 283.058L109.839 283.058L109.839 286.46L113.241 286.46L113.241 289.861L116.642 289.861L116.642 292.129L104.17 292.129L104.17 288.727L101.902 288.727L101.902 286.46L98.501 286.46L98.501 283.058L95.0996 283.058Z" fill="#F69722"/>
<rect width="3.40142" height="3.40142" transform="matrix(-1 0 0 1 90.5635 276.255)" fill="#F69722"/>
<path fill-rule="evenodd" clip-rule="evenodd" d="M93.5332 187.633H86.2231V190.557H83.2986V193.482H80.3746V196.406H77.4509V199.329H74.5269V202.254H71.603V205.177H68.6784V208.102H65.7555V211.026H62.8307V219.798H65.7555V222.722H68.6784V225.646H71.6033V228.57H74.5269V231.494H77.4509V234.418H80.3746V237.342H83.2986V240.266H86.2231V243.19H93.5332V238.804H87.6846V235.88H84.7606V232.956H81.837V230.032H78.9129V227.108H75.9894V224.184H73.0644V221.26H70.1416V218.336H67.2168V212.488H70.1416V209.564H73.0644V206.64H75.989V203.715H78.9129V200.792H81.837V197.868H84.7606V194.943H87.6846V192.019H93.5332V187.633Z" fill="#EEEEEE"/>
<path fill-rule="evenodd" clip-rule="evenodd" d="M86.2236 187.633H93.5337V190.557H96.4582V193.481H99.3822V196.405H102.307V199.33H105.23V202.254H108.154V205.177H111.078V208.102H114.001V211.026H116.926V219.798H114.001V222.722H111.078V225.646H108.154V228.57H105.23V231.494H102.307V234.418H99.3819V237.342H96.4582V240.266H93.5337V243.19H86.2236V238.804H92.0721V235.88H94.9959V232.956H97.9209V230.032H100.844V227.108H103.768V224.184H106.692V221.26H109.615V218.336H112.54V212.488H109.615V209.564H106.692V206.64H103.768V203.716H100.844V200.791H97.9209V197.867H94.9962V194.943H92.0721V192.019H86.2236V187.633Z" fill="#EEEEEE"/>
<rect width="7.31007" height="7.31007" transform="matrix(-1 0 0 1 93.5332 212.488)" fill="#EEEEEE"/>
<path d="M38.8359 62.5444H42.2373V75.0163H38.8359V77.2839H35.4345V80.6853H32.033V84.0868H29.7654V71.6149H33.1668V69.3473H35.4345V65.9459H38.8359V62.5444Z" fill="#4A8068"/>
<path d="M17.293 62.5444H13.8916L13.8916 75.0163H17.293V77.2839H20.6944V80.6853H24.0959V84.0868H26.3635V71.6149H22.9621V69.3473H20.6944V65.9459H17.293V62.5444Z" fill="#4A8068"/>
<path d="M21.8281 85.2206V88.6221H9.35625V85.2206H7.08863V81.8192H3.68721V78.4178H0.285793V76.1502H12.7577L12.7577 79.5516H15.0253V81.8192H18.4267V85.2206H21.8281Z" fill="#4A8068"/>
<path d="M0.286133 101.094L0.286133 104.496H12.758V101.094H15.0256V97.6928H18.427V94.2913H21.8285V92.0237H9.35659L9.35659 95.4251H7.08897V97.6928H3.68755V101.094H0.286133Z" fill="#4A8068"/>
<path d="M17.293 118.101H13.8916L13.8916 105.629H17.293V103.362H20.6944V99.9602H24.0959V96.5587H26.3635V109.031H22.9621V111.298H20.6944V114.7H17.293V118.101Z" fill="#4A8068"/>
<path d="M38.8359 118.101H42.2373V105.629H38.8359V103.362H35.4345V99.9602H32.033V96.5587H29.7654V109.031H33.1668V111.298H35.4345V114.7H38.8359V118.101Z" fill="#4A8068"/>
<path d="M55.8428 79.5518L55.8428 76.1504L43.3709 76.1504L43.3709 79.5518L41.1033 79.5518L41.1033 82.9532L37.7019 82.9532L37.7019 86.3547L34.3004 86.3547L34.3004 88.6223L46.7723 88.6223L46.7723 85.2208L49.0399 85.2208L49.0399 82.9532L52.4414 82.9532L52.4414 79.5518L55.8428 79.5518Z" fill="#4A8068"/>
<path d="M34.3008 95.4249L34.3008 92.0234L46.7727 92.0234L46.7727 95.4249L49.0403 95.4249L49.0403 98.8263L52.4417 98.8263L52.4417 102.228L55.8431 102.228L55.8431 104.495L43.3712 104.495L43.3712 101.094L41.1036 101.094L41.1036 98.8263L37.7022 98.8263L37.7022 95.4249L34.3008 95.4249Z" fill="#4A8068"/>
<rect width="3.40142" height="3.40142" transform="matrix(-1 0 0 1 29.7656 88.6221)" fill="#4A8068"/>
<path fill-rule="evenodd" clip-rule="evenodd" d="M30.7031 0L23.3931 0V2.92395L20.4694 2.92395V5.84814H17.5446V8.77212H14.621V11.6962H11.697V14.6202H8.77216V17.5442L5.84854 17.5442V20.4683H2.9245V23.3923H0.000675124L0.000675124 32.1644H2.9245V35.0883H5.84854V38.0124H8.77216V40.9365H11.697V43.8604H14.621V46.7845H17.5446V49.7086H20.4694V52.6325H23.3931V55.5567H30.7031V51.1707H24.8555V48.2465H21.9307V45.3225H19.007V42.3985H16.083V39.4744H13.1582V36.5504H10.2346V33.6264H7.31055V30.7023L4.38672 30.7023V24.8543L7.31055 24.8543L7.31055 21.9303H10.2346V19.0063H13.1582V16.0822H16.083V13.1582L19.007 13.1582V10.2342H21.9307V7.30999L24.8555 7.30999V4.38604H30.7031V0Z" fill="#EEEEEE"/>
<path fill-rule="evenodd" clip-rule="evenodd" d="M23.3926 0L30.7027 0V2.92395L33.6273 2.92395V5.84805H36.5509V8.772H39.4748V11.6961H42.3987V14.6202H45.3235V17.5441L48.2464 17.5441V20.4682H51.171V23.3922H54.095V32.1643H51.171V35.0882H48.2464V38.0125H45.3235V40.9362H42.3987V43.8603H39.4748V46.7843H36.5509V49.7084H33.6273V52.6325H30.7027V55.5565H23.3926V51.1704H29.2412V48.2465H32.1648V45.3224H35.0888V42.3983H38.0127V39.4743H40.9375V36.5502H43.8604V33.6264H46.785V30.7021L49.709 30.7021V24.8543L46.785 24.8543V21.9301H43.8604V19.0063H40.9375V16.0822H38.0127V13.158L35.0888 13.158V10.2341H32.1648V7.30999L29.2412 7.30999V4.38604H23.3926V0Z" fill="#EEEEEE"/>
<rect width="7.31007" height="7.31007" transform="matrix(-1 0 0 1 30.7031 24.8545)" fill="#EEEEEE"/>
<path d="M38.8359 187.633H42.2373V200.105H38.8359V202.372H35.4345V205.774H32.033V209.175H29.7654V196.703H33.1668V194.436H35.4345V191.034H38.8359V187.633Z" fill="#E62C20"/>
<path d="M17.293 187.633H13.8916L13.8916 200.105H17.293V202.372H20.6944V205.774H24.0959V209.175H26.3635V196.703H22.9621V194.436H20.6944V191.034H17.293V187.633Z" fill="#E62C20"/>
<path d="M21.8291 210.309V213.71H9.35722V210.309H7.08961V206.908H3.68819V203.506H0.286769V201.239H12.7586L12.7586 204.64H15.0263V206.908H18.4277V210.309H21.8291Z" fill="#E62C20"/>
<path d="M0.286133 226.182L0.286133 229.583H12.758V226.182H15.0256V222.781H18.427V219.379H21.8285V217.112H9.35659L9.35659 220.513H7.08897V222.781H3.68755V226.182H0.286133Z" fill="#E62C20"/>
<path d="M17.293 243.189H13.8916L13.8916 230.718H17.293V228.45H20.6944V225.049H24.0959V221.647H26.3635V234.119H22.9621V236.387H20.6944V239.788H17.293V243.189Z" fill="#E62C20"/>
<path d="M38.8359 243.189H42.2373V230.718H38.8359V228.45H35.4345V225.049H32.033V221.647H29.7654V234.119H33.1668V236.387H35.4345V239.788H38.8359V243.189Z" fill="#E62C20"/>
<path d="M55.8428 204.64L55.8428 201.239L43.3709 201.239L43.3709 204.64L41.1033 204.64L41.1033 208.042L37.7019 208.042L37.7019 211.443L34.3004 211.443L34.3004 213.711L46.7723 213.711L46.7723 210.309L49.0399 210.309L49.0399 208.042L52.4414 208.042L52.4414 204.64L55.8428 204.64Z" fill="#E62C20"/>
<path d="M34.3008 220.513L34.3008 217.112L46.7727 217.112L46.7727 220.513L49.0403 220.513L49.0403 223.915L52.4417 223.915L52.4417 227.316L55.8431 227.316L55.8431 229.584L43.3712 229.584L43.3712 226.182L41.1036 226.182L41.1036 223.915L37.7022 223.915L37.7022 220.513L34.3008 220.513Z" fill="#E62C20"/>
<rect width="3.40142" height="3.40142" transform="matrix(-1 0 0 1 29.7656 213.71)" fill="#E62C20"/>
<path fill-rule="evenodd" clip-rule="evenodd" d="M30.7031 250.178H23.3931V253.102H20.4694V256.026H17.5446V258.95H14.6209V261.874H11.697V264.798H8.77216V267.722H5.84851V270.646H2.9245V273.57H0.000675124L0.000675124 282.342H2.9245V285.266H5.84851V288.19H8.77216V291.114H11.697V294.038H14.6209V296.962H17.5446V299.886H20.4684V302.81H23.3931V305.735H30.7031V301.349H24.8545V298.424H21.9307V295.5H19.007V292.576H16.083V289.652H13.1582V286.728H10.2345V283.804H7.31055V280.88H4.38672V275.032H7.31055L7.31055 272.108H10.2345V269.184H13.1582V266.26H16.083V263.336H19.007V260.412H21.9307V257.488H24.8555V254.564H30.7031V250.178Z" fill="#EEEEEE"/>
<path fill-rule="evenodd" clip-rule="evenodd" d="M23.3926 250.178H30.7027V253.102H33.6273V256.026H36.5509V258.95H39.4748V261.874H42.3988V264.798H45.3236V267.722H48.2464V270.646H51.171V273.57H54.095V282.342H51.171V285.266H48.2464V288.19H45.3236V291.114H42.3988V294.038H39.4748V296.962H36.5509V299.886H33.6273V302.81H30.7027V305.734H23.3926V301.348H29.2412V298.424H32.1648V295.5H35.0887V292.576H38.0127V289.652H40.9375V286.728H43.8604V283.804H46.785V280.88H49.709V275.032H46.785V272.108H43.8604V269.184H40.9375V266.26H38.0127V263.336H35.0887V260.412H32.1648V257.488H29.2412V254.564H23.3926V250.178Z" fill="#EEEEEE"/>
<rect width="7.31007" height="7.31007" transform="matrix(-1 0 0 1 30.7031 275.032)" fill="#EEEEEE"/>
<path fill-rule="evenodd" clip-rule="evenodd" d="M30.7031 125.089H23.3931V128.013H20.4694V130.937H17.5446V133.861H14.6209V136.785H11.697V139.709H8.77216V142.633H5.84851V145.557H2.9245V148.481H0.000675124L0.000675124 157.253H2.9245V160.177H5.84851V163.101H8.77216V166.025H11.697V168.949H14.6209V171.873H17.5446V174.797H20.4694V177.721H23.3931V180.646H30.7031V176.26H24.8555V173.335H21.9307V170.411H19.007V167.487H16.083V164.563H13.1582V161.639H10.2345V158.715H7.31055V155.791H4.38672V149.943H7.31055L7.31055 147.019H10.2345V144.095H13.1582V141.171H16.083V138.247H19.007V135.323H21.9307V132.399H24.8555V129.475H30.7031V125.089Z" fill="#EEEEEE"/>
<path fill-rule="evenodd" clip-rule="evenodd" d="M23.3926 125.089H30.7027V128.013H33.6273V130.937H36.5509V133.861H39.4749V136.785H42.3987V139.709H45.3236V142.633H48.2464V145.557H51.171V148.481H54.095V157.253H51.171V160.177H48.2464V163.101H45.3236V166.025H42.3988V168.949H39.4748V171.873H36.5509V174.797H33.6273V177.721H30.7027V180.645H23.3926V176.259H29.2412V173.335H32.1648V170.411H35.0887V167.487H38.0127V164.563H40.9375V161.639H43.8604V158.715H46.785V155.791H49.709V149.943H46.785V147.019H43.8604V144.095H40.9375V141.171H38.0127V138.247H35.0889V135.323H32.1648V132.399H29.2412V129.475H23.3926V125.089Z" fill="#EEEEEE"/>
<rect width="7.31007" height="7.31007" transform="matrix(-1 0 0 1 30.7031 149.943)" fill="#EEEEEE"/>
</svg>
